<?xml version="1.0" encoding="UTF-8"?>
<svg width="14px" height="14px" viewBox="0 0 14 14" version="1.1" xmlns="http://www.w3.org/2000/svg" xmlns:xlink="http://www.w3.org/1999/xlink">
    <title>送货单</title>
    <g id="单据流" stroke="none" stroke-width="1" fill="none" fill-rule="evenodd">
        <g id="送货单" fill="#FFFFFF">
            <path d="M9,2 L9,12 L6,12 C6,13.1045695 5.1045695,14 4,14 C2.8954305,14 2,13.1045695 2,12 L0,12 L0,2 L9,2 Z M4,11 C3.44771525,11 3,11.4477153 3,12 C3,12.5522847 3.44771525,13 4,13 C4.55228475,13 5,12.5522847 5,12 C5,11.4477153 4.55228475,11 4,11 Z M8,3 L1,3 L1,11 L2.26760632,10.9999275 C2.61342606,10.4021661 3.25974756,10 4,10 C4.74025244,10 5.38657394,10.4021661 5.73239368,10.9999275 L8,11 L8,3 Z" id="形状结合" fill-rule="nonzero"></path>
            <rect id="矩形备份-5" x="2" y="7" width="4" height="1"></rect>
            <rect id="矩形备份-3" x="2" y="5" width="3" height="1"></rect>
            <path d="M11,5 L14,6 L14,11 L11.7323937,10.9999275 C11.9025897,11.2941173 12,11.6356829 12,12 C12,13.1045695 11.1045695,14 10,14 C8.8954305,14 8,13.1045695 8,12 C8,11.6356829 8.09741028,11.2941173 8.26760632,10.9999275 L8,11 L8,5 L11,5 Z M10,11 C9.44771525,11 9,11.4477153 9,12 C9,12.5522847 9.44771525,13 10,13 C10.5522847,13 11,12.5522847 11,12 C11,11.4477153 10.5522847,11 10,11 Z M10.839,6 L9,6 L9,10 L13,10 L13,6.72 L10.839,6 Z" id="形状结合" fill-rule="nonzero"></path>
            <path d="M11,5 L14,6 L14,8 L8,8 L8,5 L11,5 Z M10.839,6 L9,6 L9,7 L13,7 L13,6.72 L10.839,6 Z" id="形状结合" fill-rule="nonzero"></path>
            <path d="M5,0 L7,0 L9,1 L9,3 L5,3 L5,2 L6,2 L6,2 L8,2 L8,1.618 L6.764,1 L6,1 L6,1 L5,1 L5,0 Z" id="形状结合" fill-rule="nonzero"></path>
        </g>
    </g>
</svg>
