<?xml version="1.0" encoding="UTF-8"?>
<svg width="14px" height="14px" viewBox="0 0 14 14" version="1.1" xmlns="http://www.w3.org/2000/svg" xmlns:xlink="http://www.w3.org/1999/xlink">
    <title>商城订单</title>
    <g id="单据流" stroke="none" stroke-width="1" fill="none" fill-rule="evenodd">
        <g id="商城订单">
            <rect id="矩形" x="0" y="0" width="14" height="14"></rect>
            <g id="编组-9" transform="translate(0.089381, 0.000000)" fill="#FFFFFF" fill-rule="nonzero">
                <path d="M4.91061947,13.0010114 L1,13 C0.44771525,13 0,12.5522847 0,12 L0.00365335096,11.9145989 L0.689367637,3.91459886 C0.73370628,3.39731468 1.16653336,3 1.68571429,3 L10.1355236,3 C10.6547046,3 11.0875317,3.39731468 11.1318703,3.91459886 L11.396,6.999 L10.392,6.999 L10.1355236,4 L1.68571429,4 L1,12 L4.91,11.999 L4.91061947,13.0010114 L4.91061947,13.0010114 Z" id="形状结合"></path>
                <path d="M5.91061897,0 C7.56747322,0 8.91061897,1.34314575 8.91061897,3 L8.91061897,4 L2.91061897,4 L2.91061897,3 C2.91061897,1.34314575 4.25376472,0 5.91061897,0 Z M5.91061897,1 C4.85625717,1 3.99245385,1.81587779 3.9161047,2.85073766 L3.91061897,3 L7.91061897,3 C7.91061897,1.9456382 7.09474118,1.08183488 6.05988131,1.00548574 L5.91061897,1 Z" id="矩形"></path>
                <path d="M12.910619,7 C13.4629037,7 13.910619,7.44771525 13.910619,8 L13.910619,13 C13.910619,13.5522847 13.4629037,14 12.910619,14 L5.91061897,14 C5.35833422,14 4.91061897,13.5522847 4.91061897,13 L4.91061897,8 C4.91061897,7.44771525 5.35833422,7 5.91061897,7 L12.910619,7 Z M12.910619,8 L5.91061897,8 L5.91061897,13 L12.910619,13 L12.910619,8 Z" id="矩形"></path>
            </g>
            <rect id="矩形" fill="#FFFFFF" x="7" y="9" width="3" height="1"></rect>
            <rect id="矩形备份-26" fill="#FFFFFF" x="7" y="11" width="5" height="1"></rect>
        </g>
    </g>
</svg>
