<?xml version="1.0" encoding="UTF-8"?>
<svg width="14px" height="14px" viewBox="0 0 14 14" version="1.1" xmlns="http://www.w3.org/2000/svg" xmlns:xlink="http://www.w3.org/1999/xlink">
    <title>商城申请</title>
    <g id="单据流" stroke="none" stroke-width="1" fill="none" fill-rule="evenodd">
        <g id="商城申请">
            <rect id="矩形" x="0" y="0" width="14" height="14"></rect>
            <path d="M4.92842712,2.05025253 L8.46396103,5.58578644 L8.049,5.99925253 L3.221,5.99925253 L2.1,4.87867966 L4.92842712,2.05025253 Z M4.928,3.464 L3.514,4.879 L3.634,4.999 L6.463,4.999 L4.928,3.464 Z" id="路径" fill="#FFFFFF" fill-rule="nonzero"></path>
            <path d="M4,10 C5.1045695,10 6,10.8954305 6,12 C6,13.1045695 5.1045695,14 4,14 C2.8954305,14 2,13.1045695 2,12 C2,10.8954305 2.8954305,10 4,10 Z M4,11 C3.44771525,11 3,11.4477153 3,12 C3,12.5522847 3.44771525,13 4,13 C4.55228475,13 5,12.5522847 5,12 C5,11.4477153 4.55228475,11 4,11 Z" id="椭圆形备份-8" fill="#FFFFFF" fill-rule="nonzero"></path>
            <path d="M11,10 C12.1045695,10 13,10.8954305 13,12 C13,13.1045695 12.1045695,14 11,14 C9.8954305,14 9,13.1045695 9,12 C9,10.8954305 9.8954305,10 11,10 Z M11,11 C10.4477153,11 10,11.4477153 10,12 C10,12.5522847 10.4477153,13 11,13 C11.5522847,13 12,12.5522847 12,12 C12,11.4477153 11.5522847,11 11,11 Z" id="椭圆形备份-9" fill="#FFFFFF" fill-rule="nonzero"></path>
            <path d="M7.7,0 C8.8045695,0 9.7,0.8954305 9.7,2 C9.7,3.1045695 8.8045695,4 7.7,4 C6.5954305,4 5.7,3.1045695 5.7,2 C5.7,0.8954305 6.5954305,0 7.7,0 Z M7.7,1 C7.14771525,1 6.7,1.44771525 6.7,2 C6.7,2.55228475 7.14771525,3 7.7,3 C8.25228475,3 8.7,2.55228475 8.7,2 C8.7,1.44771525 8.25228475,1 7.7,1 Z" id="椭圆形备份-10" fill="#FFFFFF" fill-rule="nonzero"></path>
            <path d="M10.4,3 C11.5045695,3 12.4,3.8954305 12.4,5 C12.4,5.364732 12.3023677,5.70666076 12.1318119,6.0010775 L8.66818814,6.0010775 C8.4976323,5.70666076 8.4,5.364732 8.4,5 C8.4,3.8954305 9.2954305,3 10.4,3 Z M10.4,4 C9.88716416,4 9.46449284,4.38604019 9.40672773,4.88337887 L9.4,5.001 L11.4,5.001 C11.4,4.48716416 11.0139598,4.06449284 10.5166211,4.00672773 L10.4,4 Z" id="形状结合" fill="#FFFFFF" fill-rule="nonzero"></path>
            <path d="M13.7225148,5 C13.8329718,5 13.9225148,5.08954306 13.9225148,5.20000002 C13.9225148,5.22149644 13.9190492,5.24285228 13.9122515,5.26324558 L12,10.996 L12,11 L3.999,10.999 L4,11 L3,11 L1.221,3 L0,3 L0,2 L2,2 L2,2.005 L2.666,4.999 L13.7225148,5 Z M12.666,5.999 L2.888,5.999 L3.777,9.999 L11.332,9.999 L12.666,5.999 Z" id="形状结合" fill="#FFFFFF"></path>
        </g>
    </g>
</svg>
