<?xml version="1.0" encoding="UTF-8"?>
<svg width="14px" height="14px" viewBox="0 0 14 14" version="1.1" xmlns="http://www.w3.org/2000/svg" xmlns:xlink="http://www.w3.org/1999/xlink">
    <title>采购订单</title>
    <g id="单据流" stroke="none" stroke-width="1" fill="none" fill-rule="evenodd">
        <g id="采购订单" fill="#FFFFFF">
            <path d="M14,0 L14,3 L0,3 L0,0 L14,0 Z M13,1 L1,1 L1,2 L13,2 L13,1 Z" id="Rectangle" fill-rule="nonzero"></path>
            <path d="M13,2 L13,14 L1,14 L1,2 L13,2 Z M12,3 L2,3 L2,13 L12,13 L12,3 Z" id="Rectangle" fill-rule="nonzero"></path>
            <rect id="Rectangle" x="8" y="7" width="3" height="1" rx="0.5"></rect>
            <path d="M7,5 L7,8 L1,8 L1,5 L7,5 Z M6,6 L2,6 L2,7 L6,7 L6,6 Z" id="形状结合"></path>
            <rect id="Rectangle" x="6" y="10" width="5" height="1" rx="0.5"></rect>
        </g>
    </g>
</svg>
