<?xml version="1.0" encoding="UTF-8"?>
<svg width="14px" height="14px" viewBox="0 0 14 14" version="1.1" xmlns="http://www.w3.org/2000/svg" xmlns:xlink="http://www.w3.org/1999/xlink">
    <title>采购申请</title>
    <g id="单据流" stroke="none" stroke-width="1" fill="none" fill-rule="evenodd">
        <g id="采购申请" fill="#FFFFFF" fill-rule="nonzero">
            <path d="M4,7.5 C4,9.15685425 5.34314575,10.5 7,10.5 C8.65685425,10.5 10,9.15685425 10,7.5 L14,7.5 L13,13.5 L1,13.5 L0,7.5 L4,7.5 Z M3.126,8.5 L1.18,8.5 L1.847,12.5 L12.152,12.5 L12.819,8.5 L10.873,8.5 L10.8306439,8.65525286 C10.3533095,10.2401997 8.91920818,11.4105837 7.19964034,11.4951047 L7,11.5 C5.19252264,11.5 3.66504955,10.3011592 3.16935611,8.65525286 L3.126,8.5 Z M6,6.5 C6.55228475,6.5 7,6.94771525 7,7.5 C7,8.05228475 6.55228475,8.5 6,8.5 C5.44771525,8.5 5,8.05228475 5,7.5 C5,6.94771525 5.44771525,6.5 6,6.5 Z M9,3.5 C10.1045695,3.5 11,4.3954305 11,5.5 C11,6.6045695 10.1045695,7.5 9,7.5 C7.8954305,7.5 7,6.6045695 7,5.5 C7,4.3954305 7.8954305,3.5 9,3.5 Z M9,4.5 C8.44771525,4.5 8,4.94771525 8,5.5 C8,6.05228475 8.44771525,6.5 9,6.5 C9.55228475,6.5 10,6.05228475 10,5.5 C10,4.94771525 9.55228475,4.5 9,4.5 Z M4.5,1.5 C5.88071187,1.5 7,2.61928813 7,4 C7,5.38071187 5.88071187,6.5 4.5,6.5 C3.11928813,6.5 2,5.38071187 2,4 C2,2.61928813 3.11928813,1.5 4.5,1.5 Z M4.5,2.5 C3.67157288,2.5 3,3.17157288 3,4 C3,4.82842712 3.67157288,5.5 4.5,5.5 C5.32842712,5.5 6,4.82842712 6,4 C6,3.17157288 5.32842712,2.5 4.5,2.5 Z M8,0 C8.82842712,0 9.5,0.671572875 9.5,1.5 C9.5,2.32842712 8.82842712,3 8,3 C7.17157288,3 6.5,2.32842712 6.5,1.5 C6.5,0.671572875 7.17157288,0 8,0 Z M8,1 C7.72385763,1 7.5,1.22385763 7.5,1.5 C7.5,1.77614237 7.72385763,2 8,2 C8.27614237,2 8.5,1.77614237 8.5,1.5 C8.5,1.22385763 8.27614237,1 8,1 Z" id="形状"></path>
        </g>
    </g>
</svg>
