<?xml version="1.0" encoding="UTF-8"?>
<svg width="14px" height="14px" viewBox="0 0 14 14" version="1.1" xmlns="http://www.w3.org/2000/svg" xmlns:xlink="http://www.w3.org/1999/xlink">
    <title>收货单</title>
    <g id="单据流" stroke="none" stroke-width="1" fill="none" fill-rule="evenodd">
        <g id="收货单">
            <rect id="矩形" x="0" y="0" width="14" height="14"></rect>
            <g id="编组-16" fill="#FFFFFF">
                <path d="M14,4 L12.999,4 L12.999,2.982 L12.294,1 L1.72,1 L0.999,3.163 L0.999,4 L0,4 L0,3 L1,0 L13,0 L14,2.80971886 L14,4 Z" id="形状结合" fill-rule="nonzero"></path>
                <rect id="Rectangle" x="0" y="3" width="14" height="1"></rect>
                <path d="M10,3 L10,10 L6.9942,8 L4,10 L4,3 L10,3 Z M9,4 L5,4 L5,8.129 L6.99312758,6.7981491 L9,8.133 L9,4 Z" id="形状结合" fill-rule="nonzero"></path>
                <polygon id="路径" fill-rule="nonzero" points="12.5006911 3.97372058 13.4993089 4.02627942 13.079 12 12.9992369 13.5276143 12.0006911 13.4737206 12.025 13 2 13 2 13.5 1.00069109 13.5262794 0.500691085 4.02627942 1.49930891 3.97372058 1.921 12 12.078 12"></polygon>
            </g>
        </g>
    </g>
</svg>
