<?xml version="1.0" encoding="UTF-8"?>
<svg width="14px" height="14px" viewBox="0 0 14 14" version="1.1" xmlns="http://www.w3.org/2000/svg" xmlns:xlink="http://www.w3.org/1999/xlink">
    <title>询价单</title>
    <g id="单据流" stroke="none" stroke-width="1" fill="none" fill-rule="evenodd">
        <g id="询价单" transform="translate(7.000000, 7.000000) scale(-1, 1) translate(-7.000000, -7.000000) ">
            <rect id="矩形" x="0" y="0" width="14" height="14"></rect>
            <path d="M14,5 L14,11 L12,11 L12,12.1846911 C12,12.280485 11.9724818,12.3742627 11.9207193,12.4548674 C11.7880844,12.6614069 11.5289427,12.7376103 11.3098014,12.6471966 L11.2298237,12.6054105 L8.72987379,11 L6,11 L6,9.892 L7,9.189 L7,10 L9.02331425,10 L11,11.268 L11,10 L13,10 L13,6 L12,5.999 L12,4.999 L14,5 Z" id="形状结合" fill="#FFFFFF" fill-rule="nonzero"></path>
            <path d="M12,2.84217094e-14 L12,9 L7.27012621,9 L3.7874324,11.4467852 C3.56147934,11.6055297 3.24962032,11.5510464 3.09087579,11.3250934 C3.03173467,11.2409133 3,11.1405393 3,11.037661 L3,9 L0,9 L0,2.84217094e-14 L12,2.84217094e-14 Z M11,1 L1,1 L1,8 L4,8 L4,10.074 L6.95396215,8 L11,8 L11,1 Z" id="形状结合" fill="#FFFFFF" fill-rule="nonzero"></path>
            <path d="M5.51224007,2.14644661 L6.012,2.646 L6.51224007,2.14644661 C6.70750222,1.95118446 7.02408471,1.95118446 7.21934686,2.14644661 C7.414609,2.34170876 7.414609,2.65829124 7.21934686,2.85355339 L7.039,3.033 L7.5,3.03333089 C7.77614237,3.03333089 8,3.25718852 8,3.53333089 C8,3.80947326 7.77614237,4.03333089 7.5,4.03333089 L6.504,4.033 L6.504,5.033 L7.5,5.03333089 C7.77614237,5.03333089 8,5.25718852 8,5.53333089 C8,5.80947326 7.77614237,6.03333089 7.5,6.03333089 L6.504,6.033 L6.50441997,7.5 C6.50441997,7.77614237 6.28056234,8 6.00441997,8 C5.72827759,8 5.50441997,7.77614237 5.50441997,7.5 L5.504,6.033 L4.5,6.03333089 C4.22385763,6.03333089 4,5.80947326 4,5.53333089 C4,5.25718852 4.22385763,5.03333089 4.5,5.03333089 L5.504,5.033 L5.504,4.033 L4.5,4.03333089 C4.22385763,4.03333089 4,3.80947326 4,3.53333089 C4,3.25718852 4.22385763,3.03333089 4.5,3.03333089 L4.985,3.033 L4.80513329,2.85355339 C4.60987115,2.65829124 4.60987115,2.34170876 4.80513329,2.14644661 C5.00039544,1.95118446 5.31697793,1.95118446 5.51224007,2.14644661 Z" id="Rectangle-5" fill="#FFFFFF"></path>
        </g>
    </g>
</svg>
