<?xml version="1.0" encoding="UTF-8"?>
<svg width="14px" height="14px" viewBox="0 0 14 14" version="1.1" xmlns="http://www.w3.org/2000/svg" xmlns:xlink="http://www.w3.org/1999/xlink">
    <title>招标单</title>
    <g id="单据流" stroke="none" stroke-width="1" fill="none" fill-rule="evenodd">
        <g id="招标单" fill="#FFFFFF">
            <path d="M9,0 L12,3 L12,5 L11,5 L11,3.415 L8.585,1 L1,1 L1,13 L9,13 L9,14 L0,14 L0,0 L9,0 Z" id="形状结合" fill-rule="nonzero"></path>
            <g id="编组-8" transform="translate(6.000000, 6.000000)">
                <path d="M1.5,3.53553391 C1.77614237,3.53553391 2,3.75939153 2,4.03553391 L2,6.03553391 C2,6.31167628 1.77614237,6.53553391 1.5,6.53553391 C1.22385763,6.53553391 1,6.31167628 1,6.03553391 L1,4.03553391 C1,3.75939153 1.22385763,3.53553391 1.5,3.53553391 Z" id="矩形" transform="translate(1.500000, 5.035534) rotate(-45.000000) translate(-1.500000, -5.035534) "></path>
                <path d="M5.03553391,6.7990058e-13 C5.31167628,6.79849854e-13 5.53553391,0.223857625 5.53553391,0.5 L5.53553391,2.5 C5.53553391,2.77614237 5.31167628,3 5.03553391,3 C4.75939153,3 4.53553391,2.77614237 4.53553391,2.5 L4.53553391,0.5 C4.53553391,0.223857625 4.75939153,6.79951307e-13 5.03553391,6.7990058e-13 Z" id="矩形备份-4" transform="translate(5.035534, 1.500000) rotate(-45.000000) translate(-5.035534, -1.500000) "></path>
                <path d="M5.08198073,2.08198073 C5.35812311,2.08198073 5.58198073,2.30583836 5.58198073,2.58198073 L5.58198073,7.58198073 C5.58198073,7.85812311 5.35812311,8.08198073 5.08198073,8.08198073 C4.80583836,8.08198073 4.58198073,7.85812311 4.58198073,7.58198073 L4.58198073,2.58198073 C4.58198073,2.30583836 4.80583836,2.08198073 5.08198073,2.08198073 Z" id="矩形" transform="translate(5.081981, 5.081981) rotate(-45.000000) translate(-5.081981, -5.081981) "></path>
                <path d="M4.26776695,2.767767 L4.26776695,3.767767 L2.26776695,3.767767 L2.26776695,2.767767 L4.26776695,2.767767 Z" id="矩形备份-2" stroke="#FFFFFF" transform="translate(3.267767, 3.267767) rotate(-45.000000) translate(-3.267767, -3.267767) "></path>
            </g>
            <path d="M9,3 L9,6 L2,6 L2,3 L9,3 Z M8,4 L3,4 L3,5 L8,5 L8,4 Z" id="形状结合" fill-rule="nonzero"></path>
            <rect id="矩形备份-6" x="2" y="8" width="5" height="1"></rect>
            <rect id="矩形备份-7" x="2" y="10" width="3" height="1"></rect>
        </g>
    </g>
</svg>
