<?xml version="1.0" encoding="UTF-8"?>
<svg width="14px" height="14px" viewBox="0 0 14 14" version="1.1" xmlns="http://www.w3.org/2000/svg" xmlns:xlink="http://www.w3.org/1999/xlink">
    <title>方案征询单</title>
    <g id="单据流" stroke="none" stroke-width="1" fill="none" fill-rule="evenodd">
        <g id="方案征询单">
            <rect id="矩形" x="0" y="0" width="14" height="14"></rect>
            <path d="M11,0 L13,3 L13,7 L12,7 L12,3.304 L10.464,1 L1,1 L1,13 L7,13 L7,14 L0,14 L0,0 L11,0 Z" id="形状结合" fill="#FFFFFF" fill-rule="nonzero"></path>
            <path d="M5,2.5 C3.61928813,2.5 2.5,3.61928813 2.5,5 L2.50637773,5.17931393 C2.55716411,5.89142066 2.90843001,6.53758907 3.45844655,6.96841188 L3.49966667,6.99766667 L3.50002859,8.5 L6.49957536,8.5 L6.50066667,6.99666667 L6.54253817,6.96763918 C7.13782161,6.50087939 7.5,5.78178173 7.5,5 C7.5,3.61928813 6.38071187,2.5 5,2.5 Z M5,3.5 C5.82842712,3.5 6.5,4.17157288 6.5,5 C6.5,5.54165003 6.21092144,6.03241061 5.75044487,6.29916503 L5.5013223,6.44348192 L5.49966667,7.49966667 L4.49966667,7.49966667 L4.49991103,6.44400239 L4.25030864,6.29960124 C3.78941276,6.03296159 3.5,5.54195978 3.5,5 C3.5,4.17157288 4.17157288,3.5 5,3.5 Z" id="形状结合" fill="#FFFFFF" fill-rule="nonzero"></path>
            <polygon id="路径-5备份" fill="#FFFFFF" fill-rule="nonzero" points="6.5 9.5 6.5 10.5 3.5 10.5 3.5 9.5"></polygon>
            <path d="M11.9942749,8.68539495 C12.8497712,9.54089131 12.9556353,10.8621494 12.3118672,11.8329179 L12.3289814,11.8485286 L13.4415054,12.9610526 C13.6367675,13.1563147 13.6367675,13.4728972 13.4415054,13.6681594 C13.267939,13.8417257 12.9985146,13.8610109 12.8036465,13.7260148 L12.7343986,13.6681594 L11.6218746,12.5556354 L11.6062639,12.5385212 C10.6354954,13.1822893 9.31423731,13.0764252 8.45874095,12.2209289 C7.48243022,11.2446181 7.48243022,9.66170568 8.45874095,8.68539495 C9.43505168,7.70908422 11.0179641,7.70908422 11.9942749,8.68539495 Z M9.16584773,9.39250173 C8.5800613,9.97828817 8.5800613,10.9280356 9.16584773,11.5138221 C9.75163417,12.0996085 10.7013816,12.0996085 11.2871681,11.5138221 C11.8729545,10.9280356 11.8729545,9.97828817 11.2871681,9.39250173 C10.7013816,8.8067153 9.75163417,8.8067153 9.16584773,9.39250173 Z" id="形状结合" fill="#FFFFFF" fill-rule="nonzero"></path>
        </g>
    </g>
</svg>
