<?xml version="1.0" encoding="UTF-8"?>
<svg width="14px" height="14px" viewBox="0 0 14 14" version="1.1" xmlns="http://www.w3.org/2000/svg" xmlns:xlink="http://www.w3.org/1999/xlink">
    <title>信息征询单</title>
    <g id="单据流" stroke="none" stroke-width="1" fill="none" fill-rule="evenodd">
        <g id="信息征询单">
            <rect id="矩形" x="0" y="0" width="14" height="14"></rect>
            <path d="M11,0 L13,3 L13,7 L12,7 L12,3.304 L10.464,1 L1,1 L1,13 L7,13 L7,14 L0,14 L0,0 L11,0 Z" id="形状结合" fill="#FFFFFF" fill-rule="nonzero"></path>
            <path d="M11.9942749,8.68539495 C12.8497712,9.54089131 12.9556353,10.8621494 12.3118672,11.8329179 L12.3289814,11.8485286 L13.4415054,12.9610526 C13.6367675,13.1563147 13.6367675,13.4728972 13.4415054,13.6681594 C13.267939,13.8417257 12.9985146,13.8610109 12.8036465,13.7260148 L12.7343986,13.6681594 L11.6218746,12.5556354 L11.6062639,12.5385212 C10.6354954,13.1822893 9.31423731,13.0764252 8.45874095,12.2209289 C7.48243022,11.2446181 7.48243022,9.66170568 8.45874095,8.68539495 C9.43505168,7.70908422 11.0179641,7.70908422 11.9942749,8.68539495 Z M9.16584773,9.39250173 C8.5800613,9.97828817 8.5800613,10.9280356 9.16584773,11.5138221 C9.75163417,12.0996085 10.7013816,12.0996085 11.2871681,11.5138221 C11.8729545,10.9280356 11.8729545,9.97828817 11.2871681,9.39250173 C10.7013816,8.8067153 9.75163417,8.8067153 9.16584773,9.39250173 Z" id="形状结合" fill="#FFFFFF" fill-rule="nonzero"></path>
            <rect id="矩形" fill="#FFFFFF" x="3" y="3" width="6" height="1"></rect>
            <rect id="矩形备份-17" fill="#FFFFFF" x="3" y="5" width="4" height="1"></rect>
            <rect id="矩形" stroke="#FFFFFF" x="3.5" y="7.5" width="3" height="3"></rect>
        </g>
    </g>
</svg>
