<?xml version="1.0" encoding="UTF-8"?>
<svg width="14px" height="14px" viewBox="0 0 14 14" version="1.1" xmlns="http://www.w3.org/2000/svg" xmlns:xlink="http://www.w3.org/1999/xlink">
    <title>对账单</title>
    <g id="单据流" stroke="none" stroke-width="1" fill="none" fill-rule="evenodd">
        <g id="对账单" fill="#FFFFFF">
            <path d="M12.5,0 C13.3284271,0 14,0.671572875 14,1.5 L14,12.5 C14,13.3284271 13.3284271,14 12.5,14 L1,14 L1,0 L12.5,0 Z M2,13 L12.5,13 C12.7454599,13 12.9496084,12.8231248 12.9919443,12.5898756 L13,12.5 L13,1.5 C13,1.25454011 12.8231248,1.05039163 12.5898756,1.00805567 L12.5,1 L2,1 L2,13 Z" id="矩形" fill-rule="nonzero"></path>
            <polygon id="路径-3" fill-rule="nonzero" points="11 0 11 14 10 14 10 0"></polygon>
            <path d="M6.01224007,4.14644661 L6.512,4.646 L7.01224007,4.14644661 C7.20750222,3.95118446 7.52408471,3.95118446 7.71934686,4.14644661 C7.914609,4.34170876 7.914609,4.65829124 7.71934686,4.85355339 L7.539,5.033 L8,5.03333089 C8.27614237,5.03333089 8.5,5.25718852 8.5,5.53333089 C8.5,5.80947326 8.27614237,6.03333089 8,6.03333089 L7.004,6.033 L7.004,7.033 L8,7.03333089 C8.27614237,7.03333089 8.5,7.25718852 8.5,7.53333089 C8.5,7.80947326 8.27614237,8.03333089 8,8.03333089 L7.004,8.033 L7.00441997,9.5 C7.00441997,9.77614237 6.78056234,10 6.50441997,10 C6.22827759,10 6.00441997,9.77614237 6.00441997,9.5 L6.004,8.033 L5,8.03333089 C4.72385763,8.03333089 4.5,7.80947326 4.5,7.53333089 C4.5,7.25718852 4.72385763,7.03333089 5,7.03333089 L6.004,7.033 L6.004,6.033 L5,6.03333089 C4.72385763,6.03333089 4.5,5.80947326 4.5,5.53333089 C4.5,5.25718852 4.72385763,5.03333089 5,5.03333089 L5.485,5.033 L5.30513329,4.85355339 C5.10987115,4.65829124 5.10987115,4.34170876 5.30513329,4.14644661 C5.50039544,3.95118446 5.81697793,3.95118446 6.01224007,4.14644661 Z" id="Rectangle-5"></path>
            <path d="M3.001532,2.71875 C3.27767437,2.71875 3.501532,2.94260763 3.501532,3.21875 C3.501532,3.46420989 3.32465684,3.66835837 3.09140763,3.71069433 L3.001532,3.71875 L0.5,3.71875 C0.223857625,3.71875 0,3.49489237 0,3.21875 C0,2.97329011 0.176875161,2.76914163 0.410124368,2.72680567 L0.5,2.71875 L3.001532,2.71875 Z" id="路径-4" fill-rule="nonzero"></path>
            <path d="M3.001532,5.21875 C3.27767437,5.21875 3.501532,5.44260763 3.501532,5.71875 C3.501532,5.96420989 3.32465684,6.16835837 3.09140763,6.21069433 L3.001532,6.21875 L0.5,6.21875 C0.223857625,6.21875 0,5.99489237 0,5.71875 C0,5.47329011 0.176875161,5.26914163 0.410124368,5.22680567 L0.5,5.21875 L3.001532,5.21875 Z" id="路径-4备份" fill-rule="nonzero"></path>
            <path d="M3.001532,7.71875 C3.27767437,7.71875 3.501532,7.94260763 3.501532,8.21875 C3.501532,8.46420989 3.32465684,8.66835837 3.09140763,8.71069433 L3.001532,8.71875 L0.5,8.71875 C0.223857625,8.71875 0,8.49489237 0,8.21875 C0,7.97329011 0.176875161,7.76914163 0.410124368,7.72680567 L0.5,7.71875 L3.001532,7.71875 Z" id="路径-4备份-2" fill-rule="nonzero"></path>
            <path d="M3.001532,10.21875 C3.27767437,10.21875 3.501532,10.4426076 3.501532,10.71875 C3.501532,10.9642099 3.32465684,11.1683584 3.09140763,11.2106943 L3.001532,11.21875 L0.5,11.21875 C0.223857625,11.21875 0,10.9948924 0,10.71875 C0,10.4732901 0.176875161,10.2691416 0.410124368,10.2268057 L0.5,10.21875 L3.001532,10.21875 Z" id="路径-4备份-3" fill-rule="nonzero"></path>
        </g>
    </g>
</svg>
