<?xml version="1.0" encoding="UTF-8"?>
<svg width="14px" height="14px" viewBox="0 0 14 14" version="1.1" xmlns="http://www.w3.org/2000/svg" xmlns:xlink="http://www.w3.org/1999/xlink">
    <title>结算单-付款</title>
    <g id="单据流" stroke="none" stroke-width="1" fill="none" fill-rule="evenodd">
        <g id="结算单-付款" fill="#FFFFFF">
            <path d="M9,0 L9,3 L0,3 L0,0 L9,0 Z M8,1 L1,1 L1,2 L8,2 L8,1 Z" id="Rectangle" fill-rule="nonzero"></path>
            <path d="M8,2 L8,5 L0,5 L0,2 L8,2 Z M7,3 L1,3 L1,4 L7,4 L7,3 Z" id="形状结合" fill-rule="nonzero"></path>
            <path d="M2.99987956,12.4648015 C3.58825351,12.8051848 4.271376,13 5,13 L3,13 L2.99987956,12.4648015 Z M11,4 L11,6 L14,6 L14,9 L12,9 L12,11 L11,11 L11,13 L5,13 C6.01392688,13 6.93974234,12.6227502 7.64474073,12.0009561 L10,12 L10,11 L8.46422933,11.0011092 C8.64345125,10.6915171 8.78236308,10.355675 8.87378648,10.0007613 L11,10 L11,9 L9,9 C9,8.63108387 8.95005741,8.27383246 8.85656445,7.934638 L8.87404517,8.00024347 L13,8 L13,7 L8.46429254,6.99899996 C8.4674954,7.00453307 8.47068539,7.01007456 8.47386247,7.0156244 C8.25462865,6.63273369 7.97417488,6.28979562 7.64575985,5.99994303 L10,6 L10,5 L1,5 L1,6 L2.35424015,5.99994303 C2.02582512,6.28979562 1.74537135,6.63273369 1.52630608,7.01533 L1.53570746,6.99899996 L1,7 L1,8 L1.12595483,8.00024347 C1.13160274,7.97829405 1.13743226,7.95641754 1.14344171,7.93461562 C1.04994259,8.27383246 1,8.63108387 1,9 L0,9 L0,4 L11,4 Z" id="形状结合" fill-rule="nonzero"></path>
            <path d="M5,4 C7.76142375,4 10,6.23857625 10,9 C10,11.7614237 7.76142375,14 5,14 C2.23857625,14 0,11.7614237 0,9 C0,6.23857625 2.23857625,4 5,4 Z M5,5 C2.790861,5 1,6.790861 1,9 C1,11.209139 2.790861,13 5,13 C7.209139,13 9,11.209139 9,9 C9,6.790861 7.209139,5 5,5 Z" id="形状结合" fill-rule="nonzero"></path>
            <path d="M4.51224007,6.14644661 L5.012,6.646 L5.51224007,6.14644661 C5.70750222,5.95118446 6.02408471,5.95118446 6.21934686,6.14644661 C6.414609,6.34170876 6.414609,6.65829124 6.21934686,6.85355339 L6.039,7.033 L6.5,7.03333089 C6.77614237,7.03333089 7,7.25718852 7,7.53333089 C7,7.80947326 6.77614237,8.03333089 6.5,8.03333089 L5.504,8.033 L5.504,9.033 L6.5,9.03333089 C6.77614237,9.03333089 7,9.25718852 7,9.53333089 C7,9.80947326 6.77614237,10.0333309 6.5,10.0333309 L5.504,10.033 L5.50441997,11.6433137 C5.50441997,11.919456 5.28056234,12.1433137 5.00441997,12.1433137 C4.72827759,12.1433137 4.50441997,11.919456 4.50441997,11.6433137 L4.504,10.033 L3.5,10.0333309 C3.22385763,10.0333309 3,9.80947326 3,9.53333089 C3,9.25718852 3.22385763,9.03333089 3.5,9.03333089 L4.504,9.033 L4.504,8.033 L3.5,8.03333089 C3.22385763,8.03333089 3,7.80947326 3,7.53333089 C3,7.25718852 3.22385763,7.03333089 3.5,7.03333089 L3.985,7.033 L3.80513329,6.85355339 C3.60987115,6.65829124 3.60987115,6.34170876 3.80513329,6.14644661 C4.00039544,5.95118446 4.31697793,5.95118446 4.51224007,6.14644661 Z" id="Rectangle-5"></path>
        </g>
    </g>
</svg>
