<?xml version="1.0" encoding="UTF-8"?>
<svg width="14px" height="14px" viewBox="0 0 14 14" version="1.1" xmlns="http://www.w3.org/2000/svg" xmlns:xlink="http://www.w3.org/1999/xlink">
    <title>结算单-开票</title>
    <g id="单据流" stroke="none" stroke-width="1" fill="none" fill-rule="evenodd">
        <g id="结算单-开票" fill="#FFFFFF">
            <path d="M1,0 L3,1 L5,0 L7,1 L9,0 L11,1 L13,0 L14,0 L14,14 L13,14 L11,13 L9,14 L7,13 L5,14 L3,13 L1,14 L0,14 L0,0 L1,0 Z M13,12.882 L13,1.118 L11,2.11803399 L9,1.118 L7,2.11803399 L5,1.118 L3,2.11803399 L1,1.118 L1,12.881 L3,11.881966 L5,12.881 L7,11.881966 L9,12.881 L11,11.881966 L13,12.882 Z" id="矩形" fill-rule="nonzero"></path>
            <path d="M9.51224007,5.14644661 L10.012,5.646 L10.5122401,5.14644661 C10.7075022,4.95118446 11.0240847,4.95118446 11.2193469,5.14644661 C11.414609,5.34170876 11.414609,5.65829124 11.2193469,5.85355339 L11.039,6.033 L11.5,6.03333089 C11.7761424,6.03333089 12,6.25718852 12,6.53333089 C12,6.80947326 11.7761424,7.03333089 11.5,7.03333089 L10.504,7.033 L10.504,8.033 L11.5,8.03333089 C11.7761424,8.03333089 12,8.25718852 12,8.53333089 C12,8.80947326 11.7761424,9.03333089 11.5,9.03333089 L10.504,9.033 L10.50442,10.5 C10.50442,10.7761424 10.2805623,11 10.00442,11 C9.72827759,11 9.50441997,10.7761424 9.50441997,10.5 L9.504,9.033 L8.5,9.03333089 C8.22385763,9.03333089 8,8.80947326 8,8.53333089 C8,8.25718852 8.22385763,8.03333089 8.5,8.03333089 L9.504,8.033 L9.504,7.033 L8.5,7.03333089 C8.22385763,7.03333089 8,6.80947326 8,6.53333089 C8,6.25718852 8.22385763,6.03333089 8.5,6.03333089 L8.985,6.033 L8.80513329,5.85355339 C8.60987115,5.65829124 8.60987115,5.34170876 8.80513329,5.14644661 C9.00039544,4.95118446 9.31697793,4.95118446 9.51224007,5.14644661 Z" id="Rectangle-5"></path>
            <path d="M4,7 C5.1045695,7 6,7.8954305 6,9 C6,10.1045695 5.1045695,11 4,11 C2.8954305,11 2,10.1045695 2,9 C2,7.8954305 2.8954305,7 4,7 Z M4,8 C3.44771525,8 3,8.44771525 3,9 C3,9.55228475 3.44771525,10 4,10 C4.55228475,10 5,9.55228475 5,9 C5,8.44771525 4.55228475,8 4,8 Z" id="形状结合" fill-rule="nonzero"></path>
            <rect id="矩形" x="2" y="3" width="6" height="1"></rect>
            <rect id="矩形备份-11" x="2" y="5" width="4" height="1"></rect>
        </g>
    </g>
</svg>
