<?xml version="1.0" encoding="UTF-8"?>
<svg width="14px" height="14px" viewBox="0 0 14 14" version="1.1" xmlns="http://www.w3.org/2000/svg" xmlns:xlink="http://www.w3.org/1999/xlink">
    <title>费用单</title>
    <g id="单据流" stroke="none" stroke-width="1" fill="none" fill-rule="evenodd">
        <g id="费用单" fill="#FFFFFF">
            <g id="编组-10备份" fill-rule="nonzero">
                <path d="M14,0 L14,14 L13,14 L11,13 L9,14 L7,13 L5,14 L3,13 L1,14 L0,14 L0,0 L14,0 Z M13,1 L1,1 L1,12.881 L3,11.881966 L5,12.881 L7,11.881966 L9,12.881 L11,11.881966 L13,12.882 L13,1 Z" id="矩形"></path>
            </g>
            <path d="M9,7 C10.1045695,7 11,7.8954305 11,9 C11,10.1045695 10.1045695,11 9,11 C7.8954305,11 7,10.1045695 7,9 C7,7.8954305 7.8954305,7 9,7 Z M9,8 C8.44771525,8 8,8.44771525 8,9 C8,9.55228475 8.44771525,10 9,10 C9.55228475,10 10,9.55228475 10,9 C10,8.44771525 9.55228475,8 9,8 Z" id="形状结合" fill-rule="nonzero"></path>
            <rect id="矩形" x="3" y="3" width="6" height="1"></rect>
            <rect id="矩形备份-8" x="3" y="5" width="4" height="1"></rect>
            <rect id="矩形备份-12" x="3" y="7" width="2" height="1"></rect>
        </g>
    </g>
</svg>
