<?xml version="1.0" encoding="UTF-8"?>
<svg width="14px" height="14px" viewBox="0 0 14 14" version="1.1" xmlns="http://www.w3.org/2000/svg" xmlns:xlink="http://www.w3.org/1999/xlink">
    <title>结算池</title>
    <g id="单据流" stroke="none" stroke-width="1" fill="none" fill-rule="evenodd">
        <g id="结算池" fill="#FFFFFF">
            <g id="编组-12" fill-rule="nonzero">
                <g id="编组-11">
                    <path d="M9.5,0 C10.7096818,0 11.7186941,0.859167894 11.9501074,2.00057405 L10.9147505,2.00029246 C10.7242705,1.46101738 10.234183,1.06321806 9.64446001,1.00686658 L9.5,1 L4.50021694,1.00004507 C4.71866959,1.29089101 4.87516474,1.63093233 4.9501074,2.00057405 L5,2 L5.00070296,9.08560151 C5.58293192,9.29171807 6,9.8471533 6,10.5 C6,11.1331132 5.60776411,11.6746149 5.05304003,11.8947572 C5.18565237,12.3829021 5.55829539,12.7716746 6.03622113,12.9269238 C6.83482838,12.705085 7.43164469,12.0014159 7.49451426,11.1492623 L7.5,11 L11,11 L11,9 L12,9 L12,11 L14,11 L14,11.5 C14,12.7093254 13.1413382,13.7180997 12.0004345,13.9499027 L12,14 L6.5,14 C5.29067455,14 4.28190033,13.1413382 4.05009729,12.0004345 L1.5,12 C0.671572875,12 0,11.3284271 0,10.5 C0,9.67157288 0.671572875,9 1.5,9 L4,9 L4,3 L0,3 L0,2.5 C0,1.29031824 0.859167894,0.281305897 2.00057405,0.0498926028 L2,0 L9.5,0 Z M12.914,12 L8.329,12 L8.31142808,12.049282 C8.1950596,12.3611992 8.02842444,12.6480745 7.82158518,12.9003666 L7.736,13 L11.5,13 C12.1335031,13 12.6752817,12.6072809 12.8951636,12.0520151 L12.914,12 Z M4.5,10 L1.5,10 C1.22385763,10 1,10.2238576 1,10.5 C1,10.7454599 1.17687516,10.9496084 1.41012437,10.9919443 L1.5,11 L4.5,11 C4.77614237,11 5,10.7761424 5,10.5 C5,10.2545401 4.82312484,10.0503916 4.58987563,10.0080557 L4.5,10 Z M2.5,1 C1.8664969,1 1.32471827,1.39271909 1.10483645,1.9479849 L1.086,2 L3.913,2 L3.89516355,1.9479849 C3.69219572,1.43543184 3.21494894,1.06138014 2.64446001,1.00686658 L2.5,1 Z" id="形状结合"></path>
                </g>
            </g>
            <g id="编组-14" transform="translate(6.000000, 2.000000)">
                <path d="M8,0 L8,7 L0,7 L0,0 L8,0 Z M7,1 L1,1 L1,6 L7,6 L7,1 Z" id="矩形" fill-rule="nonzero"></path>
                <rect id="矩形" x="0" y="2" width="8" height="1"></rect>
                <rect id="矩形" x="2" y="4" width="2" height="1"></rect>
            </g>
            <rect id="矩形" x="4" y="3" width="1" height="1"></rect>
        </g>
    </g>
</svg>
