<?xml version="1.0" encoding="UTF-8"?>
<svg width="79px" height="26px" viewBox="0 0 79 26" version="1.1" xmlns="http://www.w3.org/2000/svg" xmlns:xlink="http://www.w3.org/1999/xlink">
    <!-- Generator: Sketch 58 (84663) - https://sketch.com -->
    <title>logo反白</title>
    <desc>Created with Sketch.</desc>
    <g id="展现" stroke="none" stroke-width="1" fill="none" fill-rule="evenodd">
        <g id="logo反白" fill="#FFFFFF" fill-rule="nonzero">
            <g id="编组-58">
                <polygon id="矩形-9备份-2" points="4.875 16.25 0 16.25 0 4.875 0 0 16.25 0 16.25 4.875 4.875 4.875 4.875 11.375 9.75 11.375 9.75 16.25"></polygon>
                <path d="M6.5,26 L4.875,26 L0,26 L0,17.875 L4.875,17.875 L4.875,21.125 L6.5,21.125 C14.5771645,21.125 21.125,14.5771645 21.125,6.5 L21.125,4.875 L17.875,4.875 L17.875,0 L26,0 L26,4.875 L26,6.5 C26,17.2695526 17.2695526,26 6.5,26 Z" id="椭圆形-3备份-2"></path>
                <path d="M11.375,16.25 C15.2020008,16.25 18.6875,11.2161309 18.6875,6.5 L13.8125,6.5 C13.8125,7.71699351 13.3561166,9.07183381 12.6166768,10.1397564 C12.2929318,10.6073193 11.9428368,10.9758123 11.6261091,11.2027803 C11.5077202,11.2876181 11.4073521,11.3430106 11.3339891,11.3710139 C11.3162473,11.3777861 11.3301726,11.375 11.375,11.375 L11.375,16.25 Z" id="路径-83备份" opacity="0.699999988"></path>
            </g>
            <g id="编组-44备份-3" transform="translate(33.703704, 2.407407)">
                <g id="编组" transform="translate(0.000000, 0.885534)">
                    <path d="M8.33848735,2.3442491 L0,2.3442491 L0,0.0901634269 L10.5990524,0.0901634269 L10.5736249,8.9487748 C10.5601413,13.6462881 14.3572976,17.4653057 19.0548109,17.4787893 C19.067018,17.4788185 19.067018,17.4788185 19.0792251,17.4788243 L19.0792251,19.73291 C19.063783,19.73291 19.063783,19.73291 19.0483409,19.73291 C13.1059356,19.7158088 8.3024916,14.8847101 8.31954851,8.94230475 L8.33848735,2.3442491 Z M17.3082234,13.3635079 L14.6143026,13.3635079 L12.5089157,8.55694927 C12.047183,7.50282231 12.0385752,6.2606283 12.4825204,5.19979224 L12.5142276,5.12607935 L14.5661118,0.483018356 L17.2649636,0.483018356 L14.6525185,6.39453206 C14.5342622,6.6621257 14.5272288,6.97640407 14.6315543,7.24962179 L14.6511207,7.2973926 L17.3082234,13.3635079 Z" id="路径-31"></path>
                </g>
                <g id="编组-5" transform="translate(24.794942, 0.000000)">
                    <path d="M17.488396,11.2800887 L8.55170415,11.2800887 L8.19730634,12.2364651 L5.79348115,12.2364651 L8.20255323,5.73591219 L16.165441,5.73591219 C17.1595496,5.73591219 18.0500761,6.34474702 18.4127069,7.2664216 L18.4319606,7.31700325 L20.2421522,12.2364651 L17.8403094,12.2364651 L17.488396,11.2800887 Z M16.6589706,9.02600304 L16.3165423,8.09540391 C16.2955702,8.03840897 16.2446138,7.99862604 16.1854401,7.99123939 L16.165441,7.98999784 L9.77091623,7.98992865 L9.38698526,9.02600304 L16.6589706,9.02600304 Z M15.1151923,4.03481335 L10.8485302,4.03481335 L10.8485302,5.02196948 L8.59444449,5.02196948 L8.59444449,4.03481335 L6.13433316,4.03481335 L6.13433316,1.78072768 L8.59444449,1.78072768 L8.59444449,0 L10.8485302,0 L10.8485302,1.78072768 L15.1151923,1.78072768 L15.1151923,0 L17.369278,0 L17.369278,1.78072768 L19.916457,1.78072768 L19.916457,4.03481335 L17.369278,4.03481335 L17.369278,5.02196948 L15.1151923,5.02196948 L15.1151923,4.03481335 Z M2.56992257,9.77483072 L2.56992257,6.7461564 L0.525899573,6.7461564 L0.525899573,4.49207073 L2.56992257,4.49207073 L2.56992257,0 L4.82400822,0 L4.82400822,4.49207073 L6.5336283,4.49207073 L6.5336283,6.7461564 L4.82400822,6.7461564 L4.82400822,8.97086994 L5.38862051,8.7694907 L6.14585785,10.8925766 L4.82400822,11.3640384 L4.82400822,16.320335 C4.82400822,18.6941148 2.89967944,20.6184436 0.525899573,20.6184436 L0.525899573,18.364358 C1.6547823,18.364358 2.56992257,17.4492177 2.56992257,16.320335 L2.56992257,12.1679992 L0.904518237,12.761996 L0.147280907,10.6389101 L2.56992257,9.77483072 Z M7.71219314,12.8901499 L18.338597,12.8901499 C19.3167305,12.8901499 20.1096643,13.6830837 20.1096643,14.6612172 L20.1096643,18.8473763 C20.1096643,19.8255098 19.3167305,20.6184436 18.338597,20.6184436 L7.71219314,20.6184436 C6.73405966,20.6184436 5.94112581,19.8255098 5.94112581,18.8473763 L5.94112581,14.6612172 C5.94112581,13.6830837 6.73405966,12.8901499 7.71219314,12.8901499 Z M8.19521146,18.364358 L17.8555786,18.364358 L17.8555786,15.1442356 L8.19521146,15.1442356 L8.19521146,18.364358 Z" id="矩形"></path>
                </g>
            </g>
        </g>
    </g>
</svg>