<?xml version="1.0" encoding="UTF-8"?>
<svg width="8px" height="10px" viewBox="0 0 8 10" version="1.1" xmlns="http://www.w3.org/2000/svg" xmlns:xlink="http://www.w3.org/1999/xlink">
    <title>Icon/add</title>
    <defs>
        <path d="M0.5,8 C0.5,8.55 0.95,9 1.5,9 L5.5,9 C6.05,9 6.5,8.55 6.5,8 L6.5,2 L0.5,2 L0.5,8 Z M1.5,3 L5.5,3 L5.5,8 L1.5,8 L1.5,3 Z M5.25,0.5 L4.75,0 L2.25,0 L1.75,0.5 L0,0.5 L0,1.5 L7,1.5 L7,0.5 L5.25,0.5 Z" id="path-1"></path>
    </defs>
    <g id="页面-2" stroke="none" stroke-width="1" fill="none" fill-rule="evenodd">
        <g id="2.备份" transform="translate(-619.000000, -599.000000)">
            <g id="位图-+-编组-8-+-编组-8备份-+-编组-8备份-2-+-编组-7-蒙版" transform="translate(246.000000, 314.000000)">
                <g id="编组-6备份-2" transform="translate(279.000000, 273.000000)">
                    <g id="delete_outline_black_24dp" transform="translate(92.000000, 11.000000)">
                        <polygon id="路径" points="0 0 12 0 12 12 0 12"></polygon>
                        <g id="color" transform="translate(2.500000, 1.500000)">
                            <mask id="mask-2" fill="white">
                                <use xlink:href="#path-1"></use>
                            </mask>
                            <g id="蒙版" fill-rule="nonzero"></g>
                            <g mask="url(#mask-2)" fill="#000000" fill-opacity="0.85" id="矩形">
                                <g transform="translate(-2.500000, -1.500000)">
                                    <rect x="0" y="0" width="12" height="12"></rect>
                                </g>
                            </g>
                        </g>
                    </g>
                </g>
            </g>
        </g>
    </g>
</svg>