<?xml version="1.0" encoding="UTF-8"?>
<svg width="12px" height="12px" viewBox="0 0 12 12" version="1.1" xmlns="http://www.w3.org/2000/svg" xmlns:xlink="http://www.w3.org/1999/xlink">
    <!-- Generator: Sketch 52.2 (67145) - http://www.bohemiancoding.com/sketch -->
    <title>rise</title>
    <desc>Created with Sketch.</desc>
    <g id="工作台" stroke="none" stroke-width="1" fill="none" fill-rule="evenodd">
        <g id="供应商报价-表格" transform="translate(-733.000000, -288.000000)">
            <g id="rise" transform="translate(733.000000, 288.000000)">
                <rect id="Rectangle" fill="#FFFFFF" opacity="0.01" x="0" y="0" width="12" height="12"></rect>
                <path d="M7,3.50881125 L7,11 C7,11.5522847 6.55228475,12 6,12 C5.44771525,12 5,11.5522847 5,11 L5,3.47820017 L3.15626734,5.32193284 C2.76574305,5.71245713 2.13257807,5.71245713 1.74205377,5.32193284 C1.35152948,4.93140855 1.35152948,4.29824357 1.74205377,3.90771927 L5.27758768,0.372185369 C5.66811197,-0.0183389229 6.30127695,-0.0183389229 6.69180124,0.372185369 L10.2273351,3.90771927 C10.6178594,4.29824357 10.6178594,4.93140855 10.2273351,5.32193284 C9.83681086,5.71245713 9.20364588,5.71245713 8.81312159,5.32193284 L7,3.50881125 Z" id="Rectangle-5" fill="#F13131"></path>
            </g>
        </g>
    </g>
</svg>