<?xml version="1.0" encoding="UTF-8"?>
<svg width="173px" height="157px" viewBox="0 0 173 157" version="1.1" xmlns="http://www.w3.org/2000/svg" xmlns:xlink="http://www.w3.org/1999/xlink">
    <!-- Generator: Sketch 58 (84663) - https://sketch.com -->
    <title>1.组合示例/3.功能区块示例/3.文件为空</title>
    <desc>Created with Sketch.</desc>
    <defs>
        <polygon id="path-1" points="0 0.244638154 9.17616304 0.244638154 9.17616304 19.1016028 0 19.1016028"></polygon>
        <polygon id="path-3" points="0.0199272561 0.244638154 9.19586471 0.244638154 9.19586471 19.1016028 0.0199272561 19.1016028"></polygon>
        <polygon id="path-5" points="0.0290083936 0.0389746549 6.93536859 0.0389746549 6.93536859 7.05477393 0.0290083936 7.05477393"></polygon>
        <polygon id="path-7" points="0.0170870636 0.0598901032 7.55322477 0.0598901032 7.55322477 7.62967878 0.0170870636 7.62967878"></polygon>
        <polygon id="path-9" points="0 0 45.692438 0 45.692438 45.7386936 0 45.7386936"></polygon>
    </defs>
    <g id="页面-1" stroke="none" stroke-width="1" fill="none" fill-rule="evenodd">
        <g id="商城首页配置-空态" transform="translate(-750.000000, -358.000000)">
            <g id="1.组合示例/3.功能区块示例/3.文件为空" transform="translate(750.000000, 358.000000)">
                <g id="编组-6" transform="translate(0.076745, 0.252493)">
                    <g id="编组" transform="translate(0.000000, -0.000000)">
                        <polygon id="Fill-1" fill="#CED0DB" points="19.8130013 0.21517829 12.0351748 24.3151468 16.7375305 24.3151468 24.5160968 0.21517829"></polygon>
                        <g transform="translate(0.000000, 2.797318)">
                            <g>
                                <mask id="mask-2" fill="white">
                                    <use xlink:href="#path-1"></use>
                                </mask>
                                <g id="Clip-3"></g>
                                <path d="M8.72422791,0.244638154 L3.64992134,0.244638154 L0.451784734,0.244638154 C0.202130054,0.244638154 -0.000150394386,0.443428118 -0.000150394386,0.688774838 L-0.000150394386,3.83172545 L-0.000150394386,15.5145155 L-0.000150394386,18.6574662 C-0.000150394386,18.9028129 0.202130054,19.1016028 0.451784734,19.1016028 L3.64992134,19.1016028 L8.72422791,19.1016028 C8.97388259,19.1016028 9.17616304,18.9028129 9.17616304,18.6574662 L9.17616304,15.9586522 C9.17616304,15.7133055 8.97388259,15.5145155 8.72422791,15.5145155 L3.64992134,15.5145155 L3.64992134,3.83172545 L8.72422791,3.83172545 C8.97388259,3.83172545 9.17616304,3.63293549 9.17616304,3.38832776 L9.17616304,0.688774838 C9.17616304,0.443428118 8.97388259,0.244638154 8.72422791,0.244638154" id="Fill-2" fill="#E4E6EF" mask="url(#mask-2)"></path>
                            </g>
                            <g transform="translate(27.672567, 0.000000)">
                                <mask id="mask-4" fill="white">
                                    <use xlink:href="#path-3"></use>
                                </mask>
                                <g id="Clip-5"></g>
                                <path d="M8.74430556,0.244638154 L5.54616896,0.244638154 L0.471862385,0.244638154 C0.222207705,0.244638154 0.0199272561,0.443428118 0.0199272561,0.688774838 L0.0199272561,3.38832776 C0.0199272561,3.63293549 0.222207705,3.83172545 0.471862385,3.83172545 L5.54616896,3.83172545 L5.54616896,15.5145155 L0.471862385,15.5145155 C0.222207705,15.5145155 0.0199272561,15.7133055 0.0199272561,15.9586522 L0.0199272561,18.6574662 C0.0199272561,18.9028129 0.222207705,19.1016028 0.471862385,19.1016028 L5.54616896,19.1016028 L8.74430556,19.1016028 C8.99396025,19.1016028 9.19624069,18.9028129 9.19624069,18.6574662 L9.19624069,15.9586522 L9.19624069,3.38832776 L9.19624069,0.688774838 C9.19624069,0.443428118 8.99396025,0.244638154 8.74430556,0.244638154" id="Fill-4" fill="#E4E6EF" mask="url(#mask-4)"></path>
                            </g>
                        </g>
                    </g>
                    <g id="编组" transform="translate(150.784866, 128.482738) scale(-1, 1) rotate(45.000000) translate(-150.784866, -128.482738) translate(114.633230, 117.508646)">
                        <g transform="translate(22.786986, 14.109548)">
                            <mask id="mask-6" fill="white">
                                <use xlink:href="#path-5"></use>
                            </mask>
                            <g id="Clip-2"></g>
                            <path d="M6.91706804,3.90484564 C6.72241876,5.83185035 5.02688892,7.2340432 3.12997665,7.03630603 C1.23245228,6.83856885 -0.147843673,5.11614128 0.0474177058,3.18851474 C0.24206698,1.26151003 1.93759682,-0.14068282 3.83450909,0.0576761686 C5.73142136,0.255413342 7.11171731,1.97784092 6.91706804,3.90484564" id="Fill-1" fill="#E4E6EF" mask="url(#mask-6)"></path>
                        </g>
                        <path d="M51.8852424,5.16996497 C51.6890198,7.10764076 49.9797853,8.51759845 48.0675407,8.31876628 C46.154679,8.11993411 44.7632263,6.38734308 44.9594489,4.44966729 C45.1562886,2.51199151 46.8655231,1.10203382 48.7777677,1.30149125 C50.6900123,1.49969816 52.081465,3.23228919 51.8852424,5.16996497" id="Fill-3" fill="#E4E6EF"></path>
                        <path d="M6.94417485,3.88749961 C6.74813346,5.825372 5.03831159,7.23473373 3.12562951,7.03611045 C1.21351566,6.83691144 -0.178094092,5.1051467 0.0185155342,3.16727432 C0.214556924,1.22940194 1.92437879,-0.179959797 3.83649264,0.0186634866 C5.74917472,0.21728677 7.14078447,1.94962723 6.94417485,3.88749961" id="Fill-5" fill="#E4E6EF"></path>
                        <g transform="translate(63.930156, 8.978803)">
                            <mask id="mask-8" fill="white">
                                <use xlink:href="#path-7"></use>
                            </mask>
                            <g id="Clip-8"></g>
                            <path d="M7.53366671,4.23118614 C7.32086517,6.31052767 5.4708448,7.82277606 3.40064249,7.60965282 C1.33044018,7.39591183 -0.175161503,5.53772427 0.0370250087,3.45838274 C0.249826553,1.37904121 2.09984692,-0.133207173 4.17004923,0.0799160673 C6.23963651,0.293657056 7.74585322,2.15184461 7.53366671,4.23118614" id="Fill-7" fill="#E4E6EF" mask="url(#mask-8)"></path>
                        </g>
                        <polygon id="Fill-9" fill="#E4E6EF" points="26.3160403 17.9576064 26.2311543 17.9035055 3.79783104 3.49946101 3.97638437 3.20671542 26.325407 17.5572603 48.9618712 4.55082041 49.0362197 4.58087642 68.3609587 12.3671876 68.2380203 12.6875847 48.9870443 4.93132955"></polygon>
                    </g>
                    <g id="资源-38" transform="translate(18.718677, 38.923787)" fill-rule="nonzero">
                        <path d="M78.3980106,0.0823522489 L11.868913,0.0823522489 C10.0639512,0.0823522489 8.60074055,1.53298927 8.60074055,3.32244073 L8.60074055,95.5002579 L68.0338187,95.5002579 C68.0338187,105.396028 76.5691958,112.310917 86.56708,112.259899 C96.3933853,112.211014 104.431728,103.952839 104.431728,94.2123228 L104.431728,25.7654536 L87.0845407,25.7654536 C84.317488,25.7654536 78.3980106,19.7604896 78.3980106,17.0185647 L78.3980106,0.0823522489 Z" id="路径" fill="#E2E7F2"></path>
                        <path d="M68.1645456,95.21 L0,95.21 C0,104.050041 6.48596061,110.441116 14.9954647,111.857305 L17.9912894,112.105711 L86.2920088,111.970708 C76.3567645,111.970708 67.9112622,104.406451 68.1645456,95.21 Z" id="路径" fill="#515874"></path>
                        <rect id="矩形" fill="#515874" x="21.7510495" y="8.72798834" width="17.4302532" height="17.2804719" rx="5.66944913"></rect>
                        <rect id="矩形" fill="#A3B5D6" x="21.7210913" y="34.5136925" width="65.3634494" height="4.32011797" rx="2.16005899"></rect>
                        <rect id="矩形" fill="#A3B5D6" x="21.7210913" y="47.5212977" width="65.3634494" height="4.32011797" rx="2.16005899"></rect>
                        <rect id="矩形" fill="#A3B5D6" x="21.7210913" y="60.5289029" width="65.3634494" height="4.32011797" rx="2.16005899"></rect>
                        <path d="M78.3898401,21.6329908 L78.3898401,25.0080829 C78.3898401,25.7333477 78.6943142,26.425888 79.2304913,26.9192871 C79.7666685,27.4126862 80.4859334,27.6623389 81.2154476,27.6082539 L104.520241,25.889657 L78.3898401,21.6329908 Z" id="路径" fill="#BABFD8" opacity="0.6"></path>
                        <path d="M91.8982864,12.9428034 L78.3612437,0 L78.3966489,24.8055774 C78.3966489,25.4020612 78.8843857,25.8856069 79.4860397,25.8856069 L104.520241,25.8856069 L91.8982864,12.9428034 Z" id="路径" fill="#F2F5F9"></path>
                    </g>
                    <g id="编组-3备份" transform="translate(90.096351, 19.169436)">
                        <g id="分组备份" transform="translate(0.025063, 0.077536)">
                            <g id="分组">
                                <mask id="mask-10" fill="white">
                                    <use xlink:href="#path-9"></use>
                                </mask>
                                <g id="Clip-2"></g>
                                <path d="M22.8462165,-5.10476548e-06 C10.2285747,-5.10476548e-06 -5.09960303e-06,10.2389293 -5.09960303e-06,22.8693442 C-5.09960303e-06,35.4997081 10.2285747,45.7386936 22.8462165,45.7386936 C35.4638583,45.7386936 45.692438,35.4997081 45.692438,22.8693442 C45.692438,10.2389293 35.4638583,-5.10476548e-06 22.8462165,-5.10476548e-06" id="Fill-1" fill="#36C2CF" mask="url(#mask-10)"></path>
                            </g>
                            <path d="M28.2407193,13.8963457 C29.4425428,14.9760036 30.0588808,16.4567429 30.0588808,18.3076288 C30.0588808,19.8191499 29.658256,21.0839066 28.9186606,22.0710151 C28.6412422,22.4103288 27.7784403,23.2124406 26.2992495,24.4771463 C25.7445147,24.9707261 25.3130882,25.4951897 25.0357208,26.050435 C24.6967502,26.667397 24.5426402,27.3460245 24.5426402,28.1172524 L24.5426402,28.8492758 C24.5426402,29.1551023 24.2949525,29.4030408 23.9894863,29.4030408 L21.7983908,29.4030408 C21.4929246,29.4030408 21.2452369,29.1551023 21.2452369,28.8492758 L21.2452369,28.1172524 C21.2452369,26.9758779 21.4301995,25.9887184 21.8308243,25.1866576 C22.2622507,24.3229824 23.4332726,23.0581746 25.3438898,21.3615548 L25.8678231,20.7754766 C26.4224559,20.0659142 26.6998743,19.3255701 26.6998743,18.5235093 C26.6998743,17.4438514 26.3916543,16.6109579 25.8061689,15.9939449 C25.1897798,15.377034 24.326978,15.068553 23.2175084,15.068553 C21.8308243,15.068553 20.8138615,15.5004162 20.1975234,16.3641936 C19.715458,17.0075982 19.4428842,17.9072621 19.3797511,19.0226533 C19.3632284,19.3143907 19.1197733,19.5414506 18.8278721,19.5414506 L16.6666603,19.5414506 C16.3510459,19.5414506 16.0972386,19.277228 16.1137613,18.9617535 C16.2173343,16.9854946 16.8619751,15.4179232 18.071193,14.2356595 C19.3654722,12.9092372 21.1527811,12.2613914 23.402471,12.2613914 C25.405544,12.2613914 27.0079923,12.785804 28.2407193,13.8963457" id="Fill-3" fill="#FFFFFF"></path>
                            <path d="M23.1633863,34.4256553 L22.3474498,34.4256553 C21.6714974,34.4256553 21.1235451,33.8771482 21.1235451,33.2005115 L21.1235451,32.3837491 C21.1235451,31.7071124 21.6714974,31.1586054 22.3474498,31.1586054 L23.1633863,31.1586054 C23.8393387,31.1586054 24.387291,31.7071124 24.387291,32.3837491 L24.387291,33.2005115 C24.387291,33.8771482 23.8393387,34.4256553 23.1633863,34.4256553" id="Fill-5" fill="#FFFFFF"></path>
                        </g>
                    </g>
                </g>
            </g>
        </g>
    </g>
</svg>