<?xml version="1.0" encoding="UTF-8"?>
<svg width="52px" height="58px" viewBox="0 0 52 58" version="1.1" xmlns="http://www.w3.org/2000/svg" xmlns:xlink="http://www.w3.org/1999/xlink">
    <title>no_result</title>
    <g id="首页配置" stroke="none" stroke-width="1" fill="none" fill-rule="evenodd">
        <g id="首页配置_租户层级_企业购_编辑自定义栏_一横图多品模板_热区设置" transform="translate(-1274.000000, -345.000000)">
            <g id="Modal/Draw/Basic/Large" transform="translate(350.000000, 0.000000)">
                <g id="编组-4" transform="translate(875.000000, 345.000000)">
                    <g id="no_result" transform="translate(49.000000, 0.000000)">
                        <path d="M39.1542853,22.4994471 C39.1365028,22.4994471 37.1212604,24.9050539 35.2971884,27.3046375 C30.281845,25.6689295 27.3176424,24.0332216 26.4059483,22.3975137 C27.3176424,21.8528229 29.7794986,19.5568085 31.6035707,17.9211006 C32.7519085,20.1023171 35.2688134,21.6284326 39.1542853,22.4994471 Z" id="路径" fill="#868D9C"></path>
                        <path d="M0.244851071,23.9215969 L4.90659661,13.6270435 C5.35043916,12.6470664 6.32409651,12.0176617 7.39682776,12.0176617 L44.8289483,12.0176617 C45.9016795,12.0176617 46.8753369,12.6470664 47.3191794,13.6270435 L51.8040062,23.6223283 C51.9754314,24.1215266 52.0344043,25.514965 51.9809249,27.8026435 L51.9795571,53.8821787 C51.9795571,56.1563886 50.1422907,58 47.8759078,58 L4.10364924,58 C1.83726635,58 0,56.1563886 0,53.8821787 L0.000963538514,27.2512203 C0.00610402516,26.129866 0.0386604406,24.3768526 0.244851071,23.9215969 Z M32.1452524,32.6067684 L21.2021877,32.6067684 C20.0689963,32.6067684 19.1503631,33.5285741 19.1503631,34.6656791 C19.1503631,35.802784 20.0689963,36.7245897 21.2021877,36.7245897 L32.1452524,36.7245897 C33.2784438,36.7245897 34.197077,35.802784 34.197077,34.6656791 C34.197077,33.5285741 33.2784438,32.6067684 32.1452524,32.6067684 Z M44.3884899,15.4491795 L7.83728611,15.4491795 L3.79792737,24.3711257 L48.4278486,24.3711257 L44.3884899,15.4491795 Z" id="形状结合" fill="#E5E5E7" fill-rule="nonzero"></path>
                        <path d="M14.3882158,0 C13.8461607,3.15347254 16.0135684,4.98994013 20.8896265,5.50858729 C20.8571194,5.50858729 18.3714237,9.09307623 19.9967764,10.7240421 C16.238961,10.4630876 10.2446604,9.90855918 8.78834439,5.66886335 C9.87164194,5.12575171 12.33377,2.6103609 14.3882158,0 Z" id="路径" fill="#868D9C"></path>
                    </g>
                </g>
            </g>
        </g>
    </g>
</svg>