<?xml version="1.0" encoding="UTF-8"?>
<svg width="290px" height="151px" viewBox="0 0 290 151" version="1.1" xmlns="http://www.w3.org/2000/svg" xmlns:xlink="http://www.w3.org/1999/xlink">
    <title>编组 4</title>
    <defs>
        <path d="M2.01388889,0 L84.5833333,0 C85.6955735,0 86.5972222,0.503862547 86.5972222,1.1254085 L86.5972222,37.1384804 C86.5972222,37.7600263 85.6955735,38.2638889 84.5833333,38.2638889 L2.01388889,38.2638889 C0.901648768,38.2638889 0,37.7600263 0,37.1384804 L0,1.1254085 C0,0.503862547 0.901648768,0 2.01388889,0 Z" id="path-1"></path>
        <filter x="-12.1%" y="-19.6%" width="124.3%" height="154.9%" filterUnits="objectBoundingBox" id="filter-2">
            <feOffset dx="0" dy="3" in="SourceAlpha" result="shadowOffsetOuter1"></feOffset>
            <feGaussianBlur stdDeviation="3" in="shadowOffsetOuter1" result="shadowBlurOuter1"></feGaussianBlur>
            <feColorMatrix values="0 0 0 0 0.11372549   0 0 0 0 0.129411765   0 0 0 0 0.160784314  0 0 0 0.06 0" type="matrix" in="shadowBlurOuter1" result="shadowMatrixOuter1"></feColorMatrix>
            <feOffset dx="0" dy="2" in="SourceAlpha" result="shadowOffsetOuter2"></feOffset>
            <feGaussianBlur stdDeviation="1.5" in="shadowOffsetOuter2" result="shadowBlurOuter2"></feGaussianBlur>
            <feColorMatrix values="0 0 0 0 0.11372549   0 0 0 0 0.129411765   0 0 0 0 0.160784314  0 0 0 0.06 0" type="matrix" in="shadowBlurOuter2" result="shadowMatrixOuter2"></feColorMatrix>
            <feOffset dx="0" dy="1" in="SourceAlpha" result="shadowOffsetOuter3"></feOffset>
            <feGaussianBlur stdDeviation="1" in="shadowOffsetOuter3" result="shadowBlurOuter3"></feGaussianBlur>
            <feColorMatrix values="0 0 0 0 0.11372549   0 0 0 0 0.129411765   0 0 0 0 0.160784314  0 0 0 0.06 0" type="matrix" in="shadowBlurOuter3" result="shadowMatrixOuter3"></feColorMatrix>
            <feMerge>
                <feMergeNode in="shadowMatrixOuter1"></feMergeNode>
                <feMergeNode in="shadowMatrixOuter2"></feMergeNode>
                <feMergeNode in="shadowMatrixOuter3"></feMergeNode>
            </feMerge>
        </filter>
        <circle id="path-3" cx="19.3333333" cy="32.2222222" r="19.3333333"></circle>
        <filter x="-9.1%" y="-6.5%" width="118.1%" height="118.1%" filterUnits="objectBoundingBox" id="filter-4">
            <feOffset dx="0" dy="1" in="SourceAlpha" result="shadowOffsetOuter1"></feOffset>
            <feGaussianBlur stdDeviation="1" in="shadowOffsetOuter1" result="shadowBlurOuter1"></feGaussianBlur>
            <feColorMatrix values="0 0 0 0 0.11372549   0 0 0 0 0.129411765   0 0 0 0 0.160784314  0 0 0 0.06 0" type="matrix" in="shadowBlurOuter1" result="shadowMatrixOuter1"></feColorMatrix>
            <feOffset dx="0" dy="1" in="SourceAlpha" result="shadowOffsetOuter2"></feOffset>
            <feGaussianBlur stdDeviation="0.5" in="shadowOffsetOuter2" result="shadowBlurOuter2"></feGaussianBlur>
            <feColorMatrix values="0 0 0 0 0.11372549   0 0 0 0 0.129411765   0 0 0 0 0.160784314  0 0 0 0.1 0" type="matrix" in="shadowBlurOuter2" result="shadowMatrixOuter2"></feColorMatrix>
            <feMerge>
                <feMergeNode in="shadowMatrixOuter1"></feMergeNode>
                <feMergeNode in="shadowMatrixOuter2"></feMergeNode>
            </feMerge>
        </filter>
    </defs>
    <g id="页面-1" stroke="none" stroke-width="1" fill="none" fill-rule="evenodd">
        <g id="我的电商-初始化" transform="translate(-685, -349)">
            <g id="编组-6" transform="translate(685, 352)">
                <g id="编组-3" transform="translate(35.4444, 0)">
                    <g id="编组" transform="translate(19.3333, 16.1111)">
                        <g id="背景/1">
                            <path d="M3.22222222,0 L177.222222,0 C179.001806,0 180.444444,1.44263803 180.444444,3.22222222 L180.444444,125.666667 C180.444444,127.446251 179.001806,128.888889 177.222222,128.888889 L3.22222222,128.888889 C1.44263803,128.888889 0,127.446251 0,125.666667 L0,3.22222222 C0,1.44263803 1.44263803,0 3.22222222,0 Z" id="矩形" fill="#F1F4F8"></path>
                            <path d="M3.22222222,0 L177.222222,0 C179.001806,0 180.444444,1.44263803 180.444444,3.22222222 L180.444444,12.8888889 L0,12.8888889 L0,3.22222222 C0,1.44263803 1.44263803,0 3.22222222,0 Z" id="矩形" fill="#DBDEE3"></path>
                            <circle id="椭圆形" fill="#FFFFFF" cx="9.66666667" cy="6.44444444" r="3.22222222"></circle>
                            <circle id="椭圆形备份" fill="#FFFFFF" cx="22.5555556" cy="6.44444444" r="3.22222222"></circle>
                            <circle id="椭圆形备份-2" fill="#FFFFFF" cx="35.4444444" cy="6.44444444" r="3.22222222"></circle>
                        </g>
                        <path d="M9.66666667,19.3333333 L170.777778,19.3333333 C172.557362,19.3333333 174,20.7759714 174,22.5555556 L174,119.222222 C174,121.001806 172.557362,122.444444 170.777778,122.444444 L9.66666667,122.444444 C7.88708247,122.444444 6.44444444,121.001806 6.44444444,119.222222 L6.44444444,22.5555556 C6.44444444,20.7759714 7.88708247,19.3333333 9.66666667,19.3333333 Z" id="矩形" fill="#FFFFFF"></path>
                        <g id="编组" transform="translate(48.3333, 25.7778)">
                            <path d="M1.41573143,0 L79.2809599,0 C80.0628468,0 80.6966913,0.633353281 80.6966913,1.41463415 L80.6966913,56.5853659 C80.6966913,57.3666467 80.0628468,58 79.2809599,58 L1.41573143,58 C0.63384455,58 0,57.3666467 0,56.5853659 L0,1.41463415 C0,0.633353281 0.63384455,0 1.41573143,0 Z" id="矩形" fill="#EFF3F6"></path>
                            <ellipse id="椭圆形" fill="#FFFFFF" cx="12.9691111" cy="12.7317073" rx="5.76404938" ry="5.65853659"></ellipse>
                            <path d="M57.6404938,18.3902439 L80.6966913,42.4390244 L80.6966913,56.5853659 C80.6966913,57.3666467 80.0515281,58 79.255679,58 L17.2921481,58 L57.6404938,18.3902439 Z" id="路径" fill="#E2E5E9"></path>
                            <g id="路径-2" transform="translate(0, 22.6341)" fill="#E9ECF0">
                                <path d="M25.9382222,0 L61.9635308,35.3658537 L1.44101235,35.3658537 C0.645163203,35.3658537 0,34.7325004 0,33.9512195 L0,25.4634146 L25.9382222,0 Z" id="路径"></path>
                            </g>
                        </g>
                        <path d="M14.5,25.5763889 L40.2777778,25.5763889 C41.1675699,25.5763889 41.8888889,26.2977079 41.8888889,27.1875 L41.8888889,30.6111111 C41.8888889,31.5009032 41.1675699,32.2222222 40.2777778,32.2222222 L14.5,32.2222222 C13.6102079,32.2222222 12.8888889,31.5009032 12.8888889,30.6111111 L12.8888889,27.1875 C12.8888889,26.2977079 13.6102079,25.5763889 14.5,25.5763889 Z" id="矩形" fill="currentColor"></path>
                        <path d="M14.5,25.5763889 L40.2777778,25.5763889 C41.1675699,25.5763889 41.8888889,26.2977079 41.8888889,27.1875 L41.8888889,30.6111111 C41.8888889,31.5009032 41.1675699,32.2222222 40.2777778,32.2222222 L14.5,32.2222222 C13.6102079,32.2222222 12.8888889,31.5009032 12.8888889,30.6111111 L12.8888889,27.1875 C12.8888889,26.2977079 13.6102079,25.5763889 14.5,25.5763889 Z" id="矩形" fill-opacity="0.8" fill="#FFFFFF"></path>
                        <path d="M14.5,38.6666667 L33.8333333,38.6666667 C34.7231254,38.6666667 35.4444444,39.3879857 35.4444444,40.2777778 L35.4444444,43.5 C35.4444444,44.3897921 34.7231254,45.1111111 33.8333333,45.1111111 L14.5,45.1111111 C13.6102079,45.1111111 12.8888889,44.3897921 12.8888889,43.5 L12.8888889,40.2777778 C12.8888889,39.3879857 13.6102079,38.6666667 14.5,38.6666667 Z" id="矩形备份" fill="#F1F4F8"></path>
                        <path d="M143.388889,64.4444444 L159.5,64.4444444 C160.389792,64.4444444 161.111111,65.1657635 161.111111,66.0555556 L161.111111,69.2777778 C161.111111,70.1675699 160.389792,70.8888889 159.5,70.8888889 L143.388889,70.8888889 C142.499097,70.8888889 141.777778,70.1675699 141.777778,69.2777778 L141.777778,66.0555556 C141.777778,65.1657635 142.499097,64.4444444 143.388889,64.4444444 Z" id="矩形备份-5" fill="#F1F4F8"></path>
                        <path d="M14.5,51.5555556 L33.8333333,51.5555556 C34.7231254,51.5555556 35.4444444,52.2768746 35.4444444,53.1666667 L35.4444444,56.3888889 C35.4444444,57.278681 34.7231254,58 33.8333333,58 L14.5,58 C13.6102079,58 12.8888889,57.278681 12.8888889,56.3888889 L12.8888889,53.1666667 C12.8888889,52.2768746 13.6102079,51.5555556 14.5,51.5555556 Z" id="矩形备份-2" fill="#F1F4F8"></path>
                        <path d="M14.5,64.4444444 L33.8333333,64.4444444 C34.7231254,64.4444444 35.4444444,65.1657635 35.4444444,66.0555556 L35.4444444,69.2777778 C35.4444444,70.1675699 34.7231254,70.8888889 33.8333333,70.8888889 L14.5,70.8888889 C13.6102079,70.8888889 12.8888889,70.1675699 12.8888889,69.2777778 L12.8888889,66.0555556 C12.8888889,65.1657635 13.6102079,64.4444444 14.5,64.4444444 Z" id="矩形备份-3" fill="#F1F4F8"></path>
                        <path d="M14.5,77.3333333 L33.8333333,77.3333333 C34.7231254,77.3333333 35.4444444,78.0546523 35.4444444,78.9444444 L35.4444444,82.1666667 C35.4444444,83.0564588 34.7231254,83.7777778 33.8333333,83.7777778 L14.5,83.7777778 C13.6102079,83.7777778 12.8888889,83.0564588 12.8888889,82.1666667 L12.8888889,78.9444444 C12.8888889,78.0546523 13.6102079,77.3333333 14.5,77.3333333 Z" id="矩形备份-4" fill="#F1F4F8"></path>
                        <path d="M162.722222,77.3333333 L165.944444,77.3333333 C166.834237,77.3333333 167.555556,78.0546523 167.555556,78.9444444 L167.555556,82.1666667 C167.555556,83.0564588 166.834237,83.7777778 165.944444,83.7777778 L162.722222,83.7777778 C161.83243,83.7777778 161.111111,83.0564588 161.111111,82.1666667 L161.111111,78.9444444 C161.111111,78.0546523 161.83243,77.3333333 162.722222,77.3333333 Z" id="矩形备份-6" fill="#F1F4F8"></path>
                        <path d="M149.833333,77.3333333 L153.055556,77.3333333 C153.945348,77.3333333 154.666667,78.0546523 154.666667,78.9444444 L154.666667,82.1666667 C154.666667,83.0564588 153.945348,83.7777778 153.055556,83.7777778 L149.833333,83.7777778 C148.943541,83.7777778 148.222222,83.0564588 148.222222,82.1666667 L148.222222,78.9444444 C148.222222,78.0546523 148.943541,77.3333333 149.833333,77.3333333 Z" id="矩形备份-7" fill="#F1F4F8"></path>
                        <path d="M136.944444,77.3333333 L140.166667,77.3333333 C141.056459,77.3333333 141.777778,78.0546523 141.777778,78.9444444 L141.777778,82.1666667 C141.777778,83.0564588 141.056459,83.7777778 140.166667,83.7777778 L136.944444,83.7777778 C136.054652,83.7777778 135.333333,83.0564588 135.333333,82.1666667 L135.333333,78.9444444 C135.333333,78.0546523 136.054652,77.3333333 136.944444,77.3333333 Z" id="矩形备份-8" fill="#F1F4F8"></path>
                        <g id="编组-2备份-2" transform="translate(135.3333, 25.7778)">
                            <g id="编组">
                                <circle id="椭圆形" fill="#F1F4F8" cx="16.1111111" cy="16.1111111" r="16.1111111"></circle>
                                <path d="M16.1111111,20.3140097 C19.9797724,20.3140097 23.115942,24.0774132 23.115942,28.7198068 C23.115942,28.831177 23.1141371,28.9420414 23.1105605,29.0523601 C21.0291237,30.1806213 18.6449315,30.821256 16.1111111,30.821256 C13.5772772,30.821256 11.1930732,30.1806145 9.11163949,29.0524718 C9.1080851,28.9420414 9.10628019,28.831177 9.10628019,28.7198068 C9.10628019,24.0774132 12.2424498,20.3140097 16.1111111,20.3140097 Z" id="路径" fill="#DBDEE3"></path>
                                <path d="M16.3193298,20.3168612 L16.1111111,20.3140097 C18.257949,20.3140097 20.1792178,21.4729415 21.4641537,23.2978888 C20.4324702,23.8215771 18.6553718,24.1666667 16.6364734,24.1666667 C14.0489213,24.1666667 11.8585658,23.5997997 11.1221115,22.8183007 C12.231597,21.469376 13.716425,20.5682575 15.3731308,20.3601029 C15.6800615,20.3373636 15.9961656,20.3226873 16.3193298,20.3168612 Z" id="形状结合" fill-opacity="0.1" fill="#000000"></path>
                                <polygon id="矩形" fill="#F1F4F8" points="14.0096618 24.5169082 16.1111111 25.2173913 14.0096618 25.9178744"></polygon>
                                <polygon id="矩形备份-2" fill="#F1F4F8" transform="translate(17.1618, 25.2174) scale(-1, 1) translate(-17.1618, -25.2174)" points="16.1111111 24.5169082 18.2125604 25.2173913 16.1111111 25.9178744"></polygon>
                                <rect id="矩形" fill="#F1F4F8" x="15.410628" y="24.8671498" width="1.40096618" height="1" rx="0.402777778"></rect>
                                <ellipse id="椭圆形备份-2" fill="#DBDEE3" cx="16.1111111" cy="15.410628" rx="9.10628019" ry="8.4057971"></ellipse>
                            </g>
                            <ellipse id="椭圆形备份-2" fill="#FFFFFF" cx="16.1111111" cy="15.410628" rx="7.70531401" ry="7.00483092"></ellipse>
                            <path d="M16.1134214,14.0096771 C16.2101295,14.010953 16.2874926,14.0903847 16.2862322,14.1870929 C16.2787982,14.7493779 15.9677896,15.0603865 15.410628,15.0603865 C14.8534664,15.0603865 14.5424579,14.7493779 14.5350238,14.1870929 C14.5337635,14.0903847 14.6111266,14.010953 14.7078347,14.0096771 C14.8045428,14.0084012 14.8839745,14.0857643 14.8852505,14.1824724 C14.8901544,14.5541648 15.0461345,14.7101449 15.410628,14.7101449 C15.7751215,14.7101449 15.9311017,14.5541648 15.9360056,14.1824724 C15.9372815,14.0857643 16.0167132,14.0084012 16.1134214,14.0096771 Z" id="路径-93" fill="#DBDEE3" fill-rule="nonzero"></path>
                            <path d="M17.5143875,14.0096771 C17.6110957,14.010953 17.6884587,14.0903847 17.6871984,14.1870929 C17.6797644,14.7493779 17.3687558,15.0603865 16.8115942,15.0603865 C16.2544326,15.0603865 15.943424,14.7493779 15.93599,14.1870929 C15.9347297,14.0903847 16.0120928,14.010953 16.1088009,14.0096771 C16.205509,14.0084012 16.2849407,14.0857643 16.2862166,14.1824724 C16.2911205,14.5541648 16.4471007,14.7101449 16.8115942,14.7101449 C17.1760877,14.7101449 17.3320679,14.5541648 17.3369718,14.1824724 C17.3382477,14.0857643 17.4176794,14.0084012 17.5143875,14.0096771 Z" id="路径-93备份" fill="#DBDEE3" fill-rule="nonzero"></path>
                            <ellipse id="椭圆形备份-3" fill="#DBDEE3" cx="19.6135266" cy="13.134058" rx="1" ry="1"></ellipse>
                            <ellipse id="椭圆形备份-4" fill="#DBDEE3" cx="12.6086957" cy="13.134058" rx="1" ry="1"></ellipse>
                            <rect id="矩形" fill="#F1F4F8" x="11.2077295" y="14.7101449" width="2.45169082" height="1.05072464" rx="0.525362319"></rect>
                            <rect id="矩形备份" fill="#F1F4F8" x="18.9130435" y="14.7101449" width="2.45169082" height="1.05072464" rx="0.525362319"></rect>
                            <path d="M19.6135266,7.96799517 L18.9522523,9.95172613 C18.1506952,9.58477762 17.1701083,9.36896135 16.1111111,9.36896135 C15.0521139,9.36896135 14.071527,9.58477762 13.2699699,9.95172613 L12.6086957,7.96799517 L19.6135266,7.96799517 Z" id="形状结合" fill="#DBDEE3"></path>
                            <circle id="椭圆形" fill="#DBDEE3" cx="18.2125604" cy="4.90338164" r="1"></circle>
                            <path d="M18.0683613,4.6288933 L18.3567595,4.82762843 L18.322392,4.87631891 C18.2333901,5.00073185 18.0542729,5.24325702 18.0521542,5.24618815 C17.4973056,6.01380578 17.3461137,6.59237109 17.6759673,7.46848956 L17.3481873,7.59189691 C16.9783613,6.6096087 17.1436603,5.92494006 17.7286793,5.09646338 L18.0335946,4.67807343 C18.048013,4.65795384 18.0599985,4.64102919 18.0683613,4.6288933 Z" id="路径-96" fill="#DBDEE3" fill-rule="nonzero"></path>
                        </g>
                        <path d="M14.5,93.4444444 L33.8333333,93.4444444 C34.7231254,93.4444444 35.4444444,94.1657635 35.4444444,95.0555556 L35.4444444,114.388889 C35.4444444,115.278681 34.7231254,116 33.8333333,116 L14.5,116 C13.6102079,116 12.8888889,115.278681 12.8888889,114.388889 L12.8888889,95.0555556 C12.8888889,94.1657635 13.6102079,93.4444444 14.5,93.4444444 Z" id="矩形" fill="#F1F4F8"></path>
                        <path d="M46.7222222,93.4444444 L66.0555556,93.4444444 C66.9453477,93.4444444 67.6666667,94.1657635 67.6666667,95.0555556 L67.6666667,114.388889 C67.6666667,115.278681 66.9453477,116 66.0555556,116 L46.7222222,116 C45.8324301,116 45.1111111,115.278681 45.1111111,114.388889 L45.1111111,95.0555556 C45.1111111,94.1657635 45.8324301,93.4444444 46.7222222,93.4444444 Z" id="矩形备份-9" fill="#F1F4F8"></path>
                        <path d="M114.388889,93.4444444 L133.722222,93.4444444 C134.612014,93.4444444 135.333333,94.1657635 135.333333,95.0555556 L135.333333,114.388889 C135.333333,115.278681 134.612014,116 133.722222,116 L114.388889,116 C113.499097,116 112.777778,115.278681 112.777778,114.388889 L112.777778,95.0555556 C112.777778,94.1657635 113.499097,93.4444444 114.388889,93.4444444 Z" id="矩形备份-10" fill="#F1F4F8"></path>
                        <path d="M146.611111,93.4444444 L165.944444,93.4444444 C166.834237,93.4444444 167.555556,94.1657635 167.555556,95.0555556 L167.555556,114.388889 C167.555556,115.278681 166.834237,116 165.944444,116 L146.611111,116 C145.721319,116 145,115.278681 145,114.388889 L145,95.0555556 C145,94.1657635 145.721319,93.4444444 146.611111,93.4444444 Z" id="矩形备份-12" fill="#F1F4F8"></path>
                        <path d="M78.9444444,93.4444444 L101.5,93.4444444 C102.389792,93.4444444 103.111111,94.1657635 103.111111,95.0555556 L103.111111,114.388889 C103.111111,115.278681 102.389792,116 101.5,116 L78.9444444,116 C78.0546523,116 77.3333333,115.278681 77.3333333,114.388889 L77.3333333,95.0555556 C77.3333333,94.1657635 78.0546523,93.4444444 78.9444444,93.4444444 Z" id="矩形备份-11" fill="#F1F4F8"></path>
                        <path d="M17.7222222,109.555556 L30.6111111,109.555556 C31.5009032,109.555556 32.2222222,110.276875 32.2222222,111.166667 C32.2222222,112.056459 31.5009032,112.777778 30.6111111,112.777778 L17.7222222,112.777778 C16.8324301,112.777778 16.1111111,112.056459 16.1111111,111.166667 C16.1111111,110.276875 16.8324301,109.555556 17.7222222,109.555556 Z" id="矩形" fill="#E9ECF0"></path>
                        <path d="M49.9444444,109.555556 L62.8333333,109.555556 C63.7231254,109.555556 64.4444444,110.276875 64.4444444,111.166667 C64.4444444,112.056459 63.7231254,112.777778 62.8333333,112.777778 L49.9444444,112.777778 C49.0546523,112.777778 48.3333333,112.056459 48.3333333,111.166667 C48.3333333,110.276875 49.0546523,109.555556 49.9444444,109.555556 Z" id="矩形备份-14" fill="#E9ECF0"></path>
                        <path d="M17.7222222,103.111111 L24.1666667,103.111111 C25.0564588,103.111111 25.7777778,103.83243 25.7777778,104.722222 C25.7777778,105.612014 25.0564588,106.333333 24.1666667,106.333333 L17.7222222,106.333333 C16.8324301,106.333333 16.1111111,105.612014 16.1111111,104.722222 C16.1111111,103.83243 16.8324301,103.111111 17.7222222,103.111111 Z" id="矩形备份-13" fill="#E2E5E9"></path>
                        <path d="M49.9444444,103.111111 L56.3888889,103.111111 C57.278681,103.111111 58,103.83243 58,104.722222 C58,105.612014 57.278681,106.333333 56.3888889,106.333333 L49.9444444,106.333333 C49.0546523,106.333333 48.3333333,105.612014 48.3333333,104.722222 C48.3333333,103.83243 49.0546523,103.111111 49.9444444,103.111111 Z" id="矩形备份-15" fill="#E2E5E9"></path>
                        <path d="M82.1666667,109.555556 L95.0555556,109.555556 C95.9453477,109.555556 96.6666667,110.276875 96.6666667,111.166667 C96.6666667,112.056459 95.9453477,112.777778 95.0555556,112.777778 L82.1666667,112.777778 C81.2768746,112.777778 80.5555556,112.056459 80.5555556,111.166667 C80.5555556,110.276875 81.2768746,109.555556 82.1666667,109.555556 Z" id="矩形备份-17" fill="#E9ECF0"></path>
                        <path d="M82.1666667,103.111111 L88.6111111,103.111111 C89.5009032,103.111111 90.2222222,103.83243 90.2222222,104.722222 C90.2222222,105.612014 89.5009032,106.333333 88.6111111,106.333333 L82.1666667,106.333333 C81.2768746,106.333333 80.5555556,105.612014 80.5555556,104.722222 C80.5555556,103.83243 81.2768746,103.111111 82.1666667,103.111111 Z" id="矩形备份-16" fill="#E2E5E9"></path>
                        <path d="M117.611111,109.555556 L130.5,109.555556 C131.389792,109.555556 132.111111,110.276875 132.111111,111.166667 C132.111111,112.056459 131.389792,112.777778 130.5,112.777778 L117.611111,112.777778 C116.721319,112.777778 116,112.056459 116,111.166667 C116,110.276875 116.721319,109.555556 117.611111,109.555556 Z" id="矩形备份-19" fill="#E9ECF0"></path>
                        <path d="M149.833333,109.555556 L162.722222,109.555556 C163.612014,109.555556 164.333333,110.276875 164.333333,111.166667 C164.333333,112.056459 163.612014,112.777778 162.722222,112.777778 L149.833333,112.777778 C148.943541,112.777778 148.222222,112.056459 148.222222,111.166667 C148.222222,110.276875 148.943541,109.555556 149.833333,109.555556 Z" id="矩形备份-20" fill="#E9ECF0"></path>
                        <path d="M117.611111,103.111111 L124.055556,103.111111 C124.945348,103.111111 125.666667,103.83243 125.666667,104.722222 C125.666667,105.612014 124.945348,106.333333 124.055556,106.333333 L117.611111,106.333333 C116.721319,106.333333 116,105.612014 116,104.722222 C116,103.83243 116.721319,103.111111 117.611111,103.111111 Z" id="矩形备份-18" fill="#E2E5E9"></path>
                        <path d="M149.833333,103.111111 L156.277778,103.111111 C157.16757,103.111111 157.888889,103.83243 157.888889,104.722222 C157.888889,105.612014 157.16757,106.333333 156.277778,106.333333 L149.833333,106.333333 C148.943541,106.333333 148.222222,105.612014 148.222222,104.722222 C148.222222,103.83243 148.943541,103.111111 149.833333,103.111111 Z" id="矩形备份-21" fill="#E2E5E9"></path>
                    </g>
                    <g id="编组-5" transform="translate(138.3542, 0)">
                        <g id="矩形">
                            <use fill="black" fill-opacity="1" filter="url(#filter-2)" xlink:href="#path-1"></use>
                            <use fill="#FFFFFF" fill-rule="evenodd" xlink:href="#path-1"></use>
                        </g>
                        <path d="M78.7943763,15.5128728 C76.948357,17.7548355 75.9141023,20.4393706 75.2342901,23.3450625 C70.5225896,23.2702747 66.005107,24.4068241 61.7059624,26.9051487 C63.7174823,22.917156 65.6266331,18.8644459 65.2660486,13.376821 C68.2742901,12.5047995 71.0434276,11.5588829 73.0982383,9.81673482 L78.7943763,15.5128728 Z M73.6678521,14.943259 C73.3532631,14.62867 72.8432135,14.62867 72.5286245,14.943259 L69.3957487,18.0761349 C69.0811596,18.3907239 69.0811596,18.9007734 69.3957487,19.2153625 C69.7103377,19.5299515 70.2203872,19.5299515 70.5349762,19.2153625 L73.6678521,16.0824866 C73.9824411,15.7678976 73.9824411,15.257848 73.6678521,14.943259 Z M75.3766935,8.67750723 L79.9336039,13.2344176 C80.2481929,13.5490066 80.2481929,14.0590562 79.9336039,14.3736452 C79.6190149,14.6882342 79.1089653,14.6882342 78.7943763,14.3736452 L74.2374659,9.81673482 C73.9228769,9.50214581 73.9228769,8.99209624 74.2374659,8.67750723 C74.5520549,8.36291822 75.0621045,8.36291822 75.3766935,8.67750723 Z M62.0277778,28.3958333 L78.5416667,28.3958333 C78.9865627,28.3958333 79.3472222,28.7564928 79.3472222,29.2013889 C79.3472222,29.6462849 78.9865627,30.0069444 78.5416667,30.0069444 L62.0277778,30.0069444 C61.5828817,30.0069444 61.2222222,29.6462849 61.2222222,29.2013889 C61.2222222,28.7564928 61.5828817,28.3958333 62.0277778,28.3958333 Z" id="形状结合" fill="currentColor"></path>
                        <g id="元素/标识/对备份-2" transform="translate(6.0417, 6.0417)">
                            <circle id="椭圆形" fill="#179454" cx="5.03472222" cy="5.03472222" r="5.03472222"></circle>
                            <g id="编组-2" transform="translate(2.0033, 3.0295)" fill="#FFFFFF">
                                <path d="M0.225290063,2.30599207 L2.99666211,2.3162406 C3.23675412,2.31712846 3.43214063,2.52160466 3.43307674,2.77295098 C3.43399959,3.02429729 3.24012006,3.22733399 3.00002805,3.22644613 L0.228656003,3.21619759 C-0.0114360001,3.21530973 -0.206822516,3.01083353 -0.207758627,2.75948722 C-0.208681473,2.5081409 -0.01480194,2.30510421 0.225290063,2.30599207 Z" id="矩形" transform="translate(1.6127, 2.7662) rotate(45) translate(-1.6127, -2.7662)"></path>
                                <path d="M4.57194348,0.0111888921 L4.58809999,4.38017542 C4.58902947,4.63152174 4.38602651,4.83452469 4.1346802,4.83360155 C3.88333388,4.83266573 3.67882394,4.6281558 3.67789446,4.37680948 L3.66173795,0.0078229521 C3.66080847,-0.243523364 3.86381143,-0.44652632 4.11515775,-0.445603178 C4.36650406,-0.444667363 4.571014,-0.240157424 4.57194348,0.0111888921 Z" id="矩形备份-3" transform="translate(4.1249, 2.194) rotate(45) translate(-4.1249, -2.194)"></path>
                            </g>
                        </g>
                        <g id="元素/标识/对备份-3" transform="translate(6.0417, 22.1528)">
                            <circle id="椭圆形" fill="#179454" cx="5.03472222" cy="5.03472222" r="5.03472222"></circle>
                            <g id="编组-2" transform="translate(2.0033, 3.0295)" fill="#FFFFFF">
                                <path d="M0.225290063,2.30599207 L2.99666211,2.3162406 C3.23675412,2.31712846 3.43214063,2.52160466 3.43307674,2.77295098 C3.43399959,3.02429729 3.24012006,3.22733399 3.00002805,3.22644613 L0.228656003,3.21619759 C-0.0114360001,3.21530973 -0.206822516,3.01083353 -0.207758627,2.75948722 C-0.208681473,2.5081409 -0.01480194,2.30510421 0.225290063,2.30599207 Z" id="矩形" transform="translate(1.6127, 2.7662) rotate(45) translate(-1.6127, -2.7662)"></path>
                                <path d="M4.57194348,0.0111888921 L4.58809999,4.38017542 C4.58902947,4.63152174 4.38602651,4.83452469 4.1346802,4.83360155 C3.88333388,4.83266573 3.67882394,4.6281558 3.67789446,4.37680948 L3.66173795,0.0078229521 C3.66080847,-0.243523364 3.86381143,-0.44652632 4.11515775,-0.445603178 C4.36650406,-0.444667363 4.571014,-0.240157424 4.57194348,0.0111888921 Z" id="矩形备份-3" transform="translate(4.1249, 2.194) rotate(45) translate(-4.1249, -2.194)"></path>
                            </g>
                        </g>
                        <path d="M21.1458333,6.04166667 L53.3680556,6.04166667 C53.9241756,6.04166667 54.375,6.49249105 54.375,7.04861111 L54.375,9.0625 C54.375,9.61862006 53.9241756,10.0694444 53.3680556,10.0694444 L21.1458333,10.0694444 C20.5897133,10.0694444 20.1388889,9.61862006 20.1388889,9.0625 L20.1388889,7.04861111 C20.1388889,6.49249105 20.5897133,6.04166667 21.1458333,6.04166667 Z" id="矩形" fill="#E9ECF0"></path>
                        <path d="M21.1458333,22.1527778 L53.3680556,22.1527778 C53.9241756,22.1527778 54.375,22.6036022 54.375,23.1597222 L54.375,25.1736111 C54.375,25.7297312 53.9241756,26.1805556 53.3680556,26.1805556 L21.1458333,26.1805556 C20.5897133,26.1805556 20.1388889,25.7297312 20.1388889,25.1736111 L20.1388889,23.1597222 C20.1388889,22.6036022 20.5897133,22.1527778 21.1458333,22.1527778 Z" id="矩形备份-7" fill="#E9ECF0"></path>
                        <path d="M21.1458333,12.0833333 L37.2569444,12.0833333 C37.8130645,12.0833333 38.2638889,12.5341577 38.2638889,13.0902778 L38.2638889,15.1041667 C38.2638889,15.6602867 37.8130645,16.1111111 37.2569444,16.1111111 L21.1458333,16.1111111 C20.5897133,16.1111111 20.1388889,15.6602867 20.1388889,15.1041667 L20.1388889,13.0902778 C20.1388889,12.5341577 20.5897133,12.0833333 21.1458333,12.0833333 Z" id="矩形备份-6" fill="#F1F4F8"></path>
                        <path d="M21.1458333,28.1944444 L37.2569444,28.1944444 C37.8130645,28.1944444 38.2638889,28.6452688 38.2638889,29.2013889 L38.2638889,31.2152778 C38.2638889,31.7713978 37.8130645,32.2222222 37.2569444,32.2222222 L21.1458333,32.2222222 C20.5897133,32.2222222 20.1388889,31.7713978 20.1388889,31.2152778 L20.1388889,29.2013889 C20.1388889,28.6452688 20.5897133,28.1944444 21.1458333,28.1944444 Z" id="矩形备份-8" fill="#F1F4F8"></path>
                    </g>
                    <g id="编组-7" transform="translate(0, 93.4444)">
                        <path d="M32.2222222,0 L32.2222222,12.6311111 L29.6444444,18.0444444 L24.4888889,18.0444444 L24.4888889,0 L32.2222222,0 Z M14.1777778,0 L14.1777778,18.0444444 L9.02222222,18.0444444 L6.44444444,12.6311111 L6.44444444,0 L14.1777778,0 Z M21.9111111,18.0444444 L16.7555556,18.0444444 L16.7555556,0 L21.9111111,0 L21.9111111,18.0444444 Z" id="形状结合" fill="currentColor"></path>
                        <g id="椭圆形">
                            <use fill="black" fill-opacity="1" filter="url(#filter-4)" xlink:href="#path-3"></use>
                            <use fill="#FFFFFF" fill-rule="evenodd" xlink:href="#path-3"></use>
                        </g>
                        <path d="M19.3333333,18.8177778 C26.7364036,18.8177778 32.7377778,24.819152 32.7377778,32.2222222 C32.7377778,39.6252925 26.7364036,45.6266667 19.3333333,45.6266667 C11.9302631,45.6266667 5.92888889,39.6252925 5.92888889,32.2222222 C5.92888889,24.819152 11.9302631,18.8177778 19.3333333,18.8177778 Z M19.8754781,26.416121 C19.2687904,26.1167027 18.5342463,26.3657938 18.234828,26.9724816 L17.4362092,28.5906601 C17.248467,28.9710672 16.8855603,29.2347344 16.4657561,29.2957355 L14.6799901,29.5552225 C14.4133838,29.5939627 14.1669836,29.7195099 13.9789349,29.9124279 C13.5066944,30.3968969 13.5166075,31.1724632 14.0010765,31.6447038 L15.2932689,32.9042801 C15.597042,33.2003857 15.7356601,33.6270082 15.663949,34.0451161 L15.3589037,35.8236664 C15.3133619,36.0891954 15.3566226,36.3623322 15.4819883,36.600792 C15.7968154,37.1996286 16.5374861,37.4298639 17.1363227,37.1150369 L18.7335603,36.2753193 C19.1090446,36.0779156 19.557622,36.0779156 19.9331063,36.2753193 L21.530344,37.1150369 C21.7688039,37.2404026 22.0419407,37.2836632 22.3074696,37.2381215 C22.974284,37.1237539 23.4221306,36.4904807 23.3077629,35.8236664 L23.0027177,34.0451161 C22.9310066,33.6270082 23.0696246,33.2003857 23.3733978,32.9042801 L24.6655902,31.6447038 C24.8585083,31.4566551 24.9840555,31.2102549 25.0227957,30.9436486 C25.1200826,30.2741289 24.6561962,29.6525094 23.9866766,29.5552225 L22.2009106,29.2957355 C21.7811064,29.2347344 21.4181996,28.9710672 21.2304575,28.5906601 L20.4318387,26.9724816 C20.3126087,26.7308953 20.1170644,26.535351 19.8754781,26.416121 Z" id="形状结合" fill="currentColor"></path>
                        <path d="M19.3333333,18.8177778 C26.7364036,18.8177778 32.7377778,24.819152 32.7377778,32.2222222 C32.7377778,39.6252925 26.7364036,45.6266667 19.3333333,45.6266667 C11.9302631,45.6266667 5.92888889,39.6252925 5.92888889,32.2222222 C5.92888889,24.819152 11.9302631,18.8177778 19.3333333,18.8177778 Z M19.8754781,26.416121 C19.2687904,26.1167027 18.5342463,26.3657938 18.234828,26.9724816 L17.4362092,28.5906601 C17.248467,28.9710672 16.8855603,29.2347344 16.4657561,29.2957355 L14.6799901,29.5552225 C14.4133838,29.5939627 14.1669836,29.7195099 13.9789349,29.9124279 C13.5066944,30.3968969 13.5166075,31.1724632 14.0010765,31.6447038 L15.2932689,32.9042801 C15.597042,33.2003857 15.7356601,33.6270082 15.663949,34.0451161 L15.3589037,35.8236664 C15.3133619,36.0891954 15.3566226,36.3623322 15.4819883,36.600792 C15.7968154,37.1996286 16.5374861,37.4298639 17.1363227,37.1150369 L18.7335603,36.2753193 C19.1090446,36.0779156 19.557622,36.0779156 19.9331063,36.2753193 L21.530344,37.1150369 C21.7688039,37.2404026 22.0419407,37.2836632 22.3074696,37.2381215 C22.974284,37.1237539 23.4221306,36.4904807 23.3077629,35.8236664 L23.0027177,34.0451161 C22.9310066,33.6270082 23.0696246,33.2003857 23.3733978,32.9042801 L24.6655902,31.6447038 C24.8585083,31.4566551 24.9840555,31.2102549 25.0227957,30.9436486 C25.1200826,30.2741289 24.6561962,29.6525094 23.9866766,29.5552225 L22.2009106,29.2957355 C21.7811064,29.2347344 21.4181996,28.9710672 21.2304575,28.5906601 L20.4318387,26.9724816 C20.3126087,26.7308953 20.1170644,26.535351 19.8754781,26.416121 Z" id="形状结合" fill-opacity="0.8" fill="#FFFFFF"></path>
                    </g>
                </g>
            </g>
        </g>
    </g>
</svg>
