<?xml version="1.0" standalone="no"?><!DOCTYPE svg PUBLIC "-//W3C//DTD SVG 1.1//EN" "http://www.w3.org/Graphics/SVG/1.1/DTD/svg11.dtd"><svg t="1735270287728" class="icon" viewBox="0 0 1024 1024" version="1.1" xmlns="http://www.w3.org/2000/svg" p-id="17073" xmlns:xlink="http://www.w3.org/1999/xlink" width="200" height="200"><path d="M435.2 147.2c0 44.8 38.4 83.2 76.8 83.2 44.8 0 83.2-38.4 83.2-83.2C588.8 102.4 556.8 64 512 64c-44.8 0-76.8 38.4-76.8 83.2z m0 729.6c0 44.8 32 83.2 76.8 83.2s83.2-38.4 83.2-83.2c0-44.8-38.4-83.2-83.2-83.2-44.8-6.4-76.8 32-76.8 83.2z m499.2-320H89.6c-12.8 0-25.6-12.8-25.6-38.4 0-25.6 12.8-51.2 25.6-51.2h844.8c12.8 0 25.6 25.6 25.6 51.2s-12.8 38.4-25.6 38.4z m0 0" p-id="17074"></path></svg>