<?xml version="1.0" encoding="UTF-8"?>
<svg width="142px" height="105px" viewBox="0 0 142 105" version="1.1" xmlns="http://www.w3.org/2000/svg" xmlns:xlink="http://www.w3.org/1999/xlink">
    <title>illustrate</title>
    <defs>
        <filter x="-2.9%" y="-4.0%" width="105.9%" height="108.1%" filterUnits="objectBoundingBox" id="filter-1">
            <feOffset dx="0" dy="1" in="SourceAlpha" result="shadowOffsetOuter1"></feOffset>
            <feGaussianBlur stdDeviation="0.5" in="shadowOffsetOuter1" result="shadowBlurOuter1"></feGaussianBlur>
            <feColorMatrix values="0 0 0 0 0   0 0 0 0 0   0 0 0 0 0  0 0 0 0.1 0" type="matrix" in="shadowBlurOuter1" result="shadowMatrixOuter1"></feColorMatrix>
            <feMerge>
                <feMergeNode in="shadowMatrixOuter1"></feMergeNode>
                <feMergeNode in="SourceGraphic"></feMergeNode>
            </feMerge>
        </filter>
        <rect id="path-2" x="0" y="0" width="60" height="54" rx="1"></rect>
        <rect id="path-4" x="0" y="0" width="7" height="8.16666667"></rect>
        <rect id="path-6" x="0" y="8" width="44" height="64" rx="1"></rect>
        <mask id="mask-7" maskContentUnits="userSpaceOnUse" maskUnits="objectBoundingBox" x="0" y="0" width="44" height="64" fill="white">
            <use xlink:href="#path-6"></use>
        </mask>
    </defs>
    <g id="页面-1" stroke="none" stroke-width="1" fill="none" fill-rule="evenodd">
        <g id="报表-设置-卡片列表为空" transform="translate(-1230.000000, -335.000000)">
            <g id="编组-23备份-5" transform="translate(1160.000000, 136.000000)">
                <g id="illustrate" filter="url(#filter-1)" transform="translate(73.000000, 202.000000)">
                    <g id="path-1-link" fill="#F2F4F6">
                        <rect id="path-1" x="0" y="0" width="136" height="99" rx="3"></rect>
                    </g>
                    <g id="title" fill-rule="nonzero">
                        <path d="M3,0 L133,0 C134.656854,0 136,1.34314575 136,3 L136,9 L136,9 L0,9 L0,3 C0,1.34314575 1.34314575,0 3,0 Z" id="Rectangle-Copy-10" fill="#606C80" opacity="0.200000003"></path>
                        <circle id="Oval" fill="#FFFFFF" opacity="0.746814546" cx="5.5" cy="4.5" r="1.5"></circle>
                        <circle id="Oval" fill="#FFFFFF" opacity="0.746814546" cx="11.5" cy="4.5" r="1.5"></circle>
                        <circle id="Oval" fill="#FFFFFF" opacity="0.746814546" cx="17.5" cy="4.5" r="1.5"></circle>
                    </g>
                    <g id="title" fill-rule="nonzero">
                        <path d="M3,0 L133,0 C134.656854,0 136,1.34314575 136,3 L136,9 L136,9 L0,9 L0,3 C0,1.34314575 1.34314575,0 3,0 Z" id="Rectangle-Copy-10" fill="#D4D9DE"></path>
                        <circle id="Oval" fill="#FFFFFF" opacity="0.746814546" cx="5.5" cy="4.5" r="1.5"></circle>
                        <circle id="Oval" fill="#FFFFFF" opacity="0.746814546" cx="11.5" cy="4.5" r="1.5"></circle>
                        <circle id="Oval" fill="#FFFFFF" opacity="0.746814546" cx="17.5" cy="4.5" r="1.5"></circle>
                    </g>
                    <g id="issue" transform="translate(6.000000, 15.000000)" fill="#FFFFFF" fill-rule="nonzero">
                        <rect id="Rectangle" x="0" y="0" width="124" height="78" rx="2"></rect>
                    </g>
                    <g id="编组-6" transform="translate(13.000000, 22.000000)">
                        <rect id="Rectangle" fill="#CFD8E5" fill-rule="nonzero" opacity="0.499279204" x="0" y="0" width="60" height="7" rx="1"></rect>
                        <g id="编组-3" transform="translate(0.000000, 11.000000)" stroke-dasharray="2">
                            <g id="path-3-Clipped">
                                <mask id="mask-3" fill="white">
                                    <use xlink:href="#path-2"></use>
                                </mask>
                                <g id="path-3"></g>
                                <path d="M1,0 L24.5555556,0 C25.1078403,-2.06356265e-15 25.5555556,0.44771525 25.5555556,1 L25.5555556,30 C25.5555556,30.5522847 25.1078403,31 24.5555556,31 L1,31 C0.44771525,31 6.76353751e-17,30.5522847 0,30 L0,1 C-1.78657678e-16,0.44771525 0.44771525,1.01453063e-16 1,0 Z" id="path-3" fill="#F3F5F8" fill-rule="nonzero" mask="url(#mask-3)"></path>
                                <rect id="矩形" fill="#CFD8E5" fill-rule="nonzero" opacity="0.499279204" mask="url(#mask-3)" x="2" y="2" width="9" height="2"></rect>
                                <g id="Element-/-Table-/-Head-/-Left" mask="url(#mask-3)">
                                    <g transform="translate(6.000000, 9.000000)" id="Content-/-CI-/-Status-/-Running">
                                        <path d="M7,0 C10.8659932,0 14,3.13400676 14,7 C14,10.8659932 10.8659932,14 7,14 C3.13400676,14 0,10.8659932 0,7 C0,3.13400676 3.13400676,0 7,0 Z M7,2.33333333 C4.42267117,2.33333333 2.33333333,4.42267117 2.33333333,7 C2.33333333,9.57732883 4.42267117,11.6666667 7,11.6666667 C9.57732883,11.6666667 11.6666667,9.57732883 11.6666667,7 C11.6666667,4.42267117 9.57732883,2.33333333 7,2.33333333 Z" id="Oval" fill="#BED8FF" fill-rule="nonzero"></path>
                                        <g id="Oval-Clipped" transform="translate(7.000000, 0.000000)">
                                            <mask id="mask-5" fill="white">
                                                <use xlink:href="#path-4"></use>
                                            </mask>
                                            <g id="path-7"></g>
                                            <path d="M0,0 C3.86599324,0 7,3.13400676 7,7 C7,10.8659932 3.86599324,14 0,14 C-3.86599324,14 -7,10.8659932 -7,7 C-7,3.13400676 -3.86599324,0 0,0 Z M1.50990331e-13,2.33333333 C-2.57732883,2.33333333 -4.66666667,4.42267117 -4.66666667,7 C-4.66666667,9.57732883 -2.57732883,11.6666667 1.50990331e-13,11.6666667 C2.57732883,11.6666667 4.66666667,9.57732883 4.66666667,7 C4.66666667,4.42267117 2.57732883,2.33333333 1.50990331e-13,2.33333333 Z" id="Oval" fill="#2C81FF" fill-rule="nonzero" mask="url(#mask-5)"></path>
                                        </g>
                                    </g>
                                </g>
                                <path d="M29.9955556,0 L41.9955556,0 C42.5478403,-1.01453063e-16 42.9955556,0.44771525 42.9955556,1 L42.9955556,9 C42.9955556,9.55228475 42.5478403,10 41.9955556,10 L29.9955556,10 C29.4432708,10 28.9955556,9.55228475 28.9955556,9 L28.9955556,1 C28.9955556,0.44771525 29.4432708,1.01453063e-16 29.9955556,0 Z" id="path-3备份" fill="#F3F5F8" fill-rule="nonzero" mask="url(#mask-3)"></path>
                                <rect id="矩形" fill="#CFD8E5" fill-rule="nonzero" opacity="0.499279204" mask="url(#mask-3)" x="31" y="2" width="5" height="2"></rect>
                                <rect id="矩形备份" fill="#CFD8E5" fill-rule="nonzero" opacity="0.499279204" mask="url(#mask-3)" x="31" y="6" width="10" height="2"></rect>
                                <path d="M29.9955556,14.3928571 L58.9955556,14.3928571 C59.5478403,14.3928571 59.9955556,14.8405724 59.9955556,15.3928571 L59.9955556,30 C59.9955556,30.5522847 59.5478403,31 58.9955556,31 L29.9955556,31 C29.4432708,31 28.9955556,30.5522847 28.9955556,30 L28.9955556,15.3928571 C28.9955556,14.8405724 29.4432708,14.3928571 29.9955556,14.3928571 Z" id="path-3备份-3" fill="#F3F5F8" fill-rule="nonzero" mask="url(#mask-3)"></path>
                                <rect id="矩形" fill="#CFD8E5" fill-rule="nonzero" opacity="0.499279204" mask="url(#mask-3)" x="56" y="21" width="2" height="1"></rect>
                                <rect id="矩形备份-9" fill="#CFD8E5" fill-rule="nonzero" opacity="0.499279204" mask="url(#mask-3)" x="56" y="23" width="2" height="1"></rect>
                                <rect id="矩形备份-8" fill="#CFD8E5" fill-rule="nonzero" opacity="0.499279204" mask="url(#mask-3)" x="54" y="21" width="1" height="1" rx="0.5"></rect>
                                <rect id="矩形备份-10" fill="#CFD8E5" fill-rule="nonzero" opacity="0.499279204" mask="url(#mask-3)" x="54" y="23" width="1" height="1" rx="0.5"></rect>
                                <rect id="矩形" fill="#FF7800" fill-rule="nonzero" mask="url(#mask-3)" x="32" y="21" width="2" height="8"></rect>
                                <rect id="矩形备份-3" fill="#FFA14D" fill-rule="nonzero" opacity="0.699279" mask="url(#mask-3)" x="36" y="23" width="2" height="6"></rect>
                                <rect id="矩形备份-4" fill="#FF7800" fill-rule="nonzero" mask="url(#mask-3)" x="40" y="21" width="2" height="8"></rect>
                                <rect id="矩形备份-5" fill="#FFBC80" fill-rule="nonzero" opacity="0.499279204" mask="url(#mask-3)" x="44" y="24" width="2" height="5"></rect>
                                <rect id="矩形备份-7" fill="#FFD7B3" fill-rule="nonzero" opacity="0.299279" mask="url(#mask-3)" x="48" y="26" width="2" height="3"></rect>
                                <rect id="矩形" fill="#CFD8E5" fill-rule="nonzero" opacity="0.499279204" mask="url(#mask-3)" x="31" y="16" width="9" height="2"></rect>
                                <rect id="path-3备份-4" fill="#C1F79E" fill-rule="nonzero" mask="url(#mask-3)" x="-0.00444444444" y="34" width="60" height="20" rx="1"></rect>
                                <g id="Image" mask="url(#mask-3)">
                                    <g transform="translate(26.000000, 38.000000)">
                                        <path d="M8,2.5 C8,3.88071186 9.11928814,5 10.5,5 C11.8807119,5 13,3.88071186 13,2.5 C13,1.11928813 11.8807119,0 10.5,0 C9.11928814,0 8,1.11928813 8,2.5 L8,2.5 Z" id="Sun" fill="#FFFFFF" fill-rule="nonzero" opacity="0.800000012"></path>
                                        <g id="Mountain" opacity="0.699999988" stroke-width="1" fill="none" fill-rule="evenodd" transform="translate(0.000000, 5.000000)">
                                            <polygon id="路径" fill="#4DC600" fill-rule="nonzero" points="11.6 11 11.6 9.42857146 6.05217392 3.66666667 0 11"></polygon>
                                            <polygon id="路径" fill="#37A600" fill-rule="nonzero" points="10.15 8.06666667 9.425 11 10.875 9.24"></polygon>
                                            <polygon id="路径" fill="#6BD420" fill-rule="nonzero" points="9.425 11 29 11 19.1904844 0"></polygon>
                                        </g>
                                    </g>
                                </g>
                                <rect id="矩形" fill="#F2FDEB" fill-rule="nonzero" mask="url(#mask-3)" x="2" y="36" width="9" height="2"></rect>
                                <path d="M47.4355556,0 L59.4355556,0 C59.9878403,-1.01453063e-16 60.4355556,0.44771525 60.4355556,1 L60.4355556,9 C60.4355556,9.55228475 59.9878403,10 59.4355556,10 L47.4355556,10 C46.8832708,10 46.4355556,9.55228475 46.4355556,9 L46.4355556,1 C46.4355556,0.44771525 46.8832708,1.01453063e-16 47.4355556,0 Z" id="path-3备份-2" fill="#F3F5F8" fill-rule="nonzero" mask="url(#mask-3)"></path>
                                <rect id="矩形" fill="#CFD8E5" fill-rule="nonzero" opacity="0.499279204" mask="url(#mask-3)" x="48" y="2" width="5" height="2"></rect>
                                <rect id="矩形备份" fill="#CFD8E5" fill-rule="nonzero" opacity="0.499279204" mask="url(#mask-3)" x="48" y="6" width="10" height="2"></rect>
                            </g>
                        </g>
                    </g>
                    <g id="issue" transform="translate(80.000000, 14.000000)">
                        <g id="path-5-link" fill="#FFFFFF">
                            <rect id="path-5" x="0" y="0" width="50" height="78" rx="1.8"></rect>
                        </g>
                        <use id="path-3" stroke="#DFE5F0" mask="url(#mask-7)" stroke-width="2" fill-opacity="0.25" fill="#E5EAEE" fill-rule="nonzero" stroke-dasharray="2" xlink:href="#path-6"></use>
                        <text id="NULL" font-family="Arial-Black, Arial Black" font-size="10" font-weight="700" fill="#E3E9EF">
                            <tspan x="7" y="45">NULL</tspan>
                        </text>
                        <rect id="矩形" fill="#CFD8E5" fill-rule="nonzero" opacity="0.499279204" x="6" y="14" width="33" height="8" rx="1"></rect>
                        <g id="Icon/search" transform="translate(8.500000, 15.500000)" fill="#868D9C">
                            <path d="M3.51272155,3.09119496 L3.29071755,3.09119496 L3.21203259,3.01532018 C3.49694861,2.68484947 3.65354019,2.26294986 3.65323042,1.8266152 C3.65323041,0.81780348 2.83542693,0 1.82661521,0 C0.817803485,0 0,0.817803485 0,1.82661521 C0,2.83542693 0.81780348,3.65323041 1.8266152,3.65323042 C2.27905374,3.65323042 2.69495997,3.48742996 3.01532018,3.21203259 L3.09119496,3.29071755 L3.09119496,3.51272155 L4.49628359,4.915 L4.915,4.49628359 L3.51272155,3.09119496 Z M1.8266152,3.09119496 C1.12688107,3.09119496 0.562035441,2.52634934 0.562035441,1.8266152 C0.562035441,1.12688107 1.12688107,0.562035441 1.8266152,0.562035441 C2.52634934,0.562035441 3.09119496,1.12688107 3.09119496,1.8266152 C3.09119496,2.52634934 2.52634934,3.09119496 1.8266152,3.09119496 Z" id="icon"></path>
                        </g>
                    </g>
                </g>
            </g>
        </g>
    </g>
</svg>