<?xml version="1.0" encoding="UTF-8"?>
<svg width="16px" height="16px" viewBox="0 0 16 16" version="1.1" xmlns="http://www.w3.org/2000/svg" xmlns:xlink="http://www.w3.org/1999/xlink">
    <title>列表模式</title>
    <g id="页面-1" stroke="none" stroke-width="1" fill="none" fill-rule="evenodd">
        <g id="报表-设置-卡片查询为空" transform="translate(-1384.000000, -154.000000)">
            <g id="编组-23备份-5" transform="translate(1160.000000, 136.000000)">
                <g id="编组-19" transform="translate(0.000000, 15.000000)">
                    <g id="列表模式" transform="translate(224.000000, 3.000000)">
                        <path d="M2,2.2 L14,2.2 C14.2761424,2.2 14.5,2.42385763 14.5,2.7 L14.5,4.36666666 C14.5,4.64280903 14.2761424,4.86666666 14,4.86666666 L2,4.86666666 C1.72385763,4.86666666 1.5,4.64280903 1.5,4.36666666 L1.5,2.7 C1.5,2.42385763 1.72385763,2.2 2,2.2 Z M1.5,13.3 L1.5,11.6333333 C1.5,11.3571909 1.72385763,11.1333333 2,11.1333333 L14,11.1333333 C14.2761424,11.1333333 14.5,11.3571909 14.5,11.6333333 L14.5,13.3 C14.5,13.5761423 14.2761424,13.8 14,13.8 L2,13.8 C1.72385763,13.8 1.5,13.5761423 1.5,13.3 Z M1.5,8.83333331 L1.5,7.16666666 C1.5,6.89052428 1.72385763,6.66666666 2,6.66666666 L14,6.66666666 C14.2761424,6.66666666 14.5,6.89052428 14.5,7.16666666 L14.5,8.83333331 C14.5,9.10947569 14.2761424,9.33333331 14,9.33333331 L2,9.33333331 C1.72385763,9.33333331 1.5,9.10947569 1.5,8.83333331 Z" id="icon" fill="#868D9C"></path>
                        <rect id="view_list" x="0" y="0" width="16" height="16"></rect>
                    </g>
                </g>
            </g>
        </g>
    </g>
</svg>