<?xml version="1.0" encoding="UTF-8"?>
<svg width="160px" height="104px" viewBox="0 0 160 104" version="1.1" xmlns="http://www.w3.org/2000/svg" xmlns:xlink="http://www.w3.org/1999/xlink">
    <title>CA认证</title>
    <defs>
        <path d="M16.171875,20.390625 C14.5605469,21.8652344 12.5,22.6025391 9.99023438,22.6025391 C6.88476562,22.6025391 4.44335938,21.6064453 2.66601562,19.6142578 C0.888671875,17.6123047 0,14.8681641 0,11.3818359 C0,7.61230469 1.01074219,4.70703125 3.03222656,2.66601562 C4.79003906,0.888671875 7.02636719,0 9.74121094,0 C13.3740234,0 16.0302734,1.19140625 17.7099609,3.57421875 C18.6376953,4.91210938 19.1357422,6.25488281 19.2041016,7.60253906 L14.6923828,7.60253906 C14.3994141,6.56738281 14.0234375,5.78613281 13.5644531,5.25878906 C12.7441406,4.32128906 11.5283203,3.85253906 9.91699219,3.85253906 C8.27636719,3.85253906 6.98242188,4.51416016 6.03515625,5.83740234 C5.08789062,7.16064453 4.61425781,9.03320312 4.61425781,11.4550781 C4.61425781,13.8769531 5.11474609,15.690918 6.11572266,16.8969727 C7.11669922,18.1030273 8.38867188,18.7060547 9.93164062,18.7060547 C11.5136719,18.7060547 12.7197266,18.1884766 13.5498047,17.1533203 C14.0087891,16.5966797 14.3896484,15.7617188 14.6923828,14.6484375 L19.1601562,14.6484375 C18.7695312,17.0019531 17.7734375,18.9160156 16.171875,20.390625 Z" id="path-1"></path>
        <path d="M35.2441406,17.5634766 L27.2900391,17.5634766 L25.7958984,22.0019531 L21.0791016,22.0019531 L28.7841797,0.41015625 L33.8818359,0.41015625 L41.5283203,22.0019531 L36.6357422,22.0019531 L35.2441406,17.5634766 Z M33.984375,13.8427734 L31.2890625,5.34667969 L28.5058594,13.8427734 L33.984375,13.8427734 Z" id="path-2"></path>
    </defs>
    <g id="版本1" stroke="none" stroke-width="1" fill="none" fill-rule="evenodd">
        <g id="采购方电签管理工作台-CA认证" transform="translate(-665, -350)">
            <g id="编组-3" transform="translate(384, 300)">
                <g id="编组-4" transform="translate(208, 50)">
                    <g id="title" transform="translate(73, 0)">
                        <g id="path-1-link" fill="#F0F2F7">
                            <rect id="path-1" x="0" y="0" width="160" height="104" rx="2.88000011"></rect>
                        </g>
                        <rect id="矩形" fill="#FFFFFF" x="7.38461538" y="7.34117647" width="145.230769" height="89.3176471" rx="3"></rect>
                        <g id="编组-29" transform="translate(18.4615, 17.1294)" fill-rule="nonzero">
                            <rect id="矩形" fill="#DAE1EB" x="0" y="0" width="26.1301775" height="4.51764706" rx="1"></rect>
                            <rect id="矩形" fill="#E7EBF2" x="27.0769231" y="65.4875" width="68.9230769" height="2.44705882" rx="1"></rect>
                            <rect id="矩形" fill="#CFD8E5" x="14.7692308" y="57.5058824" width="93.5384615" height="3.67058824" rx="1"></rect>
                            <g id="CA" transform="translate(42.6553, 19.3824)" fill="#00B8CC">
                                <g id="路径">
                                    <use xlink:href="#path-1"></use>
                                    <use xlink:href="#path-1"></use>
                                </g>
                                <g id="形状">
                                    <use xlink:href="#path-2"></use>
                                    <use xlink:href="#path-2"></use>
                                </g>
                            </g>
                        </g>
                    </g>
                </g>
            </g>
        </g>
    </g>
</svg>