<?xml version="1.0" encoding="UTF-8"?>
<svg width="165.187402px" height="110.090307px" viewBox="0 0 165.187402 110.090307" version="1.1" xmlns="http://www.w3.org/2000/svg" xmlns:xlink="http://www.w3.org/1999/xlink">
    <title>暂未开通电签产品</title>
    <g id="版本1" stroke="none" stroke-width="1" fill="none" fill-rule="evenodd">
        <g id="采购方电签管理工作台-未开通服务" transform="translate(-672, -379.9535)">
            <g id="编组-6" transform="translate(639, 375)">
                <g id="编组-4" transform="translate(10, 0)">
                    <rect id="矩形" x="0" y="0" width="190" height="116"></rect>
                    <g id="title" transform="translate(23, 4.9535)">
                        <g id="path-1-link" fill="#F0F2F7">
                            <rect id="path-1" x="0" y="0" width="144" height="107" rx="2.88000011"></rect>
                        </g>
                        <rect id="矩形" fill="#FFFFFF" x="7.56923077" y="8.39130435" width="128.861538" height="90.043478" rx="3"></rect>
                        <path d="M89,59 L89,61.8333333 C89,62.0838193 88.9005148,62.3240501 88.7233986,62.5011746 C88.5462824,62.6782991 88.3060563,62.7778073 88.0555703,62.7778073 L55.9444297,62.7778073 C55.6939437,62.7778073 55.4537176,62.6782991 55.2766014,62.5011746 C55.0994852,62.3240501 55,62.0838193 55,61.8333333 L55,59 L89,59 Z M72,25 C77.477763,25 81.9166667,29.552237 81.9166667,35.1716667 C81.9240341,37.6213809 81.0566101,39.9932523 79.4705703,41.860237 L79.4856667,41.860237 L79.391237,41.9509036 C79.1321675,42.2482475 78.8559174,42.530174 78.5639036,42.795237 C77.4664297,44.0210964 76.8525703,45.243237 76.7184297,46.463474 C76.624,47.321 76.5540964,48.0369036 76.5069036,48.613 L81.4444297,48.6111406 C85.4704131,48.6111288 88.7892558,51.7679566 88.9905703,55.7889036 L89,56.1666667 L55,56.1666667 C55,51.9938577 58.3827613,48.6111406 62.5555703,48.6111406 L67.5516667,48.6111406 C67.4797445,47.8935976 67.3934729,47.1775654 67.2929036,46.463474 C67.1266667,45.2413333 66.505237,44.015474 65.4323333,42.7876667 C63.2892764,40.8367836 62.072495,38.0696867 62.0833333,35.1716667 C62.0833333,29.552237 66.522237,25 72,25 L72,25 Z" id="形状" fill="#FC8800"></path>
                        <rect id="矩形" fill="#E7EBF2" fill-rule="nonzero" x="19.0615385" y="84.9643342" width="50.646154" height="3" rx="1"></rect>
                        <rect id="矩形" fill="#CFD8E5" fill-rule="nonzero" x="19.0615385" y="75.9643342" width="84" height="5" rx="1"></rect>
                    </g>
                    <g id="编组-3" transform="translate(136.1874, 63.6128)">
                        <path d="M25.9999081,0 C11.6405997,0 0,11.5132019 0,25.7154445 C0,39.917687 11.6405997,51.4309808 25.9999081,51.4309808 C40.3592166,51.4309808 52,39.9177789 52,25.7154445 C52,11.5132937 40.3594921,0 26,0 L25.9999081,0 Z" id="路径" fill="#FFFFFF"></path>
                        <path d="M25.9999193,3.16864678 C13.3905946,3.16864678 3.16864678,13.2787229 3.16864678,25.7501235 C3.16864678,38.2215242 13.3905946,48.3316809 25.9999193,48.3316809 C38.6092441,48.3316809 48.8313532,38.2216048 48.8313532,25.7501235 C48.8313532,13.2788035 38.609486,3.16864678 26,3.16864678 L25.9999193,3.16864678 Z M33.3903103,37.9730996 L25.8634471,32.4564595 L18.1997084,37.7658102 L20.9400419,28.6489487 L13.6955601,22.7418464 L22.9157436,22.6232801 L26.1029188,13.6637004 L29.0606238,22.7071637 L38.2742741,23.077139 L30.882512,28.7845337 L33.3903103,37.9730996 L33.3903103,37.9730996 Z" id="形状" fill="#D8E0EB" fill-rule="nonzero"></path>
                    </g>
                </g>
            </g>
        </g>
    </g>
</svg>