<?xml version="1.0" encoding="UTF-8"?>
<svg width="160px" height="112px" viewBox="0 0 160 112" version="1.1" xmlns="http://www.w3.org/2000/svg" xmlns:xlink="http://www.w3.org/1999/xlink">
    <title>暂无权限管理印章</title>
    <g id="版本1" stroke="none" stroke-width="1" fill="none" fill-rule="evenodd">
        <g id="采购方电签管理工作台-主界面-印章管理（跳出）（无权限）" transform="translate(-640, -322)">
            <g id="编组-2" transform="translate(560, 322)">
                <g id="暂无权限管理印章" transform="translate(80, 0)">
                    <g id="编组-28" fill-rule="nonzero">
                        <g id="Title">
                            <path d="M4.43719702,0 L156.167236,0 C158.806328,0 160,1.85346848 160,3.83341398 L160,9.13043478 L0,9.13043478 L0,4.23775128 C0,1.19649664 1.6151067,0 4.43719702,0 Z" id="Rectangle-Copy-10" fill="#D8E0EB"></path>
                            <ellipse id="Oval" fill="#FFFFFF" opacity="0.746814546" cx="7.53846154" cy="4.56521739" rx="2.30769231" ry="2.2826087"></ellipse>
                            <ellipse id="Oval备份" fill="#FFFFFF" opacity="0.746814546" cx="16.7692308" cy="4.56521739" rx="2.30769231" ry="2.2826087"></ellipse>
                            <ellipse id="Oval备份-2" fill="#FFFFFF" opacity="0.746814546" cx="26" cy="4.56521739" rx="2.30769231" ry="2.2826087"></ellipse>
                        </g>
                    </g>
                    <g id="title">
                        <g id="path-1-link" fill="#F0F2F7">
                            <rect id="path-1" x="0" y="0" width="160" height="112" rx="2.88"></rect>
                        </g>
                        <g id="Title" fill-rule="nonzero">
                            <path d="M4.43719702,0 L156.167236,0 C158.806328,0 160,1.85346848 160,3.83341398 L160,9.13043478 L0,9.13043478 L0,4.23775128 C0,1.19649664 1.6151067,0 4.43719702,0 Z" id="Rectangle-Copy-10" fill="#D8E0EB"></path>
                            <ellipse id="Oval" fill="#FFFFFF" opacity="0.746814546" cx="7.53846154" cy="4.56521739" rx="2.30769231" ry="2.2826087"></ellipse>
                            <ellipse id="Oval备份" fill="#FFFFFF" opacity="0.746814546" cx="16.7692308" cy="4.56521739" rx="2.30769231" ry="2.2826087"></ellipse>
                            <ellipse id="Oval备份-2" fill="#FFFFFF" opacity="0.746814546" cx="26" cy="4.56521739" rx="2.30769231" ry="2.2826087"></ellipse>
                        </g>
                        <rect id="矩形" fill="#FFFFFF" x="7.38461538" y="15.826087" width="145.230769" height="88.8695652" rx="3"></rect>
                        <g id="编组-29" transform="translate(4.9231, 14.6087)">
                            <rect id="矩形" fill="#DAE1EB" fill-rule="nonzero" x="13.5384615" y="10.9565217" width="26.1301775" height="4.49498328" rx="1"></rect>
                            <g id="issue" transform="translate(28.3077, 20.1155)">
                                <g id="编组-2" transform="translate(32.0385, 0)">
                                    <path d="M14.4615385,20.1154891 C15.9590798,20.1154891 17.1730769,21.3162907 17.1730769,22.7975543 C17.1730769,23.7900309 16.6280809,24.6566003 15.8179598,25.1204337 L15.8173077,28.1616848 L13.1057692,28.1616848 L13.1060295,25.1209559 C12.2954053,24.6572508 11.75,23.7904034 11.75,22.7975543 C11.75,21.3162907 12.9639972,20.1154891 14.4615385,20.1154891 Z" id="形状结合" fill="#FFFFFF" fill-rule="nonzero"></path>
                                    <g id="路径" transform="translate(3.6154, 0)" fill="#3BB346" fill-rule="nonzero">
                                        <g id="path-5-link">
                                            <path d="M10.8461538,0 C16.7441628,0 21.5426243,4.6565519 21.6888732,10.4556068 L21.6923077,10.7282609 L21.6923077,15.0805212 L18.9807692,15.0805212 L18.9807692,10.7282609 C18.9807692,6.28446972 15.3387778,2.68206522 10.8461538,2.68206522 C6.43375525,2.68206522 2.84188083,6.15696114 2.71500662,10.4910212 L2.71153846,10.7282609 L2.71153846,15.0805212 L0,15.0805212 L0,10.7282609 C0,4.803206 4.85598848,0 10.8461538,0 Z" id="path-5"></path>
                                        </g>
                                    </g>
                                    <g id="path-8-link" transform="translate(0, 14.7514)" fill="#3BB346">
                                        <path d="M27.1153846,0 C28.1137455,0 28.9230769,0.800534333 28.9230769,1.78804348 L28.9230769,17.8804348 C28.9230769,18.8679439 28.1137455,19.6684783 27.1153846,19.6684783 L1.80769231,19.6684783 C0.809331413,19.6684783 0,18.8679439 0,17.8804348 L0,1.78804348 C0,0.800534333 0.809331413,0 1.80769231,0 L27.1153846,0 Z M14.4615385,5.36413043 C12.9639972,5.36413043 11.75,6.56493198 11.75,8.04619565 C11.75,9.0390447 12.2954053,9.90589211 13.1060295,10.3695972 L13.1060295,10.3695972 L13.1057692,13.4103261 L15.8173077,13.4103261 L15.8179598,10.369075 C16.6280809,9.90524162 17.1730769,9.03867216 17.1730769,8.04619565 C17.1730769,6.56493198 15.9590798,5.36413043 14.4615385,5.36413043 Z" id="path-8"></path>
                                    </g>
                                </g>
                                <rect id="矩形" fill="#E7EBF2" fill-rule="nonzero" x="12.3076923" y="56" width="68.9230769" height="2.43478261" rx="1"></rect>
                                <rect id="矩形" fill="#CFD8E5" fill-rule="nonzero" x="0" y="48.0584239" width="93.5384615" height="3.65217391" rx="1"></rect>
                            </g>
                        </g>
                    </g>
                </g>
            </g>
        </g>
    </g>
</svg>