<?xml version="1.0" encoding="UTF-8"?>
<svg width="160px" height="104px" viewBox="0 0 160 104" version="1.1" xmlns="http://www.w3.org/2000/svg" xmlns:xlink="http://www.w3.org/1999/xlink">
    <title>个人认证</title>
    <g id="版本1" stroke="none" stroke-width="1" fill="none" fill-rule="evenodd">
        <g id="采购方电签管理工作台-实名认证" transform="translate(-665, -350)">
            <g id="编组-8" transform="translate(56, 200)">
                <g id="编组-3" transform="translate(328, 100)">
                    <g id="编组-4" transform="translate(260, 50)">
                        <g id="title" transform="translate(21, 0)">
                            <g id="path-1-link" fill="#F0F2F7">
                                <rect id="path-1" x="0" y="0" width="160" height="104" rx="2.88000011"></rect>
                            </g>
                            <rect id="矩形" fill="#FFFFFF" x="7.38461538" y="7.34117647" width="145.230769" height="89.3176471" rx="3"></rect>
                            <g id="编组-29" transform="translate(18.4615, 17.1294)" fill-rule="nonzero">
                                <rect id="矩形" fill="#DAE1EB" x="0" y="0" width="26.1301775" height="4.51764706" rx="1"></rect>
                                <g id="account-pin-box-fill" transform="translate(45.5385, 14.6824)" fill="#00B8CC">
                                    <path d="M17.2991453,28.1411765 L14.1538462,31.2679739 L11.008547,28.1411765 L3.13757744,28.1411765 C1.40473778,28.1411765 0,26.7456868 0,25.0220397 L0,3.1191211 C0,1.39647461 1.40377846,0 3.13757744,0 L25.1700991,0 C26.9030017,0 28.3076923,1.39552094 28.3076923,3.1191211 L28.3076923,25.0220397 C28.3076923,26.7447488 26.9039453,28.1411765 25.1700991,28.1411765 L17.2991453,28.1411765 Z M5.27918017,23.4509804 L23.3499145,23.4509804 C21.3605128,20.6157569 18.0554325,18.7607843 14.3145709,18.7607843 C10.573615,18.7607843 7.26850325,20.6157569 5.27918017,23.4509804 Z M14.1538462,15.6339869 C17.1937778,15.6339869 19.6581197,13.1841412 19.6581197,10.1620915 C19.6581197,7.14004183 17.1937778,4.69019608 14.1538462,4.69019608 C11.1139145,4.69019608 8.64957265,7.14004183 8.64957265,10.1620915 C8.64957265,13.1841412 11.1139145,15.6339869 14.1538462,15.6339869 Z" id="形状"></path>
                                </g>
                                <rect id="矩形" fill="#E7EBF2" x="27.0769231" y="65.4875" width="68.9230769" height="2.44705882" rx="1"></rect>
                                <rect id="矩形" fill="#CFD8E5" x="14.7692308" y="57.5058824" width="93.5384615" height="3.67058824" rx="1"></rect>
                            </g>
                        </g>
                    </g>
                </g>
            </g>
        </g>
    </g>
</svg>