<?xml version="1.0" encoding="UTF-8"?>
<svg width="14px" height="14px" viewBox="0 0 14 14" version="1.1" xmlns="http://www.w3.org/2000/svg" xmlns:xlink="http://www.w3.org/1999/xlink">
    <!-- Generator: Sketch 58 (84663) - https://sketch.com -->
    <title>synchronize</title>
    <desc>Created with Sketch.</desc>
    <g id="模型" stroke="none" stroke-width="1" fill="none" fill-rule="evenodd">
        <g id="基础数据结构-基础表" transform="translate(-265.000000, -445.000000)">
            <g id="模块操作" transform="translate(253.000000, 430.000000)">
                <g id="synchronize" transform="translate(12.000000, 15.000000)">
                    <rect id="矩形" fill="#D8D8D8" opacity="0.01" x="0" y="0" width="14" height="14"></rect>
                    <g id="编组-4" transform="translate(0.000000, 0.707107)" fill="#5A6677">
                        <path d="M0.482842712,4.29289322 C0.372385763,4.29289322 0.282842712,4.20335017 0.282842712,4.09289322 C0.282842712,4.03984992 0.303914081,3.98897914 0.341421356,3.95147186 L4.14644661,0.146446609 C4.34170876,-0.0488155365 4.65829124,-0.0488155365 4.85355339,0.146446609 C4.94732158,0.240214799 5,0.367391755 5,0.5 L5,2.29289322 L5,2.29289322 L12,2.29289322 C12.5522847,2.29289322 13,2.74060847 13,3.29289322 C13,3.84517797 12.5522847,4.29289322 12,4.29289322 L5,4.29289322 L0.482842712,4.29289322 Z" id="矩形-3"></path>
                        <path d="M1.2,12.5857864 C1.08954305,12.5857864 1,12.4962434 1,12.3857864 C1,12.3327431 1.02107137,12.2818724 1.05857864,12.2443651 L4.8636039,8.43933983 C5.05886604,8.24407768 5.37544853,8.24407768 5.57071068,8.43933983 C5.66447887,8.53310802 5.71715729,8.66028497 5.71715729,8.79289322 L5.71715729,10.5857864 L5.71715729,10.5857864 L12.7171573,10.5857864 C13.269442,10.5857864 13.7171573,11.0335017 13.7171573,11.5857864 C13.7171573,12.1380712 13.269442,12.5857864 12.7171573,12.5857864 L5.71715729,12.5857864 L1.2,12.5857864 Z" id="矩形-3" transform="translate(7.358579, 10.439340) scale(-1, -1) translate(-7.358579, -10.439340) "></path>
                    </g>
                </g>
            </g>
        </g>
    </g>
</svg>