<?xml version="1.0" encoding="UTF-8"?>
<svg width="12px" height="12px" viewBox="0 0 12 12" version="1.1" xmlns="http://www.w3.org/2000/svg" xmlns:xlink="http://www.w3.org/1999/xlink">
    <title>收起</title>
    <g id="页面-1" stroke="none" stroke-width="1" fill="none" fill-rule="evenodd">
        <rect id="矩形" fill="#D8D8D8" opacity="0" x="0" y="0" width="12" height="12"></rect>
        <path d="M10.8942502,5.5 C10.9826369,5.5 11.0314475,5.57983193 10.9773601,5.6355042 L10.9773601,5.6355042 L6.33243964,10.3707983 C6.16358141,10.5430672 5.83641859,10.5430672 5.66756036,10.3707983 L5.66756036,10.3707983 L1.02263987,5.6355042 C0.96855247,5.58088235 1.01736305,5.5 1.10574978,5.5 L1.10574978,5.5 L2.12549518,5.5 C2.19013622,5.5 2.25213885,5.52310924 2.291715,5.56407563 L2.291715,5.56407563 L6,9.34558824 L9.708285,5.56407563 C9.74786115,5.52415966 9.80986378,5.5 9.87450482,5.5 L9.87450482,5.5 Z M2.12549518,1.5 C2.19013622,1.5 2.25213885,1.52310924 2.291715,1.56407563 L2.291715,1.56407563 L6,5.34558824 L9.708285,1.56407563 C9.74786115,1.52415966 9.80986378,1.5 9.87450482,1.5 L9.87450482,1.5 L10.8942502,1.5 C10.9826369,1.5 11.0314475,1.57983193 10.9773601,1.6355042 L10.9773601,1.6355042 L6.33243964,6.37079832 C6.16358141,6.54306723 5.83641859,6.54306723 5.66756036,6.37079832 L5.66756036,6.37079832 L1.02263987,1.6355042 C0.96855247,1.58088235 1.01736305,1.5 1.10574978,1.5 L1.10574978,1.5 Z" id="形状结合" fill="#29BECE" fill-rule="nonzero"></path>
    </g>
</svg>