<?xml version="1.0" encoding="UTF-8"?>
<svg width="254px" height="139px" viewBox="0 0 254 139" version="1.1" xmlns="http://www.w3.org/2000/svg" xmlns:xlink="http://www.w3.org/1999/xlink">
    <title>编组 3</title>
    <defs>
        <path d="M106.666667,5.16666667 L173.333333,5.16666667 C174.806093,5.16666667 176,6.360574 176,7.83333333 L176,55.8333333 C176,57.3060927 174.806093,58.5 173.333333,58.5 L106.666667,58.5 C105.193907,58.5 104,57.3060927 104,55.8333333 L104,7.83333333 C104,6.360574 105.193907,5.16666667 106.666667,5.16666667 Z" id="path-nct-zvyzu0-1"></path>
        <filter x="-77.8%" y="-75.0%" width="255.6%" height="310.0%" filterUnits="objectBoundingBox" id="filter-2">
            <feOffset dx="0" dy="16" in="SourceAlpha" result="shadowOffsetOuter1"></feOffset>
            <feGaussianBlur stdDeviation="16" in="shadowOffsetOuter1" result="shadowBlurOuter1"></feGaussianBlur>
            <feColorMatrix values="0 0 0 0 0.11372549   0 0 0 0 0.129411765   0 0 0 0 0.160784314  0 0 0 0.06 0" type="matrix" in="shadowBlurOuter1" result="shadowMatrixOuter1"></feColorMatrix>
            <feOffset dx="0" dy="8" in="SourceAlpha" result="shadowOffsetOuter2"></feOffset>
            <feGaussianBlur stdDeviation="8" in="shadowOffsetOuter2" result="shadowBlurOuter2"></feGaussianBlur>
            <feColorMatrix values="0 0 0 0 0.11372549   0 0 0 0 0.129411765   0 0 0 0 0.160784314  0 0 0 0.06 0" type="matrix" in="shadowBlurOuter2" result="shadowMatrixOuter2"></feColorMatrix>
            <feOffset dx="0" dy="4" in="SourceAlpha" result="shadowOffsetOuter3"></feOffset>
            <feGaussianBlur stdDeviation="4" in="shadowOffsetOuter3" result="shadowBlurOuter3"></feGaussianBlur>
            <feColorMatrix values="0 0 0 0 0.11372549   0 0 0 0 0.129411765   0 0 0 0 0.160784314  0 0 0 0.06 0" type="matrix" in="shadowBlurOuter3" result="shadowMatrixOuter3"></feColorMatrix>
            <feMerge>
                <feMergeNode in="shadowMatrixOuter1"></feMergeNode>
                <feMergeNode in="shadowMatrixOuter2"></feMergeNode>
                <feMergeNode in="shadowMatrixOuter3"></feMergeNode>
            </feMerge>
        </filter>
        <polygon id="path-nct-zvyzu0-3" points="133.333333 13.1666667 138.666667 13.1666667 138.666667 39.5 133.333333 39.5"></polygon>
        <rect id="path-nct-zvyzu0-4" x="0" y="0" width="2.66666667" height="2.66666667" rx="1.33333333"></rect>
        <path d="M1.31012255,7.87878788 L0.377605969,9.45941563 C0.319609124,9.55772182 0.320089498,9.68041722 0.378333705,9.77808517 L0.38230222,9.78455875 C0.423544949,9.8500272 0.510500628,9.88350928 0.643169256,9.88500501 L0.652630166,9.88505747 L1.10588698,9.88505747 C1.2415708,9.88505747 1.37678141,9.86878725 1.50871863,9.83658377 L9.52978056,7.87878788 L1.31012255,7.87878788 Z" id="path-nct-zvyzu0-5"></path>
        <path d="M3.28629626,4.86938349 L18.7251829,4.86938349 L0.50930083,0.0133310003 C0.316747192,-0.0380007108 0.116854048,0.0628008567 0.0401125527,0.248750758 L0.0373601193,0.255591672 C-0.0322003425,0.433003717 -0.00332090267,0.634679489 0.113106331,0.784555612 L3.28629626,4.86938349 Z" id="path-nct-zvyzu0-6"></path>
        <polygon id="path-nct-zvyzu0-7" points="18.7251829 4.86938349 3.28739575 4.86938349 1.31661442 7.87878788 5.58664064 7.87878788"></polygon>
        <path d="M18.7251829,4.86938349 L9.8543556,13.2288401 C9.71044774,13.2985023 9.60101905,13.3333333 9.52606953,13.3333333 C9.45112001,13.3333333 9.34405912,13.2985023 9.20488686,13.2288401 L4.77302492,7.21003135 C4.75253359,6.96666208 4.77075582,6.80631585 4.82769162,6.72899268 C4.88462741,6.6516695 5.03054821,6.58909688 5.26545403,6.54127482 L18.7251829,4.86938349 Z" id="path-nct-zvyzu0-8"></path>
    </defs>
    <g id="工作台-改" stroke="none" stroke-width="1" fill="none" fill-rule="evenodd">
        <g id="01.1" transform="translate(-473.000000, -383.000000)">
            <g id="编组-6" transform="translate(242.000000, 96.000000)">
                <g id="编组-8" transform="translate(231.000000, 298.000000)">
                    <g id="编组-2" transform="translate(45.333333, 0.000000)">
                        <g id="背景/7" transform="translate(0.000000, 21.166667)">
                            <g id="编组备份">
                                <g id="背景/1">
                                    <path d="M2.66666667,0 L146.666667,0 C148.139426,0 149.333333,1.19390733 149.333333,2.66666667 L149.333333,104 C149.333333,105.472759 148.139426,106.666667 146.666667,106.666667 L2.66666667,106.666667 C1.19390733,106.666667 0,105.472759 0,104 L0,2.66666667 C0,1.19390733 1.19390733,0 2.66666667,0 Z" id="矩形" fill="#F1F4F8"></path>
                                    <path d="M2.66666667,0 L146.666667,0 C148.139426,0 149.333333,1.19390733 149.333333,2.66666667 L149.333333,10.6666667 L0,10.6666667 L0,2.66666667 C0,1.19390733 1.19390733,0 2.66666667,0 Z" id="矩形" fill="#DBDEE3"></path>
                                    <circle id="椭圆形" fill="#FFFFFF" cx="8" cy="5.33333333" r="2.66666667"></circle>
                                    <circle id="椭圆形备份" fill="#FFFFFF" cx="18.6666667" cy="5.33333333" r="2.66666667"></circle>
                                    <circle id="椭圆形备份-2" fill="#FFFFFF" cx="29.3333333" cy="5.33333333" r="2.66666667"></circle>
                                </g>
                                <path d="M8,16 L141.333333,16 C142.806093,16 144,17.1939073 144,18.6666667 L144,98.6666667 C144,100.139426 142.806093,101.333333 141.333333,101.333333 L8,101.333333 C6.52724067,101.333333 5.33333333,100.139426 5.33333333,98.6666667 L5.33333333,18.6666667 C5.33333333,17.1939073 6.52724067,16 8,16 Z" id="矩形" fill="#FFFFFF"></path>
                                <path d="M8,16 L42.6666667,16 L42.6666667,101.333333 L8,101.333333 C6.52724067,101.333333 5.33333333,100.139426 5.33333333,98.6666667 L5.33333333,18.6666667 C5.33333333,17.1939073 6.52724067,16 8,16 Z" id="矩形" fill="#E2E5E9"></path>
                                <path d="M12,21.3333333 L14.6666667,21.3333333 C15.4030463,21.3333333 16,21.930287 16,22.6666667 L16,25.3333333 C16,26.069713 15.4030463,26.6666667 14.6666667,26.6666667 L12,26.6666667 C11.2636203,26.6666667 10.6666667,26.069713 10.6666667,25.3333333 L10.6666667,22.6666667 C10.6666667,21.930287 11.2636203,21.3333333 12,21.3333333 Z" id="矩形" fill="#FFFFFF"></path>
                                <path d="M22.6666667,21.3333333 L36,21.3333333 C36.7363797,21.3333333 37.3333333,21.930287 37.3333333,22.6666667 L37.3333333,25.3333333 C37.3333333,26.069713 36.7363797,26.6666667 36,26.6666667 L22.6666667,26.6666667 C21.930287,26.6666667 21.3333333,26.069713 21.3333333,25.3333333 L21.3333333,22.6666667 C21.3333333,21.930287 21.930287,21.3333333 22.6666667,21.3333333 Z" id="矩形备份" fill="#FFFFFF"></path>
                                <path d="M12,32 L30.6666667,32 C31.4030463,32 32,32.5969537 32,33.3333333 L32,36 C32,36.7363797 31.4030463,37.3333333 30.6666667,37.3333333 L12,37.3333333 C11.2636203,37.3333333 10.6666667,36.7363797 10.6666667,36 L10.6666667,33.3333333 C10.6666667,32.5969537 11.2636203,32 12,32 Z" id="矩形备份-2" fill="#FFFFFF"></path>
                                <path d="M12,42.6666667 L36,42.6666667 C36.7363797,42.6666667 37.3333333,43.2636203 37.3333333,44 L37.3333333,46.6666667 C37.3333333,47.4030463 36.7363797,48 36,48 L12,48 C11.2636203,48 10.6666667,47.4030463 10.6666667,46.6666667 L10.6666667,44 C10.6666667,43.2636203 11.2636203,42.6666667 12,42.6666667 Z" id="矩形备份-3" fill="#FFFFFF"></path>
                                <path d="M12,53.3333333 L25.3333333,53.3333333 C26.069713,53.3333333 26.6666667,53.930287 26.6666667,54.6666667 L26.6666667,57.3333333 C26.6666667,58.069713 26.069713,58.6666667 25.3333333,58.6666667 L12,58.6666667 C11.2636203,58.6666667 10.6666667,58.069713 10.6666667,57.3333333 L10.6666667,54.6666667 C10.6666667,53.930287 11.2636203,53.3333333 12,53.3333333 Z" id="矩形备份-4" fill="#FFFFFF"></path>
                                <path d="M12,64 L36,64 C36.7363797,64 37.3333333,64.5969537 37.3333333,65.3333333 L37.3333333,68 C37.3333333,68.7363797 36.7363797,69.3333333 36,69.3333333 L12,69.3333333 C11.2636203,69.3333333 10.6666667,68.7363797 10.6666667,68 L10.6666667,65.3333333 C10.6666667,64.5969537 11.2636203,64 12,64 Z" id="矩形备份-5" fill="#FFFFFF"></path>
                            </g>
                            <path d="M49.3333333,21.3333333 L65.3333333,21.3333333 C66.069713,21.3333333 66.6666667,21.930287 66.6666667,22.6666667 L66.6666667,28 C66.6666667,28.7363797 66.069713,29.3333333 65.3333333,29.3333333 L49.3333333,29.3333333 C48.5969537,29.3333333 48,28.7363797 48,28 L48,22.6666667 C48,21.930287 48.5969537,21.3333333 49.3333333,21.3333333 Z" id="矩形" fill="#E9ECF0"></path>
                            <path d="M73.3333333,21.3333333 L89.3333333,21.3333333 C90.069713,21.3333333 90.6666667,21.930287 90.6666667,22.6666667 L90.6666667,28 C90.6666667,28.7363797 90.069713,29.3333333 89.3333333,29.3333333 L73.3333333,29.3333333 C72.5969537,29.3333333 72,28.7363797 72,28 L72,22.6666667 C72,21.930287 72.5969537,21.3333333 73.3333333,21.3333333 Z" id="矩形备份-6" fill="#F1F4F8"></path>
                            <path d="M54.6666667,24 L60,24 C60.7363797,24 61.3333333,24.5969537 61.3333333,25.3333333 C61.3333333,26.069713 60.7363797,26.6666667 60,26.6666667 L54.6666667,26.6666667 C53.930287,26.6666667 53.3333333,26.069713 53.3333333,25.3333333 C53.3333333,24.5969537 53.930287,24 54.6666667,24 Z" id="矩形" fill="#FFFFFF"></path>
                            <path d="M78.6666667,24 L84,24 C84.7363797,24 85.3333333,24.5969537 85.3333333,25.3333333 C85.3333333,26.069713 84.7363797,26.6666667 84,26.6666667 L78.6666667,26.6666667 C77.930287,26.6666667 77.3333333,26.069713 77.3333333,25.3333333 C77.3333333,24.5969537 77.930287,24 78.6666667,24 Z" id="矩形备份-7" fill="#FFFFFF"></path>
                            <path d="M138.666667,34.3333333 C138.850762,34.3333333 139,34.557191 139,34.8333333 C139,35.1094757 138.850762,35.3333333 138.666667,35.3333333 L48,35.3333333 C47.8159051,35.3333333 47.6666667,35.1094757 47.6666667,34.8333333 C47.6666667,34.557191 47.8159051,34.3333333 48,34.3333333 L138.666667,34.3333333 Z" id="路径-2" fill="#F1F4F8" fill-rule="nonzero"></path>
                            <path d="M49.3333333,40 L89.3333333,40 C90.069713,40 90.6666667,40.5969537 90.6666667,41.3333333 L90.6666667,44 C90.6666667,44.7363797 90.069713,45.3333333 89.3333333,45.3333333 L49.3333333,45.3333333 C48.5969537,45.3333333 48,44.7363797 48,44 L48,41.3333333 C48,40.5969537 48.5969537,40 49.3333333,40 Z" id="矩形" fill="#F1F4F8"></path>
                            <path d="M49.3333333,50.6666667 L89.3333333,50.6666667 C90.069713,50.6666667 90.6666667,51.2636203 90.6666667,52 L90.6666667,54.6666667 C90.6666667,55.4030463 90.069713,56 89.3333333,56 L49.3333333,56 C48.5969537,56 48,55.4030463 48,54.6666667 L48,52 C48,51.2636203 48.5969537,50.6666667 49.3333333,50.6666667 Z" id="矩形备份-10" fill="#F1F4F8"></path>
                            <path d="M97.3333333,40 L113.333333,40 C114.069713,40 114.666667,40.5969537 114.666667,41.3333333 L114.666667,44 C114.666667,44.7363797 114.069713,45.3333333 113.333333,45.3333333 L97.3333333,45.3333333 C96.5969537,45.3333333 96,44.7363797 96,44 L96,41.3333333 C96,40.5969537 96.5969537,40 97.3333333,40 Z" id="矩形备份-8" fill="#F1F4F8"></path>
                            <path d="M97.3333333,50.6666667 L113.333333,50.6666667 C114.069713,50.6666667 114.666667,51.2636203 114.666667,52 L114.666667,54.6666667 C114.666667,55.4030463 114.069713,56 113.333333,56 L97.3333333,56 C96.5969537,56 96,55.4030463 96,54.6666667 L96,52 C96,51.2636203 96.5969537,50.6666667 97.3333333,50.6666667 Z" id="矩形备份-11" fill="#F1F4F8"></path>
                            <path d="M121.333333,40 L137.333333,40 C138.069713,40 138.666667,40.5969537 138.666667,41.3333333 L138.666667,44 C138.666667,44.7363797 138.069713,45.3333333 137.333333,45.3333333 L121.333333,45.3333333 C120.596954,45.3333333 120,44.7363797 120,44 L120,41.3333333 C120,40.5969537 120.596954,40 121.333333,40 Z" id="矩形备份-9" fill="#F1F4F8"></path>
                            <path d="M121.333333,50.6666667 L137.333333,50.6666667 C138.069713,50.6666667 138.666667,51.2636203 138.666667,52 L138.666667,54.6666667 C138.666667,55.4030463 138.069713,56 137.333333,56 L121.333333,56 C120.596954,56 120,55.4030463 120,54.6666667 L120,52 C120,51.2636203 120.596954,50.6666667 121.333333,50.6666667 Z" id="矩形备份-12" fill="#F1F4F8"></path>
                            <path d="M49.3333333,61.3333333 L54.6666667,61.3333333 C55.4030463,61.3333333 56,61.930287 56,62.6666667 L56,68 C56,68.7363797 55.4030463,69.3333333 54.6666667,69.3333333 L49.3333333,69.3333333 C48.5969537,69.3333333 48,68.7363797 48,68 L48,62.6666667 C48,61.930287 48.5969537,61.3333333 49.3333333,61.3333333 Z" id="矩形" fill="#E9ECF0"></path>
                            <path d="M62.6666667,61.3333333 L110.666667,61.3333333 C111.403046,61.3333333 112,61.930287 112,62.6666667 L112,65.3333333 C112,66.069713 111.403046,66.6666667 110.666667,66.6666667 L62.6666667,66.6666667 C61.930287,66.6666667 61.3333333,66.069713 61.3333333,65.3333333 L61.3333333,62.6666667 C61.3333333,61.930287 61.930287,61.3333333 62.6666667,61.3333333 Z" id="矩形备份-15" fill="#E9ECF0"></path>
                            <path d="M134.666667,61.3333333 L137.333333,61.3333333 C138.069713,61.3333333 138.666667,61.930287 138.666667,62.6666667 L138.666667,65.3333333 C138.666667,66.069713 138.069713,66.6666667 137.333333,66.6666667 L134.666667,66.6666667 C133.930287,66.6666667 133.333333,66.069713 133.333333,65.3333333 L133.333333,62.6666667 C133.333333,61.930287 133.930287,61.3333333 134.666667,61.3333333 Z" id="矩形备份-18" fill="#E9ECF0"></path>
                            <path d="M134.666667,74.6666667 L137.333333,74.6666667 C138.069713,74.6666667 138.666667,75.2636203 138.666667,76 L138.666667,78.6666667 C138.666667,79.4030463 138.069713,80 137.333333,80 L134.666667,80 C133.930287,80 133.333333,79.4030463 133.333333,78.6666667 L133.333333,76 C133.333333,75.2636203 133.930287,74.6666667 134.666667,74.6666667 Z" id="矩形备份-19" fill="#E9ECF0"></path>
                            <path d="M126.666667,61.3333333 L129.333333,61.3333333 C130.069713,61.3333333 130.666667,61.930287 130.666667,62.6666667 L130.666667,65.3333333 C130.666667,66.069713 130.069713,66.6666667 129.333333,66.6666667 L126.666667,66.6666667 C125.930287,66.6666667 125.333333,66.069713 125.333333,65.3333333 L125.333333,62.6666667 C125.333333,61.930287 125.930287,61.3333333 126.666667,61.3333333 Z" id="矩形备份-21" fill="#E9ECF0"></path>
                            <path d="M126.666667,74.6666667 L129.333333,74.6666667 C130.069713,74.6666667 130.666667,75.2636203 130.666667,76 L130.666667,78.6666667 C130.666667,79.4030463 130.069713,80 129.333333,80 L126.666667,80 C125.930287,80 125.333333,79.4030463 125.333333,78.6666667 L125.333333,76 C125.333333,75.2636203 125.930287,74.6666667 126.666667,74.6666667 Z" id="矩形备份-22" fill="#E9ECF0"></path>
                            <path d="M62.6666667,74.6666667 L110.666667,74.6666667 C111.403046,74.6666667 112,75.2636203 112,76 L112,78.6666667 C112,79.4030463 111.403046,80 110.666667,80 L62.6666667,80 C61.930287,80 61.3333333,79.4030463 61.3333333,78.6666667 L61.3333333,76 C61.3333333,75.2636203 61.930287,74.6666667 62.6666667,74.6666667 Z" id="矩形备份-16" fill="#E9ECF0"></path>
                            <path d="M62.6666667,88 L110.666667,88 C111.403046,88 112,88.5969537 112,89.3333333 L112,92 C112,92.7363797 111.403046,93.3333333 110.666667,93.3333333 L62.6666667,93.3333333 C61.930287,93.3333333 61.3333333,92.7363797 61.3333333,92 L61.3333333,89.3333333 C61.3333333,88.5969537 61.930287,88 62.6666667,88 Z" id="矩形备份-17" fill="#E9ECF0"></path>
                            <path d="M118.666667,61.3333333 L121.333333,61.3333333 C122.069713,61.3333333 122.666667,61.930287 122.666667,62.6666667 L122.666667,65.3333333 C122.666667,66.069713 122.069713,66.6666667 121.333333,66.6666667 L118.666667,66.6666667 C117.930287,66.6666667 117.333333,66.069713 117.333333,65.3333333 L117.333333,62.6666667 C117.333333,61.930287 117.930287,61.3333333 118.666667,61.3333333 Z" id="矩形备份-26" fill="#E9ECF0"></path>
                            <path d="M118.666667,74.6666667 L121.333333,74.6666667 C122.069713,74.6666667 122.666667,75.2636203 122.666667,76 L122.666667,78.6666667 C122.666667,79.4030463 122.069713,80 121.333333,80 L118.666667,80 C117.930287,80 117.333333,79.4030463 117.333333,78.6666667 L117.333333,76 C117.333333,75.2636203 117.930287,74.6666667 118.666667,74.6666667 Z" id="矩形备份-27" fill="#E9ECF0"></path>
                            <path d="M134.666667,88 L137.333333,88 C138.069713,88 138.666667,88.5969537 138.666667,89.3333333 L138.666667,92 C138.666667,92.7363797 138.069713,93.3333333 137.333333,93.3333333 L134.666667,93.3333333 C133.930287,93.3333333 133.333333,92.7363797 133.333333,92 L133.333333,89.3333333 C133.333333,88.5969537 133.930287,88 134.666667,88 Z" id="矩形备份-20" fill="#E9ECF0"></path>
                            <path d="M126.666667,88 L129.333333,88 C130.069713,88 130.666667,88.5969537 130.666667,89.3333333 L130.666667,92 C130.666667,92.7363797 130.069713,93.3333333 129.333333,93.3333333 L126.666667,93.3333333 C125.930287,93.3333333 125.333333,92.7363797 125.333333,92 L125.333333,89.3333333 C125.333333,88.5969537 125.930287,88 126.666667,88 Z" id="矩形备份-23" fill="#E9ECF0"></path>
                            <path d="M118.666667,88 L121.333333,88 C122.069713,88 122.666667,88.5969537 122.666667,89.3333333 L122.666667,92 C122.666667,92.7363797 122.069713,93.3333333 121.333333,93.3333333 L118.666667,93.3333333 C117.930287,93.3333333 117.333333,92.7363797 117.333333,92 L117.333333,89.3333333 C117.333333,88.5969537 117.930287,88 118.666667,88 Z" id="矩形备份-28" fill="#E9ECF0"></path>
                            <path d="M49.3333333,74.6666667 L54.6666667,74.6666667 C55.4030463,74.6666667 56,75.2636203 56,76 L56,81.3333333 C56,82.069713 55.4030463,82.6666667 54.6666667,82.6666667 L49.3333333,82.6666667 C48.5969537,82.6666667 48,82.069713 48,81.3333333 L48,76 C48,75.2636203 48.5969537,74.6666667 49.3333333,74.6666667 Z" id="矩形备份-13" fill="#E9ECF0"></path>
                            <path d="M49.3333333,88 L54.6666667,88 C55.4030463,88 56,88.5969537 56,89.3333333 L56,94.6666667 C56,95.4030463 55.4030463,96 54.6666667,96 L49.3333333,96 C48.5969537,96 48,95.4030463 48,94.6666667 L48,89.3333333 C48,88.5969537 48.5969537,88 49.3333333,88 Z" id="矩形备份-14" fill="#E9ECF0"></path>
                            <path d="M138.666667,71.6666667 C138.850762,71.6666667 139,71.8905243 139,72.1666667 C139,72.442809 138.850762,72.6666667 138.666667,72.6666667 L48,72.6666667 C47.8159051,72.6666667 47.6666667,72.442809 47.6666667,72.1666667 C47.6666667,71.8905243 47.8159051,71.6666667 48,71.6666667 L138.666667,71.6666667 Z" id="路径-4" fill="#F1F4F8" fill-rule="nonzero"></path>
                            <path d="M138.666667,85 C138.850762,85 139,85.2238576 139,85.5 C139,85.7761424 138.850762,86 138.666667,86 L48,86 C47.8159051,86 47.6666667,85.7761424 47.6666667,85.5 C47.6666667,85.2238576 47.8159051,85 48,85 L138.666667,85 Z" id="路径-4备份" fill="#F1F4F8" fill-rule="nonzero"></path>
                        </g>
                        <g id="矩形">
                            <use fill="black" fill-opacity="1" filter="url(#filter-2)" xlink:href="#path-nct-zvyzu0-1"></use>
                            <use fill="#FFFFFF" fill-rule="evenodd" xlink:href="#path-nct-zvyzu0-1"></use>
                        </g>
                        <path d="M114.666667,10.1666667 C114.850762,10.1666667 115,10.3159051 115,10.5 L115,39.5 L170.666667,39.5 C170.842394,39.5 170.986361,39.6359796 170.999086,39.8084563 L171,39.8333333 C171,40.0174282 170.850762,40.1666667 170.666667,40.1666667 L114.333333,40.1666667 L114.333333,10.5 C114.333333,10.3159051 114.482572,10.1666667 114.666667,10.1666667 Z" id="路径-15" fill="#F1F4F8" fill-rule="nonzero"></path>
                        <polygon id="矩形" fill="#E9ECF0" points="117.333333 18.5 122.666667 18.5 122.666667 39.5 117.333333 39.5"></polygon>
                        <polygon id="矩形备份" fill="#E9ECF0" points="125.333333 23.8333333 130.666667 23.8333333 130.666667 39.5 125.333333 39.5"></polygon>
                        <g id="矩形备份-2">
                            <use fill="currentColor" xlink:href="#path-nct-zvyzu0-3"></use>
                            <use fill-opacity="0.8" fill="#FFFFFF" xlink:href="#path-nct-zvyzu0-3"></use>
                        </g>
                        <polygon id="矩形备份-3" fill="#E9ECF0" points="141.333333 18.5 146.666667 18.5 146.666667 39.5 141.333333 39.5"></polygon>
                        <polygon id="矩形备份-4" fill="#FDEEEA" points="149.333333 29.1666667 154.666667 29.1666667 154.666667 39.5 149.333333 39.5"></polygon>
                        <polygon id="矩形备份-5" fill="#E9ECF0" points="157.333333 23.8333333 162.666667 23.8333333 162.666667 39.5 157.333333 39.5"></polygon>
                        <polygon id="矩形备份-6" fill="#E9ECF0" points="165.333333 18.5 170.666667 18.5 170.666667 39.5 165.333333 39.5"></polygon>
                        <path d="M120,41.8333333 C120.36819,41.8333333 120.666667,42.1318102 120.666667,42.5 L120.666667,45.1666667 C120.666667,45.5348565 120.36819,45.8333333 120,45.8333333 C119.63181,45.8333333 119.333333,45.5348565 119.333333,45.1666667 L119.333333,42.5 C119.333333,42.1318102 119.63181,41.8333333 120,41.8333333 Z" id="路径-16" fill="#F1F4F8" fill-rule="nonzero"></path>
                        <path d="M128,41.8333333 C128.36819,41.8333333 128.666667,42.1318102 128.666667,42.5 L128.666667,45.1666667 C128.666667,45.5348565 128.36819,45.8333333 128,45.8333333 C127.63181,45.8333333 127.333333,45.5348565 127.333333,45.1666667 L127.333333,42.5 C127.333333,42.1318102 127.63181,41.8333333 128,41.8333333 Z" id="路径-16备份" fill="#F1F4F8" fill-rule="nonzero"></path>
                        <path d="M136,41.8333333 C136.36819,41.8333333 136.666667,42.1318102 136.666667,42.5 L136.666667,45.1666667 C136.666667,45.5348565 136.36819,45.8333333 136,45.8333333 C135.63181,45.8333333 135.333333,45.5348565 135.333333,45.1666667 L135.333333,42.5 C135.333333,42.1318102 135.63181,41.8333333 136,41.8333333 Z" id="路径-16备份-2" fill="#F1F4F8" fill-rule="nonzero"></path>
                        <path d="M144,41.8333333 C144.36819,41.8333333 144.666667,42.1318102 144.666667,42.5 L144.666667,45.1666667 C144.666667,45.5348565 144.36819,45.8333333 144,45.8333333 C143.63181,45.8333333 143.333333,45.5348565 143.333333,45.1666667 L143.333333,42.5 C143.333333,42.1318102 143.63181,41.8333333 144,41.8333333 Z" id="路径-16备份-3" fill="#F1F4F8" fill-rule="nonzero"></path>
                        <path d="M152,41.8333333 C152.36819,41.8333333 152.666667,42.1318102 152.666667,42.5 L152.666667,45.1666667 C152.666667,45.5348565 152.36819,45.8333333 152,45.8333333 C151.63181,45.8333333 151.333333,45.5348565 151.333333,45.1666667 L151.333333,42.5 C151.333333,42.1318102 151.63181,41.8333333 152,41.8333333 Z" id="路径-16备份-4" fill="#F1F4F8" fill-rule="nonzero"></path>
                        <path d="M160,41.8333333 C160.36819,41.8333333 160.666667,42.1318102 160.666667,42.5 L160.666667,45.1666667 C160.666667,45.5348565 160.36819,45.8333333 160,45.8333333 C159.63181,45.8333333 159.333333,45.5348565 159.333333,45.1666667 L159.333333,42.5 C159.333333,42.1318102 159.63181,41.8333333 160,41.8333333 Z" id="路径-16备份-5" fill="#F1F4F8" fill-rule="nonzero"></path>
                        <path d="M168,41.8333333 C168.36819,41.8333333 168.666667,42.1318102 168.666667,42.5 L168.666667,45.1666667 C168.666667,45.5348565 168.36819,45.8333333 168,45.8333333 C167.63181,45.8333333 167.333333,45.5348565 167.333333,45.1666667 L167.333333,42.5 C167.333333,42.1318102 167.63181,41.8333333 168,41.8333333 Z" id="路径-16备份-6" fill="#F1F4F8" fill-rule="nonzero"></path>
                        <path d="M112,33.8333333 C112.36819,33.8333333 112.666667,34.1318102 112.666667,34.5 C112.666667,34.8681898 112.36819,35.1666667 112,35.1666667 L109.333333,35.1666667 C108.965144,35.1666667 108.666667,34.8681898 108.666667,34.5 C108.666667,34.1318102 108.965144,33.8333333 109.333333,33.8333333 L112,33.8333333 Z" id="路径-17" fill="#F1F4F8" fill-rule="nonzero"></path>
                        <path d="M112,28.5 C112.36819,28.5 112.666667,28.7984768 112.666667,29.1666667 C112.666667,29.5348565 112.36819,29.8333333 112,29.8333333 L109.333333,29.8333333 C108.965144,29.8333333 108.666667,29.5348565 108.666667,29.1666667 C108.666667,28.7984768 108.965144,28.5 109.333333,28.5 L112,28.5 Z" id="路径-17备份" fill="#F1F4F8" fill-rule="nonzero"></path>
                        <path d="M112,23.1666667 C112.36819,23.1666667 112.666667,23.4651435 112.666667,23.8333333 C112.666667,24.2015232 112.36819,24.5 112,24.5 L109.333333,24.5 C108.965144,24.5 108.666667,24.2015232 108.666667,23.8333333 C108.666667,23.4651435 108.965144,23.1666667 109.333333,23.1666667 L112,23.1666667 Z" id="路径-17备份-2" fill="#F1F4F8" fill-rule="nonzero"></path>
                        <path d="M112,17.8333333 C112.36819,17.8333333 112.666667,18.1318102 112.666667,18.5 C112.666667,18.8681898 112.36819,19.1666667 112,19.1666667 L109.333333,19.1666667 C108.965144,19.1666667 108.666667,18.8681898 108.666667,18.5 C108.666667,18.1318102 108.965144,17.8333333 109.333333,17.8333333 L112,17.8333333 Z" id="路径-17备份-3" fill="#F1F4F8" fill-rule="nonzero"></path>
                        <path d="M112,12.5 C112.36819,12.5 112.666667,12.7984768 112.666667,13.1666667 C112.666667,13.5348565 112.36819,13.8333333 112,13.8333333 L109.333333,13.8333333 C108.965144,13.8333333 108.666667,13.5348565 108.666667,13.1666667 C108.666667,12.7984768 108.965144,12.5 109.333333,12.5 L112,12.5 Z" id="路径-17备份-4" fill="#F1F4F8" fill-rule="nonzero"></path>
                        <g id="编组" transform="translate(125.333333, 50.500000)">
                            <g id="矩形">
                                <use fill="currentColor" xlink:href="#path-nct-zvyzu0-4"></use>
                                <use fill-opacity="0.8" fill="#FFFFFF" xlink:href="#path-nct-zvyzu0-4"></use>
                            </g>
                            <rect id="矩形备份-8" fill="#FDEEEA" x="18.6666667" y="0" width="2.66666667" height="2.66666667" rx="1.33333333"></rect>
                            <rect id="矩形备份-7" fill="#E9ECF0" x="5.33333333" y="0" width="8" height="2.66666667" rx="1.33333333"></rect>
                            <rect id="矩形备份-9" fill="#E9ECF0" x="24" y="0" width="8" height="2.66666667" rx="1.33333333"></rect>
                        </g>
                        <g id="元素/纸飞机/主色备份" transform="translate(167.941223, 0.000000)">
                            <g id="路径-14">
                                <use fill="currentColor" xlink:href="#path-nct-zvyzu0-5"></use>
                                <use fill-opacity="0.4" fill="#FFFFFF" xlink:href="#path-nct-zvyzu0-5"></use>
                            </g>
                            <g id="路径-5">
                                <use fill="currentColor" xlink:href="#path-nct-zvyzu0-6"></use>
                                <use fill-opacity="0.2" fill="#FFFFFF" xlink:href="#path-nct-zvyzu0-6"></use>
                            </g>
                            <g id="路径-12">
                                <use fill="currentColor" xlink:href="#nct-zvyzu0-"></use>
                                <use fill-opacity="0.2" fill="#000000" xlink:href="#path-nct-zvyzu0-7"></use>
                            </g>
                            <g id="路径-13">
                                <use fill="currentColor" xlink:href="#path-nct-zvyzu0-8"></use>
                                <use fill-opacity="0.2" fill="#FFFFFF" xlink:href="#path-nct-zvyzu0-8"></use>
                            </g>
                        </g>
                        <path d="M152.188228,16.6990529 C152.563748,16.4421182 152.931928,16.2005313 153.292703,15.9741327 L152.938342,15.4094448 C152.570018,15.6405804 152.194478,15.8869967 151.811772,16.148848 L152.188228,16.6990529 Z M154.423932,15.3001371 C154.821959,15.0761201 155.209395,14.8724877 155.58608,14.68895 L155.294069,14.0896389 C154.905364,14.2790332 154.506282,14.4887864 154.096951,14.7191659 L154.423932,15.3001371 Z M156.784301,14.1581037 C157.212033,13.9886403 157.622237,13.84889 158.014428,13.7381498 L157.833269,13.096569 C157.418778,13.213606 156.987134,13.3606607 156.538744,13.5383084 L156.784301,14.1581037 Z M159.271093,13.47351 C159.727612,13.4136749 160.147883,13.4026714 160.529997,13.4375435 L160.590586,12.7736358 C160.157908,12.7341492 159.688438,12.7464409 159.184455,12.8124968 L159.271093,13.47351 Z M161.69953,13.7403224 C162.079006,13.9221463 162.373771,14.1740609 162.577041,14.4769775 L163.130621,14.1055023 C162.860163,13.7024609 162.473276,13.3718156 161.9876,13.1391066 L161.69953,13.7403224 Z M162.892459,15.5615708 C162.882362,15.9433351 162.755108,16.3124827 162.527536,16.6144572 L163.059944,17.0156871 C163.371612,16.6021229 163.545152,16.0987047 163.558893,15.5791976 L162.892459,15.5615708 Z M161.609969,17.2573187 C161.345926,17.3428706 161.050634,17.3806894 160.7281,17.3660288 C160.632185,17.3616687 160.540549,17.3531915 160.453226,17.3407075 L160.358876,18.000664 C160.467781,18.0162334 160.580784,18.0266872 160.697826,18.0320077 C161.09879,18.0502334 161.473905,18.0021914 161.815457,17.8915264 L161.609969,17.2573187 Z M159.476008,16.87049 C159.256501,16.6204349 159.140239,16.2730619 159.135297,15.8447782 L158.468674,15.8524712 C158.475352,16.431112 158.643044,16.9321489 158.974994,17.3102964 L159.476008,16.87049 Z M159.359154,14.6413661 C159.490195,14.268976 159.675866,13.8849351 159.909537,13.504874 L159.341623,13.1557062 C159.083763,13.5751111 158.877477,14.0017907 158.730287,14.4200719 L159.359154,14.6413661 Z M160.662107,12.4881583 C160.941082,12.1696474 161.248741,11.8695579 161.579588,11.5947876 L161.153655,11.0819278 C160.795598,11.3792965 160.462688,11.7040147 160.160606,12.0489081 L160.662107,12.4881583 Z M162.639834,10.8508877 C163.009881,10.634516 163.3951,10.4508511 163.792005,10.3030621 L163.559372,9.67830087 C163.126035,9.83965582 162.706118,10.039864 162.303328,10.275381 L162.639834,10.8508877 Z M165.01485,9.97028782 C165.430781,9.8974489 165.853582,9.86343859 166.281446,9.86988074 L166.291483,9.20328962 C165.82147,9.19621286 165.356815,9.23358993 164.899852,9.31361452 L165.01485,9.97028782 Z" id="路径" fill="currentColor" fill-rule="nonzero"></path>
                        <path d="M152.188228,16.6990529 C152.563748,16.4421182 152.931928,16.2005313 153.292703,15.9741327 L152.938342,15.4094448 C152.570018,15.6405804 152.194478,15.8869967 151.811772,16.148848 L152.188228,16.6990529 Z M154.423932,15.3001371 C154.821959,15.0761201 155.209395,14.8724877 155.58608,14.68895 L155.294069,14.0896389 C154.905364,14.2790332 154.506282,14.4887864 154.096951,14.7191659 L154.423932,15.3001371 Z M156.784301,14.1581037 C157.212033,13.9886403 157.622237,13.84889 158.014428,13.7381498 L157.833269,13.096569 C157.418778,13.213606 156.987134,13.3606607 156.538744,13.5383084 L156.784301,14.1581037 Z M159.271093,13.47351 C159.727612,13.4136749 160.147883,13.4026714 160.529997,13.4375435 L160.590586,12.7736358 C160.157908,12.7341492 159.688438,12.7464409 159.184455,12.8124968 L159.271093,13.47351 Z M161.69953,13.7403224 C162.079006,13.9221463 162.373771,14.1740609 162.577041,14.4769775 L163.130621,14.1055023 C162.860163,13.7024609 162.473276,13.3718156 161.9876,13.1391066 L161.69953,13.7403224 Z M162.892459,15.5615708 C162.882362,15.9433351 162.755108,16.3124827 162.527536,16.6144572 L163.059944,17.0156871 C163.371612,16.6021229 163.545152,16.0987047 163.558893,15.5791976 L162.892459,15.5615708 Z M161.609969,17.2573187 C161.345926,17.3428706 161.050634,17.3806894 160.7281,17.3660288 C160.632185,17.3616687 160.540549,17.3531915 160.453226,17.3407075 L160.358876,18.000664 C160.467781,18.0162334 160.580784,18.0266872 160.697826,18.0320077 C161.09879,18.0502334 161.473905,18.0021914 161.815457,17.8915264 L161.609969,17.2573187 Z M159.476008,16.87049 C159.256501,16.6204349 159.140239,16.2730619 159.135297,15.8447782 L158.468674,15.8524712 C158.475352,16.431112 158.643044,16.9321489 158.974994,17.3102964 L159.476008,16.87049 Z M159.359154,14.6413661 C159.490195,14.268976 159.675866,13.8849351 159.909537,13.504874 L159.341623,13.1557062 C159.083763,13.5751111 158.877477,14.0017907 158.730287,14.4200719 L159.359154,14.6413661 Z M160.662107,12.4881583 C160.941082,12.1696474 161.248741,11.8695579 161.579588,11.5947876 L161.153655,11.0819278 C160.795598,11.3792965 160.462688,11.7040147 160.160606,12.0489081 L160.662107,12.4881583 Z M162.639834,10.8508877 C163.009881,10.634516 163.3951,10.4508511 163.792005,10.3030621 L163.559372,9.67830087 C163.126035,9.83965582 162.706118,10.039864 162.303328,10.275381 L162.639834,10.8508877 Z M165.01485,9.97028782 C165.430781,9.8974489 165.853582,9.86343859 166.281446,9.86988074 L166.291483,9.20328962 C165.82147,9.19621286 165.356815,9.23358993 164.899852,9.31361452 L165.01485,9.97028782 Z" id="路径" fill-opacity="0.2" fill="#FFFFFF" fill-rule="nonzero"></path>
                    </g>
                </g>
            </g>
        </g>
    </g>
</svg>
