<?xml version="1.0" encoding="UTF-8"?>
<svg width="480px" height="309px" viewBox="0 0 480 309" version="1.1" xmlns="http://www.w3.org/2000/svg" xmlns:xlink="http://www.w3.org/1999/xlink">
    <title>身份认证失效</title>
    <defs>
        <rect id="path-1" x="23" y="23" width="4" height="43" rx="2"></rect>
        <path d="M12.2458198,65 L38.772999,65 C39.8775685,65 40.772999,65.8954305 40.772999,67 C40.772999,67.0715519 40.7691593,67.1430523 40.7614963,67.2141927 L38.4994634,88.2141927 C38.3900471,89.2299794 37.5326288,90 36.5109661,90 L14.6856677,90 C13.6703933,90 12.8162008,89.2393045 12.6990311,88.2308139 L10.2591832,67.2308139 C10.1317082,66.1336248 10.9178168,65.1408384 12.0150059,65.0133634 C12.0916218,65.0044619 12.1686885,65 12.2458198,65 Z" id="path-2"></path>
        <path d="M40.772999,67 C40.772999,67.0715519 40.7691593,67.1430523 40.7614963,67.2141927 L38.4994634,88.2141927 C38.3900471,89.2299794 37.5326288,90 36.5109661,90 L14.6856677,90 C13.6703933,90 12.8162008,89.2393045 12.6990311,88.2308139 L12.4849982,86.387739 C13.8889207,85.4691701 16.288298,84.9293572 19.6831303,84.7683004 C29.6335862,84.2962334 36.5325234,78.3734666 40.3799419,67 L40.772999,67 Z" id="path-3"></path>
        <path d="M39.2833087,51.557977 C42.3208748,51.557977 45.7581624,46.5218422 44.7833087,40.057977 C43.808455,33.5941117 40.3505475,28.5930254 39.2833087,28.557977 C38.2160699,28.5229285 35.0983094,33.7062848 33.7833087,40.057977 C32.468308,46.4096691 36.2457426,51.557977 39.2833087,51.557977 Z" id="path-4"></path>
        <path d="M32.9234122,21.6167228 C35.6967997,21.6167228 38.8351447,17.0185831 37.9450745,11.1168833 C37.0550043,5.21518354 33.8978327,0.64904408 32.9234122,0.617043842 C31.9489917,0.585043604 29.1023843,5.31760086 27.9017498,11.1168833 C26.7011154,16.9161658 30.1500246,21.6167228 32.9234122,21.6167228 Z" id="path-5"></path>
        <path d="M10.6309068,36.6536656 C13.2722283,36.6536656 16.2611283,32.2744849 15.4134424,26.6538185 C14.5657565,21.033152 11.5589264,16.6844478 10.6309068,16.6539713 C9.70288729,16.6234949 6.99183265,21.1306923 5.84837125,26.6538185 C4.70490986,32.1769446 7.98958537,36.6536656 10.6309068,36.6536656 Z" id="path-6"></path>
        <rect id="path-7" x="8" y="64" width="35" height="5" rx="1"></rect>
        <polygon id="path-8" points="46.7904759 212.817912 4.50630103 135.540464 53.136141 55.3090148 54.6932041 61.2703958 22.4669432 132.885792 18.3274822 142.137481 57.5389975 208.817912"></polygon>
        <path d="M52.9900812,59.7078458 L54.5471443,65.6692268 L22.759767,132.891423 L18.620306,142.143112 L57.8318212,208.823543 L52.6999975,210.732846 L15.5389975,142.588632 L15.5389975,134.970075 L41.0699975,78.4668458 L52.9900812,59.7078458 Z" id="path-9"></path>
        <path d="M57.5389975,205.817912 C68.5846925,205.817912 77.5389975,212.085925 77.5389975,219.817912 L37.5389975,219.817912 C37.5389975,212.085925 46.4933025,205.817912 57.5389975,205.817912 Z" id="path-10"></path>
        <rect id="path-11" x="33.5389975" y="219.817912" width="48" height="3" rx="1.5"></rect>
        <circle id="path-12" cx="14.0389975" cy="136.317912" r="9.5"></circle>
        <path d="M38.2493392,2.86371174 L53.2493392,2.86371174 C54.3539087,2.86371174 55.2493392,3.75914224 55.2493392,4.86371174 L55.2493392,32.8637117 L55.2493392,32.8637117 L36.2493392,32.8637117 L36.2493392,4.86371174 C36.2493392,3.75914224 37.1447697,2.86371174 38.2493392,2.86371174 Z" id="path-13"></path>
        <path d="M45.3957858,22.3091482 C62.5773403,22.3091482 76.5997501,35.6091107 77.3958271,52.310015 L13.3957445,52.310015 C14.1918215,35.6091107 28.2142313,22.3091482 45.3957858,22.3091482 Z" id="path-14"></path>
        <path d="M36.713695,14.5529325 C30.6960111,29.8401291 31.4233255,42.1091449 38.8956384,51.3599799 L34.5160516,55.7399301 C25.3500954,45.6564151 23.9938276,30.957998 30.3828732,19.2878235 L17.1263806,6.03039553 C16.345332,5.24934694 16.345332,3.98301699 17.1263806,3.2019684 L20.6294312,-0.303697565 C23.9582725,2.77106944 29.3196938,7.72327945 36.713695,14.5529325 Z" id="path-15"></path>
        <ellipse id="path-16" cx="45.0422324" cy="51.0977305" rx="31.5" ry="5"></ellipse>
        <rect id="path-17" x="44.4812197" y="79.0089979" width="2" height="22"></rect>
        <circle id="path-18" cx="45.4812197" cy="103.008998" r="3"></circle>
        <rect id="path-19" x="69.4812197" y="76.0089979" width="3" height="12" rx="1.5"></rect>
        <rect id="path-20" x="84.9812197" y="69.5089979" width="3" height="12" rx="1.5"></rect>
        <rect id="path-21" x="89.9812197" y="54.5089979" width="3" height="12" rx="1.5"></rect>
        <linearGradient x1="50%" y1="0%" x2="50%" y2="100%" id="linearGradient-22">
            <stop stop-color="#D6DCE4" offset="0%"></stop>
            <stop stop-color="#EBECEE" stop-opacity="0.4" offset="100%"></stop>
        </linearGradient>
        <linearGradient x1="50%" y1="0%" x2="50%" y2="96.3707557%" id="linearGradient-23">
            <stop stop-color="#D6DCE4" offset="0%"></stop>
            <stop stop-color="#D6DCE4" stop-opacity="0.35" offset="100%"></stop>
        </linearGradient>
        <rect id="path-24" x="0" y="0" width="202" height="120" rx="2"></rect>
        <circle id="path-26" cx="24" cy="24" r="24"></circle>
        <polygon id="path-27" points="20.8695652 36.5217391 24 37.5652174 20.8695652 38.6086957"></polygon>
        <polygon id="path-28" points="24 36.5217391 27.1304348 37.5652174 24 38.6086957"></polygon>
        <rect id="path-29" x="22.9565217" y="37.0434783" width="2.08695652" height="1.04347826" rx="0.52173913"></rect>
        <rect id="path-30" x="16.6956522" y="21.9130435" width="3.65217391" height="1.56521739" rx="0.782608696"></rect>
        <rect id="path-31" x="28.173913" y="21.9130435" width="3.65217391" height="1.56521739" rx="0.782608696"></rect>
        <path d="M3.93036766,23.6363636 L1.13281791,28.3782469 C0.958827373,28.6731655 0.960268494,29.0412517 1.13500111,29.3342555 L1.14690666,29.3536762 C1.27063485,29.5500816 1.53150188,29.6505279 1.92950777,29.655015 L1.9578905,29.6551724 L3.31766094,29.6551724 C3.72471239,29.6551724 4.13034422,29.6063618 4.52615589,29.5097513 L28.5893417,23.6363636 L3.93036766,23.6363636 Z" id="path-32"></path>
        <path d="M9.85888879,14.6081505 L56.1755486,14.6081505 L1.52790249,0.0399930008 C0.950241576,-0.114002132 0.350562145,0.18840257 0.120337658,0.746252273 L0.112080358,0.766775015 C-0.0966010276,1.29901115 -0.00996270802,1.90403847 0.339318994,2.35366684 L9.85888879,14.6081505 Z" id="path-33"></path>
        <polygon id="path-34" points="56.1755486 14.6081505 9.86218726 14.6081505 3.94984326 23.6363636 16.7599219 23.6363636"></polygon>
        <path d="M56.1755486,14.6081505 L29.5630668,39.6865204 C29.1313432,39.8955068 28.8030571,40 28.5782086,40 C28.35336,40 28.0321773,39.8955068 27.6146606,39.6865204 L14.3190748,21.630094 C14.2576008,20.8999862 14.3122675,20.4189476 14.4830748,20.186978 C14.6538822,19.9550085 15.0916446,19.7672906 15.7963621,19.6238245 L56.1755486,14.6081505 Z" id="path-35"></path>
        <linearGradient x1="100%" y1="44.9027099%" x2="11.0463465%" y2="50%" id="linearGradient-36">
            <stop stop-color="#FFFFFF" stop-opacity="0" offset="0%"></stop>
            <stop stop-color="#FFFFFF" offset="100%"></stop>
        </linearGradient>
        <path d="M253.645666,121.060065 C254.947394,120.720025 256.237153,120.376593 257.514945,120.029769 L257.252998,119.064687 C255.978283,119.410676 254.691592,119.753291 253.392925,120.092531 L253.645666,121.060065 Z M261.372752,118.962099 C262.667687,118.59668 263.949851,118.227641 265.219244,117.854981 L264.937558,116.895474 C263.671541,117.267143 262.392745,117.635213 261.101168,117.999684 L261.372752,118.962099 Z M269.066204,116.70258 C270.355289,116.308538 271.630648,115.910604 272.89228,115.508775 L272.588802,114.555937 C271.330898,114.956578 270.059258,115.353352 268.773881,115.74626 L269.066204,116.70258 Z M276.699082,114.270662 C277.979564,113.845379 279.245261,113.4159 280.496174,112.982225 L280.168614,112.037395 C278.921832,112.469638 277.660256,112.897719 276.383885,113.321636 L276.699082,114.270662 Z M284.266419,111.646211 C285.534329,111.186953 286.786295,110.723168 288.022318,110.254854 L287.668009,109.319726 C286.436579,109.786299 285.189194,110.248388 283.925855,110.70599 L284.266419,111.646211 Z M291.765421,108.80346 C293.021604,108.304936 294.260418,107.801477 295.481863,107.29308 L295.097594,106.369858 C293.881292,106.876114 292.647611,107.377488 291.396551,107.873979 L291.765421,108.80346 Z M299.175197,105.717637 C300.413191,105.176371 301.632261,104.629722 302.832408,104.07769 L302.414525,103.169189 C301.220148,103.718568 300.00684,104.262632 298.7746,104.801382 L299.175197,105.717637 Z M306.450519,102.369374 C307.668464,101.778977 308.865606,101.182657 310.041944,100.580411 L309.58623,99.6902851 C308.416399,100.289199 307.225762,100.882279 306.014318,101.469525 L306.450519,102.369374 Z M313.594318,98.7094497 C314.785118,98.0640998 315.952971,97.4122079 317.097879,96.7537719 L316.599342,95.886903 C315.461784,96.5411127 314.301285,97.1888994 313.117844,97.8302608 L313.594318,98.7094497 Z M320.553923,94.7036912 C321.710094,93.9960548 322.840817,93.281153 323.946092,92.5589829 L323.399113,91.7218365 C322.30213,92.4385887 321.179722,93.148233 320.031889,93.8507666 L320.553923,94.7036912 Z M327.284642,90.3013683 C328.396452,89.5228708 329.479886,88.7362592 330.534942,87.9415298 L329.933277,87.1427808 C328.88753,87.9304989 327.81346,88.7103119 326.711066,89.482216 L327.284642,90.3013683 Z M333.710735,85.455095 C334.764221,84.5971828 335.785994,83.7301883 336.776047,82.8541076 L336.113361,82.1052102 C335.133606,82.9721781 334.122246,83.8303379 333.079276,84.6796854 L333.710735,85.455095 Z M339.710227,80.1414356 C340.687301,79.1966913 341.629003,78.2418067 342.535326,77.2767783 L341.806395,76.5921908 C340.911142,77.545433 339.980717,78.4888822 339.015114,79.4225351 L339.710227,80.1414356 Z M345.219878,74.2665441 C346.097419,73.2285853 346.935734,72.1793819 347.734813,71.1189336 L346.936168,70.5171313 C346.148409,71.5625574 345.321766,72.5971523 344.456226,73.6209158 L345.219878,74.2665441 Z M350.070819,67.818808 C350.820564,66.688223 351.527566,65.5454095 352.191811,64.390374 L351.324937,63.8918468 C350.671321,65.0284001 349.975486,66.1531623 349.237418,67.2661399 L350.070819,67.818808 Z M354.093529,60.8125098 C354.687539,59.5974619 355.236183,58.3694938 355.739445,57.1286211 L354.812759,56.7527841 C354.318216,57.9721593 353.779014,59.1789952 353.195141,60.3733074 L354.093529,60.8125098 Z M357.129488,53.3168213 C357.545137,52.0363531 357.914407,50.742765 358.237292,49.4360791 L357.266491,49.1961925 C356.949335,50.4796961 356.586622,51.7503157 356.178344,53.0080731 L357.129488,53.3168213 Z M359.075455,45.4739137 C359.314697,44.1123399 359.497129,42.778484 359.623439,41.4725883 L358.628084,41.3763145 C358.504286,42.6562369 358.325356,43.9644906 358.090544,45.3008548 L359.075455,45.4739137 Z M359.836763,37.4056019 C359.845431,36.0210081 359.785656,34.6724094 359.658586,33.3602842 L358.663242,33.4566759 C358.786981,34.7344005 358.845238,36.0487448 358.836783,37.3993422 L359.836763,37.4056019 Z M359.034872,29.3385722 C358.74237,27.988692 358.371163,26.6848776 357.923251,25.4280116 L356.981279,25.7637041 C357.414701,26.9799094 357.774122,28.2423281 358.057553,29.5503452 L359.034872,29.3385722 Z M356.304915,21.7097403 C355.674473,20.4980414 354.963619,19.3411875 354.175632,18.2404703 L353.362514,18.822569 C354.123112,19.8850281 354.809223,21.0016148 355.417806,22.1713001 L356.304915,21.7097403 Z M351.547432,15.0704364 C350.616629,14.0956251 349.615901,13.1798156 348.549949,12.3244968 L347.924114,13.104452 C348.955975,13.9324158 349.924136,14.8184227 350.824188,15.761029 L351.547432,15.0704364 Z M345.219798,9.97793715 C344.081079,9.27483172 342.890329,8.63096021 341.653723,8.04777641 L341.227176,8.95224212 C342.43022,9.51959798 343.58797,10.1456251 344.694425,10.828809 L345.219798,9.97793715 Z M337.901651,6.51311664 C336.636913,6.06971717 335.340355,5.6852525 334.019917,5.3608352 L333.781323,6.3319547 C335.07084,6.64877513 336.336615,7.02411139 337.570808,7.45680243 L337.901651,6.51311664 Z M330.058678,4.57858957 C328.723766,4.37741907 327.379357,4.23634828 326.035541,4.15566417 L325.975608,5.15386656 C327.289678,5.2327647 328.604363,5.37071647 329.909661,5.56742422 L330.058678,4.57858957 Z M321.945614,4.0973924 C320.5777,4.14122 319.228486,4.24904234 317.910558,4.41956398 L318.038875,5.41129723 C319.324646,5.24493622 320.641728,5.1396817 321.977638,5.09687952 L321.945614,4.0973924 Z M313.891732,5.15911423 C312.531025,5.48906219 311.231887,5.89124846 310.009504,6.36164485 L310.368649,7.29492669 C311.549968,6.84033219 312.807883,6.45090808 314.127386,6.1309513 L313.891732,5.15911423 Z M306.302286,8.13949665 C305.057474,8.87692391 303.95396,9.7017804 303.009396,10.6055777 L303.700739,11.3281047 C304.588357,10.4787962 305.630829,9.69956699 306.811966,8.99986059 L306.302286,8.13949665 Z M300.485219,13.8838919 C299.866794,15.0516466 299.419386,16.37274 299.150894,17.8157037 L300.13402,17.9986339 C300.384515,16.6523939 300.799381,15.4273885 301.368943,14.3518989 L300.485219,13.8838919 Z M298.86464,21.9263652 C298.909295,23.2344643 299.07292,24.5919559 299.35431,25.9803289 L300.334383,25.7816909 C300.063793,24.4466096 299.906792,23.1440606 299.864058,21.892248 L298.86464,21.9263652 Z M300.435084,29.8941379 C300.869349,31.1413508 301.390221,32.3936793 301.995014,33.641017 L302.894822,33.2047301 C302.306835,31.9920531 301.800877,30.7755838 301.379475,29.5653118 L300.435084,29.8941379 Z M303.974899,37.2243627 C304.675802,38.351414 305.443124,39.4631409 306.274571,40.5539285 L307.069873,39.9477143 C306.257552,38.8820192 305.508218,37.7963537 304.824081,36.6962634 L303.974899,37.2243627 Z M308.90611,43.7001662 C309.803986,44.6819042 310.754796,45.6384725 311.75688,46.5666012 L312.436396,45.8329404 C311.454553,44.9235591 310.523231,43.9865963 309.644031,43.0252793 L308.90611,43.7001662 Z M314.81229,49.1811198 C315.855296,50.0060872 316.941501,50.8014984 318.069766,51.5653488 L318.630383,50.737274 C317.522538,49.987248 316.456262,49.2064302 315.432648,48.3968013 L314.81229,49.1811198 Z M321.448219,53.6841735 C322.59683,54.3506801 323.781252,54.9862165 325.000718,55.5894935 L325.444132,54.6931763 C324.244467,54.0996951 323.07955,53.4746248 321.950113,52.8192444 L321.448219,53.6841735 Z M328.691363,57.2711085 C329.916072,57.7835334 331.170825,58.2652004 332.455105,58.7152437 L332.785812,57.7715103 C331.52012,57.3279808 330.283801,56.8533899 329.077345,56.3486021 L328.691363,57.2711085 Z M336.322665,59.948496 C337.596101,60.3158792 338.894895,60.6537724 340.218699,60.9615739 L340.44517,59.9875562 C339.138339,59.683701 337.856458,59.3502078 336.599857,58.9876816 L336.322665,59.948496 Z M344.188683,61.7803619 C345.492009,62.0159802 346.816957,62.2238099 348.163292,62.4034168 L348.295525,61.4121981 C346.964417,61.2346227 345.654695,61.0291812 344.366582,60.7963131 L344.188683,61.7803619 Z M352.192523,62.8505818 C353.51095,62.9680989 354.847969,63.0597182 356.203418,63.1251163 L356.25161,62.1262782 C354.909664,62.0615315 353.586177,61.9708396 352.281305,61.8545307 L352.192523,62.8505818 Z M360.239299,63.2415052 C361.562441,63.254545 362.901712,63.2435759 364.256998,63.2083504 L364.231016,62.208688 C362.887631,62.2436041 361.560307,62.2544754 360.249154,62.2415537 L360.239299,63.2415052 Z M368.272278,63.0355763 C369.592681,62.956691 370.927195,62.8555998 372.275739,62.7321088 L372.184547,61.7362755 C370.846472,61.8588078 369.522477,61.9591022 368.212641,62.0373562 L368.272278,63.0355763 Z M376.274914,62.3050376 C377.588499,62.1451069 378.914543,61.9646145 380.252987,61.7634052 L380.104327,60.7745168 C378.775099,60.9743406 377.458323,61.1535715 376.154056,61.3123679 L376.274914,62.3050376 Z M384.155269,61.1241432 C385.458309,60.8933664 386.772434,60.6435325 388.097601,60.3745146 L387.898653,59.3945047 C386.581623,59.6618705 385.275684,59.9101483 383.980877,60.139467 L384.155269,61.1241432 Z M392.009922,59.5317245 C393.300177,59.2379764 394.600356,58.9265423 395.910426,58.5973173 L395.666701,57.6274729 C394.363834,57.9548878 393.070901,58.2645862 391.787936,58.5566747 L392.009922,59.5317245 Z M399.732273,57.593978 C401.00888,57.2446766 402.294437,56.8789075 403.588922,56.4965828 L403.305669,55.5375376 C402.017591,55.9179702 400.738479,56.2819053 399.468357,56.6294324 L399.732273,57.593978 Z M407.427048,55.3226629 C408.689348,54.923461 409.959765,54.5088916 411.238282,54.07888 L410.919494,53.131054 C409.646695,53.5591425 408.38203,53.9718347 407.125517,54.3692063 L407.427048,55.3226629 Z M414.701202,51.8222581 L415.036362,52.7644192 L416.781565,52.135964 L416.439144,51.1964173 C415.858221,51.4081368 415.278906,51.6167481 414.701202,51.8222581 Z" id="path-37"></path>
        <path d="M0.989629962,0 L26.5701123,0 C27.0119401,-6.36273962e-16 27.3701123,0.3581722 27.3701123,0.8 C27.3701123,0.855701313 27.3642949,0.911250321 27.3527548,0.965743087 L23.7758555,17.8559392 C23.697552,18.2256901 23.3711644,18.4901961 22.9932131,18.4901961 L4.60965917,18.4901961 C4.23244085,18.4901961 3.90647675,18.2266922 3.82742389,17.8578504 L0.207394688,0.967654332 C0.114801757,0.535637719 0.389959018,0.110357656 0.821975631,0.0177647253 C0.877078718,0.00595463236 0.933275473,1.12057518e-15 0.989629962,0 Z" id="path-38"></path>
        <path d="M21.8019122,13.2883855 C24.6139117,13.4245412 26.5588263,13.8974096 27.6366561,14.7069908 L26.9700408,17.8559392 C26.8917373,18.2256901 26.5653496,18.4901961 26.1873983,18.4901961 L7.80384441,18.4901961 C7.4266261,18.4901961 7.10066199,18.2266922 7.02160914,17.8578504 L3.40157993,0.967654332 C3.308987,0.535637719 3.58414426,0.110357656 4.01616087,0.0177647253 C4.07126396,0.00595463236 4.12746072,1.12057518e-15 4.18381521,0 L5.84528125,0.000211745318 C8.93495976,8.49352004 14.2538367,12.9229113 21.8019122,13.2883855 Z" id="path-39"></path>
        <path d="M8.4330242,11.8500422 C5.9852871,8.75131293 1.33635173,6.93405969 0.243115392,8.13656902 C-0.850120948,9.33907834 1.97054744,14.5687332 4.18719987,17.2467388 C6.4038523,19.9247444 14.3029055,23.1521206 14.6404631,22.9354365 C14.9780207,22.7187525 10.8807613,14.9487714 8.4330242,11.8500422 Z" id="path-40"></path>
        <path d="M10.1915147,6.95346464 C10.1915147,4.89737127 11.2088768,3.56694167 10.8347248,0.87673207 C10.4605728,-1.81347753 16.5576727,1.95726615 17.6430892,8.50412225 C18.7285057,15.0509784 16.6010833,20.8923368 16.4237596,20.8923368 C16.246436,20.8923368 13.6082234,14.3679874 12.3275032,12.2436244 C11.0467829,10.1192614 10.1915147,9.00955801 10.1915147,6.95346464 Z" id="path-41"></path>
        <path d="M18.5092326,23.3095832 C18.8677184,23.4670459 20.5526196,19.0921556 24.5052429,17.528103 C28.4578663,15.9640505 31.0027245,10.8336093 27.4517661,8.21152357 C23.9008076,5.58943779 18.1507469,23.1521206 18.5092326,23.3095832 Z" id="path-42"></path>
    </defs>
    <g id="页面-1" stroke="none" stroke-width="1" fill="none" fill-rule="evenodd">
        <g id="身份认证失效" transform="translate(-481.000000, -160.000000)">
            <g id="编组-7" transform="translate(440.000000, 160.003438)">
                <g id="身份认证失效" transform="translate(41.000000, 0.000000)">
                    <g id="编组-9" opacity="0.600000024" transform="translate(371.000000, 172.996562)">
                        <g id="矩形">
                            <use fill="currentColor" xlink:href="#path-1"></use>
                            <use fill-opacity="0.7" fill="#FFFFFF" xlink:href="#path-1"></use>
                        </g>
                        <g id="矩形">
                            <use fill="currentColor" xlink:href="#path-2"></use>
                            <use fill-opacity="0.8" fill="#FFFFFF" xlink:href="#path-2"></use>
                        </g>
                        <g id="形状结合">
                            <use fill="currentColor" xlink:href="#path-3"></use>
                            <use fill-opacity="0.7" fill="#FFFFFF" xlink:href="#path-3"></use>
                        </g>
                        <g id="椭圆形" transform="translate(39.233223, 40.057801) rotate(45.000000) translate(-39.233223, -40.057801) ">
                            <use fill="currentColor" xlink:href="#path-4"></use>
                            <use fill-opacity="0.4" fill="#FFFFFF" xlink:href="#path-4"></use>
                        </g>
                        <g id="椭圆形备份-10" transform="translate(32.877683, 11.116723) rotate(45.000000) translate(-32.877683, -11.116723) ">
                            <use fill="currentColor" xlink:href="#path-5"></use>
                            <use fill-opacity="0.4" fill="#FFFFFF" xlink:href="#path-5"></use>
                        </g>
                        <g id="椭圆形备份-9" transform="translate(10.587355, 26.653666) scale(-1, 1) rotate(45.000000) translate(-10.587355, -26.653666) ">
                            <use fill="currentColor" xlink:href="#path-6"></use>
                            <use fill-opacity="0.4" fill="#FFFFFF" xlink:href="#path-6"></use>
                        </g>
                        <g id="矩形">
                            <use fill="currentColor" xlink:href="#path-7"></use>
                            <use fill-opacity="0.7" fill="#FFFFFF" xlink:href="#path-7"></use>
                        </g>
                    </g>
                    <g id="编组-8" transform="translate(20.461003, 40.178651)">
                        <g id="路径-48">
                            <use fill="currentColor" xlink:href="#path-8"></use>
                            <use fill-opacity="0.9" fill="#FFFFFF" xlink:href="#path-8"></use>
                        </g>
                        <g id="形状结合">
                            <use fill="currentColor" xlink:href="#path-9"></use>
                            <use fill-opacity="0.8" fill="#FFFFFF" xlink:href="#path-9"></use>
                        </g>
                        <g id="形状结合">
                            <use fill="currentColor" xlink:href="#path-10"></use>
                            <use fill-opacity="0.9" fill="#FFFFFF" xlink:href="#path-10"></use>
                        </g>
                        <g id="矩形">
                            <use fill="currentColor" xlink:href="#path-11"></use>
                            <use fill-opacity="0.8" fill="#FFFFFF" xlink:href="#path-11"></use>
                        </g>
                        <g id="椭圆形">
                            <use fill="currentColor" xlink:href="#path-12"></use>
                            <use fill-opacity="0.75" fill="#FFFFFF" xlink:href="#path-12"></use>
                        </g>
                        <g id="编组-2" transform="translate(60.798388, 63.813413) rotate(-15.000000) translate(-60.798388, -63.813413) translate(12.057778, 10.808914)">
                            <g id="编组-23" transform="translate(47.197100, 47.197100) rotate(-45.000000) translate(-47.197100, -47.197100) translate(8.499186, 19.148235)">
                                <g id="矩形">
                                    <use fill="currentColor" xlink:href="#path-13"></use>
                                    <use fill-opacity="0.9" fill="#FFFFFF" xlink:href="#path-13"></use>
                                </g>
                                <g id="形状结合">
                                    <use fill="currentColor" xlink:href="#path-14"></use>
                                    <use fill-opacity="0.9" fill="#FFFFFF" xlink:href="#path-14"></use>
                                </g>
                                <g id="形状结合" transform="translate(27.718116, 27.718116) rotate(45.000000) translate(-27.718116, -27.718116) ">
                                    <use fill="currentColor" xlink:href="#path-15"></use>
                                    <use fill-opacity="0.85" fill="#FFFFFF" xlink:href="#path-15"></use>
                                </g>
                                <g id="椭圆形">
                                    <use fill="currentColor" xlink:href="#path-16"></use>
                                    <use fill-opacity="0.75" fill="#FFFFFF" xlink:href="#path-16"></use>
                                </g>
                                <path d="M45.6787479,45.6841955 C49.4742256,45.6939301 53.1091844,45.8081202 56.4737495,46.0093852 C54.8389431,50.6391131 50.4191307,53.8968396 45.1758359,53.821648 C40.0567809,53.7482381 35.6318349,50.5191957 33.7790983,46.0126215 C37.3119641,45.7997894 41.1447416,45.6835169 45.1491943,45.6835169 Z" id="形状结合" fill="#FFFFFF"></path>
                            </g>
                            <g id="矩形">
                                <use fill="currentColor" xlink:href="#path-17"></use>
                                <use fill-opacity="0.75" fill="#FFFFFF" xlink:href="#path-17"></use>
                            </g>
                            <g id="椭圆形">
                                <use fill="currentColor" xlink:href="#path-18"></use>
                                <use fill-opacity="0.75" fill="#FFFFFF" xlink:href="#path-18"></use>
                            </g>
                            <g id="矩形">
                                <use fill="currentColor" xlink:href="#path-19"></use>
                                <use fill-opacity="0.75" fill="#FFFFFF" xlink:href="#path-19"></use>
                            </g>
                            <g id="矩形备份-22" transform="translate(86.481220, 75.508998) rotate(-45.000000) translate(-86.481220, -75.508998) ">
                                <use fill="currentColor" xlink:href="#path-20"></use>
                                <use fill-opacity="0.75" fill="#FFFFFF" xlink:href="#path-20"></use>
                            </g>
                            <g id="矩形备份-23" transform="translate(91.481220, 60.508998) rotate(90.000000) translate(-91.481220, -60.508998) ">
                                <use fill="currentColor" xlink:href="#path-21"></use>
                                <use fill-opacity="0.75" fill="#FFFFFF" xlink:href="#path-21"></use>
                            </g>
                        </g>
                    </g>
                    <g id="编组-5" transform="translate(0.000000, 262.996562)">
                        <rect id="矩形" fill="#F1F4F8" x="0" y="0" width="480" height="10" rx="2"></rect>
                        <rect id="矩形" fill="#DBDEE3" x="50" y="10" width="380" height="4" rx="1"></rect>
                        <rect id="矩形" fill="url(#linearGradient-22)" x="71" y="14" width="15" height="32"></rect>
                        <rect id="矩形备份" fill="url(#linearGradient-22)" x="393" y="14" width="15" height="32"></rect>
                        <rect id="矩形" fill-opacity="0.2" fill="#ADADAD" x="71" y="14" width="15" height="4"></rect>
                        <rect id="矩形备份-2" fill-opacity="0.2" fill="#ADADAD" x="393" y="14" width="15" height="4"></rect>
                    </g>
                    <g id="编组-4" transform="translate(135.000000, 92.996562)">
                        <path d="M4,0 L206,0 C208.209139,-1.61026889e-14 210,1.790861 210,4 L210,128 L210,128 L0,128 L0,4 C-2.705415e-16,1.790861 1.790861,4.05812251e-16 4,0 Z" id="矩形" fill="#E9ECF0"></path>
                        <path d="M0,128 L210,128 L210,138 C210,140.209139 208.209139,142 206,142 L4,142 C1.790861,142 -1.73547709e-16,140.209139 0,138 L0,128 L0,128 Z" id="矩形" fill="#F1F5FA"></path>
                        <circle id="椭圆形" fill="#CDD0D4" cx="106" cy="135" r="3"></circle>
                        <path d="M65,162 C81.3918863,162 89.5970214,155.333333 89.6154053,142 L120.384595,142 C120.402979,155.333333 128.608114,162 145,162" id="形状结合" fill="url(#linearGradient-23)"></path>
                        <path d="M57,162 L153,162 C154.104569,162 155,162.895431 155,164 L155,170 L155,170 L55,170 L55,164 C55,162.895431 55.8954305,162 57,162 Z" id="矩形" fill="#E9EDF1"></path>
                        <rect id="矩形备份-36" fill="#FFFFFF" x="4" y="4" width="202" height="120" rx="2"></rect>
                        <g id="编组-45" transform="translate(4.000000, 4.000000)" opacity="0.699999988">
                            <g id="矩形-+-矩形-+-矩形蒙版">
                                <mask id="mask-25" fill="white">
                                    <use xlink:href="#path-24"></use>
                                </mask>
                                <use id="蒙版" fill="#F5F7F9" xlink:href="#path-24"></use>
                                <polygon id="矩形" fill-opacity="0.8" fill="#FFFFFF" mask="url(#mask-25)" points="153 -6.3699046e-14 183 -6.3699046e-14 63 120 33 120"></polygon>
                                <polygon id="矩形" fill-opacity="0.8" fill="#FFFFFF" mask="url(#mask-25)" points="53 -6.3699046e-14 123 -6.3699046e-14 3 120 -67 120"></polygon>
                                <polygon id="矩形" fill-opacity="0.8" fill="#FFFFFF" mask="url(#mask-25)" points="233 -6.3699046e-14 283 -6.3699046e-14 163 120 113 120"></polygon>
                            </g>
                        </g>
                        <g id="编组" transform="translate(58.000000, 82.000000)" fill="currentColor" font-family="EffraMedium-Regular, Effra Medium" font-size="20" font-weight="normal" line-spacing="26">
                            <text id="DISABLED">
                                <tspan x="0.26" y="19">DISABLED</tspan>
                            </text>
                        </g>
                        <g id="编组-2备份" transform="translate(81.000000, 24.000000)">
                            <g id="椭圆形">
                                <use fill="currentColor" xlink:href="#path-26"></use>
                                <use fill-opacity="0.8" fill="#FFFFFF" xlink:href="#path-26"></use>
                            </g>
                            <path d="M24,30.2608696 C29.7629713,30.2608696 34.4347826,35.8670431 34.4347826,42.7826087 C34.4347826,42.948512 34.4320939,43.1136617 34.426766,43.2779985 C31.3261429,44.9587186 27.7745187,45.9130435 24,45.9130435 C20.2254612,45.9130435 16.6738194,44.9587085 13.5732009,43.2781649 C13.5679061,43.1136617 13.5652174,42.948512 13.5652174,42.7826087 C13.5652174,35.8670431 18.2370287,30.2608696 24,30.2608696 Z" id="路径" fill="currentColor"></path>
                            <path d="M31.9755356,34.7077356 L31.9611882,34.7148644 C30.4195662,35.4893794 27.7799802,36 24.7826087,36 C20.9286883,36 17.6662574,35.1558441 16.5686575,33.9919795 C18.2184705,31.9840394 20.4292498,30.6413635 22.8960992,30.3301073 C23.3447146,30.2965523 23.8065063,30.2747926 24.2784947,30.2657078 C27.3645269,30.3621886 30.1170959,32.0671956 31.9755356,34.7077356 Z" id="形状结合" fill-opacity="0.1" fill="#000000"></path>
                            <g id="矩形">
                                <use fill="currentColor" xlink:href="#path-27"></use>
                                <use fill-opacity="0.4" fill="#FFFFFF" xlink:href="#path-27"></use>
                            </g>
                            <g id="矩形备份-2" transform="translate(25.565217, 37.565217) scale(-1, 1) translate(-25.565217, -37.565217) ">
                                <use fill="currentColor" xlink:href="#path-28"></use>
                                <use fill-opacity="0.4" fill="#FFFFFF" xlink:href="#path-28"></use>
                            </g>
                            <g id="矩形">
                                <use fill="currentColor" xlink:href="#path-29"></use>
                                <use fill-opacity="0.4" fill="#FFFFFF" xlink:href="#path-29"></use>
                            </g>
                            <ellipse id="椭圆形备份-2" fill="currentColor" cx="24" cy="22.9565217" rx="13.5652174" ry="12.5217391"></ellipse>
                            <ellipse id="椭圆形备份-2" fill="#FFFFFF" cx="24" cy="22.9565217" rx="11.4782609" ry="10.4347826"></ellipse>
                            <path d="M24.0034415,20.8695879 C24.1475032,20.8714886 24.2627475,20.9898145 24.26087,21.1338762 C24.2497959,21.9714871 23.7865004,22.4347826 22.9565217,22.4347826 C22.1265431,22.4347826 21.6632476,21.9714871 21.6521734,21.1338762 C21.6502959,20.9898145 21.7655403,20.8714886 21.909602,20.8695879 C22.0536638,20.8676873 22.1719897,20.9829316 22.1738903,21.1269933 C22.1811955,21.6806868 22.4135521,21.9130435 22.9565217,21.9130435 C23.4994914,21.9130435 23.731848,21.6806868 23.7391531,21.1269933 C23.7410538,20.9829316 23.8593797,20.8676873 24.0034415,20.8695879 Z" id="路径-93" fill="currentColor" fill-rule="nonzero"></path>
                            <path d="M26.090398,20.8695879 C26.2344597,20.8714886 26.3497041,20.9898145 26.3478266,21.1338762 C26.3367524,21.9714871 25.8734569,22.4347826 25.0434783,22.4347826 C24.2134996,22.4347826 23.7502041,21.9714871 23.73913,21.1338762 C23.7372525,20.9898145 23.8524968,20.8714886 23.9965585,20.8695879 C24.1406203,20.8676873 24.2589462,20.9829316 24.2608469,21.1269933 C24.268152,21.6806868 24.5005086,21.9130435 25.0434783,21.9130435 C25.5864479,21.9130435 25.8188045,21.6806868 25.8261097,21.1269933 C25.8280103,20.9829316 25.9463362,20.8676873 26.090398,20.8695879 Z" id="路径-93备份" fill="currentColor" fill-rule="nonzero"></path>
                            <ellipse id="椭圆形备份-3" fill="currentColor" cx="29.2173913" cy="19.5652174" rx="1.04347826" ry="1.30434783"></ellipse>
                            <ellipse id="椭圆形备份-4" fill="currentColor" cx="18.7826087" cy="19.5652174" rx="1.04347826" ry="1.30434783"></ellipse>
                            <g id="矩形">
                                <use fill="currentColor" xlink:href="#path-30"></use>
                                <use fill-opacity="0.8" fill="#FFFFFF" xlink:href="#path-30"></use>
                            </g>
                            <g id="矩形备份">
                                <use fill="currentColor" xlink:href="#path-31"></use>
                                <use fill-opacity="0.8" fill="#FFFFFF" xlink:href="#path-31"></use>
                            </g>
                            <path d="M29.2173913,11.8695652 L28.2324503,14.8246996 C27.0383827,14.2780368 25.5775977,13.9565217 24,13.9565217 C22.4224023,13.9565217 20.9616173,14.2780368 19.7675497,14.8246996 L18.7826087,11.8695652 L29.2173913,11.8695652 Z" id="形状结合" fill="currentColor"></path>
                            <circle id="椭圆形" fill="currentColor" cx="27.1304348" cy="7.30434783" r="1.04347826"></circle>
                            <path d="M26.9156279,6.89545485 L27.3452417,7.19150167 L27.2940461,7.26403369 C27.1614638,7.44936607 26.894641,7.81064494 26.8914849,7.81501131 C26.0649517,8.95849689 25.8397279,9.8203597 26.3310962,11.1254741 L25.8428169,11.3093085 C25.2919037,9.84603779 25.5381423,8.82611761 26.4096188,7.59197304 L26.8638375,6.96871628 C26.8853159,6.93874503 26.9031701,6.91353314 26.9156279,6.89545485 Z" id="路径-96" fill="currentColor" fill-rule="nonzero"></path>
                        </g>
                    </g>
                    <g id="元素/纸飞机/主色备份" transform="translate(440.087774, 29.996562) rotate(-25.000000) translate(-440.087774, -29.996562) translate(412.000000, 9.996562)">
                        <g id="路径-14">
                            <use fill="currentColor" xlink:href="#path-32"></use>
                            <use fill-opacity="0.4" fill="#FFFFFF" xlink:href="#path-32"></use>
                        </g>
                        <g id="路径-5">
                            <use fill="currentColor" xlink:href="#path-33"></use>
                            <use fill-opacity="0.2" fill="#FFFFFF" xlink:href="#path-33"></use>
                        </g>
                        <g id="路径-12">
                            <use fill="currentColor" xlink:href="#path-34"></use>
                            <use fill-opacity="0.2" fill="#000000" xlink:href="#path-34"></use>
                        </g>
                        <g id="路径-13">
                            <use fill="currentColor" xlink:href="#path-35"></use>
                            <use fill-opacity="0.2" fill="#FFFFFF" xlink:href="#path-35"></use>
                        </g>
                    </g>
                    <g id="路径-47" fill-rule="nonzero">
                        <use fill="currentColor" xlink:href="#path-37"></use>
                        <use fill="url(#linearGradient-36)" xlink:href="#path-37"></use>
                    </g>
                    <g id="编组-3" transform="translate(347.000000, 222.000000)">
                        <g id="编组-24" transform="translate(2.363062, 22.509804)">
                            <g id="矩形备份-3">
                                <use fill="currentColor" xlink:href="#path-38"></use>
                                <use fill-opacity="0.8" fill="#FFFFFF" xlink:href="#path-38"></use>
                            </g>
                            <g id="形状结合" transform="translate(15.510942, 9.245098) scale(-1, 1) translate(-15.510942, -9.245098) ">
                                <use fill="currentColor" xlink:href="#path-39"></use>
                                <use fill-opacity="0.7" fill="#FFFFFF" xlink:href="#path-39"></use>
                            </g>
                        </g>
                        <g id="编组-25">
                            <g id="路径-50">
                                <use fill="currentColor" xlink:href="#path-40"></use>
                                <use fill-opacity="0.4" fill="#FFFFFF" xlink:href="#path-40"></use>
                            </g>
                            <g id="路径-51">
                                <use fill="currentColor" xlink:href="#path-41"></use>
                                <use fill-opacity="0.4" fill="#FFFFFF" xlink:href="#path-41"></use>
                            </g>
                            <g id="路径-52">
                                <use fill="currentColor" xlink:href="#path-42"></use>
                                <use fill-opacity="0.4" fill="#FFFFFF" xlink:href="#path-42"></use>
                            </g>
                        </g>
                    </g>
                </g>
            </g>
        </g>
    </g>
</svg>
