<svg xmlns="http://www.w3.org/2000/svg" xmlns:xlink="http://www.w3.org/1999/xlink" width="18" height="19" viewBox="0 0 18 19" fill="none"><g opacity="1" transform="translate(0 0)  rotate(0 9 9.5)"><path id="矩形 1" fill-rule="evenodd" style="fill:#FFFFFF" transform="translate(0 0)  rotate(0 9 9)" opacity="0" d="M0,18L18,18L18,0L0,0L0,18Z " /><path id="圆形 1" fill-rule="evenodd" style="fill:#0A7209" transform="translate(1.44 1.44)  rotate(0 7.559999999999999 7.56)" opacity="1" d="M7.56,0C3.38,0 0,3.38 0,7.56C0,11.74 3.38,15.12 7.56,15.12C11.74,15.12 15.12,11.74 15.12,7.56C15.12,3.38 11.74,0 7.56,0Z " /><g opacity="1" transform="translate(6 1)  rotate(0 3.5 9)"><text><tspan x="0" y="12.76" font-size="11" line-height="0" fill="#FFFFFF" opacity="1" font-family="SourceHanSansCN-Bold" letter-spacing="0" >7</tspan></text></g></g></svg>