<?xml version="1.0" encoding="UTF-8"?>
<svg width="14px" height="14px" viewBox="0 0 14 14" version="1.1" xmlns="http://www.w3.org/2000/svg" xmlns:xlink="http://www.w3.org/1999/xlink">
    <!-- Generator: Sketch 61.2 (89653) - https://sketch.com -->
    <title>采购协议-normal</title>
    <desc>Created with Sketch.</desc>
    <g id="页面-2" stroke="none" stroke-width="1" fill="none" fill-rule="evenodd">
        <g id="采购协议-normal" fill-rule="nonzero">
            <path d="M14,0 L14,1 L13,1 L13,14 L1,14 L1,1 L0,1 L0,0 L14,0 Z M4.5,1 L2,1 L2,13 L12,13 L12,1 L9.5,1 L9.5,4.87785897 L7.106,3.458 L4.5,4.82813169 L4.5,1 Z M8.970588,8.152941 C10.0751575,8.152941 10.970588,9.0483715 10.970588,10.152941 C10.970588,11.2575105 10.0751575,12.152941 8.970588,12.152941 C7.8660185,12.152941 6.970588,11.2575105 6.970588,10.152941 C6.970588,9.0483715 7.8660185,8.152941 8.970588,8.152941 Z M8.970588,9.152941 C8.41830325,9.152941 7.970588,9.60065625 7.970588,10.152941 C7.970588,10.7052257 8.41830325,11.152941 8.970588,11.152941 C9.52287275,11.152941 9.970588,10.7052257 9.970588,10.152941 C9.970588,9.60065625 9.52287275,9.152941 8.970588,9.152941 Z M5.5,9 C5.77614237,9 6,9.22385763 6,9.5 C6,9.77614237 5.77614237,10 5.5,10 L3.5,10 C3.22385763,10 3,9.77614237 3,9.5 C3,9.22385763 3.22385763,9 3.5,9 L5.5,9 Z M10.5,6 C10.7761424,6 11,6.22385763 11,6.5 C11,6.77614237 10.7761424,7 10.5,7 L3.5,7 C3.22385763,7 3,6.77614237 3,6.5 C3,6.22385763 3.22385763,6 3.5,6 L10.5,6 Z M8.5,1 L5.5,1 L5.5,3.173 L7.13398199,2.31198963 L8.5,3.122 L8.5,1 Z" id="形状" fill="#6D7A80"></path>
            <path d="M8.970588,9.152941 C9.52287275,9.152941 9.970588,9.60065625 9.970588,10.152941 C9.970588,10.7052257 9.52287275,11.152941 8.970588,11.152941 C8.41830325,11.152941 7.970588,10.7052257 7.970588,10.152941 C7.970588,9.60065625 8.41830325,9.152941 8.970588,9.152941 Z M8.5,1 L8.5,3.122 L7.13398199,2.31198963 L5.5,3.173 L5.5,1 L8.5,1 Z" id="形状结合" fill="#A0A8AC"></path>
        </g>
    </g>
</svg>