<?xml version="1.0" encoding="UTF-8"?>
<svg width="290px" height="206px" viewBox="0 0 290 206" version="1.1" xmlns="http://www.w3.org/2000/svg" xmlns:xlink="http://www.w3.org/1999/xlink">
    <!-- Generator: Sketch 61.2 (89653) - https://sketch.com -->
    <title>暂无搜索内容</title>
    <desc>Created with Sketch.</desc>
    <defs>
        <linearGradient x1="50%" y1="58.0422539%" x2="60.6740759%" y2="43.1154514%" id="linearGradient-1">
            <stop stop-color="#F6FAFF" offset="0%"></stop>
            <stop stop-color="#FFFFFF" offset="100%"></stop>
        </linearGradient>
        <linearGradient x1="58.4724457%" y1="92.9398934%" x2="58.4724457%" y2="-11.7087326%" id="linearGradient-2">
            <stop stop-color="#EEF4FF" offset="0%"></stop>
            <stop stop-color="#D2E4FE" offset="100%"></stop>
        </linearGradient>
        <linearGradient x1="93.4960355%" y1="44.8857184%" x2="58.4724457%" y2="50%" id="linearGradient-3">
            <stop stop-color="#E2EDFF" offset="0%"></stop>
            <stop stop-color="#DCEAFF" offset="100%"></stop>
        </linearGradient>
        <linearGradient x1="60.4325258%" y1="90.8809296%" x2="39.8110742%" y2="4.62813032%" id="linearGradient-4">
            <stop stop-color="#F7FAFF" offset="0%"></stop>
            <stop stop-color="#E3EEFF" offset="100%"></stop>
        </linearGradient>
        <linearGradient x1="47.5744553%" y1="18.1373303%" x2="56.0633794%" y2="82.9800687%" id="linearGradient-5">
            <stop stop-color="#F7FAFF" offset="0%"></stop>
            <stop stop-color="#E3EEFF" offset="100%"></stop>
        </linearGradient>
        <path d="M150.831581,10.2463054 L214.924408,43.2272112 C214.930635,78.8639857 214.930635,105.628423 214.924408,123.520523 C210.163353,150.548878 199.735676,152.648505 196.914607,152.669951 C191.547679,152.36225 185.637884,131.823685 172.056093,130.175371 C151.207753,127.393648 141.844641,119.870808 141.914894,116.073106 C142.299395,114.051753 150.812908,111.526309 150.831581,107.760727 C150.831581,101.288334 150.831581,68.7835271 150.831581,10.2463054 Z" id="path-6"></path>
        <filter x="-1.4%" y="-0.7%" width="104.1%" height="102.8%" filterUnits="objectBoundingBox" id="filter-7">
            <feOffset dx="1" dy="2" in="SourceAlpha" result="shadowOffsetOuter1"></feOffset>
            <feColorMatrix values="0 0 0 0 0.85708649   0 0 0 0 0.908694146   0 0 0 0 1  0 0 0 1 0" type="matrix" in="shadowOffsetOuter1"></feColorMatrix>
        </filter>
        <linearGradient x1="93.4960355%" y1="35.3913641%" x2="58.4724457%" y2="50%" id="linearGradient-8">
            <stop stop-color="#E2EDFF" offset="0%"></stop>
            <stop stop-color="#DCEAFF" offset="100%"></stop>
        </linearGradient>
        <polygon id="path-9" points="166.595745 23.5295845 166.595745 10.2463054 201.560284 30.4739083 201.560284 42.0098522"></polygon>
        <filter x="-1.4%" y="-1.6%" width="105.7%" height="103.1%" filterUnits="objectBoundingBox" id="filter-10">
            <feOffset dx="1" dy="0" in="SourceAlpha" result="shadowOffsetOuter1"></feOffset>
            <feColorMatrix values="0 0 0 0 0.784313725   0 0 0 0 0.862745098   0 0 0 0 1  0 0 0 1 0" type="matrix" in="shadowOffsetOuter1"></feColorMatrix>
        </filter>
        <linearGradient x1="58.4724457%" y1="50%" x2="93.0516135%" y2="61.3138418%" id="linearGradient-11">
            <stop stop-color="#E8F1FF" offset="0%"></stop>
            <stop stop-color="#CBDEFB" offset="100%"></stop>
        </linearGradient>
        <linearGradient x1="41.9227826%" y1="20.8243875%" x2="77.4000687%" y2="74.4515107%" id="linearGradient-12">
            <stop stop-color="#F7FAFF" offset="0%"></stop>
            <stop stop-color="#DEEBFF" offset="100%"></stop>
        </linearGradient>
        <linearGradient x1="50%" y1="0%" x2="50%" y2="100%" id="linearGradient-13">
            <stop stop-color="#E7F0FF" offset="0%"></stop>
            <stop stop-color="#DCEAFF" offset="100%"></stop>
        </linearGradient>
        <linearGradient x1="61.0013809%" y1="75.039674%" x2="39.005906%" y2="56.0632956%" id="linearGradient-14">
            <stop stop-color="#EEF6FF" offset="0%"></stop>
            <stop stop-color="#DEEAF8" offset="100%"></stop>
        </linearGradient>
    </defs>
    <g id="控件" stroke="none" stroke-width="1" fill="none" fill-rule="evenodd">
        <g id="编组">
            <g id="分组-4">
                <g id="分组">
                    <path d="M56.1685805,109.844596 C-0.119307999,109.844596 -47.2267158,205.063487 86.9110138,180.475565 C107.810108,195.224321 127.042527,202.722832 168.064557,197.715409 C180.866404,205.655751 282.009465,223.096523 267.77919,158.951009 C318.624441,146.519764 281.615562,74.4991298 162.886639,107.550228 C130.031742,84.7128008 68.4886374,60.4057577 56.1685805,109.844596 Z" id="路径-copy" fill="#E7EEFB"></path>
                    <path d="M56.1685805,105.746074 C-0.119307999,105.746074 -47.2267158,200.964965 86.9110138,176.377043 C107.810108,191.125799 127.042527,198.62431 168.064557,193.616886 C180.866404,201.557229 282.009465,218.998001 267.77919,154.852486 C318.624441,142.421242 281.615562,70.4006077 162.886639,103.451706 C130.031742,80.6142786 68.4886374,56.3072356 56.1685805,105.746074 Z" id="路径" fill="url(#linearGradient-1)"></path>
                    <polygon id="路径-3" fill="url(#linearGradient-2)" points="219.042553 40.7411122 225.212766 36.8866995 225.212766 147.463087 219.042553 150.62069"></polygon>
                    <polygon id="路径-4-copy" fill="#C8DCFF" points="177.907801 18.2378864 177.907801 5.12315271 211.329787 23.2160903 211.329787 37.91133"></polygon>
                    <polygon id="路径-2" fill="url(#linearGradient-3)" points="147.056738 4.05824976 218.413696 42.0098522 225.212766 37.0596117 154.392766 0"></polygon>
                    <polygon id="矩形" fill="url(#linearGradient-4)" points="148.085106 4.09852217 219.042553 41.9067477 219.042553 150.62069 148.085106 112.812464"></polygon>
                    <g id="矩形">
                        <use fill="black" fill-opacity="1" filter="url(#filter-7)" xlink:href="#path-6"></use>
                        <use fill="url(#linearGradient-5)" fill-rule="evenodd" xlink:href="#path-6"></use>
                    </g>
                    <g id="路径-4">
                        <use fill="black" fill-opacity="1" filter="url(#filter-10)" xlink:href="#path-9"></use>
                        <use fill="url(#linearGradient-8)" fill-rule="evenodd" xlink:href="#path-9"></use>
                    </g>
                    <polygon id="路径-5" fill="#C8DCFF" points="167.624113 10.4771353 177.907801 5.63546798 211.329787 23.2160903 202.588652 30.557705"></polygon>
                    <polygon id="路径-5-copy" fill="url(#linearGradient-11)" points="166.595745 10.4771353 178.003515 5.12315271 210.815603 22.931539 201.560284 30.557705"></polygon>
                    <path d="M231.382979,161.891626 C235.034455,161.891626 238.192048,164.016987 239.698014,167.104056 C243.775369,168.076459 246.808511,171.759988 246.808511,176.155561 C246.808511,181.293227 242.664763,185.458128 237.553191,185.458128 C235.182736,185.458128 233.020419,184.562435 231.382979,183.089405 C229.745538,184.562435 227.583221,185.458128 225.212766,185.458128 C220.101194,185.458128 215.957447,181.293227 215.957447,176.155561 C215.957447,171.759988 218.990588,168.076459 223.067943,167.104056 C224.573909,164.016987 227.731502,161.891626 231.382979,161.891626 Z" id="路径" fill="url(#linearGradient-12)"></path>
                    <path d="M72.1901986,143.142922 L78.1560284,138.325123 C76.3003588,142.629357 74.6386409,145.43974 73.1708746,146.756271 C73.1708746,149.599293 73.1708746,151.57052 73.1708746,152.669951 L71.2154682,152.669951 L71.2154682,146.756271 C69.7680518,143.758842 68.3108862,141.707781 66.8439716,140.60309 C68.0752366,140.748191 69.8573122,141.594802 72.1901986,143.142922 Z" id="路径-13-copy" fill="#DBE8FF"></path>
                    <path d="M71.9858156,123.980296 C75.637292,123.980296 78.7948848,126.105657 80.3008512,129.192726 C84.378206,130.165129 87.4113475,133.848658 87.4113475,138.244231 C87.4113475,143.381897 83.2676,147.546798 78.1560284,147.546798 C75.7855732,147.546798 73.6232558,146.651105 71.9858156,145.178075 C70.3483754,146.651105 68.186058,147.546798 65.8156028,147.546798 C60.7040312,147.546798 56.5602837,143.381897 56.5602837,138.244231 C56.5602837,133.848658 59.5934252,130.165129 63.67078,129.192726 C65.1767464,126.105657 68.3343392,123.980296 71.9858156,123.980296 Z" id="路径-copy-2" fill="url(#linearGradient-12)"></path>
                    <path d="M231.587362,181.054252 L237.553191,176.236453 C235.697522,180.540687 234.035804,183.35107 232.568038,184.667602 C232.568038,187.510623 232.568038,189.48185 232.568038,190.581281 L230.612631,190.581281 L230.612631,184.667602 C229.165215,181.670172 227.708049,179.619111 226.241135,178.51442 C227.4724,178.659521 229.254475,179.506132 231.587362,181.054252 Z" id="路径-13" fill="#DBE8FF"></path>
                </g>
            </g>
            <g id="分组-3" transform="translate(148.516133, 84.185319) rotate(16.000000) translate(-148.516133, -84.185319) translate(134.118970, 65.741969)">
                <ellipse id="椭圆形" stroke="url(#linearGradient-13)" fill-opacity="0.497027853" fill="#FFFFFF" cx="14.1028913" cy="14.1229345" rx="13.8829787" ry="13.320197"></ellipse>
                <rect id="矩形" stroke="#DCEAFF" fill="#DCEAFF" x="12.6529901" y="27.6955541" width="2.08510638" height="8.22167488"></rect>
            </g>
            <g id="分组-2" transform="translate(113.120567, 91.192118)">
                <rect id="矩形" fill="#FFF3D1" x="5.14184397" y="80.9458128" width="3.08510638" height="5.12315271"></rect>
                <rect id="矩形-copy" fill="#FFF3D1" x="13.3687943" y="80.9458128" width="3.08510638" height="5.12315271"></rect>
                <path d="M4.11347518,45.0348292 L4.11347518,60.6626924 C5.91946538,64.1856124 5.91946538,66.8702745 4.11347518,68.7166788 C4.33043661,71.1069384 4.33043661,75.52486 4.11347518,81.9704433 L9.4448263,81.9704433 L10.7944218,56.6223867 L12.1128932,56.6223867 C12.5228783,57.5780769 12.7278708,58.0559221 12.7278708,58.0559221 L12.854354,81.9356036 L17.8977886,81.9704433 L17.8977886,75.6200591 L18.4730332,73.080083 L19.5390071,43.0344828 L4.11347518,45.0348292 Z" id="路径-11" fill="#D7E5FA"></path>
                <path d="M13.9372058,5.87587543 C14.172887,7.26648874 14.8424632,8.07912685 15.9459345,8.31378976 C17.0494058,8.54845267 17.1270712,10.3326909 16.1789305,13.6665044 L13.9415963,13.6652476 L13.9421672,14.6780306 L12.8051196,14.6773919 L12.8059341,16.122457 L9.641688,16.1206796 L9.64030262,13.6628316 L9.63967752,12.553825 L9.63894405,11.2525485 L9.63780193,9.22627895 L11.7397945,9.22745965 L11.7380358,6.10736689 L12.8001582,5.87523674 L13.9372058,5.87587543 Z" id="路径-6" fill="#FFF3D1" transform="translate(13.237000, 10.998847) rotate(-9.000000) translate(-13.237000, -10.998847) "></path>
                <path d="M16.2919836,6.63528877 C14.6952111,3.13738937 13.2368479,1.2713175 11.9168939,1.03707314 C11.7123293,1.67789702 11.6758522,2.426562 11.8074625,3.28306809 C5.39726774,5.5903672 4.30331803,9.27482823 8.52561333,14.3364512 C10.6970048,14.3644697 11.4078478,14.364869 10.6581421,14.3376491 L11.8130899,13.2668124 L11.8119476,11.2402378 L10.6562738,11.0231571 L10.6556139,9.85228394 L12.8454705,9.853514 L12.8443521,7.86937431 L16.2919836,6.63528877 Z" id="路径-7" fill="#979797" transform="translate(11.151254, 7.697421) rotate(-9.000000) translate(-11.151254, -7.697421) "></path>
                <path d="M8.37526848,15.3694581 L10.6972196,16.1747789 L14.9808219,16.1747789 C18.7694659,29.8387518 20.8685113,38.0867222 21.2779583,40.91869 C21.8921287,45.1666417 23.6040239,50.6012046 3.20906505,50.1842888 C-2.38649975,47.8069449 -0.664431937,36.2020013 8.37526848,15.3694581 Z" id="路径-8" fill="url(#linearGradient-14)"></path>
                <path d="M11.828132,21.726429 C14.0954281,20.3515272 18.1520758,20.3515272 23.9980752,21.726429 L27.2319628,10.328273 L29.822695,11.270936 L27.3279526,27.4826337 L12.515295,28.6896552 C9.78989029,25.4224062 9.56083595,23.1013308 11.828132,21.726429 Z" id="路径-9" fill="#D0DEEE"></path>
                <polygon id="路径-10" fill="#FFF3D1" points="27.7659574 10.2463054 27.7659574 8.19704433 28.7943262 7.17241379 30.6551967 7.17241379 30.6551967 9.09975112 31.8794326 9.09975112 30.6551967 10.7246162 29.3085106 11.1453108 27.7659574 10.7586207"></polygon>
                <path d="M3.08510638,84.3318207 L3.08510638,88.8265129 L4.18281517,90.0093156 L7.27910003,90.0093156 L11.5508778,85.836299 C11.4473218,87.1523587 11.5402055,88.1490967 11.8295288,88.8265129 C12.1188522,89.5039292 12.6258446,90.2924643 13.3505059,91.1921182 L14.8909317,91.1921182 L19.3953374,87.8802286 L22.6241135,86.1243619 L21.5619409,85.278105 L20.5819877,84.3318207 L16.5504929,85.278105 L15.891312,83.149018 L14.3915862,82.9950739 L12.8503888,83.7391897 L7.27910003,84.3318207 L7.27910003,83.149018 L3.08510638,84.3318207 Z" id="路径-12" fill="#C2CFE2"></path>
            </g>
        </g>
        <rect id="矩形" fill="#D8D8D8" opacity="0" x="0" y="0" width="290" height="206"></rect>
    </g>
</svg>