<?xml version="1.0" encoding="UTF-8"?>
<svg width="14px" height="14px" viewBox="0 0 14 14" version="1.1" xmlns="http://www.w3.org/2000/svg" xmlns:xlink="http://www.w3.org/1999/xlink">
    <!-- Generator: Sketch 61.2 (89653) - https://sketch.com -->
    <title>需求池-normal</title>
    <desc>Created with Sketch.</desc>
    <g id="页面-2" stroke="none" stroke-width="1" fill="none" fill-rule="evenodd">
        <g id="需求池-normal" fill-rule="nonzero">
            <path d="M4,8 C4,9.65685425 5.34314575,11 7,11 C8.65685425,11 10,9.65685425 10,8 L14,8 L13,14 L1,14 L0,8 L4,8 Z M3.126,9 L1.18,9 L1.847,13 L12.152,13 L12.819,9 L10.873,9 L10.8306439,9.15525286 C10.3533095,10.7401997 8.91920818,11.9105837 7.19964034,11.9951047 L7,12 C5.19252264,12 3.66504955,10.8011592 3.16935611,9.15525286 L3.126,9 Z M6,7 C6.55228475,7 7,7.44771525 7,8 C7,8.55228475 6.55228475,9 6,9 C5.44771525,9 5,8.55228475 5,8 C5,7.44771525 5.44771525,7 6,7 Z M9,4 C10.1045695,4 11,4.8954305 11,6 C11,7.1045695 10.1045695,8 9,8 C7.8954305,8 7,7.1045695 7,6 C7,4.8954305 7.8954305,4 9,4 Z M9,5 C8.44771525,5 8,5.44771525 8,6 C8,6.55228475 8.44771525,7 9,7 C9.55228475,7 10,6.55228475 10,6 C10,5.44771525 9.55228475,5 9,5 Z M4.5,2 C5.88071187,2 7,3.11928813 7,4.5 C7,5.88071187 5.88071187,7 4.5,7 C3.11928813,7 2,5.88071187 2,4.5 C2,3.11928813 3.11928813,2 4.5,2 Z M4.5,3 C3.67157288,3 3,3.67157288 3,4.5 C3,5.32842712 3.67157288,6 4.5,6 C5.32842712,6 6,5.32842712 6,4.5 C6,3.67157288 5.32842712,3 4.5,3 Z M8,0.5 C8.82842712,0.5 9.5,1.17157288 9.5,2 C9.5,2.82842712 8.82842712,3.5 8,3.5 C7.17157288,3.5 6.5,2.82842712 6.5,2 C6.5,1.17157288 7.17157288,0.5 8,0.5 Z M8,1.5 C7.72385763,1.5 7.5,1.72385763 7.5,2 C7.5,2.27614237 7.72385763,2.5 8,2.5 C8.27614237,2.5 8.5,2.27614237 8.5,2 C8.5,1.72385763 8.27614237,1.5 8,1.5 Z" id="形状" fill="#6D7A80"></path>
            <path d="M9,5 C9.55228475,5 10,5.44771525 10,6 C10,6.55228475 9.55228475,7 9,7 C8.44771525,7 8,6.55228475 8,6 C8,5.44771525 8.44771525,5 9,5 Z M4.5,3 C5.32842712,3 6,3.67157288 6,4.5 C6,5.32842712 5.32842712,6 4.5,6 C3.67157288,6 3,5.32842712 3,4.5 C3,3.67157288 3.67157288,3 4.5,3 Z" id="形状结合" fill="#A0A8AC"></path>
        </g>
    </g>
</svg>