<?xml version="1.0" encoding="UTF-8"?>
<svg width="290px" height="206px" viewBox="0 0 290 206" version="1.1" xmlns="http://www.w3.org/2000/svg" xmlns:xlink="http://www.w3.org/1999/xlink">
    <!-- Generator: Sketch 61.2 (89653) - https://sketch.com -->
    <title>暂无风险日报监控（暂无工作报表）</title>
    <desc>Created with Sketch.</desc>
    <defs>
        <linearGradient x1="50%" y1="58.0461016%" x2="60.6740759%" y2="43.1121576%" id="linearGradient-1">
            <stop stop-color="#F6FAFF" offset="0%"></stop>
            <stop stop-color="#FFFFFF" offset="100%"></stop>
        </linearGradient>
        <linearGradient x1="41.9227826%" y1="20.8104289%" x2="77.4000687%" y2="74.4632091%" id="linearGradient-2">
            <stop stop-color="#F7FAFF" offset="0%"></stop>
            <stop stop-color="#DEEBFF" offset="100%"></stop>
        </linearGradient>
        <linearGradient x1="53.0916644%" y1="-15.1498472%" x2="53.0916644%" y2="90.6763407%" id="linearGradient-3">
            <stop stop-color="#DCE9FF" offset="0%"></stop>
            <stop stop-color="#F6F9FF" offset="100%"></stop>
        </linearGradient>
        <path d="M5.14184397,9.2238806 L93.5815603,9.2238806 C96.4213223,9.2238806 98.7234043,11.5181428 98.7234043,14.3482587 L98.7234043,127.084577 C98.7234043,129.914693 96.4213223,132.208955 93.5815603,132.208955 L5.14184397,132.208955 C2.30208196,132.208955 0,129.914693 0,127.084577 L0,14.3482587 C0,11.5181428 2.30208196,9.2238806 5.14184397,9.2238806 Z" id="path-4"></path>
        <filter x="-4.6%" y="-1.2%" width="106.1%" height="102.4%" filterUnits="objectBoundingBox" id="filter-5">
            <feOffset dx="-3" dy="0" in="SourceAlpha" result="shadowOffsetOuter1"></feOffset>
            <feColorMatrix values="0 0 0 0 0.842783302   0 0 0 0 0.903744879   0 0 0 0 1  0 0 0 1 0" type="matrix" in="shadowOffsetOuter1"></feColorMatrix>
        </filter>
        <linearGradient x1="50%" y1="100%" x2="50%" y2="0%" id="linearGradient-6">
            <stop stop-color="#EDF4FF" offset="0%"></stop>
            <stop stop-color="#FAFCFF" offset="100%"></stop>
        </linearGradient>
        <linearGradient x1="50%" y1="100%" x2="50%" y2="0%" id="linearGradient-7">
            <stop stop-color="#DBE9FF" offset="0%"></stop>
            <stop stop-color="#FAFCFF" offset="100%"></stop>
        </linearGradient>
        <linearGradient x1="50%" y1="-12.4137371%" x2="50%" y2="100%" id="linearGradient-8">
            <stop stop-color="#DBE9FF" offset="0%"></stop>
            <stop stop-color="#F2F7FF" offset="100%"></stop>
        </linearGradient>
        <linearGradient x1="70.4501316%" y1="43.6501597%" x2="29.4374318%" y2="58.2185563%" id="linearGradient-9">
            <stop stop-color="#E8F0FF" offset="0%"></stop>
            <stop stop-color="#E8F1FF" offset="100%"></stop>
        </linearGradient>
        <linearGradient x1="59.2558018%" y1="75.039674%" x2="40.7503288%" y2="56.0632956%" id="linearGradient-10">
            <stop stop-color="#EEF6FF" offset="0%"></stop>
            <stop stop-color="#DEEAF8" offset="100%"></stop>
        </linearGradient>
    </defs>
    <g id="控件" stroke="none" stroke-width="1" fill="none" fill-rule="evenodd">
        <g id="编组备份">
            <g id="分组" transform="translate(0.000000, 76.865672)">
                <path d="M56.1685805,32.955925 C-0.119307999,32.955925 -47.2267158,128.197591 86.9110138,103.603788 C107.810108,118.356072 127.042527,125.856377 168.064557,120.847755 C180.866404,128.789997 282.009465,146.234941 267.77919,82.0740833 C318.624441,69.6398657 281.615562,-2.39799532 162.886639,30.6610085 C130.031742,7.81811862 68.4886374,-16.4947384 56.1685805,32.955925 Z" id="路径-copy" fill="#E7EEFB"></path>
                <path d="M56.1685805,28.8564225 C-0.119307999,28.8564225 -47.2267158,124.098089 86.9110138,99.504286 C107.810108,114.256569 127.042527,121.756874 168.064557,116.748253 C180.866404,124.690495 282.009465,142.135438 267.77919,77.9745808 C318.624441,65.5403632 281.615562,-6.49749781 162.886639,26.561506 C130.031742,3.71861613 68.4886374,-20.5942409 56.1685805,28.8564225 Z" id="路径" fill="url(#linearGradient-1)"></path>
                <path d="M231.382979,83.0149254 C235.034455,83.0149254 238.192048,85.1407951 239.698014,88.2286029 C243.775369,89.2012382 246.808511,92.8856481 246.808511,97.2822728 C246.808511,102.421167 242.664763,106.587065 237.553191,106.587065 C235.182736,106.587065 233.020419,105.691157 231.382979,104.217775 C229.745538,105.691157 227.583221,106.587065 225.212766,106.587065 C220.101194,106.587065 215.957447,102.421167 215.957447,97.2822728 C215.957447,92.8856481 218.990588,89.2012382 223.067943,88.2286029 C224.573909,85.1407951 227.731502,83.0149254 231.382979,83.0149254 Z" id="路径" fill="url(#linearGradient-2)"></path>
                <path d="M63.9632483,71.4358668 L69.929078,66.6169154 C68.0734085,70.9221788 66.4116906,73.7332338 64.9439243,75.0500804 C64.9439243,77.8937823 64.9439243,79.8654802 64.9439243,80.9651741 L62.9885179,80.9651741 L62.9885179,75.0500804 C61.5411014,72.0519337 60.0839359,70.0003827 58.6170213,68.8954272 C59.8482862,69.0405628 61.6303619,69.887376 63.9632483,71.4358668 Z" id="路径-13-copy" fill="#DBE8FF"></path>
                <path d="M63.7588652,52.2686567 C67.4103416,52.2686567 70.5679345,54.3945264 72.0739009,57.4823343 C76.1512557,58.4549696 79.1843972,62.1393794 79.1843972,66.5360042 C79.1843972,71.6748988 75.0406496,75.840796 69.929078,75.840796 C67.5586228,75.840796 65.3963055,74.9448886 63.7588652,73.471506 C62.121425,74.9448886 59.9591077,75.840796 57.5886525,75.840796 C52.4770809,75.840796 48.3333333,71.6748988 48.3333333,66.5360042 C48.3333333,62.1393794 51.3664748,58.4549696 55.4438296,57.4823343 C56.949796,54.3945264 60.1073889,52.2686567 63.7588652,52.2686567 Z" id="路径-copy-2" fill="url(#linearGradient-2)"></path>
                <path d="M231.587362,102.182135 L237.553191,97.3631841 C235.697522,101.668447 234.035804,104.479502 232.568038,105.796349 C232.568038,108.640051 232.568038,110.611749 232.568038,111.711443 L230.612631,111.711443 L230.612631,105.796349 C229.165215,102.798202 227.708049,100.746651 226.241135,99.6416959 C227.4724,99.7868314 229.254475,100.633645 231.587362,102.182135 Z" id="路径-13" fill="#DBE8FF"></path>
            </g>
            <g id="分组-2" transform="translate(91.524823, 0.000000)">
                <g id="矩形">
                    <use fill="black" fill-opacity="1" filter="url(#filter-5)" xlink:href="#path-4"></use>
                    <use fill="url(#linearGradient-3)" fill-rule="evenodd" xlink:href="#path-4"></use>
                </g>
                <rect id="矩形" fill="url(#linearGradient-6)" x="6.17021277" y="16.39801" width="86.3829787" height="96.3383085"></rect>
                <path d="M28.7943262,14.3482587 L69.929078,14.3482587 L69.929078,18.4975124 C69.929078,19.6020819 69.0336475,20.4975124 67.929078,20.4975124 L30.7943262,20.4975124 C29.6897567,20.4975124 28.7943262,19.6020819 28.7943262,18.4975124 L28.7943262,14.3482587 L28.7943262,14.3482587 Z" id="矩形-copy" fill="url(#linearGradient-7)"></path>
                <path d="M44.3227137,4.09950249 C44.7991264,1.76049002 46.8741213,-4.55136205e-15 49.3617021,-4.55136205e-15 C51.849283,-4.55136205e-15 53.9242778,1.76049002 54.4006906,4.09950249 L64.787234,4.09950249 C67.6269961,4.09950249 69.929078,6.39376471 69.929078,9.2238806 L69.929078,14.3482587 L28.7943262,14.3482587 L28.7943262,9.2238806 C28.7943262,6.39376471 31.0964082,4.09950249 33.9361702,4.09950249 L44.3227137,4.09950249 Z" id="Path" fill="url(#linearGradient-8)"></path>
                <ellipse id="椭圆形-copy" fill="#D5E5FF" cx="49.3617021" cy="5.12437811" rx="3.08510638" ry="3.07462687"></ellipse>
                <polyline id="路径-27" stroke="url(#linearGradient-9)" stroke-width="2" points="15.4255319 83.0149254 30.3368794 55.3432836 48.8475177 77.8905473 67.8723404 63.2085168 81.7553191 71.7412935"></polyline>
            </g>
            <g id="分组" transform="translate(195.390071, 141.945274) scale(-1, 1) translate(-195.390071, -141.945274) translate(184.078014, 101.462687)">
                <polygon id="路径-14" fill="#FFF3D1" points="7.15809199 12.4478317 8.00710675 14.0608471 8.00710675 15.3244638 10.1310154 15.3731343 12.0867251 12.4478317 13.3687943 11.7860697 13.3687943 11.2736318 12.8546099 10.3420817 13.3687943 8.72684578 13.3687943 7.19246812 12.0867251 7.19246812 12.0867251 6.27275971 11.3318342 5.22170677 10.1310154 4.09950249 6.17021277 8.72684578"></polygon>
                <rect id="矩形" fill="#FFE391" x="3.08510638" y="73.7910448" width="2.05673759" height="4.09950249"></rect>
                <rect id="矩形-copy" fill="#FFF3D1" x="11.3120567" y="73.7910448" width="2.05673759" height="4.09950249"></rect>
                <path d="M8.64477449,6.94330717 L9.77631706,6.94330717 L9.77631706,5.23361414 L11.3120567,5.01605584 L12.3404255,4.20171726 L12.3404255,3.07699002 L10.2777914,0 L9.05677417,0 L9.05677417,1.42164984 L8.01997766,1.88862691 L6.6983881,2.39354333 C1.73996495,6.23222839 1.88478908,9.19225789 7.13286049,11.2736318 C8.68560453,11.2165947 9.32690909,10.6518575 9.05677417,9.57942026 L7.71276596,8.16476633 L8.01997766,6.94330717 L8.64477449,6.94330717 Z" id="路径-15" fill="#979797"></path>
                <path d="M2.05673759,43.0999935 L2.05673759,52.9965679 L3.26319815,56.295426 C3.34488525,59.556337 3.14380849,61.7064161 2.65996787,62.7456634 C2.6887949,63.8573686 2.75958018,67.8807876 2.87232369,74.8159204 L7.59547342,74.8159204 C8.68607782,60.2211138 9.03748262,52.4921159 8.64968781,51.6289269 C9.29823546,51.6017637 9.61301763,51.6017637 9.5940343,51.6289269 L10.2856537,52.3666553 L10.9968958,74.8159204 L15.0740001,74.8159204 L16.4539007,59.5375516 L16.4539007,42.0199005 L2.05673759,43.0999935 Z" id="路径-17" fill="#D7E5FA"></path>
                <path d="M6.31437637,13.3233831 L11.1786231,14.5455397 C17.4822695,31.5792025 19.0581811,40.9630664 15.9063579,42.6971313 C10.1256223,44.2119499 3.76345224,44.1443567 0.819908925,43.99768 C-1.24359643,36.4043425 0.587892722,26.1795768 6.31437637,13.3233831 Z" id="路径-16" fill="url(#linearGradient-10)"></path>
                <polygon id="路径-18" fill="#C2CFE2" points="2.05673759 76.4959304 4.05718173 76.4959304 6.01771808 75.840796 6.01771808 77.1218905 10.0080308 76.4959304 10.0967389 77.1218905 11.3752049 77.1218905 12.8545865 75.840796 14.1112825 75.840796 14.1112825 77.1218905 18.1833397 77.1218905 19.5390071 77.7936729 19.5390071 79.0444076 14.8019532 80.3109592 12.2044222 80.3109592 11.4634011 80.9651741 10.0967389 80.9651741 10.0967389 78.4029851 8.81671696 78.4029851 4.75064597 80.9651741 2.72306454 80.9651741 2.72306454 80.3109592 2.05673759 80.3109592"></polygon>
                <path d="M9.16763589,17.237151 L17.9964539,18.4477612 L15.4255319,12.8109453 C15.7683215,11.4444444 16.4539007,10.9260647 17.4822695,11.2558059 C19.1962175,11.6093151 20.9101655,14.5190713 22.6241135,19.9850746 C22.2813239,22.7180763 17.9881635,23.9137645 9.74463229,23.5721393 C5.17953127,21.7992266 4.98719914,19.6875638 9.16763589,17.237151 Z" id="路径-19" fill="#D0DEEE"></path>
                <polygon id="路径-4" fill="#FFF3D1" points="16.9680851 11.2736318 15.4255319 9.73631841 14.3971631 9.73631841 14.3971631 10.2487562 13.3687943 10.2487562 13.3687943 11.7860697 15.9397163 12.2985075"></polygon>
            </g>
        </g>
        <rect id="矩形备份-4" fill="#D8D8D8" opacity="0" x="0" y="0" width="290" height="206"></rect>
    </g>
</svg>