<?xml version="1.0" encoding="UTF-8"?>
<svg width="16px" height="16px" viewBox="0 0 16 16" version="1.1" xmlns="http://www.w3.org/2000/svg" xmlns:xlink="http://www.w3.org/1999/xlink">
    <title>hover</title>
    <g id="工作台-配色" stroke="none" stroke-width="1" fill="none" fill-rule="evenodd">
        <g id="hover">
            <rect id="矩形" x="0" y="0" width="16" height="16"></rect>
            <path d="M6.35176187,0.478979461 L11.2015041,3.27897946 L9.63,5.99997946 L8.475,5.99997946 L9.83499266,3.64524743 L6.7173012,1.84524743 L4.318,5.99997946 L3.165,5.99997946 L6.35176187,0.478979461 Z" id="形状结合" fill="#1E3255" fill-rule="nonzero"></path>
            <path d="M9.48492424,0.996124343 L13.4447222,4.95592232 L12.4,5.99912434 L4.482,5.99912434 L9.48492424,0.996124343 Z" id="形状结合" fill="#1E3255" fill-rule="nonzero"></path>
            <path d="M9.48368485,2.4102107 L12.0292693,4.95579512 L10.985,5.9992107 L5.895,5.9992107 L9.48368485,2.4102107 Z" id="形状结合" fill="#29BECE" fill-rule="nonzero"></path>
            <rect id="矩形备份-4" stroke="#1E3255" x="1.5" y="6.5" width="13" height="8"></rect>
            <path d="M6.14644913,8.14644409 C6.32001672,7.97287897 6.58944126,7.95359575 6.78430844,8.08859319 L6.85355591,8.14644913 L8,9.294 L9.15122945,8.14594567 C9.32504172,7.97262559 9.5944932,7.95372247 9.78916973,8.08899469 L9.85833552,8.14694826 C10.0316556,8.32076054 10.0505587,8.59021201 9.9152865,8.78488855 L9.85733292,8.85405433 L7.99949653,10.7066298 L6.14644409,8.85355087 C5.95118333,8.65828733 5.95118559,8.34170484 6.14644913,8.14644409 Z" id="路径-2备份" fill="#1E3255" fill-rule="nonzero"></path>
            <polygon id="路径-3备份-2" fill="#1E3255" fill-rule="nonzero" points="6.0124961 9.50015618 10.0124961 9.60015618 9.9875039 10.5998438 5.9875039 10.4998438"></polygon>
            <polygon id="路径-3备份-3" fill="#1E3255" fill-rule="nonzero" points="10 11 10 12 6 12 6 11"></polygon>
            <polygon id="路径-4备份" fill="#1E3255" fill-rule="nonzero" points="8.5 9 8.5 13 7.5 13 7.5 9"></polygon>
        </g>
    </g>
</svg>