<?xml version="1.0" encoding="UTF-8"?>
<svg width="290px" height="206px" viewBox="0 0 290 206" version="1.1" xmlns="http://www.w3.org/2000/svg" xmlns:xlink="http://www.w3.org/1999/xlink">
    <!-- Generator: Sketch 61.2 (89653) - https://sketch.com -->
    <title>暂无系统消息</title>
    <desc>Created with Sketch.</desc>
    <defs>
        <linearGradient x1="90.0427136%" y1="25.3885131%" x2="16.0644973%" y2="75.2039652%" id="linearGradient-1">
            <stop stop-color="#EDF4FF" offset="0%"></stop>
            <stop stop-color="#FDFEFF" offset="100%"></stop>
        </linearGradient>
        <linearGradient x1="90.0427136%" y1="25.3885131%" x2="16.0644973%" y2="75.2039652%" id="linearGradient-2">
            <stop stop-color="#EDF4FF" offset="0%"></stop>
            <stop stop-color="#FDFEFF" offset="100%"></stop>
        </linearGradient>
        <linearGradient x1="50%" y1="46.732825%" x2="63.0418722%" y2="54.2616614%" id="linearGradient-3">
            <stop stop-color="#F8FBFF" offset="0%"></stop>
            <stop stop-color="#DCEAFF" offset="100%"></stop>
        </linearGradient>
        <linearGradient x1="50%" y1="-8.32667268e-15%" x2="50%" y2="91.1602951%" id="linearGradient-4">
            <stop stop-color="#F6FAFF" offset="0%"></stop>
            <stop stop-color="#FFFFFF" offset="100%"></stop>
        </linearGradient>
        <path d="M274.862637,140.075893 C274.862637,62.7141135 213.33254,-2.25851084e-14 137.431319,-2.25851084e-14 C61.5300972,-2.25851084e-14 4.30229722e-13,62.7141135 4.30229722e-13,140.075893 C58.6506494,139.997319 213.022035,139.846053 274.862637,140.075893 Z" id="path-5"></path>
        <linearGradient x1="50%" y1="93.7535042%" x2="50%" y2="-1.94289029e-14%" id="linearGradient-7">
            <stop stop-color="#EDF4FF" offset="0%"></stop>
            <stop stop-color="#FFFFFF" offset="100%"></stop>
        </linearGradient>
        <linearGradient x1="96.8767521%" y1="46.8767521%" x2="3.12324792%" y2="46.8767521%" id="linearGradient-8">
            <stop stop-color="#EDF4FF" offset="0%"></stop>
            <stop stop-color="#FFFFFF" offset="100%"></stop>
        </linearGradient>
        <linearGradient x1="96.8767521%" y1="46.8767521%" x2="3.12324792%" y2="46.8767521%" id="linearGradient-9">
            <stop stop-color="#EDF4FF" offset="0%"></stop>
            <stop stop-color="#FFFFFF" offset="100%"></stop>
        </linearGradient>
        <linearGradient x1="100%" y1="50%" x2="0%" y2="50%" id="linearGradient-10">
            <stop stop-color="#F7FAFF" offset="0%"></stop>
            <stop stop-color="#E3EEFF" offset="100%"></stop>
        </linearGradient>
        <linearGradient x1="50%" y1="59.6813379%" x2="79.0626142%" y2="40.7070606%" id="linearGradient-11">
            <stop stop-color="#F7FAFF" offset="0%"></stop>
            <stop stop-color="#E3EEFF" offset="100%"></stop>
        </linearGradient>
        <linearGradient x1="93.4960355%" y1="46.9851001%" x2="58.4724457%" y2="50%" id="linearGradient-12">
            <stop stop-color="#F7FAFF" offset="0%"></stop>
            <stop stop-color="#E3EEFF" offset="100%"></stop>
        </linearGradient>
        <linearGradient x1="33.7675616%" y1="79.4138181%" x2="60.6897432%" y2="21.6665577%" id="linearGradient-13">
            <stop stop-color="#F7FAFF" offset="0%"></stop>
            <stop stop-color="#E5EFFF" offset="100%"></stop>
        </linearGradient>
        <linearGradient x1="59.1053695%" y1="75.039674%" x2="40.9006615%" y2="56.0632956%" id="linearGradient-14">
            <stop stop-color="#EEF6FF" offset="0%"></stop>
            <stop stop-color="#DEEAF8" offset="100%"></stop>
        </linearGradient>
    </defs>
    <g id="控件" stroke="none" stroke-width="1" fill="none" fill-rule="evenodd">
        <g id="分组-5">
            <g id="Group">
                <g id="分组-3" transform="translate(0.000000, 32.741071)">
                    <ellipse id="椭圆形" fill="url(#linearGradient-1)" cx="266.497253" cy="16.2901786" rx="16.3324176" ry="16.2901786"></ellipse>
                    <ellipse id="椭圆形-copy-4" fill="url(#linearGradient-2)" cx="9.56043956" cy="42.1160714" rx="9.56043956" ry="9.53571429"></ellipse>
                    <path d="M250.839401,11.2203262 C247.394406,12.3430403 245.305133,13.8122611 245.303586,15.4185607 C245.300204,18.9310198 255.280683,21.7688329 267.59561,21.7570306 C279.910537,21.7451544 289.023654,18.8381138 289.027037,15.3256547 C289.028883,13.4081833 286.928255,11.7417976 282.223921,10.580278" id="路径" stroke="url(#linearGradient-3)" stroke-width="3" stroke-linecap="round" transform="translate(267.165312, 16.168654) rotate(24.000000) translate(-267.165312, -16.168654) "></path>
                </g>
                <g id="椭圆形-copy-3-+-椭圆形-+-椭圆形-copy-+-椭圆形-copy-2-Mask" transform="translate(9.560440, 64.526786)">
                    <mask id="mask-6" fill="white">
                        <use xlink:href="#path-5"></use>
                    </mask>
                    <use id="Mask" fill="url(#linearGradient-4)" xlink:href="#path-5"></use>
                    <ellipse id="椭圆形-copy-3" fill="url(#linearGradient-7)" mask="url(#mask-6)" cx="62.5412088" cy="24.2366071" rx="24.2994505" ry="24.2366071"></ellipse>
                    <ellipse id="椭圆形" fill="url(#linearGradient-8)" mask="url(#mask-6)" cx="137.032967" cy="29.4017857" rx="12.7472527" ry="12.7142857"></ellipse>
                    <ellipse id="椭圆形-copy" fill="url(#linearGradient-9)" mask="url(#mask-6)" cx="205.947802" cy="90.9866071" rx="8.36538462" ry="8.34375"></ellipse>
                    <ellipse id="椭圆形-copy-2" fill="url(#linearGradient-9)" mask="url(#mask-6)" cx="56.1675824" cy="94.1651786" rx="8.36538462" ry="8.34375"></ellipse>
                </g>
                <g id="分组-2" transform="translate(135.236264, 0.517857)">
                    <rect id="矩形" fill="url(#linearGradient-10)" x="30.7637363" y="37.4821429" width="9" height="58" rx="4.5"></rect>
                    <path d="M15.2637363,0.482142857 L49.2637363,0.482142857 C57.2718651,0.482142857 63.7637363,6.97401398 63.7637363,14.9821429 L63.7637363,25.4821429 C63.7637363,27.6912819 61.9728753,29.4821429 59.7637363,29.4821429 L4.76373626,29.4821429 C2.55459726,29.4821429 0.763736264,27.6912819 0.763736264,25.4821429 L0.763736264,14.9821429 C0.763736264,6.97401398 7.25560739,0.482142857 15.2637363,0.482142857 Z" id="矩形" fill="url(#linearGradient-11)"></path>
                    <path d="M0.763736264,14.4821429 L63.7637363,14.4821429 L63.7637363,35.4821429 C63.7637363,38.2435666 61.52516,40.4821429 58.7637363,40.4821429 L5.76373626,40.4821429 C3.00231251,40.4821429 0.763736264,38.2435666 0.763736264,35.4821429 L0.763736264,14.4821429 L0.763736264,14.4821429 Z" id="矩形" fill="url(#linearGradient-12)"></path>
                    <path d="M15.7637363,0.982142857 C7.75560739,0.982142857 1.26373626,7.47401398 1.26373626,15.4821429 L1.26373626,37.4821429 C1.26373626,39.4151395 2.83073964,40.9821429 4.76373626,40.9821429 L26.7637363,40.9821429 C28.6967329,40.9821429 30.2637363,39.4151395 30.2637363,37.4821429 L30.2637363,15.4821429 C30.2637363,7.47401398 23.7718651,0.982142857 15.7637363,0.982142857 Z" id="矩形" stroke="#D4E5FF" fill="url(#linearGradient-13)"></path>
                </g>
            </g>
            <g id="分组" transform="translate(84.450549, 45.455357)">
                <polygon id="路径-14" fill="#FFF3D1" points="8.37299896 14.7714642 9.40661113 16.7043027 9.40661113 18.218465 11.9923116 18.2767857 14.3732422 14.7714642 14.3732422 13.6296527 14.3732422 12.1692593 15.0528107 10.9362593 15.9340659 10.3126941 15.9340659 8.47408531 14.3732422 8.47408531 14.3732422 7.37202029 13.4542189 6.11256821 11.9923116 4.76785714 7.17032967 10.3126941"></polygon>
                <rect id="矩形" fill="#FFE391" x="3.98351648" y="90.5892857" width="2.39010989" height="4.76785714"></rect>
                <rect id="矩形-copy" fill="#FFF3D1" x="13.543956" y="90.5892857" width="2.39010989" height="4.76785714"></rect>
                <path d="M9.88692603,8.80941399 L11.2505799,8.80941399 L11.2505799,6.64021805 L12.8061679,5.33098506 L14.3406593,5.33098506 L14.3406593,3.90397232 L11.8549208,0 L10.3834385,0 L10.3834385,1.80373729 L9.13396575,2.39622069 L7.54128089,3.03684017 C1.56574531,7.90722326 1.74027695,11.6628003 8.06487583,14.3035714 C9.93613147,14.2312048 10.7089857,13.514687 10.3834385,12.1540178 L8.76373626,10.3591567 L9.13396575,8.80941399 L9.88692603,8.80941399 Z" id="路径-15" fill="#979797"></path>
                <path d="M2.39010989,52.9603107 L2.39010989,64.9499395 L3.79212313,68.9464824 C3.88705072,72.8970527 3.65338185,75.5018582 3.09111651,76.7608989 C3.12461605,78.1077217 3.20687476,82.9820649 3.33789264,91.3839286 L8.82660785,91.3839286 C10.093986,73.702425 10.5023493,64.3387996 10.0516976,63.2930522 C10.805367,63.2601443 11.1711716,63.2601443 11.1491113,63.2930522 L11.9528338,64.186805 L12.7793596,91.3839286 L17.5173133,91.3839286 L19.1208791,72.8742944 L19.1208791,51.6517857 L2.39010989,52.9603107 Z" id="路径-17" fill="#D7E5FA"></path>
                <path d="M7.76949931,15.8928571 L13.7546923,17.4090263 C21.510989,38.5404545 23.4500632,50.1817819 19.5719148,52.3330085 C12.4590316,54.212245 4.63072484,54.128391 1.00885368,53.9464284 C-1.53017828,44.5263719 0.723370262,31.8418481 7.76949931,15.8928571 Z" id="路径-16" fill="url(#linearGradient-14)"></path>
                <polygon id="路径-18" fill="#C2CFE2" points="3.18681319 93.7859535 5.55708734 93.7859535 7.88007579 92.9732143 7.88007579 94.5625 12.6080934 93.7859535 12.7132013 94.5625 14.2280224 94.5625 15.980903 92.9732143 17.4699295 92.9732143 17.4699295 94.5625 22.2948039 94.5625 23.9010989 95.3958921 23.9010989 96.9475144 18.2882872 98.5187586 15.2105403 98.5187586 14.3325238 99.3303571 12.7132013 99.3303571 12.7132013 96.1517857 11.1965366 96.1517857 6.37875505 99.3303571 3.97632663 99.3303571 3.97632663 98.5187586 3.18681319 98.5187586"></polygon>
                <path d="M10.7987351,20.8884941 L20.674326,20.8884941 L14.4991577,13.6007296 C14.9394057,11.498315 15.8761823,10.7349442 17.3094876,11.3106172 C18.7427928,11.8862902 22.0022676,14.8874595 27.0879121,20.314125 C26.4371367,25.1793813 21.2402307,27.9437205 11.497194,28.6071429 C5.97110156,26.4469982 5.73828193,23.8741153 10.7987351,20.8884941 Z" id="路径-19" fill="#D0DEEE"></path>
            </g>
        </g>
        <rect id="矩形备份-2" fill="#D8D8D8" opacity="0" x="0" y="0" width="290" height="206"></rect>
    </g>
</svg>