<?xml version="1.0" encoding="UTF-8"?>
<svg width="290px" height="226px" viewBox="0 0 290 226" version="1.1" xmlns="http://www.w3.org/2000/svg" xmlns:xlink="http://www.w3.org/1999/xlink">
    <!-- Generator: Sketch 52.2 (67145) - http://www.bohemiancoding.com/sketch -->
    <title>无相关信息</title>
    <desc>Created with Sketch.</desc>
    <defs>
        <linearGradient x1="90.0427136%" y1="25.2607168%" x2="16.0644973%" y2="75.334838%" id="linearGradient-1">
            <stop stop-color="#EDF4FF" offset="0%"></stop>
            <stop stop-color="#FDFEFF" offset="100%"></stop>
        </linearGradient>
        <linearGradient x1="50%" y1="0%" x2="63.0418722%" y2="115.219362%" id="linearGradient-2">
            <stop stop-color="#F8FBFF" offset="0%"></stop>
            <stop stop-color="#DCEAFF" offset="100%"></stop>
        </linearGradient>
        <linearGradient x1="50%" y1="-8.32667268e-15%" x2="50%" y2="93.7535042%" id="linearGradient-3">
            <stop stop-color="#F6FAFF" offset="0%"></stop>
            <stop stop-color="#FFFFFF" offset="100%"></stop>
        </linearGradient>
        <path d="M274.862637,137.471264 C274.862637,61.5479815 213.33254,-2.84217094e-14 137.431319,-2.84217094e-14 C61.5300972,-2.84217094e-14 5.40012479e-13,61.5479815 5.40012479e-13,137.471264 C58.6506494,137.394152 213.022035,137.245698 274.862637,137.471264 Z" id="path-4"></path>
        <linearGradient x1="50%" y1="93.7535042%" x2="50%" y2="-1.94289029e-14%" id="linearGradient-6">
            <stop stop-color="#EDF4FF" offset="0%"></stop>
            <stop stop-color="#FFFFFF" offset="100%"></stop>
        </linearGradient>
        <path d="M274.862637,137.471264 C274.862637,61.5479815 213.33254,-2.84217094e-14 137.431319,-2.84217094e-14 C61.5300972,-2.84217094e-14 5.40012479e-13,61.5479815 5.40012479e-13,137.471264 C58.6506494,137.394152 213.022035,137.245698 274.862637,137.471264 Z" id="path-7"></path>
        <linearGradient x1="96.8767521%" y1="46.8767521%" x2="3.12324792%" y2="46.8767521%" id="linearGradient-9">
            <stop stop-color="#EDF4FF" offset="0%"></stop>
            <stop stop-color="#FFFFFF" offset="100%"></stop>
        </linearGradient>
        <path d="M274.862637,137.471264 C274.862637,61.5479815 213.33254,-2.84217094e-14 137.431319,-2.84217094e-14 C61.5300972,-2.84217094e-14 5.40012479e-13,61.5479815 5.40012479e-13,137.471264 C58.6506494,137.394152 213.022035,137.245698 274.862637,137.471264 Z" id="path-10"></path>
        <path d="M274.862637,137.471264 C274.862637,61.5479815 213.33254,-2.84217094e-14 137.431319,-2.84217094e-14 C61.5300972,-2.84217094e-14 5.40012479e-13,61.5479815 5.40012479e-13,137.471264 C58.6506494,137.394152 213.022035,137.245698 274.862637,137.471264 Z" id="path-12"></path>
        <linearGradient x1="4.64115192%" y1="6.15719786%" x2="92.6348887%" y2="87.9731039%" id="linearGradient-14">
            <stop stop-color="#FDFEFF" offset="0%"></stop>
            <stop stop-color="#F0F6FF" offset="100%"></stop>
        </linearGradient>
        <linearGradient x1="98.4962002%" y1="91.0620193%" x2="0%" y2="91.0620193%" id="linearGradient-15">
            <stop stop-color="#E9F2FF" offset="0%"></stop>
            <stop stop-color="#F0F6FF" offset="100%"></stop>
        </linearGradient>
        <linearGradient x1="40.5212921%" y1="94.1708112%" x2="59.4976705%" y2="36.9321584%" id="linearGradient-16">
            <stop stop-color="#EEF6FF" offset="0%"></stop>
            <stop stop-color="#DEEAF8" offset="100%"></stop>
        </linearGradient>
    </defs>
    <g id="Page-1" stroke="none" stroke-width="1" fill="none" fill-rule="evenodd">
        <g id="无相关信息">
            <ellipse id="椭圆形" fill="url(#linearGradient-1)" cx="266.497253" cy="55.3371648" rx="16.3324176" ry="16.3371648"></ellipse>
            <ellipse id="椭圆形-copy-4" fill="url(#linearGradient-1)" cx="9.56043956" cy="81.2375479" rx="9.56043956" ry="9.56321839"></ellipse>
            <path d="M254.263516,44.0222297 L283.195033,56.2378832 C287.020223,59.2209888 288.261462,61.6045655 287.47987,63.3605621 C286.048134,66.5772284 276.540487,65.5232724 265.285426,60.51074 C254.030365,55.4982073 246.066986,48.8271232 247.498722,45.6104568 C248.153476,44.1394275 250.659708,43.645591 254.263516,44.0222297 Z" id="路径" stroke="url(#linearGradient-2)" stroke-width="3" stroke-linecap="round"></path>
            <path d="M284.862637,208.471264 C284.862637,132.547981 223.33254,71 147.431319,71 C71.5300972,71 10,132.547981 10,208.471264 C68.6506494,208.394152 223.022035,208.245698 284.862637,208.471264 Z" id="path-4" fill="url(#linearGradient-3)"></path>
            <g id="椭圆形-copy-3-Clipped" transform="translate(10.000000, 71.000000)">
                <g>
                    <mask id="mask-5" fill="white">
                        <use xlink:href="#path-4"></use>
                    </mask>
                    <g id="path-4"></g>
                    <ellipse id="椭圆形-copy-3" fill="url(#linearGradient-6)" mask="url(#mask-5)" cx="62.5412088" cy="24.3065134" rx="24.2994505" ry="24.3065134"></ellipse>
                </g>
            </g>
            <g id="椭圆形-Clipped" transform="translate(10.000000, 71.000000)">
                <g>
                    <mask id="mask-8" fill="white">
                        <use xlink:href="#path-7"></use>
                    </mask>
                    <g id="path-7"></g>
                    <ellipse id="椭圆形" fill="url(#linearGradient-9)" mask="url(#mask-8)" cx="137.032967" cy="29.48659" rx="12.7472527" ry="12.7509579"></ellipse>
                </g>
            </g>
            <g id="椭圆形-copy-Clipped" transform="translate(10.000000, 71.000000)">
                <g>
                    <mask id="mask-11" fill="white">
                        <use xlink:href="#path-10"></use>
                    </mask>
                    <g id="path-10"></g>
                    <ellipse id="椭圆形-copy" fill="url(#linearGradient-9)" mask="url(#mask-11)" cx="205.947802" cy="91.2490421" rx="8.36538462" ry="8.36781609"></ellipse>
                </g>
            </g>
            <g id="椭圆形-copy-2-Clipped" transform="translate(10.000000, 71.000000)">
                <g>
                    <mask id="mask-13" fill="white">
                        <use xlink:href="#path-12"></use>
                    </mask>
                    <g id="path-12"></g>
                    <ellipse id="椭圆形-copy-2" fill="url(#linearGradient-9)" mask="url(#mask-13)" cx="56.1675824" cy="94.4367816" rx="8.36538462" ry="8.36781609"></ellipse>
                </g>
            </g>
            <text id="暂无相关信息" fill="#A5BDE8" font-family="PingFangSC-Regular, PingFang SC" font-size="16" font-weight="normal">
                <tspan x="93.4120879" y="224">暂无相关信息</tspan>
            </text>
            <path d="M140.621622,72.8712871 L100,72.8712871 C93.372583,72.8712871 88,67.4987041 88,60.8712871 L88,12 C88,5.372583 93.372583,-9.47058326e-14 100,-9.59232693e-14 L194,-9.9475983e-14 C200.627417,-1.06579749e-13 206,5.372583 206,12 L206,60.8712871 C206,67.4987041 200.627417,72.8712871 194,72.8712871 L153.378378,72.8712871 L150.321453,77.4266648 C149.090472,79.2610528 146.605498,79.7502102 144.77111,78.5192284 C144.339376,78.2295094 143.968266,77.8583992 143.678547,77.4266648 L140.621622,72.8712871 Z" id="path-9" fill="url(#linearGradient-14)"></path>
            <path d="M103.127776,17.4257426 L164.561413,17.4257426 C166.311226,17.4257426 167.72973,18.8442464 167.72973,20.5940594 C167.72973,22.3438725 166.311226,23.7623763 164.561413,23.7623763 L103.127776,23.7623763 C101.377963,23.7623763 99.9594595,22.3438725 99.9594595,20.5940594 C99.9594595,18.8442464 101.377963,17.4257426 103.127776,17.4257426 Z" id="矩形" fill="url(#linearGradient-15)"></path>
            <path d="M183.035862,11.8128537 L192.620026,21.3342916 C193.85733,22.5634984 193.863895,24.5630012 192.634688,25.800306 C192.629817,25.8052097 192.624929,25.8100971 192.620026,25.8149683 C191.372182,27.0546453 189.357675,27.0546456 188.109831,25.8149685 L178.525667,16.2935303 C177.288363,15.0643234 177.281798,13.0648207 178.511005,11.827516 C178.515876,11.8226125 178.520764,11.817725 178.525667,11.8128536 C179.773511,10.5731765 181.788018,10.5731765 183.035862,11.8128537 Z" id="矩形-copy-4" fill="#E1ECFF"></path>
            <path d="M178.525668,21.3342917 L188.109832,11.812854 C189.357676,10.5731768 191.372182,10.5731771 192.620026,11.8128541 C193.857331,13.042061 193.863896,15.0415637 192.634689,16.2788683 C192.629817,16.2837719 192.62493,16.2886594 192.620026,16.2935309 L183.035863,25.8149684 C181.788019,27.0546455 179.773512,27.0546455 178.525668,25.8149684 C177.288364,24.5857615 177.281799,22.5862589 178.511006,21.3489541 C178.515877,21.3440506 178.520765,21.3391631 178.525668,21.3342917 Z" id="矩形-copy-5" fill="#E1ECFF"></path>
            <path d="M103.127776,34.0594059 L191.669521,34.0594059 C193.419334,34.0594059 194.837838,35.4779097 194.837838,37.2277227 C194.837838,38.9775358 193.419334,40.3960396 191.669521,40.3960396 L103.127776,40.3960396 C101.377963,40.3960396 99.9594595,38.9775358 99.9594595,37.2277227 C99.9594595,35.4779097 101.377963,34.0594059 103.127776,34.0594059 Z" id="矩形-copy-2" fill="url(#linearGradient-15)"></path>
            <path d="M103.127776,50.6930693 L191.669521,50.6930693 C193.419334,50.6930693 194.837838,52.1115731 194.837838,53.8613861 C194.837838,55.6111992 193.419334,57.029703 191.669521,57.029703 L103.127776,57.029703 C101.377963,57.029703 99.9594595,55.6111992 99.9594595,53.8613861 C99.9594595,52.1115731 101.377963,50.6930693 103.127776,50.6930693 Z" id="矩形-copy-3" fill="url(#linearGradient-15)"></path>
            <polygon id="路径-21" fill="#FFF3D1" points="196.95079 74.5811521 207.55391 65.1693102 211.358974 66.0921566 210.652214 68.8766797 210.873865 74.2406972 210.652214 75.2191963 208.179487 75.7610471 208.179487 76.8534671 207.55391 76.8534671 207.55391 77.602526 206.635413 77.602526 206.635413 78.3563801 205.017887 78.3563801 203.501866 76.8534671 201.559291 76.8534671 199.163074 79.0361274 196.139332 75.2191963"></polygon>
            <path d="M199.564161,72.7706678 L204.154753,72.7706678 L204.154753,69.3540068 L205.810465,69.3540068 L205.810465,70.3904808 L207.082944,70.3904808 L209.057585,68.7787142 L210.611231,68.7787142 L211.358974,70.3904808 L212.90588,70.3904808 L212.90588,68.7787142 L213.8262,68.7787142 L213.8262,63.8189686 L212.153846,61.7996313 L212.153846,64.1565654 L211.358974,64.1565654 C204.218642,60.2295619 200.287038,61.0650854 199.564161,66.6631359 C199.517942,70.4645931 199.517942,72.5004371 199.564161,72.7706678 Z" id="路径-20" fill="#979797"></path>
            <polygon id="矩形" fill="#FFF3D1" points="215.333333 122.068965 218.51282 122.068965 218.51282 126.827586 215.333333 126.827586"></polygon>
            <polygon id="矩形-copy" fill="#FFF3D1" points="223.282051 118.896552 227.25641 118.896552 227.25641 123.655172 223.282051 123.655172"></polygon>
            <path d="M187.126039,120.953994 C190.556788,124.916488 193.731075,126.073203 196.648902,124.424138 C199.566728,122.775074 204.263563,118.6704 210.739407,112.110116 C212.778029,116.052611 213.79734,119.620961 213.79734,122.815167 C215.733712,122.814272 217.835453,122.814272 220.102564,122.815167 L217.664283,112.53245 L218.877314,111.743017 L223.207407,120.953994 L229.501809,117.823126 L221.899662,99.4329774 C218.498825,97.8874598 216.212996,97.8874598 215.042173,99.4329774 C214.400329,97.7672626 208.618413,94.7409567 206.953549,97.1987359 C205.84364,98.8372554 199.23447,106.755675 187.126039,120.953994 Z" id="路径-23" fill="#D7E5FA"></path>
            <path d="M195.729808,74.4488504 C197.663508,77.1212875 198.287398,78.6672449 201.68185,79.5788843 C201.778499,82.5609963 202.295631,102.662374 208.537471,104.454682 C210.865131,108.188463 188.90734,120.14675 187.473271,124.683753 C159.989293,109.074302 182.455859,75.9945094 195.729808,74.4488504 Z" id="路径-22" fill="url(#linearGradient-16)"></path>
            <path d="M187.728098,91.5471905 C195.048689,97.2715467 207.008541,103.09106 208.179487,103.09106 C208.960118,103.09106 210.717395,102.409006 213.451319,101.044898 L193.097001,81.7718943 C186.272163,82.2803381 184.482528,85.5387701 187.728098,91.5471905 Z" id="路径-24" fill="#D0DEEE"></path>
            <polygon id="路径-25" fill="#C2CFE2" points="214.538461 124.479653 220.102564 124.479653 221.023588 126.001669 222.463303 126.001669 222.463303 124.479653 223.377604 122.894307 228.043414 122.894307 228.043414 123.714557 231.121872 123.714557 235.223101 125.299765 235.223101 126.820949 226.461538 126.820949 226.461538 128.417105 219.307692 128.417105 219.307692 129.258281 215.383337 129.258281 214.538461 128.417105"></polygon>
        </g>
    </g>
</svg>