<?xml version="1.0" encoding="UTF-8"?>
<svg width="290px" height="206px" viewBox="0 0 290 206" version="1.1" xmlns="http://www.w3.org/2000/svg" xmlns:xlink="http://www.w3.org/1999/xlink">
    <!-- Generator: Sketch 61.2 (89653) - https://sketch.com -->
    <title>暂无相关信息</title>
    <desc>Created with Sketch.</desc>
    <defs>
        <linearGradient x1="90.0194462%" y1="25.2607168%" x2="16.084216%" y2="75.334838%" id="linearGradient-1">
            <stop stop-color="#EDF4FF" offset="0%"></stop>
            <stop stop-color="#FDFEFF" offset="100%"></stop>
        </linearGradient>
        <linearGradient x1="90.0194462%" y1="25.2607168%" x2="16.084216%" y2="75.334838%" id="linearGradient-2">
            <stop stop-color="#EDF4FF" offset="0%"></stop>
            <stop stop-color="#FDFEFF" offset="100%"></stop>
        </linearGradient>
        <linearGradient x1="50%" y1="46.7293865%" x2="63.0418722%" y2="54.2661466%" id="linearGradient-3">
            <stop stop-color="#F8FBFF" offset="0%"></stop>
            <stop stop-color="#DCEAFF" offset="100%"></stop>
        </linearGradient>
        <linearGradient x1="50%" y1="-8.32667268e-15%" x2="50%" y2="93.7535042%" id="linearGradient-4">
            <stop stop-color="#F6FAFF" offset="0%"></stop>
            <stop stop-color="#FFFFFF" offset="100%"></stop>
        </linearGradient>
        <path d="M270.774586,132.471264 C270.774586,59.3094051 210.159631,-2.84217094e-14 135.387293,-2.84217094e-14 C60.6149559,-2.84217094e-14 5.40012479e-13,59.3094051 5.40012479e-13,132.471264 C57.7783343,132.396956 209.853743,132.253902 270.774586,132.471264 Z" id="path-5"></path>
        <linearGradient x1="50%" y1="93.7535042%" x2="50%" y2="-1.94289029e-14%" id="linearGradient-7">
            <stop stop-color="#EDF4FF" offset="0%"></stop>
            <stop stop-color="#FFFFFF" offset="100%"></stop>
        </linearGradient>
        <linearGradient x1="96.8767521%" y1="46.8767521%" x2="3.12324792%" y2="46.8767521%" id="linearGradient-8">
            <stop stop-color="#EDF4FF" offset="0%"></stop>
            <stop stop-color="#FFFFFF" offset="100%"></stop>
        </linearGradient>
        <linearGradient x1="96.8767521%" y1="46.8767521%" x2="3.12324792%" y2="46.8767521%" id="linearGradient-9">
            <stop stop-color="#EDF4FF" offset="0%"></stop>
            <stop stop-color="#FFFFFF" offset="100%"></stop>
        </linearGradient>
        <linearGradient x1="4.64115192%" y1="30.2501049%" x2="92.6348887%" y2="67.1057684%" id="linearGradient-10">
            <stop stop-color="#FDFEFF" offset="0%"></stop>
            <stop stop-color="#F0F6FF" offset="100%"></stop>
        </linearGradient>
        <path d="M106,2 C112.627417,2 118,7.372583 118,14 L118,62.8712871 C118,69.4987041 112.627417,74.8712871 106,74.8712871 L65.378,74.871 L62.3214532,79.4266648 C61.0904715,81.2610528 58.6054984,81.7502102 56.7711104,80.5192284 C56.3393761,80.2295094 55.9682658,79.8583992 55.6785468,79.4266648 L52.621,74.871 L12,74.8712871 C5.372583,74.8712871 8.11624501e-16,69.4987041 0,62.8712871 L0,14 C-8.11624501e-16,7.372583 5.372583,2 12,2 L106,2 Z" id="path-11"></path>
        <filter x="-0.8%" y="-3.8%" width="103.4%" height="105.1%" filterUnits="objectBoundingBox" id="filter-12">
            <feOffset dx="2" dy="-2" in="SourceAlpha" result="shadowOffsetOuter1"></feOffset>
            <feColorMatrix values="0 0 0 0 0.930427028   0 0 0 0 0.947914559   0 0 0 0 0.979246386  0 0 0 1 0" type="matrix" in="shadowOffsetOuter1"></feColorMatrix>
        </filter>
        <linearGradient x1="98.4962002%" y1="91.0620193%" x2="0%" y2="91.0620193%" id="linearGradient-13">
            <stop stop-color="#E9F2FF" offset="0%"></stop>
            <stop stop-color="#F0F6FF" offset="100%"></stop>
        </linearGradient>
        <linearGradient x1="98.4962002%" y1="91.0620193%" x2="0%" y2="91.0620193%" id="linearGradient-14">
            <stop stop-color="#E9F2FF" offset="0%"></stop>
            <stop stop-color="#F0F6FF" offset="100%"></stop>
        </linearGradient>
        <linearGradient x1="45.5873245%" y1="94.1708112%" x2="54.4215033%" y2="36.9321584%" id="linearGradient-15">
            <stop stop-color="#EEF6FF" offset="0%"></stop>
            <stop stop-color="#DEEAF8" offset="100%"></stop>
        </linearGradient>
    </defs>
    <g id="控件" stroke="none" stroke-width="1" fill="none" fill-rule="evenodd">
        <g id="编组">
            <g id="分组-4" transform="translate(0.000000, 41.000000)">
                <g id="分组-3">
                    <ellipse id="椭圆形" fill="url(#linearGradient-1)" cx="266.497253" cy="16.3371648" rx="16.3324176" ry="16.3371648"></ellipse>
                    <ellipse id="椭圆形-copy-4" fill="url(#linearGradient-2)" cx="9.56043956" cy="42.2375479" rx="9.56043956" ry="9.56321839"></ellipse>
                    <path d="M250.823013,11.2364901 C247.377577,12.3582146 245.289056,13.8287329 245.289056,15.4388975 C245.289056,18.959808 255.277719,21.8151486 267.59851,21.8164797 C279.9193,21.8178098 289.03327,18.9135383 289.03327,15.3926278 C289.03327,13.4705428 286.929646,11.7978945 282.221822,10.6285371" id="路径" stroke="url(#linearGradient-3)" stroke-width="3" stroke-linecap="round" transform="translate(267.161163, 16.222508) rotate(24.000000) translate(-267.161163, -16.222508) "></path>
                </g>
                <g id="椭圆形-copy-3-+-椭圆形-+-椭圆形-copy-+-椭圆形-copy-2-Mask" transform="translate(9.560440, 31.877395)">
                    <mask id="mask-6" fill="white">
                        <use xlink:href="#path-5"></use>
                    </mask>
                    <use id="Mask" fill="url(#linearGradient-4)" xlink:href="#path-5"></use>
                    <ellipse id="椭圆形-copy-3" fill="url(#linearGradient-7)" mask="url(#mask-6)" cx="62.5412088" cy="24.3065134" rx="24.2994505" ry="24.3065134"></ellipse>
                    <ellipse id="椭圆形" fill="url(#linearGradient-8)" mask="url(#mask-6)" cx="137.032967" cy="29.48659" rx="12.7472527" ry="12.7509579"></ellipse>
                    <ellipse id="椭圆形-copy" fill="url(#linearGradient-9)" mask="url(#mask-6)" cx="205.947802" cy="91.2490421" rx="8.36538462" ry="8.36781609"></ellipse>
                    <ellipse id="椭圆形-copy-2" fill="url(#linearGradient-9)" mask="url(#mask-6)" cx="56.1675824" cy="94.4367816" rx="8.36538462" ry="8.36781609"></ellipse>
                </g>
            </g>
            <g id="分组-2" transform="translate(88.000000, 0.000000)">
                <path d="M108,-1.13686838e-13 C114.627417,-1.20790603e-13 120,5.372583 120,12 L120,60.8712871 C120,67.4987041 114.627417,72.8712871 108,72.8712871 L67.378,72.871 L64.3214532,77.4266648 C63.0904715,79.2610528 60.6054984,79.7502102 58.7711104,78.5192284 C58.3393761,78.2295094 57.9682658,77.8583992 57.6785468,77.4266648 L54.621,72.871 L14,72.8712871 C7.372583,72.8712871 2,67.4987041 2,60.8712871 L2,12 C2,5.372583 7.372583,-1.08916687e-13 14,-1.13686838e-13 L108,-1.13686838e-13 Z" id="合并形状" fill="#EDF2FA"></path>
                <g id="合并形状">
                    <use fill="black" fill-opacity="1" filter="url(#filter-12)" xlink:href="#path-11"></use>
                    <use fill="url(#linearGradient-10)" fill-rule="evenodd" xlink:href="#path-11"></use>
                </g>
                <rect id="矩形" fill="url(#linearGradient-13)" x="11.9594595" y="19.4257426" width="67.7702703" height="6.33663366" rx="3.16831683"></rect>
                <path d="M90.8284329,17.6573353 L104.338133,17.6129815 C106.08222,17.6072555 107.500724,19.0164755 107.50645,20.7605626 C107.506473,20.7674745 107.506473,20.7743864 107.50645,20.7812983 C107.500675,22.5402413 106.076204,23.9647127 104.317261,23.9704875 L90.8075606,24.0148413 C89.0634735,24.0205673 87.6449697,22.6113472 87.6392437,20.8672602 C87.639221,20.8603483 87.639221,20.8534363 87.6392437,20.8465244 C87.6450185,19.0875814 89.0694899,17.66311 90.8284329,17.6573353 Z" id="矩形-copy-4" fill="#E1ECFF" transform="translate(97.572847, 20.813911) rotate(-315.000000) translate(-97.572847, -20.813911) "></path>
                <path d="M90.8075606,17.6129815 L104.317261,17.6573353 C106.076204,17.66311 107.500675,19.0875814 107.50645,20.8465244 C107.512176,22.5906115 106.102956,24.0091153 104.358869,24.0148413 C104.351957,24.014864 104.345045,24.014864 104.338133,24.0148413 L90.8284329,23.9704875 C89.0694899,23.9647127 87.6450185,22.5402413 87.6392437,20.7812983 C87.6335177,19.0372113 89.0427377,17.6187075 90.7868248,17.6129815 C90.7937367,17.6129588 90.8006487,17.6129588 90.8075606,17.6129815 Z" id="矩形-copy-5" fill="#E1ECFF" transform="translate(97.572847, 20.813911) rotate(-45.000000) translate(-97.572847, -20.813911) "></path>
                <rect id="矩形-copy-2" fill="url(#linearGradient-14)" x="11.9594595" y="36.0594059" width="94.8783784" height="6.33663366" rx="3.16831683"></rect>
                <rect id="矩形-copy-3" fill="url(#linearGradient-14)" x="11.9594595" y="52.6930693" width="94.8783784" height="6.33663366" rx="3.16831683"></rect>
            </g>
            <g id="分组" transform="translate(174.000000, 63.000000)">
                <g id="分组-6">
                    <polygon id="路径-21" fill="#FFF3D1" points="22.9507898 13.5811521 33.5539096 4.16931022 37.3589744 5.09215663 36.6522143 7.87667967 36.8738651 13.2406972 36.6522143 14.2191963 34.1794872 14.7610471 34.1794872 15.8534671 33.5539096 15.8534671 33.5539096 16.602526 32.6354133 16.602526 32.6354133 17.3563801 31.0178871 17.3563801 29.5018658 15.8534671 27.5592906 15.8534671 25.1630741 18.0361274 22.1393325 14.2191963"></polygon>
                    <path d="M25.5641608,11.7706678 L30.1547532,11.7706678 L30.1547532,8.35400677 L31.8104651,8.35400677 L31.8104651,9.39048078 L33.0829443,9.39048078 L35.0575853,7.77871417 L36.6112313,7.77871417 L37.3589744,9.39048078 L38.9058802,9.39048078 L38.9058802,7.77871417 L39.8261996,7.77871417 L39.8261996,2.81896857 L38.1538462,0.799631273 L38.1538462,3.15656542 L37.3589744,3.15656542 C30.2186423,-0.770438105 26.2870377,0.0650853992 25.5641608,5.66313594 C25.5179422,9.46459313 25.5179422,11.5004371 25.5641608,11.7706678 Z" id="路径-20" fill="#979797"></path>
                    <rect id="矩形" fill="#FFF3D1" x="41.3333333" y="61.0689655" width="3.17948718" height="4.75862069"></rect>
                    <rect id="矩形-copy" fill="#FFF3D1" x="49.2820513" y="57.8965517" width="3.97435897" height="4.75862069"></rect>
                    <path d="M13.1260392,59.953994 C16.5567879,63.9164878 19.7310754,65.0732025 22.6489016,63.4241381 C25.5667279,61.7750738 30.2635631,57.6703996 36.7394073,51.1101156 C38.7780288,55.0526106 39.7973396,58.620961 39.7973396,61.8151667 C41.7337118,61.8142716 43.8354533,61.8142716 46.1025641,61.8151667 L43.6642832,51.5324503 L44.8773142,50.7430173 L49.2074066,59.953994 L55.5018087,56.8231262 L47.8996618,38.4329774 C44.4988254,36.8874598 42.2129956,36.8874598 41.0421725,38.4329774 C40.4003295,36.7672626 34.6184131,33.7409567 32.953549,36.1987359 C31.8436396,37.8372554 25.2344697,45.7556747 13.1260392,59.953994 Z" id="路径-23" fill="#D7E5FA"></path>
                    <path d="M21.7298079,13.4488504 C23.6635075,16.1212875 24.2873981,17.6672449 27.6818498,18.5788843 C27.7784991,21.5609963 28.2956312,41.6623736 34.5374713,43.4546815 C36.865131,47.188463 14.9073402,59.1467498 13.4732711,63.6837531 C-14.0107072,48.074302 8.45585858,14.9945094 21.7298079,13.4488504 Z" id="路径-22" fill="url(#linearGradient-15)"></path>
                    <path d="M13.728098,30.5471905 C21.0486886,36.2715467 33.0085408,42.0910603 34.1794872,42.0910603 C34.9601181,42.0910603 36.7173953,41.4090061 39.4513187,40.0448978 L19.0970014,20.7718943 C12.2721625,21.2803381 10.4825281,24.5387701 13.728098,30.5471905 Z" id="路径-24" fill="#D0DEEE"></path>
                    <polygon id="路径-25" fill="#C2CFE2" points="40.5384615 63.4796532 46.1025641 63.4796532 47.0235877 65.0016689 48.4633029 65.0016689 48.4633029 63.4796532 49.3776039 61.8943069 54.0434144 61.8943069 54.0434144 62.7145573 57.1218716 62.7145573 61.2231015 64.2997651 61.2231015 65.8209493 52.4615385 65.8209493 52.4615385 67.4171048 45.3076923 67.4171048 45.3076923 68.2582807 41.3833375 68.2582807 40.5384615 67.4171048"></polygon>
                </g>
            </g>
        </g>
        <rect id="矩形备份" fill="#D8D8D8" opacity="0" x="0" y="0" width="290" height="206"></rect>
    </g>
</svg>