<?xml version="1.0" encoding="UTF-8"?>
<svg width="14px" height="14px" viewBox="0 0 14 14" version="1.1" xmlns="http://www.w3.org/2000/svg" xmlns:xlink="http://www.w3.org/1999/xlink">
    <title>下拉-顶端对齐</title>
    <g id="页面-1" stroke="none" stroke-width="1" fill="none" fill-rule="evenodd">
        <g id="报表设计器-格式-工具展开" transform="translate(-1200.000000, -134.000000)">
            <g id="Dropdown备份-5" transform="translate(1184.000000, 119.000000)">
                <g id="编组-25" transform="translate(16.000000, 13.000000)">
                    <g id="下拉-顶端对齐" transform="translate(0.000000, 2.000000)">
                        <rect id="矩形" x="0" y="0" width="14" height="14"></rect>
                        <path d="M12.8634831,1 L1.13651685,1 C1.06067416,1 1,1.06067416 1,1.13483146 L1,2.14606742 C1,2.22022472 1.06067416,2.28089888 1.13651685,2.28089888 L12.8634831,2.28089888 C12.9393258,2.28089888 13,2.22022472 13,2.14606742 L13,1.13483146 C13,1.06067416 12.9393258,1 12.8634831,1 Z M7.10617978,4.15168539 C7.05224719,4.08258427 6.94775281,4.08258427 6.89382022,4.15168539 L5.00617978,6.53988764 C4.93707865,6.62752809 4.9994382,6.75730337 5.11235955,6.75730337 L6.35786517,6.75730337 L6.35786517,12.4606742 C6.35786517,12.5348315 6.41853933,12.5955056 6.49269663,12.5955056 L7.50393258,12.5955056 C7.57808989,12.5955056 7.63876404,12.5348315 7.63876404,12.4606742 L7.63876404,6.75898876 L8.88764045,6.75898876 C9.0005618,6.75898876 9.06292135,6.62921348 8.99382022,6.54157303 L7.10617978,4.15168539 Z" id="形状" fill="#000000" fill-rule="nonzero"></path>
                    </g>
                </g>
            </g>
        </g>
    </g>
</svg>