<?xml version="1.0" encoding="UTF-8"?>
<svg width="14px" height="14px" viewBox="0 0 14 14" version="1.1" xmlns="http://www.w3.org/2000/svg" xmlns:xlink="http://www.w3.org/1999/xlink">
    <title>下拉-底端对齐</title>
    <g id="页面-1" stroke="none" stroke-width="1" fill="none" fill-rule="evenodd">
        <g id="报表设计器-格式-工具展开" transform="translate(-1200.000000, -190.000000)">
            <g id="Dropdown备份-5" transform="translate(1184.000000, 119.000000)">
                <g id="编组-25" transform="translate(16.000000, 13.000000)">
                    <g id="编组-22备份-2" transform="translate(0.000000, 56.000000)">
                        <g id="下拉-底端对齐" transform="translate(0.000000, 2.000000)">
                            <rect id="矩形" x="0" y="0" width="14" height="14"></rect>
                            <path d="M12.8634831,11.3146067 L1.13651685,11.3146067 C1.06067416,11.3146067 1,11.3752809 1,11.4494382 L1,12.4606742 C1,12.5348315 1.06067416,12.5955056 1.13651685,12.5955056 L12.8634831,12.5955056 C12.9393258,12.5955056 13,12.5348315 13,12.4606742 L13,11.4494382 C13,11.3752809 12.9393258,11.3146067 12.8634831,11.3146067 Z M6.89382022,9.44382022 C6.94775281,9.51292135 7.05224719,9.51292135 7.10617978,9.44382022 L8.99382022,7.05561798 C9.06292135,6.96797753 9.0005618,6.83820225 8.88764045,6.83820225 L7.63876404,6.83820225 L7.63876404,1.13483146 C7.63876404,1.06067416 7.57808989,1 7.50393258,1 L6.49269663,1 C6.41853933,1 6.35786517,1.06067416 6.35786517,1.13483146 L6.35786517,6.83651685 L5.11235955,6.83651685 C4.9994382,6.83651685 4.93707865,6.96629213 5.00617978,7.05393258 L6.89382022,9.44382022 Z" id="形状" fill="#000000" fill-rule="nonzero"></path>
                        </g>
                    </g>
                </g>
            </g>
        </g>
    </g>
</svg>