<?xml version="1.0" encoding="UTF-8"?>
<svg width="20px" height="20px" viewBox="0 0 20 20" version="1.1" xmlns="http://www.w3.org/2000/svg" xmlns:xlink="http://www.w3.org/1999/xlink">
    <title>背景</title>
    <g id="页面-1" stroke="none" stroke-width="1" fill="none" fill-rule="evenodd">
        <g id="报表设计器-页面设置-自定义页边距&amp;纸张大小" transform="translate(-662.000000, -94.000000)" fill-rule="nonzero">
            <g id="编组-13" transform="translate(219.000000, 48.000000)">
                <g id="操作栏" transform="translate(1.000000, 42.000000)">
                    <g id="编组-14备份" transform="translate(16.000000, 0.000000)">
                        <g id="编组-33" transform="translate(0.000000, 4.000000)">
                            <g id="背景" transform="translate(426.000000, 0.000000)">
                                <rect id="矩形" fill="#000000" opacity="0" x="0" y="0" width="20" height="20"></rect>
                                <path d="M4,5.95 C4,4.87304474 4.87304474,4 5.95,4 L15.05,4 C16.1269553,4 17,4.87304474 17,5.95 L17,15.05 C17,16.1269553 16.1269553,17 15.05,17 L5.95,17 C4.87304474,17 4,16.1269553 4,15.05 L4,5.95 Z M5.3,5.95 L5.3,15.05 C5.3,15.2223907 5.36848195,15.3877208 5.49038059,15.5096194 C5.61227924,15.6315181 5.77760928,15.7 5.95,15.7 L15.05,15.7 C15.4089851,15.7 15.7,15.4089851 15.7,15.05 L15.7,5.95 C15.7,5.59101491 15.4089851,5.3 15.05,5.3 L5.95,5.3 C5.59101491,5.3 5.3,5.59101491 5.3,5.95 Z M6.275,15.7 L15.7,6.275 L15.7,5.957475 C15.7,5.957475 15.7,5.679275 15.50825,5.488175 C15.3165,5.29675 15.050975,5.29999649 15.050975,5.29999649 L14.725,5.29999649 L5.29999943,14.725 L5.29999943,15.05 C5.29999943,15.05 5.298375,15.28855 5.469,15.494275 C5.638975,15.7 5.95,15.7 5.95,15.7 L6.275,15.7 Z M5.3,11.15 L11.15,5.3 L9.525,5.3 L5.3,9.525 L5.3,11.15 Z M15.7,9.85 L9.85,15.7 L11.475,15.7 L15.7,11.475 L15.7,9.85 L15.7,9.85 Z" id="形状" fill="#464D5A"></path>
                            </g>
                        </g>
                    </g>
                </g>
            </g>
        </g>
    </g>
</svg>