<?xml version="1.0" encoding="UTF-8"?>
<svg width="14px" height="14px" viewBox="0 0 14 14" version="1.1" xmlns="http://www.w3.org/2000/svg" xmlns:xlink="http://www.w3.org/1999/xlink">
    <title>下拉-无边框</title>
    <g id="页面-1" stroke="none" stroke-width="1" fill="none" fill-rule="evenodd">
        <g id="报表设计器-格式-工具展开" transform="translate(-1001.000000, -135.000000)" fill="#909AA9">
            <g id="Dropdown备份-7" transform="translate(985.000000, 119.000000)">
                <g id="下拉-无边框" transform="translate(16.000000, 16.000000)">
                    <path d="M3.23076923,0 L3.23076923,1.07692308 L1.07692308,1.07692308 L1.07692308,3.23076923 L0,3.23076923 L0,1.07692308 C0,0.482154885 0.482154885,0 1.07692308,0 L3.23076923,0 Z M4.30769231,0 L6.46153846,0 L6.46153846,1.07692308 L4.30769231,1.07692308 L4.30769231,0 Z M7.53846154,0 L9.69230769,0 L9.69230769,1.07692308 L7.53846154,1.07692308 L7.53846154,0 Z M10.7692308,0 L12.9230769,0 C13.5178451,0 14,0.482154885 14,1.07692308 L14,3.23076923 L12.9230769,3.23076923 L12.9230769,1.07692308 L10.7692308,1.07692308 L10.7692308,0 Z M14,4.30769231 L14,6.46153846 L12.9230769,6.46153846 L12.9230769,4.30769231 L14,4.30769231 Z M14,7.53846154 L14,9.69230769 L12.9230769,9.69230769 L12.9230769,7.53846154 L14,7.53846154 Z M14,10.7692308 L14,12.9230769 C14,13.5178451 13.5178451,14 12.9230769,14 L10.7692308,14 L10.7692308,12.9230769 L12.9230769,12.9230769 L12.9230769,10.7692308 L14,10.7692308 Z M9.69230769,14 L7.53846154,14 L7.53846154,12.9230769 L9.69230769,12.9230769 L9.69230769,14 Z M6.46153846,14 L4.30769231,14 L4.30769231,12.9230769 L6.46153846,12.9230769 L6.46153846,14 Z M3.23076923,14 L1.07692308,14 C0.482154885,14 0,13.5178451 0,12.9230769 L0,10.7692308 L1.07692308,10.7692308 L1.07692308,12.9230769 L3.23076923,12.9230769 L3.23076923,14 Z M0,9.69230769 L0,7.53846154 L1.07692308,7.53846154 L1.07692308,9.69230769 L0,9.69230769 Z M0,6.46153846 L0,4.30769231 L1.07692308,4.30769231 L1.07692308,6.46153846 L0,6.46153846 Z M6.46153846,1.07692308 L7.53846154,1.07692308 L7.53846154,3.23076923 L6.46153846,3.23076923 L6.46153846,1.07692308 Z M6.46153846,4.30769231 L7.53846154,4.30769231 L7.53846154,6.46153846 L6.46153846,6.46153846 L6.46153846,4.30769231 Z M6.46153846,7.53846154 L7.53846154,7.53846154 L7.53846154,9.69230769 L6.46153846,9.69230769 L6.46153846,7.53846154 Z M6.46153846,10.7692308 L7.53846154,10.7692308 L7.53846154,12.9230769 L6.46153846,12.9230769 L6.46153846,10.7692308 Z M1.07692308,7.53846154 L1.07692308,6.46153846 L3.23076923,6.46153846 L3.23076923,7.53846154 L1.07692308,7.53846154 Z M10.7692308,7.53846154 L10.7692308,6.46153846 L12.9230769,6.46153846 L12.9230769,7.53846154 L10.7692308,7.53846154 Z M4.30769231,7.53846154 L4.30769231,6.46153846 L6.46153846,6.46153846 L6.46153846,7.53846154 L4.30769231,7.53846154 Z M7.53846154,7.53846154 L7.53846154,6.46153846 L9.69230769,6.46153846 L9.69230769,7.53846154 L7.53846154,7.53846154 Z" id="形状"></path>
                </g>
            </g>
        </g>
    </g>
</svg>