<?xml version="1.0" encoding="UTF-8"?>
<svg width="14px" height="14px" viewBox="0 0 14 14" version="1.1" xmlns="http://www.w3.org/2000/svg" xmlns:xlink="http://www.w3.org/1999/xlink">
    <title>下拉-全边框</title>
    <g id="页面-1" stroke="none" stroke-width="1" fill="none" fill-rule="evenodd">
        <g id="报表设计器-格式-工具展开" transform="translate(-1027.000000, -135.000000)" fill="#3D4757">
            <g id="Dropdown备份-7" transform="translate(985.000000, 119.000000)">
                <g id="编组-25" transform="translate(16.000000, 16.000000)">
                    <g id="下拉-全边框" transform="translate(26.000000, 0.000000)">
                        <path d="M1.07692308,6.46153846 L6.46153846,6.46153846 L6.46153846,1.07692308 L1.07692308,1.07692308 L1.07692308,6.46153846 Z M1.07692308,7.53846154 L1.07692308,12.9230769 L6.46153846,12.9230769 L6.46153846,7.53846154 L1.07692308,7.53846154 Z M12.9230769,6.46153846 L12.9230769,1.07692308 L7.53846154,1.07692308 L7.53846154,6.46153846 L12.9230769,6.46153846 Z M12.9230769,7.53846154 L7.53846154,7.53846154 L7.53846154,12.9230769 L12.9230769,12.9230769 L12.9230769,7.53846154 Z M1.07692308,0 L12.9230769,0 C13.5178451,0 14,0.482154885 14,1.07692308 L14,12.9230769 C14,13.5178451 13.5178451,14 12.9230769,14 L1.07692308,14 C0.482154885,14 0,13.5178451 0,12.9230769 L0,1.07692308 C0,0.482154885 0.482154885,0 1.07692308,0 Z" id="形状"></path>
                    </g>
                </g>
            </g>
        </g>
    </g>
</svg>