<?xml version="1.0" encoding="UTF-8"?>
<svg width="20px" height="20px" viewBox="0 0 20 20" version="1.1" xmlns="http://www.w3.org/2000/svg" xmlns:xlink="http://www.w3.org/1999/xlink">
    <title>单元格图片</title>
    <g id="页面-1" stroke="none" stroke-width="1" fill="none" fill-rule="evenodd">
        <g id="报表设计器-插入" transform="translate(-328.000000, -95.000000)">
            <g id="编组-13" transform="translate(219.000000, 48.000000)">
                <g id="操作栏" transform="translate(1.000000, 42.000000)">
                    <g id="编组-14备份-3" transform="translate(16.000000, 0.000000)">
                        <g id="编组-33" transform="translate(0.000000, 5.000000)">
                            <g id="单元格图片" transform="translate(92.000000, 0.000000)">
                                <rect id="bg" opacity="0.0599999987" x="0" y="0" width="20" height="20"></rect>
                                <g id="编组-73" transform="translate(4.666667, 4.666667)">
                                    <rect id="矩形" fill="#464D5A" fill-rule="nonzero" x="2.33333333" y="0.333333333" width="1" height="10.8333333"></rect>
                                    <rect id="矩形" stroke="#464D5A" x="2.77555756e-16" y="2.77555756e-16" width="11.5" height="11.5" rx="0.5"></rect>
                                    <polygon id="矩形" fill="#464D5A" fill-rule="nonzero" points="11.1666667 2.33333333 11.1666667 3.33333333 0.333333333 3.33333333 0.333333333 2.33333333"></polygon>
                                </g>
                                <path d="M15.7366071,7 L7.76339286,7 C7.34352679,7 7,7.34352679 7,7.76339286 L7,15.6785172 C7,16.0983833 7.34352679,16.44191 7.76339286,16.44191 L15.7366071,16.44191 C16.1564732,16.44191 16.5,16.0983833 16.5,15.6785172 L16.5,7.76339286 C16.5,7.34352679 16.1564732,7 15.7366071,7 Z M15.7366071,15.6763967 L7.76551339,15.6774569 L7.76445312,13.6069677 L9.73231027,11.5945793 L12.0362723,14.4562423 C12.1635045,14.6004387 12.3776786,14.6280056 12.5367187,14.5198583 L14.2384487,13.3694677 L15.7366071,14.0745458 L15.7366071,15.6763967 Z M15.7366071,13.1139431 L14.4844308,12.5975927 C14.3540179,12.4979275 14.1748326,12.4926262 14.0391183,12.5848695 L12.387221,13.699211 L10.0323661,10.7813539 C9.96238839,10.7018338 9.86166295,10.655182 9.75563616,10.6520012 C9.64960937,10.6488204 9.54676339,10.6912311 9.47254464,10.7665101 L7.76339286,12.5148918 L7.76339286,7.76445312 L15.7344866,7.76339286 L15.7366071,13.1139431 Z M13.7220982,10.0158405 C13.131529,10.0158405 12.6512277,10.4961418 12.6512277,11.086711 C12.6512277,11.6772802 13.131529,12.1575815 13.7220982,12.1575815 C14.3126674,12.1575815 14.7929688,11.6772802 14.7929688,11.086711 C14.7929688,10.4961418 14.3126674,10.0158405 13.7220982,10.0158405 Z M13.7220982,11.3941887 C13.5524554,11.3941887 13.4146205,11.2563539 13.4146205,11.086711 C13.4146205,10.9170681 13.5524554,10.7792333 13.7220982,10.7792333 C13.8917411,10.7792333 14.0295759,10.9170681 14.0295759,11.086711 C14.0295759,11.2563539 13.8917411,11.3941887 13.7220982,11.3941887 Z" id="形状" fill="#464D5A" fill-rule="nonzero"></path>
                            </g>
                        </g>
                    </g>
                </g>
            </g>
        </g>
    </g>
</svg>