<?xml version="1.0" encoding="UTF-8"?>
<svg width="21px" height="20px" viewBox="0 0 21 20" version="1.1" xmlns="http://www.w3.org/2000/svg" xmlns:xlink="http://www.w3.org/1999/xlink">
    <title>合并单元格</title>
    <g id="页面-1" stroke="none" stroke-width="1" fill="none" fill-rule="evenodd">
        <g id="报表设计器-格式-工具展开" transform="translate(-1266.000000, -94.000000)" fill-rule="nonzero">
            <g id="编组-13" transform="translate(219.000000, 48.000000)">
                <g id="操作栏" transform="translate(1.000000, 42.000000)">
                    <g id="编组-14备份" transform="translate(54.000000, 1.000000)">
                        <g id="编组-29" transform="translate(818.500000, 0.000000)">
                            <g id="合并单元格" transform="translate(174.000000, 3.000000)">
                                <rect id="Rectangle" fill="#000000" opacity="0" x="0" y="0" width="20" height="20"></rect>
                                <path d="M8.75,4.16666667 C8.98011867,4.16666667 9.16666667,4.35321469 9.16666667,4.58333333 L9.16666667,7.91666667 L8.0825,7.91666667 L8.08333333,5.25 L4.16666667,5.25 L4.16666667,15.5833333 L8.08333333,15.5833333 L8.0825,12.9166667 L9.16666667,12.9166667 L9.16666667,16.25 C9.16666667,16.4801187 8.98011867,16.6666667 8.75,16.6666667 L3.5,16.6666667 C3.26988136,16.6666667 3.08333333,16.4801187 3.08333333,16.25 L3.08333333,4.58333333 C3.08333333,4.35321469 3.26988136,4.16666667 3.5,4.16666667 L8.75,4.16666667 Z M15.6666667,4.16666667 C15.8712166,4.16666667 16.0413403,4.31406263 16.0766203,4.50843697 L16.0833333,4.58333333 L16.0833333,16.25 C16.0833333,16.4545499 15.9359373,16.6246737 15.741563,16.6599536 L15.6666667,16.6666667 L10.4166667,16.6666667 C10.2121168,16.6666667 10.041993,16.5192707 10.0067131,16.3248963 L10,16.25 L10,12.9166667 L11.0841667,12.9166667 L11.0833333,15.5833333 L15,15.5833333 L15,5.25 L11.0833333,5.25 L11.0841667,7.91666667 L10,7.91666667 L10,4.58333333 C10,4.37878342 10.147396,4.20865969 10.3417703,4.17337972 L10.4166667,4.16666667 L15.6666667,4.16666667 Z M7.08333333,8.75 L9.16666667,10.3955696 L9.16666667,10.4377637 L7.08333333,12.0833333 L7.08333333,10.8333333 L5.20833333,10.8333333 L5.20833333,10 L7.08333333,10 L7.08333333,8.75 Z M12.0833333,8.75 L12.0833333,10 L13.9583333,10 L13.9583333,10.8333333 L12.0833333,10.8333333 L12.0833333,12.0833333 L10,10.4377637 L10,10.3955696 L12.0833333,8.75 Z" id="形状" fill="#464D5A"></path>
                            </g>
                        </g>
                    </g>
                </g>
            </g>
        </g>
    </g>
</svg>