<?xml version="1.0" encoding="UTF-8"?>
<svg width="24px" height="24px" viewBox="0 0 24 24" version="1.1" xmlns="http://www.w3.org/2000/svg" xmlns:xlink="http://www.w3.org/1999/xlink">
    <!-- Generator: Sketch 63.1 (92452) - https://sketch.com -->
    <title>toolbar_fill_color</title>
    <desc>Created with Sketch.</desc>
    <g id="toolbar_fill_color" stroke="none" stroke-width="1" fill="none" fill-rule="evenodd">
        <g id="Group">
            <rect id="Rectangle" stroke="#979797" fill="#D8D8D8" opacity="0" x="0" y="0" width="24" height="24"></rect>
            <path d="M19.75,13 L20.8345408,15 C21.0557238,15.4103101 21.0551145,15.912156 20.832936,16.3218752 C20.6107574,16.7315943 20.199624,16.9890424 19.75,17 C19.300376,16.9890424 18.8892426,16.7315943 18.667064,16.3218752 C18.4448855,15.912156 18.4442762,15.4103101 18.6654592,15 L19.75,13 Z" id="路径" fill="#464D5A"></path>
            <path d="M18.8579669,11.3142033 C19.0473444,11.5035808 19.0473444,11.8106225 18.8579669,12 L12,18.8579669 C11.8106225,19.0473444 11.5035808,19.0473444 11.3142033,18.8579669 L5.14203314,12.6857967 C4.95265562,12.4964192 4.95265562,12.1893775 5.14203314,12 L12,5.14203314 C12.1893775,4.95265562 12.4964192,4.95265562 12.6857967,5.14203314 L18.8579669,11.3142033 Z M17.4177938,11.6571017 L12.3428983,6.58220618 L6.58220618,12.3428983 L11.6571017,17.4177938 L17.4177938,11.6571017 Z" id="形状" fill="#464D5A" fill-rule="nonzero"></path>
            <polygon id="路径-3" fill="#464D5A" points="6 13 11.659003 17.9714583 17.1156348 13"></polygon>
        </g>
    </g>
</svg>