<?xml version="1.0" encoding="UTF-8"?>
<svg width="20px" height="20px" viewBox="0 0 20 20" version="1.1" xmlns="http://www.w3.org/2000/svg" xmlns:xlink="http://www.w3.org/1999/xlink">
    <title>清空格式</title>
    <g id="页面-1" stroke="none" stroke-width="1" fill="none" fill-rule="evenodd">
        <g id="报表设计器-格式-工具展开" transform="translate(-370.000000, -94.000000)" fill-rule="nonzero">
            <g id="编组-13" transform="translate(219.000000, 48.000000)">
                <g id="操作栏" transform="translate(1.000000, 42.000000)">
                    <g id="编组-14备份" transform="translate(54.000000, 1.000000)">
                        <g id="编组-33" transform="translate(0.000000, 3.000000)">
                            <g id="清空格式" transform="translate(96.000000, 0.000000)">
                                <rect id="Rectangle" fill="#000000" opacity="0" x="0" y="0" width="20" height="20"></rect>
                                <rect id="矩形备份-2" fill="#464D5A" x="4.16666667" y="15.2083333" width="11.6666667" height="1.04166667"></rect>
                                <path d="M11.1275805,4.14514116 L15.627504,8.64506467 C15.7655728,8.7831335 15.777158,9.00121142 15.6648183,9.16117825 L15.616887,9.21817208 L10.6675,14.1666667 L9.26,14.1666667 L11.702727,11.724981 L8.04653916,8.06879318 L4.69012357,11.4252088 L7.43166667,14.1666667 L5.97166667,14.1666667 L3.53916268,11.733559 C3.38383523,11.5782316 3.38858863,11.3216426 3.54977969,11.1604516 L10.5544731,4.15575817 C10.7156641,3.99456711 10.9722531,3.98981372 11.1275805,4.14514116 Z" id="形状结合" fill="#464D5A"></path>
                                <polygon id="矩形" fill="#464D5A" points="5.83333333 13.125 10.8333333 13.125 10 14.1666667 6.66666667 14.1666667"></polygon>
                            </g>
                        </g>
                    </g>
                </g>
            </g>
        </g>
    </g>
</svg>