<?xml version="1.0" encoding="UTF-8"?>
<svg width="14px" height="14px" viewBox="0 0 14 14" version="1.1" xmlns="http://www.w3.org/2000/svg" xmlns:xlink="http://www.w3.org/1999/xlink">
    <title>自定义颜色</title>
    <g id="页面-1" stroke="none" stroke-width="1" fill="none" fill-rule="evenodd">
        <g id="报表设计器-格式-工具展开" transform="translate(-696.000000, -359.000000)" fill="#000000" fill-rule="nonzero">
            <g id="编组-53" transform="translate(680.000000, 119.000000)">
                <g id="编组-52" transform="translate(16.000000, 238.000000)">
                    <g id="自定义颜色" transform="translate(0.000000, 2.000000)">
                        <rect id="矩形" opacity="0" x="0" y="0" width="14" height="14"></rect>
                        <path d="M6.88333334,13.4166667 C3.4236271,13.3695893 0.630410678,10.5763729 0.583333338,7.11666666 C0.525,3.73333334 3.12083334,0.875 6.50416666,0.6125 L6.67916666,0.6125 C7.37916666,0.583333338 8.02083332,0.816666662 8.51666666,1.28333334 C9.04166666,1.77916666 9.33333334,2.47916666 9.33333334,3.20833334 C9.33333334,3.29583334 9.33333334,3.38333334 9.3625,3.47083334 C9.45,4.05416668 9.94583334,4.55 10.5291667,4.6375 C10.6166667,4.66666666 10.7041667,4.66666666 10.7916667,4.66666666 C11.5208333,4.66666666 12.2208333,4.95833332 12.7166667,5.48333334 C13.1833333,5.97916668 13.4458333,6.62083334 13.3875,7.32083334 L13.3875,7.49583334 C13.1541667,10.8208333 10.3541667,13.4166667 7,13.4166667 L6.88333334,13.4166667 Z M6.59166666,1.77916666 C3.87916666,1.98333334 1.69166666,4.375 1.75,7.0875 C1.80833334,9.91666666 4.05416666,12.1916667 6.9125,12.25 C9.65416666,12.2791667 12.0166667,10.1208333 12.25,7.40833334 L12.25,7.2625 C12.2791667,6.9125 12.1333333,6.5625 11.9,6.3 C11.6375,6.00833334 11.2291667,5.8625 10.8208333,5.8625 C10.675,5.8625 10.5,5.8625 10.3541667,5.83333334 C9.275,5.65833334 8.4,4.78333334 8.225,3.70416666 C8.16666666,3.5 8.16666666,3.35416666 8.16666666,3.20833334 C8.16666666,2.8 7.99166666,2.39166668 7.72916666,2.12916666 C7.46666666,1.89583332 7.14583332,1.75 6.825,1.75 L6.76666666,1.75 C6.70833332,1.75 6.65,1.75 6.59166666,1.77916666 Z M5.83333334,5.54166666 C5.19166668,5.54166666 4.66666666,5.01666666 4.66666666,4.375 C4.66666666,3.73333334 5.19166666,3.20833334 5.83333334,3.20833334 C6.47500001,3.20833334 7,3.73333334 7,4.375 C7,5.01666666 6.475,5.54166666 5.83333334,5.54166666 Z M5.54166666,8.75 C6.0375,8.75 6.41666666,9.12916666 6.41666666,9.625 C6.41666666,10.1208333 6.0375,10.5 5.54166666,10.5 C5.04583332,10.5 4.66666666,10.1208333 4.66666666,9.625 C4.66666666,9.12916666 5.04583332,8.75 5.54166666,8.75 Z M4.08333334,8.02083334 C3.5875,8.02083334 3.20833334,7.64166668 3.20833334,7.14583334 C3.20833334,6.65 3.5875,6.27083334 4.08333334,6.27083334 C4.57916668,6.27083334 4.95833334,6.65 4.95833334,7.14583334 C4.95833334,7.64166668 4.57916668,8.02083334 4.08333334,8.02083334 Z" id="形状"></path>
                    </g>
                </g>
            </g>
        </g>
    </g>
</svg>