<?xml version="1.0" encoding="UTF-8"?>
<svg width="24px" height="24px" viewBox="0 0 20 20" version="1.1" xmlns="http://www.w3.org/2000/svg" xmlns:xlink="http://www.w3.org/1999/xlink">
    <title>删除线</title>
    <g id="页面-1" stroke="none" stroke-width="1" fill="none" fill-rule="evenodd">
        <g id="报表设计器-格式-工具展开" transform="translate(-850.000000, -95.000000)">
            <g id="编组-13" transform="translate(219.000000, 48.000000)">
                <g id="操作栏" transform="translate(1.000000, 42.000000)">
                    <g id="编组-14备份" transform="translate(54.000000, 1.000000)">
                        <g id="编组-31" transform="translate(296.000000, 0.000000)">
                            <g id="删除线" transform="translate(280.000000, 4.000000)">
                                <rect id="Rectangle复制-20" fill="#000000" fill-rule="nonzero" opacity="0" x="0" y="0" width="24" height="24"></rect>
                                <path d="M15,9.99997757 L15,10.8928201 L12.4839615,10.8918869 C12.751276,11.3067616 12.8817343,11.7972359 12.8535714,12.2935115 C12.8591654,12.7831537 12.7240502,13.2641063 12.4642857,13.6792032 C12.1946224,14.0985261 11.8121098,14.43325 11.3607143,14.6449017 C10.8377385,14.8900024 10.2652952,15.0112353 9.68785714,14.9991816 C9.06143835,15.0051714 8.44127086,14.8742656 7.87071429,14.6156164 C7.32381808,14.3650467 6.83326509,14.0064314 6.42857143,13.5613479 L7.07785714,12.8235029 C7.415,13.2020681 7.82214286,13.5106345 8.27428571,13.7306309 C8.725,13.949913 9.21785714,14.0634826 9.71714286,14.0627683 C10.2619763,14.0916213 10.7998724,13.9300026 11.2385714,13.6056329 C11.8161395,13.0956855 11.9653986,12.2546362 11.5985714,11.5770947 C11.4701721,11.3656219 11.2921824,11.1886157 11.08,11.0613888 C10.9796113,11.0029176 10.8781362,10.9463722 10.7756306,10.8917811 L5,10.8928201 L5,9.99997757 L15,9.99997757 Z M9.79642857,5.00005929 C10.8348309,4.99886956 11.8271311,5.42879027 12.5364286,6.18718274 L11.9592857,6.88002856 C11.3959551,6.28819788 10.6134979,5.95485795 9.79642857,5.95861505 C9.31897927,5.94478361 8.85182314,6.09898306 8.47642857,6.39432221 C8.14785714,6.65431796 7.96,7.06002562 7.97142857,7.48501867 C7.96714286,7.75001434 8.04785714,8.00929582 8.20214286,8.22214948 C8.34571429,8.42071767 8.52714286,8.58642924 8.73642857,8.70928438 C8.93785714,8.84213935 9.205,8.95928029 9.55071429,9.11499203 L9.60285714,9.1378488 L7.545,9.1378488 C7.11133556,8.71222729 6.88092608,8.12113001 6.91214286,7.51430391 C6.9061566,7.05525344 7.03371007,6.6043568 7.27928571,6.21646798 C7.55071429,5.82361726 7.92214286,5.51505087 8.35357143,5.3243397 C8.80361656,5.10796381 9.29707731,4.99705909 9.79642857,5.00005929 Z" id="形状结合" fill="#464D5A"></path>
                            </g>
                        </g>
                    </g>
                </g>
            </g>
        </g>
    </g>
</svg>