<?xml version="1.0" encoding="UTF-8"?>
<svg width="20px" height="20px" viewBox="0 0 20 20" version="1.1" xmlns="http://www.w3.org/2000/svg" xmlns:xlink="http://www.w3.org/1999/xlink">
    <title>浮动图片</title>
    <g id="页面-1" stroke="none" stroke-width="1" fill="none" fill-rule="evenodd">
        <g id="报表设计器-插入" transform="translate(-236.000000, -95.000000)" fill-rule="nonzero">
            <g id="编组-13" transform="translate(219.000000, 48.000000)">
                <g id="操作栏" transform="translate(1.000000, 42.000000)">
                    <g id="编组-14备份-3" transform="translate(16.000000, 0.000000)">
                        <g id="浮动图片" transform="translate(0.000000, 5.000000)">
                            <rect id="矩形" fill="#000000" opacity="0" x="0" y="0" width="20" height="20"></rect>
                            <path d="M15.4955357,5 L5.00446429,5 C4.45200893,5 4,5.45200893 4,6.00446429 L4,14.7307478 C4,15.2832031 4.45200893,15.7352121 5.00446429,15.7352121 L15.4955357,15.7352121 C16.0479911,15.7352121 16.5,15.2832031 16.5,14.7307478 L16.5,6.00446429 C16.5,5.45200893 16.0479911,5 15.4955357,5 Z M15.4955357,14.7279576 L15.4941406,14.7293527 L5.00725446,14.7293527 L5.00585937,14.7279576 L5.00585937,11.7592076 L7.59514509,9.11132812 L10.6266741,12.8766741 C10.7940848,13.0664062 11.0758929,13.1026786 11.2851562,12.9603795 L13.5242746,11.4467076 L15.4955357,12.374442 L15.4955357,14.7279576 Z M15.4955357,11.1104911 L13.8479353,10.4310826 C13.6763393,10.2999442 13.4405692,10.2929688 13.2619978,10.4143415 L11.0884487,11.8805804 L7.98995536,8.04129464 C7.89787946,7.93666295 7.76534598,7.87527902 7.62583705,7.87109375 C7.48632812,7.86690848 7.35100446,7.92271205 7.25334821,8.02176339 L5.00446429,10.3222656 L5.00446429,6.00585938 L5.00585937,6.00446429 L15.4927455,6.00446429 L15.4941406,6.00585938 L15.4955357,11.1104911 Z M12.8448661,7.03404018 C12.0678013,7.03404018 11.4358259,7.66601562 11.4358259,8.44308036 C11.4358259,9.22014509 12.0678013,9.85212054 12.8448661,9.85212054 C13.6219308,9.85212054 14.2539062,9.22014509 14.2539062,8.44308036 C14.2539062,7.66601562 13.6219308,7.03404018 12.8448661,7.03404018 Z M12.8448661,8.84765625 C12.6216518,8.84765625 12.4402902,8.66629464 12.4402902,8.44308036 C12.4402902,8.21986607 12.6216518,8.03850446 12.8448661,8.03850446 C13.0680804,8.03850446 13.249442,8.21986607 13.249442,8.44308036 C13.249442,8.66629464 13.0680804,8.84765625 12.8448661,8.84765625 Z" id="形状" fill="#464D5A"></path>
                        </g>
                    </g>
                </g>
            </g>
        </g>
    </g>
</svg>