<?xml version="1.0" encoding="UTF-8"?>
<svg width="20px" height="20px" viewBox="0 0 20 20" version="1.1" xmlns="http://www.w3.org/2000/svg" xmlns:xlink="http://www.w3.org/1999/xlink">
    <title>加粗</title>
    <g id="页面-1" stroke="none" stroke-width="1" fill="none" fill-rule="evenodd">
        <g id="报表设计器-格式-工具展开" transform="translate(-754.000000, -95.000000)">
            <g id="编组-13" transform="translate(219.000000, 48.000000)">
                <g id="操作栏" transform="translate(1.000000, 42.000000)">
                    <g id="编组-14备份" transform="translate(54.000000, 1.000000)">
                        <g id="编组-31" transform="translate(296.000000, 0.000000)">
                            <g id="加粗" transform="translate(184.000000, 4.000000)">
                                <rect id="Rectangle" fill="#000000" fill-rule="nonzero" opacity="0" x="0" y="0" width="20" height="20"></rect>
                                <g id="编组-5" transform="translate(6.375000, 5.125000)" stroke="#464D5A" stroke-width="1.3">
                                    <path d="M4.04166667,0 L0,0 L0,4.75 L4.04166667,4.75 C4.69750481,4.75 5.29125481,4.48416907 5.72104528,4.05437861 C6.15083573,3.62458814 6.41666667,3.03083814 6.41666667,2.375 C6.41666667,1.71916186 6.15083573,1.12541186 5.72104528,0.695621392 C5.29125481,0.26583093 4.69750481,0 4.04166667,0 Z" id="矩形"></path>
                                    <path d="M4.66666667,4.79166667 L0,4.79166667 L0,9.95833333 L4.66666667,9.95833333 C5.38003447,9.95833333 6.0258678,9.66918392 6.49335918,9.2016925 C6.96085057,8.73420117 7.25,8.08836783 7.25,7.375 C7.25,6.6616322 6.96085057,6.01579887 6.49335918,5.54830748 C6.0258678,5.0808161 5.38003447,4.79166667 4.66666667,4.79166667 Z" id="矩形备份-3"></path>
                                </g>
                            </g>
                        </g>
                    </g>
                </g>
            </g>
        </g>
    </g>
</svg>