<?xml version="1.0" encoding="UTF-8"?>
<svg width="20px" height="20px" viewBox="0 0 24 24" version="1.1" xmlns="http://www.w3.org/2000/svg" xmlns:xlink="http://www.w3.org/1999/xlink">
    <title>toolbar_add_function</title>
    <g id="toolbar_add_function" stroke="none" stroke-width="1" fill="none" fill-rule="evenodd">
        <rect id="Rectangle" fill="#000000" opacity="0" x="0" y="0" width="20" height="20"></rect>
        <path d="M9.225,7 L14.9010816,11.6119148 C15.1153978,11.7860503 15.1479705,12.1009527 14.973835,12.3152688 C14.9521418,12.3419675 14.9277512,12.3663562 14.9010508,12.3880472 L9.224,17 L19,17 L19,18.5 L6.40828954,18.5 C6.13214717,18.5 5.90827347,18.2761424 5.90827347,18 C5.90827347,17.8494357 5.97613818,17.7068877 6.09299323,17.611943 L13,12 L6.09299323,6.388057 C5.87867527,6.21392365 5.8460992,5.89902165 6.02023254,5.68470369 C6.11517727,5.56784864 6.25772525,5.5 6.40828954,5.5 L19,5.5 L19,7 L9.225,7 Z" id="路径" fill="#464D5A"></path>
    </g>
</svg>