<?xml version="1.0" encoding="UTF-8"?>
<svg width="20px" height="20px" viewBox="0 0 20 20" version="1.1" xmlns="http://www.w3.org/2000/svg" xmlns:xlink="http://www.w3.org/1999/xlink">
    <title>复制格式</title>
    <g id="页面-1" stroke="none" stroke-width="1" fill="none" fill-rule="evenodd">
        <g id="报表设计器-格式-工具展开" transform="translate(-338.000000, -94.000000)" fill-rule="nonzero">
            <g id="编组-13" transform="translate(219.000000, 48.000000)">
                <g id="操作栏" transform="translate(1.000000, 42.000000)">
                    <g id="编组-14备份" transform="translate(54.000000, 1.000000)">
                        <g id="编组-33" transform="translate(0.000000, 3.000000)">
                            <g id="复制格式" transform="translate(64.000000, 0.000000)">
                                <rect id="Rectangle" fill="#000000" opacity="0" x="0" y="0" width="20" height="20"></rect>
                                <path d="M11.25,11.6666667 L11.25,15.0651097 L8.75,16.6666667 L8.75,11.6666667 L11.25,11.6666667 Z M15.4166667,4.16666667 C15.6467853,4.16666667 15.8333333,4.35321469 15.8333333,4.58333333 L15.8333333,8.75 C15.8333333,8.98011867 15.6467853,9.16666667 15.4166667,9.16666667 L11.8908333,9.16666667 L10.625,10.4066667 L10.625,11.6666667 L9.58333333,11.6666667 L9.58333333,10 L9.58916667,9.99916667 L9.58883875,9.99879333 L10.4375,9.16666667 L4.58333333,9.16666667 C4.35321469,9.16666667 4.16666667,8.98011867 4.16666667,8.75 L4.16666667,4.58333333 C4.16666667,4.35321469 4.35321469,4.16666667 4.58333333,4.16666667 L15.4166667,4.16666667 Z M14.7916667,5.20833333 L5.20833333,5.20833333 L5.20833333,8.125 L14.7916667,8.125 L14.7916667,5.20833333 Z" id="形状结合" fill="#464D5A"></path>
                            </g>
                        </g>
                    </g>
                </g>
            </g>
        </g>
    </g>
</svg>