<?xml version="1.0" encoding="UTF-8"?>
<svg width="20px" height="20px" viewBox="0 0 20 20" version="1.1" xmlns="http://www.w3.org/2000/svg" xmlns:xlink="http://www.w3.org/1999/xlink">
    <title>插入行列</title>
    <g id="页面-1" stroke="none" stroke-width="1" fill="none" fill-rule="evenodd">
        <g id="报表设计器-插入" transform="translate(-731.000000, -95.000000)">
            <g id="编组-13" transform="translate(219.000000, 48.000000)">
                <g id="操作栏" transform="translate(1.000000, 42.000000)">
                    <g id="编组-14备份-3" transform="translate(16.000000, 0.000000)">
                        <g id="插入行列" transform="translate(495.000000, 5.000000)">
                            <rect id="bg" opacity="0.0599999987" x="0" y="0" width="20" height="20"></rect>
                            <g id="插入行" transform="translate(4.000000, 4.000000)" fill="#444A5C" fill-rule="nonzero">
                                <path d="M5.41666667,6.78313541 L0.90213609,6.78313541 L0.90213609,5.24136843 L5.41666667,5.24136843 L5.41666667,6.78313541 Z M6.35294117,4.23529412 L0,4.23529412 L0,7.76470588 L6.35294117,7.76470588 L6.35294117,4.23529412 Z M11.2941176,2.55392239 L3.17647059,2.55392239 L3.17647059,1.04749136 L12,1.04749136 L12,0 L2.11764705,0 L2.11764705,3.52941176 L12,3.52941176 L12,2.55392239 L11.2941176,2.55392239 Z M11.1764706,11.0909893 L3.05882353,11.0909893 L3.05882353,9.58455829 L11.8823529,9.58455829 L11.8823529,8.53706693 L2,8.53706693 L2,12.0664787 L11.8823529,12.0664787 L11.8823529,11.0909893 L11.1764706,11.0909893 Z M12,5.64 L10.4541176,4.09411765 L9.82713416,4.65828776 L10.7393228,5.50479143 L7.76470588,5.50479143 L7.76470588,6.4844948 L10.7393228,6.49155363 L9.88235294,7.30689391 L10.4541176,7.90588235 L12,6.36 L11.9929412,6.35294117 L12,6.35294117 L12,5.64705883 L11.9929412,5.64705883 L12,5.64 Z" id="形状"></path>
                            </g>
                        </g>
                    </g>
                </g>
            </g>
        </g>
    </g>
</svg>