<?xml version="1.0" encoding="UTF-8"?>
<svg width="20px" height="20px" viewBox="0 0 20 20" version="1.1" xmlns="http://www.w3.org/2000/svg" xmlns:xlink="http://www.w3.org/1999/xlink">
    <title>斜体</title>
    <g id="页面-1" stroke="none" stroke-width="1" fill="none" fill-rule="evenodd">
        <g id="报表设计器-格式-工具展开" transform="translate(-786.000000, -95.000000)" fill-rule="nonzero">
            <g id="编组-13" transform="translate(219.000000, 48.000000)">
                <g id="操作栏" transform="translate(1.000000, 42.000000)">
                    <g id="编组-14备份" transform="translate(54.000000, 1.000000)">
                        <g id="编组-31" transform="translate(296.000000, 0.000000)">
                            <g id="斜体" transform="translate(216.000000, 4.000000)">
                                <rect id="Rectangle复制-20" fill="#000000" opacity="0" x="0" y="0" width="20" height="20"></rect>
                                <polygon id="矩形" fill="#464D5A" points="10.8333333 5 12.0833333 5 8.75 15 7.5 15"></polygon>
                                <path d="M8.85416667,4.79166667 L13.2291667,4.79166667 C13.516815,4.79166667 13.75,5.02485169 13.75,5.3125 C13.75,5.60014831 13.516815,5.83333333 13.2291667,5.83333333 L8.85416667,5.83333333 C8.56651833,5.83333333 8.33333333,5.60014831 8.33333333,5.3125 C8.33333333,5.02485169 8.56651833,4.79166667 8.85416667,4.79166667 Z" id="矩形" fill="#464D5A"></path>
                                <path d="M5.9375,14.1666667 L10.7291667,14.1666667 C11.016815,14.1666667 11.25,14.3998517 11.25,14.6875 C11.25,14.9751483 11.016815,15.2083333 10.7291667,15.2083333 L5.9375,15.2083333 C5.64985169,15.2083333 5.41666667,14.9751483 5.41666667,14.6875 C5.41666667,14.3998517 5.64985169,14.1666667 5.9375,14.1666667 Z" id="矩形" fill="#464D5A"></path>
                            </g>
                        </g>
                    </g>
                </g>
            </g>
        </g>
    </g>
</svg>