<?xml version="1.0" encoding="UTF-8"?>
<svg width="20px" height="20px" viewBox="0 0 20 20" version="1.1" xmlns="http://www.w3.org/2000/svg" xmlns:xlink="http://www.w3.org/1999/xlink">
    <title>页边距</title>
    <g id="页面-1" stroke="none" stroke-width="1" fill="none" fill-rule="evenodd">
        <g id="报表设计器-页面设置-自定义页边距&amp;纸张大小" transform="translate(-236.000000, -94.000000)" fill-rule="nonzero">
            <g id="编组-13" transform="translate(219.000000, 48.000000)">
                <g id="操作栏" transform="translate(1.000000, 42.000000)">
                    <g id="编组-14备份" transform="translate(16.000000, 0.000000)">
                        <g id="页边距" transform="translate(0.000000, 4.000000)">
                            <rect id="矩形" fill="#000000" opacity="0" x="0" y="0" width="20" height="20"></rect>
                            <path d="M5.00000001,17.7692308 C4.44771526,17.7692308 4.00000001,17.3215155 4.00000001,16.7692308 L4.00000001,4 C4.00000001,3.44771525 4.44771526,3 5.00000001,3 L15,3 C15.5522848,3 16,3.44771525 16,4 L16,16.7692308 C16,17.3215155 15.5522848,17.7692308 15,17.7692308 L5.00000001,17.7692308 Z M5.02272884,16.7067392 L6.115,16.706 L6.11541237,15.5475577 L5.022,15.547 L5.02272884,16.7067392 Z M12.7692676,15.5475577 L7.08501743,15.5475577 L7.085,16.706 L12.769,16.706 L12.7692676,15.5475577 Z M14.999,15.547 L13.781277,15.5475577 L13.781,16.706 L15,16.7067392 L14.999,15.547 Z M14.999,14.47 L14.999,6.122 L13.781277,6.12245034 L13.781277,14.4707682 L14.999,14.47 Z M5.022,14.47 L6.11541237,14.4707682 L6.11541237,6.12245034 L5.022,6.122 L5.022,14.47 Z M12.7692676,6.12245034 L7.08501743,6.12245034 L7.08501743,14.4707682 L12.7692676,14.4707682 L12.7692676,6.12245034 Z M14.999,5.155 L15,4 L13.781,4 L13.781277,5.15559538 L14.999,5.155 Z M6.115,4 L5.02272884,4 L5.022,5.155 L6.11541237,5.15559538 L6.115,4 Z M12.769,4 L7.085,4 L7.08501743,5.15559538 L7.08501743,5.15559538 L12.7692676,5.15559538 L12.769,4 Z" id="形状结合" fill="#484D55"></path>
                        </g>
                    </g>
                </g>
            </g>
        </g>
    </g>
</svg>