<?xml version="1.0" encoding="UTF-8"?>
<svg width="20px" height="20px" viewBox="0 0 20 20" version="1.1" xmlns="http://www.w3.org/2000/svg" xmlns:xlink="http://www.w3.org/1999/xlink">
    <title>纸张大小</title>
    <g id="页面-1" stroke="none" stroke-width="1" fill="none" fill-rule="evenodd">
        <g id="报表设计器-页面设置-自定义页边距&amp;纸张大小" transform="translate(-332.000000, -94.000000)" fill-rule="nonzero">
            <g id="编组-13" transform="translate(219.000000, 48.000000)">
                <g id="操作栏" transform="translate(1.000000, 42.000000)">
                    <g id="编组-14备份" transform="translate(16.000000, 0.000000)">
                        <g id="编组-33" transform="translate(0.000000, 4.000000)">
                            <g id="纸张大小" transform="translate(96.000000, 0.000000)">
                                <rect id="矩形" fill="#000000" opacity="0" x="0" y="0" width="20" height="20"></rect>
                                <path d="M11.0817308,3 C12.0676428,3 12.3919862,3.19471154 12.73814,3.54086538 L12.73814,3.54086538 L15.5515442,6.5 C15.897698,6.84615385 16,7.42932692 16,7.91826923 L16,7.91826923 L16,16.8461538 C16,17.3552885 15.5860577,17.7692308 15.0769231,17.7692308 L15.0769231,17.7692308 L4.92307692,17.7692308 C4.41394231,17.7692308 4,17.3552885 4,16.8461538 L4,16.8461538 L4,3.92307692 C4,3.41394231 4.41394231,3 4.92307692,3 L4.92307692,3 Z M10.70269,4.21344871 L5.76090615,4.21344871 C5.50561769,4.21344871 5.29936769,4.41969871 5.29936769,4.67498717 L5.29936769,4.67498717 L5.29936769,16.0082972 C5.29936769,16.2635856 5.50561769,16.4698356 5.76090615,16.4698356 L5.76090615,16.4698356 L14.2437472,16.4698356 C14.4990357,16.4698356 14.7052857,16.2635856 14.7052857,16.0082972 L14.7052857,16.0082972 L14.7052857,8.34502229 L12.7692308,8.34502229 C11.2012388,8.34502229 10.70269,7.50170357 10.70269,6.23076923 L10.70269,6.23076923 L10.70269,4.21344871 Z M11.8461538,4.30528846 L11.8461538,6.23076923 C11.8461538,6.73990385 12.2600962,7.15384615 12.7692308,7.15384615 L12.7692308,7.15384615 L14.6947115,7.15384615 L11.8461538,4.30528846 Z" id="形状" fill="#464D5A"></path>
                            </g>
                        </g>
                    </g>
                </g>
            </g>
        </g>
    </g>
</svg>