<?xml version="1.0" encoding="UTF-8"?>
<svg width="40px" height="40px" viewBox="0 0 40 40" version="1.1" xmlns="http://www.w3.org/2000/svg" xmlns:xlink="http://www.w3.org/1999/xlink">
    <title>页边距-默认</title>
    <g id="页面-1" stroke="none" stroke-width="1" fill="none" fill-rule="evenodd">
        <g id="报表设计器-页面设置" transform="translate(-252.000000, -140.000000)" fill-rule="nonzero">
            <g id="Dropdown备份-5" transform="translate(236.000000, 127.000000)">
                <g id="页边距-默认" transform="translate(16.000000, 13.000000)">
                    <rect id="矩形" fill="#000000" opacity="0" x="0" y="0" width="40" height="40"></rect>
                    <path d="M32,12.2449007 L27.3089582,12.2449007 L27.3089582,29.1311675 L32,29.1311675 L32,30.0898495 L32,30.7214284 L27.3089582,30.7214284 L27.3089582,35.5384615 L26.6773792,35.5384615 L25.819668,35.5384615 L25.819668,30.7214284 L14.1700349,30.7214284 L14.1700349,35.5384615 L13.0636534,35.5384615 L12.6517349,35.5384615 L12.6517349,30.7214284 L8,30.7214284 L8,30.0898495 L8,29.1311675 L12.6517349,29.1311675 L12.6517349,12.2449007 L8,12.2449007 L8,11.3698184 L8,10.7382394 L12.6517349,10.7382394 L12.6517349,6 L14.1700349,6 L14.1700349,10.7382394 L25.819668,10.7382394 L25.819668,6 L26.6773792,6 L27.3089582,6 L27.3089582,10.7382394 L32,10.7382394 L32,11.3698184 L32,12.2449007 Z M25.819668,12.2449007 L14.1700349,12.2449007 L14.1700349,29.1311675 L25.819668,29.1311675 L25.819668,12.2449007 Z" id="形状结合" fill-opacity="0.9" fill="#484D55"></path>
                    <path d="M8.00000001,34.5384615 L8.00000001,7 C8.00000001,6.44771525 8.44771526,6 9.00000001,6 L31,6 C31.5522848,6 32,6.44771525 32,7 L32,34.5384615 C32,35.0907463 31.5522848,35.5384615 31,35.5384615 L9.00000001,35.5384615 C8.44771526,35.5384615 8.00000001,35.0907463 8.00000001,34.5384615 Z M30.5144222,7.47911453 L9.61914117,7.47911453 L9.61914117,33.8832243 L30.5144222,33.8832243 L30.5144222,7.47911453 Z" id="形状" fill-opacity="0.5" fill="#484D55"></path>
                </g>
            </g>
        </g>
    </g>
</svg>