<?xml version="1.0" encoding="UTF-8"?>
<svg width="20px" height="20px" viewBox="0 0 20 20" version="1.1" xmlns="http://www.w3.org/2000/svg" xmlns:xlink="http://www.w3.org/1999/xlink">
    <title>纸张方向</title>
    <g id="页面-1" stroke="none" stroke-width="1" fill="none" fill-rule="evenodd">
        <g id="报表设计器-页面设置-自定义页边距&amp;纸张大小" transform="translate(-440.000000, -94.000000)" fill-rule="nonzero">
            <g id="编组-13" transform="translate(219.000000, 48.000000)">
                <g id="操作栏" transform="translate(1.000000, 42.000000)">
                    <g id="编组-14备份" transform="translate(16.000000, 0.000000)">
                        <g id="编组-33" transform="translate(0.000000, 4.000000)">
                            <g id="纸张方向" transform="translate(204.000000, 0.000000)">
                                <rect id="矩形" fill="#000000" opacity="0" x="0" y="0" width="20" height="20"></rect>
                                <path d="M16.4021322,9.18163901 C16.6989175,9.18163901 16.9457622,9.39880516 16.9921633,9.6826345 L17,9.77950683 L17,13.7684062 C17,14.3489203 16.8957746,14.5753092 16.7083794,14.7801183 L16.6496868,14.8412462 L14.7330845,16.6634603 C14.5369091,16.8596357 14.2231988,16.9348879 13.9356835,16.9506357 L13.8144855,16.9539207 L8.03198267,16.9539207 C7.73519735,16.9539207 7.48835267,16.7367545 7.44195159,16.4529252 L7.43411485,16.3560529 L7.43411485,9.77950683 C7.43411485,9.48272151 7.651281,9.23587683 7.93511034,9.18947575 L8.03198267,9.18163901 L16.4021322,9.18163901 Z M15.6835327,10.3322161 L8.81178938,10.3322161 C8.67006267,10.3322161 8.55167112,10.430361 8.52073734,10.5625281 L8.51285546,10.63115 L8.51285546,15.59762 C8.51285546,15.7393467 8.61100035,15.8577383 8.74316748,15.8886721 L8.81178938,15.8965539 L13.3983249,15.8965539 L13.3983249,14.8613833 C13.3983249,13.9022311 14.0101897,13.4025006 14.7716319,13.3499354 L14.9074626,13.3452985 L15.9824666,13.3452985 L15.9824666,10.63115 C15.9824666,10.4894233 15.8843217,10.3710318 15.7521546,10.340098 L15.6835327,10.3322161 Z M15.9602872,14.2635155 L14.9074626,14.2635155 C14.6106773,14.2635155 14.3638326,14.4806816 14.3174315,14.764511 L14.3095948,14.8613833 L14.3095948,15.7730051 L15.9602872,14.2635155 Z M8.62548342,4.03205082 C9.20599753,4.03205082 9.43238641,4.13627622 9.6371955,4.3236714 L9.69832337,4.38236399 L11.5205375,6.29896631 C11.7167129,6.49514169 11.7919651,6.808852 11.8077129,7.09636728 L11.8109979,7.2175653 L11.8107162,8.53305082 L10.7527162,8.53305082 L10.7536311,7.63372596 L9.71846053,7.63372596 C8.7593083,7.63372596 8.25957786,7.02186111 8.2070126,6.26041895 L8.20237573,6.12458819 L8.20237573,5.04958418 L5.48822725,5.04958418 C5.34650054,5.04958418 5.22810899,5.14772907 5.19717521,5.2798962 L5.18929333,5.34851809 L5.18929333,12.2202614 C5.18929333,12.3619881 5.28743822,12.4803797 5.41960535,12.5113135 L5.48822725,12.5191954 L6.91371622,12.5190508 L6.91371622,13.5970508 L4.63658404,13.597936 C4.33979872,13.597936 4.09295404,13.3807698 4.04655296,13.0969405 L4.03871622,13.0000681 L4.03871622,4.62991864 C4.03871622,4.33313331 4.25588237,4.08628864 4.53971171,4.03988755 L4.63658404,4.03205082 L8.62548342,4.03205082 Z M9.12059271,5.07176362 L9.12059271,6.12458819 C9.12059271,6.42137351 9.33775885,6.66821819 9.62158819,6.71461927 L9.71846053,6.72245601 L10.6300823,6.72245601 L9.12059271,5.07176362 Z" id="形状结合" fill="#464D5A"></path>
                                <path d="M14.3920097,6.66397109 C14.3920097,6.62888233 14.4228867,6.00062512 14.3920097,5.76791383 C14.3611327,5.53520255 14.0872524,5.23043692 14.0598321,5.1806908 C13.9493173,4.98019403 13.7023316,4.64008546 13.3093379,4.64008546 L13.3486511,3.86751295 C13.7862234,3.86751295 14.0375966,3.9918934 14.5888035,4.65990349 C14.7093754,4.80602507 14.8442936,4.97815818 14.9986452,5.1806908 C15.0534973,5.25873854 15.0955087,5.34987993 15.1246796,5.45411498 C15.1538505,5.55835002 15.1666184,5.66294964 15.1629835,5.76791383 L15.1246796,7.43008605 L16.0886239,6.53346629 L16.5251018,7.08728231 L14.7616608,8.61362303 L12.9932582,7.07141301 L13.4446208,6.53346629 L14.3920097,7.43008605 C14.3920097,7.37291966 14.3920097,7.11754801 14.3920097,6.66397109 Z" id="路径" fill="#464D5A"></path>
                            </g>
                        </g>
                    </g>
                </g>
            </g>
        </g>
    </g>
</svg>