<?xml version="1.0" encoding="UTF-8"?>
<svg width="20px" height="20px" viewBox="0 0 20 20" version="1.1" xmlns="http://www.w3.org/2000/svg" xmlns:xlink="http://www.w3.org/1999/xlink">
    <title>恢复</title>
    <g id="页面-1" stroke="none" stroke-width="1" fill="none" fill-rule="evenodd">
        <g id="报表设计器-格式-工具展开" transform="translate(-306.000000, -94.000000)">
            <g id="编组-13" transform="translate(219.000000, 48.000000)">
                <g id="操作栏" transform="translate(1.000000, 42.000000)">
                    <g id="编组-14备份" transform="translate(54.000000, 1.000000)">
                        <g id="编组-33" transform="translate(0.000000, 3.000000)">
                            <g id="恢复" transform="translate(32.000000, 0.000000)">
                                <g id="编组-11备份" transform="translate(10.000000, 10.000000) scale(-1, 1) translate(-10.000000, -10.000000) ">
                                    <rect id="矩形" stroke="#979797" fill="#D8D8D8" fill-rule="nonzero" opacity="0" x="0" y="0" width="20" height="20"></rect>
                                    <g id="编组-10" transform="translate(3.481220, 4.310289)">
                                        <path d="M3.18544703,2.56471106 L8.18544703,2.56471106 C10.4866334,2.56471106 12.3521137,4.22185794 12.3521137,6.5230444 C12.3521137,8.82423081 10.4866334,10.6897111 8.18544703,10.6897111 L2.3521137,10.6897111" id="路径" stroke="#464D5A" stroke-width="1.25"></path>
                                        <path d="M4.01878037,0.166684837 L4.01878037,4.77346035 C4.01878037,4.8655078 3.94416116,4.94012701 3.8521137,4.94012701 C3.82242368,4.94012701 3.79327261,4.93219597 3.76767499,4.91715405 L0.0822545858,2.75149108 C0.00289474162,2.70485686 -0.023634625,2.6027185 0.0229995866,2.52335865 C0.03584739,2.50149489 0.0535149958,2.48285121 0.07465698,2.4688474 L3.76007738,0.0277348662 C3.83681733,-0.0230953871 3.94023342,-0.00209142798 3.99106367,0.074648522 C4.00914051,0.101939665 4.01878037,0.133949862 4.01878037,0.166684837 Z" id="路径" fill="#464D5A" fill-rule="nonzero"></path>
                                    </g>
                                </g>
                            </g>
                        </g>
                    </g>
                </g>
            </g>
        </g>
    </g>
</svg>