<svg width="20" height="20" viewBox="0 0 24 24" xmlns="http://www.w3.org/2000/svg">
<g id="ICON/toolbar/data/validation" stroke="none" stroke-width="1" fill="none" fill-rule="evenodd">
<path d="m16.2 15.3 1.62 1.62 1.58-1.58.8.8-1.58 1.581 1.54 1.539-.8.8-1.54-1.539-1.58 1.579-.8-.8 1.58-1.58-1.62-1.62.8-.8ZM19 13v1.3H6.3v3.4l6.7-.001V19H5.5a.5.5 0 0 1-.5-.5v-5a.5.5 0 0 1 .5-.5H19Zm.81-5.8.848.849-3.46 3.46L15 9.312l.849-.849 1.349 1.35L19.81 7.2ZM19 5v1.3H6.3v3.4H13V11H5.5a.5.5 0 0 1-.5-.5v-5a.5.5 0 0 1 .5-.5H19Z" id="形状" fill="#464D5A" fill-rule="nonzero"/>
</g>
</svg>