<?xml version="1.0" encoding="UTF-8"?>
<svg width="20px" height="20px" viewBox="0 0 20 20" version="1.1" xmlns="http://www.w3.org/2000/svg" xmlns:xlink="http://www.w3.org/1999/xlink">
    <title>水印</title>
    <g id="编辑器" stroke="none" stroke-width="1" fill="none" fill-rule="evenodd">
        <g id="报表设计器-设置水印-水印放大编辑（插入变量显示示例）" transform="translate(-818, -94)">
            <g id="编组-13" transform="translate(219, 48)">
                <g id="操作栏" transform="translate(1, 42)">
                    <g id="编组-14备份" transform="translate(16, 0)">
                        <g id="编组-33" transform="translate(0, 4)">
                            <g id="水印" transform="translate(582, 0)">
                                <rect id="bg" opacity="0.0599999987" x="0" y="0" width="20" height="20"></rect>
                                <path d="M10.1715638,5.12526677 L7.32734735,7.96947744 C5.75653082,9.54031695 5.75653082,12.0870823 7.32734735,13.657916 C8.89816387,15.2287498 11.4449751,15.2287498 13.0157514,13.657916 C14.5865852,12.0870823 14.5865852,9.54031695 13.0157514,7.96948319 L10.1715638,5.12526677 Z M10.1715638,3.5 L13.828434,7.15684664 C15.8480445,9.17646871 15.8480445,12.4509305 13.828434,14.4705411 C11.8087659,16.4901516 8.53433862,16.4901516 6.51471655,14.4705411 C4.49509448,12.4509305 4.49509448,9.17646871 6.51471655,7.15684664 L10.1715638,3.5 Z M7.29847278,10.8136709 L13.0446547,10.8136709 C13.0446547,12.400479 11.7583145,13.6867619 10.1715638,13.6867619 C8.58480159,13.6867619 7.29847278,12.400479 7.29847278,10.8136709 Z" id="形状" fill="#464D5A" fill-rule="nonzero"></path>
                            </g>
                        </g>
                    </g>
                </g>
            </g>
        </g>
    </g>
</svg>