<?xml version="1.0" encoding="UTF-8"?>
<svg width="21px" height="20px" viewBox="0 0 21 20" version="1.1" xmlns="http://www.w3.org/2000/svg" xmlns:xlink="http://www.w3.org/1999/xlink">
    <title>自动换行</title>
    <g id="页面-1" stroke="none" stroke-width="1" fill="none" fill-rule="evenodd">
        <g id="报表设计器-格式-工具展开" transform="translate(-1234.000000, -94.000000)">
            <g id="编组-13" transform="translate(219.000000, 48.000000)">
                <g id="操作栏" transform="translate(1.000000, 42.000000)">
                    <g id="编组-14备份" transform="translate(54.000000, 1.000000)">
                        <g id="编组-29" transform="translate(818.500000, 0.000000)">
                            <g id="自动换行" transform="translate(142.000000, 3.000000)">
                                <rect id="Toolbar_Icon_Size_22x22" x="0.833333333" y="0.833333333" width="18.3333333" height="18.3333333"></rect>
                                <g id="_图标/工具栏/02_表格/自动换行" fill-rule="nonzero">
                                    <rect id="Rectangle" fill="#000000" opacity="0" x="0" y="0" width="20" height="20"></rect>
                                    <path d="M13.4375,9.41666667 C14.9908008,9.41666667 16.25,10.6758658 16.25,12.2291667 C16.25,13.7824675 14.9908008,15.0416667 13.4375,15.0416667 L12.5,15.0416667 L12.5,16.375 L10,14.5216763 L10,14.4783237 L12.5,12.625 L12.5,13.8741667 L13.4375,13.875 C14.3464687,13.875 15.0833333,13.1381353 15.0833333,12.2291667 C15.0833333,11.320198 14.3464687,10.5833333 13.4375,10.5833333 L11.6666667,10.5825 L11.6666667,10.5833333 L4.16666667,10.5833333 L4.16666667,9.41666667 L13.4375,9.41666667 Z M8.33333333,13.8333333 L8.33333333,15 L4.16666667,15 L4.16666667,13.8333333 L8.33333333,13.8333333 Z M15.8333333,5 L15.8333333,6.16666667 L4.16666667,6.16666667 L4.16666667,5 L15.8333333,5 Z" id="形状结合" fill="#464D5A"></path>
                                </g>
                            </g>
                        </g>
                    </g>
                </g>
            </g>
        </g>
    </g>
</svg>