<?xml version="1.0" encoding="UTF-8"?>
<svg width="14px" height="14px" viewBox="0 0 14 14" version="1.1" xmlns="http://www.w3.org/2000/svg" xmlns:xlink="http://www.w3.org/1999/xlink">
    <title>下拉-自定义排序</title>
    <g id="页面-1" stroke="none" stroke-width="1" fill="none" fill-rule="evenodd">
        <g id="报表设计器-格式-工具展开" transform="translate(-1311.000000, -190.000000)" fill="#000000" fill-rule="nonzero">
            <g id="Dropdown备份-6" transform="translate(1295.000000, 119.000000)">
                <g id="编组-25" transform="translate(16.000000, 13.000000)">
                    <g id="编组-22备份-2" transform="translate(0.000000, 56.000000)">
                        <g id="下拉-自定义排序" transform="translate(0.000000, 2.000000)">
                            <rect id="Rectangle" opacity="0" x="0" y="0" width="14" height="14"></rect>
                            <path d="M4.56571429,5.10571429 L2.48285714,5.10571429 L1.96857143,6.57142857 L1,6.57142857 L2.99714286,1.42857143 L4.08571429,1.42857143 L6.07428571,6.57142857 L5.07142857,6.57142857 L4.56571429,5.10571429 Z M4.34285714,4.47142857 L4.08571429,3.77714286 C3.88,3.22 3.7,2.64571429 3.51142857,2.06285714 L3.51142857,2.06285714 C3.34,2.65428571 3.15142857,3.22 2.95428571,3.77714286 L2.70571429,4.47142857 L4.34285714,4.47142857 Z M1.24,12.34 L4.52285714,8.37142857 L1.51428571,8.37142857 L1.51428571,7.68571429 L5.8,7.68571429 L5.8,8.17428571 L2.51714286,12.1428571 L5.8,12.1428571 L5.8,12.8285714 L1.24,12.8285714 L1.24,12.34 Z M10.3571427,13.2657135 L11.9999997,10.6371423 L10.7836284,10.6377994 L10.7842855,7.86614405 L9.92999989,7.86614405 L9.92934275,10.6377994 L8.71428571,10.6371423 L10.3571427,13.2657135 Z M10.3571427,1.3714288 L11.9999997,4 L10.7836284,3.99934286 L10.7842855,6.77099823 L9.92999989,6.77099823 L9.92934275,3.99934286 L8.71428571,4 L10.3571427,1.3714288 Z" id="形状结合"></path>
                        </g>
                    </g>
                </g>
            </g>
        </g>
    </g>
</svg>