<?xml version="1.0" encoding="UTF-8"?>
<svg width="14px" height="14px" viewBox="0 0 14 14" version="1.1" xmlns="http://www.w3.org/2000/svg" xmlns:xlink="http://www.w3.org/1999/xlink">
    <title>下拉-降序</title>
    <g id="页面-1" stroke="none" stroke-width="1" fill="none" fill-rule="evenodd">
        <g id="报表设计器-格式-工具展开" transform="translate(-1311.000000, -162.000000)" fill="#000000" fill-rule="nonzero">
            <g id="Dropdown备份-6" transform="translate(1295.000000, 119.000000)">
                <g id="编组-25" transform="translate(16.000000, 13.000000)">
                    <g id="编组-22备份" transform="translate(0.000000, 28.000000)">
                        <g id="下拉-降序" transform="translate(0.000000, 2.000000)">
                            <rect id="Rectangle" opacity="0" x="0" y="0" width="14" height="14"></rect>
                            <path d="M4.56571429,11.3628571 L2.48285714,11.3628571 L1.96857143,12.8285714 L1,12.8285714 L2.99714286,7.68571429 L4.08571429,7.68571429 L6.07428571,12.8285714 L5.07142857,12.8285714 L4.56571429,11.3628571 Z M4.34285714,10.7285714 L4.08571429,10.0342857 C3.88,9.47714286 3.7,8.90285714 3.51142857,8.32 L3.51142857,8.32 C3.34,8.91142857 3.15142857,9.47714286 2.95428571,10.0342857 L2.70571429,10.7285714 L4.34285714,10.7285714 Z M1.24,6.08285714 L4.52285714,2.11428571 L1.51428571,2.11428571 L1.51428571,1.42857143 L5.8,1.42857143 L5.8,1.91714286 L2.51714286,5.88571429 L5.8,5.88571429 L5.8,6.57142857 L1.24,6.57142857 L1.24,6.08285714 Z M10.8571429,13.0857143 L13,9.65714286 L11.4134286,9.658 L11.4142857,1 L10.3,1 L10.2991429,9.658 L8.71428571,9.65714286 L10.8571429,13.0857143 Z" id="形状结合"></path>
                        </g>
                    </g>
                </g>
            </g>
        </g>
    </g>
</svg>