<?xml version="1.0" encoding="UTF-8"?>
<svg width="14px" height="15px" viewBox="0 0 14 15" version="1.1" xmlns="http://www.w3.org/2000/svg" xmlns:xlink="http://www.w3.org/1999/xlink">
    <title>下拉-边框颜色</title>
    <g id="页面-1" stroke="none" stroke-width="1" fill="none" fill-rule="evenodd">
        <g id="报表设计器-格式-工具展开" transform="translate(-1001.000000, -201.000000)">
            <g id="Dropdown备份-7" transform="translate(985.000000, 119.000000)">
                <g id="编组-52" transform="translate(16.000000, 80.500000)">
                    <g id="下拉-边框颜色" transform="translate(0.000000, 2.000000)">
                        <rect id="Rectangle" stroke="#979797" fill="#D8D8D8" fill-rule="nonzero" opacity="0" x="0" y="0" width="14" height="14"></rect>
                        <path d="M6.77159862,0.0881789048 L10.6034875,3.92006775 C10.7210594,4.03763961 10.7210594,4.22826133 10.6034875,4.34583319 L6.34583319,8.6034875 C6.22826133,8.72105936 6.03763961,8.72105936 5.92006775,8.6034875 L2.0881789,4.77159862 C1.97060703,4.65402676 1.97060703,4.46340505 2.0881789,4.34583319 L6.34583319,0.0881789048 C6.46340505,-0.0293929683 6.65402676,-0.0293929683 6.77159862,0.0881789048 Z M11.1572914,4.9666665 L11.8306104,6.20833313 C11.9679282,6.4630673 11.9675499,6.77462996 11.8296141,7.02899728 C11.6916782,7.28336455 11.4364329,7.44319691 11.1572914,7.44999975 C10.8781498,7.44319691 10.6229045,7.28336455 10.4849686,7.02899728 C10.3470328,6.77462996 10.3466545,6.4630673 10.4839723,6.20833313 L11.1572914,4.9666665 Z M6.55871588,0.982286304 L2.9822863,4.55871588 L3.39,4.966 L8.875,4.966 L9.70938006,4.1329505 L6.55871588,0.982286304 Z" id="形状结合" fill="#464D5A" fill-rule="nonzero"></path>
                        <rect id="矩形" fill="#000000" x="1" y="10" width="10.8" height="2.1"></rect>
                    </g>
                </g>
            </g>
        </g>
    </g>
</svg>