<?xml version="1.0" encoding="UTF-8"?>
<svg width="16px" height="16px" viewBox="0 0 16 16" version="1.1" xmlns="http://www.w3.org/2000/svg" xmlns:xlink="http://www.w3.org/1999/xlink">
    <title>吸管</title>
    <g id="页面-1" stroke="none" stroke-width="1" fill="none" fill-rule="evenodd">
        <g id="报表设计器-格式-工具展开" transform="translate(-928.000000, -533.000000)" fill-rule="nonzero">
            <g id="编组-64" transform="translate(920.000000, 350.000000)">
                <g id="编组-63" transform="translate(8.000000, 179.000000)">
                    <g id="吸管" transform="translate(0.000000, 4.000000)">
                        <rect id="矩形" fill="#000000" opacity="0" x="0" y="0" width="16" height="16"></rect>
                        <path d="M12.6515625,8.7765625 C12.4765625,8.7765625 12.3109375,8.7078125 12.1875,8.584375 L7.415625,3.8125 C7.2921875,3.6890625 7.2234375,3.5234375 7.2234375,3.3484375 C7.2234375,3.1734375 7.2921875,3.0078125 7.415625,2.884375 L8.8078125,1.4921875 C8.93125,1.36875 9.096875,1.3 9.271875,1.3 C9.446875,1.3 9.6125,1.36875 9.7359375,1.4921875 L14.5078125,6.265625 C14.7640625,6.521875 14.7640625,6.9375 14.5078125,7.19375 L13.115625,8.5859375 C12.9921875,8.709375 12.8265625,8.7765625 12.6515625,8.7765625 L12.6515625,8.7765625 Z M8.2765625,3.3484375 L12.6515625,7.7234375 L13.6453125,6.7296875 L9.2703125,2.3546875 L8.2765625,3.3484375 Z" id="形状" fill="#313144"></path>
                        <path d="M13.3859375,6.15 L12.7234375,5.4875 L13.61875,4.5921875 C13.9125,4.2984375 14.0734375,3.90625 14.0734375,3.4875 C14.0734375,3.06875 13.9125,2.6765625 13.61875,2.3828125 C13.325,2.0890625 12.9328125,1.928125 12.5140625,1.928125 C12.0953125,1.928125 11.703125,2.0890625 11.409375,2.3828125 L10.5140625,3.278125 L9.8515625,2.615625 L10.746875,1.7203125 C11.2171875,1.25 11.8453125,0.990625 12.5140625,0.990625 C13.1828125,0.990625 13.8109375,1.25 14.28125,1.7203125 C15.25625,2.6953125 15.25625,4.28125 14.28125,5.25625 L13.3859375,6.15 L13.3859375,6.15 Z M1.4734375,13.746875 C1.3734375,13.746875 1.2734375,13.715625 1.1875,13.65 C0.9828125,13.4921875 0.94375,13.1984375 1.1015625,12.9921875 L1.7078125,12.203125 C1.65625,11.8625 1.6734375,11.5109375 1.7625,11.1765625 C1.875,10.7515625 2.0984375,10.3640625 2.4078125,10.053125 L8.3625,4.0984375 C8.5453125,3.915625 8.8421875,3.915625 9.025,4.0984375 C9.2078125,4.28125 9.2078125,4.578125 9.025,4.7609375 L3.0734375,10.7171875 C2.6875,11.103125 2.5328125,11.6734375 2.665625,12.20625 C2.7,12.3453125 2.6703125,12.4921875 2.5828125,12.60625 L1.846875,13.5640625 C1.753125,13.684375 1.6140625,13.746875 1.4734375,13.746875 Z M2.721875,14.9953125 C2.58125,14.9953125 2.4421875,14.9328125 2.35,14.8125 C2.1921875,14.6078125 2.23125,14.3125 2.4359375,14.1546875 L3.39375,13.41875 C3.5078125,13.33125 3.6546875,13.3015625 3.79375,13.3359375 C4.328125,13.4703125 4.8984375,13.3140625 5.2828125,12.928125 L11.2375,6.9734375 C11.4203125,6.790625 11.7171875,6.790625 11.9,6.9734375 C12.0828125,7.15625 12.0828125,7.453125 11.9,7.6359375 L5.9453125,13.590625 C5.634375,13.9015625 5.246875,14.125 4.821875,14.2359375 C4.4875,14.325 4.1375,14.3421875 3.7953125,14.290625 L3.00625,14.896875 C2.921875,14.9640625 2.821875,14.9953125 2.721875,14.9953125 L2.721875,14.9953125 Z" id="形状" fill="#313144"></path>
                    </g>
                </g>
            </g>
        </g>
    </g>
</svg>