<?xml version="1.0" encoding="UTF-8"?>
<svg width="21px" height="20px" viewBox="0 0 21 20" version="1.1" xmlns="http://www.w3.org/2000/svg" xmlns:xlink="http://www.w3.org/1999/xlink">
    <title>垂直居中</title>
    <g id="页面-1" stroke="none" stroke-width="1" fill="none" fill-rule="evenodd">
        <g id="报表设计器-格式-工具展开" transform="translate(-1188.000000, -94.000000)" fill-rule="nonzero">
            <g id="编组-13" transform="translate(219.000000, 48.000000)">
                <g id="操作栏" transform="translate(1.000000, 42.000000)">
                    <g id="编组-14备份" transform="translate(54.000000, 1.000000)">
                        <g id="编组-29" transform="translate(818.500000, 0.000000)">
                            <g id="垂直居中" transform="translate(96.000000, 3.000000)">
                                <rect id="Rectangle" fill="#000000" opacity="0" x="0" y="0" width="20" height="20"></rect>
                                <path d="M10,11.6666667 L12.0833333,14.1666667 L10.525,14.1666667 L10.525,16.6666667 L9.48333333,16.6666667 L9.48333333,14.1666667 L7.91666667,14.1666667 L10,11.6666667 Z M16.25,9.41666667 L16.25,10.5833333 L3.75,10.5833333 L3.75,9.41666667 L16.25,9.41666667 Z M10.525,3.33333333 L10.5241667,5.8325 L12.0833333,5.83333333 L10,8.33333333 L7.91666667,5.83333333 L9.4825,5.8325 L9.48333333,3.33333333 L10.525,3.33333333 Z" id="形状" fill="#464D5A"></path>
                            </g>
                        </g>
                    </g>
                </g>
            </g>
        </g>
    </g>
</svg>