<svg t="1645583734012" class="icon" viewBox="0 0 1024 1024" version="1.1" xmlns="http://www.w3.org/2000/svg" p-id="9556" width="18" height="18"><path d="M658.7 620.4H365.2c-20.5 0-37.2 16.7-37.2 37.2s16.7 37.2 37.2 37.2h293.6c20.5 0 37.2-16.7 37.2-37.2s-16.7-37.2-37.3-37.2z" p-id="9557"></path><path d="M893.6 238.8H784V129.2c0-36.7-29.9-66.6-66.6-66.6h-411c-36.7 0-66.6 29.9-66.6 66.6v109.6H130.3c-36.7 0-66.6 29.9-66.6 66.6V599c0 36.7 29.9 66.6 66.6 66.6h80.2v227c0 36.7 29.9 66.6 66.6 66.6h469.7c36.7 0 66.6-29.9 66.6-66.6v-227h80.2c36.7 0 66.6-29.9 66.6-66.6V305.4c0-36.7-29.9-66.6-66.6-66.6z m-579.3-80.2c0-11.9 9.6-21.5 21.5-21.5h352.3c11.9 0 21.5 9.6 21.5 21.5v80.2H314.3v-80.2zM739 863.2c0 11.9-9.6 21.5-21.5 21.5h-411c-11.9 0-21.5-9.6-21.5-21.5V569.6c0-11.9 9.6-21.5 21.5-21.5h411c11.9 0 21.5 9.6 21.5 21.5v293.6z m146.8-293.6c0 11.9-9.6 21.5-21.5 21.5h-50.9v-50.9c0-36.7-29.9-66.6-66.6-66.6H277.1c-36.7 0-66.6 29.9-66.6 66.6v50.9h-50.9c-11.9 0-21.5-9.6-21.5-21.5V334.7c0-11.9 9.6-21.5 21.5-21.5h704.6c11.9 0 21.5 9.6 21.5 21.5v234.9z" p-id="9558"></path><path d="M658.7 737.9H365.2c-20.5 0-37.2 16.7-37.2 37.2 0 20.5 16.7 37.2 37.2 37.2h293.6c20.5 0 37.2-16.7 37.2-37.2 0-20.5-16.7-37.2-37.3-37.2z" p-id="9559"></path><path d="M801.1 392.1m-48 0a48 48 0 1 0 96 0 48 48 0 1 0-96 0Z" p-id="9560"></path></svg>