<svg t="1645583599383" class="icon" viewBox="0 0 1024 1024" version="1.1" xmlns="http://www.w3.org/2000/svg" p-id="7842" width="16" height="16"><path d="M739.555556 796.444444v-56.888888h-170.666667v-170.666667h170.666667v113.777778h113.777777v113.777777h-56.888889v113.777778h-113.777777v113.777778h-113.777778v-170.666667h113.777778v-56.888889h56.888889z m284.444444 227.555556h-227.555556v-113.777778h113.777778v-113.777778h113.777778v227.555556zM0 0h455.111111v455.111111H0V0z m113.777778 113.777778v227.555555h227.555555V113.777778H113.777778z m455.111111-113.777778h455.111111v455.111111h-455.111111V0z m113.777778 113.777778v227.555555h227.555555V113.777778h-227.555555zM0 568.888889h455.111111v455.111111H0v-455.111111z m113.777778 113.777778v227.555555h227.555555v-227.555555H113.777778z m739.555555-113.777778h170.666667v113.777778h-170.666667v-113.777778zM170.666667 170.666667h113.777777v113.777777H170.666667V170.666667z m0 568.888889h113.777777v113.777777H170.666667v-113.777777zM739.555556 170.666667h113.777777v113.777777h-113.777777V170.666667z" p-id="7843"></path></svg>