<?xml version="1.0" encoding="UTF-8"?>
<svg width="14px" height="14px" viewBox="0 0 14 14" version="1.1" xmlns="http://www.w3.org/2000/svg" xmlns:xlink="http://www.w3.org/1999/xlink">
    <title>Icon/visibility备份 2</title>
    <g id="923" stroke="none" stroke-width="1" fill="none" fill-rule="evenodd">
        <g id="Icon/visibility备份-2" transform="translate(-1.000000, -1.370667)">
            <path d="M9.11133333,3.14 L3.55533333,8.69533333 L3.55533333,10.778 L5.63866667,10.778 L11.1946667,5.22333333 L9.11133333,3.14 Z M14.6666667,12.4446667 L14.6666667,14.6666667 L1.33333333,14.6666667 L1.33333333,12.4446667 L14.6666667,12.4446667 Z M10.7553333,1.496 C10.8591359,1.39198439 11.0000503,1.33353109 11.147,1.33353109 C11.2939497,1.33353109 11.4348641,1.39198439 11.5386667,1.496 L12.8386667,2.796 C12.9424782,2.89977562 13.0008019,3.04054709 13.0008019,3.18733334 C13.0008019,3.33411958 12.9424782,3.47489105 12.8386667,3.57866667 L11.75,4.668 L9.66666667,2.58466667 L10.7553333,1.496 Z" id="icon" fill="#FFFFFF"></path>
            <rect id="border_color" x="0" y="0" width="16" height="16"></rect>
        </g>
    </g>
</svg>