<?xml version="1.0" encoding="UTF-8"?>
<svg width="280px" height="115px" viewBox="0 0 280 115" version="1.1" xmlns="http://www.w3.org/2000/svg" xmlns:xlink="http://www.w3.org/1999/xlink">
    <title>暂无适用策略</title>
    <defs>
        <rect id="no-strategy-path-1" x="0" y="0" width="1090" height="800"></rect>
        <filter x="-9.4%" y="-11.2%" width="118.7%" height="125.5%" filterUnits="objectBoundingBox" id="no-strategy-filter-2">
            <feMorphology radius="8" operator="dilate" in="SourceAlpha" result="shadowSpreadOuter1"></feMorphology>
            <feOffset dx="0" dy="12" in="shadowSpreadOuter1" result="shadowOffsetOuter1"></feOffset>
            <feGaussianBlur stdDeviation="24" in="shadowOffsetOuter1" result="shadowBlurOuter1"></feGaussianBlur>
            <feColorMatrix values="0 0 0 0 0.11372549   0 0 0 0 0.129411765   0 0 0 0 0.160784314  0 0 0 0.03 0" type="matrix" in="shadowBlurOuter1" result="shadowMatrixOuter1"></feColorMatrix>
            <feOffset dx="0" dy="9" in="SourceAlpha" result="shadowOffsetOuter2"></feOffset>
            <feGaussianBlur stdDeviation="14" in="shadowOffsetOuter2" result="shadowBlurOuter2"></feGaussianBlur>
            <feColorMatrix values="0 0 0 0 0.11372549   0 0 0 0 0.129411765   0 0 0 0 0.160784314  0 0 0 0.05 0" type="matrix" in="shadowBlurOuter2" result="shadowMatrixOuter2"></feColorMatrix>
            <feMorphology radius="4" operator="erode" in="SourceAlpha" result="shadowSpreadOuter3"></feMorphology>
            <feOffset dx="0" dy="6" in="shadowSpreadOuter3" result="shadowOffsetOuter3"></feOffset>
            <feGaussianBlur stdDeviation="8" in="shadowOffsetOuter3" result="shadowBlurOuter3"></feGaussianBlur>
            <feColorMatrix values="0 0 0 0 0.11372549   0 0 0 0 0.129411765   0 0 0 0 0.160784314  0 0 0 0.08 0" type="matrix" in="shadowBlurOuter3" result="shadowMatrixOuter3"></feColorMatrix>
            <feMerge>
                <feMergeNode in="shadowMatrixOuter1"></feMergeNode>
                <feMergeNode in="shadowMatrixOuter2"></feMergeNode>
                <feMergeNode in="shadowMatrixOuter3"></feMergeNode>
            </feMerge>
        </filter>
        <path d="M34.9167974,18.6466667 L157.765425,18.6466667 C159.885657,18.6466667 161.604444,20.2800487 161.604444,22.2949275 L161.604444,98.9084058 C161.604444,100.923285 159.885657,102.556667 157.765425,102.556667 L34.9167974,102.556667 C32.7965654,102.556667 31.0777778,100.923285 31.0777778,98.9084058 L31.0777778,22.2949275 C31.0777778,20.2800487 32.7965654,18.6466667 34.9167974,18.6466667 Z" id="no-strategy-path-3"></path>
        <filter x="-10.7%" y="-11.9%" width="121.5%" height="133.4%" filterUnits="objectBoundingBox" id="no-strategy-filter-4">
            <feOffset dx="0" dy="4" in="SourceAlpha" result="shadowOffsetOuter1"></feOffset>
            <feGaussianBlur stdDeviation="4" in="shadowOffsetOuter1" result="shadowBlurOuter1"></feGaussianBlur>
            <feColorMatrix values="0 0 0 0 0.11372549   0 0 0 0 0.129411765   0 0 0 0 0.160784314  0 0 0 0.06 0" type="matrix" in="shadowBlurOuter1" result="shadowMatrixOuter1"></feColorMatrix>
            <feOffset dx="0" dy="2" in="SourceAlpha" result="shadowOffsetOuter2"></feOffset>
            <feGaussianBlur stdDeviation="2" in="shadowOffsetOuter2" result="shadowBlurOuter2"></feGaussianBlur>
            <feColorMatrix values="0 0 0 0 0.11372549   0 0 0 0 0.129411765   0 0 0 0 0.160784314  0 0 0 0.1 0" type="matrix" in="shadowBlurOuter2" result="shadowMatrixOuter2"></feColorMatrix>
            <feMerge>
                <feMergeNode in="shadowMatrixOuter1"></feMergeNode>
                <feMergeNode in="shadowMatrixOuter2"></feMergeNode>
            </feMerge>
        </filter>
        <path d="M48.4813333,34.1855556 L63.3986667,34.1855556 C64.4284936,34.1855556 65.2633333,35.0203953 65.2633333,36.0502222 L65.2633333,50.9675556 C65.2633333,51.9973825 64.4284936,52.8322222 63.3986667,52.8322222 L48.4813333,52.8322222 C47.4515064,52.8322222 46.6166667,51.9973825 46.6166667,50.9675556 L46.6166667,36.0502222 C46.6166667,35.0203953 47.4515064,34.1855556 48.4813333,34.1855556 Z" id="no-strategy-path-5"></path>
        <path d="M48.4813333,68.3711111 L63.3986667,68.3711111 C64.4284936,68.3711111 65.2633333,69.2059508 65.2633333,70.2357778 L65.2633333,85.1531111 C65.2633333,86.1829381 64.4284936,87.0177778 63.3986667,87.0177778 L48.4813333,87.0177778 C47.4515064,87.0177778 46.6166667,86.1829381 46.6166667,85.1531111 L46.6166667,70.2357778 C46.6166667,69.2059508 47.4515064,68.3711111 48.4813333,68.3711111 Z" id="no-strategy-path-6"></path>
        <path d="M73.0327778,34.1855556 L110.326111,34.1855556 C111.1843,34.1855556 111.88,34.8812553 111.88,35.7394444 L111.88,38.8472222 C111.88,39.7054114 111.1843,40.4011111 110.326111,40.4011111 L73.0327778,40.4011111 C72.1745886,40.4011111 71.4788889,39.7054114 71.4788889,38.8472222 L71.4788889,35.7394444 C71.4788889,34.8812553 72.1745886,34.1855556 73.0327778,34.1855556 Z" id="no-strategy-path-7"></path>
        <path d="M73.0327778,68.3711111 L110.326111,68.3711111 C111.1843,68.3711111 111.88,69.0668109 111.88,69.925 L111.88,73.0327778 C111.88,73.8909669 111.1843,74.5866667 110.326111,74.5866667 L73.0327778,74.5866667 C72.1745886,74.5866667 71.4788889,73.8909669 71.4788889,73.0327778 L71.4788889,69.925 C71.4788889,69.0668109 72.1745886,68.3711111 73.0327778,68.3711111 Z" id="no-strategy-path-8"></path>
        <path d="M73.4947447,46.6166667 L144.0497,46.6166667 C145.163026,46.6166667 146.065556,47.3123664 146.065556,48.1705556 L146.065556,51.2783333 C146.065556,52.1365225 145.163026,52.8322222 144.0497,52.8322222 L73.4947447,52.8322222 C72.3814183,52.8322222 71.4788889,52.1365225 71.4788889,51.2783333 L71.4788889,48.1705556 C71.4788889,47.3123664 72.3814183,46.6166667 73.4947447,46.6166667 Z" id="no-strategy-path-9"></path>
        <path d="M73.4947447,80.8022222 L144.0497,80.8022222 C145.163026,80.8022222 146.065556,81.497922 146.065556,82.3561111 L146.065556,85.4638889 C146.065556,86.322078 145.163026,87.0177778 144.0497,87.0177778 L73.4947447,87.0177778 C72.3814183,87.0177778 71.4788889,86.322078 71.4788889,85.4638889 L71.4788889,82.3561111 C71.4788889,81.497922 72.3814183,80.8022222 73.4947447,80.8022222 Z" id="no-strategy-path-10"></path>
        <path d="M1.3046291,7.76970201 L0.376022637,9.32844517 C0.318268978,9.42539025 0.318747337,9.54638687 0.376747321,9.64270256 L0.380699196,9.6490865 C0.421768991,9.71364851 0.508360058,9.74666702 0.640472396,9.74814204 L0.649893635,9.74819377 L1.10124991,9.74819377 C1.23636479,9.74819377 1.37100845,9.73214882 1.50239245,9.70039121 L9.48982143,7.76970201 L1.3046291,7.76970201 Z" id="no-strategy-path-11"></path>
        <path d="M3.27251656,4.80196437 L18.6466667,4.80196437 L0.507165291,0.0131464257 C0.315419046,-0.0374745714 0.11636407,0.0619313465 0.0399443575,0.245306676 L0.0372034653,0.252052874 C-0.0320653239,0.427008558 -0.00330697786,0.625892025 0.112632067,0.773693036 L3.27251656,4.80196437 Z" id="no-strategy-path-12"></path>
        <polygon id="no-strategy-path-13" points="18.6466667 4.80196437 3.27361144 4.80196437 1.31109375 7.76970201 5.56321541 7.76970201"></polygon>
        <path d="M18.6466667,4.80196437 L9.81303549,13.04568 C9.66973105,13.1143777 9.5607612,13.1487265 9.48612595,13.1487265 C9.4114907,13.1487265 9.30487872,13.1143777 9.16629003,13.04568 L4.75301125,7.11020476 C4.73260584,6.87020506 4.75075166,6.71207891 4.80744872,6.63582632 C4.86414577,6.55957372 5.00945472,6.49786745 5.24337556,6.45070751 L18.6466667,4.80196437 Z" id="no-strategy-path-14"></path>
    </defs>
    <g id="no-strategy-923" stroke="none" stroke-width="1" fill="none" fill-rule="evenodd">
        <g id="no-strategy-暂无适用策略" transform="translate(-755.000000, -327.000000)">
            <rect id="no-strategy-矩形" fill-opacity="0.25" fill="#1D2129" x="0" y="0" width="1440" height="800"></rect>
            <g id="no-strategy-bg白" transform="translate(350.000000, 0.000000)">
                <use fill="black" fill-opacity="1" filter="url(#no-strategy-filter-2)" xlink:href="#no-strategy-path-1"></use>
                <use fill="#FFFFFF" fill-rule="evenodd" xlink:href="#no-strategy-path-1"></use>
            </g>
            <g id="no-strategy-编组-4" transform="translate(755.000000, 327.000000)">
                <g id="no-strategy-编组-2" transform="translate(43.508889, 0.000000)">
                    <path d="M50.4556863,3.10777778 L173.304314,3.10777778 C175.424546,3.10777778 177.143333,4.74115981 177.143333,6.75603865 L177.143333,83.3695169 C177.143333,85.3843957 175.424546,87.0177778 173.304314,87.0177778 L50.4556863,87.0177778 C48.3354543,87.0177778 46.6166667,85.3843957 46.6166667,83.3695169 L46.6166667,6.75603865 C46.6166667,4.74115981 48.3354543,3.10777778 50.4556863,3.10777778 Z" id="no-strategy-矩形备份-5" fill="#F1F4F8"></path>
                    <g id="no-strategy-矩形">
                        <use fill="black" fill-opacity="1" filter="url(#no-strategy-filter-4)" xlink:href="#no-strategy-path-3"></use>
                        <use fill="#FFFFFF" fill-rule="evenodd" xlink:href="#no-strategy-path-3"></use>
                    </g>
                    <g id="no-strategy-矩形">
                        <use fill="currentColor" xlink:href="#no-strategy-path-5"></use>
                        <use fill-opacity="0.4" fill="#FFFFFF" xlink:href="#no-strategy-path-5"></use>
                    </g>
                    <g id="no-strategy-矩形备份">
                        <use fill="currentColor" xlink:href="#no-strategy-path-6"></use>
                        <use fill-opacity="0.4" fill="#FFFFFF" xlink:href="#no-strategy-path-6"></use>
                    </g>
                    <g id="no-strategy-矩形">
                        <use fill="currentColor" xlink:href="#no-strategy-path-7"></use>
                        <use fill-opacity="0.4" fill="#FFFFFF" xlink:href="#no-strategy-path-7"></use>
                    </g>
                    <g id="no-strategy-矩形备份-3">
                        <use fill="currentColor" xlink:href="#no-strategy-path-8"></use>
                        <use fill-opacity="0.4" fill="#FFFFFF" xlink:href="#no-strategy-path-8"></use>
                    </g>
                    <g id="no-strategy-矩形备份-2">
                        <use fill="currentColor" xlink:href="#no-strategy-path-9"></use>
                        <use fill-opacity="0.8" fill="#FFFFFF" xlink:href="#no-strategy-path-9"></use>
                    </g>
                    <g id="no-strategy-矩形备份-4">
                        <use fill="currentColor" xlink:href="#no-strategy-path-10"></use>
                        <use fill-opacity="0.8" fill="#FFFFFF" xlink:href="#no-strategy-path-10"></use>
                    </g>
                    <g id="no-strategy-编组">
                        <g id="no-strategy-元素/纸飞机/主色备份" transform="translate(6.215556, 0.000000)">
                            <g id="no-strategy-路径-14">
                                <use fill="currentColor" xlink:href="#no-strategy-path-11"></use>
                                <use fill-opacity="0.4" fill="#FFFFFF" xlink:href="#no-strategy-path-11"></use>
                            </g>
                            <g id="no-strategy-路径-5">
                                <use fill="currentColor" xlink:href="#no-strategy-path-12"></use>
                                <use fill-opacity="0.2" fill="#FFFFFF" xlink:href="#no-strategy-path-12"></use>
                            </g>
                            <g id="no-strategy-路径-12">
                                <use fill="currentColor" xlink:href="#no-strategy-path-13"></use>
                                <use fill-opacity="0.2" fill="#000000" xlink:href="#no-strategy-path-13"></use>
                            </g>
                            <g id="no-strategy-路径-13">
                                <use fill="currentColor" xlink:href="#no-strategy-path-14"></use>
                                <use fill-opacity="0.2" fill="#FFFFFF" xlink:href="#no-strategy-path-14"></use>
                            </g>
                        </g>
                        <path d="M27.9219845,41.1780556 C26.5945157,41.3042901 25.0184726,41.3300111 23.3330342,41.2477696 L23.3083333,41.9069923 C25.0169962,41.9903671 26.6171141,41.9642531 27.97,41.8356016 L27.9219845,41.1780556 Z M18.6466667,40.542618 C17.0985206,40.3120178 15.5756568,40.004992 14.118015,39.6241667 L13.985,40.2481893 C15.4615754,40.6339612 17.003015,40.9447321 18.5694438,41.1780556 L18.6466667,40.542618 Z M9.32333333,38.3530746 C7.69520088,37.8198571 6.24125071,37.206881 4.99041463,36.5163889 L4.66166667,36.9617796 C5.95009459,37.6730233 7.44144226,38.3017661 9.10694446,38.8472222 L9.32333333,38.3530746 Z M2.33083333,33.832593 C1.32535447,32.5345115 0.751733413,31.1001041 0.6396223,29.5238889 L0,29.5638513 C0.120316759,31.2554331 0.737081091,32.7977253 1.81207833,34.1855556 L2.33083333,33.832593 Z M2.57765109,26.4161111 C3.79252252,25.7604774 5.42268187,25.4524557 6.96485348,25.5368544 L6.9925,24.8766726 C5.36126583,24.7873997 3.63791318,25.1130304 2.33083333,25.8184266 L2.57765109,26.4161111 Z M9.65557674,27.2326219 C9.16932969,27.7310445 7.6372316,27.5184817 5.76845727,26.4161111 L5.43861111,26.8158153 C7.52330209,28.0455528 9.36101156,28.3005161 10.1002778,27.5427388 L9.65557674,27.2326219 Z M2.33083333,23.0384654 C1.72878234,21.6281722 1.34047713,20.1015817 1.2607693,18.6466667 L0.776944444,18.6855719 C0.861398546,20.2271211 1.26920926,21.830396 1.90013742,23.3083333 L2.33083333,23.0384654 Z M2.80148573,13.985 C3.53991965,12.9376917 4.66698744,12.0587221 6.21555556,11.3761105 L5.97890123,10.8772222 C4.33921257,11.5999999 3.1302432,12.5428424 2.33083333,13.6766318 L2.80148573,13.985 Z" id="no-strategy-路径" fill="currentColor" fill-rule="nonzero"></path>
                    </g>
                </g>
            </g>
        </g>
    </g>
</svg>