<?xml version="1.0" encoding="UTF-8"?>
<svg width="200px" height="112px" viewBox="0 0 200 112" version="1.1" xmlns="http://www.w3.org/2000/svg" xmlns:xlink="http://www.w3.org/1999/xlink">
    <title>编组 6备份</title>
    <defs>
        <rect id="path-1" x="0" y="21.4610778" width="13.3333333" height="5.36526946" rx="0.666666667"></rect>
        <rect id="path-2" x="141.166667" y="18.1077844" width="24" height="37.5568862" rx="0.666666667"></rect>
        <filter x="-54.2%" y="-29.3%" width="208.3%" height="169.2%" filterUnits="objectBoundingBox" id="filter-3">
            <feOffset dx="0" dy="2" in="SourceAlpha" result="shadowOffsetOuter1"></feOffset>
            <feGaussianBlur stdDeviation="4" in="shadowOffsetOuter1" result="shadowBlurOuter1"></feGaussianBlur>
            <feColorMatrix values="0 0 0 0 0.317647059   0 0 0 0 0.345098039   0 0 0 0 0.454901961  0 0 0 0.2 0" type="matrix" in="shadowBlurOuter1" result="shadowMatrixOuter1"></feColorMatrix>
            <feOffset dx="0" dy="1" in="SourceAlpha" result="shadowOffsetOuter2"></feOffset>
            <feGaussianBlur stdDeviation="1" in="shadowOffsetOuter2" result="shadowBlurOuter2"></feGaussianBlur>
            <feColorMatrix values="0 0 0 0 0.317647059   0 0 0 0 0.345098039   0 0 0 0 0.454901961  0 0 0 0.05 0" type="matrix" in="shadowBlurOuter2" result="shadowMatrixOuter2"></feColorMatrix>
            <feMerge>
                <feMergeNode in="shadowMatrixOuter1"></feMergeNode>
                <feMergeNode in="shadowMatrixOuter2"></feMergeNode>
            </feMerge>
        </filter>
        <rect id="path-4" x="146.5" y="23.4730539" width="13.3333333" height="5.36526946" rx="0.666666667"></rect>
        <rect id="path-5" x="146.5" y="34.2035928" width="13.3333333" height="5.36526946" rx="0.666666667"></rect>
        <rect id="path-6" x="146.5" y="44.9341317" width="13.3333333" height="5.36526946" rx="0.666666667"></rect>
        <path d="M0.746301954,4.52912357 L0.215100543,5.43774791 C0.182063055,5.49425925 0.182336696,5.56479074 0.215515093,5.62093519 L0.217775729,5.62465653 C0.241269355,5.66229108 0.290803036,5.68153827 0.366376773,5.68239809 L0.371766112,5.68242825 L0.629960619,5.68242825 C0.707251937,5.68242825 0.784273695,5.67307531 0.85943079,5.65456312 L5.42857143,4.52912357 L0.746301954,4.52912357 Z" id="path-7"></path>
        <path d="M1.87201519,2.79916656 L10.6666667,2.79916656 L0.29011958,0.0076633295 C0.180432775,-0.02184472 0.066565074,0.0361010913 0.0228498291,0.142994448 L0.0212819251,0.146926949 C-0.0183426951,0.248912317 -0.00189172849,0.364845694 0.0644302138,0.451002028 L1.87201519,2.79916656 Z" id="path-8"></path>
        <polygon id="path-9" points="10.6666667 2.79916656 1.87264151 2.79916656 0.75 4.52912357 3.18238994 4.52912357"></polygon>
        <path d="M10.6666667,2.79916656 L5.61346328,7.60460271 C5.53148719,7.64464801 5.46915192,7.66467066 5.42645746,7.66467066 C5.383763,7.66467066 5.32277653,7.64464801 5.24349805,7.60460271 L2.71891956,4.14468868 C2.70724682,4.00478778 2.71762698,3.91261271 2.75006005,3.86816346 C2.78249311,3.82371421 2.86561586,3.78774432 2.99942828,3.76025379 L10.6666667,2.79916656 Z" id="path-10"></path>
    </defs>
    <g id="流程设置-v1217" stroke="none" stroke-width="1" fill="none" fill-rule="evenodd">
        <g id="编组-6备份">
            <rect id="矩形" fill-opacity="0.01" fill="#FFFFFF" x="0" y="1.34131737" width="200" height="110.658683"></rect>
            <g id="编组-78" transform="translate(39.8333, 26.1557)">
                <g id="bg/白色底备份">
                    <rect id="矩形" fill="#F1F4F8" x="0" y="0" width="120" height="85.8443114" rx="1.33333333"></rect>
                    <path d="M1.33333333,0 L118.666667,0 C119.403046,-1.3527075e-16 120,0.596953667 120,1.33333333 L120,8.04790419 L120,8.04790419 L0,8.04790419 L0,1.33333333 C-9.01805001e-17,0.596953667 0.596953667,1.3527075e-16 1.33333333,0 Z" id="矩形备份" fill="#E4E7EB"></path>
                    <g id="编组-3" transform="translate(5.3333, 2.6826)" fill="#FFFFFF">
                        <ellipse id="椭圆形" cx="1.33333333" cy="1.34131737" rx="1.33333333" ry="1.34131737"></ellipse>
                        <ellipse id="椭圆形备份" cx="6.66666667" cy="1.34131737" rx="1.33333333" ry="1.34131737"></ellipse>
                        <ellipse id="椭圆形备份-2" cx="12" cy="1.34131737" rx="1.33333333" ry="1.34131737"></ellipse>
                    </g>
                </g>
                <g id="mg/外框/无导航备份" transform="translate(5.3333, 13.4132)" fill="#FFFFFF" opacity="0.897321429">
                    <rect id="矩形" x="0" y="0" width="37.3333333" height="67.0658683" rx="1.33333333"></rect>
                </g>
                <g id="mg/外框/无导航备份-2" transform="translate(48, 13.4132)" fill="#FFFFFF" opacity="0.897321429">
                    <rect id="矩形" x="0" y="0" width="66.6666667" height="67.0658683" rx="1.33333333"></rect>
                </g>
                <g id="编组-74" transform="translate(17.3333, 22.8024)">
                    <line x1="6.66666667" y1="5.36526946" x2="6.66666667" y2="42.9221557" id="路径-19" stroke="#F1F4F8" stroke-width="0.666666667"></line>
                    <rect id="矩形" fill="#EAEEF1" x="0" y="0" width="13.3333333" height="5.36526946" rx="0.666666667"></rect>
                    <rect id="矩形备份-35" fill="#EAEEF1" x="0" y="10.7305389" width="13.3333333" height="5.36526946" rx="0.666666667"></rect>
                    <g id="矩形备份-41">
                        <use fill="currentColor" xlink:href="#path-1"></use>
                        <use fill-opacity="0.15" fill="#FFFFFF" xlink:href="#path-1"></use>
                    </g>
                    <rect id="矩形备份-42" fill="#EAEEF1" x="0" y="32.1916168" width="13.3333333" height="5.36526946" rx="0.666666667"></rect>
                    <rect id="矩形备份-43" fill="#EAEEF1" x="0" y="42.9221557" width="13.3333333" height="5.36526946" rx="0.666666667"></rect>
                </g>
                <ellipse id="椭圆形" stroke="#F1F4F8" stroke-width="1.33333333" fill="currentColor" cx="45.3333333" cy="46.9461078" rx="7.33333333" ry="7.38123752"></ellipse>
                <g id="编组" transform="translate(41.3333, 42.9222)">
                    <polygon id="路径" points="0 0 8 0 8 8.04790419 0 8.04790419"></polygon>
                    <path d="M4.35333333,2.71952096 L4.825,3.19401198 C5.26263638,3.63422401 5.50850169,4.23130662 5.50850169,4.85389222 C5.50850169,5.47647781 5.26263638,6.07356042 4.825,6.51377246 L4.707,6.63214371 C3.79573016,7.54887023 2.31826985,7.54887022 1.40700002,6.63214369 C0.495730197,5.71541715 0.495730186,4.22910978 1.407,3.31238323 L1.87866667,3.78687425 C1.4545503,4.20980942 1.2877813,4.82869326 1.44150099,5.40920674 C1.59522069,5.98972022 2.04593288,6.44313128 2.62299092,6.59777145 C3.20004896,6.75241163 3.81524897,6.58464401 4.23566667,6.15798802 L4.35366667,6.03928144 C5.00430323,5.38455115 5.00430323,4.32323328 4.35366667,3.66850299 L3.882,3.19401198 L4.35366667,2.71985629 L4.35333333,2.71952096 Z M6.59266667,4.73518563 L6.12133333,4.26102994 C6.5454497,3.83809477 6.7122187,3.21921093 6.55849901,2.63869745 C6.40477931,2.05818397 5.95406712,1.60477291 5.37700908,1.45013274 C4.79995104,1.29549256 4.18475103,1.46326018 3.76433333,1.88991617 L3.64633333,2.00862275 C2.99569677,2.66335304 2.99569677,3.72467091 3.64633333,4.3794012 L4.118,4.85389222 L3.64633333,5.3280479 L3.175,4.85389222 C2.73736362,4.41368018 2.49149831,3.81659757 2.49149831,3.19401198 C2.49149831,2.57142638 2.73736362,1.97434377 3.175,1.53413174 L3.293,1.41576048 C3.88248822,0.822742386 4.74168603,0.591142457 5.54694192,0.808202144 C6.3521978,1.02526183 6.98117425,1.6580046 7.19694192,2.46808238 C7.41270958,3.27816016 7.18248822,4.14250287 6.593,4.73552096 L6.59266667,4.73518563 Z" id="形状" fill="#FFFFFF" fill-rule="nonzero"></path>
                </g>
                <g id="编组-76" transform="translate(57.3333, 29.509)">
                    <rect id="矩形" fill="#EAEEF1" x="0" y="20.7904192" width="13.3333333" height="5.36526946" rx="0.666666667"></rect>
                    <rect id="矩形备份-32" fill="#EAEEF1" x="38.6666667" y="20.7904192" width="13.3333333" height="5.36526946" rx="0.666666667"></rect>
                    <path d="M6.66666667,20.7904192 L6.66666667,9.38123752 C6.66666667,8.64485786 7.26362033,8.04790419 8,8.04790419 L14.6666667,8.04790419 L14.6666667,8.04790419" id="路径-9备份-2" stroke="#EAEEF1" stroke-width="0.666666667"></path>
                    <path d="M6.66666667,34.2035928 L6.66666667,27.489022 C6.66666667,26.7526423 7.26362033,26.1556886 8,26.1556886 L38.6666667,26.1556886 L38.6666667,26.1556886" id="路径-9备份-8" stroke="#EAEEF1" stroke-width="0.666666667" transform="translate(22.6667, 30.1796) scale(1, -1) translate(-22.6667, -30.1796)"></path>
                    <path d="M38,20.7904192 L38,9.38123752 C38,8.64485786 38.5969537,8.04790419 39.3333333,8.04790419 L46,8.04790419 L46,8.04790419" id="路径-9备份-7" stroke="#EAEEF1" stroke-width="0.666666667" transform="translate(42, 14.4192) scale(-1, 1) translate(-42, -14.4192)"></path>
                    <path d="M38,34.2035928 L38,27.489022 C38,26.7526423 38.5969537,26.1556886 39.3333333,26.1556886 L46,26.1556886 L46,26.1556886" id="路径-9备份-9" stroke="#EAEEF1" stroke-width="0.666666667" transform="translate(42, 30.1796) scale(-1, -1) translate(-42, -30.1796)"></path>
                    <path d="M14.6666667,8.04790419 L14.6666667,2.6746507 C14.6666667,1.93827103 15.2636203,1.34131737 16,1.34131737 L25.3333333,1.34131737 L25.3333333,1.34131737" id="路径-9备份-3" stroke="#EAEEF1" stroke-width="0.666666667"></path>
                    <path d="M24.6666667,8.04790419 L24.6666667,2.6746507 C24.6666667,1.93827103 25.2636203,1.34131737 26,1.34131737 L38,1.34131737 L38,1.34131737" id="路径-9备份-5" stroke="#EAEEF1" stroke-width="0.666666667" transform="translate(31.3333, 4.6946) scale(-1, 1) translate(-31.3333, -4.6946)"></path>
                    <path d="M14.6666667,14.0838323 L14.6666667,8.71057884 C14.6666667,7.97419918 15.2636203,7.37724551 16,7.37724551 L25.3333333,7.37724551 L25.3333333,7.37724551" id="路径-9备份-4" stroke="#EAEEF1" stroke-width="0.666666667" transform="translate(20, 10.7305) scale(1, -1) translate(-20, -10.7305)"></path>
                    <path d="M24.6666667,14.0838323 L24.6666667,8.71057884 C24.6666667,7.97419918 25.2636203,7.37724551 26,7.37724551 L38,7.37724551 L38,7.37724551" id="路径-9备份-6" stroke="#EAEEF1" stroke-width="0.666666667" transform="translate(31.3333, 10.7305) scale(-1, -1) translate(-31.3333, -10.7305)"></path>
                    <rect id="矩形备份-33" fill="#E2F4E3" x="23.3333333" y="12.742515" width="6.66666667" height="2.68263473" rx="0.666666667"></rect>
                    <rect id="矩形备份-34" fill="#FFEBD9" x="17.3333333" y="0" width="6.66666667" height="2.68263473" rx="0.666666667"></rect>
                    <rect id="矩形备份-46" fill="#DDEDFE" x="28" y="0" width="6.66666667" height="2.68263473" rx="0.666666667"></rect>
                    <line x1="13.3333333" y1="23.4730539" x2="38.6666667" y2="23.4730539" id="路径-22" stroke="#EAEEF1" stroke-width="0.666666667"></line>
                    <rect id="矩形备份-47" fill="#DDEDFE" x="23.3333333" y="22.1317365" width="6.66666667" height="2.68263473" rx="0.666666667"></rect>
                    <rect id="矩形备份-48" fill="#FFEBD9" x="13.3333333" y="32.8622754" width="6.66666667" height="2.68263473" rx="0.666666667"></rect>
                    <rect id="矩形备份-49" fill="#E2F4E3" x="34" y="32.8622754" width="6.66666667" height="2.68263473" rx="0.666666667"></rect>
                </g>
                <rect id="矩形" fill="#F1F4F8" x="96" y="18.7784431" width="13.3333333" height="4.0239521" rx="0.666666667"></rect>
            </g>
            <g id="矩形">
                <use fill="black" fill-opacity="1" filter="url(#filter-3)" xlink:href="#path-2"></use>
                <use fill="#FFFFFF" fill-rule="evenodd" xlink:href="#path-2"></use>
            </g>
            <line x1="153.166667" y1="24.1437126" x2="153.166667" y2="49.6287425" id="路径-21" stroke="currentColor" stroke-width="0.666666667"></line>
            <g id="矩形">
                <use fill="currentColor" xlink:href="#path-4"></use>
                <use fill-opacity="0.8" fill="#FFFFFF" xlink:href="#path-4"></use>
            </g>
            <g id="矩形备份-2">
                <use fill="currentColor" xlink:href="#path-5"></use>
                <use fill-opacity="0.8" fill="#FFFFFF" xlink:href="#path-5"></use>
            </g>
            <g id="矩形备份-30">
                <use fill="currentColor" xlink:href="#path-6"></use>
                <use fill-opacity="0.8" fill="#FFFFFF" xlink:href="#path-6"></use>
            </g>
            <path d="M153.286065,43.1623831 L154.404235,45.4121131 C154.43701,45.4780552 154.410122,45.558081 154.34418,45.5908558 C154.32574,45.6000209 154.305428,45.6047904 154.284836,45.6047904 L152.048497,45.6047904 C151.974859,45.6047904 151.915164,45.5450951 151.915164,45.4714571 C151.915164,45.4508651 151.919933,45.430553 151.929099,45.4121131 L153.047268,43.1623831 C153.080043,43.096441 153.160069,43.0695536 153.226011,43.1023284 C153.25204,43.1152655 153.273128,43.136354 153.286065,43.1623831 Z" id="三角形备份" fill="currentColor" transform="translate(153.1667, 44.2635) scale(1, -1) translate(-153.1667, -44.2635)"></path>
            <g id="编组-79" transform="translate(160.1667, 35.8802)" fill="currentColor">
                <polygon id="三角形" transform="translate(1.6667, 1.8629) rotate(90) translate(-1.6667, -1.8629)" points="1.66666667 0.196274118 3.52960745 3.52960745 -0.196274118 3.52960745"></polygon>
                <polygon id="矩形" transform="translate(1.8333, 3.018) rotate(-34) translate(-1.8333, -3.018)" points="1.33794911 1.01112089 2.33982155 1.00834489 2.32871755 5.02480725 1.32684512 5.02758325"></polygon>
            </g>
            <g id="元素/纸飞机/主色备份-2" transform="translate(126.5, 0)">
                <g id="路径-14">
                    <use fill="currentColor" xlink:href="#path-7"></use>
                    <use fill-opacity="0.4" fill="#FFFFFF" xlink:href="#path-7"></use>
                </g>
                <g id="路径-5">
                    <use fill="currentColor" xlink:href="#path-8"></use>
                    <use fill-opacity="0.2" fill="#FFFFFF" xlink:href="#path-8"></use>
                </g>
                <g id="路径-12">
                    <use fill="currentColor" xlink:href="#path-9"></use>
                    <use fill-opacity="0.2" fill="#000000" xlink:href="#path-9"></use>
                </g>
                <g id="路径-13">
                    <use fill="currentColor" xlink:href="#path-10"></use>
                    <use fill-opacity="0.2" fill="#FFFFFF" xlink:href="#path-10"></use>
                </g>
            </g>
            <path d="M125.166667,6.43421562 C124.000071,13.3597184 126.597312,17.250908 132.958387,18.1077844 C142.5,19.393099 127.833333,7.85115308 126.5,17.0034208 C125.611111,23.1049327 130.5,27.9441118 141.166667,31.5209581" id="路径-2" stroke="currentColor" stroke-width="0.666666667" stroke-dasharray="2,2"></path>
        </g>
    </g>
</svg>