<?xml version="1.0" encoding="UTF-8"?>
<svg width="14px" height="14px" viewBox="0 0 14 14" version="1.1" xmlns="http://www.w3.org/2000/svg" xmlns:xlink="http://www.w3.org/1999/xlink">
    <title>编组 8</title>
    <g id="0425" stroke="none" stroke-width="1" fill="none" fill-rule="evenodd">
        <g id="图标" transform="translate(-152.000000, -55.000000)">
            <g id="编组-8" transform="translate(152.000000, 55.000000)">
                <rect id="矩形" x="0" y="0" width="14" height="14"></rect>
                <g id="编组" transform="translate(1.166667, 0.583333)" fill="#868D9C" fill-rule="nonzero">
                    <path d="M0,12.25 C0,9.67265833 2.08933667,7.58333333 4.66666667,7.58333333 C7.24400833,7.58333333 9.33333333,9.67265833 9.33333333,12.25 L8.16666667,12.25 C8.16666667,10.3170083 6.59965833,8.75 4.66666667,8.75 C2.73366917,8.75 1.16666667,10.3170083 1.16666667,12.25 L0,12.25 Z M4.66666667,7 C2.73291667,7 1.16666667,5.43375 1.16666667,3.5 C1.16666667,1.56625 2.73291667,0 4.66666667,0 C6.60041667,0 8.16666667,1.56625 8.16666667,3.5 C8.16666667,5.43375 6.60041667,7 4.66666667,7 Z M4.66666667,5.83333333 C5.95583333,5.83333333 7,4.78916667 7,3.5 C7,2.21083333 5.95583333,1.16666667 4.66666667,1.16666667 C3.3775,1.16666667 2.33333333,2.21083333 2.33333333,3.5 C2.33333333,4.78916667 3.3775,5.83333333 4.66666667,5.83333333 Z M9.498825,7.9933 C11.1209,8.72439167 12.25,10.3553333 12.25,12.25 L11.0833333,12.25 C11.0833333,10.829 10.2365083,9.60580833 9.01996667,9.057475 L9.498825,7.9933 Z M9.09778333,1.40770583 C10.2634,1.8882675 11.0833333,3.03543917 11.0833333,4.375 C11.0833333,6.04928333 9.80245,7.42303333 8.16666667,7.57026667 L8.16666667,6.39601667 C9.15640833,6.25461667 9.91666667,5.404 9.91666667,4.375 C9.91666667,3.56962083 9.45093333,2.8735175 8.77391667,2.54120417 L9.09778333,1.40770583 Z" id="形状"></path>
                </g>
            </g>
        </g>
    </g>
</svg>