<?xml version="1.0" encoding="UTF-8"?>
<svg width="16px" height="16px" viewBox="0 0 16 16" version="1.1" xmlns="http://www.w3.org/2000/svg" xmlns:xlink="http://www.w3.org/1999/xlink">
    <title>Icon/help</title>
    <g id="新新核价" stroke="none" stroke-width="1" fill="none" fill-rule="evenodd">
        <g id="Icon/help">
            <path d="M10.6606682,5.99666667 C10.6611981,5.29091249 10.381028,4.6139212 9.88192174,4.11494003 C9.3828155,3.61595885 8.70575402,3.33595841 8,3.336664 C7.29436144,3.33613552 6.61747138,3.61621414 6.11850942,4.11517609 C5.61954747,4.61413805 5.33946885,5.29102811 5.33999849,5.99666667 L6.65333333,5.99666667 C6.65333333,5.27666667 7.28,4.65133334 7.99933333,4.65133333 C8.71933333,4.65133333 9.34533333,5.27666666 9.34533333,5.99666667 C9.34533333,6.37266667 9.18866666,6.68533334 8.93866667,6.936 L8.12466667,7.78066667 C7.65533334,8.282 7.342,8.93866667 7.342,9.65866667 L7.342,10.0033333 L8.65666667,10.0033333 C8.65666667,9.00133333 8.97,8.626 9.43933333,8.12533333 L10.034,7.49866667 C10.4342394,7.1012058 10.6593996,6.56072545 10.6606682,5.99666667 Z M8.65733333,12.6633333 L8.65733333,11.3486667 L7.34266667,11.3486667 L7.34266667,12.6633333 L8.65733333,12.6633333 Z M8,1.33333333 C11.6933333,1.33333333 14.6666667,4.30666666 14.6666667,8 C14.6666667,11.6933333 11.6933333,14.6666667 8,14.6666667 C4.30666666,14.6666667 1.33333333,11.6933333 1.33333333,8 C1.33333333,4.30666667 4.30666667,1.33333333 8,1.33333333 Z" id="icon" fill="#0161D5"></path>
            <rect id="help" x="0" y="0" width="16" height="16"></rect>
        </g>
    </g>
</svg>