<svg
    width="480px"
    height="267px"
    viewBox="0 0 480 267"
    version="1.1"
    xmlns="http://www.w3.org/2000/svg"
    xmlns:xlink="http://www.w3.org/1999/xlink"
  >
    <title></title>
    <g id="🎁基础画面" stroke="none" stroke-width="1" fill="none" fill-rule="evenodd">
      <g id="插画" transform="translate(-720.000000, -3014.000000)">
        <g id="编组-6" transform="translate(720.000000, 3014.000000)">
          <rect id="矩形备份-43" x="0" y="0" width="480" height="266"></rect>
          <g id="编组-2" transform="translate(0.000000, 96.000000)">
            <g id="编组" transform="translate(122.666667, 0.000000)">
              <path
                d="M229.333333,48 C235.224371,48 240,52.7756293 240,58.6666667 L240,133.333333 C240,139.224371 235.224371,144 229.333333,144 L224.074,144 L224.074074,167.039353 C224.074074,168.512112 222.880167,169.706019 221.407407,169.706019 C220.791828,169.706019 220.195206,169.493047 219.718773,169.103239 L189.037333,144 L96,144 C90.1089627,144 85.3333333,139.224371 85.3333333,133.333333 L85.3333333,58.6666667 C85.3333333,52.7756293 90.1089627,48 96,48 L229.333333,48 Z"
                id="路径"
                fill="#E9ECF0"
              ></path>
              <rect id="矩形" fill="#E2E5E9" x="85.3333333" y="48" width="96" height="74.6666667" rx="32"></rect>
              <path
                d="M125.333333,69.3333333 L216,69.3333333 C217.472759,69.3333333 218.666667,70.5272407 218.666667,72 L218.666667,82.6666667 C218.666667,84.139426 217.472759,85.3333333 216,85.3333333 L125.333333,85.3333333 C123.860574,85.3333333 122.666667,84.139426 122.666667,82.6666667 L122.666667,72 C122.666667,70.5272407 123.860574,69.3333333 125.333333,69.3333333 Z"
                id="矩形备份-2"
                fill="#E2E5E9"
              ></path>
              <path
                d="M114.962963,106.666667 L215.703704,106.666667 C217.340103,106.666667 218.666667,107.860574 218.666667,109.333333 L218.666667,120 C218.666667,121.472759 217.340103,122.666667 215.703704,122.666667 L114.962963,122.666667 C113.326564,122.666667 112,121.472759 112,120 L112,109.333333 C112,107.860574 113.326564,106.666667 114.962963,106.666667 Z"
                id="矩形备份-3"
                fill="#E2E5E9"
              ></path>
              <path
                d="M117.333333,106.666667 L181.333333,106.666667 L181.333333,122.666667 L117.333333,122.666667 C114.387815,122.666667 112,120.278852 112,117.333333 L112,112 C112,109.054481 114.387815,106.666667 117.333333,106.666667 Z"
                id="矩形"
                fill="#DBDEE3"
              ></path>
              <path
                d="M128,69.3333333 L181.333333,69.3333333 L181.333333,85.3333333 L128,85.3333333 C125.054481,85.3333333 122.666667,82.9455187 122.666667,80 L122.666667,74.6666667 C122.666667,71.721148 125.054481,69.3333333 128,69.3333333 Z"
                id="矩形备份-4"
                fill="#DBDEE3"
              ></path>
              <path
                d="M160,0 C165.891037,0 170.666667,4.77562934 170.666667,10.6666667 L170.666667,101.333333 C170.666667,107.224371 165.891037,112 160,112 L66.9623333,112 L25.6886341,145.769905 C25.2402272,146.136784 24.6853546,146.347019 24.1084143,146.370483 L24,146.372686 C22.5272407,146.372686 21.3333333,145.178779 21.3333333,143.706019 L21.3333333,112 L10.6666667,112 C4.77562934,112 0,107.224371 0,101.333333 L0,10.6666667 C0,4.77562934 4.77562934,0 10.6666667,0 L160,0 Z"
                id="路径"
                fill="#F1F4F8"
              ></path>
              <circle id="椭圆形" fill="#FFFFFF" cx="29.3333333" cy="34.6666667" r="8"></circle>
              <circle id="椭圆形备份" fill="#FFFFFF" cx="29.3333333" cy="72" r="8"></circle>
              <path
                d="M56,26.6666667 L146.666667,26.6666667 C148.139426,26.6666667 149.333333,27.860574 149.333333,29.3333333 L149.333333,40 C149.333333,41.4727593 148.139426,42.6666667 146.666667,42.6666667 L56,42.6666667 C54.5272407,42.6666667 53.3333333,41.4727593 53.3333333,40 L53.3333333,29.3333333 C53.3333333,27.860574 54.5272407,26.6666667 56,26.6666667 Z"
                id="矩形"
                fill="#FFFFFF"
              ></path>
              <path
                d="M56,64 L146.666667,64 C148.139426,64 149.333333,65.1939073 149.333333,66.6666667 L149.333333,77.3333333 C149.333333,78.8060927 148.139426,80 146.666667,80 L56,80 C54.5272407,80 53.3333333,78.8060927 53.3333333,77.3333333 L53.3333333,66.6666667 C53.3333333,65.1939073 54.5272407,64 56,64 Z"
                id="矩形备份"
                fill="#FFFFFF"
              ></path>
            </g>
          </g>
        </g>
      </g>
    </g>
  </svg>