<?xml version="1.0" encoding="UTF-8"?>
<svg width="320px" height="171px" viewBox="0 0 320 171" version="1.1" xmlns="http://www.w3.org/2000/svg" xmlns:xlink="http://www.w3.org/1999/xlink">
    <title>编组 5</title>
    <defs>
        <path d="M16,28.5371578 L19.5555556,28.5371578 C20.5373951,28.5371578 21.3333333,29.3356903 21.3333333,30.3207301 L21.3333333,33.8878748 C21.3333333,34.8729147 20.5373951,35.6714472 19.5555556,35.6714472 L16,35.6714472 C15.0181604,35.6714472 14.2222222,34.8729147 14.2222222,33.8878748 L14.2222222,30.3207301 C14.2222222,29.3356903 15.0181604,28.5371578 16,28.5371578 Z" id="path-1"></path>
        <path d="M161.777778,85.6114733 L183.111111,85.6114733 C184.092951,85.6114733 184.888889,86.4100058 184.888889,87.3950456 L184.888889,94.5293351 C184.888889,95.5143749 184.092951,96.3129074 183.111111,96.3129074 L161.777778,96.3129074 C160.795938,96.3129074 160,95.5143749 160,94.5293351 L160,87.3950456 C160,86.4100058 160.795938,85.6114733 161.777778,85.6114733 Z" id="path-2"></path>
        <rect id="path-3" x="71.1111111" y="46.3728814" width="17.7777778" height="3.56714472" rx="1.77777778"></rect>
        <rect id="path-4" x="71.1111111" y="57.0743155" width="17.7777778" height="3.56714472" rx="1.77777778"></rect>
        <rect id="path-5" x="0" y="0" width="99.5555556" height="71.1199478" rx="3.55555556"></rect>
        <filter x="-12.6%" y="-12.0%" width="125.1%" height="135.2%" filterUnits="objectBoundingBox" id="filter-6">
            <feOffset dx="0" dy="4" in="SourceAlpha" result="shadowOffsetOuter1"></feOffset>
            <feGaussianBlur stdDeviation="3.5" in="shadowOffsetOuter1" result="shadowBlurOuter1"></feGaussianBlur>
            <feColorMatrix values="0 0 0 0 0.11372549   0 0 0 0 0.129411765   0 0 0 0 0.160784314  0 0 0 0.06 0" type="matrix" in="shadowBlurOuter1" result="shadowMatrixOuter1"></feColorMatrix>
            <feOffset dx="0" dy="1" in="SourceAlpha" result="shadowOffsetOuter2"></feOffset>
            <feGaussianBlur stdDeviation="2" in="shadowOffsetOuter2" result="shadowBlurOuter2"></feGaussianBlur>
            <feColorMatrix values="0 0 0 0 0.11372549   0 0 0 0 0.129411765   0 0 0 0 0.160784314  0 0 0 0.06 0" type="matrix" in="shadowBlurOuter2" result="shadowMatrixOuter2"></feColorMatrix>
            <feOffset dx="0" dy="1" in="SourceAlpha" result="shadowOffsetOuter3"></feOffset>
            <feGaussianBlur stdDeviation="0.5" in="shadowOffsetOuter3" result="shadowBlurOuter3"></feGaussianBlur>
            <feColorMatrix values="0 0 0 0 0.11372549   0 0 0 0 0.129411765   0 0 0 0 0.160784314  0 0 0 0.06 0" type="matrix" in="shadowBlurOuter3" result="shadowMatrixOuter3"></feColorMatrix>
            <feMerge>
                <feMergeNode in="shadowMatrixOuter1"></feMergeNode>
                <feMergeNode in="shadowMatrixOuter2"></feMergeNode>
                <feMergeNode in="shadowMatrixOuter3"></feMergeNode>
            </feMerge>
        </filter>
        <path d="M8.88888889,6.91134289 L23.1111111,6.91134289 C24.0929507,6.91134289 24.8888889,7.70987544 24.8888889,8.69491525 L24.8888889,12.26206 C24.8888889,13.2470998 24.0929507,14.0456323 23.1111111,14.0456323 L8.88888889,14.0456323 C7.90704933,14.0456323 7.11111111,13.2470998 7.11111111,12.26206 L7.11111111,8.69491525 C7.11111111,7.70987544 7.90704933,6.91134289 8.88888889,6.91134289 Z" id="path-7"></path>
        <path d="M65.7777778,6.91134289 L80,6.91134289 C80.9818396,6.91134289 81.7777778,7.70987544 81.7777778,8.69491525 L81.7777778,12.26206 C81.7777778,13.2470998 80.9818396,14.0456323 80,14.0456323 L65.7777778,14.0456323 C64.7959382,14.0456323 64,13.2470998 64,12.26206 L64,8.69491525 C64,7.70987544 64.7959382,6.91134289 65.7777778,6.91134289 Z" id="path-8"></path>
        <path d="M1.74683007,10.5392912 L0.503474625,12.6536642 C0.426145499,12.7851663 0.426785997,12.9492934 0.50444494,13.0799418 L0.509736294,13.0886014 C0.564726599,13.1761772 0.680667504,13.2209655 0.857559008,13.2229663 L0.870173555,13.2230365 L1.47451597,13.2230365 C1.65542773,13.2230365 1.83570854,13.2012721 2.01162484,13.1581942 L12.7063741,10.5392912 L1.74683007,10.5392912 Z" id="path-9"></path>
        <path d="M4.38172835,6.51367335 L24.9669105,6.51367335 L0.679067774,0.0178326027 C0.422329589,-0.050832763 0.155805398,0.0840074041 0.0534834035,0.332748732 L0.0498134924,0.341899681 C-0.04293379,0.579220096 -0.00442787023,0.848997596 0.150808442,1.04948378 L4.38172835,6.51367335 Z" id="path-10"></path>
        <polygon id="path-11" points="24.9669105 6.51367335 4.38319434 6.51367335 1.75548589 10.5392912 7.44885419 10.5392912"></polygon>
        <path d="M24.9669105,6.51367335 L13.1391408,17.6959452 C12.9472637,17.7891308 12.8013587,17.8357236 12.701426,17.8357236 C12.6014933,17.8357236 12.4587455,17.7891308 12.2731825,17.6959452 L6.36403323,9.64470947 C6.33671146,9.31915944 6.36100777,9.10466762 6.43692215,9.00123401 C6.51283654,8.8978004 6.70739761,8.81409831 7.02060537,8.75012772 L24.9669105,6.51367335 Z" id="path-12"></path>
    </defs>
    <g id="页面-1" stroke="none" stroke-width="1" fill="none" fill-rule="evenodd">
        <g id="平台层-流程分类" transform="translate(-714, -352)">
            <g id="编组-4" transform="translate(714, 352)">
                <g id="编组-3" transform="translate(0, 28.3142)">
                    <g id="编组-2" transform="translate(60.4444, 0)">
                        <path d="M3.55555556,0 L195.555556,0 C197.519235,0 199.111111,1.59706509 199.111111,3.56714472 L199.111111,139.118644 C199.111111,141.088724 197.519235,142.685789 195.555556,142.685789 L3.55555556,142.685789 C1.59187645,142.685789 0,141.088724 0,139.118644 L0,3.56714472 C0,1.59706509 1.59187645,0 3.55555556,0 Z" id="矩形" fill="#F1F4F8"></path>
                        <path d="M3.55555556,0 L195.555556,0 C197.519235,0 199.111111,1.59706509 199.111111,3.56714472 L199.111111,14.2685789 L0,14.2685789 L0,3.56714472 C0,1.59706509 1.59187645,0 3.55555556,0 Z" id="矩形" fill="#DBDEE3"></path>
                        <ellipse id="椭圆形" fill="#FFFFFF" cx="10.6666667" cy="7.13428944" rx="3.55555556" ry="3.56714472"></ellipse>
                        <ellipse id="椭圆形备份" fill="#FFFFFF" cx="24.8888889" cy="7.13428944" rx="3.55555556" ry="3.56714472"></ellipse>
                        <ellipse id="椭圆形备份-2" fill="#FFFFFF" cx="39.1111111" cy="7.13428944" rx="3.55555556" ry="3.56714472"></ellipse>
                        <path d="M10.6666667,21.4028683 L56.8888889,21.4028683 L56.8888889,135.551499 L10.6666667,135.551499 C8.70298756,135.551499 7.11111111,133.954434 7.11111111,131.984355 L7.11111111,24.970013 C7.11111111,22.9999334 8.70298756,21.4028683 10.6666667,21.4028683 Z" id="矩形" fill="#FFFFFF"></path>
                        <path d="M64,21.4028683 L188.444444,21.4028683 C190.408124,21.4028683 192,22.9999334 192,24.970013 L192,131.984355 C192,133.954434 190.408124,135.551499 188.444444,135.551499 L64,135.551499 L64,21.4028683 Z" id="矩形备份" fill="#FFFFFF"></path>
                        <g id="矩形">
                            <use fill="#00B8CC" xlink:href="#path-1"></use>
                            <use fill-opacity="0.8" fill="#FFFFFF" xlink:href="#path-1"></use>
                        </g>
                        <path d="M30.2222222,28.5371578 L48,28.5371578 C48.9818396,28.5371578 49.7777778,29.3356903 49.7777778,30.3207301 L49.7777778,33.8878748 C49.7777778,34.8729147 48.9818396,35.6714472 48,35.6714472 L30.2222222,35.6714472 C29.2403827,35.6714472 28.4444444,34.8729147 28.4444444,33.8878748 L28.4444444,30.3207301 C28.4444444,29.3356903 29.2403827,28.5371578 30.2222222,28.5371578 Z" id="矩形备份" fill="#F1F4F8"></path>
                        <path d="M16,42.8057366 L40.8888889,42.8057366 C41.8707284,42.8057366 42.6666667,43.6042692 42.6666667,44.589309 L42.6666667,48.1564537 C42.6666667,49.1414935 41.8707284,49.9400261 40.8888889,49.9400261 L16,49.9400261 C15.0181604,49.9400261 14.2222222,49.1414935 14.2222222,48.1564537 L14.2222222,44.589309 C14.2222222,43.6042692 15.0181604,42.8057366 16,42.8057366 Z" id="矩形备份-2" fill="#F1F4F8"></path>
                        <path d="M16,57.0743155 L48,57.0743155 C48.9818396,57.0743155 49.7777778,57.8728481 49.7777778,58.8578879 L49.7777778,62.4250326 C49.7777778,63.4100724 48.9818396,64.208605 48,64.208605 L16,64.208605 C15.0181604,64.208605 14.2222222,63.4100724 14.2222222,62.4250326 L14.2222222,58.8578879 C14.2222222,57.8728481 15.0181604,57.0743155 16,57.0743155 Z" id="矩形备份-3" fill="#F1F4F8"></path>
                        <path d="M16,71.3428944 L33.7777778,71.3428944 C34.7596173,71.3428944 35.5555556,72.1414269 35.5555556,73.1264668 L35.5555556,76.6936115 C35.5555556,77.6786513 34.7596173,78.4771838 33.7777778,78.4771838 L16,78.4771838 C15.0181604,78.4771838 14.2222222,77.6786513 14.2222222,76.6936115 L14.2222222,73.1264668 C14.2222222,72.1414269 15.0181604,71.3428944 16,71.3428944 Z" id="矩形备份-4" fill="#F1F4F8"></path>
                        <path d="M16,85.6114733 L48,85.6114733 C48.9818396,85.6114733 49.7777778,86.4100058 49.7777778,87.3950456 L49.7777778,90.9621904 C49.7777778,91.9472302 48.9818396,92.7457627 48,92.7457627 L16,92.7457627 C15.0181604,92.7457627 14.2222222,91.9472302 14.2222222,90.9621904 L14.2222222,87.3950456 C14.2222222,86.4100058 15.0181604,85.6114733 16,85.6114733 Z" id="矩形备份-5" fill="#F1F4F8"></path>
                        <path d="M72.8888889,28.5371578 L94.2222222,28.5371578 C95.2040618,28.5371578 96,29.3356903 96,30.3207301 L96,37.4550196 C96,38.4400594 95.2040618,39.2385919 94.2222222,39.2385919 L72.8888889,39.2385919 C71.9070493,39.2385919 71.1111111,38.4400594 71.1111111,37.4550196 L71.1111111,30.3207301 C71.1111111,29.3356903 71.9070493,28.5371578 72.8888889,28.5371578 Z" id="矩形" fill="#E9ECF0"></path>
                        <g id="矩形备份-18">
                            <use fill="#00B8CC" xlink:href="#path-2"></use>
                            <use fill-opacity="0.8" fill="#FFFFFF" xlink:href="#path-2"></use>
                        </g>
                        <path d="M129.777778,85.6114733 L151.111111,85.6114733 C152.092951,85.6114733 152.888889,86.4100058 152.888889,87.3950456 L152.888889,94.5293351 C152.888889,95.5143749 152.092951,96.3129074 151.111111,96.3129074 L129.777778,96.3129074 C128.795938,96.3129074 128,95.5143749 128,94.5293351 L128,87.3950456 C128,86.4100058 128.795938,85.6114733 129.777778,85.6114733 Z" id="矩形备份-19" fill="#E9ECF0"></path>
                        <path d="M72.8888889,103.447197 L183.111111,103.447197 C184.092951,103.447197 184.888889,104.245729 184.888889,105.230769 L184.888889,126.633638 C184.888889,127.618677 184.092951,128.41721 183.111111,128.41721 L72.8888889,128.41721 C71.9070493,128.41721 71.1111111,127.618677 71.1111111,126.633638 L71.1111111,105.230769 C71.1111111,104.245729 71.9070493,103.447197 72.8888889,103.447197 Z" id="矩形备份-21" fill="#F1F4F8"></path>
                        <g id="矩形备份-6">
                            <use fill="#00B8CC" xlink:href="#path-3"></use>
                            <use fill-opacity="0.8" fill="#FFFFFF" xlink:href="#path-3"></use>
                        </g>
                        <g id="矩形备份-10">
                            <use fill="#00B8CC" xlink:href="#path-4"></use>
                            <use fill-opacity="0.8" fill="#FFFFFF" xlink:href="#path-4"></use>
                        </g>
                        <rect id="矩形备份-7" fill="#E6F2FE" x="92.4444444" y="46.3728814" width="7.11111111" height="3.56714472" rx="1.77777778"></rect>
                        <rect id="矩形备份-11" fill="#FDF2E8" x="110.222222" y="57.0743155" width="7.11111111" height="3.56714472" rx="1.77777778"></rect>
                        <rect id="矩形备份-15" fill="#E6F2FE" x="103.111111" y="67.7757497" width="7.11111111" height="3.56714472" rx="1.77777778"></rect>
                        <rect id="矩形备份-14" fill="#E6F2FE" x="135.111111" y="57.0743155" width="14.2222222" height="3.56714472" rx="1.77777778"></rect>
                        <rect id="矩形备份-8" fill="#FDEEEA" x="103.111111" y="46.3728814" width="10.6666667" height="3.56714472" rx="1.77777778"></rect>
                        <rect id="矩形备份-12" fill="#ECF7F2" x="92.4444444" y="57.0743155" width="14.2222222" height="3.56714472" rx="1.77777778"></rect>
                        <rect id="矩形备份-17" fill="#FDEEEA" x="85.3333333" y="67.7757497" width="14.2222222" height="3.56714472" rx="1.77777778"></rect>
                        <rect id="矩形备份-9" fill="#ECF7F2" x="117.333333" y="46.3728814" width="17.7777778" height="3.56714472" rx="1.77777778"></rect>
                        <rect id="矩形备份-13" fill="#ECF7F2" x="120.888889" y="57.0743155" width="10.6666667" height="3.56714472" rx="1.77777778"></rect>
                        <rect id="矩形备份-16" fill="#FDF2E8" x="113.777778" y="67.7757497" width="10.6666667" height="3.56714472" rx="1.77777778"></rect>
                        <polygon id="路径-2" fill="#F1F4F8" fill-rule="nonzero" points="184.888889 78.0312907 184.888889 79.3672282 71.1111111 79.3672282 71.1111111 78.0312907"></polygon>
                        <path d="M136.888889,89.178618 L144,89.178618 C144.98184,89.178618 145.777778,89.9771505 145.777778,90.9621904 C145.777778,91.9472302 144.98184,92.7457627 144,92.7457627 L136.888889,92.7457627 C135.907049,92.7457627 135.111111,91.9472302 135.111111,90.9621904 C135.111111,89.9771505 135.907049,89.178618 136.888889,89.178618 Z" id="矩形" fill="#FFFFFF"></path>
                        <path d="M168.888889,89.178618 L176,89.178618 C176.98184,89.178618 177.777778,89.9771505 177.777778,90.9621904 C177.777778,91.9472302 176.98184,92.7457627 176,92.7457627 L168.888889,92.7457627 C167.907049,92.7457627 167.111111,91.9472302 167.111111,90.9621904 C167.111111,89.9771505 167.907049,89.178618 168.888889,89.178618 Z" id="矩形备份-20" fill="#FFFFFF"></path>
                        <ellipse id="椭圆形" stroke="#F1F4F8" stroke-width="0.888888889" fill="#00B8CC" cx="60.4471084" cy="78.4846674" rx="10.2248862" ry="10.2644732"></ellipse>
                        <path d="M57.4214326,77.0743522 L59.7769881,77.0743522 L59.7769881,75.9729963 L57.4214326,75.9729963 C55.7960993,75.9729963 54.4769881,77.271437 54.4769881,78.8713014 C54.4769881,80.4711658 55.7960992,81.7696065 57.4214326,81.7696065 L59.7769881,81.7696065 L59.7769881,80.6682505 L57.4214326,80.6682505 C56.4144326,80.6682505 55.595877,79.8625217 55.595877,78.8713014 C55.595877,77.880081 56.4144326,77.0743522 57.4214326,77.0743522 Z M58.0103215,79.4509624 L62.7214326,79.4509624 L62.7214326,78.2916403 L58.0103215,78.2916403 L58.0103215,79.4509624 Z M63.3103215,75.9729963 L60.9547659,75.9729963 L60.9547659,77.0743522 L63.3103215,77.0743522 C64.3173215,77.0743522 65.135877,77.880081 65.135877,78.8713014 C65.135877,79.8625217 64.3173215,80.6682505 63.3103215,80.6682505 L60.9547659,80.6682505 L60.9547659,81.7696065 L63.3103215,81.7696065 C64.9356548,81.7696065 66.2547659,80.4711658 66.2547659,78.8713014 C66.2547659,77.271437 64.9356548,75.9729963 63.3103215,75.9729963 Z" id="icon" fill="#FFFFFF" transform="translate(60.3659, 78.8713) scale(-1, 1) rotate(45) translate(-60.3659, -78.8713)"></path>
                        <polygon id="link" transform="translate(60.4444, 78.4772) scale(-1, 1) rotate(45) translate(-60.4444, -78.4772)" points="53.310155 71.3428944 67.5555556 71.3660727 67.5787339 85.6114733 53.3333333 85.5882949"></polygon>
                    </g>
                    <g id="编组" transform="translate(110.2222, 67.7757)">
                        <g id="Icon/link" transform="translate(10.6667, 10.7014) scale(-1, 1) rotate(45) translate(-10.6667, -10.7014)translate(3.5556, 3.5671)"></g>
                    </g>
                </g>
                <rect id="矩形" stroke="#979797" stroke-width="0.222222222" fill="#D8D8D8" x="230.555556" y="51.611763" width="13.1111111" height="2.89902941"></rect>
                <g id="编组-6" transform="translate(181.3333, 14.2686)">
                    <g id="矩形">
                        <use fill="black" fill-opacity="1" filter="url(#filter-6)" xlink:href="#path-5"></use>
                        <use fill="#FFFFFF" fill-rule="evenodd" xlink:href="#path-5"></use>
                    </g>
                    <polygon id="路径-72" fill="#F1F4F8" fill-rule="nonzero" points="32.8888889 0 32.8888889 71.1199478 31.5555556 71.1199478 31.5555556 0"></polygon>
                    <g id="矩形">
                        <use fill="#00B8CC" xlink:href="#path-7"></use>
                        <use fill-opacity="0.8" fill="#FFFFFF" xlink:href="#path-7"></use>
                    </g>
                    <path d="M40.8888889,6.91134289 L55.1111111,6.91134289 C56.0929507,6.91134289 56.8888889,7.70987544 56.8888889,8.69491525 L56.8888889,12.26206 C56.8888889,13.2470998 56.0929507,14.0456323 55.1111111,14.0456323 L40.8888889,14.0456323 C39.9070493,14.0456323 39.1111111,13.2470998 39.1111111,12.26206 L39.1111111,8.69491525 C39.1111111,7.70987544 39.9070493,6.91134289 40.8888889,6.91134289 Z" id="矩形备份-24" fill="#E9ECF0"></path>
                    <g id="矩形备份-25">
                        <use fill="#00B8CC" xlink:href="#path-8"></use>
                        <use fill-opacity="0.2" fill="#FFFFFF" xlink:href="#path-8"></use>
                    </g>
                    <path d="M8.88888889,21.1799218 L23.1111111,21.1799218 C24.0929507,21.1799218 24.8888889,21.9784543 24.8888889,22.9634941 L24.8888889,26.5306389 C24.8888889,27.5156787 24.0929507,28.3142112 23.1111111,28.3142112 L8.88888889,28.3142112 C7.90704933,28.3142112 7.11111111,27.5156787 7.11111111,26.5306389 L7.11111111,22.9634941 C7.11111111,21.9784543 7.90704933,21.1799218 8.88888889,21.1799218 Z" id="矩形备份-22" fill="#E9ECF0"></path>
                    <path d="M8.88888889,35.4485007 L23.1111111,35.4485007 C24.0929507,35.4485007 24.8888889,36.2470332 24.8888889,37.232073 L24.8888889,40.7992177 C24.8888889,41.7842575 24.0929507,42.5827901 23.1111111,42.5827901 L8.88888889,42.5827901 C7.90704933,42.5827901 7.11111111,41.7842575 7.11111111,40.7992177 L7.11111111,37.232073 C7.11111111,36.2470332 7.90704933,35.4485007 8.88888889,35.4485007 Z" id="矩形备份-23" fill="#E9ECF0"></path>
                    <polygon id="路径-73" fill="#F1F4F8" fill-rule="nonzero" points="99.5555556 17.166884 99.5555556 18.5028215 32 18.5028215 32 17.166884"></polygon>
                    <path d="M40.8888889,24.7470665 L90.6666667,24.7470665 C91.6485062,24.7470665 92.4444444,25.545599 92.4444444,26.5306389 L92.4444444,31.8813559 L39.1111111,31.8813559 L39.1111111,26.5306389 C39.1111111,25.545599 39.9070493,24.7470665 40.8888889,24.7470665 Z" id="矩形" fill="#E9ECF0"></path>
                    <ellipse id="椭圆形" fill="#E9ECF0" cx="40.8888889" cy="40.7992177" rx="1.77777778" ry="1.78357236"></ellipse>
                    <ellipse id="椭圆形备份-3" fill="#E9ECF0" cx="40.8888889" cy="51.5006519" rx="1.77777778" ry="1.78357236"></ellipse>
                    <path d="M48,39.0156454 L90.6666667,39.0156454 C91.6485062,39.0156454 92.4444444,39.8141779 92.4444444,40.7992177 C92.4444444,41.7842575 91.6485062,42.5827901 90.6666667,42.5827901 L48,42.5827901 C47.0181604,42.5827901 46.2222222,41.7842575 46.2222222,40.7992177 C46.2222222,39.8141779 47.0181604,39.0156454 48,39.0156454 Z" id="矩形" fill="#E9ECF0"></path>
                    <path d="M48,49.7170795 L90.6666667,49.7170795 C91.6485062,49.7170795 92.4444444,50.5156121 92.4444444,51.5006519 C92.4444444,52.4856917 91.6485062,53.2842243 90.6666667,53.2842243 L48,53.2842243 C47.0181604,53.2842243 46.2222222,52.4856917 46.2222222,51.5006519 C46.2222222,50.5156121 47.0181604,49.7170795 48,49.7170795 Z" id="矩形备份-26" fill="#E9ECF0"></path>
                    <ellipse id="椭圆形备份-4" fill="#E9ECF0" cx="40.8888889" cy="62.202086" rx="1.77777778" ry="1.78357236"></ellipse>
                    <path d="M48,60.4185137 L90.6666667,60.4185137 C91.6485062,60.4185137 92.4444444,61.2170462 92.4444444,62.202086 C92.4444444,63.1871259 91.6485062,63.9856584 90.6666667,63.9856584 L48,63.9856584 C47.0181604,63.9856584 46.2222222,63.1871259 46.2222222,62.202086 C46.2222222,61.2170462 47.0181604,60.4185137 48,60.4185137 Z" id="矩形备份-27" fill="#E9ECF0"></path>
                </g>
                <path d="M263.111111,31.4354628 C263.356571,31.4354628 263.555556,31.7345226 263.555556,32.1034316 C263.555556,32.4723405 263.356571,32.7714003 263.111111,32.7714003 L245.333333,32.7714003 C245.087873,32.7714003 244.888889,32.4723405 244.888889,32.1034316 C244.888889,31.7345226 245.087873,31.4354628 245.333333,31.4354628 L263.111111,31.4354628 Z" id="路径-74" fill="#00B8CC" fill-rule="nonzero"></path>
                <path d="M263.111111,31.4354628 C263.356571,31.4354628 263.555556,31.7345226 263.555556,32.1034316 C263.555556,32.4723405 263.356571,32.7714003 263.111111,32.7714003 L245.333333,32.7714003 C245.087873,32.7714003 244.888889,32.4723405 244.888889,32.1034316 C244.888889,31.7345226 245.087873,31.4354628 245.333333,31.4354628 L263.111111,31.4354628 Z" id="路径-74" fill-opacity="0.2" fill="#FFFFFF" fill-rule="nonzero"></path>
                <g id="元素/纸飞机/主色备份" transform="translate(284.3661, 0)">
                    <g id="路径-14">
                        <use fill="#00B8CC" xlink:href="#path-9"></use>
                        <use fill-opacity="0.4" fill="#FFFFFF" xlink:href="#path-9"></use>
                    </g>
                    <g id="路径-5">
                        <use fill="#00B8CC" xlink:href="#path-10"></use>
                        <use fill-opacity="0.2" fill="#FFFFFF" xlink:href="#path-10"></use>
                    </g>
                    <g id="路径-12">
                        <use fill="#00B8CC" xlink:href="#path-11"></use>
                        <use fill-opacity="0.2" fill="#000000" xlink:href="#path-11"></use>
                    </g>
                    <g id="路径-13">
                        <use fill="#00B8CC" xlink:href="#path-12"></use>
                        <use fill-opacity="0.2" fill="#FFFFFF" xlink:href="#path-12"></use>
                    </g>
                </g>
                <path d="M268.207179,28.2508809 C268.327988,27.7969524 268.541377,27.2475357 268.827334,26.6809601 L268.034314,26.2781006 C267.721363,26.8981616 267.485632,27.5051001 267.348376,28.020827 L268.207179,28.2508809 Z M269.716852,25.2142569 C270.048782,24.7510236 270.416794,24.3119689 270.818821,23.9056777 L270.187993,23.2773944 C269.752147,23.7178627 269.353906,24.1929816 268.995107,24.693714 L269.716852,25.2142569 Z M272.11604,22.8003099 C272.577603,22.4720632 273.066818,22.1863486 273.58351,21.9468903 L273.210747,21.1373082 C272.643864,21.4000274 272.107458,21.7133026 271.601996,22.072769 L272.11604,22.8003099 Z M275.182658,21.3803181 C275.82568,21.2202651 276.358911,21.1769434 276.777513,21.2357662 L276.900812,20.352601 C276.359954,20.2765986 275.714968,20.3289997 274.968615,20.5147726 L275.182658,21.3803181 Z M277.756794,21.9412173 C277.863689,22.331797 277.729398,22.8389814 277.413029,23.2155555 L278.092697,23.7902888 C278.589202,23.1992987 278.802462,22.3938624 278.613959,21.705095 L277.756794,21.9412173 Z M276.236299,23.6731495 C276.200443,23.6661817 276.164294,23.6575498 276.127859,23.6472183 C275.649752,23.5103493 275.310122,23.2538478 275.100519,22.8960736 L274.334197,23.3479582 C274.661761,23.9070798 275.190192,24.3061711 275.885028,24.5050816 C275.946444,24.5224982 276.006855,24.5369234 276.067265,24.5486628 L276.236299,23.6731495 Z M274.884344,21.4511646 C274.957666,20.958654 275.151124,20.4401272 275.44957,19.9469704 L274.689761,19.4841502 C274.331658,20.0758848 274.096506,20.7061622 274.005207,21.3194302 L274.884344,21.4511646 Z M276.515368,18.6984711 C276.659367,18.5755767 276.810411,18.4599774 276.967906,18.352382 C277.248383,18.1607692 277.564223,17.9656476 277.912273,17.7681156 L277.474608,16.9919186 C277.106144,17.2010365 276.769584,17.4089589 276.467598,17.6152656 C276.2838,17.7408311 276.107512,17.8757502 275.939418,18.0192087 L276.515368,18.6984711 Z M279.466309,16.9691383 C279.97617,16.7288537 280.516338,16.4918773 281.074348,16.2620518 L280.736774,15.4370779 C280.165694,15.6722861 279.612157,15.9151277 279.088379,16.161971 L279.466309,16.9691383 Z M282.411037,14.7879734 L282.714277,15.626262 L282.971045,15.5337491 C283.35083,15.3983741 283.704357,15.2789371 284.003136,15.1843939 L283.735761,14.333908 L283.522026,14.4026921 C283.19028,14.5111225 282.810486,14.6425344 282.411037,14.7879734 Z" id="路径" fill="#4DCDDB" fill-rule="nonzero"></path>
            </g>
        </g>
    </g>
</svg>