<?xml version="1.0" encoding="UTF-8"?>
<svg width="601px" height="110px" viewBox="0 0 601 110" version="1.1" xmlns="http://www.w3.org/2000/svg" xmlns:xlink="http://www.w3.org/1999/xlink">
    <!-- Generator: Sketch 53 (72520) - https://sketchapp.com -->
    <title>Group 27</title>
    <desc>Created with Sketch.</desc>
    <defs>
        <polygon id="path-1" points="0 110 600.8 110 600.8 0 0 0"></polygon>
    </defs>
    <g id="Page-1" stroke="none" stroke-width="1" fill="none" fill-rule="evenodd">
        <g id="A4" transform="translate(3.000000, -359.000000)">
            <g id="Group-27" transform="translate(-3.000000, 359.000000)">
                <polygon id="Fill-1" fill="#414447" points="369.0663 6.7976 290.5783 6.7976 287.1173 17.4406 372.5263 17.4406"></polygon>
                <polygon id="Fill-2" fill="#414447" points="346.9774 63.6472 359.0874 91.4362 303.7924 91.4362 315.6624 53.6532 380.5944 53.6532 376.9954 43.0102 284.1994 43.0102 280.6544 53.6532 303.7784 53.6532 287.2774 103.2032 375.0524 103.2032 359.6384 63.6472"></polygon>
                <polygon id="Fill-3" fill="#414447" points="420.1512 35.0564 420.1512 16.4674 439.3852 14.8144 435.3662 4.9994 390.6052 8.9664 393.2262 18.7814 409.8502 17.3524 409.8502 35.0564 393.4332 35.0564 389.8152 44.4524 409.8502 44.4524 409.8502 104.9994 420.1512 104.9994 420.1512 44.4524 439.5632 44.4524 436.1002 35.0564"></polygon>
                <polygon id="Fill-4" fill="#414447" points="391.9051 100.5994 401.4641 100.5994 405.9141 49.0744 396.6391 49.0744"></polygon>
                <polygon id="Fill-5" fill="#414447" points="423.9735 49.0999 428.6545 100.6079 438.2125 100.5729 433.2465 49.0659"></polygon>
                <g id="Group-15" transform="translate(38.000000, 0.000000)">
                    <path d="M425.9959,58.0867 L425.9959,46.7127 C425.9959,46.7127 413.8759,40.7097 403.2709,41.1237 L403.2709,50.4277 C403.2709,50.4277 419.9359,51.4627 425.9959,58.0867" id="Fill-6" fill="#414447"></path>
                    <path d="M425.9959,34.2068 L425.9959,22.8328 C425.9959,22.8328 413.8759,16.8308 403.2709,17.2448 L403.2709,26.5488 C403.2709,26.5488 419.9359,27.5828 425.9959,34.2068" id="Fill-8" fill="#414447"></path>
                    <polygon id="Fill-10" fill="#414447" points="442.2147 65.5144 442.2147 5.8274 431.2047 5.8274 431.2047 66.5824 400.9157 71.6454 401.9917 81.2254 431.2047 76.2474 431.2047 104.6494 442.2147 104.6494 442.2147 75.1724 453.8007 72.9744 454.9197 63.2154"></polygon>
                    <g id="Group-14" fill="#00C7DB">
                        <path d="M40.0399,43.4846 L55.3259,34.6756 C56.7219,33.8706 58.4649,34.8786 58.4649,36.4896 L58.4649,73.5046 C58.4649,75.1166 56.7199,76.1246 55.3229,75.3176 L20.6059,55.2466 C20.3429,55.0936 20.0179,55.0936 19.7539,55.2456 L0.3189,66.4556 L75.2149,109.7166 C76.6099,110.5226 78.3549,109.5156 78.3549,107.9026 L78.3549,2.0966 C78.3549,0.4846 76.6099,-0.5224 75.2149,0.2836 L41.0869,19.9986 C40.4389,20.3726 40.0399,21.0636 40.0399,21.8116 L40.0399,43.4846 Z" id="Fill-12"></path>
                    </g>
                </g>
                <g id="Group-18" fill="#FEA700">
                    <path d="M0,2.097 L0,107.903 C0,109.516 1.745,110.522 3.141,109.716 L3.141,109.716 L37.269,90.002 C37.917,89.628 38.316,88.936 38.316,88.189 L38.316,88.189 L38.316,66.516 L23.03,75.325 C21.633,76.128 19.891,75.121 19.891,73.51 L19.891,73.51 L19.891,36.495 C19.891,34.883 21.637,33.875 23.032,34.683 L23.032,34.683 L57.749,54.753 C58.013,54.906 58.339,54.906 58.603,54.754 L58.603,54.754 L78.036,43.544 L3.14,0.284 C2.803,0.089 2.445,0 2.097,0 L2.097,0 C1.004,0 0,0.875 0,2.097" id="Fill-16"></path>
                </g>
                <g id="Group-26">
                    <path d="M243.575,83.5789 L252.221,83.5789 C252.221,83.5789 249.34,71.1749 249.34,51.8789 C245.016,51.8789 242.061,51.9219 241.437,51.9219 C241.339,54.3889 240.982,67.4639 243.575,83.5789" id="Fill-19" fill="#414447"></path>
                    <mask id="mask-2" fill="white">
                        <use xlink:href="#path-1"></use>
                    </mask>
                    <g id="Clip-22"></g>
                    <path d="M190.65,55.107 L199.04,55.107 L199.04,32.612 L190.65,32.612 L190.65,55.107 Z M190.65,25.068 L199.04,25.068 L199.04,15.787 L190.65,15.787 L190.65,25.068 Z M205.953,55.107 L212.729,55.107 L212.729,32.612 L205.953,32.612 L205.953,55.107 Z M177.098,55.107 L183.737,55.107 L183.737,32.612 L177.098,32.612 L177.098,55.107 Z M166.935,15.787 L183.737,15.787 L183.737,25.068 L168.63,25.068 L168.63,62.101 L183.795,62.101 L183.795,62.109 L189.788,62.101 L189.788,71.387 L173.185,71.387 L169.63,81.108 L189.788,81.108 L189.788,94.005 L170.563,94.005 L167.136,103.725 L221.222,103.725 L221.222,93.87 L200.606,94.005 L200.606,81.108 L218.309,81.108 L218.309,71.387 L200.606,71.387 L200.606,62.109 L205.953,62.109 L205.953,62.101 L214.423,62.101 C218.164,62.101 221.197,59.202 221.197,55.623 L221.197,55.514 L221.197,31.655 L221.198,25.068 L205.953,25.068 L205.953,15.787 L221.222,15.787 L221.222,5.77 L168.73,5.77 L166.935,15.787 Z" id="Fill-21" fill="#414447" mask="url(#mask-2)"></path>
                    <path d="M265.5262,28.9338 L259.0542,28.9338 L256.2482,28.9338 L237.4282,28.9338 L237.8992,15.7868 L268.9032,15.7868 L265.5152,5.7698 L225.1062,5.7698 L225.1062,15.7868 L228.0752,15.7868 L225.1062,103.7258 L234.0152,103.7258 L247.6762,103.7258 L243.8932,93.9468 L235.0992,93.9468 L237.0702,38.9508 L256.1552,38.9508 C256.0762,55.6378 256.2602,88.8168 258.7392,104.2298 L268.9032,104.2298 C268.9032,104.2298 265.5152,89.6498 265.5152,66.9698 C265.5152,66.6718 265.5262,28.9338 265.5262,28.9338" id="Fill-23" fill="#414447" mask="url(#mask-2)"></path>
                    <polygon id="Fill-24" fill="#414447" mask="url(#mask-2)" points="533.3211 64.9656 534.0411 55.0166 524.4431 57.5306 524.4671 35.3536 533.4391 35.3536 534.0411 25.9576 524.4761 25.9576 524.4941 5.1836 514.3661 5.1836 514.3621 25.9576 502.7411 25.9576 501.3111 35.3536 514.3601 35.3536 514.3541 58.9116 501.6221 61.5896 501.3821 71.4036 514.3521 68.5336 514.3491 94.8406 502.5101 96.0306 506.3931 104.8166 524.4211 104.5496 524.4211 83.8076 524.4341 67.1346"></polygon>
                    <path d="M574.9988,79.9246 C581.9338,71.7836 588.9158,62.0016 594.0038,51.1486 C597.8878,43.3806 593.0328,41.4386 591.0908,41.4386 L572.5118,41.4386 L572.5118,26.9136 L595.9458,26.9136 L595.9458,17.5166 L572.5118,17.5166 L572.5118,5.1836 L561.5308,5.1836 L561.5308,17.5166 L538.6598,17.5166 L538.6598,26.9136 L561.5308,26.9136 L561.5308,41.4386 L538.6598,41.4386 L538.6598,51.1486 L582.3528,51.1486 C582.3528,51.1486 577.0898,60.3476 567.8118,71.9026 C563.3928,66.7976 556.8528,61.1646 552.2538,55.0316 L538.6598,55.0316 C538.6598,55.0316 550.0618,67.0976 561.0358,79.8886 C553.3298,88.4786 543.7948,97.4786 532.8348,104.5496 L549.3408,104.5496 C549.3408,104.5496 557.7968,98.2756 567.9128,87.7516 C573.7748,94.3166 579.6088,100.4496 584.2948,104.5496 L600.8008,104.5496 C600.8008,104.5496 589.6158,95.6926 574.9988,79.9246" id="Fill-25" fill="#414447" mask="url(#mask-2)"></path>
                </g>
            </g>
        </g>
    </g>
</svg>