<?xml version="1.0" encoding="UTF-8"?>
<svg width="309px" height="182px" viewBox="0 0 309 182" version="1.1" xmlns="http://www.w3.org/2000/svg" xmlns:xlink="http://www.w3.org/1999/xlink">
    <title>编组 24</title>
    <defs>
        <path d="M6.86666667,0 L58.3666667,0 C62.1590219,0 65.2333333,3.07804234 65.2333333,6.875 L65.2333333,75.625 C65.2333333,79.4219577 62.1590219,82.5 58.3666667,82.5 L6.86666667,82.5 C3.07431138,82.5 0,79.4219577 0,75.625 L0,6.875 C0,3.07804234 3.07431138,0 6.86666667,0 Z" id="path-1"></path>
        <filter x="-18.4%" y="-10.9%" width="136.8%" height="129.1%" filterUnits="objectBoundingBox" id="filter-2">
            <feOffset dx="0" dy="3" in="SourceAlpha" result="shadowOffsetOuter1"></feOffset>
            <feGaussianBlur stdDeviation="3.5" in="shadowOffsetOuter1" result="shadowBlurOuter1"></feGaussianBlur>
            <feColorMatrix values="0 0 0 0 0.11372549   0 0 0 0 0.129411765   0 0 0 0 0.160784314  0 0 0 0.08 0" type="matrix" in="shadowBlurOuter1" result="shadowMatrixOuter1"></feColorMatrix>
            <feOffset dx="0" dy="2" in="SourceAlpha" result="shadowOffsetOuter2"></feOffset>
            <feGaussianBlur stdDeviation="2" in="shadowOffsetOuter2" result="shadowBlurOuter2"></feGaussianBlur>
            <feColorMatrix values="0 0 0 0 0.11372549   0 0 0 0 0.129411765   0 0 0 0 0.160784314  0 0 0 0.12 0" type="matrix" in="shadowBlurOuter2" result="shadowMatrixOuter2"></feColorMatrix>
            <feMerge>
                <feMergeNode in="shadowMatrixOuter1"></feMergeNode>
                <feMergeNode in="shadowMatrixOuter2"></feMergeNode>
            </feMerge>
        </filter>
        <path d="M6.86666667,0 L58.3666667,0 C62.1590219,0 65.2333333,3.07804234 65.2333333,6.875 L65.2333333,75.625 C65.2333333,79.4219577 62.1590219,82.5 58.3666667,82.5 L6.86666667,82.5 C3.07431138,82.5 0,79.4219577 0,75.625 L0,6.875 C0,3.07804234 3.07431138,0 6.86666667,0 Z" id="path-3"></path>
        <filter x="-18.4%" y="-10.9%" width="136.8%" height="129.1%" filterUnits="objectBoundingBox" id="filter-4">
            <feOffset dx="0" dy="3" in="SourceAlpha" result="shadowOffsetOuter1"></feOffset>
            <feGaussianBlur stdDeviation="3.5" in="shadowOffsetOuter1" result="shadowBlurOuter1"></feGaussianBlur>
            <feColorMatrix values="0 0 0 0 0.11372549   0 0 0 0 0.129411765   0 0 0 0 0.160784314  0 0 0 0.08 0" type="matrix" in="shadowBlurOuter1" result="shadowMatrixOuter1"></feColorMatrix>
            <feOffset dx="0" dy="2" in="SourceAlpha" result="shadowOffsetOuter2"></feOffset>
            <feGaussianBlur stdDeviation="2" in="shadowOffsetOuter2" result="shadowBlurOuter2"></feGaussianBlur>
            <feColorMatrix values="0 0 0 0 0.11372549   0 0 0 0 0.129411765   0 0 0 0 0.160784314  0 0 0 0.12 0" type="matrix" in="shadowBlurOuter2" result="shadowMatrixOuter2"></feColorMatrix>
            <feMerge>
                <feMergeNode in="shadowMatrixOuter1"></feMergeNode>
                <feMergeNode in="shadowMatrixOuter2"></feMergeNode>
            </feMerge>
        </filter>
        <path d="M47.2083333,48.1844854 L157.075,48.1844854 C164.659711,48.1844854 170.808333,54.3405701 170.808333,61.9344854 L170.808333,137.559485 C170.808333,145.153401 164.659711,151.309485 157.075,151.309485 L47.2083333,151.309485 C39.6236228,151.309485 33.475,145.153401 33.475,137.559485 L33.475,61.9344854 C33.475,54.3405701 39.6236228,48.1844854 47.2083333,48.1844854 Z" id="path-5"></path>
        <filter x="-8.7%" y="-8.7%" width="117.5%" height="123.3%" filterUnits="objectBoundingBox" id="filter-6">
            <feOffset dx="0" dy="3" in="SourceAlpha" result="shadowOffsetOuter1"></feOffset>
            <feGaussianBlur stdDeviation="3.5" in="shadowOffsetOuter1" result="shadowBlurOuter1"></feGaussianBlur>
            <feColorMatrix values="0 0 0 0 0.11372549   0 0 0 0 0.129411765   0 0 0 0 0.160784314  0 0 0 0.08 0" type="matrix" in="shadowBlurOuter1" result="shadowMatrixOuter1"></feColorMatrix>
            <feOffset dx="0" dy="2" in="SourceAlpha" result="shadowOffsetOuter2"></feOffset>
            <feGaussianBlur stdDeviation="2" in="shadowOffsetOuter2" result="shadowBlurOuter2"></feGaussianBlur>
            <feColorMatrix values="0 0 0 0 0.11372549   0 0 0 0 0.129411765   0 0 0 0 0.160784314  0 0 0 0.12 0" type="matrix" in="shadowBlurOuter2" result="shadowMatrixOuter2"></feColorMatrix>
            <feMerge>
                <feMergeNode in="shadowMatrixOuter1"></feMergeNode>
                <feMergeNode in="shadowMatrixOuter2"></feMergeNode>
            </feMerge>
        </filter>
        <ellipse id="path-7" cx="30.9" cy="30.9375" rx="30.9" ry="30.9375"></ellipse>
        <filter x="-19.4%" y="-14.5%" width="138.8%" height="138.8%" filterUnits="objectBoundingBox" id="filter-8">
            <feOffset dx="0" dy="3" in="SourceAlpha" result="shadowOffsetOuter1"></feOffset>
            <feGaussianBlur stdDeviation="3.5" in="shadowOffsetOuter1" result="shadowBlurOuter1"></feGaussianBlur>
            <feColorMatrix values="0 0 0 0 0.11372549   0 0 0 0 0.129411765   0 0 0 0 0.160784314  0 0 0 0.08 0" type="matrix" in="shadowBlurOuter1" result="shadowMatrixOuter1"></feColorMatrix>
            <feOffset dx="0" dy="2" in="SourceAlpha" result="shadowOffsetOuter2"></feOffset>
            <feGaussianBlur stdDeviation="2" in="shadowOffsetOuter2" result="shadowBlurOuter2"></feGaussianBlur>
            <feColorMatrix values="0 0 0 0 0.11372549   0 0 0 0 0.129411765   0 0 0 0 0.160784314  0 0 0 0.12 0" type="matrix" in="shadowBlurOuter2" result="shadowMatrixOuter2"></feColorMatrix>
            <feMerge>
                <feMergeNode in="shadowMatrixOuter1"></feMergeNode>
                <feMergeNode in="shadowMatrixOuter2"></feMergeNode>
            </feMerge>
        </filter>
        <path d="M1.68678279,10.15625 L0.486167685,12.193778 C0.411496748,12.3205008 0.412115229,12.4786628 0.487104645,12.6045629 L0.492214108,12.6129078 C0.545314122,12.6973007 0.657269559,12.7404612 0.828080418,12.7423893 L0.840261339,12.7424569 L1.42382949,12.7424569 C1.5985224,12.7424569 1.77260606,12.7214836 1.94247523,12.6799713 L12.2695925,10.15625 L1.68678279,10.15625 Z" id="path-9"></path>
        <path d="M4.23110644,6.27693966 L24.1086729,6.27693966 L0.655724819,0.0171844925 C0.40781201,-0.0489852912 0.150449587,0.0809542293 0.0516449115,0.320655274 L0.0481011536,0.329473639 C-0.041457941,0.558168854 -0.00427566219,0.818141529 0.145624402,1.01134122 L4.23110644,6.27693966 Z" id="path-10"></path>
        <polygon id="path-11" points="24.1086729 6.27693966 4.23252203 6.27693966 1.69514107 10.15625 7.19279983 10.15625"></polygon>
        <path d="M24.1086729,6.27693966 L12.6874828,17.0528017 C12.5022015,17.1426006 12.361312,17.1875 12.2648145,17.1875 C12.168317,17.1875 12.0304761,17.1426006 11.8512918,17.0528017 L6.14526959,9.29418103 C6.118887,8.98046283 6.14234812,8.77376653 6.21565295,8.67409212 C6.28895779,8.57441772 6.47683082,8.4937577 6.77927206,8.43211207 L24.1086729,6.27693966 Z" id="path-12"></path>
    </defs>
    <g id="收银台" stroke="none" stroke-width="1" fill="none" fill-rule="evenodd">
        <g id="商城_收银台_空态" transform="translate(-565.000000, -307.000000)">
            <g id="编组-3" transform="translate(125.000000, 210.000000)">
                <g id="编组-5" transform="translate(387.000000, 104.000000)">
                    <g id="编组-24" transform="translate(53.000000, 0.000000)">
                        <g id="编组-4" transform="translate(54.718750, 0.000000)">
                            <g id="编组-3">
                                <path d="M47.2083333,37.8719854 L143.341667,37.8719854 C150.926377,37.8719854 157.075,44.0280701 157.075,51.6219854 L157.075,137.559485 C157.075,145.153401 150.926377,151.309485 143.341667,151.309485 L47.2083333,151.309485 C39.6236228,151.309485 33.475,145.153401 33.475,137.559485 L33.475,51.6219854 C33.475,44.0280701 39.6236228,37.8719854 47.2083333,37.8719854 Z" id="矩形" fill="#DBDEE3"></path>
                                <g id="编组-2备份" transform="translate(84.116667, 52.051673) rotate(15.000000) translate(-84.116667, -52.051673) translate(51.500000, 10.801673)">
                                    <g id="矩形">
                                        <use fill="black" fill-opacity="1" filter="url(#filter-2)" xlink:href="#path-1"></use>
                                        <use fill="#E9ECF0" fill-rule="evenodd" xlink:href="#path-1"></use>
                                    </g>
                                    <ellipse id="椭圆形" fill="#E9ECF0" cx="32.6166667" cy="63.59375" rx="18.8833333" ry="18.90625"></ellipse>
                                    <path d="M48.0666667,10.0976563 C51.8590219,10.0976563 54.9333333,13.1756986 54.9333333,16.9726563 L54.9333333,37.8125 C54.9333333,41.3982061 52.1915968,44.3427681 48.6925793,44.6593222 C44.6331982,40.4382649 38.9312009,37.8125 32.6166667,37.8125 C26.3021324,37.8125 20.6001351,40.4382649 16.5404791,44.6587404 C13.0417365,44.3427681 10.3,41.3982061 10.3,37.8125 L10.3,16.9726563 C10.3,13.1756986 13.3743114,10.0976563 17.1666667,10.0976563 L48.0666667,10.0976563 Z" id="路径" fill="#E2E5E9"></path>
                                </g>
                                <g id="编组-2" transform="translate(107.291667, 52.051673) rotate(30.000000) translate(-107.291667, -52.051673) translate(74.675000, 10.801673)">
                                    <g id="矩形">
                                        <use fill="black" fill-opacity="1" filter="url(#filter-4)" xlink:href="#path-3"></use>
                                        <use fill="#F1F4F8" fill-rule="evenodd" xlink:href="#path-3"></use>
                                    </g>
                                    <ellipse id="椭圆形" fill="#E9ECF0" cx="32.6166667" cy="63.59375" rx="18.8833333" ry="18.90625"></ellipse>
                                    <path d="M48.0666667,10.0976563 C51.8590219,10.0976563 54.9333333,13.1756986 54.9333333,16.9726563 L54.9333333,37.8125 C54.9333333,41.3982061 52.1915968,44.3427681 48.6925793,44.6593222 C44.6331982,40.4382649 38.9312009,37.8125 32.6166667,37.8125 C26.3021324,37.8125 20.6001351,40.4382649 16.5404791,44.6587404 C13.0417365,44.3427681 10.3,41.3982061 10.3,37.8125 L10.3,16.9726563 C10.3,13.1756986 13.3743114,10.0976563 17.1666667,10.0976563 L48.0666667,10.0976563 Z" id="路径" fill="#E9ECF0"></path>
                                </g>
                                <g id="矩形">
                                    <use fill="black" fill-opacity="1" filter="url(#filter-6)" xlink:href="#path-5"></use>
                                    <use fill="#FFFFFF" fill-rule="evenodd" xlink:href="#path-5"></use>
                                </g>
                                <path d="M47.2083333,62.7938604 L50.6416667,62.7938604 C51.1157111,62.7938604 51.5,62.4091051 51.5,61.9344854 C51.5,61.4598657 51.1157111,61.0751104 50.6416667,61.0751104 L47.2083333,61.0751104 C46.7342889,61.0751104 46.35,61.4598657 46.35,61.9344854 C46.35,62.4091051 46.7342889,62.7938604 47.2083333,62.7938604 Z M55.7916667,62.7938604 L59.225,62.7938604 C59.6990444,62.7938604 60.0833333,62.4091051 60.0833333,61.9344854 C60.0833333,61.4598657 59.6990444,61.0751104 59.225,61.0751104 L55.7916667,61.0751104 C55.3176223,61.0751104 54.9333333,61.4598657 54.9333333,61.9344854 C54.9333333,62.4091051 55.3176223,62.7938604 55.7916667,62.7938604 Z M64.375,62.7938604 L67.8083333,62.7938604 C68.2823777,62.7938604 68.6666667,62.4091051 68.6666667,61.9344854 C68.6666667,61.4598657 68.2823777,61.0751104 67.8083333,61.0751104 L64.375,61.0751104 C63.9009556,61.0751104 63.5166667,61.4598657 63.5166667,61.9344854 C63.5166667,62.4091051 63.9009556,62.7938604 64.375,62.7938604 Z M72.9583333,62.7938604 L76.3916667,62.7938604 C76.8657111,62.7938604 77.25,62.4091051 77.25,61.9344854 C77.25,61.4598657 76.8657111,61.0751104 76.3916667,61.0751104 L72.9583333,61.0751104 C72.4842889,61.0751104 72.1,61.4598657 72.1,61.9344854 C72.1,62.4091051 72.4842889,62.7938604 72.9583333,62.7938604 Z M81.5416667,62.7938604 L84.975,62.7938604 C85.4490444,62.7938604 85.8333333,62.4091051 85.8333333,61.9344854 C85.8333333,61.4598657 85.4490444,61.0751104 84.975,61.0751104 L81.5416667,61.0751104 C81.0676223,61.0751104 80.6833333,61.4598657 80.6833333,61.9344854 C80.6833333,62.4091051 81.0676223,62.7938604 81.5416667,62.7938604 Z M90.125,62.7938604 L93.5583333,62.7938604 C94.0323777,62.7938604 94.4166667,62.4091051 94.4166667,61.9344854 C94.4166667,61.4598657 94.0323777,61.0751104 93.5583333,61.0751104 L90.125,61.0751104 C89.6509556,61.0751104 89.2666667,61.4598657 89.2666667,61.9344854 C89.2666667,62.4091051 89.6509556,62.7938604 90.125,62.7938604 Z M98.7083333,62.7938604 L102.141667,62.7938604 C102.615711,62.7938604 103,62.4091051 103,61.9344854 C103,61.4598657 102.615711,61.0751104 102.141667,61.0751104 L98.7083333,61.0751104 C98.2342889,61.0751104 97.85,61.4598657 97.85,61.9344854 C97.85,62.4091051 98.2342889,62.7938604 98.7083333,62.7938604 Z M107.291667,62.7938604 L110.725,62.7938604 C111.199044,62.7938604 111.583333,62.4091051 111.583333,61.9344854 C111.583333,61.4598657 111.199044,61.0751104 110.725,61.0751104 L107.291667,61.0751104 C106.817622,61.0751104 106.433333,61.4598657 106.433333,61.9344854 C106.433333,62.4091051 106.817622,62.7938604 107.291667,62.7938604 Z M115.875,62.7938604 L119.308333,62.7938604 C119.782378,62.7938604 120.166667,62.4091051 120.166667,61.9344854 C120.166667,61.4598657 119.782378,61.0751104 119.308333,61.0751104 L115.875,61.0751104 C115.400956,61.0751104 115.016667,61.4598657 115.016667,61.9344854 C115.016667,62.4091051 115.400956,62.7938604 115.875,62.7938604 Z M124.458333,62.7938604 L127.891667,62.7938604 C128.365711,62.7938604 128.75,62.4091051 128.75,61.9344854 C128.75,61.4598657 128.365711,61.0751104 127.891667,61.0751104 L124.458333,61.0751104 C123.984289,61.0751104 123.6,61.4598657 123.6,61.9344854 C123.6,62.4091051 123.984289,62.7938604 124.458333,62.7938604 Z M133.041667,62.7938604 L136.475,62.7938604 C136.949044,62.7938604 137.333333,62.4091051 137.333333,61.9344854 C137.333333,61.4598657 136.949044,61.0751104 136.475,61.0751104 L133.041667,61.0751104 C132.567622,61.0751104 132.183333,61.4598657 132.183333,61.9344854 C132.183333,62.4091051 132.567622,62.7938604 133.041667,62.7938604 Z M141.625,62.7938604 L145.058333,62.7938604 C145.532378,62.7938604 145.916667,62.4091051 145.916667,61.9344854 C145.916667,61.4598657 145.532378,61.0751104 145.058333,61.0751104 L141.625,61.0751104 C141.150956,61.0751104 140.766667,61.4598657 140.766667,61.9344854 C140.766667,62.4091051 141.150956,62.7938604 141.625,62.7938604 Z M150.208333,62.7938604 C151.232762,62.7938604 152.218173,63.0501369 153.095327,63.5323414 C153.510855,63.7607728 154.032663,63.608692 154.260817,63.1926596 C154.488972,62.7766272 154.337075,62.254186 153.921547,62.0257547 C152.792772,61.4052246 151.523447,61.0751104 150.208333,61.0751104 C149.734289,61.0751104 149.35,61.4598657 149.35,61.9344854 C149.35,62.4091051 149.734289,62.7938604 150.208333,62.7938604 Z M155.921226,66.9403414 C156.116177,67.5380807 156.216667,68.166433 156.216667,68.8094854 L156.216667,70.0573663 C156.216667,70.5319861 156.600956,70.9167413 157.075,70.9167413 C157.549044,70.9167413 157.933333,70.5319861 157.933333,70.0573663 L157.933333,68.8094854 C157.933333,67.9846693 157.804052,67.1762871 157.553093,66.4068211 C157.405944,65.9556465 156.92135,65.7093299 156.470723,65.8566575 C156.020095,66.0039851 155.774077,66.4891669 155.921226,66.9403414 Z M156.216667,75.2136163 L156.216667,78.6511163 C156.216667,79.1257361 156.600956,79.5104913 157.075,79.5104913 C157.549044,79.5104913 157.933333,79.1257361 157.933333,78.6511163 L157.933333,75.2136163 C157.933333,74.7389966 157.549044,74.3542413 157.075,74.3542413 C156.600956,74.3542413 156.216667,74.7389966 156.216667,75.2136163 Z M156.216667,83.8073663 L156.216667,87.2448663 C156.216667,87.7194861 156.600956,88.1042413 157.075,88.1042413 C157.549044,88.1042413 157.933333,87.7194861 157.933333,87.2448663 L157.933333,83.8073663 C157.933333,83.3327466 157.549044,82.9479913 157.075,82.9479913 C156.600956,82.9479913 156.216667,83.3327466 156.216667,83.8073663 Z M156.216667,92.4011163 L156.216667,95.8386163 C156.216667,96.3132361 156.600956,96.6979913 157.075,96.6979913 C157.549044,96.6979913 157.933333,96.3132361 157.933333,95.8386163 L157.933333,92.4011163 C157.933333,91.9264966 157.549044,91.5417413 157.075,91.5417413 C156.600956,91.5417413 156.216667,91.9264966 156.216667,92.4011163 Z M156.216667,100.994866 L156.216667,104.432366 C156.216667,104.906986 156.600956,105.291741 157.075,105.291741 C157.549044,105.291741 157.933333,104.906986 157.933333,104.432366 L157.933333,100.994866 C157.933333,100.520247 157.549044,100.135491 157.075,100.135491 C156.600956,100.135491 156.216667,100.520247 156.216667,100.994866 Z M156.216667,109.588616 L156.216667,113.026116 C156.216667,113.500736 156.600956,113.885491 157.075,113.885491 C157.549044,113.885491 157.933333,113.500736 157.933333,113.026116 L157.933333,109.588616 C157.933333,109.113997 157.549044,108.729241 157.075,108.729241 C156.600956,108.729241 156.216667,109.113997 156.216667,109.588616 Z M156.216667,118.182366 L156.216667,121.619866 C156.216667,122.094486 156.600956,122.479241 157.075,122.479241 C157.549044,122.479241 157.933333,122.094486 157.933333,121.619866 L157.933333,118.182366 C157.933333,117.707747 157.549044,117.322991 157.075,117.322991 C156.600956,117.322991 156.216667,117.707747 156.216667,118.182366 Z M156.216667,126.776116 L156.216667,130.213616 C156.216667,130.688236 156.600956,131.072991 157.075,131.072991 C157.549044,131.072991 157.933333,130.688236 157.933333,130.213616 L157.933333,126.776116 C157.933333,126.301497 157.549044,125.916741 157.075,125.916741 C156.600956,125.916741 156.216667,126.301497 156.216667,126.776116 Z M154.867696,134.4829 C154.230155,135.265764 153.405414,135.878524 152.471317,136.259076 C152.032231,136.43796 151.82112,136.939355 151.999787,137.378974 C152.178454,137.818592 152.679241,138.029959 153.118327,137.851076 C154.319988,137.361518 155.379425,136.574384 156.198161,135.569023 C156.497722,135.201179 156.44273,134.659846 156.075332,134.359921 C155.707934,134.059997 155.167257,134.115056 154.867696,134.4829 Z M147.715597,136.70011 L144.282263,136.70011 C143.808219,136.70011 143.42393,137.084866 143.42393,137.559485 C143.42393,138.034105 143.808219,138.41886 144.282263,138.41886 L147.715597,138.41886 C148.189641,138.41886 148.57393,138.034105 148.57393,137.559485 C148.57393,137.084866 148.189641,136.70011 147.715597,136.70011 Z M139.132263,136.70011 L135.69893,136.70011 C135.224886,136.70011 134.840597,137.084866 134.840597,137.559485 C134.840597,138.034105 135.224886,138.41886 135.69893,138.41886 L139.132263,138.41886 C139.606308,138.41886 139.990597,138.034105 139.990597,137.559485 C139.990597,137.084866 139.606308,136.70011 139.132263,136.70011 Z M130.54893,136.70011 L127.115597,136.70011 C126.641552,136.70011 126.257263,137.084866 126.257263,137.559485 C126.257263,138.034105 126.641552,138.41886 127.115597,138.41886 L130.54893,138.41886 C131.022974,138.41886 131.407263,138.034105 131.407263,137.559485 C131.407263,137.084866 131.022974,136.70011 130.54893,136.70011 Z M121.965597,136.70011 L118.532263,136.70011 C118.058219,136.70011 117.67393,137.084866 117.67393,137.559485 C117.67393,138.034105 118.058219,138.41886 118.532263,138.41886 L121.965597,138.41886 C122.439641,138.41886 122.82393,138.034105 122.82393,137.559485 C122.82393,137.084866 122.439641,136.70011 121.965597,136.70011 Z M113.382263,136.70011 L109.94893,136.70011 C109.474886,136.70011 109.090597,137.084866 109.090597,137.559485 C109.090597,138.034105 109.474886,138.41886 109.94893,138.41886 L113.382263,138.41886 C113.856308,138.41886 114.240597,138.034105 114.240597,137.559485 C114.240597,137.084866 113.856308,136.70011 113.382263,136.70011 Z M104.79893,136.70011 L101.365597,136.70011 C100.891552,136.70011 100.507263,137.084866 100.507263,137.559485 C100.507263,138.034105 100.891552,138.41886 101.365597,138.41886 L104.79893,138.41886 C105.272974,138.41886 105.657263,138.034105 105.657263,137.559485 C105.657263,137.084866 105.272974,136.70011 104.79893,136.70011 Z M96.2155966,136.70011 L92.7822633,136.70011 C92.3082189,136.70011 91.92393,137.084866 91.92393,137.559485 C91.92393,138.034105 92.3082189,138.41886 92.7822633,138.41886 L96.2155966,138.41886 C96.689641,138.41886 97.07393,138.034105 97.07393,137.559485 C97.07393,137.084866 96.689641,136.70011 96.2155966,136.70011 Z M87.6322633,136.70011 L84.19893,136.70011 C83.7248855,136.70011 83.3405966,137.084866 83.3405966,137.559485 C83.3405966,138.034105 83.7248855,138.41886 84.19893,138.41886 L87.6322633,138.41886 C88.1063077,138.41886 88.4905966,138.034105 88.4905966,137.559485 C88.4905966,137.084866 88.1063077,136.70011 87.6322633,136.70011 Z M79.04893,136.70011 L75.6155966,136.70011 C75.1415522,136.70011 74.7572633,137.084866 74.7572633,137.559485 C74.7572633,138.034105 75.1415522,138.41886 75.6155966,138.41886 L79.04893,138.41886 C79.5229744,138.41886 79.9072633,138.034105 79.9072633,137.559485 C79.9072633,137.084866 79.5229744,136.70011 79.04893,136.70011 Z M70.4655966,136.70011 L67.0322633,136.70011 C66.5582189,136.70011 66.17393,137.084866 66.17393,137.559485 C66.17393,138.034105 66.5582189,138.41886 67.0322633,138.41886 L70.4655966,138.41886 C70.939641,138.41886 71.32393,138.034105 71.32393,137.559485 C71.32393,137.084866 70.939641,136.70011 70.4655966,136.70011 Z M61.8822633,136.70011 L58.44893,136.70011 C57.9748855,136.70011 57.5905966,137.084866 57.5905966,137.559485 C57.5905966,138.034105 57.9748855,138.41886 58.44893,138.41886 L61.8822633,138.41886 C62.3563077,138.41886 62.7405966,138.034105 62.7405966,137.559485 C62.7405966,137.084866 62.3563077,136.70011 61.8822633,136.70011 Z M53.29893,136.70011 L49.8655966,136.70011 C49.3915522,136.70011 49.0072633,137.084866 49.0072633,137.559485 C49.0072633,138.034105 49.3915522,138.41886 49.8655966,138.41886 L53.29893,138.41886 C53.7729744,138.41886 54.1572633,138.034105 54.1572633,137.559485 C54.1572633,137.084866 53.7729744,136.70011 53.29893,136.70011 Z" id="路径-29" fill="#DBDEE3" fill-rule="nonzero"></path>
                                <path d="M33.4743821,96.3364674 C53.1316755,97.6613237 68.6666667,114.045514 68.6666667,134.0625 C68.6666667,140.251614 67.1815158,146.093431 64.5485615,151.250194 L47.225,151.25 C39.6310847,151.25 33.475,145.093915 33.475,137.5 Z" id="形状结合" fill="#F1F4F8"></path>
                                <g id="编组" transform="translate(0.000000, 103.125000)">
                                    <g id="椭圆形">
                                        <use fill="black" fill-opacity="1" filter="url(#filter-8)" xlink:href="#path-7"></use>
                                        <use fill="#FFFFFF" fill-rule="evenodd" xlink:href="#path-7"></use>
                                    </g>
                                    <polygon id="路径" fill="currentColor" fill-rule="nonzero" points="34.3333333 35.3880219 44.6333333 35.3880219 44.6333333 42.2721702 34.3333333 42.2721702 34.3333333 49.1563186 27.4666667 49.1563186 27.4666667 42.2721702 17.1666667 42.2721702 17.1666667 35.3880219 27.4666667 35.3880219 27.4666667 31.9459477 17.1666667 31.9459477 17.1666667 25.0617993 26.0452667 25.0617993 18.7597333 17.76116 23.6213333 12.890625 30.9 20.1947064 38.1821 12.890625 43.0402667 17.76116 35.7547333 25.0617993 44.6333333 25.0617993 44.6333333 31.9459477 34.3333333 31.9459477"></polygon>
                                </g>
                                <path d="M126.175,82.5594854 L170.808333,82.5594854 C174.600689,82.5594854 177.675,85.6375278 177.675,89.4344854 L177.675,110.059485 C177.675,113.856443 174.600689,116.934485 170.808333,116.934485 L126.175,116.934485 C122.382645,116.934485 119.308333,113.856443 119.308333,110.059485 L119.308333,89.4344854 C119.308333,85.6375278 122.382645,82.5594854 126.175,82.5594854 Z" id="矩形" fill="#E9ECF0"></path>
                                <ellipse id="椭圆形" fill="#DBDEE3" cx="136.475" cy="99.7469854" rx="6.86666667" ry="6.875"></ellipse>
                            </g>
                            <g id="编组-20" transform="translate(181.215457, 35.341797) scale(-1, 1) translate(-181.215457, -35.341797) translate(162.868750, 8.593750)">
                                <g id="元素/纸飞机/主色备份" transform="translate(12.584741, 0.000000)">
                                    <g id="路径-14">
                                        <use fill="currentColor" xlink:href="#path-9"></use>
                                        <use fill-opacity="0.4" fill="#FFFFFF" xlink:href="#path-9"></use>
                                    </g>
                                    <g id="路径-5">
                                        <use fill="currentColor" xlink:href="#path-10"></use>
                                        <use fill-opacity="0.2" fill="#FFFFFF" xlink:href="#path-10"></use>
                                    </g>
                                    <g id="路径-12">
                                        <use fill="currentColor" xlink:href="#path-11"></use>
                                        <use fill-opacity="0.2" fill="#000000" xlink:href="#path-11"></use>
                                    </g>
                                    <g id="路径-13">
                                        <use fill="currentColor" xlink:href="#path-12"></use>
                                        <use fill-opacity="0.2" fill="#FFFFFF" xlink:href="#path-12"></use>
                                    </g>
                                </g>
                                <g id="编组-16" transform="translate(0.000000, 13.421367)" fill-rule="nonzero">
                                    <path d="M35.0280395,39.0856301 C34.4955997,39.1300524 33.9291056,39.1633894 33.3345545,39.1851363 L33.3658908,40.0439384 C33.973469,40.021715 34.5532508,39.9875961 35.0993178,39.9420368 L35.0280395,39.0856301 Z M31.6320706,39.2153512 C31.0776276,39.2154191 30.5084305,39.2064936 29.9279772,39.1884906 L29.9014006,40.0474535 C30.4906781,40.0657303 31.0687681,40.0747952 31.6321756,40.0747266 L31.6320706,39.2153512 Z M28.2254598,39.1113116 C27.663469,39.0779714 27.0958957,39.0366625 26.5250426,38.9874167 L26.4513596,39.8436194 C27.0298429,39.8935234 27.6050545,39.9353883 28.1746898,39.969182 L28.2254598,39.1113116 Z M24.8298282,38.8187144 C24.2653081,38.7550502 23.7008428,38.6838932 23.138079,38.60531 L23.019516,39.4564469 C23.5897979,39.5360799 24.1617597,39.608182 24.733754,39.672689 L24.8298282,38.8187144 Z M21.4519262,38.3465754 C20.8880487,38.2521311 20.3284443,38.1503093 19.774378,38.0411852 L19.6087079,38.8844005 C20.1708328,38.9951119 20.7384528,39.0983921 21.3103055,39.1941722 L21.4519262,38.3465754 Z M18.1059072,37.6864583 C17.5464489,37.5584845 16.9950047,37.4229661 16.4526128,37.2799781 L16.2340581,38.1110276 C16.7856353,38.2564371 17.3462037,38.3941978 17.9147309,38.5242461 L18.1059072,37.6864583 Z M14.8131215,36.8164315 C14.2619631,36.6495854 13.7227153,36.4747183 13.1962946,36.2919043 L12.915016,37.1038252 C13.4524629,37.2904684 14.0026629,37.4688871 14.564709,37.639029 L14.8131215,36.8164315 Z M11.6060295,35.6996121 C11.0702315,35.4857202 10.5509396,35.2629925 10.0490222,35.0315064 L9.68990526,35.8120493 C10.2056206,36.049899 10.7386493,36.2785185 11.2881334,36.497874 L11.6060295,35.6996121 Z M8.5363383,34.278745 C8.02809484,34.0056849 7.54230959,33.722553 7.07985994,33.4294389 L6.62074798,34.1555448 C7.10089003,34.4598727 7.60443165,34.7533537 8.13048792,35.0359839 L8.5363383,34.278745 Z M5.69509687,32.4684386 C5.23820521,32.1203119 4.81166179,31.7604327 4.41637198,31.3889022 L3.82890479,32.0154559 C4.24616633,32.4076374 4.69529896,32.7865755 5.17529128,33.1523036 L5.69509687,32.4684386 Z M3.27472026,30.1790362 C2.91370706,29.744045 2.59189393,29.2954913 2.31014777,28.8333838 L1.57752828,29.2811455 C1.88128095,29.7793471 2.22736141,30.2617254 2.61455373,30.7282603 L3.27472026,30.1790362 Z M1.56624563,27.3579253 C1.36041881,26.8485507 1.19882134,26.3245376 1.08230456,25.7856375 L0.243402204,25.967459 C0.370332364,26.5545218 0.546419325,27.1255201 0.770562595,27.6802238 L1.56624563,27.3579253 Z M0.869981262,24.1478034 C0.862237503,23.9831912 0.858347356,23.8173095 0.858333332,23.6501523 C0.858333298,23.2730131 0.910786579,22.9196252 1.01342941,22.5880823 L0.193578407,22.3336471 C0.0651856243,22.748364 0,23.1875324 0,23.6501884 C1.51527017e-05,23.8308121 0.00422087374,24.0101504 0.0125983974,24.1882347 L0.869981262,24.1478034 Z M1.78314091,21.2665974 C2.11610921,20.9015025 2.53542205,20.5754506 3.03189631,20.2917609 L2.60644413,19.5453855 C2.03548902,19.8716343 1.54565175,20.2525249 1.1492957,20.6871236 L1.78314091,21.2665974 Z M4.52682954,19.6408622 C5.03092033,19.4760286 5.57098661,19.3446594 6.13367449,19.2484126 L5.98913017,18.4013107 C5.38620902,18.5044394 4.8054766,18.6457004 4.26035348,18.8239512 L4.52682954,19.6408622 Z M7.7837196,19.0714977 C8.35088874,19.0454457 8.91214737,19.0548122 9.4457439,19.0984452 L9.5156134,18.2419221 C8.94535662,18.1952913 8.34763324,18.1853163 7.74438258,18.2130257 L7.7837196,19.0714977 Z M11.0683896,19.3641985 C11.6889242,19.5289994 12.1619206,19.7496226 12.4370368,19.9953967 L13.0084888,19.3541675 C12.6175281,19.0049041 12.0281499,18.7299962 11.2884579,18.5335496 L11.0683896,19.3641985 Z M12.7140947,21.108924 C12.5969531,21.4261257 12.2532593,21.6291678 11.6844757,21.6477575 L11.7124798,22.506675 C12.6040094,22.4775369 13.2688413,22.0847779 13.5191595,21.4069541 L12.7140947,21.108924 Z M10.1400932,21.3515521 C9.67846314,21.1844432 9.18317248,20.9483693 8.6621306,20.6433966 L8.22893908,21.385296 C8.7935337,21.7157607 9.33576599,21.9742087 9.84824544,22.159725 L10.1400932,21.3515521 Z M7.30324994,19.7321463 C6.879384,19.41337 6.44663506,19.056857 6.00672779,18.6627677 L5.43438723,19.3032021 C5.89226876,19.7133934 6.34393577,20.0854918 6.78774192,20.4192645 L7.30324994,19.7321463 Z M4.16483713,18.0834177 L4.77890374,17.4829747 L4.72005861,17.4224687 L4.41213733,17.7217772 L4.76913565,17.4832945 C4.48611442,17.058595 4.21330407,16.5989813 3.95973017,16.1167849 L3.20023642,16.5171519 C3.46760295,17.0255764 3.75559128,17.510761 4.05513902,17.96026 L4.07690216,17.9929176 L4.16483713,18.0834177 Z M3.25825513,14.5972323 C3.04931604,14.0747226 2.86997068,13.5452485 2.72394131,13.0148172 L1.89646663,13.2431769 C2.05116622,13.8051015 2.2407869,14.3649109 2.46141194,14.9166446 L3.25825513,14.5972323 Z M2.38384316,11.3870204 C2.30522378,10.8275376 2.26870704,10.2767857 2.27641056,9.73827224 L1.41816525,9.72596509 C1.40981475,10.3097059 1.44925139,10.9044963 1.5338808,11.5067485 L2.38384316,11.3870204 Z M2.44753128,8.09607507 C2.55592933,7.55682157 2.71598728,7.03706573 2.92943428,6.53877472 L2.14058903,6.2000458 C1.90350238,6.7535235 1.72598381,7.32997914 1.60607054,7.92651804 L2.44753128,8.09607507 Z M3.719932,5.1270447 C4.02639292,4.69324975 4.38286481,4.28132408 4.79089125,3.89244732 L4.19909001,3.26999563 C3.75097688,3.69707772 3.35797246,4.15121902 3.01917697,4.63078352 L3.719932,5.1270447 Z M6.08522345,2.85418853 C6.52407533,2.55616381 7.00202015,2.27687319 7.51982736,2.01706087 L7.13526522,1.24876524 C6.5843165,1.52520647 6.07387649,1.8234859 5.60341091,2.14297951 L6.08522345,2.85418853 Z M9.04631727,1.35177184 C9.54971207,1.16169901 10.0818868,0.986495959 10.6432049,0.826553474 L10.4082567,0 C9.82433116,0.166384247 9.26950549,0.349044465 8.74344106,0.547676941 L9.04631727,1.35177184 Z" id="路径" fill="currentColor"></path>
                                    <path d="M35.0280395,39.0856301 C34.4955997,39.1300524 33.9291056,39.1633894 33.3345545,39.1851363 L33.3658908,40.0439384 C33.973469,40.021715 34.5532508,39.9875961 35.0993178,39.9420368 L35.0280395,39.0856301 Z M31.6320706,39.2153512 C31.0776276,39.2154191 30.5084305,39.2064936 29.9279772,39.1884906 L29.9014006,40.0474535 C30.4906781,40.0657303 31.0687681,40.0747952 31.6321756,40.0747266 L31.6320706,39.2153512 Z M28.2254598,39.1113116 C27.663469,39.0779714 27.0958957,39.0366625 26.5250426,38.9874167 L26.4513596,39.8436194 C27.0298429,39.8935234 27.6050545,39.9353883 28.1746898,39.969182 L28.2254598,39.1113116 Z M24.8298282,38.8187144 C24.2653081,38.7550502 23.7008428,38.6838932 23.138079,38.60531 L23.019516,39.4564469 C23.5897979,39.5360799 24.1617597,39.608182 24.733754,39.672689 L24.8298282,38.8187144 Z M21.4519262,38.3465754 C20.8880487,38.2521311 20.3284443,38.1503093 19.774378,38.0411852 L19.6087079,38.8844005 C20.1708328,38.9951119 20.7384528,39.0983921 21.3103055,39.1941722 L21.4519262,38.3465754 Z M18.1059072,37.6864583 C17.5464489,37.5584845 16.9950047,37.4229661 16.4526128,37.2799781 L16.2340581,38.1110276 C16.7856353,38.2564371 17.3462037,38.3941978 17.9147309,38.5242461 L18.1059072,37.6864583 Z M14.8131215,36.8164315 C14.2619631,36.6495854 13.7227153,36.4747183 13.1962946,36.2919043 L12.915016,37.1038252 C13.4524629,37.2904684 14.0026629,37.4688871 14.564709,37.639029 L14.8131215,36.8164315 Z M11.6060295,35.6996121 C11.0702315,35.4857202 10.5509396,35.2629925 10.0490222,35.0315064 L9.68990526,35.8120493 C10.2056206,36.049899 10.7386493,36.2785185 11.2881334,36.497874 L11.6060295,35.6996121 Z M8.5363383,34.278745 C8.02809484,34.0056849 7.54230959,33.722553 7.07985994,33.4294389 L6.62074798,34.1555448 C7.10089003,34.4598727 7.60443165,34.7533537 8.13048792,35.0359839 L8.5363383,34.278745 Z M5.69509687,32.4684386 C5.23820521,32.1203119 4.81166179,31.7604327 4.41637198,31.3889022 L3.82890479,32.0154559 C4.24616633,32.4076374 4.69529896,32.7865755 5.17529128,33.1523036 L5.69509687,32.4684386 Z M3.27472026,30.1790362 C2.91370706,29.744045 2.59189393,29.2954913 2.31014777,28.8333838 L1.57752828,29.2811455 C1.88128095,29.7793471 2.22736141,30.2617254 2.61455373,30.7282603 L3.27472026,30.1790362 Z M1.56624563,27.3579253 C1.36041881,26.8485507 1.19882134,26.3245376 1.08230456,25.7856375 L0.243402204,25.967459 C0.370332364,26.5545218 0.546419325,27.1255201 0.770562595,27.6802238 L1.56624563,27.3579253 Z M0.869981262,24.1478034 C0.862237503,23.9831912 0.858347356,23.8173095 0.858333332,23.6501523 C0.858333298,23.2730131 0.910786579,22.9196252 1.01342941,22.5880823 L0.193578407,22.3336471 C0.0651856243,22.748364 0,23.1875324 0,23.6501884 C1.51527017e-05,23.8308121 0.00422087374,24.0101504 0.0125983974,24.1882347 L0.869981262,24.1478034 Z M1.78314091,21.2665974 C2.11610921,20.9015025 2.53542205,20.5754506 3.03189631,20.2917609 L2.60644413,19.5453855 C2.03548902,19.8716343 1.54565175,20.2525249 1.1492957,20.6871236 L1.78314091,21.2665974 Z M4.52682954,19.6408622 C5.03092033,19.4760286 5.57098661,19.3446594 6.13367449,19.2484126 L5.98913017,18.4013107 C5.38620902,18.5044394 4.8054766,18.6457004 4.26035348,18.8239512 L4.52682954,19.6408622 Z M7.7837196,19.0714977 C8.35088874,19.0454457 8.91214737,19.0548122 9.4457439,19.0984452 L9.5156134,18.2419221 C8.94535662,18.1952913 8.34763324,18.1853163 7.74438258,18.2130257 L7.7837196,19.0714977 Z M11.0683896,19.3641985 C11.6889242,19.5289994 12.1619206,19.7496226 12.4370368,19.9953967 L13.0084888,19.3541675 C12.6175281,19.0049041 12.0281499,18.7299962 11.2884579,18.5335496 L11.0683896,19.3641985 Z M12.7140947,21.108924 C12.5969531,21.4261257 12.2532593,21.6291678 11.6844757,21.6477575 L11.7124798,22.506675 C12.6040094,22.4775369 13.2688413,22.0847779 13.5191595,21.4069541 L12.7140947,21.108924 Z M10.1400932,21.3515521 C9.67846314,21.1844432 9.18317248,20.9483693 8.6621306,20.6433966 L8.22893908,21.385296 C8.7935337,21.7157607 9.33576599,21.9742087 9.84824544,22.159725 L10.1400932,21.3515521 Z M7.30324994,19.7321463 C6.879384,19.41337 6.44663506,19.056857 6.00672779,18.6627677 L5.43438723,19.3032021 C5.89226876,19.7133934 6.34393577,20.0854918 6.78774192,20.4192645 L7.30324994,19.7321463 Z M4.16483713,18.0834177 L4.77890374,17.4829747 L4.72005861,17.4224687 L4.41213733,17.7217772 L4.76913565,17.4832945 C4.48611442,17.058595 4.21330407,16.5989813 3.95973017,16.1167849 L3.20023642,16.5171519 C3.46760295,17.0255764 3.75559128,17.510761 4.05513902,17.96026 L4.07690216,17.9929176 L4.16483713,18.0834177 Z M3.25825513,14.5972323 C3.04931604,14.0747226 2.86997068,13.5452485 2.72394131,13.0148172 L1.89646663,13.2431769 C2.05116622,13.8051015 2.2407869,14.3649109 2.46141194,14.9166446 L3.25825513,14.5972323 Z M2.38384316,11.3870204 C2.30522378,10.8275376 2.26870704,10.2767857 2.27641056,9.73827224 L1.41816525,9.72596509 C1.40981475,10.3097059 1.44925139,10.9044963 1.5338808,11.5067485 L2.38384316,11.3870204 Z M2.44753128,8.09607507 C2.55592933,7.55682157 2.71598728,7.03706573 2.92943428,6.53877472 L2.14058903,6.2000458 C1.90350238,6.7535235 1.72598381,7.32997914 1.60607054,7.92651804 L2.44753128,8.09607507 Z M3.719932,5.1270447 C4.02639292,4.69324975 4.38286481,4.28132408 4.79089125,3.89244732 L4.19909001,3.26999563 C3.75097688,3.69707772 3.35797246,4.15121902 3.01917697,4.63078352 L3.719932,5.1270447 Z M6.08522345,2.85418853 C6.52407533,2.55616381 7.00202015,2.27687319 7.51982736,2.01706087 L7.13526522,1.24876524 C6.5843165,1.52520647 6.07387649,1.8234859 5.60341091,2.14297951 L6.08522345,2.85418853 Z M9.04631727,1.35177184 C9.54971207,1.16169901 10.0818868,0.986495959 10.6432049,0.826553474 L10.4082567,0 C9.82433116,0.166384247 9.26950549,0.349044465 8.74344106,0.547676941 L9.04631727,1.35177184 Z" id="路径" fill-opacity="0.2" fill="#FFFFFF"></path>
                                </g>
                            </g>
                        </g>
                    </g>
                </g>
            </g>
        </g>
    </g>
</svg>