<?xml version="1.0" encoding="UTF-8"?>
<svg width="164px" height="32px" viewBox="0 0 164 32" version="1.1" xmlns="http://www.w3.org/2000/svg" xmlns:xlink="http://www.w3.org/1999/xlink">
    <title>WeChat_英文</title>
    <g id="收银台" stroke="none" stroke-width="1" fill="none" fill-rule="evenodd">
        <g id="商城_收银台_平台" transform="translate(-203.000000, -294.000000)" fill-rule="nonzero">
            <g id="编组-3" transform="translate(125.000000, 210.000000)">
                <g id="编组-2" transform="translate(20.000000, 64.000000)">
                    <g id="WeChat_英文" transform="translate(58.000000, 20.000000)">
                        <path d="M154.900445,11.8550925 L157.587227,19.2646079 C157.866077,20.0937722 158.170258,21.0780984 158.37311,21.8295835 L158.423775,21.8295835 C158.65196,21.0780984 158.905285,20.1196651 159.209467,19.2124296 L161.642732,11.8550925 L164,11.8550925 L160.653997,20.7928831 C159.057471,25.0938663 157.967407,27.2959477 156.44688,28.6429718 C155.606877,29.4017149 154.767065,29.8067834 154.170791,30 C153.98809,29.6647643 153.151733,28.2025947 153.151733,28.2025947 C153.70924,28.0215399 154.444269,27.6586457 155.103297,27.0889998 C155.711662,26.5962483 156.47202,25.7154942 156.978862,24.5495248 C157.080385,24.316684 157.156382,24.1350408 157.156382,24.0055758 C157.156382,23.876307 157.105717,23.6944676 157.004195,23.410037 L152.46718,11.8550925 L154.900445,11.8550925 Z M109.530423,11.5698182 C113.281554,11.5698182 114.194292,14.1863839 114.194292,16.6995735 L114.194292,21.3891476 C114.194292,22.4768496 114.244765,23.5394432 114.396953,24.3943042 L112.3692,24.3943042 L112.19168,22.8136547 L112.115491,22.8136547 C111.431129,23.7985691 110.113263,24.6793232 108.36436,24.6793232 C105.880238,24.6793232 104.612844,22.8913336 104.612844,21.0780394 C104.612844,18.0471861 107.248769,16.3890537 111.988828,16.4147504 L111.988828,16.1554282 C111.988828,15.1195123 111.709979,13.2538437 109.200716,13.2538437 C108.168608,13.2538437 107.095239,13.5508286 106.261761,14.0294566 C106.053727,13.6642084 105.500058,12.6841978 105.500058,12.6841978 C106.513935,12.0101954 107.983988,11.5698182 109.530423,11.5698182 Z M146.270539,11.5698182 C150.021669,11.5698182 150.934407,14.1863839 150.934407,16.6995735 L150.934407,21.3891476 C150.934407,22.4768496 150.984881,23.5394432 151.137067,24.3943042 L149.109316,24.3943042 L148.931988,22.8136547 L148.855799,22.8136547 C148.171437,23.7985691 146.85357,24.6793232 145.104475,24.6793232 C142.620546,24.6793232 141.35296,22.8913336 141.35296,21.0780394 C141.35296,18.0471861 143.989077,16.3890537 148.729136,16.4147504 L148.729136,16.1554282 C148.729136,15.1195123 148.450095,13.2538437 145.940832,13.2538437 C144.908724,13.2538437 143.835355,13.5508286 143.002069,14.0294566 C142.93266,13.9077072 142.82489,13.7176509 142.712045,13.5183533 L142.576326,13.2785405 C142.397799,12.9629564 142.240366,12.6841978 142.240366,12.6841978 C143.254242,12.0101954 144.724104,11.5698182 146.270539,11.5698182 Z M86.2755935,6.64736397 C88.4048682,6.64736397 89.7484509,7.11363404 90.3310987,7.42474225 C90.3310987,7.42474225 90.1423002,7.76033305 89.9236584,8.14385572 L89.7752203,8.40348175 C89.6258498,8.6638953 89.4789148,8.91720114 89.3815134,9.07816698 C88.5846906,8.76038933 87.5495118,8.53892563 86.3515911,8.53892563 C82.3467507,8.53892563 79.6854932,11.1552951 79.6854932,15.7411011 C79.6854932,20.0156029 82.0934255,22.7620256 86.250261,22.7620256 C87.3846586,22.7620256 88.537288,22.5586086 89.4026237,22.2302383 C89.6035567,22.5884249 90.3057662,23.8244229 90.3057662,23.8244229 C89.49455,24.2389069 87.8723096,24.6535872 85.7940838,24.6535872 C80.9780274,24.6535872 77.3535585,21.5442703 77.3535585,15.818584 C77.3535585,10.3522199 80.9780274,6.64736397 86.2755935,6.64736397 Z M69.7012584,11.5698575 C73.7060986,11.5698575 74.7706399,15.1711414 74.7706399,17.4765986 C74.7706399,17.9428687 74.7199749,18.3057629 74.6946424,18.5391922 L66.0764057,18.5391922 C66.1272627,21.6220277 68.0536853,22.891373 70.28429,22.891373 C71.5996616,22.891373 72.4851482,22.6981562 73.2242051,22.4274567 C73.3905817,22.7078047 73.8389759,23.4890418 74.0012746,23.7721498 L74.0537985,23.8638071 C74.0584771,23.8719757 74.0609458,23.8762874 74.0609458,23.8762874 C73.2752539,24.2389854 71.9316711,24.6534696 69.979916,24.6534696 C66.2032603,24.6534696 63.947515,22.1147792 63.947515,18.3316559 C63.947515,14.549121 66.1272627,11.5698575 69.7012584,11.5698575 Z M120.137167,8.25373 L120.137167,11.8550138 L123.330983,11.8550138 L123.330983,13.5908254 L120.137167,13.5908254 L120.137167,20.3526237 C120.137167,21.907184 120.568204,22.7879381 121.810265,22.7879381 C121.992582,22.7879381 122.160122,22.780288 122.312885,22.7673415 C122.574654,23.2177227 123.203937,24.3426947 123.203937,24.3426947 C122.773092,24.5235534 122.088922,24.6534107 121.227233,24.6534107 C120.188024,24.6534107 119.351667,24.3168018 118.8193,23.6945854 C118.185604,23.0213674 117.957611,21.907184 117.957611,20.4301064 L117.957611,13.5908254 L116.056329,13.5908254 L116.056329,11.8550138 L117.957611,11.8550138 L117.957611,8.25373 L120.137167,8.25373 Z M134.040806,6.80315362 C136.220745,6.80315362 137.817653,7.32120952 138.83153,8.25374966 C139.7696,9.08271774 140.326916,10.3522592 140.326916,11.9068195 C140.326916,13.4874692 139.870738,14.7307251 139.009049,15.6375684 C137.842986,16.9069136 135.942088,17.5544345 133.78748,17.5544345 C133.128451,17.5544345 132.520279,17.5283453 132.013053,17.3990766 L132.013053,24.3943042 L129.807973,24.3943042 L129.807973,7.13956628 C130.872706,6.95831528 132.266762,6.80315362 134.040806,6.80315362 Z M45.3317428,6.93244203 L47.3594954,15.767053 C47.8665294,17.942849 48.3227067,20.119626 48.6270808,21.8036513 L48.6775538,21.8036513 C48.9564035,20.06784 49.48877,17.9954197 50.0718016,15.7411599 L52.3528796,6.93244203 L54.6592898,6.93244203 L56.7378995,15.7927499 C57.2194092,17.8653663 57.6757782,19.9379828 57.9291034,21.7777584 L57.9799604,21.7777584 C58.3346156,19.8604998 58.8165091,17.9169561 59.3488757,15.7411599 L61.6046209,6.93244203 L63.8603663,6.93244203 L59.0191692,24.3943238 L56.712375,24.3943238 L54.5581518,15.3007829 C54.025785,13.0728086 53.6711298,11.3628902 53.4427534,9.6007935 L53.3920884,9.6007935 C53.0880982,11.3371933 52.7077266,13.0469155 52.0742219,15.3007829 L49.6409571,24.3943238 L47.3341629,24.3943238 L43,6.93244203 L45.3317428,6.93244203 Z M94.9812475,6 L94.9812475,13.8241957 L95.0319125,13.8241957 C95.3867597,13.1762824 95.9444587,12.6066364 96.6286286,12.2178493 C97.2880417,11.8292582 98.0733496,11.569936 98.9102821,11.569936 C100.557663,11.569936 103.19378,12.6066364 103.19378,16.9327281 L103.19378,24.3942257 L100.963175,24.3942257 L100.963175,17.1922465 C100.963175,15.1712198 100.228149,13.4613014 98.1243984,13.4613014 C96.6792936,13.4613014 95.5387547,14.4974136 95.1332425,15.741062 C95.00658,16.051974 94.9812475,16.3889753 94.9812475,16.8293522 L94.9812475,24.3942257 L92.7506427,24.3942257 L92.7506427,6 L94.9812475,6 Z M106.843449,20.8189134 C106.843449,22.2957948 107.806468,22.9954941 108.947391,22.9954941 C110.544107,22.9954941 111.557984,21.9587935 111.912639,20.8969846 C111.988828,20.6635553 112.039493,20.4042332 112.039493,20.1713924 L112.039493,17.9954001 C109.606228,17.9428294 106.843449,18.3834028 106.843449,20.8189134 Z M143.583565,20.8189134 C143.583565,22.2957948 144.546776,22.9954941 145.687507,22.9954941 C147.284415,22.9954941 148.298291,21.9587935 148.652947,20.8969846 C148.729136,20.6635553 148.779801,20.4042332 148.779801,20.1713924 L148.779801,17.9954001 C146.346344,17.9428294 143.583565,18.3834028 143.583565,20.8189134 Z M69.5237388,13.202097 C67.2678016,13.202097 66.2792578,15.3264993 66.1017382,16.9069527 L72.6162247,16.9069527 C72.6415573,15.4559642 72.0331932,13.202097 69.5237388,13.202097 Z M134.091855,8.59075098 C133.128451,8.59075098 132.393233,8.6682337 132.013053,8.77180576 L132.013053,15.5598894 C132.494946,15.6891582 133.103311,15.7411404 133.838145,15.7411404 C136.499787,15.7411404 138.122027,14.4198131 138.122027,12.0101954 C138.122027,9.70473814 136.525119,8.59075098 134.091855,8.59075098 Z" id="形状结合" fill="#000000"></path>
                        <path d="M13.1214835,20.2418645 C12.9586092,20.3244093 12.7753276,20.3722137 12.5803983,20.3722137 C12.1293175,20.3722137 11.7374375,20.1228374 11.5312456,19.7535631 L11.4525038,19.5801513 L8.16835472,12.3355621 C8.13293053,12.2565977 8.11098294,12.1675693 8.11098294,12.0807667 C8.11098294,11.7470069 8.38022599,11.4763412 8.71232771,11.4763412 C8.84718989,11.4763412 8.9717521,11.5214361 9.07196019,11.596336 L12.9475392,14.3702481 C13.2306438,14.5564335 13.5689063,14.6656869 13.9327743,14.6656869 C14.1497474,14.6656869 14.3567093,14.6248499 14.5494246,14.5544981 L32.7746858,6.40007742 C29.5078638,2.529471 24.1276233,0 18.0390917,0 C8.07604006,0 0,6.76586801 0,15.1125707 C0,19.6659863 2.42982947,23.7649699 6.23292363,26.5354949 C6.53807217,26.7544854 6.73781451,27.1142763 6.73781451,27.5203232 C6.73781451,27.6545432 6.70932115,27.7772476 6.67437827,27.9052743 C6.37057739,29.0443539 5.88455374,30.8684684 5.8617398,30.9538195 C5.82390908,31.0969424 5.76470834,31.2460649 5.76470834,31.3956714 C5.76470834,31.7295279 6.03385512,32 6.36643815,32 C6.49658352,32 6.60343364,31.9513247 6.71346039,31.8875533 L10.6626793,29.5954591 C10.9598382,29.4232085 11.2742278,29.3162776 11.620865,29.3162776 C11.8052055,29.3162776 11.983289,29.3449215 12.1507838,29.3965 C13.9933227,29.929122 15.9809274,30.2251415 18.0390917,30.2251415 C28.0017584,30.2251415 36.0788573,23.4587896 36.0788573,15.1125707 C36.0788573,12.5844545 35.3336981,10.203719 34.0239659,8.10932591 L13.2530727,20.1654162 L13.1214835,20.2418645 Z" id="Fill-29" fill="#1AAD19"></path>
                    </g>
                </g>
            </g>
        </g>
    </g>
</svg>