<?xml version="1.0" encoding="UTF-8"?>
<svg width="108px" height="32px" viewBox="0 0 108 32" version="1.1" xmlns="http://www.w3.org/2000/svg" xmlns:xlink="http://www.w3.org/1999/xlink">
    <title>WeChat_中文</title>
    <g id="收银台配置" stroke="none" stroke-width="1" fill="none" fill-rule="evenodd">
        <g id="商城_收银台_平台" transform="translate(-231.000000, -294.000000)" fill-rule="nonzero">
            <g id="编组-3" transform="translate(125.000000, 210.000000)">
                <g id="编组-2" transform="translate(20.000000, 64.000000)">
                    <g id="WeChat_中文" transform="translate(86.000000, 20.000000)">
                        <path d="M103.206983,22.9550147 L104.554642,26.6103078 C104.69451,27.0193546 104.847084,27.5049465 104.948832,27.8756723 L104.974245,27.8756723 C105.0887,27.5049465 105.215765,27.0321282 105.368339,26.584567 L106.588837,22.9550147 L107.771216,22.9550147 L106.092899,27.3642429 C105.2921,29.4860219 104.745336,30.5723619 103.982657,31.2368815 C103.561321,31.6111878 103.140081,31.8110179 102.840997,31.9063363 C102.749356,31.7409564 102.329849,31.0196328 102.329849,31.0196328 C102.609488,30.9303141 102.97817,30.7512896 103.308731,30.4702695 C103.61388,30.2271833 103.995267,29.792686 104.249493,29.2174851 C104.300416,29.1026191 104.338535,29.0130101 104.338535,28.9491419 C104.338535,28.8853705 104.313122,28.7956647 104.2622,28.6553482 L101.986485,22.9550147 L103.206983,22.9550147 Z M77.4403653,22.814282 C79.32189,22.814282 79.7797091,24.1050971 79.7797091,25.3449143 L79.7797091,27.6583946 C79.7797091,28.1949843 79.8050258,28.7191874 79.8813611,29.140911 L78.8642634,29.140911 L78.7752217,28.3611384 L78.7370059,28.3611384 C78.3937379,28.8470205 77.7327111,29.2815178 76.8554812,29.2815178 C75.609474,29.2815178 74.973764,28.3994593 74.973764,27.5049174 C74.973764,26.0097242 76.2959139,25.1917274 78.6734734,25.2044042 L78.6734734,25.0764743 C78.6734734,24.5654319 78.5336056,23.6450525 77.2749882,23.6450525 C76.7572946,23.6450525 76.2189048,23.7915623 75.8008416,24.0276811 C75.6964943,23.8474953 75.4187803,23.3640324 75.4187803,23.3640324 C75.9273291,23.0315307 76.6646912,22.814282 77.4403653,22.814282 Z M98.3767317,22.814282 C100.258256,22.814282 100.716075,24.1050971 100.716075,25.3449143 L100.716075,27.6583946 C100.716075,28.1949843 100.741392,28.7191874 100.817727,29.140911 L99.8006299,29.140911 L99.7116844,28.3611384 L99.6734686,28.3611384 C99.3302006,28.8470205 98.6691737,29.2815178 97.7918476,29.2815178 C96.5459367,29.2815178 95.9101304,28.3994593 95.9101304,27.5049174 C95.9101304,26.0097242 97.2323765,25.1917274 99.6099361,25.2044042 L99.6099361,25.0764743 C99.6099361,24.5654319 99.4699721,23.6450525 98.2113547,23.6450525 C97.693661,23.6450525 97.1552712,23.7915623 96.7373043,24.0276811 C96.6328607,23.8474953 96.355243,23.3640324 96.355243,23.3640324 C96.8637918,23.0315307 97.6010576,22.814282 98.3767317,22.814282 Z M64.2712421,20.3859163 C65.339262,20.3859163 66.0131878,20.6159386 66.3054373,20.7694158 C66.3054373,20.7694158 65.9675599,21.3600999 65.8291361,21.5850902 C65.4294589,21.4283228 64.910225,21.3190694 64.3093616,21.3190694 C62.3005793,21.3190694 60.9657229,22.6097877 60.9657229,24.8720767 C60.9657229,26.9807918 62.1735143,28.3356685 64.2585356,28.3356685 C64.8275365,28.3356685 65.4056823,28.235318 65.8397248,28.073325 C65.9405105,28.2500271 66.2927308,28.8597748 66.2927308,28.8597748 C65.885834,29.0642498 65.0721367,29.2688216 64.0297223,29.2688216 C61.6140433,29.2688216 59.796051,27.7349204 59.796051,24.9103009 C59.796051,22.2136113 61.6140433,20.3859163 64.2712421,20.3859163 Z M55.9577445,22.8143014 C57.9665267,22.8143014 58.5004885,24.5909018 58.5004885,25.7282396 C58.5004885,25.9582619 58.4750755,26.1372864 58.462369,26.2524427 L54.1395597,26.2524427 C54.165069,27.77328 55.1313406,28.3994787 56.2501865,28.3994787 C56.9099619,28.3994787 57.3541119,28.3041602 57.7248144,28.1706176 C57.8275253,28.340836 58.144514,28.8853608 58.144514,28.8853608 C57.7504199,29.0642885 57.0764941,29.2687636 56.097516,29.2687636 C54.2031885,29.2687636 53.0717324,28.0163662 53.0717324,26.15006 C53.0717324,24.2840441 54.165069,22.8143014 55.9577445,22.8143014 Z M83.2621759,21.1783755 L83.2621759,22.9549759 L84.8641576,22.9549759 L84.8641576,23.8112937 L83.2621759,23.8112937 L83.2621759,27.1470523 C83.2621759,27.9139545 83.4783789,28.3484518 84.1013825,28.3484518 C84.1928308,28.3484518 84.2768669,28.3446778 84.353491,28.338291 C84.4847915,28.5604749 84.8004325,29.1154508 84.8004325,29.1154508 C84.5843258,29.2046728 84.241154,29.2687345 83.8089404,29.2687345 C83.2876851,29.2687345 82.8681781,29.1026772 82.601149,28.7957228 C82.283294,28.4636081 82.1689355,27.9139545 82.1689355,27.1852764 L82.1689355,23.8112937 L81.2152741,23.8112937 L81.2152741,22.9549759 L82.1689355,22.9549759 L82.1689355,21.1783755 L83.2621759,21.1783755 Z M91.7408484,20.4627711 C92.8342812,20.4627711 93.6352721,20.7183406 94.1438209,21.1783852 C94.6143465,21.5873352 94.8938895,22.2136307 94.8938895,22.9805329 C94.8938895,23.7603056 94.6650762,24.3736338 94.2328627,24.8210015 C93.6479786,25.4472002 92.6945097,25.7666379 91.6137833,25.7666379 C91.2832218,25.7666379 90.9781695,25.7537675 90.7237507,25.6899961 L90.7237507,29.140911 L89.6177076,29.140911 L89.6177076,20.6287316 C90.1517657,20.5393161 90.8510083,20.4627711 91.7408484,20.4627711 Z M43.2326846,20.5265522 L44.2497822,24.8848794 C44.5041047,25.9582522 44.732918,27.0321089 44.8855886,27.8628793 L44.9109053,27.8628793 C45.0507731,27.0065616 45.3178021,25.9841866 45.6102441,24.8721057 L46.7544068,20.5265522 L47.9112759,20.5265522 L48.9538828,24.8975563 C49.1954026,25.9200281 49.4243121,26.9424999 49.5513771,27.8501057 L49.5768864,27.8501057 C49.7547774,26.9042757 49.9964897,25.9454786 50.2635187,24.8721057 L51.3949748,20.5265522 L52.526431,20.5265522 L50.0981417,29.1409207 L48.94108,29.1409207 L47.8605462,24.6548571 C47.5935171,23.5557435 47.4156261,22.7121994 47.3010751,21.8429145 L47.2756621,21.8429145 C47.1231841,22.6995225 46.932394,23.5429698 46.6146353,24.6548571 L45.3941374,29.1409207 L44.2370757,29.1409207 L42.063109,20.5265522 L43.2326846,20.5265522 Z M69.1394875,20.066556 L69.1394875,23.9264209 L69.1649005,23.9264209 C69.3428878,23.6067896 69.6226233,23.3257695 69.9657951,23.1339714 C70.2965492,22.94227 70.6904507,22.8143401 71.1102465,22.8143401 C71.9365541,22.8143401 73.2588003,23.3257695 73.2588003,25.4599351 L73.2588003,29.1408723 L72.1399544,29.1408723 L72.1399544,25.5879618 C72.1399544,24.5909405 71.7712734,23.7473964 70.7160562,23.7473964 C69.9912081,23.7473964 69.4191268,24.2585356 69.2157265,24.8720574 C69.152194,25.0254378 69.1394875,25.1916887 69.1394875,25.4089373 L69.1394875,29.1408723 L68.0206416,29.1408723 L68.0206416,20.066556 L69.1394875,20.066556 Z M76.0926099,27.3770843 C76.0926099,28.1056656 76.5756494,28.4508442 77.1479232,28.4508442 C77.9488178,28.4508442 78.4573666,27.9394147 78.6352577,27.4155987 C78.6734734,27.3004424 78.6988864,27.1725125 78.6988864,27.0576465 L78.6988864,25.9841769 C77.4783885,25.9582425 76.0926099,26.175588 76.0926099,27.3770843 Z M97.0289763,27.3770843 C97.0289763,28.1056656 97.5121121,28.4508442 98.0842897,28.4508442 C98.8852805,28.4508442 99.3938293,27.9394147 99.5717203,27.4155987 C99.6099361,27.3004424 99.6353491,27.1725125 99.6353491,27.0576465 L99.6353491,25.9841769 C98.4147549,25.9582425 97.0289763,26.175588 97.0289763,27.3770843 Z M55.8687027,23.6195246 C54.7371503,23.6195246 54.241308,24.6675436 54.1522662,25.4472195 L57.4198584,25.4472195 C57.4325649,24.7314118 57.1274164,23.6195246 55.8687027,23.6195246 Z M91.7664539,21.3446361 C91.2832218,21.3446361 90.9144445,21.3828602 90.7237507,21.4339548 L90.7237507,24.7826806 C90.965463,24.846452 91.2706116,24.8720961 91.6391963,24.8720961 C92.9742453,24.8720961 93.7879426,24.2202534 93.7879426,23.0315307 C93.7879426,21.8941929 92.9869518,21.3446361 91.7664539,21.3446361 Z M84.2376501,1.92409724 L84.2376501,4.18745075 L90.896049,4.18745075 L90.896049,5.363303 L84.2376501,5.363303 L84.2376501,7.82068035 L89.6120186,7.82068035 C89.6120186,7.82068035 88.9222096,11.3513338 84.8942489,14.3240114 C86.5236651,15.1868127 88.6703898,15.7979152 91.2877365,16.2097683 C91.2877365,16.2097683 90.8633201,16.9665097 90.5016661,17.5517747 C87.6390455,17.0515705 85.4015463,16.1744473 83.6489155,15.1468467 C81.8831932,16.2003816 79.5984297,17.117858 76.6450346,17.6346098 C76.4391315,17.3295908 75.8792754,16.3307308 75.8792754,16.3307308 C78.5562078,15.9096846 80.7611707,15.2285205 82.4075289,14.3399784 C78.3593533,11.4213952 77.5803101,7.82068035 77.5803101,7.82068035 L77.5803101,7.82068035 L82.9392767,7.82068035 L82.9392767,5.363303 L76.0235712,5.363303 L76.0235712,4.18745075 L82.9392767,4.18745075 L82.9392767,1.92409724 L84.2376501,1.92409724 Z M44.7939188,6.24880655 L45.8320015,6.80300834 C45.339432,7.98166692 44.8794952,8.7835999 44.7537779,9.03539544 L44.7537779,17.5854119 L43.584106,17.5854119 L43.584106,10.8818638 C42.9148969,11.7848246 42.521958,12.2575461 42.3261624,12.4805042 C42.1885086,12.2406113 41.6672533,11.3330055 41.6672533,11.3330055 C42.9231754,9.99970848 44.0301811,8.16843302 44.7939188,6.24880655 Z M96.2507705,1.97118552 L97.6145053,2.27581748 L97.5722466,2.38729652 C97.0198988,3.83855619 96.502879,5.07401877 96.035145,6.05962121 L96.035145,17.5854119 L94.7367717,17.5854119 L94.7367717,8.5413846 C94.2903115,9.27499796 93.7709814,10.0248687 93.18783,10.7785134 L92.4684688,9.51760035 C93.9979657,7.42562651 95.2850764,4.88289802 96.2216033,2.05914945 L96.2507705,1.97118552 Z M62.1038692,1.96808888 L63.3333194,2.27697872 C63.3333194,2.27697872 62.5504257,4.75670994 61.9517763,6.06107276 L61.9547604,17.5854119 L60.656387,17.5854119 L60.656387,8.5878342 C60.1361906,9.5732431 59.7877244,10.2205376 59.3463661,10.8002867 L58.6436581,9.57663005 C60.4649232,7.26508508 62.1038692,1.96808888 62.1038692,1.96808888 Z M53.8361054,1.90625285 L55.0057773,2.14169426 L54.9784391,2.24717356 C54.7374006,3.17635909 54.4706603,4.08928726 54.1846678,4.96341066 L54.1846678,4.96341066 L57.6834798,4.96341066 L57.6834798,6.07471733 L56.840519,6.07471733 C56.6226795,9.23087084 56.0671551,11.6754746 55.1888664,13.3429184 C55.8854137,14.7060206 57.2290299,15.9844491 57.6078183,16.3297244 C57.5229158,16.4917174 56.9382243,17.4988995 56.9382243,17.4988995 C56.9382243,17.4988995 54.9937446,15.4966315 54.5533489,14.5281573 C54.0588542,15.363476 53.1459114,16.4465258 51.9083752,17.5568648 L51.9083752,17.5568648 L51.2786333,16.4519449 C51.2786333,16.4519449 52.9713895,15.0397803 53.9300565,13.3360477 C53.3334285,11.8041786 52.9375055,10.1600564 52.7518173,8.4426792 C52.5470694,8.80576023 52.4349249,9.00065501 52.2290218,9.31118994 C52.2290218,9.31118994 51.6828348,8.35694098 51.5719417,8.1784971 C52.5536152,6.44224978 53.2902072,4.39662878 53.8144466,2.00495825 L53.8144466,2.00495825 L53.8361054,1.90625285 Z M105.746521,2.03954385 L105.746521,5.73940928 L108,5.73945766 L108,6.98004905 L105.746521,6.98000067 L105.746521,15.0361418 C105.746521,16.318441 104.708728,17.3619119 103.432976,17.3619119 L101.920132,17.3619119 L101.920132,16.0032611 L103.432976,16.0032611 C103.963568,16.0032611 104.395397,15.5693445 104.395397,15.0361418 L104.395397,6.98000067 L97.1811848,6.98004905 L97.1811848,5.73945766 L104.395397,5.73940928 L104.395397,2.03954385 L105.746521,2.03954385 Z M73.4049154,11.8828043 L73.4049154,17.2949568 L64.2586415,17.2949568 L64.2586415,11.8828043 L73.4049154,11.8828043 Z M50.9291853,11.2361484 L50.9291853,14.2246963 C51.1474098,14.0386076 51.8175815,13.4462784 52.0426406,13.2449001 L52.5811267,14.1826014 L50.1126964,16.2772848 C50.1126964,16.2772848 49.5905747,15.3709369 49.4851685,15.1993637 C49.6304269,15.0373708 49.8240085,14.7015789 49.8240085,14.0621227 L49.8237198,12.3473583 L47.584199,12.3473583 C47.584199,14.9037314 47.482162,15.8294332 45.7858441,17.1623432 C45.7858441,17.1623432 45.3765408,16.4368585 45.1949918,16.1334845 C46.6516189,14.9763089 46.4787335,13.3953774 46.4787335,11.2361484 L50.9291853,11.2361484 Z M72.1708447,13.0586565 L65.5570148,13.0586565 L65.5570148,16.1836501 L72.1708447,16.1836501 L72.1708447,13.0586565 Z M87.7943151,8.97940432 L79.4336302,8.97940432 C79.9121455,9.98019965 81.0981818,11.9127933 83.6537286,13.5926237 C86.1974353,11.8857945 87.3473736,9.94110457 87.7943151,8.97940432 L87.7943151,8.97940432 Z M99.8127781,8.89910458 L102.167909,12.6622963 L100.937977,13.3370735 L98.728875,9.54388308 L99.8127781,8.89910458 Z M55.7350534,6.07471733 L53.8104999,6.07471733 C53.7911513,6.15290748 53.6091211,6.61188759 53.5689801,6.70091599 C53.8084784,9.01555759 54.163394,10.7894484 54.6249673,11.9798162 C55.1967598,10.6001663 55.5700614,8.61599427 55.7350534,6.07471733 L55.7350534,6.07471733 Z M73.5336169,9.2961422 L73.5336169,10.4073521 L64.1300363,10.4073521 L64.1300363,9.2961422 L73.5336169,9.2961422 Z M51.5081493,8.71407066 L51.5081493,9.82528056 L46.2215712,9.82528056 L46.2215712,8.71407066 L51.5081493,8.71407066 Z M73.5336169,6.70948013 L73.5336169,7.82069003 L64.1300363,7.82069003 L64.1300363,6.70948013 L73.5336169,6.70948013 Z M49.5139796,2.1827828 L49.5139796,6.25679976 L50.7084869,6.25679976 L50.7084869,3.34673235 L51.7495536,3.34673235 L51.7495536,7.30336729 L46.1098888,7.30336729 L46.1098888,3.41147148 L47.2152581,3.41147148 L47.2152581,6.25679976 L48.408514,6.25679976 L48.408514,2.1827828 L49.5139796,2.1827828 Z M44.8547464,1.91257193 L45.8751169,2.58444604 C45.1018493,4.22634261 43.8979084,5.92291423 42.4883532,7.21798712 L41.8722804,6.14529169 C42.9905487,5.06069354 44.04875,3.53317911 44.8547464,1.91257193 Z M68.8252616,1.96810824 L69.7428442,4.05812732 L74.434142,4.0581757 L74.434142,5.23402796 L63.2938138,5.23402796 L63.2938138,4.0581757 L68.4410054,4.05812732 L67.7731248,2.42795927 L68.8252616,1.96810824 Z" id="形状结合" fill="#4D4D4D"></path>
                        <path d="M13.1214835,20.2418645 C12.9586092,20.3244093 12.7753276,20.3722137 12.5803983,20.3722137 C12.1293175,20.3722137 11.7374375,20.1228374 11.5312456,19.7535631 L11.4525038,19.5801513 L8.16835472,12.3355621 C8.13293053,12.2565977 8.11098294,12.1675693 8.11098294,12.0807667 C8.11098294,11.7470069 8.38022599,11.4763412 8.71232771,11.4763412 C8.84718989,11.4763412 8.9717521,11.5214361 9.07196019,11.596336 L12.9475392,14.3702481 C13.2306438,14.5564335 13.5689063,14.6656869 13.9327743,14.6656869 C14.1497474,14.6656869 14.3567093,14.6248499 14.5494246,14.5544981 L32.7746858,6.40007742 C29.5078638,2.529471 24.1276233,0 18.0390917,0 C8.07604006,0 0,6.76586801 0,15.1125707 C0,19.6659863 2.42982947,23.7649699 6.23292363,26.5354949 C6.53807217,26.7544854 6.73781451,27.1142763 6.73781451,27.5203232 C6.73781451,27.6545432 6.70932115,27.7772476 6.67437827,27.9052743 C6.37057739,29.0443539 5.88455374,30.8684684 5.8617398,30.9538195 C5.82390908,31.0969424 5.76470834,31.2460649 5.76470834,31.3956714 C5.76470834,31.7295279 6.03385512,32 6.36643815,32 C6.49658352,32 6.60343364,31.9513247 6.71346039,31.8875533 L10.6626793,29.5954591 C10.9598382,29.4232085 11.2742278,29.3162776 11.620865,29.3162776 C11.8052055,29.3162776 11.983289,29.3449215 12.1507838,29.3965 C13.9933227,29.929122 15.9809274,30.2251415 18.0390917,30.2251415 C28.0017584,30.2251415 36.0788573,23.4587896 36.0788573,15.1125707 C36.0788573,12.5844545 35.3336981,10.203719 34.0239659,8.10932591 L13.2530727,20.1654162 L13.1214835,20.2418645 Z" id="Fill-29" fill="#1AAD19"></path>
                    </g>
                </g>
            </g>
        </g>
    </g>
</svg>