<?xml version="1.0" encoding="UTF-8"?>
<svg width="40px" height="40px" viewBox="0 0 40 40" version="1.1" xmlns="http://www.w3.org/2000/svg" xmlns:xlink="http://www.w3.org/1999/xlink">
    <title>编组 9</title>
    <g id="供应商注册601" stroke="none" stroke-width="1" fill="none" fill-rule="evenodd">
        <g id="编组-9">
            <circle id="椭圆形" cx="20" cy="20" r="20"></circle>
            <g id="审核" transform="translate(5.000000, 4.000000)" fill="#000000" fill-rule="nonzero">
                <path d="M25.6250419,19.8188932 L21.3321409,19.8188932 C21.085299,19.6471772 20.8527669,19.4504192 20.6416993,19.2321968 C19.765232,18.3306875 19.7115707,17.5579653 19.7294578,17.2681945 L19.7330352,17.0678591 L19.7330352,17.0607043 C19.7330352,16.9748463 19.8725545,16.5634433 20.2231414,15.9660145 C20.3555059,15.7406372 20.4950252,15.5188373 20.6416993,15.3006149 C20.9600894,14.8176635 21.3070989,14.3454444 21.6648407,13.8946898 C22.9169368,12.4029067 23.603801,10.5032979 23.603801,8.55002795 C23.603801,3.97808832 19.9190609,0.221799888 15.2147568,0 L14.5743991,0 C9.84863052,0.221799888 6.14242594,3.97808832 6.14242594,8.55002795 C6.14600335,10.5140302 6.84002236,12.4207937 8.09569592,13.9233091 L8.16008944,14.0055897 C8.50352152,14.4420347 8.82906652,14.8927893 9.14030184,15.3542761 C9.76634992,16.3058692 10.0203466,16.9426495 10.0131917,17.0571269 L10.0131917,17.2610397 C10.0310788,17.5472331 9.98099497,18.3056456 9.14745668,19.1928452 L9.09737283,19.242929 C8.90061487,19.4468418 8.67166015,19.6435998 8.41050866,19.8224707 L4.13191727,19.8224707 C1.27356065,19.8188932 0,20.9386249 0,23.4499721 L0,29.0378983 C0,29.8285075 0.307657909,30.5726104 0.869312465,31.134265 C1.43096702,31.6887647 2.17149245,32 2.95852432,32 L26.79128,31.9499162 C28.4225824,31.9427613 29.7426571,30.6226942 29.7426571,28.9913918 L29.7426571,23.4499721 C29.7462269,20.9386249 28.4762437,19.8153158 25.6250419,19.8188932 Z M2.18937954,29.0378983 L2.18937954,23.4535495 C2.18937954,22.7774176 2.27523756,22.4590274 2.5077697,22.2765791 C2.75818893,22.0833985 3.21609838,22.0046954 4.13191727,22.0046954 L9.06875349,22.0046954 L9.33348239,21.8329793 C9.82001118,21.5288988 10.2707658,21.1675797 10.675014,20.7597541 C12.0988262,19.2930129 12.2455003,17.8656233 12.2061487,17.1358301 C12.234768,16.3881498 11.8627166,15.490218 10.9719396,14.1343767 C10.5951053,13.5679345 10.1928306,13.0188355 9.76634992,12.4887647 C8.84695361,11.3797652 8.34253773,9.98457239 8.33896031,8.54287311 C8.33896031,5.14432644 11.1043041,2.35036333 14.6316378,2.18222471 L15.1610956,2.18222471 C18.6669648,2.35036333 21.410844,5.14074902 21.410844,8.5392957 C21.410844,9.98457239 20.8992733,11.3833426 19.9727222,12.4923421 C19.5648966,13.0039128 19.1749581,13.536948 18.8136389,14.0807155 C18.6455003,14.3347121 18.4845165,14.5958636 18.3306875,14.8605925 C17.7583007,15.8479598 17.5221912,16.5276691 17.5436557,17.1358301 C17.5043041,17.8620458 17.6509782,19.2894354 19.071213,20.7561766 C19.4754612,21.1675797 19.9262158,21.5288988 20.4127446,21.8365567 L20.6846283,22.0082728 L25.6393516,22.0082728 C27.3922862,22.0082728 27.5568474,22.2622694 27.5568474,23.4499721 L27.5568474,28.9878144 C27.5568474,29.1917272 27.4781442,29.3849078 27.3314701,29.5315819 C27.1883734,29.6746786 26.9916154,29.7569592 26.7877026,29.7569592 L2.9549469,29.807043 C2.7510341,29.807043 2.55427613,29.7283399 2.41117943,29.5816657 C2.27166015,29.4421465 2.19295696,29.2453885 2.18937954,29.0378983 L2.18937954,29.0378983 Z" id="形状"></path>
                <polygon id="路径" points="9.13314701 25.1528228 20.6416993 25.1528228 20.6416993 27.3457798 9.13314701 27.3457798"></polygon>
            </g>
        </g>
    </g>
</svg>