<?xml version="1.0" encoding="UTF-8"?>
<svg width="40px" height="40px" viewBox="0 0 40 40" version="1.1" xmlns="http://www.w3.org/2000/svg" xmlns:xlink="http://www.w3.org/1999/xlink">
    <title>编组 8</title>
    <g id="供应商注册601" stroke="none" stroke-width="1" fill="none" fill-rule="evenodd">
        <g id="编组-8">
            <circle id="椭圆形" cx="20" cy="20" r="20"></circle>
            <g id="支付" transform="translate(4.000000, 7.000000)" fill="#000000" fill-rule="nonzero">
                <path d="M29.5384616,0 L2.46153844,0 C1.10206831,0 0,1.16405965 0,2.59999998 L0,23.4 C0,24.8359404 1.10206831,26 2.46153844,26 L29.5384616,26 C30.8979317,26 32,24.8359404 32,23.4 L32,2.59999998 C32,1.16405965 30.8979317,0 29.5384616,0 L29.5384616,0 Z M2.46153844,2.59999998 L29.5384616,2.59999998 L29.5384616,23.4 L2.46153844,23.4 L2.46153844,2.59999998 Z" id="形状"></path>
                <path d="M30.1538462,7.38460282 C30.8177411,7.38164433 31.3643467,7.9057591 31.3892566,8.56919321 C31.4141665,9.23262733 30.9084023,9.79625536 30.2461538,9.84307692 L30.1538462,9.8461664 L1.84615385,9.8461664 C1.1822589,9.84912489 0.635653293,9.32501012 0.610743377,8.66157601 C0.58583346,7.99814189 1.09159766,7.43451386 1.75384616,7.3876923 L1.84615385,7.38460282 L30.1538462,7.38460282 Z" id="路径"></path>
                <path d="M27.0769231,18.6923077 L16,18.6923077 C16,18.3645448 16,17.7727048 16,17.4615385 L16,16.2307692 L27.0769231,16.2307692 C27.0769231,17.4887525 27.0769231,18.3092653 27.0769231,18.6923077 Z" id="路径"></path>
            </g>
        </g>
    </g>
</svg>