<?xml version="1.0" encoding="UTF-8"?>
<svg width="40px" height="40px" viewBox="0 0 40 40" version="1.1" xmlns="http://www.w3.org/2000/svg" xmlns:xlink="http://www.w3.org/1999/xlink">
    <title>编组 5</title>
    <g id="供应商注册601" stroke="none" stroke-width="1" fill="none" fill-rule="evenodd">
        <g id="编组-5">
            <circle id="椭圆形" cx="20" cy="20" r="20"></circle>
            <g id="编组-37" transform="translate(5.000000, 6.000000)" fill="#000000" fill-rule="nonzero">
                <path d="M26.577,8.874 L29.2056857,10.8599122 C29.7059524,11.2379011 30,11.8286214 30,12.4556321 L30,26 C30,27.1045695 29.1045695,28 28,28 L2,28 C0.8954305,28 0,27.1045695 0,26 L0,12.4556321 C0,11.8286214 0.294047577,11.2379011 0.794314345,10.8599122 L3.422,8.874 L3.422,11.381 L2,12.4556321 L2,26 L28,26 L28,12.4556321 L26.577,11.38 L26.577,8.874 Z" id="形状结合"></path>
                <path d="M24.5779468,0 C25.6825163,0 26.5779468,0.8954305 26.5779468,2 L26.577,14.062 L24.577,15.583 L24.5779468,2 L5.42205323,2 L5.422,15.582 L3.422,14.061 L3.42205323,2 C3.42205323,0.8954305 4.31748373,0 5.42205323,0 L24.5779468,0 Z" id="形状结合"></path>
                <path d="M1,12.4767801 C1.21864878,12.4767801 1.43127183,12.5484957 1.60531346,12.6808467 L10.909,19.7557801 L10.8402662,19.7564908 L9.223,20.9857801 L2,15.493 L2,26 L2.629,25.9997801 L2.36173622,26.2040114 C2.1441417,26.3694817 2.00515431,26.6156144 1.97380737,26.8838563 L1.96704785,27 C1.96704785,27.5522847 2.4147631,28 2.96704785,28 L2.96704785,28 L2,28 C0.8954305,28 0,27.1045695 0,26 L0,13.4768339 C0,12.9245492 0.44771525,12.4767801 1,12.4767801 Z M29.7959872,12.8715205 C29.9283382,13.0455621 30,13.2581852 30,13.4768339 L30,26 C30,27.1045695 29.1045695,28 28,28 L27.0329521,28 C27.345368,28 27.6398318,27.8539911 27.8289407,27.6053116 C28.1632451,27.1656993 28.0778761,26.5383158 27.6382638,26.2040114 L27.6382638,26.2040114 L27.37,25.9997801 L28,26 L28,15.492 L20.776,20.9857801 L19.1597338,19.7564908 L19.091,19.7557801 L28.3946865,12.6808467 C28.8342981,12.3465413 29.4616818,12.4319089 29.7959872,12.8715205 Z" id="形状结合"></path>
                <path d="M19.1597338,19.7564908 L27.6382638,26.2040114 C28.0778761,26.5383158 28.1632451,27.1656993 27.8289407,27.6053116 C27.6398318,27.8539911 27.345368,28 27.0329521,28 L2.96704785,28 C2.4147631,28 1.96704785,27.5522847 1.96704785,27 C1.96704785,26.6875842 2.11305677,26.3931204 2.36173622,26.2040114 L10.8402662,19.7564908 L19.1597338,19.7564908 Z M18.486,21.756 L11.513,21.756 L5.934,25.999 L24.065,25.999 L18.486,21.756 Z" id="路径"></path>
                <polygon id="路径-6" points="15.5908727 5.892541 15.5908727 7.892541 8.41444867 7.892541 8.41444867 5.892541"></polygon>
                <polygon id="路径-6备份" points="21.4122083 10.3190773 21.4166891 12.3190723 8.41668906 12.3481975 8.41220827 10.3482025"></polygon>
            </g>
        </g>
    </g>
</svg>