<?xml version="1.0" encoding="UTF-8"?>
<svg width="240px" height="160px" viewBox="0 0 240 160" version="1.1" xmlns="http://www.w3.org/2000/svg" xmlns:xlink="http://www.w3.org/1999/xlink">
    <title>编组 57</title>
    <defs>
        <rect id="path-1" x="0" y="12" width="108" height="26" rx="1"></rect>
        <mask id="mask-2" maskContentUnits="userSpaceOnUse" maskUnits="objectBoundingBox" x="0" y="0" width="108" height="26" fill="white">
            <use xlink:href="#path-1"></use>
        </mask>
        <rect id="path-3" x="0" y="0" width="120" height="64" rx="2"></rect>
        <filter x="-5.8%" y="-7.8%" width="111.7%" height="121.9%" filterUnits="objectBoundingBox" id="filter-4">
            <feOffset dx="0" dy="2" in="SourceAlpha" result="shadowOffsetOuter1"></feOffset>
            <feGaussianBlur stdDeviation="2" in="shadowOffsetOuter1" result="shadowBlurOuter1"></feGaussianBlur>
            <feColorMatrix values="0 0 0 0 0.317647059   0 0 0 0 0.345098039   0 0 0 0 0.454901961  0 0 0 0.15 0" type="matrix" in="shadowBlurOuter1"></feColorMatrix>
        </filter>
    </defs>
    <g id="供应商注册727" stroke="none" stroke-width="1" fill="none" fill-rule="evenodd">
        <g id="3-1-9、实名认证，认证失败" transform="translate(-704.000000, -311.000000)">
            <g id="编组-57" transform="translate(704.000000, 311.000000)">
                <rect id="矩形" x="0" y="0" width="240" height="160"></rect>
                <g id="编组-2" transform="translate(30.000000, 32.000000)">
                    <g id="bg/白色底">
                        <rect id="矩形" fill="#F6F7F8" x="0" y="0" width="180" height="128" rx="2"></rect>
                        <path d="M2,0 L178,0 C179.104569,-2.02906125e-16 180,0.8954305 180,2 L180,12 L180,12 L0,12 L0,2 C-1.3527075e-16,0.8954305 0.8954305,2.02906125e-16 2,0 Z" id="矩形备份" fill="#DCDEE3"></path>
                        <g id="编组-3" transform="translate(8.000000, 4.000000)" fill="#FFFFFF">
                            <circle id="椭圆形" cx="2" cy="2" r="2"></circle>
                            <circle id="椭圆形备份" cx="10" cy="2" r="2"></circle>
                            <circle id="椭圆形备份-2" cx="18" cy="2" r="2"></circle>
                        </g>
                    </g>
                    <g id="mg/外框/灰色导航" transform="translate(8.000000, 20.000000)">
                        <rect id="矩形" fill="#FFFFFF" opacity="0.903227307" x="0" y="0" width="164" height="100" rx="2"></rect>
                        <g id="编组-5">
                            <path d="M2,0 L40,0 L40,0 L40,100 L2,100 C0.8954305,100 1.3527075e-16,99.1045695 0,98 L0,2 C-1.3527075e-16,0.8954305 0.8954305,2.02906125e-16 2,0 Z" id="矩形" fill="#EEEEF1"></path>
                            <rect id="矩形" fill="#FFFFFF" x="6" y="6" width="6" height="6" rx="1"></rect>
                            <rect id="矩形" fill="#FFFFFF" x="16" y="7" width="18" height="4" rx="1"></rect>
                            <rect id="矩形备份-3" fill="#FFFFFF" x="6" y="20" width="24" height="4" rx="1"></rect>
                            <rect id="矩形备份-4" fill="#FFFFFF" x="6" y="32" width="28" height="4" rx="1"></rect>
                            <rect id="矩形备份-5" fill="#FFFFFF" x="6" y="44" width="16" height="4" rx="1"></rect>
                            <rect id="矩形备份-6" fill="#FFFFFF" x="6" y="56" width="28" height="4" rx="1"></rect>
                        </g>
                    </g>
                    <g id="mg/卡片/有导航/二分之一/1" transform="translate(56.000000, 28.000000)">
                        <rect id="矩形" fill="#FFFFFF" x="0" y="0" width="20" height="8" rx="1"></rect>
                        <rect id="矩形" fill="#D0F3F3" x="0" y="0" width="20" height="8" rx="1"></rect>
                        <rect id="矩形" fill="#FFFFFF" x="6" y="3" width="8" height="2" rx="1"></rect>
                        <use id="矩形" stroke="#EEEEF1" mask="url(#mask-2)" stroke-width="2" fill="#F6F7F8" stroke-dasharray="2" xlink:href="#path-1"></use>
                        <rect id="矩形" fill="#EEEEF1" x="4" y="17" width="32" height="6" rx="1"></rect>
                        <path d="M101.6696,18.2713595 L103.80875,21.6940002 C103.867292,21.7876675 103.838818,21.9110576 103.74515,21.9695997 C103.713364,21.9894661 103.676634,22 103.63915,22 L99.3608495,22 C99.2503926,22 99.1608495,21.9104569 99.1608495,21.8 C99.1608495,21.7625161 99.1713834,21.7257865 99.1912499,21.6940002 L101.3304,18.2713595 C101.388942,18.1776922 101.512332,18.1492175 101.606,18.2077596 C101.631754,18.2238557 101.653504,18.2456056 101.6696,18.2713595 Z" id="三角形" fill="#EEEEF1" transform="translate(101.500000, 20.000000) rotate(-180.000000) translate(-101.500000, -20.000000) "></path>
                    </g>
                    <g id="mg/卡片/有导航/二分之一/1备份" transform="translate(56.000000, 74.000000)">
                        <rect id="矩形" fill="#FFFFFF" opacity="0.896228609" x="0" y="0" width="108" height="38" rx="2"></rect>
                        <rect id="矩形" fill="#D0F3F3" x="4" y="4" width="6" height="6" rx="1"></rect>
                        <rect id="矩形备份-4" fill="#D0F3F3" x="4" y="16" width="6" height="6" rx="1"></rect>
                        <rect id="矩形备份-5" fill="#D0F3F3" x="4" y="28" width="6" height="6" rx="1"></rect>
                        <rect id="矩形" fill="#EEEEF1" x="14" y="4" width="42" height="6" rx="1"></rect>
                        <rect id="矩形备份-6" fill="#EEEEF1" x="14" y="16" width="64" height="6" rx="1"></rect>
                        <rect id="矩形备份-7" fill="#EEEEF1" x="14" y="28" width="56" height="6" rx="1"></rect>
                        <g id="通用元素/头像/灰色" transform="translate(98.000000, 4.000000)">
                            <circle id="椭圆形" fill="#F6F7F8" fill-rule="nonzero" cx="3" cy="3" r="3"></circle>
                            <path d="M1,5.2706 C1.1838,4.35573333 1.9918,3.66666667 2.9608,3.66666667 C3.92976667,3.66666667 4.7378,4.35573333 4.92156667,5.2706 C4.39573333,5.7251 3.71036667,6 2.9608,6 C2.2112,6 1.52583333,5.7251 1,5.2706 Z" id="路径" fill="#DCDEE3"></path>
                            <circle id="椭圆形" fill="#FFFFFF" fill-rule="nonzero" cx="3" cy="2.66666667" r="1.33333333"></circle>
                        </g>
                        <g id="通用元素/头像/灰色备份" transform="translate(98.000000, 16.000000)">
                            <circle id="椭圆形" fill="#F6F7F8" fill-rule="nonzero" cx="3" cy="3" r="3"></circle>
                            <path d="M1,5.2706 C1.1838,4.35573333 1.9918,3.66666667 2.9608,3.66666667 C3.92976667,3.66666667 4.7378,4.35573333 4.92156667,5.2706 C4.39573333,5.7251 3.71036667,6 2.9608,6 C2.2112,6 1.52583333,5.7251 1,5.2706 Z" id="路径" fill="#DCDEE3"></path>
                            <circle id="椭圆形" fill="#FFFFFF" fill-rule="nonzero" cx="3" cy="2.66666667" r="1.33333333"></circle>
                        </g>
                        <g id="通用元素/头像/灰色备份-2" transform="translate(98.000000, 28.000000)">
                            <circle id="椭圆形" fill="#F6F7F8" fill-rule="nonzero" cx="3" cy="3" r="3"></circle>
                            <path d="M1,5.2706 C1.1838,4.35573333 1.9918,3.66666667 2.9608,3.66666667 C3.92976667,3.66666667 4.7378,4.35573333 4.92156667,5.2706 C4.39573333,5.7251 3.71036667,6 2.9608,6 C2.2112,6 1.52583333,5.7251 1,5.2706 Z" id="路径" fill="#DCDEE3"></path>
                            <circle id="椭圆形" fill="#FFFFFF" fill-rule="nonzero" cx="3" cy="2.66666667" r="1.33333333"></circle>
                        </g>
                        <circle id="椭圆形" fill="#FCDDD7" cx="92" cy="31" r="2"></circle>
                        <circle id="椭圆形备份" fill="#FFE4CC" cx="92" cy="19" r="2"></circle>
                        <circle id="椭圆形备份-2" fill="#D8F0DA" cx="92" cy="7" r="2"></circle>
                        <rect id="矩形" fill="#D0F3F3" x="70" y="5" width="16" height="4" rx="1"></rect>
                    </g>
                </g>
                <g id="fg/待审核" transform="translate(116.000000, 4.000000)">
                    <g id="矩形">
                        <use fill="black" fill-opacity="1" filter="url(#filter-4)" xlink:href="#path-3"></use>
                        <use fill="#FFFFFF" fill-rule="evenodd" xlink:href="#path-3"></use>
                    </g>
                    <rect id="矩形备份-44" fill="#EEEEF1" x="32" y="8" width="35" height="8" rx="1"></rect>
                    <rect id="矩形备份-45" fill="#EEEEF1" x="32" y="21" width="68" height="3" rx="1"></rect>
                    <line x1="8" y1="32" x2="112" y2="32" id="路径-2" stroke="#F6F7F8"></line>
                    <g id="编组" transform="translate(96.000000, 40.000000)">
                        <circle id="椭圆形" fill="#F68872" fill-rule="nonzero" cx="8" cy="8" r="8"></circle>
                        <line x1="5.33333333" y1="5.33333333" x2="10.9901333" y2="10.9901333" id="路径" stroke="#FFFFFF" stroke-width="1.5" stroke-linecap="round"></line>
                        <path d="M10.2830266,4.62622655 C10.6735508,4.23570226 11.3067158,4.23570226 11.6972401,4.62622655 C12.0522622,4.98124864 12.0845369,5.53680021 11.7940643,5.9282822 L11.6972401,6.04044011 L6.04044011,11.6972401 C5.64991582,12.0877644 5.01675084,12.0877644 4.62622655,11.6972401 C4.27120447,11.342218 4.23892973,10.7866665 4.52940235,10.3951845 L4.62622655,10.2830266 L10.2830266,4.62622655 Z" id="路径" fill="#FFFFFF" fill-rule="nonzero"></path>
                    </g>
                    <g id="编组-30" transform="translate(8.000000, 8.000000)" fill="#EEEEF1">
                        <rect id="矩形" x="0" y="0" width="16" height="16" rx="1"></rect>
                    </g>
                    <rect id="矩形" fill="#EEEEF1" x="8" y="44" width="80" height="8" rx="1"></rect>
                    <g id="编组" transform="translate(11.000000, 10.500000)" fill="#F68872" fill-rule="nonzero">
                        <path d="M0.23655598,10 L9.76344402,10 C9.89421099,10 10,10.105789 10,10.236556 L10,10.8756979 C10,11.0064649 9.89421099,11.1122539 9.76344402,11.1122539 L0.23655598,11.1122539 C0.10578901,11.1122539 0,11.0064649 0,10.8756979 L0,10.236556 C0,10.105789 0.10578901,10 0.23655598,10 Z M9.26094622,7.03643844 L7.38906847,7.03643844 C6.89097855,7.03643844 6.47516897,6.65442257 6.43549809,6.15780194 C6.33117837,4.81486923 7.7784308,4.17278872 7.7784308,2.52571261 C7.7784308,1.12694681 6.71319424,0 5,0 C3.28680576,0 2.2230385,1.1284161 2.2230385,2.52571261 C2.2230385,4.17278872 3.67029092,4.81486923 3.5659712,6.15780194 C3.52483103,6.65442257 3.11049074,7.03643844 2.61240082,7.03643844 L0.739053776,7.03643844 C0.330590655,7.03643844 0,7.36702909 0,7.77549221 L0,9.02292095 C0,9.15368792 0.10578901,9.25947693 0.23655598,9.25947693 L9.76344402,9.25947693 C9.89421099,9.25947693 10,9.15368792 10,9.02292095 L10,7.77549221 C10,7.36849838 9.66940934,7.03643844 9.26094622,7.03643844 Z" id="形状"></path>
                    </g>
                </g>
            </g>
        </g>
    </g>
</svg>