<?xml version="1.0" encoding="UTF-8"?>
<svg width="273px" height="149px" viewBox="0 0 273 149" version="1.1" xmlns="http://www.w3.org/2000/svg" xmlns:xlink="http://www.w3.org/1999/xlink">
    <title>编组 4备份</title>
    <defs>
        <path d="M105.435556,0 L186.771556,0 C188.435283,0 189.784,1.34871732 189.784,3.01244444 L189.784,45.1866667 C189.784,46.8503938 188.435283,48.1991111 186.771556,48.1991111 L105.435556,48.1991111 C103.771828,48.1991111 102.423111,46.8503938 102.423111,45.1866667 L102.423111,3.01244444 C102.423111,1.34871732 103.771828,0 105.435556,0 Z" id="path-1"></path>
        <filter x="-64.1%" y="-83.0%" width="228.2%" height="332.4%" filterUnits="objectBoundingBox" id="filter-2">
            <feOffset dx="0" dy="16" in="SourceAlpha" result="shadowOffsetOuter1"></feOffset>
            <feGaussianBlur stdDeviation="16" in="shadowOffsetOuter1" result="shadowBlurOuter1"></feGaussianBlur>
            <feColorMatrix values="0 0 0 0 0.11372549   0 0 0 0 0.129411765   0 0 0 0 0.160784314  0 0 0 0.06 0" type="matrix" in="shadowBlurOuter1" result="shadowMatrixOuter1"></feColorMatrix>
            <feOffset dx="0" dy="8" in="SourceAlpha" result="shadowOffsetOuter2"></feOffset>
            <feGaussianBlur stdDeviation="8" in="shadowOffsetOuter2" result="shadowBlurOuter2"></feGaussianBlur>
            <feColorMatrix values="0 0 0 0 0.11372549   0 0 0 0 0.129411765   0 0 0 0 0.160784314  0 0 0 0.06 0" type="matrix" in="shadowBlurOuter2" result="shadowMatrixOuter2"></feColorMatrix>
            <feOffset dx="0" dy="4" in="SourceAlpha" result="shadowOffsetOuter3"></feOffset>
            <feGaussianBlur stdDeviation="4" in="shadowOffsetOuter3" result="shadowBlurOuter3"></feGaussianBlur>
            <feColorMatrix values="0 0 0 0 0.11372549   0 0 0 0 0.129411765   0 0 0 0 0.160784314  0 0 0 0.06 0" type="matrix" in="shadowBlurOuter3" result="shadowMatrixOuter3"></feColorMatrix>
            <feMerge>
                <feMergeNode in="shadowMatrixOuter1"></feMergeNode>
                <feMergeNode in="shadowMatrixOuter2"></feMergeNode>
                <feMergeNode in="shadowMatrixOuter3"></feMergeNode>
            </feMerge>
        </filter>
        <path d="M109.954222,6.02488889 L118.991556,6.02488889 C119.823419,6.02488889 120.497778,6.69924755 120.497778,7.53111111 L120.497778,16.5684444 C120.497778,17.400308 119.823419,18.0746667 118.991556,18.0746667 L109.954222,18.0746667 C109.122359,18.0746667 108.448,17.400308 108.448,16.5684444 L108.448,7.53111111 C108.448,6.69924755 109.122359,6.02488889 109.954222,6.02488889 Z" id="path-3"></path>
    </defs>
    <g id="页面-1" stroke="none" stroke-width="1" fill="none" fill-rule="evenodd">
        <g id="企业认证" transform="translate(-694.000000, -362.000000)">
            <rect id="bg" fill="#F1F1F1" x="220" y="134.138177" width="1220" height="664"></rect>
            <rect id="bg" stroke="#E5E7EC" fill="#FFFFFF" x="228" y="216" width="1204" height="574"></rect>
            <g id="编组-7" transform="translate(669.000000, 366.000000)">
                <g id="编组-4备份" transform="translate(25.000000, 0.000000)">
                    <g id="编组-3" transform="translate(51.211556, 12.049778)">
                        <g id="编组" transform="translate(0.000000, 12.049778)">
                            <g id="背景">
                                <path d="M3.01244444,0 L165.684444,0 C167.348172,0 168.696889,1.34871732 168.696889,3.01244444 L168.696889,117.485333 C168.696889,119.14906 167.348172,120.497778 165.684444,120.497778 L3.01244444,120.497778 C1.34871732,120.497778 0,119.14906 0,117.485333 L0,3.01244444 C0,1.34871732 1.34871732,0 3.01244444,0 Z" id="矩形" fill="#F1F4F8"></path>
                                <path d="M3.01244444,0 L165.684444,0 C167.348172,0 168.696889,1.34871732 168.696889,3.01244444 L168.696889,12.0497778 L0,12.0497778 L0,3.01244444 C0,1.34871732 1.34871732,0 3.01244444,0 Z" id="矩形" fill="#DBDEE3"></path>
                                <circle id="椭圆形" fill="#FFFFFF" cx="9.03733333" cy="6.02488889" r="3.01244444"></circle>
                                <circle id="椭圆形备份" fill="#FFFFFF" cx="21.0871111" cy="6.02488889" r="3.01244444"></circle>
                                <circle id="椭圆形备份-2" fill="#FFFFFF" cx="33.1368889" cy="6.02488889" r="3.01244444"></circle>
                                <path d="M9.03733333,18.0746667 L159.659556,18.0746667 C161.323283,18.0746667 162.672,19.423384 162.672,21.0871111 L162.672,111.460444 C162.672,113.124172 161.323283,114.472889 159.659556,114.472889 L9.03733333,114.472889 C7.37360621,114.472889 6.02488889,113.124172 6.02488889,111.460444 L6.02488889,21.0871111 C6.02488889,19.423384 7.37360621,18.0746667 9.03733333,18.0746667 Z" id="矩形" fill="#FFFFFF"></path>
                                <path d="M9.03733333,18.0746667 L48.1991111,18.0746667 L48.1991111,114.472889 L9.03733333,114.472889 C7.37360621,114.472889 6.02488889,113.124172 6.02488889,111.460444 L6.02488889,21.0871111 C6.02488889,19.423384 7.37360621,18.0746667 9.03733333,18.0746667 Z" id="矩形" fill="#E2E5E9"></path>
                                <path d="M13.556,24.0995556 L16.5684444,24.0995556 C17.400308,24.0995556 18.0746667,24.7739142 18.0746667,25.6057778 L18.0746667,28.6182222 C18.0746667,29.4500858 17.400308,30.1244444 16.5684444,30.1244444 L13.556,30.1244444 C12.7241364,30.1244444 12.0497778,29.4500858 12.0497778,28.6182222 L12.0497778,25.6057778 C12.0497778,24.7739142 12.7241364,24.0995556 13.556,24.0995556 Z" id="矩形" fill="#FFFFFF"></path>
                                <path d="M25.6057778,24.0995556 L40.668,24.0995556 C41.4998636,24.0995556 42.1742222,24.7739142 42.1742222,25.6057778 L42.1742222,28.6182222 C42.1742222,29.4500858 41.4998636,30.1244444 40.668,30.1244444 L25.6057778,30.1244444 C24.7739142,30.1244444 24.0995556,29.4500858 24.0995556,28.6182222 L24.0995556,25.6057778 C24.0995556,24.7739142 24.7739142,24.0995556 25.6057778,24.0995556 Z" id="矩形备份" fill="#FFFFFF"></path>
                                <path d="M13.556,36.1493333 L40.668,36.1493333 C41.4998636,36.1493333 42.1742222,36.823692 42.1742222,37.6555556 L42.1742222,40.668 C42.1742222,41.4998636 41.4998636,42.1742222 40.668,42.1742222 L13.556,42.1742222 C12.7241364,42.1742222 12.0497778,41.4998636 12.0497778,40.668 L12.0497778,37.6555556 C12.0497778,36.823692 12.7241364,36.1493333 13.556,36.1493333 Z" id="矩形备份-2" fill="#FFFFFF"></path>
                                <path d="M13.556,48.1991111 L34.6431111,48.1991111 C35.4749747,48.1991111 36.1493333,48.8734698 36.1493333,49.7053333 L36.1493333,52.7177778 C36.1493333,53.5496413 35.4749747,54.224 34.6431111,54.224 L13.556,54.224 C12.7241364,54.224 12.0497778,53.5496413 12.0497778,52.7177778 L12.0497778,49.7053333 C12.0497778,48.8734698 12.7241364,48.1991111 13.556,48.1991111 Z" id="矩形备份-3" fill="#FFFFFF"></path>
                                <path d="M13.556,60.2488889 L40.668,60.2488889 C41.4998636,60.2488889 42.1742222,60.9232475 42.1742222,61.7551111 L42.1742222,64.7675556 C42.1742222,65.5994191 41.4998636,66.2737778 40.668,66.2737778 L13.556,66.2737778 C12.7241364,66.2737778 12.0497778,65.5994191 12.0497778,64.7675556 L12.0497778,61.7551111 C12.0497778,60.9232475 12.7241364,60.2488889 13.556,60.2488889 Z" id="矩形备份-4" fill="#FFFFFF"></path>
                                <path d="M13.556,72.2986667 L25.6057778,72.2986667 C26.4376413,72.2986667 27.112,72.9730253 27.112,73.8048889 L27.112,76.8173333 C27.112,77.6491969 26.4376413,78.3235556 25.6057778,78.3235556 L13.556,78.3235556 C12.7241364,78.3235556 12.0497778,77.6491969 12.0497778,76.8173333 L12.0497778,73.8048889 C12.0497778,72.9730253 12.7241364,72.2986667 13.556,72.2986667 Z" id="矩形备份-5" fill="#FFFFFF"></path>
                            </g>
                            <path d="M55.7302222,24.0995556 L73.8048889,24.0995556 C74.6367525,24.0995556 75.3111111,24.7739142 75.3111111,25.6057778 L75.3111111,31.6306667 C75.3111111,32.4625302 74.6367525,33.1368889 73.8048889,33.1368889 L55.7302222,33.1368889 C54.8983587,33.1368889 54.224,32.4625302 54.224,31.6306667 L54.224,25.6057778 C54.224,24.7739142 54.8983587,24.0995556 55.7302222,24.0995556 Z" id="矩形" fill="#F1F4F8"></path>
                            <path d="M82.8422222,24.0995556 L100.916889,24.0995556 C101.748752,24.0995556 102.423111,24.7739142 102.423111,25.6057778 L102.423111,31.6306667 C102.423111,32.4625302 101.748752,33.1368889 100.916889,33.1368889 L82.8422222,33.1368889 C82.0103587,33.1368889 81.336,32.4625302 81.336,31.6306667 L81.336,25.6057778 C81.336,24.7739142 82.0103587,24.0995556 82.8422222,24.0995556 Z" id="矩形备份" fill="#F1F4F8"></path>
                            <path d="M55.7302222,45.1866667 L106.941778,45.1866667 C107.773641,45.1866667 108.448,45.8610253 108.448,46.6928889 C108.448,47.5247525 107.773641,48.1991111 106.941778,48.1991111 L55.7302222,48.1991111 C54.8983587,48.1991111 54.224,47.5247525 54.224,46.6928889 C54.224,45.8610253 54.8983587,45.1866667 55.7302222,45.1866667 Z" id="矩形备份-2" fill="#F1F4F8"></path>
                            <path d="M115.979111,45.1866667 L155.140889,45.1866667 C155.972752,45.1866667 156.647111,45.8610253 156.647111,46.6928889 C156.647111,47.5247525 155.972752,48.1991111 155.140889,48.1991111 L115.979111,48.1991111 C115.147248,48.1991111 114.472889,47.5247525 114.472889,46.6928889 C114.472889,45.8610253 115.147248,45.1866667 115.979111,45.1866667 Z" id="矩形备份-3" fill="#F1F4F8"></path>
                            <path d="M55.7302222,54.224 L82.8422222,54.224 C83.6740858,54.224 84.3484444,54.8983587 84.3484444,55.7302222 C84.3484444,56.5620858 83.6740858,57.2364444 82.8422222,57.2364444 L55.7302222,57.2364444 C54.8983587,57.2364444 54.224,56.5620858 54.224,55.7302222 C54.224,54.8983587 54.8983587,54.224 55.7302222,54.224 Z" id="矩形备份-6" fill="#F1F4F8"></path>
                            <path d="M91.8795556,54.224 L118.991556,54.224 C119.823419,54.224 120.497778,54.8983587 120.497778,55.7302222 C120.497778,56.5620858 119.823419,57.2364444 118.991556,57.2364444 L91.8795556,57.2364444 C91.047692,57.2364444 90.3733333,56.5620858 90.3733333,55.7302222 C90.3733333,54.8983587 91.047692,54.224 91.8795556,54.224 Z" id="矩形备份-7" fill="#F1F4F8"></path>
                            <path d="M128.028889,54.224 L155.140889,54.224 C155.972752,54.224 156.647111,54.8983587 156.647111,55.7302222 C156.647111,56.5620858 155.972752,57.2364444 155.140889,57.2364444 L128.028889,57.2364444 C127.197025,57.2364444 126.522667,56.5620858 126.522667,55.7302222 C126.522667,54.8983587 127.197025,54.224 128.028889,54.224 Z" id="矩形备份-8" fill="#F1F4F8"></path>
                            <path d="M156.647111,38.7852222 C156.855077,38.7852222 157.023667,39.0090798 157.023667,39.2852222 C157.023667,39.5613646 156.855077,39.7852222 156.647111,39.7852222 L54.224,39.7852222 C54.0160341,39.7852222 53.8474444,39.5613646 53.8474444,39.2852222 C53.8474444,39.0090798 54.0160341,38.7852222 54.224,38.7852222 L156.647111,38.7852222 Z" id="路径" fill="#F1F4F8" fill-rule="nonzero"></path>
                            <path d="M55.7302222,66.2737778 L58.7426667,66.2737778 C59.5745302,66.2737778 60.2488889,66.9481364 60.2488889,67.78 L60.2488889,70.7924444 C60.2488889,71.624308 59.5745302,72.2986667 58.7426667,72.2986667 L55.7302222,72.2986667 C54.8983587,72.2986667 54.224,71.624308 54.224,70.7924444 L54.224,67.78 C54.224,66.9481364 54.8983587,66.2737778 55.7302222,66.2737778 Z" id="矩形" fill="#F1F4F8"></path>
                            <path d="M55.7302222,78.3235556 L58.7426667,78.3235556 C59.5745302,78.3235556 60.2488889,78.9979142 60.2488889,79.8297778 L60.2488889,82.8422222 C60.2488889,83.6740858 59.5745302,84.3484444 58.7426667,84.3484444 L55.7302222,84.3484444 C54.8983587,84.3484444 54.224,83.6740858 54.224,82.8422222 L54.224,79.8297778 C54.224,78.9979142 54.8983587,78.3235556 55.7302222,78.3235556 Z" id="矩形备份-4" fill="#F1F4F8"></path>
                            <path d="M67.78,66.2737778 L106.941778,66.2737778 C107.773641,66.2737778 108.448,66.9481364 108.448,67.78 L108.448,70.7924444 C108.448,71.624308 107.773641,72.2986667 106.941778,72.2986667 L67.78,72.2986667 C66.9481364,72.2986667 66.2737778,71.624308 66.2737778,70.7924444 L66.2737778,67.78 C66.2737778,66.9481364 66.9481364,66.2737778 67.78,66.2737778 Z" id="矩形备份-10" fill="#F1F4F8"></path>
                            <path d="M115.979111,66.2737778 L131.041333,66.2737778 C131.873197,66.2737778 132.547556,66.9481364 132.547556,67.78 L132.547556,70.7924444 C132.547556,71.624308 131.873197,72.2986667 131.041333,72.2986667 L115.979111,72.2986667 C115.147248,72.2986667 114.472889,71.624308 114.472889,70.7924444 L114.472889,67.78 C114.472889,66.9481364 115.147248,66.2737778 115.979111,66.2737778 Z" id="矩形备份-14" fill="#FDEEEA"></path>
                            <path d="M67.78,78.3235556 L128.028889,78.3235556 C128.860752,78.3235556 129.535111,78.9979142 129.535111,79.8297778 L129.535111,82.8422222 C129.535111,83.6740858 128.860752,84.3484444 128.028889,84.3484444 L67.78,84.3484444 C66.9481364,84.3484444 66.2737778,83.6740858 66.2737778,82.8422222 L66.2737778,79.8297778 C66.2737778,78.9979142 66.9481364,78.3235556 67.78,78.3235556 Z" id="矩形备份-11" fill="#F1F4F8"></path>
                            <path d="M55.7302222,90.3733333 L58.7426667,90.3733333 C59.5745302,90.3733333 60.2488889,91.047692 60.2488889,91.8795556 L60.2488889,94.892 C60.2488889,95.7238636 59.5745302,96.3982222 58.7426667,96.3982222 L55.7302222,96.3982222 C54.8983587,96.3982222 54.224,95.7238636 54.224,94.892 L54.224,91.8795556 C54.224,91.047692 54.8983587,90.3733333 55.7302222,90.3733333 Z" id="矩形备份-5" fill="#F1F4F8"></path>
                            <path d="M67.78,90.3733333 L128.028889,90.3733333 C128.860752,90.3733333 129.535111,91.047692 129.535111,91.8795556 L129.535111,94.892 C129.535111,95.7238636 128.860752,96.3982222 128.028889,96.3982222 L67.78,96.3982222 C66.9481364,96.3982222 66.2737778,95.7238636 66.2737778,94.892 L66.2737778,91.8795556 C66.2737778,91.047692 66.9481364,90.3733333 67.78,90.3733333 Z" id="矩形备份-12" fill="#F1F4F8"></path>
                            <path d="M55.7302222,102.423111 L58.7426667,102.423111 C59.5745302,102.423111 60.2488889,103.09747 60.2488889,103.929333 L60.2488889,106.941778 C60.2488889,107.773641 59.5745302,108.448 58.7426667,108.448 L55.7302222,108.448 C54.8983587,108.448 54.224,107.773641 54.224,106.941778 L54.224,103.929333 C54.224,103.09747 54.8983587,102.423111 55.7302222,102.423111 Z" id="矩形备份-9" fill="#F1F4F8"></path>
                            <path d="M67.78,102.423111 L115.979111,102.423111 C116.810975,102.423111 117.485333,103.09747 117.485333,103.929333 L117.485333,106.941778 C117.485333,107.773641 116.810975,108.448 115.979111,108.448 L67.78,108.448 C66.9481364,108.448 66.2737778,107.773641 66.2737778,106.941778 L66.2737778,103.929333 C66.2737778,103.09747 66.9481364,102.423111 67.78,102.423111 Z" id="矩形备份-13" fill="#F1F4F8"></path>
                            <circle id="椭圆形" fill="#FDEEEA" cx="153.634667" cy="69.2862222" r="3.01244444"></circle>
                            <circle id="椭圆形备份" fill="#FDEEEA" cx="153.634667" cy="81.336" r="3.01244444"></circle>
                            <circle id="椭圆形备份-2" fill="#ECF7F2" cx="153.634667" cy="93.3857778" r="3.01244444"></circle>
                            <circle id="椭圆形备份-3" fill="#ECF7F2" cx="153.634667" cy="105.435556" r="3.01244444"></circle>
                        </g>
                        <g id="矩形">
                            <use fill="black" fill-opacity="1" filter="url(#filter-2)" xlink:href="#path-1"></use>
                            <use fill="#FFFFFF" fill-rule="evenodd" xlink:href="#path-1"></use>
                        </g>
                        <g id="矩形">
                            <use fill="currentColor" xlink:href="#path-3"></use>
                            <use fill-opacity="0.8" fill="#FFFFFF" xlink:href="#path-3"></use>
                        </g>
                        <path d="M128.028889,6.02488889 L140.078667,6.02488889 C140.91053,6.02488889 141.584889,6.69924755 141.584889,7.53111111 L141.584889,10.5435556 C141.584889,11.3754191 140.91053,12.0497778 140.078667,12.0497778 L128.028889,12.0497778 C127.197025,12.0497778 126.522667,11.3754191 126.522667,10.5435556 L126.522667,7.53111111 C126.522667,6.69924755 127.197025,6.02488889 128.028889,6.02488889 Z" id="矩形" fill="#E9ECF0"></path>
                        <path d="M128.028889,15.0622222 L182.252889,15.0622222 C183.084752,15.0622222 183.759111,15.7365809 183.759111,16.5684444 C183.759111,17.400308 183.084752,18.0746667 182.252889,18.0746667 L128.028889,18.0746667 C127.197025,18.0746667 126.522667,17.400308 126.522667,16.5684444 C126.522667,15.7365809 127.197025,15.0622222 128.028889,15.0622222 Z" id="矩形备份-15" fill="#E9ECF0"></path>
                        <path d="M109.954222,33.1368889 L161.165778,33.1368889 C161.997641,33.1368889 162.672,33.8112475 162.672,34.6431111 L162.672,37.6555556 C162.672,38.4874191 161.997641,39.1617778 161.165778,39.1617778 L109.954222,39.1617778 C109.122359,39.1617778 108.448,38.4874191 108.448,37.6555556 L108.448,34.6431111 C108.448,33.8112475 109.122359,33.1368889 109.954222,33.1368889 Z" id="矩形备份-16" fill="#E9ECF0"></path>
                        <line x1="108.448" y1="24.0995556" x2="183.759111" y2="24.0995556" id="路径-5" stroke="#F1F4F8" stroke-linecap="round"></line>
                        <g id="元素/标识/对" transform="translate(171.709333, 30.124444)">
                            <circle id="椭圆形" fill="#179454" cx="6.02488889" cy="6.02488889" r="6.02488889"></circle>
                            <g id="编组-2" transform="translate(2.356304, 3.645503)" fill="#FFFFFF">
                                <path d="M0.26399653,2.72251592 L3.539789,2.72251592 C3.8235804,2.72251592 4.05363879,2.9633583 4.05363879,3.26045243 C4.05363879,3.55754656 3.8235804,3.79838894 3.539789,3.79838894 L0.26399653,3.79838894 C-0.0197948776,3.79838894 -0.249853269,3.55754656 -0.249853269,3.26045243 C-0.249853269,2.9633583 -0.0197948776,2.72251592 0.26399653,2.72251592 Z" id="矩形" transform="translate(1.901893, 3.260452) rotate(45.000000) translate(-1.901893, -3.260452) "></path>
                                <path d="M5.42037036,0.00447891965 L5.42037036,5.1686694 C5.42037036,5.46576353 5.17952798,5.7066059 4.88243385,5.7066059 C4.58533972,5.7066059 4.34449734,5.46576353 4.34449734,5.1686694 L4.34449734,0.00447891965 C4.34449734,-0.29261521 4.58533972,-0.533457588 4.88243385,-0.533457588 C5.17952798,-0.533457588 5.42037036,-0.29261521 5.42037036,0.00447891965 Z" id="矩形备份-3" transform="translate(4.882434, 2.586574) rotate(45.000000) translate(-4.882434, -2.586574) "></path>
                            </g>
                        </g>
                        <g id="编组-2" transform="translate(109.954222, 7.531111)">
                            <rect id="矩形" x="0" y="0" width="9.03733333" height="9.03733333"></rect>
                            <path d="M0.747440094,7.96061979 L8.10161546,7.96061979 C8.20255957,7.96061979 8.28422222,8.03616718 8.28422222,8.12955215 L8.28422222,8.58598431 C8.28422222,8.67936928 8.20255957,8.75491667 8.10161546,8.75491667 L0.747440094,8.75491667 C0.646495984,8.75491667 0.564833333,8.67936928 0.564833333,8.58598431 L0.564833333,8.12955215 C0.564833333,8.03616718 0.646495984,7.96061979 0.747440094,7.96061979 Z M7.71371787,5.64775075 L6.26874264,5.64775075 C5.88424766,5.64775075 5.56326807,5.35646095 5.53264458,4.97778421 C5.45211613,3.95378852 6.56930656,3.46419758 6.56930656,2.2082904 C6.56930656,1.14172158 5.74700904,0.282416667 4.42452778,0.282416667 C3.10204652,0.282416667 2.2808832,1.14284193 2.2808832,2.2082904 C2.2808832,3.46419758 3.39807363,3.95378852 3.31754518,4.97778421 C3.28578748,5.35646095 2.9659421,5.64775075 2.58144712,5.64775075 L1.13533768,5.64775075 C0.820029116,5.64775075 0.564833333,5.89982847 0.564833333,6.21128449 L0.564833333,7.16245773 C0.564833333,7.26216847 0.646495984,7.34283333 0.747440094,7.34283333 L8.10161546,7.34283333 C8.20255957,7.34283333 8.28422222,7.26216847 8.28422222,7.16245773 L8.28422222,6.21128449 C8.28422222,5.90094881 8.02902644,5.64775075 7.71371787,5.64775075 Z" id="形状" fill="currentColor" fill-rule="nonzero"></path>
                        </g>
                    </g>
                </g>
            </g>
        </g>
    </g>
</svg>