<?xml version="1.0" encoding="UTF-8"?>
<svg width="24px" height="24px" viewBox="0 0 24 24" version="1.1" xmlns="http://www.w3.org/2000/svg" xmlns:xlink="http://www.w3.org/1999/xlink">
    <title>file-icons/pdf</title>
    <defs>
        <path d="M5.25,2 L15,2 L15,2 L21,8 L21,19.75 C21,20.9926407 19.9926407,22 18.75,22 L5.25,22 C4.00735931,22 3,20.9926407 3,19.75 L3,4.25 C3,3.00735931 4.00735931,2 5.25,2 Z" id="path-1"></path>
        <filter x="-8.3%" y="-7.5%" width="116.7%" height="115.0%" filterUnits="objectBoundingBox" id="filter-2">
            <feOffset dx="0" dy="0" in="SourceAlpha" result="shadowOffsetOuter1"></feOffset>
            <feGaussianBlur stdDeviation="0.5" in="shadowOffsetOuter1" result="shadowBlurOuter1"></feGaussianBlur>
            <feColorMatrix values="0 0 0 0 0   0 0 0 0 0   0 0 0 0 0  0 0 0 0.05 0" type="matrix" in="shadowBlurOuter1"></feColorMatrix>
        </filter>
    </defs>
    <g id="Page-1" stroke="none" stroke-width="1" fill="none" fill-rule="evenodd">
        <g id="Icons/File/PDF">
            <g id="Rectangle-Copy">
                <use fill="black" fill-opacity="1" filter="url(#filter-2)" xlink:href="#path-1"></use>
                <use fill="#DD3633" fill-rule="evenodd" xlink:href="#path-1"></use>
            </g>
            <path d="M7.3425,16.75 L7.3425,15.0355 L8.06475,15.0355 C8.57325,15.0355 8.9805,14.87575 9.2865,14.55625 C9.5655,14.26825 9.705,13.91275 9.705,13.48975 C9.705,13.06675 9.5655,12.71125 9.2865,12.42325 C8.9805,12.10375 8.57325,11.944 8.06475,11.944 L8.06475,11.944 L6.16125,11.944 L6.16125,16.75 L7.3425,16.75 Z M8.01075,13.97575 L7.3425,13.97575 L7.3425,13.00375 L8.01075,13.00375 C8.35275,13.00375 8.52375,13.16575 8.52375,13.48975 C8.52375,13.81375 8.35275,13.97575 8.01075,13.97575 L8.01075,13.97575 Z M12.1755,16.75 C12.7245,16.75 13.1565,16.5925 13.4715,16.2775 C13.719,16.03 13.872,15.733 13.9305,15.3865 C13.953,15.2515 13.9665,15.085 13.971,14.887 L13.971,14.887 L13.971,13.807 C13.9665,13.609 13.953,13.4425 13.9305,13.3075 C13.872,12.961 13.719,12.664 13.4715,12.4165 C13.1565,12.1015 12.7245,11.944 12.1755,11.944 L12.1755,11.944 L10.3935,11.944 L10.3935,16.75 L12.1755,16.75 Z M12.0945,15.697 L11.57475,15.697 L11.57475,12.997 L12.0945,12.997 C12.351,12.997 12.54,13.087 12.6615,13.267 C12.711,13.339 12.74475,13.4335 12.76275,13.5505 C12.78075,13.6945 12.78975,13.96 12.78975,14.347 L12.789199,14.5054184 C12.7869949,14.8073776 12.7781786,15.0200714 12.76275,15.1435 C12.74475,15.2605 12.711,15.355 12.6615,15.427 C12.54,15.607 12.351,15.697 12.0945,15.697 L12.0945,15.697 Z M15.969,16.75 L15.969,14.89375 L17.751,14.89375 L17.751,13.84075 L15.969,13.84075 L15.969,12.997 L18.05475,12.997 L18.05475,11.944 L14.78775,11.944 L14.78775,16.75 L15.969,16.75 Z" id="PDF" fill="#FFFFFF" fill-rule="nonzero" opacity="0.900000036"></path>
            <path d="M15,2 L21,8 L17.25,8 C16.0073593,8 15,6.99264069 15,5.75 L15,2 L15,2 Z" id="Rectangle-Copy-3" fill="#FFFFFF" opacity="0.400000006"></path>
        </g>
    </g>
</svg>
