<?xml version="1.0" encoding="UTF-8"?>
<svg width="40px" height="40px" viewBox="0 0 40 40" version="1.1" xmlns="http://www.w3.org/2000/svg" xmlns:xlink="http://www.w3.org/1999/xlink">
    <title>编组 5</title>
    <g id="供应商注册601" stroke="none" stroke-width="1" fill="none" fill-rule="evenodd">
        <g id="编组-5">
            <circle id="椭圆形" cx="20" cy="20" r="20"></circle>
            <g id="手机验证" transform="translate(9.000000, 4.000000)" fill="#000000">
                <path d="M18.6639862,0 L3.55811601,0 C1.5983053,0 0,1.58751935 0,3.54678597 L0,28.4534701 C0,30.4134728 1.59280029,32 3.55811601,32 L18.6639862,32 C20.6239889,32 22.2223262,30.4124807 22.2223262,28.4534701 L22.2223262,3.54678597 C22.2223262,1.58671919 20.6293019,0 18.6639862,0 Z M20.2525297,28.4534381 C20.2525297,29.4293907 19.646244,30.0302035 18.6639862,30.0302035 L3.55811601,30.0302035 C2.57691441,30.0302035 1.96979653,29.4285266 1.96979653,28.4534381 L1.96979653,3.54678597 C1.96979653,2.57163347 2.57608226,1.96979653 3.55811601,1.96979653 L18.6639862,1.96979653 C19.6462439,1.96979653 20.2525297,2.57163347 20.2525297,3.54678597 L20.2525297,28.4534381 Z M16.6736099,5.99810964 L5.99302074,5.99810964 C5.50233993,5.99810964 5.10415584,6.52447692 5.10415584,7.01518971 C5.10415584,7.50571051 5.5023399,8.000104 5.99302074,8.000104 L16.6736099,8.000104 C17.1643548,8.000104 17.5624748,7.50571051 17.5624748,7.01518971 C17.5624748,6.52447692 17.1643548,5.99810964 16.6736099,5.99810964 Z M11.1110671,23.1111911 C10.5293938,23.1111911 9.95117714,23.3506585 9.5398067,23.7620289 C9.12846826,24.1734314 8.88896889,24.751616 8.88896889,25.3332893 C8.88896889,25.9151547 9.12843623,26.4934033 9.5398067,26.9047418 C9.95117718,27.3161442 10.5293938,27.5555796 11.1110671,27.5555796 C11.6929324,27.5555796 12.2711171,27.3161442 12.6825195,26.9047418 C13.09389,26.4933713 13.3333573,25.9151547 13.3333573,25.3332893 C13.3333573,24.751616 13.09389,24.1734314 12.6825195,23.7620289 C12.2711171,23.3506905 11.6929324,23.1111911 11.1110671,23.1111911 Z" id="形状" fill-rule="nonzero"></path>
                <polygon id="路径" points="10.425343 16.9472595 6.90969866 13.4316151 5.69226231 14.6490515 10.425343 19.3821642 17.2244296 12.574436 16.0047849 11.3678176"></polygon>
            </g>
        </g>
    </g>
</svg>