<?xml version="1.0" encoding="UTF-8"?>
<svg width="289px" height="167px" viewBox="0 0 289 167" version="1.1" xmlns="http://www.w3.org/2000/svg" xmlns:xlink="http://www.w3.org/1999/xlink">
    <title>编组</title>
    <defs>
        <circle id="path-1-success" cx="3.01244444" cy="3.01244444" r="3.01244444"></circle>
        <path d="M3.78628338,0.912024465 C4.15260862,0.912024465 4.4495739,1.20898975 4.4495739,1.57531498 L4.4495739,1.82404893 L4.44889597,1.82406857 C4.44934616,1.83321767 4.4495739,1.84242525 4.4495739,1.85168603 L4.4495739,2.39060958 C4.4495739,2.52034977 4.3443987,2.62552497 4.21465851,2.62552497 L3.8968318,2.62552497 L3.8968318,1.82404893 L2.48733945,1.82404893 L2.48733945,2.62552497 L2.10041998,2.62552497 C1.94778446,2.62552497 1.82404893,2.50178944 1.82404893,2.34915392 L1.82404893,1.49240367 C1.82404893,1.26408222 1.99709298,1.07617737 2.21918598,1.05268424 C2.29989731,0.966136189 2.41493625,0.912024465 2.54261366,0.912024465 L3.78628338,0.912024465 Z" id="path-2-success"></path>
        <path d="M4.24694557,4.14556575 C4.72823705,4.14556575 5.12754355,4.5205288 5.16123553,5.00411666 L5.16813863,5.10350509 C4.62081783,5.67175601 3.85458896,6.02488889 3.00647453,6.02488889 C2.21987102,6.02488889 1.50370603,5.72112159 0.967298675,5.22369785 L0.982647593,5.00411666 C1.01633958,4.5205288 1.41564607,4.14556575 1.89693755,4.14556575 L4.24694557,4.14556575 Z" id="path-3-success"></path>
        <path d="M2.48733945,3.78628338 L3.78628338,3.78628338 L3.78628338,4.31200528 C3.78628338,4.60167206 3.55146207,4.83649337 3.26179529,4.83649337 L3.01182754,4.83649337 C2.72216077,4.83649337 2.48733945,4.60167206 2.48733945,4.31200528 L2.48733945,3.78628338 Z" id="path-4-success"></path>
        <path d="M3.53754944,3.78628338 L3.53754944,3.91894149 C3.53754944,4.21200168 3.30245193,4.4495739 3.01244444,4.4495739 L2.58579664,4.4495739 C2.53142023,4.4495739 2.48733945,4.40502911 2.48733945,4.35008033 L2.48733945,3.78628338 L3.53754944,3.78628338 Z" id="path-5-success"></path>
        <path d="M3.78628338,0.912024465 C4.15260862,0.912024465 4.4495739,1.20898975 4.4495739,1.57531498 L4.4495739,1.82404893 L4.44889597,1.82406857 C4.44934616,1.83321767 4.4495739,1.84242525 4.4495739,1.85168603 L4.4495739,2.39060958 C4.4495739,2.52034977 4.3443987,2.62552497 4.21465851,2.62552497 L3.8968318,2.62552497 L3.8968318,1.82404893 L2.48733945,1.82404893 L2.48733945,2.62552497 L2.10041998,2.62552497 C1.94778446,2.62552497 1.82404893,2.50178944 1.82404893,2.34915392 L1.82404893,1.49240367 C1.82404893,1.26408222 1.99709298,1.07617737 2.21918598,1.05268424 C2.29989731,0.966136189 2.41493625,0.912024465 2.54261366,0.912024465 L3.78628338,0.912024465 Z" id="path-6-success"></path>
        <path d="M4.24694557,4.14556575 C4.72823705,4.14556575 5.12754355,4.5205288 5.16123553,5.00411666 L5.16813863,5.10350509 C4.62081783,5.67175601 3.85458896,6.02488889 3.00647453,6.02488889 C2.21987102,6.02488889 1.50370603,5.72112159 0.967298675,5.22369785 L0.982647593,5.00411666 C1.01633958,4.5205288 1.41564607,4.14556575 1.89693755,4.14556575 L4.24694557,4.14556575 Z" id="path-7-success"></path>
        <path d="M2.48733945,3.78628338 L3.78628338,3.78628338 L3.78628338,4.18702141 C3.78628338,4.54571487 3.49550488,4.83649337 3.13681142,4.83649337 C2.77811795,4.83649337 2.48733945,4.54571487 2.48733945,4.18702141 L2.48733945,3.78628338 L2.48733945,3.78628338 Z" id="path-8-success"></path>
        <path d="M3.78628338,0.912024465 C4.15260862,0.912024465 4.4495739,1.20898975 4.4495739,1.57531498 L4.4495739,1.82404893 L4.44889597,1.82406857 C4.44934616,1.83321767 4.4495739,1.84242525 4.4495739,1.85168603 L4.4495739,2.39060958 C4.4495739,2.52034977 4.3443987,2.62552497 4.21465851,2.62552497 L3.8968318,2.62552497 L3.8968318,1.82404893 L2.48733945,1.82404893 L2.48733945,2.62552497 L2.10041998,2.62552497 C1.94778446,2.62552497 1.82404893,2.50178944 1.82404893,2.34915392 L1.82404893,1.49240367 C1.82404893,1.26408222 1.99709298,1.07617737 2.21918598,1.05268424 C2.29989731,0.966136189 2.41493625,0.912024465 2.54261366,0.912024465 L3.78628338,0.912024465 Z" id="path-9-success"></path>
        <path d="M4.24694557,4.14556575 C4.72823705,4.14556575 5.12754355,4.5205288 5.16123553,5.00411666 L5.16813863,5.10350509 C4.62081783,5.67175601 3.85458896,6.02488889 3.00647453,6.02488889 C2.21987102,6.02488889 1.50370603,5.72112159 0.967298675,5.22369785 L0.982647593,5.00411666 C1.01633958,4.5205288 1.41564607,4.14556575 1.89693755,4.14556575 L4.24694557,4.14556575 Z" id="path-10-success"></path>
        <path d="M2.48733945,3.78628338 L3.78628338,3.78628338 L3.78628338,4.18702141 C3.78628338,4.54571487 3.49550488,4.83649337 3.13681142,4.83649337 C2.77811795,4.83649337 2.48733945,4.54571487 2.48733945,4.18702141 L2.48733945,3.78628338 L2.48733945,3.78628338 Z" id="path-11-success"></path>
        <circle id="path-12-success" cx="153.634667" cy="81.336" r="3.01244444"></circle>
        <path d="M3.01244444,0 L90.1850556,0 C91.8487827,0 93.1975,1.34871732 93.1975,3.01244444 L93.1975,42.1742222 C93.1975,43.8379493 91.8487827,45.1866667 90.1850556,45.1866667 L3.01244444,45.1866667 C1.34871732,45.1866667 0,43.8379493 0,42.1742222 L0,3.01244444 C0,1.34871732 1.34871732,0 3.01244444,0 Z" id="path-13-success"></path>
        <filter x="-60.1%" y="-88.5%" width="220.2%" height="347.9%" filterUnits="objectBoundingBox" id="filter-14">
            <feOffset dx="0" dy="16" in="SourceAlpha" result="shadowOffsetOuter1"></feOffset>
            <feGaussianBlur stdDeviation="16" in="shadowOffsetOuter1" result="shadowBlurOuter1"></feGaussianBlur>
            <feColorMatrix values="0 0 0 0 0.11372549   0 0 0 0 0.129411765   0 0 0 0 0.160784314  0 0 0 0.06 0" type="matrix" in="shadowBlurOuter1" result="shadowMatrixOuter1"></feColorMatrix>
            <feOffset dx="0" dy="8" in="SourceAlpha" result="shadowOffsetOuter2"></feOffset>
            <feGaussianBlur stdDeviation="8" in="shadowOffsetOuter2" result="shadowBlurOuter2"></feGaussianBlur>
            <feColorMatrix values="0 0 0 0 0.11372549   0 0 0 0 0.129411765   0 0 0 0 0.160784314  0 0 0 0.06 0" type="matrix" in="shadowBlurOuter2" result="shadowMatrixOuter2"></feColorMatrix>
            <feOffset dx="0" dy="4" in="SourceAlpha" result="shadowOffsetOuter3"></feOffset>
            <feGaussianBlur stdDeviation="4" in="shadowOffsetOuter3" result="shadowBlurOuter3"></feGaussianBlur>
            <feColorMatrix values="0 0 0 0 0.11372549   0 0 0 0 0.129411765   0 0 0 0 0.160784314  0 0 0 0.06 0" type="matrix" in="shadowBlurOuter3" result="shadowMatrixOuter3"></feColorMatrix>
            <feMerge>
                <feMergeNode in="shadowMatrixOuter1"></feMergeNode>
                <feMergeNode in="shadowMatrixOuter2"></feMergeNode>
                <feMergeNode in="shadowMatrixOuter3"></feMergeNode>
            </feMerge>
        </filter>
        <path d="M7.34283333,6.02488889 L19.3926111,6.02488889 C20.2244747,6.02488889 20.8988333,6.69924755 20.8988333,7.53111111 L20.8988333,19.5808889 C20.8988333,20.4127525 20.2244747,21.0871111 19.3926111,21.0871111 L7.34283333,21.0871111 C6.51096977,21.0871111 5.83661111,20.4127525 5.83661111,19.5808889 L5.83661111,7.53111111 C5.83661111,6.69924755 6.51096977,6.02488889 7.34283333,6.02488889 Z" id="path-15-success"></path>
        <path d="M28.4299444,6.21316667 L46.5046111,6.21316667 C47.3364747,6.21316667 48.0108333,6.88752533 48.0108333,7.71938889 L48.0108333,13.556 C48.0108333,14.3878636 47.3364747,15.0622222 46.5046111,15.0622222 L28.4299444,15.0622222 C27.5980809,15.0622222 26.9237222,14.3878636 26.9237222,13.556 L26.9237222,7.71938889 C26.9237222,6.88752533 27.5980809,6.21316667 28.4299444,6.21316667 Z" id="path-16-success"></path>
        <circle id="path-17-success" cx="18.0746667" cy="18.0746667" r="18.0746667"></circle>
        <filter x="-58.1%" y="-41.5%" width="216.2%" height="216.2%" filterUnits="objectBoundingBox" id="filter-18">
            <feOffset dx="0" dy="6" in="SourceAlpha" result="shadowOffsetOuter1"></feOffset>
            <feGaussianBlur stdDeviation="6" in="shadowOffsetOuter1" result="shadowBlurOuter1"></feGaussianBlur>
            <feColorMatrix values="0 0 0 0 0.317647059   0 0 0 0 0.345098039   0 0 0 0 0.454901961  0 0 0 0.06 0" type="matrix" in="shadowBlurOuter1" result="shadowMatrixOuter1"></feColorMatrix>
            <feOffset dx="0" dy="4" in="SourceAlpha" result="shadowOffsetOuter2"></feOffset>
            <feGaussianBlur stdDeviation="4" in="shadowOffsetOuter2" result="shadowBlurOuter2"></feGaussianBlur>
            <feColorMatrix values="0 0 0 0 0.11372549   0 0 0 0 0.129411765   0 0 0 0 0.160784314  0 0 0 0.06 0" type="matrix" in="shadowBlurOuter2" result="shadowMatrixOuter2"></feColorMatrix>
            <feOffset dx="0" dy="2" in="SourceAlpha" result="shadowOffsetOuter3"></feOffset>
            <feGaussianBlur stdDeviation="2" in="shadowOffsetOuter3" result="shadowBlurOuter3"></feGaussianBlur>
            <feColorMatrix values="0 0 0 0 0.11372549   0 0 0 0 0.129411765   0 0 0 0 0.160784314  0 0 0 0.06 0" type="matrix" in="shadowBlurOuter3" result="shadowMatrixOuter3"></feColorMatrix>
            <feMerge>
                <feMergeNode in="shadowMatrixOuter1"></feMergeNode>
                <feMergeNode in="shadowMatrixOuter2"></feMergeNode>
                <feMergeNode in="shadowMatrixOuter3"></feMergeNode>
            </feMerge>
        </filter>
    </defs>
    <g id="页面-1" stroke="none" stroke-width="1" fill="none" fill-rule="evenodd">
        <g id="企业认证" transform="translate(-695.000000, -346.000000)">
            <rect id="bg" fill="#F1F1F1" x="220" y="134.138177" width="1220" height="664"></rect>
            <rect id="bg" stroke="#E5E7EC" fill="#FFFFFF" x="228" y="216" width="1204" height="574"></rect>
            <g id="编组-7" transform="translate(654.000000, 362.000000)">
                <g id="编组" transform="translate(41.000000, 0.000000)">
                    <g id="背景/2" transform="translate(51.211556, 12.049778)">
                        <g id="背景/1">
                            <path d="M3.01244444,0 L165.684444,0 C167.348172,0 168.696889,1.34871732 168.696889,3.01244444 L168.696889,117.485333 C168.696889,119.14906 167.348172,120.497778 165.684444,120.497778 L3.01244444,120.497778 C1.34871732,120.497778 0,119.14906 0,117.485333 L0,3.01244444 C0,1.34871732 1.34871732,0 3.01244444,0 Z" id="矩形" fill="#F1F4F8"></path>
                            <path d="M3.01244444,0 L165.684444,0 C167.348172,0 168.696889,1.34871732 168.696889,3.01244444 L168.696889,12.0497778 L0,12.0497778 L0,3.01244444 C0,1.34871732 1.34871732,0 3.01244444,0 Z" id="矩形" fill="#DBDEE3"></path>
                            <circle id="椭圆形" fill="#FFFFFF" cx="9.03733333" cy="6.02488889" r="3.01244444"></circle>
                            <circle id="椭圆形备份" fill="#FFFFFF" cx="21.0871111" cy="6.02488889" r="3.01244444"></circle>
                            <circle id="椭圆形备份-2" fill="#FFFFFF" cx="33.1368889" cy="6.02488889" r="3.01244444"></circle>
                        </g>
                        <g id="编组-2" transform="translate(6.024889, 18.074667)">
                            <path d="M3.01244444,0 L153.634667,0 C155.298394,0 156.647111,1.34871732 156.647111,3.01244444 L156.647111,93.3857778 C156.647111,95.0495049 155.298394,96.3982222 153.634667,96.3982222 L3.01244444,96.3982222 C1.34871732,96.3982222 0,95.0495049 0,93.3857778 L0,3.01244444 C0,1.34871732 1.34871732,0 3.01244444,0 Z" id="矩形" fill="#FFFFFF"></path>
                            <path d="M3.01244444,0 L42.1742222,0 L42.1742222,96.3982222 L3.01244444,96.3982222 C1.34871732,96.3982222 0,95.0495049 0,93.3857778 L0,3.01244444 C0,1.34871732 1.34871732,0 3.01244444,0 Z" id="矩形" fill="#E2E5E9"></path>
                            <path d="M7.53111111,6.02488889 L10.5435556,6.02488889 C11.3754191,6.02488889 12.0497778,6.69924755 12.0497778,7.53111111 L12.0497778,10.5435556 C12.0497778,11.3754191 11.3754191,12.0497778 10.5435556,12.0497778 L7.53111111,12.0497778 C6.69924755,12.0497778 6.02488889,11.3754191 6.02488889,10.5435556 L6.02488889,7.53111111 C6.02488889,6.69924755 6.69924755,6.02488889 7.53111111,6.02488889 Z" id="矩形" fill="#FFFFFF"></path>
                            <path d="M19.5808889,6.02488889 L34.6431111,6.02488889 C35.4749747,6.02488889 36.1493333,6.69924755 36.1493333,7.53111111 L36.1493333,10.5435556 C36.1493333,11.3754191 35.4749747,12.0497778 34.6431111,12.0497778 L19.5808889,12.0497778 C18.7490253,12.0497778 18.0746667,11.3754191 18.0746667,10.5435556 L18.0746667,7.53111111 C18.0746667,6.69924755 18.7490253,6.02488889 19.5808889,6.02488889 Z" id="矩形备份" fill="#FFFFFF"></path>
                            <path d="M7.53111111,18.0746667 L28.6182222,18.0746667 C29.4500858,18.0746667 30.1244444,18.7490253 30.1244444,19.5808889 L30.1244444,22.5933333 C30.1244444,23.4251969 29.4500858,24.0995556 28.6182222,24.0995556 L7.53111111,24.0995556 C6.69924755,24.0995556 6.02488889,23.4251969 6.02488889,22.5933333 L6.02488889,19.5808889 C6.02488889,18.7490253 6.69924755,18.0746667 7.53111111,18.0746667 Z" id="矩形备份-2" fill="#FFFFFF"></path>
                            <path d="M7.53111111,30.1244444 L34.6431111,30.1244444 C35.4749747,30.1244444 36.1493333,30.7988031 36.1493333,31.6306667 L36.1493333,34.6431111 C36.1493333,35.4749747 35.4749747,36.1493333 34.6431111,36.1493333 L7.53111111,36.1493333 C6.69924755,36.1493333 6.02488889,35.4749747 6.02488889,34.6431111 L6.02488889,31.6306667 C6.02488889,30.7988031 6.69924755,30.1244444 7.53111111,30.1244444 Z" id="矩形备份-3" fill="#FFFFFF"></path>
                            <path d="M7.53111111,42.1742222 L22.5933333,42.1742222 C23.4251969,42.1742222 24.0995556,42.8485809 24.0995556,43.6804444 L24.0995556,46.6928889 C24.0995556,47.5247525 23.4251969,48.1991111 22.5933333,48.1991111 L7.53111111,48.1991111 C6.69924755,48.1991111 6.02488889,47.5247525 6.02488889,46.6928889 L6.02488889,43.6804444 C6.02488889,42.8485809 6.69924755,42.1742222 7.53111111,42.1742222 Z" id="矩形备份-4" fill="#FFFFFF"></path>
                            <path d="M7.53111111,54.224 L34.6431111,54.224 C35.4749747,54.224 36.1493333,54.8983587 36.1493333,55.7302222 L36.1493333,58.7426667 C36.1493333,59.5745302 35.4749747,60.2488889 34.6431111,60.2488889 L7.53111111,60.2488889 C6.69924755,60.2488889 6.02488889,59.5745302 6.02488889,58.7426667 L6.02488889,55.7302222 C6.02488889,54.8983587 6.69924755,54.224 7.53111111,54.224 Z" id="矩形备份-5" fill="#FFFFFF"></path>
                        </g>
                        <path d="M55.7302222,24.0995556 L73.8048889,24.0995556 C74.6367525,24.0995556 75.3111111,24.7739142 75.3111111,25.6057778 L75.3111111,31.6306667 C75.3111111,32.4625302 74.6367525,33.1368889 73.8048889,33.1368889 L55.7302222,33.1368889 C54.8983587,33.1368889 54.224,32.4625302 54.224,31.6306667 L54.224,25.6057778 C54.224,24.7739142 54.8983587,24.0995556 55.7302222,24.0995556 Z" id="矩形" fill="#E9ECF0"></path>
                        <rect id="矩形" fill="#FFFFFF" x="60.2488889" y="27.112" width="9.03733333" height="3.01244444" rx="1.50622222"></rect>
                        <path d="M55.7302222,39.1617778 L155.140889,39.1617778 C155.972752,39.1617778 156.647111,39.8361364 156.647111,40.668 L156.647111,64.7675556 C156.647111,65.5994191 155.972752,66.2737778 155.140889,66.2737778 L55.7302222,66.2737778 C54.8983587,66.2737778 54.224,65.5994191 54.224,64.7675556 L54.224,40.668 C54.224,39.8361364 54.8983587,39.1617778 55.7302222,39.1617778 Z" id="矩形" fill="#F1F4F8"></path>
                        <path d="M61.7551111,45.1866667 L94.892,45.1866667 C95.7238636,45.1866667 96.3982222,45.8610253 96.3982222,46.6928889 L96.3982222,49.7053333 C96.3982222,50.5371969 95.7238636,51.2115556 94.892,51.2115556 L61.7551111,51.2115556 C60.9232475,51.2115556 60.2488889,50.5371969 60.2488889,49.7053333 L60.2488889,46.6928889 C60.2488889,45.8610253 60.9232475,45.1866667 61.7551111,45.1866667 Z" id="矩形" fill="#E2E5E9"></path>
                        <path d="M146.103556,45.1866667 L149.116,45.1866667 C149.947864,45.1866667 150.622222,45.8610253 150.622222,46.6928889 L150.622222,49.7053333 C150.622222,50.5371969 149.947864,51.2115556 149.116,51.2115556 L146.103556,51.2115556 C145.271692,51.2115556 144.597333,50.5371969 144.597333,49.7053333 L144.597333,46.6928889 C144.597333,45.8610253 145.271692,45.1866667 146.103556,45.1866667 Z" id="矩形备份-6" fill="#E2E5E9"></path>
                        <g id="编组备份" transform="translate(54.224000, 78.323556)">
                            <g id="椭圆形">
                                <use fill="currentColor" xlink:href="#path-1-success"></use>
                                <use fill-opacity="0.9" fill="#FFFFFF" xlink:href="#path-1-success"></use>
                            </g>
                            <g id="路径">
                                <use fill="currentColor" xlink:href="#path-2-success"></use>
                                <use fill-opacity="0.1" fill="#000000" xlink:href="#path-2-success"></use>
                            </g>
                            <g id="路径">
                                <use fill="currentColor" xlink:href="#path-3-success"></use>
                                <use fill-opacity="0.2" fill="#FFFFFF" xlink:href="#path-3-success"></use>
                            </g>
                            <g id="矩形">
                                <use fill="currentColor" xlink:href="#path-4-success"></use>
                                <use fill-opacity="0.6" fill="#FFFFFF" xlink:href="#path-4-success"></use>
                            </g>
                            <g id="路径">
                                <use fill="currentColor" xlink:href="#path-5-success"></use>
                                <use fill-opacity="0.2" fill="#FFFFFF" xlink:href="#path-5-success"></use>
                            </g>
                            <path d="M2.36297248,1.57531498 L3.93828746,1.57531498 C4.0832912,1.57531498 4.20083996,1.69253812 4.20083996,1.83714019 L4.20083996,3.14626622 C4.20083996,3.65237345 3.78941931,4.06265443 3.28190622,4.06265443 L3.01935372,4.06265443 C2.51184063,4.06265443 2.10041998,3.65237345 2.10041998,3.14626622 L2.10041998,1.83714019 C2.10041998,1.69253812 2.21796874,1.57531498 2.36297248,1.57531498 Z" id="矩形" fill="#FFFFFF"></path>
                        </g>
                        <g id="编组-4" transform="translate(54.224000, 90.373333)">
                            <circle id="椭圆形" fill="#F1F4F8" cx="3.01244444" cy="3.01244444" r="3.01244444"></circle>
                            <g id="路径">
                                <use fill="#DBDEE3" xlink:href="#path-6-success"></use>
                                <use fill-opacity="0.1" fill="#000000" xlink:href="#path-6-success"></use>
                            </g>
                            <g id="路径">
                                <use fill="#DBDEE3" xlink:href="#path-7-success"></use>
                                <use fill-opacity="0.2" fill="#FFFFFF" xlink:href="#path-7-success"></use>
                            </g>
                            <g id="矩形">
                                <use fill="#E9ECF0" xlink:href="#path-8-success"></use>
                                <use fill-opacity="0.6" fill="#FFFFFF" xlink:href="#path-8-success"></use>
                            </g>
                            <path d="M3.53754944,3.78628338 L3.53754944,3.91894149 C3.53754944,4.21200168 3.30245193,4.4495739 3.01244444,4.4495739 L2.58579664,4.4495739 C2.53142023,4.4495739 2.48733945,4.40502911 2.48733945,4.35008033 L2.48733945,3.78628338 L3.53754944,3.78628338 Z" id="路径" fill="#E9ECF0"></path>
                            <path d="M2.36297248,1.57531498 L3.93828746,1.57531498 C4.0832912,1.57531498 4.20083996,1.69253812 4.20083996,1.83714019 L4.20083996,3.14626622 C4.20083996,3.65237345 3.78941931,4.06265443 3.28190622,4.06265443 L3.01935372,4.06265443 C2.51184063,4.06265443 2.10041998,3.65237345 2.10041998,3.14626622 L2.10041998,1.83714019 C2.10041998,1.69253812 2.21796874,1.57531498 2.36297248,1.57531498 Z" id="矩形" fill="#FFFFFF"></path>
                        </g>
                        <g id="编组-4" transform="translate(54.224000, 102.423111)">
                            <circle id="椭圆形" fill="#F1F4F8" cx="3.01244444" cy="3.01244444" r="3.01244444"></circle>
                            <g id="路径">
                                <use fill="#DBDEE3" xlink:href="#path-9-success"></use>
                                <use fill-opacity="0.1" fill="#000000" xlink:href="#path-9-success"></use>
                            </g>
                            <g id="路径">
                                <use fill="#DBDEE3" xlink:href="#path-10-success"></use>
                                <use fill-opacity="0.2" fill="#FFFFFF" xlink:href="#path-10-success"></use>
                            </g>
                            <g id="矩形">
                                <use fill="#E9ECF0" xlink:href="#path-11-success"></use>
                                <use fill-opacity="0.6" fill="#FFFFFF" xlink:href="#path-11-success"></use>
                            </g>
                            <path d="M3.53754944,3.78628338 L3.53754944,3.91894149 C3.53754944,4.21200168 3.30245193,4.4495739 3.01244444,4.4495739 L2.58579664,4.4495739 C2.53142023,4.4495739 2.48733945,4.40502911 2.48733945,4.35008033 L2.48733945,3.78628338 L3.53754944,3.78628338 Z" id="路径" fill="#E9ECF0"></path>
                            <path d="M2.36297248,1.57531498 L3.93828746,1.57531498 C4.0832912,1.57531498 4.20083996,1.69253812 4.20083996,1.83714019 L4.20083996,3.14626622 C4.20083996,3.65237345 3.78941931,4.06265443 3.28190622,4.06265443 L3.01935372,4.06265443 C2.51184063,4.06265443 2.10041998,3.65237345 2.10041998,3.14626622 L2.10041998,1.83714019 C2.10041998,1.69253812 2.21796874,1.57531498 2.36297248,1.57531498 Z" id="矩形" fill="#FFFFFF"></path>
                        </g>
                        <path d="M67.78,78.3235556 L94.892,78.3235556 C95.7238636,78.3235556 96.3982222,78.9979142 96.3982222,79.8297778 L96.3982222,82.8422222 C96.3982222,83.6740858 95.7238636,84.3484444 94.892,84.3484444 L67.78,84.3484444 C66.9481364,84.3484444 66.2737778,83.6740858 66.2737778,82.8422222 L66.2737778,79.8297778 C66.2737778,78.9979142 66.9481364,78.3235556 67.78,78.3235556 Z" id="矩形" fill="#E9ECF0"></path>
                        <path d="M131.041333,78.3235556 L143.091111,78.3235556 C143.922975,78.3235556 144.597333,78.9979142 144.597333,79.8297778 L144.597333,82.8422222 C144.597333,83.6740858 143.922975,84.3484444 143.091111,84.3484444 L131.041333,84.3484444 C130.20947,84.3484444 129.535111,83.6740858 129.535111,82.8422222 L129.535111,79.8297778 C129.535111,78.9979142 130.20947,78.3235556 131.041333,78.3235556 Z" id="矩形备份-9" fill="#E9ECF0"></path>
                        <path d="M67.78,90.3733333 L112.966667,90.3733333 C113.79853,90.3733333 114.472889,91.047692 114.472889,91.8795556 L114.472889,94.892 C114.472889,95.7238636 113.79853,96.3982222 112.966667,96.3982222 L67.78,96.3982222 C66.9481364,96.3982222 66.2737778,95.7238636 66.2737778,94.892 L66.2737778,91.8795556 C66.2737778,91.047692 66.9481364,90.3733333 67.78,90.3733333 Z" id="矩形备份-7" fill="#E9ECF0"></path>
                        <path d="M67.78,102.423111 L103.929333,102.423111 C104.761197,102.423111 105.435556,103.09747 105.435556,103.929333 L105.435556,106.941778 C105.435556,107.773641 104.761197,108.448 103.929333,108.448 L67.78,108.448 C66.9481364,108.448 66.2737778,107.773641 66.2737778,106.941778 L66.2737778,103.929333 C66.2737778,103.09747 66.9481364,102.423111 67.78,102.423111 Z" id="矩形备份-8" fill="#E9ECF0"></path>
                        <g id="椭圆形">
                            <use fill="currentColor" xlink:href="#path-12-success"></use>
                            <use fill-opacity="0.8" fill="#FFFFFF" xlink:href="#path-12-success"></use>
                        </g>
                        <circle id="椭圆形备份-3" fill="#E6F2FE" cx="153.634667" cy="93.3857778" r="3.01244444"></circle>
                        <circle id="椭圆形备份-4" fill="#ECF7F2" cx="153.634667" cy="105.435556" r="3.01244444"></circle>
                        <g id="路径-4" transform="translate(53.847444, 71.922111)" fill="#F1F4F8" fill-rule="nonzero">
                            <path d="M102.799667,0 C103.007633,0 103.176222,0.223857625 103.176222,0.5 C103.176222,0.776142375 103.007633,1 102.799667,1 L0.376555556,1 C0.168589665,1 0,0.776142375 0,0.5 C0,0.223857625 0.168589665,0 0.376555556,0 L102.799667,0 Z" id="路径-3"></path>
                        </g>
                    </g>
                    <g id="前景/审批中" transform="translate(162.860278, 0.000000)">
                        <g id="矩形">
                            <use fill="black" fill-opacity="1" filter="url(#filter-14)" xlink:href="#path-13-success"></use>
                            <use fill="#FFFFFF" fill-rule="evenodd" xlink:href="#path-13-success"></use>
                        </g>
                        <g id="矩形">
                            <use fill="currentColor" xlink:href="#path-15-success"></use>
                            <use fill-opacity="0.8" fill="#FFFFFF" xlink:href="#path-15-success"></use>
                        </g>
                        <g id="矩形">
                            <use fill="currentColor" xlink:href="#path-16-success"></use>
                            <use fill-opacity="0.8" fill="#FFFFFF" xlink:href="#path-16-success"></use>
                        </g>
                        <path d="M28.4299444,18.0746667 L61.5668333,18.0746667 C62.3986969,18.0746667 63.0730556,18.7490253 63.0730556,19.5808889 C63.0730556,20.4127525 62.3986969,21.0871111 61.5668333,21.0871111 L28.4299444,21.0871111 C27.5980809,21.0871111 26.9237222,20.4127525 26.9237222,19.5808889 C26.9237222,18.7490253 27.5980809,18.0746667 28.4299444,18.0746667 Z" id="矩形备份-10" fill="#F1F4F8"></path>
                        <g id="路径-7" transform="translate(5.460056, 26.358889)" fill="#F1F4F8" fill-rule="nonzero">
                            <path d="M81.7125556,0 C81.9205214,0 82.0891111,0.223857625 82.0891111,0.5 C82.0891111,0.776142375 81.9205214,1 81.7125556,1 L0.376555556,1 C0.168589665,1 0,0.776142375 0,0.5 C0,0.223857625 0.168589665,0 0.376555556,0 L81.7125556,0 Z" id="路径-6"></path>
                        </g>
                        <path d="M7.34283333,33.1368889 L85.6663889,33.1368889 C86.4982525,33.1368889 87.1726111,33.8112475 87.1726111,34.6431111 L87.1726111,37.6555556 C87.1726111,38.4874191 86.4982525,39.1617778 85.6663889,39.1617778 L7.34283333,39.1617778 C6.51096977,39.1617778 5.83661111,38.4874191 5.83661111,37.6555556 L5.83661111,34.6431111 C5.83661111,33.8112475 6.51096977,33.1368889 7.34283333,33.1368889 Z" id="矩形" fill="#F1F4F8"></path>
                        <g id="编组" transform="translate(9.413889, 9.037333)" fill="currentColor" fill-rule="nonzero">
                            <path d="M0.191514407,8.13276354 L7.90443004,8.13276354 C8.01029825,8.13276354 8.09594444,8.21879924 8.09594444,8.32514893 L8.09594444,8.84494795 C8.09594444,8.95129763 8.01029825,9.03733333 7.90443004,9.03733333 L0.191514407,9.03733333 C0.0856461945,9.03733333 0,8.95129763 0,8.84494795 L0,8.32514893 C0,8.21879924 0.0856461945,8.13276354 0.191514407,8.13276354 Z M7.49761061,5.722569 L5.98214878,5.722569 C5.57889795,5.722569 5.24226082,5.41188453 5.2101435,5.00799471 C5.12568684,3.9158193 6.29737436,3.39363039 6.29737436,2.05410234 C6.29737436,0.916519194 5.43496476,0 4.04797222,0 C2.66097968,0 1.79975962,0.917714135 1.79975962,2.05410234 C1.79975962,3.39363039 2.97144714,3.9158193 2.88699047,5.00799471 C2.85368362,5.41188453 2.51823603,5.722569 2.11498519,5.722569 L0.598333831,5.722569 C0.267644358,5.722569 0,5.99143056 0,6.32362396 L0,7.33812826 C0,7.44447794 0.0856461945,7.53051364 0.191514407,7.53051364 L7.90443004,7.53051364 C8.01029825,7.53051364 8.09594444,7.44447794 8.09594444,7.33812826 L8.09594444,6.32362396 C8.09594444,5.9926255 7.82830009,5.722569 7.49761061,5.722569 Z" id="形状"></path>
                        </g>
                        <rect id="矩形" fill="#FFFFFF" x="32.9486111" y="9.03733333" width="9.03733333" height="3.01244444" rx="1.50622222"></rect>
                    </g>
                    <g id="元素/闹钟" transform="translate(33.136889, 96.398222)">
                        <g id="椭圆形">
                            <use fill="black" fill-opacity="1" filter="url(#filter-18)" xlink:href="#path-17-success"></use>
                            <use fill="#FFFFFF" fill-rule="evenodd" xlink:href="#path-17-success"></use>
                        </g>
                        <circle id="椭圆形" fill="currentColor" cx="17.7770596" cy="19.6420637" r="8.88852982"></circle>
                        <g id="编组-2" transform="translate(15.951737, 15.991417)" fill="#FFFFFF">
                            <rect id="矩形" x="0" y="0" width="1.88304081" height="6.90448299" rx="0.941520407"></rect>
                            <path d="M3.45224149,2.51072109 C3.97222886,2.51072109 4.3937619,2.93225413 4.3937619,3.45224149 L4.3937619,8.47368366 C4.3937619,8.99367103 3.97222886,9.41520407 3.45224149,9.41520407 C2.93225413,9.41520407 2.51072109,8.99367103 2.51072109,8.47368366 L2.51072109,3.45224149 C2.51072109,2.93225413 2.93225413,2.51072109 3.45224149,2.51072109 Z" id="矩形备份-3" transform="translate(3.452241, 5.962963) rotate(90.000000) translate(-3.452241, -5.962963) "></path>
                        </g>
                        <path d="M9.64590221,9.48068663 L13.5212159,7.19463038 C13.9798466,6.92408309 14.5662954,7.08463787 14.8310859,7.55323952 C15.0958765,8.02184117 14.938738,8.62103977 14.4801073,8.89158706 L10.6047937,11.1776433 C10.146163,11.4481906 9.55971414,11.2876358 9.29492358,10.8190342 C9.03013302,10.3504325 9.18727151,9.75123392 9.64590221,9.48068663 Z" id="矩形" fill="currentColor"></path>
                        <path d="M25.7494933,9.48068663 L21.8741797,7.19463038 C21.415549,6.92408309 20.8291002,7.08463787 20.5643096,7.55323952 C20.299519,8.02184117 20.4566575,8.62103977 20.9152882,8.89158706 L24.7906019,11.1776433 C25.2492326,11.4481906 25.8356814,11.2876358 26.100472,10.8190342 C26.3652625,10.3504325 26.208124,9.75123392 25.7494933,9.48068663 Z" id="矩形备份-4" fill="currentColor"></path>
                    </g>
                </g>
            </g>
        </g>
    </g>
</svg>