<?xml version="1.0" encoding="UTF-8"?>
<svg width="225px" height="168px" viewBox="0 0 225 168" version="1.1" xmlns="http://www.w3.org/2000/svg" xmlns:xlink="http://www.w3.org/1999/xlink">
    <title>img-2</title>
    <defs>
        <path d="M48.5,0 L163.5,0 C163.776142,-5.07265313e-17 164,0.223857625 164,0.5 L164,41.5 C164,41.7761424 163.776142,42 163.5,42 L48.5,42 C48.2238576,42 48,41.7761424 48,41.5 L48,0.5 C48,0.223857625 48.2238576,6.05838044e-16 48.5,0 Z" id="path-1"></path>
        <mask id="mask-2" maskContentUnits="userSpaceOnUse" maskUnits="objectBoundingBox" x="0" y="0" width="116" height="42" fill="white">
            <use xlink:href="#path-1"></use>
        </mask>
        <path d="M2,0 L114,0 C115.104569,-2.02906125e-16 116,0.8954305 116,2 L116,40 C116,41.1045695 115.104569,42 114,42 L2,42 C0.8954305,42 -2.52926451e-15,41.1045695 0,40 L0,2 C-1.3527075e-16,0.8954305 0.8954305,2.02906125e-16 2,0 Z" id="path-3"></path>
        <filter x="-20.7%" y="-45.2%" width="137.9%" height="204.8%" filterUnits="objectBoundingBox" id="filter-4">
            <feMorphology radius="1.5" operator="dilate" in="SourceAlpha" result="shadowSpreadOuter1"></feMorphology>
            <feOffset dx="-2" dy="3" in="shadowSpreadOuter1" result="shadowOffsetOuter1"></feOffset>
            <feGaussianBlur stdDeviation="5" in="shadowOffsetOuter1" result="shadowBlurOuter1"></feGaussianBlur>
            <feColorMatrix values="0 0 0 0 0.2   0 0 0 0 0.2   0 0 0 0 0.2  0 0 0 0.04 0" type="matrix" in="shadowBlurOuter1" result="shadowMatrixOuter1"></feColorMatrix>
            <feMorphology radius="2" operator="dilate" in="SourceAlpha" result="shadowSpreadOuter2"></feMorphology>
            <feOffset dx="-1" dy="2" in="shadowSpreadOuter2" result="shadowOffsetOuter2"></feOffset>
            <feGaussianBlur stdDeviation="3" in="shadowOffsetOuter2" result="shadowBlurOuter2"></feGaussianBlur>
            <feColorMatrix values="0 0 0 0 0.2   0 0 0 0 0.2   0 0 0 0 0.2  0 0 0 0.08 0" type="matrix" in="shadowBlurOuter2" result="shadowMatrixOuter2"></feColorMatrix>
            <feMerge>
                <feMergeNode in="shadowMatrixOuter1"></feMergeNode>
                <feMergeNode in="shadowMatrixOuter2"></feMergeNode>
            </feMerge>
        </filter>
        <path d="M13.9285714,6.19047618 L13.1547619,6.19047618 L13.1547619,4.64285714 C13.1547619,2.50714286 11.4214286,0.77380953 9.28571429,0.77380953 C7.15,0.77380953 5.41666667,2.50714286 5.41666667,4.64285714 L5.41666667,6.19047618 L4.64285714,6.19047618 C3.79166667,6.19047618 3.0952381,6.88690476 3.0952381,7.73809524 L3.0952381,15.4761905 C3.0952381,16.3273809 3.79166667,17.0238095 4.64285714,17.0238095 L13.9285714,17.0238095 C14.7797619,17.0238095 15.4761905,16.327381 15.4761905,15.4761905 L15.4761905,7.73809524 C15.4761905,6.88690477 14.7797619,6.1904762 13.9285714,6.19047618 Z M9.28571429,13.1547619 C8.43452382,13.1547619 7.73809524,12.4583333 7.73809524,11.6071429 C7.73809524,10.7559524 8.43452382,10.0595238 9.28571429,10.0595238 C10.1369048,10.0595238 10.8333333,10.7559524 10.8333333,11.6071429 C10.8333333,12.4583333 10.1369048,13.1547619 9.28571429,13.1547619 Z M11.6845238,6.19047618 L6.88690476,6.19047618 L6.88690476,4.64285714 C6.88690476,3.31964286 7.9625,2.24404761 9.28571429,2.24404761 C10.6089286,2.24404761 11.6845238,3.31964286 11.6845238,4.64285714 L11.6845238,6.19047618 L11.6845238,6.19047618 Z" id="path-5"></path>
    </defs>
    <g id="控件" stroke="none" stroke-width="1" fill="none" fill-rule="evenodd">
        <g id="page/初始化" transform="translate(-720.000000, -374.000000)">
            <g id="编组-5" transform="translate(380.000000, 260.000000)">
                <g id="编组-6" transform="translate(0.000000, 114.000000)">
                    <g id="img-2" transform="translate(340.000000, 0.000000)">
                        <polygon id="蒙版" points="2.10809447e-16 1.78066978e-15 220 1.78066978e-15 220 168 -8.77770079e-15 168"></polygon>
                        <g id="编组-4" transform="translate(20.000000, 20.000000)">
                            <g id="编组-21">
                                <rect id="矩形" fill="#EDEEF1" x="0" y="0" width="180" height="128" rx="2"></rect>
                                <g id="Frame-192" transform="translate(8.000000, 20.000000)">
                                    <rect id="矩形" fill-opacity="0.8" fill="#FFFFFF" fill-rule="nonzero" x="0" y="0" width="40" height="100" rx="2"></rect>
                                    <g id="编组-16" transform="translate(48.000000, 50.000000)" fill-rule="nonzero">
                                        <path d="M2,0 L114,0 C115.104569,-2.02906125e-16 116,0.8954305 116,2 L116,48 C116,49.1045695 115.104569,50 114,50 L2,50 C0.8954305,50 -2.3072199e-15,49.1045695 0,48 L0,2 C-1.3527075e-16,0.8954305 0.8954305,-6.85272294e-16 2,0 Z" id="矩形" fill-opacity="0.8" fill="#FFFFFF"></path>
                                        <rect id="矩形" fill-opacity="0.08" fill="#515874" x="8" y="36" width="64" height="6" rx="1"></rect>
                                        <rect id="矩形" fill-opacity="0.08" fill="#515874" x="8" y="22" width="100" height="6" rx="1"></rect>
                                        <rect id="矩形" fill-opacity="0.08" fill="#515874" x="8" y="8" width="16" height="6" rx="1"></rect>
                                        <rect id="矩形" fill-opacity="0.08" fill="#515874" x="28" y="8" width="16" height="6" rx="1"></rect>
                                        <rect id="矩形" fill-opacity="0.08" fill="#515874" x="48" y="8" width="16" height="6" rx="1"></rect>
                                    </g>
                                    <use id="矩形" stroke-opacity="0.2" stroke="#515874" mask="url(#mask-2)" stroke-width="2" stroke-dasharray="2" xlink:href="#path-1"></use>
                                    <circle id="椭圆形" fill-opacity="0.1" fill="#F2801A" cx="20" cy="20" r="9"></circle>
                                    <path d="M14,26.8118 C14.5514,24.0672 16.9754,22 19.8824,22 C22.7893,22 25.2134,24.0672 25.7647,26.8118 C24.1872,28.1753 22.1311,29 19.8824,29 C17.6336,29 15.5775,28.1753 14,26.8118 Z" id="路径" fill-opacity="0.7" fill="#F2801A"></path>
                                    <circle id="椭圆形" fill="#FFFFFF" fill-rule="nonzero" cx="20" cy="19" r="4"></circle>
                                    <rect id="矩形" fill-opacity="0.08" fill="#515874" fill-rule="nonzero" x="8" y="37" width="24" height="6" rx="1"></rect>
                                    <rect id="矩形" fill-opacity="0.08" fill="#515874" fill-rule="nonzero" x="8" y="47" width="24" height="6" rx="1"></rect>
                                    <rect id="矩形" fill-opacity="0.08" fill="#515874" fill-rule="nonzero" x="8" y="57" width="24" height="6" rx="1"></rect>
                                    <rect id="矩形" fill-opacity="0.08" fill="#515874" fill-rule="nonzero" x="8" y="67" width="24" height="6" rx="1"></rect>
                                </g>
                                <g id="编组-2">
                                    <path d="M2,0 L178,0 C179.104569,-2.02906125e-16 180,0.8954305 180,2 L180,12 L180,12 L0,12 L0,2 C-1.3527075e-16,0.8954305 0.8954305,-2.41183085e-16 2,0 Z" id="矩形" fill-opacity="0.2" fill="#515874"></path>
                                    <circle id="椭圆形" fill="#FFFFFF" cx="10" cy="6" r="2"></circle>
                                    <circle id="椭圆形" fill="#FFFFFF" cx="18" cy="6" r="2"></circle>
                                    <circle id="椭圆形" fill="#FFFFFF" cx="26" cy="6" r="2"></circle>
                                </g>
                            </g>
                            <g id="编组-9" transform="translate(77.000000, 0.000000)">
                                <g id="矩形" fill-rule="nonzero">
                                    <use fill="black" fill-opacity="1" filter="url(#filter-4)" xlink:href="#path-3"></use>
                                    <use fill="#FFFFFF" xlink:href="#path-3"></use>
                                </g>
                                <g id="编组-8" transform="translate(8.000000, 8.000000)">
                                    <rect id="矩形" fill="#3AB445" x="0" y="0" width="26" height="26" rx="1"></rect>
                                    <g id="lock" transform="translate(3.714286, 3.714286)">
                                        <rect id="矩形" fill="#000000" fill-rule="nonzero" opacity="0" x="0" y="0" width="18.5714286" height="18.5714286"></rect>
                                        <mask id="mask-6" fill="white">
                                            <use xlink:href="#path-5"></use>
                                        </mask>
                                        <use id="蒙版" fill="#FFFFFF" fill-rule="nonzero" xlink:href="#path-5"></use>
                                    </g>
                                </g>
                                <path d="M43,9 L107,9 C107.552285,9 108,9.44771525 108,10 L108,12 C108,12.5522847 107.552285,13 107,13 L43,13 C42.4477153,13 42,12.5522847 42,12 L42,10 C42,9.44771525 42.4477153,9 43,9 Z" id="矩形" fill-opacity="0.2" fill="#3AB445"></path>
                                <path d="M43,29 L107,29 C107.552285,29 108,29.4477153 108,30 L108,32 C108,32.5522847 107.552285,33 107,33 L43,33 C42.4477153,33 42,32.5522847 42,32 L42,30 C42,29.4477153 42.4477153,29 43,29 Z" id="矩形" fill-opacity="0.2" fill="#3AB445"></path>
                                <path d="M43,19 L107,19 C107.552285,19 108,19.4477153 108,20 L108,22 C108,22.5522847 107.552285,23 107,23 L43,23 C42.4477153,23 42,22.5522847 42,22 L42,20 C42,19.4477153 42.4477153,19 43,19 Z" id="矩形" fill-opacity="0.2" fill="#3AB445"></path>
                            </g>
                        </g>
                    </g>
                </g>
            </g>
        </g>
    </g>
</svg>