<?xml version="1.0" encoding="UTF-8"?>
<svg width="225px" height="168px" viewBox="0 0 225 168" version="1.1" xmlns="http://www.w3.org/2000/svg" xmlns:xlink="http://www.w3.org/1999/xlink">
    <title>img-1</title>
    <defs>
        <path d="M86.5,0 L163.5,0 C163.776142,-5.07265313e-17 164,0.223857625 164,0.5 L164,41.5 C164,41.7761424 163.776142,42 163.5,42 L86.5,42 C86.2238576,42 86,41.7761424 86,41.5 L86,0.5 C86,0.223857625 86.2238576,7.16860346e-16 86.5,0 Z" id="path-1"></path>
        <mask id="mask-2" maskContentUnits="userSpaceOnUse" maskUnits="objectBoundingBox" x="0" y="0" width="78" height="42" fill="white">
            <use xlink:href="#path-1"></use>
        </mask>
        <path d="M13.9285714,6.19047618 L13.1547619,6.19047618 L13.1547619,4.64285714 C13.1547619,2.50714286 11.4214286,0.77380953 9.28571429,0.77380953 C7.15,0.77380953 5.41666667,2.50714286 5.41666667,4.64285714 L5.41666667,6.19047618 L4.64285714,6.19047618 C3.79166667,6.19047618 3.0952381,6.88690476 3.0952381,7.73809524 L3.0952381,15.4761905 C3.0952381,16.3273809 3.79166667,17.0238095 4.64285714,17.0238095 L13.9285714,17.0238095 C14.7797619,17.0238095 15.4761905,16.327381 15.4761905,15.4761905 L15.4761905,7.73809524 C15.4761905,6.88690477 14.7797619,6.1904762 13.9285714,6.19047618 Z M9.28571429,13.1547619 C8.43452382,13.1547619 7.73809524,12.4583333 7.73809524,11.6071429 C7.73809524,10.7559524 8.43452382,10.0595238 9.28571429,10.0595238 C10.1369048,10.0595238 10.8333333,10.7559524 10.8333333,11.6071429 C10.8333333,12.4583333 10.1369048,13.1547619 9.28571429,13.1547619 Z M11.6845238,6.19047618 L6.88690476,6.19047618 L6.88690476,4.64285714 C6.88690476,3.31964286 7.9625,2.24404761 9.28571429,2.24404761 C10.6089286,2.24404761 11.6845238,3.31964286 11.6845238,4.64285714 L11.6845238,6.19047618 L11.6845238,6.19047618 Z" id="path-3"></path>
        <path d="M2,0 L76,0 C77.1045695,-2.02906125e-16 78,0.8954305 78,2 L78,40 C78,41.1045695 77.1045695,42 76,42 L2,42 C0.8954305,42 1.91162759e-15,41.1045695 0,40 L0,2 C-1.3527075e-16,0.8954305 0.8954305,2.02906125e-16 2,0 Z" id="path-5"></path>
        <filter x="-30.8%" y="-45.2%" width="156.4%" height="204.8%" filterUnits="objectBoundingBox" id="filter-6">
            <feMorphology radius="1.5" operator="dilate" in="SourceAlpha" result="shadowSpreadOuter1"></feMorphology>
            <feOffset dx="-2" dy="3" in="shadowSpreadOuter1" result="shadowOffsetOuter1"></feOffset>
            <feGaussianBlur stdDeviation="5" in="shadowOffsetOuter1" result="shadowBlurOuter1"></feGaussianBlur>
            <feColorMatrix values="0 0 0 0 0.2   0 0 0 0 0.2   0 0 0 0 0.2  0 0 0 0.04 0" type="matrix" in="shadowBlurOuter1" result="shadowMatrixOuter1"></feColorMatrix>
            <feMorphology radius="2" operator="dilate" in="SourceAlpha" result="shadowSpreadOuter2"></feMorphology>
            <feOffset dx="-1" dy="2" in="shadowSpreadOuter2" result="shadowOffsetOuter2"></feOffset>
            <feGaussianBlur stdDeviation="3" in="shadowOffsetOuter2" result="shadowBlurOuter2"></feGaussianBlur>
            <feColorMatrix values="0 0 0 0 0.2   0 0 0 0 0.2   0 0 0 0 0.2  0 0 0 0.08 0" type="matrix" in="shadowBlurOuter2" result="shadowMatrixOuter2"></feColorMatrix>
            <feMerge>
                <feMergeNode in="shadowMatrixOuter1"></feMergeNode>
                <feMergeNode in="shadowMatrixOuter2"></feMergeNode>
            </feMerge>
        </filter>
        <path d="M7.125,0 C7.56041667,0 7.95625,0.174166673 8.24125,0.459166673 L8.24125,0.459166673 L15.36625,7.58416667 C15.65125,7.86916667 15.8333333,8.27291667 15.8333333,8.70833335 C15.8333333,9.14375002 15.6591667,9.53958335 15.36625,9.82458335 L15.36625,9.82458335 L9.82458335,15.36625 C9.53958335,15.6591667 9.14375002,15.8333333 8.70833335,15.8333333 C8.27291667,15.8333333 7.87708335,15.6591667 7.59208335,15.3741667 L7.59208335,15.3741667 L0.467083346,8.24916667 C0.174166673,7.95625 0,7.56041667 0,7.125 L0,7.125 L0,1.58333335 C0,0.7125 0.712500019,0 1.58333335,0 L1.58333335,0 Z M7.91666667,2.31873799 L6.79708094,3.43832373 L7.3568738,7.3568738 L3.43832373,6.79708094 L2.31873799,7.91666667 L6.23728807,8.47645954 L5.11770233,9.59604528 L5.95739163,10.4357346 L7.77618813,8.61670239 L8.33550959,9.17602385 L6.5171845,10.9955274 L7.3568738,11.8352168 L9.17555245,10.0160667 L10.2957864,11.1354757 L11.1354757,10.2957864 L10.0155953,9.17602385 L11.8352168,7.3568738 L10.9955274,6.5171845 L9.17555245,8.33598099 L8.61623098,7.77665953 L10.4357346,5.95739163 L9.59604528,5.11770233 L8.47645954,6.23728807 L7.91666667,2.31873799 Z M2.77083335,1.58333335 C2.11375,1.58333335 1.58333335,2.11375002 1.58333335,2.77083335 C1.58333335,3.42791667 2.11375,3.95833335 2.77083335,3.95833335 C3.42791667,3.95833335 3.95833335,3.42791669 3.95833335,2.77083335 C3.95833335,2.11375 3.42791669,1.58333335 2.77083335,1.58333335 Z" id="path-7"></path>
    </defs>
    <g id="控件" stroke="none" stroke-width="1" fill="none" fill-rule="evenodd">
        <g id="page/初始化" transform="translate(-380.000000, -374.000000)">
            <g id="编组-5" transform="translate(380.000000, 260.000000)">
                <g id="img-1" transform="translate(0.000000, 114.000000)">
                    <path d="M2,0 L218,0 C219.104569,-2.02906125e-16 220,0.8954305 220,2 L220,166 C220,167.104569 219.104569,168 218,168 L2,168 C0.8954305,168 1.02344917e-15,167.104569 0,166 L0,2 C-1.3527075e-16,0.8954305 0.8954305,2.42335217e-15 2,0 Z" id="蒙版"></path>
                    <g id="编组-4" transform="translate(20.000000, 20.000000)">
                        <g id="编组-3">
                            <rect id="矩形" fill="#EDEEF1" x="0" y="0" width="180" height="128" rx="2"></rect>
                            <g id="编组-7" transform="translate(8.000000, 70.000000)">
                                <path d="M2,0 L162,0 C163.104569,-2.02906125e-16 164,0.8954305 164,2 L164,48 C164,49.1045695 163.104569,50 162,50 L2,50 C0.8954305,50 1.91162759e-15,49.1045695 0,48 L0,2 C-1.3527075e-16,0.8954305 0.8954305,-6.85272294e-16 2,0 Z" id="矩形" fill-opacity="0.8" fill="#FFFFFF" fill-rule="nonzero"></path>
                                <g id="导航=off,-样式=样式五" transform="translate(8.000000, 8.000000)">
                                    <g id="编组-13" transform="translate(0.000000, 14.000000)">
                                        <circle id="椭圆形" fill-opacity="0.7" fill="#1984F7" cx="3" cy="3" r="3"></circle>
                                        <rect id="矩形" fill-opacity="0.08" fill="#515874" fill-rule="nonzero" x="10" y="0" width="87" height="6" rx="1"></rect>
                                        <rect id="矩形" fill-opacity="0.08" fill="#515874" fill-rule="nonzero" x="114" y="1" width="12" height="4" rx="1"></rect>
                                        <rect id="矩形" fill-opacity="0.08" fill="#515874" fill-rule="nonzero" x="130" y="1" width="18" height="4" rx="1"></rect>
                                    </g>
                                    <g id="编组-14" transform="translate(0.000000, 28.000000)">
                                        <circle id="椭圆形" fill-opacity="0.7" fill="#F2801A" cx="3" cy="3" r="3"></circle>
                                        <rect id="矩形" fill-opacity="0.08" fill="#515874" fill-rule="nonzero" x="114" y="1" width="12" height="4" rx="1"></rect>
                                        <rect id="矩形" fill-opacity="0.08" fill="#515874" fill-rule="nonzero" x="130" y="1" width="18" height="4" rx="1"></rect>
                                        <rect id="矩形" fill-opacity="0.08" fill="#515874" fill-rule="nonzero" x="10" y="0" width="87" height="6" rx="1"></rect>
                                    </g>
                                    <g id="编组-12">
                                        <circle id="椭圆形" fill-opacity="0.7" fill="#3AB445" cx="3" cy="3" r="3"></circle>
                                        <rect id="矩形" fill-opacity="0.08" fill="#515874" fill-rule="nonzero" x="10" y="0" width="87" height="6" rx="1"></rect>
                                        <rect id="矩形" fill-opacity="0.08" fill="#515874" fill-rule="nonzero" x="114" y="1" width="12" height="4" rx="1"></rect>
                                        <rect id="矩形" fill-opacity="0.08" fill="#515874" fill-rule="nonzero" x="130" y="1" width="18" height="4" rx="1"></rect>
                                    </g>
                                </g>
                            </g>
                            <g id="编组-11" transform="translate(8.000000, 20.000000)">
                                <use id="矩形" stroke-opacity="0.2" stroke="#515874" mask="url(#mask-2)" stroke-width="2" stroke-dasharray="2" xlink:href="#path-1"></use>
                                <g id="编组-9">
                                    <path d="M2,0 L76,0 C77.1045695,-2.02906125e-16 78,0.8954305 78,2 L78,40 C78,41.1045695 77.1045695,42 76,42 L2,42 C0.8954305,42 1.91162759e-15,41.1045695 0,40 L0,2 C-1.3527075e-16,0.8954305 0.8954305,2.02906125e-16 2,0 Z" id="矩形" fill-opacity="0.8" fill="#FFFFFF" fill-rule="nonzero"></path>
                                    <g id="编组-8" transform="translate(8.000000, 8.000000)">
                                        <rect id="矩形" fill-opacity="0.2" fill="#3AB445" x="0" y="0" width="26" height="26" rx="1"></rect>
                                        <g id="lock" transform="translate(3.714286, 3.714286)">
                                            <rect id="矩形" fill="#000000" fill-rule="nonzero" opacity="0" x="0" y="0" width="18.5714286" height="18.5714286"></rect>
                                            <mask id="mask-4" fill="white">
                                                <use xlink:href="#path-3"></use>
                                            </mask>
                                            <use id="蒙版" fill-opacity="0.7" fill="#3AB445" xlink:href="#path-3"></use>
                                        </g>
                                    </g>
                                    <path d="M43,9 L69,9 C69.5522847,9 70,9.44771525 70,10 L70,12 C70,12.5522847 69.5522847,13 69,13 L43,13 C42.4477153,13 42,12.5522847 42,12 L42,10 C42,9.44771525 42.4477153,9 43,9 Z" id="矩形" fill-opacity="0.08" fill="#515874" fill-rule="nonzero"></path>
                                    <path d="M43,29 L69,29 C69.5522847,29 70,29.4477153 70,30 L70,32 C70,32.5522847 69.5522847,33 69,33 L43,33 C42.4477153,33 42,32.5522847 42,32 L42,30 C42,29.4477153 42.4477153,29 43,29 Z" id="矩形" fill-opacity="0.08" fill="#515874" fill-rule="nonzero"></path>
                                    <path d="M43,19 L69,19 C69.5522847,19 70,19.4477153 70,20 L70,22 C70,22.5522847 69.5522847,23 69,23 L43,23 C42.4477153,23 42,22.5522847 42,22 L42,20 C42,19.4477153 42.4477153,19 43,19 Z" id="矩形" fill-opacity="0.08" fill="#515874" fill-rule="nonzero"></path>
                                </g>
                            </g>
                            <g id="编组-2">
                                <path d="M2,0 L178,0 C179.104569,-2.02906125e-16 180,0.8954305 180,2 L180,12 L180,12 L0,12 L0,2 C-1.3527075e-16,0.8954305 0.8954305,-2.41183085e-16 2,0 Z" id="矩形" fill-opacity="0.2" fill="#515874"></path>
                                <circle id="椭圆形" fill="#FFFFFF" cx="10" cy="6" r="2"></circle>
                                <circle id="椭圆形" fill="#FFFFFF" cx="18" cy="6" r="2"></circle>
                                <circle id="椭圆形" fill="#FFFFFF" cx="26" cy="6" r="2"></circle>
                            </g>
                        </g>
                        <g id="编组-9" transform="translate(115.000000, 0.000000)">
                            <g id="矩形" fill-rule="nonzero">
                                <use fill="black" fill-opacity="1" filter="url(#filter-6)" xlink:href="#path-5"></use>
                                <use fill="#FFFFFF" xlink:href="#path-5"></use>
                            </g>
                            <g id="编组-8" transform="translate(8.000000, 8.000000)">
                                <rect id="矩形" fill="#FF7800" x="0" y="0" width="26" height="26" rx="1"></rect>
                                <g id="local_offer" transform="translate(3.500000, 3.500000)">
                                    <rect id="矩形" fill="#000000" fill-rule="nonzero" opacity="0" x="0" y="0" width="19" height="19"></rect>
                                    <g id="编组-10" transform="translate(1.583333, 1.583333)">
                                        <mask id="mask-8" fill="white">
                                            <use xlink:href="#path-7"></use>
                                        </mask>
                                        <use id="形状结合" fill="#FFFFFF" fill-rule="nonzero" xlink:href="#path-7"></use>
                                    </g>
                                </g>
                            </g>
                            <path d="M43,9 L69,9 C69.5522847,9 70,9.44771525 70,10 L70,12 C70,12.5522847 69.5522847,13 69,13 L43,13 C42.4477153,13 42,12.5522847 42,12 L42,10 C42,9.44771525 42.4477153,9 43,9 Z" id="矩形" fill-opacity="0.2" fill="#F2801A"></path>
                            <path d="M43,29 L69,29 C69.5522847,29 70,29.4477153 70,30 L70,32 C70,32.5522847 69.5522847,33 69,33 L43,33 C42.4477153,33 42,32.5522847 42,32 L42,30 C42,29.4477153 42.4477153,29 43,29 Z" id="矩形" fill-opacity="0.2" fill="#F2801A"></path>
                            <path d="M43,19 L69,19 C69.5522847,19 70,19.4477153 70,20 L70,22 C70,22.5522847 69.5522847,23 69,23 L43,23 C42.4477153,23 42,22.5522847 42,22 L42,20 C42,19.4477153 42.4477153,19 43,19 Z" id="矩形" fill-opacity="0.2" fill="#F2801A"></path>
                        </g>
                    </g>
                </g>
            </g>
        </g>
    </g>
</svg>