<?xml version="1.0" encoding="UTF-8"?>
<svg width="225px" height="168px" viewBox="0 0 225 168" version="1.1" xmlns="http://www.w3.org/2000/svg" xmlns:xlink="http://www.w3.org/1999/xlink">
    <title>img-3</title>
    <defs>
        <path d="M10,1 L2,1 C1.5,1 1,1.45 1,2 L1,3.505 C1,3.865 1.215,4.175 1.5,4.35 L1.5,10 C1.5,10.55 2.05,11 2.5,11 L9.5,11 C9.95,11 10.5,10.55 10.5,10 L10.5,4.35 C10.785,4.175 11,3.865 11,3.505 L11,2 C11,1.45 10.5,1 10,1 Z M7.5,7 L4.5,7 L4.5,6 L7.5,6 L7.5,7 Z M10,3.5 L2,3.5 L2,2 L10,1.99 L10,3.5 Z" id="path-1"></path>
        <path d="M0.5,0 L53.5,0 C53.7761424,-5.07265313e-17 54,0.223857625 54,0.5 L54,53.5 C54,53.7761424 53.7761424,54 53.5,54 L0.5,54 C0.223857625,54 -7.4333843e-16,53.7761424 0,53.5 L0,0.5 C-3.38176876e-17,0.223857625 0.223857625,-7.26429586e-16 0.5,0 Z" id="path-3"></path>
        <mask id="mask-4" maskContentUnits="userSpaceOnUse" maskUnits="objectBoundingBox" x="0" y="0" width="54" height="54" fill="white">
            <use xlink:href="#path-3"></use>
        </mask>
        <path d="M2,0 L52,0 C53.1045695,-2.02906125e-16 54,0.8954305 54,2 L54,52 C54,53.1045695 53.1045695,54 52,54 L2,54 C0.8954305,54 1.3527075e-16,53.1045695 0,52 L0,2 C-1.3527075e-16,0.8954305 0.8954305,2.02906125e-16 2,0 Z" id="path-5"></path>
        <filter x="-44.4%" y="-35.2%" width="181.5%" height="181.5%" filterUnits="objectBoundingBox" id="filter-6">
            <feMorphology radius="1.5" operator="dilate" in="SourceAlpha" result="shadowSpreadOuter1"></feMorphology>
            <feOffset dx="-2" dy="3" in="shadowSpreadOuter1" result="shadowOffsetOuter1"></feOffset>
            <feGaussianBlur stdDeviation="5" in="shadowOffsetOuter1" result="shadowBlurOuter1"></feGaussianBlur>
            <feColorMatrix values="0 0 0 0 0.2   0 0 0 0 0.2   0 0 0 0 0.2  0 0 0 0.04 0" type="matrix" in="shadowBlurOuter1" result="shadowMatrixOuter1"></feColorMatrix>
            <feMorphology radius="2" operator="dilate" in="SourceAlpha" result="shadowSpreadOuter2"></feMorphology>
            <feOffset dx="-1" dy="2" in="shadowSpreadOuter2" result="shadowOffsetOuter2"></feOffset>
            <feGaussianBlur stdDeviation="3" in="shadowOffsetOuter2" result="shadowBlurOuter2"></feGaussianBlur>
            <feColorMatrix values="0 0 0 0 0.2   0 0 0 0 0.2   0 0 0 0 0.2  0 0 0 0.08 0" type="matrix" in="shadowBlurOuter2" result="shadowMatrixOuter2"></feColorMatrix>
            <feMerge>
                <feMergeNode in="shadowMatrixOuter1"></feMergeNode>
                <feMergeNode in="shadowMatrixOuter2"></feMergeNode>
            </feMerge>
        </filter>
        <path d="M20.3571429,9.04761904 L19.2261905,9.04761904 L19.2261905,6.78571429 C19.2261905,3.66428571 16.6928571,1.13095239 13.5714286,1.13095239 C10.45,1.13095239 7.91666668,3.66428571 7.91666668,6.78571429 L7.91666668,9.04761904 L6.78571429,9.04761904 C5.54166668,9.04761904 4.52380953,10.0654762 4.52380953,11.3095238 L4.52380953,22.6190476 C4.52380953,23.8630952 5.54166668,24.8809524 6.78571429,24.8809524 L20.3571429,24.8809524 C21.6011905,24.8809524 22.6190476,23.8630952 22.6190476,22.6190476 L22.6190476,11.3095238 C22.6190476,10.0654762 21.6011905,9.04761907 20.3571429,9.04761904 Z M13.5714286,19.2261905 C12.327381,19.2261905 11.3095238,18.2083333 11.3095238,16.9642857 C11.3095238,15.7202381 12.327381,14.702381 13.5714286,14.702381 C14.8154762,14.702381 15.8333333,15.7202381 15.8333333,16.9642857 C15.8333333,18.2083333 14.8154762,19.2261905 13.5714286,19.2261905 Z M17.077381,9.04761904 L10.0654762,9.04761904 L10.0654762,6.78571429 C10.0654762,4.85178571 11.6375,3.2797619 13.5714286,3.2797619 C15.5053571,3.2797619 17.077381,4.85178571 17.077381,6.78571429 L17.077381,9.04761904 L17.077381,9.04761904 Z" id="path-7"></path>
    </defs>
    <g id="控件" stroke="none" stroke-width="1" fill="none" fill-rule="evenodd">
        <g id="page/初始化" transform="translate(-1060.000000, -374.000000)">
            <g id="编组-5" transform="translate(380.000000, 260.000000)">
                <g id="编组-6" transform="translate(0.000000, 114.000000)">
                    <g id="img-3" transform="translate(680.000000, 0.000000)">
                        <polygon id="蒙版" points="2.10809447e-16 1.78066978e-15 220 1.78066978e-15 220 168 -8.77770079e-15 168"></polygon>
                        <g id="编组-4" transform="translate(20.000000, 20.000000)">
                            <g id="编组-24">
                                <rect id="矩形" fill="#EDEEF1" x="0" y="0" width="180" height="128" rx="2"></rect>
                                <g id="编组-7" transform="translate(8.000000, 20.000000)">
                                    <path d="M2,0 L100,0 C101.104569,-2.02906125e-16 102,0.8954305 102,2 L102,98 C102,99.1045695 101.104569,100 100,100 L2,100 C0.8954305,100 -1.19699688e-15,99.1045695 0,98 L0,2 C-1.3527075e-16,0.8954305 0.8954305,1.97926296e-15 2,0 Z" id="矩形" fill-opacity="0.8" fill="#FFFFFF" fill-rule="nonzero"></path>
                                    <g id="编组-19" transform="translate(8.000000, 8.000000)">
                                        <path d="M27,1 L85,1 C85.5522847,1 86,1.44771525 86,2 L86,6 C86,6.55228475 85.5522847,7 85,7 L27,7 C26.4477153,7 26,6.55228475 26,6 L26,2 C26,1.44771525 26.4477153,1 27,1 Z" id="矩形" fill-opacity="0.08" fill="#515874" fill-rule="nonzero"></path>
                                        <path d="M27,11 L85,11 C85.5522847,11 86,11.4477153 86,12 L86,16 C86,16.5522847 85.5522847,17 85,17 L27,17 C26.4477153,17 26,16.5522847 26,16 L26,12 C26,11.4477153 26.4477153,11 27,11 Z" id="矩形" fill-opacity="0.08" fill="#515874" fill-rule="nonzero"></path>
                                        <g id="编组-18">
                                            <rect id="矩形" fill-opacity="0.1" fill="#F2801A" x="0" y="0" width="18" height="18" rx="1"></rect>
                                            <g id="inventory_black_24dp" transform="translate(3.000000, 3.000000)">
                                                <polygon id="路径" points="0 0 12 0 12 12 0 12"></polygon>
                                                <mask id="mask-2" fill="white">
                                                    <use xlink:href="#path-1"></use>
                                                </mask>
                                                <use id="蒙版" fill-opacity="0.7" fill="#F2801A" xlink:href="#path-1"></use>
                                            </g>
                                        </g>
                                        <line x1="5.20417043e-15" y1="26" x2="86" y2="26" id="路径" stroke="#515874" opacity="0.05"></line>
                                        <g id="编组-15" transform="translate(0.000000, 34.000000)">
                                            <path d="M19,21 L19,15 L67,15 L67,21 M43,15 L43,8" id="形状结合" stroke="#515874" opacity="0.05"></path>
                                            <path d="M8,42 L8,36 L31,36 L31,42 M19,35.5 L19,29" id="形状结合" stroke="#515874" opacity="0.05"></path>
                                            <rect id="矩形" fill-opacity="0.08" fill="#515874" fill-rule="nonzero" x="0" y="42" width="16" height="8" rx="1"></rect>
                                            <rect id="矩形" fill-opacity="0.08" fill="#515874" fill-rule="nonzero" x="24" y="42" width="15" height="8" rx="1"></rect>
                                            <path d="M55,42 L55,36 L78,36 L78,42 M67,35.5 L67,29" id="形状结合" stroke="#515874" opacity="0.05"></path>
                                            <rect id="矩形" fill-opacity="0.08" fill="#515874" fill-rule="nonzero" x="70" y="42" width="16" height="8" rx="1"></rect>
                                            <rect id="矩形" fill-opacity="0.08" fill="#515874" fill-rule="nonzero" x="47" y="42" width="15" height="8" rx="1"></rect>
                                            <rect id="矩形" fill-opacity="0.08" fill="#515874" fill-rule="nonzero" x="31" y="0" width="24" height="8" rx="1"></rect>
                                            <rect id="矩形" fill-opacity="0.08" fill="#515874" fill-rule="nonzero" x="7" y="21" width="24" height="8" rx="1"></rect>
                                            <rect id="矩形" fill-opacity="0.08" fill="#515874" fill-rule="nonzero" x="55" y="21" width="24" height="8" rx="1"></rect>
                                        </g>
                                    </g>
                                </g>
                                <g id="Frame-192" transform="translate(118.000000, 20.000000)">
                                    <path d="M2,62 L52,62 C53.1045695,62 54,62.8954305 54,64 L54,98 C54,99.1045695 53.1045695,100 52,100 L2,100 C0.8954305,100 1.3527075e-16,99.1045695 0,98 L0,64 C-1.3527075e-16,62.8954305 0.8954305,62 2,62 Z" id="矩形" fill-opacity="0.8" fill="#FFFFFF" fill-rule="nonzero"></path>
                                    <g id="编组-17" stroke="#515874" stroke-dasharray="2" stroke-opacity="0.2" stroke-width="2">
                                        <use id="矩形" mask="url(#mask-4)" xlink:href="#path-3"></use>
                                    </g>
                                    <path d="M9,70 L45,70 C45.5522847,70 46,70.4477153 46,71 L46,76 C46,76.5522847 45.5522847,77 45,77 L9,77 C8.44771525,77 8,76.5522847 8,76 L8,71 C8,70.4477153 8.44771525,70 9,70 Z" id="矩形" fill-opacity="0.08" fill="#515874" fill-rule="nonzero"></path>
                                    <path d="M9,85 L45,85 C45.5522847,85 46,85.4477153 46,86 L46,91 C46,91.5522847 45.5522847,92 45,92 L9,92 C8.44771525,92 8,91.5522847 8,91 L8,86 C8,85.4477153 8.44771525,85 9,85 Z" id="矩形" fill-opacity="0.08" fill="#515874" fill-rule="nonzero"></path>
                                </g>
                                <g id="编组-2">
                                    <path d="M2,0 L178,0 C179.104569,-2.02906125e-16 180,0.8954305 180,2 L180,12 L180,12 L0,12 L0,2 C-1.3527075e-16,0.8954305 0.8954305,-2.41183085e-16 2,0 Z" id="矩形" fill-opacity="0.2" fill="#515874"></path>
                                    <circle id="椭圆形" fill="#FFFFFF" cx="10" cy="6" r="2"></circle>
                                    <circle id="椭圆形" fill="#FFFFFF" cx="18" cy="6" r="2"></circle>
                                    <circle id="椭圆形" fill="#FFFFFF" cx="26" cy="6" r="2"></circle>
                                </g>
                            </g>
                            <g id="编组-9" transform="translate(139.000000, 0.000000)">
                                <g id="矩形" fill-rule="nonzero">
                                    <use fill="black" fill-opacity="1" filter="url(#filter-6)" xlink:href="#path-5"></use>
                                    <use fill="#FFFFFF" xlink:href="#path-5"></use>
                                </g>
                                <g id="编组-8" transform="translate(8.000000, 8.000000)">
                                    <rect id="矩形" fill="#3AB445" x="0" y="0" width="38" height="38" rx="1"></rect>
                                    <g id="lock" transform="translate(5.428571, 5.428571)">
                                        <rect id="矩形" fill="#000000" fill-rule="nonzero" opacity="0" x="0" y="0" width="27.1428571" height="27.1428571"></rect>
                                        <mask id="mask-8" fill="white">
                                            <use xlink:href="#path-7"></use>
                                        </mask>
                                        <use id="蒙版" fill="#FFFFFF" fill-rule="nonzero" xlink:href="#path-7"></use>
                                    </g>
                                </g>
                            </g>
                        </g>
                    </g>
                </g>
            </g>
        </g>
    </g>
</svg>