<?xml version="1.0" encoding="UTF-8"?>
<svg width="16px" height="16px" viewBox="0 0 16 16" version="1.1" xmlns="http://www.w3.org/2000/svg" xmlns:xlink="http://www.w3.org/1999/xlink">
    <title>cehui16</title>
    <defs>
        <linearGradient x1="50%" y1="0%" x2="50%" y2="100%" id="linearGradient-1">
            <stop stop-color="#F0828D" offset="0%"></stop>
            <stop stop-color="#F45063" offset="100%"></stop>
        </linearGradient>
    </defs>
    <g id="事件流" stroke="none" stroke-width="1" fill="none" fill-rule="evenodd">
        <g id="节点icon" transform="translate(-12.000000, -396.000000)">
            <g id="cehui16" transform="translate(12.000000, 396.000000)">
                <rect id="矩形" fill="#FFFFFF" fill-rule="nonzero" opacity="0.01" x="0" y="0" width="16" height="16"></rect>
                <path d="M14.125,2 C14.6076172,2 15,2.3679286 15,2.82333674 L15,2.82333674 L15,10.5061511 L14.9212444,10.506066 C14.360924,9.36868268 13.3829777,8.5652316 11.9019593,8.28737457 L11.9019593,8.28737457 L11.6819389,8.25093894 L11.6814558,7.98019704 C11.6864891,7.54996785 11.4564999,7.16182186 11.0964136,6.95155989 L11.0964136,6.95155989 L10.9845897,6.89395362 C10.5808133,6.7122 10.1066205,6.76782934 9.7611134,7.03824984 L9.7611134,7.03824984 L7.02936004,9.14974051 C6.71604879,9.39790938 6.52779172,9.77249574 6.52203227,10.1752839 C6.51653019,10.5779538 6.6947208,10.9581081 7.03255165,11.2393686 L7.03255165,11.2393686 L9.82569379,13.3905013 C10.1630463,13.621105 10.5991599,13.6638197 10.9776379,13.4993562 C11.4186079,13.3077374 11.7063222,12.8667321 11.6887073,12.4141989 L11.6887073,12.4141989 L11.6889389,12.3539389 L11.9112974,12.4218349 C12.4524382,12.6139656 12.8643795,12.9502163 13.1739773,13.4236681 L13.1739773,13.4236681 L13.2579389,13.5599389 L13.2798849,13.6078061 C13.3661671,13.7665162 13.4861461,13.8992399 13.6275607,14.0003263 L1.875,14 C1.39238281,14 1,13.6307849 1,13.1766633 L1,13.1766633 L1,2.82333674 C1,2.3679286 1.39238281,2 1.875,2 L1.875,2 Z M12.5,5 L2.5,5 C2.22385763,5 2,5.22385763 2,5.5 C2,5.77614237 2.22385763,6 2.5,6 L2.5,6 L12.5,6 C12.7761424,6 13,5.77614237 13,5.5 C13,5.22385763 12.7761424,5 12.5,5 L12.5,5 Z M6.5,3 C6.3625,3 6.2375,3.05625 6.146875,3.146875 C6.05625,3.2375 6,3.3625 6,3.5 C6,3.7765625 6.2234375,4 6.5,4 C6.6375,4 6.7625,3.94375 6.853125,3.853125 C6.94375,3.7625 7,3.6375 7,3.5 C7,3.3625 6.94375,3.2375 6.853125,3.146875 C6.7625,3.05625 6.6375,3 6.5,3 Z M4.5,3 C4.3625,3 4.2375,3.05625 4.146875,3.146875 C4.05625,3.2375 4,3.3625 4,3.5 C4,3.7765625 4.2234375,4 4.5,4 C4.6375,4 4.7625,3.94375 4.853125,3.853125 C4.94375,3.7625 5,3.6375 5,3.5 C5,3.3625 4.94375,3.2375 4.853125,3.146875 C4.7625,3.05625 4.6375,3 4.5,3 Z M2.5,3 C2.3625,3 2.2375,3.05625 2.146875,3.146875 C2.05625,3.2375 2,3.3625 2,3.5 C2,3.7765625 2.2234375,4 2.5,4 C2.6375,4 2.7625,3.94375 2.853125,3.853125 C2.94375,3.7625 3,3.6375 3,3.5 C3,3.3625 2.94375,3.2375 2.853125,3.146875 C2.7625,3.05625 2.6375,3 2.5,3 Z M10.3728661,7.829679 C10.4294156,7.78542283 10.5080369,7.77619946 10.5743375,7.80604364 C10.6406381,7.83588781 10.6825499,7.89936727 10.6817386,7.9687131 L10.6817386,9.18072734 C13.8602518,9.18072734 14.4277152,11.5615577 14.5031376,13.0010693 C14.5304114,13.0947113 14.4721219,13.1914988 14.3729442,13.2172504 C14.2737666,13.2430019 14.1712574,13.1879659 14.1439835,13.0943239 C13.5352174,12.0244395 12.5008538,11.2914356 10.8792733,11.2354828 C10.8289548,11.2350303 10.7805322,11.2535872 10.7447818,11.2870238 C10.7090313,11.3204603 10.6889194,11.3660022 10.6889217,11.4135143 L10.6889217,12.4144132 C10.6916036,12.4861587 10.6483841,12.5524052 10.5793138,12.5824189 C10.5102435,12.6124327 10.428839,12.6003403 10.3728661,12.5517518 L7.64329541,10.4475894 C7.56502163,10.3821895 7.52080496,10.2878392 7.5221533,10.189161 C7.52356434,10.0904829 7.5704035,9.99726754 7.65047849,9.93384142 L10.3728661,7.829679 Z" id="形状结合" fill="url(#linearGradient-1)"></path>
            </g>
        </g>
    </g>
</svg>