<?xml version="1.0" encoding="UTF-8"?>
<svg width="14px" height="14px" viewBox="0 0 14 14" version="1.1" xmlns="http://www.w3.org/2000/svg" xmlns:xlink="http://www.w3.org/1999/xlink">
    <title>左侧列表/Creating model@v4.0</title>
    <defs>
        <path d="M10.5,8 C12.1568542,8 13.5,9.34314575 13.5,11 C13.5,12.6568542 12.1568542,14 10.5,14 C8.84314575,14 7.5,12.6568542 7.5,11 C7.5,9.34314575 8.84314575,8 10.5,8 Z M6.01162622,0.531107894 C6.31506455,0.361287286 6.68493545,0.361287286 6.98837378,0.531107894 L6.98837378,0.531107894 L11.9883738,3.32938002 C12.3043092,3.50619468 12.5,3.83996676 12.5,4.20201456 L12.5,4.20201456 L12.5011092,7.53577067 C11.9125119,7.1950335 11.2290322,7 10.5,7 C9.83494715,7 9.20780234,7.16230358 8.65601436,7.44946195 L6.97573077,6.4430751 L6.97619048,3.82507899 L6.96851841,3.73664067 C6.92819845,3.50712163 6.73377132,3.3330751 6.5,3.3330751 C6.23700726,3.3330751 6.02380952,3.55335274 6.02380952,3.82507899 L6.02380952,3.82507899 L6.02380952,6.44331706 L3.26120051,8.09778576 L3.19099295,8.14899378 C3.01902191,8.30013477 2.97078296,8.56121396 3.08801435,8.77018228 L3.08801435,8.77018228 L3.1375765,8.84272131 C3.2838597,9.02040319 3.53654758,9.07024407 3.73879949,8.94911964 L3.73879949,8.94911964 L6.49973077,7.2950751 L7.78367167,8.06372503 C6.99421975,8.79439377 6.5,9.83948128 6.5,11 C6.5,11.8507054 6.76556706,12.6393844 7.21832085,13.2876564 L6.98837378,13.416173 C6.68493545,13.5859936 6.31506455,13.5859936 6.01162622,13.416173 L6.01162622,13.416173 L1.01162622,10.6179009 C0.695690793,10.4410862 0.5,10.1073141 0.5,9.74526633 L0.5,9.74526633 L0.5,4.20201456 C0.5,3.83996676 0.695690793,3.50619468 1.01162622,3.32938002 L1.01162622,3.32938002 Z M10.5,9 C10.2545401,9 10.0503916,9.17687516 10.0080557,9.41012437 L10,9.5 L10,10.5 L9,10.5 C8.72385763,10.5 8.5,10.7238576 8.5,11 C8.5,11.2454599 8.67687516,11.4496084 8.91012437,11.4919443 L9,11.5 L10,11.5 L10,12.5 C10,12.7761424 10.2238576,13 10.5,13 C10.7454599,13 10.9496084,12.8231248 10.9919443,12.5898756 L11,12.5 L11,11.5 L12,11.5 C12.2761424,11.5 12.5,11.2761424 12.5,11 C12.5,10.7545401 12.3231248,10.5503916 12.0898756,10.5080557 L12,10.5 L11,10.5 L11,9.5 C11,9.22385763 10.7761424,9 10.5,9 Z" id="path-1"></path>
    </defs>
    <g id="页面-1" stroke="none" stroke-width="1" fill="none" fill-rule="evenodd">
        <g id="模型管理" transform="translate(-308.000000, -186.000000)">
            <g id="编组-10备份" transform="translate(220.000000, 96.000000)">
                <g id="编组-17备份-6" transform="translate(0.000000, 1.000000)">
                    <g id="编组-10" transform="translate(88.000000, 87.000000)">
                        <g id="左侧列表/Creating-model" transform="translate(0.000000, 2.000000)">
                            <mask id="mask-2" fill="white">
                                <use xlink:href="#path-1"></use>
                            </mask>
                            <use id="路径-26" fill="#AAADBA" xlink:href="#path-1"></use>
                            <g id="编组" mask="url(#mask-2)">
                                <g transform="translate(-33.000000, -33.000000)">
                                    <rect id="矩形" fill="#29BECE" x="0" y="0" width="80" height="80"></rect>
                                </g>
                            </g>
                        </g>
                    </g>
                </g>
            </g>
        </g>
    </g>
</svg>