<?xml version="1.0" encoding="UTF-8"?>
<svg width="12px" height="12px" viewBox="0 0 12 12" version="1.1" xmlns="http://www.w3.org/2000/svg" xmlns:xlink="http://www.w3.org/1999/xlink">
    <title>customize</title>
    <g id="页面" stroke="none" stroke-width="1" fill="none" fill-rule="evenodd">
        <g id="模型" transform="translate(-1448.000000, -2677.000000)" fill="#9650DC" fill-rule="nonzero">
            <g id="编组-10备份-2" transform="translate(1372.000000, 2567.000000)">
                <g id="编组-19" transform="translate(12.000000, 106.000000)">
                    <g id="编组-8" transform="translate(58.000000, 0.000000)">
                        <path d="M16.8,4 L7.2,4 C6.54,4 6,4.53035714 6,5.17857143 L6,6.35714286 C6,6.57321429 6.18,6.75 6.4,6.75 L17.6,6.75 C17.82,6.75 18,6.57321429 18,6.35714286 L18,5.17857143 C18,4.53035714 17.46,4 16.8,4 Z M16.8,7.92857143 L7.2,7.92857143 C6.98,7.92857143 6.8,8.10535714 6.8,8.32142857 L6.8,14.8214286 C6.8,15.4696429 7.34,16 8,16 L16,16 C16.66,16 17.2,15.4696429 17.2,14.8214286 L17.2,8.32142857 C17.2,8.10535714 17.02,7.92857143 16.8,7.92857143 Z M14.2,9.58928571 C14.2,9.90357143 13.94,10.1785714 13.6,10.1785714 L10.4,10.1785714 C10.08,10.1785714 9.8,9.92321429 9.8,9.58928571 C9.8,9.275 10.06,9 10.4,9 L13.6,9 C13.94,9 14.2,9.25535714 14.2,9.58928571 L14.2,9.58928571 Z" id="customize"></path>
                    </g>
                </g>
            </g>
        </g>
    </g>
</svg>