<?xml version="1.0" standalone="no"?><!DOCTYPE svg PUBLIC "-//W3C//DTD SVG 1.1//EN" "http://www.w3.org/Graphics/SVG/1.1/DTD/svg11.dtd"><svg t="1589434692009" class="icon" viewBox="0 0 1024 1024" version="1.1" xmlns="http://www.w3.org/2000/svg" p-id="1828" width="18" height="18" xmlns:xlink="http://www.w3.org/1999/xlink"><defs><style type="text/css"></style></defs><path d="M0 0h1024v1024H0z" fill="#515151" opacity=".01" p-id="1829"></path><path d="M728.362667 426.666667H810.666667a42.666667 42.666667 0 0 1 42.666666 42.666666v85.333334a42.666667 42.666667 0 0 1-42.666666 42.666666h-82.304L597.333333 728.362667V810.666667a42.666667 42.666667 0 0 1-42.666666 42.666666h-85.333334a42.666667 42.666667 0 0 1-42.666666-42.666666v-82.304L295.637333 597.333333H213.333333a42.666667 42.666667 0 0 1-42.666666-42.666666v-85.333334a42.666667 42.666667 0 0 1 42.666666-42.666666h82.304L426.666667 295.637333V213.333333a42.666667 42.666667 0 0 1 42.666666-42.666666h85.333334a42.666667 42.666667 0 0 1 42.666666 42.666666v82.304L728.362667 426.666667z m-39.637334 20.693333l-112.085333-112.085333A42.453333 42.453333 0 0 1 554.666667 341.333333h-85.333334a42.453333 42.453333 0 0 1-21.973333-6.058666l-112.085333 112.085333c3.84 6.4 6.058667 13.952 6.058666 21.973333v85.333334a42.453333 42.453333 0 0 1-6.058666 21.973333l112.085333 112.085333A42.453333 42.453333 0 0 1 469.333333 682.666667h85.333334c8.021333 0 15.530667 2.218667 21.973333 6.058666l112.085333-112.085333A42.453333 42.453333 0 0 1 682.666667 554.666667v-85.333334c0-8.021333 2.218667-15.530667 6.058666-21.973333zM469.333333 213.333333v85.333334h85.333334V213.333333h-85.333334z m-256 256v85.333334h85.333334v-85.333334H213.333333z m256 256v85.333334h85.333334v-85.333334h-85.333334z m256-256v85.333334h85.333334v-85.333334h-85.333334z m-277.333333-42.666666h128a21.333333 21.333333 0 1 1 0 42.666666h-128a21.333333 21.333333 0 1 1 0-42.666666z m0 128h128a21.333333 21.333333 0 1 1 0 42.666666h-128a21.333333 21.333333 0 1 1 0-42.666666z" fill="#515151" p-id="1830"></path></svg>