<?xml version="1.0" encoding="UTF-8"?>
<svg width="14px" height="14px" viewBox="0 0 14 14" version="1.1" xmlns="http://www.w3.org/2000/svg" xmlns:xlink="http://www.w3.org/1999/xlink">
    <title>delete</title>
    <defs>
        <path d="M12.5,3 C12.7761424,3 13,3.22385763 13,3.5 C13,3.77614237 12.7761424,4 12.5,4 L11,4 L11,12.5 C11,12.7761424 10.7761424,13 10.5,13 L3.5,13 C3.22385763,13 3,12.7761424 3,12.5 L3,4 L1.5,4 C1.22385763,4 1,3.77614237 1,3.5 C1,3.22385763 1.22385763,3 1.5,3 L12.5,3 Z M5.5,6 C5.22385763,6 5,6.22385763 5,6.5 L5,6.5 L5,9.5 C5,9.77614237 5.22385763,10 5.5,10 C5.77614237,10 6,9.77614237 6,9.5 L6,9.5 L6,6.5 C6,6.22385763 5.77614237,6 5.5,6 Z M8.5,6 C8.22385763,6 8,6.22385763 8,6.5 L8,6.5 L8,9.5 C8,9.77614237 8.22385763,10 8.5,10 C8.77614237,10 9,9.77614237 9,9.5 L9,9.5 L9,6.5 C9,6.22385763 8.77614237,6 8.5,6 Z M9.5,1 C9.77614237,1 10,1.22385763 10,1.5 C10,1.77614237 9.77614237,2 9.5,2 L4.5,2 C4.22385763,2 4,1.77614237 4,1.5 C4,1.22385763 4.22385763,1 4.5,1 L9.5,1 Z" id="path-1"></path>
    </defs>
    <g id="-----6.6表格" stroke="none" stroke-width="1" fill="none" fill-rule="evenodd">
        <g id="4-选择" transform="translate(-1368.000000, -3263.000000)">
            <g id="编组备份-4" transform="translate(424.000000, 3218.000000)">
                <g id="编组" transform="translate(944.000000, 45.000000)">
                    <rect id="矩形" fill-opacity="0.01" fill="#FFFFFF" x="0" y="0" width="14" height="14"></rect>
                    <mask id="mask-2" fill="white">
                        <use xlink:href="#path-1"></use>
                    </mask>
                    <use id="矩形备份-4" fill="#5A6677" xlink:href="#path-1"></use>
                    <g mask="url(#mask-2)">
                        <g transform="translate(-33.000000, -33.000000)">
                            <rect id="主色" fill="#5A6677" x="0" y="0" width="80" height="80"></rect>
                        </g>
                    </g>
                </g>
            </g>
        </g>
    </g>
</svg>