<?xml version="1.0" encoding="UTF-8"?>
<svg width="24px" height="24px" viewBox="0 0 24 24" version="1.1" xmlns="http://www.w3.org/2000/svg" xmlns:xlink="http://www.w3.org/1999/xlink">
    <!-- Generator: Sketch 58 (84663) - https://sketch.com -->
    <title>delete-assembly</title>
    <desc>Created with Sketch.</desc>
    <g id="事件流" stroke="none" stroke-width="1" fill="none" fill-rule="evenodd">
        <g id="页面设计器条件" transform="translate(-1098.000000, -362.000000)">
            <g id="编组-4" transform="translate(302.000000, 126.000000)">
                <g id="delete-assembly" transform="translate(796.000000, 236.000000)">
                    <rect id="矩形" fill-opacity="0.01" fill="#FFFFFF" x="0" y="0" width="24" height="24"></rect>
                    <g id="编组-27" transform="translate(6.000000, 5.000000)" fill="#F75E5E">
                        <path d="M11.375,1.75 L11.375,12.5 C11.375,13.3284271 10.7034271,14 9.875,14 L2.375,14 C1.54657288,14 0.875,13.3284271 0.875,12.5 L0.875,1.75 L11.375,1.75 Z M3.9375,5.25 C3.7227226,5.25 3.54409268,5.40476577 3.50704871,5.60885882 L3.5,5.6875 L3.5,10.0625 C3.5,10.3041246 3.69587542,10.5 3.9375,10.5 C4.1522774,10.5 4.33090732,10.3452342 4.36795129,10.1411412 L4.375,10.0625 L4.375,5.6875 C4.375,5.44587542 4.17912458,5.25 3.9375,5.25 Z M6.125,5.25 C5.9102226,5.25 5.73159268,5.40476577 5.69454871,5.60885882 L5.6875,5.6875 L5.6875,10.0625 C5.6875,10.3041246 5.88337542,10.5 6.125,10.5 C6.3397774,10.5 6.51840732,10.3452342 6.55545129,10.1411412 L6.5625,10.0625 L6.5625,5.6875 C6.5625,5.44587542 6.36662458,5.25 6.125,5.25 Z M8.3125,5.25 C8.07087542,5.25 7.875,5.44587542 7.875,5.6875 L7.875,5.6875 L7.875,10.0625 C7.875,10.3041246 8.07087542,10.5 8.3125,10.5 C8.55412458,10.5 8.75,10.3041246 8.75,10.0625 L8.75,10.0625 L8.75,5.6875 C8.75,5.44587542 8.55412458,5.25 8.3125,5.25 Z" id="矩形-5"></path>
                        <rect id="矩形" x="0" y="1.75" width="12.25" height="1" rx="0.5"></rect>
                        <rect id="矩形" x="3.5" y="0" width="5.25" height="1" rx="0.5"></rect>
                    </g>
                </g>
            </g>
        </g>
    </g>
</svg>