<?xml version="1.0" encoding="UTF-8"?>
<svg width="14px" height="14px" viewBox="0 0 14 14" version="1.1" xmlns="http://www.w3.org/2000/svg" xmlns:xlink="http://www.w3.org/1999/xlink">
    <!-- Generator: Sketch 58 (84663) - https://sketch.com -->
    <title>edit</title>
    <desc>Created with Sketch.</desc>
    <g id="模型" stroke="none" stroke-width="1" fill="none" fill-rule="evenodd">
        <g id="基础数据结构-API空太" transform="translate(-616.000000, -86.000000)">
            <g id="edit" transform="translate(616.000000, 86.000000)">
                <rect id="矩形" fill="#D8D8D8" opacity="0.01" x="0" y="0" width="14" height="14"></rect>
                <path d="M11.0961941,3.52512627 L8.97487373,1.40380592 L10.0355339,0.343145751 C10.2307961,0.147883605 10.5473785,0.147883605 10.7426407,0.343145751 L12.1568542,1.75735931 C12.3521164,1.95262146 12.3521164,2.26920395 12.1568542,2.46446609 L11.0961941,3.52512627 Z M11.5,12 C11.7761424,12 12,12.2238576 12,12.5 C12,12.7761424 11.7761424,13 11.5,13 L2.5,13 C2.22385763,13 2,12.7761424 2,12.5 C2,12.2238576 2.22385763,12 2.5,12 L11.5,12 Z M10.5,10 C10.7761424,10 11,10.2238576 11,10.5 C11,10.7761424 10.7761424,11 10.5,11 L6.5,11 C6.22385763,11 6,10.7761424 6,10.5 C6,10.2238576 6.22385763,10 6.5,10 L10.5,10 Z M8.26776695,2.1109127 L10.3890873,4.23223305 L4.26083183,10.3604885 C4.10783295,10.5134874 3.90933677,10.6127344 3.69513808,10.6433324 L1.55023394,10.9497289 L1.85666335,8.80485187 C1.88726412,8.5906594 1.98651007,8.39216959 2.13950488,8.23917478 L8.26776695,2.1109127 Z" id="形状" fill="#5A6677"></path>
            </g>
        </g>
    </g>
</svg>