<?xml version="1.0" encoding="UTF-8"?>
<svg width="20px" height="20px" viewBox="0 0 20 20" version="1.1" xmlns="http://www.w3.org/2000/svg" xmlns:xlink="http://www.w3.org/1999/xlink">
    <title>编组 43@v4.0</title>
    <g id="页面-1" stroke="none" stroke-width="1" fill="none" fill-rule="evenodd">
        <g id="编组-44" transform="translate(-181.000000, -63.000000)">
            <g id="编组-43" transform="translate(181.000000, 63.000000)">
                <rect id="矩形备份-27" fill="#B6B6B6" opacity="0.01" x="0" y="0" width="20" height="20"></rect>
                <path d="M14,15 C14.5522847,15 15,15.4477153 15,16 C15,16.5522847 14.5522847,17 14,17 C13.4477153,17 13,16.5522847 13,16 C13,15.4477153 13.4477153,15 14,15 Z M4.93933983,11.4928932 L6,12.5535534 L7.06066017,11.4928932 C7.45118446,11.1023689 8.08434944,11.1023689 8.47487373,11.4928932 C8.86539803,11.8834175 8.86539803,12.5165825 8.47487373,12.9071068 L7.41421356,13.967767 L8.47487373,15.0284271 C8.86539803,15.4189514 8.86539803,16.0521164 8.47487373,16.4426407 C8.08434944,16.833165 7.45118446,16.833165 7.06066017,16.4426407 L6,15.3819805 L4.93933983,16.4426407 C4.54881554,16.833165 3.91565056,16.833165 3.52512627,16.4426407 C3.13460197,16.0521164 3.13460197,15.4189514 3.52512627,15.0284271 L4.58578644,13.967767 L3.52512627,12.9071068 C3.13460197,12.5165825 3.13460197,11.8834175 3.52512627,11.4928932 C3.91565056,11.1023689 4.54881554,11.1023689 4.93933983,11.4928932 Z M16,13 C16.5522847,13 17,13.4477153 17,14 C17,14.5522847 16.5522847,15 16,15 L12,15 C11.4477153,15 11,14.5522847 11,14 C11,13.4477153 11.4477153,13 12,13 L16,13 Z M14,11 C14.5522847,11 15,11.4477153 15,12 C15,12.5522847 14.5522847,13 14,13 C13.4477153,13 13,12.5522847 13,12 C13,11.4477153 13.4477153,11 14,11 Z M6,3 C6.55228475,3 7,3.44771525 7,4 L7,5 L8,5 C8.55228475,5 9,5.44771525 9,6 C9,6.55228475 8.55228475,7 8,7 L7,7 L7,8 C7,8.55228475 6.55228475,9 6,9 C5.44771525,9 5,8.55228475 5,8 L5,7 L4,7 C3.44771525,7 3,6.55228475 3,6 C3,5.44771525 3.44771525,5 4,5 L5,5 L5,4 C5,3.44771525 5.44771525,3 6,3 Z M16,5 C16.5522847,5 17,5.44771525 17,6 C17,6.55228475 16.5522847,7 16,7 L12,7 C11.4477153,7 11,6.55228475 11,6 C11,5.44771525 11.4477153,5 12,5 L16,5 Z" id="矩形-18" fill="#29BECE"></path>
            </g>
        </g>
    </g>
</svg>