<?xml version="1.0" encoding="UTF-8"?>
<svg width="14px" height="14px" viewBox="0 0 14 14" version="1.1" xmlns="http://www.w3.org/2000/svg" xmlns:xlink="http://www.w3.org/1999/xlink">
    <title>fabu</title>
    <g id="页面-1" stroke="none" stroke-width="1" fill="none" fill-rule="evenodd">
        <g id="事务处理流配置页" transform="translate(-1292.000000, -65.000000)">
            <g id="btn-保存备份" transform="translate(1280.000000, 58.000000)">
                <g id="fabu" transform="translate(12.000000, 7.000000)">
                    <rect id="矩形" fill-opacity="0.01" fill="#FFFFFF" x="0" y="0" width="14" height="14"></rect>
                    <path d="M12.9462087,1.5426183 L12.0077843,12.5121923 C11.9763752,12.879344 11.5721071,13.0875386 11.2549764,12.8998818 L7.85473595,10.8878457 L6.02260749,12.4132656 C5.72733659,12.6591065 5.27664707,12.4938983 5.21021371,12.1154683 L4.68411182,9.11858892 L1.24214542,7.0467766 C0.899293513,6.8404048 0.925731022,6.33493066 1.28824086,6.16545097 L12.2362692,1.04705622 C12.5847577,0.884131759 12.9789986,1.15932543 12.9462087,1.5426183 Z M11.8761104,2.31932653 L2.56180024,6.67392944 L5.39503825,8.37933174 C5.51904828,8.45397672 5.60462604,8.57869834 5.62965284,8.72126068 L6.04594166,11.0926024 L7.48591936,9.89368499 C7.64842837,9.75838089 7.87848359,9.73993907 8.0604715,9.84762741 L11.0792638,11.6339478 L11.8761104,2.31932653 Z M9.94627883,3.98642111 C10.1448045,3.79447796 10.461342,3.79981415 10.6532852,3.99833982 C10.8452283,4.19686549 10.8398921,4.513403 10.6413664,4.70534614 L10.6413664,4.70534614 L7.20863331,8.02426002 L7.20863331,9.23348309 C7.20863331,9.50962547 6.98477568,9.73348309 6.70863331,9.73348309 C6.43249093,9.73348309 6.20863331,9.50962547 6.20863331,9.23348309 L6.20863331,9.23348309 L6.20863331,7.81219869 C6.20863331,7.67666742 6.26365268,7.54694228 6.3610895,7.45273617 L6.3610895,7.45273617 Z" id="形状结合" fill="#465476" fill-rule="nonzero"></path>
                </g>
            </g>
        </g>
    </g>
</svg>