<?xml version="1.0" encoding="UTF-8"?>
<svg width="16px" height="16px" viewBox="0 0 16 16" version="1.1" xmlns="http://www.w3.org/2000/svg" xmlns:xlink="http://www.w3.org/1999/xlink">
    <!-- Generator: Sketch 58 (84663) - https://sketch.com -->
    <title>field@v4.0</title>
    <desc>Created with Sketch.</desc>
    <g id="UIUX优化" stroke="none" stroke-width="1" fill="none" fill-rule="evenodd">
        <g id="模型属性面板" transform="translate(-235.000000, -99.000000)" fill-rule="nonzero">
            <g id="编组-8" transform="translate(63.000000, 94.000000)">
                <g id="field" transform="translate(172.000000, 5.000000)">
                    <rect id="矩形" fill="#FFFFFF" opacity="0.01" x="0" y="0" width="16" height="16"></rect>
                    <path d="M6.6875,1 C7.36354417,1 7.92897476,1.51357825 7.993875,2.1865 L8,2.3125 C8,1.58762627 8.58762627,1 9.3125,1 L13.6875,1 C14.4123737,1 15,1.58762627 15,2.3125 L15,11.9375 C15,12.6623737 14.4123737,13.25 13.6875,13.25 L9.75,13.25 C8.83420333,13.2497102 8.07305971,13.9555326 8.004375,14.86875 L8,15 C8,14.0335017 7.21649831,13.25 6.25,13.25 L2.3125,13.25 C1.58762627,13.25 1,12.6623737 1,11.9375 L1,2.3125 C1,1.58762627 1.58762627,1 2.3125,1 L6.6875,1 Z M13.2874763,6.46508857 L10.7874763,6.46508857 C10.5113339,6.46508857 10.2874763,6.6889462 10.2874763,6.96508857 C10.2874763,7.24123094 10.5113339,7.46508857 10.7874763,7.46508857 L10.7874763,7.46508857 L11.5374763,7.46508857 L11.5374763,10.4650886 C11.5374763,10.7412309 11.7613339,10.9650886 12.0374763,10.9650886 C12.3136187,10.9650886 12.5374763,10.7412309 12.5374763,10.4650886 L12.5374763,10.4650886 L12.5374763,7.46508857 L13.2874763,7.46508857 C13.5636187,7.46508857 13.7874763,7.24123094 13.7874763,6.96508857 C13.7874763,6.6889462 13.5636187,6.46508857 13.2874763,6.46508857 L13.2874763,6.46508857 Z M11.2874763,3.96508857 L7.28747629,3.96508857 C7.01133392,3.96508857 6.78747629,4.1889462 6.78747629,4.46508857 C6.78747629,4.74123094 7.01133392,4.96508857 7.28747629,4.96508857 L7.28747629,4.96508857 L8.78747629,4.96508857 L8.78747629,10.4650886 C8.78747629,10.7412309 9.01133392,10.9650886 9.28747629,10.9650886 C9.56361867,10.9650886 9.78747629,10.7412309 9.78747629,10.4650886 L9.78747629,10.4650886 L9.78747629,4.96508857 L11.2874763,4.96508857 C11.5636187,4.96508857 11.7874763,4.74123094 11.7874763,4.46508857 C11.7874763,4.1889462 11.5636187,3.96508857 11.2874763,3.96508857 L11.2874763,3.96508857 Z M6.15002371,8.76315036 L2.65002371,8.76315036 C2.40839913,8.76315036 2.21252371,8.95902578 2.21252371,9.20065036 C2.21252371,9.44227494 2.40839913,9.63815036 2.65002371,9.63815036 L6.15002371,9.63815036 C6.39164828,9.63815036 6.58752371,9.44227494 6.58752371,9.20065036 C6.58752371,8.95902578 6.39164828,8.76315036 6.15002371,8.76315036 Z M6.15002371,6.36184964 L2.65002371,6.36184964 C2.40839913,6.36184964 2.21252371,6.55772506 2.21252371,6.79934964 C2.21252371,7.04097422 2.40839913,7.23684964 2.65002371,7.23684964 L6.15002371,7.23684964 C6.39164828,7.23684964 6.58752371,7.04097422 6.58752371,6.79934964 C6.58752371,6.55772506 6.39164828,6.36184964 6.15002371,6.36184964 Z" id="形状结合" fill="#A4A6B1"></path>
                </g>
            </g>
        </g>
    </g>
</svg>