<?xml version="1.0" standalone="no"?><!DOCTYPE svg PUBLIC "-//W3C//DTD SVG 1.1//EN" "http://www.w3.org/Graphics/SVG/1.1/DTD/svg11.dtd"><svg t="1587181618798" class="icon" viewBox="0 0 1024 1024" version="1.1" xmlns="http://www.w3.org/2000/svg" p-id="8082" width="16" height="16" xmlns:xlink="http://www.w3.org/1999/xlink"><defs><style type="text/css"></style></defs><path d="M321.6 346.5h381c21.4 0 39-17.5 39-39 0-21.4-17.5-39-39-39h-381c-21.4 0-39 17.5-39 39 0 21.4 17.5 39 39 39zM282.6 488.5c0 21.4 17.5 39 39 39h381c21.4 0 39-17.5 39-39 0-21.4-17.5-39-39-39h-381c-21.5 0-39 17.5-39 39z" p-id="8083" fill="#13227a"></path><path d="M908.5 113.9c0-27.6-22.4-50-50-50H166.8c-27.6 0-50 22.4-50 50v794.7c0 27.6 22.4 50 50 50h307.3c20.8-0.3 37.5-17.2 37.5-38s-16.7-37.7-37.5-38H192.8V139.9h639.7v418.8c0 21 17 38 38 38s38-17 38-38V113.9zM568.8 954.6l105.9-26.5-68.4-72.8z" p-id="8084" fill="#13227a"></path><path d="M623.9 839.9l66.2 70.6 167.6-174.3-68.4-70.5zM820.2 634.8L807 650.2l68.4 72.8 13.2-13.2c22.1-24.3 6.6-41.9-11-61.8-19.9-19.8-37.5-35.3-57.4-13.2z" p-id="8085" fill="#13227a"></path></svg>