<?xml version="1.0" encoding="UTF-8"?>
<svg width="20px" height="20px" viewBox="0 0 20 20" version="1.1" xmlns="http://www.w3.org/2000/svg" xmlns:xlink="http://www.w3.org/1999/xlink">
    <title>formula</title>
    <defs>
        <rect id="path-1" x="0" y="0" width="20" height="20"></rect>
    </defs>
    <g id="页面-1" stroke="none" stroke-width="1" fill="none" fill-rule="evenodd">
        <g id="icon" transform="translate(-269.000000, -573.000000)">
            <g id="formula" transform="translate(269.000000, 573.000000)">
                <mask id="mask-2" fill="white">
                    <use xlink:href="#path-1"></use>
                </mask>
                <use id="矩形备份-15" fill-opacity="0.01" fill="#FFFFFF" xlink:href="#path-1"></use>
                <path d="M17,2 C17.5522847,2 18,2.44771525 18,3 L18,17 C18,17.5522847 17.5522847,18 17,18 L3,18 C2.44771525,18 2,17.5522847 2,17 L2,3 C2,2.44771525 2.44771525,2 3,2 L17,2 Z M17,3 L3,3 L3,17 L17,17 L17,3 Z M11.2373347,4.8 C11.7357596,4.8 12.1517803,5.02561125 12.4381946,5.45363261 C12.6427125,5.77005004 12.7663433,6.1318762 12.7982126,6.50728517 C12.8118552,6.67901304 12.7572362,6.84919448 12.646205,6.98090878 C12.5367919,7.11225583 12.379003,7.19389064 12.2085832,7.20732009 C11.8531921,7.23117338 11.5450187,6.96406596 11.5181487,6.60889023 C11.5053481,6.47848373 11.4269442,6.10326501 11.2365347,6.10326501 C11.1581308,6.10326501 11.0165237,6.22247097 10.8589158,6.55768769 C10.7141086,6.86330294 10.6101034,7.22652104 10.5477003,7.44333186 L10.5477003,7.44333186 L10.5116985,7.56573797 C10.4964978,7.61934065 10.4580958,7.76414786 10.3620911,8.14416682 L10.3620911,8.14416682 L11.0981278,8.14416682 C11.455089,8.14768564 11.7419807,8.43922768 11.7397598,8.79619934 C11.7419807,9.153171 11.455089,9.44471305 11.0981278,9.44823186 L11.0981278,9.44823186 L10.0436752,9.44823186 C9.68685739,10.9171051 9.33003959,12.4059794 8.98122219,13.8724526 L8.98122219,13.8724526 L8.97962209,13.8796529 C8.83561493,14.3724775 8.3459905,15.2005188 7.413944,15.2005188 L7.413944,15.2005188 L7.23070506,15.190707 C6.28528424,15.0875332 5.77941541,14.1946333 5.62505476,13.6532416 C5.5694105,13.4579497 5.60757475,13.2478915 5.72835817,13.0846537 C5.84914158,12.921416 6.03885837,12.8234949 6.24188553,12.8196001 C6.52835662,12.8223156 6.77896012,13.0130346 6.85791626,13.2884234 C6.85951635,13.2940237 7.05792624,13.8980538 7.413944,13.8980538 C7.57075183,13.8980538 7.69875821,13.6516415 7.74516053,13.5188349 L7.74516053,13.5188349 L7.79556304,13.3092245 C7.93637006,12.717995 8.3619913,10.9307058 8.72120921,9.44743184 L8.72120921,9.44743184 L7.74836067,9.44743184 C7.39474305,9.44743184 7.10672868,9.15541726 7.10672868,8.79619934 C7.10630107,8.6240688 7.17387232,8.45873488 7.29473805,8.3361764 C7.41356218,8.21365805 7.57688591,8.14440417 7.74756065,8.14416682 L7.74756065,8.14416682 L9.03962509,8.14416682 C9.16683145,7.63134125 9.24843552,7.31052523 9.28363727,7.19131929 L9.28363727,7.19131929 L9.31723895,7.07691357 C9.4204441,6.71929573 9.57645188,6.17766872 9.85646584,5.70884533 C10.2172838,5.10561525 10.681307,4.8 11.2373347,4.8 Z M13.7558603,9.60023945 C14.0910771,9.60023945 14.3542902,9.88505365 14.3542902,10.2482718 C14.3542902,10.4658826 14.2622856,10.6218904 14.1926821,10.7202953 L14.1926821,10.7202953 L14.1886819,10.7258956 L13.5582505,11.5603372 L14.209483,12.4083795 C14.3390894,12.5819882 14.3998925,12.7459964 14.3998925,12.9284055 C14.3998925,13.3108245 14.1446797,13.600439 13.8062629,13.600439 C13.5198486,13.600439 13.3518402,13.4100295 13.2502351,13.2668223 L13.2502351,13.2668223 L13.247035,13.2620221 L12.7886121,12.577988 L12.3285892,13.2636222 C12.164581,13.4916336 11.9925724,13.600439 11.7989627,13.600439 C11.462946,13.600439 11.1997045,13.3156248 11.1997045,12.9532067 C11.1982233,12.7790459 11.2570185,12.609727 11.3661411,12.4739828 L11.3661411,12.4739828 L12.0365746,11.576338 L11.4341445,10.7906988 C11.3053381,10.6186903 11.2453351,10.4546821 11.2453351,10.272273 C11.2453351,9.88905386 11.5005479,9.60023945 11.8389647,9.60023945 C12.124579,9.60023945 12.2933874,9.79064896 12.3949925,9.93385609 L12.3949925,9.93385609 L12.3965926,9.93625621 L12.807013,10.5570872 L13.2262339,9.93625621 C13.287837,9.85065195 13.4694461,9.60023945 13.7558603,9.60023945 Z" id="矩形" fill="#0840F8" fill-rule="nonzero" mask="url(#mask-2)"></path>
            </g>
        </g>
    </g>
</svg>