<?xml version="1.0" encoding="UTF-8"?>
<svg width="14px" height="14px" viewBox="0 0 14 14" version="1.1" xmlns="http://www.w3.org/2000/svg" xmlns:xlink="http://www.w3.org/1999/xlink">
    <!-- Generator: Sketch 58 (84663) - https://sketch.com -->
    <title>help@v4.0</title>
    <desc>Created with Sketch.</desc>
    <g id="展现" stroke="none" stroke-width="1" fill="none" fill-rule="evenodd">
        <g id="统计区关闭、属性面板" transform="translate(-1287.000000, -123.000000)" fill="#5A6677" fill-rule="nonzero">
            <g id="help" transform="translate(1287.000000, 123.000000)">
                <path d="M7,14 C10.8659932,14 14,10.8659932 14,7 C14,3.13400675 10.8659932,0 7,0 C3.13400675,0 0,3.13400675 0,7 C0,10.8659932 3.13400675,14 7,14 Z M7,13 C3.6862915,13 1,10.3137085 1,7 C1,3.6862915 3.6862915,1 7,1 C10.3137085,1 13,3.6862915 13,7 C13,10.3137085 10.3137085,13 7,13 Z" id="椭圆形"></path>
                <path d="M6.98712558,3.28753291 C7.69112558,3.28753291 8.25212558,3.47453291 8.68112558,3.87053291 C9.08812558,4.24453291 9.29712558,4.76153291 9.29712558,5.42153291 C9.29712558,5.91653291 9.15412558,6.34553291 8.87912558,6.70853291 C8.76912558,6.84053291 8.47212558,7.12653291 7.98812558,7.55553291 C7.74612558,7.76453291 7.58112558,7.96253291 7.47112558,8.16053291 C7.32812558,8.40253291 7.26212558,8.66653291 7.26212558,8.96353291 L7.26212558,9.21653291 L6.38212558,9.21653291 L6.38212558,8.96353291 C6.38212558,8.60053291 6.44812558,8.28153291 6.58012558,8.00653291 C6.73412558,7.67653291 7.09712558,7.25853291 7.69112558,6.73053291 C7.86712558,6.55453291 7.99912558,6.42253291 8.06512558,6.33453291 C8.28512558,6.05953291 8.39512558,5.77353291 8.39512558,5.46553291 C8.39512558,5.02553291 8.26312558,4.68453291 8.02112558,4.44253291 C7.76812558,4.17853291 7.40512558,4.05753291 6.94312558,4.05753291 C6.39312558,4.05753291 5.98612558,4.23353291 5.72212558,4.59653291 C5.48012558,4.90453291 5.35912558,5.32253291 5.35912558,5.86153291 L4.49012558,5.86153291 C4.49012558,5.09153291 4.69912558,4.47553291 5.13912558,4.01353291 C5.57912558,3.52953291 6.19512558,3.28753291 6.98712558,3.28753291 Z M6.82212558,9.98653291 C7.00912558,9.98653291 7.17412558,10.0415329 7.30612558,10.1735329 C7.42712558,10.2945329 7.49312558,10.4485329 7.49312558,10.6355329 C7.49312558,10.8335329 7.42712558,10.9875329 7.29512558,11.1085329 C7.16312558,11.2295329 7.00912558,11.2955329 6.82212558,11.2955329 C6.63512558,11.2955329 6.48112558,11.2295329 6.34912558,11.1085329 C6.21712558,10.9765329 6.16212558,10.8225329 6.16212558,10.6355329 C6.16212558,10.4485329 6.21712558,10.2945329 6.34912558,10.1735329 C6.48112558,10.0415329 6.63512558,9.98653291 6.82212558,9.98653291 Z" id="？"></path>
            </g>
        </g>
    </g>
</svg>