<?xml version="1.0" encoding="UTF-8"?>
<svg width="12px" height="12px" viewBox="0 0 12 12" version="1.1" xmlns="http://www.w3.org/2000/svg" xmlns:xlink="http://www.w3.org/1999/xlink">
    <!-- Generator: Sketch 58 (84663) - https://sketch.com -->
    <title>model-biao</title>
    <desc>Created with Sketch.</desc>
    <g id="模型" stroke="none" stroke-width="1" fill="none" fill-rule="evenodd">
        <g id="平台/租户级展现" transform="translate(-138.000000, -210.000000)" fill-rule="nonzero">
            <g id="model-biao" transform="translate(138.000000, 210.000000)">
                <path d="M10.6671049,0 L1.33401692,0 C0.600639765,0 0,0.599524989 0,1.33191163 L0,10.6669491 C0,11.400475 0.600657288,12 1.33401692,12 L10.6671049,12 C11.3994829,12 12,11.400475 12,10.666949 L12,1.33191161 C12,0.599524989 11.3994829,0 10.6671049,0" id="路径" fill="#59CFAA"></path>
                <path d="M2.86,2.928 L5.676,2.928 L5.676,2.312 L6.444,2.312 L6.444,2.928 L9.26,2.928 L9.26,3.632 L6.444,3.632 L6.444,4.216 L8.796,4.216 L8.796,4.92 L6.444,4.92 L6.444,5.504 L9.54,5.504 L9.54,6.2 L6.716,6.2 C6.908,6.64 7.148,7.032 7.42,7.376 C7.836,7.168 8.228,6.864 8.612,6.448 L9.14,6.96 C8.756,7.344 8.324,7.64 7.86,7.864 C8.356,8.352 8.956,8.72 9.644,8.976 L9.228,9.648 C7.772,9.048 6.7,7.896 6.02,6.2 L5.82,6.2 C5.548,6.576 5.212,6.928 4.812,7.248 L4.812,8.752 C5.364,8.576 5.916,8.384 6.468,8.168 L6.612,8.864 C5.756,9.2 4.884,9.472 4.004,9.688 L3.748,9.04 C3.956,8.952 4.068,8.824 4.068,8.656 L4.068,7.752 C3.668,7.984 3.236,8.2 2.756,8.4 L2.356,7.736 C3.548,7.328 4.428,6.816 5.004,6.2 L2.58,6.2 L2.58,5.504 L5.676,5.504 L5.676,4.92 L3.324,4.92 L3.324,4.216 L5.676,4.216 L5.676,3.632 L2.86,3.632 L2.86,2.928 Z" id="表" fill="#FFFFFF"></path>
            </g>
        </g>
    </g>
</svg>