<?xml version="1.0" encoding="UTF-8"?>
<svg width="12px" height="12px" viewBox="0 0 12 12" version="1.1" xmlns="http://www.w3.org/2000/svg" xmlns:xlink="http://www.w3.org/1999/xlink">
    <!-- Generator: Sketch 58 (84663) - https://sketch.com -->
    <title>modular</title>
    <desc>Created with Sketch.</desc>
    <g id="模型" stroke="none" stroke-width="1" fill="none" fill-rule="evenodd">
        <g id="平台/租户级展现" transform="translate(-138.000000, -262.000000)">
            <g id="modular" transform="translate(144.000000, 268.000000) scale(-1, 1) translate(-144.000000, -268.000000) translate(138.000000, 262.000000)">
                <rect id="矩形" fill="#D8D8D8" opacity="0.01" x="0" y="0" width="12" height="12"></rect>
                <path d="M2.17126629,7.82812053 L0.343145751,6 C-0.0473785412,5.60947571 -0.0473785412,4.97631073 0.343145751,4.58578644 L1.4641595,3.46477268 C1.3144896,3.39327449 1.17422087,3.29554122 1.05025253,3.17157288 C0.464466094,2.58578644 0.464466094,1.63603897 1.05025253,1.05025253 C1.63603897,0.464466094 2.58578644,0.464466094 3.17157288,1.05025253 C3.29554122,1.17422087 3.39327449,1.3144896 3.46477268,1.4641595 L4.58578644,0.343145751 C4.97631073,-0.0473785412 5.60947571,-0.0473785412 6,0.343145751 L7.82812053,2.17126629 C7.67845063,2.24276448 7.53818191,2.34049775 7.41421356,2.46446609 C6.82842712,3.05025253 6.82842712,4 7.41421356,4.58578644 C8,5.17157288 8.94974747,5.17157288 9.53553391,4.58578644 C9.65950225,4.46181809 9.75723552,4.32154937 9.82873371,4.17187947 L11.6568542,6 C12.0473785,6.39052429 12.0473785,7.02368927 11.6568542,7.41421356 L10.5358405,8.53522732 C10.6855104,8.60672551 10.8257791,8.70445878 10.9497475,8.82842712 C11.5355339,9.41421356 11.5355339,10.363961 10.9497475,10.9497475 C10.363961,11.5355339 9.41421356,11.5355339 8.82842712,10.9497475 C8.70445878,10.8257791 8.60672551,10.6855104 8.53522732,10.5358405 L7.41421356,11.6568542 C7.02368927,12.0473785 6.39052429,12.0473785 6,11.6568542 L4.17187947,9.82873371 C4.32154937,9.75723552 4.46181809,9.65950225 4.58578644,9.53553391 C5.17157288,8.94974747 5.17157288,8 4.58578644,7.41421356 C4,6.82842712 3.05025253,6.82842712 2.46446609,7.41421356 C2.34049775,7.53818191 2.24276448,7.67845063 2.17126629,7.82812053 Z" id="路径" fill="#5A7DED"></path>
            </g>
        </g>
    </g>
</svg>