<?xml version="1.0" encoding="UTF-8"?>
<svg width="13px" height="13px" viewBox="0 0 13 13" version="1.1" xmlns="http://www.w3.org/2000/svg" xmlns:xlink="http://www.w3.org/1999/xlink">
    <title>左侧列表/Model@v4.0</title>
    <defs>
        <path d="M11,8 C12.6568542,8 14,9.34314575 14,11 C14,12.6568542 12.6568542,14 11,14 C9.34314575,14 8,12.6568542 8,11 C8,9.34314575 9.34314575,8 11,8 Z M12.5,3 C12.7761424,3 13,3.22385763 13,3.5 L13.0011092,7.53577067 C12.4125119,7.1950335 11.7290322,7 11,7 C8.790861,7 7,8.790861 7,11 C7,11.7290322 7.1950335,12.4125119 7.53577067,13.0011092 L3.5,13 C3.22385763,13 3,12.7761424 3,12.5 L3,3.5 C3,3.22385763 3.22385763,3 3.5,3 L12.5,3 Z M12.1760531,9.98538523 L10.8515262,11.4829701 L10.0513912,10.7410723 C9.848899,10.5533184 9.53254205,10.5652661 9.34478812,10.7677583 C9.15703419,10.9702504 9.16898189,11.2866074 9.37147405,11.4743613 L10.4718989,12.4946926 C10.6878906,12.6949635 11.0118429,12.7058876 11.2394044,12.5351826 L11.3292858,12.4522198 L12.9251141,10.6478862 C13.1080587,10.4410387 13.0886816,10.1250498 12.8818341,9.94210521 C12.6749866,9.75916061 12.3589977,9.77853774 12.1760531,9.98538523 Z M10.5,1 C10.7761424,1 11,1.22385763 11,1.5 L11,1.999 L2.5,2 C2.25454011,2 2.05039163,2.17687516 2.00805567,2.41012437 L2,2.5 L2,2.5 L1.999,11 L1.5,11 C1.22385763,11 1,10.7761424 1,10.5 L1,1.5 C1,1.22385763 1.22385763,1 1.5,1 L10.5,1 Z M6.5,9 L5.5,9 C5.22385763,9 5,9.22385763 5,9.5 C5,9.77614237 5.22385763,10 5.5,10 L5.5,10 L6.5,10 C6.77614237,10 7,9.77614237 7,9.5 C7,9.22385763 6.77614237,9 6.5,9 L6.5,9 Z M6.5,7 L5.5,7 C5.22385763,7 5,7.22385763 5,7.5 C5,7.77614237 5.22385763,8 5.5,8 L5.5,8 L6.5,8 C6.77614237,8 7,7.77614237 7,7.5 C7,7.22385763 6.77614237,7 6.5,7 L6.5,7 Z M9.5,5 L5.5,5 C5.22385763,5 5,5.22385763 5,5.5 C5,5.77614237 5.22385763,6 5.5,6 L5.5,6 L9.5,6 C9.77614237,6 10,5.77614237 10,5.5 C10,5.22385763 9.77614237,5 9.5,5 L9.5,5 Z" id="path-1"></path>
    </defs>
    <g id="页面-1" stroke="none" stroke-width="1" fill="none" fill-rule="evenodd">
        <g id="icon" transform="translate(-705.000000, -110.000000)">
            <g id="左侧列表/Model" transform="translate(704.000000, 109.000000)">
                <mask id="mask-2" fill="white">
                    <use xlink:href="#path-1"></use>
                </mask>
                <use id="矩形-2" fill="#5A6677" xlink:href="#path-1"></use>
                <g id="编组" mask="url(#mask-2)">
                    <g transform="translate(-33.000000, -33.000000)">
                        <rect id="矩形" fill="#29BECE" x="0" y="0" width="80" height="80"></rect>
                    </g>
                </g>
            </g>
        </g>
    </g>
</svg>