<?xml version="1.0" encoding="UTF-8"?>
<svg width="20px" height="20px" viewBox="0 0 20 20" version="1.1" xmlns="http://www.w3.org/2000/svg" xmlns:xlink="http://www.w3.org/1999/xlink">
    <title>integer</title>
    <defs>
        <rect id="path-1" x="0" y="0" width="20" height="20"></rect>
    </defs>
    <g id="页面-1" stroke="none" stroke-width="1" fill="none" fill-rule="evenodd">
        <g id="icon" transform="translate(-269.000000, -179.000000)">
            <g id="integer" transform="translate(269.000000, 179.000000)">
                <mask id="mask-2" fill="white">
                    <use xlink:href="#path-1"></use>
                </mask>
                <use id="矩形备份-7" fill-opacity="0.01" fill="#FFFFFF" xlink:href="#path-1"></use>
                <path d="M17,2 C17.5522847,2 18,2.44771525 18,3 L18,17 C18,17.5522847 17.5522847,18 17,18 L3,18 C2.44771525,18 2,17.5522847 2,17 L2,3 C2,2.44771525 2.44771525,2 3,2 L17,2 Z M17,3 L3,3 L3,17 L17,17 L17,3 Z" id="矩形" fill="#0840F8" fill-rule="nonzero" mask="url(#mask-2)"></path>
                <path d="M4.5,5 C4.77614237,5 5,5.22385763 5,5.5 L5,14.5 C5,14.7761424 4.77614237,15 4.5,15 C4.22385763,15 4,14.7761424 4,14.5 L4,5.5 C4,5.22385763 4.22385763,5 4.5,5 Z M9.5,5 C9.77614237,5 10,5.22385763 10,5.5 L10,9.5 L10,9.5 C10,9.74545989 9.82312484,9.94960837 9.58987563,9.99194433 L9.5,10 L9.5,10 L7,10 L7,14 L9.5,14 C9.77614237,14 10,14.2238576 10,14.5 C10,14.7761424 9.77614237,15 9.5,15 L6.5,15 C6.22385763,15 6,14.7761424 6,14.5 L6,9.5 C6,9.22385763 6.22385763,9 6.5,9 L9,9 L9,6 L6.5,6 C6.22385763,6 6,5.77614237 6,5.5 C6,5.22385763 6.22385763,5 6.5,5 L9.5,5 L9.5,5 Z M15.5,5 C15.7761424,5 16,5.22385763 16,5.5 L16,14.5 L16,14.5 C16,14.7454599 15.8231248,14.9496084 15.5898756,14.9919443 L15.5,15 L15.5,15 L11.5,15 C11.2238576,15 11,14.7761424 11,14.5 C11,14.2238576 11.2238576,14 11.5,14 L15,14 L15,10 L11.5,10 C11.2238576,10 11,9.77614237 11,9.5 C11,9.22385763 11.2238576,9 11.5,9 L15,9 L15,6 L11.5,6 C11.2238576,6 11,5.77614237 11,5.5 C11,5.22385763 11.2238576,5 11.5,5 L15.5,5 L15.5,5 Z" id="形状结合" fill="#0840F8" mask="url(#mask-2)"></path>
            </g>
        </g>
    </g>
</svg>