<?xml version="1.0" encoding="UTF-8"?>
<svg width="14px" height="14px" viewBox="0 0 14 14" version="1.1" xmlns="http://www.w3.org/2000/svg" xmlns:xlink="http://www.w3.org/1999/xlink">
    <title>显示字段</title>
    <g id="页面-1" stroke="none" stroke-width="1" fill="none" fill-rule="evenodd">
        <g id="5-配置字段" transform="translate(-478.000000, -151.000000)">
            <g id="编组-2" transform="translate(242.000000, 80.000000)">
                <g id="显示字段" transform="translate(236.000000, 71.000000)">
                    <rect id="矩形" fill-opacity="0.01" fill="#FFFFFF" x="0" y="0" width="14" height="14"></rect>
                    <path d="M10.0002506,8.8 C11.1438934,8.8 12.2135484,9.37747466 12.9345645,10.3509053 C13.2884905,10.8233964 13.2884905,11.5229715 12.9352072,11.9940099 C12.2136704,12.9681387 11.1435684,13.545778 10.0002506,13.545778 C8.85651522,13.545778 7.78676666,12.9681876 7.06543548,11.9948727 C6.71150952,11.5223816 6.71150952,10.8228065 7.06475011,10.3518257 C7.78581433,9.37760467 8.85599414,8.8 10.0002506,8.8 Z M12.5,1 C12.7761424,1 13,1.22385763 13,1.5 L13,7.5 C13,7.77614237 12.7761424,8 12.5,8 C12.2238576,8 12,7.77614237 12,7.5 L12,2 L2,2 L2,12 L6,12 L6,13 L1.5,13 C1.22385763,13 1,12.7761424 1,12.5 L1,1.5 C1,1.22385763 1.22385763,1 1.5,1 L12.5,1 Z M10.0002506,9.60090203 C9.09294588,9.60090203 8.25413616,10.0743895 7.67989115,10.9330227 C7.57473937,11.0593311 7.57473937,11.2864469 7.69257976,11.4297553 C8.24651072,12.2604211 9.112942,12.7443748 10.0002506,12.7443748 C10.8748352,12.7443748 11.7154511,12.2699765 12.3199519,11.4129441 C12.4252868,11.2860994 12.4252868,11.0593625 12.3074202,10.9160228 C11.7459582,10.0740634 10.9077546,9.60090203 10.0002506,9.60090203 Z M9.999,9.802 L10.154097,9.81014669 C10.4615221,9.84346668 10.7502364,9.98067084 10.9710121,10.2015411 C11.2285909,10.4592303 11.3722404,10.8093428 11.3698822,11.1723879 C11.3698822,11.9411373 10.7565974,12.5425207 10.0002506,12.5425207 C9.25452267,12.5425207 8.63011777,11.9179322 8.63011777,11.1723879 C8.63011777,10.4706964 9.18322636,9.87613538 9.87001377,9.80861502 L9.999,9.802 Z M10.003455,10.6036326 C9.84612934,10.6011142 9.70077538,10.6598784 9.59410523,10.7664791 C9.48743507,10.8730797 9.42857619,11.0183954 9.43099192,11.175727 C9.42847304,11.3265763 9.48728732,11.4719883 9.59396873,11.5786697 C9.70065015,11.6853511 9.84606215,11.7441654 10.0034572,11.7416444 C10.1542431,11.7440623 10.2995587,11.6852034 10.4061594,11.5785332 C10.51276,11.4718631 10.5715242,11.3265091 10.5690059,11.1691834 C10.5714211,11.0184625 10.5126123,10.8732049 10.4060229,10.7666155 C10.2994335,10.6600261 10.1541759,10.6012173 10.003455,10.6036326 Z M9.5,4 C9.77614237,4 10,4.22385763 10,4.5 C10,4.77614237 9.77614237,5 9.5,5 L7.5,5 L7.5,8.5 C7.5,8.77614237 7.27614237,9 7,9 C6.72385763,9 6.5,8.77614237 6.5,8.5 L6.5,5 L4.5,5 C4.22385763,5 4,4.77614237 4,4.5 C4,4.22385763 4.22385763,4 4.5,4 L9.5,4 Z" id="路径-2" fill="#0840F8" fill-rule="nonzero"></path>
                </g>
            </g>
        </g>
    </g>
</svg>