<?xml version="1.0" encoding="UTF-8"?>
<svg width="12px" height="12px" viewBox="0 0 12 12" version="1.1" xmlns="http://www.w3.org/2000/svg" xmlns:xlink="http://www.w3.org/1999/xlink">
    <!-- Generator: Sketch 58 (84663) - https://sketch.com -->
    <title>page</title>
    <desc>Created with Sketch.</desc>
    <g id="模型" stroke="none" stroke-width="1" fill="none" fill-rule="evenodd">
        <g id="平台/租户级展现" transform="translate(-138.000000, -210.000000)">
            <g id="page" transform="translate(138.000000, 210.000000)">
                <rect id="矩形" fill="#D8D8D8" opacity="0.01" x="0" y="0" width="12" height="12"></rect>
                <path d="M7,0 L7,3 C7,3.51283584 7.38604019,3.93550716 7.88337887,3.99327227 L8,4 L11,4 L11,11 C11,11.5522847 10.5522847,12 10,12 L2,12 C1.44771525,12 1,11.5522847 1,11 L1,1 C1,0.44771525 1.44771525,1.01453063e-16 2,0 L7,0 Z M8.5,9 L3.5,9 C3.22385763,9 3,9.22385763 3,9.5 C3,9.77614237 3.22385763,10 3.5,10 L3.5,10 L8.5,10 C8.77614237,10 9,9.77614237 9,9.5 C9,9.22385763 8.77614237,9 8.5,9 L8.5,9 Z M8.5,6 L3.5,6 C3.22385763,6 3,6.22385763 3,6.5 C3,6.74545989 3.17687516,6.94960837 3.41012437,6.99194433 L3.5,7 L8.5,7 C8.77614237,7 9,6.77614237 9,6.5 C9,6.22385763 8.77614237,6 8.5,6 Z M5.5,3 L3.5,3 C3.22385763,3 3,3.22385763 3,3.5 C3,3.74545989 3.17687516,3.94960837 3.41012437,3.99194433 L3.5,4 L5.5,4 C5.77614237,4 6,3.77614237 6,3.5 C6,3.22385763 5.77614237,3 5.5,3 Z M8,0 L11,3 L8.5,3 C8.22385763,3 8,2.77614237 8,2.5 L8,0 Z" id="矩形-3" fill="#59CFAA"></path>
            </g>
        </g>
    </g>
</svg>