<?xml version="1.0" encoding="UTF-8"?>
<svg width="14px" height="14px" viewBox="0 0 14 14" version="1.1" xmlns="http://www.w3.org/2000/svg" xmlns:xlink="http://www.w3.org/1999/xlink">
    <title>shibai-tishi</title>
    <g id="业务对象" stroke="none" stroke-width="1" fill="none" fill-rule="evenodd">
        <g id="发布校验" transform="translate(-86.000000, -104.000000)">
            <g id="编组-6" transform="translate(32.000000, 19.000000)">
                <g id="编组-2" transform="translate(42.000000, 77.923291)">
                    <g id="shibai-tishi" transform="translate(12.000000, 7.076709)">
                        <rect id="矩形" fill-opacity="0.01" fill="#FFFFFF" fill-rule="nonzero" x="0" y="0" width="13.68" height="13.68"></rect>
                        <rect id="矩形" stroke="#F45063" x="2.565" y="4.13" width="8.55" height="6.84" rx="0.57"></rect>
                        <circle id="椭圆形" fill="#F45063" fill-rule="nonzero" cx="4.845" cy="6.41" r="1"></circle>
                        <circle id="椭圆形" fill="#F45063" fill-rule="nonzero" cx="8.835" cy="6.41" r="1"></circle>
                        <path d="M5.7,8.12 C5.385189,8.12 5.13,8.375189 5.13,8.69 C5.13,9.004811 5.385189,9.26 5.7,9.26 L5.7,8.12 Z M7.98,9.26 C8.294811,9.26 8.55,9.004811 8.55,8.69 C8.55,8.375189 8.294811,8.12 7.98,8.12 L7.98,9.26 Z M5.7,9.26 L7.98,9.26 L7.98,8.12 L5.7,8.12 L5.7,9.26 Z" id="形状" fill="#F45063" fill-rule="nonzero"></path>
                        <line x1="1.14" y1="6.41" x2="1.14" y2="8.69" id="路径" stroke="#F45063" stroke-linecap="round" stroke-linejoin="round"></line>
                        <line x1="12.54" y1="6.41" x2="12.54" y2="8.69" id="路径" stroke="#F45063" stroke-linecap="round" stroke-linejoin="round"></line>
                        <line x1="6.84" y1="2.85" x2="6.84" y2="4.13" id="路径" stroke="#F45063" stroke-width="0.855" stroke-linecap="round" stroke-linejoin="round"></line>
                        <path d="M6.84,2.5398152 C7.15480231,2.5398152 7.41,2.28461751 7.41,1.9698152 C7.41,1.6550129 7.15480231,1.3998152 6.84,1.3998152 C6.52519769,1.3998152 6.27,1.6550129 6.27,1.9698152 C6.27,2.28461751 6.52519769,2.5398152 6.84,2.5398152 Z" id="椭圆形" stroke="#F45063" stroke-width="0.855"></path>
                    </g>
                </g>
            </g>
        </g>
    </g>
</svg>