<?xml version="1.0" encoding="UTF-8"?>
<svg width="14px" height="14px" viewBox="0 0 14 14" version="1.1" xmlns="http://www.w3.org/2000/svg" xmlns:xlink="http://www.w3.org/1999/xlink">
    <title>qiyon</title>
    <g id="事务处理流" stroke="none" stroke-width="1" fill="none" fill-rule="evenodd">
        <g id="事务处理流配置页" transform="translate(-1180.000000, -65.000000)">
            <g id="btn-保存备份-2" transform="translate(1180.000000, 58.000000)">
                <g id="qiyon" transform="translate(0.000000, 7.000000)">
                    <rect id="矩形" fill-opacity="0.01" fill="#FFFFFF" x="0" y="0" width="14" height="14"></rect>
                    <path d="M7,1 C10.3137085,1 13,3.6862915 13,7 C13,10.3137085 10.3137085,13 7,13 C3.6862915,13 1,10.3137085 1,7 C1,3.6862915 3.6862915,1 7,1 Z M7,2 C4.23857625,2 2,4.23857625 2,7 C2,9.76142375 4.23857625,12 7,12 C9.76142375,12 12,9.76142375 12,7 C12,4.23857625 9.76142375,2 7,2 Z" id="形状结合" fill="#465476" fill-rule="nonzero"></path>
                    <path d="M5.12561007,4.89373663 L5.12561007,9.10615379 C5.12561007,9.27393062 5.17359554,9.43820753 5.2639056,9.57960469 C5.52538531,9.98899966 6.0692367,10.1089087 6.47863167,9.84742896 L9.77629175,7.74122038 C9.88395698,7.67245482 9.97535046,7.58106134 10.044116,7.47339611 C10.3055957,7.06400114 10.1856867,6.52014975 9.77629175,6.25867004 L6.47863167,4.15246146 C6.33723451,4.06215139 6.1729576,4.01416592 6.00518077,4.01416592 C5.51940729,4.01416592 5.12561007,4.40796314 5.12561007,4.89373663 Z M6.17133197,8.89391295 L6.17133197,5.10597747 L9.13668965,6.99994521 L6.17133197,8.89391295 Z" id="形状" fill="#465476" fill-rule="nonzero"></path>
                </g>
            </g>
        </g>
    </g>
</svg>