<?xml version="1.0" encoding="UTF-8"?>
<svg width="20px" height="20px" viewBox="0 0 20 20" version="1.1" xmlns="http://www.w3.org/2000/svg" xmlns:xlink="http://www.w3.org/1999/xlink">
    <title>Select-radio</title>
    <defs>
        <rect id="path-1" x="0" y="0" width="20" height="20"></rect>
    </defs>
    <g id="页面-1" stroke="none" stroke-width="1" fill="none" fill-rule="evenodd">
        <g id="icon" transform="translate(-109.000000, -250.000000)">
            <g id="Select-radio" transform="translate(109.000000, 250.000000)">
                <mask id="mask-2" fill="white">
                    <use xlink:href="#path-1"></use>
                </mask>
                <use id="矩形备份-28" fill-opacity="0.01" fill="#FFFFFF" xlink:href="#path-1"></use>
                <path d="M17,4 C17.5522847,4 18,4.44771525 18,5 L18,15 C18,15.5522847 17.5522847,16 17,16 L3,16 C2.44771525,16 2,15.5522847 2,15 L2,5 C2,4.44771525 2.44771525,4 3,4 L17,4 Z M17,5 L3,5 L3,15 L17,15 L17,5 Z M15.656392,8.25035933 C15.828637,8.42523698 15.8458784,8.69479989 15.7094084,8.88863864 L15.6510294,8.95744578 L13.0656991,11.5025813 C12.8447915,11.6974162 12.5206677,11.7002769 12.2974238,11.523963 L12.2188347,11.4494714 L10.88637,9.93869694 C10.7037122,9.73159607 10.7235273,9.41563431 10.9306282,9.2329766 C11.1147179,9.07061418 11.3848211,9.06823029 11.5708577,9.21515857 L11.6363486,9.27723485 L12.689,10.471 L14.9493055,8.24499679 C15.1460429,8.05122109 15.4626163,8.05362198 15.656392,8.25035933 Z M8.5,9.5 C8.77614237,9.5 9,9.72385763 9,10 C9,10.2761424 8.77614237,10.5 8.5,10.5 L4.5,10.5 C4.22385763,10.5 4,10.2761424 4,10 C4,9.72385763 4.22385763,9.5 4.5,9.5 L8.5,9.5 Z" id="矩形" fill="#0840F8" fill-rule="nonzero" mask="url(#mask-2)"></path>
            </g>
        </g>
    </g>
</svg>