<?xml version="1.0" encoding="UTF-8"?>
<svg width="14px" height="14px" viewBox="0 0 14 14" version="1.1" xmlns="http://www.w3.org/2000/svg" xmlns:xlink="http://www.w3.org/1999/xlink">
    <!-- Generator: Sketch 59 (86127) - https://sketch.com -->
    <title>Tags</title>
    <desc>Created with Sketch.</desc>
    <defs>
        <path d="M7.39842824,0.802695609 L11.8810733,1.26979802 C12.1162139,1.29430023 12.3020578,1.48014417 12.3265601,1.71528476 L12.7936625,6.19792982 C12.8092807,6.34781328 12.7564659,6.49674639 12.6499085,6.60330384 L6.2741123,12.9791 C6.07885015,13.1743622 5.76226766,13.1743622 5.56700552,12.9791 L0.61725805,8.02935255 C0.421995904,7.8340904 0.421995904,7.51750791 0.61725805,7.32224577 L6.99305423,0.94644959 C7.09961167,0.839892145 7.24854479,0.787077392 7.39842824,0.802695609 Z M8.75329306,3.42885144 C8.36276877,3.81937573 8.36276877,4.45254071 8.75329306,4.84306501 C9.14381735,5.2335893 9.77698233,5.2335893 10.1675066,4.84306501 C10.5580309,4.45254071 10.5580309,3.81937573 10.1675066,3.42885144 C9.77698233,3.03832715 9.14381735,3.03832715 8.75329306,3.42885144 Z" id="path-1"></path>
    </defs>
    <g id="Tags" stroke="none" stroke-width="1" fill="none" fill-rule="evenodd">
        <g id="icon/列表/分配标签">
            <mask id="mask-2" fill="white">
                <use xlink:href="#path-1"></use>
            </mask>
            <use id="形状" fill="#D8D8D8" fill-rule="evenodd" xlink:href="#path-1"></use>
            <g id="颜色/按钮色" mask="url(#mask-2)" fill="#5A6677" fill-rule="evenodd">
                <g transform="translate(-33.000000, -33.000000)" id="主色">
                    <rect x="0" y="0" width="80" height="80"></rect>
                </g>
            </g>
        </g>
    </g>
</svg>