<?xml version="1.0" encoding="UTF-8"?>
<svg width="14px" height="14px" viewBox="0 0 14 14" version="1.1" xmlns="http://www.w3.org/2000/svg" xmlns:xlink="http://www.w3.org/1999/xlink">
    <!-- Generator: Sketch 59 (86127) - https://sketch.com -->
    <title>Edit Tags</title>
    <desc>Created with Sketch.</desc>
    <defs>
        <path d="M10.9737992,7.37519677 C11.1567109,7.37519677 11.3352823,7.39193784 11.5082734,7.42355987 C11.6577029,7.45084161 11.7581494,7.59097058 11.7389281,7.74164022 C11.6955254,8.08142197 11.8027922,8.38896165 12.0477079,8.5303307 C12.2901434,8.67045967 12.6069837,8.61217594 12.877321,8.40880292 C12.9988488,8.31765709 13.1705998,8.33563824 13.267946,8.4522057 C13.4768994,8.70332177 13.6455502,8.98854002 13.7633577,9.29855987 C13.8204013,9.44736939 13.7397962,9.60981979 13.5909867,9.66686344 C13.2574053,9.79521165 13.0304708,10.0488079 13.0304708,10.3414666 C13.0304708,10.6372255 13.2623656,10.8933019 13.6015273,11.0204101 C13.7497168,11.0762136 13.8315621,11.2368039 13.7769986,11.3856134 C13.6709718,11.6745519 13.5215422,11.9424091 13.3367704,12.1817444 C13.2357039,12.3125728 13.0459718,12.3206333 12.9225839,12.2115063 C12.6373656,11.9591501 12.2827029,11.8742047 12.0167059,12.0279745 C11.7414083,12.1873247 11.6397218,12.5562484 11.7296275,12.9437732 C11.76745,13.1037434 11.6688636,13.2655738 11.5070333,13.2947156 C11.3340422,13.3257176 11.1560908,13.3424587 10.9737992,13.3424587 C10.8138289,13.3424587 10.6569589,13.3294378 10.5038091,13.3052563 C10.3475591,13.2804547 10.2440125,13.128545 10.2725343,12.972915 C10.3382585,12.6095718 10.2328517,12.2722702 9.97305512,12.1222206 C9.71263845,11.9715509 9.36727635,12.0496759 9.08453825,12.2902513 C8.96177039,12.394418 8.77823865,12.3851174 8.6759321,12.2617295 C8.45829817,11.9994527 8.28468706,11.6993535 8.16687952,11.3725926 C8.11355611,11.2256432 8.19106107,11.066913 8.33615035,11.0086293 C8.66105115,10.879041 8.88116523,10.628545 8.88116523,10.3408466 C8.88116523,10.0543882 8.66353131,9.80575233 8.34111067,9.67492395 C8.1978815,9.61664022 8.12533686,9.45480987 8.17990035,9.30972058 C8.31072873,8.9600182 8.50604123,8.64193784 8.75033686,8.36912038 C8.84830313,8.2599934 9.01199361,8.24139221 9.13042119,8.32695768 C9.39703825,8.51854994 9.70457793,8.57125332 9.94143309,8.43422455 C10.1708478,8.3021561 10.2793547,8.02437832 10.2564133,7.71063824 C10.2458726,7.56554895 10.3506593,7.4365807 10.4938884,7.41363923 C10.6501384,7.3882176 10.8101087,7.37519677 10.9737992,7.37519677 Z M7.39842824,0.602695609 L11.8810733,1.06979802 C12.1162139,1.09430023 12.3020578,1.28014417 12.3265601,1.51528476 L12.7936625,5.99792982 C12.8092807,6.14781328 12.7564659,6.29674639 12.6499085,6.40330384 L12.4217994,6.63153854 C11.9800151,6.46349255 11.5007533,6.37147653 11,6.37147653 C8.790861,6.37147653 7,8.16233753 7,10.3714765 C7,10.8722298 7.09201602,11.3514916 7.26006201,11.7932759 L6.2741123,12.7791 C6.07885015,12.9743622 5.76226766,12.9743622 5.56700552,12.7791 L0.61725805,7.82935255 C0.421995904,7.6340904 0.421995904,7.31750791 0.61725805,7.12224577 L6.99305423,0.74644959 C7.09961167,0.639892145 7.24854479,0.587077392 7.39842824,0.602695609 Z M11.7228071,11.0421115 C12.4587942,10.0128456 11.3222615,8.87693288 10.2929956,9.61291998 C10.268194,9.63090114 10.2458726,9.65322256 10.2278914,9.67802415 C9.49190432,10.70729 10.627817,11.8432027 11.6570829,11.1072156 C11.6825045,11.0898545 11.7048259,11.066913 11.7228071,11.0421115 Z M8.75329306,3.22885144 C8.36276877,3.61937573 8.36276877,4.25254071 8.75329306,4.64306501 C9.14381735,5.0335893 9.77698233,5.0335893 10.1675066,4.64306501 C10.5580309,4.25254071 10.5580309,3.61937573 10.1675066,3.22885144 C9.77698233,2.83832715 9.14381735,2.83832715 8.75329306,3.22885144 Z" id="path-1"></path>
    </defs>
    <g id="Edit-Tags" stroke="none" stroke-width="1" fill="none" fill-rule="evenodd">
        <g id="icon/列表/标签管理">
            <mask id="mask-2" fill="white">
                <use xlink:href="#path-1"></use>
            </mask>
            <use id="形状" fill="#D8D8D8" fill-rule="evenodd" xlink:href="#path-1"></use>
            <g id="颜色/按钮色" mask="url(#mask-2)" fill="#5A6677" fill-rule="evenodd">
                <g transform="translate(-33.000000, -33.000000)" id="主色">
                    <rect x="0" y="0" width="80" height="80"></rect>
                </g>
            </g>
        </g>
    </g>
</svg>