<?xml version="1.0" encoding="UTF-8"?>
<svg width="20px" height="20px" viewBox="0 0 20 20" version="1.1" xmlns="http://www.w3.org/2000/svg" xmlns:xlink="http://www.w3.org/1999/xlink">
    <title>mtext</title>
    <defs>
        <rect id="path-1" x="0" y="0" width="20" height="20"></rect>
    </defs>
    <g id="页面-1" stroke="none" stroke-width="1" fill="none" fill-rule="evenodd">
        <g id="icon" transform="translate(-189.000000, -179.000000)">
            <g id="mtext" transform="translate(189.000000, 179.000000)">
                <mask id="mask-2" fill="white">
                    <use xlink:href="#path-1"></use>
                </mask>
                <use id="矩形备份-7" fill-opacity="0.01" fill="#FFFFFF" xlink:href="#path-1"></use>
                <path d="M17,2 C17.5522847,2 18,2.44771525 18,3 L18,17 C18,17.5522847 17.5522847,18 17,18 L3,18 C2.44771525,18 2,17.5522847 2,17 L2,3 C2,2.44771525 2.44771525,2 3,2 L17,2 Z M17,3 L3,3 L3,17 L17,17 L17,3 Z M10.5,6 C10.7761424,6 11,6.22385763 11,6.5 C11,6.77614237 10.7761424,7 10.5,7 L8,7 L8,13.5 C8,13.7761424 7.77614237,14 7.5,14 C7.22385763,14 7,13.7761424 7,13.5 L7,7 L4.5,7 C4.22385763,7 4,6.77614237 4,6.5 C4,6.22385763 4.22385763,6 4.5,6 L10.5,6 Z M14.7,11 C14.9761424,11 15.2,11.2238576 15.2,11.5 C15.2,11.7761424 14.9761424,12 14.7,12 L12.5,12 C12.2238576,12 12,11.7761424 12,11.5 C12,11.2238576 12.2238576,11 12.5,11 L14.7,11 Z M15.5,8 C15.7761424,8 16,8.22385763 16,8.5 C16,8.77614237 15.7761424,9 15.5,9 L12.5,9 C12.2238576,9 12,8.77614237 12,8.5 C12,8.22385763 12.2238576,8 12.5,8 L15.5,8 Z" id="矩形" fill="#0840F8" fill-rule="nonzero" mask="url(#mask-2)"></path>
            </g>
        </g>
    </g>
</svg>