<?xml version="1.0" encoding="UTF-8"?>
<svg width="14px" height="14px" viewBox="0 0 14 14" version="1.1" xmlns="http://www.w3.org/2000/svg" xmlns:xlink="http://www.w3.org/1999/xlink">
    <title>icon/列表/同步表单</title>
    <defs>
        <path d="M12,9 C12.5522847,9 13,9.44771525 13,10 C13,10.1724365 12.956355,10.3346791 12.8795094,10.4762837 C12.8553661,10.5378638 12.8180377,10.5961759 12.767767,10.6464466 L12.715568,10.6985438 C12.7099613,10.7042862 12.7042862,10.7099613 12.6985438,10.715568 L10.6464466,12.767767 C10.4511845,12.9630291 10.134602,12.9630291 9.93933983,12.767767 L9.23223305,12.0606602 C9.0369709,11.865398 9.0369709,11.5488155 9.23223305,11.3535534 L9.585,10.9997864 L1.5,11 C1.22385763,11 1,10.7761424 1,10.5 L1,9.5 C1,9.22385763 1.22385763,9 1.5,9 L12,9 Z M4.06066017,1.23223305 L4.76776695,1.93933983 C4.9630291,2.13460197 4.9630291,2.45118446 4.76776695,2.64644661 L4.413,2.99978644 L12.5,3 C12.7761424,3 13,3.22385763 13,3.5 L13,4.5 C13,4.77614237 12.7761424,5 12.5,5 L2,5 C1.44771525,5 1,4.55228475 1,4 C1,3.64717603 1.18272246,3.33702919 1.45870022,3.15902663 C1.49328216,3.10262481 1.53641322,3.04937322 1.58578644,3 L3.35355339,1.23223305 C3.54881554,1.0369709 3.86539803,1.0369709 4.06066017,1.23223305 Z" id="path-1"></path>
    </defs>
    <g id="-----5.1-icon" stroke="none" stroke-width="1" fill="none" fill-rule="evenodd">
        <g id="飞搭ICON" transform="translate(-1123.000000, -163.000000)">
            <g id="编组-22" transform="translate(880.000000, 143.000000)">
                <g id="icon/列表/同步表单" transform="translate(243.000000, 20.000000)">
                    <rect id="矩形" fill-opacity="0.01" fill="#FFFFFF" x="0" y="0" width="14" height="14"></rect>
                    <mask id="mask-2" fill="white">
                        <use xlink:href="#path-1"></use>
                    </mask>
                    <use id="矩形备份-4" fill="#5A6677" xlink:href="#path-1"></use>
                    <g id="编组" mask="url(#mask-2)">
                        <g transform="translate(-33.000000, -33.000000)">
                            <rect id="矩形" fill="#29BECE" x="0" y="0" width="80" height="80"></rect>
                        </g>
                    </g>
                </g>
            </g>
        </g>
    </g>
</svg>