<?xml version="1.0" encoding="UTF-8"?>
<svg width="16px" height="16px" viewBox="0 0 16 16" version="1.1" xmlns="http://www.w3.org/2000/svg" xmlns:xlink="http://www.w3.org/1999/xlink">
    <!-- Generator: Sketch 58 (84663) - https://sketch.com -->
    <title>API@v4.0</title>
    <desc>Created with Sketch.</desc>
    <g id="模型" stroke="none" stroke-width="1" fill="none" fill-rule="evenodd">
        <g id="预置备份" transform="translate(-1420.000000, -76.000000)">
            <g id="API" transform="translate(1420.000000, 76.000000)">
                <rect id="矩形" fill-opacity="0.01" fill="#FFFFFF" x="0" y="0" width="16" height="16"></rect>
                <path d="M3.08367627,4 L0,12 L0.965706447,12 L1.79972565,9.75910364 L5.39917695,9.75910364 L6.23319616,12 L7.20987654,12 L4.12620027,4 L3.08367627,4 Z M2.08504801,8.9859944 L3.58847737,4.9859944 L3.63237311,4.9859944 L5.1138546,8.9859944 L2.08504801,8.9859944 Z M8,4 L8,12 L8.89986283,12 L8.89986283,8.72829132 L11.1934156,8.72829132 C12.9931413,8.72829132 13.9039781,7.93277311 13.9039781,6.35294118 C13.9039781,4.78431373 13.0041152,4 11.2043896,4 L8,4 Z M8.89986283,4.79551821 L11.1495199,4.79551821 C11.7750343,4.79551821 12.2359396,4.91876751 12.5432099,5.18767507 C12.8504801,5.42296919 13.0041152,5.81512605 13.0041152,6.35294118 C13.0041152,6.8907563 12.8504801,7.28291317 12.5541838,7.54061625 C12.2469136,7.79831933 11.7860082,7.93277311 11.1495199,7.93277311 L8.89986283,7.93277311 L8.89986283,4.79551821 Z M15.1111111,4 L16,4 L16,12 L15.1111111,12 L15.1111111,4 Z" fill="#5A6677" fill-rule="nonzero"></path>
            </g>
        </g>
    </g>
</svg>