<?xml version="1.0" encoding="UTF-8"?>
<svg width="20px" height="20px" viewBox="0 0 20 20" version="1.1" xmlns="http://www.w3.org/2000/svg" xmlns:xlink="http://www.w3.org/1999/xlink">
    <title>enclosure</title>
    <defs>
        <rect id="path-1" x="0" y="0" width="20" height="20"></rect>
    </defs>
    <g id="页面-1" stroke="none" stroke-width="1" fill="none" fill-rule="evenodd">
        <g id="icon" transform="translate(-109.000000, -573.000000)">
            <g id="enclosure" transform="translate(109.000000, 573.000000)">
                <mask id="mask-2" fill="white">
                    <use xlink:href="#path-1"></use>
                </mask>
                <use id="矩形备份-31" fill-opacity="0.01" fill="#FFFFFF" xlink:href="#path-1"></use>
                <path d="M15.7014339,5 C16.0573025,5 16.345791,5.28848852 16.345791,5.64435714 C16.345791,5.96068481 16.1178495,6.22377387 15.8172579,6.27833283 L15.7014339,6.28871429 L5.85514167,6.28871429 C3.88545821,6.28871429 2.28871429,7.88545821 2.28871429,9.85514167 C2.28871429,11.7518739 3.76937121,13.3027801 5.63788486,13.4150603 L5.85514167,13.421569 L15.3966448,13.421569 C16.5671134,13.421569 17.5421359,12.5507451 17.6916559,11.4097724 L17.7107211,11.1608638 L17.7111491,11.1277 C17.7156478,10.0549926 16.8980521,9.17066334 15.8503657,9.07170257 L15.6632119,9.06251303 L7.21941368,9.02710102 C6.75929296,9.02517134 6.36892401,9.34678201 6.27303458,9.78445523 L6.25332686,9.9190316 L6.2512036,9.97571277 C6.25146319,10.3453636 6.52137364,10.6518344 6.87477032,10.7092218 L6.99540593,10.7188706 L13.4998528,10.7143027 C13.8557213,10.7140528 14.1444123,11.0023386 14.1446623,11.3582072 C14.1448844,11.6745347 13.9171277,11.9377838 13.6165745,11.9925539 L13.5007578,12.0030167 L6.99631095,12.0075845 C5.87385072,12.0083728 4.9632779,11.099078 4.96248963,9.9766178 L4.96829227,9.82171453 C5.05260658,8.70837642 5.93593839,7.83532109 7.02973113,7.74592785 L7.2248183,7.73839807 L15.6686165,7.77381007 C17.5161554,7.78155837 19.0076003,9.28556578 18.9999709,11.1331047 L18.9960706,11.2787073 C18.9078225,13.125951 17.4396323,14.5934879 15.6169967,14.7036428 L15.3966448,14.7102833 L5.85514167,14.7102833 C3.17372097,14.7102833 1,12.5365624 1,9.85514167 C1,7.25751536 3.03998618,5.13635336 5.60529672,5.00631748 L5.85514167,5 L15.7014339,5 Z" id="路径" fill="#0840F8" fill-rule="nonzero" mask="url(#mask-2)" transform="translate(10.000000, 9.855142) rotate(-45.000000) translate(-10.000000, -9.855142) "></path>
            </g>
        </g>
    </g>
</svg>