<?xml version="1.0" encoding="UTF-8"?>
<svg width="12px" height="12px" viewBox="0 0 12 12" version="1.1" xmlns="http://www.w3.org/2000/svg" xmlns:xlink="http://www.w3.org/1999/xlink">
    <!-- Generator: Sketch 58 (84663) - https://sketch.com -->
    <title>application-2</title>
    <desc>Created with Sketch.</desc>
    <g id="模型" stroke="none" stroke-width="1" fill="none" fill-rule="evenodd">
        <g id="API模型-接口定义-数据" transform="translate(-68.000000, -170.000000)">
            <g id="application-2" transform="translate(68.000000, 170.000000)">
                <rect id="矩形" fill="#D8D8D8" opacity="0.01" x="0" y="0" width="12" height="12"></rect>
                <path d="M0.331525321,5.28933385 L1.74573888,3.87512028 C2.13626318,3.48459599 2.76942815,3.48459599 3.15995245,3.87512028 L4.57416601,5.28933385 C4.9646903,5.67985814 4.9646903,6.31302312 4.57416601,6.70354741 L3.15995245,8.11776097 C2.76942815,8.50828526 2.13626318,8.50828526 1.74573888,8.11776097 L0.331525321,6.70354741 C-0.0589989703,6.31302312 -0.0589989703,5.67985814 0.331525321,5.28933385 Z M3.86705923,8.82486775 L5.28127279,7.41065419 C5.67179708,7.0201299 6.30496206,7.0201299 6.69548635,7.41065419 L8.10969991,8.82486775 C8.50022421,9.21539204 8.50022421,9.84855702 8.10969991,10.2390813 L6.69548635,11.6532949 C6.30496206,12.0438192 5.67179708,12.0438192 5.28127279,11.6532949 L3.86705923,10.2390813 C3.47653494,9.84855702 3.47653494,9.21539204 3.86705923,8.82486775 Z M3.86705923,1.75379994 L5.28127279,0.339586378 C5.67179708,-0.0509379137 6.30496206,-0.0509379137 6.69548635,0.339586378 L8.10969991,1.75379994 C8.50022421,2.14432423 8.50022421,2.77748921 8.10969991,3.1680135 L6.69548635,4.58222707 C6.30496206,4.97275136 5.67179708,4.97275136 5.28127279,4.58222707 L3.86705923,3.1680135 C3.47653494,2.77748921 3.47653494,2.14432423 3.86705923,1.75379994 Z M7.40259313,5.28933385 L8.8168067,3.87512028 C9.20733099,3.48459599 9.84049597,3.48459599 10.2310203,3.87512028 L11.6452338,5.28933385 C12.0357581,5.67985814 12.0357581,6.31302312 11.6452338,6.70354741 L10.2310203,8.11776097 C9.84049597,8.50828526 9.20733099,8.50828526 8.8168067,8.11776097 L7.40259313,6.70354741 C7.01206884,6.31302312 7.01206884,5.67985814 7.40259313,5.28933385 Z" id="形状" fill="#AAADBA"></path>
            </g>
        </g>
    </g>
</svg>