<?xml version="1.0" encoding="UTF-8"?>
<svg width="16px" height="16px" viewBox="0 0 16 16" version="1.1" xmlns="http://www.w3.org/2000/svg" xmlns:xlink="http://www.w3.org/1999/xlink">
    <title>zhu16</title>
    <defs>
        <rect id="path-1" x="0" y="0" width="16" height="16"></rect>
    </defs>
    <g id="页面-1" stroke="none" stroke-width="1" fill="none" fill-rule="evenodd">
        <g id="3-组合详情" transform="translate(-391.000000, -249.000000)">
            <g id="编组-13" transform="translate(383.000000, 237.000000)">
                <g id="zhu16" transform="translate(8.000000, 12.000000)">
                    <mask id="mask-2" fill="white">
                        <use xlink:href="#path-1"></use>
                    </mask>
                    <use id="矩形" fill-opacity="0.01" fill="#FFFFFF" xlink:href="#path-1"></use>
                    <path d="M7.52617329,1.25450899 C7.82330076,1.09356495 8.18161212,1.09356495 8.47873959,1.25450899 L8.47873959,1.25450899 L13.9383389,4.21179195 C14.2610324,4.38658429 14.4620557,4.72409141 14.4620557,5.09108391 L14.4620557,5.09108391 L14.4620557,10.8977591 C14.4620557,11.2647516 14.2610324,11.6022588 13.9383389,11.7770511 L13.9383389,11.7770511 L8.47873959,14.7343341 C8.18161212,14.8952781 7.82330076,14.8952781 7.52617329,14.7343341 L7.52617329,14.7343341 L2.06657399,11.7770511 C1.74388043,11.6022588 1.54285714,11.2647516 1.54285714,10.8977591 L1.54285714,10.8977591 L1.54285714,5.09108391 C1.54285714,4.72409141 1.74388043,4.38658429 2.06657399,4.21179195 L2.06657399,4.21179195 Z M8.00245644,4.20096311 C7.71931849,4.20096311 7.48978983,4.43049177 7.48978983,4.71362972 L7.48978983,4.71362972 L7.48978983,7.44182612 L4.51556529,9.16577765 L4.43997984,9.21913626 C4.25483584,9.37662473 4.20290179,9.64866848 4.32911309,9.86641285 L4.32911309,9.86641285 L4.3824717,9.94199831 C4.53996017,10.1271423 4.81200392,10.1790764 5.02974829,10.0528651 L5.02974829,10.0528651 L8.0019054,8.32896311 L10.9751646,10.0528651 L11.0590342,10.0919315 C11.2877151,10.1743086 11.5495885,10.0841572 11.6757998,9.86641285 L11.6757998,9.86641285 L11.7148662,9.78254322 C11.7972433,9.55386236 11.707092,9.29198895 11.4893476,9.16577765 L11.4893476,9.16577765 L8.5149054,7.44096311 L8.51512305,4.71362972 L8.50686331,4.62147725 C8.46345484,4.38231909 8.25413462,4.20096311 8.00245644,4.20096311 Z" id="路径-26" fill="#6E7D96" mask="url(#mask-2)"></path>
                </g>
            </g>
        </g>
    </g>
</svg>