<?xml version="1.0" encoding="UTF-8"?>
<svg width="20px" height="20px" viewBox="0 0 20 20" version="1.1" xmlns="http://www.w3.org/2000/svg" xmlns:xlink="http://www.w3.org/1999/xlink">
    <title>Checkbox2</title>
    <defs>
        <rect id="path-1" x="0" y="0" width="20" height="20"></rect>
    </defs>
    <g id="页面-1" stroke="none" stroke-width="1" fill="none" fill-rule="evenodd">
        <g id="icon" transform="translate(-349.000000, -250.000000)">
            <g id="Checkbox2" transform="translate(349.000000, 250.000000)">
                <mask id="mask-2" fill="white">
                    <use xlink:href="#path-1"></use>
                </mask>
                <use id="矩形" fill-opacity="0.01" fill="#FFFFFF" xlink:href="#path-1"></use>
                <path d="M7,11 C7.55228475,11 8,11.4477153 8,12 L8,16 C8,16.5522847 7.55228475,17 7,17 L3,17 C2.44771525,17 2,16.5522847 2,16 L2,12 C2,11.4477153 2.44771525,11 3,11 L7,11 Z M7,12 L3,12 L3,16 L7,16 L7,12 Z M17,12 C17.5522847,12 18,12.4477153 18,13 L18,15 C18,15.5522847 17.5522847,16 17,16 L10,16 C9.44771525,16 9,15.5522847 9,15 L9,13 C9,12.4477153 9.44771525,12 10,12 L17,12 Z M6.68702835,12.7465949 C6.88454124,12.8923317 6.94379629,13.1558659 6.83937559,13.3686894 L6.79249588,13.4457921 L5.51062772,15.1823762 C5.29237389,15.4578488 4.90867416,15.5250599 4.61305105,15.3546283 L4.52725994,15.2963402 L3.50050759,14.4828558 C3.28406486,14.3113707 3.24761955,13.996893 3.4191047,13.7804503 C3.57153595,13.5880567 3.83694895,13.5378834 4.04606239,13.6495485 L4.12151026,13.6990474 L4.904,14.319 L5.98783124,12.8520625 C6.15178514,12.6298605 6.46482635,12.582641 6.68702835,12.7465949 Z M17,13 L10,13 L10,15 L17,15 L17,13 Z M7,3 C7.55228475,3 8,3.44771525 8,4 L8,8 C8,8.55228475 7.55228475,9 7,9 L3,9 C2.44771525,9 2,8.55228475 2,8 L2,4 C2,3.44771525 2.44771525,3 3,3 L7,3 Z M7,4 L3,4 L3,8 L7,8 L7,4 Z M17,4 C17.5522847,4 18,4.44771525 18,5 L18,7 C18,7.55228475 17.5522847,8 17,8 L10,8 C9.44771525,8 9,7.55228475 9,7 L9,5 C9,4.44771525 9.44771525,4 10,4 L17,4 Z M6.68702835,4.74659494 C6.88454124,4.89233174 6.94379629,5.15586592 6.83937559,5.36868942 L6.79249588,5.44579206 L5.51062772,7.1823762 C5.29237389,7.45784876 4.90867416,7.52505985 4.61305105,7.35462835 L4.52725994,7.29634024 L3.50050759,6.48285583 C3.28406486,6.31137067 3.24761955,5.99689299 3.4191047,5.78045027 C3.57153595,5.58805673 3.83694895,5.53788338 4.04606239,5.64954848 L4.12151026,5.69904738 L4.904,6.319 L5.98783124,4.85206247 C6.15178514,4.62986046 6.46482635,4.58264104 6.68702835,4.74659494 Z M17,5 L10,5 L10,7 L17,7 L17,5 Z" id="矩形-2" fill="#0840F8" mask="url(#mask-2)"></path>
            </g>
        </g>
    </g>
</svg>