<?xml version="1.0" encoding="UTF-8"?>
<svg width="28px" height="28px" viewBox="0 0 28 28" version="1.1" xmlns="http://www.w3.org/2000/svg" xmlns:xlink="http://www.w3.org/1999/xlink">
    <title>check@v4.0</title>
    <defs>
        <rect id="path-1" x="0" y="0" width="28" height="28" rx="2"></rect>
    </defs>
    <g id="页面-1" stroke="none" stroke-width="1" fill="none" fill-rule="evenodd">
        <g id="编组-44" transform="translate(-768.000000, -480.000000)">
            <g id="check" transform="translate(768.000000, 480.000000)">
                <mask id="mask-2" fill="white">
                    <use xlink:href="#path-1"></use>
                </mask>
                <use id="Rectangle" fill="#29BECE" xlink:href="#path-1"></use>
                <path d="M7,16 L7,20 C7,20.5522847 7.44771525,21 8,21 L12,21 L12,23 L8,23 C6.34314575,23 5,21.6568542 5,20 L5,16 L7,16 Z M23,16 L23,20 C23,21.6568542 21.6568542,23 20,23 L16,23 L16,21 L20,21 C20.5522847,21 21,20.5522847 21,20 L21,16 L23,16 Z M13.5,8 C16.5375661,8 19,10.4624339 19,13.5 C19,14.6572299 18.6426018,15.730985 18.0321626,16.616908 L19.5104076,18.0961941 C19.9009319,18.4867184 19.9009319,19.1198833 19.5104076,19.5104076 C19.1198833,19.9009319 18.4867184,19.9009319 18.0961941,19.5104076 L16.616908,18.0321626 C15.730985,18.6426018 14.6572299,19 13.5,19 C10.4624339,19 8,16.5375661 8,13.5 C8,10.4624339 10.4624339,8 13.5,8 Z M13.5,10 C11.5670034,10 10,11.5670034 10,13.5 C10,15.4329966 11.5670034,17 13.5,17 C15.4329966,17 17,15.4329966 17,13.5 C17,11.5670034 15.4329966,10 13.5,10 Z M12,5 L12,7 L8,7 C7.44771525,7 7,7.44771525 7,8 L7,12 L5,12 L5,8 C5,6.34314575 6.34314575,5 8,5 L12,5 Z M20,5 C21.6568542,5 23,6.34314575 23,8 L23,12 L21,12 L21,8 C21,7.44771525 20.5522847,7 20,7 L16,7 L16,5 L20,5 Z" id="矩形" fill="#FFFFFF" fill-rule="nonzero" mask="url(#mask-2)"></path>
            </g>
        </g>
    </g>
</svg>