<?xml version="1.0" encoding="UTF-8"?>
<svg width="14px" height="14px" viewBox="0 0 14 14" version="1.1" xmlns="http://www.w3.org/2000/svg" xmlns:xlink="http://www.w3.org/1999/xlink">
    <title>baocun</title>
    <defs>
        <path d="M7,1 C10.3137085,1 13,3.6862915 13,7 C13,10.3137085 10.3137085,13 7,13 C3.6862915,13 1,10.3137085 1,7 C1,3.6862915 3.6862915,1 7,1 Z M7,2 C4.23857625,2 2,4.23857625 2,7 C2,9.76142375 4.23857625,12 7,12 C9.76142375,12 12,9.76142375 12,7 C12,4.23857625 9.76142375,2 7,2 Z M10.3175144,5.27487373 C10.5127766,5.47013588 10.5127766,5.78671837 10.3175144,5.98198052 L6.78198052,9.51751442 C6.58671837,9.71277657 6.27013588,9.71277657 6.07487373,9.51751442 L3.95355339,7.39619408 C3.75829124,7.20093193 3.75829124,6.88434944 3.95355339,6.6890873 C4.14881554,6.49382515 4.46539803,6.49382515 4.66066017,6.6890873 L6.42842712,8.45685425 L9.61040764,5.27487373 C9.80566979,5.07961159 10.1222523,5.07961159 10.3175144,5.27487373 Z" id="path-1"></path>
    </defs>
    <g id="页面-1" stroke="none" stroke-width="1" fill="none" fill-rule="evenodd">
        <g id="6-编写脚本有数据" transform="translate(-1378.000000, -65.000000)">
            <g id="btn-保存" transform="translate(1366.000000, 58.000000)">
                <g id="baocun" transform="translate(12.000000, 7.000000)">
                    <rect id="矩形" fill-opacity="0.01" fill="#FFFFFF" x="0" y="0" width="14" height="14"></rect>
                    <mask id="mask-2" fill="white">
                        <use xlink:href="#path-1"></use>
                    </mask>
                    <use id="椭圆形" fill="#979797" fill-rule="nonzero" xlink:href="#path-1"></use>
                    <g id="编组" mask="url(#mask-2)">
                        <g transform="translate(-33.000000, -33.000000)">
                            <rect id="主色" fill="#FFFFFF" x="0" y="0" width="80" height="80"></rect>
                        </g>
                    </g>
                </g>
            </g>
        </g>
    </g>
</svg>