<?xml version="1.0" encoding="UTF-8"?>
<svg width="14px" height="14px" viewBox="0 0 14 14" version="1.1" xmlns="http://www.w3.org/2000/svg" xmlns:xlink="http://www.w3.org/1999/xlink">
    <title>field</title>
    <g id="页面-1" stroke="none" stroke-width="1" fill="none" fill-rule="evenodd">
        <g id="5-编写脚本有数据" transform="translate(-1096.000000, -104.000000)">
            <g id="编组-3备份" transform="translate(196.000000, 95.000000)">
                <g id="field" transform="translate(900.000000, 9.000000)">
                    <rect id="矩形" fill-opacity="0.01" fill="#FFFFFF" x="0" y="0" width="14" height="14"></rect>
                    <path d="M12.5,1 C12.7761424,1 13,1.22385763 13,1.5 L13,12.5 C13,12.7761424 12.7761424,13 12.5,13 L1.5,13 C1.22385763,13 1,12.7761424 1,12.5 L1,1.5 C1,1.22385763 1.22385763,1 1.5,1 L12.5,1 Z M5.27740552,3.58368232 C5.04747962,3.43074871 4.73711065,3.49316329 4.58417704,3.7230892 L4.58417704,3.7230892 L2.62061306,6.67518204 L2.57134269,6.76500756 C2.48926756,6.95069168 2.50598109,7.16830189 2.62139318,7.34093785 L2.62139318,7.34093785 L4.58482714,10.2778857 L4.64147441,10.3481254 C4.80630303,10.5185045 5.07432099,10.5520872 5.27838043,10.4156676 L5.27838043,10.4156676 L5.34862009,10.3590203 C5.51899924,10.1941917 5.55258188,9.92617373 5.41616229,9.72211429 L5.41616229,9.72211429 L3.601,7.007 L5.4168124,4.2769108 L5.45988003,4.19761577 C5.55380806,3.97995766 5.4817841,3.71962331 5.27740552,3.58368232 Z M8.74333709,3.58368232 C8.53895851,3.71962331 8.46693455,3.97995766 8.56086259,4.19761577 L8.60393022,4.2769108 L10.4197426,7.007 L8.60458032,9.72211429 C8.46816073,9.92617373 8.50174338,10.1941917 8.67212253,10.3590203 L8.74236219,10.4156676 C8.94642162,10.5520872 9.21443959,10.5185045 9.3792682,10.3481254 L9.43591547,10.2778857 L11.3993494,7.34093785 C11.5147615,7.16830189 11.5314751,6.95069168 11.4493999,6.76500756 L11.4001296,6.67518204 L9.43656557,3.7230892 C9.28363196,3.49316329 8.973263,3.43074871 8.74333709,3.58368232 Z M7.69352687,3.50035924 C7.45668984,3.49007591 7.23905483,3.65006473 7.18478352,3.88944974 L7.18478352,3.88944974 L5.82451513,9.88944974 L5.81249988,9.97888215 C5.80221655,10.2157192 5.96220538,10.4333542 6.20159038,10.4876255 C6.47089852,10.5486807 6.73871093,10.3798584 6.79976616,10.1105503 L6.79976616,10.1105503 L8.16003454,4.11055026 L8.17204979,4.02111785 C8.18233312,3.78428082 8.0223443,3.5666458 7.78295929,3.51237449 L7.78295929,3.51237449 Z" id="矩形-2" fill="#465476"></path>
                </g>
            </g>
        </g>
    </g>
</svg>