<?xml version="1.0" encoding="UTF-8"?>
<svg width="14px" height="14px" viewBox="0 0 14 14" version="1.1" xmlns="http://www.w3.org/2000/svg" xmlns:xlink="http://www.w3.org/1999/xlink">
    <title>create-new备份</title>
    <g id="事件流" stroke="none" stroke-width="1" fill="none" fill-rule="evenodd">
        <g id="流程变量自定义" transform="translate(-1414.000000, -70.000000)">
            <g id="编组-9" transform="translate(1200.000000, 50.000000)">
                <g id="create-new备份" transform="translate(214.000000, 20.000000)">
                    <rect id="矩形" fill="#D8D8D8" opacity="0.01" x="0" y="0" width="14" height="14"></rect>
                    <path d="M7.08333333,1.16666667 C7.35947571,1.16666667 7.58333333,1.39052429 7.58333333,1.66666667 L7.58266667,6.41666667 L12.3333333,6.41666667 C12.6094757,6.41666667 12.8333333,6.64052429 12.8333333,6.91666667 L12.8333333,7.08333333 C12.8333333,7.35947571 12.6094757,7.58333333 12.3333333,7.58333333 L7.58266667,7.58266667 L7.58333333,12.3333333 C7.58333333,12.6094757 7.35947571,12.8333333 7.08333333,12.8333333 L6.91666667,12.8333333 C6.64052429,12.8333333 6.41666667,12.6094757 6.41666667,12.3333333 L6.41566667,7.58266667 L1.66666667,7.58333333 C1.39052429,7.58333333 1.16666667,7.35947571 1.16666667,7.08333333 L1.16666667,6.91666667 C1.16666667,6.64052429 1.39052429,6.41666667 1.66666667,6.41666667 L6.41566667,6.41666667 L6.41666667,1.66666667 C6.41666667,1.39052429 6.64052429,1.16666667 6.91666667,1.16666667 L7.08333333,1.16666667 Z" id="矩形-3" fill="#0840F8"></path>
                </g>
            </g>
        </g>
    </g>
</svg>