<?xml version="1.0" encoding="UTF-8"?>
<svg width="12px" height="12px" viewBox="0 0 12 12" version="1.1" xmlns="http://www.w3.org/2000/svg" xmlns:xlink="http://www.w3.org/1999/xlink">
    <title>左侧列表/Create table@v4.0</title>
    <defs>
        <path d="M10,7 C11.6568542,7 13,8.34314575 13,10 C13,11.6568542 11.6568542,13 10,13 C8.34314575,13 7,11.6568542 7,10 C7,8.34314575 8.34314575,7 10,7 Z M3.5,9 C3.77614237,9 4,9.22385763 4,9.5 L4,11.5 C4,11.7761424 3.77614237,12 3.5,12 L1.5,12 C1.22385763,12 1,11.7761424 1,11.5 L1,9.5 C1,9.22385763 1.22385763,9 1.5,9 L3.5,9 Z M5.5,9 C5.77614237,9 6,9.22385763 6,9.5 L6,11.5 C6,11.7761424 5.77614237,12 5.5,12 C5.22385763,12 5,11.7761424 5,11.5 L5,9.5 C5,9.22385763 5.22385763,9 5.5,9 Z M10,8 C9.75454011,8 9.55039163,8.17687516 9.50805567,8.41012437 L9.5,8.5 L9.5,9.5 L8.5,9.5 C8.22385763,9.5 8,9.72385763 8,10 C8,10.2454599 8.17687516,10.4496084 8.41012437,10.4919443 L8.5,10.5 L9.5,10.5 L9.5,11.5 C9.5,11.7761424 9.72385763,12 10,12 C10.2454599,12 10.4496084,11.8231248 10.4919443,11.5898756 L10.5,11.5 L10.5,10.5 L11.5,10.5 C11.7761424,10.5 12,10.2761424 12,10 C12,9.75454011 11.8231248,9.55039163 11.5898756,9.50805567 L11.5,9.5 L10.5,9.5 L10.5,8.5 C10.5,8.22385763 10.2761424,8 10,8 Z M3.5,5 C3.77614237,5 4,5.22385763 4,5.5 L4,7.5 C4,7.77614237 3.77614237,8 3.5,8 L1.5,8 C1.22385763,8 1,7.77614237 1,7.5 L1,5.5 C1,5.22385763 1.22385763,5 1.5,5 L3.5,5 Z M7.5,5 C7.77614237,5 8,5.22385763 8,5.5 L7.99987956,6.53519846 C7.39271719,6.88645114 6.88645114,7.39271719 6.53519846,7.99987956 L5.5,8 C5.22385763,8 5,7.77614237 5,7.5 L5,5.5 C5,5.22385763 5.22385763,5 5.5,5 L7.5,5 Z M11.5,5 C11.7761424,5 12,5.22385763 12,5.5 C12,5.77614237 11.7761424,6 11.5,6 L9.5,6 C9.22385763,6 9,5.77614237 9,5.5 C9,5.22385763 9.22385763,5 9.5,5 L11.5,5 Z M11.5,1 C11.7761424,1 12,1.22385763 12,1.5 L12,3.5 C12,3.77614237 11.7761424,4 11.5,4 L1.5,4 C1.22385763,4 1,3.77614237 1,3.5 L1,1.5 C1,1.22385763 1.22385763,1 1.5,1 L11.5,1 Z" id="path-1"></path>
    </defs>
    <g id="页面-1" stroke="none" stroke-width="1" fill="none" fill-rule="evenodd">
        <g id="icon" transform="translate(-600.000000, -110.000000)">
            <g id="左侧列表/Create-table" transform="translate(599.000000, 109.000000)">
                <mask id="mask-2" fill="white">
                    <use xlink:href="#path-1"></use>
                </mask>
                <use id="矩形-3" fill="#5A6677" xlink:href="#path-1"></use>
                <g id="编组" mask="url(#mask-2)">
                    <g transform="translate(-33.000000, -33.000000)">
                        <rect id="矩形" fill="#29BECE" x="0" y="0" width="80" height="80"></rect>
                    </g>
                </g>
            </g>
        </g>
    </g>
</svg>