<?xml version="1.0" encoding="UTF-8"?>
<svg width="14px" height="14px" viewBox="0 0 14 14" version="1.1" xmlns="http://www.w3.org/2000/svg" xmlns:xlink="http://www.w3.org/1999/xlink">
    <title>drag_indicator_black</title>
    <defs>
        <path d="M2.33333333,8.16666667 C2.33333333,8.80833333 1.80833333,9.33333333 1.16666667,9.33333333 C0.525,9.33333333 0,8.80833333 0,8.16666667 C0,7.525 0.525,7 1.16666667,7 C1.80833333,7 2.33333333,7.525 2.33333333,8.16666667 Z M1.16666667,3.5 C0.525,3.5 0,4.025 0,4.66666667 C0,5.30833333 0.525,5.83333333 1.16666667,5.83333333 C1.80833333,5.83333333 2.33333333,5.30833333 2.33333333,4.66666667 C2.33333333,4.025 1.80833333,3.5 1.16666667,3.5 Z M1.16666667,0 C0.525,0 0,0.525 0,1.16666667 C0,1.80833333 0.525,2.33333333 1.16666667,2.33333333 C1.80833333,2.33333333 2.33333333,1.80833333 2.33333333,1.16666667 C2.33333333,0.525 1.80833333,0 1.16666667,0 Z M4.66666667,2.33333333 C5.30833333,2.33333333 5.83333333,1.80833333 5.83333333,1.16666667 C5.83333333,0.525 5.30833333,0 4.66666667,0 C4.025,0 3.5,0.525 3.5,1.16666667 C3.5,1.80833333 4.025,2.33333333 4.66666667,2.33333333 Z M4.66666667,3.5 C4.025,3.5 3.5,4.025 3.5,4.66666667 C3.5,5.30833333 4.025,5.83333333 4.66666667,5.83333333 C5.30833333,5.83333333 5.83333333,5.30833333 5.83333333,4.66666667 C5.83333333,4.025 5.30833333,3.5 4.66666667,3.5 Z M4.66666667,7 C4.025,7 3.5,7.525 3.5,8.16666667 C3.5,8.80833333 4.025,9.33333333 4.66666667,9.33333333 C5.30833333,9.33333333 5.83333333,8.80833333 5.83333333,8.16666667 C5.83333333,7.525 5.30833333,7 4.66666667,7 Z" id="path-1"></path>
    </defs>
    <g id="控件" stroke="none" stroke-width="1" fill="none" fill-rule="evenodd">
        <g id="拖拽项" transform="translate(0.000000, -3.000000)">
            <g id="drag_indicator_black_24dp" transform="translate(0.000000, 3.000000)">
                <polygon id="路径" fill-opacity="0.01" fill="#FFFFFF" points="0 0 14 0 14 14 0 14"></polygon>
                <g id="color" transform="translate(4.083333, 2.333333)">
                    <mask id="mask-2" fill="white">
                        <use xlink:href="#path-1"></use>
                    </mask>
                    <g id="蒙版" fill-rule="nonzero"></g>
                    <g id="编组" mask="url(#mask-2)">
                        <g transform="translate(-4.083333, -2.333333)" id="color">
                            <rect id="矩形" fill="#7C859B" x="0" y="0" width="14" height="14"></rect>
                        </g>
                    </g>
                </g>
            </g>
        </g>
    </g>
</svg>