<?xml version="1.0" encoding="UTF-8"?>
<svg width="14px" height="14px" viewBox="0 0 14 14" version="1.1" xmlns="http://www.w3.org/2000/svg" xmlns:xlink="http://www.w3.org/1999/xlink">
    <title>expression</title>
    <defs>
        <path d="M12,1 C12.5522847,1 13,1.44771525 13,2 L13,12 C13,12.5522847 12.5522847,13 12,13 L2,13 C1.44771525,13 1,12.5522847 1,12 L1,2 C1,1.44771525 1.44771525,1 2,1 L12,1 Z M12,2 L2,2 L2,12 L12,12 L12,2 Z M8.5925238,4.98264238 C8.76591971,4.78609037 9.04356131,4.77393414 9.2298157,4.95473924 L9.2298157,4.95473924 L10.8634603,6.80654838 C10.951713,6.90717214 11.0008585,7.04358184 10.9999886,7.18546852 C10.9990955,7.3273552 10.9482601,7.46296678 10.8587659,7.56217164 L10.8587659,7.56217164 L9.22512132,9.41398078 C9.1103954,9.56583772 8.93025862,9.63198444 8.75877261,9.5852253 C8.5872866,9.53846616 8.45339404,9.38669296 8.41214366,9.19230591 C8.37089329,8.99791885 8.42924716,8.79372576 8.5632136,8.6636788 L8.5632136,8.6636788 L9.86825152,7.18436001 L8.56790798,5.70504122 C8.40840381,5.49391355 8.4191279,5.17919438 8.5925238,4.98264238 Z M7.29680086,4.85186759 C7.4104747,4.7929342 7.54018937,4.78782449 7.65719807,4.83767085 C7.7736181,4.88775721 7.86771275,4.9882238 7.91877601,5.11696242 C7.96983926,5.24570105 7.97368688,5.39216256 7.92947217,5.52411734 L7.92947217,5.52411734 L6.72301625,9.21709302 C6.67140254,9.40561022 6.53197194,9.54625362 6.36079455,9.58246542 C6.18961717,9.61867722 6.01482041,9.5445072 5.9066964,9.38978179 C5.79857239,9.23505639 5.77488778,9.02519969 5.845167,8.84460268 L5.845167,8.84460268 L7.05162292,5.151627 C7.09488224,5.01869082 7.18312703,4.91080098 7.29680086,4.85186759 Z M4.77484814,4.95473924 C4.95794658,4.74842025 5.25365742,4.74842025 5.43675586,4.95473924 C5.61876809,5.16228951 5.61876809,5.49749096 5.43675586,5.70504122 L5.43675586,5.70504122 L4.13641232,7.18436001 L5.43206148,8.65835751 C5.59156565,8.86948518 5.58084156,9.18420435 5.40744566,9.38075635 C5.23404975,9.57730836 4.95640815,9.58946459 4.77015376,9.40865949 L4.77015376,9.40865949 L3.13650917,7.55685035 C2.95449694,7.34930009 2.95449694,7.01409864 3.13650917,6.80654838 L3.13650917,6.80654838 Z" id="path-1"></path>
    </defs>
    <g id="-----5.1-icon" stroke="none" stroke-width="1" fill="none" fill-rule="evenodd">
        <g id="1-ICON" transform="translate(-1062.000000, -910.000000)">
            <g id="expression" transform="translate(1062.000000, 910.000000)">
                <rect id="矩形" fill-opacity="0.01" fill="#FFFFFF" x="0" y="0" width="14" height="14"></rect>
                <mask id="mask-2" fill="white">
                    <use xlink:href="#path-1"></use>
                </mask>
                <use id="矩形" fill="#5A6677" fill-rule="nonzero" xlink:href="#path-1"></use>
                <g id="编组" mask="url(#mask-2)">
                    <g transform="translate(-33.000000, -33.000000)">
                        <rect id="主色" fill="#96A0B9" x="0" y="0" width="80" height="80"></rect>
                    </g>
                </g>
            </g>
        </g>
    </g>
</svg>