<?xml version="1.0" encoding="UTF-8"?>
<svg width="20px" height="20px" viewBox="0 0 20 20" version="1.1" xmlns="http://www.w3.org/2000/svg" xmlns:xlink="http://www.w3.org/1999/xlink">
    <title>function-selected@v4.0</title>
    <g id="页面-1" stroke="none" stroke-width="1" fill="none" fill-rule="evenodd">
        <g id="编组-44" transform="translate(-111.000000, -63.000000)">
            <g id="function-selected" transform="translate(111.000000, 63.000000)">
                <rect id="矩形备份-23" fill="#B6B6B6" opacity="0.01" x="0" y="0" width="20" height="20"></rect>
                <g id="编组-41" transform="translate(3.151830, 3.103945)" fill="#29BECE" fill-rule="nonzero">
                    <path d="M6.85483007,0.0167017535 C8.2434249,-0.128290667 9.61755177,0.681664652 9.83640859,2.02163626 C9.92543333,2.56669868 9.55574175,3.08072788 9.01067933,3.16975262 C8.46561691,3.25877736 7.95158771,2.88908578 7.86256296,2.34402336 C7.83362199,2.16682951 7.4856262,1.96170941 7.06253416,2.00588727 C6.57054283,2.05725935 6.26145753,2.40580336 6.26145753,3.21167023 C6.26145753,3.56148419 6.25413362,3.91906353 6.23997058,4.28057375 L7.8481696,4.28030015 C8.40045435,4.28030015 8.8481696,4.7280154 8.8481696,5.28030015 C8.8481696,5.8325849 8.40045435,6.28030015 7.8481696,6.28030015 L7.8481696,6.28030015 L6.09653707,6.28066573 C5.85480146,8.61704257 5.36656893,10.8256966 4.76103293,11.8847366 C3.50591175,14.0798556 1.10185562,13.560563 0.0811969168,11.1804548 C-0.136469017,10.6728723 0.0985547895,10.0849423 0.606137281,9.86727632 C1.11371977,9.64961038 1.70164979,9.88463419 1.91931572,10.3922167 C2.35281427,11.4031065 2.69082259,11.4761186 3.02480821,10.8920012 C3.4590624,10.132521 3.86098002,8.28828208 4.0826264,6.28063035 L2.49436768,6.28030015 C1.94208293,6.28030015 1.49436768,5.8325849 1.49436768,5.28030015 C1.49436768,4.7280154 1.94208293,4.28030015 2.49436768,4.28030015 L2.49436768,4.28030015 L4.23752501,4.28021378 C4.25319318,3.91773418 4.26145753,3.55976653 4.26145753,3.21167023 C4.26145753,1.38840934 5.33736318,0.175150564 6.85483007,0.0167017535 Z M9.28750943,7.42118174 L10.3481696,8.48184191 L11.4088298,7.42118174 C11.7993541,7.03065745 12.432519,7.03065745 12.8230433,7.42118174 C13.2135676,7.81170603 13.2135676,8.44487101 12.8230433,8.8353953 L11.7623832,9.89605548 L12.8230433,10.9567156 C13.2135676,11.3472399 13.2135676,11.9804049 12.8230433,12.3709292 C12.432519,12.7614535 11.7993541,12.7614535 11.4088298,12.3709292 L10.3481696,11.310269 L9.28750943,12.3709292 C8.89698514,12.7614535 8.26382016,12.7614535 7.87329587,12.3709292 C7.48277157,11.9804049 7.48277157,11.3472399 7.87329587,10.9567156 L8.93395604,9.89605548 L7.87329587,8.8353953 C7.48277157,8.44487101 7.48277157,7.81170603 7.87329587,7.42118174 C8.26382016,7.03065745 8.89698514,7.03065745 9.28750943,7.42118174 Z" id="路径-14"></path>
                </g>
            </g>
        </g>
    </g>
</svg>