<?xml version="1.0" encoding="UTF-8"?>
<svg width="16px" height="16px" viewBox="0 0 16 16" version="1.1" xmlns="http://www.w3.org/2000/svg" xmlns:xlink="http://www.w3.org/1999/xlink">
    <title>model-selected@v4.0</title>
    <g id="页面-1" stroke="none" stroke-width="1" fill="none" fill-rule="evenodd">
        <g id="模型管理" transform="translate(-1253.000000, -102.000000)">
            <g id="编组-41" transform="translate(1200.000000, 97.000000)">
                <g id="编组-8" transform="translate(1.000000, 0.000000)">
                    <g id="model-selected" transform="translate(52.000000, 5.000000)">
                        <rect id="矩形" fill="#D8D8D8" opacity="0.01" x="0" y="0" width="16" height="16"></rect>
                        <g id="编组-47" transform="translate(1.000000, 1.137279)">
                            <g id="编组-46" fill="#36C2CF">
                                <path d="M4.52371685,0.120708033 C4.82084432,-0.0402360112 5.17915568,-0.0402360112 5.47628315,0.120708033 L5.47628315,0.120708033 L9.60369213,2.3563879 C9.84788133,2.48865705 10,2.74405598 10,3.02176715 L10,3.02176715 L10,3.35547076 C10,3.42774643 9.96100518,3.49439917 9.89800109,3.52981464 L9.89800109,3.52981464 L6.42743104,5.48074856 C6.38766977,5.41516966 6.33217422,5.35778677 6.26240858,5.31477272 L5.499,4.844 L5.5,2.31535725 C5.5,2.03921488 5.27614237,1.81535725 5,1.81535725 C4.72385763,1.81535725 4.5,2.03921488 4.5,2.31535725 L4.5,4.83572365 L1.74926054,6.4301364 C1.51035048,6.56861598 1.42893549,6.87455073 1.56741507,7.11346079 C1.70589465,7.35237085 2.0118294,7.43378584 2.25073946,7.29530626 L4.991,5.706 L5.485,6.01 L5.20909236,6.1655147 C4.92907415,6.32291678 4.74390743,6.60372538 4.70621628,6.9179916 L4.6990978,7.03723407 L4.6990978,9.72349866 C4.6990978,9.8076486 4.67785939,9.89043744 4.63735018,9.96419526 C4.50441712,10.2062354 4.20044131,10.2946841 3.9584012,10.161751 L3.9584012,10.161751 L0.518606807,8.27255011 C0.198764878,8.0968868 -1.27861433e-15,7.76095145 0,7.39604535 L0,7.39604535 L0,3.16666667 C-4.49436196e-17,2.79967416 0.20102329,2.46216705 0.523716851,2.2873747 L0.523716851,2.2873747 Z" id="路径-26"></path>
                            </g>
                            <g id="编组-46" transform="translate(6.000000, 4.862721)">
                                <path d="M4.02371685,0.257986705 L0.523716851,2.15382004 C0.20102329,2.32861238 3.9914559e-16,2.6661195 0,3.03311201 L0,6.71688799 C4.49436196e-17,7.0838805 0.20102329,7.42138762 0.523716851,7.59617996 L4.02371685,9.49201329 C4.32084432,9.65295734 4.67915568,9.65295734 4.97628315,9.49201329 L8.47628315,7.59617996 C8.79897671,7.42138762 9,7.0838805 9,6.71688799 L9,3.03311201 C9,2.6661195 8.79897671,2.32861238 8.47628315,2.15382004 L4.97628315,0.257986705 C4.67915568,0.0970426608 4.32084432,0.0970426608 4.02371685,0.257986705 Z" id="路径-23" fill="#36C2CF"></path>
                                <polyline id="路径-24" stroke="#E2F5FF" stroke-linecap="round" points="4.5 2.58947694 4.5 4.69583116 2.25 6"></polyline>
                                <line x1="4.5" y1="4.69583116" x2="6.75" y2="6" id="路径-25" stroke="#E2F5FF" stroke-linecap="round"></line>
                            </g>
                        </g>
                    </g>
                </g>
            </g>
        </g>
    </g>
</svg>