<?xml version="1.0" encoding="UTF-8"?>
<svg width="18px" height="8px" viewBox="0 0 18 8" version="1.1" xmlns="http://www.w3.org/2000/svg" xmlns:xlink="http://www.w3.org/1999/xlink">
    <!-- Generator: Sketch 59 (86127) - https://sketch.com -->
    <title>NEW</title>
    <desc>Created with Sketch.</desc>
    <g id="M3" stroke="none" stroke-width="1" fill="none" fill-rule="evenodd">
        <g id="3-标签" transform="translate(-840.000000, -389.000000)" fill="#FFA000">
            <g id="编组-2" transform="translate(302.000000, 203.000000)">
                <g id="编组-59" transform="translate(16.000000, 16.000000)">
                    <g id="编组-10备份-13" transform="translate(426.000000, 164.000000)">
                        <path d="M113,6 C113.552285,6 114,6.44771525 114,7 L114,13 C114,13.5522847 113.552285,14 113,14 L97,14 C96.4477153,14 96,13.5522847 96,13 L96,7 C96,6.44771525 96.4477153,6 97,6 L113,6 Z M98.987395,7.6 L98.25,7.6 L98.25,12.4 L98.987395,12.4 L98.987395,8.8907563 L99.012605,8.8907563 L101.262605,12.4 L101.981092,12.4 L101.981092,7.6 L101.237395,7.6 L101.237395,11.0621849 L101.212185,11.0621849 L98.987395,7.6 Z M106.109244,7.6 L102.863445,7.6 L102.863445,12.4 L106.216387,12.4 L106.216387,11.7277311 L103.60084,11.7277311 L103.60084,10.2756303 L105.957983,10.2756303 L105.957983,9.60336134 L103.60084,9.60336134 L103.60084,8.27226891 L106.109244,8.27226891 L106.109244,7.6 Z M107.331933,7.6 L106.5,7.6 L107.792017,12.4 L108.579832,12.4 L109.462185,8.78991597 L109.487395,8.78991597 L110.363445,12.4 L111.144958,12.4 L112.443277,7.6 L111.611345,7.6 L110.766807,11.2504202 L110.741597,11.2504202 L109.852941,7.6 L109.090336,7.6 L108.201681,11.2504202 L108.176471,11.2504202 L107.331933,7.6 Z" id="NEW"></path>
                    </g>
                </g>
            </g>
        </g>
    </g>
</svg>