<?xml version="1.0" encoding="UTF-8"?>
<svg width="12px" height="12px" viewBox="0 0 12 12" version="1.1" xmlns="http://www.w3.org/2000/svg" xmlns:xlink="http://www.w3.org/1999/xlink">
    <title>Platform customization-1</title>
    <defs>
        <rect id="path-1" x="0" y="0" width="12" height="12"></rect>
    </defs>
    <g id="-----5.1-icon" stroke="none" stroke-width="1" fill="none" fill-rule="evenodd">
        <g id="飞搭ICON" transform="translate(-1324.000000, -3953.000000)">
            <g id="Platform-customization-1" transform="translate(1324.000000, 3953.000000)">
                <mask id="mask-2" fill="white">
                    <use xlink:href="#path-1"></use>
                </mask>
                <use id="矩形" fill-opacity="0.01" fill="#FFFFFF" xlink:href="#path-1"></use>
                <path d="M1.5,1 L5.5,1 C5.77614237,1 6,1.22385763 6,1.5 L6,2.5 C6,2.77614237 5.77614237,3 5.5,3 L1.5,3 C1.22385763,3 1,2.77614237 1,2.5 L1,1.5 C1,1.22385763 1.22385763,1 1.5,1 Z M1.5,4 L3.5,4 C3.77614237,4 4,4.22385763 4,4.5 L4,10.5 C4,10.7761424 3.77614237,11 3.5,11 L1.5,11 C1.22385763,11 1,10.7761424 1,10.5 L1,4.5 C1,4.22385763 1.22385763,4 1.5,4 Z M10,1 C10.5522847,1 11,1.44771525 11,2 C11,2.55228475 10.5522847,3 10,3 C9.44771525,3 9,2.55228475 9,2 C9,1.44771525 9.44771525,1 10,1 Z M7.5,1 C8.05228475,1 8.5,1.44771525 8.5,2 C8.5,2.55228475 8.05228475,3 7.5,3 C6.94771525,3 6.5,2.55228475 6.5,2 C6.5,1.44771525 6.94771525,1 7.5,1 Z M5.5,4 L10.5,4 C10.7761424,4 11,4.22385763 11,4.5 L11,10.5 C11,10.7761424 10.7761424,11 10.5,11 L5.5,11 C5.22385763,11 5,10.7761424 5,10.5 L5,4.5 C5,4.22385763 5.22385763,4 5.5,4 Z" id="矩形-2" fill="#5AAFFF" mask="url(#mask-2)"></path>
            </g>
        </g>
    </g>
</svg>