<?xml version="1.0" encoding="UTF-8"?>
<svg width="12px" height="12px" viewBox="0 0 12 12" version="1.1" xmlns="http://www.w3.org/2000/svg" xmlns:xlink="http://www.w3.org/1999/xlink">
    <!-- Generator: Sketch 58 (84663) - https://sketch.com -->
    <title>preset</title>
    <desc>Created with Sketch.</desc>
    <g id="模型" stroke="none" stroke-width="1" fill="none" fill-rule="evenodd">
        <g id="预置" transform="translate(-76.000000, -155.000000)" fill="#5A7DED" fill-rule="nonzero">
            <g id="preset" transform="translate(76.000000, 155.000000)">
                <path d="M6.00000001,4.66686142 C5.26676309,4.66686142 4.66710487,5.26652664 4.66710487,6.00005258 C4.66710487,6.7324392 5.26676309,7.33212194 6.00000001,7.33212194 C6.73351738,7.33212194 7.33401693,6.73245672 7.33401693,6.00005258 C7.33401693,5.26652662 6.73351738,4.66686142 6.00000001,4.66686142 M10.6671049,0 L1.33401692,0 C0.600639765,0 0,0.599524989 0,1.33191163 L0,10.6669491 C0,11.400475 0.600657288,12 1.33401692,12 L10.6671049,12 C11.3994829,12 12,11.400475 12,10.666949 L12,1.33191161 C12,0.599524989 11.3994829,0 10.6671049,0 M9.0326461,6.00047405 L9.0326461,6.39498712 L9.91617631,7.0708826 C9.9756843,7.12625545 10.0344335,7.24009718 9.9756843,7.29618108 L9.15102721,8.64809054 C9.09227798,8.76133973 8.9732775,8.76133973 8.91539541,8.76133973 L7.913608,8.36670814 C7.67909111,8.53592273 7.44273153,8.64809054 7.20634097,8.76133973 L7.03046492,9.83174829 C7.03046492,9.94464196 6.91296645,10 6.8533346,10 L5.20477916,10 C5.08652194,10 5.02877922,9.94462714 5.02877922,9.83174829 L4.79240415,8.76133973 C4.5559052,8.64809054 4.32138831,8.53592273 4.08574103,8.36670814 L3.08420138,8.76133973 C2.96670291,8.81647557 2.90807756,8.76133973 2.84856958,8.64809054 L2.02467124,7.29618108 C1.96516326,7.18401327 2.02467124,7.12625544 2.08329659,7.0708826 L2.96670291,6.39498712 L2.96670291,6.00047405 L2.96670291,5.60584246 L2.08329659,4.92923594 C2.02467124,4.87374457 1.96516326,4.7607324 2.02467124,4.70464849 L2.84856958,3.35273903 C2.90807756,3.23877878 3.02545214,3.23877878 3.08420138,3.23877878 L4.08574103,3.63341037 C4.32138831,3.52110924 4.55588972,3.35273903 4.79240415,3.23877878 L4.96914735,2.16909609 C4.96914735,2.05525436 5.08652193,2 5.14602991,2 L6.79557636,2 C6.91296644,2 6.97171566,2.05523953 6.97171566,2.16909609 L7.14847435,3.23877878 C7.38398226,3.35273903 7.61949019,3.46492165 7.85512199,3.63341037 L8.8559029,3.23877878 C8.97327748,3.18353925 9.0326616,3.23877878 9.09229346,3.35273903 L9.91619179,4.70464849 C9.97569978,4.81694962 9.91619179,4.87374457 9.85655993,4.92923594 L8.97327748,5.60584246 C9.0326461,5.71895833 9.0326461,5.88805441 9.0326461,6.00047405" id="形状"></path>
            </g>
        </g>
    </g>
</svg>