<?xml version="1.0" encoding="UTF-8"?>
<svg width="18px" height="18px" viewBox="0 0 18 18" version="1.1" xmlns="http://www.w3.org/2000/svg" xmlns:xlink="http://www.w3.org/1999/xlink">
    <title>shibai</title>
    <g id="业务对象" stroke="none" stroke-width="1" fill="none" fill-rule="evenodd">
        <g id="发布校验" transform="translate(-48.000000, -36.000000)" fill-rule="nonzero">
            <g id="编组-6" transform="translate(32.000000, 19.000000)">
                <g id="shibai" transform="translate(16.000000, 17.000000)">
                    <path d="M9,0 C4.02991071,0 0,4.02991071 0,9 C0,13.9700893 4.02991071,18 9,18 C13.9700893,18 18,13.9700893 18,9 C18,4.02991071 13.9700893,0 9,0 Z" id="路径" fill="#F45063"></path>
                    <path d="M9.74074587,9 L12.7037294,11.9629835 C12.9082807,12.1675348 12.9082807,12.499178 12.7037294,12.7037294 C12.499178,12.9082807 12.1675348,12.9082807 11.9629835,12.7037294 L9,9.74074587 L6.03701651,12.7037294 C5.83246518,12.9082807 5.50082196,12.9082807 5.29627064,12.7037294 C5.09171931,12.499178 5.09171931,12.1675348 5.29627064,11.9629835 L8.25925413,9 L5.29627064,6.03701651 C5.09171931,5.83246518 5.09171931,5.50082196 5.29627064,5.29627064 C5.50082196,5.09171931 5.83246518,5.09171931 6.03701651,5.29627064 L9,8.25925413 L11.9629835,5.29627064 C12.1675348,5.09171931 12.499178,5.09171931 12.7037294,5.29627064 C12.9082807,5.50082196 12.9082807,5.83246518 12.7037294,6.03701651 L9.74074587,9 Z" id="Path" stroke="#FFFFFF" stroke-width="0.692307692" fill="#FFFFFF"></path>
                </g>
            </g>
        </g>
    </g>
</svg>