<?xml version="1.0" encoding="UTF-8"?>
<svg width="16px" height="16px" viewBox="0 0 16 16" version="1.1" xmlns="http://www.w3.org/2000/svg" xmlns:xlink="http://www.w3.org/1999/xlink">
    <!-- Generator: Sketch 58 (84663) - https://sketch.com -->
    <title>refresh</title>
    <desc>Created with Sketch.</desc>
    <g id="模型" stroke="none" stroke-width="1" fill="none" fill-rule="evenodd">
        <g id="基础数据结构-基础表" transform="translate(-280.000000, -72.000000)" fill-rule="nonzero">
            <g id="refresh" transform="translate(280.000000, 72.000000)">
                <rect id="矩形" fill="#FFFFFF" opacity="0.01" x="0" y="0" width="16" height="16"></rect>
                <path d="M12.625,8.9546875 C12.1828125,11.09375 10.2828125,12.70625 8.0140625,12.70625 C5.4171875,12.70625 3.3046875,10.59375 3.3046875,7.996875 C3.3046875,5.4 5.4171875,3.2875 8.0140625,3.2875 C9.278125,3.2875 10.4859375,3.8015625 11.365625,4.6890625 L9.04375,7.009375 L14.4421875,7.009375 L14.4421875,1.6109375 L12.6640625,3.3890625 C12.1890625,2.909375 11.640625,2.503125 11.04375,2.1921875 C10.115625,1.70625 9.0671875,1.45 8.0140625,1.45 C7.13125,1.45 6.2734375,1.6234375 5.465625,1.9640625 C4.6859375,2.29375 3.9859375,2.765625 3.384375,3.3671875 C2.7828125,3.96875 2.3109375,4.66875 1.98125,5.4484375 C1.640625,6.25625 1.4671875,7.1140625 1.4671875,7.996875 C1.4671875,8.8796875 1.640625,9.7375 1.98125,10.5453125 C2.3109375,11.325 2.7828125,12.025 3.384375,12.6265625 C3.9859375,13.228125 4.6859375,13.7 5.465625,14.0296875 C6.2734375,14.371875 7.13125,14.54375 8.0140625,14.54375 C8.896875,14.54375 9.7546875,14.3703125 10.5625,14.0296875 C11.3421875,13.7 12.0421875,13.228125 12.64375,12.6265625 C13.2453125,12.025 13.7171875,11.325 14.046875,10.5453125 C14.2640625,10.0328125 14.4125,9.5 14.4921875,8.9546875 L12.625,8.9546875 Z" id="路径" fill="#5A6677"></path>
            </g>
        </g>
    </g>
</svg>