<?xml version="1.0" encoding="UTF-8"?>
<svg width="16px" height="16px" viewBox="0 0 16 16" version="1.1" xmlns="http://www.w3.org/2000/svg" xmlns:xlink="http://www.w3.org/1999/xlink">
    <!-- Generator: Sketch 58 (84663) - https://sketch.com -->
    <title>relationship@v4.0</title>
    <desc>Created with Sketch.</desc>
    <g id="UIUX优化" stroke="none" stroke-width="1" fill="none" fill-rule="evenodd">
        <g id="模型属性面板" transform="translate(-755.000000, -47.000000)">
            <g id="编组-8备份-3" transform="translate(583.000000, 42.000000)">
                <g id="relationship" transform="translate(172.000000, 5.000000)">
                    <rect id="矩形" fill="#FFFFFF" fill-rule="nonzero" opacity="0.01" x="0" y="0" width="16" height="16"></rect>
                    <path d="M12,1 C13.6568542,1 15,2.34314575 15,4 C15,5.39995525 14.041079,6.57594249 12.7442338,6.90696485 L12.75,7 L12.75,11.1336791 C12.75,12.5786332 11.5786332,13.75 10.1336791,13.75 C8.68872492,13.75 7.51735814,12.5786332 7.51735814,11.1336791 L7.51735814,11.1336791 L7.51735814,6.8799407 C7.51735814,6.11575585 6.89786392,5.49626163 6.13367907,5.49626163 C5.36949422,5.49626163 4.75,6.11575585 4.75,6.8799407 L4.75,6.8799407 L4.75124955,9.09483501 C6.04453589,9.42830149 7,10.6025704 7,12 C7,13.6568542 5.65685425,15 4,15 C2.34314575,15 1,13.6568542 1,12 C1,10.6022096 1.95595757,9.42769512 3.24975229,9.09457688 L3.25,6.8799407 C3.25,5.28732872 4.5410671,3.99626163 6.13367907,3.99626163 C7.72629104,3.99626163 9.01735814,5.28732872 9.01735814,6.8799407 L9.01735814,6.8799407 L9.01735814,11.1336791 C9.01735814,11.7502061 9.51715204,12.25 10.1336791,12.25 C10.7502061,12.25 11.25,11.7502061 11.25,11.1336791 L11.25,11.1336791 L11.25,7 C11.25,6.96785107 11.2520228,6.93617459 11.255948,6.90509088 C9.95892101,6.57594249 9,5.39995525 9,4 C9,2.34314575 10.3431458,1 12,1 Z M4,11 C3.44771525,11 3,11.4477153 3,12 C3,12.5522847 3.44771525,13 4,13 C4.55228475,13 5,12.5522847 5,12 C5,11.4477153 4.55228475,11 4,11 Z M12,3 C11.4477153,3 11,3.44771525 11,4 C11,4.55228475 11.4477153,5 12,5 C12.5522847,5 13,4.55228475 13,4 C13,3.44771525 12.5522847,3 12,3 Z" id="形状结合" fill="#A4A6B1"></path>
                </g>
            </g>
        </g>
    </g>
</svg>