<?xml version="1.0" encoding="UTF-8"?>
<svg width="20px" height="20px" viewBox="0 0 20 20" version="1.1" xmlns="http://www.w3.org/2000/svg" xmlns:xlink="http://www.w3.org/1999/xlink">
    <title>Checkbox</title>
    <defs>
        <rect id="path-1" x="0" y="0" width="20" height="20"></rect>
    </defs>
    <g id="页面-1" stroke="none" stroke-width="1" fill="none" fill-rule="evenodd">
        <g id="icon" transform="translate(-429.000000, -250.000000)">
            <g id="Checkbox" transform="translate(429.000000, 250.000000)">
                <mask id="mask-2" fill="white">
                    <use xlink:href="#path-1"></use>
                </mask>
                <use id="矩形备份-5" fill-opacity="0.01" fill="#FFFFFF" xlink:href="#path-1"></use>
                <path d="M13.5,5.5 C15.9852814,5.5 18,7.51471863 18,10 C18,12.4852814 15.9852814,14.5 13.5,14.5 L6.5,14.5 C4.01471863,14.5 2,12.4852814 2,10 C2,7.51471863 4.01471863,5.5 6.5,5.5 L13.5,5.5 Z M13.5,6.5 L6.5,6.5 C4.56700338,6.5 3,8.06700338 3,10 C3,11.8685634 4.4642776,13.3951264 6.3079648,13.4948211 L6.5,13.5 L13.5,13.5 C15.4329966,13.5 17,11.9329966 17,10 C17,8.1314366 15.5357224,6.60487355 13.6920352,6.50517886 L13.5,6.5 Z M13.5,7.5 C14.8807119,7.5 16,8.61928813 16,10 C16,11.3807119 14.8807119,12.5 13.5,12.5 C12.1192881,12.5 11,11.3807119 11,10 C11,8.61928813 12.1192881,7.5 13.5,7.5 Z M13.5,8.5 C12.6715729,8.5 12,9.17157288 12,10 C12,10.8284271 12.6715729,11.5 13.5,11.5 C14.3284271,11.5 15,10.8284271 15,10 C15,9.17157288 14.3284271,8.5 13.5,8.5 Z" id="矩形-3" fill="#0840F8" mask="url(#mask-2)"></path>
            </g>
        </g>
    </g>
</svg>