<?xml version="1.0" encoding="UTF-8"?>
<svg width="16px" height="16px" viewBox="0 0 16 16" version="1.1" xmlns="http://www.w3.org/2000/svg" xmlns:xlink="http://www.w3.org/1999/xlink">
    <!-- Generator: Sketch 58 (84663) - https://sketch.com -->
    <title>tabicon/model-selected</title>
    <desc>Created with Sketch.</desc>
    <defs>
        <linearGradient x1="58.2688945%" y1="58.5371505%" x2="2.16310417%" y2="-14.0983919%" id="linearGradient-1">
            <stop stop-color="#024AC4" offset="0%"></stop>
            <stop stop-color="#012492" offset="100%"></stop>
        </linearGradient>
        <linearGradient x1="50%" y1="0%" x2="50%" y2="100%" id="linearGradient-2">
            <stop stop-color="#64BDE3" offset="0%"></stop>
            <stop stop-color="#226AE6" offset="100%"></stop>
        </linearGradient>
    </defs>
    <g id="组件" stroke="none" stroke-width="1" fill="none" fill-rule="evenodd">
        <g id="tabicon/model备份">
            <g id="tabicon/model-selected">
                <rect id="矩形" fill="#D8D8D8" opacity="0.01" x="0" y="0" width="16" height="16"></rect>
                <g id="编组-47" transform="translate(1.000000, 1.000000)">
                    <g id="编组-46" fill="url(#linearGradient-1)">
                        <path d="M5.36223135,0.205176941 L5.47628315,0.257986705 L9.60369213,2.49366657 C9.81735768,2.60940207 9.96053173,2.81940882 9.99298672,3.05614693 L10,3.15904583 L10,3.49274943 C10,3.54695618 9.97806542,3.59800004 9.94051827,3.63507494 L9.89800109,3.66709331 L6.42743104,5.61802723 C6.38766977,5.55244833 6.33217422,5.49506544 6.26240858,5.45205139 L5.499,4.98127867 L5.5,2.45263592 C5.5,2.17649355 5.27614237,1.95263592 5,1.95263592 C4.72385763,1.95263592 4.5,2.17649355 4.5,2.45263592 L4.5,4.97300232 L1.74926054,6.56741507 C1.51035048,6.70589465 1.42893549,7.0118294 1.56741507,7.25073946 C1.70589465,7.48964952 2.0118294,7.57106451 2.25073946,7.43258493 L4.991,5.84327867 L5.485,6.14727867 L5.20909236,6.30279337 C4.92907415,6.46019546 4.74390743,6.74100405 4.70621628,7.05527027 L4.6990978,7.17451275 L4.6990978,9.86077734 C4.6990978,9.94492728 4.67785939,10.0277161 4.63735018,10.1014739 C4.51918746,10.3166207 4.26587985,10.4104113 4.04105557,10.3352344 L3.9584012,10.2990297 L0.518606807,8.40982879 C0.23430287,8.25368362 0.0456647513,7.97090376 0.00725509448,7.65370629 L0,7.53332403 L0,3.30394534 C3.02291908e-16,2.97772978 0.158833217,2.67481132 0.420767489,2.4887612 L0.523716851,2.42465337 L4.52371685,0.257986705 C4.78370339,0.117160666 5.09053384,0.0995574115 5.36223135,0.205176941 Z" id="路径-26"></path>
                    </g>
                    <g id="编组-46" transform="translate(6.000000, 5.000000)">
                        <path d="M4.02371685,0.257986705 L0.523716851,2.15382004 C0.20102329,2.32861238 1.77100985e-16,2.6661195 0,3.03311201 L0,6.71688799 C4.49436196e-17,7.0838805 0.20102329,7.42138762 0.523716851,7.59617996 L4.02371685,9.49201329 C4.32084432,9.65295734 4.67915568,9.65295734 4.97628315,9.49201329 L8.47628315,7.59617996 C8.79897671,7.42138762 9,7.0838805 9,6.71688799 L9,3.03311201 C9,2.6661195 8.79897671,2.32861238 8.47628315,2.15382004 L4.97628315,0.257986705 C4.67915568,0.0970426608 4.32084432,0.0970426608 4.02371685,0.257986705 Z" id="路径-23" fill="url(#linearGradient-2)"></path>
                        <polyline id="路径-24" stroke="#E2F5FF" stroke-linecap="round" points="4.5 2.58947694 4.5 4.69583116 2.25 6"></polyline>
                        <path d="M4.5,4.69583116 L6.75,6" id="路径-25" stroke="#E2F5FF" stroke-linecap="round"></path>
                    </g>
                </g>
            </g>
        </g>
    </g>
</svg>