<?xml version="1.0" encoding="UTF-8"?>
<svg width="8px" height="8px" viewBox="0 0 8 8" version="1.1" xmlns="http://www.w3.org/2000/svg" xmlns:xlink="http://www.w3.org/1999/xlink">
    <!-- Generator: Sketch 58 (84663) - https://sketch.com -->
    <title>tick</title>
    <desc>Created with Sketch.</desc>
    <g id="展现" stroke="none" stroke-width="1" fill="none" fill-rule="evenodd">
        <g id="发布后状态、分组收起、HTML、开关、颜色" transform="translate(-106.000000, -230.000000)">
            <g id="编组-15" transform="translate(52.000000, 48.000000)">
                <g id="编组-4">
                    <g id="编组-11" transform="translate(0.000000, 46.000000)">
                        <g id="page-release" transform="translate(48.000000, 130.000000)">
                            <g id="tick" transform="translate(6.000000, 6.000000)">
                                <circle id="椭圆形" fill="#59CFAA" cx="4" cy="4" r="4"></circle>
                                <path d="M2.36666667,1.98168631 C2.66735503,1.98168631 2.91111111,2.22544239 2.91111111,2.52613075 L2.91022222,4.15868631 L5.63333333,4.15946409 C5.9340217,4.15946409 6.17777778,4.40322017 6.17777778,4.70390853 C6.17777778,5.00459689 5.9340217,5.24835297 5.63333333,5.24835297 L2.36666667,5.24835297 L2.36666667,5.24835297 C2.0659783,5.24835297 1.82222222,5.00459689 1.82222222,4.70390853 L1.82222222,2.52613075 C1.82222222,2.22544239 2.0659783,1.98168631 2.36666667,1.98168631 Z" id="矩形-8" fill="#FFFFFF" transform="translate(4.000000, 3.615020) rotate(-45.000000) translate(-4.000000, -3.615020) "></path>
                            </g>
                        </g>
                    </g>
                </g>
            </g>
        </g>
    </g>
</svg>