<?xml version="1.0" encoding="UTF-8"?>
<svg width="16px" height="16px" viewBox="0 0 16 16" version="1.1" xmlns="http://www.w3.org/2000/svg" xmlns:xlink="http://www.w3.org/1999/xlink">
    <title>button/tishi</title>
    <g id="button/tishi" stroke="none" stroke-width="1" fill="none" fill-rule="evenodd">
        <path d="M7.99924141,1 C8.95000542,1 9.86031138,1.18206119 10.7301593,1.54618358 C11.5595492,1.89007694 12.308023,2.39580248 12.9553517,3.04313116 C13.6026803,3.69045985 14.1084059,4.43893364 14.4522992,5.26832352 C14.8366507,6.13817144 15.0187118,7.0484774 14.9984828,7.99924141 C14.9984828,8.95000542 14.8164216,9.86031138 14.4522992,10.7301593 C14.1084059,11.5595492 13.6026803,12.308023 12.9553517,12.9553517 C12.308023,13.6026803 11.5595492,14.1084059 10.7301593,14.4522992 C9.86031138,14.8164216 8.95000542,14.9984828 7.99924141,14.9984828 C7.0484774,14.9984828 6.13817144,14.8164216 5.26832352,14.4522992 C4.43893364,14.1084059 3.69045985,13.6026803 3.04313116,12.9553517 C2.39580248,12.308023 1.89007694,11.5595492 1.54618358,10.7301593 C1.18206119,9.86031138 1,8.95000542 1,7.99924141 C1,7.0484774 1.18206119,6.13817144 1.54618358,5.26832352 C1.89007694,4.43893364 2.39580248,3.69045985 3.04313116,3.04313116 C3.69045985,2.39580248 4.43893364,1.89007694 5.26832352,1.54618358 C6.13817144,1.18206119 7.0484774,1 7.99924141,1 Z M7.99924141,1.99122205 C4.6816819,1.99122205 1.99122205,4.6816819 1.99122205,7.99924141 C1.99122205,11.3168009 4.6816819,14.0072608 7.99924141,14.0072608 C11.3168009,14.0072608 14.0072608,11.3168009 14.0072608,7.99924141 C14.0072608,4.6816819 11.3168009,1.99122205 7.99924141,1.99122205 Z M7.91039176,10.7310127 C8.168729,10.7310127 8.39016093,10.8048234 8.56238576,10.9770482 C8.73461059,11.1369712 8.82072301,11.3461014 8.82072301,11.6044386 C8.82072301,11.8627759 8.73461059,12.071906 8.56238576,12.2441309 C8.37785916,12.4040539 8.15642723,12.4901663 7.91039176,12.4901663 C7.65205451,12.4901663 7.44292436,12.4040539 7.2830013,12.2318291 C7.0984747,12.0596043 7.01236228,11.8504741 7.01236228,11.6044386 C7.01236228,11.3830067 7.07562854,11.1977269 7.20990796,11.0485993 L7.2830013,10.9770482 C7.44292436,10.8048234 7.65205451,10.7310127 7.91039176,10.7310127 Z M8.11952191,3.53447513 C8.9191372,3.53447513 9.55882943,3.74360528 10.0509004,4.18646913 C10.5306695,4.61703121 10.776705,5.20751635 10.776705,5.94562276 C10.776705,6.54840967 10.616782,7.05278239 10.3215394,7.44643915 C10.2477288,7.53665216 10.0700365,7.70887699 9.78481756,7.96311364 L9.78481756,7.96311364 L9.27588863,8.4059775 C9.05445671,8.60280587 8.88223188,8.81193603 8.77151591,9.03336795 C8.6361964,9.27940342 8.57468753,9.55004244 8.57468753,9.85758679 L8.57468753,9.85758679 L8.57468753,10.0667169 L7.25839775,10.0667169 L7.25839775,9.85758679 C7.25839775,9.40242116 7.3322084,9.0087644 7.49213145,8.68891829 C7.66435628,8.34446863 8.13182368,7.84009591 8.89453365,7.16349836 L8.89453365,7.16349836 L9.1036638,6.92976466 C9.32509573,6.64682386 9.43581169,6.3515813 9.43581169,6.03173518 C9.43581169,5.6011731 9.31279395,5.26902521 9.07906025,5.02298974 C8.83302478,4.77695427 8.48857512,4.65393653 8.04571127,4.65393653 C7.49213145,4.65393653 7.08617292,4.82616136 6.84013745,5.17061102 C6.61870552,5.46585359 6.50798956,5.89641567 6.50798956,6.43769371 L6.50798956,6.43769371 L5.20400155,6.43769371 C5.20400155,5.53966423 5.4623388,4.83846314 5.99131507,4.32178864 C6.50798956,3.79281238 7.22149243,3.53447513 8.11952191,3.53447513 Z" id="形状结合" fill="#7C859B" fill-rule="nonzero"></path>
    </g>
</svg>