<?xml version="1.0" encoding="UTF-8"?>
<svg width="15px" height="15px" viewBox="0 0 15 15" version="1.1" xmlns="http://www.w3.org/2000/svg" xmlns:xlink="http://www.w3.org/1999/xlink">
    <title>tonbu</title>
    <g id="页面-2" stroke="none" stroke-width="1" fill="none" fill-rule="evenodd">
        <g id="模型管理-字段信息" transform="translate(-1326.000000, -171.000000)">
            <g id="tonbu" transform="translate(1326.254044, 171.783652)">
                <rect id="矩形" x="0" y="0" width="14" height="14"></rect>
                <path d="M8.5586269,1.76448212 L8.77926893,1.83600919 C10.9504601,2.59254824 12.3955593,4.67278034 12.3294188,6.98867468 C12.2649202,9.24708126 10.7751336,11.2127142 8.63932714,11.798403 L9.22611986,12.1498608 C9.42011322,12.2627895 9.5095304,12.4953889 9.44113856,12.7091852 C9.37274672,12.9229816 9.16493203,13.0604987 8.94463909,13.0400613 C8.85994115,13.0377407 8.77737822,13.0129719 8.7055471,12.9683837 L7.27872962,12.0900125 C7.17041926,12.0236267 7.09295305,11.9168955 7.06340345,11.7933361 C7.03394138,11.6700618 7.0545921,11.5401343 7.1208752,11.431985 L7.99884845,10.0058283 C8.08681939,9.85720299 8.24805559,9.76751736 8.42072598,9.77116415 C8.59339637,9.77481095 8.75070217,9.87122418 8.83231953,10.0234312 C8.9139369,10.1756382 8.90719865,10.3600161 8.8153371,10.5048089 L8.44978275,10.9423473 C10.1552294,10.3566755 11.325966,8.77062499 11.3763549,6.95891506 C11.4308892,4.99815974 10.1634752,3.24455595 8.28349012,2.6808072 C8.03632581,2.60030087 7.89864359,2.33719397 7.9733979,2.0882296 C8.04815222,1.83926522 8.30799631,1.69552001 8.5586269,1.76448212 Z M5.27196988,0.980405795 L6.81466804,1.63819531 C6.93159945,1.68839093 7.02372094,1.78309526 7.07038941,1.90069017 C7.11890568,2.01788461 7.11890568,2.14954727 7.07017531,2.2672509 L6.41248771,3.80756757 C6.33693235,3.98598125 6.1612401,4.10122598 5.96800193,4.09947198 C5.80694457,4.09966421 5.6565912,4.0188377 5.56792528,3.88439319 C5.47925596,3.74994352 5.4641722,3.57990696 5.52778729,3.43195296 L5.87550012,2.83153729 L5.62189452,2.90375379 C3.83744716,3.47900299 2.61504542,5.14325871 2.61504542,7.0339476 C2.61504542,8.994662 3.92967226,10.7118598 5.822468,11.2235387 C6.05212989,11.2857362 6.20120141,11.507231 6.17235499,11.7434111 C6.1435089,11.9795884 5.94551223,12.1586941 5.70692764,12.1638229 C5.66454008,12.1641239 5.62232984,12.1584384 5.58208969,12.1470673 C3.27249581,11.5221744 1.66854849,9.42658525 1.66854849,7.03394759 C1.66854849,4.71264006 3.18003246,2.66352107 5.38712316,2.06984404 L4.89635732,1.86082249 C4.65323697,1.75709995 4.54023271,1.47592822 4.64395525,1.23280786 C4.7476778,0.989687507 5.02884952,0.876683252 5.27196988,0.980405795 Z" id="形状结合" fill="#36C2CF" fill-rule="nonzero" transform="translate(7.000073, 6.991981) rotate(-180.000000) translate(-7.000073, -6.991981) "></path>
            </g>
        </g>
    </g>
</svg>