<?xml version="1.0" encoding="UTF-8"?>
<svg width="14px" height="14px" viewBox="0 0 14 14" version="1.1" xmlns="http://www.w3.org/2000/svg" xmlns:xlink="http://www.w3.org/1999/xlink">
    <title>cancel</title>
    <defs>
        <path d="M6.125,0.291666662 C2.89916666,0.291666662 0.291666662,2.89916666 0.291666662,6.125 C0.291666662,9.35083334 2.89916666,11.9583333 6.125,11.9583333 C9.35083334,11.9583333 11.9583333,9.35083334 11.9583333,6.125 C11.9583333,2.89916666 9.35083334,0.291666662 6.125,0.291666662 Z M9.04166666,8.21916666 L8.21916666,9.04166666 L6.125,6.9475 L4.03083334,9.04166666 L3.20833334,8.21916666 L5.3025,6.125 L3.20833334,4.03083334 L4.03083334,3.20833334 L6.125,5.3025 L8.21916666,3.20833334 L9.04166666,4.03083334 L6.9475,6.125 L9.04166666,8.21916666 L9.04166666,8.21916666 Z" id="path-1"></path>
    </defs>
    <g id="寻源" stroke="none" stroke-width="1" fill="none" fill-rule="evenodd">
        <g id="cancel">
            <rect id="矩形" fill="#000000" fill-rule="nonzero" opacity="0" x="0" y="0" width="14" height="14"></rect>
            <g id="color" transform="translate(0.875000, 0.875000)">
                <mask id="mask-2" fill="white">
                    <use xlink:href="#path-1"></use>
                </mask>
                <use id="蒙版" fill="#F5222D" fill-rule="nonzero" xlink:href="#path-1"></use>
            </g>
        </g>
    </g>
</svg>