<?xml version="1.0" encoding="UTF-8"?>
<svg width="198px" height="88px" viewBox="0 0 198 88" version="1.1" xmlns="http://www.w3.org/2000/svg" xmlns:xlink="http://www.w3.org/1999/xlink">
    <title>风险报告查询-none</title>
    <g id="风险报告查询" stroke="none" stroke-width="1" fill="none" fill-rule="evenodd">
        <g id="企业风险报告查询" transform="translate(-762, -396)">
            <g id="编组-3" transform="translate(296, 144)">
                <g id="风险报告查询-none" transform="translate(466, 252)">
                    <rect id="矩形" x="0" y="0" width="198" height="88"></rect>
                    <path d="M39.6,0 L158.4,0 C159.615026,0 160.6,0.98497355 160.6,2.2 L160.6,85.8 C160.6,87.0150264 159.615026,88 158.4,88 L39.6,88 C38.3849736,88 37.4,87.0150264 37.4,85.8 L37.4,2.2 C37.4,0.98497355 38.3849736,0 39.6,0 Z" id="矩形" fill="#F0F2F7"></path>
                    <g id="编组-6" transform="translate(41.8, 13.2)">
                        <rect id="矩形" fill="#FFFFFF" x="0" y="0" width="114.4" height="70.4" rx="1.5"></rect>
                        <g id="编组" transform="translate(5.8667, 5.8667)" fill-rule="nonzero">
                            <path d="M1.5,0 L101.166667,-2.22044605e-16 C101.995094,1.50773888e-14 102.666667,0.671572875 102.666667,1.5 L102.666667,24.9 C102.666667,25.7284271 101.995094,26.4 101.166667,26.4 L1.5,26.4 C0.671572875,26.4 4.14830408e-15,25.7284271 0,24.9 L0,1.5 C-1.01453063e-16,0.671572875 0.671572875,-6.98650109e-17 1.5,-2.22044605e-16 Z" id="矩形" stroke="#E5E7EC" stroke-width="0.375" fill="#F7F8FA" stroke-dasharray="1.5"></path>
                            <path d="M5.9,4.4 L24.5333333,4.4 C25.3617605,4.4 26.0333333,5.07157288 26.0333333,5.9 L26.0333333,9.5 C26.0333333,10.3284271 25.3617605,11 24.5333333,11 L5.9,11 C5.07157288,11 4.4,10.3284271 4.4,9.5 L4.4,5.9 C4.4,5.07157288 5.07157288,4.4 5.9,4.4 Z" id="矩形" fill="#CFD8E5" opacity="0.6"></path>
                            <path d="M5.9,15.4 L96.7666667,15.4 C97.5950938,15.4 98.2666667,16.0715729 98.2666667,16.9 L98.2666667,20.5 C98.2666667,21.3284271 97.5950938,22 96.7666667,22 L5.9,22 C5.07157288,22 4.4,21.3284271 4.4,20.5 L4.4,16.9 C4.4,16.0715729 5.07157288,15.4 5.9,15.4 Z" id="矩形" fill="#CFD8E5" opacity="0.3"></path>
                        </g>
                        <g id="编组" transform="translate(5.8667, 38.1333)" fill-rule="nonzero">
                            <path d="M1.5,0 L101.166667,-2.22044605e-16 C101.995094,1.50773888e-14 102.666667,0.671572875 102.666667,1.5 L102.666667,24.9 C102.666667,25.7284271 101.995094,26.4 101.166667,26.4 L1.5,26.4 C0.671572875,26.4 4.14830408e-15,25.7284271 0,24.9 L0,1.5 C-1.01453063e-16,0.671572875 0.671572875,-6.98650109e-17 1.5,-2.22044605e-16 Z" id="矩形" stroke="#E5E7EC" stroke-width="0.375" fill="#F7F8FA" stroke-dasharray="1.5"></path>
                            <path d="M5.9,4.4 L24.5333333,4.4 C25.3617605,4.4 26.0333333,5.07157288 26.0333333,5.9 L26.0333333,9.5 C26.0333333,10.3284271 25.3617605,11 24.5333333,11 L5.9,11 C5.07157288,11 4.4,10.3284271 4.4,9.5 L4.4,5.9 C4.4,5.07157288 5.07157288,4.4 5.9,4.4 Z" id="矩形" fill="#CFD8E5" opacity="0.6"></path>
                            <path d="M5.9,15.4 L96.7666667,15.4 C97.5950938,15.4 98.2666667,16.0715729 98.2666667,16.9 L98.2666667,20.5 C98.2666667,21.3284271 97.5950938,22 96.7666667,22 L5.9,22 C5.07157288,22 4.4,21.3284271 4.4,20.5 L4.4,16.9 C4.4,16.0715729 5.07157288,15.4 5.9,15.4 Z" id="矩形" fill="#CFD8E5" opacity="0.3"></path>
                        </g>
                    </g>
                    <g id="编组-5" transform="translate(37.4, 0)">
                        <path d="M2.2,0 L121,0 C122.215026,0 123.2,0.98497355 123.2,2.2 L123.2,8.8 L0,8.8 L0,2.2 C0,0.98497355 0.98497355,0 2.2,0 Z" id="矩形" fill="#D8E0EB" fill-rule="nonzero"></path>
                        <circle id="椭圆形" fill="#FFFFFF" cx="6.6" cy="4.4" r="2.2"></circle>
                        <circle id="椭圆形备份" fill="#FFFFFF" cx="15.4" cy="4.4" r="2.2"></circle>
                        <circle id="椭圆形备份-2" fill="#FFFFFF" cx="24.2" cy="4.4" r="2.2"></circle>
                    </g>
                </g>
            </g>
        </g>
    </g>
</svg>