<?xml version="1.0" encoding="UTF-8"?>
<svg width="130px" height="96px" viewBox="0 0 130 96" version="1.1"
  xmlns="http://www.w3.org/2000/svg"
  xmlns:xlink="http://www.w3.org/1999/xlink">
  <title>风险报告下载-none</title>
  <g id="风险报告下载" stroke="none" stroke-width="1" fill="none" fill-rule="evenodd">
    <g id="空态" transform="translate(-655, -352)">
      <g id="风险报告下载-none" transform="translate(655, 352)">
        <g id="编组-28" fill-rule="nonzero">
          <g id="Title">
            <path d="M3.60522258,0 L126.885879,0 C129.030142,0 130,1.58868727 130,3.28578341 L130,7.82608696 L0,7.82608696 L0,3.63235824 C0,1.02556855 1.3122742,0 3.60522258,0 Z" id="Rectangle-Copy-10" fill="#D8E0EB"></path>
            <ellipse id="Oval" fill="#FFFFFF" opacity="0.746814546" cx="6.125" cy="3.91304348" rx="1.875" ry="1.95652174"></ellipse>
            <ellipse id="Oval备份" fill="#FFFFFF" opacity="0.746814546" cx="13.625" cy="3.91304348" rx="1.875" ry="1.95652174"></ellipse>
            <ellipse id="Oval备份-2" fill="#FFFFFF" opacity="0.746814546" cx="21.125" cy="3.91304348" rx="1.875" ry="1.95652174"></ellipse>
          </g>
        </g>
        <g id="title">
          <g id="path-1-link" fill="#F0F2F7">
            <rect id="path-1" x="0" y="0" width="130" height="96" rx="2.88"></rect>
          </g>
          <g id="Title" fill-rule="nonzero">
            <path d="M3.60522258,0 L126.885879,0 C129.030142,0 130,1.58868727 130,3.28578341 L130,7.82608696 L0,7.82608696 L0,3.63235824 C0,1.02556855 1.3122742,0 3.60522258,0 Z" id="Rectangle-Copy-10" fill="#D8E0EB"></path>
            <ellipse id="Oval" fill="#FFFFFF" opacity="0.746814546" cx="6.125" cy="3.91304348" rx="1.875" ry="1.95652174"></ellipse>
            <ellipse id="Oval备份" fill="#FFFFFF" opacity="0.746814546" cx="13.625" cy="3.91304348" rx="1.875" ry="1.95652174"></ellipse>
            <ellipse id="Oval备份-2" fill="#FFFFFF" opacity="0.746814546" cx="21.125" cy="3.91304348" rx="1.875" ry="1.95652174"></ellipse>
          </g>
          <rect id="矩形" fill="#FFFFFF" x="6" y="13.5652174" width="118" height="76.173913" rx="3"></rect>
          <g id="编组-29" transform="translate(4, 12.5217)">
            <rect id="矩形" fill="#DAE1EB" fill-rule="nonzero" x="11" y="9.39130435" width="21.2307692" height="3.85284281" rx="1"></rect>
            <g id="issue" transform="translate(23, 17.2418)">
              <g id="编组-2" transform="translate(26.0312, 0)">
                <path d="M11.75,17.2418478 C12.9667523,17.2418478 13.953125,18.2711063 13.953125,19.5407609 C13.953125,20.391455 13.5103157,21.1342288 12.8520924,21.5318003 L12.8515625,24.138587 L10.6484375,24.138587 L10.648649,21.5322479 C9.99001678,21.1347864 9.546875,20.3917743 9.546875,19.5407609 C9.546875,18.2711063 10.5332477,17.2418478 11.75,17.2418478 Z" id="形状结合" fill="#FFFFFF" fill-rule="nonzero"></path>
                <g id="path-5-link" transform="translate(2.9375, 0)" fill="#00B8CC">
                  <path d="M8.8125,0 C13.6046323,0 17.5033822,3.9913302 17.6222094,8.96194866 L17.625,9.19565217 L17.625,12.9261611 L15.421875,12.9261611 L15.421875,9.19565217 C15.421875,5.38668833 12.462757,2.29891304 8.8125,2.29891304 C5.22742614,2.29891304 2.30902818,5.27739527 2.20594288,8.99230389 L2.203125,9.19565217 L2.203125,12.9261611 L0,12.9261611 L0,9.19565217 C0,4.11703371 3.94549064,0 8.8125,0 Z" id="path-dynamic"></path>
                </g>
                <g id="path-8-link" transform="translate(0, 12.644)" fill="#00B8CC">
                  <path d="M22.03125,0 C22.8424182,0 23.5,0.686172285 23.5,1.5326087 L23.5,15.326087 C23.5,16.1725234 22.8424182,16.8586957 22.03125,16.8586957 L1.46875,16.8586957 C0.657581773,16.8586957 0,16.1725234 0,15.326087 L0,1.5326087 C0,0.686172285 0.657581773,0 1.46875,0 L22.03125,0 Z M11.75,4.59782609 C10.5332477,4.59782609 9.546875,5.62708455 9.546875,6.89673913 C9.546875,7.7477526 9.99001678,8.49076467 10.648649,8.8882262 L10.648649,8.8882262 L10.6484375,11.4945652 L12.8515625,11.4945652 L12.8520924,8.8877786 C13.5103157,8.4902071 13.953125,7.74743328 13.953125,6.89673913 C13.953125,5.62708455 12.9667523,4.59782609 11.75,4.59782609 Z" id="path-dynamic"></path>
                </g>
              </g>
              <rect id="矩形" fill="#E7EBF2" fill-rule="nonzero" x="10" y="48" width="56" height="2.08695652" rx="1"></rect>
              <rect id="矩形" fill="#CFD8E5" fill-rule="nonzero" x="0" y="41.1929348" width="76" height="3.13043478" rx="1"></rect>
            </g>
          </g>
        </g>
      </g>
    </g>
  </g>
</svg>
