<?xml version="1.0" encoding="UTF-8"?>
<svg width="14px" height="14px" viewBox="0 0 14 14" version="1.1" xmlns="http://www.w3.org/2000/svg" xmlns:xlink="http://www.w3.org/1999/xlink">
    <!-- Generator: Sketch 61.2 (89653) - https://sketch.com -->
    <title>寻源-hover</title>
    <desc>Created with Sketch.</desc>
    <g id="页面-2" stroke="none" stroke-width="1" fill="none" fill-rule="evenodd">
        <g id="寻源-hover" fill-rule="nonzero">
            <path d="M5,0 L5,4 L5.12595483,4.00024347 L5.1215959,4.01734084 C5.55957849,2.28332174 7.12992132,1 9,1 C11.209139,1 13,2.790861 13,5 C13,5.9313303 12.6817098,6.78831995 12.1479738,7.46812452 L13.7924178,9.30510643 L13.0471898,9.9719162 L11.4363009,8.17270253 C10.8109223,8.65364479 10.039315,8.95383263 9.19964034,8.99510469 L9,9 L9,10 L14,10 L14,14 L0,14 L0,4 L2,4 L2,0 L5,0 Z M13,11 L1,11 L1,13 L13,13 L13,11 Z M5,5 L5,10 L6,10 L5.99994303,7.64575985 L6.03527473,7.6852646 C5.43360723,7.02138522 5.05183031,6.15452669 5.00489531,5.19964034 L5,5 Z M7.17666332,8.5612077 L6.99987956,8.46480154 L7,10 L8,10 L8.00024347,8.87404517 L8.01935422,8.87891208 C7.72402844,8.80448226 7.44176119,8.69721053 7.17666332,8.5612077 L7.17666332,8.5612077 Z M2,5 L1,5 L1,10 L2,10 L2,5 Z M4,1 L3,1 L3,10 L4,10 L4,1 Z M9,2 C7.34314575,2 6,3.34314575 6,5 C6,6.65685425 7.34314575,8 9,8 C10.6568542,8 12,6.65685425 12,5 C12,3.34314575 10.6568542,2 9,2 Z" id="形状" fill="#1C3057"></path>
            <path d="M6.99987956,8.46480154 L7.17666332,8.5612077 C7.44176119,8.69721053 7.72402844,8.80448226 8.01935422,8.87891208 L8.01935422,8.87891208 L8.00024347,8.87404517 L8,10 L7,10 L6.99987956,8.46480154 Z M4,1 L4,10 L3,10 L3,1 L4,1 Z" id="形状结合" fill="#00BED1"></path>
        </g>
    </g>
</svg>