<?xml version="1.0" encoding="UTF-8"?>
<svg width="16px" height="16px" viewBox="0 0 16 16" version="1.1" xmlns="http://www.w3.org/2000/svg" xmlns:xlink="http://www.w3.org/1999/xlink">
    <title>API structure-Highlight@v4.0</title>
    <defs>
        <rect id="path-1" x="0" y="0" width="16" height="16"></rect>
    </defs>
    <g id="页面-1" stroke="none" stroke-width="1" fill="none" fill-rule="evenodd">
        <g id="icon" transform="translate(-148.000000, -201.000000)">
            <g id="API-structure-Highlight" transform="translate(148.000000, 201.000000)">
                <mask id="mask-2" fill="white">
                    <use xlink:href="#path-1"></use>
                </mask>
                <use id="矩形" fill-opacity="0.01" fill="#FFFFFF" xlink:href="#path-1"></use>
                <path d="M7.52371685,1.25798671 C7.82084432,1.09704266 8.17915568,1.09704266 8.47628315,1.25798671 L8.47628315,1.25798671 L13.7762831,4.12882004 C14.0989767,4.30361238 14.3,4.6411195 14.3,5.00811201 L14.3,5.00811201 L14.3,7.99927867 L13.5,8 C12.7203039,8 12.0795513,8.59488808 12.0068666,9.35553999 L12,9.5 L12.000703,10.0856015 C11.8441149,10.0301673 11.6755804,10 11.5,10 L11.5,10 L10.5,10 C9.80844968,10 9.22620315,10.4679852 9.05304003,11.1052428 C8.88190901,11.0373294 8.69531388,11 8.5,11 L8.5,11 L7.5,11 C6.67157288,11 6,11.6715729 6,12.5 L6,12.5 L6,13.5662787 L2.22371685,11.52118 C1.93687813,11.365809 1.74617394,11.0818733 1.70733646,10.762944 L1.7,10.641888 L1.7,5.00811201 C1.7,4.6411195 1.90102329,4.30361238 2.22371685,4.12882004 L2.22371685,4.12882004 Z M8,4.12526772 C7.72385763,4.12526772 7.5,4.34912535 7.5,4.62526772 L7.5,4.62526772 L7.5,7.28605773 L4.59926054,8.96741507 L4.5255426,9.01945533 C4.34497301,9.17305268 4.29432211,9.43837496 4.41741507,9.65073946 L4.41741507,9.65073946 L4.46945533,9.7244574 C4.62305268,9.90502699 4.88837496,9.95567789 5.10073946,9.83258493 L5.10073946,9.83258493 L7.99991731,8.15226772 L10.8992605,9.83258493 L10.981058,9.87068614 C11.2040888,9.95102791 11.459492,9.86310396 11.5825849,9.65073946 L11.5825849,9.65073946 L11.6206861,9.56894202 C11.7010279,9.34591125 11.613104,9.09050803 11.4007395,8.96741507 L11.4007395,8.96741507 L8.49991731,7.28626772 L8.5,4.62526772 L8.49194433,4.53539209 C8.44960837,4.30214288 8.24545989,4.12526772 8,4.12526772 Z" id="路径-26" fill="#29BECE" mask="url(#mask-2)"></path>
                <path d="M11.5,11 C11.7761424,11 12,11.2238576 12,11.5 L12,14.5 C12,14.7761424 11.7761424,15 11.5,15 L10.5,15 C10.2238576,15 10,14.7761424 10,14.5 L10,11.5 C10,11.2238576 10.2238576,11 10.5,11 L11.5,11 Z M8.5,12 C8.77614237,12 9,12.2238576 9,12.5 L9,14.5 C9,14.7761424 8.77614237,15 8.5,15 L7.5,15 C7.22385763,15 7,14.7761424 7,14.5 L7,12.5 C7,12.2238576 7.22385763,12 7.5,12 L8.5,12 Z M14.5,9 C14.7761424,9 15,9.22385763 15,9.5 L15,14.5 C15,14.7761424 14.7761424,15 14.5,15 L13.5,15 C13.2238576,15 13,14.7761424 13,14.5 L13,9.5 C13,9.22385763 13.2238576,9 13.5,9 L14.5,9 Z" id="矩形-5备份" fill="#29BECE" mask="url(#mask-2)"></path>
            </g>
        </g>
    </g>
</svg>