<?xml version="1.0" encoding="UTF-8"?>
<svg width="14px" height="14px" viewBox="0 0 14 14" version="1.1" xmlns="http://www.w3.org/2000/svg" xmlns:xlink="http://www.w3.org/1999/xlink">
    <title>baochun</title>
    <g id="页面-1" stroke="none" stroke-width="1" fill="none" fill-rule="evenodd">
        <g id="事务处理流配置页" transform="translate(-1374.000000, -65.000000)">
            <g id="btn-保存" transform="translate(1362.000000, 58.000000)">
                <g id="baochun" transform="translate(12.000000, 7.000000)">
                    <rect id="矩形" fill-opacity="0.01" fill="#F8F8F8" x="0" y="0" width="14" height="14"></rect>
                    <path d="M7.23958333,1.22916667 C7.28614852,1.22916667 7.33122697,1.23553211 7.37399602,1.2474403 L7.97669401,1.25 L12.75,6.08124138 L12.75,11.75 C12.75,12.3022847 12.3022847,12.75 11.75,12.75 L10.614,12.7491667 L10.6145833,12.7895958 L3.38541667,12.7895958 L3.385,12.7491667 L2.25,12.75 C1.69771525,12.75 1.25,12.3022847 1.25,11.75 L1.25,2.25 C1.25,1.69771525 1.69771525,1.25 2.25,1.25 L3.75100398,1.2474403 C3.79377303,1.23553211 3.83885148,1.22916667 3.88541667,1.22916667 L7.23958333,1.22916667 Z M3.385,2.24916667 L2.25,2.25 L2.25,11.75 L3.385,11.7491667 L3.38541667,10.4145958 C3.38541667,9.58616872 4.05698954,8.91459584 4.88541667,8.91459584 L9.11458333,8.91459584 C9.94301046,8.91459584 10.6145833,9.58616872 10.6145833,10.4145958 L10.614,11.7491667 L11.75,11.75 L11.75,6.49192587 L7.739,2.43216667 L7.73958333,5.5625 C7.73958333,5.83864237 7.51572571,6.0625 7.23958333,6.0625 L3.88541667,6.0625 C3.60927429,6.0625 3.38541667,5.83864237 3.38541667,5.5625 L3.385,2.24916667 Z M9.11458333,9.91459584 L4.88541667,9.91459584 C4.60927429,9.91459584 4.38541667,10.1384535 4.38541667,10.4145958 L4.385,11.7491667 L9.614,11.7491667 L9.61458333,10.4145958 C9.61458333,10.1384535 9.39072571,9.91459584 9.11458333,9.91459584 Z M6.739,2.24916667 L4.385,2.24916667 L4.38541667,5.0625 L6.73958333,5.0625 L6.739,2.24916667 Z M6.04166667,2.66666667 C6.28712656,2.66666667 6.49127504,2.84354183 6.533611,3.07679103 L6.54166667,3.16666667 L6.54166667,4.125 C6.54166667,4.40114237 6.31780904,4.625 6.04166667,4.625 C5.79620678,4.625 5.5920583,4.44812484 5.54972234,4.21487563 L5.54166667,4.125 L5.54166667,3.16666667 C5.54166667,2.89052429 5.76552429,2.66666667 6.04166667,2.66666667 Z" id="形状" fill="#FFFFFF" fill-rule="nonzero"></path>
                </g>
            </g>
        </g>
    </g>
</svg>
