<?xml version="1.0" encoding="UTF-8"?>
<svg width="12px" height="12px" viewBox="0 0 12 12" version="1.1" xmlns="http://www.w3.org/2000/svg" xmlns:xlink="http://www.w3.org/1999/xlink">
    <title>batch-operation@v4.0</title>
    <g id="页面-1" stroke="none" stroke-width="1" fill="none" fill-rule="evenodd">
        <g id="icon" transform="translate(-200.000000, -469.000000)">
            <g id="batch-operation" transform="translate(200.000000, 469.000000)">
                <rect id="矩形" fill="#D8D8D8" opacity="0.01" x="0" y="0" width="12" height="12"></rect>
                <g id="编组-20" transform="translate(1.000000, 1.000000)" fill="#36C2CF" fill-rule="nonzero">
                    <path d="M5,0 C7.76142375,0 10,2.23857625 10,5 C10,5.27614237 9.77614237,5.5 9.5,5.5 C9.22385763,5.5 9,5.27614237 9,5 C9,2.790861 7.209139,1 5,1 C2.790861,1 1,2.790861 1,5 C1,7.209139 2.790861,9 5,9 C5.27614237,9 5.5,9.22385763 5.5,9.5 C5.5,9.77614237 5.27614237,10 5,10 C2.23857625,10 0,7.76142375 0,5 C0,2.23857625 2.23857625,0 5,0 Z M9.5,9 C9.77614237,9 10,9.22385763 10,9.5 C10,9.77614237 9.77614237,10 9.5,10 L6.5,10 C6.22385763,10 6,9.77614237 6,9.5 C6,9.22385763 6.22385763,9 6.5,9 L9.5,9 Z M9.5,6.5 C9.77614237,6.5 10,6.72385763 10,7 C10,7.27614237 9.77614237,7.5 9.5,7.5 L7.5,7.5 C7.22385763,7.5 7,7.27614237 7,7 C7,6.72385763 7.22385763,6.5 7.5,6.5 L9.5,6.5 Z M3.80723127,3.27287427 L4.86789144,4.33353444 L5.92855161,3.27287427 C6.12381376,3.07761212 6.44039625,3.07761212 6.63565839,3.27287427 C6.83092054,3.46813642 6.83092054,3.78471891 6.63565839,3.97998105 L5.57499822,5.04064122 L6.63565839,6.10130139 C6.83092054,6.29656354 6.83092054,6.61314603 6.63565839,6.80840818 C6.44039625,7.00367032 6.12381376,7.00367032 5.92855161,6.80840818 L4.86789144,5.747748 L3.80723127,6.80840818 C3.61196912,7.00367032 3.29538663,7.00367032 3.10012449,6.80840818 C2.90486234,6.61314603 2.90486234,6.29656354 3.10012449,6.10130139 L4.16078466,5.04064122 L3.10012449,3.97998105 C2.90486234,3.78471891 2.90486234,3.46813642 3.10012449,3.27287427 C3.29538663,3.07761212 3.61196912,3.07761212 3.80723127,3.27287427 Z" id="形状结合"></path>
                </g>
            </g>
        </g>
    </g>
</svg>
