<?xml version="1.0" encoding="UTF-8"?>
<svg width="16px" height="16px" viewBox="0 0 16 16" version="1.1" xmlns="http://www.w3.org/2000/svg" xmlns:xlink="http://www.w3.org/1999/xlink">
    <title>chaxun16</title>
    <defs>
        <linearGradient x1="50%" y1="0%" x2="50%" y2="100%" id="linearGradient-1">
            <stop stop-color="#F9CD85" offset="0%"></stop>
            <stop stop-color="#F6B74D" offset="100%"></stop>
        </linearGradient>
    </defs>
    <g id="页面-1" stroke="none" stroke-width="1" fill="none" fill-rule="evenodd">
        <g id="事务处理流配置页" transform="translate(-208.000000, -277.000000)">
            <g id="编组-2备份-15" transform="translate(196.000000, 94.000000)">
                <g id="chaxun16" transform="translate(12.000000, 183.000000)">
                    <rect id="矩形" fill-opacity="0.01" fill="#FFFFFF" x="0" y="0" width="16" height="16"></rect>
                    <path d="M11.5,1 C11.7761424,1 12,1.22385763 12,1.5 L12.0012214,6.96836703 C11.3984384,6.66858068 10.7189063,6.5 10,6.5 C7.51471863,6.5 5.5,8.51471863 5.5,11 C5.5,12.7427058 6.49062986,14.2540376 7.93949128,15.001597 L2.5,15 C2.22385763,15 2,14.7761424 2,14.5 L2,7 L2,7 L6.5,7 C7.32842712,7 8,6.32842712 8,5.5 L8,1 L11.5,1 Z M10,7.5 C11.9329966,7.5 13.5,9.06700338 13.5,11 C13.5,11.4834421 13.4019841,11.9439913 13.2247405,12.3628594 C13.2756348,12.3908108 13.3248494,12.4244142 13.3714696,12.4631761 L13.4393398,12.5251263 L14.1464466,13.232233 C14.5369709,13.6227573 14.5369709,14.2559223 14.1464466,14.6464466 C13.7859626,15.0069306 13.2187316,15.0346601 12.8264404,14.7296352 L12.732233,14.6464466 L11.9765172,13.8871972 C11.4160664,14.2737784 10.7344516,14.5 10,14.5 C8.06700338,14.5 6.5,12.9329966 6.5,11 C6.5,9.06700338 8.06700338,7.5 10,7.5 Z M10,8.5 C8.61928813,8.5 7.5,9.61928813 7.5,11 C7.5,12.3807119 8.61928813,13.5 10,13.5 C11.3807119,13.5 12.5,12.3807119 12.5,11 C12.5,9.61928813 11.3807119,8.5 10,8.5 Z M7,1 L7,5.5 C7,5.77614237 6.77614237,6 6.5,6 L2,6 L7,1 Z" id="矩形-2" fill="url(#linearGradient-1)"></path>
                </g>
            </g>
        </g>
    </g>
</svg>