<?xml version="1.0" encoding="UTF-8"?>
<svg width="14px" height="14px" viewBox="0 0 14 14" version="1.1" xmlns="http://www.w3.org/2000/svg" xmlns:xlink="http://www.w3.org/1999/xlink">
    <title>icon/jianca</title>
    <g id="事件流" stroke="none" stroke-width="1" fill="none" fill-rule="evenodd">
        <g id="条件-客户端" transform="translate(-2010.000000, -1102.000000)" fill="#0840F8" fill-rule="nonzero">
            <g id="编组-26备份-3" transform="translate(1063.000000, 778.000000)">
                <g id="icon/jianca" transform="translate(947.000000, 324.000000)">
                    <path d="M13.3913043,9.43478261 C13.6901251,9.43478261 13.9386537,9.65010889 13.9901931,9.93406445 L14,10.0434783 L14,12.7826087 C14,13.4069306 13.530038,13.921487 12.9245822,13.9918097 L12.7826087,14 L10.0434783,14 C9.70730493,14 9.43478261,13.7274777 9.43478261,13.3913043 C9.43478261,13.0924836 9.65010889,12.843955 9.93406445,12.7924156 L10.0434783,12.7826087 L12.7826087,12.7826087 L12.7826087,10.0434783 C12.7826087,9.70730493 13.055131,9.43478261 13.3913043,9.43478261 Z M0.608695652,9.43478261 C0.907516386,9.43478261 1.15604497,9.65010889 1.2075844,9.93406445 L1.2173913,10.0434783 L1.2173913,12.7826087 L3.99541983,12.7826087 C4.33159315,12.7826087 4.60411548,13.055131 4.60411548,13.3913043 C4.60411548,13.6901251 4.3887892,13.9386537 4.10483364,13.9901931 L3.99541983,14 L1.2173913,14 C0.593069413,14 0.0785130218,13.530038 0.00819028161,12.9245822 L0,12.7826087 L0,10.0434783 C0,9.70730493 0.272522326,9.43478261 0.608695652,9.43478261 Z M8.82608696,3.95652174 C9.49843361,3.95652174 10.0434783,4.50156639 10.0434783,5.17391304 L10.0434783,8.82608696 C10.0434783,9.49843361 9.49843361,10.0434783 8.82608696,10.0434783 L5.17391304,10.0434783 C4.50156639,10.0434783 3.95652174,9.49843361 3.95652174,8.82608696 L3.95652174,5.17391304 C3.95652174,4.50156639 4.50156639,3.95652174 5.17391304,3.95652174 L8.82608696,3.95652174 Z M8.82608696,5.17391304 L5.17391304,5.17391304 L5.17391304,8.82608696 L8.82608696,8.82608696 L8.82608696,5.17391304 Z M3.94014904,0 C4.27632237,0 4.5488447,0.272522326 4.5488447,0.608695652 C4.5488447,0.907516386 4.33351841,1.15604497 4.04956286,1.2075844 L3.94014904,1.2173913 L1.2173913,1.2173913 L1.2173913,4.04894243 C1.2173913,4.38511576 0.944868978,4.65763809 0.608695652,4.65763809 C0.309874918,4.65763809 0.0613463317,4.4423118 0.00980690189,4.15835625 L0,4.04894243 L0,1.2173913 C0,0.593069413 0.469961971,0.0785130218 1.07541776,0.00819028161 L1.2173913,0 L3.94014904,0 Z M12.7826087,0 C13.4069306,0 13.921487,0.469961971 13.9918097,1.07541776 L14,1.2173913 L14,4.03206209 C14,4.36823541 13.7274777,4.64075774 13.3913043,4.64075774 C13.0924836,4.64075774 12.843955,4.42543146 12.7924156,4.1414759 L12.7826087,4.03206209 L12.7826087,1.2173913 L10.0434783,1.2173913 C9.70730493,1.2173913 9.43478261,0.944868978 9.43478261,0.608695652 C9.43478261,0.309874918 9.65010889,0.0613463317 9.93406445,0.00980690189 L10.0434783,0 L12.7826087,0 Z" id="形状"></path>
                </g>
            </g>
        </g>
    </g>
</svg>