<?xml version="1.0" encoding="UTF-8"?>
<svg width="14px" height="14px" viewBox="0 0 14 14" version="1.1" xmlns="http://www.w3.org/2000/svg" xmlns:xlink="http://www.w3.org/1999/xlink">
    <title>error</title>
    <defs>
        <path d="M12.3723717,3.34191404 C12.5397392,3.50928159 12.5397392,3.78063801 12.3723717,3.94800557 L11.285,5.035 L11.285,7.428 L12.5,7.42857143 C12.7761424,7.42857143 13,7.65242905 13,7.92857143 C13,8.2047138 12.7761424,8.42857143 12.5,8.42857143 L11.285,8.428 L11.2857143,8.71428571 C11.2857143,9.29505778 11.1701925,9.84884829 10.9608739,10.3539322 L12.3723717,11.7662801 C12.5397392,11.9336477 12.5397392,12.2050041 12.3723717,12.3723717 C12.2050041,12.5397392 11.9336477,12.5397392 11.7662801,12.3723717 L11.7662801,12.3723717 L10.5338645,11.1396905 C9.83747782,12.1524016 8.71705441,12.8508435 7.42879305,12.9788172 L7.42857143,5.71428571 C7.42857143,5.47759225 7.23669346,5.28571429 7,5.28571429 C6.76330654,5.28571429 6.57142857,5.47759225 6.57142857,5.71428571 L6.57142857,5.71428571 L6.57120695,12.9788172 C5.28294559,12.8508435 4.16252218,12.1524016 3.46613552,11.1396905 L2.23371985,12.3723717 C2.0663523,12.5397392 1.79499588,12.5397392 1.62762833,12.3723717 C1.46026077,12.2050041 1.46026077,11.9336477 1.62762833,11.7662801 L1.62762833,11.7662801 L3.03912615,10.3539322 C2.82980753,9.84884829 2.71428571,9.29505778 2.71428571,8.71428571 L2.714,8.428 L1.5,8.42857143 C1.22385763,8.42857143 1,8.2047138 1,7.92857143 C1,7.65242905 1.22385763,7.42857143 1.5,7.42857143 L2.714,7.428 L2.714,5.035 L1.62762833,3.94800557 C1.46026077,3.78063801 1.46026077,3.50928159 1.62762833,3.34191404 C1.79499588,3.17454649 2.0663523,3.17454649 2.23371985,3.34191404 L3.32,4.428 L10.679,4.428 L11.7662801,3.34191404 C11.9336477,3.17454649 12.2050041,3.17454649 12.3723717,3.34191404 Z M7,1 C8.36553922,1 9.48247174,2.06441178 9.5663696,3.40880738 L9.57142857,3.57142857 L4.42857143,3.57142857 C4.42857143,2.15126779 5.57983921,1 7,1 Z" id="path-1"></path>
    </defs>
    <g id="页面-1" stroke="none" stroke-width="1" fill="none" fill-rule="evenodd">
        <g id="6-编写脚本有数据" transform="translate(-1096.000000, -557.000000)">
            <g id="编组-3" transform="translate(196.000000, 548.000000)">
                <g id="error" transform="translate(900.000000, 9.000000)">
                    <rect id="矩形" fill-opacity="0.01" fill="#FFFFFF" x="0" y="0" width="14" height="14"></rect>
                    <mask id="mask-2" fill="white">
                        <use xlink:href="#path-1"></use>
                    </mask>
                    <use id="矩形-2" fill="#465476" xlink:href="#path-1"></use>
                </g>
            </g>
        </g>
    </g>
</svg>