<?xml version="1.0" encoding="UTF-8"?>
<svg width="16px" height="16px" viewBox="0 0 16 16" version="1.1" xmlns="http://www.w3.org/2000/svg" xmlns:xlink="http://www.w3.org/1999/xlink">
    <title>icon/B16-delet@1x</title>
    <g id="icon/B16-delet" stroke="none" stroke-width="1" fill="none" fill-rule="evenodd">
        <path d="M11.9115234,12.9300781 C11.9115234,13.3990234 11.5300781,13.7804687 11.0625,13.7804687 L4.93886719,13.7804687 C4.46992188,13.7791016 4.08984375,13.3990234 4.08847656,12.9300781 L4.08847656,3.909375 L11.9115234,3.909375 L11.9115234,12.9300781 L11.9115234,12.9300781 Z M5.78789062,2.38359375 C5.78789062,2.28515625 5.86445312,2.20859375 5.96289062,2.20859375 L10.0480469,2.20859375 C10.1464844,2.20859375 10.2216797,2.28515625 10.2216797,2.38359375 L10.2216797,2.89628906 L5.78789062,2.89628906 L5.78789062,2.38359375 L5.78789062,2.38359375 Z M14.4599609,2.89628906 L11.2361328,2.89628906 L11.2361328,2.38359375 C11.2361328,1.73007813 10.7029297,1.19550781 10.0480469,1.19550781 L5.96289062,1.19550781 C5.30800781,1.196875 4.77617187,1.72734375 4.77480469,2.38359375 L4.77480469,2.89628906 L1.54003906,2.89628906 C1.25566406,2.89628906 1.02734375,3.12460938 1.02734375,3.40761719 C1.02734375,3.690625 1.25566406,3.9203125 1.54003906,3.9203125 L3.06445312,3.9203125 L3.06445312,12.9300781 C3.06445312,13.9650391 3.90390625,14.8044922 4.93886719,14.8044922 L11.0611328,14.8044922 C12.0960938,14.8044922 12.9355469,13.9650391 12.9355469,12.9300781 L12.9355469,3.909375 L14.4613281,3.909375 C14.7443359,3.909375 14.9740234,3.68105469 14.9740234,3.39667969 C14.9740234,3.11230469 14.7443359,2.89628906 14.4599609,2.89628906 Z M8,12.24375 C8.28300781,12.24375 8.51269531,12.0154297 8.51269531,11.7310547 L8.51269531,6.28417969 C8.51269531,6.00117188 8.284375,5.77148438 8,5.77148438 C7.71699219,5.77148438 7.48730469,5.99980469 7.48730469,6.28417969 L7.48730469,11.7310547 C7.48730469,12.0140625 7.71699219,12.24375 8,12.24375 M5.61425781,12.24375 C5.89726562,12.24375 6.12695312,12.0154297 6.12695312,11.7310547 L6.12695312,6.28417969 C6.12695312,6.00117188 5.89863281,5.77148438 5.61425781,5.77148438 C5.33125,5.77148438 5.1015625,5.99980469 5.1015625,6.28417969 L5.1015625,11.7310547 C5.1125,12.0140625 5.3421875,12.24375 5.61425781,12.24375 M10.3857422,12.24375 C10.66875,12.24375 10.8984375,12.0154297 10.8984375,11.7310547 L10.8984375,6.28417969 C10.8984375,6.00117188 10.6701172,5.77148438 10.3857422,5.77148438 C10.1027344,5.77148438 9.87304688,5.99980469 9.87304688,6.28417969 L9.87304688,11.7310547 C9.87441406,12.0140625 10.1027344,12.24375 10.3857422,12.24375" id="形状" fill="#0840F8" fill-rule="nonzero"></path>
    </g>
</svg>