<?xml version="1.0" encoding="UTF-8"?>
<svg width="14px" height="14px" viewBox="0 0 14 14" version="1.1" xmlns="http://www.w3.org/2000/svg" xmlns:xlink="http://www.w3.org/1999/xlink">
    <!-- Generator: Sketch 59 (86127) - https://sketch.com -->
    <title>Edit-Highlight</title>
    <desc>Created with Sketch.</desc>
    <defs>
        <path d="M12.5,11 C12.7761424,11 13,11.2238576 13,11.5 L13,12.5 C13,12.7761424 12.7761424,13 12.5,13 L1.5,13 C1.22385763,13 1,12.7761424 1,12.5 L1,11.5 C1,11.2238576 1.22385763,11 1.5,11 L12.5,11 Z M9.042,2.838 L11.163,4.959 L6.10071866,10.0224911 L3.92054584,10.3054193 C3.81100741,10.3196345 3.71068531,10.2423597 3.69647015,10.1328213 C3.69425264,10.1157337 3.69425264,10.0984312 3.69647015,10.0813436 L3.97939832,7.90117078 L9.042,2.838 Z M11.4412293,1.14644661 L12.8554428,2.56066017 C13.050705,2.75592232 13.050705,3.07250481 12.8554428,3.26776695 L11.87,4.252 L9.749,2.131 L10.7341225,1.14644661 C10.9293846,0.951184464 11.2459671,0.951184464 11.4412293,1.14644661 Z" id="path-1"></path>
    </defs>
    <g id="Edit-Highlight" stroke="none" stroke-width="1" fill="none" fill-rule="evenodd">
        <g id="icon/列表/编辑">
            <mask id="mask-2" fill="white">
                <use xlink:href="#path-1"></use>
            </mask>
            <use id="矩形-2" fill="#5A6677" fill-rule="evenodd" xlink:href="#path-1"></use>
            <g id="颜色/主色" mask="url(#mask-2)" fill="#29bece" fill-rule="evenodd">
                <g transform="translate(-33.000000, -33.000000)" id="主色">
                    <rect x="0" y="0" width="80" height="80"></rect>
                </g>
            </g>
        </g>
    </g>
</svg>