<?xml version="1.0" encoding="UTF-8"?>
<svg width="14px" height="14px" viewBox="0 0 14 14" version="1.1" xmlns="http://www.w3.org/2000/svg" xmlns:xlink="http://www.w3.org/1999/xlink">
    <title>icon/tianjiacaidan备份</title>
    <g id="页面-1" stroke="none" stroke-width="1" fill="none" fill-rule="evenodd">
        <g id="5-批量编辑" transform="translate(-854.000000, -435.000000)">
            <g id="编组-3" transform="translate(818.000000, 188.000000)">
                <g id="编组-7备份-3" transform="translate(0.000000, 237.000000)">
                    <g id="icon/tianjiacaidan备份" transform="translate(36.000000, 10.000000)">
                        <rect id="矩形" x="0" y="0" width="14" height="14"></rect>
                        <path d="M11.76,0.98 C12.5331986,0.98 13.16,1.60680135 13.16,2.38 L13.16,11.62 C13.16,12.3931986 12.5331986,13.02 11.76,13.02 L2.52,13.02 C1.74680135,13.02 1.12,12.3931986 1.12,11.62 L1.12,2.38 C1.12,1.60680135 1.74680135,0.98 2.52,0.98 L11.76,0.98 Z M11.76,1.82 L2.52,1.82 C2.22009264,1.82 1.97524896,2.05575559 1.96068534,2.35205035 L1.96,2.38 L1.96,11.62 C1.96,11.9199074 2.19575559,12.164751 2.49205035,12.1793147 L2.52,12.18 L11.76,12.18 C12.0599074,12.18 12.304751,11.9442444 12.3193147,11.6479496 L12.32,11.62 L12.32,2.38 C12.32,2.08009264 12.0842444,1.83524896 11.7879496,1.82068534 L11.76,1.82 Z M7.77,3.43 L7.769,6.37 L10.71,6.37 L10.71,7.49 L7.769,7.49 L7.77,10.43 L6.65,10.43 L6.649,7.49 L3.71,7.49 L3.71,6.37 L6.649,6.37 L6.65,3.43 L7.77,3.43 Z" id="形状结合" fill="#7C859B" fill-rule="nonzero"></path>
                    </g>
                </g>
            </g>
        </g>
    </g>
</svg>