<?xml version="1.0" encoding="UTF-8"?>
<svg width="14px" height="14px" viewBox="0 0 14 14" version="1.1" xmlns="http://www.w3.org/2000/svg" xmlns:xlink="http://www.w3.org/1999/xlink">
    <!-- Generator: Sketch 58 (84663) - https://sketch.com -->
    <title>help</title>
    <desc>Created with Sketch.</desc>
    <g id="模型" stroke="none" stroke-width="1" fill="none" fill-rule="evenodd">
        <g id="API模型-模型数据-API" transform="translate(-1230.000000, -164.000000)">
            <g id="编组-2" transform="translate(336.000000, 155.000000)">
                <g id="help" transform="translate(894.000000, 9.000000)">
                    <circle id="椭圆形" stroke="#29bece" cx="7" cy="7" r="6.5"></circle>
                    <path d="M6.844,3 C7.612,3 8.236,3.204 8.716,3.636 C9.196,4.056 9.436,4.632 9.436,5.352 C9.436,5.94 9.28,6.432 8.98,6.816 C8.872,6.948 8.536,7.26 7.972,7.752 C7.744,7.944 7.576,8.16 7.468,8.376 C7.336,8.616 7.276,8.88 7.276,9.168 L7.276,9.372 L5.992,9.372 L5.992,9.168 C5.992,8.724 6.064,8.34 6.232,8.028 C6.388,7.692 6.844,7.2 7.588,6.54 L7.792,6.312 C8.008,6.036 8.128,5.748 8.128,5.436 C8.128,5.016 8.008,4.692 7.78,4.452 C7.54,4.212 7.192,4.092 6.76,4.092 C6.22,4.092 5.824,4.26 5.584,4.608 C5.368,4.896 5.26,5.304 5.26,5.832 L4,5.832 C4,4.956 4.252,4.272 4.756,3.768 C5.26,3.252 5.956,3 6.844,3 Z M6.628,10.02 C6.88,10.02 7.096,10.092 7.264,10.26 C7.432,10.416 7.516,10.62 7.516,10.872 C7.516,11.124 7.42,11.328 7.252,11.496 C7.084,11.652 6.868,11.736 6.628,11.736 C6.388,11.736 6.172,11.652 6.004,11.484 C5.836,11.316 5.752,11.112 5.752,10.872 C5.752,10.62 5.836,10.416 6.004,10.26 C6.172,10.092 6.388,10.02 6.628,10.02 Z" id="？" fill="#29bece" fill-rule="nonzero"></path>
                </g>
            </g>
        </g>
    </g>
</svg>