<?xml version="1.0" encoding="UTF-8"?>
<svg width="16px" height="16px" viewBox="0 0 16 16" version="1.1" xmlns="http://www.w3.org/2000/svg" xmlns:xlink="http://www.w3.org/1999/xlink">
    <title>jiaoben16</title>
    <defs>
        <linearGradient x1="50%" y1="0%" x2="50%" y2="100%" id="linearGradient-1">
            <stop stop-color="#78E0AC" offset="0%"></stop>
            <stop stop-color="#1ED288" offset="100%"></stop>
        </linearGradient>
    </defs>
    <g id="页面-1" stroke="none" stroke-width="1" fill="none" fill-rule="evenodd">
        <g id="事务处理流配置页" transform="translate(-208.000000, -447.000000)">
            <g id="编组-2备份-15" transform="translate(196.000000, 94.000000)">
                <g id="jiaoben16" transform="translate(12.000000, 353.000000)">
                    <rect id="矩形" fill-opacity="0.01" fill="#FFFFFF" x="0" y="0" width="16" height="16"></rect>
                    <path d="M13.5357143,2 C13.7921322,2 14,2.22385763 14,2.5 L14,8.597 L13.8208745,8.41792157 L13.7460286,8.35025747 L13.6767417,8.29370147 L13.5950965,8.23368517 L13.4827131,8.16665716 C13.3682185,8.1052926 13.2477978,8.06100361 13.1251154,8.03455714 C12.9876128,7.56803314 12.6181993,7.18362861 12.1154819,7.04910225 C11.3489798,6.84398757 10.5608362,7.29691805 10.3521483,8.06245501 L10.3521483,8.06245501 L10.272,8.362 L10.2242801,8.31931244 C9.65824054,7.85730916 8.82303134,7.88999987 8.29506977,8.41758832 L8.29506977,8.41758832 L6.42206338,10.2910361 L6.35470655,10.3655431 L6.29815814,10.4347894 L6.23813509,10.5164039 L6.164622,10.6408739 C5.87564326,11.1914086 5.97048315,11.8775907 6.42203994,12.3292839 L6.42203994,12.3292839 L8.092,14 L1.46428571,14 C1.20786779,14 1,13.7761424 1,13.5 L1,2.5 C1,2.22385763 1.20786779,2 1.46428571,2 L13.5357143,2 Z M11.7787368,8.00149239 C11.804731,8.00364121 11.830896,8.00813296 11.8569791,8.01511276 C12.0917272,8.07793096 12.2315656,8.3186573 12.1698431,8.55369585 L12.1698431,8.55369585 L10.7986685,13.670658 L10.7675187,13.7540102 C10.7154198,13.8595161 10.6227085,13.9408387 10.5091972,13.9780288 L10.5091972,13.9780288 L10.4867465,13.9847316 L10.3943498,13.9994183 C10.27081,14.0057713 10.1485302,13.9599121 10.0591436,13.8703058 L10.0591436,13.8703058 L10.0004524,13.7974483 C9.9335039,13.6934275 9.91247996,13.5645345 9.9457679,13.4424232 L9.9457679,13.4424232 L11.3169425,8.32546106 L11.3445668,8.25100122 C11.4119509,8.10975376 11.5491167,8.01628113 11.7015187,8.00192961 L11.7015187,8.00192961 Z M12.4892393,9.12516574 C12.6400673,8.97423113 12.8729693,8.95528864 13.0443974,9.06838901 L13.0443974,9.06838901 L13.1136844,9.12494501 L14.9863575,10.9980595 L15.0429059,11.0673058 C15.139846,11.2141619 15.139846,11.4061815 15.0429059,11.5530376 L15.0429059,11.5530376 L14.9863575,11.6222839 L13.1136844,13.4953984 L13.0412899,13.5558649 C12.989436,13.5904884 12.9310734,13.6135482 12.8702394,13.623912 L12.8702394,13.623912 L12.7776397,13.6297942 C12.7464918,13.6284867 12.7152308,13.6238636 12.6843613,13.6157835 C12.5300138,13.5753831 12.4094753,13.4548447 12.369075,13.3004972 C12.3367547,13.1770192 12.3597466,13.0472763 12.4289935,12.9435686 L12.4289935,12.9435686 L12.4894601,12.8711741 L14.050021,11.3101717 L12.4894601,9.74961083 L12.4328551,9.68036384 C12.3196336,9.50901571 12.3384114,9.27610036 12.4892393,9.12516574 Z M9.07121354,9.06838901 C9.24264167,8.95528864 9.47554369,8.97423113 9.62637164,9.12516574 C9.77719959,9.27610036 9.79597742,9.50901571 9.68275587,9.68036384 L9.68275587,9.68036384 L9.62615091,9.74961083 L8.06559002,11.3101717 L9.62615091,12.8711741 L9.68093789,12.9405137 C9.79023034,13.1115874 9.7697734,13.3410205 9.62077318,13.4900207 C9.47177295,13.6390209 9.24233991,13.6594778 9.0712662,13.5501854 L9.0712662,13.5501854 L9.00192655,13.4953984 L7.12925349,11.6222839 L7.07270509,11.5530376 C6.97576497,11.4061815 6.97576497,11.2141619 7.07270509,11.0673058 L7.07270509,11.0673058 L7.12925349,10.9980595 L9.00192655,9.12494501 Z M12.5,5 L2.5,5 C2.22385763,5 2,5.22385763 2,5.5 C2,5.77614237 2.22385763,6 2.5,6 L12.5,6 C12.7761424,6 13,5.77614237 13,5.5 C13,5.22385763 12.7761424,5 12.5,5 Z M6.5,3 C6.22385763,3 6,3.22385763 6,3.5 C6,3.77614237 6.22385763,4 6.5,4 C6.77614237,4 7,3.77614237 7,3.5 C7,3.22385763 6.77614237,3 6.5,3 Z M4.5,3 C4.22385763,3 4,3.22385763 4,3.5 C4,3.77614237 4.22385763,4 4.5,4 C4.77614237,4 5,3.77614237 5,3.5 C5,3.22385763 4.77614237,3 4.5,3 Z M2.5,3 C2.22385763,3 2,3.22385763 2,3.5 C2,3.77614237 2.22385763,4 2.5,4 C2.77614237,4 3,3.77614237 3,3.5 C3,3.22385763 2.77614237,3 2.5,3 Z" id="形状" fill="url(#linearGradient-1)"></path>
                </g>
            </g>
        </g>
    </g>
</svg>