<?xml version="1.0" encoding="UTF-8"?>
<svg width="20px" height="20px" viewBox="0 0 20 20" version="1.1" xmlns="http://www.w3.org/2000/svg" xmlns:xlink="http://www.w3.org/1999/xlink">
    <title>Hyperlinks</title>
    <defs>
        <rect id="path-1" x="0" y="0" width="20" height="20"></rect>
    </defs>
    <g id="页面-1" stroke="none" stroke-width="1" fill="none" fill-rule="evenodd">
        <g id="icon" transform="translate(-189.000000, -573.000000)">
            <g id="Hyperlinks" transform="translate(189.000000, 573.000000)">
                <mask id="mask-2" fill="white">
                    <use xlink:href="#path-1"></use>
                </mask>
                <use id="矩形备份-29" fill-opacity="0.01" fill="#FFFFFF" xlink:href="#path-1"></use>
                <path d="M6.97667713,12.2565939 C7.31146521,12.2565939 7.58286457,12.5279932 7.58286457,12.8627813 L7.58286457,15.3099186 C7.58286457,16.6490709 8.66846201,17.7346683 10.0076143,17.7346683 C11.3467666,17.7346683 12.4323641,16.6490709 12.4323641,15.3099186 L12.4323641,12.9212425 C12.4323641,12.5864544 12.7037634,12.3150551 13.0385515,12.3150551 C13.3733396,12.3150551 13.6447389,12.5864544 13.6447389,12.9212425 L13.6447389,15.3099186 C13.6447389,17.318647 12.0163428,18.9470432 10.0076143,18.9470432 C7.99888585,18.9470432 6.37048969,17.318647 6.37048969,15.3099186 L6.37048969,12.8627813 C6.37048969,12.5279932 6.64188905,12.2565939 6.97667713,12.2565939 Z M10.1138018,4.69124871 C10.3899441,4.69124871 10.6138018,4.91510634 10.6138018,5.19124871 L10.6138018,14.2772383 C10.6138018,14.5533806 10.3899441,14.7772383 10.1138018,14.7772383 L9.90142688,14.7772383 C9.6252845,14.7772383 9.40142688,14.5533806 9.40142688,14.2772383 L9.40142688,5.19124871 C9.40142688,4.91510634 9.6252845,4.69124871 9.90142688,4.69124871 L10.1138018,4.69124871 Z M10.0076143,0.947043208 C12.0163428,0.947043208 13.6447389,2.57543937 13.6447389,4.58416783 L13.6447389,4.58416783 L13.6447389,6.97284392 C13.6447389,7.307632 13.3733396,7.57903136 13.0385515,7.57903136 C12.7037634,7.57903136 12.4323641,7.307632 12.4323641,6.97284392 L12.4323641,6.97284392 L12.4323641,4.58416783 C12.4323641,3.24501552 11.3467666,2.15941808 10.0076143,2.15941808 C8.66846201,2.15941808 7.58286457,3.24501552 7.58286457,4.58416783 L7.58286457,4.58416783 L7.58286457,7.03130511 C7.58286457,7.36609319 7.31146521,7.63749255 6.97667713,7.63749255 C6.64188905,7.63749255 6.37048969,7.36609319 6.37048969,7.03130511 L6.37048969,7.03130511 L6.37048969,4.58416783 C6.37048969,2.57543937 7.99888585,0.947043208 10.0076143,0.947043208 Z" id="路径" fill="#0840F8" fill-rule="nonzero" mask="url(#mask-2)" transform="translate(10.007614, 9.947043) scale(1, -1) rotate(-45.000000) translate(-10.007614, -9.947043) "></path>
            </g>
        </g>
    </g>
</svg>