<?xml version="1.0" encoding="UTF-8"?>
<svg width="20px" height="20px" viewBox="0 0 20 20" version="1.1" xmlns="http://www.w3.org/2000/svg" xmlns:xlink="http://www.w3.org/1999/xlink">
    <title>bianhao</title>
    <defs>
        <rect id="path-1" x="0" y="0" width="20" height="20"></rect>
    </defs>
    <g id="页面-1" stroke="none" stroke-width="1" fill="none" fill-rule="evenodd">
        <g id="icon" transform="translate(-349.000000, -411.000000)">
            <g id="bianhao" transform="translate(349.000000, 411.000000)">
                <mask id="mask-2" fill="white">
                    <use xlink:href="#path-1"></use>
                </mask>
                <use id="矩形" fill-opacity="0.01" fill="#FFFFFF" xlink:href="#path-1"></use>
                <path d="M16.6785889,11.7824596 L13.0042231,11.7904822 L13.3812868,8.18832011 L16.6785889,8.18029748 C17.0075168,8.18029748 17.2802863,7.90752797 17.2802863,7.57860002 C17.2802863,7.24967208 17.0075168,6.97690256 16.6785889,6.97690256 L13.5096489,6.97690256 L13.966939,2.66072613 C13.9990295,2.33179819 13.7583506,2.03496077 13.4294226,2.00287024 C13.1004947,1.97077971 12.8036573,2.21145869 12.7715667,2.54038664 L12.306254,6.97690256 L8.66397874,6.9849252 L9.12126881,2.66874876 C9.15335934,2.33982082 8.91268036,2.04298341 8.58375241,2.01089288 C8.25482447,1.97880234 7.95798706,2.21948133 7.92589653,2.54840927 L7.46058382,6.99294783 L3.60169746,7.00097046 C3.27276951,7.00097046 3,7.27373998 3,7.60266792 C3,7.93159586 3.27276951,8.20436538 3.60169746,8.20436538 L7.3322217,8.19634275 L6.95515796,11.7985049 L3.60169746,11.8065275 C3.27276951,11.8065275 3,12.079297 3,12.408225 C3,12.7371529 3.27276951,13.0099224 3.60169746,13.0099224 L6.82679583,13.0018998 L6.36950577,17.3421441 C6.33741524,17.6710721 6.57809422,17.9679095 6.90702216,18 L6.97120322,18 C7.27606327,18 7.53278752,17.7673436 7.56487805,17.4624836 L8.03821338,12.9938771 L11.6804887,12.9858545 L11.2231986,17.3341215 C11.1911081,17.6630494 11.431787,17.9598868 11.760715,17.9919774 L11.8248961,17.9919774 C12.1297561,17.9919774 12.3864803,17.759321 12.4265935,17.454461 L12.8999288,12.9858545 L16.7026568,12.9778319 C17.0315847,12.9778319 17.3043542,12.7050624 17.3043542,12.3761344 C17.2802863,12.0472065 17.0075168,11.7824596 16.6785889,11.7824596 L16.6785889,11.7824596 Z M8.15053024,11.7904822 L8.52759398,8.18832011 L12.1698693,8.18029748 L11.7928055,11.7824596 L8.15053024,11.7904822 L8.15053024,11.7904822 Z" id="形状" fill="#0840F8" fill-rule="nonzero" mask="url(#mask-2)"></path>
            </g>
        </g>
    </g>
</svg>