<?xml version="1.0" encoding="UTF-8"?>
<svg width="14px" height="14px" viewBox="0 0 14 14" version="1.1" xmlns="http://www.w3.org/2000/svg" xmlns:xlink="http://www.w3.org/1999/xlink">
    <title>字段</title>
    <g id="页面-1" stroke="none" stroke-width="1" fill="none" fill-rule="evenodd">
        <g id="5-配置字段" transform="translate(-266.000000, -151.000000)">
            <g id="编组-2" transform="translate(242.000000, 80.000000)">
                <g id="字段" transform="translate(24.000000, 71.000000)">
                    <rect id="矩形" fill-opacity="0.01" fill="#FFFFFF" x="0" y="0" width="14" height="14"></rect>
                    <path d="M12.5,1 C12.7761424,1 13,1.22385763 13,1.5 L13,12.5 C13,12.7761424 12.7761424,13 12.5,13 L1.5,13 C1.22385763,13 1,12.7761424 1,12.5 L1,1.5 C1,1.22385763 1.22385763,1 1.5,1 L12.5,1 Z M12,2 L2,2 L2,12 L12,12 L12,2 Z M9.5,4 C9.77614237,4 10,4.22385763 10,4.5 C10,4.77614237 9.77614237,5 9.5,5 L7.5,5 L7.5,9.5 C7.5,9.77614237 7.27614237,10 7,10 C6.72385763,10 6.5,9.77614237 6.5,9.5 L6.5,5 L4.5,5 C4.22385763,5 4,4.77614237 4,4.5 C4,4.22385763 4.22385763,4 4.5,4 L9.5,4 Z" id="矩形" fill="#0840F8" fill-rule="nonzero"></path>
                </g>
            </g>
        </g>
    </g>
</svg>