<?xml version="1.0" encoding="UTF-8"?>
<svg width="12px" height="12px" viewBox="0 0 12 12" version="1.1" xmlns="http://www.w3.org/2000/svg" xmlns:xlink="http://www.w3.org/1999/xlink">
    <title>Platform sharing</title>
    <defs>
        <rect id="path-1" x="0" y="0" width="12" height="12"></rect>
    </defs>
    <g id="M3" stroke="none" stroke-width="1" fill="none" fill-rule="evenodd">
        <g id="画板" transform="translate(-31.000000, -44.000000)">
            <g id="Platform-sharing" transform="translate(31.000000, 44.000000)">
                <mask id="mask-2" fill="white">
                    <use xlink:href="#path-1"></use>
                </mask>
                <use id="矩形" fill-opacity="0.01" fill="#FFFFFF" xlink:href="#path-1"></use>
                <path d="M3.92857143,7.71428571 C4.223,7.71428571 4.58471429,7.74171429 4.96571429,7.77685714 L5.89142857,7.866 C6.27242857,7.90114286 6.63414286,7.92857143 6.92857143,7.92857143 L7.67857143,7.92857143 C7.97428571,7.92857143 8.21428571,8.16857143 8.21428571,8.46428571 L8.21428571,8.49428571 C8.21426169,8.78851397 8.00653117,9.04180887 7.718,9.09942857 L7.613,9.12042857 L7.22085714,9.18128571 L7.091,9.19885714 L6.98985714,9.21042857 C6.97758812,9.21162403 6.96530085,9.21262416 6.953,9.21342857 L6.92857143,9.21428571 L5.64071429,9.39857143 C5.51915057,9.41602428 5.42881487,9.52004721 5.42857143,9.64285714 C5.42857143,9.76371429 5.52285714,9.86314286 5.64285714,9.87 L6.05428571,9.89185714 L6.42028571,9.90557143 L6.63885714,9.91071429 L6.74085714,9.91157143 L6.92942857,9.91157143 L7.09828571,9.90728571 L7.24657143,9.9 L7.31342857,9.89528571 L7.43171429,9.88242857 C7.46771429,9.87814286 7.50028571,9.87257143 7.52985714,9.86657143 L7.57142857,9.85714286 C7.715,9.82114286 7.847,9.792 7.97,9.76714286 L8.20314286,9.72085714 L8.312,9.69985714 C8.42373573,9.69053261 8.53444268,9.67146004 8.64285714,9.64285714 C9.10014286,9.52842857 9.56857143,9.29228571 10.0001429,9.06428571 L10.3164286,8.89714286 C10.5727143,8.76171429 10.8097143,8.643 11.0158571,8.57142857 C11.6145714,8.364 11.8271429,9.16028571 11.4662857,9.40585714 L11.4281429,9.42857143 C11.367626,9.46154546 11.308835,9.49759253 11.252,9.53657143 L11.096,9.64414286 L10.916,9.774 L10.163,10.3272857 L9.93371429,10.4922857 L9.707,10.6508571 C9.37185714,10.881 9.06328571,11.0712857 8.85714286,11.1428571 L8.53185714,11.253 L8.099,11.3957143 L7.60314286,11.553 L7.346,11.6322857 L6.965,11.7458571 L6.72285714,11.8144286 L6.49571429,11.8757143 L6.29085714,11.9271429 C6.098,11.9725714 5.94628571,12 5.861,12 L5.76714286,11.9974286 L5.64285714,11.9901429 L5.49028571,11.9772857 L5.31328571,11.9601429 L5.11442857,11.9374286 L4.89714286,11.9095714 L4.54228571,11.8585714 L4.29071429,11.8187143 L4.03142857,11.7732857 L3.767,11.7231429 C3.58886449,11.6878983 3.41140479,11.6493201 3.23471429,11.6074286 L2.97328571,11.5422857 C2.8053286,11.498599 2.63868586,11.4500068 2.47357143,11.3965714 L2.35571429,11.3571429 C1.77671429,11.1565714 1.29885714,11.0614286 0.923,11.0721429 C0.695902289,11.0786266 0.506533845,10.8998106 0.5,10.6727143 L0.5,8.55428571 C0.5,8.32714286 0.684285714,8.14285714 0.911428571,8.14285714 L1.32457143,8.14285714 C1.54314286,8.14285714 1.829,8.08928571 2.14357143,8.02028571 L2.63257143,7.90971429 L2.96857143,7.83685714 C3.30457143,7.76785714 3.63714286,7.71428571 3.92857143,7.71428571 Z M10.5,4 C10.7761424,4 11,4.22385763 11,4.5 L11.0008336,7.55113784 C10.8979862,7.56525966 10.7935324,7.59013872 10.6884911,7.62653099 C10.4447562,7.71115388 10.2059199,7.82450546 9.8492203,8.01299556 L9.8492203,8.01299556 L9.31130943,8.29542003 L9.2098463,8.34666733 C9.14975028,7.55359798 8.48699741,6.92857143 7.67857143,6.92857143 L7.67857143,6.92857143 L6.92857143,6.92857143 L6.67899662,6.92219813 C6.63269872,6.92006457 6.58386024,6.9173908 6.53219684,6.91416995 L6.53219684,6.91416995 L6.18604301,6.88822543 L5,6.776 L5,4.5 C5,4.22385763 5.22385763,4 5.5,4 L10.5,4 Z M3.5,4 C3.77614237,4 4,4.22385763 4,4.5 L4,6.716 L3.92857143,6.71428571 C3.65412318,6.71428571 3.3677277,6.74583376 3.0304854,6.80643714 L2.76741209,6.85729861 L2.42065933,6.93242556 L1.77901538,7.07553421 C1.55460017,7.12157612 1.40732292,7.14285714 1.32457143,7.14285714 L1.32457143,7.14285714 L1,7.142 L1,4.5 C1,4.22385763 1.22385763,4 1.5,4 L3.5,4 Z M10.5,1 C10.7761424,1 11,1.22385763 11,1.5 L11,2.5 C11,2.77614237 10.7761424,3 10.5,3 L1.5,3 C1.22385763,3 1,2.77614237 1,2.5 L1,1.5 C1,1.22385763 1.22385763,1 1.5,1 L10.5,1 Z" id="矩形-2" fill="#5AAFFF" mask="url(#mask-2)"></path>
            </g>
        </g>
    </g>
</svg>