<?xml version="1.0" encoding="UTF-8"?>
<svg width="20px" height="20px" viewBox="0 0 20 20" version="1.1" xmlns="http://www.w3.org/2000/svg" xmlns:xlink="http://www.w3.org/1999/xlink">
    <title>radio</title>
    <defs>
        <rect id="path-1" x="0" y="0" width="20" height="20"></rect>
    </defs>
    <g id="页面-1" stroke="none" stroke-width="1" fill="none" fill-rule="evenodd">
        <g id="icon" transform="translate(-269.000000, -250.000000)">
            <g id="radio" transform="translate(269.000000, 250.000000)">
                <mask id="mask-2" fill="white">
                    <use xlink:href="#path-1"></use>
                </mask>
                <use id="矩形" fill-opacity="0.01" fill="#FFFFFF" xlink:href="#path-1"></use>
                <path d="M5,11 C6.65685425,11 8,12.3431458 8,14 C8,15.6568542 6.65685425,17 5,17 C3.34314575,17 2,15.6568542 2,14 C2,12.3431458 3.34314575,11 5,11 Z M5,12 C3.8954305,12 3,12.8954305 3,14 C3,15.1045695 3.8954305,16 5,16 C6.1045695,16 7,15.1045695 7,14 C7,12.8954305 6.1045695,12 5,12 Z M17,12 C17.5522847,12 18,12.4477153 18,13 L18,15 C18,15.5522847 17.5522847,16 17,16 L10,16 C9.44771525,16 9,15.5522847 9,15 L9,13 C9,12.4477153 9.44771525,12 10,12 L17,12 Z M5,13 C5.55228475,13 6,13.4477153 6,14 C6,14.5522847 5.55228475,15 5,15 C4.44771525,15 4,14.5522847 4,14 C4,13.4477153 4.44771525,13 5,13 Z M17,13 L10,13 L10,15 L17,15 L17,13 Z M5,3 C6.65685425,3 8,4.34314575 8,6 C8,7.65685425 6.65685425,9 5,9 C3.34314575,9 2,7.65685425 2,6 C2,4.34314575 3.34314575,3 5,3 Z M5,4 C3.8954305,4 3,4.8954305 3,6 C3,7.1045695 3.8954305,8 5,8 C6.1045695,8 7,7.1045695 7,6 C7,4.8954305 6.1045695,4 5,4 Z M17,4 C17.5522847,4 18,4.44771525 18,5 L18,7 C18,7.55228475 17.5522847,8 17,8 L10,8 C9.44771525,8 9,7.55228475 9,7 L9,5 C9,4.44771525 9.44771525,4 10,4 L17,4 Z M17,5 L10,5 L10,7 L17,7 L17,5 Z" id="矩形-2" fill="#0840F8" mask="url(#mask-2)"></path>
            </g>
        </g>
    </g>
</svg>