<?xml version="1.0" encoding="UTF-8"?>
<svg width="14px" height="14px" viewBox="0 0 14 14" version="1.1" xmlns="http://www.w3.org/2000/svg" xmlns:xlink="http://www.w3.org/1999/xlink">
    <title>完成</title>
    <g id="页面-1" stroke="none" stroke-width="1" fill="none" fill-rule="evenodd">
        <g id="3-导出模板字段-编辑" transform="translate(-1312.000000, -159.000000)">
            <g id="编组-19备份-2" transform="translate(1312.000000, 158.000000)">
                <g id="编组" transform="translate(0.000000, 1.000000)">
                    <rect id="矩形" fill-opacity="0.01" fill="#FFFFFF" x="0" y="0" width="14" height="14"></rect>
                    <path d="M7,1 C10.3137085,1 13,3.6862915 13,7 C13,10.3137085 10.3137085,13 7,13 C3.6862915,13 1,10.3137085 1,7 C1,3.6862915 3.6862915,1 7,1 Z M7,2 C4.23857625,2 2,4.23857625 2,7 C2,9.76142375 4.23857625,12 7,12 C9.76142375,12 12,9.76142375 12,7 C12,4.23857625 9.76142375,2 7,2 Z M9.38180919,4.81171679 C9.56863785,4.60837062 9.88493704,4.59498053 10.0882832,4.78180919 C10.2916294,4.96863785 10.3050195,5.28493704 10.1181908,5.48828321 L10.1181908,5.48828321 L6.7493621,9.15494987 C6.55740041,9.36388289 6.23024658,9.37139545 6.02889667,9.17149421 L6.02889667,9.17149421 L3.89772537,7.05565627 C3.70175953,6.86110036 3.70061655,6.54451993 3.89517246,6.34855409 C4.08972836,6.15258825 4.40630879,6.15144527 4.60227463,6.34600118 L4.60227463,6.34600118 L6.36461457,8.09566143 Z" id="形状结合" fill="#0840F8" fill-rule="nonzero"></path>
                </g>
            </g>
        </g>
    </g>
</svg>