<?xml version="1.0" encoding="UTF-8"?>
<svg width="16px" height="16px" viewBox="0 0 16 16" version="1.1" xmlns="http://www.w3.org/2000/svg" xmlns:xlink="http://www.w3.org/1999/xlink">
    <title>icon/set-blue</title>
    <g id="icon/set-blue" stroke="none" stroke-width="1" fill="none" fill-rule="evenodd">
        <path d="M5.57999776,1.08837103 L8.00002282,2.44168819 L10.4203239,1.08846975 C10.5535885,1.01395995 10.7135934,1.00442246 10.8547657,1.06257377 C11.4725904,1.31706659 12.0530005,1.6533188 12.5811691,2.06131437 C12.7018228,2.15451603 12.773361,2.29767327 12.7754611,2.45011822 L12.8136314,5.22084512 L15.1945756,6.63953417 C15.3258534,6.71775628 15.4141523,6.85171755 15.4342822,7.00320142 C15.4779574,7.33187188 15.5,7.66463546 15.5,8 C15.5,8.33536454 15.4779574,8.66812812 15.4342822,8.99679858 C15.4141523,9.14828245 15.3258534,9.28224372 15.1945756,9.36046583 L12.8136314,10.7791549 L12.7754611,13.5498818 C12.773361,13.7023267 12.7018228,13.845484 12.5811691,13.9386856 C12.0526963,14.3469161 11.4719231,14.6833197 10.853702,14.9378643 C10.7125012,14.9960019 10.552474,14.9864286 10.4192113,14.9118717 L7.99994388,13.5583559 L5.57999776,14.911629 C5.4467337,14.9861524 5.28672232,14.9957002 5.14554183,14.9375529 C4.52801114,14.6832134 3.94785396,14.3471933 3.41987537,13.9394923 C3.29922485,13.8463269 3.22766417,13.7032125 3.22551621,13.5507929 L3.18645776,10.779208 L0.805424428,9.36046583 C0.674146562,9.28224372 0.585847711,9.14828245 0.565717827,8.99679858 C0.522042562,8.66812812 0.5,8.33536454 0.5,8 C0.5,7.66463546 0.522042562,7.33187188 0.565717827,7.00320142 C0.585847711,6.85171755 0.674146562,6.71775628 0.805424428,6.63953417 L3.18645776,5.22079202 L3.22551621,2.44920707 C3.22766417,2.2967875 3.29922485,2.15367312 3.41987537,2.06050771 C3.94785396,1.65280666 4.52801114,1.31678661 5.14554183,1.06244712 C5.28672232,1.00429976 5.4467337,1.01384761 5.57999776,1.08837103 Z M10.6924792,2.0818797 L8.24400648,3.45096419 C8.09236831,3.53574686 7.90759018,3.5357395 7.75595876,3.45094475 L5.30777305,2.0818797 C4.9263343,2.25570217 4.56275166,2.46619739 4.22193922,2.71007538 L4.18242054,5.51431853 C4.17997341,5.68796723 4.08759629,5.84790872 3.93840662,5.93680361 L1.52992125,7.3719031 C1.51002167,7.57964218 1.5,7.78916022 1.5,8 C1.5,8.21083978 1.51002167,8.42035782 1.52992125,8.6280969 L3.93840662,10.0631964 C4.08759629,10.1520913 4.17997341,10.3120328 4.18242054,10.4856815 L4.22193922,13.2899246 C4.56275166,13.5338026 4.9263343,13.7442978 5.30777305,13.9181203 L7.75595876,12.5490552 C7.90763298,12.4642366 8.09246912,12.4642547 8.24412673,12.5491031 L10.6916067,13.9184029 C11.073606,13.7443737 11.4377008,13.5335659 11.7789563,13.2892837 L11.8175773,10.4858395 C11.8199703,10.3121338 11.9123554,10.1521201 12.0615934,10.0631964 L14.4700788,8.6280969 C14.4899783,8.42035782 14.5,8.21083978 14.5,8 C14.5,7.78916022 14.4899783,7.57964218 14.4700788,7.3719031 L12.0615934,5.93680361 C11.9123554,5.84787992 11.8199703,5.6878662 11.8175773,5.51416048 L11.7789563,2.71071628 C11.4379611,2.46662047 11.0741608,2.25594759 10.6924792,2.0818797 Z M8,5 C9.65685425,5 11,6.34314575 11,8 C11,9.65685425 9.65685425,11 8,11 C6.34314575,11 5,9.65685425 5,8 C5,6.34314575 6.34314575,5 8,5 Z M8,6 C6.8954305,6 6,6.8954305 6,8 C6,9.1045695 6.8954305,10 8,10 C9.1045695,10 10,9.1045695 10,8 C10,6.8954305 9.1045695,6 8,6 Z" id="形状结合" fill="#0840F8" fill-rule="nonzero"></path>
    </g>
</svg>