<?xml version="1.0" encoding="UTF-8"?>
<svg width="16px" height="16px" viewBox="0 0 16 16" version="1.1" xmlns="http://www.w3.org/2000/svg" xmlns:xlink="http://www.w3.org/1999/xlink">
    <title>xiaoxi16</title>
    <defs>
        <linearGradient x1="50%" y1="0%" x2="50%" y2="100%" id="linearGradient-1">
            <stop stop-color="#F9CD85" offset="0%"></stop>
            <stop stop-color="#F6B74D" offset="100%"></stop>
        </linearGradient>
    </defs>
    <g id="页面-1" stroke="none" stroke-width="1" fill="none" fill-rule="evenodd">
        <g id="事务处理流配置页" transform="translate(-208.000000, -507.000000)">
            <g id="编组-2备份-15" transform="translate(196.000000, 94.000000)">
                <g id="xiaoxi16" transform="translate(12.000000, 413.000000)">
                    <rect id="矩形" fill-opacity="0.01" fill="#FFFFFF" x="0" y="0" width="16" height="16"></rect>
                    <path d="M11.5,8.5 C13.1568542,8.5 14.5,9.84314575 14.5,11.5 C14.5,13.1568542 13.1568542,14.5 11.5,14.5 C9.84314575,14.5 8.5,13.1568542 8.5,11.5 C8.5,9.84314575 9.84314575,8.5 11.5,8.5 Z M11.5,12.7135745 C11.2238576,12.7135745 11,12.9374321 11,13.2135745 C11,13.4897169 11.2238576,13.7135745 11.5,13.7135745 C11.7761424,13.7135745 12,13.4897169 12,13.2135745 C12,12.9374321 11.7761424,12.7135745 11.5,12.7135745 Z M1.32448977,3.03167137 L7.29289322,9 C7.53270235,9.23980913 7.86400682,9.33235874 8.17443759,9.27764884 C7.74821889,9.91307459 7.5,10.67755 7.5,11.5 C7.5,12.0306321 7.60332438,12.5371315 7.79095141,13.0004764 L1.5,13 C1.22385763,13 1,12.7761424 1,12.5 L1,3.5 C1,3.28561596 1.13492445,3.10274522 1.32448977,3.03167137 Z M11.5,9.32723992 C11.2238576,9.32723992 11,9.55109755 11,9.82723992 L11,9.82723992 L11,11.8272399 C11,12.1033823 11.2238576,12.3272399 11.5,12.3272399 C11.7761424,12.3272399 12,12.1033823 12,11.8272399 L12,11.8272399 L12,9.82723992 C12,9.55109755 11.7761424,9.32723992 11.5,9.32723992 Z M15,3.5 L15.0019588,9.56553068 C14.3201477,8.33388261 13.0074557,7.5 11.5,7.5 C10.9133728,7.5 10.3562402,7.62628163 9.85430371,7.85314355 L14.6755102,3.03167137 C14.8650755,3.10274522 15,3.28561596 15,3.5 Z M13.291,3 L8,8.292 L2.706,3 L13.291,3 Z" id="矩形-2" fill="url(#linearGradient-1)"></path>
                </g>
            </g>
        </g>
    </g>
</svg>