<?xml version="1.0" encoding="UTF-8"?>
<svg width="16px" height="16px" viewBox="0 0 16 16" version="1.1" xmlns="http://www.w3.org/2000/svg" xmlns:xlink="http://www.w3.org/1999/xlink">
    <title>xinzhen16</title>
    <defs>
        <linearGradient x1="50%" y1="0%" x2="50%" y2="100%" id="linearGradient-1">
            <stop stop-color="#1E8AFF" offset="0%"></stop>
            <stop stop-color="#0940F8" offset="100%"></stop>
        </linearGradient>
    </defs>
    <g id="页面-1" stroke="none" stroke-width="1" fill="none" fill-rule="evenodd">
        <g id="事务处理流配置页" transform="translate(-208.000000, -187.000000)">
            <g id="编组-2备份-15" transform="translate(196.000000, 94.000000)">
                <g id="xinzhen16" transform="translate(12.000000, 93.000000)">
                    <rect id="矩形" fill-opacity="0.01" fill="#FFFFFF" x="0" y="0" width="16" height="16"></rect>
                    <path d="M11.5,1 C11.7761424,1 12,1.22385763 12,1.5 L12.0007074,7.02754265 C11.8363124,7.00934344 11.6692473,7 11.5,7 C9.01471863,7 7,9.01471863 7,11.5 C7,12.9140475 7.65221574,14.1757619 8.67222963,15.0007255 L2.5,15 C2.22385763,15 2,14.7761424 2,14.5 L2,7 L2,7 L6.5,7 C7.32842712,7 8,6.32842712 8,5.5 L8,1 L11.5,1 Z M11.5,8 C13.4329966,8 15,9.56700338 15,11.5 C15,13.4329966 13.4329966,15 11.5,15 C9.56700338,15 8,13.4329966 8,11.5 C8,9.56700338 9.56700338,8 11.5,8 Z M11.5,9.5 C11.2790861,9.5 11.1,9.6790861 11.1,9.9 L11.1,9.9 L11.1,11.099 L9.9,11.1 C9.6790861,11.1 9.5,11.2790861 9.5,11.5 C9.5,11.7209139 9.6790861,11.9 9.9,11.9 L9.9,11.9 L11.1,11.9 L11.1,13.1 C11.1,13.3209139 11.2790861,13.5 11.5,13.5 C11.7209139,13.5 11.9,13.3209139 11.9,13.1 L11.9,13.1 L11.9,11.9 L13.1,11.9 C13.3209139,11.9 13.5,11.7209139 13.5,11.5 C13.5,11.2790861 13.3209139,11.1 13.1,11.1 L13.1,11.1 L11.9,11.099 L11.9,9.9 C11.9,9.6790861 11.7209139,9.5 11.5,9.5 Z M7,1 L7,5.5 C7,5.77614237 6.77614237,6 6.5,6 L2,6 L7,1 Z" id="矩形-3" fill="url(#linearGradient-1)"></path>
                </g>
            </g>
        </g>
    </g>
</svg>