<svg width="240px" height="133px" viewBox="0 0 240 133" version="1.1" xmlns="http://www.w3.org/2000/svg" xmlns:xlink="http://www.w3.org/1999/xlink">
    <defs>
        <path d="M2.23890586,13.4727273 L0.645301629,16.1756007 C0.546189164,16.3437043 0.547010088,16.5535134 0.646545278,16.7205256 L0.653327187,16.7315955 C0.723808065,16.8435465 0.872409109,16.9008009 1.09913032,16.9033586 L1.11529834,16.9034483 L1.88988186,16.9034483 C2.12175581,16.9034483 2.35282108,16.8756262 2.57829237,16.8205582 L16.2857143,13.4727273 L2.23890586,13.4727273 Z" id="path-pdo39xnov6-1"></path>
        <path d="M5.61604558,8.32664577 L32,8.32664577 L0.87035874,0.0227960105 C0.541298326,-0.0649812154 0.199695222,0.107389465 0.0685494873,0.425363796 L0.0638457754,0.437061758 C-0.0550280854,0.740436357 -0.00567518546,1.08530193 0.193290641,1.3415901 L5.61604558,8.32664577 Z" id="path-pdo39xnov6-2"></path>
        <polygon id="path-pdo39xnov6-3" points="32 8.32664577 5.61792453 8.32664577 2.25 13.4727273 9.54716981 13.4727273"></polygon>
        <path d="M32,8.32664577 L16.8403898,22.6213166 C16.5944616,22.7404389 16.4074558,22.8 16.2793724,22.8 C16.151289,22.8 15.9683296,22.7404389 15.7304941,22.6213166 L8.15675867,12.3291536 C8.12174045,11.9129922 8.15288094,11.6388001 8.25018014,11.5065775 C8.34747933,11.3743549 8.59684757,11.2673557 8.99828483,11.1855799 L32,8.32664577 Z" id="path-pdo39xnov6-4"></path>
        <rect id="path-pdo39xnov6-5" x="0" y="0" width="128" height="10.64" rx="1.33333333"></rect>
        <mask id="mask-pdo39xnov6-6" maskContentUnits="userSpaceOnUse" maskUnits="objectBoundingBox" x="0" y="0" width="128" height="10.64" fill="white">
            <use xlink:href="#path-pdo39xnov6-5"></use>
        </mask>
    </defs>
    <g id="条件配置" stroke="none" stroke-width="1" fill="none" fill-rule="evenodd">
        <g id="编组">
            <g id="编组-2">
                <g id="画面画板" transform="translate(45.3333, 23.94)">
                    <g id="编组" transform="translate(0, 0)">
                        <path d="M2.66666667,0 L146.666667,0 C148.139426,0 149.333333,1.19092257 149.333333,2.66 L149.333333,106.4 C149.333333,107.869077 148.139426,109.06 146.666667,109.06 L2.66666667,109.06 C1.19390733,109.06 0,107.869077 0,106.4 L0,2.66 C0,1.19092257 1.19390733,0 2.66666667,0 Z" id="矩形" fill="#F1F4F8"></path>
                        <path d="M2.66666667,0 L146.666667,0 C148.139426,0 149.333333,1.19092257 149.333333,2.66 L149.333333,10.64 L0,10.64 L0,2.66 C0,1.19092257 1.19390733,0 2.66666667,0 Z" id="矩形" fill="#DBDEE3"></path>
                        <ellipse id="椭圆形" fill="#FFFFFF" cx="8" cy="5.32" rx="2.66666667" ry="2.66"></ellipse>
                        <ellipse id="椭圆形备份" fill="#FFFFFF" cx="18.6666667" cy="5.32" rx="2.66666667" ry="2.66"></ellipse>
                        <ellipse id="椭圆形备份-2" fill="#FFFFFF" cx="29.3333333" cy="5.32" rx="2.66666667" ry="2.66"></ellipse>
                    </g>
                </g>
                <rect id="矩形" fill="#FFFFFF" x="50.6666667" y="39.9" width="138.666667" height="87.78" rx="1.33333333"></rect>
            </g>
            <g id="元素/纸飞机/主色备份-2" transform="translate(181.3333, 18.62)">
                <g id="路径-14">
                    <use fill="currentColor" xlink:href="#path-pdo39xnov6-1"></use>
                    <use fill-opacity="0.4" fill="#FFFFFF" xlink:href="#path-pdo39xnov6-1"></use>
                </g>
                <g id="路径-5">
                    <use fill="currentColor" xlink:href="#path-pdo39xnov6-2"></use>
                    <use fill-opacity="0.2" fill="#FFFFFF" xlink:href="#path-pdo39xnov6-2"></use>
                </g>
                <g id="路径-12">
                    <use fill="currentColor" xlink:href="#path-pdo39xnov6-3"></use>
                    <use fill-opacity="0.2" fill="#000000" xlink:href="#path-pdo39xnov6-3"></use>
                </g>
                <g id="路径-13">
                    <use fill="currentColor" xlink:href="#path-pdo39xnov6-4"></use>
                    <use fill-opacity="0.2" fill="#FFFFFF" xlink:href="#path-pdo39xnov6-4"></use>
                </g>
            </g>
            <g id="编组-5" transform="translate(56, 103.74)">
                <use id="矩形备份-4" stroke="currentColor" mask="url(#mask-pdo39xnov6-6)" stroke-width="0.533333333" stroke-dasharray="1.333333333333333,1.333333333333333" xlink:href="#path-pdo39xnov6-5"></use>
                <g id="编组-3" transform="translate(61.3333, 2.66)" fill="currentColor">
                    <rect id="矩形" x="0" y="1.995" width="5.33333333" height="1.33" rx="0.665"></rect>
                    <path d="M0.673333333,1.99333333 L4.66,1.99333333 C5.02818983,1.99333333 5.32666667,2.29181017 5.32666667,2.66 C5.32666667,3.02818983 5.02818983,3.32666667 4.66,3.32666667 L0.673333333,3.32666667 C0.3051435,3.32666667 0.00666666667,3.02818983 0.00666666667,2.66 C0.00666666667,2.29181017 0.3051435,1.99333333 0.673333333,1.99333333 Z" id="矩形" transform="translate(2.6667, 2.66) rotate(90) translate(-2.6667, -2.66)"></path>
                </g>
            </g>
            <rect id="矩形备份-3" fill="#F1F4F8" x="93.3333333" y="45.22" width="26.6666667" height="7.98" rx="1.33333333"></rect>
            <rect id="矩形备份-7" fill="#F1F4F8" x="106.666667" y="63.84" width="26.6666667" height="7.98" rx="1.33333333"></rect>
            <rect id="矩形备份-10" fill="#F1F4F8" x="106.666667" y="77.14" width="26.6666667" height="7.98" rx="1.33333333"></rect>
            <rect id="矩形备份-13" fill="#F1F4F8" x="106.666667" y="90.44" width="26.6666667" height="7.98" rx="1.33333333"></rect>
            <rect id="矩形备份-5" fill="#F1F4F8" x="125.333333" y="45.22" width="26.6666667" height="7.98" rx="1.33333333"></rect>
            <rect id="矩形备份-8" fill="#F1F4F8" x="138.666667" y="63.84" width="26.6666667" height="7.98" rx="1.33333333"></rect>
            <rect id="矩形备份-11" fill="#F1F4F8" x="138.666667" y="77.14" width="26.6666667" height="7.98" rx="1.33333333"></rect>
            <rect id="矩形备份-14" fill="#F1F4F8" x="138.666667" y="90.44" width="26.6666667" height="7.98" rx="1.33333333"></rect>
            <path d="M72,49.21 L65.3333333,49.21 C63.860574,49.21 62.6666667,50.4039073 62.6666667,51.8766667 L62.6666667,61.18 L62.6666667,61.18" id="路径-6" stroke="#F1F4F8" stroke-width="0.666666667"></path>
            <path d="M72,69.16 L65.3333333,69.16 C63.860574,69.16 62.6666667,70.3539073 62.6666667,71.8266667 L62.6666667,81.13 L62.6666667,81.13" id="路径-6备份" stroke="#F1F4F8" stroke-width="0.666666667" transform="translate(67.3333, 75.145) scale(1, -1) translate(-67.3333, -75.145)"></path>
            <line x1="88" y1="49.21" x2="125.333333" y2="49.21" id="路径-7" stroke="#F1F4F8" stroke-width="0.666666667"></line>
            <line x1="101.333333" y1="67.83" x2="138.666667" y2="67.83" id="路径-7备份" stroke="#F1F4F8" stroke-width="0.666666667"></line>
            <line x1="80.3333333" y1="81.13" x2="138.666667" y2="81.13" id="路径-7备份-2" stroke="#F1F4F8" stroke-width="0.666666667"></line>
            <line x1="101.333333" y1="94.43" x2="138.666667" y2="94.43" id="路径-7备份-3" stroke="#F1F4F8" stroke-width="0.666666667"></line>
            <path d="M85.3333333,67.83 L78.6666667,67.83 C77.1939073,67.83 76,69.0239073 76,70.4966667 L76,77.805 L76,77.805" id="路径-8" stroke="#F1F4F8" stroke-width="0.666666667"></path>
            <path d="M85.3333333,85.12 L78.6666667,85.12 C77.1939073,85.12 76,86.3139073 76,87.7866667 L76,94.43 L76,94.43" id="路径-8备份" stroke="#F1F4F8" stroke-width="0.666666667" transform="translate(80.6667, 89.775) scale(1, -1) translate(-80.6667, -89.775)"></path>
            <g id="Icon/delete" transform="translate(170.6667, 67.83)">
                <path d="M1.33333333,4.21166667 C1.33333333,4.4555 1.53333333,4.655 1.77777778,4.655 L3.55555556,4.655 C3.8,4.655 4,4.4555 4,4.21166667 L4,1.55166667 L1.33333333,1.55166667 L1.33333333,4.21166667 Z M3.44444444,0.886666668 L3.22222222,0.665 L2.11111111,0.665 L1.88888889,0.886666668 L1.11111111,0.886666668 L1.11111111,1.33 L4.22222222,1.33 L4.22222222,0.886666668 L3.44444444,0.886666668 Z" id="icon" fill="#E5E7EC"></path>
                <rect id="delete" x="0" y="0" width="5.33333333" height="5.32"></rect>
            </g>
            <g id="Icon/delete备份-2" transform="translate(170.6667, 78.47)">
                <path d="M1.33333333,4.21166667 C1.33333333,4.4555 1.53333333,4.655 1.77777778,4.655 L3.55555556,4.655 C3.8,4.655 4,4.4555 4,4.21166667 L4,1.55166667 L1.33333333,1.55166667 L1.33333333,4.21166667 Z M3.44444444,0.886666668 L3.22222222,0.665 L2.11111111,0.665 L1.88888889,0.886666668 L1.11111111,0.886666668 L1.11111111,1.33 L4.22222222,1.33 L4.22222222,0.886666668 L3.44444444,0.886666668 Z" id="icon" fill="#E5E7EC"></path>
                <rect id="delete" x="0" y="0" width="5.33333333" height="5.32"></rect>
            </g>
            <g id="Icon/delete备份-3" transform="translate(170.6667, 91.77)">
                <path d="M1.33333333,4.21166667 C1.33333333,4.4555 1.53333333,4.655 1.77777778,4.655 L3.55555556,4.655 C3.8,4.655 4,4.4555 4,4.21166667 L4,1.55166667 L1.33333333,1.55166667 L1.33333333,4.21166667 Z M3.44444444,0.886666668 L3.22222222,0.665 L2.11111111,0.665 L1.88888889,0.886666668 L1.11111111,0.886666668 L1.11111111,1.33 L4.22222222,1.33 L4.22222222,0.886666668 L3.44444444,0.886666668 Z" id="icon" fill="#E5E7EC"></path>
                <rect id="delete" x="0" y="0" width="5.33333333" height="5.32"></rect>
            </g>
            <g id="Icon/delete备份" transform="translate(157.3333, 46.55)">
                <path d="M1.33333333,4.21166667 C1.33333333,4.4555 1.53333333,4.655 1.77777778,4.655 L3.55555556,4.655 C3.8,4.655 4,4.4555 4,4.21166667 L4,1.55166667 L1.33333333,1.55166667 L1.33333333,4.21166667 Z M3.44444444,0.886666668 L3.22222222,0.665 L2.11111111,0.665 L1.88888889,0.886666668 L1.11111111,0.886666668 L1.11111111,1.33 L4.22222222,1.33 L4.22222222,0.886666668 L3.44444444,0.886666668 Z" id="icon" fill="#E5E7EC"></path>
                <rect id="delete" x="0" y="0" width="5.33333333" height="5.32"></rect>
            </g>
            <path d="M152.490953,48.9114579 C152.977519,48.5849463 153.457359,48.2723202 153.930429,47.9734779 L153.459639,47.2566007 C152.979729,47.5597636 152.493171,47.8767671 152,48.2077106 L152.490953,48.9114579 Z M155.392388,47.0810059 C155.898707,46.7829575 156.3964,46.5017661 156.885392,46.2372802 L156.46553,45.4905915 C155.96716,45.7601496 155.460282,46.0465301 154.94496,46.349878 L155.392388,47.0810059 Z M158.409944,45.4528583 C158.940158,45.1944982 159.458658,44.9574429 159.965292,44.7414412 L159.618678,43.9594253 C159.098307,44.181284 158.566404,44.424467 158.023099,44.6892061 L158.409944,45.4528583 Z M161.556694,44.1179577 C162.115285,43.9193249 162.656571,43.7491541 163.180193,43.6069452 L162.948169,42.7851612 C162.402497,42.9333585 161.839782,43.1102662 161.260344,43.3163126 L161.556694,44.1179577 Z M164.836921,43.239704 C165.423062,43.1411662 165.980293,43.0833255 166.507627,43.0648408 L166.476573,42.2126755 C165.90959,42.2325499 165.313736,42.2943998 164.690035,42.3992519 L164.836921,43.239704 Z M168.160294,43.1486111 C168.738139,43.2343455 169.2603,43.379841 169.723861,43.5798683 L170.073989,42.7993598 C169.538676,42.5683713 168.94252,42.402258 168.29034,42.3054945 L168.160294,43.1486111 Z M171.042386,44.439246 C171.427447,44.8097342 171.71497,45.2409561 171.897761,45.7108763 L172.710084,45.4069332 C172.482708,44.8223946 172.125843,44.2871747 171.651248,43.8305406 L171.042386,44.439246 Z M172.118476,47.2056424 C172.078594,47.7174816 171.923336,48.2137696 171.663879,48.6551141 L172.417082,49.0810371 C172.741768,48.528734 172.935632,47.9090385 172.985378,47.2706178 L172.118476,47.2056424 Z M170.635829,49.7435779 C170.220485,50.0225362 169.734947,50.2191484 169.190014,50.3213596 L169.353327,51.1588905 C170.014905,51.0348007 170.612203,50.7929327 171.127071,50.4471313 L170.635829,49.7435779 Z M167.586462,50.359299 C167.003378,50.2855236 166.519991,50.1205255 166.135641,49.8736998 L165.659369,50.5870855 C166.158753,50.9077852 166.766949,51.115385 167.475221,51.205 L167.586462,50.359299 Z M165.217438,48.7621099 C165.043056,48.3320078 164.968147,47.8228777 164.995971,47.2523645 L164.127534,47.2116244 C164.094063,47.8979484 164.1867,48.5275703 164.409539,49.0771896 L165.217438,48.7621099 Z M165.292331,45.6773855 C165.446112,45.1841286 165.656605,44.6758052 165.919439,44.1641032 L165.142972,43.7804658 C164.858477,44.334339 164.629452,44.8874138 164.460901,45.428047 L165.292331,45.6773855 Z M166.77519,42.751029 C167.087764,42.3042549 167.434765,41.8672101 167.811912,41.4463316 L167.158851,40.8834194 C166.75889,41.3297568 166.390564,41.7936602 166.058299,42.2685792 L166.77519,42.751029 Z M169.011687,40.2542363 C169.429471,39.8843134 169.869265,39.5370922 170.327759,39.2162044 L169.822736,38.5220999 C169.33704,38.8620257 168.871358,39.2296861 168.429071,39.621305 L169.011687,40.2542363 Z M171.752536,38.3379874 C172.247605,38.0717894 172.756579,37.8365892 173.277095,37.6345025 L172.957087,36.8416537 C172.40269,37.0568942 171.861029,37.3071999 171.334571,37.5902753 L171.752536,38.3379874 Z M174.87374,37.1289864 C175.417277,36.9947738 175.96884,36.8963136 176.526898,36.8348931 L176.42994,35.9875026 C175.832772,36.0532276 175.242696,36.1585627 174.661471,36.3020816 L174.87374,37.1289864 Z M178.194517,36.7624835 C178.748124,36.7749855 179.305601,36.8236701 179.866044,36.9093823 L180,36.0668548 C179.401827,35.9753722 178.806287,35.9233635 178.214531,35.91 L178.194517,36.7624835 Z" id="路径" fill="currentColor" fill-rule="nonzero"></path>
            <rect id="矩形" fill="#ECF7F2" x="58.6666667" y="61.18" width="8" height="7.98" rx="1.33333333"></rect>
            <rect id="矩形备份-2" fill="#E6F2FE" x="72" y="77.14" width="8" height="7.98" rx="1.33333333"></rect>
            <rect id="矩形备份" fill="#E2E5E9" x="72" y="45.22" width="16" height="7.98" rx="1.33333333"></rect>
            <rect id="矩形备份-6" fill="#E2E5E9" x="85.3333333" y="63.84" width="16" height="7.98" rx="1.33333333"></rect>
            <rect id="矩形备份-9" fill="#E2E5E9" x="85.3333333" y="77.14" width="16" height="7.98" rx="1.33333333"></rect>
            <rect id="矩形备份-12" fill="#E2E5E9" x="85.3333333" y="90.44" width="16" height="7.98" rx="1.33333333"></rect>
        </g>
    </g>
</svg>
