<svg width="200px" height="98px" viewBox="0 0 200 98" version="1.1" xmlns="http://www.w3.org/2000/svg" xmlns:xlink="http://www.w3.org/1999/xlink">
    <defs>
        <ellipse id="path-crfhdnau1h-1" cx="13.3333333" cy="13.3636364" rx="13.3333333" ry="13.3636364"></ellipse>
        <filter x="-7.5%" y="-7.5%" width="115.0%" height="118.7%" filterUnits="objectBoundingBox" id="filter-crfhdnau1h-2">
            <feOffset dx="0" dy="1" in="SourceAlpha" result="shadowOffsetOuter1"></feOffset>
            <feGaussianBlur stdDeviation="0.5" in="shadowOffsetOuter1" result="shadowBlurOuter1"></feGaussianBlur>
            <feColorMatrix values="0 0 0 0 0.11372549   0 0 0 0 0.129411765   0 0 0 0 0.160784314  0 0 0 0.06 0" type="matrix" in="shadowBlurOuter1" result="shadowMatrixOuter1"></feColorMatrix>
            <feOffset dx="0" dy="0" in="SourceAlpha" result="shadowOffsetOuter2"></feOffset>
            <feGaussianBlur stdDeviation="0.5" in="shadowOffsetOuter2" result="shadowBlurOuter2"></feGaussianBlur>
            <feColorMatrix values="0 0 0 0 0.11372549   0 0 0 0 0.129411765   0 0 0 0 0.160784314  0 0 0 0.1 0" type="matrix" in="shadowBlurOuter2" result="shadowMatrixOuter2"></feColorMatrix>
            <feMerge>
                <feMergeNode in="shadowMatrixOuter1"></feMergeNode>
                <feMergeNode in="shadowMatrixOuter2"></feMergeNode>
            </feMerge>
        </filter>
        <path d="M2.22222222,0 L55.5555556,0 C56.782855,0 57.7777778,0.997183966 57.7777778,2.22727273 L57.7777778,22.2727273 C57.7777778,23.502816 56.782855,24.5 55.5555556,24.5 L2.22222222,24.5 C0.994922778,24.5 0,23.502816 0,22.2727273 L0,2.22727273 C0,0.997183966 0.994922778,0 2.22222222,0 Z" id="path-crfhdnau1h-3"></path>
        <filter x="-13.0%" y="-22.4%" width="126.0%" height="165.3%" filterUnits="objectBoundingBox" id="filter-crfhdnau1h-4">
            <feOffset dx="0" dy="3" in="SourceAlpha" result="shadowOffsetOuter1"></feOffset>
            <feGaussianBlur stdDeviation="2" in="shadowOffsetOuter1" result="shadowBlurOuter1"></feGaussianBlur>
            <feColorMatrix values="0 0 0 0 0.11372549   0 0 0 0 0.129411765   0 0 0 0 0.160784314  0 0 0 0.06 0" type="matrix" in="shadowBlurOuter1" result="shadowMatrixOuter1"></feColorMatrix>
            <feOffset dx="0" dy="1" in="SourceAlpha" result="shadowOffsetOuter2"></feOffset>
            <feGaussianBlur stdDeviation="1.5" in="shadowOffsetOuter2" result="shadowBlurOuter2"></feGaussianBlur>
            <feColorMatrix values="0 0 0 0 0.11372549   0 0 0 0 0.129411765   0 0 0 0 0.160784314  0 0 0 0.06 0" type="matrix" in="shadowBlurOuter2" result="shadowMatrixOuter2"></feColorMatrix>
            <feOffset dx="0" dy="1" in="SourceAlpha" result="shadowOffsetOuter3"></feOffset>
            <feGaussianBlur stdDeviation="0.5" in="shadowOffsetOuter3" result="shadowBlurOuter3"></feGaussianBlur>
            <feColorMatrix values="0 0 0 0 0.11372549   0 0 0 0 0.129411765   0 0 0 0 0.160784314  0 0 0 0.06 0" type="matrix" in="shadowBlurOuter3" result="shadowMatrixOuter3"></feColorMatrix>
            <feMerge>
                <feMergeNode in="shadowMatrixOuter1"></feMergeNode>
                <feMergeNode in="shadowMatrixOuter2"></feMergeNode>
                <feMergeNode in="shadowMatrixOuter3"></feMergeNode>
            </feMerge>
        </filter>
    </defs>
    <g id="页面-1" stroke="none" stroke-width="1" fill="none" fill-rule="evenodd">
        <g id="合作伙伴及企业信息" transform="translate(-730, -527)">
            <g id="编组" transform="translate(730, 527)">
                <g id="编组" transform="translate(37.7778, 8.9091)">
                    <path d="M2.22222222,0 L122.222222,0 C123.449522,0 124.444444,0.997183966 124.444444,2.22727273 L124.444444,86.8636364 C124.444444,88.0937251 123.449522,89.0909091 122.222222,89.0909091 L2.22222222,89.0909091 C0.994922778,89.0909091 0,88.0937251 0,86.8636364 L0,2.22727273 C0,0.997183966 0.994922778,0 2.22222222,0 Z" id="矩形" fill="#F1F4F8"></path>
                    <path d="M2.22222222,0 L122.222222,0 C123.449522,0 124.444444,0.997183966 124.444444,2.22727273 L124.444444,8.90909091 L0,8.90909091 L0,2.22727273 C0,0.997183966 0.994922778,0 2.22222222,0 Z" id="矩形" fill="#DBDEE3"></path>
                    <ellipse id="椭圆形" fill="#FFFFFF" cx="6.66666667" cy="4.45454545" rx="2.22222222" ry="2.22727273"></ellipse>
                    <ellipse id="椭圆形备份" fill="#FFFFFF" cx="15.5555556" cy="4.45454545" rx="2.22222222" ry="2.22727273"></ellipse>
                    <ellipse id="椭圆形备份-2" fill="#FFFFFF" cx="24.4444444" cy="4.45454545" rx="2.22222222" ry="2.22727273"></ellipse>
                    <g id="编组-2" transform="translate(4.4444, 13.3636)">
                        <path d="M2.22222222,0 L113.333333,0 C114.560633,0 115.555556,0.997183966 115.555556,2.22727273 L115.555556,69.0454545 C115.555556,70.2755433 114.560633,71.2727273 113.333333,71.2727273 L2.22222222,71.2727273 C0.994922778,71.2727273 0,70.2755433 0,69.0454545 L0,2.22727273 C0,0.997183966 0.994922778,0 2.22222222,0 Z" id="矩形" fill="#FFFFFF"></path>
                        <g id="编组-3">
                            <path d="M2.22222222,0 L31.1111111,0 L31.1111111,71.2727273 L2.22222222,71.2727273 C0.994922778,71.2727273 0,70.2755433 0,69.0454545 L0,2.22727273 C0,0.997183966 0.994922778,0 2.22222222,0 Z" id="矩形" fill="#E2E5E9"></path>
                            <path d="M5.55555556,4.45454545 L7.77777778,4.45454545 C8.3914275,4.45454545 8.88888889,4.95313744 8.88888889,5.56818182 L8.88888889,7.79545455 C8.88888889,8.41049893 8.3914275,8.90909091 7.77777778,8.90909091 L5.55555556,8.90909091 C4.94190583,8.90909091 4.44444444,8.41049893 4.44444444,7.79545455 L4.44444444,5.56818182 C4.44444444,4.95313744 4.94190583,4.45454545 5.55555556,4.45454545 Z" id="矩形" fill="#FFFFFF"></path>
                            <path d="M14.4444444,4.45454545 L25.5555556,4.45454545 C26.1692053,4.45454545 26.6666667,4.95313744 26.6666667,5.56818182 L26.6666667,7.79545455 C26.6666667,8.41049893 26.1692053,8.90909091 25.5555556,8.90909091 L14.4444444,8.90909091 C13.8307947,8.90909091 13.3333333,8.41049893 13.3333333,7.79545455 L13.3333333,5.56818182 C13.3333333,4.95313744 13.8307947,4.45454545 14.4444444,4.45454545 Z" id="矩形备份" fill="#FFFFFF"></path>
                            <path d="M5.55555556,13.3636364 L21.1111111,13.3636364 C21.7247608,13.3636364 22.2222222,13.8622283 22.2222222,14.4772727 L22.2222222,16.7045455 C22.2222222,17.3195898 21.7247608,17.8181818 21.1111111,17.8181818 L5.55555556,17.8181818 C4.94190583,17.8181818 4.44444444,17.3195898 4.44444444,16.7045455 L4.44444444,14.4772727 C4.44444444,13.8622283 4.94190583,13.3636364 5.55555556,13.3636364 Z" id="矩形备份-2" fill="#FFFFFF"></path>
                            <path d="M5.55555556,22.2727273 L25.5555556,22.2727273 C26.1692053,22.2727273 26.6666667,22.7713193 26.6666667,23.3863636 L26.6666667,25.6136364 C26.6666667,26.2286807 26.1692053,26.7272727 25.5555556,26.7272727 L5.55555556,26.7272727 C4.94190583,26.7272727 4.44444444,26.2286807 4.44444444,25.6136364 L4.44444444,23.3863636 C4.44444444,22.7713193 4.94190583,22.2727273 5.55555556,22.2727273 Z" id="矩形备份-3" fill="#FFFFFF"></path>
                            <path d="M5.55555556,31.1818182 L16.6666667,31.1818182 C17.2803164,31.1818182 17.7777778,31.6804102 17.7777778,32.2954545 L17.7777778,34.5227273 C17.7777778,35.1377717 17.2803164,35.6363636 16.6666667,35.6363636 L5.55555556,35.6363636 C4.94190583,35.6363636 4.44444444,35.1377717 4.44444444,34.5227273 L4.44444444,32.2954545 C4.44444444,31.6804102 4.94190583,31.1818182 5.55555556,31.1818182 Z" id="矩形备份-4" fill="#FFFFFF"></path>
                            <path d="M5.55555556,40.0909091 L25.5555556,40.0909091 C26.1692053,40.0909091 26.6666667,40.5895011 26.6666667,41.2045455 L26.6666667,43.4318182 C26.6666667,44.0468626 26.1692053,44.5454545 25.5555556,44.5454545 L5.55555556,44.5454545 C4.94190583,44.5454545 4.44444444,44.0468626 4.44444444,43.4318182 L4.44444444,41.2045455 C4.44444444,40.5895011 4.94190583,40.0909091 5.55555556,40.0909091 Z" id="矩形备份-5" fill="#FFFFFF"></path>
                        </g>
                    </g>
                    <g id="编组" transform="translate(39.8611, 17.9574)">
                        <path d="M0.626218324,0 L35.0682261,0 C35.414077,0 35.6944444,0.290338624 35.6944444,0.648489468 L35.6944444,25.9395787 C35.6944444,26.2977296 35.414077,26.5880682 35.0682261,26.5880682 L0.626218324,26.5880682 C0.280367493,26.5880682 0,26.2977296 0,25.9395787 L0,0.648489468 C0,0.290338624 0.280367493,0 0.626218324,0 Z" id="矩形" fill="#EFF3F6"></path>
                        <ellipse id="椭圆形" fill="#FFFFFF" cx="5.73660714" cy="5.83640521" rx="2.54960317" ry="2.59395787"></ellipse>
                        <path d="M25.4960317,8.43036308 L35.6944444,19.454684 L35.6944444,25.9395787 C35.6944444,26.2977296 35.4090704,26.5880682 35.0570437,26.5880682 L7.64880952,26.5880682 L25.4960317,8.43036308 Z" id="路径" fill="#E2E5E9"></path>
                        <g id="路径-2" transform="translate(0, 10.3758)" fill="#E9ECF0">
                            <path d="M11.4732143,0 L27.4082341,16.2122367 L0.637400794,16.2122367 C0.285374056,16.2122367 0,15.9218981 0,15.5637472 L0,11.6728104 L11.4732143,0 Z" id="路径"></path>
                        </g>
                    </g>
                    <rect id="矩形" fill="#E9ECF0" x="80" y="17.9573864" width="15.5555556" height="6.54261364" rx="1.11111111"></rect>
                    <rect id="矩形备份-6" fill="#E9ECF0" x="80" y="33.4090909" width="35.5555556" height="4.45454545" rx="1.11111111"></rect>
                    <rect id="矩形备份-7" fill="#E9ECF0" x="80" y="40.0909091" width="35.5555556" height="4.45454545" rx="1.11111111"></rect>
                    <rect id="矩形备份-9" fill="#E9ECF0" x="48.8888889" y="53.4545455" width="35.5555556" height="4.45454545" rx="1.11111111"></rect>
                    <rect id="矩形备份-12" fill="#E9ECF0" x="95.5555556" y="53.4545455" width="11.1111111" height="4.45454545" rx="1.11111111"></rect>
                    <rect id="矩形备份-15" fill="#E9ECF0" x="111.111111" y="53.4545455" width="4.44444444" height="4.45454545" rx="1.11111111"></rect>
                    <rect id="矩形备份-10" fill="#E9ECF0" x="48.8888889" y="64.5909091" width="35.5555556" height="4.45454545" rx="1.11111111"></rect>
                    <rect id="矩形备份-13" fill="#E9ECF0" x="95.5555556" y="64.5909091" width="11.1111111" height="4.45454545" rx="1.11111111"></rect>
                    <rect id="矩形备份-16" fill="#E9ECF0" x="111.111111" y="64.5909091" width="4.44444444" height="4.45454545" rx="1.11111111"></rect>
                    <rect id="矩形备份-11" fill="#E9ECF0" x="48.8888889" y="75.7272727" width="35.5555556" height="4.45454545" rx="1.11111111"></rect>
                    <rect id="矩形备份-14" fill="#E9ECF0" x="95.5555556" y="75.7272727" width="11.1111111" height="4.45454545" rx="1.11111111"></rect>
                    <rect id="矩形备份-17" fill="#E9ECF0" x="111.111111" y="75.7272727" width="4.44444444" height="4.45454545" rx="1.11111111"></rect>
                    <path d="M115.555556,28.6761364 C115.708968,28.6761364 115.833333,28.899994 115.833333,29.1761364 C115.833333,29.4522787 115.708968,29.6761364 115.555556,29.6761364 L80,29.6761364 C79.8465876,29.6761364 79.7222222,29.4522787 79.7222222,29.1761364 C79.7222222,28.899994 79.8465876,28.6761364 80,28.6761364 L115.555556,28.6761364 Z" id="路径-2" fill="#F1F4F8" fill-rule="nonzero"></path>
                    <rect id="矩形" fill="#FFFFFF" x="84.4444444" y="20.0454545" width="6.66666667" height="2.22727273" rx="1.11111111"></rect>
                    <ellipse id="椭圆形备份-3" fill="#FDF2E8" cx="42.2222222" cy="55.6657561" rx="2.22222222" ry="2.22727273"></ellipse>
                    <ellipse id="椭圆形备份-4" fill="#E6F2FE" cx="42.2222222" cy="66.85566" rx="2.22222222" ry="2.22727273"></ellipse>
                    <ellipse id="椭圆形备份-5" fill="#ECF7F2" cx="42.2222222" cy="77.9224213" rx="2.22222222" ry="2.22727273"></ellipse>
                    <path d="M115.555556,48.7215909 C115.708968,48.7215909 115.833333,48.9454485 115.833333,49.2215909 C115.833333,49.4977333 115.708968,49.7215909 115.555556,49.7215909 L40,49.7215909 C39.8465876,49.7215909 39.7222222,49.4977333 39.7222222,49.2215909 C39.7222222,48.9454485 39.8465876,48.7215909 40,48.7215909 L115.555556,48.7215909 Z" id="路径-5" fill="#F1F4F8" fill-rule="nonzero"></path>
                </g>
                <g id="元素/钥匙" transform="translate(24.4444, 71.2727)">
                    <g id="椭圆形">
                        <use fill="black" fill-opacity="1" filter="url(#filter-crfhdnau1h-2)" xlink:href="#path-crfhdnau1h-1"></use>
                        <use fill="#FFFFFF" fill-rule="evenodd" xlink:href="#path-crfhdnau1h-1"></use>
                    </g>
                    <g id="编组" transform="translate(4, 4.0091)">
                        <polygon id="路径" points="0 0 19 0 19 19.0431818 0 19.0431818"></polygon>
                        <path d="M8.19333624,9.18368887 L14.476264,2.88623224 L16.1546129,4.56846216 L15.0357137,5.68994876 L16.7140625,7.37217868 L13.9168144,10.1766883 L12.2384656,8.49445841 L9.87247639,10.8659188 C10.7726347,12.6018577 10.2758279,14.7363672 8.70222106,15.8938717 C7.12861417,17.0513761 4.94806083,16.8862633 3.56580957,15.5049394 C2.18271574,14.1208666 2.0151256,11.931929 3.17133005,10.3525415 C4.32753449,8.77315395 6.46107663,8.27658022 8.19333624,9.18368887 L8.19333624,9.18368887 Z M7.48195688,13.8219164 C7.89336455,13.4236467 8.05836027,12.8338694 7.9135278,12.2792658 C7.76869533,11.7246622 7.33657398,11.2915416 6.78324993,11.1463743 C6.22992588,11.0012069 5.64150924,11.1665841 5.24415842,11.5789432 C4.64439644,12.2013585 4.65297388,13.1907189 5.26343676,13.8025934 C5.87389963,14.414468 6.86097748,14.4230652 7.48195688,13.8219164 L7.48195688,13.8219164 Z" id="形状" fill="#00B8CC" fill-rule="nonzero"></path>
                    </g>
                </g>
                <g id="前景/暂无访问权限" transform="translate(131.1111, 0)">
                    <g id="矩形">
                        <use fill="black" fill-opacity="1" filter="url(#filter-crfhdnau1h-4)" xlink:href="#path-crfhdnau1h-3"></use>
                        <use fill="#FFFFFF" fill-rule="evenodd" xlink:href="#path-crfhdnau1h-3"></use>
                    </g>
                    <path d="M5.55555556,4.45454545 L18.8888889,4.45454545 C19.5025386,4.45454545 20,4.95313744 20,5.56818182 L20,18.9318182 C20,19.5468626 19.5025386,20.0454545 18.8888889,20.0454545 L5.55555556,20.0454545 C4.94190583,20.0454545 4.44444444,19.5468626 4.44444444,18.9318182 L4.44444444,5.56818182 C4.44444444,4.95313744 4.94190583,4.45454545 5.55555556,4.45454545 Z" id="矩形" fill="#00B8CC"></path>
                    <path d="M25.5555556,4.45454545 L38.8888889,4.45454545 C39.5025386,4.45454545 40,4.95313744 40,5.56818182 L40,10.0227273 C40,10.6377717 39.5025386,11.1363636 38.8888889,11.1363636 L25.5555556,11.1363636 C24.9419058,11.1363636 24.4444444,10.6377717 24.4444444,10.0227273 L24.4444444,5.56818182 C24.4444444,4.95313744 24.9419058,4.45454545 25.5555556,4.45454545 Z" id="矩形" fill="#EAEEF1"></path>
                    <path d="M25.5555556,13.3636364 L52.2222222,13.3636364 C52.8358719,13.3636364 53.3333333,13.8622283 53.3333333,14.4772727 C53.3333333,15.0923171 52.8358719,15.5909091 52.2222222,15.5909091 L25.5555556,15.5909091 C24.9419058,15.5909091 24.4444444,15.0923171 24.4444444,14.4772727 C24.4444444,13.8622283 24.9419058,13.3636364 25.5555556,13.3636364 Z" id="矩形备份-22" fill="#EAEEF1"></path>
                    <path d="M25.5555556,17.8181818 L52.2222222,17.8181818 C52.8358719,17.8181818 53.3333333,18.3167738 53.3333333,18.9318182 C53.3333333,19.5468626 52.8358719,20.0454545 52.2222222,20.0454545 L25.5555556,20.0454545 C24.9419058,20.0454545 24.4444444,19.5468626 24.4444444,18.9318182 C24.4444444,18.3167738 24.9419058,17.8181818 25.5555556,17.8181818 Z" id="矩形备份-23" fill="#EAEEF1"></path>
                    <g id="编组-4" transform="translate(6.6667, 6.6818)" fill="#FFFFFF">
                        <g id="编组" transform="translate(0.5556, 0)">
                            <path d="M6.37823289,3.04415337 L6.37823289,3.34533357 L7.8283756,3.34533357 L7.8283756,3.04415337 C7.8283756,1.36291979 6.46772869,0 4.78927846,0 C3.11082824,0 1.75020308,1.36291979 1.75020308,3.04412224 L1.75020308,3.34533357 L3.20035511,3.34533357 L3.20035511,3.04412224 C3.20035511,2.16514357 3.9117535,1.45257039 4.78927846,1.45257039 C5.6668345,1.45257039 6.37823289,2.16514357 6.37823289,3.04415337 Z M8.70099073,3.77668488 C9.34169365,3.77668488 9.86111111,4.29693352 9.86111111,4.93873123 L9.86111111,9.97431729 C9.86111111,10.6160839 9.34169365,11.1363636 8.70099073,11.1363636 L1.16013055,11.1363636 C0.519418304,11.1363636 0,10.6160839 0,9.97431729 L0,4.93873123 C0,4.29693352 0.519418304,3.77668488 1.16013055,3.77668488 L8.70099073,3.77668488 Z M4.99555385,5.81027377 C4.47911958,5.81027377 4.06044704,6.22213988 4.06044704,6.73021805 C4.06044704,7.0718316 4.24969337,7.36996141 4.53067289,7.5286444 L4.26069389,8.79393742 C4.22209883,8.97475137 4.35969862,9.14516906 4.54431479,9.14516906 L5.44679292,9.14516906 C5.63137801,9.14516906 5.76900888,8.97475137 5.73044489,8.79393742 L5.46040374,7.5286444 C5.74141434,7.36996141 5.93066067,7.0718316 5.93066067,6.73021805 C5.93066067,6.22213988 5.51198813,5.81027377 4.99555385,5.81027377 Z" id="形状"></path>
                        </g>
                    </g>
                </g>
            </g>
        </g>
    </g>
</svg>
