<?xml version="1.0" encoding="UTF-8"?>
<svg width="48px" height="48px" viewBox="0 0 48 48" version="1.1" xmlns="http://www.w3.org/2000/svg" xmlns:xlink="http://www.w3.org/1999/xlink">
    <title>交货质量</title>
    <g id="v111" stroke="none" stroke-width="1" fill="none" fill-rule="evenodd" opacity="0.100000001">
        <g id="交货质量">
            <rect id="矩形" x="0" y="0" width="48" height="48"></rect>
            <g id="编组" transform="translate(3, 9)" fill="#1D2129" fill-rule="nonzero">
                <path d="M15.2050691,24.8181818 C14.7418855,28.0561909 11.9570945,30.5454545 8.59090909,30.5454545 C5.22472364,30.5454545 2.43993273,28.0561909 1.97674909,24.8181818 L0,24.8181818 L0,1.90909091 C0,0.854738182 0.854738182,0 1.90909091,0 L28.6363636,0 C29.6907545,0 30.5454545,0.854738182 30.5454545,1.90909091 L30.5454545,5.72727273 L36.2727273,5.72727273 L42,13.4699727 L42,24.8181818 L38.1142364,24.8181818 C37.6509,28.0561909 34.8661091,30.5454545 31.5,30.5454545 C28.1338909,30.5454545 25.3491,28.0561909 24.8857636,24.8181818 L15.2050691,24.8181818 Z M26.7272727,3.81818182 L3.81818182,3.81818182 L3.81818182,19.1873182 C5.03095091,17.9496545 6.72126,17.1818182 8.59090909,17.1818182 C11.2563818,17.1818182 13.5573136,18.7425 14.6297073,21 L25.4611636,21 C25.7813182,20.3260909 26.2110545,19.7140364 26.7272727,19.1873182 L26.7272727,3.81818182 Z M30.5454545,15.2727273 L38.1818182,15.2727273 L38.1818182,14.7286364 L34.3477909,9.54545455 L30.5454545,9.54545455 L30.5454545,15.2727273 Z M31.5,26.7272727 C32.7468273,26.7272727 33.8075182,25.9304182 34.2006,24.8181818 C34.3061727,24.5196 34.3636364,24.1983 34.3636364,23.8636364 C34.3636364,22.2821455 33.0814909,21 31.5,21 C29.9185091,21 28.6363636,22.2821455 28.6363636,23.8636364 C28.6363636,24.1983 28.6938273,24.5196 28.7994,24.8181818 C29.1924818,25.9304182 30.2531727,26.7272727 31.5,26.7272727 Z M11.4545455,23.8636364 C11.4545455,22.2821455 10.1724573,21 8.59090909,21 C7.00936091,21 5.72727273,22.2821455 5.72727273,23.8636364 C5.72727273,24.1983 5.78469818,24.5196 5.89021364,24.8181818 C6.28333364,25.9304182 7.34406273,26.7272727 8.59090909,26.7272727 C9.83775545,26.7272727 10.8984845,25.9304182 11.2916045,24.8181818 C11.39712,24.5196 11.4545455,24.1983 11.4545455,23.8636364 Z" id="形状"></path>
            </g>
        </g>
    </g>
</svg>