<?xml version="1.0" encoding="UTF-8"?>
<svg width="48px" height="48px" viewBox="0 0 48 48" version="1.1" xmlns="http://www.w3.org/2000/svg" xmlns:xlink="http://www.w3.org/1999/xlink">
    <title>企业经营</title>
    <g id="v111" stroke="none" stroke-width="1" fill="none" fill-rule="evenodd" opacity="0.100000001">
        <g id="企业经营">
            <rect id="矩形" x="0" y="0" width="48" height="48"></rect>
            <g id="编组" transform="translate(3, 6)" fill="#1D2129" fill-rule="nonzero">
                <path d="M21.3153652,0.474883043 L36.1563391,13.9667074 L30.7270174,13.9667074 L20.0869565,4.2939613 L9.13043478,14.2544439 L9.13043478,32.2277596 L18.2608696,32.2277596 L18.2608696,35.8799335 L7.30434783,35.8799335 C6.29583652,35.8799335 5.47826087,35.0623943 5.47826087,34.0538465 L5.47826087,17.6190639 L0,17.6190639 L18.8585478,0.474883043 C19.5550174,-0.158294348 20.6188957,-0.158294348 21.3153652,0.474883043 Z M23.7391304,17.6188813 L40.173913,17.6188813 L40.173913,30.40149 L23.7391304,30.40149 L23.7391304,17.6188813 Z M27.3913043,21.2710552 L27.3913043,26.7493161 L36.5217391,26.7493161 L36.5217391,21.2710552 L27.3913043,21.2710552 Z M42,35.8797509 L21.9130435,35.8797509 L21.9130435,32.227577 L42,32.227577 L42,35.8797509 Z" id="形状"></path>
            </g>
        </g>
    </g>
</svg>