<?xml version="1.0" encoding="UTF-8"?>
<svg width="48px" height="48px" viewBox="0 0 48 48" version="1.1" xmlns="http://www.w3.org/2000/svg" xmlns:xlink="http://www.w3.org/1999/xlink">
    <title>自然意外</title>
    <g id="v111" stroke="none" stroke-width="1" fill="none" fill-rule="evenodd" opacity="0.100000001">
        <g id="自然意外">
            <rect id="矩形" x="0" y="0" width="48" height="48"></rect>
            <g id="编组" transform="translate(6, 3)" fill="#1D2129" fill-rule="nonzero">
                <path d="M29.3166115,0 L23.7510115,5.06628 C26.3018115,5.8466 28.6984115,7.16202 30.7302115,9.0125 C37.7566115,15.4121 37.7566115,25.78798 30.7302115,32.18758 C25.5470115,36.90838 17.5366115,39.91258 6.69901151,41.19998 L12.2645715,36.13378 C9.71389151,35.35338 7.31713151,34.03798 5.28541151,32.18758 C-1.74098849,25.78798 -1.78258849,15.45 5.28541151,9.0125 C10.4686115,4.29168 18.4790115,1.2875 29.3166115,0 Z M18.0078115,8.6 C10.2758315,8.6 4.00781151,13.97258 4.00781151,20.59998 C4.00781151,27.22738 10.2758315,32.59998 18.0078115,32.59998 C25.7398115,32.59998 32.0078115,27.22738 32.0078115,20.59998 C32.0078115,13.97258 25.7398115,8.6 18.0078115,8.6 Z M18.0078115,13.2 C22.4260115,13.2 26.0078115,16.5131 26.0078115,20.59998 C26.0078115,24.68698 22.4260115,27.99998 18.0078115,27.99998 C13.5895315,27.99998 10.0078115,24.68698 10.0078115,20.59998 C10.0078115,16.5131 13.5895315,13.2 18.0078115,13.2 Z M18.0078115,17.19998 C15.7320115,17.19998 14.0078115,18.79498 14.0078115,20.59998 C14.0078115,22.40518 15.7320115,23.99998 18.0078115,23.99998 C20.2836115,23.99998 22.0078115,22.40518 22.0078115,20.59998 C22.0078115,18.79498 20.2836115,17.19998 18.0078115,17.19998 Z" id="形状"></path>
            </g>
        </g>
    </g>
</svg>