<?xml version="1.0" encoding="UTF-8"?>
<svg width="48px" height="48px" viewBox="0 0 48 48" version="1.1" xmlns="http://www.w3.org/2000/svg" xmlns:xlink="http://www.w3.org/1999/xlink">
    <title>服务响应</title>
    <g id="v111" stroke="none" stroke-width="1" fill="none" fill-rule="evenodd" opacity="0.100000001">
        <g id="服务响应">
            <rect id="矩形" x="0" y="0" width="48" height="48"></rect>
            <g id="编组" transform="translate(3, 3)" fill="#1D2129" fill-rule="nonzero">
                <path d="M20.7085171,1.05810096 C22.7841778,-0.325686881 25.4808148,-0.354373168 27.5854559,0.984936226 L36.3114631,6.53783275 L39.899979,6.53783275 C41.0598206,6.53783275 42,7.47805416 42,8.63785375 L42,27.5379588 C42,28.6978004 41.0598206,29.6379798 39.899979,29.6379798 L36.7085771,29.6379798 C36.8335283,31.6273296 35.896289,33.6496499 34.0108901,34.7809312 L23.3146431,41.1988054 C21.9643296,42.0087835 20.2880929,41.9898833 18.9661297,41.1828452 C17.495485,42.4833882 15.2316623,42.6266096 13.5893199,41.3361467 L2.79361594,32.8537419 C1.18413884,31.5893193 0.777133771,29.4288177 1.60817508,27.7160405 C0.593213932,26.9201326 0,25.7014904 0,24.4110275 L0,8.63797976 C0,7.47818016 0.940221402,6.53795876 2.100021,6.53795876 L12.4886779,6.53795876 L20.7085171,1.05810096 Z M4.56258963,24.6930603 L6.01586716,23.4214976 C8.59933399,21.160825 12.5170072,21.3846872 14.8261693,23.9248726 L20.500825,30.166975 C22.3267933,32.1756451 22.6598566,35.1265946 21.3318033,37.4901683 L31.8499685,31.1793952 C32.4409144,30.8249116 32.6546965,30.1161545 32.4344043,29.5191186 L23.1374014,16.5036294 C22.6151262,15.7725071 21.6856569,15.4546059 20.8250683,15.7127825 L15.6059911,17.2785162 C13.3860589,17.9444328 10.9797078,17.3377368 9.34087241,15.6989854 L8.72604926,15.0841622 C7.53321633,13.8913293 7.22474425,12.1936933 7.72671227,10.7380008 L4.200042,10.7380008 L4.200042,24.4110275 L4.56258963,24.6930603 Z M25.3306633,4.52836466 C24.6290463,4.0819212 23.7302373,4.09147629 23.0382804,4.5527459 L11.69592,12.1142915 L12.3107431,12.7291147 C12.8570216,13.2753931 13.6591456,13.4776042 14.39913,13.2556109 L19.6181862,11.6898773 C22.199952,10.9153475 24.9885699,11.8690511 26.5551856,14.062397 L34.6805868,25.4379378 L37.799958,25.4379378 L37.799958,10.7378748 L36.3114631,10.7378748 C35.5126151,10.7378748 34.7303573,10.5101065 34.0564606,10.0812612 L25.3306633,4.52836466 Z M8.78161582,26.5822392 L5.38850689,29.5512489 L16.1842108,38.0336537 L17.6624366,35.4466378 C18.1139411,34.6566099 18.0051601,33.66561 17.3930039,32.9921333 L11.7183902,26.7500309 C10.9486695,25.9033024 9.64277143,25.8287517 8.78161582,26.5822392 Z" id="形状"></path>
            </g>
        </g>
    </g>
</svg>