<?xml version="1.0" encoding="UTF-8"?>
<svg width="16px" height="16px" viewBox="0 0 16 16" version="1.1" xmlns="http://www.w3.org/2000/svg" xmlns:xlink="http://www.w3.org/1999/xlink">
    <title>此方案预计每年消耗额度</title>
    <g id="v111" stroke="none" stroke-width="1" fill="none" fill-rule="evenodd">
        <g id="此方案预计每年消耗额度">
            <rect id="矩形" x="0" y="0" width="16" height="16"></rect>
            <g id="编组" transform="translate(1, 3)" fill="#F06200" fill-rule="nonzero">
                <path d="M14.66668,5.3333 L14.66668,6.66663333 C14.66668,8.87583333 11.3834133,10.6666333 7.33334667,10.6666333 C3.35557333,10.6666333 0.117506667,8.93916667 0.00312666667,6.78463333 L0,6.66663333 L0,5.3333 C0,7.5425 3.28324667,9.3333 7.33334667,9.3333 C11.3834133,9.3333 14.66668,7.5425 14.66668,5.3333 Z M7.33334667,0 C11.3834133,0 14.66668,1.79086 14.66668,3.99996667 C14.66668,6.20916667 11.3834133,7.99996667 7.33334667,7.99996667 C3.28324667,7.99996667 0,6.20916667 0,3.99996667 C0,1.79086 3.28324667,0 7.33334667,0 Z" id="形状"></path>
            </g>
        </g>
    </g>
</svg>