<?xml version="1.0" encoding="UTF-8"?>
<svg width="16px" height="16px" viewBox="0 0 16 16" version="1.1" xmlns="http://www.w3.org/2000/svg" xmlns:xlink="http://www.w3.org/1999/xlink">
    <title>项目总得分</title>
    <g id="v111" stroke="none" stroke-width="1" fill="none" fill-rule="evenodd">
        <g id="项目总得分">
            <rect id="矩形" x="0" y="0" width="16" height="16"></rect>
            <g id="编组" transform="translate(2, 2)" fill="#3BB346" fill-rule="nonzero">
                <path d="M0,6.66666667 L1.33333333,6.66666667 L1.33333333,12.6666667 L0,12.6666667 L0,6.66666667 Z M2,8 L3.33333333,8 L3.33333333,12.6666667 L2,12.6666667 L2,8 Z M9.33333333,4 L10.6666667,4 L10.6666667,12.6666667 L9.33333333,12.6666667 L9.33333333,4 Z M11.3333333,5.33333333 L12.6666667,5.33333333 L12.6666667,12.6666667 L11.3333333,12.6666667 L11.3333333,5.33333333 Z M4.66666667,0 L6,0 L6,12.6666667 L4.66666667,12.6666667 L4.66666667,0 Z M6.66666667,1.33333333 L8,1.33333333 L8,12.6666667 L6.66666667,12.6666667 L6.66666667,1.33333333 Z" id="形状"></path>
            </g>
        </g>
    </g>
</svg>