<?xml version="1.0" encoding="UTF-8"?>
<svg width="16px" height="16px" viewBox="0 0 16 16" version="1.1" xmlns="http://www.w3.org/2000/svg" xmlns:xlink="http://www.w3.org/1999/xlink">
    <title>编组 25</title>
    <g id="v715" stroke="none" stroke-width="1" fill="none" fill-rule="evenodd">
        <g id="编组-25">
            <rect id="矩形" fill-opacity="0.1" fill="#F25535" x="0" y="0" width="16" height="16" rx="2"></rect>
            <g id="Icon/message_notification" transform="translate(1, 1)">
                <path d="M7,11.1200833 C3.77825,11.1200833 1.16666666,9.08775 1.16666666,6.58058334 C1.16666666,4.074 3.77825,2.04166666 7,2.04166666 C10.22175,2.04166666 12.8333333,4.074 12.8333333,6.58058334 C12.8333333,7.63175 12.37425,8.5995 11.6036667,9.36891666 C11.3930833,9.57891666 12.1759167,11.7565 11.9221667,11.9344167 C11.56925,12.18175 10.1605,10.4148333 9.73758334,10.5898333 C8.92091668,10.9281667 7.98933334,11.1200833 7,11.1200833 Z M4.72050999,7.26402974 C4.88002809,7.10177642 4.96851972,6.88277601 4.9665,6.65525 C4.96851972,6.42772399 4.88002809,6.20872358 4.72050999,6.04647026 C4.56099189,5.88421694 4.34352746,5.79201513 4.116,5.79016666 C3.88837105,5.7918611 3.67075685,5.88399511 3.51111281,6.04626523 C3.35146878,6.20853535 3.26289725,6.4276237 3.26491666,6.65525 C3.26289725,6.8828763 3.35146878,7.10196465 3.51111281,7.26423477 C3.67075685,7.42650489 3.88837105,7.5186389 4.116,7.52033334 C4.34352746,7.51848487 4.56099189,7.42628306 4.72050999,7.26402974 Z M7.63717665,7.26402974 C7.79669475,7.10177642 7.88518639,6.88277601 7.88316666,6.65525 C7.88518639,6.42772399 7.79669475,6.20872358 7.63717665,6.04647026 C7.47765856,5.88421694 7.26019413,5.79201513 7.03266666,5.79016666 C6.80503771,5.7918611 6.58742351,5.88399512 6.42777948,6.04626524 C6.26813545,6.20853536 6.17956393,6.4276237 6.18158334,6.65525 C6.17956393,6.8828763 6.26813545,7.10196464 6.42777948,7.26423476 C6.58742351,7.42650488 6.80503771,7.5186389 7.03266666,7.52033334 C7.26019413,7.51848487 7.47765856,7.42628306 7.63717665,7.26402974 Z M10.5538433,7.26402974 C10.7133614,7.10177642 10.8018531,6.88277601 10.7998333,6.65525 C10.8018531,6.42772399 10.7133614,6.20872358 10.5538433,6.04647026 C10.3943252,5.88421694 10.1768608,5.79201513 9.94933334,5.79016666 C9.72170439,5.7918611 9.50409018,5.88399511 9.34444615,6.04626523 C9.18480211,6.20853535 9.09623059,6.4276237 9.09825,6.65525 C9.09623059,6.8828763 9.18480211,7.10196465 9.34444615,7.26423477 C9.50409018,7.42650489 9.72170439,7.5186389 9.94933334,7.52033334 C10.1768608,7.51848487 10.3943252,7.42628306 10.5538433,7.26402974 Z" id="icon" fill="#E64322"></path>
                <rect id="message_notification" x="0" y="0" width="14" height="14"></rect>
            </g>
        </g>
    </g>
</svg>