<?xml version="1.0" encoding="UTF-8"?>
<svg width="200px" height="154px" viewBox="0 0 200 154" version="1.1" xmlns="http://www.w3.org/2000/svg" xmlns:xlink="http://www.w3.org/1999/xlink">
    <title>编组 32</title>
    <g id="IM协同工具" stroke="none" stroke-width="1" fill="none" fill-rule="evenodd">
        <g id="联系人列表备份-2" transform="translate(-1014.000000, -327.000000)">
            <g id="编组-10" transform="translate(494.000000, 0.000000)">
                <g id="编组-32" transform="translate(520.000000, 327.000000)">
                    <path d="M101.386554,146.959937 L95.3011701,146.959937 C94.5340006,146.959937 93.9063506,146.33735 93.9063506,145.576536 L93.9063506,139.468314 C93.9063506,138.707425 94.5340006,138.084838 95.3011701,138.084838 L101.386554,138.084838 C102.153724,138.084838 102.781449,138.707425 102.781449,139.468314 L102.781449,145.576536 C102.781449,146.33735 102.153724,146.959937 101.386554,146.959937" id="Fill-3" fill="#ECECEC" opacity="0.581029983" transform="translate(98.343900, 142.522387) rotate(-225.000000) translate(-98.343900, -142.522387) "></path>
                    <g id="编组-4" transform="translate(8.751653, 0.000000)">
                        <g id="编组-2" transform="translate(0.000000, 0.000000)">
                            <g id="编组备份" transform="translate(90.698065, 110.963018) scale(-1, 1) translate(-90.698065, -110.963018) translate(0.000000, 68.724096)">
                                <path d="M17.930992,62.9849472 C17.4800078,63.4202643 16.8776679,63.6635477 16.2508604,63.6635477 C14.9147731,63.6635477 13.8316604,62.580435 13.8316604,61.2443477 L13.8316604,61.2443477 L13.83108,53.2864331 C5.53914624,48.2494074 2.94866592e-14,39.132286 2.82116968e-14,28.7214277 C2.62691123e-14,12.8590212 12.8590212,7.89288674e-13 28.7214277,7.86374797e-13 L71.0160584,7.86374797e-13 C86.8784649,7.8346092e-13 99.7374861,12.8590212 99.7374861,28.7214277 C99.7374861,44.5838343 86.8784649,57.4428555 71.0160584,57.4428555 L28.7214277,57.4428555 C27.1351871,57.4428555 25.5789803,57.3142653 24.062663,57.0669405 Z" id="形状结合" fill="#ECECEC"></path>
                                <g id="资源-34" transform="translate(157.387384, 59.252701) rotate(10.000000) translate(-157.387384, -59.252701) translate(136.887384, 37.253122)" fill-rule="nonzero">
                                    <circle id="椭圆形" fill="#E0E0E0" cx="20.5" cy="20.5" r="20.5"></circle>
                                    <path d="M33.9162008,25.9969181 C35.1089293,22.7767589 35.7058463,21.5689194 33.9162008,21.0212238 C32.1265554,20.4735282 29.5415733,23.9840388 27.1539055,22.2906021 C24.7662377,20.5971654 27.9492421,16.9400805 26.9549332,14.8466413 C25.9606243,12.7532022 24.7673431,12.5120818 25.3642601,8.55625389 C25.6671402,6.54896912 27.5026598,4.32517954 29.2375878,2.62223225 C26.4576151,1.23602248 23.3994092,0.516989704 20.3004146,0.520944533 C19.4909729,0.520944533 18.6822435,0.569545895 17.8784793,0.666416312 C19.5581373,4.39231281 16.5105446,7.10953192 14.2306535,10.8796245 C11.4466992,15.4866452 12.441008,18.3487602 18.2073363,19.4575781 C23.9736646,20.5663959 23.3773004,27.6069977 18.2073363,29.4156798 C13.0373723,31.224362 14.6280454,23.7831985 11.4466992,23.7468346 C8.26535288,23.7104708 5.0840066,22.9781587 4.88503428,19.9621965 C4.77449411,18.2519764 2.61288096,16.6525263 0.764096506,15.588464 C0.285573665,17.3586966 0.0439132391,19.1859238 0.045576741,21.0212238 C0.045576741,32.3426904 9.11319603,41.5209445 20.2987565,41.5209445 C25.4847918,41.5277315 30.474444,39.5138112 34.2328984,35.8968376 C32.8080355,32.5547197 33.041828,28.3572119 33.9162008,25.9969181 Z" id="路径" fill="#E0E0E0"></path>
                                    <path d="M5.10590331,19.6796148 C5.30905507,22.6921261 8.55722601,23.4236003 11.8053969,23.4599225 C15.0535679,23.4962448 13.4294824,30.9344821 18.7080424,29.1250754 C23.9866023,27.3156687 24.5954933,20.2831229 18.7080424,19.1783678 C12.8205914,18.0736127 11.8053969,15.2108609 14.6478287,10.6102292 C16.973352,6.8444504 20.0849598,4.12810514 18.3722776,0.408707061 C9.95389437,1.39890739 3.08905777,7.39766616 0.898404609,15.3108867 C2.78715168,16.3737316 4.99078398,17.9713516 5.10590331,19.6796148 Z" id="路径" fill="#6E718D"></path>
                                    <path d="M5.10590331,19.6796148 C5.30905507,22.6921261 8.55722601,23.4236003 11.8053969,23.4599225 C15.0535679,23.4962448 13.4294824,30.9344821 18.7080424,29.1250754 C23.9866023,27.3156687 24.5954933,20.2831229 18.7080424,19.1783678 C12.8205914,18.0736127 11.8053969,15.2108609 14.6478287,10.6102292 C16.973352,6.8444504 20.0849598,4.12810514 18.3722776,0.408707061 C9.95389437,1.39890739 3.08905777,7.39766616 0.898404609,15.3108867 C2.78715168,16.3737316 4.99078398,17.9713516 5.10590331,19.6796148 Z" id="路径" fill="#ECECEC"></path>
                                    <path d="M40.976149,20.9733046 C40.976149,12.9671346 36.4691617,6.04224981 29.9188728,2.72738144 C28.2229509,4.41616124 26.428699,6.62145024 26.1326286,8.61203562 C25.549132,12.5349535 26.7155848,12.7729583 27.6875388,14.8500908 C28.6594927,16.9272234 25.549132,20.552774 27.8804168,22.2321224 C30.2117016,23.9114707 32.742888,20.4296107 34.4906762,20.9733046 C36.2384645,21.5169985 35.6565887,22.7142346 34.4906762,25.907604 C33.6359618,28.2482617 33.4074257,32.4108487 34.8002535,35.7273814 C38.7490309,31.8920776 40.9832129,26.5546521 40.976149,20.9733046 L40.976149,20.9733046 Z" id="路径" fill="#ECECEC"></path>
                                    <circle id="椭圆形" fill="#ECECEC" cx="10.6495182" cy="39.4991581" r="4.5"></circle>
                                </g>
                            </g>
                            <g id="编组" transform="translate(15.878888, 0.000000)" fill="#E0E0E0">
                                <rect id="矩形" x="0" y="0" width="142.451613" height="81.9566855" rx="40.9783428"></rect>
                                <path d="M19.7552836,70.0367774 L19.7552836,87.3760932 C19.7552836,89.2847893 21.3025876,90.8320932 23.2112836,90.8320932 C24.1060895,90.8320932 24.9660171,90.4850358 25.6101536,89.8639354 L38.4250133,77.5073713 L38.4250133,77.5073713 L19.7552836,70.0367774 Z" id="路径-2"></path>
                            </g>
                        </g>
                        <g id="编组-3" transform="translate(53.040179, 32.868046)" fill="#FFFFFF">
                            <ellipse id="椭圆形" cx="6.62068966" cy="6.61629492" rx="6.62068966" ry="6.61629492"></ellipse>
                            <ellipse id="椭圆形备份" cx="33.7441602" cy="6.61629492" rx="6.62068966" ry="6.61629492"></ellipse>
                            <ellipse id="椭圆形备份-2" cx="61.5083426" cy="6.61629492" rx="6.62068966" ry="6.61629492"></ellipse>
                        </g>
                    </g>
                    <path d="M6.46582493,82.8342495 C4.93148592,82.8342495 3.67618602,81.5890771 3.67618602,80.0674484 L3.67618602,67.8510034 C3.67618602,66.3292255 4.93148592,65.0840531 6.46582493,65.0840531 L18.636593,65.0840531 C20.170932,65.0840531 21.4263823,66.3292255 21.4263823,67.8510034 L21.4263823,80.0674484 C21.4263823,81.5890771 20.170932,82.8342495 18.636593,82.8342495 L6.46582493,82.8342495 Z" id="Fill-3" fill="#ECECEC" opacity="0.593433925" transform="translate(12.551284, 73.959151) rotate(-225.000000) translate(-12.551284, -73.959151) "></path>
                    <path d="M179.481574,39.9718449 C179.867404,40.5584893 180.06086,41.4030219 180.06086,42.5053525 L180.06086,49.859248 C180.06086,50.5394024 180.205681,51.0144595 180.495324,51.2843291 C180.784967,51.5537784 181.291826,51.6890285 182.015933,51.6890285 L182.993501,51.6890285 C183.331252,51.6890285 183.608999,51.7769531 183.826216,51.9529224 C184.043463,52.1288917 184.152103,52.4631734 184.152103,52.9557673 C184.152103,53.330678 184.037253,53.6297658 183.808109,53.8530306 C183.578441,54.0756048 183.306904,54.1871921 182.993501,54.1871921 L180.82118,54.1871921 C179.638261,54.1871921 178.763122,53.9465406 178.196258,53.4658981 C177.628868,52.9848353 177.345436,52.1342969 177.345436,50.9148537 L177.345436,43.4553465 C177.345436,41.1803276 176.488404,39.9487527 174.774864,39.7608019 C174.388478,39.7140769 174.062622,39.5848325 173.797297,39.3737895 C173.531415,39.1625963 173.399015,38.8579532 173.399015,38.4588392 C173.399015,38.0602657 173.543836,37.7496769 173.833479,37.526352 C174.123122,37.3038079 174.472738,37.1690082 174.883473,37.1218028 C175.800479,37.0046901 176.440326,36.6000207 176.802364,35.9077947 C177.164432,35.2162594 177.345436,34.166119 177.345436,32.7586948 L177.345436,26.178794 C177.345436,25.0528307 177.683157,24.1852059 178.359186,23.5748687 C179.034658,22.9653122 179.879826,22.6600985 180.893575,22.6600985 L182.993501,22.6600985 C183.306904,22.6600985 183.590893,22.7479931 183.844322,22.9239924 C184.097752,23.0999617 184.224467,23.4342434 184.224467,23.9268373 C184.272576,24.3727063 184.175833,24.6893309 183.934824,24.8768614 C183.69329,25.0649623 183.37933,25.1584123 182.993501,25.1584123 L181.943569,25.1584123 C181.243192,25.1584123 180.754408,25.2990376 180.477218,25.5806185 C180.19944,25.8620192 180.06086,26.4134998 180.06086,27.2343997 L180.06086,34.3420883 C180.06086,36.101451 179.228145,37.4505591 177.562683,38.3884515 C178.455373,38.8579532 179.095188,39.385741 179.481574,39.9718449 Z" id="Fill-1" fill="#ECECEC"></path>
                    <path d="M193.338166,27.2343997 C193.338166,26.4134998 193.199586,25.8620493 192.921809,25.5806185 C192.644619,25.2990376 192.155836,25.1584123 191.45546,25.1584123 L190.40553,25.1584123 C190.019701,25.1584123 189.705741,25.0649623 189.464208,24.8768614 C189.2232,24.6893309 189.126457,24.3727063 189.174535,23.9268373 C189.174535,23.4342434 189.30125,23.0999617 189.55471,22.9239924 C189.808108,22.7479931 190.092127,22.6600985 190.40553,22.6600985 L192.505452,22.6600985 C193.5192,22.6600985 194.364335,22.9653122 195.039837,23.5748687 C195.715834,24.1852059 196.053585,25.0528307 196.053585,26.178794 L196.053585,32.7586948 C196.053585,34.166119 196.234589,35.2162594 196.596657,35.9077947 C196.958694,36.6000207 197.59854,37.0046901 198.515545,37.1218028 C198.926278,37.1690082 199.275863,37.3038079 199.565506,37.526352 C199.855179,37.7496769 200,38.0602657 200,38.4588392 C200,38.8579532 199.8676,39.1625963 199.601688,39.3737895 C199.336394,39.5848325 199.010538,39.7140769 198.624153,39.7608019 C196.910616,39.9487527 196.053585,41.1803276 196.053585,43.4553465 L196.053585,50.9148537 C196.053585,52.1342969 195.770123,52.9848353 195.202765,53.4658981 C194.635902,53.9465406 193.760764,54.1871921 192.577847,54.1871921 L190.40553,54.1871921 C190.092127,54.1871921 189.820591,54.0756048 189.590923,53.8530306 C189.36178,53.6297658 189.24693,53.330678 189.24693,52.9557673 C189.24693,52.4631734 189.355538,52.1288917 189.572785,51.9529224 C189.790002,51.7769531 190.067779,51.6890285 190.40553,51.6890285 L191.383065,51.6890285 C192.107171,51.6890285 192.61406,51.5537784 192.903702,51.2843291 C193.193345,51.0144595 193.338166,50.5394024 193.338166,49.859248 L193.338166,42.5053525 C193.338166,41.4030219 193.531621,40.5584893 193.91745,39.9718449 C194.303836,39.385741 194.94365,38.8579532 195.836338,38.3884515 C194.17088,37.4505591 193.338166,36.101451 193.338166,34.3420883 L193.338166,27.2343997 Z" id="Fill-3" fill="#ECECEC"></path>
                </g>
            </g>
        </g>
    </g>
</svg>