<?xml version="1.0" encoding="UTF-8"?>
<svg width="1440px" height="800px" viewBox="0 0 1440 800" version="1.1" xmlns="http://www.w3.org/2000/svg" xmlns:xlink="http://www.w3.org/1999/xlink">
    <title>暂无聊天记录</title>
    <defs>
        <path d="M304,128 L400,128 C408.836556,128 416,135.163444 416,144 L416,240 C416,248.836556 408.836556,256 400,256 L304,256 C295.163444,256 288,248.836556 288,240 L288,144 C288,135.163444 295.163444,128 304,128 Z" id="path-1"></path>
        <path d="M456,128 L552,128 C556.418278,128 560,131.581722 560,136 L560,168 C560,172.418278 556.418278,176 552,176 L456,176 C451.581722,176 448,172.418278 448,168 L448,136 C448,131.581722 451.581722,128 456,128 Z" id="path-2"></path>
        <path d="M808,416.5 L824,416.5 C828.418278,416.5 832,420.081722 832,424.5 L832,440.5 C832,444.918278 828.418278,448.5 824,448.5 L808,448.5 C803.581722,448.5 800,444.918278 800,440.5 L800,424.5 C800,420.081722 803.581722,416.5 808,416.5 Z" id="path-3"></path>
        <path d="M16,0 L480,0 C488.836556,0 496,7.163444 496,16 L496,320 C496,328.836556 488.836556,336 480,336 L16,336 C7.163444,336 0,328.836556 0,320 L0,16 C0,7.163444 7.163444,0 16,0 Z" id="path-4"></path>
        <filter x="-11.3%" y="-11.9%" width="122.6%" height="133.3%" filterUnits="objectBoundingBox" id="filter-5">
            <feOffset dx="0" dy="16" in="SourceAlpha" result="shadowOffsetOuter1"></feOffset>
            <feGaussianBlur stdDeviation="16" in="shadowOffsetOuter1" result="shadowBlurOuter1"></feGaussianBlur>
            <feColorMatrix values="0 0 0 0 0.11372549   0 0 0 0 0.129411765   0 0 0 0 0.160784314  0 0 0 0.08 0" type="matrix" in="shadowBlurOuter1" result="shadowMatrixOuter1"></feColorMatrix>
            <feOffset dx="0" dy="8" in="SourceAlpha" result="shadowOffsetOuter2"></feOffset>
            <feGaussianBlur stdDeviation="8" in="shadowOffsetOuter2" result="shadowBlurOuter2"></feGaussianBlur>
            <feColorMatrix values="0 0 0 0 0.11372549   0 0 0 0 0.129411765   0 0 0 0 0.160784314  0 0 0 0.08 0" type="matrix" in="shadowBlurOuter2" result="shadowMatrixOuter2"></feColorMatrix>
            <feOffset dx="0" dy="4" in="SourceAlpha" result="shadowOffsetOuter3"></feOffset>
            <feGaussianBlur stdDeviation="4" in="shadowOffsetOuter3" result="shadowBlurOuter3"></feGaussianBlur>
            <feColorMatrix values="0 0 0 0 0.11372549   0 0 0 0 0.129411765   0 0 0 0 0.160784314  0 0 0 0.08 0" type="matrix" in="shadowBlurOuter3" result="shadowMatrixOuter3"></feColorMatrix>
            <feMerge>
                <feMergeNode in="shadowMatrixOuter1"></feMergeNode>
                <feMergeNode in="shadowMatrixOuter2"></feMergeNode>
                <feMergeNode in="shadowMatrixOuter3"></feMergeNode>
            </feMerge>
        </filter>
        <path d="M248,96 L376,96 C380.418278,96 384,99.581722 384,104 L384,136 C384,140.418278 380.418278,144 376,144 L248,144 C243.581722,144 240,140.418278 240,136 L240,104 C240,99.581722 243.581722,96 248,96 Z" id="path-6"></path>
        <path d="M248,224 L376,224 C380.418278,224 384,227.581722 384,232 L384,296 C384,300.418278 380.418278,304 376,304 L248,304 C243.581722,304 240,300.418278 240,296 L240,232 C240,227.581722 243.581722,224 248,224 Z" id="path-7"></path>
        <polygon id="path-8" points="384 128 384 112 400 120"></polygon>
        <polygon id="path-9" points="384 256 384 240 400 248"></polygon>
        <path d="M7.86073531,47.2727273 L2.26563581,56.7564938 C1.91765475,57.3463309 1.92053699,58.0825033 2.27000223,58.668511 L2.29381332,58.7073525 C2.5412697,59.1001632 3.06300377,59.3010557 3.85901554,59.3100301 L3.915781,59.3103448 L6.63532188,59.3103448 C7.44942479,59.3103448 8.26068845,59.2127235 9.05231177,59.0195026 L57.1786834,47.2727273 L7.86073531,47.2727273 Z" id="path-10"></path>
        <path d="M19.7177776,29.2163009 L112.351097,29.2163009 L3.05580498,0.0799860016 C1.90048315,-0.228004265 0.70112429,0.37680514 0.240675316,1.49250455 L0.224160716,1.53355003 C-0.193202055,2.5980223 -0.019925416,3.80807693 0.678637988,4.70733367 L19.7177776,29.2163009 Z" id="path-11"></path>
        <polygon id="shpath-12" points="112.351097 29.2163009 19.7243745 29.2163009 7.89968652 47.2727273 33.5198439 47.2727273"></polygon>
        <path d="M112.351097,29.2163009 L59.1261336,79.3730408 C58.2626864,79.7910136 57.6061143,80 57.1564172,80 C56.70672,80 56.0643547,79.7910136 55.2293211,79.3730408 L28.6381495,43.2601881 C28.5152016,41.7999725 28.6245349,40.8378951 28.9661497,40.3739561 C29.3077644,39.910017 30.1832893,39.5345813 31.5927242,39.2476489 L112.351097,29.2163009 Z" id="path-13"></path>
    </defs>
    <g id="暂无聊天记录" stroke="none" stroke-width="1" fill="none" fill-rule="evenodd">
        <g id="编组-5" transform="translate(0.000000, 33.000000)">
            <g id="编组-4" transform="translate(272.000000, 0.000000)">
                <g id="编组" transform="translate(0.000000, 127.000000)">
                    <g id="背景/1">
                        <path d="M16,0 L880,0 C888.836556,0 896,7.163444 896,16 L896,624 C896,632.836556 888.836556,640 880,640 L16,640 C7.163444,640 0,632.836556 0,624 L0,16 C0,7.163444 7.163444,0 16,0 Z" id="矩形" fill="#F1F4F8"></path>
                        <path d="M16,0 L880,0 C888.836556,0 896,7.163444 896,16 L896,64 L0,64 L0,16 C0,7.163444 7.163444,0 16,0 Z" id="矩形" fill="#DBDEE3"></path>
                        <circle id="椭圆形" fill="#FFFFFF" cx="48" cy="32" r="16"></circle>
                        <circle id="椭圆形备份" fill="#FFFFFF" cx="112" cy="32" r="16"></circle>
                        <circle id="椭圆形备份-2" fill="#FFFFFF" cx="176" cy="32" r="16"></circle>
                    </g>
                    <path d="M48,96 L848,96 C856.836556,96 864,103.163444 864,112 L864,592 C864,600.836556 856.836556,608 848,608 L48,608 C39.163444,608 32,600.836556 32,592 L32,112 C32,103.163444 39.163444,96 48,96 Z" id="矩形" fill="#FFFFFF"></path>
                    <g id="编组-3" transform="translate(32.000000, 96.000000)">
                        <path d="M16,0 L224,0 L224,512 L16,512 C7.163444,512 0,504.836556 0,496 L0,16 C0,7.163444 7.163444,0 16,0 Z" id="矩形" fill="#E2E5E9"></path>
                        <path d="M40,32 L56,32 C60.418278,32 64,35.581722 64,40 L64,56 C64,60.418278 60.418278,64 56,64 L40,64 C35.581722,64 32,60.418278 32,56 L32,40 C32,35.581722 35.581722,32 40,32 Z" id="矩形" fill="#FFFFFF"></path>
                        <path d="M104,32 L184,32 C188.418278,32 192,35.581722 192,40 L192,56 C192,60.418278 188.418278,64 184,64 L104,64 C99.581722,64 96,60.418278 96,56 L96,40 C96,35.581722 99.581722,32 104,32 Z" id="矩形备份" fill="#FFFFFF"></path>
                        <path d="M40,96 L152,96 C156.418278,96 160,99.581722 160,104 L160,120 C160,124.418278 156.418278,128 152,128 L40,128 C35.581722,128 32,124.418278 32,120 L32,104 C32,99.581722 35.581722,96 40,96 Z" id="矩形备份-2" fill="#FFFFFF"></path>
                        <path d="M40,160 L184,160 C188.418278,160 192,163.581722 192,168 L192,184 C192,188.418278 188.418278,192 184,192 L40,192 C35.581722,192 32,188.418278 32,184 L32,168 C32,163.581722 35.581722,160 40,160 Z" id="矩形备份-3" fill="#FFFFFF"></path>
                        <path d="M40,224 L120,224 C124.418278,224 128,227.581722 128,232 L128,248 C128,252.418278 124.418278,256 120,256 L40,256 C35.581722,256 32,252.418278 32,248 L32,232 C32,227.581722 35.581722,224 40,224 Z" id="矩形备份-4" fill="#FFFFFF"></path>
                        <path d="M40,288 L184,288 C188.418278,288 192,291.581722 192,296 L192,312 C192,316.418278 188.418278,320 184,320 L40,320 C35.581722,320 32,316.418278 32,312 L32,296 C32,291.581722 35.581722,288 40,288 Z" id="矩形备份-5" fill="#FFFFFF"></path>
                    </g>
                    <g id="矩形">
                        <use fill="currentColor" xlink:href="#path-1"></use>
                        <use fill-opacity="0.8" fill="#FFFFFF" xlink:href="#path-1"></use>
                    </g>
                    <g id="矩形">
                        <use fill="currentColor" xlink:href="#path-2"></use>
                        <use fill-opacity="0.8" fill="#FFFFFF" xlink:href="#path-2"></use>
                    </g>
                    <path d="M488,144 L520,144 C524.418278,144 528,147.581722 528,152 C528,156.418278 524.418278,160 520,160 L488,160 C483.581722,160 480,156.418278 480,152 C480,147.581722 483.581722,144 488,144 Z" id="矩形" fill="#FFFFFF"></path>
                    <path d="M456,240 L824,240 C828.418278,240 832,243.581722 832,248 C832,252.418278 828.418278,256 824,256 L456,256 C451.581722,256 448,252.418278 448,248 C448,243.581722 451.581722,240 456,240 Z" id="矩形备份-6" fill="#E9ECF0"></path>
                    <path d="M456,208 L648,208 C652.418278,208 656,211.581722 656,216 C656,220.418278 652.418278,224 648,224 L456,224 C451.581722,224 448,220.418278 448,216 C448,211.581722 451.581722,208 456,208 Z" id="矩形备份-13" fill="#E9ECF0"></path>
                    <path d="M832,286 C833.104569,286 834,286.895431 834,288 C834,289.104569 833.104569,290 832,290 L288,290 C286.895431,290 286,289.104569 286,288 C286,286.895431 286.895431,286 288,286 L832,286 Z" id="路径-3" fill="#F1F4F8" fill-rule="nonzero"></path>
                    <path d="M296,320.5 L344,320.5 C348.418278,320.5 352,324.081722 352,328.5 L352,376.5 C352,380.918278 348.418278,384.5 344,384.5 L296,384.5 C291.581722,384.5 288,380.918278 288,376.5 L288,328.5 C288,324.081722 291.581722,320.5 296,320.5 Z" id="矩形" fill="#E9ECF0"></path>
                    <path d="M808,320.5 L824,320.5 C828.418278,320.5 832,324.081722 832,328.5 L832,344.5 C832,348.918278 828.418278,352.5 824,352.5 L808,352.5 C803.581722,352.5 800,348.918278 800,344.5 L800,328.5 C800,324.081722 803.581722,320.5 808,320.5 Z" id="矩形备份-14" fill="#E9ECF0"></path>
                    <g id="矩形备份-15">
                        <use fill="#00B8CC" xlink:href="#path-3"></use>
                        <use fill-opacity="0.8" fill="#FFFFFF" xlink:href="#path-3"></use>
                    </g>
                    <path d="M808,416.5 L824,416.5 C828.418278,416.5 832,420.081722 832,424.5 L832,440.5 C832,444.918278 828.418278,448.5 824,448.5 L808,448.5 C803.581722,448.5 800,444.918278 800,440.5 L800,424.5 C800,420.081722 803.581722,416.5 808,416.5 Z" id="矩形备份-16" fill="#E9ECF0"></path>
                    <path d="M808,512.5 L824,512.5 C828.418278,512.5 832,516.081722 832,520.5 L832,536.5 C832,540.918278 828.418278,544.5 824,544.5 L808,544.5 C803.581722,544.5 800,540.918278 800,536.5 L800,520.5 C800,516.081722 803.581722,512.5 808,512.5 Z" id="矩形备份-17" fill="#E9ECF0"></path>
                    <path d="M296,416.5 L344,416.5 C348.418278,416.5 352,420.081722 352,424.5 L352,472.5 C352,476.918278 348.418278,480.5 344,480.5 L296,480.5 C291.581722,480.5 288,476.918278 288,472.5 L288,424.5 C288,420.081722 291.581722,416.5 296,416.5 Z" id="矩形备份-7" fill="#E9ECF0"></path>
                    <path d="M296,512.5 L344,512.5 C348.418278,512.5 352,516.081722 352,520.5 L352,568.5 C352,572.918278 348.418278,576.5 344,576.5 L296,576.5 C291.581722,576.5 288,572.918278 288,568.5 L288,520.5 C288,516.081722 291.581722,512.5 296,512.5 Z" id="矩形备份-10" fill="#E9ECF0"></path>
                    <path d="M392,320 L728,320 C732.418278,320 736,323.581722 736,328 L736,344 C736,348.418278 732.418278,352 728,352 L392,352 C387.581722,352 384,348.418278 384,344 L384,328 C384,323.581722 387.581722,320 392,320 Z" id="矩形" fill="#E9ECF0"></path>
                    <path d="M392,416 L728,416 C732.418278,416 736,419.581722 736,424 L736,440 C736,444.418278 732.418278,448 728,448 L392,448 C387.581722,448 384,444.418278 384,440 L384,424 C384,419.581722 387.581722,416 392,416 Z" id="矩形备份-8" fill="#E9ECF0"></path>
                    <path d="M392,512 L728,512 C732.418278,512 736,515.581722 736,520 L736,536 C736,540.418278 732.418278,544 728,544 L392,544 C387.581722,544 384,540.418278 384,536 L384,520 C384,515.581722 387.581722,512 392,512 Z" id="矩形备份-11" fill="#E9ECF0"></path>
                    <path d="M392,368 L557,368 C561.418278,368 565,371.581722 565,376 C565,380.418278 561.418278,384 557,384 L392,384 C387.581722,384 384,380.418278 384,376 C384,371.581722 387.581722,368 392,368 Z" id="矩形" fill="#F1F4F8"></path>
                    <path d="M392,464 L557,464 C561.418278,464 565,467.581722 565,472 C565,476.418278 561.418278,480 557,480 L392,480 C387.581722,480 384,476.418278 384,472 C384,467.581722 387.581722,464 392,464 Z" id="矩形备份-9" fill="#F1F4F8"></path>
                    <path d="M392,560 L557,560 C561.418278,560 565,563.581722 565,568 C565,572.418278 561.418278,576 557,576 L392,576 C387.581722,576 384,572.418278 384,568 C384,563.581722 387.581722,560 392,560 Z" id="矩形备份-12" fill="#F1F4F8"></path>
                    <g id="Icon/help" transform="translate(304.000000, 146.000000)">
                        <path d="M15.930736,15.3333334 C11.5497836,15.3333334 8.00519481,18.7833334 8.00519481,23 L7.96536793,69 C7.96536793,73.2166666 11.5497835,76.6666666 15.930736,76.6666666 L79.6536796,76.6666666 C84.034632,76.6666666 87.6190477,73.2166666 87.6190477,69 L87.6190477,23 C87.6190477,18.7833334 84.0346321,15.3333334 79.6536796,15.3333334 L15.930736,15.3333334 Z M79.6536796,30.6666666 L47.7922078,49.8333334 L15.930736,30.6666666 L15.930736,23 L47.7922078,42.1666666 L79.6536796,23 L79.6536796,30.6666666 Z" id="icon" fill="currentColor"></path>
                        <rect id="markunread" x="0" y="0" width="95.5844156" height="92"></rect>
                    </g>
                    <path d="M312,336 L328,336 C332.418278,336 336,339.581722 336,344 L336,360 C336,364.418278 332.418278,368 328,368 L312,368 C307.581722,368 304,364.418278 304,360 L304,344 C304,339.581722 307.581722,336 312,336 Z" id="矩形" fill="#DBDEE3"></path>
                    <path d="M312,432 L328,432 C332.418278,432 336,435.581722 336,440 L336,456 C336,460.418278 332.418278,464 328,464 L312,464 C307.581722,464 304,460.418278 304,456 L304,440 C304,435.581722 307.581722,432 312,432 Z" id="矩形备份-18" fill="#DBDEE3"></path>
                    <path d="M312,528 L328,528 C332.418278,528 336,531.581722 336,536 L336,552 C336,556.418278 332.418278,560 328,560 L312,560 C307.581722,560 304,556.418278 304,552 L304,536 C304,531.581722 307.581722,528 312,528 Z" id="矩形备份-19" fill="#DBDEE3"></path>
                </g>
                <g id="编组-2" transform="translate(560.000000, 47.000000)">
                    <g id="矩形">
                        <use fill="black" fill-opacity="1" filter="url(#filter-5)" xlink:href="#path-4"></use>
                        <use fill="#FFFFFF" fill-rule="evenodd" xlink:href="#path-4"></use>
                    </g>
                    <path d="M120,32 L216,32 C220.418278,32 224,35.581722 224,40 L224,72 C224,76.418278 220.418278,80 216,80 L120,80 C115.581722,80 112,76.418278 112,72 L112,40 C112,35.581722 115.581722,32 120,32 Z" id="矩形" fill="#F1F4F8"></path>
                    <path d="M152,48 L184,48 C188.418278,48 192,51.581722 192,56 C192,60.418278 188.418278,64 184,64 L152,64 C147.581722,64 144,60.418278 144,56 C144,51.581722 147.581722,48 152,48 Z" id="矩形" fill="#FFFFFF"></path>
                    <path d="M120,160 L248,160 C252.418278,160 256,163.581722 256,168 L256,200 C256,204.418278 252.418278,208 248,208 L120,208 C115.581722,208 112,204.418278 112,200 L112,168 C112,163.581722 115.581722,160 120,160 Z" id="矩形备份-21" fill="#F1F4F8"></path>
                    <g id="矩形备份-20">
                        <use fill="currentColor" xlink:href="#path-6"></use>
                        <use fill-opacity="0.8" fill="#FFFFFF" xlink:href="#path-6"></use>
                    </g>
                    <g id="矩形备份-23">
                        <use fill="currentColor" xlink:href="#path-7"></use>
                        <use fill-opacity="0.8" fill="#FFFFFF" xlink:href="#path-7"></use>
                    </g>
                    <polygon id="路径-12" fill="#F1F4F8" points="112 64 112 48 96 56"></polygon>
                    <polygon id="路径-12备份-2" fill="#F1F4F8" points="112 192 112 176 96 184"></polygon>
                    <g id="路径-12备份">
                        <use fill="currentColor" xlink:href="#path-8"></use>
                        <use fill-opacity="0.8" fill="#FFFFFF" xlink:href="#path-8"></use>
                    </g>
                    <g id="路径-12备份-3">
                        <use fill="currentColor" xlink:href="#path-9"></use>
                        <use fill-opacity="0.8" fill="#FFFFFF" xlink:href="#path-9"></use>
                    </g>
                    <path d="M40,32 L72,32 C76.418278,32 80,35.581722 80,40 L80,72 C80,76.418278 76.418278,80 72,80 L40,80 C35.581722,80 32,76.418278 32,72 L32,40 C32,35.581722 35.581722,32 40,32 Z" id="矩形" fill="#E9ECF0"></path>
                    <path d="M424,96 L456,96 C460.418278,96 464,99.581722 464,104 L464,136 C464,140.418278 460.418278,144 456,144 L424,144 C419.581722,144 416,140.418278 416,136 L416,104 C416,99.581722 419.581722,96 424,96 Z" id="矩形备份-26" fill="currentColor"></path>
                    <path d="M424,224 L456,224 C460.418278,224 464,227.581722 464,232 L464,264 C464,268.418278 460.418278,272 456,272 L424,272 C419.581722,272 416,268.418278 416,264 L416,232 C416,227.581722 419.581722,224 424,224 Z" id="矩形备份-27" fill="currentColor"></path>
                    <path d="M40,160 L72,160 C76.418278,160 80,163.581722 80,168 L80,200 C80,204.418278 76.418278,208 72,208 L40,208 C35.581722,208 32,204.418278 32,200 L32,168 C32,163.581722 35.581722,160 40,160 Z" id="矩形备份-25" fill="#E9ECF0"></path>
                    <path d="M152,176 L216,176 C220.418278,176 224,179.581722 224,184 C224,188.418278 220.418278,192 216,192 L152,192 C147.581722,192 144,188.418278 144,184 C144,179.581722 147.581722,176 152,176 Z" id="矩形备份-22" fill="#FFFFFF"></path>
                    <path d="M280,112 L344,112 C348.418278,112 352,115.581722 352,120 C352,124.418278 348.418278,128 344,128 L280,128 C275.581722,128 272,124.418278 272,120 C272,115.581722 275.581722,112 280,112 Z" id="矩形备份-24" fill="#FFFFFF"></path>
                    <path d="M280,240 L344,240 C348.418278,240 352,243.581722 352,248 C352,252.418278 348.418278,256 344,256 L280,256 C275.581722,256 272,252.418278 272,248 C272,243.581722 275.581722,240 280,240 Z" id="矩形备份-28" fill="#FFFFFF"></path>
                    <path d="M280,272 L312,272 C316.418278,272 320,275.581722 320,280 C320,284.418278 316.418278,288 312,288 L280,288 C275.581722,288 272,284.418278 272,280 C272,275.581722 275.581722,272 280,272 Z" id="矩形备份-29" fill="#FFFFFF"></path>
                </g>
                <g id="元素/纸飞机/主色备份" transform="translate(1007.647335, 0.000000)">
                    <g id="路径-14">
                        <use fill="currentColor" xlink:href="#path-10"></use>
                        <use fill-opacity="0.4" fill="#FFFFFF" xlink:href="#path-10"></use>
                    </g>
                    <g id="路径-5">
                        <use fill="currentColor" xlink:href="#path-11"></use>
                        <use fill-opacity="0.2" fill="#FFFFFF" xlink:href="#path-11"></use>
                    </g>
                    <g id="路径-12">
                        <use fill="currentColor" xlink:href="#shpath-12"></use>
                        <use fill-opacity="0.2" fill="#000000" xlink:href="#shpath-12"></use>
                    </g>
                    <g id="路径-13">
                        <use fill="currentColor" xlink:href="#path-13"></use>
                        <use fill-opacity="0.2" fill="#FFFFFF" xlink:href="#path-13"></use>
                    </g>
                </g>
                <path d="M934.932306,126.71594 C935.475944,124.679897 936.436198,122.215555 937.723005,119.674248 L934.154415,117.86727 C932.746132,120.648479 931.685344,123.370829 931.067694,125.68406 L934.932306,126.71594 Z M941.725835,113.095527 C943.219518,111.017749 944.875573,109.048422 946.684695,107.226052 L943.845968,104.407962 C941.884663,106.38363 940.092579,108.514719 938.477981,110.760694 L941.725835,113.095527 Z M952.522182,102.268057 C954.599215,100.795745 956.800682,99.5142071 959.125796,98.4401452 L957.448363,94.8088618 C954.897388,95.9872574 952.483563,97.3924159 950.208983,99.0047591 L952.522182,102.268057 Z M966.32196,95.8988538 C969.215559,95.1809553 971.6151,94.9866409 973.498808,95.2504833 L974.053654,91.2891519 C971.619793,90.9482522 968.717357,91.1832909 965.358766,92.0165533 L966.32196,95.8988538 Z M977.905573,98.4147 C978.386598,100.166598 977.782292,102.441513 976.358632,104.130591 L979.417136,106.708488 C981.651408,104.057673 982.611079,100.444985 981.762814,97.3556014 L977.905573,98.4147 Z M971.063345,106.183074 C970.901994,106.151821 970.739322,106.113103 970.575365,106.066763 C968.423886,105.452853 966.895551,104.302347 965.952334,102.697593 L962.503888,104.724467 C963.977926,107.23234 966.355866,109.022416 969.482625,109.914606 C969.759,109.992726 970.030847,110.057428 970.302691,110.110084 L971.063345,106.183074 Z M964.979549,96.2166274 C965.309496,94.0075298 966.180058,91.68174 967.523066,89.4697442 L964.103923,87.39382 C962.49246,90.0479743 961.434278,92.8750083 961.023432,95.6257481 L964.979549,96.2166274 Z M972.319158,83.8697505 C972.96715,83.3185226 973.64685,82.8000156 974.355577,82.3174093 C975.617723,81.4579531 977.039002,80.5827585 978.605227,79.6967526 L976.635737,76.215214 C974.977648,77.1531871 973.463127,78.0857983 972.104193,79.0111622 C971.277098,79.5743713 970.483802,80.1795344 969.727379,80.8230005 L972.319158,83.8697505 Z M985.59839,76.1130355 C987.892766,75.0352676 990.32352,73.9723384 992.834567,72.9414839 L991.315482,69.2411622 C988.745623,70.2961605 986.254708,71.3853974 983.897707,72.4925832 L985.59839,76.1130355 Z M998.849668,66.329682 L1000.21425,70.0897247 L1001.3697,69.6747692 C1003.07874,69.067561 1004.66961,68.5318406 1006.01411,68.1077784 L1004.81092,64.293026 L1003.84912,64.6015486 C1002.35626,65.0879004 1000.64719,65.6773328 998.849668,66.329682 Z" id="路径" fill="currentColor" fill-rule="nonzero"></path>
            </g>
        </g>
    </g>
</svg>
