<?xml version="1.0" encoding="UTF-8"?>
<svg width="202px" height="116px" viewBox="0 0 202 116" version="1.1" xmlns="http://www.w3.org/2000/svg" xmlns:xlink="http://www.w3.org/1999/xlink">
    <title>编组</title>
    <defs>
        <path d="M2,0 L70,0 C71.1045695,0 72,0.8954305 72,2 L72,50 C72,51.1045695 71.1045695,52 70,52 L2,52 C0.8954305,52 0,51.1045695 0,50 L0,2 C0,0.8954305 0.8954305,0 2,0 Z" id="path-1"></path>
        <filter x="-77.8%" y="-76.9%" width="255.6%" height="315.4%" filterUnits="objectBoundingBox" id="filter-2">
            <feOffset dx="0" dy="16" in="SourceAlpha" result="shadowOffsetOuter1"></feOffset>
            <feGaussianBlur stdDeviation="16" in="shadowOffsetOuter1" result="shadowBlurOuter1"></feGaussianBlur>
            <feColorMatrix values="0 0 0 0 0.11372549   0 0 0 0 0.129411765   0 0 0 0 0.160784314  0 0 0 0.06 0" type="matrix" in="shadowBlurOuter1" result="shadowMatrixOuter1"></feColorMatrix>
            <feOffset dx="0" dy="8" in="SourceAlpha" result="shadowOffsetOuter2"></feOffset>
            <feGaussianBlur stdDeviation="8" in="shadowOffsetOuter2" result="shadowBlurOuter2"></feGaussianBlur>
            <feColorMatrix values="0 0 0 0 0.11372549   0 0 0 0 0.129411765   0 0 0 0 0.160784314  0 0 0 0.06 0" type="matrix" in="shadowBlurOuter2" result="shadowMatrixOuter2"></feColorMatrix>
            <feOffset dx="0" dy="4" in="SourceAlpha" result="shadowOffsetOuter3"></feOffset>
            <feGaussianBlur stdDeviation="4" in="shadowOffsetOuter3" result="shadowBlurOuter3"></feGaussianBlur>
            <feColorMatrix values="0 0 0 0 0.11372549   0 0 0 0 0.129411765   0 0 0 0 0.160784314  0 0 0 0.06 0" type="matrix" in="shadowBlurOuter3" result="shadowMatrixOuter3"></feColorMatrix>
            <feMerge>
                <feMergeNode in="shadowMatrixOuter1"></feMergeNode>
                <feMergeNode in="shadowMatrixOuter2"></feMergeNode>
                <feMergeNode in="shadowMatrixOuter3"></feMergeNode>
            </feMerge>
        </filter>
    </defs>
    <g id="库存配置" stroke="none" stroke-width="1" fill="none" fill-rule="evenodd">
        <g id="03.新建-详情1空" transform="translate(-979.000000, -551.000000)">
            <g id="Modal/Draw/Data" transform="translate(698.000000, 0.000000)">
                <g id="编组" transform="translate(281.000000, 567.000000)">
                    <g id="背景/3" transform="translate(34.000000, 14.000000)">
                        <g id="背景/1">
                            <path d="M2,0 L110,0 C111.104569,0 112,0.8954305 112,2 L112,78 C112,79.1045695 111.104569,80 110,80 L2,80 C0.8954305,80 0,79.1045695 0,78 L0,2 C0,0.8954305 0.8954305,0 2,0 Z" id="矩形" fill="#F1F4F8"></path>
                            <path d="M2,0 L110,0 C111.104569,0 112,0.8954305 112,2 L112,8 L0,8 L0,2 C0,0.8954305 0.8954305,0 2,0 Z" id="矩形" fill="#DBDEE3"></path>
                            <circle id="椭圆形" fill="#FFFFFF" cx="6" cy="4" r="2"></circle>
                            <circle id="椭圆形备份" fill="#FFFFFF" cx="14" cy="4" r="2"></circle>
                            <circle id="椭圆形备份-2" fill="#FFFFFF" cx="22" cy="4" r="2"></circle>
                        </g>
                        <path d="M6,12 L106,12 C107.104569,12 108,12.8954305 108,14 L108,74 C108,75.1045695 107.104569,76 106,76 L6,76 C4.8954305,76 4,75.1045695 4,74 L4,14 C4,12.8954305 4.8954305,12 6,12 Z" id="矩形" fill="#FFFFFF"></path>
                        <path d="M6,12 L32,12 L32,76 L6,76 C4.8954305,76 4,75.1045695 4,74 L4,14 C4,12.8954305 4.8954305,12 6,12 Z" id="矩形" fill="#E2E5E9"></path>
                        <path d="M9,16 L11,16 C11.5522847,16 12,16.4477153 12,17 L12,19 C12,19.5522847 11.5522847,20 11,20 L9,20 C8.44771525,20 8,19.5522847 8,19 L8,17 C8,16.4477153 8.44771525,16 9,16 Z" id="矩形" fill="#FFFFFF"></path>
                        <path d="M17,16 L27,16 C27.5522847,16 28,16.4477153 28,17 L28,19 C28,19.5522847 27.5522847,20 27,20 L17,20 C16.4477153,20 16,19.5522847 16,19 L16,17 C16,16.4477153 16.4477153,16 17,16 Z" id="矩形备份" fill="#FFFFFF"></path>
                        <path d="M9,24 L23,24 C23.5522847,24 24,24.4477153 24,25 L24,27 C24,27.5522847 23.5522847,28 23,28 L9,28 C8.44771525,28 8,27.5522847 8,27 L8,25 C8,24.4477153 8.44771525,24 9,24 Z" id="矩形备份-2" fill="#FFFFFF"></path>
                        <path d="M9,32 L27,32 C27.5522847,32 28,32.4477153 28,33 L28,35 C28,35.5522847 27.5522847,36 27,36 L9,36 C8.44771525,36 8,35.5522847 8,35 L8,33 C8,32.4477153 8.44771525,32 9,32 Z" id="矩形备份-3" fill="#FFFFFF"></path>
                        <path d="M9,40 L19,40 C19.5522847,40 20,40.4477153 20,41 L20,43 C20,43.5522847 19.5522847,44 19,44 L9,44 C8.44771525,44 8,43.5522847 8,43 L8,41 C8,40.4477153 8.44771525,40 9,40 Z" id="矩形备份-4" fill="#FFFFFF"></path>
                        <path d="M9,48 L27,48 C27.5522847,48 28,48.4477153 28,49 L28,51 C28,51.5522847 27.5522847,52 27,52 L9,52 C8.44771525,52 8,51.5522847 8,51 L8,49 C8,48.4477153 8.44771525,48 9,48 Z" id="矩形备份-5" fill="#FFFFFF"></path>
                        <path d="M37,16 L51,16 C51.5522847,16 52,16.4477153 52,17 L52,31 C52,31.5522847 51.5522847,32 51,32 L37,32 C36.4477153,32 36,31.5522847 36,31 L36,17 C36,16.4477153 36.4477153,16 37,16 Z" id="矩形" fill="#F1F4F8"></path>
                        <path d="M57,16 L69,16 C69.5522847,16 70,16.4477153 70,17 L70,21 C70,21.5522847 69.5522847,22 69,22 L57,22 C56.4477153,22 56,21.5522847 56,21 L56,17 C56,16.4477153 56.4477153,16 57,16 Z" id="矩形" fill="#E9ECF0"></path>
                        <path d="M57,30 L103,30 C103.552285,30 104,30.4477153 104,31 C104,31.5522847 103.552285,32 103,32 L57,32 C56.4477153,32 56,31.5522847 56,31 C56,30.4477153 56.4477153,30 57,30 Z" id="矩形备份-6" fill="#F1F4F8"></path>
                        <path d="M57,26 L85,26 C85.5522847,26 86,26.4477153 86,27 C86,27.5522847 85.5522847,28 85,28 L57,28 C56.4477153,28 56,27.5522847 56,27 C56,26.4477153 56.4477153,26 57,26 Z" id="矩形备份-7" fill="#F1F4F8"></path>
                        <path d="M61,18 L65,18 C65.5522847,18 66,18.4477153 66,19 C66,19.5522847 65.5522847,20 65,20 L61,20 C60.4477153,20 60,19.5522847 60,19 C60,18.4477153 60.4477153,18 61,18 Z" id="矩形" fill="#FFFFFF"></path>
                        <path d="M104,37.75 C104.138071,37.75 104.25,37.9738576 104.25,38.25 C104.25,38.5261424 104.138071,38.75 104,38.75 L36,38.75 C35.8619288,38.75 35.75,38.5261424 35.75,38.25 C35.75,37.9738576 35.8619288,37.75 36,37.75 L104,37.75 Z" id="路径-9" fill="#F1F4F8" fill-rule="nonzero"></path>
                        <path d="M97.048913,44 L103.048913,44 C103.601198,44 104.048913,44.4477153 104.048913,45 L104.048913,47 C104.048913,47.5522847 103.601198,48 103.048913,48 L97.048913,48 C96.4966283,48 96.048913,47.5522847 96.048913,47 L96.048913,45 C96.048913,44.4477153 96.4966283,44 97.048913,44 Z" id="矩形" fill="#F1F4F8"></path>
                        <path d="M97.048913,52 L103.048913,52 C103.601198,52 104.048913,52.4477153 104.048913,53 L104.048913,55 C104.048913,55.5522847 103.601198,56 103.048913,56 L97.048913,56 C96.4966283,56 96.048913,55.5522847 96.048913,55 L96.048913,53 C96.048913,52.4477153 96.4966283,52 97.048913,52 Z" id="矩形备份-8" fill="#F1F4F8"></path>
                        <path d="M97.048913,60 L103.048913,60 C103.601198,60 104.048913,60.4477153 104.048913,61 L104.048913,63 C104.048913,63.5522847 103.601198,64 103.048913,64 L97.048913,64 C96.4966283,64 96.048913,63.5522847 96.048913,63 L96.048913,61 C96.048913,60.4477153 96.4966283,60 97.048913,60 Z" id="矩形备份-9" fill="#F1F4F8"></path>
                        <path d="M97.048913,68 L103.048913,68 C103.601198,68 104.048913,68.4477153 104.048913,69 L104.048913,71 C104.048913,71.5522847 103.601198,72 103.048913,72 L97.048913,72 C96.4966283,72 96.048913,71.5522847 96.048913,71 L96.048913,69 C96.048913,68.4477153 96.4966283,68 97.048913,68 Z" id="矩形备份-10" fill="#F1F4F8"></path>
                        <path d="M45,44 L87,44 C87.5522847,44 88,44.4477153 88,45 L88,47 C88,47.5522847 87.5522847,48 87,48 L45,48 C44.4477153,48 44,47.5522847 44,47 L44,45 C44,44.4477153 44.4477153,44 45,44 Z" id="矩形" fill="#F1F4F8"></path>
                        <path d="M38,44 C39.1045695,44 40,44.8954305 40,46 C40,47.1045695 39.1045695,48 38,48 C36.8954305,48 36,47.1045695 36,46 C36,44.8954305 36.8954305,44 38,44 Z" id="矩形备份-14" fill="#FDEEEA"></path>
                        <path d="M45,52 L67,52 C67.5522847,52 68,52.4477153 68,53 L68,55 C68,55.5522847 67.5522847,56 67,56 L45,56 C44.4477153,56 44,55.5522847 44,55 L44,53 C44,52.4477153 44.4477153,52 45,52 Z" id="矩形备份-11" fill="#F1F4F8"></path>
                        <path d="M38,52 C39.1045695,52 40,52.8954305 40,54 C40,55.1045695 39.1045695,56 38,56 C36.8954305,56 36,55.1045695 36,54 C36,52.8954305 36.8954305,52 38,52 Z" id="矩形备份-15" fill="#E6F2FE"></path>
                        <path d="M45,60 L85,60 C85.5522847,60 86,60.4477153 86,61 L86,63 C86,63.5522847 85.5522847,64 85,64 L45,64 C44.4477153,64 44,63.5522847 44,63 L44,61 C44,60.4477153 44.4477153,60 45,60 Z" id="矩形备份-12" fill="#F1F4F8"></path>
                        <path d="M38,60 C39.1045695,60 40,60.8954305 40,62 C40,63.1045695 39.1045695,64 38,64 C36.8954305,64 36,63.1045695 36,62 C36,60.8954305 36.8954305,60 38,60 Z" id="矩形备份-16" fill="#ECF7F2"></path>
                        <path d="M45,68 L75,68 C75.5522847,68 76,68.4477153 76,69 L76,71 C76,71.5522847 75.5522847,72 75,72 L45,72 C44.4477153,72 44,71.5522847 44,71 L44,69 C44,68.4477153 44.4477153,68 45,68 Z" id="矩形备份-13" fill="#F1F4F8"></path>
                        <path d="M38,68 C39.1045695,68 40,68.8954305 40,70 C40,71.1045695 39.1045695,72 38,72 C36.8954305,72 36,71.1045695 36,70 C36,68.8954305 36.8954305,68 38,68 Z" id="矩形备份-17" fill="#FDF2E8"></path>
                        <g id="Icon/article" transform="translate(38.000000, 18.000000)">
                            <path d="M9.5,1.5 L2.5,1.5 C1.95,1.5 1.5,1.95 1.5,2.5 L1.5,9.5 C1.5,10.05 1.95,10.5 2.5,10.5 L9.5,10.5 C10.05,10.5 10.5,10.05 10.5,9.5 L10.5,2.5 C10.5,1.95 10.05,1.5 9.5,1.5 Z M7,8.5 L3.5,8.5 L3.5,7.5 L7,7.5 L7,8.5 Z M8.5,6.5 L3.5,6.5 L3.5,5.5 L8.5,5.5 L8.5,6.5 Z M8.5,4.5 L3.5,4.5 L3.5,3.5 L8.5,3.5 L8.5,4.5 Z" id="icon" fill="#DBDEE3"></path>
                            <rect id="article" x="0" y="0" width="12" height="12"></rect>
                        </g>
                    </g>
                    <g id="前景/结算策略无配置" transform="translate(98.000000, 0.000000)">
                        <g id="矩形">
                            <use fill="black" fill-opacity="1" filter="url(#filter-2)" xlink:href="#path-1"></use>
                            <use fill="#FFFFFF" fill-rule="evenodd" xlink:href="#path-1"></use>
                        </g>
                        <path d="M5,4 L67,4 C67.5522847,4 68,4.44771525 68,5 L68,15 C68,15.5522847 67.5522847,16 67,16 L5,16 C4.44771525,16 4,15.5522847 4,15 L4,5 C4,4.44771525 4.44771525,4 5,4 Z" id="矩形" fill="#F1F4F8"></path>
                        <path d="M7,6 L13,6 C13.5522847,6 14,6.44771525 14,7 L14,13 C14,13.5522847 13.5522847,14 13,14 L7,14 C6.44771525,14 6,13.5522847 6,13 L6,7 C6,6.44771525 6.44771525,6 7,6 Z" id="矩形" fill="#00B8CC"></path>
                        <path d="M7,22 L13,22 C13.5522847,22 14,22.4477153 14,23 L14,29 C14,29.5522847 13.5522847,30 13,30 L7,30 C6.44771525,30 6,29.5522847 6,29 L6,23 C6,22.4477153 6.44771525,22 7,22 Z" id="矩形备份-3" fill="#E9ECF0"></path>
                        <path d="M19,6 L47,6 C47.5522847,6 48,6.44771525 48,7 L48,9 C48,9.55228475 47.5522847,10 47,10 L19,10 C18.4477153,10 18,9.55228475 18,9 L18,7 C18,6.44771525 18.4477153,6 19,6 Z" id="矩形" fill="#E2E5E9"></path>
                        <path d="M19,22 L47,22 C47.5522847,22 48,22.4477153 48,23 L48,25 C48,25.5522847 47.5522847,26 47,26 L19,26 C18.4477153,26 18,25.5522847 18,25 L18,23 C18,22.4477153 18.4477153,22 19,22 Z" id="矩形备份-4" fill="#E9ECF0"></path>
                        <path d="M19,12 L33,12 C33.5522847,12 34,12.4477153 34,13 C34,13.5522847 33.5522847,14 33,14 L19,14 C18.4477153,14 18,13.5522847 18,13 C18,12.4477153 18.4477153,12 19,12 Z" id="矩形备份" fill="#E9ECF0"></path>
                        <path d="M19,28 L33,28 C33.5522847,28 34,28.4477153 34,29 C34,29.5522847 33.5522847,30 33,30 L19,30 C18.4477153,30 18,29.5522847 18,29 C18,28.4477153 18.4477153,28 19,28 Z" id="矩形备份-5" fill="#F1F4F8"></path>
                        <path d="M60,8 L64,8 C65.1045695,8 66,8.8954305 66,10 C66,11.1045695 65.1045695,12 64,12 L60,12 C58.8954305,12 58,11.1045695 58,10 C58,8.8954305 58.8954305,8 60,8 Z" id="矩形" fill="#00B8CC"></path>
                        <path d="M60,24 L64,24 C65.1045695,24 66,24.8954305 66,26 C66,27.1045695 65.1045695,28 64,28 L60,28 C58.8954305,28 58,27.1045695 58,26 C58,24.8954305 58.8954305,24 60,24 Z" id="矩形备份-6" fill="#DBDEE3"></path>
                        <path d="M60,40 L64,40 C65.1045695,40 66,40.8954305 66,42 C66,43.1045695 65.1045695,44 64,44 L60,44 C58.8954305,44 58,43.1045695 58,42 C58,40.8954305 58.8954305,40 60,40 Z" id="矩形备份-7" fill="#DBDEE3"></path>
                        <path d="M7,38 L13,38 C13.5522847,38 14,38.4477153 14,39 L14,45 C14,45.5522847 13.5522847,46 13,46 L7,46 C6.44771525,46 6,45.5522847 6,45 L6,39 C6,38.4477153 6.44771525,38 7,38 Z" id="矩形备份-10" fill="#E9ECF0"></path>
                        <path d="M19,38 L47,38 C47.5522847,38 48,38.4477153 48,39 L48,41 C48,41.5522847 47.5522847,42 47,42 L19,42 C18.4477153,42 18,41.5522847 18,41 L18,39 C18,38.4477153 18.4477153,38 19,38 Z" id="矩形备份-9" fill="#E9ECF0"></path>
                        <path d="M19,44 L33,44 C33.5522847,44 34,44.4477153 34,45 C34,45.5522847 33.5522847,46 33,46 L19,46 C18.4477153,46 18,45.5522847 18,45 C18,44.4477153 18.4477153,44 19,44 Z" id="矩形备份-8" fill="#F1F4F8"></path>
                        <circle id="椭圆形" fill="#FFFFFF" cx="64" cy="10" r="1.625"></circle>
                        <circle id="椭圆形备份" fill="#FFFFFF" cx="60" cy="26" r="1.625"></circle>
                        <circle id="椭圆形备份-2" fill="#FFFFFF" cx="60" cy="42" r="1.625"></circle>
                        <path d="M9,24 L11,24 C11.5522847,24 12,24.4477153 12,25 L12,27 C12,27.5522847 11.5522847,28 11,28 L9,28 C8.44771525,28 8,27.5522847 8,27 L8,25 C8,24.4477153 8.44771525,24 9,24 Z" id="矩形" fill="#DBDEE3"></path>
                        <path d="M9,40 L11,40 C11.5522847,40 12,40.4477153 12,41 L12,43 C12,43.5522847 11.5522847,44 11,44 L9,44 C8.44771525,44 8,43.5522847 8,43 L8,41 C8,40.4477153 8.44771525,40 9,40 Z" id="矩形备份-2" fill="#DBDEE3"></path>
                        <path d="M11.9128594,7.95054059 C12.0869484,7.73618665 12.4018437,7.70354551 12.6161976,7.87763457 C12.8305516,8.05172363 12.8631927,8.36661889 12.6891036,8.58097283 L9.50327838,12.5036444 L7.57287826,10.8098181 C7.36531199,10.6276894 7.34469074,10.3117792 7.52681942,10.1042129 C7.7089481,9.89664667 8.02485827,9.87602543 8.23242454,10.0581541 L9.381875,11.06675 L11.9128594,7.95054059 Z" id="路径-11" fill="#FFFFFF" fill-rule="nonzero"></path>
                    </g>
                </g>
            </g>
        </g>
    </g>
</svg>