<?xml version="1.0" encoding="UTF-8"?>
<svg width="1440px" height="798px" viewBox="0 0 1440 798" version="1.1" xmlns="http://www.w3.org/2000/svg" xmlns:xlink="http://www.w3.org/1999/xlink">
    <title>编组 4</title>
    <defs>
        <path d="M296,128 L392,128 C396.418278,128 400,131.581722 400,136 L400,168 C400,172.418278 396.418278,176 392,176 L296,176 C291.581722,176 288,172.418278 288,168 L288,136 C288,131.581722 291.581722,128 296,128 Z" id="path-1"></path>
        <path d="M808,368 L824,368 C828.418278,368 832,371.581722 832,376 L832,392 C832,396.418278 828.418278,400 824,400 L808,400 C803.581722,400 800,396.418278 800,392 L800,376 C800,371.581722 803.581722,368 808,368 Z" id="path-2"></path>
        <path d="M808,448 L824,448 C828.418278,448 832,451.581722 832,456 L832,472 C832,476.418278 828.418278,480 824,480 L808,480 C803.581722,480 800,476.418278 800,472 L800,456 C800,451.581722 803.581722,448 808,448 Z" id="path-3"></path>
        <path d="M760,368 L776,368 C780.418278,368 784,371.581722 784,376 L784,392 C784,396.418278 780.418278,400 776,400 L760,400 C755.581722,400 752,396.418278 752,392 L752,376 C752,371.581722 755.581722,368 760,368 Z" id="path-4"></path>
        <path d="M760,448 L776,448 C780.418278,448 784,451.581722 784,456 L784,472 C784,476.418278 780.418278,480 776,480 L760,480 C755.581722,480 752,476.418278 752,472 L752,456 C752,451.581722 755.581722,448 760,448 Z" id="path-5"></path>
        <path d="M712,368 L728,368 C732.418278,368 736,371.581722 736,376 L736,392 C736,396.418278 732.418278,400 728,400 L712,400 C707.581722,400 704,396.418278 704,392 L704,376 C704,371.581722 707.581722,368 712,368 Z" id="path-6"></path>
        <path d="M712,448 L728,448 C732.418278,448 736,451.581722 736,456 L736,472 C736,476.418278 732.418278,480 728,480 L712,480 C707.581722,480 704,476.418278 704,472 L704,456 C704,451.581722 707.581722,448 712,448 Z" id="path-7"></path>
        <path d="M808,528 L824,528 C828.418278,528 832,531.581722 832,536 L832,552 C832,556.418278 828.418278,560 824,560 L808,560 C803.581722,560 800,556.418278 800,552 L800,536 C800,531.581722 803.581722,528 808,528 Z" id="path-8"></path>
        <path d="M760,528 L776,528 C780.418278,528 784,531.581722 784,536 L784,552 C784,556.418278 780.418278,560 776,560 L760,560 C755.581722,560 752,556.418278 752,552 L752,536 C752,531.581722 755.581722,528 760,528 Z" id="path-9"></path>
        <path d="M712,528 L728,528 C732.418278,528 736,531.581722 736,536 L736,552 C736,556.418278 732.418278,560 728,560 L712,560 C707.581722,560 704,556.418278 704,552 L704,536 C704,531.581722 707.581722,528 712,528 Z" id="path-10"></path>
        <path d="M640,31 L1040,31 C1048.83656,31 1056,38.163444 1056,47 L1056,335 C1056,343.836556 1048.83656,351 1040,351 L640,351 C631.163444,351 624,343.836556 624,335 L624,47 C624,38.163444 631.163444,31 640,31 Z" id="path-11"></path>
        <filter x="-13.0%" y="-12.5%" width="125.9%" height="135.0%" filterUnits="objectBoundingBox" id="filter-12">
            <feOffset dx="0" dy="16" in="SourceAlpha" result="shadowOffsetOuter1"></feOffset>
            <feGaussianBlur stdDeviation="16" in="shadowOffsetOuter1" result="shadowBlurOuter1"></feGaussianBlur>
            <feColorMatrix values="0 0 0 0 0.11372549   0 0 0 0 0.129411765   0 0 0 0 0.160784314  0 0 0 0.08 0" type="matrix" in="shadowBlurOuter1" result="shadowMatrixOuter1"></feColorMatrix>
            <feOffset dx="0" dy="10" in="SourceAlpha" result="shadowOffsetOuter2"></feOffset>
            <feGaussianBlur stdDeviation="10" in="shadowOffsetOuter2" result="shadowBlurOuter2"></feGaussianBlur>
            <feColorMatrix values="0 0 0 0 0.11372549   0 0 0 0 0.129411765   0 0 0 0 0.160784314  0 0 0 0.12 0" type="matrix" in="shadowBlurOuter2" result="shadowMatrixOuter2"></feColorMatrix>
            <feMerge>
                <feMergeNode in="shadowMatrixOuter1"></feMergeNode>
                <feMergeNode in="shadowMatrixOuter2"></feMergeNode>
            </feMerge>
        </filter>
        <polygon id="path-13" points="800 79 832 79 832 237 800 237"></polygon>
        <rect id="path-14" x="0" y="0" width="16" height="16" rx="8"></rect>
        <path d="M7.86073531,47.2727273 L2.26563581,56.7564938 C1.91765475,57.3463309 1.92053699,58.0825033 2.27000223,58.668511 L2.29381332,58.7073525 C2.5412697,59.1001632 3.06300377,59.3010557 3.85901554,59.3100301 L3.915781,59.3103448 L6.63532188,59.3103448 C7.44942479,59.3103448 8.26068845,59.2127235 9.05231177,59.0195026 L57.1786834,47.2727273 L7.86073531,47.2727273 Z" id="path-15"></path>
        <path d="M19.7177776,29.2163009 L112.351097,29.2163009 L3.05580498,0.0799860016 C1.90048315,-0.228004265 0.70112429,0.37680514 0.240675316,1.49250455 L0.224160716,1.53355003 C-0.193202055,2.5980223 -0.019925416,3.80807693 0.678637988,4.70733367 L19.7177776,29.2163009 Z" id="path-16"></path>
        <polygon id="path-17" points="112.351097 29.2163009 19.7243745 29.2163009 7.89968652 47.2727273 33.5198439 47.2727273"></polygon>
        <path d="M112.351097,29.2163009 L59.1261336,79.3730408 C58.2626864,79.7910136 57.6061143,80 57.1564172,80 C56.70672,80 56.0643547,79.7910136 55.2293211,79.3730408 L28.6381495,43.2601881 C28.5152016,41.7999725 28.6245349,40.8378951 28.9661497,40.3739561 C29.3077644,39.910017 30.1832893,39.5345813 31.5927242,39.2476489 L112.351097,29.2163009 Z" id="path-18"></path>
    </defs>
    <g id="库存查询&amp;库存管理" stroke="none" stroke-width="1" fill="none" fill-rule="evenodd">
        <g id="01.查询" transform="translate(-79.000000, -26.000000)">
            <g id="编组-5" transform="translate(29.000000, 26.000000)">
                <g id="编组-4" transform="translate(50.000000, 0.000000)">
                    <rect id="矩形备份-30" x="0" y="0" width="1440" height="798"></rect>
                    <g id="编组-3" transform="translate(0.000000, 30.000000)">
                        <g id="编组-2" transform="translate(272.000000, 0.000000)">
                            <g id="背景/7" transform="translate(0.000000, 127.000000)">
                                <g id="编组备份">
                                    <g id="背景/1">
                                        <path d="M16,0 L880,0 C888.836556,0 896,7.163444 896,16 L896,624 C896,632.836556 888.836556,640 880,640 L16,640 C7.163444,640 0,632.836556 0,624 L0,16 C0,7.163444 7.163444,0 16,0 Z" id="矩形" fill="#F1F4F8"></path>
                                        <path d="M16,0 L880,0 C888.836556,0 896,7.163444 896,16 L896,64 L0,64 L0,16 C0,7.163444 7.163444,0 16,0 Z" id="矩形" fill="#DBDEE3"></path>
                                        <circle id="椭圆形" fill="#FFFFFF" cx="48" cy="32" r="16"></circle>
                                        <circle id="椭圆形备份" fill="#FFFFFF" cx="112" cy="32" r="16"></circle>
                                        <circle id="椭圆形备份-2" fill="#FFFFFF" cx="176" cy="32" r="16"></circle>
                                    </g>
                                    <path d="M48,96 L848,96 C856.836556,96 864,103.163444 864,112 L864,592 C864,600.836556 856.836556,608 848,608 L48,608 C39.163444,608 32,600.836556 32,592 L32,112 C32,103.163444 39.163444,96 48,96 Z" id="矩形" fill="#FFFFFF"></path>
                                    <path d="M48,96 L256,96 L256,608 L48,608 C39.163444,608 32,600.836556 32,592 L32,112 C32,103.163444 39.163444,96 48,96 Z" id="矩形" fill="#E2E5E9"></path>
                                    <path d="M72,128 L88,128 C92.418278,128 96,131.581722 96,136 L96,152 C96,156.418278 92.418278,160 88,160 L72,160 C67.581722,160 64,156.418278 64,152 L64,136 C64,131.581722 67.581722,128 72,128 Z" id="矩形" fill="#FFFFFF"></path>
                                    <path d="M136,128 L216,128 C220.418278,128 224,131.581722 224,136 L224,152 C224,156.418278 220.418278,160 216,160 L136,160 C131.581722,160 128,156.418278 128,152 L128,136 C128,131.581722 131.581722,128 136,128 Z" id="矩形备份" fill="#FFFFFF"></path>
                                    <path d="M72,192 L184,192 C188.418278,192 192,195.581722 192,200 L192,216 C192,220.418278 188.418278,224 184,224 L72,224 C67.581722,224 64,220.418278 64,216 L64,200 C64,195.581722 67.581722,192 72,192 Z" id="矩形备份-2" fill="#FFFFFF"></path>
                                    <path d="M72,256 L216,256 C220.418278,256 224,259.581722 224,264 L224,280 C224,284.418278 220.418278,288 216,288 L72,288 C67.581722,288 64,284.418278 64,280 L64,264 C64,259.581722 67.581722,256 72,256 Z" id="矩形备份-3" fill="#FFFFFF"></path>
                                    <path d="M72,320 L152,320 C156.418278,320 160,323.581722 160,328 L160,344 C160,348.418278 156.418278,352 152,352 L72,352 C67.581722,352 64,348.418278 64,344 L64,328 C64,323.581722 67.581722,320 72,320 Z" id="矩形备份-4" fill="#FFFFFF"></path>
                                    <path d="M72,384 L216,384 C220.418278,384 224,387.581722 224,392 L224,408 C224,412.418278 220.418278,416 216,416 L72,416 C67.581722,416 64,412.418278 64,408 L64,392 C64,387.581722 67.581722,384 72,384 Z" id="矩形备份-5" fill="#FFFFFF"></path>
                                </g>
                                <g id="矩形">
                                    <use fill="#00B8CC" xlink:href="#path-1"></use>
                                    <use fill-opacity="0.8" fill="#FFFFFF" xlink:href="#path-1"></use>
                                </g>
                                <path d="M440,128 L536,128 C540.418278,128 544,131.581722 544,136 L544,168 C544,172.418278 540.418278,176 536,176 L440,176 C435.581722,176 432,172.418278 432,168 L432,136 C432,131.581722 435.581722,128 440,128 Z" id="矩形备份-6" fill="#F1F4F8"></path>
                                <path d="M328,144 L360,144 C364.418278,144 368,147.581722 368,152 C368,156.418278 364.418278,160 360,160 L328,160 C323.581722,160 320,156.418278 320,152 C320,147.581722 323.581722,144 328,144 Z" id="矩形" fill="#FFFFFF"></path>
                                <path d="M472,144 L504,144 C508.418278,144 512,147.581722 512,152 C512,156.418278 508.418278,160 504,160 L472,160 C467.581722,160 464,156.418278 464,152 C464,147.581722 467.581722,144 472,144 Z" id="矩形备份-7" fill="#FFFFFF"></path>
                                <path d="M832,206 C833.104569,206 834,206.895431 834,208 C834,209.104569 833.104569,210 832,210 L288,210 C286.895431,210 286,209.104569 286,208 C286,206.895431 286.895431,206 288,206 L832,206 Z" id="路径-2" fill="#F1F4F8" fill-rule="nonzero"></path>
                                <path d="M296,240 L536,240 C540.418278,240 544,243.581722 544,248 L544,264 C544,268.418278 540.418278,272 536,272 L296,272 C291.581722,272 288,268.418278 288,264 L288,248 C288,243.581722 291.581722,240 296,240 Z" id="矩形" fill="#F1F4F8"></path>
                                <path d="M296,304 L536,304 C540.418278,304 544,307.581722 544,312 L544,328 C544,332.418278 540.418278,336 536,336 L296,336 C291.581722,336 288,332.418278 288,328 L288,312 C288,307.581722 291.581722,304 296,304 Z" id="矩形备份-10" fill="#F1F4F8"></path>
                                <path d="M584,240 L680,240 C684.418278,240 688,243.581722 688,248 L688,264 C688,268.418278 684.418278,272 680,272 L584,272 C579.581722,272 576,268.418278 576,264 L576,248 C576,243.581722 579.581722,240 584,240 Z" id="矩形备份-8" fill="#F1F4F8"></path>
                                <path d="M584,304 L680,304 C684.418278,304 688,307.581722 688,312 L688,328 C688,332.418278 684.418278,336 680,336 L584,336 C579.581722,336 576,332.418278 576,328 L576,312 C576,307.581722 579.581722,304 584,304 Z" id="矩形备份-11" fill="#F1F4F8"></path>
                                <path d="M728,240 L824,240 C828.418278,240 832,243.581722 832,248 L832,264 C832,268.418278 828.418278,272 824,272 L728,272 C723.581722,272 720,268.418278 720,264 L720,248 C720,243.581722 723.581722,240 728,240 Z" id="矩形备份-9" fill="#F1F4F8"></path>
                                <path d="M728,304 L824,304 C828.418278,304 832,307.581722 832,312 L832,328 C832,332.418278 828.418278,336 824,336 L728,336 C723.581722,336 720,332.418278 720,328 L720,312 C720,307.581722 723.581722,304 728,304 Z" id="矩形备份-12" fill="#F1F4F8"></path>
                                <path d="M296,368 L328,368 C332.418278,368 336,371.581722 336,376 L336,408 C336,412.418278 332.418278,416 328,416 L296,416 C291.581722,416 288,412.418278 288,408 L288,376 C288,371.581722 291.581722,368 296,368 Z" id="矩形" fill="#E9ECF0"></path>
                                <path d="M376,368 L664,368 C668.418278,368 672,371.581722 672,376 L672,392 C672,396.418278 668.418278,400 664,400 L376,400 C371.581722,400 368,396.418278 368,392 L368,376 C368,371.581722 371.581722,368 376,368 Z" id="矩形备份-15" fill="#E9ECF0"></path>
                                <g id="矩形备份-18">
                                    <use fill="#00B8CC" xlink:href="#path-2"></use>
                                    <use fill-opacity="0.8" fill="#FFFFFF" xlink:href="#path-2"></use>
                                </g>
                                <g id="矩形备份-19">
                                    <use fill="#00B8CC" xlink:href="#path-3"></use>
                                    <use fill-opacity="0.8" fill="#FFFFFF" xlink:href="#path-3"></use>
                                </g>
                                <g id="矩形备份-21">
                                    <use fill="#00B8CC" xlink:href="#path-4"></use>
                                    <use fill-opacity="0.8" fill="#FFFFFF" xlink:href="#path-4"></use>
                                </g>
                                <g id="矩形备份-22">
                                    <use fill="#00B8CC" xlink:href="#path-5"></use>
                                    <use fill-opacity="0.8" fill="#FFFFFF" xlink:href="#path-5"></use>
                                </g>
                                <path d="M376,448 L664,448 C668.418278,448 672,451.581722 672,456 L672,472 C672,476.418278 668.418278,480 664,480 L376,480 C371.581722,480 368,476.418278 368,472 L368,456 C368,451.581722 371.581722,448 376,448 Z" id="矩形备份-16" fill="#E9ECF0"></path>
                                <path d="M376,528 L664,528 C668.418278,528 672,531.581722 672,536 L672,552 C672,556.418278 668.418278,560 664,560 L376,560 C371.581722,560 368,556.418278 368,552 L368,536 C368,531.581722 371.581722,528 376,528 Z" id="矩形备份-17" fill="#E9ECF0"></path>
                                <g id="矩形备份-26">
                                    <use fill="#00B8CC" xlink:href="#path-6"></use>
                                    <use fill-opacity="0.8" fill="#FFFFFF" xlink:href="#path-6"></use>
                                </g>
                                <g id="矩形备份-27">
                                    <use fill="#00B8CC" xlink:href="#path-7"></use>
                                    <use fill-opacity="0.8" fill="#FFFFFF" xlink:href="#path-7"></use>
                                </g>
                                <g id="矩形备份-20">
                                    <use fill="#00B8CC" xlink:href="#path-8"></use>
                                    <use fill-opacity="0.8" fill="#FFFFFF" xlink:href="#path-8"></use>
                                </g>
                                <g id="矩形备份-23">
                                    <use fill="#00B8CC" xlink:href="#path-9"></use>
                                    <use fill-opacity="0.8" fill="#FFFFFF" xlink:href="#path-9"></use>
                                </g>
                                <g id="矩形备份-28">
                                    <use fill="#00B8CC" xlink:href="#path-10"></use>
                                    <use fill-opacity="0.8" fill="#FFFFFF" xlink:href="#path-10"></use>
                                </g>
                                <path d="M296,448 L328,448 C332.418278,448 336,451.581722 336,456 L336,488 C336,492.418278 332.418278,496 328,496 L296,496 C291.581722,496 288,492.418278 288,488 L288,456 C288,451.581722 291.581722,448 296,448 Z" id="矩形备份-13" fill="#E9ECF0"></path>
                                <path d="M296,528 L328,528 C332.418278,528 336,531.581722 336,536 L336,568 C336,572.418278 332.418278,576 328,576 L296,576 C291.581722,576 288,572.418278 288,568 L288,536 C288,531.581722 291.581722,528 296,528 Z" id="矩形备份-14" fill="#E9ECF0"></path>
                                <path d="M832,430 C833.104569,430 834,430.895431 834,432 C834,433.104569 833.104569,434 832,434 L288,434 C286.895431,434 286,433.104569 286,432 C286,430.895431 286.895431,430 288,430 L832,430 Z" id="路径-4" fill="#F1F4F8" fill-rule="nonzero"></path>
                                <path d="M832,510 C833.104569,510 834,510.895431 834,512 C834,513.104569 833.104569,514 832,514 L288,514 C286.895431,514 286,513.104569 286,512 C286,510.895431 286.895431,510 288,510 L832,510 Z" id="路径-4备份" fill="#F1F4F8" fill-rule="nonzero"></path>
                            </g>
                            <g id="矩形">
                                <use fill="black" fill-opacity="1" filter="url(#filter-12)" xlink:href="#path-11"></use>
                                <use fill="#FFFFFF" fill-rule="evenodd" xlink:href="#path-11"></use>
                            </g>
                            <path d="M688,61 C689.104569,61 690,61.8954305 690,63 L690,237 L1024,237 C1025.05436,237 1025.91817,237.815878 1025.99451,238.850738 L1026,239 C1026,240.104569 1025.10457,241 1024,241 L686,241 L686,63 C686,61.8954305 686.895431,61 688,61 Z" id="路径-15" fill="#F1F4F8" fill-rule="nonzero"></path>
                            <polygon id="矩形" fill="#E9ECF0" points="704 111 736 111 736 237 704 237"></polygon>
                            <polygon id="矩形备份" fill="#E9ECF0" points="752 143 784 143 784 237 752 237"></polygon>
                            <g id="矩形备份-2">
                                <use fill="#00B8CC" xlink:href="#path-13"></use>
                                <use fill-opacity="0.8" fill="#FFFFFF" xlink:href="#path-13"></use>
                            </g>
                            <polygon id="矩形备份-3" fill="#E9ECF0" points="848 111 880 111 880 237 848 237"></polygon>
                            <polygon id="矩形备份-4" fill="#FDEEEA" points="896 175 928 175 928 237 896 237"></polygon>
                            <polygon id="矩形备份-5" fill="#E9ECF0" points="944 143 976 143 976 237 944 237"></polygon>
                            <polygon id="矩形备份-6" fill="#E9ECF0" points="992 111 1024 111 1024 237 992 237"></polygon>
                            <path d="M723.545588,251 C727.712901,251 731.091176,252.790861 731.091176,255 L731.091176,271 C731.091176,273.209139 727.712901,275 723.545588,275 C719.378275,275 716,273.209139 716,271 L716,255 C716,252.790861 719.378275,251 723.545588,251 Z" id="路径-16" fill="#F1F4F8" fill-rule="nonzero"></path>
                            <path d="M771.545588,251 C775.712901,251 779.091176,252.790861 779.091176,255 L779.091176,271 C779.091176,273.209139 775.712901,275 771.545588,275 C767.378275,275 764,273.209139 764,271 L764,255 C764,252.790861 767.378275,251 771.545588,251 Z" id="路径-16备份" fill="#F1F4F8" fill-rule="nonzero"></path>
                            <path d="M819.545588,251 C823.712901,251 827.091176,252.790861 827.091176,255 L827.091176,271 C827.091176,273.209139 823.712901,275 819.545588,275 C815.378275,275 812,273.209139 812,271 L812,255 C812,252.790861 815.378275,251 819.545588,251 Z" id="路径-16备份-2" fill="#F1F4F8" fill-rule="nonzero"></path>
                            <path d="M867.545588,251 C871.712901,251 875.091176,252.790861 875.091176,255 L875.091176,271 C875.091176,273.209139 871.712901,275 867.545588,275 C863.378275,275 860,273.209139 860,271 L860,255 C860,252.790861 863.378275,251 867.545588,251 Z" id="路径-16备份-3" fill="#F1F4F8" fill-rule="nonzero"></path>
                            <path d="M915.545588,251 C919.712901,251 923.091176,252.790861 923.091176,255 L923.091176,271 C923.091176,273.209139 919.712901,275 915.545588,275 C911.378275,275 908,273.209139 908,271 L908,255 C908,252.790861 911.378275,251 915.545588,251 Z" id="路径-16备份-4" fill="#F1F4F8" fill-rule="nonzero"></path>
                            <path d="M963.545588,251 C967.712901,251 971.091176,252.790861 971.091176,255 L971.091176,271 C971.091176,273.209139 967.712901,275 963.545588,275 C959.378275,275 956,273.209139 956,271 L956,255 C956,252.790861 959.378275,251 963.545588,251 Z" id="路径-16备份-5" fill="#F1F4F8" fill-rule="nonzero"></path>
                            <path d="M1011.54559,251 C1015.7129,251 1019.09118,252.790861 1019.09118,255 L1019.09118,271 C1019.09118,273.209139 1015.7129,275 1011.54559,275 C1007.37827,275 1004,273.209139 1004,271 L1004,255 C1004,252.790861 1007.37827,251 1011.54559,251 Z" id="路径-16备份-6" fill="#F1F4F8" fill-rule="nonzero"></path>
                            <path d="M672,203 C674.209139,203 676,206.378275 676,210.545588 C676,214.712901 674.209139,218.091176 672,218.091176 L656,218.091176 C653.790861,218.091176 652,214.712901 652,210.545588 C652,206.378275 653.790861,203 656,203 L672,203 Z" id="路径-17" fill="#F1F4F8" fill-rule="nonzero"></path>
                            <path d="M672,171 C674.209139,171 676,174.378275 676,178.545588 C676,182.712901 674.209139,186.091176 672,186.091176 L656,186.091176 C653.790861,186.091176 652,182.712901 652,178.545588 C652,174.378275 653.790861,171 656,171 L672,171 Z" id="路径-17备份" fill="#F1F4F8" fill-rule="nonzero"></path>
                            <path d="M672,139 C674.209139,139 676,142.378275 676,146.545588 C676,150.712901 674.209139,154.091176 672,154.091176 L656,154.091176 C653.790861,154.091176 652,150.712901 652,146.545588 C652,142.378275 653.790861,139 656,139 L672,139 Z" id="路径-17备份-2" fill="#F1F4F8" fill-rule="nonzero"></path>
                            <path d="M672,107 C674.209139,107 676,110.378275 676,114.545588 C676,118.712901 674.209139,122.091176 672,122.091176 L656,122.091176 C653.790861,122.091176 652,118.712901 652,114.545588 C652,110.378275 653.790861,107 656,107 L672,107 Z" id="路径-17备份-3" fill="#F1F4F8" fill-rule="nonzero"></path>
                            <path d="M672,75 C674.209139,75 676,78.3782748 676,82.5455879 C676,86.7129011 674.209139,90.0911759 672,90.0911759 L656,90.0911759 C653.790861,90.0911759 652,86.7129011 652,82.5455879 C652,78.3782748 653.790861,75 656,75 L672,75 Z" id="路径-17备份-4" fill="#F1F4F8" fill-rule="nonzero"></path>
                            <g id="编组" transform="translate(752.000000, 303.000000)">
                                <g id="矩形">
                                    <use fill="#00B8CC" xlink:href="#path-14"></use>
                                    <use fill-opacity="0.8" fill="#FFFFFF" xlink:href="#path-14"></use>
                                </g>
                                <rect id="矩形备份-8" fill="#FDEEEA" x="112" y="0" width="16" height="16" rx="8"></rect>
                                <rect id="矩形备份-7" fill="#E9ECF0" x="32" y="0" width="48" height="16" rx="8"></rect>
                                <rect id="矩形备份-9" fill="#E9ECF0" x="144" y="0" width="48" height="16" rx="8"></rect>
                            </g>
                            <g id="元素/纸飞机/主色备份" transform="translate(1007.647335, 0.000000)">
                                <g id="路径-14">
                                    <use fill="#00B8CC" xlink:href="#path-15"></use>
                                    <use fill-opacity="0.4" fill="#FFFFFF" xlink:href="#path-15"></use>
                                </g>
                                <g id="路径-5">
                                    <use fill="#00B8CC" xlink:href="#path-16"></use>
                                    <use fill-opacity="0.2" fill="#FFFFFF" xlink:href="#path-16"></use>
                                </g>
                                <g id="路径-12">
                                    <use fill="#00B8CC" xlink:href="#path-17"></use>
                                    <use fill-opacity="0.2" fill="#000000" xlink:href="#path-17"></use>
                                </g>
                                <g id="路径-13">
                                    <use fill="#00B8CC" xlink:href="#path-18"></use>
                                    <use fill-opacity="0.2" fill="#FFFFFF" xlink:href="#path-18"></use>
                                </g>
                            </g>
                            <path d="M913.129368,100.194317 C915.382487,98.6527093 917.59157,97.2031878 919.756217,95.8447965 L917.630049,92.4566686 C915.42011,93.8434822 913.166867,95.3219804 910.870632,96.8930881 L913.129368,100.194317 Z M926.543593,91.8008227 C928.931755,90.4567205 931.25637,89.2349261 933.516479,88.1337002 L931.764411,84.5378332 C929.432183,85.6741991 927.037693,86.9327185 924.581704,88.3149953 L926.543593,91.8008227 Z M940.705806,84.9486224 C943.272199,83.931842 945.733423,83.0933402 948.086568,82.4288986 L946.999615,78.5794137 C944.512669,79.2816359 941.922802,80.1639644 939.232464,81.2298505 L940.705806,84.9486224 Z M955.626558,80.8410598 C958.365674,80.4820495 960.887296,80.4160281 963.17998,80.6252608 L963.543514,76.6418146 C960.947448,76.404895 958.130627,76.4786453 955.106732,76.874981 L955.626558,80.8410598 Z M970.197182,82.4419347 C972.474038,83.5328778 974.242626,85.0443655 975.462244,86.8618648 L978.783723,84.6330139 C977.160978,82.2147652 974.839654,80.2308936 971.925598,78.8346395 L970.197182,82.4419347 Z M977.354754,93.3694246 C977.294169,95.6600108 976.530645,97.8748962 975.165215,99.6867434 L978.359667,102.094123 C980.22967,99.6127376 981.270912,96.5922283 981.353356,93.4751855 L977.354754,93.3694246 Z M969.659816,103.543912 C968.075555,104.057224 966.303803,104.284136 964.368597,104.196173 C963.79311,104.170012 963.243294,104.119149 962.719357,104.044245 L962.153258,108.003984 C962.806687,108.097401 963.484703,108.160123 964.186959,108.192046 C966.592741,108.3014 968.843431,108.013148 970.892741,107.349158 L969.659816,103.543912 Z M956.856047,101.22294 C955.539007,99.7226096 954.841436,97.6383715 954.81178,95.068669 L950.812047,95.1148274 C950.852113,98.5866719 951.858262,101.592893 953.849964,103.861779 L956.856047,101.22294 Z M956.154921,87.8481968 C956.941171,85.6138563 958.055196,83.3096108 959.457223,81.0292441 L956.049739,78.9342371 C954.502575,81.4506665 953.264864,84.0107445 952.381721,86.5204314 L956.154921,87.8481968 Z M963.972644,74.9289498 C965.64649,73.0178841 967.492448,71.2173475 969.477528,69.5687257 L966.921927,66.4915669 C964.773585,68.2757791 962.776127,70.2240884 960.963636,72.2934485 L963.972644,74.9289498 Z M975.839004,65.1053259 C978.059289,63.8070959 980.370602,62.7051066 982.752028,61.8183724 L981.356233,58.0698052 C978.75621,59.0379349 976.236709,60.2391839 973.819966,61.6522861 L975.839004,65.1053259 Z M990.089103,59.8217269 C992.584688,59.3846934 995.121491,59.1806315 997.688676,59.2192844 L997.748896,55.2197377 C994.928819,55.1772772 992.140891,55.4015396 989.399113,55.8816871 L990.089103,59.8217269 Z" id="路径" fill="#00B8CC" fill-rule="nonzero"></path>
                            <path d="M913.129368,100.194317 C915.382487,98.6527093 917.59157,97.2031878 919.756217,95.8447965 L917.630049,92.4566686 C915.42011,93.8434822 913.166867,95.3219804 910.870632,96.8930881 L913.129368,100.194317 Z M926.543593,91.8008227 C928.931755,90.4567205 931.25637,89.2349261 933.516479,88.1337002 L931.764411,84.5378332 C929.432183,85.6741991 927.037693,86.9327185 924.581704,88.3149953 L926.543593,91.8008227 Z M940.705806,84.9486224 C943.272199,83.931842 945.733423,83.0933402 948.086568,82.4288986 L946.999615,78.5794137 C944.512669,79.2816359 941.922802,80.1639644 939.232464,81.2298505 L940.705806,84.9486224 Z M955.626558,80.8410598 C958.365674,80.4820495 960.887296,80.4160281 963.17998,80.6252608 L963.543514,76.6418146 C960.947448,76.404895 958.130627,76.4786453 955.106732,76.874981 L955.626558,80.8410598 Z M970.197182,82.4419347 C972.474038,83.5328778 974.242626,85.0443655 975.462244,86.8618648 L978.783723,84.6330139 C977.160978,82.2147652 974.839654,80.2308936 971.925598,78.8346395 L970.197182,82.4419347 Z M977.354754,93.3694246 C977.294169,95.6600108 976.530645,97.8748962 975.165215,99.6867434 L978.359667,102.094123 C980.22967,99.6127376 981.270912,96.5922283 981.353356,93.4751855 L977.354754,93.3694246 Z M969.659816,103.543912 C968.075555,104.057224 966.303803,104.284136 964.368597,104.196173 C963.79311,104.170012 963.243294,104.119149 962.719357,104.044245 L962.153258,108.003984 C962.806687,108.097401 963.484703,108.160123 964.186959,108.192046 C966.592741,108.3014 968.843431,108.013148 970.892741,107.349158 L969.659816,103.543912 Z M956.856047,101.22294 C955.539007,99.7226096 954.841436,97.6383715 954.81178,95.068669 L950.812047,95.1148274 C950.852113,98.5866719 951.858262,101.592893 953.849964,103.861779 L956.856047,101.22294 Z M956.154921,87.8481968 C956.941171,85.6138563 958.055196,83.3096108 959.457223,81.0292441 L956.049739,78.9342371 C954.502575,81.4506665 953.264864,84.0107445 952.381721,86.5204314 L956.154921,87.8481968 Z M963.972644,74.9289498 C965.64649,73.0178841 967.492448,71.2173475 969.477528,69.5687257 L966.921927,66.4915669 C964.773585,68.2757791 962.776127,70.2240884 960.963636,72.2934485 L963.972644,74.9289498 Z M975.839004,65.1053259 C978.059289,63.8070959 980.370602,62.7051066 982.752028,61.8183724 L981.356233,58.0698052 C978.75621,59.0379349 976.236709,60.2391839 973.819966,61.6522861 L975.839004,65.1053259 Z M990.089103,59.8217269 C992.584688,59.3846934 995.121491,59.1806315 997.688676,59.2192844 L997.748896,55.2197377 C994.928819,55.1772772 992.140891,55.4015396 989.399113,55.8816871 L990.089103,59.8217269 Z" id="路径" fill-opacity="0.2" fill="#FFFFFF" fill-rule="nonzero"></path>
                        </g>
                    </g>
                </g>
            </g>
        </g>
    </g>
</svg>