<?xml version="1.0" encoding="UTF-8"?>
<svg width="57px" height="57px" viewBox="0 0 57 57" version="1.1" xmlns="http://www.w3.org/2000/svg" xmlns:xlink="http://www.w3.org/1999/xlink">
    <title>编组 40</title>
    <defs>
        <rect id="path-1" x="0" y="0" width="56.3134328" height="56.3134328" rx="4"></rect>
    </defs>
    <g id="门户二级页面-v225" stroke="none" stroke-width="1" fill="none" fill-rule="evenodd">
        <g id="图标补全" transform="translate(-569.000000, -40.000000)">
            <g id="编组-40" transform="translate(569.000000, 40.000000)">
                <g id="编组备份">
                    <mask id="mask-2" fill="white">
                        <use xlink:href="#path-1"></use>
                    </mask>
                    <use id="矩形备份-12" fill-opacity="0.1" fill="#F56349" xlink:href="#path-1"></use>
                    <circle id="椭圆形" fill-opacity="0.12" fill="#F56349" mask="url(#mask-2)" cx="12" cy="44" r="28"></circle>
                    <circle id="椭圆形备份" fill-opacity="0.12" fill="#F56349" mask="url(#mask-2)" cx="64" cy="-8" r="28"></circle>
                </g>
                <g id="Icon/File/file备份-5" transform="translate(12.000000, 11.792910)">
                    <g id="编组-15" transform="translate(3.040000, 0.000000)" fill-rule="nonzero">
                        <path d="M18,0 L26,8 L26,30 C26,31.1046 25.1046,32 24,32 L2,32 C0.8954,32 0,31.1046 0,30 L0,2 C0,0.8954 0.8954,0 2,0 L18,0 Z M12.2386,10.8044 C11.7186,10.7642 11.2386,11.0048 10.9986,11.446 C10.279,12.6488 11.3186,15.0148 11.7986,15.9772 C11.2386,17.7014 10.559,19.3454 9.679,20.9494 C6.06531707,22.5133951 5.81665437,23.4966777 5.80099349,23.899592 L5.8,23.957 C5.8,24.398 6.0398,24.8392 6.4798,25.0396 C6.6398,25.16 6.8796,25.2 7.0796,25.2 C8.0794,25.2 9.2392,24.0772 10.4788,21.8718 C12.0384,21.23 13.5982,20.7088 15.2378,20.348 C16.0776,21.0698 17.1172,21.4708 18.197,21.551 L18.3791492,21.550211 C19.0876014,21.5415319 20.1966,21.4373833 20.1966,20.1876 C20.2366,19.6662 19.9566,18.784 18.077,18.744 C17.2372,18.744 16.3976,18.8642 15.5576,19.0248 C14.5564545,18.1026489 13.7182047,17.0180698 13.0782,15.8168 C13.7582,13.5712 13.7982,12.0474 13.2782,11.3256 C13.0382,11.0048 12.6384,10.8044 12.2386,10.8044 Z M8.4394,22.8742 C8.1194,23.3956 7.6796,23.7966 7.1198,23.997 L7,24.036 L7.14035039,23.8473969 C7.43270273,23.4793906 7.79256914,23.1819219 8.22003398,22.9718656 Z M12.5984,17.8218 C13.0382,18.5034 13.598,19.185 14.198,19.7866 L14.078,19.7866 L14.118,19.8266 C13.1960564,20.0383413 12.2879003,20.3061728 11.3986,20.6286 L11.3986,20.5486 L11.3186,20.5886 C11.7584,19.7064 12.1584,18.7842 12.5184,17.8618 L12.5584,17.9018 Z M18.037,19.947 C18.8368,19.947 18.9968,20.1474 18.9968,20.2678 C18.757,20.348 18.477,20.388 18.197,20.348 C17.7972,20.3078 17.3972,20.2276 16.9972,20.027 C17.3572,19.947 17.677,19.947 18.037,19.947 Z M12.3184,12.0074 C12.5184,12.689 12.5184,13.4108 12.2784,14.0924 C11.9984,13.4508 11.8784,12.729 12.0384,12.0474 C12.0784,12.0074 12.1584,12.0074 12.1984,12.0074 Z" id="形状结合" fill="#F56349"></path>
                        <path d="M18,0 L26,8 L20,8 C18.8954,8 18,7.1046 18,6 L18,0 Z" id="路径" fill="#FDB8B8"></path>
                    </g>
                    <rect id="file_pdf" x="0" y="0" width="32" height="32"></rect>
                </g>
            </g>
        </g>
    </g>
</svg>