<?xml version="1.0" encoding="UTF-8"?>
<svg width="57px" height="57px" viewBox="0 0 57 57" version="1.1" xmlns="http://www.w3.org/2000/svg" xmlns:xlink="http://www.w3.org/1999/xlink">
    <title>编组 2</title>
    <defs>
        <rect id="path-1" x="0" y="0" width="56.3134328" height="56.3134328" rx="8"></rect>
    </defs>
    <g id="门户二级页面-v225" stroke="none" stroke-width="1" fill="none" fill-rule="evenodd">
        <g id="图标补全" transform="translate(-275.000000, -40.000000)">
            <g id="编组-2" transform="translate(275.000000, 40.207090)">
                <g id="编组备份">
                    <mask id="mask-2" fill="white">
                        <use xlink:href="#path-1"></use>
                    </mask>
                    <use id="矩形备份-12" fill-opacity="0.1" fill="#576A95" xlink:href="#path-1"></use>
                    <circle id="椭圆形" fill-opacity="0.12" fill="#576A95" mask="url(#mask-2)" cx="12" cy="44" r="28"></circle>
                    <circle id="椭圆形备份" fill-opacity="0.12" fill="#576A95" mask="url(#mask-2)" cx="64" cy="-8" r="28"></circle>
                </g>
                <g id="Icon/File/file备份-10" transform="translate(12.000000, 11.792910)">
                    <g id="编组-8" transform="translate(3.040000, 0.000000)" fill-rule="nonzero">
                        <path d="M10.8,2.2 L12.9954,2.2 L12.9954,4.237 L10.8,4.237 L10.8,6.437 L12.9954,6.437 L12.9954,8.637 L10.8,8.637 L10.8,10.8098 L12.9954,10.8098 L12.9954,12.9828 L10.8,12.9828 L10.8,15.1558 L13.0046,15.1558 L13.0046,12.983 L15.2,12.983 L15.2,10.81 L13.0046,10.81 L13.0046,8.637 L15.2,8.637 L15.2,6.437 L13.0044,6.437 L13.0044,4.4 L15.2,4.4 L15.2,2.2 L13.0046,2.2 L13.0046,0 L18,0 L26,8 L26,30 C26,31.1046 25.1046,32 24,32 L2,32 C0.8954,32 0,31.1046 0,30 L0,2 C0,0.8954 0.8954,0 2,0 L10.8,0 L10.8,2.2 Z M15.2,19.6642 L10.8,19.6642 L10.8,24.0096 C10.8,24.2980065 10.9147756,24.5745564 11.119,24.7782 C11.3233261,24.9818929 11.6000866,25.0962 11.8886,25.0962 L14.1114,25.0962 C14.3999507,25.0962 14.6767313,24.9818034 14.881,24.778 C15.0851263,24.5744543 15.1998975,24.2980679 15.2,24.0098 L15.2,19.6642 Z M14.1114,22.1538 L14.1114,24.3358 L11.8886,24.3358 L11.8886,22.1538 L14.1114,22.1538 Z M15.1636,15.3186 L12.9774,15.3186 L12.9774,17.5006 L15.1636,17.5006 L15.1636,15.3186 Z" id="形状结合" fill="#576A95"></path>
                        <path d="M18,0 L26,8 L20,8 C18.8954,8 18,7.1046 18,6 L18,0 Z" id="路径" fill="#BBC3D4"></path>
                    </g>
                    <rect id="file_zip" x="0" y="0" width="32" height="32"></rect>
                </g>
            </g>
        </g>
    </g>
</svg>