<?xml version="1.0" encoding="UTF-8"?>
<svg width="57px" height="57px" viewBox="0 0 57 57" version="1.1" xmlns="http://www.w3.org/2000/svg" xmlns:xlink="http://www.w3.org/1999/xlink">
    <title>编组 33备份 2</title>
    <defs>
        <rect id="path-1" x="0" y="0" width="56.3134328" height="56.3134328" rx="4"></rect>
    </defs>
    <g id="门户二级页面-v225" stroke="none" stroke-width="1" fill="none" fill-rule="evenodd">
        <g id="图标补全" transform="translate(-422.000000, -40.000000)">
            <g id="编组-33备份" transform="translate(422.000000, 40.000000)">
                <g id="编组备份">
                    <mask id="mask-2" fill="white">
                        <use xlink:href="#path-1"></use>
                    </mask>
                    <use id="矩形备份-12" fill-opacity="0.1" fill="#F06200" xlink:href="#path-1"></use>
                    <circle id="椭圆形" fill-opacity="0.12" fill="#F06200" mask="url(#mask-2)" cx="12" cy="44" r="28"></circle>
                    <circle id="椭圆形备份" fill-opacity="0.12" fill="#F06200" mask="url(#mask-2)" cx="64" cy="-8" r="28"></circle>
                </g>
                <path d="M33.04,12 L41.04,20 L41.04,42 C41.04,43.1046 40.1446,44 39.04,44 L17.04,44 C15.9354,44 15.04,43.1046 15.04,42 L15.04,14 C15.04,12.8954 15.9354,12 17.04,12 L33.04,12 Z M24.625,23.0848475 C24.0727153,23.0848475 23.625,23.5325627 23.625,24.0848475 L23.625,31.9151525 C23.625,32.0868894 23.6692285,32.2557321 23.7534245,32.4054138 C24.0241883,32.8867716 24.6339034,33.0574919 25.1152612,32.7867281 L32.0755324,28.8715755 C32.2351569,28.7817868 32.3670579,28.6498857 32.4568467,28.4902612 C32.7276105,28.0089034 32.5568903,27.3991883 32.0755324,27.1284245 L25.1152612,23.2132719 C24.9655796,23.129076 24.7967369,23.0848475 24.625,23.0848475 Z" id="形状结合" fill="#F06200" fill-rule="nonzero"></path>
                <path d="M33.04,12 L41.04,20 L35.04,20 C33.9354,20 33.04,19.1046 33.04,18 L33.04,12 Z" id="路径" fill="#FFCBA7" fill-rule="nonzero"></path>
            </g>
        </g>
    </g>
</svg>