<?xml version="1.0" encoding="UTF-8"?>
<svg width="57px" height="57px" viewBox="0 0 57 57" version="1.1" xmlns="http://www.w3.org/2000/svg" xmlns:xlink="http://www.w3.org/1999/xlink">
    <title>编组 38</title>
    <defs>
        <rect id="path-1" x="0" y="0" width="56.3134328" height="56.3134328" rx="4"></rect>
    </defs>
    <g id="门户二级页面-v225" stroke="none" stroke-width="1" fill="none" fill-rule="evenodd">
        <g id="图标补全" transform="translate(-801.000000, -43.000000)">
            <g id="编组-38" transform="translate(801.000000, 43.000000)">
                <g id="编组备份">
                    <mask id="mask-2" fill="white">
                        <use xlink:href="#path-1"></use>
                    </mask>
                    <use id="矩形备份-12" fill-opacity="0.1" fill="#FF9333" xlink:href="#path-1"></use>
                    <circle id="椭圆形" fill-opacity="0.12" fill="#FF9333" mask="url(#mask-2)" cx="12" cy="44" r="28"></circle>
                    <circle id="椭圆形备份" fill-opacity="0.12" fill="#FF9333" mask="url(#mask-2)" cx="64" cy="-8" r="28"></circle>
                </g>
                <g id="编组-18" transform="translate(15.000000, 12.000000)" fill-rule="nonzero">
                    <path d="M18,0 L26,8 L26,30 C26,31.1046 25.1046,32 24,32 L2,32 C0.8954,32 0,31.1046 0,30 L0,2 C0,0.8954 0.8954,0 2,0 L18,0 Z M13.5872,10.2912 L7.904,10.2912 L7.904,24 L10.1504,24 L10.1504,18.7392 L13.5488,18.7392 C16.8896,18.7392 18.56,17.3184 18.56,14.496 C18.56,11.6928 16.8896,10.2912 13.5872,10.2912 Z M13.4144,12.2112 C14.3936,12.2112 15.1232,12.384 15.584,12.7488 C16.0448,13.0944 16.2944,13.6704 16.2944,14.496 C16.2944,15.3216 16.064,15.9168 15.6032,16.2816 C15.1424,16.6272 14.4128,16.8192 13.4144,16.8192 L10.1504,16.8192 L10.1504,12.2112 L13.4144,12.2112 Z" id="形状结合" fill="#FF9333"></path>
                    <path d="M18,0 L26,8 L20,8 C18.8954,8 18,7.1046 18,6 L18,0 Z" id="路径" fill="#FFD3AD"></path>
                </g>
            </g>
        </g>
    </g>
</svg>