<?xml version="1.0" encoding="UTF-8"?>
<svg width="270px" height="147px" viewBox="0 0 270 147" version="1.1" xmlns="http://www.w3.org/2000/svg" xmlns:xlink="http://www.w3.org/1999/xlink">
    <title>编组 3备份</title>
    <defs>
        <rect id="path-1-hitf" x="107.666667" y="5.66666667" width="82.1666667" height="56.6666667" rx="4"></rect>
        <filter x="-68.2%" y="-70.6%" width="236.3%" height="297.6%" filterUnits="objectBoundingBox" id="filter-2">
            <feOffset dx="0" dy="16" in="SourceAlpha" result="shadowOffsetOuter1"></feOffset>
            <feGaussianBlur stdDeviation="16" in="shadowOffsetOuter1" result="shadowBlurOuter1"></feGaussianBlur>
            <feColorMatrix values="0 0 0 0 0.11372549   0 0 0 0 0.129411765   0 0 0 0 0.160784314  0 0 0 0.08 0" type="matrix" in="shadowBlurOuter1" result="shadowMatrixOuter1"></feColorMatrix>
            <feOffset dx="0" dy="8" in="SourceAlpha" result="shadowOffsetOuter2"></feOffset>
            <feGaussianBlur stdDeviation="8" in="shadowOffsetOuter2" result="shadowBlurOuter2"></feGaussianBlur>
            <feColorMatrix values="0 0 0 0 0.11372549   0 0 0 0 0.129411765   0 0 0 0 0.160784314  0 0 0 0.08 0" type="matrix" in="shadowBlurOuter2" result="shadowMatrixOuter2"></feColorMatrix>
            <feOffset dx="0" dy="4" in="SourceAlpha" result="shadowOffsetOuter3"></feOffset>
            <feGaussianBlur stdDeviation="4" in="shadowOffsetOuter3" result="shadowBlurOuter3"></feGaussianBlur>
            <feColorMatrix values="0 0 0 0 0.11372549   0 0 0 0 0.129411765   0 0 0 0 0.160784314  0 0 0 0.06 0" type="matrix" in="shadowBlurOuter3" result="shadowMatrixOuter3"></feColorMatrix>
            <feMerge>
                <feMergeNode in="shadowMatrixOuter1"></feMergeNode>
                <feMergeNode in="shadowMatrixOuter2"></feMergeNode>
                <feMergeNode in="shadowMatrixOuter3"></feMergeNode>
            </feMerge>
        </filter>
        <path d="M114.75,22.6666667 L145.916667,22.6666667 C146.69907,22.6666667 147.333333,23.3009299 147.333333,24.0833333 L147.333333,26.9166667 C147.333333,27.6990701 146.69907,28.3333333 145.916667,28.3333333 L114.75,28.3333333 C113.967597,28.3333333 113.333333,27.6990701 113.333333,26.9166667 L113.333333,24.0833333 C113.333333,23.3009299 113.967597,22.6666667 114.75,22.6666667 Z" id="path-3-hitf"></path>
        <path d="M114.75,11.3333333 L165.75,11.3333333 C166.532403,11.3333333 167.166667,11.9675966 167.166667,12.75 L167.166667,15.5833333 C167.166667,16.3657367 166.532403,17 165.75,17 L114.75,17 C113.967597,17 113.333333,16.3657367 113.333333,15.5833333 L113.333333,12.75 C113.333333,11.9675966 113.967597,11.3333333 114.75,11.3333333 Z" id="path-4-hitf"></path>
        <path d="M1.18941874,7.15290179 L0.34281649,8.58790362 C0.290162993,8.67715269 0.290599109,8.78854396 0.343477179,8.8772136 L0.347080068,8.88309075 C0.384523035,8.94252748 0.463467339,8.97292481 0.583912982,8.97428273 L0.592502242,8.97433036 L1.00399974,8.97433036 C1.12718277,8.97433036 1.2499362,8.95955914 1.36971782,8.93032262 L8.65178571,7.15290179 L1.18941874,7.15290179 Z" id="path-5-hitf"></path>
        <path d="M2.98352421,4.42075893 L17,4.42075893 L0.462378081,0.0121027926 C0.287564736,-0.0344996408 0.106088087,0.0570149072 0.0364169151,0.225832929 L0.0339180682,0.232043577 C-0.0292336703,0.39311035 -0.00301494228,0.576205391 0.102685653,0.712273172 L2.98352421,4.42075893 Z" id="path-6-hitf"></path>
        <polygon id="path-7-hitf" points="17 4.42075893 2.98452241 4.42075893 1.1953125 7.15290179 5.07193396 7.15290179"></polygon>
        <path d="M17,4.42075893 L8.9464571,12.0100446 C8.81580772,12.0732887 8.71646088,12.1049107 8.64841658,12.1049107 C8.58037229,12.1049107 8.4831751,12.0732887 8.35682502,12.0100446 L4.33327804,6.54575893 C4.31467461,6.32481168 4.331218,6.17923843 4.3829082,6.10903917 C4.4345984,6.03883991 4.56707527,5.98203221 4.78033882,5.93861607 L17,4.42075893 Z" id="path-8-hitf"></path>
    </defs>
    <g id="页面-1" stroke="none" stroke-width="1" fill="none" fill-rule="evenodd">
        <g id="编组-3备份" transform="translate(0.000000, 11.000000)">
            <g id="编组-2" transform="translate(48.166667, 0.000000)">
                <g id="编组" transform="translate(0.000000, 22.666667)">
                    <g id="背景">
                        <path d="M2.83333333,0 L155.833333,0 C157.39814,0 158.666667,1.26852654 158.666667,2.83333333 L158.666667,110.5 C158.666667,112.064807 157.39814,113.333333 155.833333,113.333333 L2.83333333,113.333333 C1.26852654,113.333333 0,112.064807 0,110.5 L0,2.83333333 C0,1.26852654 1.26852654,0 2.83333333,0 Z" id="矩形" fill="#F1F4F8"></path>
                        <path d="M2.83333333,0 L155.833333,0 C157.39814,0 158.666667,1.26852654 158.666667,2.83333333 L158.666667,11.3333333 L0,11.3333333 L0,2.83333333 C0,1.26852654 1.26852654,0 2.83333333,0 Z" id="矩形" fill="#DBDEE3"></path>
                        <circle id="椭圆形" fill="#FFFFFF" cx="8.5" cy="5.66666667" r="2.83333333"></circle>
                        <circle id="椭圆形备份" fill="#FFFFFF" cx="19.8333333" cy="5.66666667" r="2.83333333"></circle>
                        <circle id="椭圆形备份-2" fill="#FFFFFF" cx="31.1666667" cy="5.66666667" r="2.83333333"></circle>
                        <path d="M8.5,17 L150.166667,17 C151.731473,17 153,18.2685265 153,19.8333333 L153,104.833333 C153,106.39814 151.731473,107.666667 150.166667,107.666667 L8.5,107.666667 C6.93519321,107.666667 5.66666667,106.39814 5.66666667,104.833333 L5.66666667,19.8333333 C5.66666667,18.2685265 6.93519321,17 8.5,17 Z" id="矩形" fill="#FFFFFF"></path>
                        <path d="M8.5,17 L45.3333333,17 L45.3333333,107.666667 L8.5,107.666667 C6.93519321,107.666667 5.66666667,106.39814 5.66666667,104.833333 L5.66666667,19.8333333 C5.66666667,18.2685265 6.93519321,17 8.5,17 Z" id="矩形" fill="#E2E5E9"></path>
                        <path d="M12.75,22.6666667 L15.5833333,22.6666667 C16.3657367,22.6666667 17,23.3009299 17,24.0833333 L17,26.9166667 C17,27.6990701 16.3657367,28.3333333 15.5833333,28.3333333 L12.75,28.3333333 C11.9675966,28.3333333 11.3333333,27.6990701 11.3333333,26.9166667 L11.3333333,24.0833333 C11.3333333,23.3009299 11.9675966,22.6666667 12.75,22.6666667 Z" id="矩形" fill="#FFFFFF"></path>
                        <path d="M24.0833333,22.6666667 L38.25,22.6666667 C39.0324034,22.6666667 39.6666667,23.3009299 39.6666667,24.0833333 L39.6666667,26.9166667 C39.6666667,27.6990701 39.0324034,28.3333333 38.25,28.3333333 L24.0833333,28.3333333 C23.3009299,28.3333333 22.6666667,27.6990701 22.6666667,26.9166667 L22.6666667,24.0833333 C22.6666667,23.3009299 23.3009299,22.6666667 24.0833333,22.6666667 Z" id="矩形备份" fill="#FFFFFF"></path>
                        <path d="M12.75,34 L38.25,34 C39.0324034,34 39.6666667,34.6342633 39.6666667,35.4166667 L39.6666667,38.25 C39.6666667,39.0324034 39.0324034,39.6666667 38.25,39.6666667 L12.75,39.6666667 C11.9675966,39.6666667 11.3333333,39.0324034 11.3333333,38.25 L11.3333333,35.4166667 C11.3333333,34.6342633 11.9675966,34 12.75,34 Z" id="矩形备份-2" fill="#FFFFFF"></path>
                        <path d="M12.75,45.3333333 L32.5833333,45.3333333 C33.3657367,45.3333333 34,45.9675966 34,46.75 L34,49.5833333 C34,50.3657367 33.3657367,51 32.5833333,51 L12.75,51 C11.9675966,51 11.3333333,50.3657367 11.3333333,49.5833333 L11.3333333,46.75 C11.3333333,45.9675966 11.9675966,45.3333333 12.75,45.3333333 Z" id="矩形备份-3" fill="#FFFFFF"></path>
                        <path d="M12.75,56.6666667 L38.25,56.6666667 C39.0324034,56.6666667 39.6666667,57.3009299 39.6666667,58.0833333 L39.6666667,60.9166667 C39.6666667,61.6990701 39.0324034,62.3333333 38.25,62.3333333 L12.75,62.3333333 C11.9675966,62.3333333 11.3333333,61.6990701 11.3333333,60.9166667 L11.3333333,58.0833333 C11.3333333,57.3009299 11.9675966,56.6666667 12.75,56.6666667 Z" id="矩形备份-4" fill="#FFFFFF"></path>
                        <path d="M12.75,68 L24.0833333,68 C24.8657367,68 25.5,68.6342633 25.5,69.4166667 L25.5,72.25 C25.5,73.0324034 24.8657367,73.6666667 24.0833333,73.6666667 L12.75,73.6666667 C11.9675966,73.6666667 11.3333333,73.0324034 11.3333333,72.25 L11.3333333,69.4166667 C11.3333333,68.6342633 11.9675966,68 12.75,68 Z" id="矩形备份-5" fill="#FFFFFF"></path>
                    </g>
                    <path d="M52.4166667,22.6666667 L69.4166667,22.6666667 C70.1990701,22.6666667 70.8333333,23.3009299 70.8333333,24.0833333 L70.8333333,29.75 C70.8333333,30.5324034 70.1990701,31.1666667 69.4166667,31.1666667 L52.4166667,31.1666667 C51.6342633,31.1666667 51,30.5324034 51,29.75 L51,24.0833333 C51,23.3009299 51.6342633,22.6666667 52.4166667,22.6666667 Z" id="矩形" fill="#F1F4F8"></path>
                    <path d="M77.9166667,22.6666667 L94.9166667,22.6666667 C95.6990701,22.6666667 96.3333333,23.3009299 96.3333333,24.0833333 L96.3333333,29.75 C96.3333333,30.5324034 95.6990701,31.1666667 94.9166667,31.1666667 L77.9166667,31.1666667 C77.1342633,31.1666667 76.5,30.5324034 76.5,29.75 L76.5,24.0833333 C76.5,23.3009299 77.1342633,22.6666667 77.9166667,22.6666667 Z" id="矩形备份" fill="#F1F4F8"></path>
                    <path d="M52.4166667,42.5 L100.583333,42.5 C101.365737,42.5 102,43.1342633 102,43.9166667 C102,44.6990701 101.365737,45.3333333 100.583333,45.3333333 L52.4166667,45.3333333 C51.6342633,45.3333333 51,44.6990701 51,43.9166667 C51,43.1342633 51.6342633,42.5 52.4166667,42.5 Z" id="矩形备份-2" fill="#F1F4F8"></path>
                    <path d="M109.083333,42.5 L145.916667,42.5 C146.69907,42.5 147.333333,43.1342633 147.333333,43.9166667 C147.333333,44.6990701 146.69907,45.3333333 145.916667,45.3333333 L109.083333,45.3333333 C108.30093,45.3333333 107.666667,44.6990701 107.666667,43.9166667 C107.666667,43.1342633 108.30093,42.5 109.083333,42.5 Z" id="矩形备份-3" fill="#F1F4F8"></path>
                    <path d="M52.4166667,51 L77.9166667,51 C78.6990701,51 79.3333333,51.6342633 79.3333333,52.4166667 C79.3333333,53.1990701 78.6990701,53.8333333 77.9166667,53.8333333 L52.4166667,53.8333333 C51.6342633,53.8333333 51,53.1990701 51,52.4166667 C51,51.6342633 51.6342633,51 52.4166667,51 Z" id="矩形备份-6" fill="#F1F4F8"></path>
                    <path d="M86.4166667,51 L111.916667,51 C112.69907,51 113.333333,51.6342633 113.333333,52.4166667 C113.333333,53.1990701 112.69907,53.8333333 111.916667,53.8333333 L86.4166667,53.8333333 C85.6342633,53.8333333 85,53.1990701 85,52.4166667 C85,51.6342633 85.6342633,51 86.4166667,51 Z" id="矩形备份-7" fill="#F1F4F8"></path>
                    <path d="M120.416667,51 L145.916667,51 C146.69907,51 147.333333,51.6342633 147.333333,52.4166667 C147.333333,53.1990701 146.69907,53.8333333 145.916667,53.8333333 L120.416667,53.8333333 C119.634263,53.8333333 119,53.1990701 119,52.4166667 C119,51.6342633 119.634263,51 120.416667,51 Z" id="矩形备份-8" fill="#F1F4F8"></path>
                    <path d="M147.333333,36.4791667 C147.528934,36.4791667 147.6875,36.7030243 147.6875,36.9791667 C147.6875,37.255309 147.528934,37.4791667 147.333333,37.4791667 L51,37.4791667 C50.8043992,37.4791667 50.6458333,37.255309 50.6458333,36.9791667 C50.6458333,36.7030243 50.8043992,36.4791667 51,36.4791667 L147.333333,36.4791667 Z" id="路径" fill="#F1F4F8" fill-rule="nonzero"></path>
                    <path d="M52.4166667,62.3333333 L55.25,62.3333333 C56.0324034,62.3333333 56.6666667,62.9675966 56.6666667,63.75 L56.6666667,66.5833333 C56.6666667,67.3657367 56.0324034,68 55.25,68 L52.4166667,68 C51.6342633,68 51,67.3657367 51,66.5833333 L51,63.75 C51,62.9675966 51.6342633,62.3333333 52.4166667,62.3333333 Z" id="矩形" fill="#F1F4F8"></path>
                    <path d="M52.4166667,73.6666667 L55.25,73.6666667 C56.0324034,73.6666667 56.6666667,74.3009299 56.6666667,75.0833333 L56.6666667,77.9166667 C56.6666667,78.6990701 56.0324034,79.3333333 55.25,79.3333333 L52.4166667,79.3333333 C51.6342633,79.3333333 51,78.6990701 51,77.9166667 L51,75.0833333 C51,74.3009299 51.6342633,73.6666667 52.4166667,73.6666667 Z" id="矩形备份-4" fill="#F1F4F8"></path>
                    <path d="M63.75,62.3333333 L100.583333,62.3333333 C101.365737,62.3333333 102,62.9675966 102,63.75 L102,66.5833333 C102,67.3657367 101.365737,68 100.583333,68 L63.75,68 C62.9675966,68 62.3333333,67.3657367 62.3333333,66.5833333 L62.3333333,63.75 C62.3333333,62.9675966 62.9675966,62.3333333 63.75,62.3333333 Z" id="矩形备份-10" fill="#F1F4F8"></path>
                    <path d="M109.083333,62.3333333 L123.25,62.3333333 C124.032403,62.3333333 124.666667,62.9675966 124.666667,63.75 L124.666667,66.5833333 C124.666667,67.3657367 124.032403,68 123.25,68 L109.083333,68 C108.30093,68 107.666667,67.3657367 107.666667,66.5833333 L107.666667,63.75 C107.666667,62.9675966 108.30093,62.3333333 109.083333,62.3333333 Z" id="矩形备份-14" fill="#FDEEEA"></path>
                    <path d="M63.75,73.6666667 L120.416667,73.6666667 C121.19907,73.6666667 121.833333,74.3009299 121.833333,75.0833333 L121.833333,77.9166667 C121.833333,78.6990701 121.19907,79.3333333 120.416667,79.3333333 L63.75,79.3333333 C62.9675966,79.3333333 62.3333333,78.6990701 62.3333333,77.9166667 L62.3333333,75.0833333 C62.3333333,74.3009299 62.9675966,73.6666667 63.75,73.6666667 Z" id="矩形备份-11" fill="#F1F4F8"></path>
                    <path d="M52.4166667,85 L55.25,85 C56.0324034,85 56.6666667,85.6342633 56.6666667,86.4166667 L56.6666667,89.25 C56.6666667,90.0324034 56.0324034,90.6666667 55.25,90.6666667 L52.4166667,90.6666667 C51.6342633,90.6666667 51,90.0324034 51,89.25 L51,86.4166667 C51,85.6342633 51.6342633,85 52.4166667,85 Z" id="矩形备份-5" fill="#F1F4F8"></path>
                    <path d="M63.75,85 L120.416667,85 C121.19907,85 121.833333,85.6342633 121.833333,86.4166667 L121.833333,89.25 C121.833333,90.0324034 121.19907,90.6666667 120.416667,90.6666667 L63.75,90.6666667 C62.9675966,90.6666667 62.3333333,90.0324034 62.3333333,89.25 L62.3333333,86.4166667 C62.3333333,85.6342633 62.9675966,85 63.75,85 Z" id="矩形备份-12" fill="#F1F4F8"></path>
                    <path d="M52.4166667,96.3333333 L55.25,96.3333333 C56.0324034,96.3333333 56.6666667,96.9675966 56.6666667,97.75 L56.6666667,100.583333 C56.6666667,101.365737 56.0324034,102 55.25,102 L52.4166667,102 C51.6342633,102 51,101.365737 51,100.583333 L51,97.75 C51,96.9675966 51.6342633,96.3333333 52.4166667,96.3333333 Z" id="矩形备份-9" fill="#F1F4F8"></path>
                    <path d="M63.75,96.3333333 L109.083333,96.3333333 C109.865737,96.3333333 110.5,96.9675966 110.5,97.75 L110.5,100.583333 C110.5,101.365737 109.865737,102 109.083333,102 L63.75,102 C62.9675966,102 62.3333333,101.365737 62.3333333,100.583333 L62.3333333,97.75 C62.3333333,96.9675966 62.9675966,96.3333333 63.75,96.3333333 Z" id="矩形备份-13" fill="#F1F4F8"></path>
                    <circle id="椭圆形" fill="#FDEEEA" cx="144.5" cy="65.1666667" r="2.83333333"></circle>
                    <circle id="椭圆形备份" fill="#FDEEEA" cx="144.5" cy="76.5" r="2.83333333"></circle>
                    <circle id="椭圆形备份-2" fill="#ECF7F2" cx="144.5" cy="87.8333333" r="2.83333333"></circle>
                    <circle id="椭圆形备份-3" fill="#ECF7F2" cx="144.5" cy="99.1666667" r="2.83333333"></circle>
                </g>
                <g id="矩形">
                    <use fill="black" fill-opacity="1" filter="url(#filter-2)" xlink:href="#path-1-hitf"></use>
                    <use fill="#FFFFFF" fill-rule="evenodd" xlink:href="#path-1-hitf"></use>
                </g>
                <g id="矩形">
                    <use fill="currentColor" xlink:href="#path-3-hitf"></use>
                    <use fill-opacity="0.8" fill="#FFFFFF" xlink:href="#path-3-hitf"></use>
                </g>
                <g id="矩形备份-15">
                    <use fill="currentColor" xlink:href="#path-4-hitf"></use>
                    <use fill-opacity="0.4" fill="#FFFFFF" xlink:href="#path-4-hitf"></use>
                </g>
                <path d="M114.041667,34 L121.125,34 C121.516202,34 121.833333,34.3171316 121.833333,34.7083333 L121.833333,41.7916667 C121.833333,42.1828684 121.516202,42.5 121.125,42.5 L114.041667,42.5 C113.650465,42.5 113.333333,42.1828684 113.333333,41.7916667 L113.333333,34.7083333 C113.333333,34.3171316 113.650465,34 114.041667,34 Z" id="矩形" fill="#ECF7F2"></path>
                <path d="M128.208333,36.8333333 L169.291667,36.8333333 C169.682868,36.8333333 170,37.150465 170,37.5416667 L170,38.9583333 C170,39.349535 169.682868,39.6666667 169.291667,39.6666667 L128.208333,39.6666667 C127.817132,39.6666667 127.5,39.349535 127.5,38.9583333 L127.5,37.5416667 C127.5,37.150465 127.817132,36.8333333 128.208333,36.8333333 Z" id="矩形备份-17" fill="#ECF7F2"></path>
                <path d="M128.208333,51 L169.291667,51 C169.682868,51 170,51.3171316 170,51.7083333 L170,53.125 C170,53.5162017 169.682868,53.8333333 169.291667,53.8333333 L128.208333,53.8333333 C127.817132,53.8333333 127.5,53.5162017 127.5,53.125 L127.5,51.7083333 C127.5,51.3171316 127.817132,51 128.208333,51 Z" id="矩形备份-18" fill="#FDF2E8"></path>
                <path d="M114.041667,48.1666667 L121.125,48.1666667 C121.516202,48.1666667 121.833333,48.4837983 121.833333,48.875 L121.833333,55.9583333 C121.833333,56.349535 121.516202,56.6666667 121.125,56.6666667 L114.041667,56.6666667 C113.650465,56.6666667 113.333333,56.349535 113.333333,55.9583333 L113.333333,48.875 C113.333333,48.4837983 113.650465,48.1666667 114.041667,48.1666667 Z" id="矩形备份-16" fill="#FDF2E8"></path>
                <circle id="椭圆形" fill="#ECF7F2" cx="182.75" cy="38.25" r="1.41666667"></circle>
                <circle id="椭圆形备份-5" fill="#ECF7F2" cx="177.083333" cy="38.25" r="1.41666667"></circle>
                <circle id="椭圆形备份-4" fill="#FDF2E8" cx="182.75" cy="52.4166667" r="1.41666667"></circle>
                <circle id="椭圆形备份-6" fill="#FDF2E8" cx="177.083333" cy="52.4166667" r="1.41666667"></circle>
                <g id="元素/纸飞机/主色备份" transform="translate(93.604362, 0.000000)">
                    <g id="路径-14">
                        <use fill="currentColor" xlink:href="#path-5-hitf"></use>
                        <use fill-opacity="0.4" fill="#FFFFFF" xlink:href="#path-5-hitf"></use>
                    </g>
                    <g id="路径-5">
                        <use fill="currentColor" xlink:href="#path-6-hitf"></use>
                        <use fill-opacity="0.2" fill="#FFFFFF" xlink:href="#path-6-hitf"></use>
                    </g>
                    <g id="路径-12">
                        <use fill="currentColor" xlink:href="#path-7-hitf"></use>
                        <use fill-opacity="0.2" fill="#000000" xlink:href="#path-7-hitf"></use>
                    </g>
                    <g id="路径-13">
                        <use fill="currentColor" xlink:href="#path-8-hitf"></use>
                        <use fill-opacity="0.2" fill="#FFFFFF" xlink:href="#path-8-hitf"></use>
                    </g>
                </g>
                <path d="M93.232292,8.97645743 C92.577197,9.73278519 91.9724251,10.4655155 91.4179658,11.1746983 L91.9759931,11.6109799 C92.5229418,10.9114035 93.1201835,10.1877967 93.767708,9.44020924 L93.232292,8.97645743 Z M89.7316596,13.4878038 C89.1530201,14.3489652 88.6606619,15.1701988 88.2546346,15.9517859 L88.8832108,16.2783254 C89.2764358,15.5213823 89.7552145,14.7227987 90.3195966,13.8828559 L89.7316596,13.4878038 Z M87.1495971,18.6514457 C86.8426141,19.7341025 86.7498871,20.7232757 86.8751375,21.6181522 L87.576633,21.5199681 C87.4659443,20.7291307 87.5495147,19.8376367 87.8310655,18.8446733 L87.1495971,18.6514457 Z M88.2222072,24.3635037 C88.6381871,24.7919317 89.144959,25.173686 89.7414689,25.5093355 C90.1057923,25.7115781 90.4236259,25.8709302 90.7375827,26.0097964 L91.0241089,25.362001 C90.7303808,25.2320822 90.4315289,25.0822469 90.0870381,24.8910201 C89.5495483,24.5885739 89.0970919,24.2477358 88.730403,23.8700737 L88.2222072,24.3635037 Z M93.6548039,26.6492146 C94.8618732,26.5792016 95.7825571,25.9890919 96.2865337,25.0471974 L95.6619838,24.7130214 C95.2741798,25.4377981 94.5743452,25.8863551 93.6137877,25.9420698 L93.6548039,26.6492146 Z M96.3560403,21.8900416 C95.9543191,21.0215452 95.2275277,20.4027522 94.2842549,20.1957332 C94.1315572,20.1622208 93.9779611,20.1338047 93.8237418,20.1105097 L93.717947,20.8108978 C93.8567374,20.8318623 93.9949755,20.8574371 94.1324117,20.8876001 C94.8516207,21.0454441 95.4014779,21.5135946 95.7131496,22.1874094 L96.3560403,21.8900416 Z M90.8321278,20.3091421 C89.8435878,20.6009493 88.9518009,21.1136988 88.2327147,21.8136791 L88.7267937,22.3212439 C89.3620591,21.7028572 90.15274,21.2482406 91.0326661,20.9884951 L90.8321278,20.3091421 Z M86.6899935,24.3492066 C86.4477584,25.1297246 86.3454459,25.9836194 86.3913486,26.8967996 L86.4060063,27.1307278 C86.411268,27.2031748 86.4170135,27.2716521 86.4235662,27.3408385 L87.1287438,27.2740498 L87.1076461,27.0095716 C87.1045498,26.962484 87.1016029,26.9130075 87.0987143,26.8598151 C87.0569883,26.0296692 87.1493473,25.2588458 87.366496,24.5591604 L86.6899935,24.3492066 Z M87.2087652,30.2034647 C87.6358073,31.0682722 88.2342234,31.8536899 89.0201178,32.5553074 L89.4918513,32.0269101 C88.7735461,31.3856339 88.230652,30.6730885 87.843885,29.8898424 L87.2087652,30.2034647 Z M91.4732557,34.174065 C92.2720683,34.5676172 93.1706539,34.9141701 94.1735999,35.2123662 L94.3754681,34.5334072 C93.4096188,34.2462407 92.5481551,33.9140043 91.7863012,33.5386607 L91.4732557,34.174065 Z M96.9716632,35.8690253 C97.8557012,36.0291158 98.7993933,36.1613658 99.8043848,36.2651603 L99.8771537,35.5605747 C98.8896674,35.4585881 97.96377,35.3288319 97.0978824,35.1720283 L96.9716632,35.8690253 Z M102.654781,36.4751514 C103.562681,36.5176619 104.511692,36.540929 105.50259,36.5446272 L105.505234,35.8362988 C104.524332,35.8326379 103.585473,35.8096197 102.687911,35.7675932 L102.654781,36.4751514 Z M108.313903,35.7971473 L108.33543,36.5051534 L109.094196,36.4790107 L109.066992,35.7711999 L108.313903,35.7971473 Z" id="路径-2" fill="currentColor" fill-rule="nonzero"></path>
            </g>
        </g>
    </g>
</svg>
