<?xml version="1.0" encoding="UTF-8"?>
<svg width="56px" height="56px" viewBox="0 0 56 56" version="1.1" xmlns="http://www.w3.org/2000/svg" xmlns:xlink="http://www.w3.org/1999/xlink">
    <title>编组</title>
    <defs>
        <rect id="path-1" x="0" y="0" width="56" height="56" rx="4"></rect>
    </defs>
    <g id="门户二级页面-v225" stroke="none" stroke-width="1" fill="none" fill-rule="evenodd">
        <g id="图标补全" transform="translate(-40.000000, -40.000000)">
            <g id="编组" transform="translate(40.000000, 40.000000)">
                <g id="编组备份">
                    <mask id="mask-2" fill="white">
                        <use xlink:href="#path-1"></use>
                    </mask>
                    <use id="矩形备份-12" fill-opacity="0.1" fill="#FFCA28" xlink:href="#path-1"></use>
                    <circle id="椭圆形" fill-opacity="0.12" fill="#FFCA28" mask="url(#mask-2)" cx="11.9332096" cy="43.755102" r="27.8441558"></circle>
                    <circle id="椭圆形备份" fill-opacity="0.12" fill="#FFCA28" mask="url(#mask-2)" cx="63.6437848" cy="-7.9554731" r="27.8441558"></circle>
                </g>
                <g id="Icon/File/file" transform="translate(11.933210, 12.000000)">
                    <g id="编组-16" transform="translate(0.000000, 2.400000)" fill-rule="nonzero">
                        <path d="M0,1.6 C0,0.7163444 0.712357326,0 1.59109462,0 L12.4751763,0 C13.1116641,0 13.6868944,0.381488787 13.9375911,0.9698 L14.7176252,2.8 L30.2307978,2.8 C31.1095351,2.8 31.8218924,3.5163444 31.8218924,4.4 L31.8218924,21.2 C31.8218924,22.0836556 31.1095351,22.8 30.2307978,22.8 L1.59109462,22.8 C0.712357326,22.8 0,22.0836556 0,21.2 L0,1.6 Z" id="路径" fill="#FFA000"></path>
                        <path d="M4.3755102,5.4 L27.4463822,5.4 C28.5071119,5.4 29.0374768,5.93333333 29.0374768,7 L29.0374768,21.4 C29.0374768,22.4666667 28.5071119,23 27.4463822,23 L4.3755102,23 C3.31478046,23 2.78441558,22.4666667 2.78441558,21.4 L2.78441558,7 C2.78441558,5.93333333 3.31478046,5.4 4.3755102,5.4 Z" id="路径" fill="#FFFFFF"></path>
                        <path d="M1.59109462,8 L30.2307978,8 C31.2915275,8 31.8218924,8.53333333 31.8218924,9.6 L31.8218924,25.6 C31.8218924,26.6666667 31.2915275,27.2 30.2307978,27.2 L1.59109462,27.2 C0.530364873,27.2 0,26.6666667 0,25.6 L0,9.6 C0,8.53333333 0.530364873,8 1.59109462,8 Z" id="路径" fill="#FFCA28"></path>
                    </g>
                    <rect id="file" x="0" y="0" width="31.8218924" height="32"></rect>
                </g>
            </g>
        </g>
    </g>
</svg>