<?xml version="1.0" encoding="UTF-8"?>
<svg width="57px" height="57px" viewBox="0 0 57 57" version="1.1" xmlns="http://www.w3.org/2000/svg" xmlns:xlink="http://www.w3.org/1999/xlink">
    <title>编组 33</title>
    <defs>
        <rect id="path-1" x="0" y="0" width="56.3134328" height="56.3134328" rx="4"></rect>
    </defs>
    <g id="门户二级页面-v225" stroke="none" stroke-width="1" fill="none" fill-rule="evenodd">
        <g id="图标补全" transform="translate(-1016.000000, -43.000000)">
            <g id="编组-33" transform="translate(1016.000000, 43.000000)">
                <g id="编组备份">
                    <mask id="mask-2" fill="white">
                        <use xlink:href="#path-1"></use>
                    </mask>
                    <use id="矩形备份-12" fill-opacity="0.1" fill="#43C966" xlink:href="#path-1"></use>
                    <circle id="椭圆形" fill-opacity="0.12" fill="#43C966" mask="url(#mask-2)" cx="12" cy="44" r="28"></circle>
                    <circle id="椭圆形备份" fill-opacity="0.12" fill="#43C966" mask="url(#mask-2)" cx="64" cy="-8" r="28"></circle>
                </g>
                <path d="M17.04,12 L33.04,12 L41.04,20 L41.04,42 C41.04,43.1046 40.1446,44 39.04,44 L17.04,44 C15.9354,44 15.04,43.1046 15.04,42 L15.04,14 C15.04,12.8954 15.9354,12 17.04,12 Z" id="形状结合" fill="#43C966" fill-rule="nonzero"></path>
                <path d="M33.04,12 L41.04,20 L35.04,20 C33.9354,20 33.04,19.1046 33.04,18 L33.04,12 Z" id="路径" fill="#BBFFCA" fill-rule="nonzero"></path>
                <rect id="矩形" fill="#FFFFFF" opacity="0.600000024" x="18" y="38.5" width="9" height="2.5"></rect>
                <rect id="矩形备份-6" fill="#FFFFFF" opacity="0.800000012" x="18" y="34" width="9" height="2.5"></rect>
                <rect id="矩形备份-13" fill="#FFFFFF" x="18" y="29.5" width="9" height="2.5"></rect>
                <rect id="矩形备份-5" fill="#FFFFFF" opacity="0.600000024" x="29" y="38.5" width="9" height="2.5"></rect>
                <rect id="矩形备份-7" fill="#FFFFFF" opacity="0.800000012" x="29" y="34" width="9" height="2.5"></rect>
                <rect id="矩形备份-14" fill="#FFFFFF" x="29" y="29.5" width="9" height="2.5"></rect>
            </g>
        </g>
    </g>
</svg>