<svg xmlns="http://www.w3.org/2000/svg" xmlns:xlink="http://www.w3.org/1999/xlink" width="16px" height="16px" viewBox="0 0 16 16" version="1.1">
  <title>编组</title>
  <g id="门户二级页面-v225" stroke="none" stroke-width="1" fill="none" fill-rule="evenodd">
      <g id="图标补全" transform="translate(-458.000000, -175.000000)">
          <g id="编组" transform="translate(458.000000, 175.000000)">
              <polygon id="路径" points="0 0 16 0 16 16 0 16"/>
              <path d="M5.33333333,2.66666667 L14,2.66666667 L14,4 L5.33333333,4 L5.33333333,2.66666667 Z M3,4.33333333 C2.44771525,4.33333333 2,3.88561808 2,3.33333333 C2,2.78104858 2.44771525,2.33333333 3,2.33333333 C3.55228474,2.33333333 4,2.78104859 4,3.33333333 C4,3.88561807 3.55228474,4.33333333 3,4.33333333 Z M3,9 C2.44771525,9 2,8.55228475 2,8 C2,7.44771525 2.44771525,7 3,7 C3.55228475,7 4,7.44771525 4,8 C4,8.55228475 3.55228475,9 3,9 Z M3,13.6 C2.44771525,13.6 2,13.1522847 2,12.6 C2,12.0477153 2.44771525,11.6 3,11.6 C3.55228475,11.6 4,12.0477153 4,12.6 C4,13.1522847 3.55228475,13.6 3,13.6 Z M5.33333333,7.33333333 L14,7.33333333 L14,8.66666667 L5.33333333,8.66666667 L5.33333333,7.33333333 Z M5.33333333,12 L14,12 L14,13.3333333 L5.33333333,13.3333333 L5.33333333,12 Z" id="形状" fill="#000000" fill-rule="nonzero"/>
          </g>
      </g>
  </g>
</svg>