<?xml version="1.0" encoding="UTF-8"?>
<svg width="57px" height="57px" viewBox="0 0 57 57" version="1.1" xmlns="http://www.w3.org/2000/svg" xmlns:xlink="http://www.w3.org/1999/xlink">
    <title>编组 43</title>
    <defs>
        <rect id="path-1" x="0" y="0" width="56.3134328" height="56.3134328" rx="4"></rect>
    </defs>
    <g id="门户二级页面-v225" stroke="none" stroke-width="1" fill="none" fill-rule="evenodd">
        <g id="图标补全" transform="translate(-150.000000, -40.000000)">
            <g id="编组-43" transform="translate(150.000000, 40.000000)">
                <g id="编组备份">
                    <mask id="mask-2" fill="white">
                        <use xlink:href="#path-1"></use>
                    </mask>
                    <use id="矩形备份-12" fill-opacity="0.1" fill="#FCA000" xlink:href="#path-1"></use>
                    <circle id="椭圆形" fill-opacity="0.12" fill="#FCA000" mask="url(#mask-2)" cx="12" cy="44" r="28"></circle>
                    <circle id="椭圆形备份" fill-opacity="0.12" fill="#FCA000" mask="url(#mask-2)" cx="64" cy="-8" r="28"></circle>
                </g>
                <g id="Icon/File/file备份-4" transform="translate(12.000000, 11.792910)">
                    <g id="编组-17" transform="translate(3.040000, 0.000000)" fill-rule="nonzero">
                        <path d="M18,0 L26,8 L26,30 C26,31.1046 25.1046,32 24,32 L2,32 C0.8954,32 0,31.1046 0,30 L0,2 C0,0.8954 0.8954,0 2,0 L18,0 Z M15.2351033,13.887048 C15.0765849,13.8834899 14.9277338,13.9630353 14.8426,14.0968 L10.6146,20.7238 L8.6876,18.8358 C8.59179173,18.7414659 8.45904261,18.6945435 8.3252344,18.7077157 C8.19142618,18.7208879 8.07037475,18.7927948 7.9948,18.904 L5.0788,23.1896 C4.98392445,23.3285141 4.97379895,23.5085507 5.05250004,23.657227 C5.13120113,23.8059032 5.28577882,23.898755 5.454,23.898401 L20.4782,23.898401 C20.6402933,23.8985962 20.7901498,23.812207 20.8712098,23.6718377 C20.9522699,23.5314684 20.9521899,23.3584942 20.871,23.2182 L15.6178,14.1142 C15.5387539,13.9767501 15.3936218,13.8906061 15.2351033,13.887048 Z M8.238,11.2 C6.97558752,11.2 5.9522,12.2233875 5.9522,13.4858 C5.9522,14.7482125 6.97558752,15.7716 8.238,15.7716 C9.50041248,15.7716 10.5238,14.7482125 10.5238,13.4858 C10.5238,12.2233875 9.50041248,11.2 8.238,11.2 Z" id="形状结合" fill="#FCA000"></path>
                        <path d="M18,0 L26,8 L20,8 C18.8954,8 18,7.1046 18,6 L18,0 Z" id="路径" fill="#FBDE99"></path>
                    </g>
                    <rect id="file_pic" x="0" y="0" width="32" height="32"></rect>
                </g>
            </g>
        </g>
    </g>
</svg>