<?xml version="1.0" encoding="UTF-8"?>
<svg width="56px" height="56px" viewBox="0 0 56 56" version="1.1" xmlns="http://www.w3.org/2000/svg" xmlns:xlink="http://www.w3.org/1999/xlink">
    <title>编组 3</title>
    <defs>
        <rect id="path-1" x="0" y="0" width="56" height="56" rx="4"></rect>
    </defs>
    <g id="门户二级页面-v225" stroke="none" stroke-width="1" fill="none" fill-rule="evenodd">
        <g id="图标补全" transform="translate(-150.000000, -163.000000)">
            <g id="编组-3" transform="translate(150.000000, 163.000000)">
                <g id="编组备份">
                    <mask id="mask-2" fill="white">
                        <use xlink:href="#path-1"></use>
                    </mask>
                    <use id="矩形备份-12" fill-opacity="0.1" fill="#CCCCCC" xlink:href="#path-1"></use>
                    <circle id="椭圆形" fill-opacity="0.12" fill="#CCCCCC" mask="url(#mask-2)" cx="11.9332096" cy="43.755102" r="27.8441558"></circle>
                    <circle id="椭圆形备份" fill-opacity="0.12" fill="#CCCCCC" mask="url(#mask-2)" cx="63.6437848" cy="-7.9554731" r="27.8441558"></circle>
                </g>
                <g id="编组-35" transform="translate(11.933210, 11.933210)">
                    <g id="Icon/File/file_txt">
                        <g id="编组-24" transform="translate(3.023080, 0.000000)" fill-rule="nonzero">
                            <path d="M17.8998145,0 L25.8552876,7.9554731 L19.8886827,7.9554731 C18.7902308,7.9554731 17.8998145,7.06505677 17.8998145,5.96660482 L17.8998145,0 Z" id="路径" fill="#EAEAEA"></path>
                            <path d="M17.8998145,0 L25.8552876,7.9554731 L25.8552876,29.8330241 C25.8552876,30.9314761 24.9648712,31.8218924 23.8664193,31.8218924 L1.98886827,31.8218924 C0.890416327,31.8218924 0,30.9314761 0,29.8330241 L0,1.98886827 C0,0.890416327 0.890416327,0 1.98886827,0 L17.8998145,0 Z M14.478961,21.4797774 L12.410538,21.4797774 L12.410538,23.5482004 L14.478961,23.5482004 L14.478961,21.4797774 Z M13.7470575,11.1376623 C12.4519065,11.1376623 11.4367881,11.5052052 10.6842004,12.2402909 C9.91411058,12.9753766 9.54656772,13.990495 9.54656772,15.285646 L11.5418004,15.285646 C11.5418004,14.5505603 11.6818167,13.9729929 11.9793514,13.570446 C12.3118902,13.0803889 12.8544534,12.8528623 13.6245432,12.8528623 C14.2196126,12.8528623 14.6921677,13.0103807 15.0247065,13.3429195 C15.3397432,13.6754583 15.5147636,14.1305113 15.5147636,14.7080787 C15.5147636,15.1456297 15.3572453,15.5656787 15.0422085,15.9507236 L14.832184,16.1957521 C13.6945514,17.2108705 13.0119718,17.9459562 12.7844453,18.4185113 C12.5394167,18.8910664 12.4344045,19.4686338 12.4344045,20.1337113 L12.4344045,20.3787399 L14.4471391,20.3787399 L14.4471391,20.1337113 C14.4471391,19.7136623 14.5346494,19.3461195 14.7096698,18.9960787 C14.8671881,18.6810419 15.0947147,18.3835072 15.4097514,18.1209766 C16.2498494,17.3858909 16.7574085,16.9133358 16.9149269,16.7383154 C17.3349759,16.1782501 17.5625024,15.4606664 17.5625024,14.5855644 C17.5625024,13.5179399 17.2124616,12.6778419 16.51238,12.0652705 C15.8122983,11.435197 14.8846902,11.1376623 13.7470575,11.1376623 Z" id="file_unknow" fill="#CCCCCC"></path>
                        </g>
                        <rect id="file_unknow" x="0" y="0" width="31.8218924" height="31.8218924"></rect>
                    </g>
                    <path d="M20.8831169,0 L28.83859,7.9554731 L22.8719852,7.9554731 C21.7735332,7.9554731 20.8831169,7.06505677 20.8831169,5.96660482 L20.8831169,0 Z" id="路径" fill="#F0F0F0" fill-rule="nonzero"></path>
                </g>
            </g>
        </g>
    </g>
</svg>