<?xml version="1.0" encoding="UTF-8"?>
<svg width="57px" height="57px" viewBox="0 0 57 57" version="1.1" xmlns="http://www.w3.org/2000/svg" xmlns:xlink="http://www.w3.org/1999/xlink">
    <title>编组 32</title>
    <defs>
        <rect id="path-1" x="0" y="0" width="56.3134328" height="56.3134328" rx="4"></rect>
    </defs>
    <g id="门户二级页面-v225" stroke="none" stroke-width="1" fill="none" fill-rule="evenodd">
        <g id="图标补全" transform="translate(-910.000000, -43.000000)">
            <g id="编组-32" transform="translate(910.000000, 43.000000)">
                <g id="编组备份">
                    <mask id="mask-2" fill="white">
                        <use xlink:href="#path-1"></use>
                    </mask>
                    <use id="矩形备份-12" fill-opacity="0.1" fill="#4C95F3" xlink:href="#path-1"></use>
                    <circle id="椭圆形" fill-opacity="0.12" fill="#4C95F3" mask="url(#mask-2)" cx="12" cy="44" r="28"></circle>
                    <circle id="椭圆形备份" fill-opacity="0.12" fill="#4C95F3" mask="url(#mask-2)" cx="64" cy="-8" r="28"></circle>
                </g>
                <g id="编组-7" transform="translate(15.040000, 12.000000)" fill-rule="nonzero">
                    <path d="M18,0 L26,8 L26,30 C26,31.1046 25.1046,32 24,32 L2,32 C0.8954,32 0,31.1046 0,30 L0,2 C0,0.8954 0.8954,0 2,0 L18,0 Z M8.016,12.652 L6.12,12.652 L8.616,22.156 L10.476,22.156 L12.516,15.448 L12.588,15.448 L14.628,22.156 L16.476,22.156 L19.068,12.652 L17.16,12.652 L15.504,19.372 L15.432,19.372 L13.524,12.652 L11.58,12.652 L9.744,19.372 L9.672,19.372 L8.016,12.652 Z" id="形状结合" fill="#4C95F3"></path>
                    <path d="M18,0 L26,8 L20,8 C18.8954,8 18,7.1046 18,6 L18,0 Z" id="路径" fill="#A1CAFF"></path>
                </g>
            </g>
        </g>
    </g>
</svg>