<?xml version="1.0" encoding="UTF-8"?>
<svg width="200px" height="130px" viewBox="0 0 200 130" version="1.1" xmlns="http://www.w3.org/2000/svg" xmlns:xlink="http://www.w3.org/1999/xlink">
    <!-- Generator: Sketch 59 (86127) - https://sketch.com -->
    <title>商城_空态页_暂无数据</title>
    <desc>Created with Sketch.</desc>
    <defs>
        <linearGradient x1="50.0282581%" y1="38.5483871%" x2="50.0282581%" y2="91.8548387%" id="linearGradient-1">
            <stop stop-color="#FAFAFA" offset="0%"></stop>
            <stop stop-color="#DDDDDD" offset="100%"></stop>
        </linearGradient>
    </defs>
    <g id="Page-1" stroke="none" stroke-width="1" fill="none" fill-rule="evenodd">
        <g id="商城_空态页_暂无数据" transform="translate(25.000000, 19.000000)">
            <rect id="Rectangle" fill="#F2F2F2" x="29.93" y="15.27" width="87.25" height="59.63" rx="3.06"></rect>
            <path d="M32.71,15.27 L114.39,15.27 C115.930874,15.27 117.18,16.5191255 117.18,18.06 L117.18,64.53 L29.93,64.53 L29.93,18.06 C29.93,16.5230224 31.1730322,15.2755089 32.71,15.27 Z" id="Path" fill="#DDDDDD"></path>
            <rect id="Rectangle" fill="#FFFFFF" x="33.04" y="18.59" width="80.25" height="42.29"></rect>
            <path d="M61.74,74.9 C61.74,74.9 61.65,81.78 60.99,82.53 C60.63,82.95 58.81,84.38 57.28,85.53 C56.9898669,85.7984652 56.8851028,86.2126418 57.0126953,86.5867687 C57.1402877,86.9608956 57.4762889,87.2247534 57.87,87.26 L89.87,87.26 C90.2665633,87.2248519 90.6045018,86.9578204 90.7303977,86.5801326 C90.8562936,86.2024448 90.7461618,85.7860565 90.45,85.52 C89.306508,84.720165 88.2536213,83.7980509 87.31,82.77 C86.47,81.56 86.1,74.86 86.1,74.86 L61.74,74.9 Z" id="Path" fill="url(#linearGradient-1)"></path>
            <path d="M74.19,69.22 C74.2181409,68.2876941 74.8442028,67.4798723 75.74,67.22 C74.6118422,66.1201336 72.8079433,66.1354037 71.6985667,67.254211 C70.5891901,68.3730183 70.5891901,70.1769817 71.6985667,71.295789 C72.8079433,72.4145963 74.6118422,72.4298664 75.74,71.33 C74.807381,71.0556076 74.1729756,70.1919977 74.19,69.22 L74.19,69.22 Z" id="Path" fill="#DDDDDD"></path>
            <path d="M96,54.5 L48.53,54.5 L48.53,25.56 C48.5353201,25.2860915 48.7560915,25.0653201 49.03,25.06 C49.3061424,25.06 49.53,25.2838576 49.53,25.56 L49.53,53.5 L96,53.5 C96.2761424,53.5 96.5,53.7238576 96.5,54 C96.5,54.2761424 96.2761424,54.5 96,54.5 Z" id="Path" fill="#F2F2F2"></path>
            <path d="M110.46,89.51 L112.52,92.23 C113.16,93.1 113.87,93.93 114.42,94.85 C115.719918,97.1733872 115.009789,100.106007 112.790985,101.577341 C110.572181,103.048675 107.594381,102.561598 105.96,100.46 C104.74,98.88 103.55,97.28 102.33,95.66 L110.46,89.51 Z" id="Path" fill="#F7F8F8"></path>
            <path d="M102.33,87.69 C103.23,87.01 104.03,86.38 104.86,85.78 C105.232642,85.5247026 105.623716,85.2974117 106.03,85.1 C106.361654,84.9343792 106.761535,84.9943613 107.03,85.25 C107.342892,85.5095702 107.627776,85.8011566 107.88,86.12 C108.5,86.9 109.09,87.71 109.69,88.51 C109.76,88.6 109.82,88.69 109.89,88.8 L105.51,92.11 L105.21,91.75 C105.63196,91.1691919 105.550156,90.364069 105.02,89.88 C104.76,89.57 104.53,89.23 104.28,88.88 C104.035483,88.4926096 103.581273,88.2911774 103.13,88.37 C102.863112,88.4490216 102.577718,88.3273095 102.45,88.08 C102.45,88.03 102.38,87.99 102.33,87.92 L101.66,88.42 C101.66,88.47 101.66,88.52 101.66,88.54 C101.944284,88.7908215 102.022482,89.202393 101.85,89.54 C101.797341,89.8667819 101.857284,90.201759 102.02,90.49 C102.315573,90.9825168 102.649967,91.4506685 103.02,91.89 C103.362773,92.2942791 103.915385,92.4521683 104.42,92.29 L104.71,92.69 L101.71,94.96 C101.3,94.41 100.89,93.9 100.5,93.36 C100.11,92.82 99.57,92.06 99.13,91.36 C98.8229613,90.954712 98.8938499,90.3787417 99.29,90.06 C99.83,89.57 100.41,89.12 100.97,88.65 L101.22,88.45 C100.94,87.95 100.63,87.45 100.4,87.01 C99.5067229,85.4305594 99.936395,83.4325842 101.4,82.36 C102.880535,81.1113096 104.907958,80.7316423 106.74,81.36 C108.092895,81.79332 109.388844,82.3875764 110.6,83.13 C111.647075,83.7579844 112.773837,84.2423239 113.95,84.57 C114.76194,84.7609767 115.616542,84.6188938 116.32301,84.175473 C117.029477,83.7320521 117.52898,83.0242173 117.71,82.21 C117.730888,81.701218 117.697364,81.1916602 117.61,80.69 C117.61,80.43 117.52,80.17 117.5,79.9 C117.459673,79.635628 117.622621,79.3826298 117.88,79.31 C118.133964,79.2242598 118.412749,79.3340844 118.54,79.57 C119.00654,80.1941481 119.201263,80.9802493 119.08,81.75 C119.026221,83.3843895 118.043739,84.8445199 116.55,85.51 C115.339501,86.0350408 113.975684,86.0850236 112.73,85.65 C111.58912,85.2861126 110.507654,84.7571714 109.52,84.08 C108.403574,83.2726491 107.134469,82.7010412 105.79,82.4 C104.297788,82.0832491 102.753736,82.6275276 101.79,83.81 C101.147076,84.4445289 100.981961,85.4191095 101.38,86.23 C101.668758,86.7342672 101.985936,87.2217195 102.33,87.69 L102.33,87.69 Z" id="Path" fill="#F7F8F8"></path>
            <path d="M104.18,91.83 C103.946812,91.7656334 103.726784,91.6606969 103.53,91.52 C103.16,91.09 102.82,90.63 102.53,90.17 C102.354647,89.8249195 102.451506,89.4037957 102.76,89.17 C102.917758,89.0359594 103.12233,88.9701294 103.328654,88.9870104 C103.534978,89.0038915 103.726128,89.1020988 103.86,89.26 C104.18,89.66 104.5,90.08 104.8,90.5 C104.954208,90.751711 104.97194,91.0639725 104.847218,91.3315225 C104.722495,91.5990724 104.471935,91.7862656 104.18,91.83 Z" id="Path" fill="#F7F8F8"></path>
            <polygon id="Path" fill="#F7F8F8" points="24.01 96.53 25.63 98.49 31.12 93.93 32.69 99.57 42 83.68 24.59 89.13 29.42 92"></polygon>
            <path d="M64.63,97.88 C64.4165932,97.8993878 64.2055909,97.9395787 64,98 C63.7311712,98.0645261 63.5598315,98.3281256 63.61,98.6 C63.6744521,98.8679924 63.9401736,99.0362827 64.21,98.98 C64.3478391,98.9485348 64.4886262,98.9317744 64.63,98.93 C65.4164621,98.9259564 66.1275493,99.3971337 66.4303862,100.122963 C66.7332231,100.848793 66.5678815,101.685641 66.0117615,102.241762 C65.4556415,102.797882 64.6187931,102.963223 63.8929634,102.660386 C63.1671337,102.357549 62.6959564,101.646462 62.7,100.86 C62.6985964,100.605644 62.7496598,100.353732 62.85,100.12 C62.9576955,99.8631876 62.8368124,99.5676955 62.58,99.46 C62.3231876,99.3523045 62.0276955,99.4731876 61.92,99.73 C61.4221684,100.920986 61.762415,102.297464 62.7578004,103.119347 C63.7531857,103.94123 65.1691787,104.014868 66.244447,103.300667 C67.3197152,102.586467 67.8009057,101.252708 67.4292982,100.016507 C67.0576907,98.7803064 65.9208429,97.9329366 64.63,97.93 L64.63,97.88 Z" id="Path" fill="#F7F8F8"></path>
            <path d="M64.63,94.52 C61.1561289,94.52 58.34,97.3361289 58.34,100.81 C58.34,104.283871 61.1561289,107.1 64.63,107.1 C64.9061424,107.1 65.13,106.876142 65.13,106.6 C65.13,106.323858 64.9061424,106.1 64.63,106.1 C61.7084137,106.1 59.34,103.731586 59.34,100.81 C59.34,97.8884137 61.7084137,95.52 64.63,95.52 C67.5515863,95.52 69.92,97.8884137 69.92,100.81 C69.9325075,101.879803 69.6147287,102.927425 69.01,103.81 C68.8593764,104.039441 68.9218625,104.347409 69.15,104.5 C69.2581845,104.576016 69.392498,104.605085 69.5224328,104.580605 C69.6523677,104.556125 69.7668945,104.480172 69.84,104.37 C70.5469884,103.332548 70.9234878,102.105439 70.9200716,100.85 C70.9279751,99.1756759 70.2691223,97.5670475 69.0889415,96.3793615 C67.9087606,95.1916755 66.3043411,94.5226387 64.63,94.52 Z" id="Path" fill="#F7F8F8"></path>
            <path d="M22,40 L1.88,40 C1.32771525,40 0.88,40.4477153 0.88,41 C0.88,41.5522847 1.32771525,42 1.88,42 L22,42 C22.5522847,42 23,41.5522847 23,41 C23,40.4477153 22.5522847,40 22,40 Z" id="Path" fill="#F7F8F8"></path>
            <path d="M11.35,32.28 L22,32.28 C22.5522847,32.28 23,31.8322847 23,31.28 C23,30.7277153 22.5522847,30.28 22,30.28 L11.35,30.28 C10.7977153,30.28 10.35,30.7277153 10.35,31.28 C10.35,31.8322847 10.7977153,32.28 11.35,32.28 Z" id="Path" fill="#F7F8F8"></path>
            <path d="M1.88,37 L12.49,37 C13.0422847,37 13.49,36.5522847 13.49,36 C13.49,35.4477153 13.0422847,35 12.49,35 L1.88,35 C1.32771525,35 0.88,35.4477153 0.88,36 C0.88,36.5522847 1.32771525,37 1.88,37 Z" id="Path" fill="#F7F8F8"></path>
            <path d="M123.78,45.47 L143.85,45.47 C144.402285,45.47 144.85,45.0222847 144.85,44.47 C144.85,43.9177153 144.402285,43.47 143.85,43.47 L123.78,43.47 C123.227715,43.47 122.78,43.9177153 122.78,44.47 C122.78,45.0222847 123.227715,45.47 123.78,45.47 Z" id="Path" fill="#F7F8F8"></path>
            <path d="M134.67,53.16 L124.06,53.16 C123.507715,53.16 123.06,53.6077153 123.06,54.16 C123.06,54.7122847 123.507715,55.16 124.06,55.16 L134.67,55.16 C135.222285,55.16 135.67,54.7122847 135.67,54.16 C135.67,53.6077153 135.222285,53.16 134.67,53.16 L134.67,53.16 Z" id="Path" fill="#F7F8F8"></path>
            <path d="M143.85,48.66 L131.85,48.66 C131.297715,48.66 130.85,49.1077153 130.85,49.66 C130.85,50.2122847 131.297715,50.66 131.85,50.66 L143.85,50.66 C144.402285,50.66 144.85,50.2122847 144.85,49.66 C144.85,49.1077153 144.402285,48.66 143.85,48.66 Z" id="Path" fill="#F7F8F8"></path>
            <polygon id="Path" fill="#F7F8F8" points="75 7.92 83.24 0.42 87.1 5.27"></polygon>
            <path d="M81.63,45.45 C81.5265321,45.4495201 81.4255598,45.4181838 81.34,45.36 C81.2323539,45.2819366 81.1602368,45.1642096 81.1395945,45.0328494 C81.1189522,44.9014893 81.1514851,44.7673173 81.23,44.66 L91.6,30.42 C91.6765371,30.3107762 91.7935392,30.2366571 91.9249924,30.2141223 C92.0564456,30.1915875 92.1914539,30.2225047 92.3,30.3 C92.5192403,30.465608 92.5678795,30.7751303 92.41,31 L82,45.25 C81.9111785,45.3667868 81.7763609,45.4396612 81.63,45.45 L81.63,45.45 Z" id="Path" fill="#F2F2F2"></path>
            <path d="M57.48,46.41 C57.3876054,46.4078748 57.2976076,46.3801832 57.22,46.33 C57.1071048,46.2598728 57.0267741,46.1476844 56.9967526,46.0182168 C56.9667312,45.8887491 56.9894893,45.7526561 57.06,45.64 L63,36.18 C63.0701272,36.0671048 63.1823156,35.9867741 63.3117832,35.9567526 C63.4412509,35.9267312 63.5773439,35.9494893 63.69,36.02 C63.9203989,36.1694158 63.9911276,36.4744331 63.85,36.71 L57.96,46.17 C57.8568302,46.3327605 57.6721102,46.4251205 57.48,46.41 L57.48,46.41 Z" id="Path" fill="#F2F2F2"></path>
            <path d="M76,33.86 C76.0485656,33.1010927 75.7545435,32.3603503 75.1987343,31.8413368 C74.6429251,31.3223233 73.8838092,31.0796478 73.13,31.18 C71.6653168,31.2422322 70.3017374,31.9441283 69.4,33.1 L68.15,31.94 C69.4346917,30.3812652 71.3402565,29.4668867 73.36,29.44 C76.23,29.44 78.06,31.08 78.06,33.68 C78.06,37.22 73.17,37.96 73.8,41.46 L71.9,41.46 C71.15,37.57 76,36.5 76,33.86 Z M71.36,45.65 C71.36,44.8215729 72.0315729,44.15 72.86,44.15 C73.6884271,44.15 74.36,44.8215729 74.36,45.65 C74.36,46.4784271 73.6884271,47.15 72.86,47.15 C72.0315729,47.15 71.36,46.4784271 71.36,45.65 L71.36,45.65 Z" id="Shape" fill="#D1D1D1" fill-rule="nonzero"></path>
        </g>
        <rect id="商城_空态页_暂无数据" fill="#5F5F5F" opacity="0" x="0" y="0" width="200" height="130"></rect>
    </g>
</svg>