<?xml version="1.0" encoding="UTF-8"?>
<svg width="314px" height="177px" viewBox="0 0 314 177" version="1.1" xmlns="http://www.w3.org/2000/svg" xmlns:xlink="http://www.w3.org/1999/xlink">
    <title>ill_页面不可访问</title>
    <defs> 
        <circle id="path-1" cx="3.5" cy="3.5" r="3.5"></circle>
        <polygon id="path-2" points="3.04347826 5.32608696 3.5 5.47826087 3.04347826 5.63043478"></polygon>
        <polygon id="path-3" points="3.5 5.32608696 3.95652174 5.47826087 3.5 5.63043478"></polygon>
        <rect id="path-4" x="3.34782609" y="5.40217391" width="1" height="1" rx="0.0760869565"></rect>
        <rect id="path-5" x="2.43478261" y="3.19565217" width="1" height="1" rx="0.152173913"></rect>
        <rect id="path-6" x="4.10869565" y="3.19565217" width="1" height="1" rx="0.152173913"></rect>
        <circle id="path-7" cx="168.073333" cy="88.98" r="3.29555556"></circle>
        <path d="M3.29555556,0 L98.6606944,0 C100.48078,0 101.95625,1.47547048 101.95625,3.29555556 L101.95625,46.1377778 C101.95625,47.9578629 100.48078,49.4333333 98.6606944,49.4333333 L3.29555556,49.4333333 C1.47547048,49.4333333 0,47.9578629 0,46.1377778 L0,3.29555556 C0,1.47547048 1.47547048,0 3.29555556,0 Z" id="path-8"></path>
        <filter x="-54.9%" y="-80.9%" width="209.9%" height="326.6%" filterUnits="objectBoundingBox" id="filter-9">
            <feOffset dx="0" dy="16" in="SourceAlpha" result="shadowOffsetOuter1"></feOffset>
            <feGaussianBlur stdDeviation="16" in="shadowOffsetOuter1" result="shadowBlurOuter1"></feGaussianBlur>
            <feColorMatrix values="0 0 0 0 0.11372549   0 0 0 0 0.129411765   0 0 0 0 0.160784314  0 0 0 0.06 0" type="matrix" in="shadowBlurOuter1" result="shadowMatrixOuter1"></feColorMatrix>
            <feOffset dx="0" dy="8" in="SourceAlpha" result="shadowOffsetOuter2"></feOffset>
            <feGaussianBlur stdDeviation="8" in="shadowOffsetOuter2" result="shadowBlurOuter2"></feGaussianBlur>
            <feColorMatrix values="0 0 0 0 0.11372549   0 0 0 0 0.129411765   0 0 0 0 0.160784314  0 0 0 0.06 0" type="matrix" in="shadowBlurOuter2" result="shadowMatrixOuter2"></feColorMatrix>
            <feOffset dx="0" dy="4" in="SourceAlpha" result="shadowOffsetOuter3"></feOffset>
            <feGaussianBlur stdDeviation="4" in="shadowOffsetOuter3" result="shadowBlurOuter3"></feGaussianBlur>
            <feColorMatrix values="0 0 0 0 0.11372549   0 0 0 0 0.129411765   0 0 0 0 0.160784314  0 0 0 0.06 0" type="matrix" in="shadowBlurOuter3" result="shadowMatrixOuter3"></feColorMatrix>
            <feMerge>
                <feMergeNode in="shadowMatrixOuter1"></feMergeNode>
                <feMergeNode in="shadowMatrixOuter2"></feMergeNode>
                <feMergeNode in="shadowMatrixOuter3"></feMergeNode>
            </feMerge>
        </filter>
        <path d="M8.03291667,6.59111111 L21.2151389,6.59111111 C22.1251814,6.59111111 22.8629167,7.32884635 22.8629167,8.23888889 L22.8629167,21.4211111 C22.8629167,22.3311536 22.1251814,23.0688889 21.2151389,23.0688889 L8.03291667,23.0688889 C7.12287413,23.0688889 6.38513889,22.3311536 6.38513889,21.4211111 L6.38513889,8.23888889 C6.38513889,7.32884635 7.12287413,6.59111111 8.03291667,6.59111111 Z" id="path-10"></path>
        <path d="M31.1018056,6.79708333 L50.8751389,6.79708333 C51.7851814,6.79708333 52.5229167,7.53481857 52.5229167,8.44486111 L52.5229167,14.83 C52.5229167,15.7400425 51.7851814,16.4777778 50.8751389,16.4777778 L31.1018056,16.4777778 C30.191763,16.4777778 29.4540278,15.7400425 29.4540278,14.83 L29.4540278,8.44486111 C29.4540278,7.53481857 30.191763,6.79708333 31.1018056,6.79708333 Z" id="path-11"></path>
        <circle id="path-12" cx="20" cy="20" r="20"></circle>
        <filter x="-35.0%" y="-25.0%" width="170.0%" height="170.0%" filterUnits="objectBoundingBox" id="filter-13">
            <feOffset dx="0" dy="4" in="SourceAlpha" result="shadowOffsetOuter1"></feOffset>
            <feGaussianBlur stdDeviation="4" in="shadowOffsetOuter1" result="shadowBlurOuter1"></feGaussianBlur>
            <feColorMatrix values="0 0 0 0 0.11372549   0 0 0 0 0.129411765   0 0 0 0 0.160784314  0 0 0 0.06 0" type="matrix" in="shadowBlurOuter1" result="shadowMatrixOuter1"></feColorMatrix>
            <feOffset dx="0" dy="2" in="SourceAlpha" result="shadowOffsetOuter2"></feOffset>
            <feGaussianBlur stdDeviation="2" in="shadowOffsetOuter2" result="shadowBlurOuter2"></feGaussianBlur>
            <feColorMatrix values="0 0 0 0 0.11372549   0 0 0 0 0.129411765   0 0 0 0 0.160784314  0 0 0 0.1 0" type="matrix" in="shadowBlurOuter2" result="shadowMatrixOuter2"></feColorMatrix>
            <feMerge>
                <feMergeNode in="shadowMatrixOuter1"></feMergeNode>
                <feMergeNode in="shadowMatrixOuter2"></feMergeNode>
            </feMerge>
        </filter>
    </defs>
    <g id="会员供应商推荐（新）" stroke="none" stroke-width="1" fill="none" fill-rule="evenodd">
        <g id="已经正常缴过费的供应商" transform="translate(-680, -361)">
            <g id="ill_页面不可访问" transform="translate(680, 361)">
                <g id="编组-5">
                    <rect id="矩形" x="0" y="0" width="300" height="165"></rect>
                    <g id="背景/2" transform="translate(57.7244, 33.1822)">
                        <g id="背景/1">
                            <path d="M3.29555556,0 L181.255556,0 C183.075641,0 184.551111,1.47547048 184.551111,3.29555556 L184.551111,128.526667 C184.551111,130.346752 183.075641,131.822222 181.255556,131.822222 L3.29555556,131.822222 C1.47547048,131.822222 0,130.346752 0,128.526667 L0,3.29555556 C0,1.47547048 1.47547048,0 3.29555556,0 Z" id="矩形" fill="#F1F4F8"></path>
                            <path d="M3.29555556,0 L181.255556,0 C183.075641,0 184.551111,1.47547048 184.551111,3.29555556 L184.551111,13.1822222 L0,13.1822222 L0,3.29555556 C0,1.47547048 1.47547048,0 3.29555556,0 Z" id="矩形" fill="#DBDEE3"></path>
                            <circle id="椭圆形" fill="#FFFFFF" cx="9.88666667" cy="6.59111111" r="3.29555556"></circle>
                            <circle id="椭圆形备份" fill="#FFFFFF" cx="23.0688889" cy="6.59111111" r="3.29555556"></circle>
                            <circle id="椭圆形备份-2" fill="#FFFFFF" cx="36.2511111" cy="6.59111111" r="3.29555556"></circle>
                        </g>
                        <g id="编组-2" transform="translate(6.5911, 19.7733)">
                            <path d="M3.29555556,0 L168.073333,0 C169.893418,0 171.368889,1.47547048 171.368889,3.29555556 L171.368889,102.162222 C171.368889,103.982307 169.893418,105.457778 168.073333,105.457778 L3.29555556,105.457778 C1.47547048,105.457778 0,103.982307 0,102.162222 L0,3.29555556 C0,1.47547048 1.47547048,0 3.29555556,0 Z" id="矩形" fill="#FFFFFF"></path>
                            <path d="M3.29555556,0 L46.1377778,0 L46.1377778,105.457778 L3.29555556,105.457778 C1.47547048,105.457778 0,103.982307 0,102.162222 L0,3.29555556 C0,1.47547048 1.47547048,0 3.29555556,0 Z" id="矩形" fill="#E2E5E9"></path>
                            <path d="M8.23888889,6.59111111 L11.5344444,6.59111111 C12.444487,6.59111111 13.1822222,7.32884635 13.1822222,8.23888889 L13.1822222,11.5344444 C13.1822222,12.444487 12.444487,13.1822222 11.5344444,13.1822222 L8.23888889,13.1822222 C7.32884635,13.1822222 6.59111111,12.444487 6.59111111,11.5344444 L6.59111111,8.23888889 C6.59111111,7.32884635 7.32884635,6.59111111 8.23888889,6.59111111 Z" id="矩形" fill="#FFFFFF"></path>
                            <path d="M21.4211111,6.59111111 L37.8988889,6.59111111 C38.8089314,6.59111111 39.5466667,7.32884635 39.5466667,8.23888889 L39.5466667,11.5344444 C39.5466667,12.444487 38.8089314,13.1822222 37.8988889,13.1822222 L21.4211111,13.1822222 C20.5110686,13.1822222 19.7733333,12.444487 19.7733333,11.5344444 L19.7733333,8.23888889 C19.7733333,7.32884635 20.5110686,6.59111111 21.4211111,6.59111111 Z" id="矩形备份" fill="#FFFFFF"></path>
                            <path d="M8.23888889,19.7733333 L31.3077778,19.7733333 C32.2178203,19.7733333 32.9555556,20.5110686 32.9555556,21.4211111 L32.9555556,24.7166667 C32.9555556,25.6267092 32.2178203,26.3644444 31.3077778,26.3644444 L8.23888889,26.3644444 C7.32884635,26.3644444 6.59111111,25.6267092 6.59111111,24.7166667 L6.59111111,21.4211111 C6.59111111,20.5110686 7.32884635,19.7733333 8.23888889,19.7733333 Z" id="矩形备份-2" fill="#FFFFFF"></path>
                            <path d="M8.23888889,32.9555556 L37.8988889,32.9555556 C38.8089314,32.9555556 39.5466667,33.6932908 39.5466667,34.6033333 L39.5466667,37.8988889 C39.5466667,38.8089314 38.8089314,39.5466667 37.8988889,39.5466667 L8.23888889,39.5466667 C7.32884635,39.5466667 6.59111111,38.8089314 6.59111111,37.8988889 L6.59111111,34.6033333 C6.59111111,33.6932908 7.32884635,32.9555556 8.23888889,32.9555556 Z" id="矩形备份-3" fill="#FFFFFF"></path>
                            <path d="M8.23888889,46.1377778 L24.7166667,46.1377778 C25.6267092,46.1377778 26.3644444,46.875513 26.3644444,47.7855556 L26.3644444,51.0811111 C26.3644444,51.9911536 25.6267092,52.7288889 24.7166667,52.7288889 L8.23888889,52.7288889 C7.32884635,52.7288889 6.59111111,51.9911536 6.59111111,51.0811111 L6.59111111,47.7855556 C6.59111111,46.875513 7.32884635,46.1377778 8.23888889,46.1377778 Z" id="矩形备份-4" fill="#FFFFFF"></path>
                            <path d="M8.23888889,59.32 L37.8988889,59.32 C38.8089314,59.32 39.5466667,60.0577352 39.5466667,60.9677778 L39.5466667,64.2633333 C39.5466667,65.1733759 38.8089314,65.9111111 37.8988889,65.9111111 L8.23888889,65.9111111 C7.32884635,65.9111111 6.59111111,65.1733759 6.59111111,64.2633333 L6.59111111,60.9677778 C6.59111111,60.0577352 7.32884635,59.32 8.23888889,59.32 Z" id="矩形备份-5" fill="#FFFFFF"></path>
                        </g>
                        <path d="M60.9677778,26.3644444 L80.7411111,26.3644444 C81.6511536,26.3644444 82.3888889,27.1021797 82.3888889,28.0122222 L82.3888889,34.6033333 C82.3888889,35.5133759 81.6511536,36.2511111 80.7411111,36.2511111 L60.9677778,36.2511111 C60.0577352,36.2511111 59.32,35.5133759 59.32,34.6033333 L59.32,28.0122222 C59.32,27.1021797 60.0577352,26.3644444 60.9677778,26.3644444 Z" id="矩形" fill="#E9ECF0"></path>
                        <rect id="矩形" fill="#FFFFFF" x="65.9111111" y="29.66" width="9.88666667" height="3.29555556" rx="1.64777778"></rect>
                        <path d="M60.9677778,42.8422222 L169.721111,42.8422222 C170.631154,42.8422222 171.368889,43.5799575 171.368889,44.49 L171.368889,70.8544444 C171.368889,71.764487 170.631154,72.5022222 169.721111,72.5022222 L60.9677778,72.5022222 C60.0577352,72.5022222 59.32,71.764487 59.32,70.8544444 L59.32,44.49 C59.32,43.5799575 60.0577352,42.8422222 60.9677778,42.8422222 Z" id="矩形" fill="#F1F4F8"></path>
                        <path d="M67.5588889,49.4333333 L103.81,49.4333333 C104.720043,49.4333333 105.457778,50.1710686 105.457778,51.0811111 L105.457778,54.3766667 C105.457778,55.2867092 104.720043,56.0244444 103.81,56.0244444 L67.5588889,56.0244444 C66.6488464,56.0244444 65.9111111,55.2867092 65.9111111,54.3766667 L65.9111111,51.0811111 C65.9111111,50.1710686 66.6488464,49.4333333 67.5588889,49.4333333 Z" id="矩形" fill="#E2E5E9"></path>
                        <path d="M159.834444,49.4333333 L163.13,49.4333333 C164.040043,49.4333333 164.777778,50.1710686 164.777778,51.0811111 L164.777778,54.3766667 C164.777778,55.2867092 164.040043,56.0244444 163.13,56.0244444 L159.834444,56.0244444 C158.924402,56.0244444 158.186667,55.2867092 158.186667,54.3766667 L158.186667,51.0811111 C158.186667,50.1710686 158.924402,49.4333333 159.834444,49.4333333 Z" id="矩形备份-6" fill="#E2E5E9"></path>
                        <g id="编组-2" transform="translate(59.3156, 85.4778)">
                            <g id="编组">
                                <g id="椭圆形">
                                    <use fill="currentColor" xlink:href="#path-1"></use>
                                    <use fill-opacity="0.8" fill="#FFFFFF" xlink:href="#path-1"></use>
                                </g>
                                <path d="M3.5,4.41304348 C4.34043331,4.41304348 5.02173913,5.23061046 5.02173913,6.23913043 C5.02173913,6.26332466 5.02134703,6.28740899 5.02057004,6.31137478 C4.56839584,6.55647979 4.05045065,6.69565217 3.5,6.69565217 C2.94954643,6.69565217 2.43159866,6.55647832 1.97942513,6.31139905 C1.97865297,6.28740899 1.97826087,6.26332466 1.97826087,6.23913043 C1.97826087,5.23061046 2.65956669,4.41304348 3.5,4.41304348 Z" id="路径" fill="currentColor"></path>
                                <path d="M3.52589702,4.41404348 L3.5,4.41304348 C3.96602975,4.41304348 4.38313054,4.66443123 4.66226958,5.06036738 C4.43735714,5.17530789 4.0519117,5.25 3.61413043,5.25 C3.05284104,5.25 2.57758334,5.12721819 2.41689702,4.95783446 C2.65844468,4.66278189 2.98222539,4.46690107 3.34340145,4.4225948 L3.46772022,4.41585889 L3.52589702,4.41404348 Z" id="形状结合" fill-opacity="0.1" fill="#000000"></path>
                                <g id="矩形">
                                    <use fill="currentColor" xlink:href="#path-2"></use>
                                    <use fill-opacity="0.4" fill="#FFFFFF" xlink:href="#path-2"></use>
                                </g>
                                <g id="矩形备份-2" transform="translate(3.7283, 5.4783) scale(-1, 1) translate(-3.7283, -5.4783)">
                                    <use fill="currentColor" xlink:href="#path-3"></use>
                                    <use fill-opacity="0.4" fill="#FFFFFF" xlink:href="#path-3"></use>
                                </g>
                                <g id="矩形">
                                    <use fill="currentColor" xlink:href="#path-4"></use>
                                    <use fill-opacity="0.4" fill="#FFFFFF" xlink:href="#path-4"></use>
                                </g>
                                <ellipse id="椭圆形备份-2" fill="currentColor" cx="3.5" cy="3.34782609" rx="1.97826087" ry="1.82608696"></ellipse>
                            </g>
                            <ellipse id="椭圆形备份-2" fill="#FFFFFF" cx="3.5" cy="3.34782609" rx="1.67391304" ry="1.52173913"></ellipse>
                            <path d="M3.50050188,3.04347819 C3.52151088,3.04375875 3.53831735,3.06101461 3.53804355,3.08202362 C3.53642857,3.2041752 3.46886464,3.27173913 3.34782609,3.27173913 C3.22678754,3.27173913 3.1592236,3.2041752 3.15760863,3.08202362 C3.15733483,3.06101461 3.17414129,3.04375875 3.19515029,3.04347819 C3.2161593,3.04320439 3.23341516,3.06001085 3.23369234,3.08101986 C3.23475767,3.16176683 3.26864301,3.19565217 3.34782609,3.19565217 C3.42700916,3.19565217 3.4608945,3.16176683 3.46195983,3.08101986 C3.46223701,3.06001085 3.47949288,3.04320439 3.50050188,3.04347819 Z" id="路径-93" fill="currentColor" fill-rule="nonzero"></path>
                            <path d="M3.80484971,3.04347819 C3.82585871,3.04375875 3.84266517,3.06101461 3.84239137,3.08202362 C3.8407764,3.2041752 3.77321246,3.27173913 3.65217391,3.27173913 C3.53113536,3.27173913 3.46357143,3.2041752 3.46195645,3.08202362 C3.46168265,3.06101461 3.47848912,3.04375875 3.49949812,3.04347819 C3.52050712,3.04320439 3.53776299,3.06001085 3.53804017,3.08101986 C3.5391055,3.16176683 3.57299084,3.19565217 3.65217391,3.19565217 C3.73135699,3.19565217 3.76524233,3.16176683 3.76630766,3.08101986 C3.76658484,3.06001085 3.7838407,3.04320439 3.80484971,3.04347819 Z" id="路径-93备份" fill="currentColor" fill-rule="nonzero"></path>
                            <ellipse id="椭圆形备份-3" fill="currentColor" cx="4.26086957" cy="2.85326087" rx="1" ry="1"></ellipse>
                            <ellipse id="椭圆形备份-4" fill="currentColor" cx="2.73913043" cy="2.85326087" rx="1" ry="1"></ellipse>
                            <g id="矩形">
                                <use fill="currentColor" xlink:href="#path-5"></use>
                                <use fill-opacity="0.8" fill="#FFFFFF" xlink:href="#path-5"></use>
                            </g>
                            <g id="矩形备份">
                                <use fill="currentColor" xlink:href="#path-6"></use>
                                <use fill-opacity="0.8" fill="#FFFFFF" xlink:href="#path-6"></use>
                            </g>
                            <path d="M4.26086957,1.73097826 L4.11691684,2.16179098 C3.94284019,2.08215709 3.7299274,2.03532609 3.5,2.03532609 C3.2700726,2.03532609 3.05715981,2.08215709 2.88308316,2.16179098 L2.73913043,1.73097826 L4.26086957,1.73097826 Z" id="形状结合" fill="currentColor"></path>
                            <circle id="椭圆形" fill="currentColor" cx="3.95652174" cy="1.06521739" r="1"></circle>
                            <path d="M3.92519573,1.00558717 L3.98784774,1.04876066 L3.98038172,1.05933825 C3.96104681,1.08636589 3.92213515,1.13905239 3.92167488,1.13968915 C3.80113879,1.30644746 3.76829366,1.43213579 3.83995152,1.62246497 L3.76874413,1.64927416 C3.68840263,1.43588051 3.72431242,1.28714215 3.85140275,1.10716273 L3.91764297,1.01627112 C3.92077524,1.01190032 3.92337898,1.00822358 3.92519573,1.00558717 Z" id="路径-96" fill="currentColor" fill-rule="nonzero"></path>
                        </g>
                        <g id="编组-2" transform="translate(59.3156, 98.6678)">
                            <g id="编组">
                                <circle id="椭圆形" fill="#F1F4F8" cx="3.5" cy="3.5" r="3.5"></circle>
                                <path d="M3.5,4.41304348 C4.34043331,4.41304348 5.02173913,5.23061046 5.02173913,6.23913043 C5.02173913,6.26332466 5.02134703,6.28740899 5.02057004,6.31137478 C4.56839584,6.55647979 4.05045065,6.69565217 3.5,6.69565217 C2.94954643,6.69565217 2.43159866,6.55647832 1.97942513,6.31139905 C1.97865297,6.28740899 1.97826087,6.26332466 1.97826087,6.23913043 C1.97826087,5.23061046 2.65956669,4.41304348 3.5,4.41304348 Z" id="路径" fill="#DBDEE3"></path>
                                <path d="M3.53289702,4.41504348 L3.5,4.41304348 C3.96635615,4.41304348 4.38371477,4.71382374 4.66285588,5.18746367 C4.4384337,5.3235515 4.05252313,5.41304348 3.61413043,5.41304348 C3.05284104,5.41304348 2.57758334,5.26634313 2.41689702,5.06396258 C2.65899932,4.71045033 2.98422541,4.47587113 3.34697258,4.4239381 L3.46772022,4.41640734 L3.53289702,4.41504348 Z" id="形状结合" fill-opacity="0.1" fill="#000000"></path>
                                <polygon id="矩形" fill="#F1F4F8" points="3.04347826 5.32608696 3.5 5.47826087 3.04347826 5.63043478"></polygon>
                                <polygon id="矩形备份-2" fill="#F1F4F8" transform="translate(3.7283, 5.4783) scale(-1, 1) translate(-3.7283, -5.4783)" points="3.5 5.32608696 3.95652174 5.47826087 3.5 5.63043478"></polygon>
                                <rect id="矩形" fill="#F1F4F8" x="3.34782609" y="5.40217391" width="1" height="1" rx="0.0760869565"></rect>
                                <ellipse id="椭圆形备份-2" fill="#DBDEE3" cx="3.5" cy="3.34782609" rx="1.97826087" ry="1.82608696"></ellipse>
                            </g>
                            <ellipse id="椭圆形备份-2" fill="#FFFFFF" cx="3.5" cy="3.34782609" rx="1.67391304" ry="1.52173913"></ellipse>
                            <path d="M3.84339843,3.04348149 C3.88541644,3.04404261 3.91902937,3.07855434 3.91848177,3.12057235 C3.91525181,3.3648755 3.78012395,3.50000337 3.53804685,3.50000337 C3.29596975,3.50000337 3.16084188,3.3648755 3.15761192,3.12057235 C3.15706432,3.07855434 3.19067725,3.04404261 3.23269526,3.04348149 C3.27471327,3.04293389 3.30922499,3.07654682 3.30977936,3.11856482 C3.31191001,3.28005877 3.3796807,3.34782945 3.53804685,3.34782945 C3.69641299,3.34782945 3.76418368,3.28005877 3.76631434,3.11856482 C3.7668687,3.07654682 3.80138042,3.04293389 3.84339843,3.04348149 Z" id="路径-93" fill="#DBDEE3" fill-rule="nonzero"></path>
                            <path d="M4.14774626,3.04348149 C4.18976427,3.04404261 4.22337719,3.07855434 4.22282959,3.12057235 C4.21959964,3.3648755 4.08447177,3.50000337 3.84239467,3.50000337 C3.60031757,3.50000337 3.46518971,3.3648755 3.46195975,3.12057235 C3.46141215,3.07855434 3.49502508,3.04404261 3.53704309,3.04348149 C3.57906109,3.04293389 3.61357282,3.07654682 3.61412718,3.11856482 C3.61625784,3.28005877 3.68402852,3.34782945 3.84239467,3.34782945 C4.00076082,3.34782945 4.0685315,3.28005877 4.07066216,3.11856482 C4.07121652,3.07654682 4.10572825,3.04293389 4.14774626,3.04348149 Z" id="路径-93备份" fill="#DBDEE3" fill-rule="nonzero"></path>
                            <ellipse id="椭圆形备份-3" fill="#DBDEE3" cx="4.26086957" cy="2.85326087" rx="1" ry="1"></ellipse>
                            <ellipse id="椭圆形备份-4" fill="#DBDEE3" cx="2.73913043" cy="2.85326087" rx="1" ry="1"></ellipse>
                            <rect id="矩形" fill="#F1F4F8" x="2.43478261" y="3.19565217" width="1" height="1" rx="0.152173913"></rect>
                            <rect id="矩形备份" fill="#F1F4F8" x="4.10869565" y="3.19565217" width="1" height="1" rx="0.152173913"></rect>
                            <path d="M4.26086957,1.73097826 L4.11715026,2.59281732 C3.94303054,2.43341968 3.73003019,2.33967391 3.5,2.33967391 C3.26996981,2.33967391 3.05696946,2.43341968 2.88284974,2.59281732 L2.73913043,1.73097826 L4.26086957,1.73097826 Z" id="形状结合" fill="#DBDEE3"></path>
                            <circle id="椭圆形" fill="#DBDEE3" cx="3.95652174" cy="1.06521739" r="1"></circle>
                            <path d="M4.12438744,1.00558717 L4.24969146,1.07265935 L4.23475941,1.08909216 C4.1960896,1.13108096 4.11826627,1.21293208 4.11734574,1.21392132 C3.87627357,1.47298872 3.81058329,1.66825183 3.95389902,1.96393776 L3.81148424,2.00558717 C3.65080123,1.67406944 3.72262082,1.44299695 3.97680147,1.1633899 L4.10928191,1.02218523 C4.11554645,1.01539496 4.12075394,1.00968297 4.12438744,1.00558717 Z" id="路径-96" fill="#DBDEE3" fill-rule="nonzero"></path>
                        </g>
                        <g id="编组-2" transform="translate(59.3156, 111.8378)">
                            <g id="编组">
                                <circle id="椭圆形" fill="#F1F4F8" cx="3.5" cy="3.5" r="3.5"></circle>
                                <path d="M3.5,4.41304348 C4.34043331,4.41304348 5.02173913,5.23061046 5.02173913,6.23913043 C5.02173913,6.26332466 5.02134703,6.28740899 5.02057004,6.31137478 C4.56839584,6.55647979 4.05045065,6.69565217 3.5,6.69565217 C2.94954643,6.69565217 2.43159866,6.55647832 1.97942513,6.31139905 C1.97865297,6.28740899 1.97826087,6.26332466 1.97826087,6.23913043 C1.97826087,5.23061046 2.65956669,4.41304348 3.5,4.41304348 Z" id="路径" fill="#DBDEE3"></path>
                                <path d="M3.53289702,4.41504348 L3.5,4.41304348 C3.96635615,4.41304348 4.38371477,4.71382374 4.66285588,5.18746367 C4.4384337,5.3235515 4.05252313,5.41304348 3.61413043,5.41304348 C3.05284104,5.41304348 2.57758334,5.26634313 2.41689702,5.06396258 C2.65899932,4.71045033 2.98422541,4.47587113 3.34697258,4.4239381 L3.46772022,4.41640734 L3.53289702,4.41504348 Z" id="形状结合" fill-opacity="0.1" fill="#000000"></path>
                                <polygon id="矩形" fill="#F1F4F8" points="3.04347826 5.32608696 3.5 5.47826087 3.04347826 5.63043478"></polygon>
                                <polygon id="矩形备份-2" fill="#F1F4F8" transform="translate(3.7283, 5.4783) scale(-1, 1) translate(-3.7283, -5.4783)" points="3.5 5.32608696 3.95652174 5.47826087 3.5 5.63043478"></polygon>
                                <rect id="矩形" fill="#F1F4F8" x="3.34782609" y="5.40217391" width="1" height="1" rx="0.0760869565"></rect>
                                <ellipse id="椭圆形备份-2" fill="#DBDEE3" cx="3.5" cy="3.34782609" rx="1.97826087" ry="1.82608696"></ellipse>
                            </g>
                            <ellipse id="椭圆形备份-2" fill="#FFFFFF" cx="3.5" cy="3.34782609" rx="1.67391304" ry="1.52173913"></ellipse>
                            <path d="M3.84339843,3.04348149 C3.88541644,3.04404261 3.91902937,3.07855434 3.91848177,3.12057235 C3.91525181,3.3648755 3.78012395,3.50000337 3.53804685,3.50000337 C3.29596975,3.50000337 3.16084188,3.3648755 3.15761192,3.12057235 C3.15706432,3.07855434 3.19067725,3.04404261 3.23269526,3.04348149 C3.27471327,3.04293389 3.30922499,3.07654682 3.30977936,3.11856482 C3.31191001,3.28005877 3.3796807,3.34782945 3.53804685,3.34782945 C3.69641299,3.34782945 3.76418368,3.28005877 3.76631434,3.11856482 C3.7668687,3.07654682 3.80138042,3.04293389 3.84339843,3.04348149 Z" id="路径-93" fill="#DBDEE3" fill-rule="nonzero"></path>
                            <path d="M4.14774626,3.04348149 C4.18976427,3.04404261 4.22337719,3.07855434 4.22282959,3.12057235 C4.21959964,3.3648755 4.08447177,3.50000337 3.84239467,3.50000337 C3.60031757,3.50000337 3.46518971,3.3648755 3.46195975,3.12057235 C3.46141215,3.07855434 3.49502508,3.04404261 3.53704309,3.04348149 C3.57906109,3.04293389 3.61357282,3.07654682 3.61412718,3.11856482 C3.61625784,3.28005877 3.68402852,3.34782945 3.84239467,3.34782945 C4.00076082,3.34782945 4.0685315,3.28005877 4.07066216,3.11856482 C4.07121652,3.07654682 4.10572825,3.04293389 4.14774626,3.04348149 Z" id="路径-93备份" fill="#DBDEE3" fill-rule="nonzero"></path>
                            <ellipse id="椭圆形备份-3" fill="#DBDEE3" cx="4.26086957" cy="2.85326087" rx="1" ry="1"></ellipse>
                            <ellipse id="椭圆形备份-4" fill="#DBDEE3" cx="2.73913043" cy="2.85326087" rx="1" ry="1"></ellipse>
                            <rect id="矩形" fill="#F1F4F8" x="2.43478261" y="3.19565217" width="1" height="1" rx="0.152173913"></rect>
                            <rect id="矩形备份" fill="#F1F4F8" x="4.10869565" y="3.19565217" width="1" height="1" rx="0.152173913"></rect>
                            <path d="M4.26086957,1.73097826 L4.11715026,2.59281732 C3.94303054,2.43341968 3.73003019,2.33967391 3.5,2.33967391 C3.26996981,2.33967391 3.05696946,2.43341968 2.88284974,2.59281732 L2.73913043,1.73097826 L4.26086957,1.73097826 Z" id="形状结合" fill="#DBDEE3"></path>
                            <circle id="椭圆形" fill="#DBDEE3" cx="3.95652174" cy="1.06521739" r="1"></circle>
                            <path d="M4.12438744,1.00558717 L4.24969146,1.07265935 L4.23475941,1.08909216 C4.1960896,1.13108096 4.11826627,1.21293208 4.11734574,1.21392132 C3.87627357,1.47298872 3.81058329,1.66825183 3.95389902,1.96393776 L3.81148424,2.00558717 C3.65080123,1.67406944 3.72262082,1.44299695 3.97680147,1.1633899 L4.10928191,1.02218523 C4.11554645,1.01539496 4.12075394,1.00968297 4.12438744,1.00558717 Z" id="路径-96" fill="#DBDEE3" fill-rule="nonzero"></path>
                        </g>
                        <path d="M74.15,85.6844444 L103.81,85.6844444 C104.720043,85.6844444 105.457778,86.4221797 105.457778,87.3322222 L105.457778,90.6277778 C105.457778,91.5378203 104.720043,92.2755556 103.81,92.2755556 L74.15,92.2755556 C73.2399575,92.2755556 72.5022222,91.5378203 72.5022222,90.6277778 L72.5022222,87.3322222 C72.5022222,86.4221797 73.2399575,85.6844444 74.15,85.6844444 Z" id="矩形" fill="#E9ECF0"></path>
                        <path d="M143.356667,85.6844444 L156.538889,85.6844444 C157.448931,85.6844444 158.186667,86.4221797 158.186667,87.3322222 L158.186667,90.6277778 C158.186667,91.5378203 157.448931,92.2755556 156.538889,92.2755556 L143.356667,92.2755556 C142.446624,92.2755556 141.708889,91.5378203 141.708889,90.6277778 L141.708889,87.3322222 C141.708889,86.4221797 142.446624,85.6844444 143.356667,85.6844444 Z" id="矩形备份-9" fill="#E9ECF0"></path>
                        <path d="M74.15,98.8666667 L123.583333,98.8666667 C124.493376,98.8666667 125.231111,99.6044019 125.231111,100.514444 L125.231111,103.81 C125.231111,104.720043 124.493376,105.457778 123.583333,105.457778 L74.15,105.457778 C73.2399575,105.457778 72.5022222,104.720043 72.5022222,103.81 L72.5022222,100.514444 C72.5022222,99.6044019 73.2399575,98.8666667 74.15,98.8666667 Z" id="矩形备份-7" fill="#E9ECF0"></path>
                        <path d="M74.15,112.048889 L113.696667,112.048889 C114.606709,112.048889 115.344444,112.786624 115.344444,113.696667 L115.344444,116.992222 C115.344444,117.902265 114.606709,118.64 113.696667,118.64 L74.15,118.64 C73.2399575,118.64 72.5022222,117.902265 72.5022222,116.992222 L72.5022222,113.696667 C72.5022222,112.786624 73.2399575,112.048889 74.15,112.048889 Z" id="矩形备份-8" fill="#E9ECF0"></path>
                        <g id="椭圆形">
                            <use fill="currentColor" xlink:href="#path-7"></use>
                            <use fill-opacity="0.8" fill="#FFFFFF" xlink:href="#path-7"></use>
                        </g>
                        <circle id="椭圆形备份-3" fill="#E6F2FE" cx="168.073333" cy="102.162222" r="3.29555556"></circle>
                        <circle id="椭圆形备份-4" fill="#ECF7F2" cx="168.073333" cy="115.344444" r="3.29555556"></circle>
                        <g id="路径-4" transform="translate(58.9081, 78.6814)" fill="#F1F4F8" fill-rule="nonzero">
                            <path d="M112.460833,0 C112.688344,0 112.872778,0.223857625 112.872778,0.5 C112.872778,0.776142375 112.688344,1 112.460833,1 L0.411944444,1 C0.18443381,1 0,0.776142375 0,0.5 C0,0.223857625 0.18443381,0 0.411944444,0 L112.460833,0 Z" id="路径-3"></path>
                        </g>
                    </g>
                    <g id="前景/审批中" transform="translate(179.866, 20)">
                        <g id="矩形">
                            <use fill="black" fill-opacity="1" filter="url(#filter-9)" xlink:href="#path-8"></use>
                            <use fill="#FFFFFF" fill-rule="evenodd" xlink:href="#path-8"></use>
                        </g>
                        <g id="矩形">
                            <use fill="currentColor" xlink:href="#path-10"></use>
                            <use fill-opacity="0.8" fill="#FFFFFF" xlink:href="#path-10"></use>
                        </g>
                        <g id="矩形">
                            <use fill="currentColor" xlink:href="#path-11"></use>
                            <use fill-opacity="0.8" fill="#FFFFFF" xlink:href="#path-11"></use>
                        </g>
                        <path d="M31.1018056,19.7733333 L67.3529167,19.7733333 C68.2629592,19.7733333 69.0006944,20.5110686 69.0006944,21.4211111 C69.0006944,22.3311536 68.2629592,23.0688889 67.3529167,23.0688889 L31.1018056,23.0688889 C30.191763,23.0688889 29.4540278,22.3311536 29.4540278,21.4211111 C29.4540278,20.5110686 30.191763,19.7733333 31.1018056,19.7733333 Z" id="矩形备份-10" fill="#F1F4F8"></path>
                        <g id="路径-7" transform="translate(5.9732, 28.8361)" fill="#F1F4F8" fill-rule="nonzero">
                            <path d="M89.3919444,0 C89.6194551,0 89.8038889,0.223857625 89.8038889,0.5 C89.8038889,0.776142375 89.6194551,1 89.3919444,1 L0.411944444,1 C0.18443381,1 0,0.776142375 0,0.5 C0,0.223857625 0.18443381,0 0.411944444,0 L89.3919444,0 Z" id="路径-6"></path>
                        </g>
                        <path d="M8.04810185,36.2511111 L94.5221759,36.2511111 C95.440605,36.2511111 96.1851389,36.9888464 96.1851389,37.8988889 L96.1851389,41.1944444 C96.1851389,42.104487 95.440605,42.8422222 94.5221759,42.8422222 L8.04810185,42.8422222 C7.12967277,42.8422222 6.38513889,42.104487 6.38513889,41.1944444 L6.38513889,37.8988889 C6.38513889,36.9888464 7.12967277,36.2511111 8.04810185,36.2511111 Z" id="矩形" fill="#F1F4F8"></path>
                        <g id="编组" transform="translate(10.2986, 9.8867)" fill="currentColor" fill-rule="nonzero">
                            <path d="M0.209513032,8.89708493 L8.64729252,8.89708493 C8.76311029,8.89708493 8.85680556,8.99120631 8.85680556,9.1075508 L8.85680556,9.6762008 C8.85680556,9.79254529 8.76311029,9.88666667 8.64729252,9.88666667 L0.209513032,9.88666667 C0.0936952689,9.88666667 0,9.79254529 0,9.6762008 L0,9.1075508 C0,8.99120631 0.0936952689,8.89708493 0.209513032,8.89708493 Z M8.20224,6.26037904 L6.54435427,6.26037904 C6.10320571,6.26037904 5.73493125,5.92049628 5.69979552,5.47864868 C5.60740158,4.28383005 6.88920491,3.71256556 6.88920491,2.24714796 C6.88920491,1.00265415 5.9457456,0 4.42840278,0 C2.91105995,0 1.96890197,1.00396139 1.96890197,2.24714796 C1.96890197,3.71256556 3.2507053,4.28383005 3.15831136,5.47864868 C3.12187431,5.92049628 2.75490117,6.26037904 2.31375261,6.26037904 L0.654565559,6.26037904 C0.292797715,6.26037904 0,6.55450835 0,6.91792146 L0,8.0277694 C0,8.14411389 0.0936952689,8.23823527 0.209513032,8.23823527 L8.64729252,8.23823527 C8.76311029,8.23823527 8.85680556,8.14411389 8.85680556,8.0277694 L8.85680556,6.91792146 C8.85680556,6.55581559 8.56400784,6.26037904 8.20224,6.26037904 Z" id="形状"></path>
                        </g>
                        <rect id="矩形" fill="#FFFFFF" x="36.0451389" y="9.88666667" width="9.88666667" height="3.29555556" rx="1.64777778"></rect>
                    </g>
                </g>
                <g id="椭圆形" transform="translate(40, 125)">
                    <use fill="black" fill-opacity="1" filter="url(#filter-13)" xlink:href="#path-12"></use>
                    <use fill="#FFFFFF" fill-rule="evenodd" xlink:href="#path-12"></use>
                </g>
                <g id="Icon/mode_edit" transform="translate(48, 133)">
                    <path d="M3.75,16.8129667 L3.75,20.25 L7.18703332,20.25 L17.3239902,10.1130431 L13.8869569,6.67600975 L3.75,16.8129667 Z M19.9819627,7.45507062 C20.1535651,7.28381966 20.25,7.05134245 20.25,6.80890836 C20.25,6.56647426 20.1535651,6.33399705 19.9819627,6.16274609 L17.8372539,4.0180373 C17.6660029,3.84643485 17.4335257,3.75 17.1910916,3.75 C16.9486575,3.75 16.7161803,3.84643485 16.5449294,4.0180373 L14.8676571,5.69530956 L18.3046904,9.13234288 L19.9819627,7.45507062 Z" id="icon" fill="currentColor"></path>
                    <rect id="mode_edit" x="0" y="0" width="24" height="24"></rect>
                </g>
            </g>
        </g>
    </g>
</svg>