<?xml version="1.0" encoding="UTF-8"?>
<svg width="100px" height="16px" viewBox="0 0 100 16" version="1.1" xmlns="http://www.w3.org/2000/svg" xmlns:xlink="http://www.w3.org/1999/xlink">
    <title>编组 62</title>
    <defs>
        <path d="M15.0168221,0.0552935676 L15.0168221,0.680243513 L18.5325313,0.680243513 L18.5325313,1.38332707 L11.1745516,1.38332707 L11.1745516,5.13303589 C11.1407525,7.03400353 10.691915,8.19516274 9.50345071,8.97620878 L9.46683777,9 L9.46683777,8.25784964 C9.97627885,7.69410389 10.1519218,6.77342343 10.1649469,5.39243505 L10.1654332,5.3283699 L10.1654332,0.680243513 L13.8524747,0.680243513 L13.8524747,0.0552935676 L15.0168221,0.0552935676 Z M4.78312851,2.4889606 L5.07294064,3.36510524 L8.07765673,3.36510524 L8.07765673,4.11370423 L2.93996008,7.65739534 C3.04364387,8.02552519 3.51200089,8.08041629 4.44857586,8.05460348 L8.90524507,8.05460348 L8.90524507,8.88141839 L4.21446225,8.88141839 C3.09558774,8.90729523 2.393182,8.67086378 2.10719868,8.17217892 C1.57544844,8.45864442 0.832242241,8.89438883 0,8.92084193 L0,8.09173112 C0.654476092,7.93101847 1.13086156,7.61764252 1.56087486,7.34313213 L6.16047083,4.11370423 L0.507275523,4.11370423 L0.507275523,3.36510524 L4.09737299,3.36510524 L3.80757013,2.4889606 L4.78312851,2.4889606 Z M16.8720703,1.87590174 L16.8720703,3.13895501 L18.2646351,3.13895501 L18.2646351,3.78957141 L17.026845,3.78957141 C17.2789568,5.0637579 17.7913051,6.20379219 18.5631416,7.20852359 L18.6127601,7.27247162 L18.6127601,7.96138648 C17.7540751,7.23706209 17.1799188,6.43929908 16.8901781,5.56760798 L16.8720703,5.51186771 L16.8720703,8.84168386 L15.9437555,8.84168386 L15.9437555,5.55017532 C15.6658666,6.42419428 15.1294732,7.21233148 14.3339072,7.91468968 L14.2804855,7.96138648 L14.2804855,7.27247162 C14.2804855,7.27247162 15.353025,5.95728406 15.7764161,3.8535614 L15.7890457,3.78957141 L14.8993806,3.78957141 L14.8993806,3.13895501 L15.9437555,3.13895501 L15.9437555,1.87590174 L16.8720703,1.87590174 Z M13.5565068,1.87590174 L13.5565068,3.13894586 L14.4465613,3.13894586 L14.4465613,3.78955312 L13.6339637,3.78955312 C13.7367111,4.50419847 14.112157,5.42081855 14.6816205,6.18067749 C14.6816205,6.18067749 14.5533693,6.46524041 14.3955074,6.66690415 C13.9521582,6.15351935 13.7218418,5.81953026 13.5687529,5.49951641 L13.5565068,5.4735967 L13.5565068,8.84168386 L12.6277934,8.84168386 L12.6277934,5.66497922 C12.3524894,6.45635068 11.9324723,7.18710026 11.3672196,7.85832566 L11.3120643,7.92309717 L11.3120643,7.04279979 C11.8373649,6.10277727 12.2291415,5.05482044 12.4878167,3.89829543 L12.5116776,3.78955312 L11.5055721,3.78955312 L11.5055721,3.13894586 L12.6277934,3.13894586 L12.6277934,1.87590174 L13.5565068,1.87590174 Z M58.4055944,0.27247975 L58.4055944,7.24236887 C58.4055944,8.07657065 57.9642644,8.50496751 57.0937149,8.51624313 L57.0581873,8.5164717 L56.1827527,8.5164717 L56.1827527,7.82045877 L56.7434461,7.82045877 C56.9615863,7.83350238 57.1141824,7.79745409 57.1990096,7.71366764 C57.2618477,7.6515567 57.2910342,7.55852643 57.2858815,7.43686804 L57.2843929,7.41215534 L57.2843002,5.69398433 L55.0617367,5.69398433 L55.0617367,8.4881892 L53.9011346,8.4881892 L53.9011346,5.69398433 L51.6813523,5.69391115 L51.6812595,5.71204964 C51.6697638,6.95439411 51.0851519,7.82396207 49.8091294,8.50792841 L49.7643518,8.53171974 L49.691762,8.56997246 L49.691762,7.86773043 L49.708542,7.85334221 C50.3128413,7.33828858 50.5991804,6.67214659 50.5593546,5.6244566 L50.5570914,5.57175307 L50.5570914,0.27247975 L58.4055944,0.27247975 Z M42.5533966,0 L41.5336168,2.28331792 L41.8519735,2.28331792 L41.8519735,8.4922962 L40.7343876,8.4922962 L40.7343876,3.28467574 L39.8371669,3.28467574 L41.3618303,0 L42.5533966,0 Z M48.4252883,5.32998892 L48.4252883,7.29368349 C48.4385454,7.6997825 48.3410174,8.00810017 48.1351146,8.2085565 C47.94182,8.39684734 47.6505338,8.4921407 47.2686726,8.4921407 L47.2318099,8.49185257 L47.2318099,8.49185257 L47.1943214,8.49098818 L42.859794,8.49098818 L42.859794,5.32998892 L48.4252883,5.32998892 Z M33.6873388,0.148208714 L33.6873388,7.78198652 L35.0443875,7.78198652 L35.0443875,0.148208714 L36.1656817,0.148208714 L36.1656817,7.78198652 L38.9981663,7.78198652 L38.9981663,8.49104306 L29.8122686,8.49104306 L29.8122686,7.78198652 L32.5660447,7.78198652 L32.5660447,0.148208714 L33.6873388,0.148208714 Z M25.1504938,2.69909445 L25.1504938,4.55752543 L27.7468438,4.55752543 L27.7468438,5.34307827 L25.1504938,5.34307827 L25.1504938,7.78198652 L28.6517592,7.78198652 L28.6517592,8.49104306 L19.8591071,8.49104306 L19.8591071,7.78198652 L21.1967429,7.78198652 L21.1967429,4.11671359 L22.3180185,4.11671359 L22.3180185,7.78198652 L23.9898454,7.78198652 L23.9898454,2.69909445 L25.1504938,2.69909445 Z M47.3827026,6.07719756 L43.9416876,6.07719756 L43.9416876,7.74368807 L46.8811563,7.74368807 C47.0838144,7.74368807 47.2266763,7.70141067 47.3055701,7.61790778 C47.3638026,7.55643999 47.3897318,7.47192064 47.3844129,7.36014049 L47.3827953,7.3357688 L47.3827026,6.07719756 Z M31.1654236,1.69009889 L31.1693173,1.73391298 C31.2954107,3.16081489 31.5348698,4.49703291 31.8811204,5.70769814 L31.9149617,5.82446617 L31.9331323,5.88563211 L30.9276295,5.88563211 L30.9162265,5.85313284 C30.531965,4.75508814 30.2568295,3.40777535 30.0981105,1.84691212 L30.0877018,1.7425386 L30.0826029,1.69009889 L31.1654236,1.69009889 Z M38.689173,1.69007145 L38.6832398,1.7432795 C38.5038492,3.31302857 38.2334328,4.66959261 37.8792703,5.77702471 L37.8549932,5.85214497 L37.8440537,5.88559552 L36.8388291,5.88559552 L36.8558872,5.82500584 C37.2331748,4.47771854 37.4802578,3.14673104 37.5907719,1.86652253 L37.601717,1.73426971 L37.6051472,1.69007145 L38.689173,1.69007145 Z M53.9010419,3.3568821 L51.6783856,3.3568821 L51.6783856,4.94677569 L53.9010419,4.94677569 L53.9010419,3.3568821 Z M57.2843002,3.3568821 L55.0617367,3.3568821 L55.0617367,4.94677569 L57.2843002,4.94677569 L57.2843002,3.3568821 Z M48.4264935,3.75914852 L48.4264935,4.46801297 L42.8203934,4.46801297 L42.8203934,3.75914852 L48.4264935,3.75914852 Z M24.9320477,0.181512913 L24.9464174,0.204325511 C25.7641843,1.49878066 27.0802413,2.53819965 28.8589302,3.29438225 L28.9365559,3.32708119 L28.9664076,3.33964002 L28.9664076,4.04781844 L28.9036448,4.03027451 C27.0086438,3.49954773 25.4651793,2.59339181 24.3148585,1.33664082 C23.2305333,2.55063056 21.7159961,3.4480948 19.811063,4.00536654 L19.7255067,4.03009157 L19.6624101,4.04820262 L19.6624101,3.3398321 L19.6919374,3.32717266 C21.5093742,2.55466795 22.8399783,1.52263961 23.6480072,0.258822997 L23.682317,0.204517598 L23.6966866,0.181512913 L24.9320477,0.181512913 Z M48.4264935,2.28391247 L48.4264935,3.03112112 L42.8203934,3.03112112 L42.8203934,2.28391247 L48.4264935,2.28391247 Z M57.2843002,1.09618469 L55.0617367,1.09618469 L55.0617367,2.60958198 L57.2843002,2.60958198 L57.2843002,1.09618469 Z M53.9010419,1.09618469 L51.6783856,1.09618469 L51.6783856,2.60958198 L53.9010419,2.60958198 L53.9010419,1.09618469 Z M3.19984631,0.0552935676 L3.19984631,0.843325237 L5.69729615,0.843325237 L5.69729615,0.0552935676 L6.71191209,0.0552935676 L6.71191209,0.843325237 L8.90524507,0.843325237 L8.90524507,1.55255557 L6.71191209,1.55255557 L6.71191209,2.4982265 L5.69729615,2.4982265 L5.69729615,1.55255557 L3.19984631,1.55255557 L3.19984631,2.4982265 L2.18523964,2.4982265 L2.18523964,1.55255557 L0,1.55255557 L0,0.843325237 L2.18523964,0.843325237 L2.18523964,0.0552935676 L3.19984631,0.0552935676 Z M46.262799,0 L46.262799,0.766280122 L48.8065932,0.766280122 L48.8065932,1.51348876 L42.5189095,1.51348876 L42.5189095,0.766280122 L45.0627964,0.766280122 L45.0627964,0 L46.262799,0 Z" id="path-1"></path>
        <path d="M4.98323703,0 C5.41840447,0 5.77117473,0.35224 5.77117473,0.786753333 C5.77117473,0.85352 5.76266193,0.920006667 5.74584999,0.984626667 L5.73246988,1.03604 C5.62341262,1.45506667 5.19480838,1.70648667 4.7751576,1.59759333 C4.72304594,1.58407333 4.67246992,1.56524 4.62422406,1.54138667 C4.14430936,1.3041 3.56250151,1.49563333 3.31803405,1.97139333 L2.91266473,2.76012667 C3.48841682,2.51614 4.12205591,2.38112667 4.78738932,2.38112667 C5.36046405,2.38112667 5.91002343,2.48129333 6.41932897,2.66498 L6.90122665,1.27280667 C7.16490299,0.51104 7.88331618,0 8.69050948,0 L9.02036529,0 C9.45553273,0 9.80830298,0.35224 9.80830298,0.786753333 C9.80830298,0.85352 9.79979019,0.920006667 9.78297158,0.984626667 L9.76959146,1.03604 C9.66054088,1.45506667 9.23193664,1.70648667 8.81227918,1.59759333 C8.7601742,1.58407333 8.70959817,1.56524 8.66135232,1.54138667 C8.18143095,1.3041 7.59962977,1.49563333 7.3551623,1.97139333 L6.89526436,2.86639333 C8.48236328,3.64185333 9.57477864,5.26571333 9.57477864,7.14338667 C9.57477864,7.79440667 9.44345458,8.41491333 9.20572391,8.98012667 L9.84953162,9.46281333 C10.649474,10.0624467 10.811117,11.1960467 10.2105877,11.99478 L10.208618,11.9973933 L10.2066484,12 L8.19286146,10.4905133 C7.32496358,11.3642333 6.11973198,11.90564 4.78738932,11.90564 C2.14338842,11.90564 0,9.77350667 0,7.14338667 C0,5.45108 0.887373823,3.96494 2.22451703,3.12028667 L2.8640984,1.27280667 C3.12778141,0.51104 3.8461946,0 4.6533879,0 L4.98323703,0 Z M4.7827223,4.33186667 C3.22394595,4.33186667 1.96031324,5.58887333 1.96031324,7.13946667 C1.96031324,8.69006 3.22394595,9.94706667 4.7827223,9.94706667 C6.34150533,9.94706667 7.60513805,8.69006 7.60513805,7.13946667 C7.60513805,5.58887333 6.34150533,4.33186667 4.7827223,4.33186667 Z" id="path-3"></path>
        <path d="M1.61781175,0 C2.51130811,0 3.23563018,0.723233333 3.23563018,1.61538667 C3.23563018,2.50754 2.51130811,3.23077333 1.61781175,3.23077333 C0.724315394,3.23077333 0,2.50754 0,1.61538667 C0,0.723233333 0.724315394,0 1.61781175,0 Z" id="path-5"></path>
    </defs>
    <g id="会员供应商推荐（新）" stroke="none" stroke-width="1" fill="none" fill-rule="evenodd">
        <g id="编组-47">
            <g id="编组-3" transform="translate(0, 2)">
                <g id="编组" transform="translate(13.5944, 2)">
                    <mask id="mask-2" fill="white">
                        <use xlink:href="#path-1"></use>
                    </mask>
                    <g id="Clip-2"></g>
                    <polygon id="Fill-1" fill="#3E3A39" mask="url(#mask-2)" points="-0.0927072486 9.09146992 58.4983017 9.09146992 58.4983017 -0.0914699216 -0.0927072486 -0.0914699216"></polygon>
                </g>
                <g id="编组-2">
                    <g id="编组">
                        <mask id="mask-4" fill="white">
                            <use xlink:href="#path-3"></use>
                        </mask>
                        <g id="Clip-4"></g>
                        <polygon id="Fill-3" fill="#1677FF" mask="url(#mask-4)" points="-0.066767025 12.0666667 10.877884 12.0666667 10.877884 -0.0666666667 -0.066767025 -0.0666666667"></polygon>
                    </g>
                    <g id="编组" transform="translate(3.1779, 5.5385)">
                        <mask id="mask-6" fill="white">
                            <use xlink:href="#path-5"></use>
                        </mask>
                        <g id="Clip-6"></g>
                        <polygon id="Fill-5" fill="#00B6FE" mask="url(#mask-6)" points="-0.066767025 3.29744 3.30239721 3.29744 3.30239721 -0.0666666667 -0.066767025 -0.0666666667"></polygon>
                    </g>
                </g>
            </g>
            <text id="提供" font-family="PingFangSC-Regular, PingFang SC" font-size="10" font-weight="normal" line-spacing="16" fill="#868D9C">
                <tspan x="80" y="11">提供</tspan>
            </text>
        </g>
    </g>
</svg>