<?xml version="1.0" encoding="UTF-8"?>
<svg width="295px" height="164px" viewBox="0 0 295 164" version="1.1" xmlns="http://www.w3.org/2000/svg" xmlns:xlink="http://www.w3.org/1999/xlink">
    <title>编组 7</title>
    <defs>
        <path d="M30.4304056,71.63172 C31.9519259,72.1527075 33.6117662,72.1527075 35.1332864,71.63172 C45.5154248,68.0743517 49.2663384,65.1600776 49.2663384,65.1600776 C60.0553004,57.8011282 60.1529381,48.1302965 60.1529381,48.1302965 L60.1529381,18.0269838 C60.1529381,16.5291445 58.9324673,15.2510969 57.4434929,15.1941139 C49.7870727,14.9254797 38.5017859,9.29230165 34.3765945,7.09438536 C33.3839449,6.56525736 32.19602,6.56525736 31.2033704,7.09438536 C27.0781791,9.29230165 15.7928923,14.9254797 8.13647208,15.1941139 C6.64749769,15.2429565 5.42702688,16.5291445 5.42702688,18.0269838 L5.42702688,48.1302965 C5.42702688,48.1302965 5.52466454,57.8011282 16.3136265,65.1600776 C16.2973536,65.1600776 20.0482672,68.0743517 30.4304056,71.63172 L30.4304056,71.63172 Z" id="path-1"></path>
        <path d="M32.781846,6.69550425 C32.2367024,6.69550425 31.6915588,6.82575114 31.195234,7.09438536 C27.0700426,9.29230165 15.7847558,14.9254797 8.12833561,15.1941139 C6.63936122,15.2429565 5.41889041,16.5291445 5.41889041,18.0269838 L5.41889041,48.1302965 C5.41889041,48.1302965 5.51652807,57.8011282 16.3054901,65.1600776 C16.3054901,65.1600776 20.0564037,68.0743517 30.4385421,71.63172 C31.195234,71.8922137 31.9926082,72.0224606 32.7899825,72.0224606 L32.7899825,6.69550425 L32.781846,6.69550425 Z" id="path-2"></path>
        <path d="M60.1529381,48.1302965 C60.1529381,48.1302965 60.0553004,57.8011282 49.2663384,65.1600776 C49.2663384,65.1600776 47.4681781,66.5602316 42.9198902,68.5953393 L49,72.5806989 C53.4913326,70.3502209 55.2547819,68.9535183 58.2083213,65.6892056 C63.0657951,60.2188361 65.0510943,55.3671394 65.5148732,50.8329195 L60.1529381,43.6612001 L60.1529381,48.1302965 Z" id="path-3"></path>
    </defs>
    <g id="会员供应商推荐（新）" stroke="none" stroke-width="1" fill="none" fill-rule="evenodd">
        <g id="未缴费的供应商" transform="translate(-683, -370)">
            <g id="编组-4" transform="translate(663, 370)">
                <g id="编组-7" transform="translate(20, 0)">
                    <rect id="矩形" fill="#FFFFFF" x="0" y="0" width="295" height="164"></rect>
                    <g id="背景/0" transform="translate(55.7222, 29.52)">
                        <g id="编组">
                            <path d="M3.27777778,0 L180.277778,0 C182.088044,0 183.555556,1.46850602 183.555556,3.28 L183.555556,131.2 C183.555556,133.011494 182.088044,134.48 180.277778,134.48 L3.27777778,134.48 C1.4675111,134.48 0,133.011494 0,131.2 L0,3.28 C0,1.46850602 1.4675111,0 3.27777778,0 Z" id="矩形" fill="#F1F4F8"></path>
                            <path d="M3.27777778,0 L180.277778,0 C182.088044,0 183.555556,1.46850602 183.555556,3.28 L183.555556,13.12 L0,13.12 L0,3.28 C0,1.46850602 1.4675111,0 3.27777778,0 Z" id="矩形" fill="#DBDEE3"></path>
                            <ellipse id="椭圆形" fill="#FFFFFF" cx="9.83333333" cy="6.56" rx="3.27777778" ry="3.28"></ellipse>
                            <ellipse id="椭圆形备份" fill="#FFFFFF" cx="22.9444444" cy="6.56" rx="3.27777778" ry="3.28"></ellipse>
                            <ellipse id="椭圆形备份-2" fill="#FFFFFF" cx="36.0555556" cy="6.56" rx="3.27777778" ry="3.28"></ellipse>
                        </g>
                        <g id="编组" transform="translate(6.5556, 19.68)">
                            <path d="M3.27777778,7.10542736e-15 L167.166667,7.10542736e-15 C168.976933,7.10542736e-15 170.444444,1.46850602 170.444444,3.28 L170.444444,104.96 C170.444444,106.771494 168.976933,108.24 167.166667,108.24 L3.27777778,108.24 C1.4675111,108.24 0,106.771494 0,104.96 L0,3.28 C0,1.46850602 1.4675111,7.10542736e-15 3.27777778,7.10542736e-15 Z" id="矩形" fill="#FFFFFF"></path>
                            <path d="M8.19444444,6.56 L27.8611111,6.56 C28.7662445,6.56 29.5,7.29425301 29.5,8.2 L29.5,14.76 C29.5,15.665747 28.7662445,16.4 27.8611111,16.4 L8.19444444,16.4 C7.2893111,16.4 6.55555556,15.665747 6.55555556,14.76 L6.55555556,8.2 C6.55555556,7.29425301 7.2893111,6.56 8.19444444,6.56 Z" id="矩形" fill="#E9ECF0"></path>
                            <path d="M14.75,9.84 L21.3055556,9.84 C22.2106889,9.84 22.9444444,10.574253 22.9444444,11.48 C22.9444444,12.385747 22.2106889,13.12 21.3055556,13.12 L14.75,13.12 C13.8448667,13.12 13.1111111,12.385747 13.1111111,11.48 C13.1111111,10.574253 13.8448667,9.84 14.75,9.84 Z" id="矩形" fill="#FFFFFF"></path>
                            <path d="M8.19444444,22.96 L162.25,22.96 C163.155133,22.96 163.888889,23.694253 163.888889,24.6 L163.888889,54.12 C163.888889,55.025747 163.155133,55.76 162.25,55.76 L8.19444444,55.76 C7.2893111,55.76 6.55555556,55.025747 6.55555556,54.12 L6.55555556,24.6 C6.55555556,23.694253 7.2893111,22.96 8.19444444,22.96 Z" id="矩形" fill="#F1F4F8"></path>
                            <path d="M14.75,29.52 L80.3055556,29.52 C81.2106889,29.52 81.9444444,30.254253 81.9444444,31.16 L81.9444444,34.44 C81.9444444,35.345747 81.2106889,36.08 80.3055556,36.08 L14.75,36.08 C13.8448667,36.08 13.1111111,35.345747 13.1111111,34.44 L13.1111111,31.16 C13.1111111,30.254253 13.8448667,29.52 14.75,29.52 Z" id="矩形" fill="#E9ECF0"></path>
                            <path d="M152.416667,29.52 L155.694444,29.52 C156.599578,29.52 157.333333,30.254253 157.333333,31.16 L157.333333,34.44 C157.333333,35.345747 156.599578,36.08 155.694444,36.08 L152.416667,36.08 C151.511533,36.08 150.777778,35.345747 150.777778,34.44 L150.777778,31.16 C150.777778,30.254253 151.511533,29.52 152.416667,29.52 Z" id="矩形备份" fill="#E9ECF0"></path>
                            <polygon id="路径-22" fill="#F1F4F8" fill-rule="nonzero" points="163.888889 61.91 163.888889 62.91 6.55555556 62.91 6.55555556 61.91"></polygon>
                            <path d="M8.19444444,68.88 L11.4722222,68.88 C12.3773556,68.88 13.1111111,69.614253 13.1111111,70.52 L13.1111111,73.8 C13.1111111,74.705747 12.3773556,75.44 11.4722222,75.44 L8.19444444,75.44 C7.2893111,75.44 6.55555556,74.705747 6.55555556,73.8 L6.55555556,70.52 C6.55555556,69.614253 7.2893111,68.88 8.19444444,68.88 Z" id="矩形" fill="#E9ECF0"></path>
                            <path d="M21.3055556,68.88 L70.4722222,68.88 C71.3773556,68.88 72.1111111,69.614253 72.1111111,70.52 L72.1111111,73.8 C72.1111111,74.705747 71.3773556,75.44 70.4722222,75.44 L21.3055556,75.44 C20.4004222,75.44 19.6666667,74.705747 19.6666667,73.8 L19.6666667,70.52 C19.6666667,69.614253 20.4004222,68.88 21.3055556,68.88 Z" id="矩形备份-4" fill="#F1F4F8"></path>
                            <path d="M122.916667,68.88 L136.027778,68.88 C136.932911,68.88 137.666667,69.614253 137.666667,70.52 L137.666667,73.8 C137.666667,74.705747 136.932911,75.44 136.027778,75.44 L122.916667,75.44 C122.011533,75.44 121.277778,74.705747 121.277778,73.8 L121.277778,70.52 C121.277778,69.614253 122.011533,68.88 122.916667,68.88 Z" id="矩形备份-7" fill="#E9ECF0"></path>
                            <path d="M8.19444444,82 L11.4722222,82 C12.3773556,82 13.1111111,82.734253 13.1111111,83.64 L13.1111111,86.92 C13.1111111,87.825747 12.3773556,88.56 11.4722222,88.56 L8.19444444,88.56 C7.2893111,88.56 6.55555556,87.825747 6.55555556,86.92 L6.55555556,83.64 C6.55555556,82.734253 7.2893111,82 8.19444444,82 Z" id="矩形备份-2" fill="#E9ECF0"></path>
                            <path d="M21.3055556,82 L113.083333,82 C113.988467,82 114.722222,82.734253 114.722222,83.64 L114.722222,86.92 C114.722222,87.825747 113.988467,88.56 113.083333,88.56 L21.3055556,88.56 C20.4004222,88.56 19.6666667,87.825747 19.6666667,86.92 L19.6666667,83.64 C19.6666667,82.734253 20.4004222,82 21.3055556,82 Z" id="矩形备份-5" fill="#F1F4F8"></path>
                            <path d="M8.19444444,95.12 L11.4722222,95.12 C12.3773556,95.12 13.1111111,95.854253 13.1111111,96.76 L13.1111111,100.04 C13.1111111,100.945747 12.3773556,101.68 11.4722222,101.68 L8.19444444,101.68 C7.2893111,101.68 6.55555556,100.945747 6.55555556,100.04 L6.55555556,96.76 C6.55555556,95.854253 7.2893111,95.12 8.19444444,95.12 Z" id="矩形备份-3" fill="#E9ECF0"></path>
                            <path d="M21.3055556,95.12 L90.1388889,95.12 C91.0440222,95.12 91.7777778,95.854253 91.7777778,96.76 L91.7777778,100.04 C91.7777778,100.945747 91.0440222,101.68 90.1388889,101.68 L21.3055556,101.68 C20.4004222,101.68 19.6666667,100.945747 19.6666667,100.04 L19.6666667,96.76 C19.6666667,95.854253 20.4004222,95.12 21.3055556,95.12 Z" id="矩形备份-6" fill="#F1F4F8"></path>
                            <g id="编组-2" transform="translate(157.3333, 68.88)">
                                <g id="编组">
                                    <ellipse id="椭圆形" fill="#F1F4F8" cx="3.27777778" cy="3.28" rx="3.27777778" ry="3.28"></ellipse>
                                    <path d="M3.27777778,4.13565217 C4.06485025,4.13565217 4.70289855,4.90182923 4.70289855,5.84695652 C4.70289855,5.86962997 4.70253135,5.89220043 4.70180369,5.91465979 C4.27833896,6.14435821 3.79327918,6.27478261 3.27777778,6.27478261 C2.76227364,6.27478261 2.27721144,6.14435682 1.85374734,5.91468254 C1.85302421,5.89220043 1.852657,5.86962997 1.852657,5.84695652 C1.852657,4.90182923 2.49070531,4.13565217 3.27777778,4.13565217 Z" id="路径" fill="#DBDEE3"></path>
                                    <path d="M3.30418971,4.13765217 L3.27777778,4.13565217 C3.71454337,4.13565217 4.10541833,4.43645911 4.3668363,4.91013535 C4.15779784,5.04587035 3.79588439,5.13565217 3.38466184,5.13565217 C2.85713209,5.13565217 2.41074836,4.98790184 2.26184182,4.78440026 C2.4916639,4.43154064 2.79659594,4.19740953 3.13660824,4.14622186 L3.23718144,4.13954788 L3.30418971,4.13765217 Z" id="形状结合" fill-opacity="0.1" fill="#000000"></path>
                                    <polygon id="矩形" fill="#F1F4F8" points="2.85024155 4.99130435 3.27777778 5.13391304 2.85024155 5.27652174"></polygon>
                                    <polygon id="矩形备份-2" fill="#F1F4F8" transform="translate(3.4915, 5.1339) scale(-1, 1) translate(-3.4915, -5.1339)" points="3.27777778 4.99130435 3.70531401 5.13391304 3.27777778 5.27652174"></polygon>
                                    <rect id="矩形" fill="#F1F4F8" x="3.1352657" y="5.0626087" width="1" height="1" rx="0.0712560386"></rect>
                                    <ellipse id="椭圆形备份-2" fill="#DBDEE3" cx="3.27777778" cy="3.1373913" rx="1.852657" ry="1.71130435"></ellipse>
                                </g>
                                <ellipse id="椭圆形备份-2" fill="#FFFFFF" cx="3.27777778" cy="3.1373913" rx="1.56763285" ry="1.42608696"></ellipse>
                                <path d="M3.85843457,2.85219577 C3.91365726,2.8532341 3.95783347,2.91787511 3.95711378,2.99657551 C3.95286877,3.4541592 3.77527529,3.70725584 3.45713112,3.70725584 C3.13896961,3.70725584 2.96137613,3.4541592 2.95713112,2.99657551 C2.95641143,2.91787511 3.00058764,2.8532341 3.05581033,2.85219577 C3.11103302,2.85115745 3.15639048,2.91411499 3.15711906,2.99281539 C3.1599193,3.29529611 3.24898777,3.42223168 3.45713112,3.42223168 C3.66525713,3.42223168 3.7543256,3.29529611 3.75712584,2.99281539 C3.75785442,2.91411499 3.80321188,2.85115745 3.85843457,2.85219577 Z" id="路径-93" fill="#DBDEE3" fill-rule="nonzero"></path>
                                <path d="M4.14345873,2.85219577 C4.19868142,2.8532341 4.24285763,2.91787511 4.24213793,2.99657551 C4.23789292,3.4541592 4.06029945,3.70725584 3.74215527,3.70725584 C3.42399376,3.70725584 3.24640028,3.4541592 3.24215527,2.99657551 C3.24143558,2.91787511 3.28561179,2.8532341 3.34083448,2.85219577 C3.39605717,2.85115745 3.44141464,2.91411499 3.44214321,2.99281539 C3.44494346,3.29529611 3.53401192,3.42223168 3.74215527,3.42223168 C3.95028128,3.42223168 4.03934975,3.29529611 4.04215,2.99281539 C4.04287857,2.91411499 4.08823604,2.85115745 4.14345873,2.85219577 Z" id="路径-93备份" fill="#DBDEE3" fill-rule="nonzero"></path>
                                <ellipse id="椭圆形备份-3" fill="#DBDEE3" cx="3.99033816" cy="2.67391304" rx="1" ry="1"></ellipse>
                                <ellipse id="椭圆形备份-4" fill="#DBDEE3" cx="2.56521739" cy="2.67391304" rx="1" ry="1"></ellipse>
                                <rect id="矩形" fill="#F1F4F8" x="2.28019324" y="2.99478261" width="1" height="1" rx="0.142512077"></rect>
                                <rect id="矩形备份" fill="#F1F4F8" x="3.84782609" y="2.99478261" width="1" height="1" rx="0.142512077"></rect>
                                <path d="M3.99033816,1.62217391 L3.85548188,2.62121479 C3.69246574,2.43656716 3.49308751,2.3279815 3.27777778,2.3279815 C3.06208965,2.3279815 2.86238906,2.43694917 2.69921452,2.62218903 L2.56521739,1.62217391 L3.99033816,1.62217391 Z" id="形状结合" fill="#DBDEE3"></path>
                                <ellipse id="椭圆形" fill="#DBDEE3" cx="3.70531401" cy="0.99826087" rx="1" ry="1"></ellipse>
                                <path d="M4.23561081,0.94237883 L4.47030723,1.00945102 L4.44233926,1.02588383 C4.36991008,1.06787262 4.22414575,1.14972374 4.22242159,1.15071298 C3.77088958,1.40978038 3.64785065,1.60504349 3.91628329,1.90072942 L3.64953813,1.94237883 C3.34857631,1.61086111 3.48309554,1.37978861 3.95917993,1.10018157 L4.20731791,0.958976895 C4.21905149,0.952186626 4.22880519,0.946474635 4.23561081,0.94237883 Z" id="路径-96" fill="#DBDEE3" fill-rule="nonzero"></path>
                            </g>
                            <g id="编组-2" transform="translate(157.3333, 82)">
                                <g id="编组">
                                    <ellipse id="椭圆形" fill="#F1F4F8" cx="3.27777778" cy="3.28" rx="3.27777778" ry="3.28"></ellipse>
                                    <path d="M3.27777778,4.13565217 C4.06485025,4.13565217 4.70289855,4.90182923 4.70289855,5.84695652 C4.70289855,5.86962997 4.70253135,5.89220043 4.70180369,5.91465979 C4.27833896,6.14435821 3.79327918,6.27478261 3.27777778,6.27478261 C2.76227364,6.27478261 2.27721144,6.14435682 1.85374734,5.91468254 C1.85302421,5.89220043 1.852657,5.86962997 1.852657,5.84695652 C1.852657,4.90182923 2.49070531,4.13565217 3.27777778,4.13565217 Z" id="路径" fill="#DBDEE3"></path>
                                    <path d="M3.30418971,4.13765217 L3.27777778,4.13565217 C3.71454337,4.13565217 4.10541833,4.43645911 4.3668363,4.91013535 C4.15779784,5.04587035 3.79588439,5.13565217 3.38466184,5.13565217 C2.85713209,5.13565217 2.41074836,4.98790184 2.26184182,4.78440026 C2.4916639,4.43154064 2.79659594,4.19740953 3.13660824,4.14622186 L3.23718144,4.13954788 L3.30418971,4.13765217 Z" id="形状结合" fill-opacity="0.1" fill="#000000"></path>
                                    <polygon id="矩形" fill="#F1F4F8" points="2.85024155 4.99130435 3.27777778 5.13391304 2.85024155 5.27652174"></polygon>
                                    <polygon id="矩形备份-2" fill="#F1F4F8" transform="translate(3.4915, 5.1339) scale(-1, 1) translate(-3.4915, -5.1339)" points="3.27777778 4.99130435 3.70531401 5.13391304 3.27777778 5.27652174"></polygon>
                                    <rect id="矩形" fill="#F1F4F8" x="3.1352657" y="5.0626087" width="1" height="1" rx="0.0712560386"></rect>
                                    <ellipse id="椭圆形备份-2" fill="#DBDEE3" cx="3.27777778" cy="3.1373913" rx="1.852657" ry="1.71130435"></ellipse>
                                </g>
                                <ellipse id="椭圆形备份-2" fill="#FFFFFF" cx="3.27777778" cy="3.1373913" rx="1.56763285" ry="1.42608696"></ellipse>
                                <path d="M3.85843457,2.85219577 C3.91365726,2.8532341 3.95783347,2.91787511 3.95711378,2.99657551 C3.95286877,3.4541592 3.77527529,3.70725584 3.45713112,3.70725584 C3.13896961,3.70725584 2.96137613,3.4541592 2.95713112,2.99657551 C2.95641143,2.91787511 3.00058764,2.8532341 3.05581033,2.85219577 C3.11103302,2.85115745 3.15639048,2.91411499 3.15711906,2.99281539 C3.1599193,3.29529611 3.24898777,3.42223168 3.45713112,3.42223168 C3.66525713,3.42223168 3.7543256,3.29529611 3.75712584,2.99281539 C3.75785442,2.91411499 3.80321188,2.85115745 3.85843457,2.85219577 Z" id="路径-93" fill="#DBDEE3" fill-rule="nonzero"></path>
                                <path d="M4.14345873,2.85219577 C4.19868142,2.8532341 4.24285763,2.91787511 4.24213793,2.99657551 C4.23789292,3.4541592 4.06029945,3.70725584 3.74215527,3.70725584 C3.42399376,3.70725584 3.24640028,3.4541592 3.24215527,2.99657551 C3.24143558,2.91787511 3.28561179,2.8532341 3.34083448,2.85219577 C3.39605717,2.85115745 3.44141464,2.91411499 3.44214321,2.99281539 C3.44494346,3.29529611 3.53401192,3.42223168 3.74215527,3.42223168 C3.95028128,3.42223168 4.03934975,3.29529611 4.04215,2.99281539 C4.04287857,2.91411499 4.08823604,2.85115745 4.14345873,2.85219577 Z" id="路径-93备份" fill="#DBDEE3" fill-rule="nonzero"></path>
                                <ellipse id="椭圆形备份-3" fill="#DBDEE3" cx="3.99033816" cy="2.67391304" rx="1" ry="1"></ellipse>
                                <ellipse id="椭圆形备份-4" fill="#DBDEE3" cx="2.56521739" cy="2.67391304" rx="1" ry="1"></ellipse>
                                <rect id="矩形" fill="#F1F4F8" x="2.28019324" y="2.99478261" width="1" height="1" rx="0.142512077"></rect>
                                <rect id="矩形备份" fill="#F1F4F8" x="3.84782609" y="2.99478261" width="1" height="1" rx="0.142512077"></rect>
                                <path d="M3.99033816,1.62217391 L3.85548188,2.62121479 C3.69246574,2.43656716 3.49308751,2.3279815 3.27777778,2.3279815 C3.06208965,2.3279815 2.86238906,2.43694917 2.69921452,2.62218903 L2.56521739,1.62217391 L3.99033816,1.62217391 Z" id="形状结合" fill="#DBDEE3"></path>
                                <ellipse id="椭圆形" fill="#DBDEE3" cx="3.70531401" cy="0.99826087" rx="1" ry="1"></ellipse>
                                <path d="M4.23561081,0.94237883 L4.47030723,1.00945102 L4.44233926,1.02588383 C4.36991008,1.06787262 4.22414575,1.14972374 4.22242159,1.15071298 C3.77088958,1.40978038 3.64785065,1.60504349 3.91628329,1.90072942 L3.64953813,1.94237883 C3.34857631,1.61086111 3.48309554,1.37978861 3.95917993,1.10018157 L4.20731791,0.958976895 C4.21905149,0.952186626 4.22880519,0.946474635 4.23561081,0.94237883 Z" id="路径-96" fill="#DBDEE3" fill-rule="nonzero"></path>
                            </g>
                            <g id="编组-2" transform="translate(157.3333, 95.12)">
                                <g id="编组">
                                    <ellipse id="椭圆形" fill="#F1F4F8" cx="3.27777778" cy="3.28" rx="3.27777778" ry="3.28"></ellipse>
                                    <path d="M3.27777778,4.13565217 C4.06485025,4.13565217 4.70289855,4.90182923 4.70289855,5.84695652 C4.70289855,5.86962997 4.70253135,5.89220043 4.70180369,5.91465979 C4.27833896,6.14435821 3.79327918,6.27478261 3.27777778,6.27478261 C2.76227364,6.27478261 2.27721144,6.14435682 1.85374734,5.91468254 C1.85302421,5.89220043 1.852657,5.86962997 1.852657,5.84695652 C1.852657,4.90182923 2.49070531,4.13565217 3.27777778,4.13565217 Z" id="路径" fill="#DBDEE3"></path>
                                    <path d="M3.30418971,4.13765217 L3.27777778,4.13565217 C3.71454337,4.13565217 4.10541833,4.43645911 4.3668363,4.91013535 C4.15779784,5.04587035 3.79588439,5.13565217 3.38466184,5.13565217 C2.85713209,5.13565217 2.41074836,4.98790184 2.26184182,4.78440026 C2.4916639,4.43154064 2.79659594,4.19740953 3.13660824,4.14622186 L3.23718144,4.13954788 L3.30418971,4.13765217 Z" id="形状结合" fill-opacity="0.1" fill="#000000"></path>
                                    <polygon id="矩形" fill="#F1F4F8" points="2.85024155 4.99130435 3.27777778 5.13391304 2.85024155 5.27652174"></polygon>
                                    <polygon id="矩形备份-2" fill="#F1F4F8" transform="translate(3.4915, 5.1339) scale(-1, 1) translate(-3.4915, -5.1339)" points="3.27777778 4.99130435 3.70531401 5.13391304 3.27777778 5.27652174"></polygon>
                                    <rect id="矩形" fill="#F1F4F8" x="3.1352657" y="5.0626087" width="1" height="1" rx="0.0712560386"></rect>
                                    <ellipse id="椭圆形备份-2" fill="#DBDEE3" cx="3.27777778" cy="3.1373913" rx="1.852657" ry="1.71130435"></ellipse>
                                </g>
                                <ellipse id="椭圆形备份-2" fill="#FFFFFF" cx="3.27777778" cy="3.1373913" rx="1.56763285" ry="1.42608696"></ellipse>
                                <path d="M3.85843457,2.85219577 C3.91365726,2.8532341 3.95783347,2.91787511 3.95711378,2.99657551 C3.95286877,3.4541592 3.77527529,3.70725584 3.45713112,3.70725584 C3.13896961,3.70725584 2.96137613,3.4541592 2.95713112,2.99657551 C2.95641143,2.91787511 3.00058764,2.8532341 3.05581033,2.85219577 C3.11103302,2.85115745 3.15639048,2.91411499 3.15711906,2.99281539 C3.1599193,3.29529611 3.24898777,3.42223168 3.45713112,3.42223168 C3.66525713,3.42223168 3.7543256,3.29529611 3.75712584,2.99281539 C3.75785442,2.91411499 3.80321188,2.85115745 3.85843457,2.85219577 Z" id="路径-93" fill="#DBDEE3" fill-rule="nonzero"></path>
                                <path d="M4.14345873,2.85219577 C4.19868142,2.8532341 4.24285763,2.91787511 4.24213793,2.99657551 C4.23789292,3.4541592 4.06029945,3.70725584 3.74215527,3.70725584 C3.42399376,3.70725584 3.24640028,3.4541592 3.24215527,2.99657551 C3.24143558,2.91787511 3.28561179,2.8532341 3.34083448,2.85219577 C3.39605717,2.85115745 3.44141464,2.91411499 3.44214321,2.99281539 C3.44494346,3.29529611 3.53401192,3.42223168 3.74215527,3.42223168 C3.95028128,3.42223168 4.03934975,3.29529611 4.04215,2.99281539 C4.04287857,2.91411499 4.08823604,2.85115745 4.14345873,2.85219577 Z" id="路径-93备份" fill="#DBDEE3" fill-rule="nonzero"></path>
                                <ellipse id="椭圆形备份-3" fill="#DBDEE3" cx="3.99033816" cy="2.67391304" rx="1" ry="1"></ellipse>
                                <ellipse id="椭圆形备份-4" fill="#DBDEE3" cx="2.56521739" cy="2.67391304" rx="1" ry="1"></ellipse>
                                <rect id="矩形" fill="#F1F4F8" x="2.28019324" y="2.99478261" width="1" height="1" rx="0.142512077"></rect>
                                <rect id="矩形备份" fill="#F1F4F8" x="3.84782609" y="2.99478261" width="1" height="1" rx="0.142512077"></rect>
                                <path d="M3.99033816,1.62217391 L3.85548188,2.62121479 C3.69246574,2.43656716 3.49308751,2.3279815 3.27777778,2.3279815 C3.06208965,2.3279815 2.86238906,2.43694917 2.69921452,2.62218903 L2.56521739,1.62217391 L3.99033816,1.62217391 Z" id="形状结合" fill="#DBDEE3"></path>
                                <ellipse id="椭圆形" fill="#DBDEE3" cx="3.70531401" cy="0.99826087" rx="1" ry="1"></ellipse>
                                <path d="M4.23561081,0.94237883 L4.47030723,1.00945102 L4.44233926,1.02588383 C4.36991008,1.06787262 4.22414575,1.14972374 4.22242159,1.15071298 C3.77088958,1.40978038 3.64785065,1.60504349 3.91628329,1.90072942 L3.64953813,1.94237883 C3.34857631,1.61086111 3.48309554,1.37978861 3.95917993,1.10018157 L4.20731791,0.958976895 C4.21905149,0.952186626 4.22880519,0.946474635 4.23561081,0.94237883 Z" id="路径-96" fill="#DBDEE3" fill-rule="nonzero"></path>
                            </g>
                            <ellipse id="椭圆形" fill="#ECF7F2" cx="147.5" cy="72.16" rx="3.27777778" ry="3.28"></ellipse>
                            <ellipse id="椭圆形备份-3" fill="#ECF7F2" cx="147.5" cy="85.28" rx="3.27777778" ry="3.28"></ellipse>
                            <ellipse id="椭圆形备份-4" fill="#E6F2FE" cx="147.5" cy="98.4" rx="3.27777778" ry="3.28"></ellipse>
                        </g>
                    </g>
                    <g id="编组-53" transform="translate(114.7222, 57.4)" fill-rule="nonzero">
                        <path d="M29.9122095,-1.33050199 C31.7039567,-2.28820252 33.8515989,-2.28820252 35.6414439,-1.33151743 C40.4293421,1.22116966 53.4967903,7.81678348 62.3835851,8.13235191 C63.8218531,8.18467801 65.1321654,8.8184124 66.0802695,9.80977014 C67.026176,10.7988301 67.6041667,12.1378697 67.6041667,13.5741816 L67.6039283,50.1431877 C67.5933293,50.6468991 67.3606449,62.8459725 53.6929703,72.1821793 C53.0166143,72.6839751 48.1586944,76.1058457 36.2633171,80.1871346 C34.0094168,80.9622898 31.5542753,80.9622898 29.3017933,80.1876218 C16.8934787,75.9303442 12.1570947,72.3983775 11.8332286,72.1611265 C-1.61717204,62.9464855 -2.02573464,50.9804356 -2.04703269,50.2013023 L-2.04796034,50.1676966 L-2.04861111,13.5741682 C-2.04861111,12.1378697 -1.47062042,10.7988301 -0.524713902,9.80977014 C0.423390138,8.8184124 1.73370245,8.18467801 3.17381693,8.13228557 C12.0674993,7.81675332 25.1281262,1.21227248 29.9122095,-1.33050199 Z" id="路径" stroke="#FFFFFF" stroke-width="4.09722222" fill="currentColor"></path>
                        <g id="路径">
                            <use fill="currentColor" xlink:href="#path-1"></use>
                            <use fill-opacity="0.2" fill="#FFFFFF" xlink:href="#path-1"></use>
                        </g>
                        <g id="路径">
                            <use fill="currentColor" xlink:href="#path-2"></use>
                            <use fill-opacity="0.4" fill="#FFFFFF" xlink:href="#path-2"></use>
                        </g>
                        <path d="M60.1529381,43.6612001 L45.2457987,26.3082283 L33.696493,37.9517755 C31.7164435,41.4969496 29.9382853,43.9079494 28.3620184,45.1847748 C26.7857515,46.4616001 24.0550053,47.7029536 20.1697799,48.908835 L42.9198902,68.5871989 C47.4681781,66.5439508 49.2663384,65.1519371 49.2663384,65.1519371 C60.0553004,57.8011282 60.1529381,48.1302965 60.1529381,48.1302965 L60.1529381,43.6612001 Z" id="路径" fill="currentColor"></path>
                        <g id="路径">
                            <use fill="currentColor" xlink:href="#path-3"></use>
                            <use fill-opacity="0.05" fill="#000000" xlink:href="#path-3"></use>
                        </g>
                        <g id="编组" transform="translate(17, 20)" fill="#FFFFFF">
                            <path d="M12.9422917,14.1668706 L26.9942213,0 L30.7485996,3.78494057 L28.2457987,6.30822833 L32,10.0931689 L25.7428209,16.4014508 L21.9886196,12.6165459 L16.696493,17.9517755 C18.4377642,21.3150648 17.9075428,25.5624443 15.1058287,28.3870721 C11.6502044,31.870976 6.04744877,31.870976 2.59177134,28.3870721 C-0.863923781,24.9031682 -0.863923781,19.2544479 2.59177134,15.7705441 C5.39345002,12.9459163 9.60644504,12.4113585 12.9422917,14.1668706 Z M11.3516451,24.6021672 C12.7339904,23.2084986 12.7339904,20.9491176 11.3516451,19.5554489 C9.96937063,18.1619588 7.72828254,18.1619588 6.34600803,19.5554489 C4.96373352,20.9491176 4.96373352,23.2084986 6.34600803,24.6021672 C7.72828254,25.9956574 9.96937063,25.9956574 11.3516451,24.6021672 Z" id="形状"></path>
                        </g>
                    </g>
                </g>
            </g>
        </g>
    </g>
</svg>