<?xml version="1.0" encoding="UTF-8"?>
<svg width="320px" height="190px" viewBox="0 0 320 190" version="1.1" xmlns="http://www.w3.org/2000/svg" xmlns:xlink="http://www.w3.org/1999/xlink">
    <title>compare</title>
    <defs>
        <rect id="path-1" x="0" y="0" width="120" height="73" rx="4"></rect>
        <filter x="-12.9%" y="-15.8%" width="125.8%" height="142.5%" filterUnits="objectBoundingBox" id="filter-2">
            <feOffset dx="0" dy="4" in="SourceAlpha" result="shadowOffsetOuter1"></feOffset>
            <feGaussianBlur stdDeviation="4.5" in="shadowOffsetOuter1" result="shadowBlurOuter1"></feGaussianBlur>
            <feColorMatrix values="0 0 0 0 0.11372549   0 0 0 0 0.129411765   0 0 0 0 0.160784314  0 0 0 0.06 0" type="matrix" in="shadowBlurOuter1" result="shadowMatrixOuter1"></feColorMatrix>
            <feOffset dx="0" dy="2" in="SourceAlpha" result="shadowOffsetOuter2"></feOffset>
            <feGaussianBlur stdDeviation="2" in="shadowOffsetOuter2" result="shadowBlurOuter2"></feGaussianBlur>
            <feColorMatrix values="0 0 0 0 0.11372549   0 0 0 0 0.129411765   0 0 0 0 0.160784314  0 0 0 0.06 0" type="matrix" in="shadowBlurOuter2" result="shadowMatrixOuter2"></feColorMatrix>
            <feOffset dx="0" dy="1" in="SourceAlpha" result="shadowOffsetOuter3"></feOffset>
            <feGaussianBlur stdDeviation="1" in="shadowOffsetOuter3" result="shadowBlurOuter3"></feGaussianBlur>
            <feColorMatrix values="0 0 0 0 0.11372549   0 0 0 0 0.129411765   0 0 0 0 0.160784314  0 0 0 0.06 0" type="matrix" in="shadowBlurOuter3" result="shadowMatrixOuter3"></feColorMatrix>
            <feMerge>
                <feMergeNode in="shadowMatrixOuter1"></feMergeNode>
                <feMergeNode in="shadowMatrixOuter2"></feMergeNode>
                <feMergeNode in="shadowMatrixOuter3"></feMergeNode>
            </feMerge>
        </filter>
        <path d="M10,8 L26,8 C27.1045695,8 28,8.8954305 28,10 L28,14 C28,15.1045695 27.1045695,16 26,16 L10,16 C8.8954305,16 8,15.1045695 8,14 L8,10 C8,8.8954305 8.8954305,8 10,8 Z" id="path-3"></path>
        <path d="M75,8 L91,8 C92.1045695,8 93,8.8954305 93,10 L93,14 C93,15.1045695 92.1045695,16 91,16 L75,16 C73.8954305,16 73,15.1045695 73,14 L73,10 C73,8.8954305 73.8954305,8 75,8 Z" id="path-4"></path>
    </defs>
    <g id="智能合同" stroke="none" stroke-width="1" fill="none" fill-rule="evenodd">
        <g id="提取成功" transform="translate(-928, -353)">
            <g id="编组-2" transform="translate(928, 358)">
                <rect id="矩形" x="0" y="0" width="320" height="185"></rect>
                <g id="编组" transform="translate(48, 21)">
                    <path d="M4,0 L220,0 C222.209139,0 224,1.790861 224,4 L224,160 C224,162.209139 222.209139,164 220,164 L4,164 C1.790861,164 0,162.209139 0,160 L0,4 C0,1.790861 1.790861,0 4,0 Z" id="矩形" fill="#F1F4F8"></path>
                    <path d="M4,0 L220,0 C222.209139,0 224,1.790861 224,4 L224,16 L0,16 L0,4 C0,1.790861 1.790861,0 4,0 Z" id="矩形" fill="#DBDEE3"></path>
                    <circle id="椭圆形" fill="#FFFFFF" cx="12" cy="8" r="4"></circle>
                    <circle id="椭圆形备份" fill="#FFFFFF" cx="28" cy="8" r="4"></circle>
                    <circle id="椭圆形备份-2" fill="#FFFFFF" cx="44" cy="8" r="4"></circle>
                </g>
                <path d="M57.9230769,45 L154.076923,45 C155.139009,45 156,46.790861 156,49 L156,173 C156,175.209139 155.139009,177 154.076923,177 L57.9230769,177 C56.8609909,177 56,175.209139 56,173 L56,49 C56,46.790861 56.8609909,45 57.9230769,45 Z" id="矩形备份-15" fill="#FFFFFF"></path>
                <path d="M70,57 C71.1045695,57 72,57.8954305 72,59 L72,63 C72,64.1045695 71.1045695,65 70,65 C68.8954305,65 68,64.1045695 68,63 L68,59 C68,57.8954305 68.8954305,57 70,57 Z" id="矩形" fill="#E9ECF0"></path>
                <path d="M78,57 L94,57 C95.1045695,57 96,57.8954305 96,59 L96,63 C96,64.1045695 95.1045695,65 94,65 L78,65 C76.8954305,65 76,64.1045695 76,63 L76,59 C76,57.8954305 76.8954305,57 78,57 Z" id="矩形备份-7" fill="#E9ECF0"></path>
                <path d="M143.730496,73 C143.879339,73 144,73.2238576 144,73.5 C144,73.7761424 143.879339,74 143.730496,74 L68.2695035,74 C68.1206608,74 68,73.7761424 68,73.5 C68,73.2238576 68.1206608,73 68.2695035,73 L143.730496,73 Z" id="路径-22" fill="#F1F4F8" fill-rule="nonzero"></path>
                <path d="M85.1,82 L126.9,82 C127.507513,82 128,82.4477153 128,83 L128,85 C128,85.5522847 127.507513,86 126.9,86 L85.1,86 C84.4924868,86 84,85.5522847 84,85 L84,83 C84,82.4477153 84.4924868,82 85.1,82 Z" id="矩形备份-9" fill="#E9ECF0"></path>
                <path d="M85.1,106 L126.9,106 C127.507513,106 128,106.447715 128,107 L128,109 C128,109.552285 127.507513,110 126.9,110 L85.1,110 C84.4924868,110 84,109.552285 84,109 L84,107 C84,106.447715 84.4924868,106 85.1,106 Z" id="矩形备份-12" fill="#E9ECF0"></path>
                <path d="M140.1,82 L143.9,82 C143.955228,82 144,82.4477153 144,83 L144,85 C144,85.5522847 143.955228,86 143.9,86 L140.1,86 C140.044772,86 140,85.5522847 140,85 L140,83 C140,82.4477153 140.044772,82 140.1,82 Z" id="矩形备份-10" fill="#E9ECF0"></path>
                <path d="M140.1,106 L143.9,106 C143.955228,106 144,106.447715 144,107 L144,109 C144,109.552285 143.955228,110 143.9,110 L140.1,110 C140.044772,110 140,109.552285 140,109 L140,107 C140,106.447715 140.044772,106 140.1,106 Z" id="矩形备份-13" fill="#E9ECF0"></path>
                <path d="M85.0909091,88 L106.909091,88 C107.511583,88 108,88.4477153 108,89 C108,89.5522847 107.511583,90 106.909091,90 L85.0909091,90 C84.4884166,90 84,89.5522847 84,89 C84,88.4477153 84.4884166,88 85.0909091,88 Z" id="矩形备份-11" fill="#F1F4F8"></path>
                <path d="M85.0909091,112 L106.909091,112 C107.511583,112 108,112.447715 108,113 C108,113.552285 107.511583,114 106.909091,114 L85.0909091,114 C84.4884166,114 84,113.552285 84,113 C84,112.447715 84.4884166,112 85.0909091,112 Z" id="矩形备份-14" fill="#F1F4F8"></path>
                <path d="M69.5,82 L78.5,82 C79.3284271,82 80,82.6715729 80,83.5 L80,92.5 C80,93.3284271 79.3284271,94 78.5,94 L69.5,94 C68.6715729,94 68,93.3284271 68,92.5 L68,83.5 C68,82.6715729 68.6715729,82 69.5,82 Z" id="矩形" fill="#E9ECF0"></path>
                <path d="M69.5,106 L78.5,106 C79.3284271,106 80,106.671573 80,107.5 L80,116.5 C80,117.328427 79.3284271,118 78.5,118 L69.5,118 C68.6715729,118 68,117.328427 68,116.5 L68,107.5 C68,106.671573 68.6715729,106 69.5,106 Z" id="矩形备份" fill="#E9ECF0"></path>
                <path d="M85.1,130 L126.9,130 C127.507513,130 128,130.447715 128,131 L128,133 C128,133.552285 127.507513,134 126.9,134 L85.1,134 C84.4924868,134 84,133.552285 84,133 L84,131 C84,130.447715 84.4924868,130 85.1,130 Z" id="矩形备份-19" fill="#E9ECF0"></path>
                <path d="M140.1,130 L143.9,130 C143.955228,130 144,130.447715 144,131 L144,133 C144,133.552285 143.955228,134 143.9,134 L140.1,134 C140.044772,134 140,133.552285 140,133 L140,131 C140,130.447715 140.044772,130 140.1,130 Z" id="矩形备份-18" fill="#E9ECF0"></path>
                <path d="M85.0909091,136 L106.909091,136 C107.511583,136 108,136.447715 108,137 C108,137.552285 107.511583,138 106.909091,138 L85.0909091,138 C84.4884166,138 84,137.552285 84,137 C84,136.447715 84.4884166,136 85.0909091,136 Z" id="矩形备份-17" fill="#F1F4F8"></path>
                <path d="M69.5,130 L78.5,130 C79.3284271,130 80,130.671573 80,131.5 L80,140.5 C80,141.328427 79.3284271,142 78.5,142 L69.5,142 C68.6715729,142 68,141.328427 68,140.5 L68,131.5 C68,130.671573 68.6715729,130 69.5,130 Z" id="矩形备份-2" fill="#E9ECF0"></path>
                <path d="M85.1,154 L126.9,154 C127.507513,154 128,154.447715 128,155 L128,157 C128,157.552285 127.507513,158 126.9,158 L85.1,158 C84.4924868,158 84,157.552285 84,157 L84,155 C84,154.447715 84.4924868,154 85.1,154 Z" id="矩形备份-22" fill="#E9ECF0"></path>
                <path d="M140.1,154 L143.9,154 C143.955228,154 144,154.447715 144,155 L144,157 C144,157.552285 143.955228,158 143.9,158 L140.1,158 C140.044772,158 140,157.552285 140,157 L140,155 C140,154.447715 140.044772,154 140.1,154 Z" id="矩形备份-21" fill="#E9ECF0"></path>
                <path d="M85.0909091,160 L106.909091,160 C107.511583,160 108,160.447715 108,161 C108,161.552285 107.511583,162 106.909091,162 L85.0909091,162 C84.4884166,162 84,161.552285 84,161 C84,160.447715 84.4884166,160 85.0909091,160 Z" id="矩形备份-20" fill="#F1F4F8"></path>
                <path d="M69.5,154 L78.5,154 C79.3284271,154 80,154.671573 80,155.5 L80,164.5 C80,165.328427 79.3284271,166 78.5,166 L69.5,166 C68.6715729,166 68,165.328427 68,164.5 L68,155.5 C68,154.671573 68.6715729,154 69.5,154 Z" id="矩形备份-3" fill-opacity="0.1" fill="#ED2F00"></path>
                <path d="M165.923077,45 L262.076923,45 C263.139009,45 264,46.790861 264,49 L264,173 C264,175.209139 263.139009,177 262.076923,177 L165.923077,177 C164.860991,177 164,175.209139 164,173 L164,49 C164,46.790861 164.860991,45 165.923077,45 Z" id="矩形备份-16" fill="#FFFFFF"></path>
                <path d="M178,57 C179.104569,57 180,57.8954305 180,59 L180,63 C180,64.1045695 179.104569,65 178,65 C176.895431,65 176,64.1045695 176,63 L176,59 C176,57.8954305 176.895431,57 178,57 Z" id="矩形备份-4" fill="#E9ECF0"></path>
                <path d="M186,57 L202,57 C203.104569,57 204,57.8954305 204,59 L204,63 C204,64.1045695 203.104569,65 202,65 L186,65 C184.895431,65 184,64.1045695 184,63 L184,59 C184,57.8954305 184.895431,57 186,57 Z" id="矩形备份-8" fill="#E9ECF0"></path>
                <path d="M251.730496,73 C251.879339,73 252,73.2238576 252,73.5 C252,73.7761424 251.879339,74 251.730496,74 L176.269504,74 C176.120661,74 176,73.7761424 176,73.5 C176,73.2238576 176.120661,73 176.269504,73 L251.730496,73 Z" id="路径-22备份" fill="#F1F4F8" fill-rule="nonzero"></path>
                <path d="M193.1,82 L234.9,82 C235.507513,82 236,82.4477153 236,83 L236,85 C236,85.5522847 235.507513,86 234.9,86 L193.1,86 C192.492487,86 192,85.5522847 192,85 L192,83 C192,82.4477153 192.492487,82 193.1,82 Z" id="矩形备份-23" fill="#E9ECF0"></path>
                <path d="M193.1,106 L234.9,106 C235.507513,106 236,106.447715 236,107 L236,109 C236,109.552285 235.507513,110 234.9,110 L193.1,110 C192.492487,110 192,109.552285 192,109 L192,107 C192,106.447715 192.492487,106 193.1,106 Z" id="矩形备份-24" fill="#E9ECF0"></path>
                <path d="M248.1,82 L251.9,82 C251.955228,82 252,82.4477153 252,83 L252,85 C252,85.5522847 251.955228,86 251.9,86 L248.1,86 C248.044772,86 248,85.5522847 248,85 L248,83 C248,82.4477153 248.044772,82 248.1,82 Z" id="矩形备份-25" fill="#E9ECF0"></path>
                <path d="M248.1,106 L251.9,106 C251.955228,106 252,106.447715 252,107 L252,109 C252,109.552285 251.955228,110 251.9,110 L248.1,110 C248.044772,110 248,109.552285 248,109 L248,107 C248,106.447715 248.044772,106 248.1,106 Z" id="矩形备份-26" fill="#E9ECF0"></path>
                <path d="M193.090909,88 L214.909091,88 C215.511583,88 216,88.4477153 216,89 C216,89.5522847 215.511583,90 214.909091,90 L193.090909,90 C192.488417,90 192,89.5522847 192,89 C192,88.4477153 192.488417,88 193.090909,88 Z" id="矩形备份-27" fill="#F1F4F8"></path>
                <path d="M193.090909,112 L214.909091,112 C215.511583,112 216,112.447715 216,113 C216,113.552285 215.511583,114 214.909091,114 L193.090909,114 C192.488417,114 192,113.552285 192,113 C192,112.447715 192.488417,112 193.090909,112 Z" id="矩形备份-28" fill="#F1F4F8"></path>
                <path d="M177.5,82 L186.5,82 C187.328427,82 188,82.6715729 188,83.5 L188,92.5 C188,93.3284271 187.328427,94 186.5,94 L177.5,94 C176.671573,94 176,93.3284271 176,92.5 L176,83.5 C176,82.6715729 176.671573,82 177.5,82 Z" id="矩形备份-5" fill="#F06200" opacity="0.200000003"></path>
                <path d="M177.5,106 L186.5,106 C187.328427,106 188,106.671573 188,107.5 L188,116.5 C188,117.328427 187.328427,118 186.5,118 L177.5,118 C176.671573,118 176,117.328427 176,116.5 L176,107.5 C176,106.671573 176.671573,106 177.5,106 Z" id="矩形备份-6" fill-opacity="0.1" fill="#3BB346"></path>
                <path d="M193.1,130 L234.9,130 C235.507513,130 236,130.447715 236,131 L236,133 C236,133.552285 235.507513,134 234.9,134 L193.1,134 C192.492487,134 192,133.552285 192,133 L192,131 C192,130.447715 192.492487,130 193.1,130 Z" id="矩形备份-29" fill="#E9ECF0"></path>
                <path d="M248.1,130 L251.9,130 C251.955228,130 252,130.447715 252,131 L252,133 C252,133.552285 251.955228,134 251.9,134 L248.1,134 C248.044772,134 248,133.552285 248,133 L248,131 C248,130.447715 248.044772,130 248.1,130 Z" id="矩形备份-30" fill="#E9ECF0"></path>
                <path d="M193.090909,136 L214.909091,136 C215.511583,136 216,136.447715 216,137 C216,137.552285 215.511583,138 214.909091,138 L193.090909,138 C192.488417,138 192,137.552285 192,137 C192,136.447715 192.488417,136 193.090909,136 Z" id="矩形备份-31" fill="#F1F4F8"></path>
                <path d="M177.5,130 L186.5,130 C187.328427,130 188,130.671573 188,131.5 L188,140.5 C188,141.328427 187.328427,142 186.5,142 L177.5,142 C176.671573,142 176,141.328427 176,140.5 L176,131.5 C176,130.671573 176.671573,130 177.5,130 Z" id="矩形备份-32" fill-opacity="0.1" fill="#ED2F00"></path>
                <path d="M193.1,154 L234.9,154 C235.507513,154 236,154.447715 236,155 L236,157 C236,157.552285 235.507513,158 234.9,158 L193.1,158 C192.492487,158 192,157.552285 192,157 L192,155 C192,154.447715 192.492487,154 193.1,154 Z" id="矩形备份-33" fill="#E9ECF0"></path>
                <path d="M248.1,154 L251.9,154 C251.955228,154 252,154.447715 252,155 L252,157 C252,157.552285 251.955228,158 251.9,158 L248.1,158 C248.044772,158 248,157.552285 248,157 L248,155 C248,154.447715 248.044772,154 248.1,154 Z" id="矩形备份-34" fill="#E9ECF0"></path>
                <path d="M193.090909,160 L214.909091,160 C215.511583,160 216,160.447715 216,161 C216,161.552285 215.511583,162 214.909091,162 L193.090909,162 C192.488417,162 192,161.552285 192,161 C192,160.447715 192.488417,160 193.090909,160 Z" id="矩形备份-35" fill="#F1F4F8"></path>
                <path d="M177.5,154 L186.5,154 C187.328427,154 188,154.671573 188,155.5 L188,164.5 C188,165.328427 187.328427,166 186.5,166 L177.5,166 C176.671573,166 176,165.328427 176,164.5 L176,155.5 C176,154.671573 176.671573,154 177.5,154 Z" id="矩形备份-36" fill="#E9ECF0"></path>
                <circle id="椭圆形" stroke="#FFFFFF" stroke-width="4" fill="#00B8CC" cx="160" cy="111" r="18"></circle>
                <g id="Icon/logout_black_24dp" transform="translate(160, 112) scale(1, -1) translate(-160, -112)translate(150, 102)">
                    <polygon id="路径" points="0 0 20 0 20 20 0 20"></polygon>
                    <path d="M14.1666667,18.3333333 L14.1666667,15 L5.83333333,15 L5.83333333,18.3333333 L4.16666667,18.3333333 L4.16666667,14.1666667 C4.16666667,13.7064294 4.53976271,13.3333333 5,13.3333333 L15,13.3333333 C15.4602373,13.3333333 15.8333333,13.7064294 15.8333333,14.1666667 L15.8333333,18.3333333 L14.1666667,18.3333333 Z M5.83333333,1.66666667 L5.83333333,5 L14.1666667,5 L14.1666667,1.66666667 L15.8333333,1.66666667 L15.8333333,5.83333333 C15.8333333,6.29357062 15.4602373,6.66666667 15,6.66666667 L5,6.66666667 C4.53976271,6.66666667 4.16666667,6.29357062 4.16666667,5.83333333 L4.16666667,1.66666667 L5.83333333,1.66666667 Z M15,9.16666667 L17.5,9.16666667 L17.5,10.8333333 L15,10.8333333 Z M6.66666667,9.16666667 L9.16666667,9.16666667 L9.16666667,10.8333333 L6.66666667,10.8333333 Z M10.8333333,9.16666667 L13.3333333,9.16666667 L13.3333333,10.8333333 L10.8333333,10.8333333 Z M2.5,9.16666667 L5,9.16666667 L5,10.8333333 L2.5,10.8333333 Z" id="形状" fill="#FFFFFF" transform="translate(10, 10) rotate(-90) translate(-10, -10)"></path>
                </g>
                <g id="编组-71" transform="translate(184, 0)">
                    <g id="矩形">
                        <use fill="black" fill-opacity="1" filter="url(#filter-2)" xlink:href="#path-1"></use>
                        <use fill="#FFFFFF" fill-rule="evenodd" xlink:href="#path-1"></use>
                    </g>
                    <polygon id="路径-72" fill="#F1F4F8" fill-rule="nonzero" points="37 0 37 73 36 73 36 0"></polygon>
                    <g id="矩形">
                        <use fill="#00B8CC" xlink:href="#path-3"></use>
                        <use fill-opacity="0.8" fill="#FFFFFF" xlink:href="#path-3"></use>
                    </g>
                    <path d="M47,8 L63,8 C64.1045695,8 65,8.8954305 65,10 L65,14 C65,15.1045695 64.1045695,16 63,16 L47,16 C45.8954305,16 45,15.1045695 45,14 L45,10 C45,8.8954305 45.8954305,8 47,8 Z" id="矩形备份-24" fill="#E9ECF0"></path>
                    <g id="矩形备份-25">
                        <use fill="#00B8CC" xlink:href="#path-4"></use>
                        <use fill-opacity="0.2" fill="#FFFFFF" xlink:href="#path-4"></use>
                    </g>
                    <path d="M10,24 L26,24 C27.1045695,24 28,24.8954305 28,26 L28,30 C28,31.1045695 27.1045695,32 26,32 L10,32 C8.8954305,32 8,31.1045695 8,30 L8,26 C8,24.8954305 8.8954305,24 10,24 Z" id="矩形备份-22" fill="#E9ECF0"></path>
                    <path d="M10,40 L26,40 C27.1045695,40 28,40.8954305 28,42 L28,46 C28,47.1045695 27.1045695,48 26,48 L10,48 C8.8954305,48 8,47.1045695 8,46 L8,42 C8,40.8954305 8.8954305,40 10,40 Z" id="矩形备份-23" fill="#E9ECF0"></path>
                    <polygon id="路径-73" fill="#F1F4F8" fill-rule="nonzero" points="120 24 120 25 36 25 36 24"></polygon>
                    <path d="M46.2666667,33 L109.733333,33 C110.985179,33 112,33.8954305 112,35 L112,41 L44,41 L44,35 C44,33.8954305 45.0148212,33 46.2666667,33 Z" id="矩形" fill="#E9ECF0"></path>
                    <circle id="椭圆形" fill="#E9ECF0" cx="46" cy="51" r="2"></circle>
                    <circle id="椭圆形备份-5" fill="#E9ECF0" cx="46" cy="63" r="2"></circle>
                    <path d="M54.3076923,49 L109.692308,49 C110.966811,49 112,49.8954305 112,51 C112,52.1045695 110.966811,53 109.692308,53 L54.3076923,53 C53.033189,53 52,52.1045695 52,51 C52,49.8954305 53.033189,49 54.3076923,49 Z" id="矩形" fill="#E9ECF0"></path>
                    <path d="M54.3076923,61 L109.692308,61 C110.966811,61 112,61.8954305 112,63 C112,64.1045695 110.966811,65 109.692308,65 L54.3076923,65 C53.033189,65 52,64.1045695 52,63 C52,61.8954305 53.033189,61 54.3076923,61 Z" id="矩形备份-20" fill="#E9ECF0"></path>
                </g>
            </g>
        </g>
    </g>
</svg>