<?xml version="1.0" encoding="UTF-8"?>
<svg width="180px" height="107px" viewBox="0 0 180 107" version="1.1" xmlns="http://www.w3.org/2000/svg" xmlns:xlink="http://www.w3.org/1999/xlink">
    <title>编组 2</title>
    <defs>
        <rect id="path-1" x="0" y="0" width="67.5" height="41.0378378" rx="2.25"></rect>
        <filter x="-12.6%" y="-15.8%" width="125.2%" height="141.4%" filterUnits="objectBoundingBox" id="filter-2">
            <feOffset dx="0" dy="2" in="SourceAlpha" result="shadowOffsetOuter1"></feOffset>
            <feGaussianBlur stdDeviation="2.5" in="shadowOffsetOuter1" result="shadowBlurOuter1"></feGaussianBlur>
            <feColorMatrix values="0 0 0 0 0.11372549   0 0 0 0 0.129411765   0 0 0 0 0.160784314  0 0 0 0.06 0" type="matrix" in="shadowBlurOuter1" result="shadowMatrixOuter1"></feColorMatrix>
            <feOffset dx="0" dy="1" in="SourceAlpha" result="shadowOffsetOuter2"></feOffset>
            <feGaussianBlur stdDeviation="1" in="shadowOffsetOuter2" result="shadowBlurOuter2"></feGaussianBlur>
            <feColorMatrix values="0 0 0 0 0.11372549   0 0 0 0 0.129411765   0 0 0 0 0.160784314  0 0 0 0.06 0" type="matrix" in="shadowBlurOuter2" result="shadowMatrixOuter2"></feColorMatrix>
            <feOffset dx="0" dy="1" in="SourceAlpha" result="shadowOffsetOuter3"></feOffset>
            <feGaussianBlur stdDeviation="0.5" in="shadowOffsetOuter3" result="shadowBlurOuter3"></feGaussianBlur>
            <feColorMatrix values="0 0 0 0 0.11372549   0 0 0 0 0.129411765   0 0 0 0 0.160784314  0 0 0 0.06 0" type="matrix" in="shadowBlurOuter3" result="shadowMatrixOuter3"></feColorMatrix>
            <feMerge>
                <feMergeNode in="shadowMatrixOuter1"></feMergeNode>
                <feMergeNode in="shadowMatrixOuter2"></feMergeNode>
                <feMergeNode in="shadowMatrixOuter3"></feMergeNode>
            </feMerge>
        </filter>
        <path d="M5.625,4.4972973 L14.625,4.4972973 C15.2463203,4.4972973 15.75,5.00067444 15.75,5.62162162 L15.75,7.87027027 C15.75,8.49121745 15.2463203,8.99459459 14.625,8.99459459 L5.625,8.99459459 C5.00367966,8.99459459 4.5,8.49121745 4.5,7.87027027 L4.5,5.62162162 C4.5,5.00067444 5.00367966,4.4972973 5.625,4.4972973 Z" id="path-3"></path>
        <path d="M42.1875,4.4972973 L51.1875,4.4972973 C51.8088203,4.4972973 52.3125,5.00067444 52.3125,5.62162162 L52.3125,7.87027027 C52.3125,8.49121745 51.8088203,8.99459459 51.1875,8.99459459 L42.1875,8.99459459 C41.5661797,8.99459459 41.0625,8.49121745 41.0625,7.87027027 L41.0625,5.62162162 C41.0625,5.00067444 41.5661797,4.4972973 42.1875,4.4972973 Z" id="path-4"></path>
    </defs>
    <g id="新增ai说明" stroke="none" stroke-width="1" fill="none" fill-rule="evenodd">
        <g id="智能审查" transform="translate(-1152, -405)">
            <rect fill="#F7F8FA" x="0" y="0" width="1440" height="800"></rect>
            <g id="编组-24" transform="translate(1052, 144)" fill="#FFFFFF">
                <rect id="bg备份-2" x="0" y="0" width="380" height="648"></rect>
            </g>
            <g id="编组-2" transform="translate(1152, 408)">
                <rect id="矩形" x="0" y="0" width="180" height="104"></rect>
                <g id="编组" transform="translate(27, 11.8054)">
                    <path d="M2.25,0 L123.75,0 C124.992641,0 126,1.00675429 126,2.24864865 L126,89.9459459 C126,91.1878403 124.992641,92.1945946 123.75,92.1945946 L2.25,92.1945946 C1.00735931,92.1945946 0,91.1878403 0,89.9459459 L0,2.24864865 C0,1.00675429 1.00735931,0 2.25,0 Z" id="矩形" fill="#F1F4F8"></path>
                    <path d="M2.25,0 L123.75,0 C124.992641,0 126,1.00675429 126,2.24864865 L126,8.99459459 L0,8.99459459 L0,2.24864865 C0,1.00675429 1.00735931,0 2.25,0 Z" id="矩形" fill="#DBDEE3"></path>
                    <ellipse id="椭圆形" fill="#FFFFFF" cx="6.75" cy="4.4972973" rx="2.25" ry="2.24864865"></ellipse>
                    <ellipse id="椭圆形备份" fill="#FFFFFF" cx="15.75" cy="4.4972973" rx="2.25" ry="2.24864865"></ellipse>
                    <ellipse id="椭圆形备份-2" fill="#FFFFFF" cx="24.75" cy="4.4972973" rx="2.25" ry="2.24864865"></ellipse>
                </g>
                <path d="M32.5817308,25.2972973 L86.6682692,25.2972973 C87.2656926,25.2972973 87.75,26.3040516 87.75,27.5459459 L87.75,97.2540541 C87.75,98.4959484 87.2656926,99.5027027 86.6682692,99.5027027 L32.5817308,99.5027027 C31.9843074,99.5027027 31.5,98.4959484 31.5,97.2540541 L31.5,27.5459459 C31.5,26.3040516 31.9843074,25.2972973 32.5817308,25.2972973 Z" id="矩形备份-15" fill="#FFFFFF"></path>
                <path d="M39.375,32.0432432 C39.9963203,32.0432432 40.5,32.5466204 40.5,33.1675676 L40.5,35.4162162 C40.5,36.0371634 39.9963203,36.5405405 39.375,36.5405405 C38.7536797,36.5405405 38.25,36.0371634 38.25,35.4162162 L38.25,33.1675676 C38.25,32.5466204 38.7536797,32.0432432 39.375,32.0432432 Z" id="矩形" fill="#E9ECF0"></path>
                <path d="M43.875,32.0432432 L52.875,32.0432432 C53.4963203,32.0432432 54,32.5466204 54,33.1675676 L54,35.4162162 C54,36.0371634 53.4963203,36.5405405 52.875,36.5405405 L43.875,36.5405405 C43.2536797,36.5405405 42.75,36.0371634 42.75,35.4162162 L42.75,33.1675676 C42.75,32.5466204 43.2536797,32.0432432 43.875,32.0432432 Z" id="矩形备份-7" fill="#E9ECF0"></path>
                <path d="M80.8484043,41.0378378 C80.9321283,41.0378378 81,41.2616955 81,41.5378378 C81,41.8139802 80.9321283,42.0378378 80.8484043,42.0378378 L38.4015957,42.0378378 C38.3178717,42.0378378 38.25,41.8139802 38.25,41.5378378 C38.25,41.2616955 38.3178717,41.0378378 38.4015957,41.0378378 L80.8484043,41.0378378 Z" id="路径-22" fill="#F1F4F8" fill-rule="nonzero"></path>
                <g id="编组-77" transform="translate(38.25, 46.0973)" fill="#F2F3F5">
                    <rect id="矩形备份-12" x="6.75" y="0" width="36" height="3.37297297" rx="0.84375"></rect>
                    <rect id="矩形" x="0" y="0" width="3.375" height="3.37297297" rx="1.68648649"></rect>
                </g>
                <g id="编组-76" transform="translate(38.25, 55.0919)" fill="#F2F3F5">
                    <rect id="矩形备份-39" x="6.75" y="0" width="36" height="3.37297297" rx="0.84375"></rect>
                    <rect id="矩形备份-40" x="0" y="0" width="3.375" height="3.37297297" rx="1.68648649"></rect>
                </g>
                <g id="编组-75" transform="translate(38.25, 64.0865)" fill="#F2F3F5">
                    <rect id="矩形备份-42" x="6.75" y="0" width="36" height="3.37297297" rx="0.84375"></rect>
                    <rect id="矩形备份-41" x="0" y="0" width="3.375" height="3.37297297" rx="1.68648649"></rect>
                </g>
                <g id="编组-74" transform="translate(38.25, 73.0811)" fill="#F2F3F5">
                    <rect id="矩形备份-44" x="6.75" y="0" width="36" height="3.37297297" rx="0.84375"></rect>
                    <rect id="矩形备份-43" x="0" y="0" width="3.375" height="3.37297297" rx="1.68648649"></rect>
                </g>
                <g id="编组-73" transform="translate(38.25, 82.0757)" fill="#F2F3F5">
                    <rect id="矩形备份-46" x="6.75" y="0" width="36" height="3.37297297" rx="0.84375"></rect>
                    <rect id="矩形备份-45" x="0" y="0" width="3.375" height="3.37297297" rx="1.68648649"></rect>
                </g>
                <g id="编组-65" transform="translate(38.25, 91.0703)" fill="#F2F3F5">
                    <rect id="矩形备份-48" x="6.75" y="0" width="36" height="3.37297297" rx="0.84375"></rect>
                    <rect id="矩形备份-47" x="0" y="0" width="3.375" height="3.37297297" rx="1.68648649"></rect>
                </g>
                <path d="M93.3317308,25.2972973 L147.418269,25.2972973 C148.015693,25.2972973 148.5,26.3040516 148.5,27.5459459 L148.5,97.2540541 C148.5,98.4959484 148.015693,99.5027027 147.418269,99.5027027 L93.3317308,99.5027027 C92.7343074,99.5027027 92.25,98.4959484 92.25,97.2540541 L92.25,27.5459459 C92.25,26.3040516 92.7343074,25.2972973 93.3317308,25.2972973 Z" id="矩形备份-16" fill="#FFFFFF"></path>
                <path d="M100.125,32.0432432 C100.74632,32.0432432 101.25,32.5466204 101.25,33.1675676 L101.25,35.4162162 C101.25,36.0371634 100.74632,36.5405405 100.125,36.5405405 C99.5036797,36.5405405 99,36.0371634 99,35.4162162 L99,33.1675676 C99,32.5466204 99.5036797,32.0432432 100.125,32.0432432 Z" id="矩形备份-4" fill="#E9ECF0"></path>
                <path d="M104.625,32.0432432 L113.625,32.0432432 C114.24632,32.0432432 114.75,32.5466204 114.75,33.1675676 L114.75,35.4162162 C114.75,36.0371634 114.24632,36.5405405 113.625,36.5405405 L104.625,36.5405405 C104.00368,36.5405405 103.5,36.0371634 103.5,35.4162162 L103.5,33.1675676 C103.5,32.5466204 104.00368,32.0432432 104.625,32.0432432 Z" id="矩形备份-8" fill="#E9ECF0"></path>
                <path d="M141.598404,41.0378378 C141.682128,41.0378378 141.75,41.2616955 141.75,41.5378378 C141.75,41.8139802 141.682128,42.0378378 141.598404,42.0378378 L99.1515957,42.0378378 C99.0678717,42.0378378 99,41.8139802 99,41.5378378 C99,41.2616955 99.0678717,41.0378378 99.1515957,41.0378378 L141.598404,41.0378378 Z" id="路径-22备份" fill="#F1F4F8" fill-rule="nonzero"></path>
                <path d="M108.61875,46.0972973 L132.13125,46.0972973 C132.472976,46.0972973 132.75,46.3489859 132.75,46.6594595 L132.75,47.7837838 C132.75,48.0942574 132.472976,48.3459459 132.13125,48.3459459 L108.61875,48.3459459 C108.277024,48.3459459 108,48.0942574 108,47.7837838 L108,46.6594595 C108,46.3489859 108.277024,46.0972973 108.61875,46.0972973 Z" id="矩形备份-23" fill="#E9ECF0"></path>
                <path d="M108.61875,59.5891892 L132.13125,59.5891892 C132.472976,59.5891892 132.75,59.8408778 132.75,60.1513514 L132.75,61.2756757 C132.75,61.5861493 132.472976,61.8378378 132.13125,61.8378378 L108.61875,61.8378378 C108.277024,61.8378378 108,61.5861493 108,61.2756757 L108,60.1513514 C108,59.8408778 108.277024,59.5891892 108.61875,59.5891892 Z" id="矩形备份-24" fill="#E9ECF0"></path>
                <path d="M139.55625,46.0972973 L141.69375,46.0972973 C141.724816,46.0972973 141.75,46.3489859 141.75,46.6594595 L141.75,47.7837838 C141.75,48.0942574 141.724816,48.3459459 141.69375,48.3459459 L139.55625,48.3459459 C139.525184,48.3459459 139.5,48.0942574 139.5,47.7837838 L139.5,46.6594595 C139.5,46.3489859 139.525184,46.0972973 139.55625,46.0972973 Z" id="矩形备份-25" fill="#E9ECF0"></path>
                <path d="M139.55625,59.5891892 L141.69375,59.5891892 C141.724816,59.5891892 141.75,59.8408778 141.75,60.1513514 L141.75,61.2756757 C141.75,61.5861493 141.724816,61.8378378 141.69375,61.8378378 L139.55625,61.8378378 C139.525184,61.8378378 139.5,61.5861493 139.5,61.2756757 L139.5,60.1513514 C139.5,59.8408778 139.525184,59.5891892 139.55625,59.5891892 Z" id="矩形备份-26" fill="#E9ECF0"></path>
                <path d="M108.613636,49.4702703 L120.886364,49.4702703 C121.225266,49.4702703 121.5,49.7219588 121.5,50.0324324 C121.5,50.342906 121.225266,50.5945946 120.886364,50.5945946 L108.613636,50.5945946 C108.274734,50.5945946 108,50.342906 108,50.0324324 C108,49.7219588 108.274734,49.4702703 108.613636,49.4702703 Z" id="矩形备份-27" fill="#F1F4F8"></path>
                <path d="M108.613636,62.9621622 L120.886364,62.9621622 C121.225266,62.9621622 121.5,63.2138507 121.5,63.5243243 C121.5,63.8347979 121.225266,64.0864865 120.886364,64.0864865 L108.613636,64.0864865 C108.274734,64.0864865 108,63.8347979 108,63.5243243 C108,63.2138507 108.274734,62.9621622 108.613636,62.9621622 Z" id="矩形备份-28" fill="#F1F4F8"></path>
                <path d="M99.84375,46.0972973 L104.90625,46.0972973 C105.37224,46.0972973 105.75,46.4748302 105.75,46.9405405 L105.75,52 C105.75,52.4657104 105.37224,52.8432432 104.90625,52.8432432 L99.84375,52.8432432 C99.3777597,52.8432432 99,52.4657104 99,52 L99,46.9405405 C99,46.4748302 99.3777597,46.0972973 99.84375,46.0972973 Z" id="矩形备份-5" fill="#F06200" opacity="0.200000003"></path>
                <path d="M99.84375,59.5891892 L104.90625,59.5891892 C105.37224,59.5891892 105.75,59.966722 105.75,60.4324324 L105.75,65.4918919 C105.75,65.9576023 105.37224,66.3351351 104.90625,66.3351351 L99.84375,66.3351351 C99.3777597,66.3351351 99,65.9576023 99,65.4918919 L99,60.4324324 C99,59.966722 99.3777597,59.5891892 99.84375,59.5891892 Z" id="矩形备份-6" fill-opacity="0.1" fill="#3BB346"></path>
                <path d="M108.61875,73.0810811 L132.13125,73.0810811 C132.472976,73.0810811 132.75,73.3327697 132.75,73.6432432 L132.75,74.7675676 C132.75,75.0780412 132.472976,75.3297297 132.13125,75.3297297 L108.61875,75.3297297 C108.277024,75.3297297 108,75.0780412 108,74.7675676 L108,73.6432432 C108,73.3327697 108.277024,73.0810811 108.61875,73.0810811 Z" id="矩形备份-29" fill="#E9ECF0"></path>
                <path d="M139.55625,73.0810811 L141.69375,73.0810811 C141.724816,73.0810811 141.75,73.3327697 141.75,73.6432432 L141.75,74.7675676 C141.75,75.0780412 141.724816,75.3297297 141.69375,75.3297297 L139.55625,75.3297297 C139.525184,75.3297297 139.5,75.0780412 139.5,74.7675676 L139.5,73.6432432 C139.5,73.3327697 139.525184,73.0810811 139.55625,73.0810811 Z" id="矩形备份-30" fill="#E9ECF0"></path>
                <path d="M108.613636,76.4540541 L120.886364,76.4540541 C121.225266,76.4540541 121.5,76.7057426 121.5,77.0162162 C121.5,77.3266898 121.225266,77.5783784 120.886364,77.5783784 L108.613636,77.5783784 C108.274734,77.5783784 108,77.3266898 108,77.0162162 C108,76.7057426 108.274734,76.4540541 108.613636,76.4540541 Z" id="矩形备份-31" fill="#F1F4F8"></path>
                <path d="M99.84375,73.0810811 L104.90625,73.0810811 C105.37224,73.0810811 105.75,73.4586139 105.75,73.9243243 L105.75,78.9837838 C105.75,79.4494942 105.37224,79.827027 104.90625,79.827027 L99.84375,79.827027 C99.3777597,79.827027 99,79.4494942 99,78.9837838 L99,73.9243243 C99,73.4586139 99.3777597,73.0810811 99.84375,73.0810811 Z" id="矩形备份-32" fill-opacity="0.1" fill="#ED2F00"></path>
                <path d="M108.61875,86.572973 L132.13125,86.572973 C132.472976,86.572973 132.75,86.8246615 132.75,87.1351351 L132.75,88.2594595 C132.75,88.569933 132.472976,88.8216216 132.13125,88.8216216 L108.61875,88.8216216 C108.277024,88.8216216 108,88.569933 108,88.2594595 L108,87.1351351 C108,86.8246615 108.277024,86.572973 108.61875,86.572973 Z" id="矩形备份-33" fill="#E9ECF0"></path>
                <path d="M139.55625,86.572973 L141.69375,86.572973 C141.724816,86.572973 141.75,86.8246615 141.75,87.1351351 L141.75,88.2594595 C141.75,88.569933 141.724816,88.8216216 141.69375,88.8216216 L139.55625,88.8216216 C139.525184,88.8216216 139.5,88.569933 139.5,88.2594595 L139.5,87.1351351 C139.5,86.8246615 139.525184,86.572973 139.55625,86.572973 Z" id="矩形备份-34" fill="#E9ECF0"></path>
                <path d="M108.613636,89.9459459 L120.886364,89.9459459 C121.225266,89.9459459 121.5,90.1976345 121.5,90.5081081 C121.5,90.8185817 121.225266,91.0702703 120.886364,91.0702703 L108.613636,91.0702703 C108.274734,91.0702703 108,90.8185817 108,90.5081081 C108,90.1976345 108.274734,89.9459459 108.613636,89.9459459 Z" id="矩形备份-35" fill="#F1F4F8"></path>
                <path d="M99.84375,86.572973 L104.90625,86.572973 C105.37224,86.572973 105.75,86.9505058 105.75,87.4162162 L105.75,92.4756757 C105.75,92.9413861 105.37224,93.3189189 104.90625,93.3189189 L99.84375,93.3189189 C99.3777597,93.3189189 99,92.9413861 99,92.4756757 L99,87.4162162 C99,86.9505058 99.3777597,86.572973 99.84375,86.572973 Z" id="矩形备份-36" fill="#E9ECF0"></path>
                <ellipse id="椭圆形" stroke="#F1F4F8" stroke-width="2.25" fill="#00B8CC" cx="90" cy="62.4" rx="7.875" ry="7.87094595"></ellipse>
                <g id="search-line" transform="translate(86.625, 59.027)">
                    <path d="M4.90856615,4.54729993 L5.9945625,5.63239062 L5.63577547,5.99096216 L4.55003268,4.90561806 C4.14604564,5.2292754 3.64355689,5.40531352 3.12578763,5.40457733 C1.86610286,5.40457733 0.84375,4.38283849 0.84375,3.12391028 C0.84375,1.86498208 1.86610286,0.843243243 3.12578763,0.843243243 C4.38547241,0.843243243 5.40782527,1.86498208 5.40782527,3.12391028 C5.40856191,3.64136857 5.232418,4.14355552 4.90856615,4.54729993 Z M4.39992531,4.3592716 C4.72172124,4.0285459 4.90143275,3.58522062 4.90070799,3.12391028 C4.90070799,2.14373027 4.10630314,1.35005814 3.12578763,1.35005814 C2.14501857,1.35005814 1.35086947,2.14373027 1.35086947,3.12391028 C1.35086947,4.10383689 2.14501857,4.89776462 3.12578763,4.89776462 C3.5873752,4.89848895 4.0309669,4.71888537 4.36189135,4.39728272 L4.39992531,4.3592716 L4.39992531,4.3592716 Z" id="形状" fill="#FFFFFF"></path>
                    <polygon points="0 0 6.75 0 6.75 6.74594595 0 6.74594595"></polygon>
                </g>
                <g id="编组-71" transform="translate(103.5, 0)">
                    <g id="矩形">
                        <use fill="black" fill-opacity="1" filter="url(#filter-2)" xlink:href="#path-1"></use>
                        <use fill="#FFFFFF" fill-rule="evenodd" xlink:href="#path-1"></use>
                    </g>
                    <polygon id="路径-72" fill="#F1F4F8" fill-rule="nonzero" points="21.25 0 21.25 41.0378378 20.25 41.0378378 20.25 0"></polygon>
                    <g id="矩形">
                        <use fill="#00B8CC" xlink:href="#path-3"></use>
                        <use fill-opacity="0.8" fill="#FFFFFF" xlink:href="#path-3"></use>
                    </g>
                    <path d="M26.4375,4.4972973 L35.4375,4.4972973 C36.0588203,4.4972973 36.5625,5.00067444 36.5625,5.62162162 L36.5625,7.87027027 C36.5625,8.49121745 36.0588203,8.99459459 35.4375,8.99459459 L26.4375,8.99459459 C25.8161797,8.99459459 25.3125,8.49121745 25.3125,7.87027027 L25.3125,5.62162162 C25.3125,5.00067444 25.8161797,4.4972973 26.4375,4.4972973 Z" id="矩形备份-24" fill="#E9ECF0"></path>
                    <g id="矩形备份-25">
                        <use fill="#00B8CC" xlink:href="#path-4"></use>
                        <use fill-opacity="0.2" fill="#FFFFFF" xlink:href="#path-4"></use>
                    </g>
                    <path d="M5.625,13.4918919 L14.625,13.4918919 C15.2463203,13.4918919 15.75,13.995269 15.75,14.6162162 L15.75,16.8648649 C15.75,17.485812 15.2463203,17.9891892 14.625,17.9891892 L5.625,17.9891892 C5.00367966,17.9891892 4.5,17.485812 4.5,16.8648649 L4.5,14.6162162 C4.5,13.995269 5.00367966,13.4918919 5.625,13.4918919 Z" id="矩形备份-22" fill="#E9ECF0"></path>
                    <path d="M5.625,22.4864865 L14.625,22.4864865 C15.2463203,22.4864865 15.75,22.9898636 15.75,23.6108108 L15.75,25.8594595 C15.75,26.4804066 15.2463203,26.9837838 14.625,26.9837838 L5.625,26.9837838 C5.00367966,26.9837838 4.5,26.4804066 4.5,25.8594595 L4.5,23.6108108 C4.5,22.9898636 5.00367966,22.4864865 5.625,22.4864865 Z" id="矩形备份-23" fill="#E9ECF0"></path>
                    <polygon id="路径-73" fill="#F1F4F8" fill-rule="nonzero" points="67.5 13.4918919 67.5 14.4918919 20.25 14.4918919 20.25 13.4918919"></polygon>
                    <path d="M26.025,18.5513514 L61.725,18.5513514 C62.4291631,18.5513514 63,19.0547285 63,19.6756757 L63,23.0486486 L24.75,23.0486486 L24.75,19.6756757 C24.75,19.0547285 25.3208369,18.5513514 26.025,18.5513514 Z" id="矩形" fill="#E9ECF0"></path>
                    <ellipse id="椭圆形" fill="#E9ECF0" cx="25.875" cy="28.6702703" rx="1.125" ry="1.12432432"></ellipse>
                    <ellipse id="椭圆形备份-5" fill="#E9ECF0" cx="25.875" cy="35.4162162" rx="1.125" ry="1.12432432"></ellipse>
                    <path d="M30.5480769,27.5459459 L61.7019231,27.5459459 C62.4188312,27.5459459 63,28.0493231 63,28.6702703 C63,29.2912174 62.4188312,29.7945946 61.7019231,29.7945946 L30.5480769,29.7945946 C29.8311688,29.7945946 29.25,29.2912174 29.25,28.6702703 C29.25,28.0493231 29.8311688,27.5459459 30.5480769,27.5459459 Z" id="矩形" fill="#E9ECF0"></path>
                    <path d="M30.5480769,34.2918919 L61.7019231,34.2918919 C62.4188312,34.2918919 63,34.795269 63,35.4162162 C63,36.0371634 62.4188312,36.5405405 61.7019231,36.5405405 L30.5480769,36.5405405 C29.8311688,36.5405405 29.25,36.0371634 29.25,35.4162162 C29.25,34.795269 29.8311688,34.2918919 30.5480769,34.2918919 Z" id="矩形备份-20" fill="#E9ECF0"></path>
                </g>
            </g>
        </g>
    </g>
</svg>