<?xml version="1.0" encoding="UTF-8"?>
<svg width="320px" height="190px" viewBox="0 0 320 190" version="1.1" xmlns="http://www.w3.org/2000/svg" xmlns:xlink="http://www.w3.org/1999/xlink">
    <title>review</title>
    <defs>
        <path d="M10.4166666,9.16666664 L9.75833332,9.16666664 L9.52499998,8.94166664 C10.3698934,7.96168483 10.8342519,6.71057867 10.8333333,5.41666664 C10.8333333,2.42512425 8.40820904,0 5.41666665,0 C2.42512427,0 0,2.42512427 0,5.41666665 C0,8.40820904 2.42512425,10.8333333 5.41666664,10.8333333 C6.7583333,10.8333333 7.99166664,10.3416667 8.94166664,9.52499998 L9.16666664,9.75833332 L9.16666664,10.4166666 L13.3333333,14.575 L14.575,13.3333333 L10.4166666,9.16666664 Z M5.41666664,9.16666664 C3.34166664,9.16666664 1.66666664,7.49166664 1.66666664,5.41666664 C1.66666664,3.34166664 3.34166664,1.66666664 5.41666664,1.66666664 C7.49166664,1.66666664 9.16666664,3.34166664 9.16666664,5.41666664 C9.16666664,7.49166664 7.49166664,9.16666664 5.41666664,9.16666664 Z" id="path-1"></path>
        <rect id="path-3" x="0" y="0" width="120" height="75" rx="4"></rect>
        <filter x="-12.9%" y="-15.3%" width="125.8%" height="141.3%" filterUnits="objectBoundingBox" id="filter-4">
            <feOffset dx="0" dy="4" in="SourceAlpha" result="shadowOffsetOuter1"></feOffset>
            <feGaussianBlur stdDeviation="4.5" in="shadowOffsetOuter1" result="shadowBlurOuter1"></feGaussianBlur>
            <feColorMatrix values="0 0 0 0 0.11372549   0 0 0 0 0.129411765   0 0 0 0 0.160784314  0 0 0 0.06 0" type="matrix" in="shadowBlurOuter1" result="shadowMatrixOuter1"></feColorMatrix>
            <feOffset dx="0" dy="2" in="SourceAlpha" result="shadowOffsetOuter2"></feOffset>
            <feGaussianBlur stdDeviation="2" in="shadowOffsetOuter2" result="shadowBlurOuter2"></feGaussianBlur>
            <feColorMatrix values="0 0 0 0 0.11372549   0 0 0 0 0.129411765   0 0 0 0 0.160784314  0 0 0 0.06 0" type="matrix" in="shadowBlurOuter2" result="shadowMatrixOuter2"></feColorMatrix>
            <feOffset dx="0" dy="1" in="SourceAlpha" result="shadowOffsetOuter3"></feOffset>
            <feGaussianBlur stdDeviation="1" in="shadowOffsetOuter3" result="shadowBlurOuter3"></feGaussianBlur>
            <feColorMatrix values="0 0 0 0 0.11372549   0 0 0 0 0.129411765   0 0 0 0 0.160784314  0 0 0 0.06 0" type="matrix" in="shadowBlurOuter3" result="shadowMatrixOuter3"></feColorMatrix>
            <feMerge>
                <feMergeNode in="shadowMatrixOuter1"></feMergeNode>
                <feMergeNode in="shadowMatrixOuter2"></feMergeNode>
                <feMergeNode in="shadowMatrixOuter3"></feMergeNode>
            </feMerge>
        </filter>
        <path d="M10,8 L26,8 C27.1045695,8 28,8.8954305 28,10 L28,14 C28,15.1045695 27.1045695,16 26,16 L10,16 C8.8954305,16 8,15.1045695 8,14 L8,10 C8,8.8954305 8.8954305,8 10,8 Z" id="path-5"></path>
        <path d="M75,8 L91,8 C92.1045695,8 93,8.8954305 93,10 L93,14 C93,15.1045695 92.1045695,16 91,16 L75,16 C73.8954305,16 73,15.1045695 73,14 L73,10 C73,8.8954305 73.8954305,8 75,8 Z" id="path-6"></path>
    </defs>
    <g id="智能合同" stroke="none" stroke-width="1" fill="none" fill-rule="evenodd">
        <g id="审查规则执行中" transform="translate(-584, -358)">
            <g id="编组-3备份-2" transform="translate(584, 363)">
                <rect id="矩形" x="0" y="0" width="320" height="185"></rect>
                <g id="编组-2" transform="translate(48, 0)">
                    <g id="编组" transform="translate(0, 21)">
                        <path d="M4,0 L220,0 C222.209139,0 224,1.790861 224,4 L224,160 C224,162.209139 222.209139,164 220,164 L4,164 C1.790861,164 0,162.209139 0,160 L0,4 C0,1.790861 1.790861,0 4,0 Z" id="矩形" fill="#F1F4F8"></path>
                        <path d="M4,0 L220,0 C222.209139,0 224,1.790861 224,4 L224,16 L0,16 L0,4 C0,1.790861 1.790861,0 4,0 Z" id="矩形" fill="#DBDEE3"></path>
                        <circle id="椭圆形" fill="#FFFFFF" cx="12" cy="8" r="4"></circle>
                        <circle id="椭圆形备份" fill="#FFFFFF" cx="28" cy="8" r="4"></circle>
                        <circle id="椭圆形备份-2" fill="#FFFFFF" cx="44" cy="8" r="4"></circle>
                    </g>
                    <path d="M12,45 L212,45 C214.209139,45 216,46.790861 216,49 L216,173 C216,175.209139 214.209139,177 212,177 L12,177 C9.790861,177 8,175.209139 8,173 L8,49 C8,46.790861 9.790861,45 12,45 Z" id="矩形备份-15" fill="#FFFFFF"></path>
                    <path d="M22,61 C23.1045695,61 24,61.8954305 24,63 L24,67 C24,68.1045695 23.1045695,69 22,69 C20.8954305,69 20,68.1045695 20,67 L20,63 C20,61.8954305 20.8954305,61 22,61 Z" id="矩形" fill="#E9ECF0"></path>
                    <path d="M30,61 L46,61 C47.1045695,61 48,61.8954305 48,63 L48,67 C48,68.1045695 47.1045695,69 46,69 L30,69 C28.8954305,69 28,68.1045695 28,67 L28,63 C28,61.8954305 28.8954305,61 30,61 Z" id="矩形备份-7" fill="#E9ECF0"></path>
                    <path d="M203.347518,77 C203.707874,77 204,77.2238576 204,77.5 C204,77.7761424 203.707874,78 203.347518,78 L20.6524823,78 C20.2921263,78 20,77.7761424 20,77.5 C20,77.2238576 20.2921263,77 20.6524823,77 L203.347518,77 Z" id="路径-22" fill="#F1F4F8" fill-rule="nonzero"></path>
                    <path d="M47.2,86 L168.8,86 C170.567311,86 172,86.8954305 172,88 L172,92 C172,93.1045695 170.567311,94 168.8,94 L47.2,94 C45.4326888,94 44,93.1045695 44,92 L44,88 C44,86.8954305 45.4326888,86 47.2,86 Z" id="矩形备份-9" fill="#E9ECF0"></path>
                    <path d="M46,98 L86,98 C87.1045695,98 88,98.8954305 88,100 C88,101.104569 87.1045695,102 86,102 L46,102 C44.8954305,102 44,101.104569 44,100 C44,98.8954305 44.8954305,98 46,98 Z" id="矩形备份-11" fill="#F1F4F8"></path>
                    <path d="M46,126 L86,126 C87.1045695,126 88,126.895431 88,128 C88,129.104569 87.1045695,130 86,130 L46,130 C44.8954305,130 44,129.104569 44,128 C44,126.895431 44.8954305,126 46,126 Z" id="矩形备份-12" fill="#F1F4F8"></path>
                    <path d="M46,154 L86,154 C87.1045695,154 88,154.895431 88,156 C88,157.104569 87.1045695,158 86,158 L46,158 C44.8954305,158 44,157.104569 44,156 C44,154.895431 44.8954305,154 46,154 Z" id="矩形备份-16" fill="#F1F4F8"></path>
                    <path d="M46,114 L122,114 C123.104569,114 124,114.895431 124,116 L124,120 C124,121.104569 123.104569,122 122,122 L46,122 C44.8954305,122 44,121.104569 44,120 L44,116 C44,114.895431 44.8954305,114 46,114 Z" id="矩形备份-10" fill="#E9ECF0"></path>
                    <path d="M46.5,142 L141.5,142 C142.880712,142 144,142.895431 144,144 L144,148 C144,149.104569 142.880712,150 141.5,150 L46.5,150 C45.1192881,150 44,149.104569 44,148 L44,144 C44,142.895431 45.1192881,142 46.5,142 Z" id="矩形备份-17" fill="#E9ECF0"></path>
                    <path d="M22,86 L34,86 C35.1045695,86 36,86.8954305 36,88 L36,100 C36,101.104569 35.1045695,102 34,102 L22,102 C20.8954305,102 20,101.104569 20,100 L20,88 C20,86.8954305 20.8954305,86 22,86 Z" id="矩形" fill="#E9ECF0"></path>
                    <path d="M198,90 L202,90 C203.104569,90 204,90.8954305 204,92 L204,96 C204,97.1045695 203.104569,98 202,98 L198,98 C196.895431,98 196,97.1045695 196,96 L196,92 C196,90.8954305 196.895431,90 198,90 Z" id="矩形备份-13" fill="#E9ECF0"></path>
                    <path d="M198,118 L202,118 C203.104569,118 204,118.895431 204,120 L204,124 C204,125.104569 203.104569,126 202,126 L198,126 C196.895431,126 196,125.104569 196,124 L196,120 C196,118.895431 196.895431,118 198,118 Z" id="矩形备份-14" fill="#E9ECF0"></path>
                    <path d="M198,146 L202,146 C203.104569,146 204,146.895431 204,148 L204,152 C204,153.104569 203.104569,154 202,154 L198,154 C196.895431,154 196,153.104569 196,152 L196,148 C196,146.895431 196.895431,146 198,146 Z" id="矩形备份-18" fill="#E9ECF0"></path>
                    <path d="M22,114 L34,114 C35.1045695,114 36,114.895431 36,116 L36,128 C36,129.104569 35.1045695,130 34,130 L22,130 C20.8954305,130 20,129.104569 20,128 L20,116 C20,114.895431 20.8954305,114 22,114 Z" id="矩形备份-8" fill="#E9ECF0"></path>
                    <path d="M22,142 L34,142 C35.1045695,142 36,142.895431 36,144 L36,156 C36,157.104569 35.1045695,158 34,158 L22,158 C20.8954305,158 20,157.104569 20,156 L20,144 C20,142.895431 20.8954305,142 22,142 Z" id="矩形备份-19" fill="#E9ECF0"></path>
                    <circle id="椭圆形" stroke="#FFFFFF" stroke-width="4" fill="#00B8CC" cx="112" cy="111" r="18"></circle>
                    <g id="search" transform="translate(102, 101)">
                        <rect id="矩形" fill="#000000" fill-rule="nonzero" opacity="0" x="0" y="0" width="20" height="20"></rect>
                        <g id="color" transform="translate(2.5, 2.5)">
                            <mask id="mask-2" fill="white">
                                <use xlink:href="#path-1"></use>
                            </mask>
                            <g id="蒙版" fill-rule="nonzero"></g>
                            <g mask="url(#mask-2)" fill="#FFFFFF" id="矩形">
                                <g transform="translate(-2.5, -2.5)">
                                    <rect x="0" y="0" width="20" height="20"></rect>
                                </g>
                            </g>
                        </g>
                    </g>
                    <g id="编组-71" transform="translate(136, 0)">
                        <g id="矩形">
                            <use fill="black" fill-opacity="1" filter="url(#filter-4)" xlink:href="#path-3"></use>
                            <use fill="#FFFFFF" fill-rule="evenodd" xlink:href="#path-3"></use>
                        </g>
                        <polygon id="路径-72" fill="#F1F4F8" fill-rule="nonzero" points="37 0 37 75 36 75 36 0"></polygon>
                        <g id="矩形">
                            <use fill="#00B8CC" xlink:href="#path-5"></use>
                            <use fill-opacity="0.8" fill="#FFFFFF" xlink:href="#path-5"></use>
                        </g>
                        <path d="M47,8 L63,8 C64.1045695,8 65,8.8954305 65,10 L65,14 C65,15.1045695 64.1045695,16 63,16 L47,16 C45.8954305,16 45,15.1045695 45,14 L45,10 C45,8.8954305 45.8954305,8 47,8 Z" id="矩形备份-24" fill="#E9ECF0"></path>
                        <g id="矩形备份-25">
                            <use fill="#00B8CC" xlink:href="#path-6"></use>
                            <use fill-opacity="0.2" fill="#FFFFFF" xlink:href="#path-6"></use>
                        </g>
                        <path d="M10,24 L26,24 C27.1045695,24 28,24.8954305 28,26 L28,30 C28,31.1045695 27.1045695,32 26,32 L10,32 C8.8954305,32 8,31.1045695 8,30 L8,26 C8,24.8954305 8.8954305,24 10,24 Z" id="矩形备份-22" fill="#E9ECF0"></path>
                        <path d="M10,40 L26,40 C27.1045695,40 28,40.8954305 28,42 L28,46 C28,47.1045695 27.1045695,48 26,48 L10,48 C8.8954305,48 8,47.1045695 8,46 L8,42 C8,40.8954305 8.8954305,40 10,40 Z" id="矩形备份-23" fill="#E9ECF0"></path>
                        <polygon id="路径-73" fill="#F1F4F8" fill-rule="nonzero" points="120 24 120 25 36 25 36 24"></polygon>
                        <circle id="椭圆形" fill-opacity="0.1" fill="#FC8800" cx="46" cy="55" r="2"></circle>
                        <circle id="椭圆形备份-3" fill-opacity="0.1" fill="#ED2F00" cx="46" cy="45" r="2"></circle>
                        <circle id="椭圆形备份-4" fill-opacity="0.1" fill="#3BB346" cx="46" cy="35" r="2"></circle>
                        <circle id="椭圆形备份-5" fill="#E9ECF0" cx="46" cy="65" r="2"></circle>
                        <path d="M54.3076923,53 L109.692308,53 C110.966811,53 112,53.8954305 112,55 C112,56.1045695 110.966811,57 109.692308,57 L54.3076923,57 C53.033189,57 52,56.1045695 52,55 C52,53.8954305 53.033189,53 54.3076923,53 Z" id="矩形" fill-opacity="0.1" fill="#FC8800"></path>
                        <path d="M54.3076923,43 L109.692308,43 C110.966811,43 112,43.8954305 112,45 C112,46.1045695 110.966811,47 109.692308,47 L54.3076923,47 C53.033189,47 52,46.1045695 52,45 C52,43.8954305 53.033189,43 54.3076923,43 Z" id="矩形备份-37" fill-opacity="0.1" fill="#ED2F00"></path>
                        <path d="M54.3076923,33 L109.692308,33 C110.966811,33 112,33.8954305 112,35 C112,36.1045695 110.966811,37 109.692308,37 L54.3076923,37 C53.033189,37 52,36.1045695 52,35 C52,33.8954305 53.033189,33 54.3076923,33 Z" id="矩形备份-38" fill-opacity="0.1" fill="#3BB346"></path>
                        <path d="M54.3076923,63 L109.692308,63 C110.966811,63 112,63.8954305 112,65 C112,66.1045695 110.966811,67 109.692308,67 L54.3076923,67 C53.033189,67 52,66.1045695 52,65 C52,63.8954305 53.033189,63 54.3076923,63 Z" id="矩形备份-20" fill="#E9ECF0"></path>
                    </g>
                </g>
            </g>
        </g>
    </g>
</svg>