<?xml version="1.0" encoding="UTF-8"?>
<svg width="187px" height="124px" viewBox="0 0 187 124" version="1.1" xmlns="http://www.w3.org/2000/svg" xmlns:xlink="http://www.w3.org/1999/xlink">
    <title>none</title>
    <defs>
        <rect id="path-1" x="108.999988" y="0" width="65.6" height="65.6" rx="2"></rect>
        <filter x="-15.2%" y="-15.2%" width="142.7%" height="142.7%" filterUnits="objectBoundingBox" id="filter-2">
            <feOffset dx="4" dy="4" in="SourceAlpha" result="shadowOffsetOuter1"></feOffset>
            <feGaussianBlur stdDeviation="4" in="shadowOffsetOuter1" result="shadowBlurOuter1"></feGaussianBlur>
            <feColorMatrix values="0 0 0 0 0.749019608   0 0 0 0 0.780392157   0 0 0 0 0.823529412  0 0 0 0.5 0" type="matrix" in="shadowBlurOuter1"></feColorMatrix>
        </filter>
        <path d="M1.42108547e-14,1 C1.42108547e-14,0.44771 0.448,0 1,0 L64.6,0 C65.152,0 65.6,0.44772 65.6,1 L65.6,9.6 L1.42108547e-14,9.6 L1.42108547e-14,1 Z" id="path-3"></path>
    </defs>
    <g id="页面" stroke="none" stroke-width="1" fill="none" fill-rule="evenodd">
        <g id="11" transform="translate(-743.000000, -356.000000)">
            <g id="none" transform="translate(743.000000, 360.000000)">
                <rect id="矩形" fill="#F2F4F7" fill-rule="nonzero" x="0" y="4" width="160" height="116" rx="4"></rect>
                <path d="M0,8 C0,5.79086 1.790858,4 4,4 L155.999988,4 C158.208988,4 159.999988,5.79086 159.999988,8 L159.999988,13.6 L0,13.6 L0,8 Z" id="路径" fill="#D5D8DE" fill-rule="nonzero"></path>
                <circle id="椭圆形" fill="#FFFFFF" fill-rule="nonzero" cx="8.599998" cy="8.8" r="1.6"></circle>
                <circle id="椭圆形" fill="#FFFFFF" fill-rule="nonzero" cx="14.999988" cy="8.8" r="1.6"></circle>
                <circle id="椭圆形" fill="#FFFFFF" fill-rule="nonzero" cx="21.399988" cy="8.8" r="1.6"></circle>
                <rect id="矩形" fill="#FFFFFF" fill-rule="nonzero" x="6.999998" y="20" width="147.2" height="92.8" rx="4"></rect>
                <path d="M15.399988,26.4 C14.295388,26.4 13.399988,27.2954 13.399988,28.4 L13.399988,47.6 C13.399988,48.7046 14.295388,49.6 15.399988,49.6 L42.599988,49.6 C43.704588,49.6 44.599988,48.7046 44.599988,47.6 L44.599988,28.4 C44.599988,27.2954 43.704588,26.4 42.599988,26.4 L15.399988,26.4 Z M18.999988,34.4 C20.325488,34.4 21.399988,33.3255 21.399988,32 C21.399988,30.6745 20.325488,29.6 18.999988,29.6 C17.674488,29.6 16.599988,30.6745 16.599988,32 C16.599988,33.3255 17.674488,34.4 18.999988,34.4 Z" id="形状" fill="#D4E0FD"></path>
                <path d="M44.599988,43.3762 C44.599988,42.9056 44.434088,42.4501 44.131388,42.0898 L38.403088,35.2704 C37.648688,34.3722 36.286888,34.3131 35.457488,35.1425 L27.941788,42.6583 C27.189588,43.4104 25.980288,43.4422 25.189588,42.7306 L20.010388,38.0694 C19.219788,37.3578 18.010388,37.3896 17.258288,38.1417 L13.985788,41.4142 C13.610688,41.7893 13.399988,42.298 13.399988,42.8284 L13.399988,48.6 C13.399988,49.1523 13.847688,49.6 14.399988,49.6 L43.599988,49.6 C44.152288,49.6 44.599988,49.1523 44.599988,48.6 L44.599988,43.3762 Z" id="路径" fill="#2A64F6" opacity="0.2"></path>
                <rect id="矩形" fill="#E7EAF1" fill-rule="nonzero" x="50.999988" y="26.4" width="19.2" height="5.6" rx="2"></rect>
                <rect id="矩形" fill="#E7EAF1" fill-rule="nonzero" x="50.999988" y="35.2" width="38.4" height="5.6" rx="2"></rect>
                <rect id="矩形" fill="#E7EAF1" fill-rule="nonzero" x="50.999988" y="44" width="57.6" height="5.6" rx="2"></rect>
                <line x1="14.299988" y1="55.5" x2="147.699988" y2="55.5" id="路径" stroke="#F5F7FA" stroke-linecap="round"></line>
                <rect id="矩形" fill="#2A64F6" fill-rule="nonzero" x="13.599988" y="99.2" width="12.8" height="5.6" rx="2"></rect>
                <rect id="矩形" fill="#E7EAF1" fill-rule="nonzero" x="31.199988" y="99.2" width="12.8" height="5.6" rx="2"></rect>
                <rect id="矩形" fill="#E7EAF1" fill-rule="nonzero" x="13.599988" y="62.4" width="133.6" height="30.4" rx="2"></rect>
                <g id="矩形" fill-rule="nonzero">
                    <use fill="black" fill-opacity="1" filter="url(#filter-2)" xlink:href="#path-1"></use>
                    <use fill="#FFFFFF" xlink:href="#path-1"></use>
                </g>
                <g id="Clipped" transform="translate(108.999988, 0.000000)">
                    <mask id="mask-4" fill="white">
                        <use xlink:href="#path-3"></use>
                    </mask>
                    <g id="路径"></g>
                    <path d="M1.42108547e-14,0 L65.6,0 L1.42108547e-14,0 Z M65.6,10.6 L1.42108547e-14,10.6 L1.42108547e-14,8.6 L65.6,8.6 L65.6,10.6 Z M1.42108547e-14,9.6 L1.42108547e-14,0 L1.42108547e-14,9.6 Z M65.6,0 L65.6,9.6 L65.6,0 Z" id="形状" fill="#F5F7FA" fill-rule="nonzero" mask="url(#mask-4)"></path>
                </g>
                <circle id="椭圆形" fill="#FF5E57" fill-rule="nonzero" cx="114.899988" cy="4.4" r="1.2"></circle>
                <circle id="椭圆形" fill="#FFBD2F" fill-rule="nonzero" cx="119.699988" cy="4.4" r="1.2"></circle>
                <circle id="椭圆形" fill="#28C840" fill-rule="nonzero" cx="124.499988" cy="4.4" r="1.2"></circle>
                <rect id="矩形" fill="#E7EAF1" fill-rule="nonzero" x="113.699988" y="12.8" width="17.6" height="5.6" rx="2"></rect>
                <rect id="矩形" fill="#E7EAF1" fill-rule="nonzero" x="113.699988" y="38.4" width="17.6" height="5.6" rx="2"></rect>
                <rect id="矩形" fill="#E7EAF1" fill-rule="nonzero" x="113.699988" y="21.6" width="56" height="13.6" rx="2"></rect>
                <rect id="矩形" fill="#E7EAF1" fill-rule="nonzero" x="113.699988" y="47.2" width="56" height="13.6" rx="2"></rect>
                <path d="M146.114988,28.2333 L146.114988,29.2121 L151.114988,29.2121 L151.114988,28.2333 C151.114988,23.6862 147.428988,20 142.881988,20 C138.334988,20 134.647988,23.6862 134.647988,28.2333 L134.647988,29.2121 L139.647988,29.2121 L139.647988,28.2333 C139.647988,26.4476 141.095988,25 142.881988,25 C144.667988,25 146.114988,26.4476 146.114988,28.2333 Z M129.120988,34.1333 C129.120988,31.9242 130.911988,30.1333 133.120988,30.1333 L151.835988,30.1333 C154.044988,30.1333 155.835988,31.9242 155.835988,34.1333 L155.835988,46.4 C155.835988,48.6091 154.044988,50.4 151.835988,50.4 L133.120988,50.4 C130.911988,50.4 129.120988,48.6091 129.120988,46.4 L129.120988,34.1333 Z M143.967988,40.3925 C144.729988,39.9555 145.241988,39.1346 145.241988,38.1939 C145.241988,36.7948 144.107988,35.6605 142.708988,35.6605 C141.309988,35.6605 140.175988,36.7948 140.175988,38.1939 C140.175988,39.1346 140.687988,39.9555 141.449988,40.3925 L140.767988,43.6385 C140.637988,44.2599 141.111988,44.8439 141.746988,44.8439 L143.670988,44.8439 C144.305988,44.8439 144.779988,44.2599 144.649988,43.6385 L143.967988,40.3925 Z" id="形状" fill="#CED5E3"></path>
                <path d="M145.193988,28.2333 L145.193988,29.2121 L150.193988,29.2121 L150.193988,28.2333 C150.193988,23.6862 146.507988,20 141.960988,20 C137.412988,20 133.726988,23.6862 133.726988,28.2333 L133.726988,29.2121 L138.726988,29.2121 L138.726988,28.2333 C138.726988,26.4476 140.174988,25 141.960988,25 C143.745988,25 145.193988,26.4476 145.193988,28.2333 Z M128.199988,34.1333 C128.199988,31.9242 129.990988,30.1333 132.199988,30.1333 L150.914988,30.1333 C153.123988,30.1333 154.914988,31.9242 154.914988,34.1333 L154.914988,46.4 C154.914988,48.6091 153.123988,50.4 150.914988,50.4 L132.199988,50.4 C129.990988,50.4 128.199988,48.6091 128.199988,46.4 L128.199988,34.1333 Z M143.046988,40.3925 C143.808988,39.9555 144.320988,39.1346 144.320988,38.1939 C144.320988,36.7948 143.186988,35.6605 141.787988,35.6605 C140.388988,35.6605 139.254988,36.7948 139.254988,38.1939 C139.254988,39.1346 139.766988,39.9555 140.528988,40.3925 L139.846988,43.6385 C139.716988,44.2599 140.190988,44.8439 140.825988,44.8439 L142.749988,44.8439 C143.384988,44.8439 143.858988,44.2599 143.728988,43.6385 L143.046988,40.3925 Z" id="形状" fill="#2A64F6"></path>
            </g>
        </g>
    </g>
</svg>