
<svg width="192px" height="121px" viewBox="0 0 192 121" version="1.1" xmlns="http://www.w3.org/2000/svg" xmlns:xlink="http://www.w3.org/1999/xlink">
    <defs>
        <path d="M32.399988,26.4 C31.295388,26.4 30.399988,27.2954 30.399988,28.4 L30.399988,47.6 C30.399988,48.7046 31.295388,49.6 32.399988,49.6 L59.599988,49.6 C60.704588,49.6 61.599988,48.7046 61.599988,47.6 L61.599988,28.4 C61.599988,27.2954 60.704588,26.4 59.599988,26.4 L32.399988,26.4 Z M35.999988,34.4 C37.325488,34.4 38.399988,33.3255 38.399988,32 C38.399988,30.6745 37.325488,29.6 35.999988,29.6 C34.674488,29.6 33.599988,30.6745 33.599988,32 C33.599988,33.3255 34.674488,34.4 35.999988,34.4 Z" id="path--786h8k6_a-1"></path>
        <path d="M61.599988,43.3762 C61.599988,42.9056 61.434088,42.4501 61.131388,42.0898 L55.403088,35.2704 C54.648688,34.3722 53.286888,34.3131 52.457488,35.1425 L44.941788,42.6583 C44.189588,43.4104 42.980288,43.4422 42.189588,42.7306 L37.010388,38.0694 C36.219788,37.3578 35.010388,37.3896 34.258288,38.1417 L30.985788,41.4142 C30.610688,41.7893 30.399988,42.298 30.399988,42.8284 L30.399988,48.6 C30.399988,49.1523 30.847688,49.6 31.399988,49.6 L60.599988,49.6 C61.152288,49.6 61.599988,49.1523 61.599988,48.6 L61.599988,43.3762 Z" id="path--786h8k6_a-2"></path>
        <path d="M-1.52020044e-23,1 C-1.52020044e-23,0.44771 0.448,0 1,0 L64.6,0 C65.152,0 65.6,0.44772 65.6,1 L65.6,9.6 L-1.52020044e-23,9.6 L-1.52020044e-23,1 Z" id="path--786h8k6_a-3"></path>
    </defs>
    <g id="页面-1" stroke="none" stroke-width="1" fill="none" fill-rule="evenodd">
        <g id="403" transform="translate(-647.000000, -361.000000)">
            <g id="403" transform="translate(647.000000, 361.000000)">
                <rect id="矩形" x="0" y="0" width="192" height="121"></rect>
                <rect id="矩形" fill="#F2F4F7" fill-rule="nonzero" x="17" y="4" width="160" height="116" rx="4"></rect>
                <path d="M17,8 C17,5.79086 18.790858,4 21,4 L172.999988,4 C175.208988,4 176.999988,5.79086 176.999988,8 L176.999988,13.6 L17,13.6 L17,8 Z" id="路径" fill="#D5D8DE" fill-rule="nonzero"></path>
                <circle id="椭圆形" fill="#FFFFFF" fill-rule="nonzero" cx="25.599998" cy="8.8" r="1.6"></circle>
                <circle id="椭圆形" fill="#FFFFFF" fill-rule="nonzero" cx="31.999988" cy="8.8" r="1.6"></circle>
                <circle id="椭圆形" fill="#FFFFFF" fill-rule="nonzero" cx="38.399988" cy="8.8" r="1.6"></circle>
                <rect id="矩形" fill="#FFFFFF" fill-rule="nonzero" x="23.999998" y="20" width="147.2" height="92.8" rx="4"></rect>
                <g id="形状" fill-rule="nonzero">
                    <use fill="currentColor" xlink:href="#path--786h8k6_a-1"></use>
                    <use fill-opacity="0.8" fill="#FFFFFF" xlink:href="#path--786h8k6_a-1"></use>
                </g>
                <g id="路径" fill-rule="nonzero">
                    <use fill="currentColor" xlink:href="#path--786h8k6_a-2"></use>
                    <use fill-opacity="0.5" fill="#FFFFFF" xlink:href="#path--786h8k6_a-2"></use>
                </g>
                <rect id="矩形" fill="#E7EAF1" fill-rule="nonzero" x="67.999988" y="26.4" width="19.2" height="5.6" rx="2"></rect>
                <rect id="矩形" fill="#E7EAF1" fill-rule="nonzero" x="67.999988" y="35.2" width="38.4" height="5.6" rx="2"></rect>
                <rect id="矩形" fill="#E7EAF1" fill-rule="nonzero" x="67.999988" y="44" width="57.6" height="5.6" rx="2"></rect>
                <line x1="31.299988" y1="55.5" x2="164.699988" y2="55.5" id="路径" stroke="#F5F7FA" stroke-linecap="round"></line>
                <rect id="矩形" fill="currentColor" fill-rule="nonzero" x="30.599988" y="99.2" width="12.8" height="5.6" rx="2"></rect>
                <rect id="矩形" fill="#E7EAF1" fill-rule="nonzero" x="48.199988" y="99.2" width="12.8" height="5.6" rx="2"></rect>
                <rect id="矩形" fill="#E7EAF1" fill-rule="nonzero" x="30.599988" y="62.4" width="133.6" height="30.4" rx="2"></rect>
                <g id="矩形" transform="translate(125.999988, 0.000000)" fill-rule="nonzero">
                    <g id="path-1-link" fill="#000000">
                        <rect id="path-1" x="2.84217094e-14" y="0" width="65.6" height="65.6" rx="2"></rect>
                    </g>
                    <g id="path-1-link" fill="#FFFFFF">
                        <rect id="path-1" x="2.84217094e-14" y="0" width="65.6" height="65.6" rx="2"></rect>
                    </g>
                </g>
                <g id="形状-Clipped" transform="translate(125.999988, 0.000000)">
                    <mask id="mask--786h8k6_a-4" fill="white">
                        <use xlink:href="#path--786h8k6_a-3"></use>
                    </mask>
                    <g id="path-3"></g>
                    <path d="M-1.52020044e-23,0 L65.6,0 L-1.52020044e-23,0 Z M65.6,10.6 L-1.52020044e-23,10.6 L-1.52020044e-23,8.6 L65.6,8.6 L65.6,10.6 Z M1.11022287e-16,9.6 L1.11022287e-16,0 L1.11022287e-16,9.6 Z M65.6,0 L65.6,9.6 L65.6,0 Z" id="形状" fill="#F5F7FA" fill-rule="nonzero" mask="url(#mask--786h8k6_a-4)"></path>
                </g>
                <circle id="椭圆形" fill="#FF5E57" fill-rule="nonzero" cx="131.899988" cy="4.4" r="1.2"></circle>
                <circle id="椭圆形" fill="#FFBD2F" fill-rule="nonzero" cx="136.699988" cy="4.4" r="1.2"></circle>
                <circle id="椭圆形" fill="#28C840" fill-rule="nonzero" cx="141.499988" cy="4.4" r="1.2"></circle>
                <rect id="矩形" fill="#E7EAF1" fill-rule="nonzero" opacity="0.6" x="130.699988" y="12.8" width="17.6" height="5.6" rx="2"></rect>
                <rect id="矩形" fill="#E7EAF1" fill-rule="nonzero" opacity="0.6" x="130.699988" y="38.4" width="17.6" height="5.6" rx="2"></rect>
                <rect id="矩形" fill="#E7EAF1" fill-rule="nonzero" opacity="0.6" x="130.699988" y="21.6" width="56" height="13.6" rx="2"></rect>
                <rect id="矩形" fill="#E7EAF1" fill-rule="nonzero" opacity="0.6" x="130.699988" y="47.2" width="56" height="13.6" rx="2"></rect>
                <path d="M163.114988,28.2333 L163.114988,29.2121 L168.114988,29.2121 L168.114988,28.2333 C168.114988,23.6862 164.428988,20 159.881988,20 C155.334988,20 151.647988,23.6862 151.647988,28.2333 L151.647988,29.2121 L156.647988,29.2121 L156.647988,28.2333 C156.647988,26.4476 158.095988,25 159.881988,25 C161.667988,25 163.114988,26.4476 163.114988,28.2333 Z M146.120988,34.1333 C146.120988,31.9242 147.911988,30.1333 150.120988,30.1333 L168.835988,30.1333 C171.044988,30.1333 172.835988,31.9242 172.835988,34.1333 L172.835988,46.4 C172.835988,48.6091 171.044988,50.4 168.835988,50.4 L150.120988,50.4 C147.911988,50.4 146.120988,48.6091 146.120988,46.4 L146.120988,34.1333 Z M160.967988,40.3925 C161.729988,39.9555 162.241988,39.1346 162.241988,38.1939 C162.241988,36.7948 161.107988,35.6605 159.708988,35.6605 C158.309988,35.6605 157.175988,36.7948 157.175988,38.1939 C157.175988,39.1346 157.687988,39.9555 158.449988,40.3925 L157.767988,43.6385 C157.637988,44.2599 158.111988,44.8439 158.746988,44.8439 L160.670988,44.8439 C161.305988,44.8439 161.779988,44.2599 161.649988,43.6385 L160.967988,40.3925 Z" id="形状" fill="#CED5E3" fill-rule="nonzero"></path>
                <path d="M162.193988,28.2333 L162.193988,29.2121 L167.193988,29.2121 L167.193988,28.2333 C167.193988,23.6862 163.507988,20 158.960988,20 C154.412988,20 150.726988,23.6862 150.726988,28.2333 L150.726988,29.2121 L155.726988,29.2121 L155.726988,28.2333 C155.726988,26.4476 157.174988,25 158.960988,25 C160.745988,25 162.193988,26.4476 162.193988,28.2333 Z M145.199988,34.1333 C145.199988,31.9242 146.990988,30.1333 149.199988,30.1333 L167.914988,30.1333 C170.123988,30.1333 171.914988,31.9242 171.914988,34.1333 L171.914988,46.4 C171.914988,48.6091 170.123988,50.4 167.914988,50.4 L149.199988,50.4 C146.990988,50.4 145.199988,48.6091 145.199988,46.4 L145.199988,34.1333 Z M160.046988,40.3925 C160.808988,39.9555 161.320988,39.1346 161.320988,38.1939 C161.320988,36.7948 160.186988,35.6605 158.787988,35.6605 C157.388988,35.6605 156.254988,36.7948 156.254988,38.1939 C156.254988,39.1346 156.766988,39.9555 157.528988,40.3925 L156.846988,43.6385 C156.716988,44.2599 157.190988,44.8439 157.825988,44.8439 L159.749988,44.8439 C160.384988,44.8439 160.858988,44.2599 160.728988,43.6385 L160.046988,40.3925 Z" id="形状" fill="currentColor" fill-rule="nonzero"></path>
            </g>
        </g>
    </g>
</svg>
