<?xml version="1.0" encoding="UTF-8"?>
<svg width="19px" height="18px" viewBox="0 0 19 18" version="1.1" xmlns="http://www.w3.org/2000/svg" xmlns:xlink="http://www.w3.org/1999/xlink">
    <title>Amount</title>
    <g id="报表" stroke="none" stroke-width="1" fill="none" fill-rule="evenodd">
        <g id="计算明细" transform="translate(-1019, -102)" stroke="#868D9C" stroke-width="1.66666667">
            <g id="编组-18" transform="translate(370, 74)">
                <g id="编组" transform="translate(650, 29)">
                    <path d="M0,3.54166667 C0,3.08141667 0.373095833,2.70833333 0.833333333,2.70833333 L15.8333333,2.70833333 C16.2935833,2.70833333 16.6666667,3.08141667 16.6666667,3.54166667 L16.6666667,14.375 C16.6666667,14.83525 16.2935833,15.2083333 15.8333333,15.2083333 L0.833333333,15.2083333 C0.373095833,15.2083333 0,14.83525 0,14.375 L0,3.54166667 Z" id="路径"></path>
                    <polyline id="路径" points="6.25 5.625 8.33333333 7.70833333 10.4166667 5.625"></polyline>
                    <line x1="5.83333333" y1="8.125" x2="10.8333333" y2="8.125" id="路径"></line>
                    <line x1="5.83333333" y1="10.625" x2="10.8333333" y2="10.625" id="路径"></line>
                    <line x1="8.33333333" y1="8.125" x2="8.33333333" y2="12.2916667" id="路径"></line>
                    <line x1="1.66666667" y1="0.208333333" x2="15" y2="0.208333333" id="路径"></line>
                </g>
            </g>
        </g>
    </g>
</svg>