<?xml version="1.0" encoding="UTF-8"?>
<svg width="28px" height="40px" viewBox="0 0 28 40" version="1.1" xmlns="http://www.w3.org/2000/svg" xmlns:xlink="http://www.w3.org/1999/xlink">
    <title>编组 39备份 12</title>
    <defs>
        <path d="M10.6947515,0 C4.78820334,0 0,4.78820334 0,10.6947515 C0,16.6012997 4.78820334,21.389503 10.6947515,21.389503 C16.6012997,21.389503 21.389503,16.6012997 21.389503,10.6947515 C21.389503,4.78820334 16.6012997,0 10.6947515,0 Z M10.6947515,1.63486647 C15.6983878,1.63486647 19.7546365,5.69111516 19.7546365,10.6947515 C19.7546365,15.6983878 15.6983878,19.7546365 10.6947515,19.7546365 C5.69111516,19.7546365 1.63486647,15.6983878 1.63486647,10.6947515 C1.63486647,5.69111516 5.69111516,1.63486647 10.6947515,1.63486647 Z" id="path-1"></path>
        <filter x="-9.4%" y="-4.7%" width="118.7%" height="118.7%" filterUnits="objectBoundingBox" id="filter-2">
            <feOffset dx="0" dy="1" in="SourceAlpha" result="shadowOffsetOuter1"></feOffset>
            <feGaussianBlur stdDeviation="0.5" in="shadowOffsetOuter1" result="shadowBlurOuter1"></feGaussianBlur>
            <feColorMatrix values="0 0 0 0 0   0 0 0 0 0   0 0 0 0 0  0 0 0 0.3 0" type="matrix" in="shadowBlurOuter1"></feColorMatrix>
        </filter>
        <path d="M10.5916397,13.9565008 L7.77726092,15.4361072 C7.66895623,15.4930464 7.53499962,15.4514064 7.47806048,15.3431017 C7.45538701,15.2999742 7.44756296,15.2505751 7.45579958,15.2025519 L7.99329809,12.0686951 C8.00562481,11.9968248 7.98179718,11.9234909 7.92958036,11.8725921 L5.65270013,9.65318241 C5.56507979,9.56777369 5.56328692,9.42750592 5.64869564,9.33988558 C5.68270584,9.3049947 5.72726943,9.28228842 5.77548744,9.27528193 L8.92205853,8.81805839 C8.9942204,8.80757265 9.05660193,8.76224982 9.0888737,8.69686007 L10.4960631,5.84558297 C10.5502154,5.73585833 10.683064,5.69080809 10.7927886,5.74496043 C10.8364815,5.76652418 10.8718474,5.80189004 10.8934112,5.84558297 L12.3006005,8.69686007 C12.3328723,8.76224982 12.3952538,8.80757265 12.4674157,8.81805839 L15.6139868,9.27528193 C15.7350751,9.2928771 15.8189729,9.40530228 15.8013777,9.52639061 C15.7943713,9.57460862 15.771665,9.61917221 15.7367741,9.65318241 L13.4598939,11.8725921 C13.407677,11.9234909 13.3838494,11.9968248 13.3961761,12.0686951 L13.9336747,15.2025519 C13.954359,15.3231509 13.8733621,15.4376838 13.7527631,15.4583681 C13.7047399,15.4666048 13.6553408,15.4587807 13.6122133,15.4361072 L10.7978346,13.9565008 C10.733291,13.9225682 10.6561832,13.9225682 10.5916397,13.9565008 Z" id="path-3"></path>
        <filter x="-34.3%" y="-25.7%" width="168.5%" height="171.9%" filterUnits="objectBoundingBox" id="filter-4">
            <feOffset dx="0" dy="1" in="SourceAlpha" result="shadowOffsetOuter1"></feOffset>
            <feGaussianBlur stdDeviation="1" in="shadowOffsetOuter1" result="shadowBlurOuter1"></feGaussianBlur>
            <feColorMatrix values="0 0 0 0 0   0 0 0 0 0   0 0 0 0 0  0 0 0 0.2 0" type="matrix" in="shadowBlurOuter1"></feColorMatrix>
        </filter>
        <filter x="-67.3%" y="-50.9%" width="234.6%" height="201.9%" filterUnits="objectBoundingBox" id="filter-5">
            <feOffset dx="0" dy="1" in="SourceAlpha" result="shadowOffsetOuter1"></feOffset>
            <feGaussianBlur stdDeviation="1" in="shadowOffsetOuter1" result="shadowBlurOuter1"></feGaussianBlur>
            <feColorMatrix values="0 0 0 0 0   0 0 0 0 0   0 0 0 0 0  0 0 0 0.2 0" type="matrix" in="shadowBlurOuter1" result="shadowMatrixOuter1"></feColorMatrix>
            <feMerge>
                <feMergeNode in="shadowMatrixOuter1"></feMergeNode>
                <feMergeNode in="SourceGraphic"></feMergeNode>
            </feMerge>
        </filter>
    </defs>
    <g id="704" stroke="none" stroke-width="1" fill="none" fill-rule="evenodd">
        <g id="2-1、手工选用模式-按物料-聚合表" transform="translate(-619.000000, -623.000000)">
            <g id="编组-39备份-12" transform="translate(624.000000, 628.000000)">
                <g id="编组-18备份" transform="translate(0.110497, 11.160221)">
                    <g id="路径" fill-rule="nonzero">
                        <use fill="black" fill-opacity="1" filter="url(#filter-2)" xlink:href="#path-1"></use>
                        <use fill="#FF563C" xlink:href="#path-1"></use>
                    </g>
                    <g id="星形">
                        <use fill="black" fill-opacity="1" filter="url(#filter-4)" xlink:href="#path-3"></use>
                        <use fill="#F56349" fill-rule="evenodd" xlink:href="#path-3"></use>
                    </g>
                </g>
                <g id="编组-40" filter="url(#filter-5)" fill-rule="nonzero">
                    <path d="M0.140733459,0.150611249 C0.0504884207,0.243427913 0,0.367780936 0,0.497237878 L0,12.2648719 C0,12.5394887 0.222620843,12.7621095 0.49723757,12.7621095 L0.575492195,12.7559152 C0.678373934,12.73952 0.774237522,12.6910721 0.848837628,12.616472 L4.0495621,9.41626662 L9.15930301,9.41654534 C9.43391974,9.41654534 9.65654058,9.1939245 9.65654058,8.91930777 C9.65654058,8.78501013 9.60221694,8.65642318 9.50592964,8.56280366 L0.843864199,0.140733767 C0.66884928,-0.0294321008 0.400670453,-0.0448452568 0.208783792,0.0921138035 L0.140733459,0.150611249 Z" id="路径" fill="#FFFFFF"></path>
                    <path d="M0.829120111,1.28145999 L8.34237978,8.58753733 L3.91145592,8.58781606 L3.8332013,8.59401035 C3.73031956,8.61040552 3.63445597,8.65885347 3.55985586,8.73345357 L0.829120111,11.4640567 L0.829120111,1.28145999 Z" id="路径" fill="#000000"></path>
                </g>
            </g>
        </g>
    </g>
</svg>