<?xml version="1.0" encoding="UTF-8"?>
<svg width="26px" height="26px" viewBox="0 0 26 26" version="1.1" xmlns="http://www.w3.org/2000/svg" xmlns:xlink="http://www.w3.org/1999/xlink">
    <!-- Generator: Sketch 56.2 (81672) - https://sketch.com -->
    <title>编组 17</title>
    <desc>Created with Sketch.</desc>
    <defs>
        <linearGradient x1="50%" y1="100%" x2="50%" y2="3.061617e-15%" id="linearGradient-1">
            <stop stop-color="#4388FF" offset="0%"></stop>
            <stop stop-color="#012492" offset="100%"></stop>
        </linearGradient>
    </defs>
    <g id="展现层" stroke="none" stroke-width="1" fill="none" fill-rule="evenodd">
        <g id="设计器" transform="translate(-13.000000, -12.000000)">
            <g id="编组-24">
                <g id="编组-17" transform="translate(13.000000, 12.000000)">
                    <rect id="矩形" fill="#D8D8D8" opacity="0.01" x="0" y="0" width="26" height="26"></rect>
                    <g id="编组-37备份-5" transform="translate(1.000000, 0.000000)" fill="#BAD0FF">
                        <path d="M15.4492754,13.5568687 L15.4492754,14.1777407 C15.4492754,14.385848 15.2805711,14.5545523 15.0724638,14.5545523 C15.0127638,14.5545523 14.9539182,14.5403672 14.9007752,14.5131659 L9.41886292,11.70723 L3.01449275,15.0127114 L3.01449275,18.1223985 L3.36013669,18.3007954 C3.61070482,18.4301208 3.76811594,18.6885063 3.76811594,18.9704805 L3.76811594,21.9036933 L0.815958498,20.3799991 C0.314822242,20.1213482 -2.84217094e-14,19.6045773 -2.84217094e-14,19.0406289 L-2.84217094e-14,6.5582491 C-2.84217094e-14,5.99430063 0.314822242,5.4775298 0.815958498,5.21887883 L10.9275362,-1.10134124e-13 L10.9275362,2.01498243 C10.9275362,2.86090512 10.4553029,3.63606137 9.70359849,4.02403782 L3.01449275,7.47647949 L3.01449275,11.612604 L8.55327665,8.73958321 C8.58281257,8.72426264 8.61265295,8.70977396 8.6427647,8.69611719 L8.72654851,8.65233958 C9.16146802,8.42509122 9.67978771,8.42378945 10.1158432,8.64885035 L12.4347826,9.8457223 L12.4347826,-1.10134124e-13 L22.5463603,5.21887883 C23.0474966,5.4775298 23.3623188,5.99430063 23.3623188,6.5582491 L23.3623188,19.0406289 C23.3623188,19.6045773 23.0474966,20.1213482 22.5463603,20.3799991 L12.3724473,25.631051 C11.9387673,25.8548859 11.4235515,25.8548859 10.9898715,25.631051 L9.13698122,24.6747206 C8.38527684,24.2867441 7.91304348,23.5115879 7.91304348,22.6656652 L7.91304348,20.6506827 L11.6811594,22.5955168 L12.4347826,22.20655 L12.4347826,15.8139317 L14.6160901,16.9045855 C15.1267211,17.159901 15.4492754,17.6818048 15.4492754,18.2527076 L15.4492754,20.6506827 L19.9398468,18.3329684 C20.190415,18.2036429 20.3478261,17.9452575 20.3478261,17.6632833 L20.3478261,7.93559469 C20.3478261,7.65362046 20.190415,7.39523504 19.9398468,7.26590956 L15.4492754,4.94819525 L15.4492754,13.5568687 Z" id="路径-68"></path>
                    </g>
                </g>
            </g>
        </g>
    </g>
</svg>