<?xml version="1.0" encoding="UTF-8"?>
<svg width="16px" height="16px" viewBox="0 0 16 16" version="1.1" xmlns="http://www.w3.org/2000/svg" xmlns:xlink="http://www.w3.org/1999/xlink">
    <title>编组 2备份</title>
    <defs>
        <path d="M12,2.66666667 L9.33333333,5.33333333 L11.3333333,5.33333333 C11.3333333,7.54 9.54,9.33333333 7.33333333,9.33333333 C6.66,9.33333333 6.02,9.16666667 5.46666667,8.86666667 L4.49333333,9.84 C5.31333333,10.36 6.28666667,10.6666667 7.33333333,10.6666667 C10.28,10.6666667 12.6666667,8.28 12.6666667,5.33333333 L14.6666667,5.33333333 L12,2.66666667 Z M3.33333333,5.33333333 C3.33333333,3.12666667 5.12666667,1.33333333 7.33333333,1.33333333 C8.00666667,1.33333333 8.64666667,1.5 9.2,1.8 L10.1733333,0.826666667 C9.35333333,0.306666667 8.38,0 7.33333333,0 C4.38666667,0 2,2.38666667 2,5.33333333 L0,5.33333333 L2.66666667,8 L5.33333333,5.33333333 L3.33333333,5.33333333 Z" id="path-1"></path>
    </defs>
    <g id="组件" stroke="none" stroke-width="1" fill="none" fill-rule="evenodd">
        <g id="Search/Default" transform="translate(-423.000000, -8.000000)">
            <g id="编组-14" transform="translate(296.000000, 0.000000)">
                <g id="编组-18" transform="translate(108.000000, 8.000000)">
                    <g id="replay" transform="translate(19.000000, 0.000000)">
                        <rect id="矩形" fill="#000000" fill-rule="nonzero" opacity="0" x="0" y="0" width="16" height="16"></rect>
                        <g id="color" transform="translate(0.666667, 2.666667)">
                            <mask id="mask-2" fill="white">
                                <use xlink:href="#path-1"></use>
                            </mask>
                            <g id="蒙版" fill-rule="nonzero"></g>
                            <g id="编组" mask="url(#mask-2)" fill-opacity="0.85">
                                <g transform="translate(-0.666667, -2.666667)" id="color">
                                    <rect id="矩形" fill="#000000" x="0" y="0" width="16" height="16"></rect>
                                </g>
                            </g>
                        </g>
                    </g>
                </g>
            </g>
        </g>
    </g>
</svg>