<?xml version="1.0" encoding="UTF-8"?>
<svg width="225px" height="132px" viewBox="0 0 225 132" version="1.1" xmlns="http://www.w3.org/2000/svg" xmlns:xlink="http://www.w3.org/1999/xlink">
    <title>illustrate01</title>
    <defs>
        <filter x="-4.4%" y="-6.9%" width="108.8%" height="113.7%" filterUnits="objectBoundingBox" id="filter-1">
            <feOffset dx="0" dy="2" in="SourceAlpha" result="shadowOffsetOuter1"></feOffset>
            <feGaussianBlur stdDeviation="1" in="shadowOffsetOuter1" result="shadowBlurOuter1"></feGaussianBlur>
            <feColorMatrix values="0 0 0 0 0   0 0 0 0 0   0 0 0 0 0  0 0 0 0.1 0" type="matrix" in="shadowBlurOuter1" result="shadowMatrixOuter1"></feColorMatrix>
            <feMerge>
                <feMergeNode in="shadowMatrixOuter1"></feMergeNode>
                <feMergeNode in="SourceGraphic"></feMergeNode>
            </feMerge>
        </filter>
        <path d="M10.0515556,8.02968136 L48.2133333,8.02968136 L48.2133333,8.02968136 L48.2133333,108.400698 L10.0515556,108.400698 C8.9381495,108.400698 8.03555556,107.498104 8.03555556,106.384698 L8.03555556,10.0456814 C8.03555556,8.93227531 8.9381495,8.02968136 10.0515556,8.02968136 Z" id="path-2"></path>
        <filter x="-7.5%" y="-3.0%" width="114.9%" height="106.0%" filterUnits="objectBoundingBox" id="filter-3">
            <feOffset dx="0" dy="0" in="SourceAlpha" result="shadowOffsetOuter1"></feOffset>
            <feGaussianBlur stdDeviation="1" in="shadowOffsetOuter1" result="shadowBlurOuter1"></feGaussianBlur>
            <feColorMatrix values="0 0 0 0 0   0 0 0 0 0   0 0 0 0 0  0 0 0 0.05 0" type="matrix" in="shadowBlurOuter1"></feColorMatrix>
        </filter>
        <path d="M56.2488889,8.02968136 L170.748444,8.02968136 C171.861851,8.02968136 172.764444,8.93227531 172.764444,10.0456814 L172.764444,106.384698 C172.764444,107.498104 171.861851,108.400698 170.748444,108.400698 L56.2488889,108.400698 L56.2488889,108.400698 L56.2488889,8.02968136 Z" id="path-4"></path>
        <filter x="-2.6%" y="-3.0%" width="105.1%" height="106.0%" filterUnits="objectBoundingBox" id="filter-5">
            <feOffset dx="0" dy="0" in="SourceAlpha" result="shadowOffsetOuter1"></feOffset>
            <feGaussianBlur stdDeviation="1" in="shadowOffsetOuter1" result="shadowBlurOuter1"></feGaussianBlur>
            <feColorMatrix values="0 0 0 0 0   0 0 0 0 0   0 0 0 0 0  0 0 0 0.05 0" type="matrix" in="shadowBlurOuter1"></feColorMatrix>
        </filter>
    </defs>
    <g id="页面-1" stroke="none" stroke-width="1" fill="none" fill-rule="evenodd">
        <g id="企查查风险雷达-关系挖掘-未选择关联类型（空态" transform="translate(-926.000000, -276.000000)">
            <g id="Modal/Sidebar/Medium" transform="translate(360.000000, 0.000000)">
                <g id="编组-10" transform="translate(275.500000, 56.000000)">
                    <g id="编组-6" transform="translate(275.000000, 220.000000)">
                        <g id="illustrate01" transform="translate(16.000000, 0.000000)">
                            <rect id="矩形" x="0" y="0" width="224" height="126"></rect>
                            <g id="编组-16" filter="url(#filter-1)" transform="translate(20.800000, 9.569620)">
                                <rect id="矩形" fill="#F2F3F5" x="0" y="0" width="180.8" height="116.43038" rx="3.024"></rect>
                                <g id="矩形" opacity="0.901204427">
                                    <use fill="black" fill-opacity="1" filter="url(#filter-3)" xlink:href="#path-2"></use>
                                    <use fill="#FFFFFF" fill-rule="evenodd" xlink:href="#path-2"></use>
                                </g>
                                <g id="矩形" opacity="0.897693452">
                                    <use fill="black" fill-opacity="1" filter="url(#filter-5)" xlink:href="#path-4"></use>
                                    <use fill="#FFFFFF" fill-rule="evenodd" xlink:href="#path-4"></use>
                                </g>
                                <rect id="矩形" fill="#CFD8E5" x="14.4622222" y="16.0043649" width="30" height="6.02226102" rx="1.008"></rect>
                                <rect id="矩形备份-3" fill="#ECEFF2" x="23" y="28" width="21" height="6.02226102" rx="1.008"></rect>
                                <rect id="矩形" stroke="#E5E7EC" stroke-width="1.008" fill="#FFFFFF" x="14" y="28" width="6.02666667" height="6.02226102" rx="3"></rect>
                                <rect id="矩形备份-4" fill="#00B8CC" opacity="0.25" x="23.0622222" y="41.152117" width="15" height="6.02226102" rx="1.008"></rect>
                                <rect id="矩形" stroke="#00B8CC" stroke-width="1.008" fill="#FFFFFF" x="14.2" y="41.4303797" width="6.02666667" height="6.02226102" rx="3"></rect>
                                <rect id="矩形" stroke="#E5E7EC" stroke-width="1.008" fill="#FFFFFF" x="14" y="28" width="6.02666667" height="6.02226102" rx="3"></rect>
                                <rect id="矩形备份-5" fill="#ECEFF2" x="23.0622222" y="54.2003492" width="9" height="6.02226102" rx="1.008"></rect>
                                <g id="编组-5" transform="translate(14.200000, 42.942607)">
                                    <rect id="矩形" stroke="#E5E7EC" stroke-width="1.008" fill="#FFFFFF" x="0" y="11.487773" width="6.02666667" height="6.02226102" rx="3"></rect>
                                    <rect id="矩形备份-18" fill="#00B8CC" x="1.5" y="0" width="3" height="2.99780692" rx="1.49890346"></rect>
                                </g>
                                <rect id="矩形备份-11" fill="#ECEFF2" x="23.0622222" y="80.2968136" width="20" height="6.02226102" rx="1.008"></rect>
                                <rect id="矩形" stroke="#E5E7EC" stroke-width="1.008" fill="#FFFFFF" x="14.2" y="80.4303797" width="6.02666667" height="6.02226102" rx="3"></rect>
                                <rect id="矩形备份-6" fill="#ECEFF2" x="23.0622222" y="67.2485814" width="9" height="6.02226102" rx="1.008"></rect>
                                <rect id="矩形" stroke="#E5E7EC" stroke-width="1.008" fill="#FFFFFF" x="14.2" y="67.4303797" width="6.02666667" height="6.02226102" rx="3"></rect>
                                <g id="编组-4" transform="translate(85.000000, 28.000000)">
                                    <line x1="7.90243902" y1="16.5571429" x2="7.90243902" y2="46.1857143" id="直线" stroke="#E5E7EC" stroke-width="1.76" stroke-linecap="square"></line>
                                    <path d="M36,31.3714286 C50.0487805,31.3714286 64.097561,45.3142857 64.097561,53.1571429" id="路径-5" stroke="#E5E7EC" stroke-width="1.76" stroke-linecap="square"></path>
                                    <path d="M7.90243902,7.84285714 C23.2682927,7.84285714 36,19.5513371 36,27.855665 C36,33.3918837 36,41.8257096 36,53.1571429" id="路径-2" stroke="#E5E7EC" stroke-width="1.76" stroke-linecap="square"></path>
                                    <rect id="矩形" fill="#F46C0E" x="0" y="0" width="15.804878" height="15.6857143" rx="7.84285714"></rect>
                                    <rect id="矩形备份" fill="#C9CDD4" x="0" y="22.6571429" width="15.804878" height="15.6857143" rx="7.84285714"></rect>
                                    <rect id="矩形备份-17" fill="#C9CDD4" x="28.097561" y="22.6571429" width="15.804878" height="15.6857143" rx="7.84285714"></rect>
                                    <rect id="矩形备份-14" fill="#3AB545" x="0" y="45.3142857" width="15.804878" height="15.6857143" rx="7.84285714"></rect>
                                    <rect id="矩形备份-15" fill="#3AB545" x="28.097561" y="45.3142857" width="15.804878" height="15.6857143" rx="7.84285714"></rect>
                                    <rect id="矩形备份-16" fill="#3AB545" x="56.195122" y="45.3142857" width="15.804878" height="15.6857143" rx="7.84285714"></rect>
                                    <g id="Icon/person" transform="translate(3.512195, 3.485714)">
                                        <path d="M8.04878049,7.07491071 L8.04878049,7.98809524 L0.731707314,7.98809524 L0.731707314,7.07491071 C0.731707314,5.86471429 3.17085366,5.27032738 4.3902439,5.27032738 C5.60963415,5.27032738 8.04878049,5.86471429 8.04878049,7.07491071 Z M4.3902439,4.35714319 C3.90791342,4.35743207 3.44525423,4.16739975 3.10419502,3.82891201 C2.7631358,3.49042427 2.57165981,3.03125339 2.57195089,2.55255953 C2.57195089,1.55404762 3.38414634,0.726190473 4.3902439,0.726190473 C5.39597561,0.726190473 6.20853691,1.55404762 6.20853691,2.55255953 C6.20882799,3.03125339 6.017352,3.49042427 5.67629279,3.82891201 C5.33523357,4.16739975 4.87257438,4.35743207 4.3902439,4.35714319 Z" id="icon" fill="#FFFFFF"></path>
                                        <rect id="person" x="0" y="0" width="8.7804878" height="8.71428571"></rect>
                                    </g>
                                    <g id="Icon/person备份" transform="translate(3.512195, 26.142857)">
                                        <path d="M8.04878049,7.07491071 L8.04878049,7.98809524 L0.731707314,7.98809524 L0.731707314,7.07491071 C0.731707314,5.86471429 3.17085366,5.27032738 4.3902439,5.27032738 C5.60963415,5.27032738 8.04878049,5.86471429 8.04878049,7.07491071 Z M4.3902439,4.35714319 C3.90791342,4.35743207 3.44525423,4.16739975 3.10419502,3.82891201 C2.7631358,3.49042427 2.57165981,3.03125339 2.57195089,2.55255953 C2.57195089,1.55404762 3.38414634,0.726190473 4.3902439,0.726190473 C5.39597561,0.726190473 6.20853691,1.55404762 6.20853691,2.55255953 C6.20882799,3.03125339 6.017352,3.49042427 5.67629279,3.82891201 C5.33523357,4.16739975 4.87257438,4.35743207 4.3902439,4.35714319 Z" id="icon" fill="#FFFFFF"></path>
                                        <rect id="person" x="0" y="0" width="8.7804878" height="8.71428571"></rect>
                                    </g>
                                    <g id="Icon/person备份-3" transform="translate(31.609756, 26.142857)">
                                        <path d="M8.04878049,7.07491071 L8.04878049,7.98809524 L0.731707314,7.98809524 L0.731707314,7.07491071 C0.731707314,5.86471429 3.17085366,5.27032738 4.3902439,5.27032738 C5.60963415,5.27032738 8.04878049,5.86471429 8.04878049,7.07491071 Z M4.3902439,4.35714319 C3.90791342,4.35743207 3.44525423,4.16739975 3.10419502,3.82891201 C2.7631358,3.49042427 2.57165981,3.03125339 2.57195089,2.55255953 C2.57195089,1.55404762 3.38414634,0.726190473 4.3902439,0.726190473 C5.39597561,0.726190473 6.20853691,1.55404762 6.20853691,2.55255953 C6.20882799,3.03125339 6.017352,3.49042427 5.67629279,3.82891201 C5.33523357,4.16739975 4.87257438,4.35743207 4.3902439,4.35714319 Z" id="icon" fill="#FFFFFF"></path>
                                        <rect id="person" x="0" y="0" width="8.7804878" height="8.71428571"></rect>
                                    </g>
                                    <g id="Icon/person备份-4" transform="translate(31.609756, 48.800000)">
                                        <path d="M8.04878049,7.07491071 L8.04878049,7.98809524 L0.731707314,7.98809524 L0.731707314,7.07491071 C0.731707314,5.86471429 3.17085366,5.27032738 4.3902439,5.27032738 C5.60963415,5.27032738 8.04878049,5.86471429 8.04878049,7.07491071 Z M4.3902439,4.35714319 C3.90791342,4.35743207 3.44525423,4.16739975 3.10419502,3.82891201 C2.7631358,3.49042427 2.57165981,3.03125339 2.57195089,2.55255953 C2.57195089,1.55404762 3.38414634,0.726190473 4.3902439,0.726190473 C5.39597561,0.726190473 6.20853691,1.55404762 6.20853691,2.55255953 C6.20882799,3.03125339 6.017352,3.49042427 5.67629279,3.82891201 C5.33523357,4.16739975 4.87257438,4.35743207 4.3902439,4.35714319 Z" id="icon" fill="#FFFFFF"></path>
                                        <rect id="person" x="0" y="0" width="8.7804878" height="8.71428571"></rect>
                                    </g>
                                    <g id="Icon/person备份-5" transform="translate(60.146341, 48.800000)">
                                        <path d="M8.04878049,7.07491071 L8.04878049,7.98809524 L0.731707314,7.98809524 L0.731707314,7.07491071 C0.731707314,5.86471429 3.17085366,5.27032738 4.3902439,5.27032738 C5.60963415,5.27032738 8.04878049,5.86471429 8.04878049,7.07491071 Z M4.3902439,4.35714319 C3.90791342,4.35743207 3.44525423,4.16739975 3.10419502,3.82891201 C2.7631358,3.49042427 2.57165981,3.03125339 2.57195089,2.55255953 C2.57195089,1.55404762 3.38414634,0.726190473 4.3902439,0.726190473 C5.39597561,0.726190473 6.20853691,1.55404762 6.20853691,2.55255953 C6.20882799,3.03125339 6.017352,3.49042427 5.67629279,3.82891201 C5.33523357,4.16739975 4.87257438,4.35743207 4.3902439,4.35714319 Z" id="icon" fill="#FFFFFF"></path>
                                        <rect id="person" x="0" y="0" width="8.7804878" height="8.71428571"></rect>
                                    </g>
                                    <g id="Icon/person备份-2" transform="translate(3.512195, 48.800000)">
                                        <path d="M8.04878049,7.07491071 L8.04878049,7.98809524 L0.731707314,7.98809524 L0.731707314,7.07491071 C0.731707314,5.86471429 3.17085366,5.27032738 4.3902439,5.27032738 C5.60963415,5.27032738 8.04878049,5.86471429 8.04878049,7.07491071 Z M4.3902439,4.35714319 C3.90791342,4.35743207 3.44525423,4.16739975 3.10419502,3.82891201 C2.7631358,3.49042427 2.57165981,3.03125339 2.57195089,2.55255953 C2.57195089,1.55404762 3.38414634,0.726190473 4.3902439,0.726190473 C5.39597561,0.726190473 6.20853691,1.55404762 6.20853691,2.55255953 C6.20882799,3.03125339 6.017352,3.49042427 5.67629279,3.82891201 C5.33523357,4.16739975 4.87257438,4.35743207 4.3902439,4.35714319 Z" id="icon" fill="#FFFFFF"></path>
                                        <rect id="person" x="0" y="0" width="8.7804878" height="8.71428571"></rect>
                                    </g>
                                </g>
                                <g id="编组-9" transform="translate(38.886349, 49.181798)">
                                    <ellipse id="椭圆形" stroke="#F2F3F5" stroke-width="2.88" fill="#00B8CC" cx="12.6273016" cy="12.6180707" rx="14.0673016" ry="14.0580707"></ellipse>
                                    <g id="Icon/arrow_back" transform="translate(12.627302, 12.618071) scale(-1, 1) translate(-12.627302, -12.618071) translate(1.004444, 1.003710)">
                                        <polygon id="icon" fill="#FFFFFF" points="19.3714286 10.6639187 19.3714286 12.5648024 7.58972571 12.5648024 12.9827314 17.9983874 11.6228571 19.3572676 3.87428572 11.6143605 11.6228571 3.87145352 12.9827314 5.2303337 7.58972571 10.6639187"></polygon>
                                        <rect id="arrow_back" x="0" y="0" width="23.2457143" height="23.2287211"></rect>
                                    </g>
                                </g>
                            </g>
                        </g>
                    </g>
                </g>
            </g>
        </g>
    </g>
</svg>