<?xml version="1.0" encoding="UTF-8"?>
<svg width="82px" height="68px" viewBox="0 0 82 68" version="1.1" xmlns="http://www.w3.org/2000/svg" xmlns:xlink="http://www.w3.org/1999/xlink">
    <title>no_permission</title>
    <defs>
        <radialGradient cx="109.183181%" cy="76.0225016%" fx="109.183181%" fy="76.0225016%" r="144.469094%" gradientTransform="translate(1.091832,0.760225),scale(1.000000,0.659822),rotate(-139.091368),translate(-1.091832,-0.760225)" id="radialGradient-1">
            <stop stop-color="#349CFF" offset="0%"></stop>
            <stop stop-color="#0066FF" offset="100%"></stop>
        </radialGradient>
        <linearGradient x1="-27.1388888%" y1="17.7643581%" x2="125.380619%" y2="95.4415025%" id="linearGradient-2">
            <stop stop-color="#E2F7FF" offset="0%"></stop>
            <stop stop-color="#005FFF" offset="100%"></stop>
        </linearGradient>
        <linearGradient x1="-47.469436%" y1="3.10284164%" x2="123.044374%" y2="86.5170785%" id="linearGradient-3">
            <stop stop-color="#E2F7FF" offset="0%"></stop>
            <stop stop-color="#A1DBFF" offset="50.1116805%"></stop>
            <stop stop-color="#0096FF" offset="100%"></stop>
        </linearGradient>
    </defs>
    <g id="页面-1" stroke="none" stroke-width="1" fill="none" fill-rule="evenodd">
        <g id="报表-设置-卡片查询为空" transform="translate(-289.000000, -409.000000)">
            <g id="编组-5" transform="translate(64.000000, 142.000000)">
                <g id="编组-10备份-4" transform="translate(1.000000, 182.000000)">
                    <g id="no_permission" transform="translate(224.000000, 85.000000)">
                        <g id="path-1-link" fill="#F2F4F6">
                            <rect id="path-1" x="0" y="0" width="82" height="68" rx="3"></rect>
                        </g>
                        <g id="issue" transform="translate(3.094340, 3.126437)">
                            <rect id="Rectangle" fill="#FFFFFF" fill-rule="nonzero" x="0" y="0" width="75.8113208" height="61.7471264" rx="2"></rect>
                            <g id="编组-2" transform="translate(25.528302, 9.770115)">
                                <path d="M12.3773585,17.5862069 C13.6590759,17.5862069 14.6981132,18.636022 14.6981132,19.9310345 C14.6981132,20.7987189 14.2316614,21.5563277 13.538294,21.9618396 L13.5377358,24.6206897 L11.2169811,24.6206897 L11.2172039,21.9622961 C10.5234059,21.5568963 10.0566038,20.7990446 10.0566038,19.9310345 C10.0566038,18.636022 11.0956411,17.5862069 12.3773585,17.5862069 Z" id="形状结合" fill="url(#radialGradient-1)" fill-rule="nonzero"></path>
                                <g id="路径" transform="translate(3.094340, 0.000000)" fill="url(#linearGradient-2)" fill-rule="nonzero">
                                    <g id="path-5-link">
                                        <path d="M9.28301887,-3.06328163e-23 C14.3310137,-3.06328163e-23 18.4379265,4.07104617 18.5630982,9.14093924 L18.5660377,9.37931034 L18.5660377,13.184326 L16.245283,13.184326 L16.245283,9.37931034 C16.245283,5.49427279 13.1281711,2.34482759 9.28301887,2.34482759 C5.50652999,2.34482759 2.4323123,5.3827969 2.32372305,9.17190073 L2.32075472,9.37931034 L2.32075472,13.184326 L0,13.184326 L0,9.37931034 C0,4.19926028 4.15614911,-3.06328163e-23 9.28301887,-3.06328163e-23 Z" id="path-5"></path>
                                    </g>
                                </g>
                                <g id="path-8-link" transform="translate(0.000000, 12.896552)" fill="url(#linearGradient-3)">
                                    <path d="M23.2075472,0 C24.0620255,0 24.754717,0.699876713 24.754717,1.56321839 L24.754717,15.6321839 C24.754717,16.4955256 24.0620255,17.1954023 23.2075472,17.1954023 L1.54716981,17.1954023 C0.692691519,17.1954023 0,16.4955256 0,15.6321839 L0,1.56321839 C0,0.699876713 0.692691519,0 1.54716981,0 L23.2075472,0 Z M12.3773585,4.68965517 C11.0956411,4.68965517 10.0566038,5.73947028 10.0566038,7.03448276 C10.0566038,7.90249291 10.5234059,8.66034463 11.2172039,9.06574437 L11.2172039,9.06574437 L11.2169811,11.7241379 L13.5377358,11.7241379 L13.538294,9.06528783 C14.2316614,8.65977593 14.6981132,7.90216721 14.6981132,7.03448276 C14.6981132,5.73947028 13.6590759,4.68965517 12.3773585,4.68965517 Z" id="path-8"></path>
                                </g>
                            </g>
                            <path d="M6.5754717,54.7126437 L53.7641509,54.7126437 C53.9777705,54.7126437 54.1509434,54.8876128 54.1509434,55.1034483 L54.1509434,55.8850575 C54.1509434,56.1008929 53.9777705,56.2758621 53.7641509,56.2758621 L6.5754717,56.2758621 C6.36185211,56.2758621 6.18867925,56.1008929 6.18867925,55.8850575 L6.18867925,55.1034483 C6.18867925,54.8876128 6.36185211,54.7126437 6.5754717,54.7126437 Z" id="矩形备份" fill="#C5CEDB" fill-rule="nonzero" opacity="0.500023251"></path>
                            <path d="M6.5754717,48.4597701 L69.2358491,48.4597701 C69.4494683,48.4597701 69.6226415,48.6347393 69.6226415,48.8505747 L69.6226415,49.6321839 C69.6226415,49.8480193 69.4494683,50.0229885 69.2358491,50.0229885 L6.5754717,50.0229885 C6.36185211,50.0229885 6.18867925,49.8480193 6.18867925,49.6321839 L6.18867925,48.8505747 C6.18867925,48.6347393 6.36185211,48.4597701 6.5754717,48.4597701 Z" id="矩形备份-2" fill="#C5CEDB" fill-rule="nonzero" opacity="0.500023251"></path>
                        </g>
                    </g>
                </g>
            </g>
        </g>
    </g>
</svg>