<?xml version="1.0" encoding="UTF-8"?>
<svg width="38px" height="43px" viewBox="0 0 38 43" version="1.1" xmlns="http://www.w3.org/2000/svg" xmlns:xlink="http://www.w3.org/1999/xlink">
    <title>none</title>
    <g id="页面-1" stroke="none" stroke-width="1" fill="none" fill-rule="evenodd">
        <g id="报表-设置-卡片查询为空" transform="translate(-1282.000000, -400.000000)">
            <g id="编组-23备份-5" transform="translate(1160.000000, 136.000000)">
                <g id="none" transform="translate(122.000000, 264.000000)">
                    <path d="M28.4887176,16.6806246 C28.4757791,16.6806246 27.0094857,18.4640917 25.682288,20.2430933 C22.0331166,19.0304133 19.8763582,17.8177333 19.2130082,16.6050532 C19.8763582,16.2012308 21.6676086,14.4990132 22.9948062,13.2863332 C23.8303386,14.903442 25.6616424,16.0348725 28.4887176,16.6806246 Z" id="路径" fill="#868D9C"></path>
                    <path d="M0.178154013,17.734977 L3.57004717,10.1028081 C3.89298768,9.37627335 4.60142226,8.90964573 5.38194315,8.90964573 L32.6176111,8.90964573 C33.398132,8.90964573 34.1065665,9.37627335 34.429507,10.1028081 L37.6926739,17.5131055 C37.8174031,17.8832007 37.8603119,18.9162671 37.8214002,20.6123047 L37.8204049,39.9471325 C37.8204049,41.6331846 36.4836071,43 34.8345835,43 L2.98582144,43 C1.33679779,43 0,41.6331846 0,39.9471325 L0.000347737218,20.2986857 C0.00278343962,19.4751452 0.0222690588,18.0856784 0.178154013,17.734977 Z M23.3889346,24.1739835 L15.4267441,24.1739835 C14.6022323,24.1739835 13.9338334,24.8573911 13.9338334,25.7004172 C13.9338334,26.5434433 14.6022323,27.226851 15.4267441,27.226851 L23.3889346,27.226851 C24.2134464,27.226851 24.8818453,26.5434433 24.8818453,25.7004172 C24.8818453,24.8573911 24.2134464,24.1739835 23.3889346,24.1739835 Z M32.2971329,11.453702 L5.70242132,11.453702 L2.76337774,18.0682484 L35.2361765,18.0682484 L32.2971329,11.453702 Z" id="形状结合" fill="#E5E5E7" fill-rule="nonzero"></path>
                    <path d="M10.4688877,0 C10.0744876,2.3379193 11.6514968,3.69943837 15.199324,4.08395264 C15.1756719,4.08395264 13.3670759,6.74141859 14.549685,7.95058295 C11.8154928,7.75711665 7.4540305,7.34600077 6.39441277,4.202778 C7.18262172,3.80012627 8.97406984,1.93526757 10.4688877,0 Z" id="路径" fill="#868D9C"></path>
                </g>
            </g>
        </g>
    </g>
</svg>