<?xml version="1.0" encoding="UTF-8"?>
<svg width="16px" height="16px" viewBox="0 0 16 16" version="1.1" xmlns="http://www.w3.org/2000/svg" xmlns:xlink="http://www.w3.org/1999/xlink">
    <title>卡片模式</title>
    <g id="页面-1" stroke="none" stroke-width="1" fill="none" fill-rule="evenodd">
        <g id="报表-设置-卡片查询为空" transform="translate(-1408.000000, -154.000000)">
            <g id="编组-23备份-5" transform="translate(1160.000000, 136.000000)">
                <g id="编组-19" transform="translate(0.000000, 15.000000)">
                    <g id="卡片模式" transform="translate(248.000000, 3.000000)">
                        <rect id="矩形" x="0" y="0" width="16" height="16"></rect>
                        <g id="编组" transform="translate(2.000000, 2.000000)" fill="#4E5769">
                            <path d="M10.6666667,6.66666667 L1.33333333,6.66666667 C0.6,6.66666667 0,7.26666667 0,8 L0,10.6666667 C0,11.4 0.6,12 1.33333333,12 L10.6666667,12 C11.4,12 12,11.4 12,10.6666667 L12,8 C12,7.26666667 11.4,6.66666667 10.6666667,6.66666667 Z M10.6666667,0 C11.4,0 12,0.6 12,1.33333333 L12,4 C12,4.73333333 11.4,5.33333333 10.6666667,5.33333333 L1.33333333,5.33333333 C0.6,5.33333333 0,4.73333333 0,4 L0,1.33333333 C0,0.6 0.6,0 1.33333333,0 Z" id="形状结合"></path>
                        </g>
                    </g>
                </g>
            </g>
        </g>
    </g>
</svg>