<?xml version="1.0" encoding="UTF-8"?>
<svg width="14px" height="14px" viewBox="0 0 14 14" version="1.1" xmlns="http://www.w3.org/2000/svg" xmlns:xlink="http://www.w3.org/1999/xlink">
    <title>guanlian16</title>
    <defs>
        <rect id="path-1" x="0" y="0" width="14" height="14"></rect>
    </defs>
    <g id="页面-1" stroke="none" stroke-width="1" fill="none" fill-rule="evenodd">
        <g id="3-组合详情" transform="translate(-448.000000, -427.000000)">
            <g id="编组-13" transform="translate(383.000000, 237.000000)">
                <g id="编组-22备份-2" transform="translate(57.000000, 178.000000)">
                    <g id="guanlian16" transform="translate(8.000000, 12.000000)">
                        <mask id="mask-2" fill="white">
                            <use xlink:href="#path-1"></use>
                        </mask>
                        <use id="矩形" fill-opacity="0.01" fill="#FFFFFF" xlink:href="#path-1"></use>
                        <path d="M9.5,1 C9.77614237,1 10,1.22385763 10,1.5 L10,4 L12.5,4 C12.7761424,4 13,4.22385763 13,4.5 L13,12.5 C13,12.7761424 12.7761424,13 12.5,13 L4.5,13 C4.22385763,13 4,12.7761424 4,12.5 L4,10 L1.5,10 C1.22385763,10 1,9.77614237 1,9.5 L1,1.5 C1,1.22385763 1.22385763,1 1.5,1 L9.5,1 Z M9,4.5 L5,4.5 C4.72385763,4.5 4.5,4.72385763 4.5,5 L4.5,5 L4.5,9 C4.5,9.27614237 4.72385763,9.5 5,9.5 L5,9.5 L9,9.5 C9.27614237,9.5 9.5,9.27614237 9.5,9 L9.5,9 L9.5,5 C9.5,4.72385763 9.27614237,4.5 9,4.5 L9,4.5 Z" id="矩形-2" fill="#6E7D96" mask="url(#mask-2)"></path>
                    </g>
                </g>
            </g>
        </g>
    </g>
</svg>