<?xml version="1.0" encoding="UTF-8"?>
<svg width="14px" height="14px" viewBox="0 0 14 14" version="1.1" xmlns="http://www.w3.org/2000/svg" xmlns:xlink="http://www.w3.org/1999/xlink">
    <title>Icon/downloading</title>
    <g id="草稿" stroke="none" stroke-width="1" fill="none" fill-rule="evenodd">
        <g id="Icon/downloading" transform="translate(-1.000000, -1.000000)">
            <path d="M12.2133333,2.84 C11.2266667,2.03333333 10.0066667,1.5 8.66666667,1.36666667 L8.66666667,2.71333333 C9.64,2.83333333 10.5266667,3.22 11.2666667,3.79333333 L12.2133333,2.84 Z M13.2866667,7.33333333 L14.6333333,7.33333333 C14.5,5.99333333 13.9666667,4.77333333 13.16,3.78666667 L12.2066667,4.73333333 C12.78,5.47333333 13.1666667,6.36 13.2866667,7.33333333 Z M12.2066667,11.2666667 L13.16,12.22 C13.9666667,11.2333333 14.5,10.0066667 14.6333333,8.67333333 L13.2866667,8.67333333 C13.1666667,9.64 12.78,10.5266667 12.2066667,11.2666667 Z M8.66666667,13.2866667 L8.66666667,14.6333333 C10.0066667,14.5 11.2266667,13.9666667 12.2133333,13.16 L11.26,12.2066667 C10.5266667,12.78 9.64,13.1666667 8.66666667,13.2866667 Z M8.66666667,8 L8.66666667,4.66666667 L7.33333333,4.66666667 L7.33333333,8 L4.66666667,8 L8,11.3333333 L11.3333333,8 L8.66666667,8 Z M7.33333333,13.2866667 L7.33333333,14.6333333 C3.96666667,14.3 1.33333333,11.46 1.33333333,8 C1.33333333,4.54 3.96666667,1.7 7.33333333,1.36666667 L7.33333333,2.71333333 C4.7,3.04 2.66666667,5.28 2.66666667,8 C2.66666667,10.72 4.7,12.96 7.33333333,13.2866667 Z" id="icon" fill="#1D2129"></path>
            <rect id="downloading" x="0" y="0" width="16" height="16"></rect>
        </g>
    </g>
</svg>