<?xml version="1.0" encoding="UTF-8"?>
<svg width="24px" height="24px" viewBox="0 0 24 24" version="1.1" xmlns="http://www.w3.org/2000/svg" xmlns:xlink="http://www.w3.org/1999/xlink">
    <title>编组</title>
    <g id="集成平台711" stroke="none" stroke-width="1" fill="none" fill-rule="evenodd">
        <g id="编组" fill-rule="nonzero">
            <rect id="矩形" fill="#D8D8D8" opacity="0.01" x="0" y="0" width="24" height="24"></rect>
            <path d="M17.0710678,10 L19,10 C19.5522847,10 20,10.4477153 20,11 L20,13 C20,13.5522847 19.5522847,14 19,14 L17.0710678,14 L14,17.0710678 L14,19 C14,19.5522847 13.5522847,20 13,20 L11,20 C10.4477153,20 10,19.5522847 10,19 L10,17.0710678 L6.92893219,14 L5,14 C4.44771525,14 4,13.5522847 4,13 L4,11 C4,10.4477153 4.44771525,10 5,10 L6.92893219,10 L10,6.92893219 L10,5 C10,4.44771525 10.4477153,4 11,4 L13,4 C13.5522847,4 14,4.44771525 14,5 L14,6.92893219 L17.0710678,10 Z M16.1423415,10.4854872 L13.5145128,7.85765852 C13.3641944,7.94802913 13.1881664,8 13,8 L11,8 C10.8118336,8 10.6358056,7.94802913 10.4854872,7.85765852 L7.85765852,10.4854872 C7.94802913,10.6358056 8,10.8118336 8,11 L8,13 C8,13.1881664 7.94802913,13.3641944 7.85765852,13.5145128 L10.4854872,16.1423415 C10.6358056,16.0519709 10.8118336,16 11,16 L13,16 C13.1881664,16 13.3641944,16.0519709 13.5145128,16.1423415 L16.1423415,13.5145128 C16.0519709,13.3641944 16,13.1881664 16,13 L16,11 C16,10.8118336 16.0519709,10.6358056 16.1423415,10.4854872 Z M11,5 L11,7 L13,7 L13,5 L11,5 Z M5,11 L5,13 L7,13 L7,11 L5,11 Z M11,17 L11,19 L13,19 L13,17 L11,17 Z M17,11 L17,13 L19,13 L19,11 L17,11 Z M10.5,10 L13.5,10 C13.7761424,10 14,10.2238576 14,10.5 C14,10.7761424 13.7761424,11 13.5,11 L10.5,11 C10.2238576,11 10,10.7761424 10,10.5 C10,10.2238576 10.2238576,10 10.5,10 Z M10.5,13 L13.5,13 C13.7761424,13 14,13.2238576 14,13.5 C14,13.7761424 13.7761424,14 13.5,14 L10.5,14 C10.2238576,14 10,13.7761424 10,13.5 C10,13.2238576 10.2238576,13 10.5,13 Z" id="形状" fill="#000000"></path>
        </g>
    </g>
</svg>