<?xml version="1.0" encoding="UTF-8"?>
<svg width="16px" height="16px" viewBox="0 0 16 16" version="1.1" xmlns="http://www.w3.org/2000/svg" xmlns:xlink="http://www.w3.org/1999/xlink">
    <title>编组 16</title>
    <g id="【采】竞价大厅3.1" stroke="none" stroke-width="1" fill="none" fill-rule="evenodd">
        <g id="编组-16">
            <rect id="矩形" fill-opacity="0.1" fill="#F25535" x="0" y="0" width="16" height="16" rx="2"></rect>
            <g id="Icon/approval_black" transform="translate(1, 1)">
                <path d="M2.33333333,9.33333333 L2.33333333,12.8333333 L11.6666667,12.8333333 L11.6666667,9.33333333 C11.6666667,8.69166667 11.1416667,8.16666667 10.5,8.16666667 L3.5,8.16666667 C2.85833333,8.16666667 2.33333333,8.69166667 2.33333333,9.33333333 Z M10.5,10.5 L3.5,10.5 L3.5,9.33333333 L10.5,9.33333333 L10.5,10.5 Z M7,1.16666667 C5.39,1.16666667 4.08333333,2.47333333 4.08333333,4.08333333 L7,8.16666667 L9.91666667,4.08333333 C9.91666667,2.47333333 8.61,1.16666667 7,1.16666667 Z M7,6.41666667 L5.25,4.08333333 C5.25,3.115 6.03166667,2.33333333 7,2.33333333 C7.96833333,2.33333333 8.75,3.115 8.75,4.08333333 L7,6.41666667 Z" id="icon" fill="#E64322"></path>
                <polygon id="approval_black" points="0 0 14 0 14 14 0 14"></polygon>
            </g>
        </g>
    </g>
</svg>