<?xml version="1.0" encoding="UTF-8"?>
<svg width="196px" height="168px" viewBox="0 0 196 168" version="1.1" xmlns="http://www.w3.org/2000/svg" xmlns:xlink="http://www.w3.org/1999/xlink">
    <title>编组 14</title>
    <g id="页面-1" stroke="none" stroke-width="1" fill="none" fill-rule="evenodd">
        <g id="07.结算策略-整体控制开启隐藏备份-2" transform="translate(-829.000000, -366.000000)">
            <g id="编组-15" transform="translate(829.000000, 366.000000)">
                <rect id="矩形" x="0" y="0" width="196" height="168"></rect>
                <polygon id="矩形" fill="#000000" transform="translate(6.300000, 40.600000) rotate(-300.000000) translate(-6.300000, -40.600000) " points="5.6 37.8 7 37.8 7 43.4 5.6 43.4"></polygon>
                <rect id="矩形备份-16" fill="#000000" transform="translate(10.500000, 44.800000) rotate(-345.000000) translate(-10.500000, -44.800000) " x="9.8" y="42" width="1.4" height="5.6"></rect>
                <polygon id="矩形备份-17" fill="#000000" transform="translate(16.100000, 44.800000) rotate(-15.000000) translate(-16.100000, -44.800000) " points="15.4 42 16.8 42 16.8 47.6 15.4 47.6"></polygon>
                <g id="编组-17" transform="translate(179.200000, 5.600000)" fill="#000000">
                    <rect id="矩形" x="4.9" y="0" width="1.4" height="4.2"></rect>
                    <rect id="矩形备份-15" x="4.9" y="7" width="1.4" height="4.2"></rect>
                    <polygon id="矩形备份-13" transform="translate(9.100000, 5.600000) rotate(-270.000000) translate(-9.100000, -5.600000) " points="8.4 3.5 9.8 3.5 9.8 7.7 8.4 7.7"></polygon>
                    <polygon id="矩形备份-14" transform="translate(2.100000, 5.600000) rotate(-270.000000) translate(-2.100000, -5.600000) " points="1.4 3.5 2.8 3.5 2.8 7.7 1.4 7.7"></polygon>
                </g>
                <path d="M189,134.75 L7,134.75 C4.87370371,134.75 3.15,136.473704 3.15,138.6 L3.15,153.65 L192.85,153.65 L192.85,138.6 C192.85,136.473704 191.126296,134.75 189,134.75 Z M189,136.85 L189.115063,136.853722 C190.027925,136.912973 190.75,137.672162 190.75,138.6 L190.75,151.55 L5.25,151.55 L5.25,138.6 C5.25,137.633502 6.03350169,136.85 7,136.85 L189,136.85 Z" id="矩形" fill="#000000" fill-rule="nonzero"></path>
                <path d="M119.35,134.75 L76.65,134.75 L76.65,142.45 L119.35,142.45 L119.35,134.75 Z M117.25,136.85 L117.25,140.35 L78.75,140.35 L78.75,136.85 L117.25,136.85 Z" id="矩形" fill="#000000" fill-rule="nonzero"></path>
                <path d="M172.9,24.15 L23.1,24.15 C21.7469024,24.15 20.65,25.2469024 20.65,26.6 L20.65,134.4 C20.65,135.753098 21.7469024,136.85 23.1,136.85 L172.9,136.85 C174.253098,136.85 175.35,135.753098 175.35,134.4 L175.35,26.6 C175.35,25.2469024 174.253098,24.15 172.9,24.15 Z M23.1,26.25 L172.9,26.25 C173.0933,26.25 173.25,26.4067003 173.25,26.6 L173.25,134.4 C173.25,134.5933 173.0933,134.75 172.9,134.75 L23.1,134.75 C22.9067003,134.75 22.75,134.5933 22.75,134.4 L22.75,26.6 C22.75,26.4067003 22.9067003,26.25 23.1,26.25 Z" id="矩形" fill="#000000" fill-rule="nonzero"></path>
                <g id="编组-4" transform="translate(11.900000, 12.600000)">
                    <rect id="矩形" fill="#29BECE" x="0" y="0" width="22.4" height="22.4" rx="1"></rect>
                    <polygon id="路径-4" fill="#FFFFFF" fill-rule="nonzero" points="16.2316179 3.71167899 18.5722869 5.24832101 9.97338199 18.3464854 3.54188574 12.5406113 5.41811426 10.4622065 9.4248 14.0784"></polygon>
                </g>
                <g id="编组-12" transform="translate(34.300000, 37.800000)">
                    <path d="M123.9,0 L3.5,0 C1.56700338,0 0,1.56700338 0,3.5 L0,81.9 C0,83.8329966 1.56700338,85.4 3.5,85.4 L123.9,85.4 C125.832997,85.4 127.4,83.8329966 127.4,81.9 L127.4,3.5 C127.4,1.56700338 125.832997,0 123.9,0 Z M3.5,1.4 L123.9,1.4 C125.059798,1.4 126,2.34020203 126,3.5 L126,81.9 C126,83.059798 125.059798,84 123.9,84 L3.5,84 C2.34020203,84 1.4,83.059798 1.4,81.9 L1.4,3.5 C1.4,2.34020203 2.34020203,1.4 3.5,1.4 Z" id="矩形" fill="#000000" fill-rule="nonzero" opacity="0.10378883"></path>
                    <g id="编组-6" transform="translate(31.500000, 18.200000)">
                        <rect id="矩形备份-3" fill="#000000" opacity="0.0389476958" x="0" y="0" width="89.6" height="61.6" rx="2"></rect>
                        <rect id="矩形" fill="#000000" opacity="0.0389476958" x="4.9" y="47.6" width="21" height="2.1"></rect>
                        <rect id="矩形备份-18" fill="#000000" opacity="0.0389476958" x="4.9" y="21.6" width="38" height="18"></rect>
                        <rect id="矩形备份-12" fill="#000000" opacity="0.0389476958" x="4.9" y="52.5" width="37.8" height="2.1"></rect>
                        <g id="编组-18" transform="translate(69.900000, 30.800000) scale(-1, 1) translate(-69.900000, -30.800000) translate(55.900000, 21.700000)">
                            <path d="M28,0 L0,0 L0,18.2 L28,18.2 L28,0 Z M26.6,1.4 L26.6,16.8 L1.4,16.8 L1.4,1.4 L26.6,1.4 Z" id="矩形" fill="#000000" opacity="0.0389476958"></path>
                            <polygon id="路径-5" fill="#000000" opacity="0.0389476958" points="9.1 3.91005051 13.7949747 9.69109909 12.8050253 10.9100505 9.1 6.34863119 5.39497475 10.9100505 4.40502525 9.69109909"></polygon>
                            <polygon id="路径-6" fill="#EBEBEB" points="9.8 4.9 9.8 12.6 23.1 12.6 23.1 17.5 21.7 17.5 21.7 14 8.4 14 8.4 4.9"></polygon>
                        </g>
                        <rect id="矩形备份-10" fill="#000000" opacity="0.0389476958" x="4.9" y="5.6" width="79.8" height="11.2"></rect>
                        <g id="编组-4" transform="translate(75.100000, 7.700000)">
                            <rect id="矩形" fill="#29BECE" x="0" y="0" width="7" height="7" rx="1"></rect>
                            <polygon id="路径-4" fill="#FFFFFF" fill-rule="nonzero" points="5.32819441 1.15989968 6.10683929 1.68489536 3.24633517 6.15989968 1.10683929 4.17631548 1.73098382 3.46622587 3.06384437 4.70170293"></polygon>
                        </g>
                    </g>
                    <rect id="矩形" fill="#000000" opacity="0.0389476958" x="6.3" y="18.2" width="22.4" height="61.6" rx="2"></rect>
                    <rect id="矩形" fill="#000000" opacity="0.0389476958" x="10.5" y="23.8" width="14" height="2.8"></rect>
                    <rect id="矩形备份-6" fill="#000000" opacity="0.0389476958" x="10.5" y="43.4" width="14" height="2.8"></rect>
                    <rect id="矩形备份-4" fill="#000000" opacity="0.0389476958" x="10.5" y="29.4" width="9.8" height="2.8"></rect>
                    <rect id="矩形备份-7" fill="#000000" opacity="0.0389476958" x="10.5" y="49" width="4.2" height="2.8"></rect>
                    <rect id="矩形备份-9" fill="#000000" opacity="0.0389476958" x="10.5" y="54.6" width="9.8" height="2.8"></rect>
                    <rect id="矩形备份-5" fill="#000000" opacity="0.0389476958" x="10.5" y="35" width="4.2" height="2.8"></rect>
                    <rect id="矩形备份-8" fill="#000000" opacity="0.0389476958" x="10.5" y="63" width="4.2" height="2.8"></rect>
                    <rect id="矩形备份-11" fill="#000000" opacity="0.0389476958" x="10.5" y="68.6" width="9.8" height="2.8"></rect>
                    <circle id="椭圆形" fill="#F56349" cx="118.3" cy="7" r="2.8"></circle>
                    <circle id="椭圆形备份" fill="#47B881" cx="109.9" cy="7" r="2.8"></circle>
                    <circle id="椭圆形备份-2" fill="#515874" cx="101.5" cy="7" r="2.8"></circle>
                    <rect id="矩形" fill="#E5E5E5" x="0.7" y="12.6" width="126" height="1.4"></rect>
                </g>
                <path d="M156.8,72.5509397 L167.74834,90.0682837 L160.356006,89.0111723 L160.356006,99.4812088 L153.243993,99.4812088 L153.243993,89.0111723 L145.85166,90.0682837 L156.8,72.5509397 Z M156.8,75.0889263 L148.525077,88.3268814 L154.589509,87.4608431 L154.589509,98.1356929 L159.01049,98.1356929 L159.01049,87.4608431 L165.073962,88.3268814 L156.8,75.0889263 Z" id="路径-7" fill="#000000" fill-rule="nonzero" transform="translate(156.800000, 86.016074) rotate(-45.000000) translate(-156.800000, -86.016074) "></path>
            </g>
        </g>
    </g>
</svg>
