<?xml version="1.0" encoding="UTF-8"?>
<svg width="320px"  viewBox="0 0 1440 768" version="1.1" xmlns="http://www.w3.org/2000/svg" xmlns:xlink="http://www.w3.org/1999/xlink" className='strategy-check-icon'>
    <title>编组</title>
    <defs>
        <path d="M16,0 L560,0 C568.836556,0 576,7.163444 576,16 L576,400 C576,408.836556 568.836556,416 560,416 L16,416 C7.163444,416 0,408.836556 0,400 L0,16 C0,7.163444 7.163444,0 16,0 Z" id="Paymentapplicationconfigurationpath-1"></path>
        <filter x="-9.7%" y="-9.6%" width="119.4%" height="126.9%" filterUnits="objectBoundingBox" id="filter-2">
            <feOffset dx="0" dy="16" in="SourceAlpha" result="shadowOffsetOuter1"></feOffset>
            <feGaussianBlur stdDeviation="16" in="shadowOffsetOuter1" result="shadowBlurOuter1"></feGaussianBlur>
            <feColorMatrix values="0 0 0 0 0.11372549   0 0 0 0 0.129411765   0 0 0 0 0.160784314  0 0 0 0.08 0" type="matrix" in="shadowBlurOuter1" result="shadowMatrixOuter1"></feColorMatrix>
            <feOffset dx="0" dy="8" in="SourceAlpha" result="shadowOffsetOuter2"></feOffset>
            <feGaussianBlur stdDeviation="8" in="shadowOffsetOuter2" result="shadowBlurOuter2"></feGaussianBlur>
            <feColorMatrix values="0 0 0 0 0.11372549   0 0 0 0 0.129411765   0 0 0 0 0.160784314  0 0 0 0.08 0" type="matrix" in="shadowBlurOuter2" result="shadowMatrixOuter2"></feColorMatrix>
            <feOffset dx="0" dy="4" in="SourceAlpha" result="shadowOffsetOuter3"></feOffset>
            <feGaussianBlur stdDeviation="4" in="shadowOffsetOuter3" result="shadowBlurOuter3"></feGaussianBlur>
            <feColorMatrix values="0 0 0 0 0.11372549   0 0 0 0 0.129411765   0 0 0 0 0.160784314  0 0 0 0.08 0" type="matrix" in="shadowBlurOuter3" result="shadowMatrixOuter3"></feColorMatrix>
            <feMerge>
                <feMergeNode in="shadowMatrixOuter1"></feMergeNode>
                <feMergeNode in="shadowMatrixOuter2"></feMergeNode>
                <feMergeNode in="shadowMatrixOuter3"></feMergeNode>
            </feMerge>
        </filter>
    </defs>
    <g id="🧾替换清单" stroke="none" stroke-width="1" fill="none" fill-rule="evenodd">
        <g id="编组" transform="translate(0.000000, 16.000000)">
            <g id="背景/3" transform="translate(272.000000, 112.000000)">
                <g id="背景/1">
                    <path d="M16,0 L880,0 C888.836556,0 896,7.163444 896,16 L896,624 C896,632.836556 888.836556,640 880,640 L16,640 C7.163444,640 0,632.836556 0,624 L0,16 C0,7.163444 7.163444,0 16,0 Z" id="矩形" fill="#F1F4F8"></path>
                    <path d="M16,0 L880,0 C888.836556,0 896,7.163444 896,16 L896,64 L0,64 L0,16 C0,7.163444 7.163444,0 16,0 Z" id="矩形" fill="#DBDEE3"></path>
                    <circle id="椭圆形" fill="#FFFFFF" cx="48" cy="32" r="16"></circle>
                    <circle id="椭圆形备份" fill="#FFFFFF" cx="112" cy="32" r="16"></circle>
                    <circle id="椭圆形备份-2" fill="#FFFFFF" cx="176" cy="32" r="16"></circle>
                </g>
                <path d="M48,96 L848,96 C856.836556,96 864,103.163444 864,112 L864,592 C864,600.836556 856.836556,608 848,608 L48,608 C39.163444,608 32,600.836556 32,592 L32,112 C32,103.163444 39.163444,96 48,96 Z" id="矩形" fill="#FFFFFF"></path>
                <path d="M48,96 L256,96 L256,608 L48,608 C39.163444,608 32,600.836556 32,592 L32,112 C32,103.163444 39.163444,96 48,96 Z" id="矩形" fill="#E2E5E9"></path>
                <path d="M72,128 L88,128 C92.418278,128 96,131.581722 96,136 L96,152 C96,156.418278 92.418278,160 88,160 L72,160 C67.581722,160 64,156.418278 64,152 L64,136 C64,131.581722 67.581722,128 72,128 Z" id="矩形" fill="#FFFFFF"></path>
                <path d="M136,128 L216,128 C220.418278,128 224,131.581722 224,136 L224,152 C224,156.418278 220.418278,160 216,160 L136,160 C131.581722,160 128,156.418278 128,152 L128,136 C128,131.581722 131.581722,128 136,128 Z" id="矩形备份" fill="#FFFFFF"></path>
                <path d="M72,192 L184,192 C188.418278,192 192,195.581722 192,200 L192,216 C192,220.418278 188.418278,224 184,224 L72,224 C67.581722,224 64,220.418278 64,216 L64,200 C64,195.581722 67.581722,192 72,192 Z" id="矩形备份-2" fill="#FFFFFF"></path>
                <path d="M72,256 L216,256 C220.418278,256 224,259.581722 224,264 L224,280 C224,284.418278 220.418278,288 216,288 L72,288 C67.581722,288 64,284.418278 64,280 L64,264 C64,259.581722 67.581722,256 72,256 Z" id="矩形备份-3" fill="#FFFFFF"></path>
                <path d="M72,320 L152,320 C156.418278,320 160,323.581722 160,328 L160,344 C160,348.418278 156.418278,352 152,352 L72,352 C67.581722,352 64,348.418278 64,344 L64,328 C64,323.581722 67.581722,320 72,320 Z" id="矩形备份-4" fill="#FFFFFF"></path>
                <path d="M72,384 L216,384 C220.418278,384 224,387.581722 224,392 L224,408 C224,412.418278 220.418278,416 216,416 L72,416 C67.581722,416 64,412.418278 64,408 L64,392 C64,387.581722 67.581722,384 72,384 Z" id="矩形备份-5" fill="#FFFFFF"></path>
                <path d="M296,128 L408,128 C412.418278,128 416,131.581722 416,136 L416,248 C416,252.418278 412.418278,256 408,256 L296,256 C291.581722,256 288,252.418278 288,248 L288,136 C288,131.581722 291.581722,128 296,128 Z" id="矩形" fill="#F1F4F8"></path>
                <path d="M456,128 L552,128 C556.418278,128 560,131.581722 560,136 L560,168 C560,172.418278 556.418278,176 552,176 L456,176 C451.581722,176 448,172.418278 448,168 L448,136 C448,131.581722 451.581722,128 456,128 Z" id="矩形" fill="#E9ECF0"></path>
                <path d="M456,240 L824,240 C828.418278,240 832,243.581722 832,248 C832,252.418278 828.418278,256 824,256 L456,256 C451.581722,256 448,252.418278 448,248 C448,243.581722 451.581722,240 456,240 Z" id="矩形备份-6" fill="#F1F4F8"></path>
                <path d="M456,208 L680,208 C684.418278,208 688,211.581722 688,216 C688,220.418278 684.418278,224 680,224 L456,224 C451.581722,224 448,220.418278 448,216 C448,211.581722 451.581722,208 456,208 Z" id="矩形备份-7" fill="#F1F4F8"></path>
                <path d="M488,144 L520,144 C524.418278,144 528,147.581722 528,152 C528,156.418278 524.418278,160 520,160 L488,160 C483.581722,160 480,156.418278 480,152 C480,147.581722 483.581722,144 488,144 Z" id="矩形" fill="#FFFFFF"></path>
                <path d="M832,302 C833.104569,302 834,302.895431 834,304 C834,305.104569 833.104569,306 832,306 L288,306 C286.895431,306 286,305.104569 286,304 C286,302.895431 286.895431,302 288,302 L832,302 Z" id="路径-9" fill="#F1F4F8" fill-rule="nonzero"></path>
                <path d="M776.391304,352 L824.391304,352 C828.809582,352 832.391304,355.581722 832.391304,360 L832.391304,376 C832.391304,380.418278 828.809582,384 824.391304,384 L776.391304,384 C771.973026,384 768.391304,380.418278 768.391304,376 L768.391304,360 C768.391304,355.581722 771.973026,352 776.391304,352 Z" id="矩形" fill="#F1F4F8"></path>
                <path d="M776.391304,416 L824.391304,416 C828.809582,416 832.391304,419.581722 832.391304,424 L832.391304,440 C832.391304,444.418278 828.809582,448 824.391304,448 L776.391304,448 C771.973026,448 768.391304,444.418278 768.391304,440 L768.391304,424 C768.391304,419.581722 771.973026,416 776.391304,416 Z" id="矩形备份-8" fill="#F1F4F8"></path>
                <path d="M776.391304,480 L824.391304,480 C828.809582,480 832.391304,483.581722 832.391304,488 L832.391304,504 C832.391304,508.418278 828.809582,512 824.391304,512 L776.391304,512 C771.973026,512 768.391304,508.418278 768.391304,504 L768.391304,488 C768.391304,483.581722 771.973026,480 776.391304,480 Z" id="矩形备份-9" fill="#F1F4F8"></path>
                <path d="M776.391304,544 L824.391304,544 C828.809582,544 832.391304,547.581722 832.391304,552 L832.391304,568 C832.391304,572.418278 828.809582,576 824.391304,576 L776.391304,576 C771.973026,576 768.391304,572.418278 768.391304,568 L768.391304,552 C768.391304,547.581722 771.973026,544 776.391304,544 Z" id="矩形备份-10" fill="#F1F4F8"></path>
                <path d="M360,352 L696,352 C700.418278,352 704,355.581722 704,360 L704,376 C704,380.418278 700.418278,384 696,384 L360,384 C355.581722,384 352,380.418278 352,376 L352,360 C352,355.581722 355.581722,352 360,352 Z" id="矩形" fill="#F1F4F8"></path>
                <path d="M304,352 C312.836556,352 320,359.163444 320,368 C320,376.836556 312.836556,384 304,384 C295.163444,384 288,376.836556 288,368 C288,359.163444 295.163444,352 304,352 Z" id="矩形备份-14" fill="#FDEEEA"></path>
                <path d="M360,416 L536,416 C540.418278,416 544,419.581722 544,424 L544,440 C544,444.418278 540.418278,448 536,448 L360,448 C355.581722,448 352,444.418278 352,440 L352,424 C352,419.581722 355.581722,416 360,416 Z" id="矩形备份-11" fill="#F1F4F8"></path>
                <path d="M304,416 C312.836556,416 320,423.163444 320,432 C320,440.836556 312.836556,448 304,448 C295.163444,448 288,440.836556 288,432 C288,423.163444 295.163444,416 304,416 Z" id="矩形备份-15" fill="#E6F2FE"></path>
                <path d="M360,480 L680,480 C684.418278,480 688,483.581722 688,488 L688,504 C688,508.418278 684.418278,512 680,512 L360,512 C355.581722,512 352,508.418278 352,504 L352,488 C352,483.581722 355.581722,480 360,480 Z" id="矩形备份-12" fill="#F1F4F8"></path>
                <path d="M304,480 C312.836556,480 320,487.163444 320,496 C320,504.836556 312.836556,512 304,512 C295.163444,512 288,504.836556 288,496 C288,487.163444 295.163444,480 304,480 Z" id="矩形备份-16" fill="#ECF7F2"></path>
                <path d="M360,544 L600,544 C604.418278,544 608,547.581722 608,552 L608,568 C608,572.418278 604.418278,576 600,576 L360,576 C355.581722,576 352,572.418278 352,568 L352,552 C352,547.581722 355.581722,544 360,544 Z" id="矩形备份-13" fill="#F1F4F8"></path>
                <path d="M304,544 C312.836556,544 320,551.163444 320,560 C320,568.836556 312.836556,576 304,576 C295.163444,576 288,568.836556 288,560 C288,551.163444 295.163444,544 304,544 Z" id="矩形备份-17" fill="#FDF2E8"></path>
                <g id="Icon/article" transform="translate(304.000000, 144.000000)">
                    <path d="M76,12 L20,12 C15.6,12 12,15.6 12,20 L12,76 C12,80.4 15.6,84 20,84 L76,84 C80.4,84 84,80.4 84,76 L84,20 C84,15.6 80.4,12 76,12 Z M56,68 L28,68 L28,60 L56,60 L56,68 Z M68,52 L28,52 L28,44 L68,44 L68,52 Z M68,36 L28,36 L28,28 L68,28 L68,36 Z" id="icon" fill="#DBDEE3"></path>
                    <rect id="article" x="0" y="0" width="96" height="96"></rect>
                </g>
            </g>
            <g id="前景/结算策略无配置" transform="translate(784.000000, 0.000000)">
                <g id="矩形">
                    <use fill="black" fill-opacity="1" filter="url(#filter-2)" xlink:href="#Paymentapplicationconfigurationpath-1"></use>
                    <use fill="#FFFFFF" fill-rule="evenodd" xlink:href="#Paymentapplicationconfigurationpath-1"></use>
                </g>
                <path d="M40,32 L536,32 C540.418278,32 544,35.581722 544,40 L544,120 C544,124.418278 540.418278,128 536,128 L40,128 C35.581722,128 32,124.418278 32,120 L32,40 C32,35.581722 35.581722,32 40,32 Z" id="矩形" fill="#F1F4F8"></path>
                <path d="M56,48 L104,48 C108.418278,48 112,51.581722 112,56 L112,104 C112,108.418278 108.418278,112 104,112 L56,112 C51.581722,112 48,108.418278 48,104 L48,56 C48,51.581722 51.581722,48 56,48 Z" id="矩形" fill="currentColor" className='strategy-check-icon'></path>
                <path d="M56,176 L104,176 C108.418278,176 112,179.581722 112,184 L112,232 C112,236.418278 108.418278,240 104,240 L56,240 C51.581722,240 48,236.418278 48,232 L48,184 C48,179.581722 51.581722,176 56,176 Z" id="矩形备份-3" fill="#E9ECF0"></path>
                <path d="M152,48 L376,48 C380.418278,48 384,51.581722 384,56 L384,72 C384,76.418278 380.418278,80 376,80 L152,80 C147.581722,80 144,76.418278 144,72 L144,56 C144,51.581722 147.581722,48 152,48 Z" id="矩形" fill="#E2E5E9"></path>
                <path d="M152,176 L376,176 C380.418278,176 384,179.581722 384,184 L384,200 C384,204.418278 380.418278,208 376,208 L152,208 C147.581722,208 144,204.418278 144,200 L144,184 C144,179.581722 147.581722,176 152,176 Z" id="矩形备份-4" fill="#E9ECF0"></path>
                <path d="M152,96 L264,96 C268.418278,96 272,99.581722 272,104 C272,108.418278 268.418278,112 264,112 L152,112 C147.581722,112 144,108.418278 144,104 C144,99.581722 147.581722,96 152,96 Z" id="矩形备份" fill="#E9ECF0"></path>
                <path d="M152,224 L264,224 C268.418278,224 272,227.581722 272,232 C272,236.418278 268.418278,240 264,240 L152,240 C147.581722,240 144,236.418278 144,232 C144,227.581722 147.581722,224 152,224 Z" id="矩形备份-5" fill="#F1F4F8"></path>
                <path d="M480,64 L512,64 C520.836556,64 528,71.163444 528,80 C528,88.836556 520.836556,96 512,96 L480,96 C471.163444,96 464,88.836556 464,80 C464,71.163444 471.163444,64 480,64 Z" id="矩形" fill="currentColor" className='strategy-check-icon'></path>
                <path d="M480,192 L512,192 C520.836556,192 528,199.163444 528,208 C528,216.836556 520.836556,224 512,224 L480,224 C471.163444,224 464,216.836556 464,208 C464,199.163444 471.163444,192 480,192 Z" id="矩形备份-6" fill="#DBDEE3"></path>
                <path d="M480,320 L512,320 C520.836556,320 528,327.163444 528,336 C528,344.836556 520.836556,352 512,352 L480,352 C471.163444,352 464,344.836556 464,336 C464,327.163444 471.163444,320 480,320 Z" id="矩形备份-7" fill="#DBDEE3"></path>
                <path d="M56,304 L104,304 C108.418278,304 112,307.581722 112,312 L112,360 C112,364.418278 108.418278,368 104,368 L56,368 C51.581722,368 48,364.418278 48,360 L48,312 C48,307.581722 51.581722,304 56,304 Z" id="矩形备份-10" fill="#E9ECF0"></path>
                <path d="M152,304 L376,304 C380.418278,304 384,307.581722 384,312 L384,328 C384,332.418278 380.418278,336 376,336 L152,336 C147.581722,336 144,332.418278 144,328 L144,312 C144,307.581722 147.581722,304 152,304 Z" id="矩形备份-9" fill="#E9ECF0"></path>
                <path d="M152,352 L264,352 C268.418278,352 272,355.581722 272,360 C272,364.418278 268.418278,368 264,368 L152,368 C147.581722,368 144,364.418278 144,360 C144,355.581722 147.581722,352 152,352 Z" id="矩形备份-8" fill="#F1F4F8"></path>
                <circle id="椭圆形" fill="#FFFFFF" cx="512" cy="80" r="13"></circle>
                <circle id="椭圆形备份" fill="#FFFFFF" cx="480" cy="208" r="13"></circle>
                <circle id="椭圆形备份-2" fill="#FFFFFF" cx="480" cy="336" r="13"></circle>
                <path d="M72,192 L88,192 C92.418278,192 96,195.581722 96,200 L96,216 C96,220.418278 92.418278,224 88,224 L72,224 C67.581722,224 64,220.418278 64,216 L64,200 C64,195.581722 67.581722,192 72,192 Z" id="矩形" fill="#DBDEE3"></path>
                <path d="M72,320 L88,320 C92.418278,320 96,323.581722 96,328 L96,344 C96,348.418278 92.418278,352 88,352 L72,352 C67.581722,352 64,348.418278 64,344 L64,328 C64,323.581722 67.581722,320 72,320 Z" id="矩形备份-2" fill="#DBDEE3"></path>
                <path d="M95.3028749,63.6043247 C96.6955873,61.8894932 99.2147494,61.6283641 100.929581,63.0210766 C102.644412,64.413789 102.905542,66.9329511 101.512829,68.6477827 L76.026227,100.029155 L60.583026,86.4785445 C58.9224959,85.0215151 58.757526,82.4942337 60.2145554,80.8337035 C61.6715848,79.1731734 64.1988662,79.0082034 65.8593963,80.4652329 L75.055,88.534 L95.3028749,63.6043247 Z" id="路径-11" fill="#FFFFFF" fill-rule="nonzero"></path>
            </g>
        </g>
    </g>
</svg>