<?xml version="1.0" encoding="UTF-8"?>
<svg width="44px" height="44px" viewBox="0 0 44 44" version="1.1" xmlns="http://www.w3.org/2000/svg" xmlns:xlink="http://www.w3.org/1999/xlink">
    <title>编辑结算行信息-绿</title>
    <defs>
        <polygon id="path-1" points="0 0 35.1600253 0 35.1600253 4.38795328 0 4.38795328"></polygon>
        <polygon id="path-3" points="0 0 35.1600253 0 35.1600253 30.7031484 0 30.7031484"></polygon>
    </defs>
    <g id="草稿2" stroke="none" stroke-width="1" fill="none" fill-rule="evenodd">
        <g id="Apple-TV" transform="translate(-484.000000, -137.000000)">
            <g id="编辑结算行信息-绿" transform="translate(484.000000, 137.000000)">
                <rect id="矩形" x="0" y="0" width="44" height="44"></rect>
                <g id="编组" transform="translate(4.000000, 5.000000)">
                    <g id="分组-copy-3">
                        <g id="分组">
                            <mask id="mask-2" fill="white">
                                <use xlink:href="#path-1"></use>
                            </mask>
                            <g id="Clip-2"></g>
                            <path d="M35.1600253,4.38795328 L-3.09375e-05,4.38795328 L-3.09375e-05,1.23748453 C-3.09375e-05,0.554075156 0.554059687,-1.546875e-05 1.23746906,-1.546875e-05 L33.9225253,-1.546875e-05 C34.6059862,-1.546875e-05 35.1600253,0.554075156 35.1600253,1.23748453 L35.1600253,4.38795328 Z" id="Fill-1" fill="#47B881" mask="url(#mask-2)"></path>
                        </g>
                        <g id="分组" transform="translate(0.000000, 4.018936)">
                            <mask id="mask-4" fill="white">
                                <use xlink:href="#path-3"></use>
                            </mask>
                            <g id="Clip-4"></g>
                            <path d="M33.9225253,30.7031484 L1.23746906,30.7031484 C0.554059687,30.7031484 -3.09375e-05,30.1491094 -3.09375e-05,29.4656484 L-3.09375e-05,0 L35.1600253,0 L35.1600253,29.4656484 C35.1600253,30.1491094 34.6059862,30.7031484 33.9225253,30.7031484" id="Fill-3" fill="#ECF7F2" mask="url(#mask-4)"></path>
                        </g>
                        <path d="M2.85732562,2.04203484 C2.85732562,2.47093172 2.50958812,2.81866922 2.08063969,2.81866922 C1.65174281,2.81866922 1.30405687,2.47093172 1.30405687,2.04203484 C1.30405687,1.61313797 1.65174281,1.26540047 2.08063969,1.26540047 C2.50958812,1.26540047 2.85732562,1.61313797 2.85732562,2.04203484" id="Fill-5" fill="#ECF7F2"></path>
                        <path d="M5.75766469,2.04203484 C5.75766469,2.47093172 5.40997875,2.81866922 4.98103031,2.81866922 C4.55213344,2.81866922 4.2044475,2.47093172 4.2044475,2.04203484 C4.2044475,1.61313797 4.55213344,1.26540047 4.98103031,1.26540047 C5.40997875,1.26540047 5.75766469,1.61313797 5.75766469,2.04203484" id="Fill-7" fill="#ECF7F2"></path>
                        <path d="M8.65805531,2.04203484 C8.65805531,2.47093172 8.31036937,2.81866922 7.88142094,2.81866922 C7.45252406,2.81866922 7.10483812,2.47093172 7.10483812,2.04203484 C7.10483812,1.61313797 7.45252406,1.26540047 7.88142094,1.26540047 C8.31036937,1.26540047 8.65805531,1.61313797 8.65805531,2.04203484" id="Fill-9" fill="#ECF7F2"></path>
                        <path d="M3.80015145,30.5457848 C3.58685078,30.5457848 3.41399953,30.373022 3.41399953,30.1599381 L3.41399953,7.79182531 C3.41399953,7.57874146 3.58685078,7.40597859 3.80015145,7.40597859 L31.7440351,7.40597859 C31.9572875,7.40597859 32.130187,7.57874146 32.130187,7.79182531 L32.130187,30.1599381 C32.130187,30.373022 31.9572875,30.5457848 31.7440351,30.5457848 L3.80015145,30.5457848 Z" id="Fill-11" fill="#47B881" opacity="0.0967109317"></path>
                        <path d="M13.3752867,10.3342852 L6.30153047,10.3342852 C6.01190391,10.3342852 5.77502578,10.0973555 5.77502578,9.80778047 C5.77502578,9.51815391 6.01190391,9.28127578 6.30153047,9.28127578 L13.3752867,9.28127578 C13.6648617,9.28127578 13.9017914,9.51815391 13.9017914,9.80778047 C13.9017914,10.0973555 13.6648617,10.3342852 13.3752867,10.3342852" id="Fill-1" fill="#47B881" opacity="0.394001552"></path>
                        <path d="M9.28543687,12.8174681 L6.65281031,12.8174681 C6.36204937,12.8174681 6.12625406,12.5817244 6.12625406,12.2909634 C6.12625406,12.0001509 6.36204937,11.7644587 6.65281031,11.7644587 L9.28543687,11.7644587 C9.57624937,11.7644587 9.81194156,12.0001509 9.81194156,12.2909634 C9.81194156,12.5817244 9.57624937,12.8174681 9.28543687,12.8174681" id="Fill-3" fill="#47B881" opacity="0.394001552"></path>
                    </g>
                    <g id="分组" transform="translate(9.894766, 10.925959)">
                        <path d="M8.15307161,10.6635524 C7.32506646,10.6635524 6.65233909,9.98997307 6.65233909,9.15690471 C6.64945933,8.32921347 7.32010691,7.65592216 8.1502307,7.65308958 C8.15119372,7.65308958 8.15210859,7.65304157 8.15307161,7.65304157 C8.98059526,7.65304157 9.65331333,8.32662093 9.65331333,9.1592572 C9.65191695,9.98997307 8.98059526,10.6630723 8.15307161,10.6635524 M11.8870397,8.6329243 C11.8578602,8.46877834 11.7002619,8.3008396 11.5355853,8.26473613 L11.4128002,8.23655429 C11.1146972,8.14643965 10.8623376,7.94628624 10.7071468,7.67699853 C10.5503671,7.40492623 10.5039013,7.0833557 10.5772835,6.77825258 L10.6158525,6.6628367 C10.6652554,6.50291561 10.6013109,6.28192589 10.4728439,6.17265528 C10.4728439,6.17265528 10.3576185,6.0750991 10.0339472,5.88747628 C9.70883147,5.70081366 9.56957868,5.64872288 9.56957868,5.64872288 C9.41149884,5.59053484 9.1903893,5.6463704 9.07468237,5.76927582 L8.98955135,5.86073475 C8.76454157,6.07533915 8.4648977,6.19454781 8.15355312,6.19334756 C7.84047511,6.19416373 7.53929041,6.07394686 7.31331761,5.85790216 L7.23146086,5.76879573 C7.11763181,5.6458903 6.89507774,5.59149504 6.73656455,5.64872288 C6.73656455,5.64872288 6.59543387,5.70081366 6.27079961,5.88747628 C5.94573199,6.07649139 5.83142144,6.17404757 5.83142144,6.17404757 C5.703436,6.28240599 5.63944327,6.50104322 5.68884623,6.6628367 L5.72414094,6.77969288 C5.79670454,7.0843159 5.75028695,7.40516628 5.5942776,7.67699853 C5.43937573,7.9484947 5.18489753,8.14960831 4.88438694,8.23799459 L4.7663206,8.26473613 C4.60448498,8.30223188 4.44500877,8.46786615 4.41486622,8.6329243 C4.41486622,8.6329243 4.38804609,8.78117898 4.38804609,9.15738481 C4.38804609,9.53359065 4.41486622,9.68131721 4.41486622,9.68131721 C4.44404574,9.84738357 4.60164407,10.0134019 4.7663206,10.0495534 L4.88159418,10.0762949 C5.18268258,10.1649213 5.4376423,10.366611 5.59239971,10.6391634 C5.75423533,10.9220379 5.79328582,11.2438005 5.72226305,11.5379093 L5.68884623,11.6518849 C5.63944327,11.811854 5.703436,12.0327957 5.8318548,12.1420663 C5.8318548,12.1420663 5.94712837,12.2396225 6.27079961,12.4272453 C6.59586723,12.6149162 6.73560152,12.6659987 6.73560152,12.6659987 C6.89319985,12.7241868 7.1147909,12.6683512 7.23054599,12.5454458 L7.31143972,12.4582117 C7.78187531,12.0093189 8.5233049,12.009799 8.99330713,12.4591239 L9.07420086,12.5468861 C9.18807805,12.6692634 9.41058397,12.7241868 9.56914532,12.6669589 C9.56914532,12.6669589 9.710276,12.6149162 10.0353436,12.4282055 C10.3599297,12.2405827 10.4738069,12.1429785 10.4738069,12.1429785 C10.6022257,12.0351002 10.6662184,11.8146866 10.6168155,11.6527971 L10.5815208,11.5346447 C10.5086683,11.2309818 10.555134,10.9110916 10.7113841,10.6405557 C10.8670564,10.3689155 11.1215828,10.1673698 11.4222378,10.0776872 L11.5379447,10.0509457 C11.6997804,10.0134019 11.8592566,9.84786367 11.8893991,9.6827095 C11.8893991,9.6827095 11.9161711,9.53450284 11.9161711,9.1587771 C11.9133783,8.78213917 11.8870397,8.6329243 11.8870397,8.6329243" id="Fill-1" fill="#47B881"></path>
                        <path d="M9.30603888,0.0864077928 C9.54601104,-0.0722205023 9.86914055,-0.00627826898 10.0277688,0.233693893 C10.1838792,0.469856974 10.1224917,0.786558443 9.89177825,0.947746789 L9.88048275,0.955423866 L9.61807344,1.1288377 L9.66970748,1.13858678 C13.350206,1.86070147 16.1371427,5.07430941 16.2000069,8.94990914 L16.2010922,9.08381012 C16.2010922,13.5557368 12.5743082,17.1808369 8.10054609,17.1808369 C3.626816,17.1808369 0,13.5557207 0,9.08381012 C0,5.85642495 1.90667386,2.976984 4.80458054,1.68528706 C5.06732368,1.56817338 5.37525848,1.68622939 5.49237216,1.94897254 C5.60948584,2.21171568 5.49142984,2.51965048 5.22868669,2.63676416 C2.70306652,3.76252016 1.04171719,6.27147432 1.04171719,9.08381012 C1.04171719,12.9802869 4.20203122,16.1391197 8.10054609,16.1391197 C11.9990919,16.1391197 15.159375,12.980304 15.159375,9.08381012 C15.159375,5.18731626 11.9990919,2.0285005 8.10054609,2.0285005 C7.58931393,2.0285005 7.38660248,1.37124007 7.80059,1.0817914 L7.81332416,1.07313387 L9.30603888,0.0864077928 Z" id="Stroke-7" fill="#47B881" opacity="0.394001552"></path>
                        <path d="M7.73224345,1.13230069 C7.93226125,0.932282885 8.25448293,0.928949255 8.45857419,1.1222998 L8.46884874,1.13230069 L9.75791124,2.42136319 C9.96131917,2.62477112 9.96131917,2.95456054 9.75791124,3.15796847 C9.55789344,3.35798627 9.23567176,3.3613199 9.03158049,3.16796936 L9.02130595,3.15796847 L7.73224345,1.86890597 C7.52883552,1.66549804 7.52883552,1.33570862 7.73224345,1.13230069 Z" id="Stroke-9" fill="#A1D9BE"></path>
                        <path d="M18.9802577,15.3649861 C18.0941807,15.3649861 17.3758664,16.0832777 17.3758664,16.9693533 C17.3758664,17.855429 18.0941807,18.5737205 18.9802577,18.5737205 C19.8662954,18.5737205 20.5846008,17.8554201 20.5846008,16.9693533 C20.5846008,16.0832866 19.8662954,15.3649861 18.9802577,15.3649861 Z M18.9802577,15.8924705 C19.5749746,15.8924705 20.0571164,16.374609 20.0571164,16.9693533 C20.0571164,17.5640977 19.5749746,18.0462361 18.9802577,18.0462361 C18.3854985,18.0462361 17.9033508,17.5641037 17.9033508,16.9693533 C17.9033508,16.374603 18.3854985,15.8924705 18.9802577,15.8924705 Z" id="Stroke-11" fill="#47B881" opacity="0.394001552"></path>
                        <path d="M20.1702377,16.1560759 C20.3857379,16.1036825 20.6277804,16.1713875 20.7108548,16.3072992 C20.8366428,16.5130915 20.9023579,16.7364024 20.9023579,16.965908 C20.9023579,17.1537849 20.8583213,17.3377384 20.7730822,17.511406 C20.7047864,17.6505527 20.4705663,17.728436 20.2499368,17.6853632 C20.0293073,17.6422904 19.9058164,17.4945724 19.9741121,17.3554257 C20.0345357,17.2323178 20.0659844,17.1009475 20.0659844,16.965908 C20.0659844,16.8103476 20.0242529,16.6598946 19.9448603,16.5213555 L19.9304597,16.4970325 C19.8473853,16.3611208 19.9547376,16.2084693 20.1702377,16.1560759 Z" id="Stroke-13" fill="#47B881" opacity="0.394001552"></path>
                    </g>
                </g>
            </g>
        </g>
    </g>
</svg>