<?xml version="1.0" encoding="UTF-8"?>
<svg width="234px" height="116px" viewBox="0 0 234 116" version="1.1" xmlns="http://www.w3.org/2000/svg" xmlns:xlink="http://www.w3.org/1999/xlink">
    <title>编组 3</title>
    <defs>
        <path d="M26.9173967,37.6 L120.274093,37.6 C121.885326,37.6 123.191489,38.9665048 123.191489,40.6521739 L123.191489,104.747826 C123.191489,106.433495 121.885326,107.8 120.274093,107.8 L26.9173967,107.8 C25.306163,107.8 24,106.433495 24,104.747826 L24,40.6521739 C24,38.9665048 25.306163,37.6 26.9173967,37.6 Z" id="path-1"></path>
        <filter x="-4.0%" y="-2.8%" width="108.1%" height="111.4%" filterUnits="objectBoundingBox" id="filter-2">
            <feOffset dx="0" dy="2" in="SourceAlpha" result="shadowOffsetOuter1"></feOffset>
            <feGaussianBlur stdDeviation="1" in="shadowOffsetOuter1" result="shadowBlurOuter1"></feGaussianBlur>
            <feColorMatrix values="0 0 0 0 0   0 0 0 0 0   0 0 0 0 0  0 0 0 0.1 0" type="matrix" in="shadowBlurOuter1"></feColorMatrix>
        </filter>
        <path d="M38.56,50.6 L51.04,50.6 C51.9015642,50.6 52.6,51.2984358 52.6,52.16 L52.6,64.64 C52.6,65.5015642 51.9015642,66.2 51.04,66.2 L38.56,66.2 C37.6984358,66.2 37,65.5015642 37,64.64 L37,52.16 C37,51.2984358 37.6984358,50.6 38.56,50.6 Z" id="path-3"></path>
        <path d="M38.56,79.2 L51.04,79.2 C51.9015642,79.2 52.6,79.8984358 52.6,80.76 L52.6,93.24 C52.6,94.1015642 51.9015642,94.8 51.04,94.8 L38.56,94.8 C37.6984358,94.8 37,94.1015642 37,93.24 L37,80.76 C37,79.8984358 37.6984358,79.2 38.56,79.2 Z" id="path-4"></path>
        <path d="M59.3,51 L90.5,51 C91.2179702,51 91.8,51.5820298 91.8,52.3 L91.8,54.9 C91.8,55.6179702 91.2179702,56.2 90.5,56.2 L59.3,56.2 C58.5820298,56.2 58,55.6179702 58,54.9 L58,52.3 C58,51.5820298 58.5820298,51 59.3,51 Z" id="path-5"></path>
        <path d="M59.3,79 L90.5,79 C91.2179702,79 91.8,79.5820298 91.8,80.3 L91.8,82.9 C91.8,83.6179702 91.2179702,84.2 90.5,84.2 L59.3,84.2 C58.5820298,84.2 58,83.6179702 58,82.9 L58,80.3 C58,79.5820298 58.5820298,79 59.3,79 Z" id="path-6"></path>
        <path d="M59.5319149,61 L113.148936,61 C113.994989,61 114.680851,61.5820298 114.680851,62.3 L114.680851,64.9 C114.680851,65.6179702 113.994989,66.2 113.148936,66.2 L59.5319149,66.2 C58.6858617,66.2 58,65.6179702 58,64.9 L58,62.3 C58,61.5820298 58.6858617,61 59.5319149,61 Z" id="path-7"></path>
        <path d="M59.5319149,90 L113.148936,90 C113.994989,90 114.680851,90.5820298 114.680851,91.3 L114.680851,93.9 C114.680851,94.6179702 113.994989,95.2 113.148936,95.2 L59.5319149,95.2 C58.6858617,95.2 58,94.6179702 58,93.9 L58,91.3 C58,90.5820298 58.6858617,90 59.5319149,90 Z" id="path-8"></path>
        <path d="M1.55790533,9.27808535 L0.449022384,11.1394376 C0.380056627,11.2552032 0.380627853,11.3996897 0.449887756,11.5147038 L0.454606834,11.5223271 C0.503649779,11.599423 0.607051338,11.6388516 0.764811513,11.6406129 L0.77606176,11.6406747 L1.31504279,11.6406747 C1.47638842,11.6406747 1.63717134,11.6215149 1.79406178,11.5835919 L11.3321429,9.27808535 L1.55790533,9.27808535 Z" id="path-9"></path>
        <path d="M3.90783172,5.73420129 L22.2666667,5.73420129 L0.605624624,0.0156986278 C0.376653419,-0.0447497563 0.138954592,0.073954486 0.0476990182,0.292929674 L0.0444260187,0.300985555 C-0.0382903761,0.509906537 -0.00394898322,0.747400559 0.134498071,0.923895152 L3.90783172,5.73420129 Z" id="path-10"></path>
        <polygon id="path-11" points="22.2666667 5.73420129 3.90913915 5.73420129 1.565625 9.27808535 6.64323899 9.27808535"></polygon>
        <path d="M22.2666667,5.73420129 L11.7181046,15.5783237 C11.5469795,15.660358 11.4168546,15.7013752 11.32773,15.7013752 C11.2386053,15.7013752 11.111296,15.660358 10.9458022,15.5783237 L5.67574457,8.49055556 C5.65137773,8.20396314 5.67304632,8.01513892 5.74075034,7.92408291 C5.80845437,7.8330269 5.9819731,7.75934118 6.26130653,7.70302577 L22.2666667,5.73420129 Z" id="path-12"></path>
    </defs>
    <g id="回收" stroke="none" stroke-width="1" fill="none" fill-rule="evenodd">
        <g id="01.风险凭证-事件备份-11" transform="translate(-1133.000000, -306.000000)">
            <g id="Modal/Draw/Basic/Small" transform="translate(1060.000000, 0.000000)">
                <g id="编组-4" transform="translate(73.000000, 306.000000)">
                    <g id="编组-2" transform="translate(44.000000, 4.000000)">
                        <path d="M38.7259074,24.6 L132.082603,24.6 C133.693837,24.6 135,25.9665048 135,27.6521739 L135,91.7478261 C135,93.4334952 133.693837,94.8 132.082603,94.8 L38.7259074,94.8 C37.1146737,94.8 35.8085106,93.4334952 35.8085106,91.7478261 L35.8085106,27.6521739 C35.8085106,25.9665048 37.1146737,24.6 38.7259074,24.6 Z" id="矩形备份-5" fill="#F1F4F8"></path>
                        <g id="矩形">
                            <use fill="black" fill-opacity="1" filter="url(#filter-2)" xlink:href="#path-1"></use>
                            <use fill="#FFFFFF" fill-rule="evenodd" xlink:href="#path-1"></use>
                        </g>
                        <g id="矩形">
                            <use className="ssta-svg-primary-color" fill="#00B8CC" xlink:href="#path-3"></use>
                            <use fill-opacity="0.4" fill="#FFFFFF" xlink:href="#path-3"></use>
                        </g>
                        <g id="矩形备份">
                            <use className="ssta-svg-primary-color" fill="#00B8CC" xlink:href="#path-4"></use>
                            <use fill-opacity="0.4" fill="#FFFFFF" xlink:href="#path-4"></use>
                        </g>
                        <g id="矩形">
                            <use className="ssta-svg-primary-color" fill="#00B8CC" xlink:href="#path-5"></use>
                            <use fill-opacity="0.4" fill="#FFFFFF" xlink:href="#path-5"></use>
                        </g>
                        <g id="矩形备份-3">
                            <use className="ssta-svg-primary-color" fill="#00B8CC" xlink:href="#path-6"></use>
                            <use fill-opacity="0.4" fill="#FFFFFF" xlink:href="#path-6"></use>
                        </g>
                        <g id="矩形备份-2">
                            <use className="ssta-svg-primary-color" fill="#00B8CC" xlink:href="#path-7"></use>
                            <use fill-opacity="0.8" fill="#FFFFFF" xlink:href="#path-7"></use>
                        </g>
                        <g id="矩形备份-4">
                            <use className="ssta-svg-primary-color" fill="#00B8CC" xlink:href="#path-8"></use>
                            <use fill-opacity="0.8" fill="#FFFFFF" xlink:href="#path-8"></use>
                        </g>
                        <g id="编组">
                            <g id="元素/纸飞机/主色备份" transform="translate(7.422222, 0.000000)">
                                <g id="路径-14">
                                    <use className="ssta-svg-primary-color" fill="#00B8CC" xlink:href="#path-9"></use>
                                    <use fill-opacity="0.4" fill="#FFFFFF" xlink:href="#path-9"></use>
                                </g>
                                <g id="路径-5">
                                    <use className="ssta-svg-primary-color" fill="#00B8CC" xlink:href="#path-10"></use>
                                    <use fill-opacity="0.2" fill="#FFFFFF" xlink:href="#path-10"></use>
                                </g>
                                <g id="路径-12">
                                    <use className="ssta-svg-primary-color" fill="#00B8CC" xlink:href="#path-11"></use>
                                    <use fill-opacity="0.2" fill="#000000" xlink:href="#path-11"></use>
                                </g>
                                <g id="路径-13">
                                    <use className="ssta-svg-primary-color" fill="#00B8CC" xlink:href="#path-12"></use>
                                    <use fill-opacity="0.2" fill="#FFFFFF" xlink:href="#path-12"></use>
                                </g>
                            </g>
                            <path d="M33.342663,49.1722222 C31.7574839,49.3229635 29.8754732,49.353678 27.8628295,49.2554703 L27.8333333,50.0426722 C29.8737102,50.1422331 31.7844694,50.1110495 33.4,49.957422 L33.342663,49.1722222 Z M22.2666667,48.413423 C20.4179689,48.1380549 18.5994615,47.7714242 16.8588381,47.3166667 L16.7,48.0618349 C18.4632327,48.5224993 20.3039221,48.8936022 22.174452,49.1722222 L22.2666667,48.413423 Z M11.1333333,45.7988092 C9.18912082,45.1620747 7.45290575,44.4300974 5.95923664,43.6055556 L5.56666667,44.1374129 C7.10522557,44.986735 8.88609837,45.7375397 10.8749355,46.3888889 L11.1333333,45.7988092 Z M2.78333333,40.4007367 C1.58265425,38.8506502 0.897672363,37.1377718 0.763796382,35.2555556 L0,35.3032762 C0.143674643,37.3232558 0.880175489,39.1649634 2.16386901,40.8222222 L2.78333333,40.4007367 Z M3.07806745,31.5444444 C4.52878985,30.7615282 6.47542276,30.3937083 8.31698628,30.4944919 L8.35,29.7061446 C6.40208362,29.5995406 4.34416518,29.9883882 2.78333333,30.8307275 L3.07806745,31.5444444 Z M11.5300773,32.5194699 C10.9494319,33.1146545 9.11989759,32.8608255 6.88832581,31.5444444 L6.49444444,32.0217458 C8.98385019,33.4902204 11.1783263,33.7946814 12.0611111,32.8897918 L11.5300773,32.5194699 Z M2.78333333,27.5110742 C2.06440222,25.8269915 1.60071277,24.004034 1.50553073,22.2666667 L0.927777778,22.3131248 C1.02862751,24.1539452 1.5156092,26.0684743 2.2690236,27.8333333 L2.78333333,27.5110742 Z M3.34535657,16.7 C4.22714752,15.4493709 5.5730204,14.3997611 7.42222222,13.5846296 L7.13962464,12.9888889 C5.18161244,13.8519842 3.73793789,14.9778669 2.78333333,16.3317663 L3.34535657,16.7 Z" id="路径" fill="#00B8CC" fill-rule="nonzero" className="ssta-svg-primary-color"></path>
                        </g>
                    </g>
                </g>
            </g>
        </g>
    </g>
</svg>