<?xml version="1.0" encoding="UTF-8"?>
<svg width="12px" height="14px" viewBox="0 0 12 14" version="1.1" xmlns="http://www.w3.org/2000/svg" xmlns:xlink="http://www.w3.org/1999/xlink">
    <title>Icon/find_in_page</title>
    <defs>
        <path d="M4.004,7.65733333 C4.004,6.562 4.90866667,5.654 6,5.654 C7.09133333,5.654 7.996,6.562 7.996,7.65733333 C7.996,8.75266666 7.09133333,9.66066667 6,9.66066667 C4.90866667,9.66066667 4.004,8.75266667 4.004,7.65733333 Z M11.3333333,12.0706667 L8.776,9.504 C9.11866667,8.972 9.33733333,8.346 9.33733333,7.65733333 C9.33733333,5.81066666 7.84,4.33933333 6,4.33933333 C4.16,4.33933333 2.66266667,5.81066666 2.66266667,7.65733333 C2.66266667,9.504 4.16,11.006 6,11.006 C6.68666667,11.006 7.31,10.7873333 7.84,10.4426667 L10.772,13.416 C10.5461458,13.5820932 10.2723308,13.6700884 9.992,13.6667628 L2.008,13.6667628 C1.29066667,13.6667628 0.666666672,13.072 0.666666672,12.352 L0.698,1.648 C0.700900722,0.924951987 1.28496687,0.33880519 2.008,0.333333328 L7.34133333,0.333333328 L11.3333333,4.34 L11.3333333,12.0706667 Z" id="path-1"></path>
    </defs>
    <g id="发票池0222" stroke="none" stroke-width="1" fill="none" fill-rule="evenodd">
        <g id="find_in_page" transform="translate(-2.000000, -1.000000)">
            <rect id="矩形" fill="#000000" fill-rule="nonzero" opacity="0" x="0" y="0" width="16" height="16"></rect>
            <g id="color" transform="translate(2.000000, 1.000000)">
                <mask id="mask-2" fill="white">
                    <use xlink:href="#path-1"></use>
                </mask>
                <g id="蒙版" fill-rule="nonzero"></g>
                <g id="编组" mask="url(#mask-2)">
                    <g transform="translate(-2.000000, -1.000000)" id="color">
                        <rect id="矩形" fill="#36C2CF" x="0" y="0" width="16" height="16"></rect>
                    </g>
                </g>
            </g>
        </g>
    </g>
</svg>