<?xml version="1.0" encoding="UTF-8"?>
<svg width="350px" height="300px" viewBox="0 0 350 300" version="1.1" xmlns="http://www.w3.org/2000/svg" xmlns:xlink="http://www.w3.org/1999/xlink">
    <title>illu_common_nodata_default</title>
    <defs>
        <polygon id="path-1" points="0.159083301 -1.45592202e-12 159.759083 21.0640455 159.759083 163.210061 0.159083301 114.146015"></polygon>
        <polygon id="path-3" points="0.159083301 177.52732 128.985387 114.87732 128.985387 0.0313050001 0.159083301 35.381305"></polygon>
        <linearGradient x1="50%" y1="0%" x2="50%" y2="100%" id="linearGradient-5">
            <stop stop-color="#DDDDDD" offset="0%"></stop>
            <stop stop-color="#FFFFFF" stop-opacity="0.2" offset="100%"></stop>
        </linearGradient>
    </defs>
    <g id="页面-1" stroke="none" stroke-width="1" fill="none" fill-rule="evenodd">
        <g id="空状态页_中性色_表格/模块数据空" transform="translate(-545.000000, -208.000000)">
            <g id="illu_common_nodata_default" transform="translate(545.000000, 208.000000)">
                <rect id="矩形" x="0" y="0" width="350" height="300"></rect>
                <g id="编组-18" transform="translate(7.000000, 7.000000)">
                    <g id="编组-16" opacity="0.45" transform="translate(0.000000, 88.000000)">
                        <g id="路径-41" transform="translate(23.400000, 33.019188)">
                            <mask id="mask-2" fill="white">
                                <use xlink:href="#path-1"></use>
                            </mask>
                            <use id="蒙版" fill="#F7F8F8" xlink:href="#path-1"></use>
                            <polygon fill-opacity="0.08" fill="#000000" mask="url(#mask-2)" points="170.959083 21.0640455 138.499698 92.2758605 -17.8 57.2565089 11.3590833 0"></polygon>
                        </g>
                        <g id="路径-41" transform="translate(183.000000, 18.701929)">
                            <mask id="mask-4" fill="white">
                                <use xlink:href="#path-3"></use>
                            </mask>
                            <use id="蒙版" fill="#DDDDDD" xlink:href="#path-3"></use>
                            <polygon fill-opacity="0.08" fill="#000000" mask="url(#mask-4)" transform="translate(84.522235, 46.496560) scale(-1, 1) translate(-84.522235, -46.496560) " points="179.84447 35.381305 147.385085 106.59312 -10.8 43.6565089 18.3590833 -13.6"></polygon>
                        </g>
                        <polygon id="路径-39" fill="#D1D1D1" points="156.885387 4.1780645e-13 156.885387 50.6461442 23.5590833 33.0191883"></polygon>
                        <polygon id="路径-40" fill="#DDDDDD" points="156.885387 0 156.885387 50.6461442 183.159083 54.0832339 311.985387 18.7332339"></polygon>
                        <polygon id="路径-39" fill-opacity="0.1" fill="#000000" points="156.885387 5.6140197e-14 156.885387 50.6461442 23.5590833 33.0191883"></polygon>
                        <polygon id="路径-40" fill-opacity="0.1" fill="#000000" points="156.885387 3.69482223e-13 156.885387 50.6461442 183.159083 54.0832339 311.985387 18.7332339"></polygon>
                        <polygon id="路径-41" fill="#F7F8F8" points="183.159083 54.0832339 156.299698 111.295049 -7.95807864e-14 76.2756973 23.5590833 33.0191883"></polygon>
                        <polygon id="路径-41" fill="#DDDDDD" transform="translate(259.351777, 65.014141) scale(-1, 1) translate(-259.351777, -65.014141) " points="335.54447 54.0832339 308.685085 111.295049 183.159083 61.9897428 206.718167 18.7332339"></polygon>
                    </g>
                    <g id="编组-19" transform="translate(159.771211, 106.670489) rotate(-5.000000) translate(-159.771211, -106.670489) translate(53.771211, 9.170489)">
                        <g id="编组-15" transform="translate(0.000000, -0.000000)">
                            <g id="编组-4" transform="translate(28.829494, 104.905234)">
                                <g id="编组-3" transform="translate(55.760000, 5.280000)">
                                    <path d="M5.98752,-1.40687462e-15 C7.04464399,-1.40687462e-15 8.03778215,0.273955905 8.89981118,0.754744415 L22.8656031,5.49750584 L19.0708092,16.8461573 L4.17292742,11.79199 L4.20200263,11.7042916 C1.76725779,10.9446467 0,8.67246596 0,5.98752 C0,2.68070401 2.68070401,-1.40687462e-15 5.98752,-1.40687462e-15 Z" id="形状结合" fill="#DDDDDD"></path>
                                    <ellipse id="椭圆形" fill="#C9CACA" transform="translate(21.288960, 11.274359) rotate(19.000000) translate(-21.288960, -11.274359) " cx="21.28896" cy="11.2743593" rx="4.4352" ry="5.98752"></ellipse>
                                    <ellipse id="椭圆形" fill="#B9B9B9" transform="translate(21.288960, 11.274359) rotate(19.000000) translate(-21.288960, -11.274359) " cx="21.28896" cy="11.2743593" rx="2.2176" ry="3.10464"></ellipse>
                                </g>
                                <g id="编组-2" transform="translate(9.454400, 67.480853)">
                                    <polygon id="路径" fill="#DDDDDD" points="3.74690476e-13 12.936 14.5202911 17.3004244 15.8064983 21.5681587 1.93636189 17.3004244"></polygon>
                                    <polygon id="路径-5" fill="#D1D1D1" points="-8.62883098e-14 12.936 18.4020553 8.36719293e-13 33.264 4.87929777 14.5202911 17.3004244"></polygon>
                                    <polygon id="路径-6" fill="#C9CACA" points="14.5202911 17.3004244 15.4996913 21.5286391 33.6847363 9.01454732 33.264 4.87929777"></polygon>
                                </g>
                                <g id="编组-2" transform="translate(44.440894, 40.178956) scale(-1, 1) rotate(116.000000) translate(-44.440894, -40.178956) translate(17.940894, 4.178956)">
                                    <path d="M40.1771271,68.0183646 L47.4800836,71.5802545 C58.1986128,38.8509062 53.8869089,17.6133384 8.21155545,5.84250799 C8.27866954,8.82143069 8.31878799,9.11610146 8.31635277,12.1414574 C45.9352584,28.3526755 43.8832094,44.6045878 40.1771271,68.0183646 Z" id="路径-7" fill="#DDDDDD" transform="translate(30.291949, 38.711381) scale(-1, 1) translate(-30.291949, -38.711381) "></path>
                                    <path d="M13.1415579,71.6729987 C2.50164896,35.5952398 14.1396486,21.430752 52.3723435,5.84250799 C49.5704161,2.92325924 48.9333695,2.13990171 46.8674152,0.0103350528 C11.0691141,17.4703331 -8.28613919,22.8334625 4.69174317,62.6321092 L13.1415579,71.6729987 Z" id="路径-7" fill="#F2F2F2"></path>
                                </g>
                            </g>
                            <g id="编组-4" transform="translate(0.000000, 98.000000)">
                                <g id="编组-3" transform="translate(55.760000, 5.280000)">
                                    <path d="M5.98752,-1.40687462e-15 C7.04464399,-1.40687462e-15 8.03778215,0.273955905 8.89981118,0.754744415 L22.8656031,5.49750584 L19.0708092,16.8461573 L4.17292742,11.79199 L4.20200263,11.7042916 C1.76725779,10.9446467 0,8.67246596 0,5.98752 C0,2.68070401 2.68070401,-1.40687462e-15 5.98752,-1.40687462e-15 Z" id="形状结合" fill="#DDDDDD"></path>
                                    <ellipse id="椭圆形" fill="#C9CACA" transform="translate(21.288960, 11.274359) rotate(19.000000) translate(-21.288960, -11.274359) " cx="21.28896" cy="11.2743593" rx="4.4352" ry="5.98752"></ellipse>
                                    <ellipse id="椭圆形" fill="#B9B9B9" transform="translate(21.288960, 11.274359) rotate(19.000000) translate(-21.288960, -11.274359) " cx="21.28896" cy="11.2743593" rx="2.2176" ry="3.10464"></ellipse>
                                </g>
                                <g id="编组-2" transform="translate(9.454400, 67.480853)">
                                    <polygon id="路径" fill="#DDDDDD" points="3.74690476e-13 12.936 14.5202911 17.3004244 15.8064983 21.5681587 1.93636189 17.3004244"></polygon>
                                    <polygon id="路径-5" fill="#D1D1D1" points="-8.62883098e-14 12.936 18.4020553 8.36719293e-13 33.264 4.87929777 14.5202911 17.3004244"></polygon>
                                    <polygon id="路径-6" fill="#C9CACA" points="14.5202911 17.3004244 15.4996913 21.5286391 33.6847363 9.01454732 33.264 4.87929777"></polygon>
                                </g>
                                <g id="编组-2" transform="translate(44.440894, 40.178956) scale(-1, 1) rotate(116.000000) translate(-44.440894, -40.178956) translate(17.940894, 4.178956)">
                                    <path d="M40.1771271,68.0183646 L47.4800836,71.5802545 C58.1986128,38.8509062 53.8869089,17.6133384 8.21155545,5.84250799 C8.27866954,8.82143069 8.31878799,9.11610146 8.31635277,12.1414574 C45.9352584,28.3526755 43.8832094,44.6045878 40.1771271,68.0183646 Z" id="路径-7" fill="#DDDDDD" transform="translate(30.291949, 38.711381) scale(-1, 1) translate(-30.291949, -38.711381) "></path>
                                    <path d="M13.1415579,71.6729987 C2.50164896,35.5952398 14.1396486,21.430752 52.3723435,5.84250799 C49.5704161,2.92325924 48.9333695,2.13990171 46.8674152,0.0103350528 C11.0691141,17.4703331 -8.28613919,22.8334625 4.69174317,62.6321092 L13.1415579,71.6729987 Z" id="路径-7" fill="#F2F2F2"></path>
                                </g>
                            </g>
                            <g id="编组" transform="translate(49.036848, 45.850000)">
                                <polygon id="路径" fill="#F7F8F8" points="0 10.7976773 45.5 24.7976773 45.5 77.2976773 0 63.2976773"></polygon>
                                <polygon id="路径-2" fill="#F2F2F2" points="0 10.7976773 21 0.297677311 66.5 14.0001773 45.5 24.7976773"></polygon>
                                <polygon id="路径-3" fill="#DDDDDD" points="45.5 77.2976773 66.5 66.8501773 66.5 14.0001773 45.5 24.7976773"></polygon>
                            </g>
                            <g id="编组-5" transform="translate(40.650000, 58.950000)">
                                <g id="编组-7" transform="translate(8.550000, 24.600000) scale(-1, -1) translate(-8.550000, -24.600000) translate(0.550000, 0.600000)">
                                    <path d="M8.03489902,33.2201793 C8.00716923,27.1505053 7.65539976,14.7758718 0.635265385,7.35991854 C1.90354925,6.58714042 2.3025123,6.34418506 3.76953865,5.64182434 C11.34475,10.9863017 15.2061823,31.7876059 8.16315176,40.5455899 C8.16315176,36.872525 8.03489902,35.3654904 8.03489902,33.2201793 Z" id="路径-4" fill="#DDDDDD"></path>
                                    <path d="M8.16315176,40.4735259 C12.722602,33.9618826 11.9847649,14.1385587 3.76953865,5.64182434 C3.76953865,4.12175364 3.72752981,2.7792953 3.76953865,0.980449868 C17.2820523,6.58714042 18.9161927,36.55 8.16315176,47.6252314 C8.16315176,43.9521665 8.16315176,42.6188369 8.16315176,40.4735259 Z" id="路径-4" fill="#F7F8F8"></path>
                                </g>
                                <g id="编组-17" transform="translate(15.288558, 46.984457) scale(-1, 1) rotate(-73.000000) translate(-15.288558, -46.984457) translate(9.288558, 39.484457)">
                                    <path d="M0.345837143,7.49818606 L1.30196762,12.0447627 C2.2495505,15.1441667 5.59725329,14.1206712 7.60902048,12.820229 L10.3041615,13.4011463 L10.5781897,8.70347877 C6.0200868,7.06896801 2.60930261,6.66720377 0.345837143,7.49818606 Z" id="路径-24" fill="#DDDDDD"></path>
                                    <path d="M8.57356837,6.058393 C8.86299919,4.47430017 4.31094184,1.2347373 1.61155419,2.89234497 L2.30402975,6.99718401 C3.06788902,7.25642053 4.59616114,8.03564086 4.95319961,8.34427684 C6.31537593,9.52178757 7.52216552,8.75982629 8.57356837,6.058393 Z" id="路径-24" fill="#C9CACA"></path>
                                    <path d="M8.4266037,4.52042069 C8.37368025,1.49285317 4.81413793,-0.296180456 2.17389535,0.511022707 L1.61155419,2.89234497 C9.62910156,2.10492352 6.15283652,11.2268396 0.821726484,5.14413792 L0.345837143,7.49818606 C2.52939214,10.7296606 6.30617902,10.1101216 7.83855456,7.88169379 L10.5781897,8.70347877 L11.3102973,5.22169099 L8.4266037,4.52042069 Z" id="路径-24" fill="#D1D1D1"></path>
                                </g>
                            </g>
                            <path d="M73.1885887,49.0666293 L84.7694621,53.2040247 L84.7703099,58.4833647 C84.7989722,58.7044012 84.788402,58.9233613 84.7351078,59.1371126 C84.314237,60.8251331 81.3882775,61.549087 78.1997943,60.7541088 C75.0113111,59.9591307 72.7677179,57.9462626 73.1885887,56.258242 L73.1868478,56.2616293 L73.1413511,56.2532041 L73.1885887,49.0666293 Z" id="形状结合" fill="#B9B9B9"></path>
                            <g id="编组-7" transform="translate(74.000000, 71.000000)">
                                <path d="M33.0526976,0.70756414 C53.9334825,12.4455532 43.5641762,32.2880266 34.1829793,37.561816 C32.9600077,38.3334566 39.789733,27.899923 38.5,28.575 C37.5462288,17.1148475 43.9390094,12.7451163 28,3.35378059 C28.768233,2.94239506 32.1534987,1.15622749 33.0526976,0.70756414 Z" id="路径-4" fill="#DDDDDD"></path>
                                <path d="M9.53336536,40.825 L14.489154,37.3522937 C26.6276928,34.8879385 28.3636454,34.9526028 33.1653122,29.9559565 C36.4129621,26.5764304 39.7477458,26.3748232 32.8574741,33.4745619 C26.8204668,39.6950967 15.7927587,42.7733435 9.53336536,40.825 Z" id="路径-14" fill="#F2F2F2"></path>
                                <path d="M28.3,40.167032 C43.9390094,34.1459229 37.2870198,9.7278279 9.53336536,8.95236158 L9.53336536,3.35378059 C47.100648,6.37386468 49.9936389,38.0642981 28.0104063,46.423581 L28.3,40.167032 Z" id="路径-4" fill="#F7F8F8" transform="translate(25.681438, 24.888681) scale(1, -1) translate(-25.681438, -24.888681) "></path>
                                <g id="编组-17" transform="translate(0.360452, 34.354457)">
                                    <path d="M2.56683563e-13,5.69507692 L2.56683563e-13,10.7127406 C1.09611643,11.7386889 4.29528566,12.7886491 6.30705285,11.488207 L9.00219386,12.0691242 L9.17291381,7.07546264 C5.3211034,5.32422321 2.26346546,4.86409463 2.56683563e-13,5.69507692 Z" id="路径-24" fill="#DDDDDD"></path>
                                    <path d="M11.2450088,4.29656659 C11.1842129,3.28319281 7.96202488,0.97782066 6.10972562,1.25503824 L6.10972562,5.25503824 C6.87358488,5.51427475 7.41456623,5.81178676 7.7716047,6.12042275 C9.13378102,7.29793348 10.2915824,6.68998143 11.2450088,4.29656659 Z" id="路径-24" fill="#C9CACA"></path>
                                    <path d="M11.2450088,2.29656659 C11.1842129,1.28319281 9.64350743,-0.244140526 7.79120817,0.0330770511 L6.10972562,1.25503824 C11.2450088,2.9978369 6.30705285,6.47054324 3.12610718,3.42328311 L-6.48370246e-14,5.69507692 C1.09611643,6.7210252 4.29528566,7.7709854 6.30705285,6.47054324 L9.00219386,7.05146052 L14.1287024,2.9978369 L11.2450088,2.29656659 Z" id="路径-24" fill="#D1D1D1"></path>
                                </g>
                            </g>
                            <g id="编组-12" transform="translate(46.614578, 0.316953)">
                                <g id="编组" transform="translate(2.450000, 0.000000)">
                                    <polygon id="路径" fill="#F7F8F8" points="0 10.7976773 45.5 24.7976773 45.5 59.7976773 0 45.7976773"></polygon>
                                    <polygon id="路径-2" fill="#F2F2F2" points="0 10.7976773 21 0.297677311 66.5 14.0001773 45.5 24.7976773"></polygon>
                                    <polygon id="路径-3" fill="#DDDDDD" points="45.5 59.7976773 66.5 49.3501773 66.5 14.0001773 45.5 24.7976773"></polygon>
                                </g>
                                <g id="编组-11" transform="translate(54.097150, 25.701792)">
                                    <polygon id="路径-17" fill="#DDDDDD" points="1.34496602 24.1757443 2.68993205 7.07398612 1.98951966e-14 5.22676126 1.98951966e-14 23.7242083"></polygon>
                                    <polygon id="路径-18" fill="#C9CACA" points="2.68993205 7.07398612 13.2831916 2.23575558 11.6324407 19.2861525 1.34496602 24.1757443"></polygon>
                                    <polygon id="路径-19" fill="#D1D1D1" points="-1.98951966e-14 5.22676126 10.0923734 -7.46069873e-15 13.2831916 2.23575558 2.68993205 7.07398612"></polygon>
                                </g>
                                <polygon id="路径-20" fill="#DDDDDD" points="2.50780285 19.5476773 0 21.5193461 0 36.0064372 2.50780285 37.9209661"></polygon>
                                <g id="编组-14" transform="translate(8.400000, 21.997677)">
                                    <ellipse id="椭圆形" stroke="#B9B9B9" stroke-width="1.05" stroke-linejoin="round" cx="4.55" cy="5.6" rx="4.55" ry="5.6"></ellipse>
                                    <circle id="椭圆形" fill="#B9B9B9" cx="4.55" cy="5.6" r="2"></circle>
                                </g>
                                <g id="编组-14" transform="translate(30.263152, 29.750000)">
                                    <ellipse id="椭圆形" stroke="#B9B9B9" stroke-width="1.05" stroke-linejoin="round" cx="4.55" cy="5.6" rx="4.55" ry="5.6"></ellipse>
                                    <circle id="椭圆形" fill="#B9B9B9" cx="4.55" cy="5.6" r="2"></circle>
                                </g>
                                <line x1="11.4330947" y1="40.5" x2="34.7187987" y2="48.6810675" id="路径-13" stroke="#B9B9B9" stroke-width="1.05" stroke-linecap="round" stroke-linejoin="round"></line>
                            </g>
                        </g>
                        <g id="Group-6" transform="translate(168.379857, 52.595398) rotate(30.000000) translate(-168.379857, -52.595398) translate(146.379857, 5.095398)">
                            <path d="M31.5508315,94.939932 C23.9943933,89.8562667 18.9259142,83.2706093 16.3453944,75.1829599 C12.4746146,63.0514858 25.3904538,44.3343544 20.7602406,32.2028802 C16.1300274,20.0714061 7.18291429,20.2728643 4.63102034,21.4578603 C2.0791264,22.6428563 -2.6270458,28.6421839 4.63102034,38.7885376 C11.8890865,48.9348913 21.3802072,50.2776033 24.4666707,49.186944 C30.8424154,46.9339559 31.546818,44.7530507 34.7387039,41.561446 C39.6491307,36.6514516 40.7602406,27.6330661 40.7602406,23.5375416 C40.7602406,14.7566651 38.7530617,9.55746192 34.7387039,7.93993204" id="Line" stroke="url(#linearGradient-5)" stroke-linecap="square"></path>
                            <g id="Group-4" transform="translate(25.378844, 0.048226)">
                                <ellipse id="Oval" fill="#C9CACA" cx="3.75" cy="14.9285714" rx="3.75" ry="4.07142857"></ellipse>
                                <ellipse id="Oval" fill="#9B9B9B" transform="translate(10.000000, 10.178571) rotate(45.000000) translate(-10.000000, -10.178571) " cx="10" cy="10.1785714" rx="6.52060678" ry="4.57049485"></ellipse>
                                <circle id="Oval" fill="#9B9B9B" transform="translate(5.000000, 5.428571) rotate(45.000000) translate(-5.000000, -5.428571) " cx="5" cy="5.42857143" r="2.60938505"></circle>
                                <ellipse id="Oval" fill="#C9CACA" cx="13.75" cy="4.07142857" rx="3.75" ry="4.07142857"></ellipse>
                            </g>
                        </g>
                    </g>
                </g>
            </g>
        </g>
    </g>
</svg>