<?xml version="1.0" encoding="UTF-8"?>
<svg width="44px" height="44px" viewBox="0 0 44 44" version="1.1" xmlns="http://www.w3.org/2000/svg" xmlns:xlink="http://www.w3.org/1999/xlink">
    <title>生成发票结算单-绿</title>
    <defs>
        <polygon id="path-1" points="0 0 35.1600253 0 35.1600253 4.38795328 0 4.38795328"></polygon>
        <polygon id="path-3" points="0 0 35.1600253 0 35.1600253 30.7031484 0 30.7031484"></polygon>
        <polygon id="path-5" points="0 0 18.3046875 0 18.3046875 18.3046875 0 18.3046875"></polygon>
        <polygon id="path-7" points="0 0 8.65393793 0 8.65393793 4.76006467 0 4.76006467"></polygon>
    </defs>
    <g id="草稿2" stroke="none" stroke-width="1" fill="none" fill-rule="evenodd">
        <g id="Apple-TV" transform="translate(-1012.000000, -137.000000)">
            <g id="生成发票结算单-绿" transform="translate(1012.000000, 137.000000)">
                <rect id="矩形" x="0" y="0" width="44" height="44"></rect>
                <g id="分组-copy-4" transform="translate(4.425781, 4.649219)">
                    <g id="分组">
                        <mask id="mask-2" fill="white">
                            <use xlink:href="#path-1"></use>
                        </mask>
                        <g id="Clip-2"></g>
                        <path d="M35.1600253,4.38795328 L-3.09375e-05,4.38795328 L-3.09375e-05,1.23748453 C-3.09375e-05,0.554075156 0.554059687,-1.546875e-05 1.23746906,-1.546875e-05 L33.9225253,-1.546875e-05 C34.6059862,-1.546875e-05 35.1600253,0.554075156 35.1600253,1.23748453 L35.1600253,4.38795328 Z" id="Fill-1" fill="#47B881" mask="url(#mask-2)"></path>
                    </g>
                    <g id="分组" transform="translate(0.000000, 4.018936)">
                        <mask id="mask-4" fill="white">
                            <use xlink:href="#path-3"></use>
                        </mask>
                        <g id="Clip-4"></g>
                        <path d="M33.9225253,30.7031484 L1.23746906,30.7031484 C0.554059687,30.7031484 -3.09375e-05,30.1491094 -3.09375e-05,29.4656484 L-3.09375e-05,0 L35.1600253,0 L35.1600253,29.4656484 C35.1600253,30.1491094 34.6059862,30.7031484 33.9225253,30.7031484" id="Fill-3" fill="#ECF7F2" mask="url(#mask-4)"></path>
                    </g>
                    <path d="M3.80015145,30.5457848 C3.58685078,30.5457848 3.41399953,30.373022 3.41399953,30.1599381 L3.41399953,7.79182531 C3.41399953,7.57874146 3.58685078,7.40597859 3.80015145,7.40597859 L31.7440351,7.40597859 C31.9572875,7.40597859 32.130187,7.57874146 32.130187,7.79182531 L32.130187,30.1599381 C32.130187,30.373022 31.9572875,30.5457848 31.7440351,30.5457848 L3.80015145,30.5457848 Z" id="Fill-11" fill="#47B881" opacity="0.0849907285"></path>
                    <g id="分组" transform="translate(7.631250, 9.796875)">
                        <g transform="translate(1.598438, 0.000000)">
                            <mask id="mask-6" fill="white">
                                <use xlink:href="#path-5"></use>
                            </mask>
                            <g id="Clip-2"></g>
                            <path d="M18.3046875,9.15234375 C18.3046875,14.2070872 14.2067699,18.3046875 9.1520265,18.3046875 C4.09760033,18.3046875 0,14.2070872 0,9.15234375 C0,4.09760033 4.09760033,0 9.1520265,0 C14.2067699,0 18.3046875,4.09760033 18.3046875,9.15234375" id="Fill-1" fill="#47B881" opacity="0.198673793" mask="url(#mask-6)"></path>
                        </g>
                        <path d="M14.0765625,17.1783253 L8.25,17.1783253 L8.25,16.2115284 C8.25,16.0335213 8.39489968,15.8892628 8.57369792,15.8892628 L13.7528646,15.8892628 C13.9316628,15.8892628 14.0765625,16.0335213 14.0765625,16.2115284 L14.0765625,17.1783253 Z" id="Fill-3" fill="#8ED3B2"></path>
                        <path d="M15.3508849,18.3127003 L6.92411507,18.3127003 C6.74508642,18.3127003 6.6,18.1684418 6.6,17.9904347 L6.6,17.3459034 C6.6,17.1681169 6.74508642,17.0236378 6.92411507,17.0236378 L15.3508849,17.0236378 C15.5299136,17.0236378 15.675,17.1681169 15.675,17.3459034 L15.675,17.9904347 C15.675,18.1684418 15.5299136,18.3127003 15.3508849,18.3127003" id="Fill-5" fill="#8ED3B2"></path>
                        <g id="分组-2" transform="translate(8.274786, 9.559359) rotate(-10.000000) translate(-8.274786, -9.559359) translate(0.772442, 4.454671)">
                            <g id="分组" transform="translate(0.000000, 5.081707)">
                                <mask id="mask-8" fill="white">
                                    <use xlink:href="#path-7"></use>
                                </mask>
                                <g id="Clip-8"></g>
                                <path d="M8.26429154,2.12809794 L1.14926942,4.72404715 C0.842083846,4.8362659 0.502469423,4.677512 0.390745385,4.36935575 L0.035805,3.39234012 C-0.0759190385,3.08440653 0.0824492308,2.74396512 0.389634808,2.63174637 L7.50465692,0.0360198102 C7.8118425,-0.0761989398 8.15145692,0.0825549664 8.26318096,0.39048856 L8.61812135,1.36750419 C8.72984538,1.67566044 8.57147712,2.01610184 8.26429154,2.12809794" id="Fill-7" fill="#8ED3B2" mask="url(#mask-8)"></path>
                            </g>
                            <path d="M14.4197847,8.35229931 L9.47814678,10.153801 C9.02482206,10.3190275 8.53032624,10.1033891 8.37338912,9.67189041 L5.92614394,2.93757868 C5.76920682,2.50607995 6.00959288,2.02239274 6.4629176,1.85716625 L11.4047768,0.0556645813 C11.8581016,-0.109783982 12.3525974,0.106076425 12.5093132,0.537575162 L14.9567797,7.27188688 C15.1134955,7.70338562 14.8731094,8.18707283 14.4197847,8.35229931" id="Fill-9" fill="#47B881"></path>
                        </g>
                    </g>
                    <path d="M13.3752867,10.3342852 L6.30153047,10.3342852 C6.01190391,10.3342852 5.77502578,10.0973555 5.77502578,9.80778047 C5.77502578,9.51815391 6.01190391,9.28127578 6.30153047,9.28127578 L13.3752867,9.28127578 C13.6648617,9.28127578 13.9017914,9.51815391 13.9017914,9.80778047 C13.9017914,10.0973555 13.6648617,10.3342852 13.3752867,10.3342852" id="Fill-1" fill="#47B881" opacity="0.198673793"></path>
                    <path d="M9.28543688,12.8174681 L6.65281031,12.8174681 C6.36204938,12.8174681 6.12625406,12.5817244 6.12625406,12.2909634 C6.12625406,12.0001509 6.36204938,11.7644587 6.65281031,11.7644587 L9.28543688,11.7644587 C9.57624938,11.7644587 9.81194156,12.0001509 9.81194156,12.2909634 C9.81194156,12.5817244 9.57624938,12.8174681 9.28543688,12.8174681" id="Fill-3" fill="#47B881" opacity="0.198673793"></path>
                </g>
            </g>
        </g>
    </g>
</svg>