<?xml version="1.0" encoding="UTF-8"?>
<svg width="44px" height="44px" viewBox="0 0 44 44" version="1.1" xmlns="http://www.w3.org/2000/svg" xmlns:xlink="http://www.w3.org/1999/xlink">
    <title>多维度分配-灰</title>
    <defs>
        <polygon id="path-1" points="0 0 28.7235655 0 28.7235655 32.6794308 0 32.6794308"></polygon>
        <path d="M21.160979,0 L1.28787901,0 C0.57660758,0 0,0.57660758 0,1.28787901 L0,12.2810935 C0,12.6314368 0.140056842,12.9489392 0.367045517,13.1810794 C1.38664323,12.1412379 4.35270908,9.36948077 7.00018586,9.36948077 C10.258882,9.36948077 12.189976,12.1627294 16.1728626,9.47689793 C18.1435187,8.14796778 19.7006047,7.47658035 20.7708322,7.13742546 C21.6017153,6.87409445 22.448858,7.49328253 22.448858,8.36485465 L22.448858,1.28787901 C22.448858,0.57660758 21.8722504,0 21.160979,0" id="path-3"></path>
    </defs>
    <g id="草稿2" stroke="none" stroke-width="1" fill="none" fill-rule="evenodd">
        <g id="Apple-TV" transform="translate(-748.000000, -73.000000)">
            <g id="多维度分配-灰" transform="translate(748.000000, 73.000000)">
                <rect id="矩形" x="0" y="0" width="44" height="44"></rect>
                <g id="编组" transform="translate(7.648466, 4.165246)">
                    <g>
                        <path d="M24.2899173,3.04349957 L23.7535559,3.04349957 L23.7535559,0.974562193 C23.7535559,0.732923894 23.5157813,0.536361361 23.2233925,0.536361361 C22.9311244,0.536361361 22.6933498,0.732923894 22.6933498,0.974562193 L22.6933498,3.04349957 L22.1569884,3.04349957 L22.1569884,0.974562193 C22.1569884,0.437194677 22.6353952,0 23.2233925,0 C23.81143,0 24.2899173,0.437194677 24.2899173,0.974562193 L24.2899173,3.04349957 Z" id="Fill-1" fill="#9D9D9D"></path>
                        <g transform="translate(0.000000, 2.950305)">
                            <mask id="mask-2" fill="white">
                                <use xlink:href="#path-1"></use>
                            </mask>
                            <g id="Clip-4"></g>
                            <path d="M27.4356865,32.6794469 L1.28787901,32.6794469 C0.576567334,32.6794469 0,32.1028393 0,31.3915679 L0,1.28787901 C0,0.576567334 0.576567334,0 1.28787901,0 L27.4356865,0 C28.1469982,0 28.7235655,0.576567334 28.7235655,1.28787901 L28.7235655,31.3915679 C28.7235655,32.1028393 28.1469982,32.6794469 27.4356865,32.6794469" id="Fill-3" fill="#F5F5F5" mask="url(#mask-2)"></path>
                        </g>
                        <path d="M20.4766242,24.2568912 L7.52265422,24.2568912 C7.34484643,24.2568912 7.20068447,24.1127695 7.20068447,23.9349215 L7.20068447,23.5563253 C7.20068447,23.3785175 7.34484643,23.2343555 7.52265422,23.2343555 L20.4766242,23.2343555 C20.6544723,23.2343555 20.798594,23.3785175 20.798594,23.5563253 L20.798594,23.9349215 C20.798594,24.1127695 20.6544723,24.2568912 20.4766242,24.2568912" id="Fill-5" fill="#C5C5C5" fill-rule="nonzero"></path>
                        <path d="M5.96452185,23.7456395 C5.96452185,24.2235231 5.57711175,24.6109734 5.0991879,24.6109734 C4.6213043,24.6109734 4.23385394,24.2235231 4.23385394,23.7456395 C4.23385394,23.2677156 4.6213043,22.8803055 5.0991879,22.8803055 C5.57711175,22.8803055 5.96452185,23.2677156 5.96452185,23.7456395" id="Fill-7" fill="#C5C5C5" fill-rule="nonzero"></path>
                        <path d="M24.7133679,27.6115182 L7.52263813,27.6115182 C7.34483033,27.6115182 7.20066837,27.4673563 7.20066837,27.2895485 L7.20066837,26.9109523 C7.20066837,26.7331042 7.34483033,26.5889825 7.52263813,26.5889825 L24.7133679,26.5889825 C24.8911757,26.5889825 25.0353376,26.7331042 25.0353376,26.9109523 L25.0353376,27.2895485 C25.0353376,27.4673563 24.8911757,27.6115182 24.7133679,27.6115182" id="Fill-9" fill="#C5C5C5" fill-rule="nonzero"></path>
                        <path d="M5.96452185,27.1002262 C5.96452185,27.5781501 5.57711175,27.9655602 5.0991879,27.9655602 C4.6213043,27.9655602 4.23385394,27.5781501 4.23385394,27.1002262 C4.23385394,26.6223426 4.6213043,26.2349325 5.0991879,26.2349325 C5.57711175,26.2349325 5.96452185,26.6223426 5.96452185,27.1002262" id="Fill-11" fill="#C5C5C5" fill-rule="nonzero"></path>
                        <path d="M16.5517928,30.9661009 L7.5226341,30.9661009 C7.34482631,30.9661009 7.20066435,30.8219792 7.20066435,30.6441312 L7.20066435,30.265535 C7.20066435,30.0877272 7.34482631,29.9435653 7.5226341,29.9435653 L16.5517928,29.9435653 C16.7296006,29.9435653 16.8737626,30.0877272 16.8737626,30.265535 L16.8737626,30.6441312 C16.8737626,30.8219792 16.7296006,30.9661009 16.5517928,30.9661009" id="Fill-13" fill="#C5C5C5" fill-rule="nonzero"></path>
                        <path d="M5.96452185,30.4548492 C5.96452185,30.9327328 5.57711175,31.3201832 5.0991879,31.3201832 C4.6213043,31.3201832 4.23385394,30.9327328 4.23385394,30.4548492 C4.23385394,29.9769254 4.6213043,29.5895152 5.0991879,29.5895152 C5.57711175,29.5895152 5.96452185,29.9769254 5.96452185,30.4548492" id="Fill-15" fill="#C5C5C5" fill-rule="nonzero"></path>
                        <path d="M23.651085,5.33511526 C23.2988099,5.33511526 23.0122568,5.06763889 23.0122568,4.73906876 L23.0122568,1.8018192 C23.0122568,1.65375336 23.132271,1.5336184 23.2804173,1.5336184 C23.4285637,1.5336184 23.5485779,1.65375336 23.5485779,1.8018192 L23.5485779,4.73906876 C23.5485779,4.76281403 23.5894681,4.7987539 23.651085,4.7987539 C23.712702,4.7987539 23.7535519,4.76281403 23.7535519,4.73906876 L23.7535519,3.04349555 C23.7535519,2.89542971 23.8735661,2.77533499 24.0217527,2.77533499 C24.169899,2.77533499 24.2899133,2.89542971 24.2899133,3.04349555 L24.2899133,4.73906876 C24.2899133,5.06763889 24.0033199,5.33511526 23.651085,5.33511526" id="Fill-17" fill="#9D9D9D"></path>
                        <g id="Fill-25" transform="translate(3.137350, 6.026553)">
                            <mask id="mask-4" fill="white">
                                <use xlink:href="#path-3"></use>
                            </mask>
                            <use id="蒙版" fill="#EDEDED" fill-rule="nonzero" xlink:href="#path-3"></use>
                            <path d="M6.17800329,4.71844313 C3.3534029,4.71844313 1.06367477,2.68029411 1.06367477,0.166032314 C1.06367477,-2.34818923 3.3534029,-4.3863785 6.17800329,-4.3863785 C9.00256344,-4.3863785 11.2923721,-2.34818923 11.2923721,0.166032314 C11.2923721,2.68029411 9.00256344,4.71844313 6.17800329,4.71844313 Z" fill="#9D9D9D" mask="url(#mask-4)"></path>
                        </g>
                        <path d="M24.2983287,19.5955218 L24.2986105,19.5955218 C24.9876257,19.5955218 25.5500666,19.0543712 25.5845174,18.3738881 C25.5500666,19.0543712 24.9873843,19.5955218 24.2983287,19.5955218" id="Fill-21" fill="#40C1A8"></path>
                        <path d="M19.3101963,15.5034432 C15.3273097,18.1892747 13.3962558,15.3960261 10.1375195,15.3960261 C7.49008296,15.3960261 4.52397686,18.1678234 3.50437915,19.2076247 C3.73824993,19.4468483 4.06428455,19.5955178 4.42521264,19.5955178 L24.2983126,19.5955178 C24.9873682,19.5955178 25.5500505,19.0543671 25.5845013,18.3739243 C25.5856684,18.3519499 25.5861916,18.3298547 25.5861916,18.3076388 L25.5861916,14.3914402 C25.5861916,13.5198278 24.7390892,12.9006398 23.9081658,13.1639708 C22.8379383,13.5031257 21.2808926,14.1745131 19.3101963,15.5034432 Z" id="Fill-23" fill="#9D9D9D"></path>
                    </g>
                    <g transform="translate(4.201024, 1.640175)"></g>
                </g>
            </g>
        </g>
    </g>
</svg>