<?xml version="1.0" encoding="UTF-8"?>
<svg width="234px" height="112px" viewBox="0 0 234 112" version="1.1" xmlns="http://www.w3.org/2000/svg" xmlns:xlink="http://www.w3.org/1999/xlink">
    <title>编组 3</title>
    <defs>
        <path d="M4.66666666,2.91666666 L4.66666666,4.66666666 L7,2.33333332 L4.66666666,0 L4.66666666,1.75 C2.08833332,1.75 0,3.83833334 0,6.41666666 C0,7.3325 0.268333338,8.18416666 0.723333324,8.90166666 L1.575,8.05 C1.30507738,7.54802338 1.16472394,6.98660962 1.16666666,6.41666666 C1.16666666,4.48583332 2.73583332,2.91666666 4.66666666,2.91666666 L4.66666666,2.91666666 Z M8.61,3.93166666 L7.75833332,4.78333332 C8.01499999,5.27333332 8.16666666,5.82749999 8.16666666,6.41666666 C8.16666666,8.3475 6.5975,9.91666666 4.66666666,9.91666666 L4.66666666,8.16666666 L2.33333332,10.5 L4.66666666,12.8333333 L4.66666666,11.0833333 C7.245,11.0833333 9.33333332,8.99499999 9.33333332,6.41666666 C9.33333332,5.50083332 9.06499999,4.64916666 8.61,3.93166666 Z" id="path-1"></path>
        <path d="M4.66666666,2.91666666 L4.66666666,4.66666666 L7,2.33333332 L4.66666666,0 L4.66666666,1.75 C2.08833332,1.75 0,3.83833334 0,6.41666666 C0,7.3325 0.268333338,8.18416666 0.723333324,8.90166666 L1.575,8.05 C1.30507738,7.54802338 1.16472394,6.98660962 1.16666666,6.41666666 C1.16666666,4.48583332 2.73583332,2.91666666 4.66666666,2.91666666 L4.66666666,2.91666666 Z M8.61,3.93166666 L7.75833332,4.78333332 C8.01499999,5.27333332 8.16666666,5.82749999 8.16666666,6.41666666 C8.16666666,8.3475 6.5975,9.91666666 4.66666666,9.91666666 L4.66666666,8.16666666 L2.33333332,10.5 L4.66666666,12.8333333 L4.66666666,11.0833333 C7.245,11.0833333 9.33333332,8.99499999 9.33333332,6.41666666 C9.33333332,5.50083332 9.06499999,4.64916666 8.61,3.93166666 Z" id="path-3"></path>
        <path d="M4.66666666,2.91666666 L4.66666666,4.66666666 L7,2.33333332 L4.66666666,0 L4.66666666,1.75 C2.08833332,1.75 0,3.83833334 0,6.41666666 C0,7.3325 0.268333338,8.18416666 0.723333324,8.90166666 L1.575,8.05 C1.30507738,7.54802338 1.16472394,6.98660962 1.16666666,6.41666666 C1.16666666,4.48583332 2.73583332,2.91666666 4.66666666,2.91666666 L4.66666666,2.91666666 Z M8.61,3.93166666 L7.75833332,4.78333332 C8.01499999,5.27333332 8.16666666,5.82749999 8.16666666,6.41666666 C8.16666666,8.3475 6.5975,9.91666666 4.66666666,9.91666666 L4.66666666,8.16666666 L2.33333332,10.5 L4.66666666,12.8333333 L4.66666666,11.0833333 C7.245,11.0833333 9.33333332,8.99499999 9.33333332,6.41666666 C9.33333332,5.50083332 9.06499999,4.64916666 8.61,3.93166666 Z" id="path-5"></path>
        <path d="M4.66666666,2.91666666 L4.66666666,4.66666666 L7,2.33333332 L4.66666666,0 L4.66666666,1.75 C2.08833332,1.75 0,3.83833334 0,6.41666666 C0,7.3325 0.268333338,8.18416666 0.723333324,8.90166666 L1.575,8.05 C1.30507738,7.54802338 1.16472394,6.98660962 1.16666666,6.41666666 C1.16666666,4.48583332 2.73583332,2.91666666 4.66666666,2.91666666 L4.66666666,2.91666666 Z M8.61,3.93166666 L7.75833332,4.78333332 C8.01499999,5.27333332 8.16666666,5.82749999 8.16666666,6.41666666 C8.16666666,8.3475 6.5975,9.91666666 4.66666666,9.91666666 L4.66666666,8.16666666 L2.33333332,10.5 L4.66666666,12.8333333 L4.66666666,11.0833333 C7.245,11.0833333 9.33333332,8.99499999 9.33333332,6.41666666 C9.33333332,5.50083332 9.06499999,4.64916666 8.61,3.93166666 Z" id="path-7"></path>
        <polygon id="path-9" points="1.0575 5.5575 4.5 2.12249999 7.9425 5.5575 9 4.5 4.5 0 0 4.5"></polygon>
        <polygon id="path-11" points="1.0575 5.5575 4.5 2.12249999 7.9425 5.5575 9 4.5 4.5 0 0 4.5"></polygon>
        <polygon id="path-13" points="1.0575 5.5575 4.5 2.12249999 7.9425 5.5575 9 4.5 4.5 0 0 4.5"></polygon>
        <polygon id="path-15" points="1.0575 5.5575 4.5 2.12249999 7.9425 5.5575 9 4.5 4.5 0 0 4.5"></polygon>
        <polygon id="path-17" points="1.0575 5.5575 4.5 2.12249999 7.9425 5.5575 9 4.5 4.5 0 0 4.5"></polygon>
        <polygon id="path-19" points="1.0575 5.5575 4.5 2.12249999 7.9425 5.5575 9 4.5 4.5 0 0 4.5"></polygon>
        <path d="M7.29166665,6.41666665 L6.83083332,6.41666665 L6.66749999,6.25916665 C7.25892535,5.57317938 7.58397634,4.69740507 7.58333332,3.79166665 C7.58333332,1.69758698 5.88574633,0 3.79166666,0 C1.69758699,0 0,1.69758699 0,3.79166666 C0,5.88574633 1.69758698,7.58333332 3.79166665,7.58333332 C4.73083331,7.58333332 5.59416665,7.23916666 6.25916665,6.66749999 L6.41666665,6.83083332 L6.41666665,7.29166665 L9.33333332,10.2025 L10.2025,9.33333332 L7.29166665,6.41666665 Z M3.79166665,6.41666665 C2.33916665,6.41666665 1.16666665,5.24416665 1.16666665,3.79166665 C1.16666665,2.33916665 2.33916665,1.16666665 3.79166665,1.16666665 C5.24416665,1.16666665 6.41666665,2.33916665 6.41666665,3.79166665 C6.41666665,5.24416665 5.24416665,6.41666665 3.79166665,6.41666665 Z" id="path-21"></path>
        <path d="M6.41666667,4.08333333 L6.41666667,1.16666667 L7,1.16666667 C7.32083333,1.16666667 7.58333333,0.904166667 7.58333333,0.583333333 L7.58333333,0.583333333 C7.58333333,0.2625 7.32083333,0 7,0 L1.16666667,0 C0.845833333,0 0.583333333,0.2625 0.583333333,0.583333333 L0.583333333,0.583333333 C0.583333333,0.904166667 0.845833333,1.16666667 1.16666667,1.16666667 L1.75,1.16666667 L1.75,4.08333333 C1.75,5.05166667 0.968333333,5.83333333 0,5.83333333 L0,5.83333333 L0,7 L3.4825,7 L3.4825,11.0833333 L4.06583333,11.6666667 L4.64916667,11.0833333 L4.64916667,7 L8.16666667,7 L8.16666667,5.83333333 L8.16666667,5.83333333 C7.19833333,5.83333333 6.41666667,5.05166667 6.41666667,4.08333333 Z" id="path-23"></path>
        <circle id="path-25" cx="15" cy="15" r="15"></circle>
        <rect id="path-27" x="0" y="0" width="742" height="800"></rect>
        <filter x="-13.7%" y="-11.2%" width="127.5%" height="125.5%" filterUnits="objectBoundingBox" id="filter-28">
            <feMorphology radius="8" operator="dilate" in="SourceAlpha" result="shadowSpreadOuter1"></feMorphology>
            <feOffset dx="0" dy="12" in="shadowSpreadOuter1" result="shadowOffsetOuter1"></feOffset>
            <feGaussianBlur stdDeviation="24" in="shadowOffsetOuter1" result="shadowBlurOuter1"></feGaussianBlur>
            <feColorMatrix values="0 0 0 0 0.11372549   0 0 0 0 0.129411765   0 0 0 0 0.160784314  0 0 0 0.03 0" type="matrix" in="shadowBlurOuter1" result="shadowMatrixOuter1"></feColorMatrix>
            <feOffset dx="0" dy="9" in="SourceAlpha" result="shadowOffsetOuter2"></feOffset>
            <feGaussianBlur stdDeviation="14" in="shadowOffsetOuter2" result="shadowBlurOuter2"></feGaussianBlur>
            <feColorMatrix values="0 0 0 0 0.11372549   0 0 0 0 0.129411765   0 0 0 0 0.160784314  0 0 0 0.05 0" type="matrix" in="shadowBlurOuter2" result="shadowMatrixOuter2"></feColorMatrix>
            <feMorphology radius="4" operator="erode" in="SourceAlpha" result="shadowSpreadOuter3"></feMorphology>
            <feOffset dx="0" dy="6" in="shadowSpreadOuter3" result="shadowOffsetOuter3"></feOffset>
            <feGaussianBlur stdDeviation="8" in="shadowOffsetOuter3" result="shadowBlurOuter3"></feGaussianBlur>
            <feColorMatrix values="0 0 0 0 0.11372549   0 0 0 0 0.129411765   0 0 0 0 0.160784314  0 0 0 0.08 0" type="matrix" in="shadowBlurOuter3" result="shadowMatrixOuter3"></feColorMatrix>
            <feMerge>
                <feMergeNode in="shadowMatrixOuter1"></feMergeNode>
                <feMergeNode in="shadowMatrixOuter2"></feMergeNode>
                <feMergeNode in="shadowMatrixOuter3"></feMergeNode>
            </feMerge>
        </filter>
        <path d="M26.9173967,37.6 L120.274093,37.6 C121.885326,37.6 123.191489,38.9665048 123.191489,40.6521739 L123.191489,104.747826 C123.191489,106.433495 121.885326,107.8 120.274093,107.8 L26.9173967,107.8 C25.306163,107.8 24,106.433495 24,104.747826 L24,40.6521739 C24,38.9665048 25.306163,37.6 26.9173967,37.6 Z" id="path-29"></path>
        <filter x="-4.0%" y="-2.8%" width="108.1%" height="111.4%" filterUnits="objectBoundingBox" id="filter-30">
            <feOffset dx="0" dy="2" in="SourceAlpha" result="shadowOffsetOuter1"></feOffset>
            <feGaussianBlur stdDeviation="1" in="shadowOffsetOuter1" result="shadowBlurOuter1"></feGaussianBlur>
            <feColorMatrix values="0 0 0 0 0   0 0 0 0 0   0 0 0 0 0  0 0 0 0.1 0" type="matrix" in="shadowBlurOuter1"></feColorMatrix>
        </filter>
        <path d="M38.56,50.6 L51.04,50.6 C51.9015642,50.6 52.6,51.2984358 52.6,52.16 L52.6,64.64 C52.6,65.5015642 51.9015642,66.2 51.04,66.2 L38.56,66.2 C37.6984358,66.2 37,65.5015642 37,64.64 L37,52.16 C37,51.2984358 37.6984358,50.6 38.56,50.6 Z" id="path-31"></path>
        <path d="M38.56,79.2 L51.04,79.2 C51.9015642,79.2 52.6,79.8984358 52.6,80.76 L52.6,93.24 C52.6,94.1015642 51.9015642,94.8 51.04,94.8 L38.56,94.8 C37.6984358,94.8 37,94.1015642 37,93.24 L37,80.76 C37,79.8984358 37.6984358,79.2 38.56,79.2 Z" id="path-32"></path>
        <path d="M59.3,51 L90.5,51 C91.2179702,51 91.8,51.5820298 91.8,52.3 L91.8,54.9 C91.8,55.6179702 91.2179702,56.2 90.5,56.2 L59.3,56.2 C58.5820298,56.2 58,55.6179702 58,54.9 L58,52.3 C58,51.5820298 58.5820298,51 59.3,51 Z" id="path-33"></path>
        <path d="M59.3,79 L90.5,79 C91.2179702,79 91.8,79.5820298 91.8,80.3 L91.8,82.9 C91.8,83.6179702 91.2179702,84.2 90.5,84.2 L59.3,84.2 C58.5820298,84.2 58,83.6179702 58,82.9 L58,80.3 C58,79.5820298 58.5820298,79 59.3,79 Z" id="path-34"></path>
        <path d="M59.5319149,61 L113.148936,61 C113.994989,61 114.680851,61.5820298 114.680851,62.3 L114.680851,64.9 C114.680851,65.6179702 113.994989,66.2 113.148936,66.2 L59.5319149,66.2 C58.6858617,66.2 58,65.6179702 58,64.9 L58,62.3 C58,61.5820298 58.6858617,61 59.5319149,61 Z" id="path-35"></path>
        <path d="M59.5319149,90 L113.148936,90 C113.994989,90 114.680851,90.5820298 114.680851,91.3 L114.680851,93.9 C114.680851,94.6179702 113.994989,95.2 113.148936,95.2 L59.5319149,95.2 C58.6858617,95.2 58,94.6179702 58,93.9 L58,91.3 C58,90.5820298 58.6858617,90 59.5319149,90 Z" id="path-36"></path>
        <path d="M1.55790533,9.27808535 L0.449022384,11.1394376 C0.380056627,11.2552032 0.380627853,11.3996897 0.449887756,11.5147038 L0.454606834,11.5223271 C0.503649779,11.599423 0.607051338,11.6388516 0.764811513,11.6406129 L0.77606176,11.6406747 L1.31504279,11.6406747 C1.47638842,11.6406747 1.63717134,11.6215149 1.79406178,11.5835919 L11.3321429,9.27808535 L1.55790533,9.27808535 Z" id="path-37"></path>
        <path d="M3.90783172,5.73420129 L22.2666667,5.73420129 L0.605624624,0.0156986278 C0.376653419,-0.0447497563 0.138954592,0.073954486 0.0476990182,0.292929674 L0.0444260187,0.300985555 C-0.0382903761,0.509906537 -0.00394898322,0.747400559 0.134498071,0.923895152 L3.90783172,5.73420129 Z" id="path-38"></path>
        <polygon id="path-39" points="22.2666667 5.73420129 3.90913915 5.73420129 1.565625 9.27808535 6.64323899 9.27808535"></polygon>
        <path d="M22.2666667,5.73420129 L11.7181046,15.5783237 C11.5469795,15.660358 11.4168546,15.7013752 11.32773,15.7013752 C11.2386053,15.7013752 11.111296,15.660358 10.9458022,15.5783237 L5.67574457,8.49055556 C5.65137773,8.20396314 5.67304632,8.01513892 5.74075034,7.92408291 C5.80845437,7.8330269 5.9819731,7.75934118 6.26130653,7.70302577 L22.2666667,5.73420129 Z" id="path-40"></path>
    </defs>
    <g id="🧾替换清单" stroke="none" stroke-width="1" fill="none" fill-rule="evenodd">
        <g id="用于页面单个容器无数据的情况" transform="translate(-952, -312.8)">
            <g id="Layout/Menu_expand">
                <g id="Layout/Title" transform="translate(220, 88)">
                    <rect id="蒙版" fill="#FFFFFF" x="0" y="0" width="1220" height="48"></rect>
                    <text id="主题配置" font-family="PingFangSC-Medium, PingFang SC" font-size="16" font-weight="400" line-spacing="24" fill="#1D2129">
                        <tspan x="16" y="29">主题配置</tspan>
                    </text>
                    <line x1="0" y1="47.5" x2="1220" y2="47.5" id="Line-4" stroke="#E5E7EC"></line>
                    <g id="编组" transform="translate(650, 8)">
                        <g id="Button/Secondary/Icon/Medium" transform="translate(366, 0)">
                            <rect id="Rectangle-6" x="0" y="0" width="102" height="32" rx="2"></rect>
                            <g id="编组" transform="translate(12, 7)">
                                <text id="保存" font-family="PingFangSC-Semibold, PingFang SC" font-size="12" font-weight="500" line-spacing="18" fill="#000000">
                                    <tspan x="18" y="13">次级主按钮</tspan>
                                </text>
                                <g id="autorenew" transform="translate(0, 2)">
                                    <rect id="矩形" fill="#000000" fill-rule="nonzero" opacity="0" x="0" y="0" width="14" height="14"></rect>
                                    <g id="color" transform="translate(2.3333, 0.5833)">
                                        <mask id="mask-2" fill="white">
                                            <use xlink:href="#path-1"></use>
                                        </mask>
                                        <g id="蒙版" fill-rule="nonzero"></g>
                                        <g mask="url(#mask-2)" fill="#000000" fill-opacity="0.85" id="矩形">
                                            <g transform="translate(-2.3333, -0.5833)">
                                                <rect x="0" y="0" width="14" height="14"></rect>
                                            </g>
                                        </g>
                                    </g>
                                </g>
                            </g>
                        </g>
                        <g id="Button/Secondary/Icon/Medium" transform="translate(256, 0)">
                            <rect id="Rectangle-6" x="0" y="0" width="102" height="32" rx="2"></rect>
                            <g id="编组" transform="translate(12, 7)">
                                <text id="保存" font-family="PingFangSC-Semibold, PingFang SC" font-size="12" font-weight="500" line-spacing="18" fill="#000000">
                                    <tspan x="18" y="13">次级主按钮</tspan>
                                </text>
                                <g id="autorenew" transform="translate(0, 2)">
                                    <rect id="矩形" fill="#000000" fill-rule="nonzero" opacity="0" x="0" y="0" width="14" height="14"></rect>
                                    <g id="color" transform="translate(2.3333, 0.5833)">
                                        <mask id="mask-4" fill="white">
                                            <use xlink:href="#path-3"></use>
                                        </mask>
                                        <g id="蒙版" fill-rule="nonzero"></g>
                                        <g mask="url(#mask-4)" fill="#000000" fill-opacity="0.85" id="矩形">
                                            <g transform="translate(-2.3333, -0.5833)">
                                                <rect x="0" y="0" width="14" height="14"></rect>
                                            </g>
                                        </g>
                                    </g>
                                </g>
                            </g>
                        </g>
                        <g id="Button/Secondary/Icon/Medium" transform="translate(146, 0)">
                            <rect id="Rectangle-6" x="0" y="0" width="102" height="32" rx="2"></rect>
                            <g id="编组" transform="translate(12, 7)">
                                <text id="保存" font-family="PingFangSC-Semibold, PingFang SC" font-size="12" font-weight="500" line-spacing="18" fill="#000000">
                                    <tspan x="18" y="13">次级主按钮</tspan>
                                </text>
                                <g id="autorenew" transform="translate(0, 2)">
                                    <rect id="矩形" fill="#000000" fill-rule="nonzero" opacity="0" x="0" y="0" width="14" height="14"></rect>
                                    <g id="color" transform="translate(2.3333, 0.5833)">
                                        <mask id="mask-6" fill="white">
                                            <use xlink:href="#path-5"></use>
                                        </mask>
                                        <g id="蒙版" fill-rule="nonzero"></g>
                                        <g mask="url(#mask-6)" fill="#000000" fill-opacity="0.85" id="矩形">
                                            <g transform="translate(-2.3333, -0.5833)">
                                                <rect x="0" y="0" width="14" height="14"></rect>
                                            </g>
                                        </g>
                                    </g>
                                </g>
                            </g>
                        </g>
                        <g id="Button/Secondary/Icon/Medium" transform="translate(36, 0)">
                            <rect id="Rectangle-6" x="0" y="0" width="102" height="32" rx="2"></rect>
                            <g id="编组" transform="translate(12, 7)">
                                <text id="保存" font-family="PingFangSC-Semibold, PingFang SC" font-size="12" font-weight="500" line-spacing="18" fill="#000000">
                                    <tspan x="18" y="13">次级主按钮</tspan>
                                </text>
                                <g id="autorenew" transform="translate(0, 2)">
                                    <rect id="矩形" fill="#000000" fill-rule="nonzero" opacity="0" x="0" y="0" width="14" height="14"></rect>
                                    <g id="color" transform="translate(2.3333, 0.5833)">
                                        <mask id="mask-8" fill="white">
                                            <use xlink:href="#path-7"></use>
                                        </mask>
                                        <g id="蒙版" fill-rule="nonzero"></g>
                                        <g mask="url(#mask-8)" fill="#000000" fill-opacity="0.85" id="矩形">
                                            <g transform="translate(-2.3333, -0.5833)">
                                                <rect x="0" y="0" width="14" height="14"></rect>
                                            </g>
                                        </g>
                                    </g>
                                </g>
                            </g>
                        </g>
                        <g id="Icon/more" transform="translate(0, 8)">
                            <path d="M8,5.33333333 C8.73333333,5.33333333 9.33333333,4.73333333 9.33333333,4 C9.33333333,3.26666667 8.73333333,2.66666667 8,2.66666667 C7.26666667,2.66666667 6.66666667,3.26666667 6.66666667,4 C6.66666667,4.73333333 7.26666667,5.33333333 8,5.33333333 Z M8,6.66666667 C7.26666667,6.66666667 6.66666667,7.26666667 6.66666667,8 C6.66666667,8.73333333 7.26666667,9.33333333 8,9.33333333 C8.73333333,9.33333333 9.33333333,8.73333333 9.33333333,8 C9.33333333,7.26666667 8.73333333,6.66666667 8,6.66666667 Z M8,10.6666667 C7.26666667,10.6666667 6.66666667,11.2666667 6.66666667,12 C6.66666667,12.7333333 7.26666667,13.3333333 8,13.3333333 C8.73333333,13.3333333 9.33333333,12.7333333 9.33333333,12 C9.33333333,11.2666667 8.73333333,10.6666667 8,10.6666667 Z" id="icon" fill="#1D2129" transform="translate(8, 8) rotate(-270) translate(-8, -8)"></path>
                            <rect id="more" x="0" y="0" width="16" height="16"></rect>
                        </g>
                        <g id="Button/Primary/Icon/Medium" transform="translate(476, 0)">
                            <rect id="bg" fill="#00B8CC" x="0" y="0" width="78" height="32" rx="2"></rect>
                            <g id="编组" transform="translate(12, 7)">
                                <g id="icon/save" transform="translate(0, 2)">
                                    <path d="M9.91666666,1.75 L2.91666666,1.75 C2.27233446,1.75 1.75,2.27233446 1.75,2.91666666 L1.75,11.0833333 C1.75,11.7276655 2.27233446,12.25 2.91666666,12.25 L11.0833333,12.25 C11.725,12.25 12.25,11.725 12.25,11.0833333 L12.25,4.08333334 L9.91666666,1.75 Z M7,11.0833333 C6.03166666,11.0833333 5.25,10.3016667 5.25,9.33333334 C5.25,8.365 6.03166666,7.58333334 7,7.58333334 C7.96833334,7.58333334 8.75,8.365 8.75,9.33333334 C8.75,10.3016667 7.96833334,11.0833333 7,11.0833333 Z M2.91666666,5.25 L2.91666666,2.91666666 L8.75,2.91666666 L8.75,5.25 L2.91666666,5.25 Z" id="icon" fill="#FFFFFF"></path>
                                    <rect id="save" x="0" y="0" width="14" height="14"></rect>
                                </g>
                                <text id="保存" font-family="PingFangSC-Medium, PingFang SC" font-size="12" font-weight="400" line-spacing="18" fill="#FFFFFF">
                                    <tspan x="18" y="13">主按钮</tspan>
                                </text>
                            </g>
                        </g>
                    </g>
                </g>
                <rect id="bg" fill="#F1F1F1" x="220" y="136" width="1220" height="664"></rect>
                <rect id="bg" stroke="#E5E7EC" fill="#FFFFFF" x="228" y="144" width="1204" height="648"></rect>
                <g id="Tab/Panel" transform="translate(220, 48)">
                    <rect id="蒙版" fill="#FFFFFF" x="0" y="0" width="1220" height="40"></rect>
                    <line x1="0" y1="39.5" x2="1220" y2="39.5" id="Line-4" stroke-opacity="0.1" stroke="#202D40"></line>
                    <g id="编组">
                        <g id="Tab/Panel/Components/unselected">
                            <rect id="矩形" x="0" y="0" width="106" height="40"></rect>
                            <line x1="105.5" y1="13" x2="105.5" y2="29" id="直线-3备份-2" stroke-opacity="0.2" stroke="#000000"></line>
                            <text id="主题配置" font-family="PingFangSC-Regular, PingFang SC" font-size="14" font-weight="normal" line-spacing="22" fill="#1D2129">
                                <tspan x="20" y="24">工作台</tspan>
                            </text>
                            <g id="Icon/close" transform="translate(70, 13)">
                                <polygon id="icon" fill="#C9CDD4" points="12.25 2.8075 11.1925 1.75 7 5.9425 2.8075 1.75 1.75 2.8075 5.9425 7 1.75 11.1925 2.8075 12.25 7 8.0575 11.1925 12.25 12.25 11.1925 8.0575 7"></polygon>
                                <rect id="close" x="0" y="0" width="14" height="14"></rect>
                            </g>
                        </g>
                        <g id="Tab/Panel/Components/unselected备份" transform="translate(106, 0)">
                            <rect id="矩形" x="0" y="0" width="120" height="40"></rect>
                            <line x1="119.5" y1="13" x2="119.5" y2="29" id="直线-3备份-2" stroke-opacity="0.2" stroke="#000000"></line>
                            <text id="主题配置" font-family="PingFangSC-Medium, PingFang SC" font-size="14" font-weight="400" line-spacing="22" fill="#00B8CC">
                                <tspan x="20" y="24">主题配置</tspan>
                            </text>
                            <g id="Icon/close" transform="translate(84, 13)">
                                <polygon id="icon" fill="#C9CDD4" points="12.25 2.8075 11.1925 1.75 7 5.9425 2.8075 1.75 1.75 2.8075 5.9425 7 1.75 11.1925 2.8075 12.25 7 8.0575 11.1925 12.25 12.25 11.1925 8.0575 7"></polygon>
                                <rect id="close" x="0" y="0" width="14" height="14"></rect>
                            </g>
                        </g>
                    </g>
                </g>
                <g id="菜单" transform="translate(0, 48)">
                    <path d="M219.5,0.5 L219.5,751.5 L0.5,751.5 L0.5,0.5 L219.5,0.5 Z" id="蒙版" stroke-opacity="0.08" stroke="#000000" fill="#F9F9F9"></path>
                    <g id="收起菜单" transform="translate(0, 711)" fill="#000000" fill-opacity="0.08">
                        <rect id="矩形" x="0" y="0" width="220" height="1"></rect>
                    </g>
                    <g id="编组-30" transform="translate(8, 122)">
                        <rect id="矩形" fill-opacity="0.1" fill="#00B8CC" x="0" y="0" width="204" height="38" rx="3"></rect>
                        <g id="系统管理" transform="translate(8, 63)" fill="#000000">
                            <text font-family="PingFangSC-Regular, PingFang SC" font-size="12" font-weight="normal" fill-opacity="0.540000021">
                                <tspan x="0" y="13">系统管理</tspan>
                            </text>
                            <g id="角色管理" transform="translate(0, 29)">
                                <text font-family="PingFangSC-Regular, PingFang SC" font-size="14" font-weight="normal" line-spacing="22">
                                    <tspan x="30" y="15">角色管理</tspan>
                                </text>
                                <g id="project" transform="translate(0, 2)">
                                    <rect id="矩形" fill-rule="nonzero" opacity="0" x="0" y="0" width="18" height="18"></rect>
                                    <path d="M10.6724531,12.2093438 L8.84278125,9.03571875 L10.6724531,5.80964063 L14.3317969,5.80964063 L16.1614687,9.03023438 L14.3317969,12.2016094 L10.6724531,12.2016094 L10.6724531,12.2090625 L10.6724531,12.2093438 Z M3.68128125,16.4999531 L1.85160938,13.3263281 L3.68128125,10.10025 L7.340625,10.10025 L9.17029688,13.3208438 L7.340625,16.4998125 L3.68128125,16.4998125 L3.68128125,16.4999531 Z M3.68128125,7.92295313 L1.85160938,4.74932813 L3.68128125,1.52325 L7.340625,1.52325 L9.17029688,4.74932813 L7.340625,7.92295313 L3.68128125,7.92295313 Z" id="形状" fill-opacity="0.5"></path>
                                </g>
                            </g>
                        </g>
                        <g id="调度平台" transform="translate(8, 315)">
                            <text id="寻源" font-family="PingFangSC-Regular, PingFang SC" font-size="12" font-weight="normal" fill="#000000" fill-opacity="0.540000021">
                                <tspan x="0" y="13">寻源</tspan>
                            </text>
                            <g id="并发请求" transform="translate(0, 29)">
                                <g id="编组-10">
                                    <text id="报价" font-family="PingFangSC-Regular, PingFang SC" font-size="14" font-weight="normal" line-spacing="22" fill="#000000">
                                        <tspan x="30" y="15">报价</tspan>
                                    </text>
                                    <g id="keyboard_arrow_up" transform="translate(179, 11) scale(1, -1) translate(-179, -11)translate(170, 2)">
                                        <rect id="矩形" fill="#000000" fill-rule="nonzero" opacity="0" x="0" y="0" width="18" height="18"></rect>
                                        <g id="color" transform="translate(4.5, 6.4425)">
                                            <mask id="mask-10" fill="white">
                                                <use xlink:href="#path-9"></use>
                                            </mask>
                                            <g id="蒙版" fill-rule="nonzero"></g>
                                            <g mask="url(#mask-10)" fill="#000000" fill-opacity="0.85" id="矩形">
                                                <g transform="translate(-4.5, -6.4425)">
                                                    <rect x="0" y="0" width="18" height="18"></rect>
                                                </g>
                                            </g>
                                        </g>
                                    </g>
                                    <g id="supervised_user_circle-24px" transform="translate(0, 2)">
                                        <polygon id="路径" points="0 0 18 0 18 18 0 18"></polygon>
                                        <path d="M8.9925,1.5 C4.8525,1.5 1.4925,4.86 1.4925,9 C1.4925,13.14 4.8525,16.5 8.9925,16.5 C13.1325,16.5 16.4925,13.14 16.4925,9 C16.4925,4.86 13.1325,1.5 8.9925,1.5 Z M11.7,6.255 C12.5025,6.255 13.1475,6.9 13.1475,7.7025 C13.1475,8.505 12.5025,9.15 11.7,9.15 C10.8975,9.15 10.2525,8.505 10.2525,7.7025 C10.245,6.9 10.8975,6.255 11.7,6.255 L11.7,6.255 Z M7.2,5.07 C8.175,5.07 8.97,5.865 8.97,6.84 C8.97,7.815 8.175,8.61 7.2,8.61 C6.225,8.61 5.43,7.815 5.43,6.84 C5.43,5.8575 6.2175,5.07 7.2,5.07 Z M7.2,11.9175 L7.2,14.73 C5.4,14.1675 3.975,12.78 3.345,11.01 C4.1325,10.17 6.0975,9.7425 7.2,9.7425 C7.5975,9.7425 8.1,9.8025 8.625,9.9075 C7.395,10.56 7.2,11.4225 7.2,11.9175 Z M8.9925,15 C8.79,15 8.595,14.9925 8.4,14.97 L8.4,11.9175 C8.4,10.8525 10.605,10.32 11.7,10.32 C12.5025,10.32 13.89,10.6125 14.58,11.1825 C13.7025,13.41 11.535,15 8.9925,15 L8.9925,15 Z" id="形状" fill-opacity="0.5" fill="#000000"></path>
                                    </g>
                                </g>
                                <text id="供应商报价" font-family="PingFangSC-Regular, PingFang SC" font-size="14" font-weight="normal" line-spacing="22" fill="#000000">
                                    <tspan x="30" y="49">供应商报价</tspan>
                                </text>
                                <text id="报价查询" font-family="PingFangSC-Regular, PingFang SC" font-size="14" font-weight="normal" line-spacing="22" fill="#000000">
                                    <tspan x="30" y="83">报价查询</tspan>
                                </text>
                            </g>
                            <g id="并发请求备份" transform="translate(0, 131)">
                                <text id="投标" font-family="PingFangSC-Regular, PingFang SC" font-size="14" font-weight="normal" line-spacing="22" fill="#000000">
                                    <tspan x="30" y="15">投标</tspan>
                                </text>
                                <g id="keyboard_arrow_up" transform="translate(179, 11) scale(1, -1) rotate(-270) translate(-179, -11)translate(170, 2)">
                                    <rect id="矩形" fill="#000000" fill-rule="nonzero" opacity="0" x="0" y="0" width="18" height="18"></rect>
                                    <g id="color" transform="translate(4.5, 6.4425)">
                                        <mask id="mask-12" fill="white">
                                            <use xlink:href="#path-11"></use>
                                        </mask>
                                        <g id="蒙版" fill-rule="nonzero"></g>
                                        <g mask="url(#mask-12)" fill="#000000" fill-opacity="0.85" id="矩形">
                                            <g transform="translate(-4.5, -6.4425)">
                                                <rect x="0" y="0" width="18" height="18"></rect>
                                            </g>
                                        </g>
                                    </g>
                                </g>
                                <g id="settings_application" transform="translate(0, 2)" fill="#000000">
                                    <rect id="矩形" fill-rule="nonzero" opacity="0" x="0" y="0" width="18" height="18"></rect>
                                    <path d="M12.9375,9 C12.9375,8.82421875 12.9375,8.6484375 12.9023438,8.47265625 L14.0273438,7.62890625 C14.1328125,7.55859375 14.1328125,7.3828125 14.0625,7.27734375 L13.0078125,5.44921875 C12.9375,5.34375 12.796875,5.30859375 12.6914063,5.34375 L11.390625,5.87109375 C11.109375,5.66015625 10.828125,5.484375 10.5117188,5.34375 L10.3007813,3.97265625 C10.265625,3.8671875 10.1953125,3.76171875 10.0546875,3.76171875 L7.9453125,3.76171875 C7.8046875,3.76171875 7.734375,3.83203125 7.69921875,3.97265625 L7.48828125,5.37890625 C7.171875,5.51953125 6.890625,5.66015625 6.609375,5.87109375 L5.30859375,5.34375 C5.203125,5.30859375 5.0625,5.37890625 4.9921875,5.484375 L3.9375,7.27734375 C3.8671875,7.3828125 3.8671875,7.55859375 3.97265625,7.62890625 L5.09765625,8.47265625 C5.0625,8.6484375 5.0625,8.82421875 5.0625,9 C5.0625,9.17578125 5.0625,9.3515625 5.09765625,9.52734375 L3.97265625,10.3710938 C3.8671875,10.4414062 3.8671875,10.6171875 3.9375,10.7226562 L4.9921875,12.5507812 C5.0625,12.65625 5.203125,12.6914062 5.30859375,12.65625 L6.609375,12.1289062 C6.890625,12.3398438 7.171875,12.515625 7.48828125,12.65625 L7.69921875,14.0273438 C7.734375,14.1328125 7.8046875,14.2382812 7.9453125,14.2382812 L10.0546875,14.2382812 C10.1953125,14.2382812 10.265625,14.1679688 10.3007813,14.0273438 L10.5117188,12.6210938 C10.828125,12.4804688 11.109375,12.3398438 11.390625,12.1289062 L12.6914063,12.65625 C12.796875,12.6914062 12.9375,12.6210938 13.0078125,12.515625 L14.0625,10.7226562 C14.1328125,10.6171875 14.1328125,10.4414062 14.0273438,10.3710938 L12.9023438,9.52734375 C12.9375,9.3515625 12.9375,9.17578125 12.9375,9 Z M14.2382812,2.25 C15.0820312,2.25 15.75,2.953125 15.75,3.76171875 L15.75,14.2382812 C15.75,15.046875 15.0820312,15.75 14.2382812,15.75 L3.76171875,15.75 C2.91796875,15.75 2.25,15.046875 2.25,14.2382812 L2.25,3.76171875 C2.25,2.953125 2.91796875,2.25 3.76171875,2.25 L14.2382812,2.25 Z M9,7.48828125 C9.80859375,7.48828125 10.5117188,8.19140625 10.5117188,9 C10.5117188,9.80859375 9.80859375,10.5117188 9,10.5117188 C8.19140625,10.5117188 7.48828125,9.80859375 7.48828125,9 C7.48828125,8.19140625 8.19140625,7.48828125 9,7.48828125 Z" id="形状" fill-opacity="0.5"></path>
                                </g>
                            </g>
                        </g>
                        <g id="调度平台备份" transform="translate(8, 492)">
                            <text id="协议" font-family="PingFangSC-Regular, PingFang SC" font-size="12" font-weight="normal" fill="#000000" fill-opacity="0.540000021">
                                <tspan x="0" y="13">协议</tspan>
                            </text>
                            <g id="并发请求" transform="translate(0, 29)">
                                <g id="编组-10">
                                    <text id="协议签署" font-family="PingFangSC-Regular, PingFang SC" font-size="14" font-weight="normal" line-spacing="22" fill="#000000">
                                        <tspan x="30" y="15">协议签署</tspan>
                                    </text>
                                    <g id="supervised_user_circle-24px" transform="translate(0, 2)">
                                        <polygon id="路径" points="0 0 18 0 18 18 0 18"></polygon>
                                        <path d="M8.9925,1.5 C4.8525,1.5 1.4925,4.86 1.4925,9 C1.4925,13.14 4.8525,16.5 8.9925,16.5 C13.1325,16.5 16.4925,13.14 16.4925,9 C16.4925,4.86 13.1325,1.5 8.9925,1.5 Z M11.7,6.255 C12.5025,6.255 13.1475,6.9 13.1475,7.7025 C13.1475,8.505 12.5025,9.15 11.7,9.15 C10.8975,9.15 10.2525,8.505 10.2525,7.7025 C10.245,6.9 10.8975,6.255 11.7,6.255 L11.7,6.255 Z M7.2,5.07 C8.175,5.07 8.97,5.865 8.97,6.84 C8.97,7.815 8.175,8.61 7.2,8.61 C6.225,8.61 5.43,7.815 5.43,6.84 C5.43,5.8575 6.2175,5.07 7.2,5.07 Z M7.2,11.9175 L7.2,14.73 C5.4,14.1675 3.975,12.78 3.345,11.01 C4.1325,10.17 6.0975,9.7425 7.2,9.7425 C7.5975,9.7425 8.1,9.8025 8.625,9.9075 C7.395,10.56 7.2,11.4225 7.2,11.9175 Z M8.9925,15 C8.79,15 8.595,14.9925 8.4,14.97 L8.4,11.9175 C8.4,10.8525 10.605,10.32 11.7,10.32 C12.5025,10.32 13.89,10.6125 14.58,11.1825 C13.7025,13.41 11.535,15 8.9925,15 L8.9925,15 Z" id="形状" fill-opacity="0.5" fill="#000000"></path>
                                    </g>
                                </g>
                                <g id="编组-10备份" transform="translate(0, 34)">
                                    <text id="我收到的协议" font-family="PingFangSC-Regular, PingFang SC" font-size="14" font-weight="normal" line-spacing="22" fill="#000000">
                                        <tspan x="30" y="15">我收到的协议</tspan>
                                    </text>
                                    <g id="supervised_user_circle-24px" transform="translate(0, 2)">
                                        <polygon id="路径" points="0 0 18 0 18 18 0 18"></polygon>
                                        <path d="M8.9925,1.5 C4.8525,1.5 1.4925,4.86 1.4925,9 C1.4925,13.14 4.8525,16.5 8.9925,16.5 C13.1325,16.5 16.4925,13.14 16.4925,9 C16.4925,4.86 13.1325,1.5 8.9925,1.5 Z M11.7,6.255 C12.5025,6.255 13.1475,6.9 13.1475,7.7025 C13.1475,8.505 12.5025,9.15 11.7,9.15 C10.8975,9.15 10.2525,8.505 10.2525,7.7025 C10.245,6.9 10.8975,6.255 11.7,6.255 L11.7,6.255 Z M7.2,5.07 C8.175,5.07 8.97,5.865 8.97,6.84 C8.97,7.815 8.175,8.61 7.2,8.61 C6.225,8.61 5.43,7.815 5.43,6.84 C5.43,5.8575 6.2175,5.07 7.2,5.07 Z M7.2,11.9175 L7.2,14.73 C5.4,14.1675 3.975,12.78 3.345,11.01 C4.1325,10.17 6.0975,9.7425 7.2,9.7425 C7.5975,9.7425 8.1,9.8025 8.625,9.9075 C7.395,10.56 7.2,11.4225 7.2,11.9175 Z M8.9925,15 C8.79,15 8.595,14.9925 8.4,14.97 L8.4,11.9175 C8.4,10.8525 10.605,10.32 11.7,10.32 C12.5025,10.32 13.89,10.6125 14.58,11.1825 C13.7025,13.41 11.535,15 8.9925,15 L8.9925,15 Z" id="形状" fill-opacity="0.5" fill="#000000"></path>
                                    </g>
                                </g>
                                <text id="报价查询" font-family="PingFangSC-Regular, PingFang SC" font-size="14" font-weight="normal" line-spacing="22" fill="#000000">
                                    <tspan x="30" y="83">报价查询</tspan>
                                </text>
                            </g>
                        </g>
                        <g id="消息管理" transform="translate(8, 138)">
                            <text id="合作伙伴" font-family="PingFangSC-Regular, PingFang SC" font-size="12" font-weight="normal" fill="#000000" fill-opacity="0.540000021">
                                <tspan x="0" y="13">合作伙伴</tspan>
                            </text>
                            <g id="公告管理" transform="translate(0, 29)">
                                <text id="调查表管理" font-family="PingFangSC-Regular, PingFang SC" font-size="14" font-weight="normal" line-spacing="22" fill="#000000">
                                    <tspan x="30" y="15">调查表管理</tspan>
                                </text>
                                <g id="keyboard_arrow_up" transform="translate(179, 11) scale(1, -1) rotate(-270) translate(-179, -11)translate(170, 2)">
                                    <rect id="矩形" fill="#000000" fill-rule="nonzero" opacity="0" x="0" y="0" width="18" height="18"></rect>
                                    <g id="color" transform="translate(4.5, 6.4425)">
                                        <mask id="mask-14" fill="white">
                                            <use xlink:href="#path-13"></use>
                                        </mask>
                                        <use id="蒙版" fill="#000000" fill-rule="nonzero" xlink:href="#path-13"></use>
                                    </g>
                                </g>
                                <g id="assignment" transform="translate(0, 2)">
                                    <rect id="矩形" fill="#000000" fill-rule="nonzero" opacity="0" x="0" y="0" width="18" height="18"></rect>
                                    <path d="M12.7617188,6.75 L12.7617188,5.23828125 L5.23828125,5.23828125 L5.23828125,6.75 L12.7617188,6.75 Z M12.7617188,9.73828125 L12.7617188,8.26171875 L5.23828125,8.26171875 L5.23828125,9.73828125 L12.7617188,9.73828125 Z M10.5117188,12.7617188 L10.5117188,11.25 L5.23828125,11.25 L5.23828125,12.7617188 L10.5117188,12.7617188 Z M9,2.25 C8.578125,2.25 8.26171875,2.56640625 8.26171875,2.98828125 C8.26171875,3.41015625 8.578125,3.76171875 9,3.76171875 C9.421875,3.76171875 9.73828125,3.41015625 9.73828125,2.98828125 C9.73828125,2.56640625 9.421875,2.25 9,2.25 Z M14.2382812,2.25 C15.046875,2.25 15.75,2.953125 15.75,3.76171875 L15.75,14.2382812 C15.75,15.046875 15.046875,15.75 14.2382812,15.75 L3.76171875,15.75 C2.953125,15.75 2.25,15.046875 2.25,14.2382812 L2.25,3.76171875 C2.25,2.953125 2.953125,2.25 3.76171875,2.25 L6.890625,2.25 C7.20703125,1.37109375 8.015625,0.73828125 9,0.73828125 C9.984375,0.73828125 10.7929688,1.37109375 11.109375,2.25 L14.2382812,2.25 Z" id="形状" fill="#7C7C7D"></path>
                                </g>
                            </g>
                            <g id="公告管理备份" transform="translate(0, 63)">
                                <text id="供应商送样管理" font-family="PingFangSC-Regular, PingFang SC" font-size="14" font-weight="normal" line-spacing="22" fill="#000000">
                                    <tspan x="30" y="15">供应商送样管理</tspan>
                                </text>
                                <g id="keyboard_arrow_up" transform="translate(179, 11) scale(1, -1) rotate(-270) translate(-179, -11)translate(170, 2)">
                                    <rect id="矩形" fill="#000000" fill-rule="nonzero" opacity="0" x="0" y="0" width="18" height="18"></rect>
                                    <g id="color" transform="translate(4.5, 6.4425)">
                                        <mask id="mask-16" fill="white">
                                            <use xlink:href="#path-15"></use>
                                        </mask>
                                        <use id="蒙版" fill="#000000" fill-rule="nonzero" xlink:href="#path-15"></use>
                                    </g>
                                </g>
                                <g id="assignment" transform="translate(0, 2)">
                                    <rect id="矩形" fill="#000000" fill-rule="nonzero" opacity="0" x="0" y="0" width="18" height="18"></rect>
                                    <path d="M12.7617188,6.75 L12.7617188,5.23828125 L5.23828125,5.23828125 L5.23828125,6.75 L12.7617188,6.75 Z M12.7617188,9.73828125 L12.7617188,8.26171875 L5.23828125,8.26171875 L5.23828125,9.73828125 L12.7617188,9.73828125 Z M10.5117188,12.7617188 L10.5117188,11.25 L5.23828125,11.25 L5.23828125,12.7617188 L10.5117188,12.7617188 Z M9,2.25 C8.578125,2.25 8.26171875,2.56640625 8.26171875,2.98828125 C8.26171875,3.41015625 8.578125,3.76171875 9,3.76171875 C9.421875,3.76171875 9.73828125,3.41015625 9.73828125,2.98828125 C9.73828125,2.56640625 9.421875,2.25 9,2.25 Z M14.2382812,2.25 C15.046875,2.25 15.75,2.953125 15.75,3.76171875 L15.75,14.2382812 C15.75,15.046875 15.046875,15.75 14.2382812,15.75 L3.76171875,15.75 C2.953125,15.75 2.25,15.046875 2.25,14.2382812 L2.25,3.76171875 C2.25,2.953125 2.953125,2.25 3.76171875,2.25 L6.890625,2.25 C7.20703125,1.37109375 8.015625,0.73828125 9,0.73828125 C9.984375,0.73828125 10.7929688,1.37109375 11.109375,2.25 L14.2382812,2.25 Z" id="形状" fill="#7C7C7D"></path>
                                </g>
                            </g>
                            <g id="公告管理备份-2" transform="translate(0, 97)">
                                <text id="供应商现场考察" font-family="PingFangSC-Regular, PingFang SC" font-size="14" font-weight="normal" line-spacing="22" fill="#000000">
                                    <tspan x="30" y="15">供应商现场考察</tspan>
                                </text>
                                <g id="keyboard_arrow_up" transform="translate(179, 11) scale(1, -1) rotate(-270) translate(-179, -11)translate(170, 2)">
                                    <rect id="矩形" fill="#000000" fill-rule="nonzero" opacity="0" x="0" y="0" width="18" height="18"></rect>
                                    <g id="color" transform="translate(4.5, 6.4425)">
                                        <mask id="mask-18" fill="white">
                                            <use xlink:href="#path-17"></use>
                                        </mask>
                                        <use id="蒙版" fill="#000000" fill-rule="nonzero" xlink:href="#path-17"></use>
                                    </g>
                                </g>
                                <g id="assignment" transform="translate(0, 2)">
                                    <rect id="矩形" fill="#000000" fill-rule="nonzero" opacity="0" x="0" y="0" width="18" height="18"></rect>
                                    <path d="M12.7617188,6.75 L12.7617188,5.23828125 L5.23828125,5.23828125 L5.23828125,6.75 L12.7617188,6.75 Z M12.7617188,9.73828125 L12.7617188,8.26171875 L5.23828125,8.26171875 L5.23828125,9.73828125 L12.7617188,9.73828125 Z M10.5117188,12.7617188 L10.5117188,11.25 L5.23828125,11.25 L5.23828125,12.7617188 L10.5117188,12.7617188 Z M9,2.25 C8.578125,2.25 8.26171875,2.56640625 8.26171875,2.98828125 C8.26171875,3.41015625 8.578125,3.76171875 9,3.76171875 C9.421875,3.76171875 9.73828125,3.41015625 9.73828125,2.98828125 C9.73828125,2.56640625 9.421875,2.25 9,2.25 Z M14.2382812,2.25 C15.046875,2.25 15.75,2.953125 15.75,3.76171875 L15.75,14.2382812 C15.75,15.046875 15.046875,15.75 14.2382812,15.75 L3.76171875,15.75 C2.953125,15.75 2.25,15.046875 2.25,14.2382812 L2.25,3.76171875 C2.25,2.953125 2.953125,2.25 3.76171875,2.25 L6.890625,2.25 C7.20703125,1.37109375 8.015625,0.73828125 9,0.73828125 C9.984375,0.73828125 10.7929688,1.37109375 11.109375,2.25 L14.2382812,2.25 Z" id="形状" fill="#7C7C7D"></path>
                                </g>
                            </g>
                            <g id="公告管理备份-3" transform="translate(0, 131)">
                                <text id="供应商绩效管理" font-family="PingFangSC-Regular, PingFang SC" font-size="14" font-weight="normal" line-spacing="22" fill="#000000">
                                    <tspan x="30" y="15">供应商绩效管理</tspan>
                                </text>
                                <g id="keyboard_arrow_up" transform="translate(179, 11) scale(1, -1) rotate(-270) translate(-179, -11)translate(170, 2)">
                                    <rect id="矩形" fill="#000000" fill-rule="nonzero" opacity="0" x="0" y="0" width="18" height="18"></rect>
                                    <g id="color" transform="translate(4.5, 6.4425)">
                                        <mask id="mask-20" fill="white">
                                            <use xlink:href="#path-19"></use>
                                        </mask>
                                        <use id="蒙版" fill="#000000" fill-rule="nonzero" xlink:href="#path-19"></use>
                                    </g>
                                </g>
                                <g id="assignment" transform="translate(0, 2)">
                                    <rect id="矩形" fill="#000000" fill-rule="nonzero" opacity="0" x="0" y="0" width="18" height="18"></rect>
                                    <path d="M12.7617188,6.75 L12.7617188,5.23828125 L5.23828125,5.23828125 L5.23828125,6.75 L12.7617188,6.75 Z M12.7617188,9.73828125 L12.7617188,8.26171875 L5.23828125,8.26171875 L5.23828125,9.73828125 L12.7617188,9.73828125 Z M10.5117188,12.7617188 L10.5117188,11.25 L5.23828125,11.25 L5.23828125,12.7617188 L10.5117188,12.7617188 Z M9,2.25 C8.578125,2.25 8.26171875,2.56640625 8.26171875,2.98828125 C8.26171875,3.41015625 8.578125,3.76171875 9,3.76171875 C9.421875,3.76171875 9.73828125,3.41015625 9.73828125,2.98828125 C9.73828125,2.56640625 9.421875,2.25 9,2.25 Z M14.2382812,2.25 C15.046875,2.25 15.75,2.953125 15.75,3.76171875 L15.75,14.2382812 C15.75,15.046875 15.046875,15.75 14.2382812,15.75 L3.76171875,15.75 C2.953125,15.75 2.25,15.046875 2.25,14.2382812 L2.25,3.76171875 C2.25,2.953125 2.953125,2.25 3.76171875,2.25 L6.890625,2.25 C7.20703125,1.37109375 8.015625,0.73828125 9,0.73828125 C9.984375,0.73828125 10.7929688,1.37109375 11.109375,2.25 L14.2382812,2.25 Z" id="形状" fill="#7C7C7D"></path>
                                </g>
                            </g>
                        </g>
                    </g>
                    <g id="Input/Default" transform="translate(16, 12)">
                        <rect id="矩形" stroke-opacity="0.16" stroke="#000000" x="0.5" y="0.5" width="187" height="31" rx="2"></rect>
                        <text id="I-*" font-family="PingFangSC-Regular, PingFang SC" font-size="12" font-weight="normal" line-spacing="18" fill="#000000" fill-opacity="0.65">
                            <tspan x="34" y="20">菜单搜索</tspan>
                        </text>
                        <g id="search" transform="translate(10, 9)">
                            <rect id="矩形" fill="#000000" fill-rule="nonzero" opacity="0" x="0" y="0" width="14" height="14"></rect>
                            <g id="color" transform="translate(1.75, 1.75)">
                                <mask id="mask-22" fill="white">
                                    <use xlink:href="#path-21"></use>
                                </mask>
                                <g id="蒙版" fill-rule="nonzero"></g>
                                <g mask="url(#mask-22)" fill="#000000" fill-opacity="0.85" id="矩形">
                                    <g transform="translate(-1.75, -1.75)">
                                        <rect x="0" y="0" width="14" height="14"></rect>
                                    </g>
                                </g>
                            </g>
                        </g>
                    </g>
                    <g id="系统管理备份" transform="translate(16, 59)">
                        <text id="常用功能" font-family="PingFangSC-Regular, PingFang SC" font-size="12" font-weight="normal" fill="#000000" fill-opacity="0.540000021">
                            <tspan x="0" y="13">常用功能</tspan>
                        </text>
                        <g id="角色管理" transform="translate(0, 33)" fill="#000000">
                            <text id="采购申请工作台" font-family="PingFangSC-Regular, PingFang SC" font-size="14" font-weight="normal" line-spacing="22">
                                <tspan x="30" y="15">采购申请工作台</tspan>
                            </text>
                            <g id="project" transform="translate(0, 2)">
                                <rect id="矩形" fill-rule="nonzero" opacity="0" x="0" y="0" width="18" height="18"></rect>
                                <path d="M10.6724531,12.2093438 L8.84278125,9.03571875 L10.6724531,5.80964063 L14.3317969,5.80964063 L16.1614687,9.03023438 L14.3317969,12.2016094 L10.6724531,12.2016094 L10.6724531,12.2090625 L10.6724531,12.2093438 Z M3.68128125,16.4999531 L1.85160938,13.3263281 L3.68128125,10.10025 L7.340625,10.10025 L9.17029688,13.3208438 L7.340625,16.4998125 L3.68128125,16.4998125 L3.68128125,16.4999531 Z M3.68128125,7.92295313 L1.85160938,4.74932813 L3.68128125,1.52325 L7.340625,1.52325 L9.17029688,4.74932813 L7.340625,7.92295313 L3.68128125,7.92295313 Z" id="形状" fill-opacity="0.5"></path>
                            </g>
                        </g>
                        <g id="公告管理" transform="translate(0, 71)">
                            <text id="订单工作台" font-family="PingFangSC-Medium, PingFang SC" font-size="14" font-weight="400" line-spacing="22" fill="#00B8CC">
                                <tspan x="30" y="15">订单工作台</tspan>
                            </text>
                            <g id="Icon/assignment" transform="translate(0, 3)">
                                <path d="M12.6666667,3 L9.88,3 C9.6,2.22666667 8.86666667,1.66666667 8,1.66666667 C7.13333333,1.66666667 6.4,2.22666667 6.12,3 L3.33333333,3 C2.6,3 2,3.6 2,4.33333333 L2,13.6666667 C2,14.4 2.6,15 3.33333333,15 L12.6666667,15 C13.4,15 14,14.4 14,13.6666667 L14,4.33333333 C14,3.6 13.4,3 12.6666667,3 Z M8,3 C8.36666667,3 8.66666667,3.3 8.66666667,3.66666667 C8.66666667,4.03333334 8.36666667,4.33333333 8,4.33333333 C7.63333333,4.33333333 7.33333333,4.03333333 7.33333333,3.66666667 C7.33333333,3.30000002 7.63333333,3 8,3 Z M4.66666667,12.3333333 L4.66666667,11 L9.33333333,11 L9.33333333,12.3333333 L4.66666667,12.3333333 Z M4.66666667,9.66666667 L4.66666667,8.33333333 L11.3333333,8.33333333 L11.3333333,9.66666667 L4.66666667,9.66666667 Z M4.66666667,7 L4.66666667,5.66666667 L11.3333333,5.66666667 L11.3333333,7 L4.66666667,7 Z" id="icon" fill="#00B8CC"></path>
                                <rect id="assignment" x="0" y="0" width="16" height="16"></rect>
                            </g>
                            <g id="Icon/assignment备份" transform="translate(172, 3)">
                                <polygon id="icon" fill="#00B8CC" points="8 11.5133333 12.12 14 11.0266667 9.31333333 14.6666667 6.16 9.87333333 5.75333333 8 1.33333333 6.12666667 5.75333333 1.33333333 6.16 4.97333333 9.31333333 3.88 14"></polygon>
                                <rect id="star" x="0" y="0" width="16" height="16"></rect>
                            </g>
                        </g>
                    </g>
                    <line x1="16" y1="168.5" x2="203" y2="168.5" id="直线-4" stroke-opacity="0.1" stroke="#000000" stroke-linecap="square"></line>
                    <rect id="矩形" fill-opacity="0.08" fill="#000000" x="219" y="0" width="1" height="752"></rect>
                    <g id="门户管理" transform="translate(1, 712)">
                        <rect id="矩形" fill="#FAFAFB" x="0" y="0" width="218" height="40"></rect>
                        <g id="编组-8" transform="translate(71, 9)">
                            <text id="固定菜单" font-family="PingFangSC-Regular, PingFang SC" font-size="14" font-weight="normal" line-spacing="22" fill="#000000">
                                <tspan x="18" y="15">固定菜单</tspan>
                            </text>
                            <g id="icon_pin" transform="translate(0, 4)">
                                <rect id="矩形" x="0" y="0" width="14" height="14"></rect>
                                <g id="Icon/color" transform="translate(2.625, 0.875)">
                                    <mask id="mask-24" fill="white">
                                        <use xlink:href="#path-23"></use>
                                    </mask>
                                    <g id="蒙版" fill-rule="nonzero"></g>
                                    <g mask="url(#mask-24)" fill="#000000" fill-opacity="0.5" id="矩形">
                                        <g transform="translate(-2.625, -0.875)">
                                            <rect x="0" y="0" width="14" height="14"></rect>
                                        </g>
                                    </g>
                                </g>
                            </g>
                        </g>
                    </g>
                </g>
                <g id="导航">
                    <rect id="蒙版" fill="#212121" x="0" y="0" width="1440" height="48"></rect>
                    <g id="navbar-item" transform="translate(874, 8)">
                        <rect id="矩形" x="0" y="0" width="86" height="30" rx="2"></rect>
                        <text id="企业商城" font-family="PingFangSC-Regular, PingFang SC" font-size="12" font-weight="normal" line-spacing="18" fill="#FFFFFF">
                            <tspan x="30" y="20">企业商城</tspan>
                        </text>
                        <g id="store_mall_directory" transform="translate(8, 9)">
                            <rect id="矩形" fill="#000000" fill-rule="nonzero" opacity="0" x="0" y="0" width="14" height="14"></rect>
                            <path d="M7,10.5 L7,8.17578125 L3.5,8.17578125 L3.5,10.5 L7,10.5 Z M12.25,8.17578125 L11.6757812,8.17578125 L11.6757812,11.6757812 L10.5,11.6757812 L10.5,8.17578125 L8.17578125,8.17578125 L8.17578125,11.6757812 L2.32421875,11.6757812 L2.32421875,8.17578125 L1.75,8.17578125 L1.75,7 L2.32421875,4.07421875 L11.6757812,4.07421875 L12.25,7 L12.25,8.17578125 Z M11.6757812,2.32421875 L11.6757812,3.5 L2.32421875,3.5 L2.32421875,2.32421875 L11.6757812,2.32421875 Z" id="形状" fill="#FFFFFF"></path>
                        </g>
                    </g>
                    <g id="编组-2" transform="translate(1324, 9)">
                        <g id="编组">
                            <rect id="矩形" x="0" y="0" width="30" height="30" rx="2"></rect>
                            <g id="notifications_none" transform="translate(5, 5)">
                                <rect id="矩形" fill="#000000" fill-rule="nonzero" opacity="0" x="0" y="0" width="20" height="20"></rect>
                                <path d="M13.3203125,14.1796875 L13.3203125,9.1796875 C13.3203125,7.109375 12.0703125,5.4296875 10,5.4296875 C7.9296875,5.4296875 6.6796875,7.109375 6.6796875,9.1796875 L6.6796875,14.1796875 L13.3203125,14.1796875 Z M15,13.3203125 L16.6796875,15 L16.6796875,15.8203125 L3.3203125,15.8203125 L3.3203125,15 L5,13.3203125 L5,9.1796875 C5,6.6015625 6.3671875,4.4921875 8.75,3.90625 L8.75,3.3203125 C8.75,2.6171875 9.296875,2.0703125 10,2.0703125 C10.703125,2.0703125 11.25,2.6171875 11.25,3.3203125 L11.25,3.90625 C13.6328125,4.4921875 15,6.640625 15,9.1796875 L15,13.3203125 Z M10,18.3203125 C9.1015625,18.3203125 8.3203125,17.578125 8.3203125,16.6796875 L11.6796875,16.6796875 C11.6796875,17.578125 10.8984375,18.3203125 10,18.3203125 Z" id="形状" fill="#FFFFFF"></path>
                            </g>
                        </g>
                        <g id="分组-6" transform="translate(15, 9)">
                            <rect id="矩形" stroke="#212121" fill="#F56349" x="-0.5" y="0.5" width="16" height="12" rx="5"></rect>
                            <text id="12" font-family="PingFangSC-Medium, PingFang SC" font-size="9" font-weight="400" fill="#FFFFFF">
                                <tspan x="3" y="10">12</tspan>
                            </text>
                        </g>
                    </g>
                    <g id="Input/Activated/WithIconAfter" transform="translate(1198, 9)">
                        <rect id="矩形" x="0" y="0" width="110" height="30" rx="2"></rect>
                        <text id="简体中文" font-family="PingFangSC-Regular, PingFang SC" font-size="12" font-weight="normal" line-spacing="18" fill="#FFFFFF">
                            <tspan x="32" y="19">简体中文</tspan>
                        </text>
                        <g id="icon/date_range" transform="translate(88, 8)">
                            <polygon id="icon" fill="#FFFFFF" points="3.653125 4.375 7 7.71458333 10.346875 4.375 11.375 5.403125 7 9.778125 2.625 5.403125"></polygon>
                            <rect id="keyboard_arrow_down" x="0" y="0" width="14" height="14"></rect>
                        </g>
                        <g id="language" transform="translate(8, 8)">
                            <rect id="矩形" fill="#000000" fill-rule="nonzero" opacity="0" x="0" y="0" width="14" height="14"></rect>
                            <path d="M9.54296875,8.17578125 L11.5117188,8.17578125 C11.59375,7.79296875 11.6757812,7.41015625 11.6757812,7 C11.6757812,6.58984375 11.59375,6.20703125 11.5117188,5.82421875 L9.54296875,5.82421875 C9.59765625,6.20703125 9.625,6.58984375 9.625,7 C9.625,7.41015625 9.59765625,7.79296875 9.54296875,8.17578125 Z M8.50390625,11.4023438 C9.5703125,11.046875 10.5,10.28125 11.046875,9.32421875 L9.32421875,9.32421875 C9.1328125,10.0625 8.859375,10.7460938 8.50390625,11.4023438 Z M8.3671875,8.17578125 C8.421875,7.79296875 8.44921875,7.41015625 8.44921875,7 C8.44921875,6.58984375 8.421875,6.20703125 8.3671875,5.82421875 L5.6328125,5.82421875 C5.578125,6.20703125 5.55078125,6.58984375 5.55078125,7 C5.55078125,7.41015625 5.578125,7.79296875 5.6328125,8.17578125 L8.3671875,8.17578125 Z M7,11.6484375 C7.4921875,10.9375 7.875,10.171875 8.12109375,9.32421875 L5.87890625,9.32421875 C6.125,10.171875 6.5078125,10.9375 7,11.6484375 Z M4.67578125,4.67578125 C4.8671875,3.9375 5.140625,3.25390625 5.49609375,2.59765625 C4.4296875,2.953125 3.5,3.71875 2.953125,4.67578125 L4.67578125,4.67578125 Z M2.953125,9.32421875 C3.5,10.28125 4.4296875,11.046875 5.49609375,11.4023438 C5.140625,10.7460938 4.8671875,10.0625 4.67578125,9.32421875 L2.953125,9.32421875 Z M2.48828125,8.17578125 L4.45703125,8.17578125 C4.40234375,7.79296875 4.375,7.41015625 4.375,7 C4.375,6.58984375 4.40234375,6.20703125 4.45703125,5.82421875 L2.48828125,5.82421875 C2.40625,6.20703125 2.32421875,6.58984375 2.32421875,7 C2.32421875,7.41015625 2.40625,7.79296875 2.48828125,8.17578125 Z M7,2.3515625 C6.5078125,3.0625 6.125,3.828125 5.87890625,4.67578125 L8.12109375,4.67578125 C7.875,3.828125 7.4921875,3.0625 7,2.3515625 Z M11.046875,4.67578125 C10.5,3.71875 9.5703125,2.953125 8.50390625,2.59765625 C8.859375,3.25390625 9.1328125,3.9375 9.32421875,4.67578125 L11.046875,4.67578125 Z M7,1.17578125 C10.2265625,1.17578125 12.8242188,3.7734375 12.8242188,7 C12.8242188,10.2265625 10.2265625,12.8242188 7,12.8242188 C3.7734375,12.8242188 1.17578125,10.2265625 1.17578125,7 C1.17578125,3.7734375 3.7734375,1.17578125 7,1.17578125 Z" id="形状" fill="#FFFFFF"></path>
                        </g>
                    </g>
                    <g id="Input/Activated/WithIconAfter" transform="translate(976, 9)">
                        <rect id="矩形" x="0" y="0" width="206" height="30" rx="2"></rect>
                        <text id="上海甄云信息科技有限公司" font-family="PingFangSC-Regular, PingFang SC" font-size="12" font-weight="normal" line-spacing="18" fill="#FFFFFF">
                            <tspan x="32" y="19">上海甄云信息科技有限公司</tspan>
                        </text>
                        <g id="icon/date_range" transform="translate(184, 8)">
                            <polygon id="icon" fill="#FFFFFF" points="3.653125 4.375 7 7.71458333 10.346875 4.375 11.375 5.403125 7 9.778125 2.625 5.403125"></polygon>
                            <rect id="keyboard_arrow_down" x="0" y="0" width="14" height="14"></rect>
                        </g>
                        <g id="domain" transform="translate(8, 8)">
                            <rect id="矩形" fill="#000000" fill-rule="nonzero" opacity="0" x="0" y="0" width="14" height="14"></rect>
                            <path d="M10.5,8.75 L10.5,9.92578125 L9.32421875,9.92578125 L9.32421875,8.75 L10.5,8.75 Z M10.5,6.42578125 L10.5,7.57421875 L9.32421875,7.57421875 L9.32421875,6.42578125 L10.5,6.42578125 Z M11.6757812,11.0742188 L11.6757812,5.25 L7,5.25 L7,6.42578125 L8.17578125,6.42578125 L8.17578125,7.57421875 L7,7.57421875 L7,8.75 L8.17578125,8.75 L8.17578125,9.92578125 L7,9.92578125 L7,11.0742188 L11.6757812,11.0742188 Z M5.82421875,4.07421875 L5.82421875,2.92578125 L4.67578125,2.92578125 L4.67578125,4.07421875 L5.82421875,4.07421875 Z M5.82421875,6.42578125 L5.82421875,5.25 L4.67578125,5.25 L4.67578125,6.42578125 L5.82421875,6.42578125 Z M5.82421875,8.75 L5.82421875,7.57421875 L4.67578125,7.57421875 L4.67578125,8.75 L5.82421875,8.75 Z M5.82421875,11.0742188 L5.82421875,9.92578125 L4.67578125,9.92578125 L4.67578125,11.0742188 L5.82421875,11.0742188 Z M3.5,4.07421875 L3.5,2.92578125 L2.32421875,2.92578125 L2.32421875,4.07421875 L3.5,4.07421875 Z M3.5,6.42578125 L3.5,5.25 L2.32421875,5.25 L2.32421875,6.42578125 L3.5,6.42578125 Z M3.5,8.75 L3.5,7.57421875 L2.32421875,7.57421875 L2.32421875,8.75 L3.5,8.75 Z M3.5,11.0742188 L3.5,9.92578125 L2.32421875,9.92578125 L2.32421875,11.0742188 L3.5,11.0742188 Z M7,4.07421875 L12.8242188,4.07421875 L12.8242188,12.25 L1.17578125,12.25 L1.17578125,1.75 L7,1.75 L7,4.07421875 Z" id="形状" fill="#FFFFFF"></path>
                        </g>
                    </g>
                    <g id="leopard" transform="translate(1394, 9)">
                        <mask id="mask-26" fill="white">
                            <use xlink:href="#path-25"></use>
                        </mask>
                        <use id="Mask" stroke="#FFFFFF" stroke-width="2" fill-opacity="0.8" fill="#FFFFFF" xlink:href="#path-25"></use>
                        <text id="S" mask="url(#mask-26)" font-family="PingFangSC-Medium, PingFang SC" font-size="14" font-weight="400" fill="#000000">
                            <tspan x="10.471" y="20">S</tspan>
                        </text>
                    </g>
                    <g id="甄云logo_标准版本备份" transform="translate(21, 15)" fill="#FFFFFF" fill-rule="nonzero">
                        <g id="编组-13">
                            <path d="M12.7701097,7.11565483 L15.2714443,5.67418839 C15.4998796,5.5424617 15.7850966,5.70740643 15.7850966,5.97102346 L15.7850966,12.027997 C15.7850966,12.2917777 15.4995524,12.4567224 15.2709534,12.3246685 L9.59001452,9.04033734 C9.54697834,9.01530109 9.49379676,9.01530109 9.45059695,9.04017371 L6.2703381,10.8745293 L18.5259937,17.9535712 C18.7542654,18.0854615 19.0398097,17.9206804 19.0398097,17.6567361 L19.0398097,0.343102565 C19.0398097,0.0793218975 18.7542654,-0.0854592017 18.5259937,0.046431132 L12.9414363,3.27250796 C12.8354004,3.3337077 12.7701097,3.44677993 12.7701097,3.5691794 L12.7701097,7.11565483 Z" id="Fill-12"></path>
                            <path d="M0,0.343168019 L0,17.6568016 C0,17.9207459 0.285544209,18.0853633 0.513979576,17.953473 L0.513979576,17.953473 L6.09853703,14.7275598 C6.20457293,14.6663601 6.26986355,14.5531242 6.26986355,14.4308884 L6.26986355,14.4308884 L6.26986355,10.8844129 L3.76852901,12.3258794 C3.53993001,12.4572788 3.25487671,12.2924977 3.25487671,12.0288807 L3.25487671,12.0288807 L3.25487671,5.9719071 C3.25487671,5.70812643 3.54058455,5.54318169 3.76885628,5.6753993 L3.76885628,5.6753993 L9.44979513,8.95956679 C9.49299494,8.98460304 9.54634016,8.98460304 9.58953998,8.95973042 L9.58953998,8.95973042 L12.7694716,7.12537479 L0.51381594,0.0464965862 C0.458670726,0.0145876345 0.400089163,2.40617173e-05 0.343143957,2.40617173e-05 L0.343143957,2.40617173e-05 C0.164290192,2.40617173e-05 0,0.143205255 0,0.343168019" id="Fill-16"></path>
                        </g>
                        <g id="Group-26" transform="translate(27.6791, 0.6792)">
                            <path d="M16.2735054,0.269353497 L16.8488235,1.97034579 L11.3370958,1.97034579 L11.2571151,4.11320213 L16.2753733,4.11320213 L16.275021,5.33989527 C16.2750002,5.41242605 16.2749787,5.48719606 16.2749567,5.56392783 L16.2740602,8.69429728 C16.2740363,8.77815671 16.2740127,8.86064835 16.2739897,8.94149473 L16.2735054,10.6617593 C16.2735054,14.5130626 16.8488235,16.3739994 16.8488235,16.3739994 L15.1228691,16.3739994 C14.7019087,13.7567094 14.6706636,8.6478231 14.6840786,5.81419443 L11.1963229,5.81419443 L10.8616263,14.7135579 L12.3549403,14.7135579 L12.9973336,16.3739994 L9.16470944,16.3739994 L9.66887697,1.97034579 L9.03064485,1.97034579 L9.03064485,0.269353497 L16.2735054,0.269353497 Z M13.4875482,8.09916521 C13.4875482,10.4542678 13.7402822,12.2047738 13.8824451,13.0031411 L13.9167839,13.1895837 C13.9533623,13.3813685 13.9767724,13.4821597 13.9767724,13.4821597 L12.5085904,13.4821597 C12.2098027,11.625251 12.1416779,10.0060424 12.1339527,9.02607735 L12.1333223,8.73833213 C12.1344659,8.42851278 12.1413751,8.21119772 12.1455354,8.10646707 C12.2514972,8.10646707 12.7532874,8.09916521 13.4875482,8.09916521 Z M8.57022555,0.269387459 L8.57022555,1.86693876 L6.14049064,1.86693876 L6.14049064,3.54639149 L8.48503585,3.54639149 L8.48486603,4.66493359 L8.48486603,8.7349529 C8.48486603,9.34270486 8.05094488,9.58801356 7.41568361,9.58801356 L5.97738823,9.58937205 L5.16431003,9.58937205 L5.16431003,11.4118464 L8.07556741,11.4118464 L8.07556741,12.9697122 L5.16431003,12.9697122 L5.16431003,14.8228335 L8.57022555,14.7999091 L8.57022555,16.3738636 L0,16.3738636 L0.581940761,14.8228335 L3.66409338,14.8228335 L3.66409338,12.9697122 L0.423507516,12.9697122 L1.02718403,11.4118464 L3.66409338,11.4118464 L3.66409338,9.58801356 L0.423507516,9.58801356 L0.423507516,3.54639149 L2.74231487,3.54639149 L2.74231487,1.86693876 L0,1.86693876 L0.27067802,0.269387459 L8.57022555,0.269387459 Z M4.9665903,4.82744229 L3.91621521,4.82744229 L3.91621521,8.20460958 L4.9665903,8.20460958 L4.9665903,4.82744229 Z M7.18213719,4.82744229 L6.14049064,4.82744229 L6.14049064,8.20460958 L7.18213719,8.20460958 L7.18213719,4.82744229 Z M2.74231487,4.82744229 L1.6469968,4.82744229 L1.6469968,8.20460958 L2.74231487,8.20460958 L2.74231487,4.82744229 Z M4.9665903,1.86693876 L3.91621521,1.86693876 L3.91621521,3.54639149 L4.9665903,3.54639149 L4.9665903,1.86693876 Z" id="形状结合"></path>
                            <path d="M60.0039339,0 L60.0008774,3.5276444 L61.6251153,3.5276444 L61.5228893,5.12318435 L59.9993491,5.12318435 L59.9952736,8.88907296 L61.6251153,8.46216923 L61.5028517,10.1516144 L59.9937453,10.5199335 L59.9915378,13.3511848 L59.9915378,16.6635532 L56.9301931,16.7088926 L56.2708188,15.2169371 L58.2812059,15.0148625 L58.2817153,10.7574985 L56.0792725,11.2448547 L56.120027,9.57833398 L58.2820549,9.12358133 L58.2830738,5.12318435 L56.0672159,5.12318435 L56.310045,3.5276444 L58.2834134,3.5276444 L58.2840927,0 L60.0039339,0 Z M68.1578461,0 L68.1578461,2.09427354 L72.1371865,2.09427354 L72.1371865,3.68998329 L68.1578461,3.68998329 L68.1578461,6.15648156 L71.3127563,6.15648156 C71.6425284,6.15648156 72.4669586,6.48625365 71.8074145,7.80534201 C70.9434184,9.64829593 69.7578011,11.3093827 68.5801649,12.6918105 C71.0622858,15.3693832 72.9616168,16.6635532 72.9616168,16.6635532 L70.1587238,16.6635532 C69.3629916,15.9673299 68.3723168,15.1357239 67.3768873,14.0209176 C65.8326749,15.7438547 64.8809852,16.3618238 64.4355932,16.6635532 L61.4202728,16.6635532 C63.2813965,15.4628228 64.9005401,14.1443699 66.2091002,12.6856973 C64.3455992,10.5136505 62.4094193,8.46471639 62.4094193,8.46471639 L64.7178239,8.46471639 C65.4987826,9.5061645 66.6093437,10.4627073 67.3597365,11.3295902 C68.9352388,9.36742928 69.8289517,7.80534201 69.8289517,7.80534201 L62.4094193,7.80534201 L62.4094193,6.15648156 L66.2931564,6.15648156 L66.2931564,3.68998329 L62.4094193,3.68998329 L62.4094193,2.09427354 L66.2931564,2.09427354 L66.2931564,0 L68.1578461,0 Z" id="形状结合"></path>
                            <path d="M33.780464,0.443884782 L20.4523734,0.443884782 L19.8646591,2.42098904 L34.3680085,2.42098904 L33.780464,0.443884782 Z M29.8649739,9.80822334 L31.6718251,14.3757028 L22.6709165,14.3757028 L25.7032044,7.62148813 L35.1402506,7.62148813 L34.5291024,5.75935572 L19.8646591,5.75935572 L19.2626807,7.62148813 L23.6851758,7.62148813 L19.8664953,16.3738636 L34.7716164,16.3738636 L32.0149453,9.80822334 L29.8649739,9.80822334 Z" id="形状结合"></path>
                            <path d="M44.529455,0.138531448 L45.2119236,1.80522201 L41.9457874,2.08591886 L41.9457874,4.6738028 L44.6540959,4.6738028 L45.2421498,6.26934274 L41.9457874,6.26934274 L41.9457874,16.5728744 L40.1965689,16.5728744 L40.1965689,6.26934274 L36.7944145,6.26934274 L37.4087891,4.6738028 L40.1965689,4.6738028 L40.1965689,2.23620119 L37.3736383,2.47886047 L36.9285649,0.812169907 L44.529455,0.138531448 Z M51.9753929,0.0575654154 L51.9753929,10.414617 L54.132836,10.0242225 L53.942818,11.6814037 L51.9753929,12.0546473 L51.9753929,16.5728744 L50.1057788,16.5728744 L50.1057788,12.2371936 L45.1451031,13.0825106 L44.962387,11.4557255 L50.1057788,10.5959747 L50.1057788,0.0575654154 L51.9753929,0.0575654154 Z M43.8298864,6.87782441 L44.6731656,15.9615952 L43.0501164,15.9675385 L42.2552332,6.88359797 L43.8298864,6.87782441 Z M39.5281776,6.8792678 L38.7725207,15.9660951 L37.1493016,15.9660951 L37.9531847,6.8792678 L39.5281776,6.8792678 Z M45.7019459,6.27281876 C47.5027868,6.2025172 49.5608907,7.22188994 49.5608907,7.22188994 L49.5608907,9.15331515 C48.5318387,8.02849006 45.7019459,7.85273614 45.7019459,7.85273614 Z M45.7019459,2.21792958 C47.5027868,2.14762801 49.5608907,3.16683094 49.5608907,3.16683094 L49.5608907,5.09825616 C48.5318387,3.97343106 45.7019459,3.79784695 45.7019459,3.79784695 Z" id="形状结合"></path>
                        </g>
                    </g>
                </g>
            </g>
            <rect id="矩形" fill-opacity="0.25" fill="#1D2129" x="0" y="0" width="1440" height="800"></rect>
            <g id="bg白" transform="translate(698, 0)">
                <use fill="black" fill-opacity="1" filter="url(#filter-28)" xlink:href="#path-27"></use>
                <use fill="#FFFFFF" fill-rule="evenodd" xlink:href="#path-27"></use>
            </g>
            <g id="编组-4" transform="translate(952, 312.8)">
                <g id="编组-2" transform="translate(44, 4)">
                    <path d="M38.7259074,24.6 L132.082603,24.6 C133.693837,24.6 135,25.9665048 135,27.6521739 L135,91.7478261 C135,93.4334952 133.693837,94.8 132.082603,94.8 L38.7259074,94.8 C37.1146737,94.8 35.8085106,93.4334952 35.8085106,91.7478261 L35.8085106,27.6521739 C35.8085106,25.9665048 37.1146737,24.6 38.7259074,24.6 Z" id="矩形备份-5" fill="#F1F4F8"></path>
                    <g id="矩形">
                        <use fill="black" fill-opacity="1" filter="url(#filter-30)" xlink:href="#path-29"></use>
                        <use fill="#FFFFFF" fill-rule="evenodd" xlink:href="#path-29"></use>
                    </g>
                    <g id="矩形">
                        <use fill="#00B8CC" xlink:href="#path-31"></use>
                        <use fill-opacity="0.4" fill="#FFFFFF" xlink:href="#path-31"></use>
                    </g>
                    <g id="矩形备份">
                        <use fill="#00B8CC" xlink:href="#path-32"></use>
                        <use fill-opacity="0.4" fill="#FFFFFF" xlink:href="#path-32"></use>
                    </g>
                    <g id="矩形">
                        <use fill="#00B8CC" xlink:href="#path-33"></use>
                        <use fill-opacity="0.4" fill="#FFFFFF" xlink:href="#path-33"></use>
                    </g>
                    <g id="矩形备份-3">
                        <use fill="#00B8CC" xlink:href="#path-34"></use>
                        <use fill-opacity="0.4" fill="#FFFFFF" xlink:href="#path-34"></use>
                    </g>
                    <g id="矩形备份-2">
                        <use fill="#00B8CC" xlink:href="#path-35"></use>
                        <use fill-opacity="0.8" fill="#FFFFFF" xlink:href="#path-35"></use>
                    </g>
                    <g id="矩形备份-4">
                        <use fill="#00B8CC" xlink:href="#path-36"></use>
                        <use fill-opacity="0.8" fill="#FFFFFF" xlink:href="#path-36"></use>
                    </g>
                    <g id="编组">
                        <g id="元素/纸飞机/主色备份" transform="translate(7.4222, 0)">
                            <g id="路径-14">
                                <use fill="#00B8CC" xlink:href="#path-37"></use>
                                <use fill-opacity="0.4" fill="#FFFFFF" xlink:href="#path-37"></use>
                            </g>
                            <g id="路径-5">
                                <use fill="#00B8CC" xlink:href="#path-38"></use>
                                <use fill-opacity="0.2" fill="#FFFFFF" xlink:href="#path-38"></use>
                            </g>
                            <g id="路径-12">
                                <use fill="#00B8CC" xlink:href="#path-39"></use>
                                <use fill-opacity="0.2" fill="#000000" xlink:href="#path-39"></use>
                            </g>
                            <g id="路径-13">
                                <use fill="#00B8CC" xlink:href="#path-40"></use>
                                <use fill-opacity="0.2" fill="#FFFFFF" xlink:href="#path-40"></use>
                            </g>
                        </g>
                        <path d="M33.342663,49.1722222 C31.7574839,49.3229635 29.8754732,49.353678 27.8628295,49.2554703 L27.8333333,50.0426722 C29.8737102,50.1422331 31.7844694,50.1110495 33.4,49.957422 L33.342663,49.1722222 Z M22.2666667,48.413423 C20.4179689,48.1380549 18.5994615,47.7714242 16.8588381,47.3166667 L16.7,48.0618349 C18.4632327,48.5224993 20.3039221,48.8936022 22.174452,49.1722222 L22.2666667,48.413423 Z M11.1333333,45.7988092 C9.18912082,45.1620747 7.45290575,44.4300974 5.95923664,43.6055556 L5.56666667,44.1374129 C7.10522557,44.986735 8.88609837,45.7375397 10.8749355,46.3888889 L11.1333333,45.7988092 Z M2.78333333,40.4007367 C1.58265425,38.8506502 0.897672363,37.1377718 0.763796382,35.2555556 L0,35.3032762 C0.143674643,37.3232558 0.880175489,39.1649634 2.16386901,40.8222222 L2.78333333,40.4007367 Z M3.07806745,31.5444444 C4.52878985,30.7615282 6.47542276,30.3937083 8.31698628,30.4944919 L8.35,29.7061446 C6.40208362,29.5995406 4.34416518,29.9883882 2.78333333,30.8307275 L3.07806745,31.5444444 Z M11.5300773,32.5194699 C10.9494319,33.1146545 9.11989759,32.8608255 6.88832581,31.5444444 L6.49444444,32.0217458 C8.98385019,33.4902204 11.1783263,33.7946814 12.0611111,32.8897918 L11.5300773,32.5194699 Z M2.78333333,27.5110742 C2.06440222,25.8269915 1.60071277,24.004034 1.50553073,22.2666667 L0.927777778,22.3131248 C1.02862751,24.1539452 1.5156092,26.0684743 2.2690236,27.8333333 L2.78333333,27.5110742 Z M3.34535657,16.7 C4.22714752,15.4493709 5.5730204,14.3997611 7.42222222,13.5846296 L7.13962464,12.9888889 C5.18161244,13.8519842 3.73793789,14.9778669 2.78333333,16.3317663 L3.34535657,16.7 Z" id="路径" fill="#00B8CC" fill-rule="nonzero"></path>
                    </g>
                </g>
            </g>
        </g>
    </g>
</svg>