<?xml version="1.0" encoding="UTF-8"?>
<svg width="44px" height="44px" viewBox="0 0 44 44" version="1.1" xmlns="http://www.w3.org/2000/svg" xmlns:xlink="http://www.w3.org/1999/xlink">
    <title>生成付款申请结算单(含发票)-灰</title>
    <defs>
        <polygon id="path-1" points="0 0 34.3695262 0 34.3695262 4.11172043 0 4.11172043"></polygon>
        <polygon id="path-3" points="0 0 34.3695262 0 34.3695262 30.1921464 0 30.1921464"></polygon>
    </defs>
    <g id="草稿2" stroke="none" stroke-width="1" fill="none" fill-rule="evenodd">
        <g id="Apple-TV" transform="translate(-836.000000, -73.000000)">
            <g id="生成付款申请结算单(含发票)-灰" transform="translate(836.000000, 73.000000)">
                <rect id="矩形" x="0" y="0" width="44" height="44"></rect>
                <g id="编组" transform="translate(4.812500, 4.927524)">
                    <g id="分组-copy-4">
                        <mask id="mask-2" fill="white">
                            <use xlink:href="#path-1"></use>
                        </mask>
                        <g id="Clip-2"></g>
                        <path d="M34.3695262,4.11172043 L-3.02419357e-05,4.11172043 L-3.02419357e-05,1.15958172 C-3.02419357e-05,0.519194712 0.541602823,-1.44949527e-05 1.20964718,-1.44949527e-05 L33.1598488,-1.44949527e-05 C33.8279435,-1.44949527e-05 34.3695262,0.519194712 34.3695262,1.15958172 L34.3695262,4.11172043 Z" id="Fill-1" fill="#9D9D9D" mask="url(#mask-2)"></path>
                    </g>
                    <g id="分组-copy-5" transform="translate(0.000000, 3.964893)">
                        <mask id="mask-4" fill="white">
                            <use xlink:href="#path-3"></use>
                        </mask>
                        <g id="Clip-4"></g>
                        <path d="M33.1598488,30.1921464 L1.20964718,30.1921464 C0.541602823,30.1921464 -3.02419357e-05,29.6473283 -3.02419357e-05,28.9752425 L-3.02419357e-05,0 L34.3695262,0 L34.3695262,28.9752425 C34.3695262,29.6473283 33.8279435,30.1921464 33.1598488,30.1921464" id="Fill-3" fill="#F5F5F5" mask="url(#mask-4)"></path>
                    </g>
                    <rect id="矩形" fill="#C5C5C5" fill-rule="nonzero" x="2.26648352" y="6.58149038" width="29.842033" height="2.26648352" rx="1.13324176"></rect>
                    <rect id="矩形-copy-41" fill="#C5C5C5" fill-rule="nonzero" x="2.26648352" y="10.3589629" width="29.842033" height="2.26648352" rx="1.13324176"></rect>
                    <rect id="矩形-copy-40" fill="#EDEDED" fill-rule="nonzero" x="2.26648352" y="14.1364354" width="29.842033" height="16.9986264" rx="2"></rect>
                    <path d="M6.71087638,18.145419 L7.00020174,18.145419 L7.85599571,20.3199275 L7.58494353,20.3199275 L7.35348324,19.7108215 L6.35454936,19.7108215 L6.12308907,20.3199275 L5.85508242,20.3199275 L6.71087638,18.145419 Z M6.43373314,19.5006799 L7.27429945,19.5006799 L6.86315289,18.4134257 L6.85097077,18.4134257 L6.43373314,19.5006799 Z M9.01329715,18.1027816 C9.25389403,18.1027816 9.45794455,18.1667377 9.62240318,18.29465 C9.7868618,18.4225623 9.88431877,18.5961575 9.91477407,18.8123901 L9.67417719,18.8123901 C9.64372189,18.6540225 9.56453811,18.5322013 9.4427169,18.4469265 C9.32394123,18.3646972 9.18080131,18.3251053 9.01025162,18.3251053 C8.75747262,18.3251053 8.5625587,18.4134257 8.42550984,18.5900664 C8.29759758,18.754525 8.23364144,18.9707577 8.23364144,19.2418099 C8.23364144,19.512862 8.29455204,19.7290947 8.42246431,19.8874622 C8.55646764,20.0549664 8.74833603,20.1402412 9.00416056,20.1402412 C9.17775578,20.1402412 9.32394123,20.0945583 9.44576243,20.0031924 C9.5736747,19.9057354 9.66199507,19.7625955 9.70463249,19.5737726 L9.94522937,19.5737726 C9.89650089,19.8265516 9.78381627,20.0245111 9.60413,20.1646055 C9.43662584,20.2955633 9.23562085,20.3625649 9.00416056,20.3625649 C8.66610672,20.3625649 8.40723666,20.2498803 8.22755038,20.0275566 C8.06309176,19.8265516 7.98390797,19.5646361 7.98390797,19.2418099 C7.98390797,18.9189837 8.06613729,18.6540225 8.23364144,18.4469265 C8.41637325,18.2154662 8.67828884,18.1027816 9.01329715,18.1027816 Z M10.1249156,18.145419 L11.9065508,18.145419 L11.9065508,18.3616517 L11.1390772,18.3616517 L11.1390772,20.3199275 L10.8923892,20.3199275 L10.8923892,18.3616517 L10.1249156,18.3616517 L10.1249156,18.145419 Z M12.1958761,18.145419 L12.4425641,18.145419 L12.4425641,20.3199275 L12.1958761,20.3199275 L12.1958761,18.145419 Z M12.6953431,18.145419 L12.9694408,18.145419 L13.648594,20.0488753 L13.6577306,20.0488753 L14.3368838,18.145419 L14.6109815,18.145419 L13.8069616,20.3199275 L13.499363,20.3199275 L12.6953431,18.145419 Z M14.8454873,18.145419 L16.3865256,18.145419 L16.3865256,18.3616517 L15.0952208,18.3616517 L15.0952208,19.0895334 L16.3134329,19.0895334 L16.3134329,19.305766 L15.0952208,19.305766 L15.0952208,20.1036949 L16.4382996,20.1036949 L16.4382996,20.3199275 L14.8454873,20.3199275 L14.8454873,18.145419 Z M18.8138131,18.145419 L19.0635466,18.145419 L19.0635466,19.4884978 C19.0635466,19.7016849 19.1092295,19.863098 19.2066865,19.9727371 C19.307189,20.0854217 19.4655565,20.1432868 19.6817892,20.1432868 C19.8949763,20.1432868 20.0533438,20.0854217 20.1568919,19.9727371 C20.2513033,19.863098 20.3000318,19.7016849 20.3000318,19.4884978 L20.3000318,18.145419 L20.5497653,18.145419 L20.5497653,19.4854523 C20.5497653,19.7686866 20.4766725,19.9849192 20.3335326,20.1341502 C20.1843016,20.2864267 19.968069,20.3625649 19.6817892,20.3625649 C19.3955093,20.3625649 19.1792767,20.2864267 19.0330913,20.1371957 C18.8869058,19.9849192 18.8138131,19.7686866 18.8138131,19.4854523 L18.8138131,18.145419 Z M21.7192488,18.1027816 C21.9628912,18.1027816 22.1578052,18.1576011 22.2978995,18.2702858 C22.444085,18.3860159 22.5263143,18.5596111 22.547633,18.7880259 L22.3009451,18.7880259 C22.2735353,18.6296583 22.2126247,18.5139282 22.1182133,18.4377899 C22.0207563,18.3586061 21.8837074,18.3220598 21.7070667,18.3220598 C21.5456536,18.3220598 21.4207869,18.346424 21.329421,18.4012435 C21.2258729,18.4621541 21.1740989,18.5535201 21.1740989,18.6783868 C21.1740989,18.7880259 21.2350095,18.8763462 21.3598763,18.9433479 C21.4146958,18.9738032 21.5486991,19.0194862 21.7588407,19.0803968 C22.0451205,19.1656716 22.2339434,19.2357188 22.3253093,19.2905383 C22.5049956,19.4001774 22.5963615,19.5524539 22.5963615,19.7504134 C22.5963615,19.9392363 22.5202232,20.0915128 22.3679467,20.2011518 C22.2156702,20.3077454 22.0116197,20.3625649 21.7527497,20.3625649 C21.4969251,20.3625649 21.2959201,20.3077454 21.1497347,20.1981063 C20.979185,20.0671485 20.8847736,19.8691891 20.8665004,19.6011824 L21.1131883,19.6011824 C21.134507,19.7900053 21.2015087,19.9300997 21.3111478,20.01842 C21.4116503,20.0976038 21.5578357,20.1402412 21.7527497,20.1402412 C21.9293904,20.1402412 22.0755758,20.1067404 22.1852149,20.0397388 C22.294854,19.9727371 22.3496736,19.8813712 22.3496736,19.765641 C22.3496736,19.6285922 22.2765808,19.5219986 22.1334409,19.4458604 C22.0725303,19.409314 21.9172083,19.35754 21.6735659,19.2874928 C21.4116503,19.208309 21.2441461,19.1473984 21.1740989,19.1108521 C21.0065948,19.0133951 20.9243655,18.8733007 20.9243655,18.6905689 C20.9243655,18.501746 21.0035492,18.3525151 21.1649623,18.248967 C21.3081023,18.1515101 21.4938796,18.1027816 21.7192488,18.1027816 Z M22.9130966,18.145419 L24.4541349,18.145419 L24.4541349,18.3616517 L23.1628301,18.3616517 L23.1628301,19.0895334 L24.3810421,19.0895334 L24.3810421,19.305766 L23.1628301,19.305766 L23.1628301,20.1036949 L24.5059089,20.1036949 L24.5059089,20.3199275 L22.9130966,20.3199275 L22.9130966,18.145419 Z M24.8530993,18.145419 L25.7911226,18.145419 C26.0073552,18.145419 26.1779049,18.1941475 26.3027717,18.29465 C26.4306839,18.398198 26.4976856,18.5504745 26.4976856,18.7514795 C26.4976856,18.8733007 26.4641848,18.9798943 26.3971831,19.0743057 C26.3240904,19.1717627 26.2266334,19.2326733 26.1017667,19.2631286 L26.1017667,19.2692196 C26.3088627,19.3149026 26.4245929,19.4458604 26.4489571,19.6651385 L26.4824579,20.0001469 C26.4946401,20.1341502 26.5342319,20.2407437 26.5981881,20.3199275 L26.3271359,20.3199275 C26.2784074,20.2468348 26.2479521,20.1524234 26.2388155,20.0306022 L26.2114058,19.7412768 C26.1992236,19.6133645 26.1535407,19.5189531 26.0743569,19.4641336 C26.0012642,19.409314 25.8977161,19.3849498 25.7606673,19.3849498 L25.1028328,19.3849498 L25.1028328,20.3199275 L24.8530993,20.3199275 L24.8530993,18.145419 Z M25.1028328,18.3616517 L25.1028328,19.1687171 L25.7606673,19.1687171 C25.9190349,19.1687171 26.0439016,19.1291252 26.1291764,19.0560325 C26.2053147,18.9859853 26.2449066,18.8885284 26.2449066,18.7606161 C26.2449066,18.6266128 26.2053147,18.5261103 26.132222,18.4621541 C26.0530382,18.3951525 25.9281714,18.3616517 25.7606673,18.3616517 L25.1028328,18.3616517 Z M27.6428049,18.1027816 C27.8864473,18.1027816 28.0813612,18.1576011 28.2214556,18.2702858 C28.3676411,18.3860159 28.4498704,18.5596111 28.4711891,18.7880259 L28.2245012,18.7880259 C28.1970914,18.6296583 28.1361808,18.5139282 28.0417694,18.4377899 C27.9443124,18.3586061 27.8072635,18.3220598 27.6306228,18.3220598 C27.4692097,18.3220598 27.344343,18.346424 27.2529771,18.4012435 C27.149429,18.4621541 27.097655,18.5535201 27.097655,18.6783868 C27.097655,18.7880259 27.1585656,18.8763462 27.2834324,18.9433479 C27.3382519,18.9738032 27.4722552,19.0194862 27.6823968,19.0803968 C27.9686766,19.1656716 28.1574995,19.2357188 28.2488654,19.2905383 C28.4285517,19.4001774 28.5199176,19.5524539 28.5199176,19.7504134 C28.5199176,19.9392363 28.4437793,20.0915128 28.2915028,20.2011518 C28.1392263,20.3077454 27.9351758,20.3625649 27.6763057,20.3625649 C27.4204812,20.3625649 27.2194762,20.3077454 27.0732908,20.1981063 C26.9027411,20.0671485 26.8083297,19.8691891 26.7900565,19.6011824 L27.0367444,19.6011824 C27.0580631,19.7900053 27.1250648,19.9300997 27.2347039,20.01842 C27.3352064,20.0976038 27.4813918,20.1402412 27.6763057,20.1402412 C27.8529465,20.1402412 27.9991319,20.1067404 28.108771,20.0397388 C28.2184101,19.9727371 28.2732296,19.8813712 28.2732296,19.765641 C28.2732296,19.6285922 28.2001369,19.5219986 28.056997,19.4458604 C27.9960864,19.409314 27.8407644,19.35754 27.597122,19.2874928 C27.3352064,19.208309 27.1677022,19.1473984 27.097655,19.1108521 C26.9301509,19.0133951 26.8479215,18.8733007 26.8479215,18.6905689 C26.8479215,18.501746 26.9271053,18.3525151 27.0885184,18.248967 C27.2316583,18.1515101 27.4174357,18.1027816 27.6428049,18.1027816 Z" id="ACTIVE-USERS" fill="#C5C5C5"></path>
                    <path d="M7.12644322,22.917811 L7.67226303,22.917811 L7.67226303,27.6704372 L6.94672206,27.6704372 L6.94672206,23.7897914 C6.66049947,24.0627014 6.29440081,24.2623915 5.85508242,24.388862 L5.85508242,23.6699773 C6.06808527,23.6167266 6.28774447,23.5235379 6.52737268,23.3904111 C6.7670009,23.2439716 6.96669107,23.0908758 7.12644322,22.917811 Z M9.84222963,22.917811 L10.3880495,22.917811 L10.3880495,27.6704372 L9.66250847,27.6704372 L9.66250847,23.7897914 C9.37628588,24.0627014 9.01018722,24.2623915 8.57086883,24.388862 L8.57086883,23.6699773 C8.78387169,23.6167266 9.00353089,23.5235379 9.2431591,23.3904111 C9.48278731,23.2439716 9.68247749,23.0908758 9.84222963,22.917811 Z M13.0838668,22.8246223 C13.5364979,22.8246223 13.9159093,22.9510927 14.2087882,23.2173463 C14.4950108,23.4835998 14.6414502,23.8230731 14.6414502,24.2424225 C14.6414502,24.6551155 14.4816981,25.0278705 14.1755065,25.3673438 C13.989129,25.5603777 13.6629684,25.8133186 13.1903683,26.1328229 C12.6778302,26.4722962 12.3716385,26.7718314 12.2717935,27.0314287 L14.6481066,27.0314287 L14.6481066,27.6704372 L11.3731877,27.6704372 C11.3731877,27.1978371 11.5262835,26.7851441 11.8457877,26.4257018 C12.0188526,26.2193553 12.3782949,25.9331327 12.9174584,25.5603777 C13.2369627,25.3340622 13.4632782,25.154341 13.596405,25.0145579 C13.8094078,24.7749297 13.9225656,24.5153324 13.9225656,24.2357662 C13.9225656,23.9695126 13.8493459,23.7698224 13.7029064,23.6366956 C13.5564669,23.5035689 13.3368077,23.4370055 13.0572415,23.4370055 C12.7577062,23.4370055 12.5313907,23.5368506 12.3782949,23.7431971 C12.2185427,23.9428872 12.1386667,24.2291098 12.125354,24.6151775 L11.399813,24.6151775 C11.4064694,24.0826704 11.5595652,23.6566647 11.8591004,23.3371604 C12.165292,22.9910307 12.5779851,22.8246223 13.0838668,22.8246223 Z M15.9194674,26.7185807 C16.0925322,26.7185807 16.2323153,26.7851441 16.3521294,26.9249272 C16.4586309,27.0713667 16.5118816,27.2510879 16.5118816,27.4774034 C16.5118816,27.8168767 16.4120365,28.1097556 16.2190026,28.3626965 C16.0193125,28.6156374 15.7530589,28.7887022 15.4202419,28.881891 L15.4202419,28.4691979 C15.5933067,28.4026345 15.7464026,28.3027895 15.8662167,28.15635 C15.9793744,28.0032542 16.0392815,27.8501584 16.0392815,27.6904062 C15.9993434,27.7037189 15.9460927,27.7103753 15.872873,27.7103753 C15.7397462,27.7103753 15.6199321,27.6637809 15.5267434,27.5705921 C15.4335546,27.4774034 15.3869602,27.3575893 15.3869602,27.2178062 C15.3869602,27.0647104 15.4335546,26.9448963 15.540056,26.8517075 C15.6332448,26.7585188 15.7597152,26.7185807 15.9194674,26.7185807 Z M18.8149749,22.8246223 C19.3208567,22.8246223 19.7202371,22.957749 20.0197724,23.2240026 C20.2860259,23.4636308 20.4191527,23.7631661 20.4191527,24.1159521 C20.4191527,24.3622366 20.365902,24.5685831 20.2594006,24.7349916 C20.1395865,24.9147128 19.9598653,25.0478396 19.7202371,25.1410283 L19.7202371,25.1609973 C19.9465526,25.214248 20.1462428,25.3473748 20.3059949,25.5603777 C20.4923724,25.7866932 20.5855612,26.0462905 20.5855612,26.3458257 C20.5855612,26.7651751 20.4324654,27.1046484 20.1262738,27.370902 C19.8134258,27.6304992 19.3741074,27.763626 18.8149749,27.763626 C18.2491861,27.763626 17.8098677,27.6304992 17.5036761,27.370902 C17.1974845,27.1046484 17.0443887,26.7651751 17.0443887,26.3458257 C17.0443887,26.0462905 17.1375775,25.7866932 17.323955,25.5603777 C17.4837071,25.3473748 17.6767409,25.214248 17.9097128,25.1609973 L17.9097128,25.1410283 C17.6700846,25.0478396 17.4903634,24.9147128 17.3705493,24.7349916 C17.2640479,24.5685831 17.2107972,24.3622366 17.2107972,24.1159521 C17.2107972,23.7631661 17.343924,23.4636308 17.6101775,23.2240026 C17.9030565,22.957749 18.3090932,22.8246223 18.8149749,22.8246223 Z M18.8149749,23.4037238 C18.522096,23.4037238 18.2891241,23.4769435 18.1160593,23.6366956 C17.9629635,23.7698224 17.8897438,23.9428872 17.8897438,24.1425774 C17.8897438,24.368893 17.9496508,24.5486141 18.0761213,24.6817409 C18.2292171,24.841493 18.4755016,24.9213691 18.8149749,24.9213691 C19.1477919,24.9213691 19.3940765,24.841493 19.5538286,24.6817409 C19.6736427,24.5486141 19.7402061,24.368893 19.7402061,24.1425774 C19.7402061,23.9428872 19.66033,23.7698224 19.5138906,23.6366956 C19.3408257,23.4769435 19.1078539,23.4037238 18.8149749,23.4037238 Z M18.8149749,25.4605326 C18.4688453,25.4605326 18.2025917,25.5404087 18.0295269,25.7134735 C17.8498058,25.8732256 17.7632733,26.0795721 17.7632733,26.3458257 C17.7632733,26.5921103 17.8498058,26.7918004 18.0361833,26.9448963 C18.2159044,27.0979921 18.4755016,27.1778681 18.8149749,27.1778681 C19.1477919,27.1778681 19.4140455,27.0979921 19.6070793,26.9448963 C19.7801441,26.7918004 19.8666766,26.5921103 19.8666766,26.3458257 C19.8666766,26.0795721 19.7801441,25.8732256 19.6070793,25.7201298 C19.4207018,25.547065 19.1611046,25.4605326 18.8149749,25.4605326 Z M22.7555278,22.8246223 C23.3346293,22.8246223 23.7739477,23.0309688 24.0801393,23.4569745 C24.3730182,23.8630112 24.526114,24.4288 24.526114,25.1609973 C24.526114,25.9331327 24.3663619,26.5588286 24.0535139,27.038085 C23.7273533,27.5173414 23.2946913,27.763626 22.7488714,27.763626 C21.8236403,27.763626 21.3044458,27.3309639 21.1846317,26.4722962 L21.8902037,26.4722962 C21.9833924,26.9315836 22.2762714,27.1645554 22.7555278,27.1645554 C23.0816884,27.1645554 23.3412856,26.998147 23.5409758,26.6786427 C23.7273533,26.3724511 23.8271984,25.9863834 23.8271984,25.527096 C23.8271984,25.5004706 23.8205421,25.4738453 23.8205421,25.4405636 L23.7939167,25.4405636 C23.6607899,25.6469101 23.4877251,25.8000059 23.2880349,25.9065073 C23.0950011,25.9996961 22.8753419,26.0529468 22.6290573,26.0529468 C22.1631136,26.0529468 21.7837023,25.899851 21.504136,25.6003157 C21.2312261,25.3074368 21.0980993,24.9280255 21.0980993,24.4620817 C21.0980993,23.9828253 21.2511951,23.5967576 21.5706994,23.290566 C21.8902037,22.9777181 22.2829277,22.8246223 22.7555278,22.8246223 Z M22.7821531,23.4236928 C22.4892742,23.4236928 22.249646,23.5168815 22.0765812,23.7165717 C21.89686,23.9096056 21.8103276,24.1558901 21.8103276,24.4620817 C21.8103276,24.7682733 21.89686,25.0079015 22.0765812,25.1876227 C22.2429897,25.3740002 22.4759615,25.4671889 22.7754968,25.4671889 C23.0683757,25.4671889 23.3080039,25.3740002 23.4810688,25.1876227 C23.6541336,25.0012452 23.740666,24.7483043 23.740666,24.4421127 C23.740666,24.1292647 23.6474772,23.8829802 23.4744124,23.703259 C23.2946913,23.5168815 23.0617194,23.4236928 22.7821531,23.4236928 Z M26.8491764,22.8246223 C27.3284329,22.8246223 27.7078442,22.93778 28.0007231,23.1707519 C28.2802894,23.4037238 28.4267288,23.7232281 28.4267288,24.1292647 C28.4267288,24.6484592 28.1604753,25.0012452 27.6412808,25.17431 C27.920847,25.2608424 28.1338499,25.3939692 28.2802894,25.567034 C28.4400415,25.7467552 28.5199176,25.9797271 28.5199176,26.2592933 C28.5199176,26.6986117 28.3668218,27.058054 28.0672865,27.3376203 C27.7477822,27.6171865 27.3284329,27.763626 26.8225511,27.763626 C26.3366383,27.763626 25.9439143,27.6371555 25.6510354,27.390871 C25.3182184,27.1113047 25.1318409,26.705268 25.0919029,26.1727609 L25.8241002,26.1727609 C25.8374129,26.4922652 25.937258,26.7385497 26.1369481,26.9116146 C26.3100129,27.0713667 26.5363285,27.1512428 26.8158947,27.1512428 C27.1220863,27.1512428 27.3683709,27.058054 27.5547484,26.8849892 C27.7145005,26.7252371 27.8010329,26.5322032 27.8010329,26.292575 C27.8010329,26.0130088 27.7145005,25.8066622 27.5414357,25.6735355 C27.3816836,25.5404087 27.1420554,25.4738453 26.8292074,25.4738453 L26.4830778,25.4738453 L26.4830778,24.9280255 L26.8225511,24.9280255 C27.11543,24.9280255 27.3350892,24.8614621 27.4815287,24.7349916 C27.6279681,24.6085212 27.7078442,24.4221437 27.7078442,24.1825155 C27.7078442,23.9428872 27.6346245,23.7631661 27.5014977,23.6366956 C27.3550582,23.5035689 27.135399,23.4436618 26.8558328,23.4436618 C26.5696102,23.4436618 26.3432946,23.5168815 26.1835425,23.663321 C26.0237904,23.8097605 25.9239453,24.0294197 25.8973199,24.3222986 L25.1850916,24.3222986 C25.2250297,23.8496985 25.3980945,23.4835998 25.7109424,23.2173463 C26.0038213,22.9510927 26.3832327,22.8246223 26.8491764,22.8246223 Z" id="112,893" fill="#C5C5C5"></path>
                </g>
            </g>
        </g>
    </g>
</svg>