<?xml version="1.0" encoding="UTF-8"?>
<svg width="44px" height="44px" viewBox="0 0 44 44" version="1.1" xmlns="http://www.w3.org/2000/svg" xmlns:xlink="http://www.w3.org/1999/xlink">
    <title>付款信息填写-灰</title>
    <defs>
        <polygon id="path-1" points="0 0 36.0937358 0 36.0937358 26.2680593 0 26.2680593"></polygon>
        <polygon id="path-3" points="0.04296875 0 36.1367188 0 36.1367188 5.80078125 0.04296875 5.80078125"></polygon>
    </defs>
    <g id="草稿2" stroke="none" stroke-width="1" fill="none" fill-rule="evenodd">
        <g id="Apple-TV" transform="translate(-660.000000, -73.000000)">
            <g id="付款信息填写-灰" transform="translate(660.000000, 73.000000)">
                <rect id="矩形" x="0" y="0" width="44" height="44"></rect>
                <g id="分组" transform="translate(3.953125, 7.261719)">
                    <g transform="translate(0.000000, 3.235630)">
                        <mask id="mask-2" fill="white">
                            <use xlink:href="#path-1"></use>
                        </mask>
                        <g id="Clip-2"></g>
                        <path d="M1.13978838,26.2680593 C0.510332381,26.2680593 -1.42475328e-05,25.7574089 -1.42475328e-05,25.127472 L-1.42475328e-05,0 L36.0937358,0 L36.0937358,25.127472 C36.0937358,25.7574089 35.5834366,26.2680593 34.9539331,26.2680593 L1.13978838,26.2680593 Z" id="Fill-1" fill="#F5F5F5" mask="url(#mask-2)"></path>
                    </g>
                    <path d="M10.7085293,25.5853375 L9.19627172,23.6275484 C9.05077298,23.4391933 8.76845139,23.4361476 8.61897029,23.6212667 L6.98956462,25.639398 C6.75569519,25.9290689 6.28937862,25.7429029 6.31763449,25.3711419 L6.8084616,18.9096288 C6.80860382,18.9077252 6.81016833,18.90625 6.81206469,18.90625 L10.8946577,18.90625 C10.8965541,18.90625 10.898166,18.9077252 10.8983082,18.9096288 L11.3854848,25.3234582 C11.4140726,25.6994546 10.9387008,25.8833364 10.7085293,25.5853375" id="Fill-3" fill="#9D9D9D"></path>
                    <path d="M14.1796875,14.3085938 C14.1796875,17.2512297 11.7942091,19.6367188 8.85153871,19.6367188 C5.90891588,19.6367188 3.5234375,17.2512297 3.5234375,14.3085938 C3.5234375,11.3659578 5.90891588,8.98046875 8.85153871,8.98046875 C11.7942091,8.98046875 14.1796875,11.3659578 14.1796875,14.3085938" id="Fill-5" fill="#EDEDED" fill-rule="nonzero"></path>
                    <path d="M12.6328125,14.3085938 C12.6328125,16.3969142 10.939883,18.0898438 8.8515625,18.0898438 C6.76324202,18.0898438 5.0703125,16.3969142 5.0703125,14.3085938 C5.0703125,12.2202733 6.76324202,10.5273438 8.8515625,10.5273438 C10.939883,10.5273438 12.6328125,12.2202733 12.6328125,14.3085938" id="Fill-7" fill="#C5C5C5" fill-rule="nonzero"></path>
                    <path d="M9.16717267,12.9870648 L9.397721,13.4530614 C9.44552859,13.5496197 9.53782381,13.6165624 9.64467948,13.6320325 L10.1602237,13.7067812 C10.4292363,13.745764 10.5366611,14.0755098 10.3420158,14.2647943 L9.96894587,14.6275147 C9.89163795,14.7026892 9.85639882,14.8109802 9.87465867,14.9171422 L9.96268535,15.4293127 C10.0086432,15.6965629 9.72744163,15.9003714 9.4867911,15.7741975 L9.02569444,15.5323997 C8.93012668,15.4822518 8.81596707,15.4822518 8.72044674,15.5323997 L8.25930265,15.7741975 C8.01869955,15.9003714 7.7374505,15.6965629 7.7834084,15.4293127 L7.87148251,14.9171422 C7.88969493,14.8109802 7.8544558,14.7026892 7.77714788,14.6275147 L7.4040779,14.2647943 C7.20943269,14.0755098 7.3168575,13.745764 7.58587007,13.7067812 L8.10141427,13.6320325 C8.20822251,13.6165624 8.30061259,13.5496197 8.34837275,13.4530614 L8.57892108,12.9870648 C8.69924635,12.7438951 9.0468474,12.7438951 9.16717267,12.9870648" id="Fill-9" fill="#9D9D9D"></path>
                    <path d="M17.6107422,17.9179688 C17.4007362,17.9179688 17.2304688,17.7476829 17.2304688,17.5376542 L17.2304688,16.794377 C17.2304688,16.5843483 17.4007362,16.4140625 17.6107422,16.4140625 L32.0611328,16.4140625 C32.2711388,16.4140625 32.4414062,16.5843483 32.4414062,16.794377 L32.4414062,17.5376542 C32.4414062,17.7476829 32.2711388,17.9179688 32.0611328,17.9179688 L17.6107422,17.9179688 Z" id="Fill-11" fill="#C5C5C5" fill-rule="nonzero"></path>
                    <path d="M32.0611328,13.3203125 L17.6107422,13.3203125 C17.4007362,13.3203125 17.2304688,13.1500267 17.2304688,12.939998 L17.2304688,12.1967208 C17.2304688,11.9866921 17.4007362,11.8164062 17.6107422,11.8164062 L32.0611328,11.8164062 C32.2711388,11.8164062 32.4414062,11.9866921 32.4414062,12.1967208 L32.4414062,12.939998 C32.4414062,13.1500267 32.2711388,13.3203125 32.0611328,13.3203125" id="Fill-13" fill="#C5C5C5" fill-rule="nonzero"></path>
                    <path d="M32.0611328,22.4726562 L17.6107422,22.4726562 C17.4007362,22.4726562 17.2304688,22.3023704 17.2304688,22.0923417 L17.2304688,21.3490645 C17.2304688,21.1390358 17.4007362,20.96875 17.6107422,20.96875 L32.0611328,20.96875 C32.2711388,20.96875 32.4414062,21.1390358 32.4414062,21.3490645 L32.4414062,22.0923417 C32.4414062,22.3023704 32.2711388,22.4726562 32.0611328,22.4726562" id="Fill-15" fill="#C5C5C5" fill-rule="nonzero"></path>
                    <mask id="mask-4" fill="white">
                        <use xlink:href="#path-3"></use>
                    </mask>
                    <g id="Clip-18"></g>
                    <path d="M36.1367188,5.80078125 L0.04296875,5.80078125 L0.04296875,1.14324574 C0.04296875,0.511840645 0.553267887,0 1.18277138,0 L34.9969161,0 C35.6263721,0 36.1367188,0.511840645 36.1367188,1.14324574 L36.1367188,5.80078125 Z" id="Fill-17" fill="#9D9D9D" mask="url(#mask-4)"></path>
                </g>
            </g>
        </g>
    </g>
</svg>