<?xml version="1.0" encoding="UTF-8"?>
<svg width="12px" height="12px" viewBox="0 0 12 12" version="1.1" xmlns="http://www.w3.org/2000/svg" xmlns:xlink="http://www.w3.org/1999/xlink">
    <title>取消钉住</title>
    <g id="草稿2" stroke="none" stroke-width="1" fill="none" fill-rule="evenodd">
        <g id="取消钉住" fill="#000">
            <path d="M0,0 L12,0 L12,12 L2,12 C0.8954305,12 1.3527075e-16,11.1045695 0,10 L0,0 L0,0 Z" id="矩形" fill-opacity="0"></path>
            <g id="钉住" transform="translate(1.000000, 1.360661)" fill-rule="nonzero">
                <path d="M3,5.88933909 L3.8,6.68933909 C3,7.38933909 1.8,8.48933909 1.5,8.68933909 C1.2,8.98933909 0.8,9.18933909 0.3,9.28933909 C0.5,8.88933909 0.7,8.48933909 1,8.18933909 C1.2,7.88933909 2.3,6.68933909 3,5.88933909 Z M6.623,5.639 L6.1,6.38933909 L6.8,7.08933909 C7,7.38933909 7,7.78933909 6.7,7.98933909 C6.5,8.18933909 6.2,8.18933909 5.9,7.98933909 L3.605,5.639 L6.623,5.639 Z M9.5,4.13933909 C9.77614237,4.13933909 10,4.36319672 10,4.63933909 C10,4.88479898 9.82312484,5.08894746 9.58987563,5.13128342 L9.5,5.13933909 L0.5,5.13933909 C0.223857625,5.13933909 0,4.91548147 0,4.63933909 C0,4.3938792 0.176875161,4.18973072 0.410124368,4.14739476 L0.5,4.13933909 L9.5,4.13933909 Z M7.2,0.189339093 L9.5,2.38933909 C9.8,2.58933909 9.8,2.98933909 9.6,3.28933909 C9.3,3.58933909 8.9,3.58933909 8.7,3.38933909 L8.4,3.08933909 L8.017,3.639 L1.67,3.639 L1.64074074,3.58933909 C1.50246914,3.32267243 1.52222222,3.05600576 1.7,2.78933909 C1.9,2.58933909 2.3,2.58933909 2.5,2.78933909 L3.2,3.48933909 L6.5,1.18933909 L6.4,1.08933909 C6.1,0.789339093 6.1,0.489339093 6.3,0.189339093 C6.5,-0.0106609072 6.9,-0.110660907 7.2,0.189339093 Z" id="形状结合"></path>
            </g>
        </g>
    </g>
</svg>