<?xml version="1.0" encoding="UTF-8"?>
<svg width="14px" height="14px" viewBox="0 0 14 14" version="1.1" xmlns="http://www.w3.org/2000/svg" xmlns:xlink="http://www.w3.org/1999/xlink">
    <title>过程中</title>
    <g id="回收♻️" stroke="none" stroke-width="1" fill="none" fill-rule="evenodd">
        <g id="过程中">
            <rect id="矩形备份-4" x="0" y="0" width="14" height="14"></rect>
            <path d="M12,5.8 C12.6627417,5.8 13.2,6.3372583 13.2,7 C13.2,10.4241654 10.4241654,13.2 7,13.2 C6.3372583,13.2 5.8,12.6627417 5.8,12 C5.8,11.3372583 6.3372583,10.8 7,10.8 C9.09868205,10.8 10.8,9.09868205 10.8,7 C10.8,6.3372583 11.3372583,5.8 12,5.8 Z" id="路径" fill-opacity="0.253691987" fill="#000000" fill-rule="nonzero"></path>
            <path d="M7,0.8 C7.6627417,0.8 8.2,1.3372583 8.2,2 C8.2,2.6627417 7.6627417,3.2 7,3.2 C4.90131795,3.2 3.2,4.90131795 3.2,7 C3.2,9.09868205 4.90131795,10.8 7,10.8 C7.6627417,10.8 8.2,11.3372583 8.2,12 C8.2,12.6627417 7.6627417,13.2 7,13.2 C3.57583455,13.2 0.8,10.4241654 0.8,7 C0.8,3.57583455 3.57583455,0.8 7,0.8 Z" id="路径" fill="#47B881" fill-rule="nonzero"></path>
            <path d="M7,0.8 C10.4241654,0.8 13.2,3.57583455 13.2,7 C13.2,7.6627417 12.6627417,8.2 12,8.2 C11.3372583,8.2 10.8,7.6627417 10.8,7 C10.8,4.90131795 9.09868205,3.2 7,3.2 C6.3372583,3.2 5.8,2.6627417 5.8,2 C5.8,1.3372583 6.3372583,0.8 7,0.8 Z" id="路径" fill="#FCA000" fill-rule="nonzero"></path>
        </g>
    </g>
</svg>