<?xml version="1.0" encoding="UTF-8"?>
<svg width="44px" height="44px" viewBox="0 0 44 44" version="1.1" xmlns="http://www.w3.org/2000/svg" xmlns:xlink="http://www.w3.org/1999/xlink">
    <title>引用发票申请创建-绿</title>
    <defs>
        <polygon id="path-1" points="0 0 28.2337256 0 28.2337256 32.9136156 0 32.9136156"></polygon>
    </defs>
    <g id="草稿2" stroke="none" stroke-width="1" fill="none" fill-rule="evenodd">
        <g id="Apple-TV" transform="translate(-924.000000, -137.000000)">
            <g id="引用发票申请创建-绿" transform="translate(924.000000, 137.000000)">
                <rect id="矩形" x="0" y="0" width="44" height="44"></rect>
                <g id="编组" transform="translate(6.789062, 4.082071)">
                    <path d="M29.014473,33.3353162 L3.9523386,33.3353162 C3.17382457,33.3353162 2.54270532,32.704241 2.54270532,31.9256829 L2.54270532,1.40963328 C2.54270532,0.631075199 3.17382457,0 3.9523386,0 L29.014473,0 C29.792987,0 30.4241063,0.631075199 30.4241063,1.40963328 L30.4241063,31.9256829 C30.4241063,32.704241 29.792987,33.3353162 29.014473,33.3353162" id="Fill-1" fill="#47B881"></path>
                    <g transform="translate(0.000000, 2.865155)">
                        <mask id="mask-2" fill="white">
                            <use xlink:href="#path-1"></use>
                        </mask>
                        <g id="Clip-4"></g>
                        <path d="M26.8240923,32.9136156 L1.40959363,32.9136156 C0.631123655,32.9136156 -3.96459354e-05,32.2825404 -3.96459354e-05,31.5039823 L-3.96459354e-05,1.40963328 C-3.96459354e-05,0.63111925 0.631123655,0 1.40959363,0 L26.8240923,0 C27.6026504,0 28.2337256,0.63111925 28.2337256,1.40963328 L28.2337256,31.5039823 C28.2337256,32.2825404 27.6026504,32.9136156 26.8240923,32.9136156" id="Fill-3" fill="#ECF7F2" mask="url(#mask-2)"></path>
                    </g>
                    <path d="M7.16441269,24.3244689 C7.0208944,24.3244689 6.9044675,24.208086 6.9044675,24.0645237 L6.9044675,23.5545008 C6.9044675,23.4109825 7.0208944,23.2945556 7.16441269,23.2945556 L20.3399025,23.2945556 C20.4834649,23.2945556 20.5998037,23.4109825 20.5998037,23.5545008 L20.5998037,24.0645237 C20.5998037,24.208086 20.4834649,24.3244689 20.3399025,24.3244689 L7.16441269,24.3244689 Z" id="Fill-5" fill="#47B881" opacity="0.401313418"></path>
                    <path d="M4.78791194,24.68104 C4.30656623,24.68104 3.91640617,24.2908359 3.91640617,23.8095343 C3.91640617,23.3281885 4.30656623,22.9379844 4.78791194,22.9379844 C5.26925766,22.9379844 5.65946177,23.3281885 5.65946177,23.8095343 C5.65946177,24.2908359 5.26925766,24.68104 4.78791194,24.68104 Z" id="Fill-7" fill="#47B881" opacity="0.401313418"></path>
                    <path d="M7.13562533,27.7031088 C7.00796542,27.7031088 6.90444548,27.5995888 6.90444548,27.4719289 L6.90444548,26.96195 C6.90444548,26.8024853 7.03373528,26.6732395 7.19315599,26.6732395 L24.6357379,26.6732395 C24.7633979,26.6732395 24.8669178,26.7767595 24.8669178,26.9043753 L24.8669178,27.4719289 C24.8669178,27.5995888 24.7633979,27.7031088 24.6357379,27.7031088 L7.13562533,27.7031088 Z" id="Fill-9" fill="#47B881" opacity="0.401313418"></path>
                    <path d="M4.78791194,28.0596799 C4.30656623,28.0596799 3.91640617,27.6695199 3.91640617,27.1881741 C3.91640617,26.7068284 4.30656623,26.3166684 4.78791194,26.3166684 C5.26925766,26.3166684 5.65946177,26.7068284 5.65946177,27.1881741 C5.65946177,27.6695199 5.26925766,28.0596799 4.78791194,28.0596799 Z" id="Fill-11" fill="#47B881" opacity="0.401313418"></path>
                    <path d="M7.12156424,31.0817442 C7.00170136,31.0817442 6.90448072,30.9845236 6.90448072,30.8646167 L6.90448072,30.3545937 C6.90448072,30.18742 7.04002577,30.051875 7.20724352,30.051875 L16.4297252,30.051875 C16.5496321,30.051875 16.6468528,30.1490516 16.6468528,30.2690026 L16.6468528,30.8646167 C16.6468528,30.9845236 16.5496321,31.0817442 16.4297252,31.0817442 L7.12156424,31.0817442 Z" id="Fill-13" fill="#47B881" opacity="0.401313418"></path>
                    <path d="M4.78791194,31.4383154 C4.30656623,31.4383154 3.91640617,31.0481553 3.91640617,30.5668096 C3.91640617,30.0854639 4.30656623,29.6953038 4.78791194,29.6953038 C5.26925766,29.6953038 5.65946177,30.0854639 5.65946177,30.5668096 C5.65946177,31.0481553 5.26925766,31.4383154 4.78791194,31.4383154 Z" id="Fill-15" fill="#47B881" opacity="0.401313418"></path>
                    <path d="M25.1960099,19.9266333 L3.03772007,19.9266333 C2.84310258,19.9266333 2.68531175,19.7688865 2.68531175,19.574225 L2.68531175,6.9542628 C2.68531175,6.7596453 2.84310258,6.60185448 3.03772007,6.60185448 L25.1960099,6.60185448 C25.3906274,6.60185448 25.5484182,6.7596453 25.5484182,6.9542628 L25.5484182,19.574225 C25.5484182,19.7688865 25.3906274,19.9266333 25.1960099,19.9266333" id="Fill-17" fill="#47B881" opacity="0.198673793"></path>
                    <path d="M6.39977033,14.3927655 C6.84992791,12.6340277 8.11040437,9.57292092 9.4608771,9.53102838 C10.6314454,9.49473033 11.8917456,12.453947 12.5219398,14.3927655" id="Fill-19" fill="#47B881" opacity="0.0970647903"></path>
                    <polygon id="Fill-21" fill="#47B881" points="6.05230454 19.1374501 6.41242179 19.1374501 6.41242179 8.25653488 6.05230454 8.25653488"></polygon>
                    <polygon id="Fill-23" fill="#47B881" points="6.23238519 7.65596943 5.68130668 8.61042332 6.7834637 8.61042332"></polygon>
                    <path d="M16.4834146,14.3927655 C16.2132936,15.5150979 15.5966231,18.1741508 14.5027036,18.1741508 C13.4087842,18.1741508 12.7973117,15.4514441 12.5219486,14.3927655" id="Fill-24" fill="#47B881" opacity="0.0970647903"></path>
                    <path d="M16.4834146,14.3927655 C16.9335722,12.8140643 17.6538067,11.2897662 18.6442062,11.3316587 C19.6345177,11.3735512 20.1747596,12.6340277 20.8049978,14.3927655" id="Fill-25" fill="#47B881" opacity="0.0970647903"></path>
                    <polygon id="Fill-26" fill="#47B881" points="4.59910478 14.5728814 23.6884027 14.5728814 23.6884027 14.2127201 4.59910478 14.2127201"></polygon>
                    <polygon id="Fill-27" fill="#47B881" points="24.1610263 14.3927655 23.0847273 15.0141494 23.0847273 13.7713815"></polygon>
                    <path d="M12.3507046,14.4485605 C11.5821902,12.0839447 10.3999924,9.71078306 9.48284976,9.71078306 C9.47729933,9.71078306 9.4719251,9.71095926 9.46646277,9.71113546 C8.30955031,9.74686086 7.05660658,12.5526037 6.57420364,14.4374596 L6.2253194,14.3481682 C6.5767586,12.9751854 7.84203662,9.40110425 9.45531786,9.35097416 C10.9421726,9.3038836 12.3092085,13.1557506 12.6932455,14.3370673 L12.3507046,14.4485605 Z" id="Fill-28" fill="#47B881"></path>
                    <path d="M14.502708,18.3542623 C13.3444741,18.3542623 12.7362173,15.9636123 12.4094907,14.6794364 L12.3477312,14.4382129 L12.6962189,14.3474678 L12.7584631,14.5906295 C13.0176594,15.6091336 13.6244625,17.994101 14.502708,17.994101 C15.4328898,17.994101 16.0568728,15.3972481 16.2917089,14.4195793 L16.3083602,14.3505954 L16.6584778,14.4349972 L16.6419587,14.5038049 C16.3416628,15.7534889 15.7167547,18.3542623 14.502708,18.3542623" id="Fill-29" fill="#47B881"></path>
                    <path d="M20.635441,14.4534634 C20.0463905,12.8096988 19.5251786,11.5492224 18.636625,11.5116028 C17.9011489,11.4783883 17.2041733,12.5214729 16.6566189,14.4422304 L16.3101575,14.3434239 C16.7331796,12.8599611 17.4828402,11.1045271 18.6518667,11.1518379 C19.76464,11.1987523 20.3390656,12.5589163 20.9744578,14.3321468 L20.635441,14.4534634 Z" id="Fill-30" fill="#47B881"></path>
                    <polygon id="Fill-31" fill="#47B881" points="20.9989898 8.0365528 20.9989898 8.22751406 20.2924552 8.22751406 20.2924552 8.60578034 20.9589474 8.60578034 20.9589474 8.79656539 20.2924552 8.79656539 20.2924552 9.40006464 20.0690724 9.40006464 20.0690724 8.0365528"></polygon>
                    <path d="M22.6124032,7.82081724 C22.5322303,7.952662 22.4710875,8.08437461 22.4290628,8.21613127 C22.3718405,8.3803095 22.3451015,8.54651407 22.3451015,8.71267459 C22.3451015,8.87694092 22.3718405,9.04292524 22.4290628,9.20912981 C22.4710875,9.33903633 22.5322303,9.47074894 22.6124032,9.6043998 L22.431001,9.6043998 C22.3393308,9.47832572 22.2706112,9.34855135 22.2209657,9.21485645 C22.1618051,9.05433446 22.1331279,8.88641189 22.1331279,8.71443663 C22.1331279,8.53876109 22.1618051,8.37277677 22.2209657,8.21225478 C22.2706112,8.07490364 22.3393308,7.94490902 22.431001,7.82081724 L22.6124032,7.82081724 Z" id="Fill-32" fill="#47B881"></path>
                    <polygon id="Fill-33" fill="#47B881" points="22.8814405 8.41288083 23.0875994 8.71445425 23.2919081 8.41288083 23.5459505 8.41288083 23.2060526 8.87497624 23.5898253 9.40006464 23.3339328 9.40006464 23.0875994 9.03536608 22.8394158 9.40006464 22.5835233 9.40006464 22.96734 8.87497624 22.6273982 8.41288083"></polygon>
                    <path d="M23.7424577,7.82081724 C23.8322338,7.94490902 23.9028476,8.07490364 23.9525371,8.21225478 C24.0097154,8.37277677 24.0403309,8.53876109 24.0403309,8.71443663 C24.0403309,8.88641189 24.0097154,9.05433446 23.9525371,9.21485645 C23.9028476,9.34855135 23.8322338,9.47832572 23.7424577,9.6043998 L23.5609675,9.6043998 C23.6392902,9.47074894 23.700433,9.33903633 23.744396,9.20912981 C23.79968,9.04292524 23.8283573,8.87694092 23.8283573,8.71267459 C23.8283573,8.54651407 23.79968,8.3803095 23.744396,8.21613127 C23.700433,8.08437461 23.6392902,7.952662 23.5609675,7.82081724 L23.7424577,7.82081724 Z" id="Fill-34" fill="#47B881"></path>
                </g>
            </g>
        </g>
    </g>
</svg>