<?xml version="1.0" encoding="UTF-8"?>
<svg width="44px" height="44px" viewBox="0 0 44 44" version="1.1" xmlns="http://www.w3.org/2000/svg" xmlns:xlink="http://www.w3.org/1999/xlink">
    <title>录入税务发票-绿</title>
    <defs>
        <polygon id="path-1" points="0 0 34.3695262 0 34.3695262 4.11172043 0 4.11172043"></polygon>
    </defs>
    <g id="草稿2" stroke="none" stroke-width="1" fill="none" fill-rule="evenodd">
        <g id="Apple-TV" transform="translate(-572.000000, -137.000000)">
            <g id="录入税务发票-绿" transform="translate(572.000000, 137.000000)">
                <rect id="矩形" x="0" y="0" width="44" height="44"></rect>
                <g id="编组-4" transform="translate(4.855439, 4.927524)">
                    <g id="分组-copy-10" transform="translate(0.000030, 0.000000)">
                        <mask id="mask-2" fill="white">
                            <use xlink:href="#path-1"></use>
                        </mask>
                        <g id="Clip-2"></g>
                        <path d="M34.3695262,4.11172043 L-3.02419357e-05,4.11172043 L-3.02419357e-05,1.15958172 C-3.02419357e-05,0.519194712 0.541602823,-1.44949527e-05 1.20964718,-1.44949527e-05 L33.1598488,-1.44949527e-05 C33.8279435,-1.44949527e-05 34.3695262,0.519194712 34.3695262,1.15958172 L34.3695262,4.11172043 Z" id="Fill-1" fill="#47B881" mask="url(#mask-2)"></path>
                    </g>
                    <g id="分组-copy-11" transform="translate(0.000000, 3.964893)" fill="#ECF7F2">
                        <path d="M33.159879,30.1921464 L1.20967742,30.1921464 C0.541633065,30.1921464 0,29.6473283 0,28.9752425 L0,0 L34.3695565,0 L34.3695565,28.9752425 C34.3695565,29.6473283 33.8279738,30.1921464 33.159879,30.1921464" id="Fill-3"></path>
                    </g>
                    <rect id="矩形-copy-49" fill="#47B881" opacity="0.198444185" x="3.21088189" y="6.39261676" width="27.9532967" height="25.3090659" rx="1"></rect>
                    <rect id="矩形-copy-51" fill="#FFFFFF" opacity="0.39562407" x="3.21088189" y="11.4922047" width="27.9532967" height="15.4876374"></rect>
                    <rect id="矩形-copy-53" fill="#47B881" opacity="0.203507196" x="5.85511266" y="14.1364354" width="22.6648352" height="2.26648352" rx="1.13324176"></rect>
                    <rect id="矩形-copy-54" fill="#47B881" opacity="0.203507196" x="5.85511266" y="22.446875" width="22.6648352" height="2.26648352" rx="1.13324176"></rect>
                    <rect id="矩形-copy-55" fill="#47B881" opacity="0.203507196" x="5.85511266" y="18.2916552" width="22.6648352" height="2.26648352" rx="1.13324176"></rect>
                    <rect id="矩形-copy-56" fill="#47B881" opacity="0.394001552" x="9.44371156" y="8.47022665" width="17.7541209" height="1.13324176" rx="0.566620879"></rect>
                    <rect id="矩形-copy-57" fill="#47B881" opacity="0.394001552" x="9.44371156" y="28.8685783" width="17.7541209" height="1.13324176" rx="0.566620879"></rect>
                    <g id="down" transform="translate(6.232860, 9.225721) rotate(-360.000000) translate(-6.232860, -9.225721) translate(4.910745, 7.903606)">
                        <rect id="矩形" fill="#000000" fill-rule="nonzero" opacity="0" x="0" y="0" width="2.64423077" height="2.64423077"></rect>
                        <path d="M2.23109774,0.755494505 L2.06509553,0.755494505 C2.05380738,0.755494505 2.04318324,0.761027913 2.03654315,0.7701027 L1.40772678,1.63685558 L0.778910406,0.7701027 C0.772270317,0.761027913 0.761646176,0.755494505 0.750358025,0.755494505 L0.584355815,0.755494505 C0.569968956,0.755494505 0.561558178,0.77187339 0.569968956,0.783604213 L1.35040068,1.85951987 C1.37873173,1.89847506 1.43672183,1.89847506 1.46483154,1.85951987 L2.24526327,0.783604213 C2.25389538,0.77187339 2.2454846,0.755494505 2.23109774,0.755494505 Z" id="路径" fill="#47B881" opacity="0.394001552"></path>
                    </g>
                    <g id="down-copy" transform="translate(6.232860, 29.435199) rotate(-90.000000) translate(-6.232860, -29.435199) translate(4.910745, 28.113084)">
                        <rect id="矩形" fill="#000000" fill-rule="nonzero" opacity="0" x="0" y="0" width="2.64423077" height="2.64423077"></rect>
                        <path d="M2.23109774,0.755494505 L2.06509553,0.755494505 C2.05380738,0.755494505 2.04318324,0.761027913 2.03654315,0.7701027 L1.40772678,1.63685558 L0.778910406,0.7701027 C0.772270317,0.761027913 0.761646176,0.755494505 0.750358025,0.755494505 L0.584355815,0.755494505 C0.569968956,0.755494505 0.561558178,0.77187339 0.569968956,0.783604213 L1.35040068,1.85951987 C1.37873173,1.89847506 1.43672183,1.89847506 1.46483154,1.85951987 L2.24526327,0.783604213 C2.25389538,0.77187339 2.2454846,0.755494505 2.23109774,0.755494505 Z" id="路径" fill="#47B881" opacity="0.394001552"></path>
                    </g>
                </g>
            </g>
        </g>
    </g>
</svg>