<?xml version="1.0" encoding="UTF-8"?>
<svg width="14px" height="14px" viewBox="0 0 14 14" version="1.1" xmlns="http://www.w3.org/2000/svg" xmlns:xlink="http://www.w3.org/1999/xlink">
    <title>无需</title>
    <g id="回收♻️" stroke="none" stroke-width="1" fill="none" fill-rule="evenodd">
        <g id="无需">
            <rect id="矩形" x="0" y="0" width="14" height="14"></rect>
            <path d="M7,1 C3.6862915,1 1,3.6862915 1,7 C1,10.3137085 3.6862915,13 7,13 C10.3137085,13 13,10.3137085 13,7 C13,3.6862915 10.3137085,1 7,1 Z M7,3 C9.209139,3 11,4.790861 11,7 C11,9.209139 9.209139,11 7,11 C4.790861,11 3,9.209139 3,7 C3,4.790861 4.790861,3 7,3 Z" id="形状结合" fill="#47B881" fill-rule="nonzero"></path>
            <path d="M3.29272337,3.2930631 C3.65312073,2.93249256 4.22034511,2.90462676 4.61270958,3.2095574 L4.7069369,3.29272337 L10.7069369,9.28984137 C11.097555,9.68027184 11.0977071,10.3134368 10.7072766,10.7040549 C10.3468793,11.0646254 9.77965489,11.0924912 9.38729042,10.7875606 L9.2930631,10.7043946 L3.2930631,4.70727663 C2.90244501,4.31684616 2.90229291,3.6836812 3.29272337,3.2930631 Z" id="路径-2" fill="#47B881" fill-rule="nonzero"></path>
        </g>
    </g>
</svg>