<?xml version="1.0" encoding="UTF-8"?>
<svg width="40px" height="40px" viewBox="0 0 40 40" version="1.1" xmlns="http://www.w3.org/2000/svg" xmlns:xlink="http://www.w3.org/1999/xlink">
    <title>编组 11</title>
    <g id="CA认证&amp;实名认证" stroke="none" stroke-width="1" fill="none" fill-rule="evenodd">
        <g id="CA认证&amp;实名认证-认证详情" transform="translate(-348.000000, -471.000000)">
            <g id="编组-14" transform="translate(300.000000, 193.000000)">
                <g id="编组-2备份" transform="translate(24.000000, 247.000000)">
                    <g id="编组-11" transform="translate(24.000000, 31.000000)">
                        <rect id="矩形" stroke-opacity="0.12" stroke="#000000" x="0.5" y="0.5" width="39" height="39" rx="19.5"></rect>
                        <g id="编组-9" transform="translate(8.000000, 8.000000)">
                            <rect id="矩形" x="0" y="0" width="24" height="24"></rect>
                            <g id="编组-6" transform="translate(4.080000, 1.200000)" fill-rule="nonzero">
                                <path d="M13.92,0 C14.9803867,0 15.84,0.85961328 15.84,1.92 L15.84,19.68 C15.84,20.7403867 14.9803867,21.6 13.92,21.6 L1.92,21.6 C0.85961328,21.6 0,20.7403867 0,19.68 L0,1.92 C0,0.85961328 0.85961328,0 1.92,0 L13.92,0 Z M13.92,1.44 L1.92,1.44 C1.66293655,1.44 1.45307053,1.64207622 1.44058744,1.89604316 L1.44,1.92 L1.44,19.68 C1.44,19.9370634 1.64207622,20.1469295 1.89604316,20.1594126 L1.92,20.16 L13.92,20.16 C14.1770634,20.16 14.3869295,19.9579238 14.3994126,19.7039568 L14.4,19.68 L14.4,1.92 C14.4,1.66293655 14.1979238,1.45307053 13.9439568,1.44058744 L13.92,1.44 Z" id="矩形" fill="#000000"></path>
                                <path d="M10.92,17.1852632 C11.317645,17.1852632 11.64,17.5076181 11.64,17.9052632 C11.64,18.2938708 11.332131,18.6105718 10.9469926,18.6247665 L10.92,18.6252632 L4.92,18.6252632 C4.52235498,18.6252632 4.2,18.3029082 4.2,17.9052632 C4.2,17.5166555 4.50786899,17.1999545 4.89300741,17.1857598 L4.92,17.1852632 L10.92,17.1852632 Z" id="路径-3" fill="#36C2CF"></path>
                                <path d="M11.52,0.814736842 C11.917645,0.814736842 12.24,1.13709182 12.24,1.53473684 C12.24,1.92334448 11.932131,2.24004545 11.5469926,2.25424023 L11.52,2.25473684 L4.32,2.25473684 C3.92235498,2.25473684 3.6,1.93238186 3.6,1.53473684 C3.6,1.14612921 3.90786899,0.829428231 4.29300741,0.815233459 L4.32,0.814736842 L11.52,0.814736842 Z" id="路径-4" fill="#000000"></path>
                            </g>
                        </g>
                    </g>
                </g>
            </g>
        </g>
    </g>
</svg>