<?xml version="1.0" encoding="UTF-8"?>
<svg width="14px" height="14px" viewBox="0 0 14 14" version="1.1" xmlns="http://www.w3.org/2000/svg" xmlns:xlink="http://www.w3.org/1999/xlink">
    <title>attachment</title>
    <g id="寻源" stroke="none" stroke-width="1" fill="none" fill-rule="evenodd">
        <g id="寻源大厅-还原" transform="translate(-867.000000, -525.000000)" fill="#000000" fill-rule="nonzero">
            <g id="表格备份" transform="translate(243.000000, 433.000000)">
                <g id="编组-20" transform="translate(13.000000, 88.000000)">
                    <g id="编组-11" transform="translate(466.000000, 0.000000)">
                        <g id="编组-18备份-4">
                            <g id="编组-11备份">
                                <g id="attachment" transform="translate(145.000000, 4.000000)">
                                    <rect id="矩形" opacity="0" x="0" y="0" width="14" height="14"></rect>
                                    <path d="M10.6544922,2.68789063 C9.36660156,1.4 7.26933594,1.4 5.9828125,2.68789063 L2.41445312,6.25351563 C2.39121094,6.27675781 2.37890625,6.30820313 2.37890625,6.34101562 C2.37890625,6.37382813 2.39121094,6.40527344 2.41445312,6.42851563 L2.91894531,6.93300781 C2.96679687,6.98085937 3.04472656,6.98085937 3.09257812,6.93300781 L6.6609375,3.36738281 C7.10390625,2.92441406 7.69316406,2.68105469 8.31933594,2.68105469 C8.94550781,2.68105469 9.53476562,2.92441406 9.97636719,3.36738281 C10.4193359,3.81035156 10.6626953,4.39960937 10.6626953,5.02441406 C10.6626953,5.65058594 10.4193359,6.23847656 9.97636719,6.68144531 L6.33964844,10.3167969 L5.75039062,10.9060547 C5.19941406,11.4570312 4.30390625,11.4570312 3.75292969,10.9060547 C3.48632812,10.6394531 3.34003906,10.2853516 3.34003906,9.90800781 C3.34003906,9.53066406 3.48632812,9.1765625 3.75292969,8.90996094 L7.3609375,5.30332031 C7.45253906,5.21308594 7.57285156,5.1625 7.70136719,5.1625 L7.70273437,5.1625 C7.83125,5.1625 7.95019531,5.21308594 8.04042969,5.30332031 C8.13203125,5.39492187 8.18125,5.51523437 8.18125,5.64375 C8.18125,5.77089844 8.13066406,5.89121094 8.04042969,5.98144531 L5.09140625,8.92773438 C5.06816406,8.95097656 5.05585937,8.98242188 5.05585937,9.01523438 C5.05585937,9.04804687 5.06816406,9.07949219 5.09140625,9.10273437 L5.59589844,9.60722656 C5.64375,9.65507813 5.72167969,9.65507813 5.76953125,9.60722656 L8.7171875,6.65957031 C8.98925781,6.3875 9.13828125,6.0265625 9.13828125,5.64238281 C9.13828125,5.25820313 8.98789062,4.89589844 8.7171875,4.62519531 C8.15527344,4.06328125 7.24199219,4.06464844 6.68007812,4.62519531 L6.33007812,4.9765625 L3.0734375,8.23183594 C2.625,8.68027344 2.37890625,9.275 2.37890625,9.909375 C2.37890625,10.5423828 2.62636719,11.1371094 3.0734375,11.5841797 C3.53691406,12.0462891 4.14394531,12.2773438 4.75097656,12.2773438 C5.35800781,12.2773438 5.96503906,12.0462891 6.42714844,11.5841797 L10.6544922,7.35957031 C11.2765625,6.73613281 11.6210978,5.90625 11.6210978,5.02441406 C11.6224609,4.14121094 11.2779297,3.31132813 10.6544922,2.68789063 Z" id="路径"></path>
                                </g>
                            </g>
                        </g>
                    </g>
                </g>
            </g>
        </g>
    </g>
</svg>