<?xml version="1.0" encoding="UTF-8"?>
<svg width="8px" height="16px" viewBox="0 0 8 16" version="1.1" xmlns="http://www.w3.org/2000/svg" xmlns:xlink="http://www.w3.org/1999/xlink">
    <title>Icon/attach_file</title>
    <g id="聚合表--v114" stroke="none" stroke-width="1" fill="none" fill-rule="evenodd">
        <g id="Icon/attach_file" transform="translate(-4.000000, 0.000000)">
            <path d="M10.6666667,4 L10.6666667,11.6666667 C10.6666667,13.14 9.47333334,14.3333333 8,14.3333333 C6.52666666,14.3333333 5.33333333,13.14 5.33333333,11.6666667 L5.33333333,3.33333333 C5.33333333,2.41285874 6.07952541,1.66666667 7,1.66666667 C7.92047459,1.66666667 8.66666667,2.41285874 8.66666667,3.33333333 L8.66666667,10.3333333 C8.66666667,10.7 8.36666667,11 8,11 C7.63333333,11 7.33333333,10.7 7.33333333,10.3333333 L7.33333333,4 L6.33333333,4 L6.33333333,10.3333333 C6.33333333,11.2538079 7.07952543,12 8,12 C8.92047457,12 9.66666664,11.2538079 9.66666667,10.3333333 L9.66666667,3.33333333 C9.66666667,1.86 8.47333334,0.666666672 7,0.666666672 C5.52666666,0.666666672 4.33333333,1.86 4.33333333,3.33333333 L4.33333333,11.6666667 C4.33333333,13.6933333 5.97333333,15.3333333 8,15.3333333 C10.0266667,15.3333333 11.6666667,13.6933333 11.6666667,11.6666667 L11.6666667,4 L10.6666667,4 Z" id="icon" fill="#00B8CC"></path>
            <rect id="attach_file" x="0" y="0" width="16" height="16"></rect>
        </g>
    </g>
</svg>