<?xml version="1.0" encoding="UTF-8"?>
<svg width="14px" height="14px" viewBox="0 0 14 14" version="1.1" xmlns="http://www.w3.org/2000/svg" xmlns:xlink="http://www.w3.org/1999/xlink">
    <title>编组 43</title>
    <g id="804" stroke="none" stroke-width="1" fill="none" fill-rule="evenodd">
        <g id="编组-2" transform="translate(1.000000, 1.000000)">
            <path d="M12,0 L1.33333334,0 C0.600000016,0 0.00666667187,0.6 0.00666667187,1.33333334 L0,13.3333333 L2.66666667,10.6666667 L12,10.6666667 C12.7333333,10.6666667 13.3333333,10.0666667 13.3333333,9.33333334 L13.3333333,1.33333334 C13.3333333,0.600000016 12.7333333,0 12,0 Z" id="路径" fill="#1D2129"></path>
            <polygon id="路径备份" fill="#FFFFFF" points="7.34738041 6.22209567 9.05580866 6.22209567 9.05580866 7.36104784 7.34738041 7.36104784 7.34738041 8.5 6.20842825 8.5 6.20842825 7.36104784 4.5 7.36104784 4.5 6.22209567 6.20842825 6.22209567 6.20842825 5.65261959 4.5 5.65261959 4.5 4.51366743 5.97266515 4.51366743 4.7642369 3.30580866 5.57061503 2.5 6.77790433 3.70842825 7.9857631 2.5 8.79157175 3.30580866 7.58314351 4.51366743 9.05580866 4.51366743 9.05580866 5.65261959 7.34738041 5.65261959"></polygon>
        </g>
    </g>
</svg>