<?xml version="1.0" encoding="UTF-8"?>
<svg width="18px" height="18px" viewBox="0 0 18 18" version="1.1" xmlns="http://www.w3.org/2000/svg" xmlns:xlink="http://www.w3.org/1999/xlink">
    <!-- Generator: Sketch 52.2 (67145) - http://www.bohemiancoding.com/sketch -->
    <title>标书</title>
    <desc>Created with Sketch.</desc>
    <g id="Page-1" stroke="none" stroke-width="1" fill="none" fill-rule="evenodd">
        <g id="标书">
            <path d="M9.03242105,17.894842 L6.32431579,16.5279204 L3.54336842,17.8183215 L3.38757895,17.8183215 C2.07105263,17.8183215 1,16.8606387 1,15.6834654 L1,3.13485611 C1,1.95768278 2.07105263,1 3.38757895,1 L14.6873684,1 C16.0038947,1 17.0749474,1.95768278 17.0749474,3.13485611 L17.0749474,15.6834654 C17.0749474,16.8606387 16.0038947,17.8183215 14.6873684,17.8183215 L14.5146316,17.8183215 L12.0444211,16.5287675 L9.03242105,17.894842 Z M3.38768421,2.14140728 C2.77505263,2.14140728 2.27673684,2.58707097 2.27673684,3.13476199 L2.27673684,15.6833713 C2.27673684,16.1889901 2.70136842,16.607641 3.24863158,16.669008 L6.34989474,15.2299897 L9.06463158,16.6002996 L12.0874737,15.2292367 L14.8417895,16.6672197 C15.3815789,16.599829 15.7983158,16.1843782 15.7983158,15.6833713 L15.7983158,3.13476199 C15.7983158,2.58697685 15.2998947,2.14140728 14.6873684,2.14140728 L3.38768421,2.14140728 Z M13.1286316,5.21822794 L5.12378947,5.21822794 C4.7712574,5.21822794 4.48547368,4.96269415 4.48547368,4.64747724 C4.48547368,4.33226033 4.7712574,4.07672654 5.12378947,4.07672654 L13.1286316,4.07672654 C13.4811637,4.07672654 13.7669474,4.33226033 13.7669474,4.64747724 C13.7669474,4.96269415 13.4811637,5.21822794 13.1286316,5.21822794 Z M13.1286316,9.3284048 L5.12378947,9.3284048 C4.7712574,9.3284048 4.48547368,9.072871 4.48547368,8.75765409 C4.48547368,8.44243718 4.7712574,8.18690339 5.12378947,8.18690339 L13.1286316,8.18690339 C13.4811637,8.18690339 13.7669474,8.44243718 13.7669474,8.75765409 C13.7669474,9.072871 13.4811637,9.3284048 13.1286316,9.3284048 Z M13.1286316,13.4385816 L5.12378947,13.4385816 C4.7712574,13.4385816 4.48547368,13.1830479 4.48547368,12.8678309 C4.48547368,12.552614 4.7712574,12.2970802 5.12378947,12.2970802 L13.1286316,12.2970802 C13.4811637,12.2970802 13.7669474,12.552614 13.7669474,12.8678309 C13.7669474,13.1830479 13.4811637,13.4385816 13.1286316,13.4385816 Z" id="形状" fill="#29BECE" fill-rule="nonzero"></path>
            <rect id="矩形" fill="#D8D8D8" opacity="0" x="0" y="0" width="18" height="18"></rect>
        </g>
    </g>
</svg>