<?xml version="1.0" encoding="UTF-8"?>
<svg width="19px" height="19px" viewBox="0 0 19 19" version="1.1" xmlns="http://www.w3.org/2000/svg" xmlns:xlink="http://www.w3.org/1999/xlink">
    <!-- Generator: Sketch 52.2 (67145) - http://www.bohemiancoding.com/sketch -->
    <title>邀请合作 copy</title>
    <desc>Created with Sketch.</desc>
    <g id="Page-1" stroke="none" stroke-width="1" fill="none" fill-rule="evenodd">
        <g id="图标--3" transform="translate(-1530.000000, -754.000000)" fill="#333333" fill-rule="nonzero">
            <g id="邀请合作-copy" transform="translate(1529.000000, 753.000000)">
                <rect id="Rectangle" opacity="0" x="0" y="0" width="22" height="22"></rect>
                <g id="预注册企业" transform="translate(1.000000, 1.800000)">
                    <path d="M16.9512558,7.07149385 C16.6059865,7.07149385 16.3234905,6.78512853 16.3234905,6.43087335 L16.3234905,3.41693397 C16.3234905,2.24339574 15.4804796,1.2850776 14.4414803,1.2850776 L3.15184297,1.2850776 C2.11408444,1.2850776 1.26980079,2.24148343 1.26980079,3.41693397 L1.26980079,14.506074 C1.26980079,15.6815949 2.1147304,16.6379304 3.15184297,16.6379304 L8.58139193,16.6379304 C8.92669319,16.6379304 9.20918915,16.9242957 9.20918915,17.2785509 C9.20918915,17.6308554 8.92797233,17.9178283 8.58139193,17.9178283 L3.15184297,17.9178283 C1.42415985,17.9178283 0.0155174425,16.3881545 0.0155174425,14.5080247 L0.0155174425,3.41821311 C0.0155174425,1.53815356 1.42223475,0.00840949066 3.15184297,0.00840949066 L14.4408407,0.00840949066 C16.1703786,0.00840949066 17.5771023,1.5381152 17.5771023,3.41821311 L17.5771023,6.43215247 C17.5771023,6.78512851 17.296557,7.07149385 16.9512558,7.07149385 Z M2.52532489,9.69843402 C2.52532489,9.2925275 2.80654171,8.96185574 3.15117144,8.96185574 L6.91334353,8.96185574 C7.26053151,8.96185574 7.54110877,9.29175378 7.54110877,9.69843402 C7.54110877,10.1043774 7.25989194,10.4365229 6.91334353,10.4365229 L3.15117144,10.4365229 C2.80654171,10.4342312 2.52532489,10.1043774 2.52532489,9.69843402 Z M2.52532489,5.86079917 C2.52532489,5.45479968 2.80654171,5.12411902 3.15117144,5.12411902 L8.17011477,5.12411902 C8.51541603,5.12411902 8.79599331,5.45406269 8.79599331,5.86079917 C8.79599331,6.26900958 8.5147445,6.59744246 8.17011477,6.59744246 L3.15184297,6.59744246 C2.80654171,6.59674234 2.52532489,6.26679867 2.52532489,5.86079917 Z" id="Shape"></path>
                    <path d="M16.3454,15.0572787 L17.9515672,16.6634458 C18.1858818,16.8977604 18.1858818,17.2776594 17.9515672,17.5119739 C17.7172526,17.7462885 17.3373536,17.7462885 17.103039,17.5119739 L15.4099832,15.8189181 C14.7091361,16.2508307 13.8836664,16.5 13,16.5 C10.4594902,16.5 8.4,14.4405098 8.4,11.9 C8.4,9.35949015 10.4594902,7.3 13,7.3 C15.5405098,7.3 17.6,9.35949015 17.6,11.9 C17.6,13.1224056 17.1231864,14.2334455 16.3454,15.0572787 Z M13,15.3 C14.8777681,15.3 16.4,13.7777681 16.4,11.9 C16.4,10.0222319 14.8777681,8.5 13,8.5 C11.1222319,8.5 9.6,10.0222319 9.6,11.9 C9.6,13.7777681 11.1222319,15.3 13,15.3 Z" id="合并形状"></path>
                </g>
            </g>
        </g>
    </g>
</svg>