<?xml version="1.0" encoding="UTF-8"?>
<svg width="20px" height="20px" viewBox="0 0 20 20" version="1.1" xmlns="http://www.w3.org/2000/svg" xmlns:xlink="http://www.w3.org/1999/xlink">
    <!-- Generator: Sketch 52.2 (67145) - http://www.bohemiancoding.com/sketch -->
    <title>分组</title>
    <desc>Created with Sketch.</desc>
    <g id="Page-1" stroke="none" stroke-width="1" fill="none" fill-rule="evenodd">
        <g id="分组">
            <path d="M8.82948704,3.01489967 C9.61787228,3.00642444 10.4062366,3.00433178 11.1925291,3 C10.9828455,3.6401837 10.7770961,4.28218802 10.5821239,4.92877524 C11.1353788,4.70195282 11.6842811,4.46452067 12.2331625,4.2312529 C12.2374943,5.07697677 12.2374943,5.92475141 12.2331625,6.77045436 C11.675785,6.49269683 11.1183865,6.21305591 10.5566772,5.94586628 C10.7051089,6.81289331 10.8534988,7.67761845 10.9828455,8.54648701 C11.8049434,8.02303137 12.6063658,7.36612738 13.5938249,7.19846421 C14.187217,7.19846421 14.7129536,7.5186607 15.2428337,7.7473665 C15.9527445,7.31726401 16.6988791,6.76631092 17.5762648,6.84662685 C18.4898324,6.89961276 19.2272825,7.60538014 19.5791617,8.41092511 C20.2085683,9.85002008 20.0665819,11.5730459 19.2802893,12.9231823 C18.8923956,13.6353322 18.2990245,14.199197 17.8221512,14.8497184 C17.5252878,15.2609661 17.5466538,15.7970614 17.457465,16.2759854 C12.4664512,16.2908642 7.47709058,16.2908642 2.48613956,16.2759854 C2.41390125,15.6910686 2.39487907,15.040317 1.94757498,14.5953358 C0.993849413,13.5335666 0.11215289,12.2873513 0.0210598019,10.8142926 C-0.103976088,9.39857254 0.311456939,7.66910135 1.70604123,7.00987452 C2.76368784,6.5203826 3.84242835,7.17318499 4.71357792,7.74318119 C5.23908436,7.51428706 5.76251909,7.20919951 6.3497378,7.19429984 C7.34592324,7.36608554 8.1555698,8.02717483 9.00958056,8.52097761 C9.11967491,7.66058427 9.2596314,6.80433438 9.3995251,5.9458035 C8.83574408,6.21508579 8.27625297,6.49263405 7.71680373,6.77039157 C7.71680373,5.92468865 7.71680373,5.07898571 7.72094718,4.23349204 C8.2636343,4.46219783 8.80404042,4.69772569 9.34856905,4.92438067 C9.18136626,4.28654074 9.0010844,3.65278147 8.82948704,3.01489967 Z M2.10241021,8.44486789 C1.12321708,8.92795632 0.991777696,10.1975256 1.19750618,11.1512721 C1.53446479,12.5499999 2.36939058,13.7560573 3.17700727,14.9239866 C3.84242833,14.9173947 4.50992113,14.909066 5.17555148,14.8900647 C4.42527342,13.6523455 3.40364134,12.4928496 3.16832277,11.0200002 C3.01804952,10.0724689 3.61784506,9.26072965 4.11171064,8.52099855 C3.46097999,8.34509031 2.74031293,8.08223245 2.10241021,8.44486789 Z M15.8596216,8.45750751 C16.3195653,9.23758491 16.9468373,10.0555393 16.7943249,11.0177819 C16.5610781,12.495005 15.5373952,13.6544381 14.7765074,14.8879929 C15.4419494,14.9091078 16.1075379,14.9196757 16.7752609,14.9281509 C17.587021,13.7624817 18.419896,12.5523018 18.7568337,11.151314 C18.9433098,10.2377255 18.8437833,9.06582014 17.9852315,8.51486706 C17.3411345,8.08884524 16.5546327,8.33247164 15.8596216,8.45750751 Z M5.74766127,8.70772575 C4.53335884,9.4197083 4.26631569,11.1152576 4.86824573,12.3148696 C5.3175797,13.2326016 5.84532528,14.1693767 6.65275363,14.8157546 C7.43283103,15.0681074 8.27832469,14.9091078 9.08575305,14.9026834 C9.05204046,13.4698036 9.13457459,12.0350404 9.06673087,10.6044625 C9.08803406,9.92644366 8.41828119,9.5766571 7.95400571,9.2185627 C7.32457821,8.80706389 6.4981486,8.27308221 5.74766127,8.70772575 Z M13.0894542,8.63569671 C12.2967372,8.9639499 11.5317478,9.44517585 10.9870099,10.1169795 C10.7135842,11.7130024 10.9509954,13.3596673 10.8810381,14.9769725 C11.6629779,14.9599592 12.4600686,15.0402751 13.2335123,14.885712 C13.9310346,14.3833712 14.3695915,13.6014313 14.8125219,12.8807433 C15.4166911,11.8971765 15.626563,10.589521 15.041416,9.54882485 C14.6728166,8.88365491 13.8693433,8.30288155 13.0894542,8.63569671 Z" id="形状" fill="#0687FF" fill-rule="nonzero"></path>
            <rect id="矩形" fill="#D8D8D8" opacity="0" x="0" y="0" width="20" height="20"></rect>
        </g>
    </g>
</svg>