<?xml version="1.0" encoding="UTF-8"?>
<svg width="16px" height="16px" viewBox="0 0 16 16" version="1.1" xmlns="http://www.w3.org/2000/svg" xmlns:xlink="http://www.w3.org/1999/xlink">
    <!-- Generator: Sketch 52.2 (67145) - http://www.bohemiancoding.com/sketch -->
    <title>chart-s</title>
    <desc>Created with Sketch.</desc>
    <g id="style" stroke="none" stroke-width="1" fill="none" fill-rule="evenodd">
        <g id="图标--2" transform="translate(-1434.000000, -686.000000)">
            <g id="chart-s" transform="translate(1434.000000, 686.000000)">
                <rect id="Rectangle" fill="#D8D8D8" opacity="0.01" x="0" y="0" width="16" height="16"></rect>
                <path d="M3.48747411,10.7130581 C3.31894456,10.93181 3.0049909,10.9725233 2.78623898,10.8039938 C2.56748706,10.6354642 2.52677379,10.3215106 2.69530334,10.1027586 L6.74869449,4.84144338 C6.91026104,4.63172945 7.20729021,4.5842977 7.42613356,4.73326504 L10.267013,6.66706031 L14.8918378,0.433996064 C15.0563831,0.21223166 15.369549,0.165846423 15.5913134,0.330391736 C15.8130778,0.49493705 15.859463,0.808102952 15.6949177,1.02986736 L10.784041,7.64845541 C10.6242107,7.86386528 10.3228811,7.91478266 10.1011474,7.76384785 L7.25314538,5.82520424 L3.48747411,10.7130581 Z M1,15 L15.5,15 C15.7761424,15 16,15.2238576 16,15.5 C16,15.7761424 15.7761424,16 15.5,16 L0.5,16 C0.223857625,16 -4.54713533e-13,15.7761424 -4.54747351e-13,15.5 L-4.54747351e-13,1.5 C-4.54781169e-13,1.22385763 0.223857625,1 0.5,1 C0.776142375,1 1,1.22385763 1,1.5 L1,15 Z M10.6638547,6.93719168 L9.98096106,7.05258412 L10.267013,6.66706031 L10.6638547,6.93719168 Z M4.5,11.2319003 L4.5,11.2319003 C4.77614237,11.2319003 5,11.4557579 5,11.7319003 L5,15.2053232 C5,15.4814656 4.77614237,15.7053232 4.5,15.7053232 L4.5,15.7053232 C4.22385763,15.7053232 4,15.4814656 4,15.2053232 L4,11.7319003 C4,11.4557579 4.22385763,11.2319003 4.5,11.2319003 Z M8.5,8.23190028 L8.5,8.23190028 C8.77614237,8.23190028 9,8.4557579 9,8.73190028 L9,14.9072515 C9,15.1833939 8.77614237,15.4072515 8.5,15.4072515 L8.5,15.4072515 C8.22385763,15.4072515 8,15.1833939 8,14.9072515 L8,8.73190028 C8,8.4557579 8.22385763,8.23190028 8.5,8.23190028 Z M13.5,5.23190028 L13.5,5.23190028 C13.7761424,5.23190028 14,5.4557579 14,5.73190028 L14,15.2319003 L13,15.2319003 L13,5.73190028 C13,5.4557579 13.2238576,5.23190028 13.5,5.23190028 Z" id="Path-36" fill="#29BECE" fill-rule="nonzero"></path>
            </g>
        </g>
    </g>
</svg>