<?xml version="1.0" encoding="UTF-8"?>
<svg width="12px" height="12px" viewBox="0 0 12 12" version="1.1" xmlns="http://www.w3.org/2000/svg" xmlns:xlink="http://www.w3.org/1999/xlink">
    <title>1</title>
    <g id="审批表单" stroke="none" stroke-width="1" fill="none" fill-rule="evenodd">
        <g id="1">
            <rect id="矩形" fill-opacity="0.01" fill="#FFFFFF" x="0" y="0" width="12" height="12"></rect>
            <g id="编组" transform="translate(1.5, 1.5)" fill="#868D9C" fill-rule="nonzero">
                <path d="M1,4.75 C1,4.9067 1.230505,5.1792 1.765235,5.44655 C2.457025,5.79245 3.438385,6 4.5,6 C5.5616,6 6.54295,5.79245 7.23475,5.44655 C7.7695,5.1792 8,4.9067 8,4.75 L8,3.66435 C7.175,4.1741 5.91365,4.5 4.5,4.5 C3.086365,4.5 1.82498,4.1741 1,3.66435 L1,4.75 Z M8,6.16435 C7.175,6.6741 5.91365,7 4.5,7 C3.086365,7 1.82498,6.6741 1,6.16435 L1,7.25 C1,7.4067 1.230505,7.6792 1.765235,7.94655 C2.457025,8.29245 3.438385,8.5 4.5,8.5 C5.5616,8.5 6.54295,8.29245 7.23475,7.94655 C7.7695,7.6792 8,7.4067 8,7.25 L8,6.16435 Z M0,7.25 L0,2.25 C0,1.00736 2.01472,0 4.5,0 C6.9853,0 9,1.00736 9,2.25 L9,7.25 C9,8.49265 6.9853,9.5 4.5,9.5 C2.01472,9.5 0,8.49265 0,7.25 Z M4.5,3.5 C5.5616,3.5 6.54295,3.29246 7.23475,2.946565 C7.7695,2.6792 8,2.40671 8,2.25 C8,2.09329 7.7695,1.8208 7.23475,1.553435 C6.54295,1.20754 5.5616,1 4.5,1 C3.438385,1 2.457025,1.20754 1.765235,1.553435 C1.230505,1.8208 1,2.09329 1,2.25 C1,2.40671 1.230505,2.6792 1.765235,2.946565 C2.457025,3.29246 3.438385,3.5 4.5,3.5 Z" id="形状"></path>
            </g>
        </g>
    </g>
</svg>