<?xml version="1.0" encoding="UTF-8"?>
<svg width="12px" height="12px" viewBox="0 0 12 12" version="1.1" xmlns="http://www.w3.org/2000/svg" xmlns:xlink="http://www.w3.org/1999/xlink">
    <title>3</title>
    <g id="审批表单" stroke="none" stroke-width="1" fill="none" fill-rule="evenodd">
        <g id="3">
            <rect id="矩形" fill-opacity="0.01" fill="#FFFFFF" x="0" y="0" width="12" height="12"></rect>
            <g id="编组" transform="translate(1, 1)" fill="#868D9C" fill-rule="nonzero">
                <path d="M5,9.999985 C2.23858,9.999985 0,7.761435 0,4.999985 C0,2.238575 2.23858,0 5,0 C7.76141,0 10,2.238575 10,4.999985 C10,7.761435 7.76141,9.999985 5,9.999985 Z M5,8.999985 C7.20916,8.999985 9,7.209135 9,4.999985 C9,2.79086 7.20916,1 5,1 C2.79086,1 1,2.79086 1,4.999985 C1,7.209135 2.79086,8.999985 5,8.999985 Z M3.5,3 L6.50001,3 L7.75,4.749985 L4.99961,7.499985 L2.25,4.749985 L3.5,3 Z M4.01501,3.999985 L3.555,4.644985 L4.99961,6.089985 L6.44501,4.644985 L5.98501,3.999985 L4.01501,3.999985 Z" id="形状"></path>
            </g>
        </g>
    </g>
</svg>