<?xml version="1.0" encoding="UTF-8"?>
<svg width="20px" height="20px" viewBox="0 0 20 20" version="1.1" xmlns="http://www.w3.org/2000/svg" xmlns:xlink="http://www.w3.org/1999/xlink">
    <!-- Generator: Sketch 52.2 (67145) - http://www.bohemiancoding.com/sketch -->
    <title>checkbox</title>
    <desc>Created with Sketch.</desc>
    <g id="style" stroke="none" stroke-width="1" fill="none" fill-rule="evenodd">
        <g id="图标-1" transform="translate(-63.000000, -825.000000)" fill="#CCCCCC" fill-rule="nonzero">
            <g id="Group" transform="translate(60.000000, 191.000000)">
                <g id="checkbox" transform="translate(3.000000, 634.000000)">
                    <g id="符号-多选">
                        <path d="M18.5714286,0 L1.42857143,0 C0.642857143,0 0,0.642857143 0,1.42857143 L0,18.5714286 C0,19.3571429 0.642857143,20 1.42857143,20 L18.5714286,20 C19.3571429,20 20,19.3571429 20,18.5714286 L20,1.42857143 C20,0.642857143 19.3571429,0 18.5714286,0 Z M18.75,18.0208333 C18.75,18.4583333 18.4583333,18.75 18.0208333,18.75 L1.97916667,18.75 C1.54166667,18.75 1.25,18.4583333 1.25,18.0208333 L1.25,1.97916667 C1.25,1.54166667 1.54166667,1.25 1.97916667,1.25 L18.0208333,1.25 C18.4583333,1.25 18.75,1.54166667 18.75,1.97916667 L18.75,18.0208333 Z" id="形状"></path>
                    </g>
                </g>
            </g>
        </g>
    </g>
</svg>