<?xml version="1.0" encoding="UTF-8"?>
<svg width="16px" height="16px" viewBox="0 0 16 16" version="1.1" xmlns="http://www.w3.org/2000/svg" xmlns:xlink="http://www.w3.org/1999/xlink">
    <title>编组 22</title>
    <g id="【供】竞价大厅3.1" stroke="none" stroke-width="1" fill="none" fill-rule="evenodd">
        <g id="编组-22">
            <rect id="矩形" x="0" y="0" width="16" height="16"></rect>
            <g id="编组" transform="translate(1.000000, 1.500000)" fill="#868D9C" fill-rule="nonzero">
                <path d="M6.83534,12.8353533 C3.52166,12.8353533 0.835366667,10.1490867 0.835366667,6.83535333 C0.835366667,3.52166 3.52166,0.835366667 6.83534,0.835366667 C10.1490733,0.835366667 12.83534,3.52166 12.83534,6.83535333 C12.83534,10.1490867 10.1490733,12.8353533 6.83534,12.8353533 Z M6.83534,11.50202 C9.41267333,11.50202 11.5020067,9.41268667 11.5020067,6.83535333 C11.5020067,4.25803333 9.41267333,2.1687 6.83534,2.1687 C4.25804,2.1687 2.1687,4.25803333 2.1687,6.83535333 C2.1687,9.41268667 4.25804,11.50202 6.83534,11.50202 Z M7.50200667,6.83535333 L9.50200667,6.83535333 L9.50200667,8.16868667 L6.16867333,8.16868667 L6.16867333,3.50203333 L7.50200667,3.50203333 L7.50200667,6.83535333 Z M0,2.35702 L2.35702667,0 L3.29983333,0.942806667 L0.942813333,3.29983333 L0,2.35702 Z M11.31374,0 L13.67074,2.35702 L12.72794,3.29983333 L10.3708733,0.942806667 L11.31374,0 Z" id="形状"></path>
            </g>
        </g>
    </g>
</svg>