<?xml version="1.0" encoding="UTF-8"?>
<svg width="20px" height="20px" viewBox="0 0 20 20" version="1.1" xmlns="http://www.w3.org/2000/svg" xmlns:xlink="http://www.w3.org/1999/xlink">
    <!-- Generator: Sketch 59 (86127) - https://sketch.com -->
    <title>IP校验</title>
    <desc>Created with Sketch.</desc>
    <g id="页面-1" stroke="none" stroke-width="1" fill="none" fill-rule="evenodd">
        <g id="IP校验" fill-rule="nonzero">
            <rect id="矩形备份" fill="#D8D8D8" opacity="0" x="0" y="0" width="20" height="20"></rect>
            <path d="M9.75956284,1 L10.1935977,1.34487299 C12.3160032,3.0312821 14.6014822,4.18377401 17.0531478,4.7644654 L17.5419672,4.88024515 L17.5419672,11.7156625 C17.5419672,13.312079 16.7438451,14.8237976 15.3686562,15.8321393 C15.0397958,16.0733833 14.6824912,16.3215191 14.2969548,16.5764563 C13.0729694,17.3862269 11.8232292,18.042364 10.1670008,18.7854445 L9.75956284,18.967326 L9.34439102,18.7819509 L9.0941713,18.6686993 C7.60938828,17.9914642 6.41719519,17.3519551 5.24513896,16.57654 C4.85947603,16.3215191 4.5021714,16.0733833 4.17342535,15.8322232 C2.79812212,14.8237976 2,13.312079 2,11.7156625 L2,4.88024515 L2.4888194,4.7644654 C4.92999419,4.18625882 7.19210586,3.04003559 9.32552798,1.34487299 L9.75956284,1 Z M9.75970298,2.56580907 L9.65894114,2.64152423 C7.67522554,4.12334565 5.56943724,5.17767452 3.31147541,5.78238994 L3.31147541,11.7156625 C3.31147541,12.9573088 3.93222612,14.1330693 5.00198953,14.9174613 C5.31327262,15.1458109 5.65326122,15.3819214 6.02187283,15.625667 C7.14837071,16.3709414 8.30063902,16.9867167 9.7597105,17.6491217 C11.2655272,16.9668684 12.4085967,16.3610174 13.5202209,15.6255833 C13.888706,15.3819214 14.2286946,15.1458109 14.540092,14.9173774 C15.6097411,14.1330693 16.2304918,12.9573088 16.2304918,11.7156625 L16.2304918,5.78244528 C13.9630208,5.17572858 11.8392791,4.11741156 9.86020898,2.64122915 L9.75970298,2.56580907 Z M8.13977161,7.78896326 L8.13977161,12.9982489 L6.970885,12.9982489 L6.970885,7.78896326 L8.13977161,7.78896326 Z M11.6291197,7.78896326 C12.3399327,7.78896326 12.8032705,7.81502127 13.019147,7.86713807 C13.3508598,7.94531328 13.6285992,8.11528259 13.8523736,8.3770511 C14.0761481,8.63881961 14.1880336,8.97698154 14.1880336,9.39154705 C14.1880336,9.71135472 14.1235349,9.98022603 13.9945355,10.198169 C13.8655361,10.4161121 13.7016567,10.5872658 13.5028923,10.7116355 C13.304128,10.8360051 13.1020758,10.9183248 12.8967298,10.9585968 C12.6288323,11.0063548 12.2456939,11.0311886 11.7473039,11.0330989 L10.9222592,11.0332182 L10.9222592,12.9982489 L9.75337261,12.9982489 L9.75337261,7.78896326 L11.6291197,7.78896326 Z M11.4869578,8.67020667 L10.9222592,8.67020667 L10.9222592,10.1484214 L11.5619877,10.1484214 C12.0226998,10.1484214 12.3307142,10.121179 12.48604,10.0666932 C12.6413658,10.0122075 12.7631236,9.92692669 12.851317,9.81084835 C12.9395105,9.69477001 12.9836066,9.55974212 12.9836066,9.40576065 C12.9836066,9.21624499 12.9217404,9.05989692 12.7980063,8.93671174 C12.6742722,8.81352656 12.5176324,8.73653697 12.3280823,8.70574068 C12.2284181,8.68881964 12.0568956,8.67794192 11.8135119,8.67310739 L11.6588583,8.67093185 L11.4869578,8.67020667 Z" id="形状结合" fill="#666666"></path>
        </g>
    </g>
</svg>