<?xml version="1.0" encoding="UTF-8"?>
<svg width="159px" height="159px" viewBox="0 0 159 159" version="1.1" xmlns="http://www.w3.org/2000/svg" xmlns:xlink="http://www.w3.org/1999/xlink">
    <!-- Generator: Sketch 61.2 (89653) - https://sketch.com -->
    <title>形状 2</title>
    <desc>Created with Sketch.</desc>
    <g id="页面-1" stroke="none" stroke-width="1" fill="none" fill-rule="evenodd">
        <g id="形状-2" transform="translate(0.137569, 0.194080)" fill="#29BECE" fill-rule="nonzero">
            <path d="M155.526493,112.950452 L91.9132121,112.950452 C90.4874308,112.950452 89.2960246,111.798108 89.2764933,110.372327 L89.2764933,104.259045 C89.2960246,102.833264 90.4678996,101.661389 91.9132121,101.68092 L155.526493,101.68092 C156.952275,101.68092 158.12415,102.833264 158.143681,104.259045 L158.143681,110.372327 C158.12415,111.798108 156.971806,112.969983 155.526493,112.950452 Z M155.526493,135.548108 L91.9132121,135.548108 C90.4874308,135.548108 89.2960246,134.395764 89.2764933,132.969983 L89.2764933,126.856702 C89.2960246,125.43092 90.4678996,124.259045 91.9132121,124.278577 L155.526493,124.278577 C156.952275,124.278577 158.12415,125.43092 158.143681,126.856702 L158.143681,132.950452 C158.12415,134.376233 156.971806,135.548108 155.526493,135.548108 Z M155.526493,158.145764 L91.9132121,158.145764 C90.4874308,158.145764 89.2960246,156.99342 89.2764933,155.567639 L89.2764933,149.454358 C89.2960246,148.028577 90.4678996,146.856702 91.9132121,146.876233 L155.526493,146.876233 C156.952275,146.876233 158.12415,148.028577 158.143681,149.454358 L158.143681,155.548108 C158.12415,156.99342 156.971806,158.126233 155.526493,158.145764 Z M77.7921183,100.665295 L77.7921183,112.130139 C59.2569621,112.130139 44.1788371,97.286389 44.1788371,79.0442015 C44.1788371,60.802014 59.2569621,45.958264 77.7921183,45.958264 C96.3272746,45.958264 111.4054,60.802014 111.4054,79.0442015 C111.4054,82.911389 110.741337,86.739514 109.393681,90.3527953 L96.4639933,90.3527953 C98.6124308,86.973889 99.7452433,83.0481078 99.7452433,79.0442015 C99.7452433,67.1496703 89.8819621,57.4621703 77.7725871,57.4621703 C65.6827433,57.4621703 55.8194621,67.1496703 55.8194621,79.0442015 C55.8389933,90.9777953 65.6827433,100.665295 77.7921183,100.665295 L77.7921183,100.665295 Z M75.0186808,146.641858 C75.7413371,146.622327 76.4444621,146.915295 76.9913371,147.423108 C77.4991496,147.93092 77.8116496,148.653577 77.8116496,149.376233 L77.8116496,155.391858 C77.7921183,156.895764 76.5616496,158.126856 75.0382121,158.126856 L64.0811808,158.126856 C58.8663371,158.184827 54.5108683,154.102795 54.2374308,148.907483 L52.6358683,137.30592 C47.8311808,135.294202 43.2999308,132.735608 39.1202433,129.64967 L28.1436808,134.063733 C23.4757121,136.427014 17.7725871,134.786389 15.0968058,130.294202 L1.32727457,106.915295 C-1.30944418,102.442639 0.0968058202,96.661389 4.53039957,93.9074828 L13.9444621,86.739514 C13.2608658,81.6451566 13.2608658,76.4823089 13.9444621,71.3879515 L4.54993082,64.2199828 C0.15539957,61.4856078 -1.27038168,55.7434203 1.32727457,51.270764 L15.0772746,27.8527953 C17.7530558,23.3606078 23.4366496,21.7199828 28.1046183,24.0637328 L39.1007121,28.4777953 C43.2608683,25.3723265 47.8311808,22.8137328 52.6163371,20.8215453 L54.2178996,9.23951403 C54.4913371,4.02467028 58.8272746,-0.05736097 64.0421183,0.000609842786 L91.5225871,0.000609842786 C96.7960246,0.000609842786 101.112431,4.04420153 101.346806,9.21998278 L102.948368,20.8215453 C107.753056,22.8137328 112.303837,25.3918578 116.483525,28.4777953 L127.479618,24.083264 C132.147587,21.7590453 137.831181,23.380139 140.506962,27.8527953 L154.2179,51.2512328 C156.854618,55.723889 155.4679,61.4856078 151.034306,64.2590453 L141.659306,71.4074828 C142.323368,76.505139 142.323368,81.6809203 141.659306,86.7590453 L146.4054,90.3723265 L129.237431,90.3723265 L129.647587,88.2043578 C130.799931,82.1887328 130.799931,75.958264 129.647587,69.9231078 L129.022587,66.5246703 L143.358525,55.6067015 L131.0929,34.6887328 L114.491337,41.7004515 L111.776493,39.4152953 C106.991337,35.4504515 101.542118,32.364514 95.6827433,30.3137328 L92.3819621,29.1223265 L89.9014933,11.4856078 L65.6632121,11.4856078 L63.2218058,29.161389 L59.9210246,30.3527953 C54.0421183,32.4231078 48.5928996,35.5090453 43.8077433,39.473889 L41.1124308,41.7199828 L24.3546183,34.9621703 L12.2257121,55.5871703 L26.5616496,66.505139 L25.9366496,69.9231078 C25.3702433,72.9309203 25.0772746,75.9777953 25.0577433,79.0442015 C25.0772746,82.1106078 25.3702433,85.177014 25.9171183,88.1848265 L26.5225871,91.6027953 L12.2061808,102.520764 L24.5108683,123.438733 L41.0928996,116.427014 L43.8272746,118.692639 C48.6124308,122.657483 54.0616496,125.74342 59.9210246,127.794202 L63.2218058,128.985608 L65.6632121,146.661389 L75.0186808,146.661389 L75.0186808,146.641858 Z" id="形状"></path>
        </g>
    </g>
</svg>