<?xml version="1.0" encoding="UTF-8"?>
<svg width="1440px" height="785px" viewBox="0 0 1440 785" version="1.1" xmlns="http://www.w3.org/2000/svg" xmlns:xlink="http://www.w3.org/1999/xlink">
    <title>编组 5备份</title>
    <defs>
        <rect id="path-1-count-formula-no-data" x="384" y="255" width="112" height="48" rx="8"></rect>
        <rect id="path-2-count-formula-no-data" x="784" y="543" width="80" height="32" rx="8"></rect>
        <circle id="path-3-count-formula-no-data" cx="912" cy="559" r="16"></circle>
        <rect id="path-4-count-formula-no-data" x="640" y="47" width="416" height="208" rx="8"></rect>
        <filter x="-13.5%" y="-19.2%" width="126.9%" height="153.8%" filterUnits="objectBoundingBox" id="filter-5">
            <feOffset dx="0" dy="16" in="SourceAlpha" result="shadowOffsetOuter1"></feOffset>
            <feGaussianBlur stdDeviation="16" in="shadowOffsetOuter1" result="shadowBlurOuter1"></feGaussianBlur>
            <feColorMatrix values="0 0 0 0 0.11372549   0 0 0 0 0.129411765   0 0 0 0 0.160784314  0 0 0 0.08 0" type="matrix" in="shadowBlurOuter1" result="shadowMatrixOuter1"></feColorMatrix>
            <feOffset dx="0" dy="10" in="SourceAlpha" result="shadowOffsetOuter2"></feOffset>
            <feGaussianBlur stdDeviation="10" in="shadowOffsetOuter2" result="shadowBlurOuter2"></feGaussianBlur>
            <feColorMatrix values="0 0 0 0 0.11372549   0 0 0 0 0.129411765   0 0 0 0 0.160784314  0 0 0 0.12 0" type="matrix" in="shadowBlurOuter2" result="shadowMatrixOuter2"></feColorMatrix>
            <feMerge>
                <feMergeNode in="shadowMatrixOuter1"></feMergeNode>
                <feMergeNode in="shadowMatrixOuter2"></feMergeNode>
            </feMerge>
        </filter>
        <path d="M840,79 L888,79 C892.418278,79 896,82.581722 896,87 L896,103 C896,107.418278 892.418278,111 888,111 L840,111 C835.581722,111 832,107.418278 832,103 L832,87 C832,82.581722 835.581722,79 840,79 Z" id="path-6-count-formula-no-data"></path>
        <path d="M680,175 L744,175 C748.418278,175 752,178.581722 752,183 L752,215 C752,219.418278 748.418278,223 744,223 L680,223 C675.581722,223 672,219.418278 672,215 L672,183 C672,178.581722 675.581722,175 680,175 Z" id="path-7-count-formula-no-data"></path>
        <path d="M808,175 L872,175 C876.418278,175 880,178.581722 880,183 L880,215 C880,219.418278 876.418278,223 872,223 L808,223 C803.581722,223 800,219.418278 800,215 L800,183 C800,178.581722 803.581722,175 808,175 Z" id="path-8-count-formula-no-data"></path>
        <path d="M936,175 L1000,175 C1004.41828,175 1008,178.581722 1008,183 L1008,215 C1008,219.418278 1004.41828,223 1000,223 L936,223 C931.581722,223 928,219.418278 928,215 L928,183 C928,178.581722 931.581722,175 936,175 Z" id="path-9-count-formula-no-data"></path>
        <path d="M7.86073531,47.2727273 L2.26563581,56.7564938 C1.91765475,57.3463309 1.92053699,58.0825033 2.27000223,58.668511 L2.29381332,58.7073525 C2.5412697,59.1001632 3.06300377,59.3010557 3.85901554,59.3100301 L3.915781,59.3103448 L6.63532188,59.3103448 C7.44942479,59.3103448 8.26068845,59.2127235 9.05231177,59.0195026 L57.1786834,47.2727273 L7.86073531,47.2727273 Z" id="path-10-count-formula-no-data"></path>
        <path d="M19.7177776,29.2163009 L112.351097,29.2163009 L3.05580498,0.0799860016 C1.90048315,-0.228004265 0.70112429,0.37680514 0.240675316,1.49250455 L0.224160716,1.53355003 C-0.193202055,2.5980223 -0.019925416,3.80807693 0.678637988,4.70733367 L19.7177776,29.2163009 Z" id="path-11-count-formula-no-data"></path>
        <polygon id="path-12-count-formula-no-data" points="112.351097 29.2163009 19.7243745 29.2163009 7.89968652 47.2727273 33.5198439 47.2727273"></polygon>
        <path d="M112.351097,29.2163009 L59.1261336,79.3730408 C58.2626864,79.7910136 57.6061143,80 57.1564172,80 C56.70672,80 56.0643547,79.7910136 55.2293211,79.3730408 L28.6381495,43.2601881 C28.5152016,41.7999725 28.6245349,40.8378951 28.9661497,40.3739561 C29.3077644,39.910017 30.1832893,39.5345813 31.5927242,39.2476489 L112.351097,29.2163009 Z" id="path-13-count-formula-no-data"></path>
        <circle id="path-14-count-formula-no-data" cx="96" cy="96" r="96"></circle>
        <filter x="-10.9%" y="-7.8%" width="121.9%" height="121.9%" filterUnits="objectBoundingBox" id="filter-15">
            <feOffset dx="0" dy="6" in="SourceAlpha" result="shadowOffsetOuter1"></feOffset>
            <feGaussianBlur stdDeviation="6" in="shadowOffsetOuter1" result="shadowBlurOuter1"></feGaussianBlur>
            <feColorMatrix values="0 0 0 0 0.317647059   0 0 0 0 0.345098039   0 0 0 0 0.454901961  0 0 0 0.08 0" type="matrix" in="shadowBlurOuter1" result="shadowMatrixOuter1"></feColorMatrix>
            <feOffset dx="0" dy="3" in="SourceAlpha" result="shadowOffsetOuter2"></feOffset>
            <feGaussianBlur stdDeviation="3" in="shadowOffsetOuter2" result="shadowBlurOuter2"></feGaussianBlur>
            <feColorMatrix values="0 0 0 0 0.11372549   0 0 0 0 0.129411765   0 0 0 0 0.160784314  0 0 0 0.12 0" type="matrix" in="shadowBlurOuter2" result="shadowMatrixOuter2"></feColorMatrix>
            <feMerge>
                <feMergeNode in="shadowMatrixOuter1"></feMergeNode>
                <feMergeNode in="shadowMatrixOuter2"></feMergeNode>
            </feMerge>
        </filter>
    </defs>
    <g id="基础画面" stroke="none" stroke-width="1" fill="none" fill-rule="evenodd">
        <g id="编组-4" transform="translate(176.000000, 0.000000)">
            <g id="背景/1" transform="translate(96.000000, 127.000000)">
                <path d="M16,0 L880,0 C888.836556,0 896,7.163444 896,16 L896,624 C896,632.836556 888.836556,640 880,640 L16,640 C7.163444,640 0,632.836556 0,624 L0,16 C0,7.163444 7.163444,0 16,0 Z" id="矩形" fill="#F1F4F8"></path>
                <path d="M16,0 L880,0 C888.836556,0 896,7.163444 896,16 L896,64 L0,64 L0,16 C0,7.163444 7.163444,0 16,0 Z" id="矩形" fill="#DBDEE3"></path>
                <circle id="椭圆形" fill="#FFFFFF" cx="48" cy="32" r="16"></circle>
                <circle id="椭圆形备份" fill="#FFFFFF" cx="112" cy="32" r="16"></circle>
                <circle id="椭圆形备份-2" fill="#FFFFFF" cx="176" cy="32" r="16"></circle>
            </g>
            <g id="编组-2" transform="translate(128.000000, 223.000000)">
                <path d="M16,0 L816,0 C824.836556,0 832,7.163444 832,16 L832,496 C832,504.836556 824.836556,512 816,512 L16,512 C7.163444,512 0,504.836556 0,496 L0,16 C0,7.163444 7.163444,0 16,0 Z" id="矩形" fill="#FFFFFF"></path>
                <path d="M16,0 L224,0 L224,512 L16,512 C7.163444,512 0,504.836556 0,496 L0,16 C0,7.163444 7.163444,0 16,0 Z" id="矩形" fill="#E2E5E9"></path>
                <path d="M40,32 L56,32 C60.418278,32 64,35.581722 64,40 L64,56 C64,60.418278 60.418278,64 56,64 L40,64 C35.581722,64 32,60.418278 32,56 L32,40 C32,35.581722 35.581722,32 40,32 Z" id="矩形" fill="#FFFFFF"></path>
                <path d="M104,32 L184,32 C188.418278,32 192,35.581722 192,40 L192,56 C192,60.418278 188.418278,64 184,64 L104,64 C99.581722,64 96,60.418278 96,56 L96,40 C96,35.581722 99.581722,32 104,32 Z" id="矩形备份" fill="#FFFFFF"></path>
                <path d="M40,96 L152,96 C156.418278,96 160,99.581722 160,104 L160,120 C160,124.418278 156.418278,128 152,128 L40,128 C35.581722,128 32,124.418278 32,120 L32,104 C32,99.581722 35.581722,96 40,96 Z" id="矩形备份-2" fill="#FFFFFF"></path>
                <path d="M40,160 L184,160 C188.418278,160 192,163.581722 192,168 L192,184 C192,188.418278 188.418278,192 184,192 L40,192 C35.581722,192 32,188.418278 32,184 L32,168 C32,163.581722 35.581722,160 40,160 Z" id="矩形备份-3" fill="#FFFFFF"></path>
                <path d="M40,224 L120,224 C124.418278,224 128,227.581722 128,232 L128,248 C128,252.418278 124.418278,256 120,256 L40,256 C35.581722,256 32,252.418278 32,248 L32,232 C32,227.581722 35.581722,224 40,224 Z" id="矩形备份-4" fill="#FFFFFF"></path>
                <path d="M40,288 L184,288 C188.418278,288 192,291.581722 192,296 L192,312 C192,316.418278 188.418278,320 184,320 L40,320 C35.581722,320 32,316.418278 32,312 L32,296 C32,291.581722 35.581722,288 40,288 Z" id="矩形备份-5" fill="#FFFFFF"></path>
            </g>
            <g id="矩形">
                <use fill="currentColor" xlink:href="#path-1-count-formula-no-data"></use>
                <use fill-opacity="0.8" fill="#FFFFFF" xlink:href="#path-1-count-formula-no-data"></use>
            </g>
            <rect id="矩形" fill="#FFFFFF" x="416" y="271" width="48" height="16" rx="8"></rect>
            <rect id="矩形" fill="#F1F4F8" x="384" y="335" width="544" height="144" rx="8"></rect>
            <rect id="矩形" fill="#E2E5E9" x="416" y="367" width="192" height="32" rx="8"></rect>
            <rect id="矩形备份-6" fill="#E2E5E9" x="864" y="367" width="32" height="32" rx="8"></rect>
            <rect id="矩形" fill="#E9ECF0" x="384" y="543" width="32" height="32" rx="8"></rect>
            <rect id="矩形备份-10" fill="#E9ECF0" x="384" y="607" width="32" height="32" rx="8"></rect>
            <rect id="矩形备份-11" fill="#E9ECF0" x="384" y="671" width="32" height="32" rx="8"></rect>
            <rect id="矩形" fill="#E9ECF0" x="448" y="543" width="160" height="32" rx="8"></rect>
            <g id="矩形备份-9">
                <use fill="currentColor" xlink:href="#path-2-count-formula-no-data"></use>
                <use fill-opacity="0.8" fill="#FFFFFF" xlink:href="#path-2-count-formula-no-data"></use>
            </g>
            <rect id="矩形备份-7" fill="#E9ECF0" x="448" y="607" width="256" height="32" rx="8"></rect>
            <rect id="矩形备份-8" fill="#E9ECF0" x="448" y="671" width="208" height="32" rx="8"></rect>
            <g id="椭圆形">
                <use fill="currentColor" xlink:href="#path-3-count-formula-no-data"></use>
                <use fill-opacity="0.8" fill="#FFFFFF" xlink:href="#path-3-count-formula-no-data"></use>
            </g>
            <circle id="椭圆形备份-3" fill="#E6F2FE" cx="912" cy="623" r="16"></circle>
            <circle id="椭圆形备份-4" fill="#ECF7F2" cx="912" cy="687" r="16"></circle>
            <g id="路径-4" transform="translate(382.000000, 509.000000)" fill="#F1F4F8" fill-rule="nonzero">
                <path d="M546,0 C547.104569,0 548,0.8954305 548,2 C548,3.1045695 547.104569,4 546,4 L2,4 C0.8954305,4 0,3.1045695 0,2 C0,0.8954305 0.8954305,0 2,0 L546,0 Z" id="路径-3"></path>
            </g>
            <g id="矩形">
                <use fill="black" fill-opacity="1" filter="url(#filter-5)" xlink:href="#path-4-count-formula-no-data"></use>
                <use fill="#FFFFFF" fill-rule="evenodd" xlink:href="#path-4-count-formula-no-data"></use>
            </g>
            <path d="M680,79 L728,79 C732.418278,79 736,82.581722 736,87 L736,103 C736,107.418278 732.418278,111 728,111 L680,111 C675.581722,111 672,107.418278 672,103 L672,87 C672,82.581722 675.581722,79 680,79 Z" id="矩形" fill="#E9ECF0"></path>
            <path d="M760,79 L808,79 C812.418278,79 816,82.581722 816,87 L816,103 C816,107.418278 812.418278,111 808,111 L760,111 C755.581722,111 752,107.418278 752,103 L752,87 C752,82.581722 755.581722,79 760,79 Z" id="矩形备份-13" fill="#E9ECF0"></path>
            <g id="矩形备份-12">
                <use fill="currentColor" xlink:href="#path-6-count-formula-no-data"></use>
                <use fill-opacity="0.8" fill="#FFFFFF" xlink:href="#path-6-count-formula-no-data"></use>
            </g>
            <path d="M1024,141 C1025.10457,141 1026,141.895431 1026,143 C1026,144.104569 1025.10457,145 1024,145 L672,145 C670.895431,145 670,144.104569 670,143 C670,141.895431 670.895431,141 672,141 L1024,141 Z" id="路径-40" fill="#F1F4F8" fill-rule="nonzero"></path>
            <path d="M896,141 C897.104569,141 898,141.895431 898,143 C898,144.104569 897.104569,145 896,145 L832,145 C830.895431,145 830,144.104569 830,143 C830,141.895431 830.895431,141 832,141 L896,141 Z" id="路径-41" fill="currentColor" fill-rule="nonzero"></path>
            <path d="M896,141 C897.104569,141 898,141.895431 898,143 C898,144.104569 897.104569,145 896,145 L832,145 C830.895431,145 830,144.104569 830,143 C830,141.895431 830.895431,141 832,141 L896,141 Z" id="路径-41" fill-opacity="0.8" fill="#FFFFFF" fill-rule="nonzero"></path>
            <g id="矩形">
                <use fill="currentColor" xlink:href="#path-7-count-formula-no-data"></use>
                <use fill-opacity="0.8" fill="#FFFFFF" xlink:href="#path-7-count-formula-no-data"></use>
            </g>
            <g id="矩形备份-14">
                <use fill="currentColor" xlink:href="#path-8-count-formula-no-data"></use>
                <use fill-opacity="0.8" fill="#FFFFFF" xlink:href="#path-8-count-formula-no-data"></use>
            </g>
            <g id="矩形备份-15">
                <use fill="currentColor" xlink:href="#path-9-count-formula-no-data"></use>
                <use fill-opacity="0.8" fill="#FFFFFF" xlink:href="#path-9-count-formula-no-data"></use>
            </g>
            <path d="M776,191 C780.418278,191 784,194.581722 784,199 C784,203.418278 780.418278,207 776,207 C771.581722,207 768,203.418278 768,199 C768,194.581722 771.581722,191 776,191 Z" id="矩形" fill="#E9ECF0"></path>
            <path d="M904,191 C908.418278,191 912,194.581722 912,199 C912,203.418278 908.418278,207 904,207 C899.581722,207 896,203.418278 896,199 C896,194.581722 899.581722,191 904,191 Z" id="矩形备份-16" fill="#E9ECF0"></path>
            <g id="元素/纸飞机/主色备份" transform="translate(1103.647335, 0.000000)">
                <g id="路径-14">
                    <use fill="currentColor" xlink:href="#path-10-count-formula-no-data"></use>
                    <use fill-opacity="0.4" fill="#FFFFFF" xlink:href="#path-10-count-formula-no-data"></use>
                </g>
                <g id="路径-5">
                    <use fill="currentColor" xlink:href="#path-11-count-formula-no-data"></use>
                    <use fill-opacity="0.2" fill="#FFFFFF" xlink:href="#path-11-count-formula-no-data"></use>
                </g>
                <g id="路径-12">
                    <use fill="currentColor" xlink:href="#path-12-count-formula-no-data"></use>
                    <use fill-opacity="0.2" fill="#000000" xlink:href="#path-12-count-formula-no-data"></use>
                </g>
                <g id="路径-13">
                    <use fill="currentColor" xlink:href="#path-13-count-formula-no-data"></use>
                    <use fill-opacity="0.2" fill="#FFFFFF" xlink:href="#path-13-count-formula-no-data"></use>
                </g>
            </g>
            <path d="M977.164085,122.219863 C979.402639,120.68822 981.610244,119.221713 983.786709,117.819864 L981.620736,114.457044 C979.412804,115.87916 977.174289,117.366201 974.905349,118.918634 L977.164085,122.219863 Z M990.512766,113.633341 C992.842197,112.235217 995.131944,110.916168 997.381659,109.675483 L995.449991,106.172819 C993.157131,107.437297 990.82513,108.780688 988.45428,110.203671 L990.512766,113.633341 Z M1004.39569,105.995815 C1006.83505,104.783866 1009.22053,103.671857 1011.5514,102.658608 L1009.95673,98.9902262 C1007.56265,100.03095 1005.11552,101.171704 1002.61593,102.413577 L1004.39569,105.995815 Z M1018.873,99.7338905 C1021.44292,98.8021178 1023.93322,98.0038588 1026.34226,97.3367667 L1025.27478,93.4818357 C1022.7643,94.1770189 1020.17541,95.0068806 1017.50957,95.9734295 L1018.873,99.7338905 Z M1033.96439,95.6140643 C1036.66106,95.1518301 1039.22472,94.8805035 1041.65084,94.7937931 L1041.50797,90.7963455 C1038.89944,90.8895752 1036.15808,91.1797086 1033.28861,91.6715625 L1033.96439,95.6140643 Z M1049.25429,95.1867535 C1051.9128,95.5889277 1054.31511,96.271437 1056.44783,97.2097511 L1058.05867,93.5484405 C1055.59584,92.4648897 1052.8531,91.6856636 1049.8526,91.231753 L1049.25429,95.1867535 Z M1062.51399,101.241031 C1064.28554,102.978965 1065.60835,105.001797 1066.44932,107.20616 L1070.18659,105.780384 C1069.1405,103.038354 1067.49867,100.527675 1065.31519,98.3856371 L1062.51399,101.241031 Z M1067.46477,114.218002 C1067.28128,116.619004 1066.56699,118.947056 1065.3733,121.017372 L1068.83857,123.015347 C1070.33236,120.424532 1071.22428,117.517584 1071.45314,114.522797 L1067.46477,114.218002 Z M1060.64353,126.123279 C1058.73265,127.431853 1056.49883,128.354147 1053.99174,128.833613 L1054.7431,132.762411 C1057.78684,132.180315 1060.53484,131.045729 1062.9036,129.423599 L1060.64353,126.123279 Z M1046.61426,129.011584 C1043.93165,128.665508 1041.70772,127.891514 1039.93944,126.733672 L1037.74825,130.080114 C1040.04577,131.584494 1042.84391,132.55833 1046.10247,132.978708 L1046.61426,129.011584 Z M1035.71505,121.519282 C1034.91277,119.501703 1034.56813,117.113409 1034.69614,114.437173 L1030.70071,114.246063 C1030.54671,117.465561 1030.97291,120.419073 1031.99813,122.997299 L1035.71505,121.519282 Z M1036.05961,107.049057 C1036.76711,104.735223 1037.73553,102.350714 1038.94475,99.9503556 L1035.37245,98.1507396 C1034.06357,100.74892 1033.00989,103.343355 1032.23443,105.879427 L1036.05961,107.049057 Z M1042.88182,93.3217241 C1044.31989,91.225938 1045.91634,89.1757919 1047.65149,87.2014804 L1044.64694,84.5608987 C1042.80683,86.654636 1041.11227,88.8307743 1039.58361,91.0585859 L1042.88182,93.3217241 Z M1053.17131,81.6094452 C1055.09342,79.8741627 1057.11679,78.2453725 1059.22619,76.7401102 L1056.90272,73.4841152 C1054.66817,75.0786828 1052.5257,76.8033521 1050.49086,78.6404087 L1053.17131,81.6094452 Z M1065.78118,72.620456 C1068.05886,71.3717399 1070.4005,70.2684324 1072.79525,69.3204579 L1071.32298,65.6012599 C1068.77236,66.6109382 1066.28033,67.7851046 1063.85825,69.1129911 L1065.78118,72.620456 Z M1080.14096,66.9491175 C1082.64162,66.3195355 1085.17921,65.8576659 1087.74668,65.5695463 L1087.3006,61.5944973 C1084.5532,61.9028087 1081.83843,62.396928 1079.16437,63.070165 L1080.14096,66.9491175 Z M1095.41892,65.2298781 C1097.96591,65.2885242 1100.5307,65.5169004 1103.10914,65.9189703 L1103.72544,61.9667327 C1100.97341,61.5375946 1098.2335,61.2936254 1095.511,61.230938 L1095.41892,65.2298781 Z" id="路径" fill="currentColor" fill-rule="nonzero"></path>
            <g id="编组-3" transform="translate(0.000000, 575.000000)">
                <g id="编组-2">
                    <g id="椭圆形">
                        <use fill="black" fill-opacity="1" filter="url(#filter-15)" xlink:href="#path-14-count-formula-no-data"></use>
                        <use fill="#FFFFFF" fill-rule="evenodd" xlink:href="#path-14-count-formula-no-data"></use>
                    </g>
                    <g id="编组" transform="translate(27.428571, 27.428571)">
                        <polygon id="路径" points="0 0 137.142857 0 137.142857 137.142857 0 137.142857"></polygon>
                        <path d="M21.4121786,16.4224286 L68.4642857,6 L115.516393,16.4224286 C118.13579,17.0028418 120,19.3185184 120,21.9932338 L120,78.9969545 C120,90.4470731 114.25766,101.139254 104.699619,107.490253 L68.4642857,131.571429 L32.2289524,107.490253 C22.6725995,101.140376 16.9313202,90.4507586 16.9285714,79.0026623 L16.9285714,21.9932338 C16.9285714,19.3185184 18.7927812,17.0028418 21.4121786,16.4224286 Z" id="路径" fill="currentColor" fill-rule="nonzero"></path>
                    </g>
                </g>
                <polygon id="路径" fill="#FFFFFF" fill-rule="nonzero" points="101.25 101.536067 114 101.536067 114 110.268033 101.25 110.268033 101.25 119 92.75 119 92.75 110.268033 80 110.268033 80 101.536067 92.75 101.536067 92.75 97.1700835 80 97.1700835 80 88.4381169 90.9905 88.4381169 81.972 79.1778664 87.99 73 97 82.2646166 106.01425 73 112.028 79.1778664 103.0095 88.4381169 114 88.4381169 114 97.1700835 101.25 97.1700835"></polygon>
            </g>
        </g>
    </g>
</svg>