<?xml version="1.0" encoding="utf-8"?>
<!-- Svg Vector Icons : http://www.sfont.cn -->
<!DOCTYPE svg PUBLIC "-//W3C//DTD SVG 1.1//EN" "http://www.w3.org/Graphics/SVG/1.1/DTD/svg11.dtd">
<svg version="1.1" xmlns="http://www.w3.org/2000/svg" xmlns:xlink="http://www.w3.org/1999/xlink" x="0px" y="0px" viewBox="0 0 1000 1000" enable-background="new 0 0 1000 1000" xml:space="preserve">
<metadata> Svg Vector Icons : http://www.sfont.cn </metadata>
<g><g><path fill="#5867dd" d="M500,10C229.4,10,10,229.4,10,500s219.4,490,490,490s490-219.4,490-490S770.6,10,500,10z M500,867.5C297,867.5,132.5,703,132.5,500c0-203,164.5-367.5,367.5-367.5c203,0,367.5,164.5,367.5,367.5C867.5,703,703,867.5,500,867.5z M316.3,500c0,101.5,82.3,183.8,183.8,183.8c101.5,0,183.8-82.3,183.8-183.8c0-101.5-82.3-183.8-183.8-183.8C398.5,316.3,316.3,398.5,316.3,500z"/></g><g></g><g></g><g></g><g></g><g></g><g></g><g></g><g></g><g></g><g></g><g></g><g></g><g></g><g></g><g></g></g>
</svg>
