<?xml version="1.0" encoding="UTF-8"?>
<svg width="12px" height="12px" viewBox="0 0 20 20" version="1.1" xmlns="http://www.w3.org/2000/svg" xmlns:xlink="http://www.w3.org/1999/xlink">
    <!-- Generator: Sketch 52.2 (67145) - http://www.bohemiancoding.com/sketch -->
    <title>附件</title>
    <desc>Created with Sketch.</desc>
    <g id="Page-1" stroke="none" stroke-width="1" fill="none" fill-rule="evenodd">
        <g id="分组-4">
            <rect id="矩形" fill="#D8D8D8" opacity="0" x="0" y="0" width="12" height="12"></rect>
            <path d="M13.1638804,8.37824475 C13.4565352,8.08558999 13.9310223,8.08558999 14.223677,8.37824475 C14.5163318,8.67089952 14.5163318,9.14538664 14.223677,9.4380414 L9.65874783,14.0029706 C8.52116201,15.1405564 6.67677097,15.1405564 5.53918515,14.0029706 C4.40159933,12.8653848 4.40159933,11.0209938 5.53918515,9.88340793 L10.7405127,4.68208035 C12.7149899,2.70760321 15.9162498,2.70760321 17.890727,4.68208035 C19.8652041,6.65655749 19.8652041,9.85781744 17.890727,11.8322946 L12.2160146,17.507007 C9.55869055,20.164331 5.25031705,20.164331 2.59299302,17.507007 C-0.0643310069,14.849683 -0.0643310069,10.5413094 2.59299302,7.88398542 L9.75748737,0.719491072 C10.0501421,0.426836309 10.5246293,0.426836309 10.817284,0.719491072 C11.1099388,1.01214584 11.1099388,1.48663296 10.817284,1.77928772 L3.65278967,8.94378207 C1.58077517,11.0157966 1.58077517,14.3751958 3.65278967,16.4472103 C5.72480417,18.5192248 9.08420343,18.5192248 11.1562179,16.4472103 L16.8309303,10.7724979 C18.2200979,9.38333032 18.2200979,7.13104461 16.8309303,5.74187699 C15.4417627,4.35270938 13.189477,4.35270938 11.8003094,5.74187699 L6.5989818,10.9432046 C6.0467055,11.4954809 6.0467055,12.3908977 6.5989818,12.943174 C7.15125809,13.4954503 8.04667489,13.4954503 8.59895118,12.943174 L13.1638804,8.37824475 Z" id="路径" fill="#29BECE" fill-rule="nonzero"></path>
        </g>
    </g>
</svg>