<?xml version="1.0" encoding="UTF-8"?>
<svg width="12px" height="12px" viewBox="0 0 12 12" version="1.1" xmlns="http://www.w3.org/2000/svg" xmlns:xlink="http://www.w3.org/1999/xlink">
    <!-- Generator: Sketch 52.2 (67145) - http://www.bohemiancoding.com/sketch -->
    <title>date</title>
    <desc>Created with Sketch.</desc>
    <g id="工作台" stroke="none" stroke-width="1" fill="none" fill-rule="evenodd">
        <g id="供应商报价-切换视图" transform="translate(-774.000000, -433.000000)" fill="#D9D9D9" fill-rule="nonzero">
            <g id="分组-10" transform="translate(558.000000, 425.000000)">
                <path d="M224,10 L220,10 L220,10.5 C220,10.7761424 219.776142,11 219.5,11 C219.223858,11 219,10.7761424 219,10.5 L219,10 L217,10 L217,12 L227,12 L227,10 L225,10 L225,10.5 C225,10.7761424 224.776142,11 224.5,11 C224.223858,11 224,10.7761424 224,10.5 L224,10 Z M225,9 L227,9 C227.552285,9 228,9.44771525 228,10 L228,19 C228,19.5522847 227.552285,20 227,20 L217,20 C216.447715,20 216,19.5522847 216,19 L216,10 C216,9.44771525 216.447715,9 217,9 L219,9 L219,8.5 C219,8.22385763 219.223858,8 219.5,8 C219.776142,8 220,8.22385763 220,8.5 L220,9 L224,9 L224,8.5 C224,8.22385763 224.223858,8 224.5,8 C224.776142,8 225,8.22385763 225,8.5 L225,9 Z M217,13 L217,19 L227,19 L227,13 L217,13 Z M218.5,14 L220.5,14 C220.776142,14 221,14.2238576 221,14.5 C221,14.7761424 220.776142,15 220.5,15 L218.5,15 C218.223858,15 218,14.7761424 218,14.5 C218,14.2238576 218.223858,14 218.5,14 Z M218.5,17 L220.5,17 C220.776142,17 221,17.2238576 221,17.5 C221,17.7761424 220.776142,18 220.5,18 L218.5,18 C218.223858,18 218,17.7761424 218,17.5 C218,17.2238576 218.223858,17 218.5,17 Z M223.5,17 L225.5,17 C225.776142,17 226,17.2238576 226,17.5 C226,17.7761424 225.776142,18 225.5,18 L223.5,18 C223.223858,18 223,17.7761424 223,17.5 C223,17.2238576 223.223858,17 223.5,17 Z" id="date"></path>
            </g>
        </g>
    </g>
</svg>