<?xml version="1.0" encoding="UTF-8"?>
<svg width="300px" height="167px" viewBox="0 0 300 167" version="1.1" xmlns="http://www.w3.org/2000/svg" xmlns:xlink="http://www.w3.org/1999/xlink">
    <title>暂无阶梯</title>
    <defs>
        <rect id="path-1" x="116" y="96" width="108" height="53" rx="2"></rect>
        <filter x="-4.6%" y="-7.5%" width="109.3%" height="118.9%" filterUnits="objectBoundingBox" id="filter-2">
            <feOffset dx="0" dy="1" in="SourceAlpha" result="shadowOffsetOuter1"></feOffset>
            <feGaussianBlur stdDeviation="1.5" in="shadowOffsetOuter1" result="shadowBlurOuter1"></feGaussianBlur>
            <feColorMatrix values="0 0 0 0 0.317647059   0 0 0 0 0.345098039   0 0 0 0 0.454901961  0 0 0 0.1 0" type="matrix" in="shadowBlurOuter1"></feColorMatrix>
        </filter>
        <rect id="path-3" x="200" y="100" width="20" height="6" rx="1"></rect>
        <rect id="path-4" x="200" y="113" width="20" height="6" rx="1"></rect>
        <rect id="path-5" x="200" y="126" width="20" height="6" rx="1"></rect>
        <rect id="path-6" x="200" y="139" width="20" height="6" rx="1"></rect>
        <rect id="path-7" x="155" y="6" width="120" height="88" rx="2"></rect>
        <filter x="-16.7%" y="-18.2%" width="133.3%" height="145.5%" filterUnits="objectBoundingBox" id="filter-8">
            <feOffset dx="0" dy="4" in="SourceAlpha" result="shadowOffsetOuter1"></feOffset>
            <feGaussianBlur stdDeviation="6" in="shadowOffsetOuter1" result="shadowBlurOuter1"></feGaussianBlur>
            <feColorMatrix values="0 0 0 0 0.317647059   0 0 0 0 0.345098039   0 0 0 0 0.454901961  0 0 0 0.2 0" type="matrix" in="shadowBlurOuter1" result="shadowMatrixOuter1"></feColorMatrix>
            <feOffset dx="0" dy="1" in="SourceAlpha" result="shadowOffsetOuter2"></feOffset>
            <feGaussianBlur stdDeviation="1.5" in="shadowOffsetOuter2" result="shadowBlurOuter2"></feGaussianBlur>
            <feColorMatrix values="0 0 0 0 0.317647059   0 0 0 0 0.345098039   0 0 0 0 0.454901961  0 0 0 0.05 0" type="matrix" in="shadowBlurOuter2" result="shadowMatrixOuter2"></feColorMatrix>
            <feMerge>
                <feMergeNode in="shadowMatrixOuter1"></feMergeNode>
                <feMergeNode in="shadowMatrixOuter2"></feMergeNode>
            </feMerge>
        </filter>
    </defs>
    <g id="公式管理" stroke="none" stroke-width="1" fill="none" fill-rule="evenodd">
        <g id="编组-34备份" transform="translate(0, 2)">
            <rect id="矩形" x="0" y="0" width="300" height="165"></rect>
            <rect id="矩形" fill="#F1F4F8" x="60" y="37" width="180" height="128" rx="2"></rect>
            <path d="M62,37 L238,37 C239.104569,37 240,37.8954305 240,39 L240,49 L240,49 L60,49 L60,39 C60,37.8954305 60.8954305,37 62,37 Z" id="矩形备份" fill="#E4E7EB"></path>
            <circle id="椭圆形" fill="#FFFFFF" cx="70" cy="43" r="2"></circle>
            <circle id="椭圆形备份" fill="#FFFFFF" cx="78" cy="43" r="2"></circle>
            <circle id="椭圆形备份-2" fill="#FFFFFF" cx="86" cy="43" r="2"></circle>
            <rect id="矩形" fill="#FFFFFF" opacity="0.903227307" x="68" y="57" width="164" height="100" rx="2"></rect>
            <path d="M70,57 L108,57 L108,57 L108,157 L70,157 C68.8954305,157 68,156.104569 68,155 L68,59 C68,57.8954305 68.8954305,57 70,57 Z" id="矩形" fill="#EAEEF1"></path>
            <rect id="矩形" fill="#FFFFFF" x="74" y="63" width="6" height="6" rx="1"></rect>
            <rect id="矩形" fill="#FFFFFF" x="84" y="64" width="18" height="4" rx="1"></rect>
            <rect id="矩形备份-3" fill="#FFFFFF" x="74" y="77" width="24" height="4" rx="1"></rect>
            <rect id="矩形备份-4" fill="#FFFFFF" x="74" y="89" width="28" height="4" rx="1"></rect>
            <rect id="矩形备份-5" fill="#FFFFFF" x="74" y="101" width="16" height="4" rx="1"></rect>
            <rect id="矩形备份-6" fill="#FFFFFF" x="74" y="113" width="28" height="4" rx="1"></rect>
            <rect id="矩形" fill="#F1F4F8" x="116" y="65" width="23" height="23" rx="1"></rect>
            <rect id="矩形" fill="#EAEEF1" x="143" y="65" width="24" height="8" rx="1"></rect>
            <rect id="矩形备份-3" fill="#EAEEF1" x="143" y="80" width="24" height="8" rx="1"></rect>
            <rect id="矩形备份-4" fill="#F1F4F8" x="171" y="80" width="24" height="8" rx="1"></rect>
            <rect id="矩形备份-5" fill="#F1F4F8" x="199" y="80" width="25" height="8" rx="1"></rect>
            <polygon id="路径" points="120 69 135 69 135 84 120 84"></polygon>
            <path d="M128.38375,72.125 L132.5,72.125 C132.845178,72.125 133.125,72.404822 133.125,72.75 L133.125,73.375 L121.875,73.375 L121.875,71.5 C121.875,71.154822 122.154822,70.875 122.5,70.875 L127.13375,70.875 L128.38375,72.125 Z M121.929375,74.6249999 L133.070625,74.6249999 C133.245452,74.6249212 133.412319,74.6980701 133.530728,74.8266925 C133.649137,74.9553148 133.708261,75.1276517 133.69375,75.301875 L133.1725,81.551875 C133.14553,81.8756883 132.874934,82.1248214 132.55,82.1249999 L122.45,82.1249999 C122.125066,82.1248214 121.85447,81.8756883 121.8275,81.551875 L121.30625,75.301875 C121.291739,75.1276517 121.350863,74.9553148 121.469272,74.8266925 C121.587681,74.6980701 121.754548,74.6249212 121.929375,74.6249999 Z" id="形状" fill="#E4E7EB" fill-rule="nonzero"></path>
            <g id="矩形" opacity="0.901739211">
                <use fill="black" fill-opacity="1" filter="url(#filter-2)" xlink:href="#path-1"></use>
                <use fill="#FFFFFF" fill-rule="evenodd" xlink:href="#path-1"></use>
            </g>
            <circle id="椭圆形" fill="#DDEDFE" cx="123" cy="103" r="3"></circle>
            <circle id="椭圆形备份" fill="#E2F4E3" cx="123" cy="116" r="3"></circle>
            <circle id="椭圆形备份-2" fill="#FDE6E1" cx="123" cy="129" r="3"></circle>
            <circle id="椭圆形备份-3" fill="#FFEBD9" cx="123" cy="142" r="3"></circle>
            <rect id="矩形" fill="#EAEEF1" x="130" y="100" width="48" height="6" rx="1"></rect>
            <rect id="矩形备份-6" fill="#EAEEF1" x="184" y="100" width="12" height="6" rx="1"></rect>
            <g id="矩形备份-10">
                <use fill="currentColor" xlink:href="#path-3"></use>
                <use fill-opacity="0.8" fill="#FFFFFF" xlink:href="#path-3"></use>
            </g>
            <rect id="矩形备份-3" fill="#EAEEF1" x="130" y="113" width="48" height="6" rx="1"></rect>
            <rect id="矩形备份-7" fill="#EAEEF1" x="184" y="113" width="12" height="6" rx="1"></rect>
            <g id="矩形备份-11">
                <use fill="currentColor" xlink:href="#path-4"></use>
                <use fill-opacity="0.8" fill="#FFFFFF" xlink:href="#path-4"></use>
            </g>
            <rect id="矩形备份-4" fill="#EAEEF1" x="130" y="126" width="48" height="6" rx="1"></rect>
            <rect id="矩形备份-8" fill="#EAEEF1" x="184" y="126" width="12" height="6" rx="1"></rect>
            <g id="矩形备份-12">
                <use fill="currentColor" xlink:href="#path-5"></use>
                <use fill-opacity="0.8" fill="#FFFFFF" xlink:href="#path-5"></use>
            </g>
            <rect id="矩形备份-5" fill="#EAEEF1" x="130" y="139" width="48" height="6" rx="1"></rect>
            <rect id="矩形备份-9" fill="#EAEEF1" x="184" y="139" width="12" height="6" rx="1"></rect>
            <g id="矩形备份-13">
                <use fill="currentColor" xlink:href="#path-6"></use>
                <use fill-opacity="0.8" fill="#FFFFFF" xlink:href="#path-6"></use>
            </g>
            <g id="矩形">
                <use fill="black" fill-opacity="1" filter="url(#filter-8)" xlink:href="#path-7"></use>
                <use fill="#FFFFFF" fill-rule="evenodd" xlink:href="#path-7"></use>
            </g>
            <rect id="矩形" fill="currentColor" x="163" y="14" width="24" height="8" rx="1"></rect>
            <rect id="矩形备份-17" fill="#E9ECF0" x="163" y="30" width="24" height="8" rx="1"></rect>
            <rect id="矩形备份-21" fill="#E9ECF0" x="204" y="14" width="16" height="8" rx="1"></rect>
            <rect id="矩形备份-18" fill="#E9ECF0" x="163" y="46" width="24" height="8" rx="1"></rect>
            <rect id="矩形备份-19" fill="#E9ECF0" x="163" y="62" width="24" height="8" rx="1"></rect>
            <rect id="矩形" fill="#F1F4F8" x="204" y="34" width="12" height="12" rx="1"></rect>
            <rect id="矩形备份-22" fill="#F1F4F8" x="204" y="54" width="12" height="12" rx="1"></rect>
            <rect id="矩形" fill="#F1F4F8" x="220" y="34" width="47" height="6" rx="1"></rect>
            <rect id="矩形备份-23" fill="#F1F4F8" x="220" y="54" width="47" height="6" rx="1"></rect>
            <rect id="矩形" fill="#F1F4F8" x="220" y="44" width="21" height="2" rx="1"></rect>
            <rect id="矩形备份-24" fill="#F1F4F8" x="220" y="64" width="21" height="2" rx="1"></rect>
            <rect id="矩形" fill="#FFFFFF" x="207" y="37" width="6" height="6" rx="1"></rect>
            <rect id="矩形备份-25" fill="#FFFFFF" x="207" y="57" width="6" height="6" rx="1"></rect>
            <rect id="矩形备份-29" fill="#F1F4F8" x="204" y="74" width="12" height="12" rx="1"></rect>
            <rect id="矩形备份-28" fill="#F1F4F8" x="220" y="74" width="47" height="6" rx="1"></rect>
            <rect id="矩形备份-27" fill="#F1F4F8" x="220" y="84" width="21" height="2" rx="1"></rect>
            <rect id="矩形备份-26" fill="#FFFFFF" x="207" y="77" width="6" height="6" rx="1"></rect>
            <line x1="195.5" y1="6" x2="195.5" y2="94" id="路径-6" stroke="#F1F4F8"></line>
            <rect id="矩形备份-20" fill="currentColor" x="195" y="14" width="1" height="8" rx="0.5"></rect>
            <rect id="矩形" fill="currentColor" x="251" y="14" width="16" height="8" rx="4"></rect>
            <circle id="椭圆形" fill="#FFFFFF" cx="263" cy="18" r="3"></circle>
        </g>
    </g>
</svg>