<?xml version="1.0" encoding="UTF-8"?>
<svg width="15px" height="14px" viewBox="0 0 15 14" version="1.1" xmlns="http://www.w3.org/2000/svg" xmlns:xlink="http://www.w3.org/1999/xlink">
    <!-- Generator: Sketch 52.2 (67145) - http://www.bohemiancoding.com/sketch -->
    <title>合并形状</title>
    <desc>Created with Sketch.</desc>
    <g id="Page-1" stroke="none" stroke-width="1" fill="none" fill-rule="evenodd">
        <path d="M9.28589057,0.0402278725 C9.57234827,0.0402278725 9.80456813,0.274377802 9.80456813,0.563216378 C9.80456813,0.852054954 9.57234827,1.08620488 9.28589057,1.08620488 L2.21562577,1.08620488 C1.84102723,1.08620488 1.53735512,1.39240095 1.53735512,1.77011293 L1.53735512,12.2704645 C1.53735512,12.6481765 1.84102723,12.9543725 2.21562577,12.9543725 L12.7141588,12.9543725 C13.0887574,12.9543725 13.3924295,12.6481765 13.3924295,12.2704645 L13.3924295,4.76971441 C13.3924295,4.48087583 13.6246493,4.2467259 13.911107,4.2467259 C14.1975647,4.2467259 14.4297846,4.48087583 14.4297846,4.76971441 L14.4297846,12.2704645 C14.4297846,13.2258536 13.6616728,14.0003496 12.7141588,14.0003496 L2.21562577,14.0003496 C1.26811182,14.0003496 0.5,13.2258536 0.5,12.2704645 L0.5,1.77011293 C0.5,0.814723794 1.26811182,0.0402278725 2.21562577,0.0402278725 L9.28589057,0.0402278725 Z M6.92353387,8.58667372 C6.70758411,8.80880812 6.35393106,8.81236675 6.13362769,8.59462214 C5.91332432,8.37687752 5.90979502,8.02028511 6.12574479,7.79815071 L13.5425295,0.168954874 C13.7584792,-0.0531795325 14.1121323,-0.0567381609 14.3324356,0.161006455 C14.552739,0.378751071 14.5562683,0.735343476 14.3403185,0.957477882 L6.92353387,8.58667372 Z" id="合并形状" fill="#29BECE" fill-rule="nonzero"></path>
    </g>
</svg>