<?xml version="1.0" encoding="UTF-8"?>
<svg width="44px" height="44px" viewBox="0 0 44 44" version="1.1" xmlns="http://www.w3.org/2000/svg" xmlns:xlink="http://www.w3.org/1999/xlink">
    <title>供应商-过程添加-无效</title>
    <g id="页面-1" stroke="none" stroke-width="1" fill="none" fill-rule="evenodd">
        <g id="供应商-过程添加-无效" fill-rule="nonzero">
            <rect id="矩形-copy-3" fill="#D8D8D8" opacity="0" x="0" y="0" width="44" height="44"></rect>
            <path d="M7.77961866,18.180288 C8.40834658,18.300486 9.0139595,17.8890391 9.12953449,17.2603112 C10.3546293,10.852834 15.9854426,6.19747357 22.5269868,6.19747357 C26.1699103,6.19747357 29.5955529,7.61673439 32.1705636,10.1917451 C34.7455742,12.7667557 36.164835,16.1923983 36.164835,19.8353218 C36.164835,20.7275607 36.0769981,21.6197996 35.9059471,22.4889235 C35.7811261,23.1130284 36.18795,23.7232643 36.816678,23.8480853 C36.890646,23.8619543 36.9692369,23.8712003 37.0432049,23.8712003 C37.5840959,23.8712003 38.0695108,23.4874914 38.1758398,22.9373544 C38.3746288,21.9249176 38.4763348,20.8801197 38.4763348,19.8399448 C38.4763348,17.6856271 38.0556418,15.6006544 37.2235019,13.6312566 C36.4191,11.7312039 35.2725962,10.0253171 33.8071053,8.55982627 C32.3416145,7.09433545 30.6357278,5.9478316 28.735675,5.1434297 C26.7709002,4.31128981 24.6813045,3.89059686 22.5269868,3.89059686 C14.8805458,3.89059686 8.29277159,9.33186717 6.85964178,16.8303722 C6.73944379,17.4544771 7.15089074,18.0600901 7.77961866,18.180288 Z" id="路径" fill="#AAAAAA"></path>
            <path d="M10.351139,22.5063962 C11.7716514,22.5063962 12.939817,23.5969851 13.0737919,24.98397 L13.0848547,25.1517801 L24.31865,25.1517801 C24.9165149,25.1517801 25.4017386,25.6374899 25.4017386,26.2359538 C25.4017386,26.7945201 24.9790549,27.2548651 24.4366107,27.3137619 L24.31865,27.3201275 L13.0891871,27.3201275 L13.0883121,30.4502803 C11.8096675,31.5506182 10.9999998,33.180755 10.9999998,34.9999998 C10.9999998,36.5048276 11.553985,37.8802652 12.4691374,38.9334948 C12.002748,39.5056566 11.3092808,39.8843733 10.5277824,39.9342856 L10.351139,39.9399097 L6.82027006,39.9399097 C5.36427802,39.9399097 4.17343322,38.7978301 4.08721974,37.3656134 L4.082222,37.1991185 L4.082222,25.2471874 C4.082222,23.7897366 5.22315856,22.5976988 6.65394181,22.5113989 L6.82027006,22.5063962 L10.351139,22.5063962 Z M10.299116,24.6855854 L6.82421692,24.6855854 C6.54409316,24.6855854 6.31231953,24.8924929 6.26876604,25.1642782 L6.26141119,25.2570813 L6.26141119,37.1892245 C6.26141119,37.4736737 6.46517245,37.7090261 6.73282495,37.7532521 L6.82421692,37.7607205 L10.299116,37.7607205 C10.5792397,37.7607205 10.8110134,37.553813 10.8545669,37.2820277 L10.8619217,37.1892245 L10.8619217,25.2570813 C10.8619217,24.9410267 10.6103646,24.6855854 10.299116,24.6855854 Z M39.5901997,28.4259847 C39.7287596,28.7066077 39.8241788,29.0004258 39.8748976,29.2994091 C39.284612,29.1048103 38.6545458,28.9999998 37.9999998,28.9999998 L37.9999998,28.9999998 L37.2818652,28.9994373 C37.0906549,28.8908502 36.8618573,28.8520333 36.637334,28.9016735 L36.527225,28.933378 L36.338222,28.9993962 L29.849222,28.9993962 L35.8037218,26.8907947 C37.2680577,26.3703913 38.897023,27.029569 39.5901997,28.4259847 Z" id="形状结合" fill="#AAAAAA"></path>
            <path d="M12.568,34.528 C13.984,33.816 15.128,32.976 16,32.008 C16.944,33.024 18.072,33.848 19.4,34.488 L19.688,33.976 C18.376,33.368 17.216,32.544 16.208,31.488 L15.792,31.488 C14.864,32.496 13.696,33.344 12.288,34.024 L12.568,34.528 Z M19.336,38.56 L19.336,37.992 L16.296,37.992 L16.296,36.512 L18.608,36.512 L18.608,35.96 L16.296,35.96 L16.296,34.568 L18.232,34.568 L18.232,34.016 L13.768,34.016 L13.768,34.568 L15.704,34.568 L15.704,35.96 L13.384,35.96 L13.384,36.512 L15.704,36.512 L15.704,37.992 L12.672,37.992 L12.672,38.56 L19.336,38.56 Z M24.36,32.8 L24.36,32.24 L22.728,32.24 C22.64,31.936 22.552,31.656 22.464,31.416 L21.872,31.52 C21.976,31.736 22.072,31.976 22.168,32.24 L20.56,32.24 L20.56,32.8 L24.36,32.8 Z M25.344,38.784 L25.344,32.328 L26.776,32.328 C26.52,33.192 26.256,33.944 25.992,34.576 C26.616,35.344 26.936,35.96 26.944,36.432 C26.936,36.72 26.896,36.912 26.816,37.016 C26.736,37.112 26.552,37.168 26.264,37.184 C26.112,37.184 25.928,37.168 25.704,37.152 L25.888,37.76 C26.544,37.76 26.984,37.656 27.208,37.464 C27.416,37.272 27.52,36.928 27.52,36.432 C27.512,35.952 27.208,35.328 26.608,34.576 C26.896,33.856 27.16,33.072 27.408,32.232 L27.408,31.8 L24.784,31.8 L24.784,38.784 L25.344,38.784 Z M24.416,35 L24.416,34.44 L23.448,34.44 C23.656,34.08 23.84,33.672 24.008,33.216 L23.472,33.032 C23.312,33.528 23.112,34 22.88,34.44 L22.04,34.44 C21.88,33.912 21.696,33.464 21.504,33.096 L20.976,33.288 C21.176,33.64 21.344,34.024 21.488,34.44 L20.408,34.44 L20.408,35 L24.416,35 Z M21.432,38.744 L21.432,38.296 L23.48,38.296 L23.48,38.744 L24.048,38.744 L24.048,35.728 L20.864,35.728 L20.864,38.744 L21.432,38.744 Z M23.48,37.752 L21.432,37.752 L21.432,36.272 L23.48,36.272 L23.48,37.752 Z M34.024,38.72 C34.728,38.72 35.12,38.368 35.216,37.672 C35.304,36.984 35.352,35.16 35.352,32.192 L31.64,32.192 C31.744,31.936 31.832,31.672 31.912,31.4 L31.368,31.336 C31.112,32.264 30.632,33.04 29.92,33.68 L30.264,34.128 C30.712,33.72 31.088,33.248 31.384,32.72 L34.816,32.72 C34.808,35.408 34.768,37.008 34.688,37.52 C34.616,37.976 34.368,38.208 33.936,38.208 C33.616,38.208 33.24,38.192 32.808,38.176 L32.936,38.696 C33.448,38.712 33.816,38.72 34.024,38.72 Z M29.768,33.024 L30.168,32.624 C29.816,32.256 29.376,31.896 28.848,31.536 L28.44,31.928 C29.008,32.312 29.448,32.68 29.768,33.024 Z M34.144,37.544 L34.144,36.024 L33.648,36.024 L33.648,37.072 L32.856,37.072 L32.856,35.552 L34.416,35.552 L34.416,35.048 L32.856,35.048 L32.856,34.232 L34.192,34.232 L34.192,33.728 L31.92,33.728 C32.008,33.552 32.088,33.36 32.168,33.16 L31.672,33.056 C31.48,33.584 31.16,34.072 30.728,34.512 L31.168,34.8 C31.328,34.624 31.472,34.432 31.616,34.232 L32.32,34.232 L32.32,35.048 L30.592,35.048 L30.592,35.552 L32.32,35.552 L32.32,37.072 L31.464,37.072 L31.464,36.04 L30.96,36.04 L30.96,37.544 L34.144,37.544 Z M29.736,35.08 L30.136,34.68 C29.776,34.288 29.328,33.896 28.792,33.512 L28.384,33.904 C28.96,34.32 29.408,34.712 29.736,35.08 Z M29,38.68 C29.464,37.784 29.88,36.832 30.264,35.816 L29.768,35.624 C29.408,36.584 28.976,37.528 28.472,38.456 L29,38.68 Z M43.336,38.8 L43.728,38.368 C42.496,37.32 41.688,35.832 41.312,33.896 L43.408,33.896 L43.408,33.328 L41.216,33.328 L41.184,33.144 C41.2,32.512 41.208,31.96 41.208,31.488 L40.64,31.488 C40.64,31.928 40.624,32.544 40.608,33.328 L38.44,33.328 L38.44,33.896 L40.592,33.896 L40.592,33.904 C40.432,35.616 39.592,37.104 38.072,38.368 L38.456,38.8 C38.984,38.36 39.448,37.864 39.848,37.32 C40.184,37.672 40.528,38.088 40.864,38.552 L41.256,38.152 C40.84,37.624 40.472,37.208 40.136,36.896 C40.536,36.24 40.84,35.512 41.032,34.712 C41.4,36.376 42.168,37.736 43.336,38.8 Z M37.936,33.016 L38.328,32.616 C37.992,32.264 37.584,31.92 37.104,31.576 L36.696,31.968 C37.216,32.336 37.632,32.68 37.936,33.016 Z M37.776,35.072 L38.176,34.672 C37.824,34.272 37.384,33.88 36.864,33.488 L36.456,33.88 C37.016,34.296 37.456,34.696 37.776,35.072 Z M37.12,38.728 C37.6,37.832 38.04,36.88 38.44,35.864 L37.944,35.664 C37.56,36.632 37.104,37.576 36.584,38.496 L37.12,38.728 Z" id="全部淘汰" fill="#AAAAAA"></path>
            <path d="M19.3507338,11.0691998 L20.8522367,11.5066455 C20.5842506,12.3736595 20.2886821,13.2051922 19.9655224,14.0012686 L19.9655224,22.5255492 L18.5113108,22.5255492 L18.5113108,17.0042745 C18.2196789,17.5166009 17.9122876,18.0092151 17.5891279,18.4821318 C17.4866626,17.8515762 17.3290261,17.1422118 17.1162136,16.3540173 C17.9989914,14.974677 18.743824,13.2130888 19.3507338,11.0691998 Z M20.4857281,17.2880231 L22.1527511,17.2880231 L22.1527511,14.7579315 L20.8640596,14.7579315 L20.8640596,13.2446057 L22.1527511,13.2446057 L22.1527511,11.1164912 L23.7606598,11.1164912 L23.7606598,13.2446057 L25.5932028,13.2446057 L25.5932028,11.1164912 L27.2011115,11.1164912 L27.2011115,13.2446057 L28.5134487,13.2446057 L28.5134487,14.7579315 L27.2011115,14.7579315 L27.2011115,17.2880231 L28.8444887,17.2880231 L28.8444887,18.8013489 L20.4857281,18.8013489 L20.4857281,17.2880231 Z M23.7606598,17.2880231 L25.5932028,17.2880231 L25.5932028,14.7579315 L23.7606598,14.7579315 L23.7606598,17.2880231 Z M20.5093738,21.6033663 C21.3527419,20.791526 22.1133382,19.9087614 22.7911854,18.9550461 L24.1271684,19.8417604 C23.4493211,20.7481841 22.6453748,21.6821805 21.7153054,22.6437778 C21.3921456,22.3363819 20.9901725,21.9895816 20.5093738,21.6033663 Z M26.3498657,19.0023375 C27.169588,19.8141778 27.9892979,20.6772378 28.8090202,21.5915434 L27.4375686,22.6201321 C26.7912492,21.7215904 26.0227711,20.8033576 25.1321113,19.8654062 L26.3498657,19.0023375 Z" id="供" fill="#AAAAAA"></path>
        </g>
    </g>
</svg>