<?xml version="1.0" encoding="UTF-8"?>
<svg width="36px" height="36px" viewBox="0 0 36 36" version="1.1" xmlns="http://www.w3.org/2000/svg" xmlns:xlink="http://www.w3.org/1999/xlink">
    <!-- Generator: Sketch 52.2 (67145) - http://www.bohemiancoding.com/sketch -->
    <title>专家</title>
    <desc>Created with Sketch.</desc>
    <g id="Page-1" stroke="none" stroke-width="1" fill="none" fill-rule="evenodd">
        <g id="专家" fill="#0687FF" fill-rule="nonzero">
            <path d="M18.9410324,23.8381758 L19.9727679,18.7352679 L20.278125,19.2013393 L23.5526786,19.8522321 C24.9910714,21.2142857 25.9151786,24.4245536 25.6861607,26.5058036 L18.1605487,26.5058036 L18.140625,26.5700893 L18.1193583,26.5058036 L10.1450893,26.5058036 C10.18125,24.6696429 10.51875,21.5276786 12.3508929,19.9325893 L15.4285714,19.1933036 L15.7700893,18.7272321 C15.2598214,18.4339286 14.8861607,17.9959821 14.596875,17.4696429 C14.3116071,16.9553571 14.1066964,16.3566964 13.9299107,15.7258929 C13.6366071,15.5732143 13.4196429,15.3120536 13.2709821,14.9584821 C13.1102679,14.5727679 13.0379464,14.0665179 13.0459821,13.4638393 L13.05,13.2589286 L13.21875,13.1464286 C13.2589286,13.1183036 13.303125,13.0901786 13.3473214,13.0660714 C13.1584821,10.7035714 13.2308036,9.82767857 14.1066964,8.83125 C15.8183036,7.43303571 19.7397321,7.48125 21.4714286,8.75089286 C22.6526786,9.86383929 22.7330357,11.1133929 22.3714286,13.0419643 C22.4276786,13.0741071 22.4839286,13.10625 22.5401786,13.1464286 L22.7089286,13.2629464 L22.7129464,13.4678571 C22.7209821,14.0584821 22.6526786,14.5566964 22.4959821,14.9424107 C22.3553571,15.2919643 22.1424107,15.5571429 21.8611607,15.7138393 C21.6723214,16.4008929 21.4473214,17.0357143 21.1258929,17.5700893 C20.8285714,18.0642857 20.4589286,18.4660714 19.9727679,18.7352679 C19.8522321,18.8035714 19.7236607,18.8598214 19.5870536,18.9120536 C19.2816964,19.0245536 18.4982143,19.0767857 17.7428571,19.0647321 C17.015625,19.0526786 16.284375,18.9803571 15.9950893,18.8477679 C15.91875,18.8116071 15.8464286,18.7714286 15.7741071,18.73125 L17.2366071,23.8540179 L17.6765703,20.9582606 L17.38125,20.4709821 L17.3819321,20.4556344 L17.3571429,20.4147321 L17.38125,19.8723214 C17.9919643,19.8401786 18.1727679,19.8401786 18.7834821,19.8723214 L18.7859317,19.9274357 L18.8075893,19.9285714 L18.8316964,20.4709821 L18.5102679,21.0013393 L18.9410324,23.8381758 Z M17.9357143,0.0160714286 C27.815625,0.0160714286 35.8553571,8.05580357 35.8553571,17.9357143 C35.8553571,27.815625 27.815625,35.8553571 17.9357143,35.8553571 C8.05580357,35.8553571 0.0160714286,27.815625 0.0160714286,17.9357143 C0.0160714286,8.05580357 8.05580357,0.0160714286 17.9357143,0.0160714286 Z M17.9357143,34.509375 C27.0723214,34.509375 34.509375,27.0763393 34.509375,17.9357143 C34.509375,8.79508929 27.0763393,1.36205357 17.9357143,1.36205357 C8.79508929,1.36205357 1.36205357,8.79508929 1.36205357,17.9357143 C1.36205357,27.0763393 8.79910714,34.509375 17.9357143,34.509375 Z M15.2879464,17.1 C15.5410714,17.5620536 15.8705357,17.9276786 16.3205357,18.1366071 C16.509375,18.2209821 17.1120536,18.2732143 17.746875,18.28125 C18.421875,18.2892857 19.0928571,18.253125 19.3138393,18.1727679 C19.8120536,17.9879464 20.1736607,17.634375 20.4508929,17.1683036 C20.7482143,16.6660714 20.9611607,16.03125 21.15,15.3321429 L21.2022321,15.13125 L21.3991071,15.0629464 C21.5558036,15.0066964 21.6763393,14.8660714 21.7647321,14.6491071 C21.8611607,14.4080357 21.9174107,14.0866071 21.9254464,13.7008929 C21.8973214,13.6848214 21.8651786,13.6727679 21.8370536,13.6647321 C21.76875,13.640625 21.7004464,13.6285714 21.6361607,13.6325893 L21.290625,13.6566964 L21.2263393,13.3151786 C21.1540179,12.9294643 21.0334821,12.5598214 20.8647321,12.20625 C19.7558036,12.4232143 18.1084821,12.6120536 16.8026786,11.8808036 C16.3004464,11.5995536 15.5651786,12.178125 14.9665179,12.1178571 C14.7816964,12.4875 14.6410714,12.8933036 14.5607143,13.3191964 L14.4924107,13.6727679 L14.1348214,13.6366071 C14.0705357,13.6285714 14.0022321,13.6366071 13.9299107,13.6607143 C13.8977679,13.6727679 13.865625,13.6848214 13.8334821,13.7008929 C13.8415179,14.0946429 13.8977679,14.4200893 13.9982143,14.6651786 C14.0866071,14.8821429 14.2151786,15.01875 14.3758929,15.0709821 L14.5848214,15.1352679 L14.6410714,15.3441964 C14.8178571,15.9910714 15.0147321,16.6017857 15.2879464,17.1 Z" id="形状"></path>
        </g>
    </g>
</svg>