<?xml version="1.0" encoding="UTF-8"?>
<svg width="12px" height="12px" viewBox="0 0 12 12" version="1.1" xmlns="http://www.w3.org/2000/svg" xmlns:xlink="http://www.w3.org/1999/xlink">
    <!-- Generator: Sketch 52.2 (67145) - http://www.bohemiancoding.com/sketch -->
    <title>export</title>
    <desc>Created with Sketch.</desc>
    <g id="工作台" stroke="none" stroke-width="1" fill="none" fill-rule="evenodd">
        <g id="我发出的订单" transform="translate(-1368.000000, -66.000000)" fill="#FFFFFF" fill-rule="nonzero">
            <g id="按钮组1" transform="translate(1144.000000, 58.000000)">
                <g id="btn-保存" transform="translate(208.000000, 0.000000)">
                    <path d="M21,8 L21,9 L17,9 L17,19 L27,19 L27,15 L28,15 L28,19 C28,19.5522847 27.5522847,20 27,20 L17,20 C16.4477153,20 16,19.5522847 16,19 L16,9 C16,8.44771525 16.4477153,8 17,8 L21,8 Z M27.3033009,8.64644661 L27.3033009,8.64644661 C27.498563,8.84170876 27.498563,9.15829124 27.3033009,9.35355339 L22.3535534,14.3033009 C22.1582912,14.498563 21.8417088,14.498563 21.6464466,14.3033009 L21.6464466,14.3033009 C21.4511845,14.1080387 21.4511845,13.7914562 21.6464466,13.5961941 L26.5961941,8.64644661 C26.7914562,8.45118446 27.1080387,8.45118446 27.3033009,8.64644661 Z M24.5,8 L27.5,8 C27.7761424,8 28,8.22385763 28,8.5 L28,8.5 C28,8.77614237 27.7761424,9 27.5,9 L24.5,9 C24.2238576,9 24,8.77614237 24,8.5 L24,8.5 C24,8.22385763 24.2238576,8 24.5,8 Z M27.5,8 L27.5,8 C27.7761424,8 28,8.22385763 28,8.5 L28,11.5 C28,11.7761424 27.7761424,12 27.5,12 L27.5,12 C27.2238576,12 27,11.7761424 27,11.5 L27,8.5 C27,8.22385763 27.2238576,8 27.5,8 Z" id="export"></path>
                </g>
            </g>
        </g>
    </g>
</svg>