<?xml version="1.0" encoding="UTF-8"?>
<svg width="16px" height="16px" viewBox="0 0 16 16" version="1.1" xmlns="http://www.w3.org/2000/svg" xmlns:xlink="http://www.w3.org/1999/xlink">
    <!-- Generator: Sketch 52.2 (67145) - http://www.bohemiancoding.com/sketch -->
    <title>分组</title>
    <desc>Created with Sketch.</desc>
    <g id="Page-1" stroke="none" stroke-width="1" fill="none" fill-rule="evenodd">
        <g id="分组">
            <path d="M13.8992018,2.88654898 C13.5559732,2.55179413 13.1819495,2.31446413 12.775541,2.17409792 C12.3708335,2.03479691 11.9585903,1.97912103 11.5393518,2.00695897 C11.1202087,2.03479691 10.7079655,2.14446346 10.3032263,2.33481395 C9.8979783,2.52503726 9.52459055,2.78793174 9.1812983,3.1226548 L5.19406529,7.00073003 C5.18479656,7.00999875 5.13024946,7.06108001 5.02996291,7.15387847 C4.92964456,7.24667691 4.82237865,7.35400641 4.70818108,7.4747382 C4.57481014,7.61394382 4.42229764,7.76710816 4.25069126,7.93478765 C3.90803495,8.26030558 3.67669861,8.58113351 3.55784283,8.89733503 C3.43838291,9.21358425 3.38855761,9.51123245 3.40766738,9.79029551 C3.42680896,10.0693427 3.50044993,10.324606 3.62913086,10.5573255 C3.75789129,10.7899814 3.90340855,10.9808088 4.06517386,11.1293785 C4.26522232,11.3155955 4.48438055,11.4740062 4.72268034,11.6039749 C4.96094834,11.7339436 5.21840561,11.8058358 5.4943844,11.8197945 C5.77036319,11.8343256 6.06604,11.7756767 6.38031783,11.6457398 C6.69516799,11.5158029 7.02332505,11.283147 7.36655371,10.9483604 L11.8541702,6.61025161 C11.9400211,6.52673779 11.9592262,6.40309661 11.9116267,6.24067945 C11.8640749,6.07816691 11.7973337,5.95460523 11.7115782,5.87110729 C11.6257274,5.78757756 11.4999558,5.72487463 11.3329758,5.68312566 C11.1665364,5.64134489 11.0401925,5.66221938 10.9543417,5.74578091 L6.48117672,10.083842 C6.30960215,10.2509809 6.08810687,10.3536204 5.81677038,10.3907907 C5.54486155,10.4279291 5.3042406,10.3443835 5.09487573,10.1395496 C4.92326935,9.97247427 4.83514501,9.75838761 4.8305345,9.49784607 C4.82586039,9.23735223 4.93318989,9.00061047 5.15231632,8.7865238 L10.0829234,4.00226071 C10.5978538,3.5003987 11.1097635,3.2375837 11.6194316,3.21438808 C12.1290679,3.19171708 12.5888471,3.37507232 12.9987374,3.76553486 C13.2178956,3.97906509 13.3889137,4.21172097 13.5130001,4.4629461 C13.6370705,4.71418713 13.7014427,4.97178747 13.7061169,5.23695541 C13.7107115,5.50148742 13.6585968,5.76892883 13.5490097,6.03873907 C13.439375,6.30797697 13.2561628,6.56847083 12.9987374,6.81971184 L7.53938425,12.105821 C7.28245164,12.3570462 6.9728956,12.5566336 6.61054128,12.7057438 C6.24813926,12.8548541 5.86718391,12.940705 5.46716649,12.9638847 C5.06710137,12.9877322 4.66412687,12.9320404 4.25938763,12.796873 C3.8547438,12.6622302 3.48541011,12.4318477 3.15202251,12.1063934 C2.78031998,11.7438006 2.52351455,11.3672014 2.38025486,10.9767865 C2.23705876,10.5857516 2.18026999,10.1998837 2.20864848,9.81870579 C2.23766291,9.43754377 2.33734532,9.07957738 2.50896759,8.74479073 C2.68001752,8.41003588 2.89456526,8.11696639 3.15316719,7.86578897 L7.99795515,3.17898254 C8.08374244,3.0954528 8.10291582,2.97185933 8.05536396,2.80941038 C8.00781211,2.64640499 7.94639693,2.52336795 7.86981476,2.43983822 C7.78402747,2.35568845 7.65819233,2.29300141 7.49121236,2.25125244 C7.32483653,2.20947168 7.19842905,2.23037796 7.11264176,2.31393948 L2.25329095,7.01462514 C1.91006228,7.34941179 1.6265318,7.75845946 1.40273126,8.24232458 C1.17893073,8.7262215 1.04789684,9.24202632 1.0095978,9.79089964 C0.971362362,10.3397094 1.04734039,10.8903315 1.23802473,11.4438312 C1.42883627,11.9968063 1.76683439,12.5108464 2.25271859,12.9848387 C2.74785561,13.4687038 3.28594988,13.8034905 3.86747833,13.9891351 C4.44840264,14.1754156 5.01778479,14.2496766 5.57500472,14.212554 C6.13217696,14.1754156 6.66092302,14.0454469 7.16129059,13.8220597 C7.66111763,13.5987043 8.08259776,13.3195936 8.42582642,12.9848387 L13.8992018,7.68477078 C14.2424305,7.34998413 14.4969943,6.97578557 14.6639424,6.56204791 C14.8303819,6.14786509 14.9138162,5.72252165 14.9138162,5.28568373 C14.9138162,4.84816218 14.830366,4.42291414 14.6639424,4.00924007 C14.4969943,3.59553419 14.2424305,3.22133563 13.8992018,2.88654898 Z" id="路径" fill="#29BECE"></path>
            <rect id="矩形" fill="#000000" opacity="0" x="0" y="0" width="16" height="16"></rect>
        </g>
    </g>
</svg>