<?xml version="1.0" encoding="UTF-8"?>
<svg width="14px" height="14px" viewBox="0 0 14 14" version="1.1" xmlns="http://www.w3.org/2000/svg" xmlns:xlink="http://www.w3.org/1999/xlink">
    <!-- Generator: Sketch 59 (86127) - https://sketch.com -->
    <title>分组 3</title>
    <desc>Created with Sketch.</desc>
    <g id="RFX维护&amp;核价（替换icon）" stroke="none" stroke-width="1" fill="none" fill-rule="evenodd">
        <g id="核价-供应商列表-两行备份" transform="translate(-348.000000, -926.000000)">
            <rect fill="#F4F5F7" x="0" y="0" width="1440" height="1028"></rect>
            <g id="分组-18-copy" transform="translate(238.000000, 714.000000)" fill="#FFFFFF">
                <rect id="矩形" x="0" y="0" width="1188" height="296"></rect>
            </g>
            <g id="分组-23-copy-2" transform="translate(268.000000, 900.000000)">
                <g id="分组-26" transform="translate(52.000000, 1.000000)">
                    <g id="分组-22" transform="translate(0.000000, 22.000000)">
                        <g id="分组-3" transform="translate(35.000000, 10.000000) rotate(-90.000000) translate(-35.000000, -10.000000) translate(28.000000, 3.000000)">
                            <rect id="矩形-copy-45" fill="#000000" opacity="0" x="0.283365472" y="0.0588016451" width="13.4814815" height="13.4814815"></rect>
                            <path d="M8.20818845,5.50795843 C8.38478367,5.33136321 8.38478367,5.02232157 8.20818845,4.84572635 C8.03159323,4.66913113 7.7225516,4.66913113 7.54595637,4.84572635 L4.49968882,7.80369629 C4.14045205,8.1416087 3.93674184,8.61289658 3.93674184,9.10608605 C3.93674184,9.59927552 4.14045205,10.0705634 4.49968882,10.4084758 C5.25021851,11.1148567 6.48638505,11.1148567 7.23691474,10.4084758 L12.0049857,5.81700006 C13.1087058,4.71327994 13.1087058,2.99147654 12.0049857,1.88775641 C10.9012656,0.78403628 9.04701575,0.78403628 7.94329562,1.88775641 L2.42469498,7.14146422 C0.923635606,8.59837479 0.923635606,10.9382615 2.42469498,12.395172 C3.92575435,13.8520826 6.35393864,13.8520826 7.85499801,12.395172 L10.9012656,9.43720208 C11.0778608,9.26060686 11.0778608,8.95156523 10.9012656,8.77497001 C10.7246703,8.59837479 10.4156287,8.59837479 10.2390335,8.77497001 L7.19276593,11.73294 C6.08904581,12.8366601 4.23479599,12.8366601 3.13107586,11.73294 C2.02735573,10.6292198 2.02735573,8.90741642 3.13107586,7.80369629 L8.56137889,2.54998849 C9.31190858,1.8436076 10.5480751,1.8436076 11.2986048,2.54998849 C12.0491345,3.25636937 12.0491345,4.44838711 11.2986048,5.15476799 L6.53053386,9.74624372 C6.17734342,10.0994342 5.55926014,10.0994342 5.1619209,9.74624372 C4.80873046,9.39305328 4.80873046,8.81911881 5.1619209,8.42177957 L8.20818845,5.50795843 Z" id="路径-copy" fill="#AAAAAA" transform="translate(7.065838, 7.273911) rotate(90.842207) translate(-7.065838, -7.273911) "></path>
                        </g>
                    </g>
                </g>
            </g>
        </g>
    </g>
</svg>