<?xml version="1.0" encoding="UTF-8"?>
<svg width="22px" height="21.0002208px" viewBox="0 0 22 21.0002208" version="1.1" xmlns="http://www.w3.org/2000/svg" xmlns:xlink="http://www.w3.org/1999/xlink">
    <title>Icon/speaker_notes</title>
    <g id="页面-1" stroke="none" stroke-width="1" fill="none" fill-rule="evenodd">
        <g id="角色工作台" transform="translate(-1868.000000, -349.999779)">
            <g id="编组-6备份" transform="translate(1854.000000, 335.000000)">
                <g id="Icon/speaker_notes" transform="translate(12.000000, 12.000000)">
                    <g id="辐射_radiation-(1)" transform="translate(3.000000, 4.000000)" fill-rule="nonzero">
                        <path d="M10.00195,10.5 C10.8304,10.5 11.50195,9.82845 11.50195,9 C11.50195,8.17155 10.8304,7.5 10.00195,7.5 C9.17355,7.5 8.50195,8.17155 8.50195,9 C8.50195,9.82845 9.17355,10.5 10.00195,10.5 Z" id="路径" fill="#333333"></path>
                        <path d="M7.52025,12.738 C8.2313,13.2097 9.08365,13.4844 10,13.4844 C10.91635,13.4844 11.7687,13.2097 12.47975,12.738 L15.5105,17.34135 C13.9305,18.3896 12.03635,19 10,19 C7.96365,19 6.0695,18.3896 4.4895,17.34135 L7.52025,12.738 Z M5.50795,9.242 L0.017655,9.5725 C0.00594,9.3737 0,9.17335 0,8.9716 C0,5.04555 2.24972,1.646435 5.5269,0 L7.9871,4.9344 C6.51235,5.6753 5.5,7.2049 5.5,8.9716 C5.5,9.0624 5.50265,9.15255 5.50795,9.242 Z" id="形状" stroke="#868D9C" stroke-width="2" fill="#868D9C" stroke-linejoin="round"></path>
                        <path d="M12.0129,4.9344 L14.4731,0 C17.7503,1.646435 20,5.04555 20,8.9716 C20,9.17335 19.99405,9.3737 19.98235,9.5725 L14.49205,9.242 C14.49735,9.15255 14.5,9.0624 14.5,8.9716 C14.5,7.2049 13.48765,5.6753 12.0129,4.9344 Z" id="路径" stroke="#1D2129" stroke-width="2" fill="#1D2129" stroke-linejoin="round"></path>
                    </g>
                    <rect id="space_dashboard_black_24dp-(1)" x="0" y="0" width="26" height="26"></rect>
                </g>
            </g>
        </g>
    </g>
</svg>