<?xml version="1.0" encoding="UTF-8"?>
<svg width="10px" height="10px" viewBox="0 0 10 10" version="1.1" xmlns="http://www.w3.org/2000/svg" xmlns:xlink="http://www.w3.org/1999/xlink">
    <title>fork</title>
    <g id="寻源" stroke="none" stroke-width="1" fill="none" fill-rule="evenodd">
        <g id="1-2-寻源大厅-切换排序" transform="translate(-294.000000, -306.000000)" fill-rule="nonzero">
            <g id="表格" transform="translate(243.000000, 209.000000)">
                <g id="编组-20" transform="translate(13.000000, 93.000000)">
                    <g id="Tag/Basic/Default">
                        <g id="fork" transform="translate(38.000000, 4.000000)">
                            <rect id="矩形" fill="#000000" opacity="0" x="0" y="0" width="10" height="10"></rect>
                            <path d="M7.34375,0.9765625 C6.74023438,0.9765625 6.25,1.46679687 6.25,2.0703125 C6.25,2.53613281 6.54199219,2.93457031 6.953125,3.09179688 L6.953125,3.36132812 L5,5.87304687 L3.046875,3.36132812 L3.046875,3.09179687 C3.45800781,2.93457031 3.75,2.53613281 3.75,2.0703125 C3.75,1.46679687 3.25976562,0.9765625 2.65625,0.9765625 C2.05273438,0.9765625 1.5625,1.46679687 1.5625,2.0703125 C1.5625,2.56445312 1.89257812,2.98339844 2.34375,3.11816406 L2.34375,3.45410156 C2.34375,3.54882812 2.37597656,3.64257812 2.43457031,3.71777344 L4.6484375,6.56542969 L4.6484375,6.89355469 C4.21679688,7.04003906 3.90625,7.44921875 3.90625,7.9296875 C3.90625,8.53320312 4.39648438,9.0234375 5,9.0234375 C5.60351562,9.0234375 6.09375,8.53320312 6.09375,7.9296875 C6.09375,7.44921875 5.78320313,7.04101562 5.3515625,6.89355469 L5.3515625,6.56542969 L7.56542969,3.71777344 C7.62402344,3.64257812 7.65625,3.54882812 7.65625,3.45410156 L7.65625,3.11816406 C8.10742188,2.98339844 8.4375,2.56445312 8.4375,2.0703125 C8.4375,1.46679687 7.94726562,0.9765625 7.34375,0.9765625 Z M2.1875,2.0703125 C2.1875,1.81152344 2.39746094,1.6015625 2.65625,1.6015625 C2.91503906,1.6015625 3.125,1.81152344 3.125,2.0703125 C3.125,2.32910156 2.91503906,2.5390625 2.65625,2.5390625 C2.39746094,2.5390625 2.1875,2.32910156 2.1875,2.0703125 Z M5.46875,7.9296875 C5.46875,8.18847656 5.25878906,8.3984375 5,8.3984375 C4.74121094,8.3984375 4.53125,8.18847656 4.53125,7.9296875 C4.53125,7.67089844 4.74121094,7.4609375 5,7.4609375 C5.25878906,7.4609375 5.46875,7.67089844 5.46875,7.9296875 Z M7.34375,2.5390625 C7.08496094,2.5390625 6.875,2.32910156 6.875,2.0703125 C6.875,1.81152344 7.08496094,1.6015625 7.34375,1.6015625 C7.60253906,1.6015625 7.8125,1.81152344 7.8125,2.0703125 C7.8125,2.32910156 7.60253906,2.5390625 7.34375,2.5390625 Z" id="形状" fill="#333333"></path>
                        </g>
                    </g>
                </g>
            </g>
        </g>
    </g>
</svg>