<?xml version="1.0" encoding="UTF-8"?>
<svg width="24px" height="24px" viewBox="0 0 24 24" version="1.1" xmlns="http://www.w3.org/2000/svg" xmlns:xlink="http://www.w3.org/1999/xlink">
    <!-- Generator: Sketch 52.2 (67145) - http://www.bohemiancoding.com/sketch -->
    <title>freight</title>
    <desc>Created with Sketch.</desc>
    <g id="工作台" stroke="none" stroke-width="1" fill="none" fill-rule="evenodd">
        <g id="供应商报价-切换视图" transform="translate(-252.000000, -238.000000)">
            <g id="Group-12" transform="translate(236.000000, 176.000000)">
                <g id="Group-8" transform="translate(16.000000, 12.000000)">
                    <g id="freight" transform="translate(0.000000, 50.000000)">
                        <rect id="Rectangle" fill="#D8D8D8" opacity="0.01" x="0" y="0" width="24" height="24"></rect>
                        <polygon id="Path-34" fill="#AFE9EF" points="12.8363533 4.75586924 12.8363533 10 19.0599544 10 15.9481538 4.75586924"></polygon>
                        <circle id="Oval" fill="#AFE9EF" cx="5.5" cy="17.5" r="2.5"></circle>
                        <circle id="Oval" fill="#AFE9EF" cx="16.5" cy="17.5" r="2.5"></circle>
                        <path d="M13.5414792,18 L8.45852078,18 C8.22048173,19.4188567 6.98649814,20.5 5.5,20.5 C4.01350186,20.5 2.77951827,19.4188567 2.54147922,18 L0,18 L0,13 L1,13 L1,17 L2.54147922,17 C2.77951827,15.5811433 4.01350186,14.5 5.5,14.5 C6.98649814,14.5 8.22048173,15.5811433 8.45852078,17 L13.5414792,17 C13.7795183,15.5811433 15.0135019,14.5 16.5,14.5 C17.9864981,14.5 19.2204817,15.5811433 19.4585208,17 L23,17 L23,12.3713379 L19.1362841,10.5 L12.2615207,10.5 L12.2615207,5 L1,5 L1,6 L0,6 L0,4 L16.0801283,4 L19.4184271,9.52553481 L24,11.7445569 L24,18 L19.4585208,18 C19.2204817,19.4188567 17.9864981,20.5 16.5,20.5 C15.0135019,20.5 13.7795183,19.4188567 13.5414792,18 Z M13.2615207,5 L13.2615207,9.5 L18.2346647,9.5 L15.5159515,5 L13.2615207,5 Z M0.5,7 L5.5,7 C5.77614237,7 6,7.22385763 6,7.5 C6,7.77614237 5.77614237,8 5.5,8 L0.5,8 C0.223857625,8 3.38176876e-17,7.77614237 0,7.5 C-3.38176876e-17,7.22385763 0.223857625,7 0.5,7 Z M2.5,9 L7.5,9 C7.77614237,9 8,9.22385763 8,9.5 C8,9.77614237 7.77614237,10 7.5,10 L2.5,10 C2.22385763,10 2,9.77614237 2,9.5 C2,9.22385763 2.22385763,9 2.5,9 Z M0.5,11 L5.5,11 C5.77614237,11 6,11.2238576 6,11.5 C6,11.7761424 5.77614237,12 5.5,12 L0.5,12 C0.223857625,12 3.38176876e-17,11.7761424 0,11.5 C-3.38176876e-17,11.2238576 0.223857625,11 0.5,11 Z M5.5,19.5 C6.6045695,19.5 7.5,18.6045695 7.5,17.5 C7.5,16.3954305 6.6045695,15.5 5.5,15.5 C4.3954305,15.5 3.5,16.3954305 3.5,17.5 C3.5,18.6045695 4.3954305,19.5 5.5,19.5 Z M16.5,19.5 C17.6045695,19.5 18.5,18.6045695 18.5,17.5 C18.5,16.3954305 17.6045695,15.5 16.5,15.5 C15.3954305,15.5 14.5,16.3954305 14.5,17.5 C14.5,18.6045695 15.3954305,19.5 16.5,19.5 Z" id="Rectangle" fill="#A3A3A3" fill-rule="nonzero"></path>
                    </g>
                </g>
            </g>
        </g>
    </g>
</svg>