<?xml version="1.0" encoding="UTF-8"?>
<svg width="16px" height="16px" viewBox="0 0 16 16" version="1.1" xmlns="http://www.w3.org/2000/svg" xmlns:xlink="http://www.w3.org/1999/xlink">
    <title>编组 19</title>
    <g id="选用模式切换-v1217" stroke="none" stroke-width="1" fill="none" fill-rule="evenodd">
        <g id="编组-19">
            <rect id="矩形" fill="currentColor" x="0" y="0" width="16" height="16" rx="2"></rect>
            <g id="Icon/approval_black" transform="translate(2.000000, 2.000000)">
                <path d="M2,8 L2,11 L10,11 L10,8 C10,7.45 9.55,7 9,7 L3,7 C2.45,7 2,7.45 2,8 Z M9,9 L3,9 L3,8 L9,8 L9,9 Z M6,1 C4.62,1 3.5,2.12 3.5,3.5 L6,7 L8.5,3.5 C8.5,2.12 7.38,1 6,1 Z M6,5.5 L4.5,3.5 C4.5,2.67 5.17,2 6,2 C6.83,2 7.5,2.67 7.5,3.5 L6,5.5 Z" id="icon" fill="#FFFFFF"></path>
                <polygon id="approval_black" points="0 0 12 0 12 12 0 12"></polygon>
            </g>
        </g>
    </g>
</svg>