<?xml version="1.0" encoding="UTF-8"?>
<svg width="10.2857143px" height="10.8571429px" viewBox="0 0 10.2857143 10.8571429" version="1.1" xmlns="http://www.w3.org/2000/svg" xmlns:xlink="http://www.w3.org/1999/xlink">
    <title>编组 34</title>
    <g id="核价聚合表优化" stroke="none" stroke-width="1" fill="none" fill-rule="evenodd">
        <g id="核价" transform="translate(-64.8571, -514.8571)">
            <g id="编组-34" transform="translate(64, 514)">
                <rect id="矩形" x="0" y="0" width="12" height="12"></rect>
                <g id="编组" transform="translate(0.8571, 0.8571)" fill="currentColor" fill-rule="nonzero">
                    <path d="M10.2857143,3.71428571 L10.2857143,5.42857143 C10.2857143,6.84874286 7.9832,8 5.14285714,8 C2.30253714,8 0,6.84874286 0,5.42857143 L0,3.71428571 C0,5.13445714 2.30253714,6.28571429 5.14285714,6.28571429 C7.9832,6.28571429 10.2857143,5.13445714 10.2857143,3.71428571 Z M0,6.57142857 C0,7.9916 2.30253714,9.14285714 5.14285714,9.14285714 C7.9832,9.14285714 10.2857143,7.9916 10.2857143,6.57142857 L10.2857143,8.28571429 C10.2857143,9.70588571 7.9832,10.8571429 5.14285714,10.8571429 C2.30253714,10.8571429 0,9.70588571 0,8.28571429 L0,6.57142857 Z M5.14285714,5.14285714 C2.30253714,5.14285714 0,3.99158857 0,2.57142857 C0,1.15126857 2.30253714,0 5.14285714,0 C7.9832,0 10.2857143,1.15126857 10.2857143,2.57142857 C10.2857143,3.99158857 7.9832,5.14285714 5.14285714,5.14285714 Z" id="形状"></path>
                </g>
            </g>
        </g>
    </g>
</svg>