<?xml version="1.0" encoding="UTF-8"?>
<svg width="14px" height="14px" viewBox="0 0 14 14" version="1.1" xmlns="http://www.w3.org/2000/svg" xmlns:xlink="http://www.w3.org/1999/xlink">
    <title>icon_work_log</title>
    <defs>
        <path d="M8.87133334,1.3615 C9.43075,1.3615 9.91666666,1.834 9.91666666,2.40566666 L9.91666666,10.9141667 C9.91666666,11.4858333 9.43075,11.9589167 8.87133334,11.9589167 L1.62866666,11.9589167 C1.06925,11.9583333 0.583333338,11.4858333 0.583333338,10.9135833 L0.583333338,2.40625 C0.583333338,1.834 1.06925,1.3615 1.62866666,1.3615 L3.79166666,1.3615 C4.01041666,0.739666662 4.56925,0.291666662 5.25,0.291666662 C5.93075,0.291666662 6.48958334,0.739666662 6.70833334,1.3615 L8.87133334,1.3615 L8.87133334,1.3615 Z M5.25,1.3615 C4.95833334,1.3615 4.73958334,1.58491666 4.73958334,1.88358334 C4.73958334,2.18225001 4.95833334,2.40625 5.25,2.40625 C5.54166666,2.40625 5.76041666,2.18225 5.76041666,1.88358334 C5.76041666,1.58491668 5.54166666,1.3615 5.25,1.3615 Z M8.87133334,10.9135833 L8.87133334,2.40625 L7.8505,2.40625 L7.8505,3.99816666 L2.6495,3.99816666 L2.6495,2.40566666 L1.62866666,2.40566666 L1.62866666,10.9141667 L8.87133334,10.9141667 L8.87133334,10.9135833 Z M7.84291666,5.3165 L7.84291666,6.37816666 L2.65708334,6.37816666 L2.65708334,5.3165 L7.84291666,5.3165 Z M6.28716666,7.43983334 L6.28716666,8.50091666 L2.65766666,8.50091666 L2.65766666,7.43925 L6.28716666,7.43925 L6.28716666,7.43983334 Z" id="path-1"></path>
    </defs>
    <g id="寻源-修改" stroke="none" stroke-width="1" fill="none" fill-rule="evenodd">
        <g id="1-2-寻源大厅-进行中" transform="translate(-867.000000, -407.000000)">
            <g id="表格" transform="translate(243.000000, 209.000000)">
                <g id="编组-20备份-3" transform="translate(13.000000, 194.000000)">
                    <g id="编组-11" transform="translate(466.000000, 0.000000)">
                        <g id="编组-18备份-4">
                            <g id="编组-11备份">
                                <g id="icon_work_log" transform="translate(145.000000, 4.000000)">
                                    <g id="work_log">
                                        <rect id="矩形" fill="#000000" fill-rule="nonzero" opacity="0" x="0" y="0" width="14" height="14"></rect>
                                        <g id="color" transform="translate(1.750000, 0.875000)">
                                            <mask id="mask-2" fill="white">
                                                <use xlink:href="#path-1"></use>
                                            </mask>
                                            <use id="蒙版" fill="#29BECE" fill-rule="nonzero" xlink:href="#path-1"></use>
                                        </g>
                                    </g>
                                </g>
                            </g>
                        </g>
                    </g>
                </g>
            </g>
        </g>
    </g>
</svg>