<?xml version="1.0" encoding="UTF-8"?>
<svg width="16px" height="16px" viewBox="0 0 16 16" version="1.1" xmlns="http://www.w3.org/2000/svg" xmlns:xlink="http://www.w3.org/1999/xlink">
    <title>编组 24</title>
    <g id="页面-1" stroke="none" stroke-width="1" fill="none" fill-rule="evenodd">
        <g id="进行中" transform="translate(-154, -235)">
            <g id="Card-/-List-Message-/-Text-/-Enabled备份-4" transform="translate(0, 216)">
                <g id="编组-24" transform="translate(154, 19)">
                    <rect id="矩形" fill-opacity="0.1" fill="#F25535" x="0" y="0" width="16" height="16" rx="2"></rect>
                    <g id="Icon/error" transform="translate(1, 1)">
                        <path d="M7.57516666,7.57516666 L7.57516666,4.06933334 L6.42483334,4.06933334 L6.42483334,7.57516666 L7.57516666,7.57516666 Z M7.57516666,9.93008334 L7.57516666,8.75291666 L6.42483334,8.75291666 L6.42483334,9.93008334 L7.57516666,9.93008334 Z M7,1.16666666 C10.2316667,1.16666666 12.8333333,3.76833332 12.8333333,7 C12.8333333,10.2316667 10.2316667,12.8333333 7,12.8333333 C3.76833332,12.8333333 1.16666666,10.2316667 1.16666666,7 C1.16666666,3.76833334 3.76833334,1.16666666 7,1.16666666 Z" id="icon" fill="#E64322"></path>
                        <rect id="error" x="0" y="0" width="14" height="14"></rect>
                    </g>
                </g>
            </g>
        </g>
    </g>
</svg>