<?xml version="1.0" encoding="UTF-8"?>
<svg width="70px" height="80px" viewBox="0 0 70 80" version="1.1" xmlns="http://www.w3.org/2000/svg" xmlns:xlink="http://www.w3.org/1999/xlink">
    <title>Illustrate 插画/Illustrate_none_medium</title>
    <g id="核价" stroke="none" stroke-width="1" fill="none" fill-rule="evenodd">
        <g transform="translate(-795, -412)" id="编组-5">
            <g transform="translate(795, 412)" id="Illustrate-插画/Illustrate_none_medium">
                <path d="M52.7080298,31.0337201 C52.6840917,31.0337201 49.971248,34.3517985 47.5157506,37.6615689 C40.7642836,35.40542 36.7739853,33.1492712 35.5466969,30.8931223 C36.7739853,30.1418247 40.0880437,26.9749083 42.5435411,24.7187595 C44.0893904,27.727334 47.4775534,29.8323208 52.7080298,31.0337201 Z" id="路径" fill="#BCC2CC"></path>
                <path d="M0.329609326,32.995306 L6.60507626,18.7959221 C7.20256045,17.4442295 8.51326144,16.5760851 9.957332,16.5760851 L60.3470482,16.5760851 C61.7911188,16.5760851 63.1018198,17.4442295 63.6993039,18.7959221 L69.7366096,32.5825219 C69.9673757,33.2710711 70.0467628,35.1930551 69.9747709,38.3484738 L69.9729295,74.3202464 C69.9729295,77.4570877 67.4996705,80 64.4487508,80 L5.52417864,80 C2.47325902,80 0,77.4570877 0,74.3202464 L0.000643361485,37.7649966 C0.00514974456,36.2328282 0.0412008091,33.6477738 0.329609326,32.995306 Z M43.2727327,44.9748529 L28.5415897,44.9748529 C27.0161298,44.9748529 25.7795003,46.2463091 25.7795003,47.8147297 C25.7795003,49.3831504 27.0161298,50.6546065 28.5415897,50.6546065 L43.2727327,50.6546065 C44.7981925,50.6546065 46.034822,49.3831504 46.034822,47.8147297 C46.034822,46.2463091 44.7981925,44.9748529 43.2727327,44.9748529 Z M59.7541197,21.309213 L10.5502605,21.309213 L5.11262733,33.6153458 L65.1917529,33.6153458 L59.7541197,21.309213 Z" id="形状结合" fill="#E5E7EC"></path>
                <path d="M19.3688762,0 C18.639182,4.3496173 21.556865,6.88267605 28.1208314,7.59805143 C28.0770716,7.59805143 24.7309214,12.5421741 26.9189102,14.7917822 C21.8602801,14.4318449 13.7909774,13.6669782 11.8305395,7.81912187 C13.288834,7.07000236 16.6032584,3.6004978 19.3688762,0 Z" id="路径" fill="#BCC2CC"></path>
            </g>
        </g>
    </g>
</svg>