<?xml version="1.0" encoding="UTF-8"?>
<svg width="12px" height="12px" viewBox="0 0 12 12" version="1.1" xmlns="http://www.w3.org/2000/svg" xmlns:xlink="http://www.w3.org/1999/xlink">
    <!-- Generator: Sketch 52.2 (67145) - http://www.bohemiancoding.com/sketch -->
    <title>import</title>
    <desc>Created with Sketch.</desc>
    <g id="工作台" stroke="none" stroke-width="1" fill="none" fill-rule="evenodd">
        <g id="供应商报价" transform="translate(-1240.000000, -66.000000)">
            <g id="按钮组1" transform="translate(1224.000000, 58.000000)">
                <g id="btn-保存">
                    <g id="import" transform="translate(16.000000, 8.000000)">
                        <rect id="Rectangle" fill="#D8D8D8" opacity="0.01" x="0" y="0" width="12" height="12"></rect>
                        <path d="M5,0 L5,1 L1,1 L1,11 L11,11 L11,7 L12,7 L12,11 C12,11.5522847 11.5522847,12 11,12 L1,12 C0.44771525,12 0,11.5522847 0,11 L0,1 C0,0.44771525 0.44771525,0 1,0 L5,0 Z M11.3033009,0.646446609 L11.3033009,0.646446609 C11.498563,0.841708755 11.498563,1.15829124 11.3033009,1.35355339 L6.35355339,6.30330086 C6.15829124,6.498563 5.84170876,6.498563 5.64644661,6.30330086 L5.64644661,6.30330086 C5.45118446,6.10803871 5.45118446,5.79145622 5.64644661,5.59619408 L10.5961941,0.646446609 C10.7914562,0.451184464 11.1080387,0.451184464 11.3033009,0.646446609 Z" id="Rectangle" fill="#666666" fill-rule="nonzero"></path>
                        <path d="M9,3.5 L9,6.5 C9,6.77614237 8.77614237,7 8.5,7 C8.22385763,7 8,6.77614237 8,6.5 L8,4 L5.5,4 C5.22385763,4 5,3.77614237 5,3.5 C5,3.22385763 5.22385763,3 5.5,3 L8.5,3 C8.77614237,3 9,3.22385763 9,3.5 Z" id="Rectangle-4" fill="#666666" fill-rule="nonzero" transform="translate(7.000000, 5.000000) rotate(-180.000000) translate(-7.000000, -5.000000) "></path>
                    </g>
                </g>
            </g>
        </g>
    </g>
</svg>