<?xml version="1.0" encoding="UTF-8"?>
<svg width="40px" height="40px" viewBox="0 0 40 40" version="1.1" xmlns="http://www.w3.org/2000/svg" xmlns:xlink="http://www.w3.org/1999/xlink">
    <!-- Generator: Sketch 52.2 (67145) - http://www.bohemiancoding.com/sketch -->
    <title>分组</title>
    <desc>Created with Sketch.</desc>
    <g id="Page-1" stroke="none" stroke-width="1" fill="none" fill-rule="evenodd">
        <g id="分组">
            <path d="M22.3536357,11.2551745 C21.1084969,10.9215406 19.8549797,10.8606569 18.6542671,11.0403888 L17.6172853,10.4430506 C19.1901514,10.0516453 20.8798204,10.0393252 22.5588711,10.4892255 C26.030167,11.4193565 28.5749173,14.0868476 29.503328,17.3079895 L28.4635841,16.7058671 C27.4420682,14.1189576 25.24764,12.0306206 22.3536357,11.2551745 Z M28.2562322,12.3029562 L27.4343535,12.1555273 L27.9300487,11.5280675 L27.814494,10.7368238 L28.6019983,11.0125397 L29.3504749,10.6792791 L29.339963,11.4731398 L29.9195086,12.0570976 L29.1256284,12.2730471 L28.7378017,12.9658066 L28.2562322,12.3029562 Z M18.0628228,7.78417135 L18.8898291,7.85209322 L18.4320637,8.53420081 L18.591416,9.31291579 L17.795751,9.12802634 L17.0733429,9.54510885 L17.0403282,8.74767331 L16.4312649,8.22859911 L17.2058827,7.91851923 L17.5499845,7.17764722 L18.0628228,7.78417135 Z M24.2597105,8.29206886 L25.017228,8.60423433 L24.3747235,9.11551981 L24.2922508,9.90627489 L23.5914758,9.48799208 L22.7792717,9.66667931 L22.9903023,8.89419503 L22.5696449,8.21531357 L23.4025916,8.15541763 L23.9556241,7.55545345 L24.2597105,8.29206886 Z M31.5198831,15.3814548 L32.3332771,15.4699935 L31.9200493,16.1519028 L32.1236683,16.946523 L31.3285452,16.7294264 L30.6423883,17.1319581 L30.5651069,16.3186173 L29.9394708,15.7708381 L30.6833616,15.4848773 L30.9829257,14.7442036 L31.5198831,15.3814548 Z M38.5758118,23.4594779 C39.333184,23.8929259 39.5917023,24.8599743 39.1534701,25.6201086 L34.4073153,33.8397599 C33.9700941,34.5961212 33.0030458,34.8546394 32.2466846,34.4174183 L1.42317721,16.6224202 C0.666815984,16.1851991 0.408297712,15.2181507 0.845518851,14.4617895 L5.59268472,6.23836505 C6.02990586,5.48200383 6.99695419,5.22348556 7.75331541,5.6607067 L38.5758118,23.4594779 Z M38.2703358,25.5654556 C38.6001382,24.9986902 38.406755,24.2715174 37.8389786,23.9454881 L7.69488927,6.54283002 C7.12711285,6.21680074 6.39994003,6.41018394 6.07391075,6.97796036 L1.72589105,14.5116583 C1.39986177,15.0794348 1.59324497,15.8066076 2.1610214,16.1326369 L32.3013376,33.534284 C32.869114,33.8603132 33.5962868,33.66693 33.9223161,33.0991536 L38.2703358,25.5654556 Z M23.6851384,6.28593892 C19.8893517,5.26886095 16.0357481,5.88626239 12.8819759,7.71028307 L12.0974515,7.25742754 C15.4994051,5.15616281 19.7238076,4.40760594 23.8893628,5.52376307 C30.7602648,7.36481573 35.2353851,13.6796408 35.0231619,20.4936126 L34.2386375,20.040757 C34.2459157,13.7501692 30.0504386,7.99151599 23.6851384,6.28593892 Z M21.3457329,29.0377362 L22.3827147,29.6350744 C20.8098486,30.0264797 19.1201796,30.0387998 17.4411289,29.5888995 C13.969833,28.6587685 11.4250827,25.9912774 10.497683,22.7663624 L11.5374269,23.3684847 C12.5579318,25.9591674 14.75236,28.0475044 17.6463643,28.8229505 C18.8915031,29.1565844 20.1450203,29.2174681 21.3457329,29.0377362 Z M12.7258309,28.4265404 L13.5361193,28.5870398 L13.0414351,29.2107265 L13.1580008,29.9981971 L12.3780428,29.7245032 L11.6381235,30.0560127 L11.6486354,29.262152 L11.0766361,28.6802162 L11.86297,28.4622446 L12.2507967,27.7694851 L12.7258309,28.4265404 Z M16.781209,32.0366614 L16.0264537,31.7292801 L16.6651851,31.2169836 L16.7476577,30.4262285 L17.4446596,30.8435003 L18.2530906,30.663802 L18.043071,31.4325132 L18.4599552,32.1103836 L17.6355658,32.1685284 L17.0825333,32.7684926 L16.781209,32.0366614 Z M8.41274205,24.6462648 L7.61350225,24.504902 L8.07072587,23.8550016 L7.92700798,23.0481235 L8.69665753,23.3150112 L9.40565159,22.9630832 L9.42606493,23.7773625 L10.0083727,24.3661044 L9.25020199,24.5997104 L8.90084685,25.3149104 L8.41274205,24.6462648 Z M16.3148616,33.7921861 C20.1106483,34.809264 23.9642519,34.1918626 27.1180241,32.3678419 L27.9025485,32.8206975 C24.5005949,34.9219622 20.2761924,35.6705191 16.1106372,34.5543619 C9.23973517,32.7133093 4.76461489,26.3984842 4.97582713,19.5882856 L5.76035151,20.0411411 C5.75785748,26.3289668 9.94956137,32.086609 16.3148616,33.7921861 Z M22.5899318,32.4688587 L21.7797692,32.4135382 L22.2337614,31.7304196 L22.0744092,30.9517046 L22.8625278,31.134572 L23.5773896,30.7154675 L23.6104043,31.512903 L24.2119213,32.0299552 L23.4420877,32.337273 L23.0989969,33.0743718 L22.5899318,32.4688587 Z" id="形状" fill="#F13131" fill-rule="nonzero"></path>
            <path d="M11.5938984,22.3046399 L9.9556882,22.743597 L10.0819919,23.2149688 L11.8283858,22.7470239 L11.9898889,23.3497616 L10.243495,23.8177065 L10.3718692,24.2968057 L12.3423579,23.7688148 L12.5059315,24.37928 L10.5354429,24.9072708 L10.7031576,25.5331907 L9.99223619,25.7236816 L9.82452145,25.0977616 L8.1322194,25.5512126 L7.96864577,24.9407475 L9.66094781,24.4872965 L9.53257357,24.0081973 L8.07982112,24.3974611 L7.91831804,23.7947234 L9.37107048,23.4054596 L9.24476679,22.9340878 L7.95428989,23.27987 L7.79071625,22.6694049 L9.08119315,22.3236226 L8.95281891,21.8445234 L7.28369908,22.2917627 L7.12426655,21.6967524 L8.79338637,21.2495131 L8.66915323,20.7858687 L7.37867633,21.131651 L7.21717324,20.5289133 L8.50765015,20.183131 L8.36892314,19.6653948 L9.07984455,19.474904 L9.21857156,19.9926402 L10.8567818,19.5536831 L11.142518,20.6200652 L11.6061624,20.4958321 L11.7655949,21.0908424 L11.3019505,21.2150755 L11.5938984,22.3046399 Z M9.38007464,20.5953779 L9.50430778,21.0590223 L10.439324,20.8084855 L10.3150908,20.3448411 L9.38007464,20.5953779 Z M9.66374031,21.6540326 L9.79211456,22.1331318 L10.7271308,21.882595 L10.5987565,21.4034958 L9.66374031,21.6540326 Z M10.2558201,25.9346496 C11.1290171,25.7006772 12.026912,25.4352403 12.9459186,25.1558644 L13.0107003,25.8921872 L10.7465702,26.4988591 C9.32472739,26.8798407 8.25653221,26.9424431 7.53839837,26.7041916 C7.44663043,26.6708053 7.37031731,26.6332778 7.31152956,26.5993367 C7.15535685,27.0056003 6.9481238,27.3758522 6.69190095,27.7178198 L6.045087,27.2202741 C6.32297632,26.8973476 6.52662307,26.5446211 6.66375466,26.160024 C6.26188968,25.8038996 5.88719937,25.3328252 5.53195632,24.7488711 L6.09010283,24.3591321 C6.34570189,24.7875771 6.59812078,25.1423343 6.85301637,25.4136059 C6.93121155,24.8708743 6.90577029,24.2813722 6.78649054,23.6507564 L5.39555735,24.0234558 L5.24647758,23.4670825 C5.51881887,22.8143542 5.74424092,22.1410691 5.93819854,21.4430859 L4.78681496,21.7515983 L4.60046524,21.0561317 L6.57095393,20.5281408 L6.73245701,21.1308785 C6.55865011,21.8731555 6.36979455,22.5283605 6.16023345,23.1062914 L7.28070741,22.8060613 L7.3987289,23.2465235 C7.63284997,24.2439138 7.66742557,25.1456923 7.50245568,25.9518591 C7.62003119,26.0197414 7.741193,26.0700983 7.86594111,26.1029298 C8.44276242,26.2465305 9.23938877,26.1904371 10.2558201,25.9346496 Z M16.1112298,17.5577211 C16.7601143,18.0629942 17.2703116,18.5143241 17.6536903,18.9250951 L17.1818035,19.4822117 C16.7746878,19.0446722 16.2722179,18.5912717 15.6702526,18.1065555 L16.1112298,17.5577211 Z M18.0698898,17.4801391 L18.8046969,17.4406101 C19.0398585,19.3073535 18.9232547,20.9122172 18.4528146,22.2474738 C19.2202356,22.7623962 20.0353881,23.1154492 20.9080701,23.3122897 L20.6451206,24.0618879 C19.7605701,23.8516632 18.939206,23.475428 18.1697144,22.9527782 C17.7497401,23.8272732 17.1647163,24.580349 16.4105018,25.1965506 L15.8409619,24.6782994 C16.5797216,24.0662389 17.1457043,23.3348296 17.5291122,22.4784147 C16.5314936,21.6607564 15.6263066,20.5698648 14.8078942,19.2155379 L15.3462962,18.6902919 C16.0703152,19.9705249 16.8909069,20.9929794 17.8080712,21.7576555 C18.1931036,20.5363881 18.2759151,19.1145055 18.0698898,17.4801391 Z M13.0106178,18.5044785 C13.6009721,18.7604041 14.1197091,19.0272372 14.561172,19.3147758 L14.1955471,19.9593705 C13.7947917,19.6692065 13.2739841,19.394646 12.6310538,19.1279616 L13.0106178,18.5044785 Z M12.5601507,21.0270216 L14.3451816,20.548724 L15.1941081,23.7169607 C15.3530548,23.475598 15.5135173,23.2089826 15.6832229,22.9150438 L16.0932613,23.6416775 C15.7497089,24.2141002 15.3628236,24.7484407 14.9346759,25.2524264 L14.4763512,24.6546819 C14.5808,24.5190262 14.6151472,24.3690253 14.5737362,24.2144772 L13.8304079,21.4403382 L12.748571,21.7302156 L12.5601507,21.0270216 Z M20.4359919,16.8212973 L26.061544,15.3139352 L26.2541053,16.032584 L23.5340582,16.7614184 L23.6582913,17.2250628 C23.7587875,17.6619387 23.8355466,18.072046 23.8927097,18.4708397 L27.3159509,17.553585 L27.5064417,18.2645064 L25.1727649,18.8898132 L25.8374122,21.3703107 C25.9036699,21.6175877 26.0547804,21.7178954 26.29433,21.6537082 L27.1675269,21.4197358 C27.322075,21.3783248 27.4234923,21.2931746 27.4717786,21.1642854 C27.5277923,21.0333257 27.4943662,20.6613005 27.3679138,20.0657354 L28.115699,20.1055511 C28.2712878,20.9334932 28.2780941,21.4534486 28.1495022,21.6535489 C28.0342945,21.8417807 27.8154505,21.9832419 27.4908994,22.0702051 L26.2545143,22.4014934 C25.6826862,22.5547143 25.3139501,22.3222285 25.152447,21.7194908 L24.4463887,19.0844451 L23.9672894,19.2128194 C24.0062636,19.9146463 23.9662993,20.5382382 23.8417397,21.093393 C23.5883307,22.0640546 22.9895165,22.920212 22.0452969,23.6618652 L21.4597474,23.1147749 C22.3956847,22.3422121 22.9486894,21.5314582 23.1285593,20.6881701 C23.1955894,20.2892278 23.2234277,19.867658 23.2022762,19.417804 L20.7681431,20.070028 L20.5776523,19.3591066 L23.1431513,18.6716833 C23.0859881,18.2728896 23.009229,17.8627823 22.9087329,17.4259064 L22.7844998,16.962262 L20.6285533,17.5399461 L20.4359919,16.8212973 Z M28.8812059,16.0077957 L29.5976754,16.1471066 C29.4558877,16.9470618 29.2351615,17.6687819 28.9354969,18.3122671 L28.2266062,18.0466922 C28.5309668,17.4516421 28.7543183,16.7706295 28.8812059,16.0077957 Z M31.3270695,16.9757415 C30.9025771,16.658809 30.4611142,16.3712704 30.0047512,16.1208531 L30.3349193,15.5602989 C30.6927479,15.7211675 31.1455245,15.9891102 31.6757239,16.3605407 L31.3270695,16.9757415 Z M29.4981907,17.8467698 C29.8364233,17.9963247 30.1767266,18.153607 30.5036455,18.3227578 C30.5789578,17.9547251 30.6269469,17.5774493 30.6378146,17.1852735 L31.3516587,17.2838769 C31.3367985,17.7847912 31.2904739,18.2610076 31.2008163,18.6991417 C31.5808662,18.9120316 31.9475318,19.13679 32.3106111,19.3790738 L31.9481662,20.0973563 C31.6222082,19.8699725 31.3003913,19.6580436 30.9847861,19.4692968 C30.7033503,20.2735418 30.2630766,20.9795496 29.6598239,21.5718656 L29.0356374,21.035128 C29.6162627,20.4820039 30.0359795,19.8229153 30.3066564,19.0712465 C29.9188791,18.8604271 29.5429704,18.662992 29.1753439,18.4964666 L29.4981907,17.8467698 Z M29.3482773,14.0108649 C29.5206481,14.2214268 29.7013011,14.4628983 29.8804384,14.7296226 L31.3022812,14.3486409 L31.4907015,15.0518349 L27.8665478,16.022924 L27.6781275,15.31973 L29.1617896,14.9221839 C28.9873482,14.7038947 28.8036637,14.5129287 28.6163929,14.3394881 L29.3482773,14.0108649 Z M32.6828325,15.2044903 C32.6722222,15.3812597 32.6595414,15.5503017 32.6525175,15.7095458 C33.0011427,16.3615308 33.3733564,16.916091 33.765572,17.3907518 C33.8924597,16.6279179 33.8652054,15.8152819 33.6719405,14.9394596 L32.6828325,15.2044903 Z M33.557824,18.1918165 C33.1801022,17.7712476 32.8187962,17.2883046 32.4914312,16.7465739 C32.4278387,17.0037975 32.3523777,17.2476369 32.2707051,17.468294 L31.6538398,17.0206991 C31.9634112,16.043271 32.0263692,14.8254811 31.8329159,13.3616724 L32.592421,13.290679 C32.6341293,13.6936138 32.6639692,14.0831643 32.6777994,14.4438757 L34.7564718,13.8868971 L34.9469626,14.5978185 L34.3519523,14.757251 C34.614655,15.9540381 34.6252361,17.0444546 34.3759682,18.0305709 C34.9713156,18.5833181 35.6179809,18.9566705 36.3005092,19.1547692 L36.0319029,19.9141654 C35.3586177,19.6887434 34.7176093,19.305593 34.126403,18.7683007 C33.8093616,19.5323928 33.3319667,20.2235007 32.7019455,20.8395537 L32.1045274,20.2790791 C32.7927816,19.6639871 33.277904,18.9708087 33.557824,18.1918165 Z" id="形状" fill="#F13131" transform="translate(20.450487, 20.504249) rotate(45.000000) translate(-20.450487, -20.504249) "></path>
            <rect id="矩形" fill="#D8D8D8" opacity="0" x="0" y="0" width="40" height="40"></rect>
        </g>
    </g>
</svg>