<?xml version="1.0" encoding="UTF-8"?>
<svg width="9.52824824px" height="10.5087937px" viewBox="0 0 9.52824824 10.5087937" version="1.1" xmlns="http://www.w3.org/2000/svg" xmlns:xlink="http://www.w3.org/1999/xlink">
    <title>编组 27</title>
    <g id="核价聚合表优化" stroke="none" stroke-width="1" fill="none" fill-rule="evenodd">
        <g id="核价" transform="translate(-13, -514.5)">
            <g id="编组-27" transform="translate(12, 514)">
                <rect id="矩形" x="0" y="0" width="12" height="12" rx="1.71428571"></rect>
                <g id="编组-14">
                    <rect id="矩形" x="0" y="0" width="12" height="12"></rect>
                    <g id="编组" transform="translate(1, 0.5)" fill="currentColor" fill-rule="nonzero">
                        <path d="M8.80581066,4.66689375 L9.40686066,5.02754375 C9.52521066,5.09859375 9.56361066,5.25214375 9.49261066,5.37054375 C9.47146066,5.40569375 9.44201066,5.43514375 9.40686066,5.45629375 L4.76411066,8.24189375 L0.121415661,5.45629375 C0.00302066069,5.38524375 -0.0353743393,5.23169375 0.0356656607,5.11329375 C0.0567756607,5.07809375 0.0862256607,5.04864375 0.121415661,5.02754375 L0.722460661,4.66689375 L4.76411066,7.09189375 L8.80581066,4.66689375 Z" id="路径"></path>
                        <path d="M8.80581066,7.01689375 L9.40686066,7.37754375 C9.52521066,7.44859375 9.56361066,7.60214375 9.49261066,7.72054375 C9.47146066,7.75569375 9.44201066,7.78514375 9.40686066,7.80629375 L5.02136066,10.4375437 C4.86301066,10.5325437 4.66521066,10.5325437 4.50686066,10.4375437 L0.121415661,7.80629375 C0.00302066069,7.73524375 -0.0353743393,7.58169375 0.0356656607,7.46329375 C0.0567756607,7.42809375 0.0862256607,7.39864375 0.121415661,7.37754375 L0.722460661,7.01689375 L4.76411066,9.44189375 L8.80581066,7.01689375 Z" id="路径"></path>
                        <path d="M5.02136066,0.07125375 L9.40686066,2.70253375 C9.52521066,2.77356875 9.56361066,2.92713375 9.49261066,3.04552875 C9.47146066,3.08071875 9.44201066,3.11016875 9.40686066,3.13127875 L4.76411066,5.91689375 L0.121415661,3.13127875 C0.00302066069,3.06024375 -0.0353743393,2.90667875 0.0356656607,2.78828375 C0.0567756607,2.75309375 0.0862256607,2.72364375 0.121415661,2.70253375 L4.50686066,0.07125375 C4.66521066,-0.02375125 4.86301066,-0.02375125 5.02136066,0.07125375 Z" id="路径"></path>
                    </g>
                </g>
            </g>
        </g>
    </g>
</svg>