<?xml version="1.0" encoding="UTF-8"?>
<svg width="40px" height="33px" viewBox="0 0 40 33" version="1.1" xmlns="http://www.w3.org/2000/svg" xmlns:xlink="http://www.w3.org/1999/xlink">
    <!-- Generator: Sketch 52.2 (67145) - http://www.bohemiancoding.com/sketch -->
    <title>物品icon</title>
    <desc>Created with Sketch.</desc>
    <g id="RFX维护&amp;核价（替换icon）" stroke="none" stroke-width="1" fill="none" fill-rule="evenodd">
        <g id="核价-物品明细-两行--展开列表" transform="translate(-270.000000, -1082.000000)">
            <g id="分组-23-copy-2" transform="translate(268.000000, 1076.000000)">
                <g id="物品icon">
                    <g id="分组-17-copy">
                        <rect id="矩形-copy-4" fill="#D8D8D8" opacity="0" x="0" y="0" width="44" height="44"></rect>
                        <g id="分组-14" transform="translate(2.762222, 6.502222)" fill="#0687FF">
                            <g id="分组-3">
                                <path d="M31.8575917,0 C33.4616433,0 34.7585361,1.55612023 34.7670683,3.45804495 L34.7670683,21.8060247 C34.7670683,23.7181201 33.4701755,25.2640696 31.8661239,25.2640696 L6.84121216,25.2640696 C5.23716054,25.2640696 3.94026774,23.7181201 3.94026774,21.8060247 L3.94026774,3.45804495 C3.94026774,1.54594951 5.23716054,0 6.84121216,0 L31.8575917,0 Z M31.8869111,2.0860241 L6.82042487,2.0860241 C6.25617245,2.0860241 5.79451138,2.63712635 5.79451138,3.31069578 L5.79451138,21.7215934 C5.79451138,22.3951628 6.25617245,22.9462651 6.82042487,22.9462651 L31.8869111,22.9462651 C32.4511636,22.9462651 32.9128246,22.3951628 32.9128246,21.7215934 L32.9128246,3.31069578 C32.9128246,2.63712635 32.4511636,2.0860241 31.8869111,2.0860241 Z" id="合并形状" fill-rule="nonzero"></path>
                                <path d="M1.17141188,29.4361178 L37.3041437,29.4361178 C37.9537448,29.4361178 38.4755556,29.9007323 38.4755556,30.4791299 C38.4755556,31.0575274 37.9537448,31.5221419 37.3041437,31.5221419 L1.17141188,31.5221419 C0.521810745,31.5221419 0,31.0575274 0,30.4791299 C0,29.9007323 0.521810745,29.4361178 1.17141188,29.4361178 Z" id="路径" fill-rule="nonzero"></path>
                                <path d="M13.912801,6.48985274 L28.5030223,6.48985274 C29.0204662,6.48985274 29.4361178,6.9544672 29.4361178,7.53286479 C29.4361178,8.11126238 29.0204662,8.57587684 28.5030223,8.57587684 L13.912801,8.57587684 C13.3953571,8.57587684 12.9797055,8.11126238 12.9797055,7.53286479 C12.9797055,6.96394913 13.4038398,6.48985274 13.912801,6.48985274 Z" id="路径"></path>
                                <path d="M9.27121821,7.53286479 C9.27121821,8.10890444 9.68630478,8.57587684 10.19834,8.57587684 C10.7103753,8.57587684 11.1254618,8.10890444 11.1254618,7.53286479 C11.1254618,6.95682514 10.7103753,6.48985274 10.19834,6.48985274 C9.68630478,6.48985274 9.27121821,6.95682514 9.27121821,7.53286479 Z" id="路径"></path>
                                <path d="M13.912801,12.0525837 L28.5030223,12.0525837 C29.0204662,12.0525837 29.4361178,12.5171981 29.4361178,13.0955957 C29.4361178,13.6739933 29.0204662,14.1386078 28.5030223,14.1386078 L13.912801,14.1386078 C13.3953571,14.1386078 12.9797055,13.6739933 12.9797055,13.0955957 C12.9797055,12.5171981 13.4038398,12.0525837 13.912801,12.0525837 Z" id="路径"></path>
                                <path d="M9.27121821,13.0955957 C9.27121821,13.6716354 9.68630478,14.1386078 10.19834,14.1386078 C10.7103753,14.1386078 11.1254618,13.6716354 11.1254618,13.0955957 C11.1254618,12.5195561 10.7103753,12.0525837 10.19834,12.0525837 C9.68630478,12.0525837 9.27121821,12.5195561 9.27121821,13.0955957 Z" id="路径"></path>
                                <path d="M13.912801,17.3835341 L28.5030223,17.3835341 C29.0204662,17.3835341 29.4361178,17.8481486 29.4361178,18.4265462 C29.4361178,19.0049438 29.0204662,19.4695582 28.5030223,19.4695582 L13.912801,19.4695582 C13.3953571,19.4695582 12.9797055,19.0049438 12.9797055,18.4265462 C12.9797055,17.8481486 13.4038398,17.3835341 13.912801,17.3835341 Z" id="路径"></path>
                                <path d="M9.27121821,18.4265462 C9.27121821,19.0025858 9.68630478,19.4695582 10.19834,19.4695582 C10.7103753,19.4695582 11.1254618,19.0025858 11.1254618,18.4265462 C11.1254618,17.8505065 10.7103753,17.3835341 10.19834,17.3835341 C9.68630478,17.3835341 9.27121821,17.8505065 9.27121821,18.4265462 Z" id="路径"></path>
                            </g>
                        </g>
                    </g>
                </g>
            </g>
        </g>
    </g>
</svg>