<?xml version="1.0" encoding="UTF-8"?>
<svg width="16px" height="16px" viewBox="0 0 16 16" version="1.1" xmlns="http://www.w3.org/2000/svg" xmlns:xlink="http://www.w3.org/1999/xlink">
    <!-- Generator: Sketch 52.2 (67145) - http://www.bohemiancoding.com/sketch -->
    <title>ZS打赏总额</title>
    <desc>Created with Sketch.</desc>
    <g id="Page-1" stroke="none" stroke-width="1" fill="none" fill-rule="evenodd">
        <g id="供应商报价" transform="translate(-252.000000, -346.000000)">
            <g id="Group-10" transform="translate(236.000000, 284.000000)">
                <g id="ZS打赏总额" transform="translate(16.000000, 62.000000)">
                    <rect id="Rectangle" fill="#000000" opacity="0" x="0" y="0" width="16" height="16"></rect>
                    <path d="M0.693333328,8.85333333 C0.586666656,9.01333333 0.533333328,9.17333333 0.533333328,9.38666666 L0.533333328,10.9333333 C0.533333328,12.1066667 2.66666666,13.0666667 5.33333333,13.0666667 L5.33333333,10.5066667 C3.09333333,10.5066667 1.17333333,9.81333333 0.693333328,8.85333333 Z M5.38666667,3.73333333 C8,3.73333333 10.08,3.04 10.08,2.13333333 C10.08,1.22666666 8,0.533333328 5.38666667,0.533333328 C2.77333333,0.533333328 0.64,1.28 0.64,2.13333333 C0.64,3.04 2.77333333,3.73333333 5.38666667,3.73333333 Z M0.693333328,5.70666667 C0.586666672,5.86666667 0.533333328,6.08 0.533333328,6.24 L0.533333328,7.78666667 C0.533333328,8.96 2.66666666,9.92 5.33333333,9.92 L5.33333333,7.36 C3.09333333,7.36 1.17333333,6.66666667 0.693333328,5.70666667 Z M15.36,8.26666667 C15.2533333,9.12 13.2266667,9.81333334 10.6666667,9.81333334 C8.10666667,9.81333334 6.08,9.12000002 5.97333334,8.26666667 C5.86666667,8.42666667 5.86666667,8.58666667 5.86666667,8.74666667 L5.86666667,10.2933333 C5.86666667,11.4666667 8.05333334,12.4266667 10.72,12.4266667 C13.3866667,12.4266667 15.5733333,11.4666667 15.5733333,10.2933333 L15.5733333,8.74666667 C15.4666667,8.58666667 15.4133333,8.42666667 15.36,8.26666667 Z M10.6133333,12.9066667 C8.37333333,12.9066667 6.45333333,12.2133333 5.92,11.3066667 C5.81333333,11.4666667 5.76,11.6266667 5.76,11.84 L5.76,13.3333333 C5.76,14.5066667 7.94666667,15.4666667 10.6133333,15.4666667 C13.28,15.4666667 15.4666667,14.5066667 15.4666667,13.3333333 L15.4666667,11.7866667 C15.4666667,11.6266667 15.4133333,11.4666667 15.3066667,11.2533333 C14.8266667,12.2133333 12.9066667,12.9066667 10.6133333,12.9066667 Z M9.70666667,5.6 C10.0266667,5.33333333 10.1866667,5.01333333 10.1866667,4.69333333 L10.1866667,3.2 C10.1866667,3.04 10.1333333,2.88 10.08,2.72 C9.97333333,3.57333333 7.94666667,4.26666667 5.38666667,4.26666667 C2.82666667,4.21333333 0.746666672,3.57333333 0.64,2.66666667 C0.586666672,2.82666667 0.533333328,2.98666667 0.533333328,3.2 L0.533333328,4.74666667 C0.533333328,5.92 2.72,6.88 5.38666666,6.88 C5.49333333,6.88 5.54666666,6.88 5.65333333,6.88 C6.08,6.18666667 7.73333333,5.70666667 9.70666667,5.6 Z M5.92,7.73333333 C5.92,8.64 8,9.33333333 10.6133333,9.33333333 C13.2266667,9.33333333 15.3066667,8.64 15.3066667,7.73333333 C15.3066667,6.82666666 13.2266667,6.13333333 10.6133333,6.13333333 C8.05333333,6.13333333 5.92,6.82666667 5.92,7.73333333 Z" id="Shape" fill="#FF913C" fill-rule="nonzero"></path>
                </g>
            </g>
        </g>
    </g>
</svg>