<?xml version="1.0" encoding="UTF-8"?>
<svg width="12px" height="12px" viewBox="0 0 12 12" version="1.1" xmlns="http://www.w3.org/2000/svg" xmlns:xlink="http://www.w3.org/1999/xlink">
    <!-- Generator: Sketch 59 (86127) - https://sketch.com -->
    <title>Rectangle备份 4</title>
    <desc>Created with Sketch.</desc>
    <defs>
        <rect id="path-1" x="0" y="0" width="1220" height="48"></rect>
        <filter x="-0.0%" y="-1.0%" width="100.1%" height="102.1%" filterUnits="objectBoundingBox" id="filter-2">
            <feOffset dx="0" dy="-1" in="SourceAlpha" result="shadowOffsetInner1"></feOffset>
            <feComposite in="shadowOffsetInner1" in2="SourceAlpha" operator="arithmetic" k2="-1" k3="1" result="shadowInnerInner1"></feComposite>
            <feColorMatrix values="0 0 0 0 0.909803922   0 0 0 0 0.909803922   0 0 0 0 0.909803922  0 0 0 1 0" type="matrix" in="shadowInnerInner1"></feColorMatrix>
        </filter>
    </defs>
    <g id="页面-1" stroke="none" stroke-width="1" fill="none" fill-rule="evenodd">
        <g id="多轮报价-物品明细" transform="translate(-1184.000000, -99.000000)">
            <rect fill="#F4F5F7" x="0" y="0" width="1440" height="900"></rect>
            <g id="分组-15" transform="translate(220.000000, 80.000000)">
                <g id="矩形">
                    <use fill="#FFFFFF" fill-rule="evenodd" xlink:href="#path-1"></use>
                    <use fill="black" fill-opacity="1" filter="url(#filter-2)" xlink:href="#path-1"></use>
                </g>
                <g id="分组-8" transform="translate(948.000000, 10.000000)">
                    <g id="编组-8" transform="translate(16.000000, 9.000000)" fill-rule="nonzero">
                        <rect id="Rectangle备份-4" fill="#333333" opacity="0" x="0" y="0" width="12" height="12"></rect>
                        <path d="M9.38380281,0.6 C9.59568744,0.6 9.76745387,0.771766429 9.76745387,0.983651056 L9.76745387,0.983651056 L9.76745387,3.35307178 C9.76745387,3.56495641 9.59568744,3.73672284 9.38380281,3.73672284 C9.17191819,3.73672284 9.00015176,3.56495641 9.00015176,3.35307178 L9.00015176,3.35307178 L9.00015176,1.36730211 L0.767302112,1.36730211 L0.767302112,10.593648 L9.00015176,10.593648 L9.00015176,8.27031293 C9.00015176,8.05842831 9.17191819,7.88666188 9.38380281,7.88666188 C9.59568744,7.88666188 9.76745387,8.05842831 9.76745387,8.27031293 L9.76745387,8.27031293 L9.76745387,10.977299 C9.76745387,11.1891837 9.59568744,11.3609501 9.38380281,11.3609501 L9.38380281,11.3609501 L0.383651056,11.3609501 C0.171766429,11.3609501 -4.52970994e-14,11.1891837 -4.52970994e-14,10.977299 L-4.52970994e-14,10.977299 L-4.52970994e-14,0.983651056 C-4.52970994e-14,0.771766429 0.171766429,0.6 0.383651056,0.6 L0.383651056,0.6 Z M11.8545875,2.62543335 C11.9999027,2.74056931 12.0394741,2.93970654 11.9589454,3.09894883 L11.9170382,3.16439176 L7.66994606,8.52472599 C7.57689098,8.64217255 7.42896472,8.69054532 7.29157751,8.66226499 L6.86354411,9.19855129 C6.79752259,9.28140618 6.67683441,9.29505232 6.59397952,9.2290308 C6.52769561,9.17621358 6.5057053,9.0884097 6.53336356,9.01297914 L6.56350002,8.95946621 L7.00454817,8.40571549 C6.97373541,8.3111823 6.98007785,8.20612001 7.02632573,8.11426365 L7.06853689,8.04821835 L11.3156291,2.68788412 C11.447213,2.52180956 11.6885129,2.4938494 11.8545875,2.62543335 Z M6.60644188,2.79796551 C6.74312538,2.93464901 6.76021082,3.14564122 6.65769819,3.3009019 L6.60644188,3.36365093 L4.90416462,5.06480822 L6.32359917,5.06552549 C6.51689883,5.06552549 6.67817408,5.20263829 6.71547259,5.38491154 L6.72359917,5.46552549 C6.72359917,5.65882515 6.58648637,5.82010041 6.40421312,5.85739891 L6.32359917,5.86552549 L4.86416462,5.86480822 L4.86416462,6.69980822 L6.32359917,6.7 C6.51689883,6.7 6.67817408,6.8371128 6.71547259,7.01938605 L6.72359917,7.1 C6.72359917,7.29329966 6.58648637,7.45457492 6.40421312,7.49187342 L6.32359917,7.5 L4.86416462,7.49980822 L4.86449058,8.57417746 C4.86449058,8.76747713 4.72737778,8.92875238 4.54510453,8.96605089 L4.46449058,8.97417746 C4.27119091,8.97417746 4.10991566,8.83706467 4.07261715,8.65479142 L4.06449058,8.57417746 L4.06416462,7.49980822 L2.70311359,7.5 C2.50981392,7.5 2.34853867,7.3628872 2.31124017,7.18061395 L2.30311359,7.1 C2.30311359,6.90670034 2.44022638,6.74542508 2.62249964,6.70812658 L2.70311359,6.7 L4.06416462,6.69980822 L4.06416462,5.86480822 L2.70311359,5.86552549 C2.50981392,5.86552549 2.34853867,5.7284127 2.31124017,5.54613944 L2.30311359,5.46552549 C2.30311359,5.27222583 2.44022638,5.11095058 2.62249964,5.07365207 L2.70311359,5.06552549 L3.97216462,5.06480822 L2.27132191,3.36365093 C2.13463841,3.22696743 2.11755297,3.01597522 2.2200656,2.86071454 L2.27132191,2.79796551 C2.40800541,2.66128201 2.61899762,2.64419657 2.7742583,2.74670919 L2.83700733,2.79796551 L4.43888189,4.39984007 L6.04075645,2.79796551 C6.19696617,2.64175579 6.45023216,2.64175579 6.60644188,2.79796551 Z" id="形状结合" fill="#666666"></path>
                    </g>
                    <rect id="矩形-copy-3" stroke="#D5DAE0" x="0.5" y="0.5" width="123" height="27" rx="2"></rect>
                </g>
            </g>
        </g>
    </g>
</svg>