<?xml version="1.0" encoding="UTF-8"?>
<svg width="280px" height="153px" viewBox="0 0 280 153" version="1.1" xmlns="http://www.w3.org/2000/svg" xmlns:xlink="http://www.w3.org/1999/xlink">
    <title>编组 10</title>
    <defs>
        <rect id="path-1" x="153.331274" y="6.47878624" width="86.3298267" height="59.5400456" rx="2"></rect>
        <filter x="-64.9%" y="-67.2%" width="229.7%" height="288.1%" filterUnits="objectBoundingBox" id="filter-2">
            <feOffset dx="0" dy="16" in="SourceAlpha" result="shadowOffsetOuter1"></feOffset>
            <feGaussianBlur stdDeviation="16" in="shadowOffsetOuter1" result="shadowBlurOuter1"></feGaussianBlur>
            <feColorMatrix values="0 0 0 0 0.11372549   0 0 0 0 0.129411765   0 0 0 0 0.160784314  0 0 0 0.06 0" type="matrix" in="shadowBlurOuter1" result="shadowMatrixOuter1"></feColorMatrix>
            <feOffset dx="0" dy="8" in="SourceAlpha" result="shadowOffsetOuter2"></feOffset>
            <feGaussianBlur stdDeviation="8" in="shadowOffsetOuter2" result="shadowBlurOuter2"></feGaussianBlur>
            <feColorMatrix values="0 0 0 0 0.11372549   0 0 0 0 0.129411765   0 0 0 0 0.160784314  0 0 0 0.06 0" type="matrix" in="shadowBlurOuter2" result="shadowMatrixOuter2"></feColorMatrix>
            <feOffset dx="0" dy="4" in="SourceAlpha" result="shadowOffsetOuter3"></feOffset>
            <feGaussianBlur stdDeviation="4" in="shadowOffsetOuter3" result="shadowBlurOuter3"></feGaussianBlur>
            <feColorMatrix values="0 0 0 0 0.11372549   0 0 0 0 0.129411765   0 0 0 0 0.160784314  0 0 0 0.06 0" type="matrix" in="shadowBlurOuter3" result="shadowMatrixOuter3"></feColorMatrix>
            <feMerge>
                <feMergeNode in="shadowMatrixOuter1"></feMergeNode>
                <feMergeNode in="shadowMatrixOuter2"></feMergeNode>
                <feMergeNode in="shadowMatrixOuter3"></feMergeNode>
            </feMerge>
        </filter>
    </defs>
    <g id="页面-1" stroke="none" stroke-width="1" fill="none" fill-rule="evenodd">
        <g id="寻源事项须知" transform="translate(-755, -301)">
            <g id="编组-10" transform="translate(755, 311)">
                <rect id="矩形" fill="#FFFFFF" x="0" y="0" width="279.7" height="142.889631"></rect>
                <g id="编组" transform="translate(39.9525, 23.8141)" fill-rule="nonzero">
                    <g id="背景">
                        <path d="M2.97676233,0 L163.721928,0 C165.365948,0 166.698691,1.33274189 166.698691,2.97676233 L166.698691,116.09373 C166.698691,117.737751 165.365948,119.070493 163.721928,119.070493 L2.97676233,119.070493 C1.33274189,119.070493 0,117.737751 0,116.09373 L0,2.97676233 C0,1.33274189 1.33274189,0 2.97676233,0 Z" id="矩形" fill="#F1F4F8"></path>
                        <path d="M2.97676233,0 L163.721928,0 C165.365948,0 166.698691,1.33274189 166.698691,2.97676233 L166.698691,11.9070493 L0,11.9070493 L0,2.97676233 C0,1.33274189 1.33274189,0 2.97676233,0 Z" id="矩形" fill="#DBDEE3"></path>
                        <circle id="椭圆形" fill="#FFFFFF" cx="8.93028696" cy="5.95352465" r="2.97676233"></circle>
                        <circle id="椭圆形备份" fill="#FFFFFF" cx="20.8373362" cy="5.95352465" r="2.97676233"></circle>
                        <circle id="椭圆形备份-2" fill="#FFFFFF" cx="32.7443856" cy="5.95352465" r="2.97676233"></circle>
                        <path d="M8.93028696,17.860574 L157.768403,17.860574 C159.412424,17.860574 160.745165,19.1933158 160.745165,20.8373362 L160.745165,110.140206 C160.745165,111.784226 159.412424,113.116969 157.768403,113.116969 L8.93028696,113.116969 C7.28626654,113.116969 5.95352465,111.784226 5.95352465,110.140206 L5.95352465,20.8373362 C5.95352465,19.1933158 7.28626654,17.860574 8.93028696,17.860574 Z" id="矩形" fill="#FFFFFF"></path>
                        <path d="M8.93028696,17.860574 L47.6281971,17.860574 L47.6281971,113.116969 L8.93028696,113.116969 C7.28626654,113.116969 5.95352465,111.784226 5.95352465,110.140206 L5.95352465,20.8373362 C5.95352465,19.1933158 7.28626654,17.860574 8.93028696,17.860574 Z" id="矩形" fill="#E2E5E9"></path>
                        <path d="M13.3954305,23.8140986 L16.3721928,23.8140986 C17.1942029,23.8140986 17.860574,24.4804695 17.860574,25.3024797 L17.860574,28.2792421 C17.860574,29.1012523 17.1942029,29.7676233 16.3721928,29.7676233 L13.3954305,29.7676233 C12.5734202,29.7676233 11.9070493,29.1012523 11.9070493,28.2792421 L11.9070493,25.3024797 C11.9070493,24.4804695 12.5734202,23.8140986 13.3954305,23.8140986 Z" id="矩形" fill="#FFFFFF"></path>
                        <path d="M25.3024797,23.8140986 L40.1862914,23.8140986 C41.0083016,23.8140986 41.6746725,24.4804695 41.6746725,25.3024797 L41.6746725,28.2792421 C41.6746725,29.1012523 41.0083016,29.7676233 40.1862914,29.7676233 L25.3024797,29.7676233 C24.4804695,29.7676233 23.8140986,29.1012523 23.8140986,28.2792421 L23.8140986,25.3024797 C23.8140986,24.4804695 24.4804695,23.8140986 25.3024797,23.8140986 Z" id="矩形备份" fill="#FFFFFF"></path>
                        <path d="M13.3954305,35.7211478 L40.1862914,35.7211478 C41.0083016,35.7211478 41.6746725,36.3875189 41.6746725,37.209529 L41.6746725,40.1862914 C41.6746725,41.0083016 41.0083016,41.6746725 40.1862914,41.6746725 L13.3954305,41.6746725 C12.5734202,41.6746725 11.9070493,41.0083016 11.9070493,40.1862914 L11.9070493,37.209529 C11.9070493,36.3875189 12.5734202,35.7211478 13.3954305,35.7211478 Z" id="矩形备份-2" fill="#FFFFFF"></path>
                        <path d="M13.3954305,47.6281971 L34.2327667,47.6281971 C35.0547769,47.6281971 35.7211478,48.2945681 35.7211478,49.1165783 L35.7211478,52.0933406 C35.7211478,52.9153509 35.0547769,53.5817218 34.2327667,53.5817218 L13.3954305,53.5817218 C12.5734202,53.5817218 11.9070493,52.9153509 11.9070493,52.0933406 L11.9070493,49.1165783 C11.9070493,48.2945681 12.5734202,47.6281971 13.3954305,47.6281971 Z" id="矩形备份-3" fill="#FFFFFF"></path>
                        <path d="M13.3954305,59.5352465 L40.1862914,59.5352465 C41.0083016,59.5352465 41.6746725,60.2016174 41.6746725,61.0236276 L41.6746725,64.0003899 C41.6746725,64.8224002 41.0083016,65.4887711 40.1862914,65.4887711 L13.3954305,65.4887711 C12.5734202,65.4887711 11.9070493,64.8224002 11.9070493,64.0003899 L11.9070493,61.0236276 C11.9070493,60.2016174 12.5734202,59.5352465 13.3954305,59.5352465 Z" id="矩形备份-4" fill="#FFFFFF"></path>
                        <path d="M13.3954305,71.4422958 L25.3024797,71.4422958 C26.12449,71.4422958 26.7908609,72.1086667 26.7908609,72.930677 L26.7908609,75.9074392 C26.7908609,76.7294495 26.12449,77.3958204 25.3024797,77.3958204 L13.3954305,77.3958204 C12.5734202,77.3958204 11.9070493,76.7294495 11.9070493,75.9074392 L11.9070493,72.930677 C11.9070493,72.1086667 12.5734202,71.4422958 13.3954305,71.4422958 Z" id="矩形备份-5" fill="#FFFFFF"></path>
                    </g>
                    <path d="M55.070103,23.8140986 L72.930677,23.8140986 C73.7526871,23.8140986 74.419058,24.4804695 74.419058,25.3024797 L74.419058,31.2560044 C74.419058,32.0780146 73.7526871,32.7443856 72.930677,32.7443856 L55.070103,32.7443856 C54.2480927,32.7443856 53.5817218,32.0780146 53.5817218,31.2560044 L53.5817218,25.3024797 C53.5817218,24.4804695 54.2480927,23.8140986 55.070103,23.8140986 Z" id="矩形" fill="#F1F4F8"></path>
                    <path d="M81.8609639,23.8140986 L99.7215379,23.8140986 C100.543548,23.8140986 101.209919,24.4804695 101.209919,25.3024797 L101.209919,31.2560044 C101.209919,32.0780146 100.543548,32.7443856 99.7215379,32.7443856 L81.8609639,32.7443856 C81.0389536,32.7443856 80.3725827,32.0780146 80.3725827,31.2560044 L80.3725827,25.3024797 C80.3725827,24.4804695 81.0389536,23.8140986 81.8609639,23.8140986 Z" id="矩形备份" fill="#F1F4F8"></path>
                    <path d="M55.070103,44.6514349 L105.675062,44.6514349 C106.497073,44.6514349 107.163444,45.3178058 107.163444,46.139816 C107.163444,46.9618262 106.497073,47.6281971 105.675062,47.6281971 L55.070103,47.6281971 C54.2480927,47.6281971 53.5817218,46.9618262 53.5817218,46.139816 C53.5817218,45.3178058 54.2480927,44.6514349 55.070103,44.6514349 Z" id="矩形备份-2" fill="#F1F4F8"></path>
                    <path d="M114.605349,44.6514349 L153.30326,44.6514349 C154.12527,44.6514349 154.79164,45.3178058 154.79164,46.139816 C154.79164,46.9618262 154.12527,47.6281971 153.30326,47.6281971 L114.605349,47.6281971 C113.783339,47.6281971 113.116969,46.9618262 113.116969,46.139816 C113.116969,45.3178058 113.783339,44.6514349 114.605349,44.6514349 Z" id="矩形备份-3" fill="#F1F4F8"></path>
                    <path d="M55.070103,53.5817218 L81.8609639,53.5817218 C82.6829741,53.5817218 83.3493451,54.2480927 83.3493451,55.070103 C83.3493451,55.8921132 82.6829741,56.5584842 81.8609639,56.5584842 L55.070103,56.5584842 C54.2480927,56.5584842 53.5817218,55.8921132 53.5817218,55.070103 C53.5817218,54.2480927 54.2480927,53.5817218 55.070103,53.5817218 Z" id="矩形备份-6" fill="#F1F4F8"></path>
                    <path d="M90.7912508,53.5817218 L117.582112,53.5817218 C118.404122,53.5817218 119.070493,54.2480927 119.070493,55.070103 C119.070493,55.8921132 118.404122,56.5584842 117.582112,56.5584842 L90.7912508,56.5584842 C89.9692407,56.5584842 89.3028696,55.8921132 89.3028696,55.070103 C89.3028696,54.2480927 89.9692407,53.5817218 90.7912508,53.5817218 Z" id="矩形备份-7" fill="#F1F4F8"></path>
                    <path d="M126.512399,53.5817218 L153.30326,53.5817218 C154.12527,53.5817218 154.79164,54.2480927 154.79164,55.070103 C154.79164,55.8921132 154.12527,56.5584842 153.30326,56.5584842 L126.512399,56.5584842 C125.690388,56.5584842 125.024018,55.8921132 125.024018,55.070103 C125.024018,54.2480927 125.690388,53.5817218 126.512399,53.5817218 Z" id="矩形备份-8" fill="#F1F4F8"></path>
                    <path d="M154.79164,38.3258149 C154.997143,38.3258149 155.163736,38.5675358 155.163736,38.8657138 C155.163736,39.1638917 154.997143,39.4056126 154.79164,39.4056126 L53.5817218,39.4056126 C53.3762192,39.4056126 53.2096265,39.1638917 53.2096265,38.8657138 C53.2096265,38.5675358 53.3762192,38.3258149 53.5817218,38.3258149 L154.79164,38.3258149 Z" id="路径" fill="#F1F4F8"></path>
                    <path d="M55.070103,65.4887711 L58.0468653,65.4887711 C58.8688755,65.4887711 59.5352465,66.155142 59.5352465,66.9771523 L59.5352465,69.9539146 C59.5352465,70.7759248 58.8688755,71.4422958 58.0468653,71.4422958 L55.070103,71.4422958 C54.2480927,71.4422958 53.5817218,70.7759248 53.5817218,69.9539146 L53.5817218,66.9771523 C53.5817218,66.155142 54.2480927,65.4887711 55.070103,65.4887711 Z" id="矩形" fill="#F1F4F8"></path>
                    <path d="M55.070103,77.3958204 L58.0468653,77.3958204 C58.8688755,77.3958204 59.5352465,78.0621913 59.5352465,78.8842015 L59.5352465,81.8609639 C59.5352465,82.6829741 58.8688755,83.3493451 58.0468653,83.3493451 L55.070103,83.3493451 C54.2480927,83.3493451 53.5817218,82.6829741 53.5817218,81.8609639 L53.5817218,78.8842015 C53.5817218,78.0621913 54.2480927,77.3958204 55.070103,77.3958204 Z" id="矩形备份-4" fill="#F1F4F8"></path>
                    <path d="M66.9771523,65.4887711 L105.675062,65.4887711 C106.497073,65.4887711 107.163444,66.155142 107.163444,66.9771523 L107.163444,69.9539146 C107.163444,70.7759248 106.497073,71.4422958 105.675062,71.4422958 L66.9771523,71.4422958 C66.155142,71.4422958 65.4887711,70.7759248 65.4887711,69.9539146 L65.4887711,66.9771523 C65.4887711,66.155142 66.155142,65.4887711 66.9771523,65.4887711 Z" id="矩形备份-10" fill="#F1F4F8"></path>
                    <path d="M114.605349,65.4887711 L129.489161,65.4887711 C130.311171,65.4887711 130.977542,66.155142 130.977542,66.9771523 L130.977542,69.9539146 C130.977542,70.7759248 130.311171,71.4422958 129.489161,71.4422958 L114.605349,71.4422958 C113.783339,71.4422958 113.116969,70.7759248 113.116969,69.9539146 L113.116969,66.9771523 C113.116969,66.155142 113.783339,65.4887711 114.605349,65.4887711 Z" id="矩形备份-14" fill="#FDEEEA"></path>
                    <path d="M66.9771523,77.3958204 L126.512399,77.3958204 C127.334409,77.3958204 128.000779,78.0621913 128.000779,78.8842015 L128.000779,81.8609639 C128.000779,82.6829741 127.334409,83.3493451 126.512399,83.3493451 L66.9771523,83.3493451 C66.155142,83.3493451 65.4887711,82.6829741 65.4887711,81.8609639 L65.4887711,78.8842015 C65.4887711,78.0621913 66.155142,77.3958204 66.9771523,77.3958204 Z" id="矩形备份-11" fill="#F1F4F8"></path>
                    <path d="M55.070103,89.3028696 L58.0468653,89.3028696 C58.8688755,89.3028696 59.5352465,89.9692407 59.5352465,90.7912508 L59.5352465,93.7680132 C59.5352465,94.5900234 58.8688755,95.2563943 58.0468653,95.2563943 L55.070103,95.2563943 C54.2480927,95.2563943 53.5817218,94.5900234 53.5817218,93.7680132 L53.5817218,90.7912508 C53.5817218,89.9692407 54.2480927,89.3028696 55.070103,89.3028696 Z" id="矩形备份-5" fill="#F1F4F8"></path>
                    <path d="M66.9771523,89.3028696 L126.512399,89.3028696 C127.334409,89.3028696 128.000779,89.9692407 128.000779,90.7912508 L128.000779,93.7680132 C128.000779,94.5900234 127.334409,95.2563943 126.512399,95.2563943 L66.9771523,95.2563943 C66.155142,95.2563943 65.4887711,94.5900234 65.4887711,93.7680132 L65.4887711,90.7912508 C65.4887711,89.9692407 66.155142,89.3028696 66.9771523,89.3028696 Z" id="矩形备份-12" fill="#F1F4F8"></path>
                    <path d="M55.070103,101.209919 L58.0468653,101.209919 C58.8688755,101.209919 59.5352465,101.87629 59.5352465,102.6983 L59.5352465,105.675062 C59.5352465,106.497073 58.8688755,107.163444 58.0468653,107.163444 L55.070103,107.163444 C54.2480927,107.163444 53.5817218,106.497073 53.5817218,105.675062 L53.5817218,102.6983 C53.5817218,101.87629 54.2480927,101.209919 55.070103,101.209919 Z" id="矩形备份-9" fill="#F1F4F8"></path>
                    <path d="M66.9771523,101.209919 L114.605349,101.209919 C115.42736,101.209919 116.09373,101.87629 116.09373,102.6983 L116.09373,105.675062 C116.09373,106.497073 115.42736,107.163444 114.605349,107.163444 L66.9771523,107.163444 C66.155142,107.163444 65.4887711,106.497073 65.4887711,105.675062 L65.4887711,102.6983 C65.4887711,101.87629 66.155142,101.209919 66.9771523,101.209919 Z" id="矩形备份-13" fill="#F1F4F8"></path>
                    <circle id="椭圆形" fill="#FDEEEA" cx="151.814879" cy="68.4655334" r="2.97676233"></circle>
                    <circle id="椭圆形备份" fill="#FDEEEA" cx="151.814879" cy="80.3725827" r="2.97676233"></circle>
                    <circle id="椭圆形备份-2" fill="#ECF7F2" cx="151.814879" cy="92.279632" r="2.97676233"></circle>
                    <circle id="椭圆形备份-3" fill="#ECF7F2" cx="151.814879" cy="104.186681" r="2.97676233"></circle>
                </g>
                <g id="矩形">
                    <use fill="black" fill-opacity="1" filter="url(#filter-2)" xlink:href="#path-1"></use>
                    <use fill="#FFFFFF" fill-rule="evenodd" xlink:href="#path-1"></use>
                </g>
                <g id="矩形" transform="translate(159.023, 23.8141)" fill-rule="nonzero">
                    <g id="path-3-link" fill=" currentColor">
                        <path d="M1.48838128,0 L34.2327673,0 C35.0547774,0 35.7211475,0.666370916 35.7211475,1.48838117 L35.7211475,4.46514352 C35.7211475,5.28715378 35.0547774,5.95352469 34.2327673,5.95352469 L1.48838128,5.95352469 C0.66637124,5.95352469 0,5.28715378 0,4.46514352 L0,1.48838117 C0,0.666370916 0.66637124,0 1.48838128,0 Z" id="path-3"></path>
                    </g>
                    <g id="path-3-link" fill="#FFFFFF" fill-opacity="0.8">
                        <path d="M1.48838128,0 L34.2327673,0 C35.0547774,0 35.7211475,0.666370916 35.7211475,1.48838117 L35.7211475,4.46514352 C35.7211475,5.28715378 35.0547774,5.95352469 34.2327673,5.95352469 L1.48838128,5.95352469 C0.66637124,5.95352469 0,5.28715378 0,4.46514352 L0,1.48838117 C0,0.666370916 0.66637124,0 1.48838128,0 Z" id="path-3"></path>
                    </g>
                </g>
                <g id="矩形备份-15" transform="translate(159.023, 11.907)" fill-rule="nonzero">
                    <g id="path-4-link" fill=" currentColor">
                        <path d="M1.48838128,0 L55.0701031,0 C55.8921131,0 56.5584844,0.666370916 56.5584844,1.48838117 L56.5584844,4.46514352 C56.5584844,5.28715367 55.8921131,5.95352469 55.0701031,5.95352469 L1.48838128,5.95352469 C0.66637124,5.95352469 0,5.28715367 0,4.46514352 L0,1.48838117 C0,0.666370916 0.66637124,0 1.48838128,0 Z" id="path-4"></path>
                    </g>
                    <g id="path-4-link" fill="#FFFFFF" fill-opacity="0.4">
                        <path d="M1.48838128,0 L55.0701031,0 C55.8921131,0 56.5584844,0.666370916 56.5584844,1.48838117 L56.5584844,4.46514352 C56.5584844,5.28715367 55.8921131,5.95352469 55.0701031,5.95352469 L1.48838128,5.95352469 C0.66637124,5.95352469 0,5.28715367 0,4.46514352 L0,1.48838117 C0,0.666370916 0.66637124,0 1.48838128,0 Z" id="path-4"></path>
                    </g>
                </g>
                <path d="M159.767199,35.7211478 L167.209104,35.7211478 C167.62011,35.7211478 167.953295,36.0543333 167.953295,36.4653385 L167.953295,43.9072442 C167.953295,44.3182494 167.62011,44.6514349 167.209104,44.6514349 L159.767199,44.6514349 C159.356194,44.6514349 159.023008,44.3182494 159.023008,43.9072442 L159.023008,36.4653385 C159.023008,36.0543333 159.356194,35.7211478 159.767199,35.7211478 Z" id="矩形" fill="#ECF7F2" fill-rule="nonzero"></path>
                <path d="M174.65101,38.6979102 L217.814064,38.6979102 C218.225069,38.6979102 218.558255,39.0310957 218.558255,39.4421008 L218.558255,40.9304819 C218.558255,41.341487 218.225069,41.6746725 217.814064,41.6746725 L174.65101,41.6746725 C174.240005,41.6746725 173.90682,41.341487 173.90682,40.9304819 L173.90682,39.4421008 C173.90682,39.0310957 174.240005,38.6979102 174.65101,38.6979102 Z" id="矩形备份-17" fill="#ECF7F2" fill-rule="nonzero"></path>
                <path d="M174.65101,53.5817218 L217.814064,53.5817218 C218.225069,53.5817218 218.558255,53.9149073 218.558255,54.3259123 L218.558255,55.8142935 C218.558255,56.2252986 218.225069,56.5584842 217.814064,56.5584842 L174.65101,56.5584842 C174.240005,56.5584842 173.90682,56.2252986 173.90682,55.8142935 L173.90682,54.3259123 C173.90682,53.9149073 174.240005,53.5817218 174.65101,53.5817218 Z" id="矩形备份-18" fill="#FDF2E8" fill-rule="nonzero"></path>
                <path d="M159.767199,50.6049595 L167.209104,50.6049595 C167.62011,50.6049595 167.953295,50.938145 167.953295,51.3491501 L167.953295,58.7910559 C167.953295,59.202061 167.62011,59.5352465 167.209104,59.5352465 L159.767199,59.5352465 C159.356194,59.5352465 159.023008,59.202061 159.023008,58.7910559 L159.023008,51.3491501 C159.023008,50.938145 159.356194,50.6049595 159.767199,50.6049595 Z" id="矩形备份-16" fill="#FDF2E8" fill-rule="nonzero"></path>
                <circle id="椭圆形" fill="#ECF7F2" fill-rule="nonzero" cx="231.953685" cy="40.1862914" r="1.48838116"></circle>
                <circle id="椭圆形备份-5" fill="#ECF7F2" fill-rule="nonzero" cx="226.00016" cy="40.1862914" r="1.48838116"></circle>
                <circle id="椭圆形备份-4" fill="#FDF2E8" fill-rule="nonzero" cx="231.953685" cy="55.070103" r="1.48838116"></circle>
                <circle id="椭圆形备份-6" fill="#FDF2E8" fill-rule="nonzero" cx="226.00016" cy="55.070103" r="1.48838116"></circle>
                <g id="元素/纸飞机/主色备份" transform="translate(138.2953, 0)" fill-rule="nonzero">
                    <g id="路径-14" transform="translate(0.3189, 7.515)">
                        <g id="path-5-link" fill=" currentColor">
                            <path d="M0.930690669,0 L0.0412317252,1.50764451 C-0.0140871967,1.60141154 -0.013629004,1.71844165 0.0419258591,1.81159993 L0.0457111343,1.81777459 C0.0850495382,1.88022012 0.167990162,1.91215623 0.294533003,1.91358289 L0.303557069,1.91363293 L0.735885388,1.91363293 C0.865304199,1.91363293 0.994271652,1.89811397 1.12011685,1.86739742 L8.77081756,0 L0.930690669,0 Z" id="path-5"></path>
                        </g>
                        <g id="path-5-link" fill="#FFFFFF" fill-opacity="0.4">
                            <path d="M0.930690669,0 L0.0412317252,1.50764451 C-0.0140871967,1.60141154 -0.013629004,1.71844165 0.0419258591,1.81159993 L0.0457111343,1.81777459 C0.0850495382,1.88022012 0.167990162,1.91215623 0.294533003,1.91358289 L0.303557069,1.91363293 L0.735885388,1.91363293 C0.865304199,1.91363293 0.994271652,1.89811397 1.12011685,1.86739742 L8.77081756,0 L0.930690669,0 Z" id="path-5"></path>
                        </g>
                    </g>
                    <g id="路径-5">
                        <g id="path-6-link" fill=" currentColor">
                            <path d="M3.13455617,4.64454657 L17.860574,4.64454657 L0.485784582,0.0127154601 C0.302121837,-0.0362460815 0.111458477,0.0599011156 0.0382604121,0.237265042 L0.0356350685,0.243790087 C-0.0307135371,0.413010381 -0.0031675647,0.605374058 0.107883806,0.748329863 L3.13455617,4.64454657 Z" id="path-6"></path>
                        </g>
                        <g id="path-6-link" fill="#FFFFFF" fill-opacity="0.2">
                            <path d="M3.13455617,4.64454657 L17.860574,4.64454657 L0.485784582,0.0127154601 C0.302121837,-0.0362460815 0.111458477,0.0599011156 0.0382604121,0.237265042 L0.0356350685,0.243790087 C-0.0307135371,0.413010381 -0.0031675647,0.605374058 0.107883806,0.748329863 L3.13455617,4.64454657 Z" id="path-6"></path>
                        </g>
                    </g>
                    <g id="路径-12" transform="translate(1.2558, 4.6445)">
                        <g id="path-7-link" fill=" currentColor">
                            <polygon id="path-7" points="16.6047524 0 1.87978328 0 -2.39763255e-16 2.87044937 4.07286378 2.87044937"></polygon>
                        </g>
                        <g id="path-7-link" fill="#000000" fill-opacity="0.2">
                            <polygon id="path-7" points="16.6047524 0 1.87978328 0 -2.39763255e-16 2.87044937 4.07286378 2.87044937"></polygon>
                        </g>
                    </g>
                    <g id="路径-13" transform="translate(4.5449, 4.6445)">
                        <g id="path-8-link" fill=" currentColor">
                            <path d="M13.3156958,0 L4.85446643,7.97347045 C4.71720331,8.03991613 4.61282733,8.07313891 4.5413385,8.07313891 C4.46984966,8.07313891 4.36773216,8.03991613 4.23498599,7.97347045 L0.00775903523,2.23257174 C-0.0117861347,2.0004397 0.0055947103,1.84749724 0.0599015703,1.77374436 C0.11420843,1.69999146 0.253391547,1.64030804 0.477450921,1.59469409 L13.3156958,0 Z" id="path-8"></path>
                        </g>
                        <g id="path-8-link" fill="#FFFFFF" fill-opacity="0.2">
                            <path d="M13.3156958,0 L4.85446643,7.97347045 C4.71720331,8.03991613 4.61282733,8.07313891 4.5413385,8.07313891 C4.46984966,8.07313891 4.36773216,8.03991613 4.23498599,7.97347045 L0.00775903523,2.23257174 C-0.0117861347,2.0004397 0.0055947103,1.84749724 0.0599015703,1.77374436 C0.11420843,1.69999146 0.253391547,1.64030804 0.477450921,1.59469409 L13.3156958,0 Z" id="path-8"></path>
                        </g>
                    </g>
                </g>
                <path d="M137.904412,9.43086362 C137.216155,10.2254782 136.580768,10.9953008 135.998241,11.7403838 L136.584517,12.1987508 C137.159153,11.4637606 137.786628,10.7035233 138.466932,9.91809147 L137.904412,9.43086362 Z M134.22657,14.1705833 C133.618639,15.0753385 133.101357,15.9381446 132.674776,16.7592971 L133.335172,17.1023668 C133.748302,16.3071056 134.251318,15.4680961 134.84427,14.5856337 L134.22657,14.1705833 Z M131.513799,19.5956191 C131.191276,20.7330822 131.093855,21.7723293 131.225445,22.7125062 L131.962452,22.6093518 C131.84616,21.7784807 131.933961,20.8418575 132.229765,19.7986284 L131.513799,19.5956191 Z M132.640707,25.5968329 C133.077744,26.0469489 133.61017,26.4480283 134.236876,26.8006689 C134.619643,27.0131496 134.953566,27.1805683 135.283415,27.3264642 L135.584446,26.6458761 C135.275849,26.5093805 134.961869,26.3519604 134.599939,26.1510532 C134.03524,25.8332966 133.55988,25.4752046 133.174628,25.0784245 L132.640707,25.5968329 Z M138.348312,27.9982511 C139.616486,27.9246938 140.583777,27.3047116 141.113265,26.3151365 L140.4571,25.9640439 C140.049664,26.7255103 139.314403,27.196774 138.30522,27.2553091 L138.348312,27.9982511 Z M141.186291,22.9981591 C140.764233,22.0856978 140.00065,21.4355803 139.009627,21.2180815 C138.8492,21.1828727 138.687828,21.1530181 138.525802,21.1285438 L138.414652,21.864387 C138.560468,21.8864128 138.705704,21.9132822 138.850097,21.9449721 C139.605714,22.1108064 140.183406,22.6026558 140.510855,23.3105804 L141.186291,22.9981591 Z M135.382747,21.3372314 C134.344165,21.6438106 133.407234,22.1825163 132.651746,22.917931 L133.170836,23.4511898 C133.83826,22.8014991 134.668967,22.3238689 135.593436,22.0509746 L135.382747,21.3372314 Z M131.030929,25.5818121 C130.776432,26.4018414 130.66894,27.2989621 130.717166,28.2583693 L130.732566,28.5041394 C130.738094,28.5802537 130.74413,28.6521975 130.751015,28.7248863 L131.49189,28.6547167 L131.469724,28.3768501 C131.466471,28.3273787 131.463375,28.2753977 131.46034,28.2195125 C131.416502,27.3473431 131.513536,26.537499 131.741678,25.8023941 L131.030929,25.5818121 Z M131.575962,31.7324243 C132.024622,32.6410102 132.653331,33.4661873 133.479009,34.203322 L133.974623,33.6481763 C133.219955,32.9744374 132.649579,32.2258215 132.243233,31.4029259 L131.575962,31.7324243 Z M136.05633,35.9040243 C136.89558,36.3174989 137.839653,36.6815951 138.893371,36.9948865 L139.105458,36.2815572 C138.090715,35.9798538 137.185643,35.6307989 136.385222,35.2364546 L136.05633,35.9040243 Z M141.833078,37.684787 C142.761867,37.8529815 143.753331,37.9919262 144.809197,38.1009751 L144.88565,37.3607221 C143.848175,37.2535727 142.875407,37.117248 141.965686,36.9525066 L141.833078,37.684787 Z M147.803886,38.3215964 C148.757746,38.3662588 149.754798,38.3907037 150.795856,38.3945892 L150.798635,37.6504038 C149.768077,37.6465575 148.781691,37.6223741 147.838693,37.5782202 L147.803886,38.3215964 Z M153.749483,37.6092703 L153.772102,38.3531172 L154.569278,38.325651 L154.540696,37.5820094 L153.749483,37.6092703 Z" id="路径-2" fill=" currentColor" fill-rule="nonzero"></path>
            </g>
        </g>
    </g>
</svg>