<?xml version="1.0" encoding="UTF-8"?>
<svg width="238px" height="154px" viewBox="0 0 238 154" version="1.1" xmlns="http://www.w3.org/2000/svg" xmlns:xlink="http://www.w3.org/1999/xlink">
    <title>编组 5</title>
    <defs>
        <path d="M133.9,41.4375 L149.5,41.4375 C150.21797,41.4375 150.8,42.0195298 150.8,42.7375 L150.8,47.9375 C150.8,48.6554702 150.21797,49.2375 149.5,49.2375 L133.9,49.2375 C133.18203,49.2375 132.6,48.6554702 132.6,47.9375 L132.6,42.7375 C132.6,42.0195298 133.18203,41.4375 133.9,41.4375 Z" id="path-1-process-attach-no-data"></path>
        <path d="M94.9,59.6375 L100.1,59.6375 C100.81797,59.6375 101.4,60.2195298 101.4,60.9375 L101.4,66.1375 C101.4,66.8554702 100.81797,67.4375 100.1,67.4375 L94.9,67.4375 C94.1820298,67.4375 93.6,66.8554702 93.6,66.1375 L93.6,60.9375 C93.6,60.2195298 94.1820298,59.6375 94.9,59.6375 Z" id="path-2-process-attach-no-data"></path>
        <path d="M107.9,59.6375 L113.1,59.6375 C113.81797,59.6375 114.4,60.2195298 114.4,60.9375 L114.4,66.1375 C114.4,66.8554702 113.81797,67.4375 113.1,67.4375 L107.9,67.4375 C107.18203,67.4375 106.6,66.8554702 106.6,66.1375 L106.6,60.9375 C106.6,60.2195298 107.18203,59.6375 107.9,59.6375 Z" id="path-3-process-attach-no-data"></path>
        <path d="M122.2,5.0375 L174.2,5.0375 C175.63594,5.0375 176.8,6.20155965 176.8,7.6375 L176.8,67.4375 C176.8,68.8734403 175.63594,70.0375 174.2,70.0375 L122.2,70.0375 C120.76406,70.0375 119.6,68.8734403 119.6,67.4375 L119.6,7.6375 C119.6,6.20155965 120.76406,5.0375 122.2,5.0375 Z" id="path-4-process-attach-no-data"></path>
        <filter x="-97.9%" y="-61.5%" width="295.8%" height="272.3%" filterUnits="objectBoundingBox" id="filter-5">
            <feOffset dx="0" dy="16" in="SourceAlpha" result="shadowOffsetOuter1"></feOffset>
            <feGaussianBlur stdDeviation="16" in="shadowOffsetOuter1" result="shadowBlurOuter1"></feGaussianBlur>
            <feColorMatrix values="0 0 0 0 0.11372549   0 0 0 0 0.129411765   0 0 0 0 0.160784314  0 0 0 0.06 0" type="matrix" in="shadowBlurOuter1" result="shadowMatrixOuter1"></feColorMatrix>
            <feOffset dx="0" dy="8" in="SourceAlpha" result="shadowOffsetOuter2"></feOffset>
            <feGaussianBlur stdDeviation="8" in="shadowOffsetOuter2" result="shadowBlurOuter2"></feGaussianBlur>
            <feColorMatrix values="0 0 0 0 0.11372549   0 0 0 0 0.129411765   0 0 0 0 0.160784314  0 0 0 0.06 0" type="matrix" in="shadowBlurOuter2" result="shadowMatrixOuter2"></feColorMatrix>
            <feOffset dx="0" dy="4" in="SourceAlpha" result="shadowOffsetOuter3"></feOffset>
            <feGaussianBlur stdDeviation="4" in="shadowOffsetOuter3" result="shadowBlurOuter3"></feGaussianBlur>
            <feColorMatrix values="0 0 0 0 0.11372549   0 0 0 0 0.129411765   0 0 0 0 0.160784314  0 0 0 0.06 0" type="matrix" in="shadowBlurOuter3" result="shadowMatrixOuter3"></feColorMatrix>
            <feMerge>
                <feMergeNode in="shadowMatrixOuter1"></feMergeNode>
                <feMergeNode in="shadowMatrixOuter2"></feMergeNode>
                <feMergeNode in="shadowMatrixOuter3"></feMergeNode>
            </feMerge>
        </filter>
        <path d="M126.1,10.2375 L141.7,10.2375 C142.41797,10.2375 143,10.8195298 143,11.5375 L143,16.7375 C143,17.4554702 142.41797,18.0375 141.7,18.0375 L126.1,18.0375 C125.38203,18.0375 124.8,17.4554702 124.8,16.7375 L124.8,11.5375 C124.8,10.8195298 125.38203,10.2375 126.1,10.2375 Z" id="path-6-process-attach-no-data"></path>
        <path d="M1.27736949,7.68181818 L0.36816582,9.22293024 C0.311618896,9.31877877 0.31208726,9.43840679 0.368875362,9.53363304 L0.372744665,9.53994478 C0.412956326,9.60377652 0.497738112,9.63642155 0.627090025,9.63787989 L0.636314412,9.63793103 L1.07823981,9.63793103 C1.21053153,9.63793103 1.34236187,9.62206757 1.47100066,9.59066917 L9.29153605,7.68181818 L1.27736949,7.68181818 Z" id="path-7-process-attach-no-data"></path>
        <path d="M3.20413886,4.7476489 L18.2570533,4.7476489 L0.49656831,0.0129977253 C0.308828512,-0.037050693 0.113932697,0.0612308352 0.0391097388,0.242531989 L0.0364261163,0.24920188 C-0.031395334,0.422178624 -0.00323788011,0.618812502 0.110278673,0.764941722 L3.20413886,4.7476489 Z" id="path-8-process-attach-no-data"></path>
        <polygon id="path-9-process-attach-no-data" points="18.2570533 4.7476489 3.20521086 4.7476489 1.28369906 7.68181818 5.44697463 7.68181818"></polygon>
        <path d="M18.2570533,4.7476489 L9.60799671,12.8981191 C9.46768655,12.9660397 9.36099357,13 9.28791779,13 C9.21484201,13 9.11045764,12.9660397 8.97476469,12.8981191 L4.6536993,7.02978056 C4.63372025,6.79249552 4.65148693,6.63615796 4.70699932,6.56076786 C4.76251172,6.48537777 4.9047845,6.42436946 5.13381768,6.37774295 L18.2570533,4.7476489 Z" id="path-10-process-attach-no-data"></path>
        <circle id="path-11-process-attach-no-data" cx="15.6" cy="15.6" r="15.6"></circle>
        <filter x="-67.3%" y="-48.1%" width="234.6%" height="234.6%" filterUnits="objectBoundingBox" id="filter-12">
            <feOffset dx="0" dy="6" in="SourceAlpha" result="shadowOffsetOuter1"></feOffset>
            <feGaussianBlur stdDeviation="6" in="shadowOffsetOuter1" result="shadowBlurOuter1"></feGaussianBlur>
            <feColorMatrix values="0 0 0 0 0.317647059   0 0 0 0 0.345098039   0 0 0 0 0.454901961  0 0 0 0.08 0" type="matrix" in="shadowBlurOuter1" result="shadowMatrixOuter1"></feColorMatrix>
            <feOffset dx="0" dy="4" in="SourceAlpha" result="shadowOffsetOuter2"></feOffset>
            <feGaussianBlur stdDeviation="4" in="shadowOffsetOuter2" result="shadowBlurOuter2"></feGaussianBlur>
            <feColorMatrix values="0 0 0 0 0.11372549   0 0 0 0 0.129411765   0 0 0 0 0.160784314  0 0 0 0.08 0" type="matrix" in="shadowBlurOuter2" result="shadowMatrixOuter2"></feColorMatrix>
            <feOffset dx="0" dy="2" in="SourceAlpha" result="shadowOffsetOuter3"></feOffset>
            <feGaussianBlur stdDeviation="2" in="shadowOffsetOuter3" result="shadowBlurOuter3"></feGaussianBlur>
            <feColorMatrix values="0 0 0 0 0.11372549   0 0 0 0 0.129411765   0 0 0 0 0.160784314  0 0 0 0.08 0" type="matrix" in="shadowBlurOuter3" result="shadowMatrixOuter3"></feColorMatrix>
            <feMerge>
                <feMergeNode in="shadowMatrixOuter1"></feMergeNode>
                <feMergeNode in="shadowMatrixOuter2"></feMergeNode>
                <feMergeNode in="shadowMatrixOuter3"></feMergeNode>
            </feMerge>
        </filter>
    </defs>
    <g id="页面-1" stroke="none" stroke-width="1" fill="none" fill-rule="evenodd">
        <g id="过程附件" transform="translate(-952.000000, -310.000000)">
            <g id="编组-6" transform="translate(952.000000, 321.000000)">
                <g id="编组-4" transform="translate(28.600000, 0.000000)">
                    <path d="M18.2,20.6375 L158.6,20.6375 C160.03594,20.6375 161.2,21.8015597 161.2,23.2375 L161.2,122.0375 C161.2,123.47344 160.03594,124.6375 158.6,124.6375 L18.2,124.6375 C16.7640597,124.6375 15.6,123.47344 15.6,122.0375 L15.6,23.2375 C15.6,21.8015597 16.7640597,20.6375 18.2,20.6375 Z" id="矩形" fill="#F1F4F8"></path>
                    <path d="M18.2,20.6375 L158.6,20.6375 C160.03594,20.6375 161.2,21.8015597 161.2,23.2375 L161.2,31.0375 L15.6,31.0375 L15.6,23.2375 C15.6,21.8015597 16.7640597,20.6375 18.2,20.6375 Z" id="矩形" fill="#DBDEE3"></path>
                    <circle id="椭圆形" fill="#FFFFFF" cx="23.4" cy="25.8375" r="2.6"></circle>
                    <circle id="椭圆形备份" fill="#FFFFFF" cx="33.8" cy="25.8375" r="2.6"></circle>
                    <circle id="椭圆形备份-2" fill="#FFFFFF" cx="44.2" cy="25.8375" r="2.6"></circle>
                    <g id="编组-2" transform="translate(20.800000, 36.237500)">
                        <path d="M2.6,0 L132.6,0 C134.03594,0 135.2,1.16405965 135.2,2.6 L135.2,80.6 C135.2,82.0359403 134.03594,83.2 132.6,83.2 L2.6,83.2 C1.16405965,83.2 0,82.0359403 0,80.6 L0,2.6 C0,1.16405965 1.16405965,0 2.6,0 Z" id="矩形" fill="#FFFFFF"></path>
                        <g id="编组-3">
                            <path d="M2.6,0 L36.4,0 L36.4,83.2 L2.6,83.2 C1.16405965,83.2 0,82.0359403 0,80.6 L0,2.6 C0,1.16405965 1.16405965,0 2.6,0 Z" id="矩形" fill="#E2E5E9"></path>
                            <path d="M6.5,5.2 L9.1,5.2 C9.81797017,5.2 10.4,5.78202983 10.4,6.5 L10.4,9.1 C10.4,9.81797017 9.81797017,10.4 9.1,10.4 L6.5,10.4 C5.78202983,10.4 5.2,9.81797017 5.2,9.1 L5.2,6.5 C5.2,5.78202983 5.78202983,5.2 6.5,5.2 Z" id="矩形" fill="#FFFFFF"></path>
                            <path d="M16.9,5.2 L29.9,5.2 C30.6179702,5.2 31.2,5.78202983 31.2,6.5 L31.2,9.1 C31.2,9.81797017 30.6179702,10.4 29.9,10.4 L16.9,10.4 C16.1820298,10.4 15.6,9.81797017 15.6,9.1 L15.6,6.5 C15.6,5.78202983 16.1820298,5.2 16.9,5.2 Z" id="矩形备份" fill="#FFFFFF"></path>
                            <path d="M6.5,15.6 L24.7,15.6 C25.4179702,15.6 26,16.1820298 26,16.9 L26,19.5 C26,20.2179702 25.4179702,20.8 24.7,20.8 L6.5,20.8 C5.78202983,20.8 5.2,20.2179702 5.2,19.5 L5.2,16.9 C5.2,16.1820298 5.78202983,15.6 6.5,15.6 Z" id="矩形备份-2" fill="#FFFFFF"></path>
                            <path d="M6.5,26 L29.9,26 C30.6179702,26 31.2,26.5820298 31.2,27.3 L31.2,29.9 C31.2,30.6179702 30.6179702,31.2 29.9,31.2 L6.5,31.2 C5.78202983,31.2 5.2,30.6179702 5.2,29.9 L5.2,27.3 C5.2,26.5820298 5.78202983,26 6.5,26 Z" id="矩形备份-3" fill="#FFFFFF"></path>
                            <path d="M6.5,36.4 L19.5,36.4 C20.2179702,36.4 20.8,36.9820298 20.8,37.7 L20.8,40.3 C20.8,41.0179702 20.2179702,41.6 19.5,41.6 L6.5,41.6 C5.78202983,41.6 5.2,41.0179702 5.2,40.3 L5.2,37.7 C5.2,36.9820298 5.78202983,36.4 6.5,36.4 Z" id="矩形备份-4" fill="#FFFFFF"></path>
                            <path d="M6.5,46.8 L29.9,46.8 C30.6179702,46.8 31.2,47.3820298 31.2,48.1 L31.2,50.7 C31.2,51.4179702 30.6179702,52 29.9,52 L6.5,52 C5.78202983,52 5.2,51.4179702 5.2,50.7 L5.2,48.1 C5.2,47.3820298 5.78202983,46.8 6.5,46.8 Z" id="矩形备份-5" fill="#FFFFFF"></path>
                        </g>
                    </g>
                    <g id="矩形">
                        <use fill="currentColor" xlink:href="#path-1-process-attach-no-data"></use>
                        <use fill-opacity="0.8" fill="#FFFFFF" xlink:href="#path-1-process-attach-no-data"></use>
                    </g>
                    <path d="M110.5,41.4375 L126.1,41.4375 C126.81797,41.4375 127.4,42.0195298 127.4,42.7375 L127.4,47.9375 C127.4,48.6554702 126.81797,49.2375 126.1,49.2375 L110.5,49.2375 C109.78203,49.2375 109.2,48.6554702 109.2,47.9375 L109.2,42.7375 C109.2,42.0195298 109.78203,41.4375 110.5,41.4375 Z" id="矩形备份-6" fill="#E9ECF0"></path>
                    <path d="M63.7,59.6375 L81.9,59.6375 C82.6179702,59.6375 83.2,60.2195298 83.2,60.9375 L83.2,66.1375 C83.2,66.8554702 82.6179702,67.4375 81.9,67.4375 L63.7,67.4375 C62.9820298,67.4375 62.4,66.8554702 62.4,66.1375 L62.4,60.9375 C62.4,60.2195298 62.9820298,59.6375 63.7,59.6375 Z" id="矩形" fill="#F1F4F8"></path>
                    <path d="M66.3,62.2375 L71.5,62.2375 C72.2179702,62.2375 72.8,62.8195298 72.8,63.5375 C72.8,64.2554702 72.2179702,64.8375 71.5,64.8375 L66.3,64.8375 C65.5820298,64.8375 65,64.2554702 65,63.5375 C65,62.8195298 65.5820298,62.2375 66.3,62.2375 Z" id="矩形" fill="#FFFFFF"></path>
                    <path d="M88.575,59.3125 C88.8511424,59.3125 89.075,59.4580075 89.075,59.6375 L89.075,67.4375 C89.075,67.6169925 88.8511424,67.7625 88.575,67.7625 C88.2988576,67.7625 88.075,67.6169925 88.075,67.4375 L88.075,59.6375 C88.075,59.4580075 88.2988576,59.3125 88.575,59.3125 Z" id="路径-36" fill="#F1F4F8" fill-rule="nonzero"></path>
                    <g id="矩形">
                        <use fill="currentColor" xlink:href="#path-2-process-attach-no-data"></use>
                        <use fill-opacity="0.8" fill="#FFFFFF" xlink:href="#path-2-process-attach-no-data"></use>
                    </g>
                    <g id="矩形备份-7">
                        <use fill="currentColor" xlink:href="#path-3-process-attach-no-data"></use>
                        <use fill-opacity="0.8" fill="#FFFFFF" xlink:href="#path-3-process-attach-no-data"></use>
                    </g>
                    <path d="M150.8,54.1125 C150.979493,54.1125 151.125,54.3363576 151.125,54.6125 C151.125,54.8886424 150.979493,55.1125 150.8,55.1125 L62.4,55.1125 C62.2205075,55.1125 62.075,54.8886424 62.075,54.6125 C62.075,54.3363576 62.2205075,54.1125 62.4,54.1125 L150.8,54.1125 Z" id="路径-37" fill="#F1F4F8" fill-rule="nonzero"></path>
                    <path d="M150.8,72.3125 C150.979493,72.3125 151.125,72.5363576 151.125,72.8125 C151.125,73.0886424 150.979493,73.3125 150.8,73.3125 L62.4,73.3125 C62.2205075,73.3125 62.075,73.0886424 62.075,72.8125 C62.075,72.5363576 62.2205075,72.3125 62.4,72.3125 L150.8,72.3125 Z" id="路径-37备份" fill="#F1F4F8" fill-rule="nonzero"></path>
                    <path d="M63.7,77.8375 L152.1,77.8375 C152.81797,77.8375 153.4,78.4195298 153.4,79.1375 L153.4,81.7375 C153.4,82.4554702 152.81797,83.0375 152.1,83.0375 L63.7,83.0375 C62.9820298,83.0375 62.4,82.4554702 62.4,81.7375 L62.4,79.1375 C62.4,78.4195298 62.9820298,77.8375 63.7,77.8375 Z" id="矩形" fill="#E9ECF0"></path>
                    <path d="M63.7,88.2375 L71.5,88.2375 C72.2179702,88.2375 72.8,88.8195298 72.8,89.5375 L72.8,92.1375 C72.8,92.8554702 72.2179702,93.4375 71.5,93.4375 L63.7,93.4375 C62.9820298,93.4375 62.4,92.8554702 62.4,92.1375 L62.4,89.5375 C62.4,88.8195298 62.9820298,88.2375 63.7,88.2375 Z" id="矩形" fill="#E9ECF0"></path>
                    <path d="M63.7,98.6375 L71.5,98.6375 C72.2179702,98.6375 72.8,99.2195298 72.8,99.9375 L72.8,102.5375 C72.8,103.25547 72.2179702,103.8375 71.5,103.8375 L63.7,103.8375 C62.9820298,103.8375 62.4,103.25547 62.4,102.5375 L62.4,99.9375 C62.4,99.2195298 62.9820298,98.6375 63.7,98.6375 Z" id="矩形备份-8" fill="#E9ECF0"></path>
                    <path d="M63.7,109.0375 L71.5,109.0375 C72.2179702,109.0375 72.8,109.61953 72.8,110.3375 L72.8,112.9375 C72.8,113.65547 72.2179702,114.2375 71.5,114.2375 L63.7,114.2375 C62.9820298,114.2375 62.4,113.65547 62.4,112.9375 L62.4,110.3375 C62.4,109.61953 62.9820298,109.0375 63.7,109.0375 Z" id="矩形备份-9" fill="#E9ECF0"></path>
                    <path d="M79.3,88.2375 L152.1,88.2375 C152.81797,88.2375 153.4,88.8195298 153.4,89.5375 L153.4,92.1375 C153.4,92.8554702 152.81797,93.4375 152.1,93.4375 L79.3,93.4375 C78.5820298,93.4375 78,92.8554702 78,92.1375 L78,89.5375 C78,88.8195298 78.5820298,88.2375 79.3,88.2375 Z" id="矩形" fill="#F1F4F8"></path>
                    <path d="M79.3,98.6375 L152.1,98.6375 C152.81797,98.6375 153.4,99.2195298 153.4,99.9375 L153.4,102.5375 C153.4,103.25547 152.81797,103.8375 152.1,103.8375 L79.3,103.8375 C78.5820298,103.8375 78,103.25547 78,102.5375 L78,99.9375 C78,99.2195298 78.5820298,98.6375 79.3,98.6375 Z" id="矩形备份-10" fill="#F1F4F8"></path>
                    <path d="M79.3,109.0375 L152.1,109.0375 C152.81797,109.0375 153.4,109.61953 153.4,110.3375 L153.4,112.9375 C153.4,113.65547 152.81797,114.2375 152.1,114.2375 L79.3,114.2375 C78.5820298,114.2375 78,113.65547 78,112.9375 L78,110.3375 C78,109.61953 78.5820298,109.0375 79.3,109.0375 Z" id="矩形备份-11" fill="#F1F4F8"></path>
                    <g id="矩形">
                        <use fill="black" fill-opacity="1" filter="url(#filter-5)" xlink:href="#path-4-process-attach-no-data"></use>
                        <use fill="#FFFFFF" fill-rule="evenodd" xlink:href="#path-4-process-attach-no-data"></use>
                    </g>
                    <g id="矩形">
                        <use fill="currentColor" xlink:href="#path-6-process-attach-no-data"></use>
                        <use fill-opacity="0.8" fill="#FFFFFF" xlink:href="#path-6-process-attach-no-data"></use>
                    </g>
                    <path d="M149.5,10.2375 L165.1,10.2375 C165.81797,10.2375 166.4,10.8195298 166.4,11.5375 L166.4,16.7375 C166.4,17.4554702 165.81797,18.0375 165.1,18.0375 L149.5,18.0375 C148.78203,18.0375 148.2,17.4554702 148.2,16.7375 L148.2,11.5375 C148.2,10.8195298 148.78203,10.2375 149.5,10.2375 Z" id="矩形备份-12" fill="#E9ECF0"></path>
                    <polygon id="路径-38" fill="#F1F4F8" fill-rule="nonzero" points="171.6 22.9125 171.6 23.9125 124.8 23.9125 124.8 22.9125"></polygon>
                    <polygon id="路径-39" fill="#F1F4F8" fill-rule="nonzero" points="128.075 31.0375 128.075 62.2375 127.075 62.2375 127.075 31.0375"></polygon>
                    <circle id="椭圆形" fill="#E9ECF0" cx="127.4" cy="31.0375" r="2.6"></circle>
                    <circle id="椭圆形备份-3" fill="#E9ECF0" cx="127.4" cy="41.4375" r="2.6"></circle>
                    <circle id="椭圆形备份-4" fill="#E9ECF0" cx="127.4" cy="51.8375" r="2.6"></circle>
                    <circle id="椭圆形备份-5" fill="#E9ECF0" cx="127.4" cy="62.2375" r="2.6"></circle>
                    <path d="M136.5,28.4375 L159.9,28.4375 C160.61797,28.4375 161.2,29.0195298 161.2,29.7375 L161.2,32.3375 C161.2,33.0554702 160.61797,33.6375 159.9,33.6375 L136.5,33.6375 C135.78203,33.6375 135.2,33.0554702 135.2,32.3375 L135.2,29.7375 C135.2,29.0195298 135.78203,28.4375 136.5,28.4375 Z" id="矩形" fill="#E9ECF0"></path>
                    <path d="M136.5,38.8375 L152.1,38.8375 C152.81797,38.8375 153.4,39.4195298 153.4,40.1375 L153.4,42.7375 C153.4,43.4554702 152.81797,44.0375 152.1,44.0375 L136.5,44.0375 C135.78203,44.0375 135.2,43.4554702 135.2,42.7375 L135.2,40.1375 C135.2,39.4195298 135.78203,38.8375 136.5,38.8375 Z" id="矩形备份-13" fill="#E9ECF0"></path>
                    <path d="M136.5,49.2375 L141.7,49.2375 C142.41797,49.2375 143,49.8195298 143,50.5375 L143,53.1375 C143,53.8554702 142.41797,54.4375 141.7,54.4375 L136.5,54.4375 C135.78203,54.4375 135.2,53.8554702 135.2,53.1375 L135.2,50.5375 C135.2,49.8195298 135.78203,49.2375 136.5,49.2375 Z" id="矩形备份-14" fill="#E9ECF0"></path>
                    <path d="M136.5,59.6375 L149.5,59.6375 C150.21797,59.6375 150.8,60.2195298 150.8,60.9375 L150.8,63.5375 C150.8,64.2554702 150.21797,64.8375 149.5,64.8375 L136.5,64.8375 C135.78203,64.8375 135.2,64.2554702 135.2,63.5375 L135.2,60.9375 C135.2,60.2195298 135.78203,59.6375 136.5,59.6375 Z" id="矩形备份-15" fill="#E9ECF0"></path>
                    <g id="元素/纸飞机/主色备份" transform="translate(179.342692, 0.000000)">
                        <g id="路径-14">
                            <use fill="currentColor" xlink:href="#path-7-process-attach-no-data"></use>
                            <use fill-opacity="0.4" fill="#FFFFFF" xlink:href="#path-7-process-attach-no-data"></use>
                        </g>
                        <g id="路径-5">
                            <use fill="currentColor" xlink:href="#path-8-process-attach-no-data"></use>
                            <use fill-opacity="0.2" fill="#FFFFFF" xlink:href="#path-8-process-attach-no-data"></use>
                        </g>
                        <g id="路径-12">
                            <use fill="currentColor" xlink:href="#path-9-process-attach-no-data"></use>
                            <use fill-opacity="0.2" fill="#000000" xlink:href="#path-9-process-attach-no-data"></use>
                        </g>
                        <g id="路径-13">
                            <use fill="currentColor" xlink:href="#path-10-process-attach-no-data"></use>
                            <use fill-opacity="0.2" fill="#FFFFFF" xlink:href="#path-10-process-attach-no-data"></use>
                        </g>
                    </g>
                    <path d="M158.789164,19.8607277 C159.152929,19.6118357 159.511665,19.3735283 159.86534,19.145728 L159.51337,18.5992697 C159.154581,18.8303635 158.790822,19.0720077 158.422119,19.324278 L158.789164,19.8607277 Z M160.958324,18.4654179 C161.336857,18.2382228 161.708941,18.0238773 162.07452,17.8222661 L161.760623,17.2530831 C161.388034,17.4585608 161.009084,17.6768618 160.62382,17.9080966 L160.958324,18.4654179 Z M163.2143,17.22432 C163.610696,17.0273783 163.998336,16.8466767 164.377103,16.6820238 L164.117969,16.0859118 C163.728931,16.2550293 163.331272,16.4404019 162.925088,16.6422062 L163.2143,17.22432 Z M165.566862,16.2067572 C165.984474,16.0553441 166.389148,15.9256271 166.780617,15.8172246 L166.607152,15.1907983 C166.199198,15.3037656 165.778504,15.4386181 165.345306,15.5956823 L165.566862,16.2067572 Z M168.019214,15.5372854 C168.457423,15.4621724 168.874018,15.4180818 169.268262,15.4039914 L169.245045,14.7544061 C168.82116,14.769556 168.375689,14.8167027 167.909399,14.8966289 L168.019214,15.5372854 Z M170.503823,15.4678475 C170.935829,15.5332007 171.326206,15.6441085 171.672772,15.7965846 L171.934533,15.2016216 C171.534324,15.0255446 171.088628,14.8989203 170.601047,14.8251599 L170.503823,15.4678475 Z M172.658523,16.4516676 C172.946401,16.7340819 173.161358,17.062792 173.298015,17.4210009 L173.905321,17.1893124 C173.735331,16.7437326 173.468533,16.3357473 173.113718,15.987666 L172.658523,16.4516676 Z M173.463025,18.5604254 C173.433209,18.9505881 173.317135,19.3288967 173.123161,19.665323 L173.686268,19.9899939 C173.929009,19.5689865 174.073945,19.0966074 174.111136,18.6099546 L173.463025,18.5604254 Z M172.354574,20.4950329 C172.044056,20.7076762 171.68106,20.8575489 171.273658,20.9354621 L171.395755,21.5738918 C171.890361,21.4793012 172.336911,21.2949309 172.721834,21.0313348 L172.354574,20.4950329 Z M170.074817,20.9643823 C169.638894,20.9081451 169.277505,20.782371 168.990159,20.5942217 L168.63409,21.1380186 C169.007438,21.3824803 169.462135,21.5407286 169.991651,21.60904 L170.074817,20.9643823 Z M168.303695,19.7468833 C168.173324,19.4190268 168.117321,19.030929 168.138123,18.5960405 L167.488865,18.5649853 C167.463841,19.0881537 167.533098,19.5680994 167.699696,19.987061 L168.303695,19.7468833 Z M168.359686,17.3954717 C168.474656,17.0194738 168.632024,16.631991 168.828523,16.2419328 L168.248023,15.9494952 C168.035329,16.3716995 167.864107,16.7932952 167.738095,17.2054069 L168.359686,17.3954717 Z M169.468296,15.1647802 C169.701982,14.8242149 169.961406,14.4910662 170.243367,14.1702406 L169.755127,13.741146 C169.45611,14.0813784 169.180744,14.4350008 168.932336,14.7970202 L169.468296,15.1647802 Z M171.140338,13.2615348 C171.452681,12.9795514 171.781478,12.714873 172.124256,12.4702679 L171.746692,11.9411687 C171.383578,12.200286 171.035426,12.4805447 170.704765,12.7790664 L171.140338,13.2615348 Z M173.189442,11.8008241 C173.559565,11.5979077 173.940082,11.4186203 174.329228,11.2645744 L174.089985,10.6602047 C173.675509,10.8242775 173.270554,11.0150795 172.876965,11.230861 L173.189442,11.8008241 Z M175.522906,10.8792316 C175.929264,10.7769245 176.341621,10.7018707 176.758835,10.6550513 L176.686347,10.0091058 C176.239895,10.0592064 175.798744,10.1395008 175.36421,10.2489018 L175.522906,10.8792316 Z M178.005574,10.5998552 C178.41946,10.6093852 178.836239,10.6464963 179.255236,10.7118327 L179.355383,10.0695941 C178.908179,9.99985912 178.462944,9.96021412 178.020537,9.95002742 L178.005574,10.5998552 Z" id="路径" fill="currentColor" fill-rule="nonzero"></path>
                    <g id="编组-2" transform="translate(0.000000, 93.437500)">
                        <g id="椭圆形">
                            <use fill="black" fill-opacity="1" filter="url(#filter-12)" xlink:href="#path-11-process-attach-no-data"></use>
                            <use fill="#FFFFFF" fill-rule="evenodd" xlink:href="#path-11-process-attach-no-data"></use>
                        </g>
                        <g id="编组" transform="translate(4.491964, 4.457143)">
                            <polygon id="路径" points="0 0 22.2857143 0 22.2857143 22.2857143 0 22.2857143"></polygon>
                            <path d="M13.8239984,7.19297406 L8.56678344,12.4465722 C8.32515549,12.6797425 8.22825021,13.0250326 8.31331322,13.3497299 C8.39837622,13.6744271 8.65216972,13.9280012 8.97714799,14.0129907 C9.30212626,14.0979801 9.6477151,14.0011586 9.88108718,13.7597396 L15.1392316,8.50707012 C16.2282932,7.4189502 16.2282932,5.65475923 15.1392316,4.56663932 C14.0501701,3.4785194 12.2844525,3.4785194 11.1953909,4.56663932 L5.93724646,9.82023749 C4.7384294,10.9882032 4.2611135,12.7101932 4.68776272,14.3279408 C5.11441194,15.9456884 6.37905942,17.2090638 7.99826729,17.6351153 C9.61747516,18.0611668 11.3408878,17.5840201 12.5096947,16.3860743 L17.7678391,11.1334049 L19.0821429,12.4465722 L13.8239984,17.7001704 C12.1802221,19.3425255 9.78436586,19.9839382 7.53892561,19.3827946 C5.29348536,18.7816509 3.53959687,17.0292788 2.93793298,14.78578 C2.33626909,12.5422812 2.97823686,10.1484965 4.62201323,8.50614143 L9.88108718,3.25347195 C11.7046552,1.49373383 14.6033079,1.51890056 16.3959931,3.31003577 C18.1886783,5.10117098 18.2138668,7.99731746 16.4526059,9.8193088 L11.1953909,15.0747643 C10.4907256,15.7786545 9.46374207,16.0534665 8.50129511,15.7956811 C7.53884814,15.5378958 6.78715633,14.7866769 6.52937472,13.8250013 C6.2715931,12.8633258 6.54688485,11.837295 7.2515502,11.1334049 L12.5096947,5.87980669 L13.8239984,7.19297406 Z" id="路径" fill="currentColor" fill-rule="nonzero"></path>
                        </g>
                    </g>
                </g>
            </g>
        </g>
    </g>
</svg>