<?xml version="1.0" encoding="UTF-8"?>
<svg width="297px" height="161px" viewBox="0 0 297 161" version="1.1" xmlns="http://www.w3.org/2000/svg" xmlns:xlink="http://www.w3.org/1999/xlink">
    <title>编组 2备份</title>
    <defs>
        <path d="M117.6,2.61837511 L205.8,2.61837511 C207.60413,2.61837511 209.066667,4.08091159 209.066667,5.88504178 L209.066667,58.1517084 C209.066667,59.9558386 207.60413,61.4183751 205.8,61.4183751 L117.6,61.4183751 C115.79587,61.4183751 114.333333,59.9558386 114.333333,58.1517084 L114.333333,5.88504178 C114.333333,4.08091159 115.79587,2.61837511 117.6,2.61837511 Z" id="path-1-price-quotation-no-data"></path>
        <filter x="-59.1%" y="-68.0%" width="218.2%" height="290.5%" filterUnits="objectBoundingBox" id="filter-2">
            <feOffset dx="0" dy="16" in="SourceAlpha" result="shadowOffsetOuter1"></feOffset>
            <feGaussianBlur stdDeviation="16" in="shadowOffsetOuter1" result="shadowBlurOuter1"></feGaussianBlur>
            <feColorMatrix values="0 0 0 0 0.11372549   0 0 0 0 0.129411765   0 0 0 0 0.160784314  0 0 0 0.06 0" type="matrix" in="shadowBlurOuter1" result="shadowMatrixOuter1"></feColorMatrix>
            <feOffset dx="0" dy="8" in="SourceAlpha" result="shadowOffsetOuter2"></feOffset>
            <feGaussianBlur stdDeviation="8" in="shadowOffsetOuter2" result="shadowBlurOuter2"></feGaussianBlur>
            <feColorMatrix values="0 0 0 0 0.11372549   0 0 0 0 0.129411765   0 0 0 0 0.160784314  0 0 0 0.06 0" type="matrix" in="shadowBlurOuter2" result="shadowMatrixOuter2"></feColorMatrix>
            <feOffset dx="0" dy="4" in="SourceAlpha" result="shadowOffsetOuter3"></feOffset>
            <feGaussianBlur stdDeviation="4" in="shadowOffsetOuter3" result="shadowBlurOuter3"></feGaussianBlur>
            <feColorMatrix values="0 0 0 0 0.11372549   0 0 0 0 0.129411765   0 0 0 0 0.160784314  0 0 0 0.06 0" type="matrix" in="shadowBlurOuter3" result="shadowMatrixOuter3"></feColorMatrix>
            <feMerge>
                <feMergeNode in="shadowMatrixOuter1"></feMergeNode>
                <feMergeNode in="shadowMatrixOuter2"></feMergeNode>
                <feMergeNode in="shadowMatrixOuter3"></feMergeNode>
            </feMerge>
        </filter>
        <path d="M122.5,9.15170844 L158.433333,9.15170844 C159.335398,9.15170844 160.066667,9.88297669 160.066667,10.7850418 L160.066667,53.2517084 C160.066667,54.1537735 159.335398,54.8850418 158.433333,54.8850418 L122.5,54.8850418 C121.597935,54.8850418 120.866667,54.1537735 120.866667,53.2517084 L120.866667,10.7850418 C120.866667,9.88297669 121.597935,9.15170844 122.5,9.15170844 Z" id="path-3-price-quotation-no-data"></path>
        <path d="M164.966667,9.15170844 L200.9,9.15170844 C201.802065,9.15170844 202.533333,9.88297669 202.533333,10.7850418 L202.533333,53.2517084 C202.533333,54.1537735 201.802065,54.8850418 200.9,54.8850418 L164.966667,54.8850418 C164.064602,54.8850418 163.333333,54.1537735 163.333333,53.2517084 L163.333333,10.7850418 C163.333333,9.88297669 164.064602,9.15170844 164.966667,9.15170844 Z" id="path-4-price-quotation-no-data"></path>
        <path d="M129.033333,15.6850418 L142.1,15.6850418 C143.002065,15.6850418 143.733333,16.41631 143.733333,17.3183751 L143.733333,20.5850418 C143.733333,21.4871069 143.002065,22.2183751 142.1,22.2183751 L129.033333,22.2183751 C128.131268,22.2183751 127.4,21.4871069 127.4,20.5850418 L127.4,17.3183751 C127.4,16.41631 128.131268,15.6850418 129.033333,15.6850418 Z" id="path-5-price-quotation-no-data"></path>
        <path d="M171.5,15.6850418 L184.566667,15.6850418 C185.468732,15.6850418 186.2,16.41631 186.2,17.3183751 L186.2,20.5850418 C186.2,21.4871069 185.468732,22.2183751 184.566667,22.2183751 L171.5,22.2183751 C170.597935,22.2183751 169.866667,21.4871069 169.866667,20.5850418 L169.866667,17.3183751 C169.866667,16.41631 170.597935,15.6850418 171.5,15.6850418 Z" id="path-6-price-quotation-no-data"></path>
        <path d="M129.033333,28.7517084 L151.9,28.7517084 C152.802065,28.7517084 153.533333,29.4829767 153.533333,30.3850418 L153.533333,33.6517084 C153.533333,34.5537735 152.802065,35.2850418 151.9,35.2850418 L129.033333,35.2850418 C128.131268,35.2850418 127.4,34.5537735 127.4,33.6517084 L127.4,30.3850418 C127.4,29.4829767 128.131268,28.7517084 129.033333,28.7517084 Z" id="path-7-price-quotation-no-data"></path>
        <path d="M171.5,28.7517084 L194.366667,28.7517084 C195.268732,28.7517084 196,29.4829767 196,30.3850418 L196,33.6517084 C196,34.5537735 195.268732,35.2850418 194.366667,35.2850418 L171.5,35.2850418 C170.597935,35.2850418 169.866667,34.5537735 169.866667,33.6517084 L169.866667,30.3850418 C169.866667,29.4829767 170.597935,28.7517084 171.5,28.7517084 Z" id="path-8-price-quotation-no-data"></path>
        <path d="M129.033333,41.8183751 L151.9,41.8183751 C152.802065,41.8183751 153.533333,42.5496434 153.533333,43.4517084 L153.533333,46.7183751 C153.533333,47.6204402 152.802065,48.3517084 151.9,48.3517084 L129.033333,48.3517084 C128.131268,48.3517084 127.4,47.6204402 127.4,46.7183751 L127.4,43.4517084 C127.4,42.5496434 128.131268,41.8183751 129.033333,41.8183751 Z" id="path-9-price-quotation-no-data"></path>
        <path d="M171.5,41.8183751 L194.366667,41.8183751 C195.268732,41.8183751 196,42.5496434 196,43.4517084 L196,46.7183751 C196,47.6204402 195.268732,48.3517084 194.366667,48.3517084 L171.5,48.3517084 C170.597935,48.3517084 169.866667,47.6204402 169.866667,46.7183751 L169.866667,43.4517084 C169.866667,42.5496434 170.597935,41.8183751 171.5,41.8183751 Z" id="path-10-price-quotation-no-data"></path>
        <path d="M1.37132984,8.246875 L0.395247248,9.90134771 C0.334540863,10.0042466 0.335043679,10.1326742 0.396008983,10.2349051 L0.400162902,10.2416811 C0.44333244,10.3102082 0.534350579,10.3452545 0.67321732,10.3468201 L0.683120232,10.346875 L1.15755264,10.346875 C1.29957543,10.346875 1.44110291,10.3298447 1.57920408,10.2961367 L9.975,8.246875 L1.37132984,8.246875 Z" id="path-11-price-quotation-no-data"></path>
        <path d="M3.43982792,5.096875 L19.6,5.096875 L0.533094729,0.0139538079 C0.331545225,-0.0397760565 0.122313323,0.0657348342 0.041986561,0.260372082 L0.0391055374,0.267532595 C-0.0337047023,0.45323311 -0.0034760511,0.664330921 0.118390518,0.821209069 L3.43982792,5.096875 Z" id="path-12-price-quotation-no-data"></path>
        <polygon id="path-13-price-quotation-no-data" points="19.6 5.096875 3.44097877 5.096875 1.378125 8.246875 5.84764151 8.246875"></polygon>
        <path d="M19.6,5.096875 L10.3147388,13.846875 C10.1641077,13.9197917 10.0495667,13.95625 9.97111559,13.95625 C9.89266452,13.95625 9.78060188,13.9197917 9.63492767,13.846875 L4.99601468,7.546875 C4.97456602,7.29213582 4.99363957,7.12429842 5.05323533,7.04336281 C5.11283109,6.96242719 5.26556913,6.89693125 5.51144946,6.846875 L19.6,5.096875 Z" id="path-14-price-quotation-no-data"></path>
    </defs>
    <g id="页面-1" stroke="none" stroke-width="1" fill="none" fill-rule="evenodd">
        <g id="比价助手" transform="translate(-717.000000, -366.000000)">
            <g id="编组-2备份" transform="translate(717.000000, 366.000000)">
                <g id="编组" transform="translate(55.533333, 13.714958)">
                    <g id="背景" transform="translate(0.000000, 15.685042)">
                        <path d="M3.26666667,0 L179.666667,0 C181.470797,0 182.933333,1.46253648 182.933333,3.26666667 L182.933333,127.4 C182.933333,129.20413 181.470797,130.666667 179.666667,130.666667 L3.26666667,130.666667 C1.46253648,130.666667 0,129.20413 0,127.4 L0,3.26666667 C0,1.46253648 1.46253648,0 3.26666667,0 Z" id="矩形" fill="#F1F4F8"></path>
                        <path d="M3.26666667,0 L179.666667,0 C181.470797,0 182.933333,1.46253648 182.933333,3.26666667 L182.933333,13.0666667 L0,13.0666667 L0,3.26666667 C0,1.46253648 1.46253648,0 3.26666667,0 Z" id="矩形" fill="#DBDEE3"></path>
                        <circle id="椭圆形" fill="#FFFFFF" cx="9.8" cy="6.53333333" r="3.26666667"></circle>
                        <circle id="椭圆形备份" fill="#FFFFFF" cx="22.8666667" cy="6.53333333" r="3.26666667"></circle>
                        <circle id="椭圆形备份-2" fill="#FFFFFF" cx="35.9333333" cy="6.53333333" r="3.26666667"></circle>
                        <path d="M9.8,19.6 L173.133333,19.6 C174.937464,19.6 176.4,21.0625365 176.4,22.8666667 L176.4,120.866667 C176.4,122.670797 174.937464,124.133333 173.133333,124.133333 L9.8,124.133333 C7.99586982,124.133333 6.53333333,122.670797 6.53333333,120.866667 L6.53333333,22.8666667 C6.53333333,21.0625365 7.99586982,19.6 9.8,19.6 Z" id="矩形" fill="#FFFFFF"></path>
                        <path d="M9.8,19.6 L52.2666667,19.6 L52.2666667,124.133333 L9.8,124.133333 C7.99586982,124.133333 6.53333333,122.670797 6.53333333,120.866667 L6.53333333,22.8666667 C6.53333333,21.0625365 7.99586982,19.6 9.8,19.6 Z" id="矩形" fill="#E2E5E9"></path>
                        <path d="M14.7,26.1333333 L17.9666667,26.1333333 C18.8687318,26.1333333 19.6,26.8646016 19.6,27.7666667 L19.6,31.0333333 C19.6,31.9353984 18.8687318,32.6666667 17.9666667,32.6666667 L14.7,32.6666667 C13.7979349,32.6666667 13.0666667,31.9353984 13.0666667,31.0333333 L13.0666667,27.7666667 C13.0666667,26.8646016 13.7979349,26.1333333 14.7,26.1333333 Z" id="矩形" fill="#FFFFFF"></path>
                        <path d="M27.7666667,26.1333333 L44.1,26.1333333 C45.0020651,26.1333333 45.7333333,26.8646016 45.7333333,27.7666667 L45.7333333,31.0333333 C45.7333333,31.9353984 45.0020651,32.6666667 44.1,32.6666667 L27.7666667,32.6666667 C26.8646016,32.6666667 26.1333333,31.9353984 26.1333333,31.0333333 L26.1333333,27.7666667 C26.1333333,26.8646016 26.8646016,26.1333333 27.7666667,26.1333333 Z" id="矩形备份" fill="#FFFFFF"></path>
                        <path d="M14.7,39.2 L44.1,39.2 C45.0020651,39.2 45.7333333,39.9312682 45.7333333,40.8333333 L45.7333333,44.1 C45.7333333,45.0020651 45.0020651,45.7333333 44.1,45.7333333 L14.7,45.7333333 C13.7979349,45.7333333 13.0666667,45.0020651 13.0666667,44.1 L13.0666667,40.8333333 C13.0666667,39.9312682 13.7979349,39.2 14.7,39.2 Z" id="矩形备份-2" fill="#FFFFFF"></path>
                        <path d="M14.7,52.2666667 L37.5666667,52.2666667 C38.4687318,52.2666667 39.2,52.9979349 39.2,53.9 L39.2,57.1666667 C39.2,58.0687318 38.4687318,58.8 37.5666667,58.8 L14.7,58.8 C13.7979349,58.8 13.0666667,58.0687318 13.0666667,57.1666667 L13.0666667,53.9 C13.0666667,52.9979349 13.7979349,52.2666667 14.7,52.2666667 Z" id="矩形备份-3" fill="#FFFFFF"></path>
                        <path d="M14.7,65.3333333 L44.1,65.3333333 C45.0020651,65.3333333 45.7333333,66.0646016 45.7333333,66.9666667 L45.7333333,70.2333333 C45.7333333,71.1353984 45.0020651,71.8666667 44.1,71.8666667 L14.7,71.8666667 C13.7979349,71.8666667 13.0666667,71.1353984 13.0666667,70.2333333 L13.0666667,66.9666667 C13.0666667,66.0646016 13.7979349,65.3333333 14.7,65.3333333 Z" id="矩形备份-4" fill="#FFFFFF"></path>
                        <path d="M14.7,78.4 L27.7666667,78.4 C28.6687318,78.4 29.4,79.1312682 29.4,80.0333333 L29.4,83.3 C29.4,84.2020651 28.6687318,84.9333333 27.7666667,84.9333333 L14.7,84.9333333 C13.7979349,84.9333333 13.0666667,84.2020651 13.0666667,83.3 L13.0666667,80.0333333 C13.0666667,79.1312682 13.7979349,78.4 14.7,78.4 Z" id="矩形备份-5" fill="#FFFFFF"></path>
                    </g>
                    <path d="M60.4333333,41.8183751 L76.7666667,41.8183751 C77.6687318,41.8183751 78.4,42.5496434 78.4,43.4517084 L78.4,49.9850418 C78.4,50.8871069 77.6687318,51.6183751 76.7666667,51.6183751 L60.4333333,51.6183751 C59.5312682,51.6183751 58.8,50.8871069 58.8,49.9850418 L58.8,43.4517084 C58.8,42.5496434 59.5312682,41.8183751 60.4333333,41.8183751 Z" id="矩形" fill="#F1F4F8"></path>
                    <path d="M86.5666667,41.8183751 L102.9,41.8183751 C103.802065,41.8183751 104.533333,42.5496434 104.533333,43.4517084 L104.533333,49.9850418 C104.533333,50.8871069 103.802065,51.6183751 102.9,51.6183751 L86.5666667,51.6183751 C85.6646016,51.6183751 84.9333333,50.8871069 84.9333333,49.9850418 L84.9333333,43.4517084 C84.9333333,42.5496434 85.6646016,41.8183751 86.5666667,41.8183751 Z" id="矩形备份" fill="#F1F4F8"></path>
                    <path d="M112.7,41.8183751 L129.033333,41.8183751 C129.935398,41.8183751 130.666667,42.5496434 130.666667,43.4517084 L130.666667,49.9850418 C130.666667,50.8871069 129.935398,51.6183751 129.033333,51.6183751 L112.7,51.6183751 C111.797935,51.6183751 111.066667,50.8871069 111.066667,49.9850418 L111.066667,43.4517084 C111.066667,42.5496434 111.797935,41.8183751 112.7,41.8183751 Z" id="矩形备份-2" fill="#F1F4F8"></path>
                    <path d="M119.233333,64.6850418 L168.233333,64.6850418 C169.135398,64.6850418 169.866667,65.41631 169.866667,66.3183751 L169.866667,79.3850418 C169.866667,80.2871069 169.135398,81.0183751 168.233333,81.0183751 L119.233333,81.0183751 C118.331268,81.0183751 117.6,80.2871069 117.6,79.3850418 L117.6,66.3183751 C117.6,65.41631 118.331268,64.6850418 119.233333,64.6850418 Z" id="矩形备份-4" fill="#F1F4F8"></path>
                    <path d="M60.4333333,64.6850418 L109.433333,64.6850418 C110.335398,64.6850418 111.066667,65.41631 111.066667,66.3183751 L111.066667,79.3850418 C111.066667,80.2871069 110.335398,81.0183751 109.433333,81.0183751 L60.4333333,81.0183751 C59.5312682,81.0183751 58.8,80.2871069 58.8,79.3850418 L58.8,66.3183751 C58.8,65.41631 59.5312682,64.6850418 60.4333333,64.6850418 Z" id="矩形备份-5" fill="#F1F4F8"></path>
                    <path d="M169.866667,57.7433751 C170.092183,57.7433751 170.275,57.9672327 170.275,58.2433751 C170.275,58.5195175 170.092183,58.7433751 169.866667,58.7433751 L58.8,58.7433751 C58.5744837,58.7433751 58.3916667,58.5195175 58.3916667,58.2433751 C58.3916667,57.9672327 58.5744837,57.7433751 58.8,57.7433751 L169.866667,57.7433751 Z" id="路径" fill="#F1F4F8" fill-rule="nonzero"></path>
                    <path d="M60.4333333,87.5517084 L168.233333,87.5517084 C169.135398,87.5517084 169.866667,88.2829767 169.866667,89.1850418 L169.866667,92.4517084 C169.866667,93.3537735 169.135398,94.0850418 168.233333,94.0850418 L60.4333333,94.0850418 C59.5312682,94.0850418 58.8,93.3537735 58.8,92.4517084 L58.8,89.1850418 C58.8,88.2829767 59.5312682,87.5517084 60.4333333,87.5517084 Z" id="矩形" fill="#F1F4F8"></path>
                    <circle id="椭圆形" fill="#F1F4F8" cx="60.4333333" cy="102.251708" r="1.63333333"></circle>
                    <path d="M66.15,100.618375 L169.05,100.618375 C169.501033,100.618375 169.866667,100.984009 169.866667,101.435042 L169.866667,103.068375 C169.866667,103.519408 169.501033,103.885042 169.05,103.885042 L66.15,103.885042 C65.6989675,103.885042 65.3333333,103.519408 65.3333333,103.068375 L65.3333333,101.435042 C65.3333333,100.984009 65.6989675,100.618375 66.15,100.618375 Z" id="矩形" fill="#F1F4F8"></path>
                    <circle id="椭圆形备份-2" fill="#F1F4F8" cx="60.4333333" cy="112.051708" r="1.63333333"></circle>
                    <path d="M66.15,110.418375 L169.05,110.418375 C169.501033,110.418375 169.866667,110.784009 169.866667,111.235042 L169.866667,112.868375 C169.866667,113.319408 169.501033,113.685042 169.05,113.685042 L66.15,113.685042 C65.6989675,113.685042 65.3333333,113.319408 65.3333333,112.868375 L65.3333333,111.235042 C65.3333333,110.784009 65.6989675,110.418375 66.15,110.418375 Z" id="矩形备份-6" fill="#F1F4F8"></path>
                    <circle id="椭圆形备份-4" fill="#F1F4F8" cx="60.4333333" cy="121.851708" r="1.63333333"></circle>
                    <circle id="椭圆形备份-5" fill="#F1F4F8" cx="60.4333333" cy="131.651708" r="1.63333333"></circle>
                    <path d="M66.15,120.218375 L169.05,120.218375 C169.501033,120.218375 169.866667,120.584009 169.866667,121.035042 L169.866667,122.668375 C169.866667,123.119408 169.501033,123.485042 169.05,123.485042 L66.15,123.485042 C65.6989675,123.485042 65.3333333,123.119408 65.3333333,122.668375 L65.3333333,121.035042 C65.3333333,120.584009 65.6989675,120.218375 66.15,120.218375 Z" id="矩形备份-8" fill="#F1F4F8"></path>
                    <path d="M66.15,130.018375 L169.05,130.018375 C169.501033,130.018375 169.866667,130.384009 169.866667,130.835042 L169.866667,132.468375 C169.866667,132.919408 169.501033,133.285042 169.05,133.285042 L66.15,133.285042 C65.6989675,133.285042 65.3333333,132.919408 65.3333333,132.468375 L65.3333333,130.835042 C65.3333333,130.384009 65.6989675,130.018375 66.15,130.018375 Z" id="矩形备份-9" fill="#F1F4F8"></path>
                    <g id="矩形">
                        <use fill="black" fill-opacity="1" filter="url(#filter-2)" xlink:href="#path-1-price-quotation-no-data"></use>
                        <use fill="#FFFFFF" fill-rule="evenodd" xlink:href="#path-1-price-quotation-no-data"></use>
                    </g>
                    <g id="矩形">
                        <use fill="currentColor" xlink:href="#path-3-price-quotation-no-data"></use>
                        <use fill-opacity="0.8" fill="#FFFFFF" xlink:href="#path-3-price-quotation-no-data"></use>
                    </g>
                    <g id="矩形备份-3">
                        <use fill="currentColor" xlink:href="#path-4-price-quotation-no-data"></use>
                        <use fill-opacity="0.8" fill="#FFFFFF" xlink:href="#path-4-price-quotation-no-data"></use>
                    </g>
                    <g id="矩形">
                        <use fill="currentColor" xlink:href="#path-5-price-quotation-no-data"></use>
                        <use fill-opacity="0.6" fill="#FFFFFF" xlink:href="#path-5-price-quotation-no-data"></use>
                    </g>
                    <g id="矩形备份-11">
                        <use fill="currentColor" xlink:href="#path-6-price-quotation-no-data"></use>
                        <use fill-opacity="0.6" fill="#FFFFFF" xlink:href="#path-6-price-quotation-no-data"></use>
                    </g>
                    <g id="矩形备份-7">
                        <use fill="currentColor" xlink:href="#path-7-price-quotation-no-data"></use>
                        <use fill-opacity="0.6" fill="#FFFFFF" xlink:href="#path-7-price-quotation-no-data"></use>
                    </g>
                    <g id="矩形备份-12">
                        <use fill="currentColor" xlink:href="#path-8-price-quotation-no-data"></use>
                        <use fill-opacity="0.6" fill="#FFFFFF" xlink:href="#path-8-price-quotation-no-data"></use>
                    </g>
                    <g id="矩形备份-10">
                        <use fill="currentColor" xlink:href="#path-9-price-quotation-no-data"></use>
                        <use fill-opacity="0.6" fill="#FFFFFF" xlink:href="#path-9-price-quotation-no-data"></use>
                    </g>
                    <g id="矩形备份-13">
                        <use fill="currentColor" xlink:href="#path-10-price-quotation-no-data"></use>
                        <use fill-opacity="0.6" fill="#FFFFFF" xlink:href="#path-10-price-quotation-no-data"></use>
                    </g>
                    <circle id="椭圆形" stroke="#FFFFFF" stroke-width="3" fill="currentColor" cx="161.833333" cy="32.0183751" r="11.3"></circle>
                    <polygon id="路径" fill="#FFFFFF" fill-rule="nonzero" points="162.65 32.8350418 165.1 32.8350418 165.1 34.4683751 162.65 34.4683751 162.65 36.1017084 161.016667 36.1017084 161.016667 34.4683751 158.566667 34.4683751 158.566667 32.8350418 161.016667 32.8350418 161.016667 32.0183751 158.566667 32.0183751 158.566667 30.3850418 160.678567 30.3850418 158.9456 28.6528918 160.102 27.4973084 161.833333 29.2302751 163.565483 27.4973084 164.721067 28.6528918 162.9881 30.3850418 165.1 30.3850418 165.1 32.0183751 162.65 32.0183751"></polygon>
                    <path d="M90.2779974,0 C89.8035039,1.04833089 89.3632977,2.04746636 88.9573735,2.9974312 L89.7083527,3.31832795 C90.1119438,2.37382307 90.549829,1.37995555 91.0220026,0.33675022 L90.2779974,0 Z M87.7120806,6.03082806 C87.2753031,7.14640441 86.8989922,8.17544958 86.5831329,9.1181439 L87.3574889,9.3775997 C87.6688145,8.44843636 88.0405027,7.43203212 88.4725383,6.32856728 L87.7120806,6.03082806 Z M85.669974,12.3017683 C85.4411182,13.3234516 85.3310607,14.1796787 85.3417146,14.8746343 C85.3457666,15.1389443 85.3590559,15.4031021 85.3814357,15.6668088 L86.1951772,15.5977497 C86.1743875,15.3527789 86.1620468,15.1074781 86.1582854,14.862116 C86.1487412,14.2395518 86.2509726,13.4442106 86.4668925,12.480277 L85.669974,12.3017683 Z M86.1455521,18.9702789 C86.5503669,20.0286434 87.0962483,21.0316564 87.7513278,21.9361962 L88.4127569,21.4571806 C87.7991142,20.6098571 87.2874411,19.6696992 86.908326,18.6785248 L86.1455521,18.9702789 Z M90.1484818,24.4039452 C91.2117692,25.197759 92.3194463,25.6813741 93.3489895,25.7838197 L93.4298533,24.9711663 C92.5612229,24.8847325 91.5890758,24.4602902 90.6370423,23.7495347 L90.1484818,24.4039452 Z M96.5743045,24.2873708 C96.6216588,24.2173306 96.667478,24.144993 96.7117459,24.0703739 C97.3294633,23.0222294 97.5979753,21.9391278 97.5282881,20.885737 L96.7134027,20.9396458 C96.772063,21.8263546 96.5438967,22.746713 96.0087754,23.6547112 C95.9732656,23.7145641 95.9360511,23.7733168 95.897757,23.8299564 L96.5743045,24.2873708 Z M96.0129261,17.6631904 C95.1155601,16.8070257 93.9344836,16.3162632 92.7079829,16.3145746 L92.7068585,17.1312405 C93.7201297,17.1326355 94.7009438,17.5401847 95.4491796,18.2540663 L96.0129261,17.6631904 Z M89.3997714,17.6005013 C88.6128363,18.2703704 87.920458,19.1893917 87.346677,20.3497241 L88.0787301,20.7117223 C88.6051894,19.6470864 89.2305289,18.8170484 89.9291311,18.2223716 L89.3997714,17.6005013 Z M87.0579129,23.5586757 L86.266296,23.3579593 L86.1698351,23.7553864 C85.924448,24.8134452 85.8874419,25.8223697 86.0517248,26.7842815 L86.8567353,26.6467955 C86.7110616,25.7938437 86.7440589,24.8942113 86.965368,23.939972 C86.9952597,23.8112023 87.0261172,23.6840766 87.0579129,23.5586757 Z M87.4377845,29.9496622 C88.0627582,30.7954538 88.8756913,31.5824563 89.8635986,32.3140394 L90.3496152,31.6577374 C89.4235681,30.9719642 88.6684188,30.2409024 88.094594,29.4643316 L87.4377845,29.9496622 Z M92.7154705,34.0409629 C93.6473941,34.5093109 94.6630001,34.9466184 95.7556914,35.3542832 L96.041156,34.5891333 C94.9750644,34.1913924 93.9864263,33.7656969 93.0821889,33.3112629 L92.7154705,34.0409629 Z M98.9568898,36.403162 C99.9807075,36.6979248 101.044889,36.9699848 102.143701,37.2204781 L102.325218,36.4242393 C101.240842,36.1770372 100.191413,35.9087485 99.1828348,35.6183733 L98.9568898,36.403162 Z M105.296407,37.864112 C106.376654,38.0606915 107.45867,38.2346651 108.536501,38.3882221 L108.651687,37.5797194 C107.583895,37.4275927 106.512175,37.2552746 105.44262,37.0606406 L105.296407,37.864112 Z M111.915823,37.9845676 L111.829884,38.7966998 L113.451509,38.9556188 L113.530355,38.1427672 L112.918691,38.0852508 C112.58595,38.0535496 112.263106,38.021317 111.915823,37.9845676 Z" id="路径-2" fill="currentColor" fill-rule="nonzero"></path>
                </g>
                <g id="元素/纸飞机/主色备份" transform="translate(147.000000, 3.266667)">
                    <g id="路径-14">
                        <use fill="currentColor" xlink:href="#path-11-price-quotation-no-data"></use>
                        <use fill-opacity="0.4" fill="#FFFFFF" xlink:href="#path-11-price-quotation-no-data"></use>
                    </g>
                    <g id="路径-5">
                        <use fill="currentColor" xlink:href="#path-12-price-quotation-no-data"></use>
                        <use fill-opacity="0.2" fill="#FFFFFF" xlink:href="#path-12-price-quotation-no-data"></use>
                    </g>
                    <g id="路径-12">
                        <use fill="currentColor" xlink:href="#path-13-price-quotation-no-data"></use>
                        <use fill-opacity="0.2" fill="#000000" xlink:href="#path-13-price-quotation-no-data"></use>
                    </g>
                    <g id="路径-13">
                        <use fill="currentColor" xlink:href="#path-14-price-quotation-no-data"></use>
                        <use fill-opacity="0.2" fill="#FFFFFF" xlink:href="#path-14-price-quotation-no-data"></use>
                    </g>
                </g>
            </g>
        </g>
    </g>
</svg>