<svg width="160px" height="98px" viewBox="0 0 160 98" version="1.1" xmlns="http://www.w3.org/2000/svg" xmlns:xlink="http://www.w3.org/1999/xlink">
    <defs>
        <path d="M0.995069272,5.99772727 L0.286800724,7.20098015 C0.24275074,7.27581573 0.243115595,7.36921761 0.287353457,7.44356734 L0.290367639,7.44849535 C0.321692474,7.4983332 0.387737382,7.52382144 0.488502364,7.52496007 L0.49568815,7.525 L0.839947492,7.525 C0.943002582,7.525 1.04569826,7.5126143 1.14590772,7.48809939 L7.23809524,5.99772727 L0.995069272,5.99772727 Z" id="path-ydflv30gp1-1"></path>
        <path d="M2.49602026,3.70681818 L14.2222222,3.70681818 L0.386826107,0.010148224 C0.240577034,-0.0289280411 0.088753432,0.0478071521 0.0304664388,0.189361514 L0.0283759002,0.19456916 C-0.0244569268,0.32962408 -0.00252230465,0.483149761 0.0859069517,0.59724296 L2.49602026,3.70681818 Z" id="path-ydflv30gp1-2"></path>
        <polygon id="path-ydflv30gp1-3" points="14.2222222 3.70681818 2.49685535 3.70681818 1 5.99772727 4.24318658 5.99772727"></polygon>
        <path d="M14.2222222,3.70681818 L7.4846177,10.0704545 C7.37531626,10.1234848 7.29220256,10.15 7.23527662,10.15 C7.17835067,10.15 7.09703538,10.1234848 6.99133073,10.0704545 L3.62522607,5.48863636 C3.60966242,5.30337151 3.62350264,5.18130794 3.66674673,5.12244568 C3.70999082,5.06358341 3.82082114,5.01595 3.9992377,4.97954545 L14.2222222,3.70681818 Z" id="path-ydflv30gp1-4"></path>
        <path d="M1.88519445,0 L56.438009,0 C57.4791731,0 58.3232034,0.845948557 58.3232034,1.88947899 L58.3232034,26.4527058 C58.3232034,27.4962363 57.4791731,28.3421848 56.438009,28.3421848 L1.88519445,28.3421848 C0.844030307,28.3421848 0,27.4962363 0,26.4527058 L0,1.88947899 C0,0.845948557 0.844030307,0 1.88519445,0 Z" id="path-ydflv30gp1-5"></path>
        <filter x="-54.9%" y="-77.6%" width="209.7%" height="325.8%" filterUnits="objectBoundingBox" id="filter-ydflv30gp1-6">
            <feOffset dx="0" dy="10" in="SourceAlpha" result="shadowOffsetOuter1"></feOffset>
            <feGaussianBlur stdDeviation="9" in="shadowOffsetOuter1" result="shadowBlurOuter1"></feGaussianBlur>
            <feColorMatrix values="0 0 0 0 0.11372549   0 0 0 0 0.129411765   0 0 0 0 0.160784314  0 0 0 0.06 0" type="matrix" in="shadowBlurOuter1" result="shadowMatrixOuter1"></feColorMatrix>
            <feOffset dx="0" dy="4" in="SourceAlpha" result="shadowOffsetOuter2"></feOffset>
            <feGaussianBlur stdDeviation="5" in="shadowOffsetOuter2" result="shadowBlurOuter2"></feGaussianBlur>
            <feColorMatrix values="0 0 0 0 0.11372549   0 0 0 0 0.129411765   0 0 0 0 0.160784314  0 0 0 0.06 0" type="matrix" in="shadowBlurOuter2" result="shadowMatrixOuter2"></feColorMatrix>
            <feOffset dx="0" dy="2" in="SourceAlpha" result="shadowOffsetOuter3"></feOffset>
            <feGaussianBlur stdDeviation="2" in="shadowOffsetOuter3" result="shadowBlurOuter3"></feGaussianBlur>
            <feColorMatrix values="0 0 0 0 0.11372549   0 0 0 0 0.129411765   0 0 0 0 0.160784314  0 0 0 0.06 0" type="matrix" in="shadowBlurOuter3" result="shadowMatrixOuter3"></feColorMatrix>
            <feMerge>
                <feMergeNode in="shadowMatrixOuter1"></feMergeNode>
                <feMergeNode in="shadowMatrixOuter2"></feMergeNode>
                <feMergeNode in="shadowMatrixOuter3"></feMergeNode>
            </feMerge>
        </filter>
        <path d="M4.59516148,3.77895797 L12.1359393,3.77895797 C12.6565214,3.77895797 13.0785365,4.20193225 13.0785365,4.72369747 L13.0785365,12.2816134 C13.0785365,12.8033786 12.6565214,13.2263529 12.1359393,13.2263529 L4.59516148,13.2263529 C4.07457941,13.2263529 3.65256426,12.8033786 3.65256426,12.2816134 L3.65256426,4.72369747 C3.65256426,4.20193225 4.07457941,3.77895797 4.59516148,3.77895797 Z" id="path-ydflv30gp1-7"></path>
        <path d="M17.7915227,3.89705041 L29.1026894,3.89705041 C29.6232715,3.89705041 30.0452866,4.32002469 30.0452866,4.8417899 L30.0452866,8.50265544 C30.0452866,9.02442066 29.6232715,9.44739494 29.1026894,9.44739494 L17.7915227,9.44739494 C17.2709406,9.44739494 16.8489254,9.02442066 16.8489254,8.50265544 L16.8489254,4.8417899 C16.8489254,4.32002469 17.2709406,3.89705041 17.7915227,3.89705041 Z" id="path-ydflv30gp1-8"></path>
    </defs>
    <g id="快速询价" stroke="none" stroke-width="1" fill="none" fill-rule="evenodd">
        <g id="询价中-查看报价" transform="translate(-815, -394)">
            <g id="编组-41" transform="translate(815, 394)">
                <rect id="矩形" x="0" y="0" width="160" height="98"></rect>
                <g id="背景/0" transform="translate(30.2222, 24.9455)">
                    <g id="编组">
                        <path d="M1.77777778,0 L97.7777778,0 C98.7596173,0 99.5555556,0.797747173 99.5555556,1.78181818 L99.5555556,71.2727273 C99.5555556,72.2567983 98.7596173,73.0545455 97.7777778,73.0545455 L1.77777778,73.0545455 C0.795938223,73.0545455 0,72.2567983 0,71.2727273 L0,1.78181818 C0,0.797747173 0.795938223,0 1.77777778,0 Z" id="矩形" fill="#F1F4F8"></path>
                        <path d="M1.77777778,0 L97.7777778,0 C98.7596173,0 99.5555556,0.797747173 99.5555556,1.78181818 L99.5555556,7.12727273 L0,7.12727273 L0,1.78181818 C0,0.797747173 0.795938223,0 1.77777778,0 Z" id="矩形" fill="#DBDEE3"></path>
                        <ellipse id="椭圆形" fill="#FFFFFF" cx="5.33333333" cy="3.56363636" rx="1.77777778" ry="1.78181818"></ellipse>
                        <ellipse id="椭圆形备份" fill="#FFFFFF" cx="12.4444444" cy="3.56363636" rx="1.77777778" ry="1.78181818"></ellipse>
                        <ellipse id="椭圆形备份-2" fill="#FFFFFF" cx="19.5555556" cy="3.56363636" rx="1.77777778" ry="1.78181818"></ellipse>
                    </g>
                    <g id="编组" transform="translate(3.5556, 10.6909)">
                        <path d="M1.77777778,0 L90.6666667,0 C91.6485062,0 92.4444444,0.797747173 92.4444444,1.78181818 L92.4444444,57.0181818 C92.4444444,58.0022528 91.6485062,58.8 90.6666667,58.8 L1.77777778,58.8 C0.795938223,58.8 0,58.0022528 0,57.0181818 L0,1.78181818 C0,0.797747173 0.795938223,0 1.77777778,0 Z" id="矩形" fill="#FFFFFF"></path>
                        <path d="M4.44444444,3.56363636 L15.1111111,3.56363636 C15.6020309,3.56363636 16,3.96250995 16,4.45454545 L16,8.01818182 C16,8.51021732 15.6020309,8.90909091 15.1111111,8.90909091 L4.44444444,8.90909091 C3.95352467,8.90909091 3.55555556,8.51021732 3.55555556,8.01818182 L3.55555556,4.45454545 C3.55555556,3.96250995 3.95352467,3.56363636 4.44444444,3.56363636 Z" id="矩形" fill="#E9ECF0"></path>
                        <path d="M8,5.34545455 L11.5555556,5.34545455 C12.0464753,5.34545455 12.4444444,5.74432813 12.4444444,6.23636364 C12.4444444,6.72839914 12.0464753,7.12727273 11.5555556,7.12727273 L8,7.12727273 C7.50908022,7.12727273 7.11111111,6.72839914 7.11111111,6.23636364 C7.11111111,5.74432813 7.50908022,5.34545455 8,5.34545455 Z" id="矩形" fill="#FFFFFF"></path>
                        <path d="M4.44444444,12.4727273 L88,12.4727273 C88.4909198,12.4727273 88.8888889,12.8716009 88.8888889,13.3636364 L88.8888889,29.4 C88.8888889,29.8920355 88.4909198,30.2909091 88,30.2909091 L4.44444444,30.2909091 C3.95352467,30.2909091 3.55555556,29.8920355 3.55555556,29.4 L3.55555556,13.3636364 C3.55555556,12.8716009 3.95352467,12.4727273 4.44444444,12.4727273 Z" id="矩形" fill="#F1F4F8"></path>
                        <path d="M8,16.0363636 L43.5555556,16.0363636 C44.0464753,16.0363636 44.4444444,16.4352372 44.4444444,16.9272727 L44.4444444,18.7090909 C44.4444444,19.2011264 44.0464753,19.6 43.5555556,19.6 L8,19.6 C7.50908022,19.6 7.11111111,19.2011264 7.11111111,18.7090909 L7.11111111,16.9272727 C7.11111111,16.4352372 7.50908022,16.0363636 8,16.0363636 Z" id="矩形" fill="#E9ECF0"></path>
                        <path d="M82.6666667,16.0363636 L84.4444444,16.0363636 C84.9353642,16.0363636 85.3333333,16.4352372 85.3333333,16.9272727 L85.3333333,18.7090909 C85.3333333,19.2011264 84.9353642,19.6 84.4444444,19.6 L82.6666667,19.6 C82.1757469,19.6 81.7777778,19.2011264 81.7777778,18.7090909 L81.7777778,16.9272727 C81.7777778,16.4352372 82.1757469,16.0363636 82.6666667,16.0363636 Z" id="矩形备份" fill="#E9ECF0"></path>
                        <polygon id="路径-22" fill="#F1F4F8" fill-rule="nonzero" points="88.8888889 33.6318182 88.8888889 34.6318182 3.55555556 34.6318182 3.55555556 33.6318182"></polygon>
                        <path d="M4.44444444,37.4181818 L6.22222222,37.4181818 C6.713142,37.4181818 7.11111111,37.8170554 7.11111111,38.3090909 L7.11111111,40.0909091 C7.11111111,40.5829446 6.713142,40.9818182 6.22222222,40.9818182 L4.44444444,40.9818182 C3.95352467,40.9818182 3.55555556,40.5829446 3.55555556,40.0909091 L3.55555556,38.3090909 C3.55555556,37.8170554 3.95352467,37.4181818 4.44444444,37.4181818 Z" id="矩形" fill="#E9ECF0"></path>
                        <path d="M11.5555556,37.4181818 L38.2222222,37.4181818 C38.713142,37.4181818 39.1111111,37.8170554 39.1111111,38.3090909 L39.1111111,40.0909091 C39.1111111,40.5829446 38.713142,40.9818182 38.2222222,40.9818182 L11.5555556,40.9818182 C11.0646358,40.9818182 10.6666667,40.5829446 10.6666667,40.0909091 L10.6666667,38.3090909 C10.6666667,37.8170554 11.0646358,37.4181818 11.5555556,37.4181818 Z" id="矩形备份-4" fill="#F1F4F8"></path>
                        <path d="M66.6666667,37.4181818 L73.7777778,37.4181818 C74.2686976,37.4181818 74.6666667,37.8170554 74.6666667,38.3090909 L74.6666667,40.0909091 C74.6666667,40.5829446 74.2686976,40.9818182 73.7777778,40.9818182 L66.6666667,40.9818182 C66.1757469,40.9818182 65.7777778,40.5829446 65.7777778,40.0909091 L65.7777778,38.3090909 C65.7777778,37.8170554 66.1757469,37.4181818 66.6666667,37.4181818 Z" id="矩形备份-7" fill="#E9ECF0"></path>
                        <path d="M4.44444444,44.5454545 L6.22222222,44.5454545 C6.713142,44.5454545 7.11111111,44.9443281 7.11111111,45.4363636 L7.11111111,47.2181818 C7.11111111,47.7102173 6.713142,48.1090909 6.22222222,48.1090909 L4.44444444,48.1090909 C3.95352467,48.1090909 3.55555556,47.7102173 3.55555556,47.2181818 L3.55555556,45.4363636 C3.55555556,44.9443281 3.95352467,44.5454545 4.44444444,44.5454545 Z" id="矩形备份-2" fill="#E9ECF0"></path>
                        <path d="M11.5555556,44.5454545 L61.3333333,44.5454545 C61.8242531,44.5454545 62.2222222,44.9443281 62.2222222,45.4363636 L62.2222222,47.2181818 C62.2222222,47.7102173 61.8242531,48.1090909 61.3333333,48.1090909 L11.5555556,48.1090909 C11.0646358,48.1090909 10.6666667,47.7102173 10.6666667,47.2181818 L10.6666667,45.4363636 C10.6666667,44.9443281 11.0646358,44.5454545 11.5555556,44.5454545 Z" id="矩形备份-5" fill="#F1F4F8"></path>
                        <path d="M4.44444444,51.6727273 L6.22222222,51.6727273 C6.713142,51.6727273 7.11111111,52.0716009 7.11111111,52.5636364 L7.11111111,54.3454545 C7.11111111,54.83749 6.713142,55.2363636 6.22222222,55.2363636 L4.44444444,55.2363636 C3.95352467,55.2363636 3.55555556,54.83749 3.55555556,54.3454545 L3.55555556,52.5636364 C3.55555556,52.0716009 3.95352467,51.6727273 4.44444444,51.6727273 Z" id="矩形备份-3" fill="#E9ECF0"></path>
                        <path d="M11.5555556,51.6727273 L48.8888889,51.6727273 C49.3798087,51.6727273 49.7777778,52.0716009 49.7777778,52.5636364 L49.7777778,54.3454545 C49.7777778,54.83749 49.3798087,55.2363636 48.8888889,55.2363636 L11.5555556,55.2363636 C11.0646358,55.2363636 10.6666667,54.83749 10.6666667,54.3454545 L10.6666667,52.5636364 C10.6666667,52.0716009 11.0646358,51.6727273 11.5555556,51.6727273 Z" id="矩形备份-6" fill="#F1F4F8"></path>
                        <g id="编组-2" transform="translate(85.3333, 37.4182)">
                            <g id="编组">
                                <ellipse id="椭圆形" fill="#F1F4F8" cx="1.77777778" cy="1.78181818" rx="1.77777778" ry="1.78181818"></ellipse>
                                <path d="M1.77777778,2.24664032 C2.20466454,2.24664032 2.55072464,2.66285623 2.55072464,3.17628458 C2.55072464,3.18860165 2.55052548,3.20086276 2.55013081,3.21306352 C2.32045503,3.33784426 2.05737176,3.40869565 1.77777778,3.40869565 C1.49818231,3.40869565 1.23509773,3.33784351 1.00542229,3.21307588 C1.00503008,3.20086276 1.00483092,3.18860165 1.00483092,3.17628458 C1.00483092,2.66285623 1.35089101,2.24664032 1.77777778,2.24664032 Z" id="路径" fill="#DBDEE3"></path>
                                <path d="M1.79676131,2.24864032 L1.77777778,2.24664032 C2.01435956,2.24664032 2.2261162,2.54666547 2.36790014,3.01927659 C2.25509857,3.15684854 2.05879713,3.24664032 1.83574879,3.24664032 C1.5503445,3.24664032 1.30873236,3.099626 1.22736891,2.89690987 C1.35013302,2.54539534 1.51453063,2.31127065 1.69792802,2.25814123 L1.7323136,2.25318447 L1.79676131,2.24864032 Z" id="形状结合" fill-opacity="0.1" fill="#000000"></path>
                                <polygon id="矩形" fill="#F1F4F8" points="1.54589372 2.71146245 1.77777778 2.78893281 1.54589372 2.86640316"></polygon>
                                <polygon id="矩形备份-2" fill="#F1F4F8" transform="translate(1.8937, 2.7889) scale(-1, 1) translate(-1.8937, -2.7889)" points="1.77777778 2.71146245 2.00966184 2.78893281 1.77777778 2.86640316"></polygon>
                                <rect id="矩形" fill="#F1F4F8" x="1.70048309" y="2.75019763" width="1" height="1" rx="0.0497427368"></rect>
                                <ellipse id="椭圆形备份-2" fill="#DBDEE3" cx="1.77777778" cy="1.70434783" rx="1.00483092" ry="1"></ellipse>
                            </g>
                            <ellipse id="椭圆形备份-2" fill="#FFFFFF" cx="1.77777778" cy="1.70434783" rx="1" ry="1"></ellipse>
                            <path d="M2.50055353,1.54941403 C2.55549306,1.5501477 2.59944275,1.59527259 2.59872675,1.65021212 C2.5945035,1.96964421 2.41782066,2.14632705 2.1012992,2.14632705 C1.78477773,2.14632705 1.60809489,1.96964421 1.60387165,1.65021212 C1.60315565,1.59527259 1.64710534,1.5501477 1.70204486,1.54941403 C1.75698439,1.54869802 1.80210928,1.59264771 1.80283412,1.64758724 C1.80562001,1.85874435 1.89423176,1.9473561 2.1012992,1.9473561 C2.30836664,1.9473561 2.39697839,1.85874435 2.39976428,1.64758724 C2.40048912,1.59264771 2.445614,1.54869802 2.50055353,1.54941403 Z" id="路径-93" fill="#DBDEE3" fill-rule="nonzero"></path>
                            <path d="M2.6551429,1.54941403 C2.71008243,1.5501477 2.75403212,1.59527259 2.75331612,1.65021212 C2.74909288,1.96964421 2.57241003,2.14632705 2.25588857,2.14632705 C1.93936711,2.14632705 1.76268426,1.96964421 1.75846102,1.65021212 C1.75774502,1.59527259 1.80169471,1.5501477 1.85663424,1.54941403 C1.91157376,1.54869802 1.95669865,1.59264771 1.95742349,1.64758724 C1.96020938,1.85874435 2.04882113,1.9473561 2.25588857,1.9473561 C2.46295601,1.9473561 2.55156776,1.85874435 2.55435365,1.64758724 C2.55507849,1.59264771 2.60020338,1.54869802 2.6551429,1.54941403 Z" id="路径-93备份" fill="#DBDEE3" fill-rule="nonzero"></path>
                            <ellipse id="椭圆形备份-3" fill="#DBDEE3" cx="2.16425121" cy="1.45256917" rx="1" ry="1"></ellipse>
                            <ellipse id="椭圆形备份-4" fill="#DBDEE3" cx="1.39130435" cy="1.45256917" rx="1" ry="1"></ellipse>
                            <rect id="矩形" fill="#F1F4F8" x="1.23671498" y="1.62687747" width="1" height="1" rx="0.0994854736"></rect>
                            <rect id="矩形备份" fill="#F1F4F8" x="2.08695652" y="1.62687747" width="1" height="1" rx="0.0994854736"></rect>
                            <path d="M2.39130435,0.881225296 L2.29667638,1.88160013 C2.18228878,1.69670596 2.04238609,1.5879753 1.89130435,1.5879753 C1.73995708,1.5879753 1.5998282,1.69708848 1.48532945,1.88257567 L1.39130435,0.881225296 L2.39130435,0.881225296 Z" id="形状结合" fill="#DBDEE3"></path>
                            <ellipse id="椭圆形" fill="#DBDEE3" cx="2.00966184" cy="0.54229249" rx="1" ry="1"></ellipse>
                            <path d="M2.4134691,0.511935285 L2.57730704,0.579007471 L2.55778303,0.595440283 C2.50722134,0.637429074 2.40546552,0.719280196 2.40426191,0.720269438 C2.08905441,0.979336834 2.00316284,1.17459995 2.19055151,1.47028588 L2.00434085,1.51193528 C1.79424406,1.18041756 1.88814985,0.949345066 2.22049699,0.669738021 L2.39371827,0.528533349 C2.4019093,0.521743081 2.40871821,0.51603109 2.4134691,0.511935285 Z" id="路径-96" fill="#DBDEE3" fill-rule="nonzero"></path>
                        </g>
                        <g id="编组-2" transform="translate(85.3333, 44.5455)">
                            <g id="编组">
                                <ellipse id="椭圆形" fill="#F1F4F8" cx="1.77777778" cy="1.78181818" rx="1.77777778" ry="1.78181818"></ellipse>
                                <path d="M1.77777778,2.24664032 C2.20466454,2.24664032 2.55072464,2.66285623 2.55072464,3.17628458 C2.55072464,3.18860165 2.55052548,3.20086276 2.55013081,3.21306352 C2.32045503,3.33784426 2.05737176,3.40869565 1.77777778,3.40869565 C1.49818231,3.40869565 1.23509773,3.33784351 1.00542229,3.21307588 C1.00503008,3.20086276 1.00483092,3.18860165 1.00483092,3.17628458 C1.00483092,2.66285623 1.35089101,2.24664032 1.77777778,2.24664032 Z" id="路径" fill="#DBDEE3"></path>
                                <path d="M1.79676131,2.24864032 L1.77777778,2.24664032 C2.01435956,2.24664032 2.2261162,2.54666547 2.36790014,3.01927659 C2.25509857,3.15684854 2.05879713,3.24664032 1.83574879,3.24664032 C1.5503445,3.24664032 1.30873236,3.099626 1.22736891,2.89690987 C1.35013302,2.54539534 1.51453063,2.31127065 1.69792802,2.25814123 L1.7323136,2.25318447 L1.79676131,2.24864032 Z" id="形状结合" fill-opacity="0.1" fill="#000000"></path>
                                <polygon id="矩形" fill="#F1F4F8" points="1.54589372 2.71146245 1.77777778 2.78893281 1.54589372 2.86640316"></polygon>
                                <polygon id="矩形备份-2" fill="#F1F4F8" transform="translate(1.8937, 2.7889) scale(-1, 1) translate(-1.8937, -2.7889)" points="1.77777778 2.71146245 2.00966184 2.78893281 1.77777778 2.86640316"></polygon>
                                <rect id="矩形" fill="#F1F4F8" x="1.70048309" y="2.75019763" width="1" height="1" rx="0.0497427368"></rect>
                                <ellipse id="椭圆形备份-2" fill="#DBDEE3" cx="1.77777778" cy="1.70434783" rx="1.00483092" ry="1"></ellipse>
                            </g>
                            <ellipse id="椭圆形备份-2" fill="#FFFFFF" cx="1.77777778" cy="1.70434783" rx="1" ry="1"></ellipse>
                            <path d="M2.50055353,1.54941403 C2.55549306,1.5501477 2.59944275,1.59527259 2.59872675,1.65021212 C2.5945035,1.96964421 2.41782066,2.14632705 2.1012992,2.14632705 C1.78477773,2.14632705 1.60809489,1.96964421 1.60387165,1.65021212 C1.60315565,1.59527259 1.64710534,1.5501477 1.70204486,1.54941403 C1.75698439,1.54869802 1.80210928,1.59264771 1.80283412,1.64758724 C1.80562001,1.85874435 1.89423176,1.9473561 2.1012992,1.9473561 C2.30836664,1.9473561 2.39697839,1.85874435 2.39976428,1.64758724 C2.40048912,1.59264771 2.445614,1.54869802 2.50055353,1.54941403 Z" id="路径-93" fill="#DBDEE3" fill-rule="nonzero"></path>
                            <path d="M2.6551429,1.54941403 C2.71008243,1.5501477 2.75403212,1.59527259 2.75331612,1.65021212 C2.74909288,1.96964421 2.57241003,2.14632705 2.25588857,2.14632705 C1.93936711,2.14632705 1.76268426,1.96964421 1.75846102,1.65021212 C1.75774502,1.59527259 1.80169471,1.5501477 1.85663424,1.54941403 C1.91157376,1.54869802 1.95669865,1.59264771 1.95742349,1.64758724 C1.96020938,1.85874435 2.04882113,1.9473561 2.25588857,1.9473561 C2.46295601,1.9473561 2.55156776,1.85874435 2.55435365,1.64758724 C2.55507849,1.59264771 2.60020338,1.54869802 2.6551429,1.54941403 Z" id="路径-93备份" fill="#DBDEE3" fill-rule="nonzero"></path>
                            <ellipse id="椭圆形备份-3" fill="#DBDEE3" cx="2.16425121" cy="1.45256917" rx="1" ry="1"></ellipse>
                            <ellipse id="椭圆形备份-4" fill="#DBDEE3" cx="1.39130435" cy="1.45256917" rx="1" ry="1"></ellipse>
                            <rect id="矩形" fill="#F1F4F8" x="1.23671498" y="1.62687747" width="1" height="1" rx="0.0994854736"></rect>
                            <rect id="矩形备份" fill="#F1F4F8" x="2.08695652" y="1.62687747" width="1" height="1" rx="0.0994854736"></rect>
                            <path d="M2.39130435,0.881225296 L2.29667638,1.88160013 C2.18228878,1.69670596 2.04238609,1.5879753 1.89130435,1.5879753 C1.73995708,1.5879753 1.5998282,1.69708848 1.48532945,1.88257567 L1.39130435,0.881225296 L2.39130435,0.881225296 Z" id="形状结合" fill="#DBDEE3"></path>
                            <ellipse id="椭圆形" fill="#DBDEE3" cx="2.00966184" cy="0.54229249" rx="1" ry="1"></ellipse>
                            <path d="M2.4134691,0.511935285 L2.57730704,0.579007471 L2.55778303,0.595440283 C2.50722134,0.637429074 2.40546552,0.719280196 2.40426191,0.720269438 C2.08905441,0.979336834 2.00316284,1.17459995 2.19055151,1.47028588 L2.00434085,1.51193528 C1.79424406,1.18041756 1.88814985,0.949345066 2.22049699,0.669738021 L2.39371827,0.528533349 C2.4019093,0.521743081 2.40871821,0.51603109 2.4134691,0.511935285 Z" id="路径-96" fill="#DBDEE3" fill-rule="nonzero"></path>
                        </g>
                        <g id="编组-2" transform="translate(85.3333, 51.6727)">
                            <g id="编组">
                                <ellipse id="椭圆形" fill="#F1F4F8" cx="1.77777778" cy="1.78181818" rx="1.77777778" ry="1.78181818"></ellipse>
                                <path d="M1.77777778,2.24664032 C2.20466454,2.24664032 2.55072464,2.66285623 2.55072464,3.17628458 C2.55072464,3.18860165 2.55052548,3.20086276 2.55013081,3.21306352 C2.32045503,3.33784426 2.05737176,3.40869565 1.77777778,3.40869565 C1.49818231,3.40869565 1.23509773,3.33784351 1.00542229,3.21307588 C1.00503008,3.20086276 1.00483092,3.18860165 1.00483092,3.17628458 C1.00483092,2.66285623 1.35089101,2.24664032 1.77777778,2.24664032 Z" id="路径" fill="#DBDEE3"></path>
                                <path d="M1.79676131,2.24864032 L1.77777778,2.24664032 C2.01435956,2.24664032 2.2261162,2.54666547 2.36790014,3.01927659 C2.25509857,3.15684854 2.05879713,3.24664032 1.83574879,3.24664032 C1.5503445,3.24664032 1.30873236,3.099626 1.22736891,2.89690987 C1.35013302,2.54539534 1.51453063,2.31127065 1.69792802,2.25814123 L1.7323136,2.25318447 L1.79676131,2.24864032 Z" id="形状结合" fill-opacity="0.1" fill="#000000"></path>
                                <polygon id="矩形" fill="#F1F4F8" points="1.54589372 2.71146245 1.77777778 2.78893281 1.54589372 2.86640316"></polygon>
                                <polygon id="矩形备份-2" fill="#F1F4F8" transform="translate(1.8937, 2.7889) scale(-1, 1) translate(-1.8937, -2.7889)" points="1.77777778 2.71146245 2.00966184 2.78893281 1.77777778 2.86640316"></polygon>
                                <rect id="矩形" fill="#F1F4F8" x="1.70048309" y="2.75019763" width="1" height="1" rx="0.0497427368"></rect>
                                <ellipse id="椭圆形备份-2" fill="#DBDEE3" cx="1.77777778" cy="1.70434783" rx="1.00483092" ry="1"></ellipse>
                            </g>
                            <ellipse id="椭圆形备份-2" fill="#FFFFFF" cx="1.77777778" cy="1.70434783" rx="1" ry="1"></ellipse>
                            <path d="M2.50055353,1.54941403 C2.55549306,1.5501477 2.59944275,1.59527259 2.59872675,1.65021212 C2.5945035,1.96964421 2.41782066,2.14632705 2.1012992,2.14632705 C1.78477773,2.14632705 1.60809489,1.96964421 1.60387165,1.65021212 C1.60315565,1.59527259 1.64710534,1.5501477 1.70204486,1.54941403 C1.75698439,1.54869802 1.80210928,1.59264771 1.80283412,1.64758724 C1.80562001,1.85874435 1.89423176,1.9473561 2.1012992,1.9473561 C2.30836664,1.9473561 2.39697839,1.85874435 2.39976428,1.64758724 C2.40048912,1.59264771 2.445614,1.54869802 2.50055353,1.54941403 Z" id="路径-93" fill="#DBDEE3" fill-rule="nonzero"></path>
                            <path d="M2.6551429,1.54941403 C2.71008243,1.5501477 2.75403212,1.59527259 2.75331612,1.65021212 C2.74909288,1.96964421 2.57241003,2.14632705 2.25588857,2.14632705 C1.93936711,2.14632705 1.76268426,1.96964421 1.75846102,1.65021212 C1.75774502,1.59527259 1.80169471,1.5501477 1.85663424,1.54941403 C1.91157376,1.54869802 1.95669865,1.59264771 1.95742349,1.64758724 C1.96020938,1.85874435 2.04882113,1.9473561 2.25588857,1.9473561 C2.46295601,1.9473561 2.55156776,1.85874435 2.55435365,1.64758724 C2.55507849,1.59264771 2.60020338,1.54869802 2.6551429,1.54941403 Z" id="路径-93备份" fill="#DBDEE3" fill-rule="nonzero"></path>
                            <ellipse id="椭圆形备份-3" fill="#DBDEE3" cx="2.16425121" cy="1.45256917" rx="1" ry="1"></ellipse>
                            <ellipse id="椭圆形备份-4" fill="#DBDEE3" cx="1.39130435" cy="1.45256917" rx="1" ry="1"></ellipse>
                            <rect id="矩形" fill="#F1F4F8" x="1.23671498" y="1.62687747" width="1" height="1" rx="0.0994854736"></rect>
                            <rect id="矩形备份" fill="#F1F4F8" x="2.08695652" y="1.62687747" width="1" height="1" rx="0.0994854736"></rect>
                            <path d="M2.39130435,0.881225296 L2.29667638,1.88160013 C2.18228878,1.69670596 2.04238609,1.5879753 1.89130435,1.5879753 C1.73995708,1.5879753 1.5998282,1.69708848 1.48532945,1.88257567 L1.39130435,0.881225296 L2.39130435,0.881225296 Z" id="形状结合" fill="#DBDEE3"></path>
                            <ellipse id="椭圆形" fill="#DBDEE3" cx="2.00966184" cy="0.54229249" rx="1" ry="1"></ellipse>
                            <path d="M2.4134691,0.511935285 L2.57730704,0.579007471 L2.55778303,0.595440283 C2.50722134,0.637429074 2.40546552,0.719280196 2.40426191,0.720269438 C2.08905441,0.979336834 2.00316284,1.17459995 2.19055151,1.47028588 L2.00434085,1.51193528 C1.79424406,1.18041756 1.88814985,0.949345066 2.22049699,0.669738021 L2.39371827,0.528533349 C2.4019093,0.521743081 2.40871821,0.51603109 2.4134691,0.511935285 Z" id="路径-96" fill="#DBDEE3" fill-rule="nonzero"></path>
                        </g>
                        <ellipse id="椭圆形" fill="#ECF7F2" cx="80" cy="39.2" rx="1.77777778" ry="1.78181818"></ellipse>
                        <ellipse id="椭圆形备份-3" fill="#ECF7F2" cx="80" cy="46.3272727" rx="1.77777778" ry="1.78181818"></ellipse>
                        <ellipse id="椭圆形备份-4" fill="#E6F2FE" cx="80" cy="53.4545455" rx="1.77777778" ry="1.78181818"></ellipse>
                    </g>
                </g>
                <g id="元素/纸飞机/主色备份" transform="translate(62.2222, 0)">
                    <g id="路径-14">
                        <use fill="currentColor" xlink:href="#path-ydflv30gp1-1" className="quotation-no-data"></use>
                        <use fill-opacity="0.4" fill="#FFFFFF" xlink:href="#path-ydflv30gp1-1"></use>
                    </g>
                    <g id="路径-5">
                        <use fill="currentColor" xlink:href="#path-ydflv30gp1-2" className="quotation-no-data"></use>
                        <use fill-opacity="0.2" fill="#FFFFFF" xlink:href="#path-ydflv30gp1-2"></use>
                    </g>
                    <g id="路径-12">
                        <use  fill="currentColor" xlink:href="#path-ydflv30gp1-3" className="quotation-no-data"></use>
                        <use fill-opacity="0.2" fill="#000000" xlink:href="#path-ydflv30gp1-3"></use>
                    </g>
                    <g id="路径-13">
                        <use fill="currentColor" xlink:href="#path-ydflv30gp1-4" className="quotation-no-data"></use>
                        <use fill-opacity="0.2" fill="#FFFFFF" xlink:href="#path-ydflv30gp1-4"></use>
                    </g>
                </g>
                <path d="M84.2043626,33.3292723 C84.5981114,33.4479775 84.9882691,33.5501848 85.3740447,33.6354665 L85.278317,34.0704657 C84.8815253,33.9827486 84.4806071,33.8777224 84.0763437,33.7558474 L84.2043626,33.3292723 Z M80.9389277,32.0081306 C81.4739629,32.277786 82.0087771,32.5217997 82.5408699,32.738574 L82.3735115,33.1512403 C81.8302903,32.9299322 81.2847133,32.6810079 80.7392604,32.4061021 L80.9389277,32.0081306 Z M77.9001699,30.2010374 C78.3897499,30.5373743 78.8857757,30.8555744 79.3855732,31.153612 L79.1583242,31.5364339 C78.6502844,31.2334813 78.1462507,30.9101441 77.6488942,30.5684648 L77.9001699,30.2010374 Z M75.1173731,28.0303201 C75.557993,28.418527 76.0121131,28.7952445 76.4768212,29.1578571 L76.2037938,29.509349 C75.7321089,29.1412924 75.2711842,28.7589301 74.8239396,28.3648866 L75.1173731,28.0303201 Z M72.6244145,25.544478 C73.0062983,25.9781537 73.4107465,26.4076378 73.8345958,26.8295056 L73.521421,27.1455831 C73.0907119,26.7168876 72.6795748,26.2803006 72.2911901,25.8392423 L72.6244145,25.544478 Z M70.4961125,22.707518 C70.7920262,23.1861996 71.1251294,23.6713232 71.4920328,24.1582195 L71.137376,24.4266891 C70.762411,23.9290946 70.4215758,23.4327104 70.1183086,22.9421335 L70.4961125,22.707518 Z M69.0775787,19.5339708 C69.0937213,19.5989217 69.1109266,19.6643218 69.1291879,19.7301571 L69.1781662,19.8980091 L69.3766624,19.9438594 C69.6573835,20.0055313 69.9465731,20.0601785 70.2442314,20.1077918 L70.5447125,20.1530602 L70.4825744,20.5941396 C70.1708795,20.550029 69.8676046,20.4986306 69.5727499,20.4399355 L69.3430551,20.3920182 L69.3985928,20.5401654 C69.4518015,20.6783475 69.5091289,20.8180447 69.5705224,20.9591445 L69.6656556,21.171832 L69.2619435,21.3581236 C69.1254704,21.0610272 69.0056046,20.7688766 68.9028362,20.4825153 L68.8297218,20.2713 L68.7134467,20.2419509 L68.7617218,20.0579273 C68.7401808,19.9873308 68.7198776,19.9176288 68.7006659,19.8483282 L68.6463132,19.6416436 L69.0775787,19.5339708 Z M73.9841817,20.2567214 L74.0419138,20.6984018 C73.5166327,20.7673739 72.9115151,20.7878584 72.2261045,20.7578278 L72.2455147,20.3127983 C72.9064047,20.3417545 73.4860122,20.3221336 73.9841817,20.2567214 Z M76.5526456,18.2958891 C76.6898319,19.0201039 76.4503649,19.6557886 75.8276555,20.0948354 L75.5719399,19.7304981 C76.0483956,19.3945687 76.2213911,18.935338 76.1160012,18.378978 L76.5526456,18.2958891 Z M65.631869,18.3763978 C66.0874883,18.6999039 66.5909837,18.9837543 67.1425787,19.2278844 L66.9630437,19.6353771 C66.3847378,19.379425 65.8552987,19.0809486 65.37495,18.7398837 L65.631869,18.3763978 Z M69.0852132,15.9997265 L69.4493546,16.255123 C69.1367654,16.7028371 68.9574637,17.2299188 68.9094784,17.8300579 L68.4664542,17.7944739 C68.520565,17.117725 68.725736,16.5145972 69.0852132,15.9997265 Z M63.3805101,15.7926261 C63.6511686,16.3142639 63.974535,16.7905293 64.3507525,17.2217739 L64.0161715,17.5149904 C63.6164782,17.0568363 63.2731061,16.5511058 62.9861984,15.9981508 L63.3805101,15.7926261 Z M74.2058171,15.4240005 C74.7434073,15.7477925 75.2349084,16.1531147 75.6306895,16.5976372 L75.2990821,16.8942277 C74.933381,16.4834895 74.4765718,16.1067764 73.97689,15.8058167 L74.2058171,15.4240005 Z M70.6170023,14.8160844 C71.1965322,14.617299 71.8409497,14.5965937 72.5112454,14.7383133 L72.4195092,15.1741755 C71.8237905,15.0482236 71.2600305,15.0663374 70.7609118,15.2375409 L70.6170023,14.8160844 Z M62.4211876,12.4476284 C62.4886691,13.0548967 62.5970329,13.6265821 62.7461592,14.1627514 L62.3180382,14.2823678 C62.162354,13.7226201 62.0495393,13.1274541 61.9794744,12.4969363 L62.4211876,12.4476284 Z M62.0011945,8.8860286 L62.4432499,8.93215322 C62.3798062,9.54296125 62.3449844,10.1290895 62.3387438,10.6905175 L61.8943269,10.6855551 C61.9007239,10.1100613 61.93636,9.5102259 62.0011945,8.8860286 Z" id="路径-5" fill="currentColor" fill-rule="nonzero"  className="quotation-no-data"></path>
                <g id="编组-40" transform="translate(82.946, 13.1869)">
                    <g id="矩形">
                        <use fill="black" fill-opacity="1" filter="url(#filter-ydflv30gp1-6)" xlink:href="#path-ydflv30gp1-5"></use>
                        <use fill="#FFFFFF" fill-rule="evenodd" xlink:href="#path-ydflv30gp1-5"></use>
                    </g>
                    <g id="矩形">
                        <use fill="currentColor" xlink:href="#path-ydflv30gp1-7" className="quotation-no-data"></use>
                        <use fill-opacity="0.8" fill="#FFFFFF" xlink:href="#path-ydflv30gp1-7"></use>
                    </g>
                    <g id="编组" transform="translate(5.7204, 5.7334)" fill="#currentColor" fill-rule="nonzero" className="quotation-no-data">
                        <path d="M4.84613195,2.54617632 L5.17690986,2.7429407 C5.24204182,2.78170435 5.26317462,2.86547857 5.22410095,2.93007556 C5.2124614,2.94925279 5.19625408,2.9653202 5.17690986,2.97685927 L2.62184934,4.49663434 L0.0668190965,2.97685927 C0.00166237055,2.93809562 -0.0194676814,2.8543214 0.0196280052,2.78972442 C0.0312455439,2.77051991 0.0474528633,2.7544525 0.0668190965,2.7429407 L0.397594251,2.54617632 L2.62184934,3.86921427 L4.84613195,2.54617632 Z M4.84613195,3.82829557 L5.17690986,4.02505996 C5.24204182,4.06382361 5.26317462,4.14759783 5.22410095,4.21219481 C5.2124614,4.23137204 5.19625408,4.24743945 5.17690986,4.25897853 L2.76342262,5.69454291 C2.67627732,5.74637326 2.56742137,5.74637326 2.48027607,5.69454291 L0.0668190965,4.25897853 C0.00166237055,4.22021488 -0.0194676814,4.13644066 0.0196280052,4.07184367 C0.0312455439,4.05263916 0.0474528633,4.03657176 0.0668190965,4.02505996 L0.397594251,3.82829557 L2.62184934,5.15133353 L4.84613195,3.82829557 Z M2.76342262,0.0388748106 L5.17690986,1.47445556 C5.24204182,1.51321102 5.26317462,1.59699342 5.22410095,1.66158768 C5.2124614,1.68078674 5.19625408,1.69685415 5.17690986,1.7083714 L2.62184934,3.22815465 L0.0668190965,1.7083714 C0.00166237055,1.66961593 -0.0194676814,1.58583353 0.0196280052,1.52123927 C0.0312455439,1.50204022 0.0474528633,1.48597281 0.0668190965,1.47445556 L2.48027607,0.0388748106 C2.56742137,-0.0129582702 2.67627732,-0.0129582702 2.76342262,0.0388748106 Z" id="形状"></path>
                    </g>
                    <g id="矩形">
                        <use fill="currentColor" xlink:href="#path-ydflv30gp1-8" className="quotation-no-data"></use>
                        <use fill-opacity="0.8" fill="#FFFFFF" xlink:href="#path-ydflv30gp1-8"></use>
                    </g>
                    <path d="M17.7915227,11.3368739 L38.5286617,11.3368739 C39.0492437,11.3368739 39.4712589,11.7598482 39.4712589,12.2816134 C39.4712589,12.8033786 39.0492437,13.2263529 38.5286617,13.2263529 L17.7915227,13.2263529 C17.2709406,13.2263529 16.8489254,12.8033786 16.8489254,12.2816134 C16.8489254,11.7598482 17.2709406,11.3368739 17.7915227,11.3368739 Z" id="矩形备份-10" fill="#F1F4F8"></path>
                    <g id="路径-7" transform="translate(3.4169, 16.5329)" fill="#F1F4F8" fill-rule="nonzero">
                        <path d="M51.1358996,0 C51.2660451,0 51.3715489,0.223857625 51.3715489,0.5 C51.3715489,0.776142375 51.2660451,1 51.1358996,1 L0.235649307,1 C0.105503788,1 0,0.776142375 0,0.5 C0,0.223857625 0.105503788,0 0.235649307,0 L51.1358996,0 Z" id="路径-6"></path>
                    </g>
                    <path d="M4.59516148,20.7842689 L53.6102173,20.7842689 C54.1307994,20.7842689 54.5528145,21.2072431 54.5528145,21.7290084 L54.5528145,23.6184873 C54.5528145,24.1402526 54.1307994,24.5632268 53.6102173,24.5632268 L4.59516148,24.5632268 C4.07457941,24.5632268 3.65256426,24.1402526 3.65256426,23.6184873 L3.65256426,21.7290084 C3.65256426,21.2072431 4.07457941,20.7842689 4.59516148,20.7842689 Z" id="矩形" fill="#F1F4F8"></path>
                </g>
            </g>
        </g>
    </g>
</svg>
