<?xml version="1.0" encoding="UTF-8"?>
<svg width="1440px" height="784px" viewBox="0 0 1440 784" version="1.1" xmlns="http://www.w3.org/2000/svg" xmlns:xlink="http://www.w3.org/1999/xlink">
    <title>编组 4</title>
    <defs>
        <path d="M392,464 L920,464 C924.418278,464 928,467.581722 928,472 L928,536 C928,540.418278 924.418278,544 920,544 L392,544 C387.581722,544 384,540.418278 384,536 L384,472 C384,467.581722 387.581722,464 392,464 Z" id="path-1"></path>
        <path d="M408,480 L440,480 C444.418278,480 448,483.581722 448,488 L448,520 C448,524.418278 444.418278,528 440,528 L408,528 C403.581722,528 400,524.418278 400,520 L400,488 C400,483.581722 403.581722,480 408,480 Z" id="path-2"></path>
        <path d="M472,480 L552,480 C556.418278,480 560,483.581722 560,488 C560,492.418278 556.418278,496 552,496 L472,496 C467.581722,496 464,492.418278 464,488 C464,483.581722 467.581722,480 472,480 Z" id="path-3"></path>
        <path d="M808,480 L904,480 C908.418278,480 912,483.581722 912,488 L912,520 C912,524.418278 908.418278,528 904,528 L808,528 C803.581722,528 800,524.418278 800,520 L800,488 C800,483.581722 803.581722,480 808,480 Z" id="path-4"></path>
        <path d="M704,0 L1136,0 C1144.83656,0 1152,7.163444 1152,16 L1152,272 C1152,280.836556 1144.83656,288 1136,288 L704,288 C695.163444,288 688,280.836556 688,272 L688,16 C688,7.163444 695.163444,0 704,0 Z" id="path-5"></path>
        <filter x="-12.1%" y="-13.9%" width="124.1%" height="138.9%" filterUnits="objectBoundingBox" id="filter-6">
            <feOffset dx="0" dy="16" in="SourceAlpha" result="shadowOffsetOuter1"></feOffset>
            <feGaussianBlur stdDeviation="16" in="shadowOffsetOuter1" result="shadowBlurOuter1"></feGaussianBlur>
            <feColorMatrix values="0 0 0 0 0.11372549   0 0 0 0 0.129411765   0 0 0 0 0.160784314  0 0 0 0.08 0" type="matrix" in="shadowBlurOuter1" result="shadowMatrixOuter1"></feColorMatrix>
            <feOffset dx="0" dy="10" in="SourceAlpha" result="shadowOffsetOuter2"></feOffset>
            <feGaussianBlur stdDeviation="10" in="shadowOffsetOuter2" result="shadowBlurOuter2"></feGaussianBlur>
            <feColorMatrix values="0 0 0 0 0.11372549   0 0 0 0 0.129411765   0 0 0 0 0.160784314  0 0 0 0.12 0" type="matrix" in="shadowBlurOuter2" result="shadowMatrixOuter2"></feColorMatrix>
            <feMerge>
                <feMergeNode in="shadowMatrixOuter1"></feMergeNode>
                <feMergeNode in="shadowMatrixOuter2"></feMergeNode>
            </feMerge>
        </filter>
        <path d="M1016,208 L1112,208 C1116.41828,208 1120,211.581722 1120,216 L1120,248 C1120,252.418278 1116.41828,256 1112,256 L1016,256 C1011.58172,256 1008,252.418278 1008,248 L1008,216 C1008,211.581722 1011.58172,208 1016,208 Z" id="path-7"></path>
        <circle id="path-8" cx="96" cy="624" r="96"></circle>
        <filter x="-29.2%" y="-20.8%" width="158.3%" height="158.3%" filterUnits="objectBoundingBox" id="filter-9">
            <feOffset dx="0" dy="16" in="SourceAlpha" result="shadowOffsetOuter1"></feOffset>
            <feGaussianBlur stdDeviation="16" in="shadowOffsetOuter1" result="shadowBlurOuter1"></feGaussianBlur>
            <feColorMatrix values="0 0 0 0 0.11372549   0 0 0 0 0.129411765   0 0 0 0 0.160784314  0 0 0 0.08 0" type="matrix" in="shadowBlurOuter1" result="shadowMatrixOuter1"></feColorMatrix>
            <feOffset dx="0" dy="10" in="SourceAlpha" result="shadowOffsetOuter2"></feOffset>
            <feGaussianBlur stdDeviation="10" in="shadowOffsetOuter2" result="shadowBlurOuter2"></feGaussianBlur>
            <feColorMatrix values="0 0 0 0 0.11372549   0 0 0 0 0.129411765   0 0 0 0 0.160784314  0 0 0 0.12 0" type="matrix" in="shadowBlurOuter2" result="shadowMatrixOuter2"></feColorMatrix>
            <feMerge>
                <feMergeNode in="shadowMatrixOuter1"></feMergeNode>
                <feMergeNode in="shadowMatrixOuter2"></feMergeNode>
            </feMerge>
        </filter>
        <circle id="path-10" cx="96" cy="624" r="64"></circle>
        <circle id="path-11" cx="96" cy="624" r="48"></circle>
        <circle id="path-12" cx="96" cy="624" r="32"></circle>
        <circle id="path-13" cx="96" cy="624" r="16"></circle>
    </defs>
    <g id="页面-1" stroke="none" stroke-width="1" fill="none" fill-rule="evenodd">
        <g id="编组-4" transform="translate(0.000000, 16.000000)">
            <g id="编组" transform="translate(176.000000, 0.000000)">
                <path d="M112,80 L976,80 C984.836556,80 992,87.163444 992,96 L992,704 C992,712.836556 984.836556,720 976,720 L112,720 C103.163444,720 96,712.836556 96,704 L96,96 C96,87.163444 103.163444,80 112,80 Z" id="矩形" fill="#F1F4F8"></path>
                <path d="M112,80 L976,80 C984.836556,80 992,87.163444 992,96 L992,144 L96,144 L96,96 C96,87.163444 103.163444,80 112,80 Z" id="矩形" fill="#DBDEE3"></path>
                <circle id="椭圆形" fill="#FFFFFF" cx="144" cy="112" r="16"></circle>
                <circle id="椭圆形备份" fill="#FFFFFF" cx="208" cy="112" r="16"></circle>
                <circle id="椭圆形备份-2" fill="#FFFFFF" cx="272" cy="112" r="16"></circle>
                <g id="编组-2" transform="translate(128.000000, 176.000000)">
                    <path d="M16,0 L816,0 C824.836556,0 832,7.163444 832,16 L832,496 C832,504.836556 824.836556,512 816,512 L16,512 C7.163444,512 0,504.836556 0,496 L0,16 C0,7.163444 7.163444,0 16,0 Z" id="矩形" fill="#FFFFFF"></path>
                    <g id="编组-3">
                        <path d="M16,0 L224,0 L224,512 L16,512 C7.163444,512 0,504.836556 0,496 L0,16 C0,7.163444 7.163444,0 16,0 Z" id="矩形" fill="#E2E5E9"></path>
                        <path d="M40,32 L56,32 C60.418278,32 64,35.581722 64,40 L64,56 C64,60.418278 60.418278,64 56,64 L40,64 C35.581722,64 32,60.418278 32,56 L32,40 C32,35.581722 35.581722,32 40,32 Z" id="矩形" fill="#FFFFFF"></path>
                        <path d="M104,32 L184,32 C188.418278,32 192,35.581722 192,40 L192,56 C192,60.418278 188.418278,64 184,64 L104,64 C99.581722,64 96,60.418278 96,56 L96,40 C96,35.581722 99.581722,32 104,32 Z" id="矩形备份" fill="#FFFFFF"></path>
                        <path d="M40,96 L152,96 C156.418278,96 160,99.581722 160,104 L160,120 C160,124.418278 156.418278,128 152,128 L40,128 C35.581722,128 32,124.418278 32,120 L32,104 C32,99.581722 35.581722,96 40,96 Z" id="矩形备份-2" fill="#FFFFFF"></path>
                        <path d="M40,160 L184,160 C188.418278,160 192,163.581722 192,168 L192,184 C192,188.418278 188.418278,192 184,192 L40,192 C35.581722,192 32,188.418278 32,184 L32,168 C32,163.581722 35.581722,160 40,160 Z" id="矩形备份-3" fill="#FFFFFF"></path>
                        <path d="M40,224 L120,224 C124.418278,224 128,227.581722 128,232 L128,248 C128,252.418278 124.418278,256 120,256 L40,256 C35.581722,256 32,252.418278 32,248 L32,232 C32,227.581722 35.581722,224 40,224 Z" id="矩形备份-4" fill="#FFFFFF"></path>
                        <path d="M40,288 L184,288 C188.418278,288 192,291.581722 192,296 L192,312 C192,316.418278 188.418278,320 184,320 L40,320 C35.581722,320 32,316.418278 32,312 L32,296 C32,291.581722 35.581722,288 40,288 Z" id="矩形备份-5" fill="#FFFFFF"></path>
                    </g>
                </g>
                <path d="M392,208 L920,208 C924.418278,208 928,211.581722 928,216 L928,312 C928,316.418278 924.418278,320 920,320 L392,320 C387.581722,320 384,316.418278 384,312 L384,216 C384,211.581722 387.581722,208 392,208 Z" id="矩形" fill="#F1F4F8"></path>
                <path d="M408,224 L472,224 C476.418278,224 480,227.581722 480,232 L480,296 C480,300.418278 476.418278,304 472,304 L408,304 C403.581722,304 400,300.418278 400,296 L400,232 C400,227.581722 403.581722,224 408,224 Z" id="矩形" fill="#E9ECF0"></path>
                <path d="M520,224 L584,224 C588.418278,224 592,227.581722 592,232 L592,296 C592,300.418278 588.418278,304 584,304 L520,304 C515.581722,304 512,300.418278 512,296 L512,232 C512,227.581722 515.581722,224 520,224 Z" id="矩形备份-6" fill="#E9ECF0"></path>
                <path d="M632,224 L696,224 C700.418278,224 704,227.581722 704,232 L704,296 C704,300.418278 700.418278,304 696,304 L632,304 C627.581722,304 624,300.418278 624,296 L624,232 C624,227.581722 627.581722,224 632,224 Z" id="矩形备份-7" fill="#E9ECF0"></path>
                <path d="M744,224 L808,224 C812.418278,224 816,227.581722 816,232 L816,296 C816,300.418278 812.418278,304 808,304 L744,304 C739.581722,304 736,300.418278 736,296 L736,232 C736,227.581722 739.581722,224 744,224 Z" id="矩形备份-8" fill="#E9ECF0"></path>
                <path d="M856,224 L912,224 L912,304 L856,304 C851.581722,304 848,300.418278 848,296 L848,232 C848,227.581722 851.581722,224 856,224 Z" id="矩形备份-9" fill="#E9ECF0"></path>
                <path d="M496,222 C497.104569,222 498,222.895431 498,224 L498,304 C498,305.104569 497.104569,306 496,306 C494.895431,306 494,305.104569 494,304 L494,224 C494,222.895431 494.895431,222 496,222 Z" id="路径-46" fill="#E9ECF0" fill-rule="nonzero"></path>
                <path d="M608,222 C609.104569,222 610,222.895431 610,224 L610,304 C610,305.104569 609.104569,306 608,306 C606.895431,306 606,305.104569 606,304 L606,224 C606,222.895431 606.895431,222 608,222 Z" id="路径-46备份" fill="#E9ECF0" fill-rule="nonzero"></path>
                <line x1="720" y1="224" x2="720" y2="304" id="路径-46备份-2" stroke="#E9ECF0" stroke-width="4" stroke-linecap="round"></line>
                <path d="M832,222 C833.104569,222 834,222.895431 834,224 L834,304 C834,305.104569 833.104569,306 832,306 C830.895431,306 830,305.104569 830,304 L830,224 C830,222.895431 830.895431,222 832,222 Z" id="路径-46备份-3" fill="#E9ECF0" fill-rule="nonzero"></path>
                <path d="M392,352 L920,352 C924.418278,352 928,355.581722 928,360 L928,424 C928,428.418278 924.418278,432 920,432 L392,432 C387.581722,432 384,428.418278 384,424 L384,360 C384,355.581722 387.581722,352 392,352 Z" id="矩形" fill="#F1F4F8"></path>
                <g id="矩形备份-10">
                    <use fill="currentColor" xlink:href="#path-1"></use>
                    <use fill-opacity="0.8" fill="#FFFFFF" xlink:href="#path-1"></use>
                </g>
                <path d="M408,368 L440,368 C444.418278,368 448,371.581722 448,376 L448,408 C448,412.418278 444.418278,416 440,416 L408,416 C403.581722,416 400,412.418278 400,408 L400,376 C400,371.581722 403.581722,368 408,368 Z" id="矩形" fill="#E2E5E9"></path>
                <g id="矩形备份-11">
                    <use fill="currentColor" xlink:href="#path-2"></use>
                    <use fill-opacity="0.4" fill="#FFFFFF" xlink:href="#path-2"></use>
                </g>
                <path d="M472,368 L552,368 C556.418278,368 560,371.581722 560,376 C560,380.418278 556.418278,384 552,384 L472,384 C467.581722,384 464,380.418278 464,376 C464,371.581722 467.581722,368 472,368 Z" id="矩形" fill="#E2E5E9"></path>
                <g id="矩形备份-12">
                    <use fill="currentColor" xlink:href="#path-3"></use>
                    <use fill-opacity="0.4" fill="#FFFFFF" xlink:href="#path-3"></use>
                </g>
                <path d="M808,368 L904,368 C908.418278,368 912,371.581722 912,376 L912,408 C912,412.418278 908.418278,416 904,416 L808,416 C803.581722,416 800,412.418278 800,408 L800,376 C800,371.581722 803.581722,368 808,368 Z" id="矩形" fill="#E9ECF0"></path>
                <g id="矩形备份-13">
                    <use fill="currentColor" xlink:href="#path-4"></use>
                    <use fill-opacity="0.4" fill="#FFFFFF" xlink:href="#path-4"></use>
                </g>
                <path d="M840,384 L872,384 C876.418278,384 880,387.581722 880,392 C880,396.418278 876.418278,400 872,400 L840,400 C835.581722,400 832,396.418278 832,392 C832,387.581722 835.581722,384 840,384 Z" id="矩形" fill="#FFFFFF"></path>
                <path d="M840,496 L872,496 C876.418278,496 880,499.581722 880,504 C880,508.418278 876.418278,512 872,512 L840,512 C835.581722,512 832,508.418278 832,504 C832,499.581722 835.581722,496 840,496 Z" id="矩形备份-14" fill="#FFFFFF"></path>
                <path d="M392,576 L920,576 C924.418278,576 928,579.581722 928,584 L928,648 C928,652.418278 924.418278,656 920,656 L392,656 C387.581722,656 384,652.418278 384,648 L384,584 C384,579.581722 387.581722,576 392,576 Z" id="矩形备份-19" fill="#F1F4F8"></path>
                <path d="M408,592 L440,592 C444.418278,592 448,595.581722 448,600 L448,632 C448,636.418278 444.418278,640 440,640 L408,640 C403.581722,640 400,636.418278 400,632 L400,600 C400,595.581722 403.581722,592 408,592 Z" id="矩形备份-18" fill="#E2E5E9"></path>
                <path d="M472,592 L552,592 C556.418278,592 560,595.581722 560,600 C560,604.418278 556.418278,608 552,608 L472,608 C467.581722,608 464,604.418278 464,600 C464,595.581722 467.581722,592 472,592 Z" id="矩形备份-17" fill="#E2E5E9"></path>
                <path d="M808,592 L904,592 C908.418278,592 912,595.581722 912,600 L912,632 C912,636.418278 908.418278,640 904,640 L808,640 C803.581722,640 800,636.418278 800,632 L800,600 C800,595.581722 803.581722,592 808,592 Z" id="矩形备份-16" fill="#E9ECF0"></path>
                <path d="M840,608 L872,608 C876.418278,608 880,611.581722 880,616 C880,620.418278 876.418278,624 872,624 L840,624 C835.581722,624 832,620.418278 832,616 C832,611.581722 835.581722,608 840,608 Z" id="矩形备份-15" fill="#FFFFFF"></path>
                <g id="矩形">
                    <use fill="black" fill-opacity="1" filter="url(#filter-6)" xlink:href="#path-5"></use>
                    <use fill="#FFFFFF" fill-rule="evenodd" xlink:href="#path-5"></use>
                </g>
                <g id="矩形">
                    <use fill="currentColor" xlink:href="#path-7"></use>
                    <use fill-opacity="0.8" fill="#FFFFFF" xlink:href="#path-7"></use>
                </g>
                <path d="M728,32 L824,32 C828.418278,32 832,35.581722 832,40 L832,56 C832,60.418278 828.418278,64 824,64 L728,64 C723.581722,64 720,60.418278 720,56 L720,40 C720,35.581722 723.581722,32 728,32 Z" id="矩形备份-20" fill="#E2E5E9"></path>
                <path d="M872,208 L968,208 C972.418278,208 976,211.581722 976,216 L976,248 C976,252.418278 972.418278,256 968,256 L872,256 C867.581722,256 864,252.418278 864,248 L864,216 C864,211.581722 867.581722,208 872,208 Z" id="矩形备份-21" fill="#E9ECF0"></path>
                <path d="M1120,94 C1121.10457,94 1122,94.8954305 1122,96 C1122,97.1045695 1121.10457,98 1120,98 L720,98 C718.895431,98 718,97.1045695 718,96 C718,94.8954305 718.895431,94 720,94 L1120,94 Z" id="路径-48" fill="#F1F4F8" fill-rule="nonzero"></path>
                <path d="M728,128 L1112,128 C1116.41828,128 1120,131.581722 1120,136 L1120,168 C1120,172.418278 1116.41828,176 1112,176 L728,176 C723.581722,176 720,172.418278 720,168 L720,136 C720,131.581722 723.581722,128 728,128 Z" id="矩形" fill="#E9ECF0"></path>
                <path d="M1048,224 L1080,224 C1084.41828,224 1088,227.581722 1088,232 C1088,236.418278 1084.41828,240 1080,240 L1048,240 C1043.58172,240 1040,236.418278 1040,232 C1040,227.581722 1043.58172,224 1048,224 Z" id="矩形" fill="#FFFFFF"></path>
                <path d="M904,224 L936,224 C940.418278,224 944,227.581722 944,232 C944,236.418278 940.418278,240 936,240 L904,240 C899.581722,240 896,236.418278 896,232 C896,227.581722 899.581722,224 904,224 Z" id="矩形备份-22" fill="#FFFFFF"></path>
                <g id="椭圆形">
                    <use fill="black" fill-opacity="1" filter="url(#filter-9)" xlink:href="#path-8"></use>
                    <use fill="#FFFFFF" fill-rule="evenodd" xlink:href="#path-8"></use>
                </g>
                <g id="椭圆形">
                    <use fill="currentColor" xlink:href="#path-10"></use>
                    <use fill-opacity="0.8" fill="#FFFFFF" xlink:href="#path-10"></use>
                </g>
                <g id="椭圆形">
                    <use fill="currentColor" xlink:href="#path-11"></use>
                    <use fill-opacity="0.4" fill="#FFFFFF" xlink:href="#path-11"></use>
                </g>
                <g id="椭圆形">
                    <use fill="currentColor" xlink:href="#path-12"></use>
                    <use fill-opacity="0.8" fill="#FFFFFF" xlink:href="#path-12"></use>
                </g>
                <g id="椭圆形">
                    <use fill="currentColor" xlink:href="#path-13"></use>
                    <use fill-opacity="0.4" fill="#FFFFFF" xlink:href="#path-13"></use>
                </g>
                <path d="M37.1518528,566.217663 C38.6996104,564.641356 41.2321646,564.618213 42.8084709,566.165971 L98.802463,621.145845 C100.378769,622.693602 100.401913,625.226157 98.8541551,626.802463 C97.3063975,628.378769 94.7738434,628.401913 93.197537,626.854155 L37.203545,571.874281 C35.6272386,570.326523 35.6040953,567.793969 37.1518528,566.217663 Z" id="路径-49" fill="currentColor" fill-rule="nonzero"></path>
                <polygon id="路径-50" fill="currentColor" points="48 560 48 576 64 592 64 560"></polygon>
                <polygon id="路径-50" fill="currentColor" transform="translate(48.000000, 584.000000) scale(-1, 1) rotate(90.000000) translate(-48.000000, -584.000000) " points="40 568 40 584 56 600 56 568"></polygon>
            </g>
        </g>
    </g>
</svg>