<?xml version="1.0" encoding="UTF-8"?>
<svg width="9.25714286px" height="10.2857143px" viewBox="0 0 9.25714286 10.2857143" version="1.1" xmlns="http://www.w3.org/2000/svg" xmlns:xlink="http://www.w3.org/1999/xlink">
    <title>编组 28</title>
    <g id="核价聚合表优化" stroke="none" stroke-width="1" fill="none" fill-rule="evenodd">
        <g id="核价" transform="translate(-39.2, -533.8571)">
            <g id="编组-28" transform="translate(38, 533)">
                <rect id="矩形" x="0" y="0" width="12" height="12"></rect>
                <g id="编组" transform="translate(1.2, 0.8571)" fill="currentColor" fill-rule="nonzero">
                    <path d="M1.54285714,1.02857143 L1.54285714,3.08571429 L7.71428571,3.08571429 L7.71428571,1.02857143 L8.74625143,1.02857143 C9.02838857,1.02857143 9.25714286,1.25740286 9.25714286,1.53946286 L9.25714286,9.77482286 C9.25714286,10.05696 9.02833714,10.2857143 8.74625143,10.2857143 L0.510891429,10.2857143 C0.228733714,10.2857143 0,10.0569086 0,9.77482286 L0,1.53946286 C0,1.25730514 0.228831429,1.02857143 0.510891429,1.02857143 L1.54285714,1.02857143 Z M3.08571429,7.71428571 L2.05714286,7.71428571 L2.05714286,8.74285714 L3.08571429,8.74285714 L3.08571429,7.71428571 Z M3.08571429,6.17142857 L2.05714286,6.17142857 L2.05714286,7.2 L3.08571429,7.2 L3.08571429,6.17142857 Z M3.08571429,4.62857143 L2.05714286,4.62857143 L2.05714286,5.65714286 L3.08571429,5.65714286 L3.08571429,4.62857143 Z M6.68571429,0 L6.68571429,2.05714286 L2.57142857,2.05714286 L2.57142857,0 L6.68571429,0 Z" id="形状"></path>
                </g>
            </g>
        </g>
    </g>
</svg>