<?xml version="1.0" encoding="UTF-8"?>
<svg width="22px" height="22px" viewBox="0 0 22 22" version="1.1" xmlns="http://www.w3.org/2000/svg" xmlns:xlink="http://www.w3.org/1999/xlink">
    <title>复制备份 2</title>
    <g id="Page-1" stroke="none" stroke-width="1" fill="none" fill-rule="evenodd">
        <path d="M10.9538462,1.2 L11.271887,1.20179292 C16.128374,1.25668427 20.0381495,2.56776248 20.2023244,4.55411898 L20.2076923,4.68461538 L20.236136,4.68461538 L20.2369859,10.1542936 C19.8810864,9.76811208 19.4778723,9.42620366 19.0365425,9.13776723 L19.0375955,6.46100513 C17.4549893,7.53069164 14.4273265,8.16923077 10.9538462,8.16923077 C7.50104712,8.16923077 4.48877264,7.53827281 2.89851907,6.48006617 L2.9,10.6461538 C2.9,11.6016045 5.70431751,12.6490509 9.41945814,12.8828091 C9.32103685,13.2675297 9.25815766,13.6666764 9.23412395,14.076262 C6.51727111,13.9037185 4.21822889,13.3197826 2.89851907,12.4416046 L2.9,16.6076923 C2.9,17.6908807 6.50428102,18.8923077 10.9538462,18.8923077 L11.0331359,18.8920374 C11.4810903,19.3498111 11.9977785,19.7400539 12.5665068,20.0460721 C12.0429139,20.0762907 11.5039714,20.0923077 10.9538462,20.0923077 C5.95107863,20.0923077 1.87311185,18.7677269 1.70536791,16.7381887 L1.7,16.6076923 L1.7,4.68461538 L1.70536791,4.55411898 C1.86954283,2.56776248 5.77931826,1.25668427 10.6358053,1.20179292 L10.9538462,1.2 Z M13.0672842,10.919022 L15.582,13.549 L18.0163706,10.9308366 C18.2169368,10.7151278 18.5391843,10.6802486 18.7787553,10.8336328 L18.8643292,10.9 C19.107002,11.125647 19.1208041,11.5052952 18.8951571,11.7479679 L17.0702313,13.7096689 L18.8822313,13.7097442 C19.2136021,13.7097442 19.4822313,13.9783734 19.4822313,14.3097442 C19.4822313,14.6411151 19.2136021,14.9097442 18.8822313,14.9097442 L16.1512313,14.9096689 L16.1512313,16.4206689 L18.8822313,16.4210216 C19.2136021,16.4210216 19.4822313,16.6896508 19.4822313,17.0210216 C19.4822313,17.3523925 19.2136021,17.6210216 18.8822313,17.6210216 L16.1512313,17.6206689 L16.1515542,19.2448389 C16.1515542,19.5762098 15.882925,19.8448389 15.5515542,19.8448389 C15.2201833,19.8448389 14.9515542,19.5762098 14.9515542,19.2448389 L14.9512313,17.6206689 L12.0822313,17.6210216 C11.7508604,17.6210216 11.4822313,17.3523925 11.4822313,17.0210216 C11.4822313,16.6896508 11.7508604,16.4210216 12.0822313,16.4210216 L14.9512313,16.4206689 L14.9512313,14.9096689 L12.0822313,14.9097442 C11.7508604,14.9097442 11.4822313,14.6411151 11.4822313,14.3097442 C11.4822313,13.9783734 11.7508604,13.7097442 12.0822313,13.7097442 L14.0752313,13.7096689 L12.1999159,11.7483145 C11.9709173,11.5088019 11.9794407,11.1289985 12.2189534,10.9 C12.4584687,10.670999 12.8382742,10.6795153 13.0672842,10.919022 Z M10.9538462,2.4 L10.6518089,2.40184622 C6.34231178,2.45454924 2.9,3.62604493 2.9,4.68461538 C2.9,5.76780376 6.50428102,6.96923077 10.9538462,6.96923077 C15.4034113,6.96923077 19.0076923,5.76780376 19.0076923,4.68461538 C19.0076923,3.60142701 15.4034113,2.4 10.9538462,2.4 Z" id="形状结合" fill="#29BECE" fill-rule="nonzero"></path>
    </g>
</svg>