<?xml version="1.0" encoding="UTF-8"?>
<svg width="200px" height="200px" viewBox="0 0 200 200" version="1.1" xmlns="http://www.w3.org/2000/svg" xmlns:xlink="http://www.w3.org/1999/xlink">
    <!-- Generator: Sketch 52.2 (67145) - http://www.bohemiancoding.com/sketch -->
    <title>问题</title>
    <desc>Created with Sketch.</desc>
    <g id="Page-1" stroke="none" stroke-width="1" fill="none" fill-rule="evenodd">
        <g id="问题" fill="#0687FF" fill-rule="nonzero">
            <path d="M75.4,59.2181818 C74.6181818,60.0636363 74.1090908,60.6090908 73.7272727,61.0181818 C74.4363637,60.2545455 75.4,59.2181818 75.4,59.2181818 Z M110.118182,65.6454545 C112.718182,68.8454545 114.009091,72.6181818 114.009091,76.9636363 C114.009091,80.0727271 113.118182,83.0636363 111.345455,85.9545455 C110.372727,87.5909092 109.090909,89.1727273 107.490909,90.6818182 L102.163637,95.9454545 C97.0545457,100.963636 93.7545457,105.409091 92.2454547,109.3 C90.7363639,113.181818 89.9818184,118.3 89.9818184,124.645454 L101.836364,124.645454 C101.836364,119.054545 102.472728,114.827273 103.736364,111.963636 C105,109.1 107.763637,105.609091 112.027273,101.472727 C117.890909,95.790909 121.781819,91.481818 123.709091,88.5545453 C125.636364,85.6272727 126.609091,81.8090908 126.609091,77.0999998 C126.609091,69.3363635 123.981819,62.9545453 118.718182,57.9545453 C113.454546,52.9545453 106.454546,50.4636361 97.7090912,50.4636361 C88.2545457,50.4636361 80.818182,53.381818 75.4000004,59.2181816 C69.9818182,65.0545455 67.2727273,72.7636363 67.2727273,82.3545455 L79.1272729,82.3545455 C79.3454547,76.5818182 80.2636365,72.1636363 81.8545455,69.1 C84.6909092,63.6 89.8181818,60.8454545 97.2363637,60.8454545 C103.227273,60.8454545 107.527273,62.4454545 110.118182,65.6454545 Z M200,100 C200,44.7727273 155.227273,0 100,0 C44.7727273,0 0,44.7727273 0,100 C0,155.227273 44.7727273,200 100,200 C155.227273,200 200,155.227273 200,100 Z M9.09090918,100 C9.09090918,49.7909092 49.7909092,9.09090918 100,9.09090918 C150.209091,9.09090918 190.909091,49.7909092 190.909091,100 C190.909091,150.209091 150.209091,190.909091 100,190.909091 C49.7909092,190.909091 9.09090918,150.209091 9.09090918,100 Z M89.7090908,135.690909 L102.963636,135.690909 L102.963636,149.536364 L89.7090908,149.536364 L89.7090908,135.690909 Z" id="形状"></path>
        </g>
    </g>
</svg>