<?xml version="1.0" standalone="no"?><!DOCTYPE svg PUBLIC "-//W3C//DTD SVG 1.1//EN" "http://www.w3.org/Graphics/SVG/1.1/DTD/svg11.dtd"><svg class="icon" width="200px" height="200.00px" viewBox="0 0 1024 1024" version="1.1" xmlns="http://www.w3.org/2000/svg"><path fill="#5867dd" d="M512.03072 0C229.6832 0 0 229.6832 0 512.03072S229.6832 1024 512.03072 1024c282.3168 0 511.96928-229.65248 511.96928-511.96928S794.34752 0 512.03072 0z m0 969.62048c-252.34944 0-457.65632-205.27104-457.65632-457.58976S259.67616 54.3744 512.03072 54.3744c252.31872 0 457.58976 205.30176 457.58976 457.65632s-205.27104 457.58976-457.58976 457.58976z m216.63744-456.58624c0 119.63904-97.00352 216.63744-216.63744 216.63744s-216.63744-97.00352-216.63744-216.63744S392.3968 296.3968 512.03072 296.3968s216.63744 96.9984 216.63744 216.63744z"  /></svg>
