<?xml version="1.0" encoding="UTF-8"?>
<svg width="12.5092558px" height="17.8016446px" viewBox="0 0 12.5092558 17.8016446" version="1.1" xmlns="http://www.w3.org/2000/svg" xmlns:xlink="http://www.w3.org/1999/xlink">
    <title>3</title>
    <defs>
        <linearGradient x1="50%" y1="0%" x2="50%" y2="100%" id="linearGradient-1">
            <stop stop-color="#E7F1F9" offset="0%"></stop>
            <stop stop-color="#B5C2F0" offset="100%"></stop>
        </linearGradient>
        <linearGradient x1="50%" y1="0%" x2="50%" y2="100%" id="linearGradient-2">
            <stop stop-color="#E9F3FD" offset="0%"></stop>
            <stop stop-color="#E9F3FD" offset="100%"></stop>
        </linearGradient>
    </defs>
    <g id="核价审批&amp;预览-v715" stroke="none" stroke-width="1" fill="none" fill-rule="evenodd">
        <g id="3" transform="translate(-3.7454, -1.1971)">
            <rect id="矩形" x="0" y="0" width="20" height="20"></rect>
            <g id="编组-26" transform="translate(2.7778, 1.1111)">
                <path d="M3.33333333,10.5555556 L11.1111111,10.5555556 C11.417936,10.5555556 11.6666667,10.8042863 11.6666667,11.1111111 L11.6666667,17.331959 C11.6666667,17.6387839 11.417936,17.8875146 11.1111111,17.8875146 C11.0071466,17.8875146 10.9052681,17.8583422 10.8170604,17.8033147 L7.5162729,15.7441503 C7.33631258,15.6318838 7.10813186,15.6318838 6.92817154,15.7441503 L3.62738401,17.8033147 C3.36706146,17.9657144 3.02437736,17.8863323 2.86197766,17.6260097 C2.80695016,17.537802 2.77777778,17.4359235 2.77777778,17.331959 L2.77777778,11.1111111 C2.77777778,10.8042863 3.02650847,10.5555556 3.33333333,10.5555556 Z" id="矩形" fill="#96B0FC"></path>
                <path d="M4.44444444,12.2222222 L4.44377778,17.2932222 L3.62738401,17.8033147 C3.36706146,17.9657144 3.02437736,17.8863323 2.86197766,17.6260097 C2.80695016,17.537802 2.77777778,17.4359235 2.77777778,17.331959 L2.77777778,12.2222222 L4.44444444,12.2222222 Z" id="形状结合" fill="#6868F3" opacity="0.400000006"></path>
                <path d="M11.1111111,10.5555556 C11.417936,10.5555556 11.6666667,10.8042863 11.6666667,11.1111111 L11.6666667,17.331959 C11.6666667,17.6387839 11.417936,17.8875146 11.1111111,17.8875146 C11.0071466,17.8875146 10.9052681,17.8583422 10.8170604,17.8033147 L7.5162729,15.7441503 L7.45677778,15.7142577 L2.77777778,12.786369 L2.77777778,12.2249903 L9.23877778,10.5552577 L11.1111111,10.5555556 Z" id="形状结合" fill="#6868F3" opacity="0.300000012"></path>
                <path d="M11.6666667,11.1111111 L11.6666667,17.331959 C11.6666667,17.6387839 11.417936,17.8875146 11.1111111,17.8875146 C11.0071466,17.8875146 10.9052681,17.8583422 10.8170604,17.8033147 L9.44444444,16.9471111 L9.44444444,11.1111111 L11.6666667,11.1111111 Z" id="形状结合" fill="#6868F3" opacity="0.600000024"></path>
                <g id="编组-25">
                    <path d="M7.5,0.71593063 L13.1990724,4.00629159 C13.3709618,4.10553203 13.4768501,4.28893593 13.4768501,4.48741682 L13.4768501,11.0681387 C13.4768501,11.2666196 13.3709618,11.4500235 13.1990724,11.549264 L7.5,14.8396249 C7.32811051,14.9388654 7.11633393,14.9388654 6.94444444,14.8396249 L1.24537208,11.549264 C1.0734826,11.4500235 0.967594306,11.2666196 0.967594306,11.0681387 L0.967594306,4.48741682 C0.967594306,4.28893593 1.0734826,4.10553203 1.24537208,4.00629159 L6.94444444,0.71593063 C7.11633393,0.616690189 7.32811051,0.616690189 7.5,0.71593063 Z" id="多边形" fill="#9AAECB"></path>
                    <path d="M7.5,0.160375075 L13.1990724,3.45073604 C13.3709618,3.54997648 13.4768501,3.73338038 13.4768501,3.93186126 L13.4768501,10.5125832 C13.4768501,10.7110641 13.3709618,10.894468 13.1990724,10.9937084 L7.5,14.2840694 C7.32811051,14.3833098 7.11633393,14.3833098 6.94444444,14.2840694 L1.24537208,10.9937084 C1.0734826,10.894468 0.967594306,10.7110641 0.967594306,10.5125832 L0.967594306,3.93186126 C0.967594306,3.73338038 1.0734826,3.54997648 1.24537208,3.45073604 L6.94444444,0.160375075 C7.11633393,0.0611346331 7.32811051,0.0611346331 7.5,0.160375075 Z" id="多边形" fill="url(#linearGradient-1)"></path>
                    <path d="M7.5,1.27148619 L12.2368219,4.00629159 C12.4087114,4.10553203 12.5145997,4.28893593 12.5145997,4.48741682 L12.5145997,9.95702763 C12.5145997,10.1555085 12.4087114,10.3389124 12.2368219,10.4381529 L7.5,13.1729583 C7.32811051,13.2721987 7.11633393,13.2721987 6.94444444,13.1729583 L2.20762253,10.4381529 C2.03573305,10.3389124 1.92984475,10.1555085 1.92984475,9.95702763 L1.92984475,4.48741682 C1.92984475,4.28893593 2.03573305,4.10553203 2.20762253,4.00629159 L6.94444444,1.27148619 C7.11633393,1.17224574 7.32811051,1.17224574 7.5,1.27148619 Z" id="多边形" fill="url(#linearGradient-2)"></path>
                </g>
            </g>
        </g>
    </g>
</svg>