<?xml version="1.0" encoding="UTF-8"?>
<svg width="14px" height="14px" viewBox="0 0 14 14" version="1.1" xmlns="http://www.w3.org/2000/svg" xmlns:xlink="http://www.w3.org/1999/xlink">
    <title></title>
    <g id="804" stroke="none" stroke-width="1" fill="none" fill-rule="evenodd">
        <g id="编组-2" fill="#1D2129" transform="translate(1.500000, 1.000000)">
            <polygon id="路径" points="6.75 8.2484 8.7 8.2484 8.7 9.5484 6.75 9.5484 6.75 10.8484 5.45 10.8484 5.45 9.5484 3.5 9.5484 3.5 8.2484 5.45 8.2484 5.45 7.5984 3.5 7.5984 3.5 6.2984 5.1809 6.2984 3.8016 4.91975 4.722 4 6.1 5.3793 7.47865 4 8.3984 4.91975 7.0191 6.2984 8.7 6.2984 8.7 7.5984 6.75 7.5984"></polygon>
            <g id="编组备份" transform="translate(10.700000, 8.005333) rotate(20.000000) translate(-10.700000, -8.005333) translate(10.000000, 4.000000)">
                <path d="M0,1.5 L1.4,1.5 L1.4,6.750955 L0.787127147,7.85337918 C0.760291945,7.90164984 0.699406615,7.91902671 0.651135957,7.89219151 C0.634820337,7.88312113 0.621369304,7.86966498 0.612305141,7.85334591 L0,6.750955 L0,6.750955 L0,1.5 Z" id="矩形"></path>
                <rect id="矩形" x="0" y="0" width="1.4" height="1"></rect>
            </g>
            <path d="M12,12.6 L12,13 C12,13.5522847 11.5522847,14 11,14 L1,14 C0.44771525,14 0,13.5522847 0,13 L0,1 C0,0.44771525 0.44771525,0 1,0 L11,0 C11.5522847,0 12,0.44771525 12,1 L12,2.6 L10.6,2.6 L10.6,1.4 L1.4,1.4 L1.4,12.6 L12,12.6 Z" id="形状结合" fill-rule="nonzero"></path>
        </g>
    </g>
</svg>