<?xml version="1.0" encoding="UTF-8"?>
<svg width="80px" height="56px" viewBox="0 0 80 56" version="1.1" xmlns="http://www.w3.org/2000/svg" xmlns:xlink="http://www.w3.org/1999/xlink">
    <title>编组 18备份 15</title>
    <defs>
        <rect id="path-1" x="0" y="0" width="80" height="56"></rect>
    </defs>
    <g id="1216" stroke="none" stroke-width="1" fill="none" fill-rule="evenodd" opacity="0.200000003">
        <g id="1-1、按物料选用-默认自动选用物料最低价" transform="translate(-778.000000, -451.000000)">
            <g id="编组-18备份-15" transform="translate(778.000000, 451.000000)">
                <mask id="mask-2" fill="white">
                    <use xlink:href="#path-1"></use>
                </mask>
                <g id="蒙版"></g>
                <g id="编组-18备份" mask="url(#mask-2)" fill="#F56349">
                    <g transform="translate(0.000000, 0.568182)">
                        <path d="M40,0 C17.90861,0 0,17.90861 0,40 C0,62.09139 17.90861,80 40,80 C62.09139,80 80,62.09139 80,40 C80,17.90861 62.09139,0 40,0 Z M40,3.63636364 C60.0830818,3.63636364 76.3636364,19.9169182 76.3636364,40 C76.3636364,60.0830818 60.0830818,76.3636364 40,76.3636364 C19.9169182,76.3636364 3.63636364,60.0830818 3.63636364,40 C3.63636364,19.9169182 19.9169182,3.63636364 40,3.63636364 Z" id="椭圆形备份" fill-rule="nonzero"></path>
                        <path d="M40,11.8181818 C23.9335346,11.8181818 10.9090909,24.8426255 10.9090909,40.9090909 C10.9090909,56.9755564 23.9335346,70 40,70 C56.0664654,70 69.0909091,56.9755564 69.0909091,40.9090909 C69.0909091,24.8426255 56.0664654,11.8181818 40,11.8181818 Z M40,15.4545455 C54.0581573,15.4545455 65.4545455,26.8509336 65.4545455,40.9090909 C65.4545455,54.9672482 54.0581573,66.3636364 40,66.3636364 C25.9418427,66.3636364 14.5454545,54.9672482 14.5454545,40.9090909 C14.5454545,26.8509336 25.9418427,15.4545455 40,15.4545455 Z" id="椭圆形备份-2" fill-rule="nonzero"></path>
                        <path d="M39.7673294,47.3950494 L33.4158329,50.7342288 C33.1714106,50.8627292 32.869097,50.7687559 32.7405966,50.5243336 C32.6894271,50.4270034 32.6717697,50.3155194 32.6903581,50.2071405 L33.903386,43.1346452 C33.931205,42.9724481 33.8774308,42.806948 33.7595877,42.6920795 L28.6211191,37.6833104 C28.4233773,37.4905598 28.4193311,37.1740032 28.6120817,36.9762614 C28.688836,36.8975196 28.7894072,36.846276 28.8982258,36.8304637 L35.9994148,35.7986006 C36.1622699,35.7749363 36.3030527,35.6726517 36.3758837,35.5250799 L39.551632,29.0903111 C39.6738431,28.8426842 39.973656,28.7410147 40.2212829,28.8632259 C40.3198892,28.911891 40.3997029,28.9917048 40.448368,29.0903111 L43.6241163,35.5250799 C43.6969473,35.6726517 43.8377301,35.7749363 44.0005852,35.7986006 L51.1017742,36.8304637 C51.3750467,36.8701725 51.5643874,37.123894 51.5246786,37.3971664 C51.5088663,37.5059849 51.4576228,37.6065561 51.3788809,37.6833104 L46.2404123,42.6920795 C46.1225692,42.806948 46.068795,42.9724481 46.096614,43.1346452 L47.3096419,50.2071405 C47.3563224,50.4793088 47.1735285,50.7377867 46.9013602,50.7844672 C46.7929814,50.8030557 46.6814974,50.7853983 46.5841671,50.7342288 L40.2326706,47.3950494 C40.0870086,47.3184704 39.9129914,47.3184704 39.7673294,47.3950494 Z" id="星形" fill-rule="evenodd"></path>
                    </g>
                </g>
            </g>
        </g>
    </g>
</svg>