<?xml version="1.0" encoding="UTF-8"?>
<svg width="8.88189851px" height="12px" viewBox="0 0 8.88189851 12" version="1.1" xmlns="http://www.w3.org/2000/svg" xmlns:xlink="http://www.w3.org/1999/xlink">
    <title>评分优先</title>
    <g id="核价聚合表优化" stroke="none" stroke-width="1" fill="none" fill-rule="evenodd">
        <g id="核价" transform="translate(-93.7143, -514)">
            <g id="评分优先" transform="translate(92, 514)">
                <rect id="矩形" x="0" y="0" width="12" height="12"></rect>
                <g id="编组" transform="translate(1.7143, 0)" fill="currentColor" fill-rule="nonzero">
                    <path d="M7.21654254,7.90788731 L7.21654254,11.7223852 C7.21654254,11.8756534 7.09225147,12 6.93898321,12 C6.88868946,12 6.83933941,11.9862886 6.79620669,11.96042 L4.44094925,10.5472545 L2.08571957,11.96042 C1.95427303,12.0392469 1.78377943,11.9966138 1.70490817,11.8652172 C1.67902854,11.822029 1.66535597,11.7726789 1.66535597,11.7223852 L1.66535597,7.90788731 C0.650082805,7.09402785 0,5.84340103 0,4.44094925 C0,1.98827959 1.98827959,0 4.44094925,0 C6.89363001,0 8.88189851,1.98827959 8.88189851,4.44094925 C8.88189851,5.84340103 8.23179905,7.09402785 7.21654254,7.90788731 Z M4.44094925,7.77166119 C6.28044595,7.77166119 7.77166119,6.28044595 7.77166119,4.44094925 C7.77166119,2.60144701 6.28044595,1.11023731 4.44094925,1.11023731 C2.60144701,1.11023731 1.11023731,2.60144701 1.11023731,4.44094925 C1.11023731,6.28044595 2.60144701,7.77166119 4.44094925,7.77166119 Z M4.44094925,6.66142388 C3.21461442,6.66142388 2.22047463,5.66726188 2.22047463,4.44094925 C2.22047463,3.21461442 3.21461442,2.22047463 4.44094925,2.22047463 C5.66726188,2.22047463 6.66142388,3.21461442 6.66142388,4.44094925 C6.66142388,5.66726188 5.66726188,6.66142388 4.44094925,6.66142388 Z" id="形状"></path>
                </g>
            </g>
        </g>
    </g>
</svg>