<?xml version="1.0" encoding="UTF-8"?>
<svg width="37.3333333px" height="37.3333333px" viewBox="0 0 37.3333333 37.3333333" version="1.1" xmlns="http://www.w3.org/2000/svg" xmlns:xlink="http://www.w3.org/1999/xlink">
    <title>试竞价</title>
    <g id="0728" stroke="none" stroke-width="1" fill="none" fill-rule="evenodd">
        <g id="试竞价" transform="translate(2.6667, 2.6667)">
            <circle id="椭圆形" stroke="#FFFFFF" stroke-width="2.66666667" fill-opacity="0.1" fill="currentColor" cx="16" cy="16" r="17.3333333"></circle>
            <g id="编组-23" transform="translate(8, 8)">
                <rect id="矩形" x="0" y="0" width="16" height="16"></rect>
                <g id="编组" transform="translate(1.5, 1.5)" fill="currentColor" fill-rule="nonzero">
                    <path d="M2.78047333,10.6666667 C3.05502667,9.88986667 3.79585333,9.33333333 4.66666667,9.33333333 C5.53746667,9.33333333 6.27833333,9.88986667 6.55286667,10.6666667 L13.3333333,10.6666667 L13.3333333,12 L6.55286667,12 C6.27833333,12.7768 5.53746667,13.3333333 4.66666667,13.3333333 C3.79585333,13.3333333 3.05502667,12.7768 2.78047333,12 L0,12 L0,10.6666667 L2.78047333,10.6666667 Z M6.78046667,6 C7.055,5.22320667 7.79586667,4.66666667 8.66666667,4.66666667 C9.53746667,4.66666667 10.2783333,5.22320667 10.5528667,6 L13.3333333,6 L13.3333333,7.33333333 L10.5528667,7.33333333 C10.2783333,8.11013333 9.53746667,8.66666667 8.66666667,8.66666667 C7.79586667,8.66666667 7.055,8.11013333 6.78046667,7.33333333 L0,7.33333333 L0,6 L6.78046667,6 Z M2.78047333,1.33333333 C3.05502667,0.55654 3.79585333,0 4.66666667,0 C5.53746667,0 6.27833333,0.55654 6.55286667,1.33333333 L13.3333333,1.33333333 L13.3333333,2.66666667 L6.55286667,2.66666667 C6.27833333,3.44346 5.53746667,4 4.66666667,4 C3.79585333,4 3.05502667,3.44346 2.78047333,2.66666667 L0,2.66666667 L0,1.33333333 L2.78047333,1.33333333 Z" id="形状"></path>
                </g>
            </g>
        </g>
    </g>
</svg>
