<?xml version="1.0" encoding="UTF-8"?>
<svg width="37.3333333px" height="37.3333333px" viewBox="0 0 37.3333333 37.3333333" version="1.1" xmlns="http://www.w3.org/2000/svg" xmlns:xlink="http://www.w3.org/1999/xlink">
    <title>初审</title>
    <g id="0728" stroke="none" stroke-width="1" fill="none" fill-rule="evenodd">
        <g id="初审" transform="translate(2.6667, 2.6667)">
            <circle id="椭圆形" stroke="#FFFFFF" stroke-width="2.66666667" fill-opacity="0.1" fill="currentColor" cx="16" cy="16" r="17.3333333"></circle>
            <g id="编组-20备份" transform="translate(8, 8)">
                <rect id="矩形" x="0" y="0" width="16" height="16"></rect>
                <g id="编组" transform="translate(2, 1.3333)" fill="currentColor" fill-rule="nonzero">
                    <path d="M3.33333333,1.33333333 C3.33333333,2.06971333 2.73638,2.66666667 2,2.66666667 C1.26362,2.66666667 0.666666667,2.06971333 0.666666667,1.33333333 C0.666666667,0.596953333 1.26362,0 2,0 C2.73638,0 3.33333333,0.596953333 3.33333333,1.33333333 Z M1.33333333,9.33333333 L1.33333333,13.3333333 L0,13.3333333 L0,5.33333333 C0,4.22876667 0.895433333,3.33333333 2,3.33333333 C2.54706,3.33333333 3.04282,3.55297333 3.4039,3.90888667 L4.98686667,5.4038 L6.52873333,3.86192667 L7.47153333,4.80474 L5.0134,7.26286667 L4,6.3058 L4,13.3333333 L2.66666667,13.3333333 L2.66666667,9.33333333 L1.33333333,9.33333333 Z M4.66666667,2 L10.6666667,2 L10.6666667,8 L4.66666667,8 L4.66666667,9.33333333 L7.57693333,9.33333333 L9.45926667,13.3333333 L10.9328667,13.3333333 L9.05053333,9.33333333 L11.3333333,9.33333333 C11.7015333,9.33333333 12,9.03486667 12,8.66666667 L12,1.33333333 C12,0.965146667 11.7015333,0.666666667 11.3333333,0.666666667 L4.66666667,0.666666667 L4.66666667,2 Z" id="形状"></path>
                </g>
            </g>
        </g>
    </g>
</svg>
