<?xml version="1.0" encoding="UTF-8"?>
<svg width="37.3333333px" height="37.3333333px" viewBox="0 0 37.3333333 37.3333333" version="1.1" xmlns="http://www.w3.org/2000/svg" xmlns:xlink="http://www.w3.org/1999/xlink">
    <title>多轮报价</title>
    <g id="0728" stroke="none" stroke-width="1" fill="none" fill-rule="evenodd">
        <g id="多轮报价" transform="translate(2.6667, 2.6667)" fill="currentColor">
            <circle id="椭圆形" stroke="#FFFFFF" stroke-width="2.66666667" fill-opacity="0.1" cx="16" cy="16" r="17.3333333"></circle>
            <g id="发起多轮" transform="translate(9.3333, 8.6667)" fill-rule="nonzero">
                <polygon id="路径" points="7.07119707 8.64089806 9.11398733 8.64089806 9.11398733 10.0027582 7.07119707 10.0027582 7.07119707 11.3646184 5.70933689 11.3646184 5.70933689 10.0027582 3.66654663 10.0027582 3.66654663 8.64089806 5.70933689 8.64089806 5.70933689 7.95996797 3.66654663 7.95996797 3.66654663 6.5981078 5.42743184 6.5981078 3.98249819 5.15385508 4.94669519 4.190339 6.39026698 5.63527265 7.8345197 4.190339 8.79803577 5.15385508 7.35310213 6.5981078 9.11398733 6.5981078 9.11398733 7.95996797 7.07119707 7.95996797"></polygon>
                <g id="编组备份" transform="translate(11.3542, 8.4333) rotate(20) translate(-11.3542, -8.4333)translate(8.7006, 4.2428)">
                    <path d="M2.90526337,1.45956587 L4.28343409,1.961179 L2.40204271,7.13025932 L1.40373282,7.9959048 C1.3600209,8.03380788 1.29385886,8.02909889 1.25595578,7.98538698 C1.24314443,7.97061222 1.2347244,7.95254644 1.23164861,7.93323418 L1.02387199,6.6286462 L1.02387199,6.6286462 L2.90526337,1.45956587 Z" id="矩形" transform="translate(2.6537, 4.7405) rotate(-20) translate(-2.6537, -4.7405)"></path>
                    <rect id="矩形" x="1.76792959" y="-1.53789861e-13" width="1.46661865" height="1.04758475"></rect>
                </g>
                <path d="M12.571017,13.1995679 L12.571017,13.6186018 C12.571017,14.1971668 12.1019973,14.6661865 11.5234323,14.6661865 L1.04758475,14.6661865 C0.469019669,14.6661865 0,14.1971668 0,13.6186018 L0,1.04758475 C0,0.469019669 0.469019669,0 1.04758475,0 L11.5234323,0 C12.1019973,0 12.571017,0.469019669 12.571017,1.04758475 L12.571017,2.72372035 L11.1043984,2.72372035 L11.1043984,1.46661865 L1.46661865,1.46661865 L1.46661865,13.1995679 L12.571017,13.1995679 Z" id="形状结合"></path>
            </g>
        </g>
    </g>
</svg>
