<?xml version="1.0" encoding="UTF-8"?>
<svg width="37.3333333px" height="37.3333333px" viewBox="0 0 37.3333333 37.3333333" version="1.1" xmlns="http://www.w3.org/2000/svg" xmlns:xlink="http://www.w3.org/1999/xlink">
    <title>核价</title>
    <g id="0728" stroke="none" stroke-width="1" fill="none" fill-rule="evenodd">
        <g id="核价" transform="translate(2.6667, 2.6667)">
            <circle id="椭圆形" stroke="#FFFFFF" stroke-width="2.66666667" fill-opacity="0.1" fill="currentColor" cx="16" cy="16" r="17.3333333"></circle>
            <g id="编组-27" transform="translate(8, 8)">
                <rect id="矩形" x="0" y="0" width="16" height="16"></rect>
                <g id="编组" transform="translate(0.6667, 1.6667)" fill="currentColor" fill-rule="nonzero">
                    <path d="M7.99996867,0 L7.99996867,0.666666667 L12.6666353,0.666666667 L12.6666353,2 L7.99996867,2 L7.99996867,11.3333333 L10.6666353,11.3333333 L10.6666353,12.6666667 L4.000002,12.6666667 L4.000002,11.3333333 L6.66663533,11.3333333 L6.66663533,2 L2.000002,2 L2.000002,0.666666667 L6.66663533,0.666666667 L6.66663533,0 L7.99996867,0 Z M2.66666867,2.89543333 L4.552282,4.78104667 C5.03485533,5.26362 5.33333533,5.93026667 5.33333533,6.66666667 C5.33333533,8.1394 4.13942867,9.33333333 2.66666867,9.33333333 C1.19390867,9.33333333 0,8.1394 0,6.66666667 C0,5.93026667 0.298475333,5.26362 0.781048667,4.78104667 L2.66666867,2.89543333 Z M11.9999687,2.89543333 L13.8856353,4.78104667 C14.3681687,5.26362 14.6666353,5.93026667 14.6666353,6.66666667 C14.6666353,8.1394 13.4727687,9.33333333 11.9999687,9.33333333 C10.5272353,9.33333333 9.333302,8.1394 9.333302,6.66666667 C9.333302,5.93026667 9.63183533,5.26362 10.1143687,4.78104667 L11.9999687,2.89543333 Z M11.9999687,4.78104667 L11.0571687,5.72386667 C10.807902,5.97313333 10.6666353,6.30706667 10.6666353,6.66666667 L13.333302,6.66733333 C13.333302,6.30706667 13.192102,5.97313333 12.9428353,5.72386667 L11.9999687,4.78104667 Z M2.66666867,4.78104667 L1.72385533,5.72386667 C1.47455533,5.97313333 1.33333533,6.30706667 1.33333533,6.66666667 L4.000002,6.66733333 C4.000002,6.30706667 3.85877533,5.97313333 3.60947533,5.72386667 L2.66666867,4.78104667 Z" id="形状"></path>
                </g>
            </g>
        </g>
    </g>
</svg>
