<?xml version="1.0" encoding="UTF-8"?>
<svg width="37.3333333px" height="37.3333333px" viewBox="0 0 37.3333333 37.3333333" version="1.1" xmlns="http://www.w3.org/2000/svg" xmlns:xlink="http://www.w3.org/1999/xlink">
    <title>开标</title>
    <g id="0728" stroke="none" stroke-width="1" fill="none" fill-rule="evenodd">
        <g id="开标" transform="translate(2.6667, 2.6667)">
            <circle id="椭圆形" stroke="#FFFFFF" stroke-width="2.66666667" fill-opacity="0.1" fill="currentColor" cx="16" cy="16" r="17.3333333"></circle>
            <g id="编组-24" transform="translate(8, 8)">
                <rect id="矩形" x="0" y="0" width="16" height="16"></rect>
                <g id="编组" transform="translate(0.6667, 0.6667)" fill="currentColor" fill-rule="nonzero">
                    <path d="M8,0 L8.00066667,2.04134 C10.4128,2.34243333 12.3246,4.25442 12.6254,6.66666667 L14.6666667,6.66666667 L14.6666667,8 L12.6253333,8.00066667 C12.3242667,10.4126 10.4126,12.3242667 8.00066667,12.6253333 L8,14.6666667 L6.66666667,14.6666667 L6.66666667,12.6254 C4.25442,12.3246 2.34243333,10.4128 2.04134,8.00066667 L0,8 L0,6.66666667 L2.04126,6.66666667 C2.34208,4.25419333 4.25419333,2.34208 6.66666667,2.04126 L6.66666667,0 L8,0 Z M7.33333333,6 C6.59693333,6 6,6.59693333 6,7.33333333 C6,8.06973333 6.59693333,8.66666667 7.33333333,8.66666667 C8.06973333,8.66666667 8.66666667,8.06973333 8.66666667,7.33333333 C8.66666667,6.59693333 8.06973333,6 7.33333333,6 Z" id="形状"></path>
                </g>
            </g>
        </g>
    </g>
</svg>
