<?xml version="1.0" encoding="UTF-8"?>
<svg width="37.3333333px" height="37.3333333px" viewBox="0 0 37.3333333 37.3333333" version="1.1" xmlns="http://www.w3.org/2000/svg" xmlns:xlink="http://www.w3.org/1999/xlink">
    <title>延时竞价 2</title>
    <g id="0728" stroke="none" stroke-width="1" fill="none" fill-rule="evenodd">
        <g id="延时竞价" transform="translate(2.6667, 2.6667)">
            <circle id="椭圆形" stroke="#FFFFFF" stroke-width="2.66666667" fill="#E5E7EC" cx="16" cy="16" r="17.3333333"></circle>
            <g id="编组" transform="translate(9, 10)" fill="#FFFFFF" fill-rule="nonzero">
                <path d="M6.83534,12.8353533 C3.52166,12.8353533 0.835366667,10.1490867 0.835366667,6.83535333 C0.835366667,3.52166 3.52166,0.835366667 6.83534,0.835366667 C10.1490733,0.835366667 12.83534,3.52166 12.83534,6.83535333 C12.83534,10.1490867 10.1490733,12.8353533 6.83534,12.8353533 Z M7.50200667,6.83535333 L7.50200667,3.50203333 L6.16867333,3.50203333 L6.16867333,8.16868667 L9.50200667,8.16868667 L9.50200667,6.83535333 L7.50200667,6.83535333 Z M0,2.35702 L2.35702667,0 L3.29983333,0.942806667 L0.942813333,3.29983333 L0,2.35702 Z M11.31374,0 L13.67074,2.35702 L12.72794,3.29983333 L10.3708733,0.942806667 L11.31374,0 Z" id="形状"></path>
            </g>
        </g>
    </g>
</svg>
