<?xml version="1.0" encoding="UTF-8"?>
<svg width="37.3333333px" height="37.3333333px" viewBox="0 0 37.3333333 37.3333333" version="1.1" xmlns="http://www.w3.org/2000/svg" xmlns:xlink="http://www.w3.org/1999/xlink">
    <title>专家评分备份</title>
    <g id="0728" stroke="none" stroke-width="1" fill="none" fill-rule="evenodd">
        <g id="专家评分备份" transform="translate(2.6667, 2.6667)">
            <circle id="椭圆形" stroke="#FFFFFF" stroke-width="2.66666667" fill="#E5E7EC" cx="16" cy="16" r="17.3333333"></circle>
            <g id="Icon/record_test" transform="translate(8, 8)">
                <path d="M12.736,3.76933333 C12.8251255,3.67948114 12.9464426,3.62894117 13.073,3.62894117 C13.1995574,3.62894117 13.3208745,3.67948114 13.41,3.76933333 L14.5273333,4.886 C14.7133333,5.072 14.7133333,5.37266667 14.5273333,5.55933333 L13.654,6.43266667 L11.864,4.64266667 L11.8926667,4.61333333 L12.736,3.76933333 Z M6.074,10.4 L11.3233333,5.15133333 L11.3393333,5.16666667 L11.3526667,5.15333333 L13.1426667,6.94266667 L7.864,12.222 L6.07333333,12.222 L6.07333333,12.19 L6.074,10.4 Z M12.212,3.24533333 L11.368,4.08933333 L11.3526667,4.074 L5.33333333,10.094 L5.33333333,12.9313333 L8.17133333,12.9313333 L13.186,7.91666667 L13.186,13.1853333 C13.186,13.5784385 13.0297485,13.9554236 12.7516562,14.2332659 C12.4735639,14.5111081 12.0964383,14.6670205 11.7033333,14.6666679 L2.81466667,14.6666679 C2.42179264,14.6666679 2.04500971,14.5105981 1.76720581,14.2327942 C1.48940192,13.9549903 1.33333333,13.5782074 1.33333333,13.1853333 L1.33333333,2.81466667 C1.33333333,1.99666667 1.99666667,1.33333333 2.81466667,1.33333333 L11.7033333,1.33333333 C12.522,1.33333333 13.1853333,1.99666666 13.1853333,2.81466667 L13.1853333,2.89466667 C12.824711,2.85995151 12.467736,2.98880483 12.212,3.24533333 Z M5.778,8.074 L5.778,6.592 L2.81466667,6.592 L2.81466667,8.074 L5.778,8.074 Z M8.74066667,3.55533333 L2.81466667,3.55533333 L2.81466667,5.03666667 L8.74133333,5.03666667 L8.74066667,3.55533333 Z" id="icon" fill="#FFFFFF"></path>
                <rect id="record_test" x="0" y="0" width="16" height="16"></rect>
            </g>
        </g>
    </g>
</svg>
