<?xml version="1.0" encoding="UTF-8"?>
<svg width="37.3333333px" height="37.3333333px" viewBox="0 0 37.3333333 37.3333333" version="1.1" xmlns="http://www.w3.org/2000/svg" xmlns:xlink="http://www.w3.org/1999/xlink">
    <title>议价</title>
    <g id="0728" stroke="none" stroke-width="1" fill="none" fill-rule="evenodd">
        <g id="议价" transform="translate(2.6667, 2.6667)" fill="currentColor">
            <circle id="椭圆形" stroke="#FFFFFF" stroke-width="2.66666667" fill-opacity="0.1" cx="16" cy="16" r="17.3333333"></circle>
            <g transform="translate(9.3333, 9.3333)" fill-rule="nonzero" id="形状结合">
                <path d="M12,0 C12.7333333,0 13.3333333,0.600000017 13.3333333,1.33333334 L13.3333333,9.33333336 C13.3333333,10.0666667 12.7333333,10.6666667 12,10.6666667 L2.66666668,10.6666667 L0,13.3333333 L0.00666667189,1.33333334 C0.00666667189,0.600000001 0.600000017,0 1.33333334,0 Z M7.98576312,2.50000001 L6.77790435,3.70842826 L5.57061504,2.50000001 L4.76423691,3.30580867 L5.97266516,4.51366744 L4.50000001,4.51366744 L4.50000001,5.6526196 L6.20842827,5.6526196 L6.20842827,6.22209569 L4.50000001,6.22209569 L4.50000001,7.36104786 L6.20842827,7.36104786 L6.20842827,8.50000001 L7.34738043,8.50000001 L7.34738043,7.36104786 L9.05580868,7.36104786 L9.05580868,6.22209569 L7.34738043,6.22209569 L7.34738043,5.6526196 L9.05580868,5.6526196 L9.05580868,4.51366744 L7.58314353,4.51366744 L8.79157177,3.30580867 L7.98576312,2.50000001 Z"></path>
            </g>
        </g>
    </g>
</svg>
