<?xml version="1.0" encoding="UTF-8"?>
<svg width="14px" height="11px" viewBox="0 0 14 11" version="1.1" xmlns="http://www.w3.org/2000/svg" xmlns:xlink="http://www.w3.org/1999/xlink">
    <title>icon/save</title>
    <g id="核价审批-v401" stroke="none" stroke-width="1" fill="none" fill-rule="evenodd">
        <g id="icon/save" transform="translate(0.000000, -2.000000)">
            <path d="M7.875,7.29166666 L11.9583333,7.29166666 L11.9583333,8.16666666 L7.875,8.16666666 L7.875,7.29166666 Z M7.875,5.83333332 L11.9583333,5.83333332 L11.9583333,6.70833332 L7.875,6.70833332 L7.875,5.83333332 Z M7.875,8.75 L11.9583333,8.75 L11.9583333,9.625 L7.875,9.625 L7.875,8.75 Z M12.5416667,2.625 L2.04166666,2.625 C1.4,2.625 0.875,3.15 0.875,3.79166666 L0.875,11.375 C0.875,12.0166667 1.4,12.5416667 2.04166666,12.5416667 L12.5416667,12.5416667 C13.1833333,12.5416667 13.7083333,12.0166667 13.7083333,11.375 L13.7083333,3.79166666 C13.7083333,3.15 13.1833333,2.625 12.5416667,2.625 Z M12.5416667,11.375 L7.29166666,11.375 L7.29166666,3.79166666 L12.5416667,3.79166666 L12.5416667,11.375 Z" id="icon" fill="currentColor"></path>
            <rect id="chrome_reader_mode" x="0" y="0" width="14" height="14"></rect>
        </g>
    </g>
</svg>