<?xml version="1.0" encoding="UTF-8"?>
<svg width="44px" height="44px" viewBox="0 0 44 44" version="1.1" xmlns="http://www.w3.org/2000/svg" xmlns:xlink="http://www.w3.org/1999/xlink">
    <title>供应商</title>
    <g id="RFX维护&amp;核价（替换icon）" stroke="none" stroke-width="1" fill="none" fill-rule="evenodd">
        <g id="分组-16-copy">
            <rect id="矩形-copy-3" fill="#D8D8D8" opacity="0" x="0" y="0" width="44" height="44"></rect>
            <g id="分组-13" transform="translate(4.082222, 3.862222)" fill="#0687FF">
                <g id="分组-2">
                    <path d="M3.69739666,14.318066 C4.32612458,14.438264 4.9317375,14.0268171 5.04731249,13.3980892 C6.27240733,6.99061197 11.9032206,2.33525157 18.4447648,2.33525157 C22.0876883,2.33525157 25.5133309,3.75451239 28.0883416,6.32952306 C30.6633522,8.90453373 32.082613,12.3301763 32.082613,15.9730998 C32.082613,16.8653387 31.9947761,17.7575776 31.8237251,18.6267015 C31.6989041,19.2508064 32.105728,19.8610423 32.734456,19.9858633 C32.808424,19.9997323 32.8870149,20.0089783 32.9609829,20.0089783 C33.5018739,20.0089783 33.9872888,19.6252694 34.0936178,19.0751324 C34.2924068,18.0626956 34.3941128,17.0178977 34.3941128,15.9777228 C34.3941128,13.8234051 33.9734198,11.7384324 33.1412799,9.76903462 C32.336878,7.86898186 31.1903742,6.16309508 29.7248833,4.69760427 C28.2593925,3.23211345 26.5535058,2.0856096 24.653453,1.2812077 C22.6886782,0.449067806 20.5990825,0.0283748592 18.4447648,0.0283748592 C10.7983238,0.0283748592 4.21054959,5.46964517 2.77741978,12.9681502 C2.65722179,13.5922551 3.06866874,14.1978681 3.69739666,14.318066 Z" id="路径"></path>
                    <path d="M6.268917,18.6441742 C7.6894294,18.6441742 8.85759496,19.7347631 8.99156987,21.121748 L9.0026327,21.2895581 L20.236428,21.2895581 C20.8342929,21.2895581 21.3195166,21.7752679 21.3195166,22.3737318 C21.3195166,22.9322981 20.8968329,23.3926431 20.3543887,23.4515399 L20.236428,23.4579055 L9.00696506,23.4579055 L9.0060901,26.5880583 C7.72744548,27.6883962 6.91777778,29.318533 6.91777778,31.1377778 C6.91777778,32.6426056 7.47176297,34.0180432 8.38691543,35.0712728 C7.92052604,35.6434346 7.2270588,36.0221513 6.44556041,36.0720636 L6.268917,36.0776877 L2.73804806,36.0776877 C1.28205602,36.0776877 0.0912112171,34.9356081 0.00499773622,33.5033914 L4.17443857e-12,33.3368965 L4.17443857e-12,21.3849654 C4.17443857e-12,19.9275146 1.14093656,18.7354768 2.57171981,18.6491769 L2.73804806,18.6441742 L6.268917,18.6441742 Z M6.21689397,20.8233634 L2.74199492,20.8233634 C2.46187116,20.8233634 2.23009753,21.0302709 2.18654404,21.3020562 L2.17918919,21.3948593 L2.17918919,33.3270025 C2.17918919,33.6114517 2.38295045,33.8468041 2.65060295,33.8910301 L2.74199492,33.8984985 L6.21689397,33.8984985 C6.49701773,33.8984985 6.72879136,33.691591 6.77234485,33.4198057 L6.7796997,33.3270025 L6.7796997,21.3948593 C6.7796997,21.0788047 6.52814259,20.8233634 6.21689397,20.8233634 Z M35.5079777,24.5637627 C35.6465376,24.8443857 35.7419568,25.1382038 35.7926756,25.4371871 C35.20239,25.2425883 34.5723238,25.1377778 33.9177778,25.1377778 L33.9177778,25.1377778 L33.1996432,25.1372153 C33.0084329,25.0286282 32.7796353,24.9898113 32.555112,25.0394515 L32.445003,25.071156 L32.256,25.1371742 L25.767,25.1371742 L31.7214998,23.0285727 C33.1858357,22.5081693 34.814801,23.167347 35.5079777,24.5637627 Z" id="形状结合" fill-rule="nonzero"></path>
                    <path d="M15.2685118,7.20697779 L16.7700147,7.64442353 C16.5020286,8.51143746 16.2064601,9.34297016 15.8833004,10.1390466 L15.8833004,18.6633272 L14.4290888,18.6633272 L14.4290888,13.1420525 C14.1374569,13.6543789 13.8300656,14.1469931 13.5069059,14.6199098 C13.4044406,13.9893542 13.2468041,13.2799898 13.0339916,12.4917953 C13.9167694,11.112455 14.661602,9.35086676 15.2685118,7.20697779 Z M16.4035061,13.4258011 L18.0705291,13.4258011 L18.0705291,10.8957095 L16.7818376,10.8957095 L16.7818376,9.38238366 L18.0705291,9.38238366 L18.0705291,7.25426922 L19.6784378,7.25426922 L19.6784378,9.38238366 L21.5109808,9.38238366 L21.5109808,7.25426922 L23.1188895,7.25426922 L23.1188895,9.38238366 L24.4312267,9.38238366 L24.4312267,10.8957095 L23.1188895,10.8957095 L23.1188895,13.4258011 L24.7622667,13.4258011 L24.7622667,14.9391269 L16.4035061,14.9391269 L16.4035061,13.4258011 Z M19.6784378,13.4258011 L21.5109808,13.4258011 L21.5109808,10.8957095 L19.6784378,10.8957095 L19.6784378,13.4258011 Z M16.4271518,17.7411443 C17.2705199,16.929304 18.0311162,16.0465394 18.7089634,15.0928241 L20.0449464,15.9795384 C19.3670991,16.8859621 18.5631528,17.8199585 17.6330834,18.7815558 C17.3099236,18.4741599 16.9079505,18.1273596 16.4271518,17.7411443 Z M22.2676437,15.1401155 C23.087366,15.9519558 23.9070759,16.8150158 24.7267982,17.7293214 L23.3553466,18.7579101 C22.7090272,17.8593684 21.9405491,16.9411356 21.0498893,16.0031842 L22.2676437,15.1401155 Z" id="供"></path>
                </g>
            </g>
        </g>
        <path d="M17.608,37.584 C18.088,37.584 18.336,37.344 18.336,36.88 L18.336,33.344 L19.52,33.344 L19.52,32.776 L18.336,32.776 L18.336,31.48 L17.752,31.48 L17.752,32.776 L14.728,32.776 L14.728,33.344 L17.752,33.344 L17.752,36.744 C17.752,36.96 17.632,37.072 17.408,37.072 C17.072,37.072 16.712,37.056 16.344,37.032 L16.472,37.584 L17.608,37.584 Z M13.936,33.264 L14.352,32.84 C13.984,32.424 13.528,32 12.984,31.576 L12.584,31.952 C13.16,32.416 13.608,32.856 13.936,33.264 Z M16.312,35.936 L16.776,35.616 C16.504,35.168 16.112,34.648 15.6,34.056 L15.152,34.344 C15.64,34.928 16.024,35.456 16.312,35.936 Z M12.864,38.832 C13.312,38.08 13.64,37.712 13.832,37.712 C13.936,37.712 14.048,37.776 14.16,37.912 C14.416,38.2 14.712,38.4 15.048,38.496 C15.376,38.584 15.816,38.632 16.36,38.64 C16.896,38.648 17.392,38.656 17.848,38.656 L19.536,38.656 L19.68,38.072 C19.488,38.088 19.208,38.096 18.848,38.104 C18.48,38.104 18.128,38.112 17.776,38.112 C17.12,38.112 16.568,38.104 16.128,38.096 C15.632,38.08 15.248,38.024 14.992,37.92 C14.76,37.808 14.544,37.64 14.336,37.416 C14.264,37.336 14.192,37.28 14.128,37.232 L14.128,34.232 L12.424,34.232 L12.424,34.776 L13.576,34.776 L13.576,37.2 C13.24,37.344 12.864,37.76 12.432,38.448 L12.864,38.832 Z M22.184,38.768 L22.184,35.16 C22.408,35.456 22.688,35.856 23.008,36.352 L23.328,35.872 C22.944,35.416 22.56,35 22.184,34.632 L22.184,34.208 L23.216,34.208 L23.216,33.656 L22.184,33.656 L22.184,32.4 C22.584,32.32 22.968,32.232 23.328,32.128 L23.128,31.584 C22.36,31.824 21.472,31.992 20.472,32.088 L20.584,32.632 C20.944,32.592 21.296,32.544 21.632,32.496 L21.632,33.656 L20.464,33.656 L20.464,34.208 L21.576,34.208 C21.32,35.12 20.888,35.928 20.28,36.64 L20.528,37.28 C20.984,36.648 21.352,35.944 21.632,35.16 L21.632,38.768 L22.184,38.768 Z M27.088,34.072 L27.088,31.76 L23.768,31.76 L23.768,34.072 L27.088,34.072 Z M26.528,33.552 L24.336,33.552 L24.336,32.272 L26.528,32.272 L26.528,33.552 Z M27.624,38.512 L27.624,37.968 L25.688,37.968 L25.688,36.888 L27.184,36.888 L27.184,36.368 L25.688,36.368 L25.688,35.344 L27.432,35.344 L27.432,34.816 L23.456,34.816 L23.456,35.344 L25.096,35.344 L25.096,36.368 L23.64,36.368 L23.64,36.888 L25.096,36.888 L25.096,37.968 L23.136,37.968 L23.136,38.512 L27.624,38.512 Z M29.8,33.016 L30.192,32.624 C29.856,32.272 29.432,31.928 28.936,31.584 L28.536,31.968 C29.072,32.336 29.496,32.688 29.8,33.016 Z M30.376,35.984 C31.176,35.496 31.784,34.944 32.192,34.328 C32.272,34.184 32.352,34.04 32.432,33.88 L33.2,33.88 C33.64,34.712 34.392,35.392 35.456,35.912 L35.704,35.408 C34.84,35.04 34.2,34.528 33.784,33.88 L35.464,33.88 L35.464,33.328 L32.656,33.328 C32.768,33.016 32.856,32.68 32.936,32.32 L35.112,32.32 L35.112,31.784 L30.64,31.784 L30.64,32.32 L32.36,32.32 C32.296,32.672 32.208,33.008 32.08,33.328 L30.272,33.328 L30.272,33.88 L31.824,33.88 C31.792,33.928 31.76,33.976 31.728,34.032 C31.344,34.608 30.776,35.112 30.016,35.528 L30.376,35.984 Z M29.632,35.064 L30.024,34.672 C29.68,34.28 29.256,33.888 28.744,33.496 L28.352,33.88 C28.896,34.296 29.32,34.696 29.632,35.064 Z M32.176,38.808 C32.576,38.808 32.776,38.576 32.776,38.12 L32.776,35.056 L32.224,35.056 L32.224,37.984 C32.224,38.192 32.136,38.304 31.976,38.304 C31.768,38.304 31.544,38.288 31.312,38.264 L31.432,38.808 L32.176,38.808 Z M28.912,38.76 C29.296,37.864 29.656,36.912 29.976,35.904 L29.472,35.704 C29.16,36.664 28.792,37.608 28.376,38.52 L28.912,38.76 Z M35.112,38.32 L35.624,38.096 C35.352,37.288 35.024,36.528 34.648,35.816 L34.144,35.984 C34.496,36.656 34.816,37.44 35.112,38.32 Z M30.576,38.368 C30.968,37.768 31.312,37.056 31.608,36.24 L31.128,36.008 C30.84,36.792 30.496,37.464 30.104,38.032 L30.576,38.368 Z M33.952,38.592 L34.464,38.36 C34.216,37.56 33.928,36.808 33.592,36.104 L33.104,36.272 C33.416,36.944 33.696,37.712 33.952,38.592 Z M36.72,38.832 C37.744,37.744 38.272,36.024 38.304,33.664 L39.368,33.664 C39.352,35.808 39.32,37.096 39.272,37.512 C39.208,37.968 38.968,38.2 38.56,38.2 C38.368,38.2 38.144,38.184 37.888,38.168 L38.032,38.696 C38.32,38.712 38.52,38.728 38.64,38.728 C39.344,38.728 39.736,38.392 39.816,37.736 C39.896,37.144 39.936,35.6 39.936,33.104 L38.304,33.104 L38.304,31.488 L37.728,31.488 L37.728,33.104 L36.448,33.104 L36.448,33.664 L37.728,33.664 C37.704,35.856 37.224,37.456 36.296,38.456 L36.72,38.832 Z M41.224,38.68 L41.224,38.144 L42.728,38.144 L42.728,38.68 L43.288,38.68 L43.288,32.656 L40.672,32.656 L40.672,38.68 L41.224,38.68 Z M42.728,37.592 L41.224,37.592 L41.224,33.208 L42.728,33.208 L42.728,37.592 Z" id="过程添加" fill="#F13131" fill-rule="nonzero"></path>
    </g>
</svg>