<?xml version="1.0" encoding="UTF-8"?>
<svg width="36px" height="36px" viewBox="0 0 36 36" version="1.1" xmlns="http://www.w3.org/2000/svg" xmlns:xlink="http://www.w3.org/1999/xlink">
    <!-- Generator: Sketch 52.2 (67145) - http://www.bohemiancoding.com/sketch -->
    <title>供应商</title>
    <desc>Created with Sketch.</desc>
    <g id="RFX维护&amp;核价（替换icon）" stroke="none" stroke-width="1" fill="none" fill-rule="evenodd">
        <g id="专家评分-供应商维度" transform="translate(-268.000000, -200.000000)">
            <g id="分组-18-copy" transform="translate(236.000000, 136.000000)">
                <g id="分组-21" transform="translate(32.000000, 64.000000)">
                    <g id="icon">
                        <g id="分组-16-copy">
                            <rect id="矩形-copy-3" fill="#D8D8D8" opacity="0" x="0" y="0" width="36" height="36"></rect>
                            <g id="分组-13" transform="translate(3.340000, 3.160000)" fill="#0687FF">
                                <g id="分组-2">
                                    <path d="M3.02514272,11.7147813 C3.53955647,11.8131251 4.03505796,11.4764867 4.12961931,10.9620729 C5.13196963,5.71959161 9.73899868,1.91066037 15.0911712,1.91066037 C18.071745,1.91066037 20.8745434,3.07187377 22.9813704,5.17870068 C25.0881973,7.2855276 26.2494107,10.0883261 26.2494107,13.0688999 C26.2494107,13.7989135 26.177544,14.5289271 26.0375932,15.2400285 C25.935467,15.7506598 26.2683229,16.2499437 26.7827367,16.35207 C26.843256,16.3634174 26.9075577,16.3709823 26.9680769,16.3709823 C27.4106241,16.3709823 27.8077817,16.0570386 27.8947782,15.6069265 C28.0574237,14.7785691 28.1406377,13.9237345 28.1406377,13.0726823 C28.1406377,11.3100587 27.7964344,9.60417194 27.1155927,7.99284651 C26.4574456,6.43825789 25.519397,5.04253234 24.3203591,3.8434944 C23.1213212,2.64445646 21.7255956,1.70640785 20.171007,1.04826085 C18.563464,0.367419114 16.8537948,0.0232157939 15.0911712,0.0232157939 C8.83499216,0.0232157939 3.44499512,4.47516423 2.27243436,10.6103047 C2.17409056,11.120936 2.51072897,11.6164375 3.02514272,11.7147813 Z" id="路径"></path>
                                    <path d="M29.0519817,20.097624 C29.356822,20.7150117 29.4064471,21.4104599 29.1760446,22.0562332 C28.9456421,22.7020065 28.4777478,23.2200444 27.8574335,23.507449 L16.7449441,28.6665389 C16.0750045,28.978781 15.3589845,29.134902 14.6358751,29.134902 C14.3274903,29.134902 14.02265,29.1065163 13.7142652,29.0497451 L13.6823633,29.0426486 L7.34097782,27.6269149 C7.17437909,28.6984728 6.24567982,29.5181081 5.12911391,29.5181081 L2.24022114,29.5181081 C1.003137,29.5181081 0,28.5104179 0,27.2756426 L0,17.4967898 C0,16.2584663 1.00668165,15.2543243 2.24022114,15.2543243 L5.12911391,15.2543243 C6.33784082,15.2543243 7.32325455,16.2194361 7.36579039,17.4187293 L16.5570774,17.4187293 C17.0462397,17.4187293 17.4432409,17.8161283 17.4432409,18.3057806 C17.4432409,18.7954328 17.0462397,19.1928318 16.5570774,19.1928318 L7.36933505,19.1928318 L7.36933505,25.8173304 L14.0510073,27.3111246 C14.7138575,27.4282154 15.3873417,27.3430585 15.9970222,27.0592021 L27.1095115,21.8965639 C27.2938335,21.811407 27.432075,21.6588342 27.4994234,21.4672311 C27.5667718,21.2756281 27.5525932,21.066284 27.4639769,20.8853255 C27.2973782,20.5482461 26.9039216,20.3850286 26.5459116,20.512764 L20.4065714,22.6878136 C20.0450167,22.8190972 19.6657387,22.8829649 19.2793715,22.8829649 L11.6300088,22.8829649 C11.1408466,22.8829649 10.7438454,22.485566 10.7438454,21.9959137 C10.7438454,21.5062614 11.1408466,21.1088624 11.6300088,21.1088624 L19.2758268,21.1088624 C19.4601488,21.1088624 19.6409262,21.0769286 19.8146142,21.0166091 L25.9539544,18.8415595 C27.1520474,18.4157749 28.4848372,18.9551021 29.0519817,20.097624 Z M5.54702703,27.2675475 L5.54702703,17.5048849 C5.54702703,17.2462948 5.34120757,17.0372973 5.08654961,17.0372973 L2.24345039,17.0372973 C1.98879243,17.0372973 1.78297297,17.2462948 1.78297297,17.5048849 L1.78297297,27.2675475 C1.78297297,27.5261376 1.98879243,27.7351351 2.24345039,27.7351351 L5.08654961,27.7351351 C5.34120757,27.7351351 5.54702703,27.5261376 5.54702703,27.2675475 Z" id="合并形状" fill-rule="nonzero"></path>
                                    <path d="M12.4924187,5.89661819 L13.7209211,6.25452835 C13.5016598,6.96390337 13.259831,7.64424831 12.9954276,8.29558356 L12.9954276,15.269995 L11.8056181,15.269995 L11.8056181,10.7525884 C11.5670102,11.1717646 11.3155083,11.5748125 11.0511048,11.9617444 C10.9672696,11.4458352 10.8382943,10.8654462 10.6641749,10.2205598 C11.3864477,9.09200863 11.9958562,7.65070917 12.4924187,5.89661819 Z M13.4210505,10.9847464 L14.7849784,10.9847464 L14.7849784,8.9146714 L13.7305944,8.9146714 L13.7305944,7.67649572 L14.7849784,7.67649572 L14.7849784,5.93531118 L16.10054,5.93531118 L16.10054,7.67649572 L17.5998934,7.67649572 L17.5998934,5.93531118 L18.915455,5.93531118 L18.915455,7.67649572 L19.9891855,7.67649572 L19.9891855,8.9146714 L18.915455,8.9146714 L18.915455,10.9847464 L20.2600364,10.9847464 L20.2600364,12.222922 L13.4210505,12.222922 L13.4210505,10.9847464 Z M16.10054,10.9847464 L17.5998934,10.9847464 L17.5998934,8.9146714 L16.10054,8.9146714 L16.10054,10.9847464 Z M13.440397,14.5154817 C14.1304254,13.8512487 14.7527314,13.1289868 15.3073337,12.3486743 L16.4004107,13.0741678 C15.8458084,13.8157872 15.1880341,14.5799661 14.4270682,15.3667275 C14.1626648,15.1152218 13.8337777,14.831476 13.440397,14.5154817 Z M18.2189812,12.3873672 C18.8896631,13.0516002 19.5603348,13.7577402 20.2310167,14.5058084 L19.10892,15.347381 C18.5801131,14.6122105 17.9513583,13.8609291 17.2226367,13.0935143 L18.2189812,12.3873672 Z" id="供"></path>
                                </g>
                            </g>
                        </g>
                    </g>
                </g>
            </g>
        </g>
    </g>
</svg>