<?xml version="1.0" encoding="UTF-8"?>
<svg width="36px" height="36px" viewBox="0 0 36 36" version="1.1" xmlns="http://www.w3.org/2000/svg" xmlns:xlink="http://www.w3.org/1999/xlink">
    <!-- Generator: Sketch 52.2 (67145) - http://www.bohemiancoding.com/sketch -->
    <title>供应商</title>
    <desc>Created with Sketch.</desc>
    <g id="Page-1" stroke="none" stroke-width="1" fill="none" fill-rule="evenodd">
        <g id="供应商" fill="#FF0000" fill-rule="nonzero">
            <path d="M17.9357143,0.0160714286 C27.815625,0.0160714286 35.8553571,8.05580357 35.8553571,17.9357143 C35.8553571,27.815625 27.815625,35.8553571 17.9357143,35.8553571 C8.05580357,35.8553571 0.0160714286,27.815625 0.0160714286,17.9357143 C0.0160714286,8.05580357 8.05580357,0.0160714286 17.9357143,0.0160714286 Z M17.9357143,34.509375 C27.0723214,34.509375 34.509375,27.0763393 34.509375,17.9357143 C34.509375,8.79508929 27.0763393,1.36205357 17.9357143,1.36205357 C8.79508929,1.36205357 1.36205357,8.79508929 1.36205357,17.9357143 C1.36205357,27.0763393 8.79910714,34.509375 17.9357143,34.509375 Z M19.6775721,25.2734694 L11.6081633,25.2734694 C11.121251,25.2734694 10.7265306,24.878749 10.7265306,24.3918367 L10.7265306,17.1936133 C10.9638962,17.2406209 11.2096559,17.2653061 11.4612245,17.2653061 C12.7664758,17.2653061 13.9154194,16.6007553 14.5470545,15.601682 C15.1784466,16.6007327 16.3273565,17.2653061 17.6326531,17.2653061 C18.9380298,17.2653061 20.0870008,16.600651 20.7183673,15.6014989 C21.0572559,16.1377973 21.545268,16.5777255 22.1265478,16.8702278 C19.8914589,17.3674949 18.2204082,19.3620694 18.2204082,21.7469388 C18.2204082,23.1234147 18.777078,24.3698735 19.6775721,25.2734694 Z M12.7836735,19.6897959 C12.5402173,19.6897959 12.3428571,19.8871561 12.3428571,20.1306122 C12.3428571,20.3740684 12.5402173,20.5714286 12.7836735,20.5714286 L15.4285714,20.5714286 C15.6720276,20.5714286 15.8693878,20.3740684 15.8693878,20.1306122 C15.8693878,19.8871561 15.6720276,19.6897959 15.4285714,19.6897959 L12.7836735,19.6897959 Z M12.7836735,22.6285714 C12.5402173,22.6285714 12.3428571,22.8259316 12.3428571,23.0693878 C12.3428571,23.3128439 12.5402173,23.5102041 12.7836735,23.5102041 L17.4857143,23.5102041 C17.7291704,23.5102041 17.9265306,23.3128439 17.9265306,23.0693878 C17.9265306,22.8259316 17.7291704,22.6285714 17.4857143,22.6285714 L12.7836735,22.6285714 Z M23.2163265,25.8612245 C20.9440693,25.8612245 19.1020408,24.019196 19.1020408,21.7469388 C19.1020408,19.4746815 20.9440693,17.6326531 23.2163265,17.6326531 C25.4885838,17.6326531 27.3306122,19.4746815 27.3306122,21.7469388 C27.3306122,24.019196 25.4885838,25.8612245 23.2163265,25.8612245 Z M22.087249,19.9107384 L22.087249,20.5055466 L22.869551,20.5055466 L22.869551,21.8761915 L21.9062204,21.8761915 L21.9062204,22.4645343 L26.1086694,22.4645343 L26.1086694,21.8761915 L25.1194776,21.8761915 L25.1194776,20.5055466 L25.9276408,20.5055466 L25.9276408,19.9107384 L25.1194776,19.9107384 L25.1194776,18.6047466 L24.5052735,18.6047466 L24.5052735,19.9107384 L23.4902204,19.9107384 L23.4902204,18.6047466 L22.869551,18.6047466 L22.869551,19.9107384 L22.087249,19.9107384 Z M23.4902204,21.8761915 L23.4902204,20.5055466 L24.5052735,20.5055466 L24.5052735,21.8761915 L23.4902204,21.8761915 Z M24.8350041,22.5873751 L24.3307102,22.8977098 C24.8220735,23.5054486 25.2164571,24.0549996 25.5073959,24.5463629 L26.0634122,24.1649098 C25.7789388,23.7123384 25.3651592,23.1886486 24.8350041,22.5873751 Z M23.0699755,22.6390976 C22.7467102,23.2403711 22.3652571,23.7511302 21.919151,24.1778404 L22.4493061,24.5722241 C22.9018776,24.1002568 23.2962612,23.5442404 23.6324571,22.9106404 L23.0699755,22.6390976 Z M20.884702,21.126216 L20.884702,24.5528282 L21.5053714,24.5528282 L21.5053714,20.2210731 C21.7639837,19.7685017 21.9773388,19.2965343 22.1454367,18.7987058 L21.5635592,18.5271629 C21.2402939,19.52282 20.7489306,20.4021017 20.0830041,21.1520772 L20.2834286,21.8050731 C20.4903184,21.5852527 20.6907429,21.358967 20.884702,21.126216 Z M26.3668215,13.9961705 L26.3690235,14.0025116 C26.2749022,15.2455932 25.1680602,16.2367347 23.8040816,16.2367347 C22.393065,16.2367347 21.2545756,15.1749962 21.2329682,13.8687414 C21.2283254,13.5880639 20.9994687,13.3629616 20.7187528,13.3629616 L20.7179819,13.3629616 C20.437266,13.3629616 20.2084093,13.5880639 20.2037665,13.8687414 C20.1821591,15.1749962 19.0436697,16.2367347 17.6326531,16.2367347 C16.2216364,16.2367347 15.083147,15.1749962 15.0615396,13.8687414 C15.0503872,13.1945316 14.044592,13.1942881 14.033113,13.8684924 C14.0108686,15.1749983 12.8721846,16.2367347 11.4612245,16.2367347 C10.0824189,16.2367347 8.96384004,15.2229183 8.8933269,13.9578082 L10.3237141,10.0103869 C10.4396048,9.69056462 10.7433596,9.47755102 11.0835316,9.47755102 L24.2515935,9.47755102 C24.5976661,9.47755102 24.9053287,9.69790107 25.016736,10.0255514 L26.3668215,13.9961705 Z" id="形状"></path>
        </g>
    </g>
</svg>