<?xml version="1.0" encoding="UTF-8"?>
<svg width="44px" height="44px" viewBox="0 0 44 44" version="1.1" xmlns="http://www.w3.org/2000/svg" xmlns:xlink="http://www.w3.org/1999/xlink">
    <!-- Generator: Sketch 59 (86127) - https://sketch.com -->
    <title>供应商</title>
    <desc>Created with Sketch.</desc>
    <g id="RFX维护&amp;核价（替换icon）" stroke="none" stroke-width="1" fill="none" fill-rule="evenodd">
        <g id="供应商icon">
            <g id="分组-16-copy">
                <rect id="矩形-copy-3" fill="#D8D8D8" opacity="0" x="0" y="0" width="44" height="44"></rect>
                <g id="分组-13" transform="translate(4.082222, 3.862222)" fill="#AAAAAA">
                    <g id="分组-2">
                        <path d="M6.268917,18.6441742 C7.6894294,18.6441742 8.85759496,19.7347631 8.99156987,21.121748 L9.0026327,21.2895581 L20.236428,21.2895581 C20.7509868,21.2895581 21.1821081,21.6493412 21.2922621,22.1311396 C20.6990113,22.5247702 20.1438026,22.9688386 19.631786,23.4577534 L9.00696506,23.4579055 L9.00696506,31.5545149 L15.956527,33.1091863 C16.0201522,33.9034327 16.161114,34.6758664 16.3718776,35.4189525 L8.97230622,33.7662293 C8.77753863,35.0189685 7.73055023,35.9899946 6.44556041,36.0720636 L6.268917,36.0776877 L2.73804806,36.0776877 C1.28205602,36.0776877 0.0912112171,34.9356081 0.00499773621,33.5033914 L-1.91846539e-13,33.3368965 L-1.91846539e-13,21.3849654 C-1.91846539e-13,19.9275146 1.14093656,18.7354768 2.57171981,18.6491769 L2.73804806,18.6441742 L6.268917,18.6441742 Z M6.21689397,20.8233634 L2.74199492,20.8233634 C2.46187116,20.8233634 2.23009753,21.0302709 2.18654404,21.3020562 L2.17918919,21.3948593 L2.17918919,33.3270025 C2.17918919,33.6114517 2.38295045,33.8468041 2.65060295,33.8910301 L2.74199492,33.8984985 L6.21689397,33.8984985 C6.49701773,33.8984985 6.72879136,33.691591 6.77234485,33.4198057 L6.7796997,33.3270025 L6.7796997,21.3948593 C6.7796997,21.0788047 6.52814259,20.8233634 6.21689397,20.8233634 Z M17.7266467,25.7990189 C17.3027073,26.4791658 16.9449615,27.2048384 16.6624218,27.9670243 L14.2144552,27.9680682 C13.6165903,27.9680682 13.1313666,27.4823584 13.1313666,26.8838945 C13.1313666,26.3253282 13.5540503,25.8649832 14.0964945,25.8060864 L14.2144552,25.7997208 L17.7266467,25.7990189 Z M18.4447648,0.0283748592 C20.5990825,0.0283748592 22.6886782,0.449067806 24.653453,1.2812077 C26.5535058,2.0856096 28.2593925,3.23211345 29.7248833,4.69760427 C31.1903742,6.16309508 32.336878,7.86898186 33.1412799,9.76903462 C33.9734198,11.7384324 34.3941128,13.8234051 34.3941128,15.9777228 C34.3941128,17.0178977 34.2924068,18.0626956 34.0936178,19.0751324 C33.9872888,19.6252694 33.5018739,20.0089783 32.9609829,20.0089783 C32.8870149,20.0089783 32.808424,19.9997323 32.734456,19.9858633 C32.105728,19.8610423 31.6989041,19.2508064 31.8237251,18.6267015 C31.9947761,17.7575776 32.082613,16.8653387 32.082613,15.9730998 C32.082613,12.3301763 30.6633522,8.90453373 28.0883416,6.32952306 C25.5133309,3.75451239 22.0876883,2.33525157 18.4447648,2.33525157 C11.9032206,2.33525157 6.27240733,6.99061197 5.04731249,13.3980892 C4.9317375,14.0268171 4.32612458,14.438264 3.69739666,14.318066 C3.06866874,14.1978681 2.65722179,13.5922551 2.77741978,12.9681502 C4.21054959,5.46964517 10.7983238,0.0283748592 18.4447648,0.0283748592 Z M18.7089634,15.0928241 L20.0449464,15.9795384 C19.3670991,16.8859621 18.5631528,17.8199585 17.6330834,18.7815558 C17.3099236,18.4741599 16.9079505,18.1273596 16.4271518,17.7411443 C17.2705199,16.929304 18.0311162,16.0465394 18.7089634,15.0928241 Z M22.2676437,15.1401155 C23.087366,15.9519558 23.9070759,16.8150158 24.7267982,17.7293214 L23.3553466,18.7579101 C22.7090272,17.8593684 21.9405491,16.9411356 21.0498893,16.0031842 L22.2676437,15.1401155 Z M15.2685118,7.20697779 L16.7700147,7.64442353 C16.5020286,8.51143746 16.2064601,9.34297016 15.8833004,10.1390466 L15.8833004,18.6633272 L14.4290888,18.6633272 L14.4290888,13.1420525 C14.1374569,13.6543789 13.8300656,14.1469931 13.5069059,14.6199098 C13.4044406,13.9893542 13.2468041,13.2799898 13.0339916,12.4917953 C13.9167694,11.112455 14.661602,9.35086676 15.2685118,7.20697779 Z M19.6784378,7.25426922 L19.6784378,9.38238366 L21.5109808,9.38238366 L21.5109808,7.25426922 L23.1188895,7.25426922 L23.1188895,9.38238366 L24.4312267,9.38238366 L24.4312267,10.8957095 L23.1188895,10.8957095 L23.1188895,13.4258011 L24.7622667,13.4258011 L24.7622667,14.9391269 L16.4035061,14.9391269 L16.4035061,13.4258011 L18.0705291,13.4258011 L18.0705291,10.8957095 L16.7818376,10.8957095 L16.7818376,9.38238366 L18.0705291,9.38238366 L18.0705291,7.25426922 L19.6784378,7.25426922 Z M21.5109808,10.8957095 L19.6784378,10.8957095 L19.6784378,13.4258011 L21.5109808,13.4258011 L21.5109808,10.8957095 Z" id="形状结合"></path>
                        <path d="M23.8977778,33.1477778 C22.9177778,33.5277778 21.7677778,33.8377778 20.4477778,34.0577778 L20.5377778,34.7577778 C21.7977778,34.5277778 22.9177778,34.2177778 23.8977778,33.8377778 L23.8977778,33.1477778 Z M22.1177778,25.9177778 C21.7177778,27.1077778 21.2477778,28.1677778 20.7077778,29.0877778 C20.6177778,29.2177778 20.5177778,29.3077778 20.4077778,29.3477778 L20.5777778,30.0077778 C21.1377778,29.9377778 21.6977778,29.8677778 22.2477778,29.7877778 C21.7277778,30.7177778 21.2777778,31.3777778 20.9077778,31.7577778 C20.8177778,31.8377778 20.7077778,31.9077778 20.5777778,31.9677778 L20.7777778,32.6277778 C21.7377778,32.4977778 22.7377778,32.2577778 23.7877778,31.9177778 L23.7877778,31.2677778 C23.0677778,31.5077778 22.3477778,31.6977778 21.6277778,31.8377778 C22.2077778,31.1277778 22.9477778,29.9277778 23.8277778,28.2377778 L23.1877778,27.9977778 L22.6077778,29.1377778 L22.6077778,29.1377778 C22.1577778,29.2077778 21.7077778,29.2677778 21.2577778,29.3077778 C21.7777778,28.5277778 22.2977778,27.4877778 22.8077778,26.1877778 L22.1177778,25.9177778 Z M28.7477778,27.7377778 L26.2577778,28.0877778 L26.2577778,25.9677778 L25.5377778,25.9677778 L25.5377778,28.1877778 L24.0077778,28.4077778 L24.1177778,29.0677778 L25.5577778,28.8577778 C25.5677778,29.3377778 25.5977778,29.7977778 25.6477778,30.2277778 L23.8377778,30.5177778 L23.9377778,31.1977778 L25.7377778,30.9077778 C25.7777778,31.1677778 25.8177778,31.4177778 25.8777778,31.6777778 C25.9977778,32.2177778 26.1477778,32.6977778 26.3377778,33.1377778 C25.5977778,33.6877778 24.7677778,34.1077778 23.8477778,34.4077778 L24.2677778,34.9877778 C25.1177778,34.7277778 25.9177778,34.3177778 26.6577778,33.7677778 C26.7177778,33.8977778 26.7977778,34.0177778 26.8877778,34.1377778 C27.3177778,34.7377778 27.7677778,35.0377778 28.2477778,35.0577778 C28.7677778,35.0577778 29.1677778,34.3877778 29.4477778,33.0677778 L28.8377778,32.6677778 C28.6577778,33.7377778 28.4277778,34.2777778 28.1677778,34.2777778 C27.9077778,34.2777778 27.6177778,34.0277778 27.2877778,33.5377778 L27.1777778,33.3477778 L27.1777778,33.3477778 C27.7977778,32.8077778 28.3677778,32.1477778 28.8977778,31.3777778 L28.3277778,30.9877778 C27.9077778,31.6277778 27.4277778,32.1877778 26.8877778,32.6877778 C26.7477778,32.2877778 26.6277778,31.8377778 26.5277778,31.3177778 L26.4707407,30.977037 C26.4622222,30.9177778 26.4544444,30.8577778 26.4477778,30.7977778 L29.1277778,30.3777778 L29.0177778,29.6977778 L26.3677778,30.1177778 C26.3277778,29.6877778 26.2977778,29.2377778 26.2777778,28.7577778 L28.8477778,28.3977778 L28.7477778,27.7377778 Z M27.3777778,25.9377778 L26.8177778,26.2877778 C27.3177778,26.7477778 27.7177778,27.1777778 27.9977778,27.5677778 L28.5577778,27.1777778 C28.2777778,26.8277778 27.8877778,26.4177778 27.3777778,25.9377778 Z M30.4677778,26.4977778 L39.3577778,26.4977778 L39.3577778,27.2077778 L35.0177778,27.2077778 L35.0177778,28.7177778 C36.2577778,29.3377778 37.5177778,30.0577778 38.7977778,30.8777778 L38.3677778,31.5177778 C37.0377778,30.6377778 35.9177778,29.9577778 35.0177778,29.4777778 L35.0177778,35.1577778 L34.2877778,35.1577778 L34.2877778,27.2077778 L30.4677778,27.2077778 L30.4677778,26.4977778 Z" id="线下" fill-rule="nonzero"></path>
                    </g>
                </g>
            </g>
        </g>
    </g>
</svg>