<?xml version="1.0" encoding="UTF-8"?>
<svg width="44px" height="44px" viewBox="0 0 44 44" version="1.1" xmlns="http://www.w3.org/2000/svg" xmlns:xlink="http://www.w3.org/1999/xlink">
    <!-- Generator: Sketch 59 (86127) - https://sketch.com -->
    <title>供应商</title>
    <desc>Created with Sketch.</desc>
    <g id="RFX维护&amp;核价（替换icon）" stroke="none" stroke-width="1" fill="none" fill-rule="evenodd">
        <g id="核价-供应商列表-两行备份" transform="translate(-268.000000, -840.000000)">
            <rect fill="#F4F5F7" x="0" y="0" width="1440" height="1028"></rect>
            <g id="分组-18-copy" transform="translate(238.000000, 714.000000)" fill="#FFFFFF">
                <rect id="矩形" x="0" y="0" width="1188" height="296"></rect>
            </g>
            <g id="分组-23-copy" transform="translate(268.000000, 840.000000)">
                <g id="icon">
                    <g id="分组-16-copy">
                        <rect id="矩形-copy-3" fill="#D8D8D8" opacity="0" x="0" y="0" width="44" height="44"></rect>
                        <g id="分组-13" transform="translate(4.082222, 3.862222)" fill="#AAAAAA">
                            <g id="分组-2">
                                <path d="M3.69739666,14.318066 C4.32612458,14.438264 4.9317375,14.0268171 5.04731249,13.3980892 C6.27240733,6.99061197 11.9032206,2.33525157 18.4447648,2.33525157 C22.0876883,2.33525157 25.5133309,3.75451239 28.0883416,6.32952306 C30.6633522,8.90453373 32.082613,12.3301763 32.082613,15.9730998 C32.082613,16.8653387 31.9947761,17.7575776 31.8237251,18.6267015 C31.6989041,19.2508064 32.105728,19.8610423 32.734456,19.9858633 C32.808424,19.9997323 32.8870149,20.0089783 32.9609829,20.0089783 C33.5018739,20.0089783 33.9872888,19.6252694 34.0936178,19.0751324 C34.2924068,18.0626956 34.3941128,17.0178977 34.3941128,15.9777228 C34.3941128,13.8234051 33.9734198,11.7384324 33.1412799,9.76903462 C32.336878,7.86898186 31.1903742,6.16309508 29.7248833,4.69760427 C28.2593925,3.23211345 26.5535058,2.0856096 24.653453,1.2812077 C22.6886782,0.449067806 20.5990825,0.0283748592 18.4447648,0.0283748592 C10.7983238,0.0283748592 4.21054959,5.46964517 2.77741978,12.9681502 C2.65722179,13.5922551 3.06866874,14.1978681 3.69739666,14.318066 Z" id="路径"></path>
                                <path d="M6.268917,18.6441742 C7.74624989,18.6441742 8.95064445,19.8237552 9.0026327,21.2895581 L9.0026327,21.2895581 L20.236428,21.2895581 C20.8342929,21.2895581 21.3195166,21.7752679 21.3195166,22.3737318 C21.3195166,22.9721957 20.8342929,23.4579055 20.236428,23.4579055 L20.236428,23.4579055 L9.00696506,23.4579055 L9.00696506,31.5545149 L17.1734533,33.3802635 C17.9836036,33.5233744 18.806751,33.4192937 19.551916,33.0723581 L19.551916,33.0723581 L33.1338474,26.762467 C33.3591298,26.6583864 33.5280917,26.4719085 33.6104064,26.237727 C33.6927211,26.0035454 33.6753917,25.7476804 33.5670829,25.526509 C33.3634622,25.114523 32.8825709,24.915035 32.445003,25.071156 L32.445003,25.071156 L24.941365,27.72955 C24.4994648,27.8900077 24.0359029,27.9680682 23.5636763,27.9680682 L23.5636763,27.9680682 L14.2144552,27.9680682 C13.6165903,27.9680682 13.1313666,27.4823584 13.1313666,26.8838945 C13.1313666,26.2854306 13.6165903,25.7997208 14.2144552,25.7997208 L14.2144552,25.7997208 L23.5593439,25.7997208 C23.7846263,25.7997208 24.0055764,25.7606905 24.2178618,25.6869667 L24.2178618,25.6869667 L31.7214998,23.0285727 C33.1858357,22.5081693 34.814801,23.167347 35.5079777,24.5637627 C35.8805602,25.3183476 35.9412131,26.1683398 35.6596101,26.9576183 C35.3780071,27.7468968 34.8061363,28.3800542 34.0479742,28.7313265 L34.0479742,28.7313265 L20.4660428,35.0368809 C19.6472278,35.4185101 18.7720922,35.6093246 17.8882918,35.6093246 C17.511377,35.6093246 17.1387945,35.5746311 16.7618797,35.505244 L16.7618797,35.505244 L16.7228885,35.4965706 L8.97230622,33.7662293 C8.76868556,35.0759112 7.63360867,36.0776877 6.268917,36.0776877 L6.268917,36.0776877 L2.73804806,36.0776877 C1.22605633,36.0776877 0,34.8460663 0,33.3368965 L0,33.3368965 L0,21.3849654 C0,19.8714588 1.23038869,18.6441742 2.73804806,18.6441742 L2.73804806,18.6441742 Z M6.21689397,20.8233634 L2.74199492,20.8233634 C2.4307463,20.8233634 2.17918919,21.0788047 2.17918919,21.3948593 L2.17918919,21.3948593 L2.17918919,33.3270025 C2.17918919,33.6430571 2.4307463,33.8984985 2.74199492,33.8984985 L2.74199492,33.8984985 L6.21689397,33.8984985 C6.52814259,33.8984985 6.7796997,33.6430571 6.7796997,33.3270025 L6.7796997,33.3270025 L6.7796997,21.3948593 C6.7796997,21.0788047 6.52814259,20.8233634 6.21689397,20.8233634 L6.21689397,20.8233634 Z" id="合并形状" fill-rule="nonzero"></path>
                                <path d="M15.2685118,7.20697779 L16.7700147,7.64442353 C16.5020286,8.51143746 16.2064601,9.34297016 15.8833004,10.1390466 L15.8833004,18.6633272 L14.4290888,18.6633272 L14.4290888,13.1420525 C14.1374569,13.6543789 13.8300656,14.1469931 13.5069059,14.6199098 C13.4044406,13.9893542 13.2468041,13.2799898 13.0339916,12.4917953 C13.9167694,11.112455 14.661602,9.35086676 15.2685118,7.20697779 Z M16.4035061,13.4258011 L18.0705291,13.4258011 L18.0705291,10.8957095 L16.7818376,10.8957095 L16.7818376,9.38238366 L18.0705291,9.38238366 L18.0705291,7.25426922 L19.6784378,7.25426922 L19.6784378,9.38238366 L21.5109808,9.38238366 L21.5109808,7.25426922 L23.1188895,7.25426922 L23.1188895,9.38238366 L24.4312267,9.38238366 L24.4312267,10.8957095 L23.1188895,10.8957095 L23.1188895,13.4258011 L24.7622667,13.4258011 L24.7622667,14.9391269 L16.4035061,14.9391269 L16.4035061,13.4258011 Z M19.6784378,13.4258011 L21.5109808,13.4258011 L21.5109808,10.8957095 L19.6784378,10.8957095 L19.6784378,13.4258011 Z M16.4271518,17.7411443 C17.2705199,16.929304 18.0311162,16.0465394 18.7089634,15.0928241 L20.0449464,15.9795384 C19.3670991,16.8859621 18.5631528,17.8199585 17.6330834,18.7815558 C17.3099236,18.4741599 16.9079505,18.1273596 16.4271518,17.7411443 Z M22.2676437,15.1401155 C23.087366,15.9519558 23.9070759,16.8150158 24.7267982,17.7293214 L23.3553466,18.7579101 C22.7090272,17.8593684 21.9405491,16.9411356 21.0498893,16.0031842 L22.2676437,15.1401155 Z" id="供"></path>
                            </g>
                        </g>
                    </g>
                </g>
            </g>
        </g>
    </g>
</svg>