<?xml version="1.0" encoding="UTF-8"?>
<svg width="16px" height="16px" viewBox="0 0 16 16" version="1.1" xmlns="http://www.w3.org/2000/svg" xmlns:xlink="http://www.w3.org/1999/xlink">
    <!-- Generator: Sketch 52.2 (67145) - http://www.bohemiancoding.com/sketch -->
    <title>table-ranking</title>
    <desc>Created with Sketch.</desc>
    <g id="style" stroke="none" stroke-width="1" fill="none" fill-rule="evenodd">
        <g id="图标--2" transform="translate(-1332.000000, -626.000000)">
            <g id="table-ranking" transform="translate(1332.000000, 626.000000)">
                <rect id="矩形" fill-opacity="0.01" fill="#FFFFFF" x="0" y="0" width="16" height="16"></rect>
                <path d="M12,10 L9,10 L9,12 L12,12 L12,10 Z M13,10 L13,12 L15,12 L15,7 L13,7 L13,9 L15,9 L15,10 L13,10 Z M12,9 L12,7 L9,7 L9,9 L12,9 Z M12,13 L9,13 L9,15 L8,15 L8,13 L5,13 L5,15 L15,15 L15,13 L13,13 L13,15 L12,15 L12,13 Z M12,4 L9,4 L9,6 L12,6 L12,4 Z M13,4 L13,6 L15,6 L15,4 L13,4 Z M12,3 L13,3 L15,3 L15,1 L5,1 L5,3 L8,3 L9,3 L12,3 Z M8,10 L5,10 L5,12 L8,12 L8,10 Z M8,9 L8,7 L5,7 L5,9 L8,9 Z M8,4 L5,4 L5,6 L8,6 L8,4 Z M4,12 L4,10 L4,9 L4,7 L4,6 L4,4 L1,4 L1,15 L4,15 L4,13 L4,12 Z M4,1 L1,1 L1,3 L4,3 L4,1 Z M1,0 L15,0 C15.5522847,0 16,0.44771525 16,1 L16,15 C16,15.5522847 15.5522847,16 15,16 L1,16 C0.44771525,16 0,15.5522847 0,15 L0,1 C0,0.44771525 0.44771525,0 1,0 Z" id="Rectangle" fill="#666666" fill-rule="nonzero"></path>
            </g>
        </g>
    </g>
</svg>