<?xml version="1.0" encoding="UTF-8"?>
<svg width="20px" height="20px" viewBox="0 0 20 20" version="1.1" xmlns="http://www.w3.org/2000/svg" xmlns:xlink="http://www.w3.org/1999/xlink">
    <!-- Generator: Sketch 52.2 (67145) - http://www.bohemiancoding.com/sketch -->
    <title>table</title>
    <desc>Created with Sketch.</desc>
    <g id="工作台" stroke="none" stroke-width="1" fill="none" fill-rule="evenodd">
        <g id="供应商报价" transform="translate(-1366.000000, -192.000000)">
            <g id="table" transform="translate(1366.000000, 192.000000)">
                <path d="M2,0 L5,0 L5,20 L2,20 C0.8954305,20 1.3527075e-16,19.1045695 0,18 L0,2 C-1.3527075e-16,0.8954305 0.8954305,2.02906125e-16 2,0 Z" id="Rectangle" fill="#BCBCBC"></path>
                <path d="M2,0 L18,0 C19.1045695,-2.02906125e-16 20,0.8954305 20,2 L20,4 L0,4 L0,2 C-1.3527075e-16,0.8954305 0.8954305,2.02906125e-16 2,0 Z" id="Rectangle" fill="#D8D8D8"></path>
                <path d="M10,13 L14,13 L14,9 L10,9 L10,13 Z M10,14 L10,19 L14,19 L14,14 L10,14 Z M19,13 L19,9 L15,9 L15,13 L19,13 Z M19,14 L15,14 L15,19 L18,19 C18.5522847,19 19,18.5522847 19,18 L19,14 Z M6,13 L9,13 L9,9 L6,9 L6,8 L9,8 L9,5 L6,5 L6,13 Z M6,14 L6,19 L9,19 L9,14 L6,14 Z M5,13 L5,5 L1,5 L1,4 L5,4 L6,4 L9,4 L10,4 L14,4 L15,4 L19,4 L19,2 C19,1.44771525 18.5522847,1 18,1 L2,1 C1.44771525,1 1,1.44771525 1,2 L1,18 C1,18.5522847 1.44771525,19 2,19 L5,19 L5,14 L5,13 Z M10,8 L14,8 L14,5 L10,5 L10,8 Z M19,8 L19,5 L15,5 L15,8 L19,8 Z M2,0 L18,0 C19.1045695,-2.02906125e-16 20,0.8954305 20,2 L20,18 C20,19.1045695 19.1045695,20 18,20 L2,20 C0.8954305,20 1.3527075e-16,19.1045695 0,18 L0,2 C-1.3527075e-16,0.8954305 0.8954305,2.02906125e-16 2,0 Z" id="Rectangle" fill="#A3A3A3" fill-rule="nonzero"></path>
            </g>
        </g>
    </g>
</svg>