<?xml version="1.0" encoding="UTF-8"?>
<svg width="37.3333333px" height="37.3333333px" viewBox="0 0 37.3333333 37.3333333" version="1.1" xmlns="http://www.w3.org/2000/svg" xmlns:xlink="http://www.w3.org/1999/xlink">
    <title>资格预审备份</title>
    <g id="0728" stroke="none" stroke-width="1" fill="none" fill-rule="evenodd">
        <g id="资格预审备份" transform="translate(2.6667, 2.6667)">
            <circle id="椭圆形" stroke="#FFFFFF" stroke-width="2.66666667" fill="#E5E7EC" cx="16" cy="16" r="17.3333333"></circle>
            <g id="Icon/approval_black" transform="translate(8, 8)">
                <path d="M2.66666667,10.6666667 L2.66666667,14.6666667 L13.3333333,14.6666667 L13.3333333,10.6666667 C13.3333333,9.93333333 12.7333333,9.33333333 12,9.33333333 L4,9.33333333 C3.26666667,9.33333333 2.66666667,9.93333333 2.66666667,10.6666667 Z M12,12 L4,12 L4,10.6666667 L12,10.6666667 L12,12 Z M8,1.33333333 C6.16,1.33333333 4.66666667,2.82666667 4.66666667,4.66666667 L8,9.33333333 L11.3333333,4.66666667 C11.3333333,2.82666667 9.84,1.33333333 8,1.33333333 Z M8,7.33333333 L6,4.66666667 C6,3.56 6.89333333,2.66666667 8,2.66666667 C9.10666667,2.66666667 10,3.56 10,4.66666667 L8,7.33333333 Z" id="icon" fill="#FFFFFF"></path>
                <polygon id="approval_black" points="0 0 16 0 16 16 0 16"></polygon>
            </g>
        </g>
    </g>
</svg>
