<?xml version="1.0" encoding="UTF-8"?>
<svg width="18px" height="18px" viewBox="0 0 18 18" version="1.1" xmlns="http://www.w3.org/2000/svg" xmlns:xlink="http://www.w3.org/1999/xlink">
    <title>第一名</title>
    <g id="1018" stroke="none" stroke-width="1" fill="none" fill-rule="evenodd">
        <g id="编组-19">
            <rect id="矩形备份-2" x="0" y="0" width="18" height="18"></rect>
            <polygon id="路径" fill="#F56349" points="15.5434778 1.111322 13.3695647 1.111322 10.471014 4.7345104 12.644927 4.7345104"></polygon>
            <polygon id="路径" fill="#3095F2" points="13.3695648 1.111322 11.1956517 1.111322 8.297101 4.7345104 10.471014 4.7345104"></polygon>
            <polygon id="路径" fill="#F1F1F1" fill-rule="nonzero" points="11.1956518 1.111322 9.02173873 1.111322 6.123188 4.7345104 8.29710104 4.7345104"></polygon>
            <polygon id="路径" fill="#F56349" points="2.5 1.111322 4.67391304 1.111322 7.57246377 4.7345104 5.39855073 4.7345104"></polygon>
            <polygon id="路径" fill="#3095F2" points="4.673913 1.111322 6.84782604 1.111322 9.74637677 4.7345104 7.57246373 4.7345104"></polygon>
            <polygon id="路径" fill="#FBFBFB" fill-rule="nonzero" points="6.847826 1.111322 9.02173904 1.111322 11.9202898 4.7345104 9.74637673 4.7345104"></polygon>
            <polygon id="路径" fill="#F09800" fill-rule="nonzero" points="5.398551 4.734511 12.6449278 4.734511 12.6449278 8.3576994 5.398551 8.3576994"></polygon>
            <path d="M3.586957,11.6185686 C3.586957,14.6201162 6.02019206,17.0533512 9.02173961,17.0533512 C12.0232872,17.0533512 14.4565222,14.6201162 14.4565222,11.6185686 C14.4565222,8.61702106 12.0232872,6.183786 9.02173961,6.183786 C6.02019206,6.183786 3.586957,8.61702106 3.586957,11.6185686 Z" id="路径" fill="#FFE700" fill-rule="nonzero"></path>
            <path d="M4.673913,11.6185691 C4.673913,14.0198071 6.62050104,15.9663952 9.02173909,15.9663952 C11.4229771,15.9663952 13.3695652,14.0198071 13.3695652,11.6185691 C13.3695652,9.21733104 11.4229771,7.270743 9.02173909,7.270743 C6.62050104,7.270743 4.673913,9.21733104 4.673913,11.6185691 Z" id="路径" fill="#F09800"></path>
            <path d="M5.398551,11.6185685 C5.398551,13.6196002 7.0207077,15.2417569 9.0217394,15.2417569 C11.0227711,15.2417569 12.6449278,13.6196002 12.6449278,11.6185685 C12.6449278,10.3241279 11.954352,9.12801549 10.8333336,8.48079521 C9.71231522,7.83357493 8.33116358,7.83357493 7.21014518,8.48079521 C6.08912678,9.12801549 5.398551,10.3241279 5.398551,11.6185685 Z" id="路径" fill="#FFE700" fill-rule="nonzero"></path>
            <path d="M5.03623184,4.734511 L13.0072463,4.734511 C13.2073495,4.734511 13.3695652,4.89672667 13.3695652,5.09682984 C13.3695652,5.29693302 13.2073495,5.45914869 13.0072463,5.45914869 L5.03623184,5.45914869 C4.83612867,5.45914869 4.673913,5.29693302 4.673913,5.09682984 C4.673913,4.89672667 4.83612867,4.734511 5.03623184,4.734511 L5.03623184,4.734511 Z" id="路径" fill="#F09800"></path>
            <path d="M5.0362322,4.87943808 C4.9161703,4.87943808 4.81884089,4.97676748 4.81884089,5.09682938 C4.81884089,5.21689128 4.9161703,5.31422069 5.0362322,5.31422069 L13.0072467,5.31422069 C13.1273086,5.31422069 13.224638,5.21689128 13.224638,5.09682938 C13.224638,4.97676748 13.1273086,4.87943808 13.0072467,4.87943808 L5.0362322,4.87943808 Z M5.0362322,4.58958301 L13.0072467,4.58958301 C13.1884905,4.58954985 13.3559808,4.68622321 13.4466123,4.84317941 C13.5372438,5.0001356 13.5372438,5.19352318 13.4466123,5.35047938 C13.3559808,5.50743557 13.1884905,5.60410893 13.0072467,5.60407577 L5.0362322,5.60407577 C4.85498842,5.60410893 4.68749807,5.50743557 4.5968666,5.35047938 C4.50623513,5.19352318 4.50623513,5.0001356 4.5968666,4.84317941 C4.68749807,4.68622321 4.85498842,4.58954985 5.0362322,4.58958301 L5.0362322,4.58958301 Z" id="形状" fill="#FFE700" fill-rule="nonzero"></path>
            <polygon id="路径" fill="#FFFFFF" fill-rule="nonzero" opacity="0.800000012" points="9.02173874 13.0678441 7.31811556 13.9634963 7.64347787 12.0663948 6.265217 10.7229165 8.16956483 10.446105 9.02173874 8.720018 9.87391265 10.446105 11.7782605 10.7229165 10.3999996 12.0663948 10.7253619 13.9634963"></polygon>
        </g>
    </g>
</svg>