<?xml version="1.0" encoding="UTF-8"?>
<svg width="16px" height="16px" viewBox="0 0 16 16" version="1.1" xmlns="http://www.w3.org/2000/svg" xmlns:xlink="http://www.w3.org/1999/xlink">
    <!-- Generator: Sketch 52.2 (67145) - http://www.bohemiancoding.com/sketch -->
    <title>upload-g</title>
    <desc>Created with Sketch.</desc>
    <g id="工作台" stroke="none" stroke-width="1" fill="none" fill-rule="evenodd">
        <g id="供应商报价-切换视图" transform="translate(-668.000000, -562.000000)">
            <g id="upload-g" transform="translate(668.000000, 562.000000)">
                <rect id="Rectangle" fill="#D8D8D8" opacity="0.01" x="0" y="0" width="16" height="16"></rect>
                <path d="M15.9931507,11 L16,11 L16,14 C16,15.1045695 15.1045695,16 14,16 L2,16 C0.8954305,16 0,15.1045695 0,14 L0,11 L0.00684931601,11 C0.0650833739,10.5031642 0.487522388,10.1176632 1,10.1176632 C1.51247761,10.1176632 1.93491663,10.5031642 1.99315068,11 L2,11 L2,14 L14,14 L14,11 L14.0068493,11 C14.0650834,10.5031642 14.4875224,10.1176632 15,10.1176632 C15.5124776,10.1176632 15.9349166,10.5031642 15.9931507,11 Z M7,3.53352057 L4.46610993,6.06741064 C4.07558564,6.45793493 3.44242066,6.45793493 3.05189637,6.06741064 C2.66137208,5.67688635 2.66137208,5.04372137 3.05189637,4.65319707 L7.29453705,0.410556388 C7.68506135,0.0200320958 8.31822632,0.0200320958 8.70875062,0.410556388 L12.9513913,4.65319707 C13.3419156,5.04372137 13.3419156,5.67688635 12.9513913,6.06741064 C12.560867,6.45793493 11.927702,6.45793493 11.5371777,6.06741064 L9,3.5302329 L9,11 C9,11.5522847 8.55228475,12 8,12 C7.44771525,12 7,11.5522847 7,11 L7,3.53352057 Z" id="Rectangle" fill="#29BECE" fill-rule="nonzero"></path>
            </g>
        </g>
    </g>
</svg>