<?xml version="1.0" encoding="UTF-8"?>
<svg width="12px" height="12px" viewBox="0 0 12 12" version="1.1" xmlns="http://www.w3.org/2000/svg" xmlns:xlink="http://www.w3.org/1999/xlink">
    <!-- Generator: Sketch 52.2 (67145) - http://www.bohemiancoding.com/sketch -->
    <title>upload</title>
    <desc>Created with Sketch.</desc>
    <g id="工作台" stroke="none" stroke-width="1" fill="none" fill-rule="evenodd">
        <g id="供应商报价" transform="translate(-1344.000000, -66.000000)">
            <g id="按钮组1" transform="translate(1224.000000, 58.000000)">
                <g id="btn-保存" transform="translate(104.000000, 0.000000)">
                    <g id="upload" transform="translate(16.000000, 8.000000)">
                        <rect id="Rectangle" fill="#D8D8D8" opacity="0.01" x="0" y="0" width="12" height="12"></rect>
                        <path d="M6.5,1.85031374 L6.5,9.5 C6.5,9.77614237 6.27614237,10 6,10 C5.72385763,10 5.5,9.77614237 5.5,9.5 L5.5,1.8015468 L2.08652923,5.21501756 C1.89126709,5.41027971 1.5746846,5.41027971 1.37942245,5.21501756 C1.18416031,5.01975542 1.18416031,4.70317293 1.37942245,4.50791078 L5.62206314,0.265270094 C5.81732529,0.0700079482 6.13390777,0.0700079482 6.32916992,0.265270094 L10.5718106,4.50791078 C10.7670728,4.70317293 10.7670728,5.01975542 10.5718106,5.21501756 C10.3765485,5.41027971 10.059966,5.41027971 9.86470383,5.21501756 L6.5,1.85031374 Z M12,7.5 L12,11 C12,11.5522847 11.5522847,12 11,12 L1,12 C0.44771525,12 0,11.5522847 0,11 L0,7.5 L1,7.5 L1,11 L11,11 L11,7.5 L12,7.5 Z" id="Rectangle" fill="#FFFFFF" fill-rule="nonzero"></path>
                    </g>
                </g>
            </g>
        </g>
    </g>
</svg>