<?xml version="1.0" encoding="UTF-8"?>
<svg width="12px" height="12px" viewBox="0 0 12 12" version="1.1" xmlns="http://www.w3.org/2000/svg" xmlns:xlink="http://www.w3.org/1999/xlink">
    <!-- Generator: Sketch 52.2 (67145) - http://www.bohemiancoding.com/sketch -->
    <title>urgent</title>
    <desc>Created with Sketch.</desc>
    <g id="工作台" stroke="none" stroke-width="1" fill="none" fill-rule="evenodd">
        <g id="我发出的订单" transform="translate(-1264.000000, -66.000000)">
            <g id="按钮组1" transform="translate(1144.000000, 58.000000)">
                <g id="btn-保存" transform="translate(104.000000, 0.000000)">
                    <g id="urgent" transform="translate(16.000000, 8.000000)">
                        <rect id="Rectangle" fill="#D8D8D8" opacity="0.01" x="0" y="0" width="12" height="12"></rect>
                        <path d="M11,3 L10,3 L10,1 L1,1 L1,11 L10,11 L10,9 L11,9 L11,11 C11,11.5522847 10.5075132,12 9.9,12 L1.1,12 C0.492486775,12 0,11.5522847 0,11 L0,1 C0,0.44771525 0.492486775,0 1.1,0 L9.9,0 C10.5075132,0 11,0.44771525 11,1 L11,3 Z M5.5,2 L7.5,2 C7.77614237,2 8,2.22385763 8,2.5 L8,2.5 C8,2.77614237 7.77614237,3 7.5,3 L5.5,3 C5.22385763,3 5,2.77614237 5,2.5 L5,2.5 C5,2.22385763 5.22385763,2 5.5,2 Z M4.5,9 L7.5,9 C7.77614237,9 8,9.22385763 8,9.5 L8,9.5 C8,9.77614237 7.77614237,10 7.5,10 L4.5,10 C4.22385763,10 4,9.77614237 4,9.5 L4,9.5 C4,9.22385763 4.22385763,9 4.5,9 Z" id="Rectangle" fill="#666666" fill-rule="nonzero"></path>
                        <polygon id="Path-3" stroke="#666666" points="3.11625882 3.38171822 10 6 3.11625882 8.45593737 4.22042574 6"></polygon>
                    </g>
                </g>
            </g>
        </g>
    </g>
</svg>