<?xml version="1.0" encoding="UTF-8"?>
<svg width="18px" height="18px" viewBox="0 0 18 18" version="1.1" xmlns="http://www.w3.org/2000/svg" xmlns:xlink="http://www.w3.org/1999/xlink">
    <title>整包中标</title>
    <g id="1018" stroke="none" stroke-width="1" fill="none" fill-rule="evenodd">
        <g id="整包中标">
            <rect id="矩形" x="0" y="0" width="18" height="18"></rect>
            <g id="奖杯" transform="translate(1.000000, 1.500000)">
                <path d="M0.00222815842,2.85650623 C0.00222815842,2.22644877 0.512990663,1.71568628 1.14304813,1.71568628 L14.8328877,1.71568628 C15.4629452,1.71568628 15.9737077,2.22644877 15.9737077,2.85650623 L15.9737077,4.16388591 C15.9737077,5.46013813 15.2410914,6.6450651 14.0816578,7.22470588 L8.24294118,10.1440642 C8.08242167,10.224276 7.89351416,10.224276 7.73299465,10.1440642 L1.89427807,7.22470588 C0.734844414,6.6450651 0.00222815842,5.46013813 0.00222815842,4.16388591 L0.00222815842,2.85650623 Z" id="路径" fill="#FCA000"></path>
                <path d="M3.53877005,0.00445633356 C3.21734976,0.00445633356 2.91083925,0.14003172 2.69462316,0.37785856 C2.47840707,0.615685399 2.37254885,0.933687599 2.40308377,1.25365419 L2.9923173,7.44032086 C3.18597099,9.47294518 4.59142167,11.1857818 6.5471123,11.7725847 C6.72227444,11.8221634 6.8442095,11.9807253 6.84714794,12.1627451 C6.84714794,12.3785398 6.67221179,12.5534759 6.45641711,12.5534759 L3.99509804,12.5534759 C3.58748944,12.5534266 3.21082245,12.7708549 3.00700391,13.1238461 C2.80318536,13.4768372 2.80318536,13.9117546 3.00700391,14.2647457 C3.21082245,14.6177369 3.58748944,14.8351159 3.99509804,14.8351159 L11.9808378,14.8351159 C12.3884464,14.8351159 12.7651134,14.6177369 12.9689319,14.2647457 C13.1727505,13.9117546 13.1727505,13.4768372 12.9689319,13.1238461 C12.7651134,12.7708549 12.3884464,12.5534266 11.9808378,12.5534759 L9.51951872,12.5534759 C9.30372404,12.5534759 9.12878788,12.3785398 9.12878788,12.1627451 C9.12878788,11.9807843 9.25427807,11.8250624 9.42882353,11.7725847 C11.384738,11.185975 12.7904485,9.47309653 12.984189,7.44032086 L13.5722816,1.25365419 C13.6027886,0.933983979 13.4971555,0.61625967 13.2813181,0.378491047 C13.0654806,0.140722424 12.7594288,0.00493069055 12.4383066,0.00445633356 L3.53877005,0.00445633356 Z" id="路径" fill="#F56349"></path>
                <path d="M7.73071302,2.25529412 C7.77811772,2.15625436 7.87816773,2.09322242 7.98796791,2.09322242 C8.0977681,2.09322242 8.19781811,2.15625436 8.24522281,2.25529412 L8.9068984,3.64139037 C8.94839388,3.72867243 9.03126732,3.78900258 9.12707665,3.80167558 L10.6500713,4.00245989 C10.7590747,4.01668178 10.8502018,4.09228309 10.8843054,4.19678642 C10.9184091,4.30128976 10.8894179,4.4160905 10.8097861,4.49187166 L9.695205,5.54998217 C9.62539482,5.61641632 9.59385472,5.7136113 9.61135473,5.80837789 L9.89085561,7.31939393 C9.91071397,7.42740977 9.86678611,7.53723167 9.77791316,7.60175587 C9.6890402,7.66628007 9.57101365,7.67404151 9.47445633,7.62171123 L8.12372548,6.88873441 C8.03902577,6.84289067 7.93691006,6.84289067 7.85221034,6.88873441 L6.5014795,7.62171123 C6.40492217,7.67404151 6.28689562,7.66628007 6.19802267,7.60175587 C6.10914972,7.53723167 6.06522186,7.42740977 6.08508021,7.31939393 L6.3645811,5.80837789 C6.38208111,5.7136113 6.35054101,5.61641632 6.28073083,5.54998217 L5.16672014,4.49187166 C5.08714436,4.41624595 5.05803783,4.30166019 5.09187558,4.19722571 C5.12571332,4.09279124 5.21648817,4.01704817 5.32529412,4.00245989 L6.84828877,3.80167558 C6.9441886,3.78930051 7.0272868,3.72917777 7.06903743,3.64196078 L7.73071302,2.25529412 L7.73071302,2.25529412 Z" id="路径" fill="#FFFFFF" fill-rule="nonzero"></path>
            </g>
        </g>
    </g>
</svg>