<?xml version="1.0" encoding="UTF-8"?>
<svg width="19px" height="18px" viewBox="0 0 19 18" version="1.1" xmlns="http://www.w3.org/2000/svg" xmlns:xlink="http://www.w3.org/1999/xlink">
    <!-- Generator: Sketch 61.2 (89653) - https://sketch.com -->
    <title>引用其他模版备份 2</title>
    <desc>Created with Sketch.</desc>
    <g id="Page-1" stroke="none" stroke-width="1" fill="none" fill-rule="evenodd">
        <g id="Apple-TV" transform="translate(-434.000000, -362.000000)">
            <g id="引用其他模版备份-2" transform="translate(433.000000, 360.000000)">
                <rect id="Rectangle" stroke="#979797" fill="#D8D8D8" opacity="0" x="0.5" y="0.5" width="21" height="21"></rect>
                <g id="Group-13" transform="translate(11.000000, 11.000000) rotate(-270.000000) translate(-11.000000, -11.000000) translate(2.000000, 1.500000)" fill="#333333">
                    <path d="M13.7107768,5.3008179 C13.3517917,5.3008179 13.0607768,5.00980298 13.0607768,4.6508179 C13.0607768,4.29183281 13.3517917,4.0008179 13.7107768,4.0008179 C13.7276004,4.0008179 13.7442747,4.00145704 13.7607768,4.00271238 L16.1707768,4.0008179 C16.9230618,4.0008179 17.5409729,4.4485329 17.5409729,5.3008179 C17.5409729,5.34471922 17.5409075,9.47805255 17.5407768,17.7008179 C17.5407768,18.6047019 16.9474578,19.0008179 16.1707768,19.0008179 L1.35077677,19.0008179 C0.574095773,19.0008179 0.000776772978,18.6047019 0.000776772977,17.7008179 L0,5.3008179 C0,4.3047019 0.627089005,3.98139857 1.15077677,4.0008179 C1.19630161,4.00250604 3.39963494,4.00250604 7.76077677,4.0008179 C8.11976186,4.0008179 8.41077677,4.29183281 8.41077677,4.6508179 C8.41077677,5.00980298 8.11976186,5.3008179 7.76077677,5.3008179 L1.35077677,5.3008179 L1.35077677,17.7008179 L16.1707768,17.7008179 L16.1757768,5.3008179 L13.7607768,5.3008179 C13.7442747,5.30017875 13.7276004,5.3008179 13.7107768,5.3008179 Z" id="Path"></path>
                    <path d="M11.6999995,7.9 L13.0505587,6.54944084 C13.3239257,6.27607384 13.7671412,6.27607384 14.0405082,6.54944084 C14.3138752,6.82280785 14.3138752,7.26602333 14.0405082,7.53939033 L11.5806768,9.99922168 C11.5572505,10.0328877 11.5305276,10.0649553 11.5005082,10.0949747 C11.2271412,10.3683418 10.7839257,10.3683418 10.5105587,10.0949747 L7.96497425,7.54939033 C7.69160725,7.27602333 7.69160725,6.83280785 7.96497425,6.55944084 C8.23834126,6.28607384 8.68155674,6.28607384 8.95492375,6.55944084 L10.2999995,7.9045166 L10.2999995,1.294466 C10.2999995,0.907866675 10.6134002,0.594466 10.9999995,0.594466 C11.1677681,0.594466 11.3217519,0.653486229 11.4423206,0.751896 C11.5995855,0.880257774 11.6999995,1.0756353 11.6999995,1.294466 L11.6999995,7.9 Z" id="Path"></path>
                </g>
                <path d="M9.50192872,4.91518075 C9.75767209,5.17092412 9.78883141,5.5564475 9.57169578,5.77358314 L8.129,7.215 L9.17729105,7.21599343 C9.48496556,7.21599343 9.73496893,7.50998384 9.73496893,7.87239911 C9.73496893,8.2361277 9.48436721,8.52877195 9.17729105,8.52877195 L7.51,8.528 L7.51,9.211 L9.17729105,9.21143611 C9.48496556,9.21143611 9.73496893,9.50542652 9.73496893,9.86784179 C9.73496893,10.2315704 9.48436721,10.5242146 9.17729105,10.5242146 L7.51,10.524 L7.51091591,12.7105702 C7.51029207,13.0182447 7.21630166,13.2688179 6.85454306,13.2688179 C6.49278448,13.2688179 6.19813739,13.0182447 6.19813739,12.7111685 L6.198,10.524 L4.70584967,10.5242146 C4.39817516,10.5235908 4.14760193,10.2296004 4.14760193,9.86784179 C4.14760193,9.50608321 4.39817516,9.21143611 4.70525132,9.21143611 L6.198,9.211 L6.198,8.528 L4.70584967,8.52877195 C4.39817516,8.52814812 4.14760193,8.23415771 4.14760193,7.87239911 C4.14760193,7.51064053 4.39817516,7.21599343 4.70525132,7.21599343 L5.485,7.215 L4.04347727,5.77358314 C3.82778551,5.55500363 3.8584295,5.16999558 4.11419607,4.91422901 C4.36993944,4.65848564 4.75546282,4.62732631 4.97259846,4.84446195 L6.807,6.679 L8.64257459,4.84446195 C8.8611541,4.62877019 9.24616215,4.65941418 9.50192872,4.91518075 Z" id="Shape" fill="#333333" fill-rule="nonzero"></path>
            </g>
        </g>
    </g>
</svg>