<?xml version="1.0" encoding="UTF-8"?>
<svg width="220px" height="109px" viewBox="0 0 220 109" version="1.1" xmlns="http://www.w3.org/2000/svg" xmlns:xlink="http://www.w3.org/1999/xlink">
    <title>编组 3</title>
    <defs>
        <path d="M25.3069542,35.25 L113.078207,35.25 C114.593042,35.25 115.821058,36.5310983 115.821058,38.111413 L115.821058,98.201087 C115.821058,99.7814017 114.593042,101.0625 113.078207,101.0625 L25.3069542,101.0625 C23.7921191,101.0625 22.5641026,99.7814017 22.5641026,98.201087 L22.5641026,38.111413 C22.5641026,36.5310983 23.7921191,35.25 25.3069542,35.25 Z" id="path-1"></path>
        <filter x="-4.3%" y="-3.0%" width="108.6%" height="112.2%" filterUnits="objectBoundingBox" id="filter-2">
            <feOffset dx="0" dy="2" in="SourceAlpha" result="shadowOffsetOuter1"></feOffset>
            <feGaussianBlur stdDeviation="1" in="shadowOffsetOuter1" result="shadowBlurOuter1"></feGaussianBlur>
            <feColorMatrix values="0 0 0 0 0   0 0 0 0 0   0 0 0 0 0  0 0 0 0.1 0" type="matrix" in="shadowBlurOuter1"></feColorMatrix>
        </filter>
        <path d="M36.2529915,47.4375 L47.9863248,47.4375 C48.7963424,47.4375 49.4529915,48.0922836 49.4529915,48.9 L49.4529915,60.6 C49.4529915,61.4077164 48.7963424,62.0625 47.9863248,62.0625 L36.2529915,62.0625 C35.4429738,62.0625 34.7863248,61.4077164 34.7863248,60.6 L34.7863248,48.9 C34.7863248,48.0922836 35.4429738,47.4375 36.2529915,47.4375 Z" id="path-3"></path>
        <path d="M36.2529915,74.25 L47.9863248,74.25 C48.7963424,74.25 49.4529915,74.9047836 49.4529915,75.7125 L49.4529915,87.4125 C49.4529915,88.2202164 48.7963424,88.875 47.9863248,88.875 L36.2529915,88.875 C35.4429738,88.875 34.7863248,88.2202164 34.7863248,87.4125 L34.7863248,75.7125 C34.7863248,74.9047836 35.4429738,74.25 36.2529915,74.25 Z" id="path-4"></path>
        <path d="M55.7521368,47.8125 L85.0854701,47.8125 C85.7604848,47.8125 86.3076923,48.358153 86.3076923,49.03125 L86.3076923,51.46875 C86.3076923,52.141847 85.7604848,52.6875 85.0854701,52.6875 L55.7521368,52.6875 C55.0771221,52.6875 54.5299145,52.141847 54.5299145,51.46875 L54.5299145,49.03125 C54.5299145,48.358153 55.0771221,47.8125 55.7521368,47.8125 Z" id="path-5"></path>
        <path d="M55.7521368,74.0625 L85.0854701,74.0625 C85.7604848,74.0625 86.3076923,74.608153 86.3076923,75.28125 L86.3076923,77.71875 C86.3076923,78.391847 85.7604848,78.9375 85.0854701,78.9375 L55.7521368,78.9375 C55.0771221,78.9375 54.5299145,78.391847 54.5299145,77.71875 L54.5299145,75.28125 C54.5299145,74.608153 55.0771221,74.0625 55.7521368,74.0625 Z" id="path-6"></path>
        <path d="M55.9701764,57.1875 L106.379342,57.1875 C107.174776,57.1875 107.819604,57.733153 107.819604,58.40625 L107.819604,60.84375 C107.819604,61.516847 107.174776,62.0625 106.379342,62.0625 L55.9701764,62.0625 C55.1747417,62.0625 54.5299145,61.516847 54.5299145,60.84375 L54.5299145,58.40625 C54.5299145,57.733153 55.1747417,57.1875 55.9701764,57.1875 Z" id="path-7"></path>
        <path d="M55.9701764,84.375 L106.379342,84.375 C107.174776,84.375 107.819604,84.920653 107.819604,85.59375 L107.819604,88.03125 C107.819604,88.704347 107.174776,89.25 106.379342,89.25 L55.9701764,89.25 C55.1747417,89.25 54.5299145,88.704347 54.5299145,88.03125 L54.5299145,85.59375 C54.5299145,84.920653 55.1747417,84.375 55.9701764,84.375 Z" id="path-8"></path>
        <path d="M1.46469732,8.69820502 L0.422157796,10.4432227 C0.357318196,10.551753 0.357855247,10.6872091 0.422971394,10.7950348 L0.427408135,10.8021817 C0.473516886,10.874459 0.570732028,10.9114233 0.719053559,10.9130746 L0.729630714,10.9131326 L1.23636502,10.9131326 C1.38805749,10.9131326 1.53922092,10.8951702 1.68672475,10.8596174 L10.6541514,8.69820502 L1.46469732,8.69820502 Z" id="path-9"></path>
        <path d="M3.67402982,5.37581371 L20.9344729,5.37581371 L0.569390672,0.0147174635 C0.354118599,-0.0419528966 0.130641069,0.0693323306 0.0448452308,0.274621569 L0.0417680518,0.282173958 C-0.0359994989,0.478037379 -0.00371271926,0.700688025 0.126451178,0.866151705 L3.67402982,5.37581371 Z" id="path-10"></path>
        <polygon id="path-11" points="20.9344729 5.37581371 3.67525903 5.37581371 1.47195513 8.69820502 6.24578025 8.69820502"></polygon>
        <path d="M20.9344729,5.37581371 L11.0170214,14.6046784 C10.8561346,14.6815857 10.733795,14.7200393 10.6500025,14.7200393 C10.5662101,14.7200393 10.4465176,14.6815857 10.2909251,14.6046784 L5.33617011,7.95989584 C5.31326111,7.69121544 5.33363329,7.51419274 5.39728665,7.42882773 C5.46094001,7.34346272 5.62407727,7.27438236 5.88669844,7.22158666 L20.9344729,5.37581371 Z" id="path-12"></path>
    </defs>
    <g id="923" stroke="none" stroke-width="1" fill="none" fill-rule="evenodd">
        <g id="无生命周期历史" transform="translate(-1140, -326)">
            <g id="编组-3" transform="translate(1140, 326)">
                <rect id="矩形" fill="#FFFFFF" x="0" y="0" width="220" height="105"></rect>
                <g id="编组-2" transform="translate(41.3675, 3.75)">
                    <path d="M36.4089728,23.0625 L124.180225,23.0625 C125.69506,23.0625 126.923077,24.3435983 126.923077,25.923913 L126.923077,86.013587 C126.923077,87.5939017 125.69506,88.875 124.180225,88.875 L36.4089728,88.875 C34.8941376,88.875 33.6661211,87.5939017 33.6661211,86.013587 L33.6661211,25.923913 C33.6661211,24.3435983 34.8941376,23.0625 36.4089728,23.0625 Z" id="矩形备份-5" fill="#F1F4F8"></path>
                    <g id="矩形">
                        <use fill="black" fill-opacity="1" filter="url(#filter-2)" xlink:href="#path-1"></use>
                        <use fill="#FFFFFF" fill-rule="evenodd" xlink:href="#path-1"></use>
                    </g>
                    <g id="矩形">
                        <use fill="#00B8CC" xlink:href="#path-3"></use>
                        <use fill-opacity="0.4" fill="#FFFFFF" xlink:href="#path-3"></use>
                    </g>
                    <g id="矩形备份">
                        <use fill="#00B8CC" xlink:href="#path-4"></use>
                        <use fill-opacity="0.4" fill="#FFFFFF" xlink:href="#path-4"></use>
                    </g>
                    <g id="矩形">
                        <use fill="#00B8CC" xlink:href="#path-5"></use>
                        <use fill-opacity="0.4" fill="#FFFFFF" xlink:href="#path-5"></use>
                    </g>
                    <g id="矩形备份-3">
                        <use fill="#00B8CC" xlink:href="#path-6"></use>
                        <use fill-opacity="0.4" fill="#FFFFFF" xlink:href="#path-6"></use>
                    </g>
                    <g id="矩形备份-2">
                        <use fill="#00B8CC" xlink:href="#path-7"></use>
                        <use fill-opacity="0.8" fill="#FFFFFF" xlink:href="#path-7"></use>
                    </g>
                    <g id="矩形备份-4">
                        <use fill="#00B8CC" xlink:href="#path-8"></use>
                        <use fill-opacity="0.8" fill="#FFFFFF" xlink:href="#path-8"></use>
                    </g>
                    <g id="编组">
                        <g id="元素/纸飞机/主色备份" transform="translate(6.9782, 0)">
                            <g id="路径-14">
                                <use fill="#00B8CC" xlink:href="#path-9"></use>
                                <use fill-opacity="0.4" fill="#FFFFFF" xlink:href="#path-9"></use>
                            </g>
                            <g id="路径-5">
                                <use fill="#00B8CC" xlink:href="#path-10"></use>
                                <use fill-opacity="0.2" fill="#FFFFFF" xlink:href="#path-10"></use>
                            </g>
                            <g id="路径-12">
                                <use fill="#00B8CC" xlink:href="#path-11"></use>
                                <use fill-opacity="0.2" fill="#000000" xlink:href="#path-11"></use>
                            </g>
                            <g id="路径-13">
                                <use fill="#00B8CC" xlink:href="#path-12"></use>
                                <use fill-opacity="0.2" fill="#FFFFFF" xlink:href="#path-12"></use>
                            </g>
                        </g>
                        <path d="M31.3478028,46.0989583 C29.8574635,46.2402783 28.0880517,46.2690731 26.1958226,46.1770034 L26.1680912,46.9150052 C28.0863942,47.0083435 29.8828345,46.9791089 31.4017094,46.8350831 L31.3478028,46.0989583 Z M20.9344729,45.3875841 C19.196381,45.1294265 17.4866732,44.7857102 15.8501896,44.359375 L15.7008547,45.0579702 C17.3585949,45.4898431 19.0891576,45.837752 20.8477754,46.0989583 L20.9344729,45.3875841 Z M10.4672365,42.9363836 C8.63934436,42.339445 7.0070054,41.6532163 5.60270111,40.8802083 L5.23361823,41.3788246 C6.68012661,42.1750641 8.35445146,42.8789435 10.2242983,43.4895833 L10.4672365,42.9363836 Z M2.61680912,37.8756906 C1.48796554,36.4224845 0.84396547,34.8166611 0.718099163,33.0520833 L0,33.0968214 C0.135078724,34.9905523 0.827515417,36.7171532 2.03440677,38.2708333 L2.61680912,37.8756906 Z M2.89390957,29.5729167 C4.25783662,28.8389327 6.0880043,28.4941015 7.81938881,28.5885862 L7.85042735,27.8495106 C6.01905297,27.7495693 4.08425786,28.1141139 2.61680912,28.903807 L2.89390957,29.5729167 Z M10.8402436,30.487003 C10.2943377,31.0449886 8.57426269,30.8070239 6.47620375,29.5729167 L6.10588794,30.0203867 C8.44635488,31.3970816 10.5095375,31.6825138 11.3395062,30.8341798 L10.8402436,30.487003 Z M2.61680912,25.791632 C1.94089098,24.2128046 1.50494363,22.5037818 1.41545624,20.875 L0.872269706,20.9185545 C0.967085692,22.6443236 1.42493172,24.4391946 2.13327005,26.09375 L2.61680912,25.791632 Z M3.14520703,15.65625 C3.97424126,14.4837852 5.23959183,13.499776 6.97815764,12.7355903 L6.71246761,12.1770833 C4.87160144,12.9862352 3.51430058,14.0417502 2.61680912,15.3110309 L3.14520703,15.65625 Z" id="路径" fill="#00B8CC" fill-rule="nonzero"></path>
                    </g>
                </g>
            </g>
        </g>
    </g>
</svg>