<?xml version="1.0" encoding="UTF-8"?>
<svg width="14px" height="14px" viewBox="0 0 14 14" version="1.1" xmlns="http://www.w3.org/2000/svg" xmlns:xlink="http://www.w3.org/1999/xlink">
    <title>开始</title>
    <g id="【采】竞价大厅3.1" stroke="none" stroke-width="1" fill="none" fill-rule="evenodd">
        <g id="开始" fill="#000000" fill-rule="nonzero">
            <path d="M7,14 C3.134005,14 0,10.86596 0,7 C0,3.134005 3.134005,0 7,0 C10.86596,0 14,3.134005 14,7 C14,10.86596 10.86596,14 7,14 Z M6.03533,4.490213 C5.98934,4.459546 5.9353,4.443187 5.88,4.443187 C5.72537,4.443187 5.6,4.568543 5.6,4.723187 L5.6,9.27682 C5.6,9.33212 5.61638,9.38616 5.64704,9.43215 C5.73279,9.56081 5.90667,9.5956 6.03533,9.50978 L9.45056,7.23296 C9.48129,7.21245 9.50768,7.18606 9.52819,7.15533 C9.61401,7.02667 9.57922,6.85279 9.45056,6.76704 L6.03533,4.490213 Z" id="形状"></path>
        </g>
    </g>
</svg>