<?xml version="1.0" encoding="UTF-8"?>
<svg width="14px" height="14px" viewBox="0 0 14 14" version="1.1" xmlns="http://www.w3.org/2000/svg" xmlns:xlink="http://www.w3.org/1999/xlink">
    <title>编组</title>
    <g id="【供】竞价大厅3.1" stroke="none" stroke-width="1" fill="none" fill-rule="evenodd">
        <g id="【供】单价必填-完成" transform="translate(-45.000000, -133.000000)" fill="#179454" fill-rule="nonzero">
            <g id="编组-8" transform="translate(8.000000, 104.000000)">
                <g id="编组-3备份" transform="translate(20.000000, 20.000000)">
                    <g id="编组-37" transform="translate(16.000000, 8.000000)">
                        <g id="编组" transform="translate(1.500000, 1.000000)">
                            <path d="M6.66666667,13.3333333 C2.98476667,13.3333333 0,10.3485333 0,6.66666667 C0,2.98476667 2.98476667,0 6.66666667,0 C10.3485333,0 13.3333333,2.98476667 13.3333333,6.66666667 C13.3333333,10.3485333 10.3485333,13.3333333 6.66666667,13.3333333 Z M4,7.33333333 C4,8.80606667 5.19390667,10 6.66666667,10 C8.1394,10 9.33333333,8.80606667 9.33333333,7.33333333 L4,7.33333333 Z M4,6 C4.55228667,6 5,5.55226667 5,5 C5,4.44771333 4.55228667,4 4,4 C3.44771333,4 3,4.44771333 3,5 C3,5.55226667 3.44771333,6 4,6 Z M9.33333333,6 C9.8856,6 10.3333333,5.55226667 10.3333333,5 C10.3333333,4.44771333 9.8856,4 9.33333333,4 C8.78106667,4 8.33333333,4.44771333 8.33333333,5 C8.33333333,5.55226667 8.78106667,6 9.33333333,6 Z" id="形状"></path>
                        </g>
                    </g>
                </g>
            </g>
        </g>
    </g>
</svg>