<?xml version="1.0" encoding="UTF-8"?>
<svg width="16px" height="16px" viewBox="0 0 16 16" version="1.1" xmlns="http://www.w3.org/2000/svg" xmlns:xlink="http://www.w3.org/1999/xlink">
    <title>编组 26</title>
    <g id="【采】竞价大厅3.1" stroke="none" stroke-width="1" fill="none" fill-rule="evenodd">
        <g id="编组-26">
            <rect id="矩形" x="0" y="0" width="16" height="16"></rect>
            <g id="编组" transform="translate(0.500000, 2.500000)" fill="#0161D5" fill-rule="nonzero">
                <path d="M0.666666667,8.29661597 L3.25926,8.29661597 L6.78893333,11.1844826 C6.84846667,11.233216 6.92306667,11.259816 7,11.259816 C7.18406667,11.259816 7.33333333,11.110616 7.33333333,10.9264826 L7.33333333,0.333342642 C7.33333333,0.256395975 7.30673333,0.181815975 7.258,0.122262642 C7.1414,-0.0202173585 6.9314,-0.0412173585 6.78893333,0.0753559748 L3.25926,2.96326264 L0.666666667,2.96326264 C0.29848,2.96326264 0,3.26173597 0,3.62992931 L0,7.62994931 C0,7.99814931 0.29848,8.29661597 0.666666667,8.29661597 Z M14.6666667,5.62988264 C14.6666667,7.82454931 13.7026,9.79408264 12.1748,11.138016 L11.2296667,10.192816 C12.5172,9.09234931 13.3333333,7.45641597 13.3333333,5.62988264 C13.3333333,3.80332264 12.5172,2.16740931 11.2296667,1.06692931 L12.1748,0.121742642 C13.7026,1.46566931 14.6666667,3.43518264 14.6666667,5.62988264 Z M11.3333333,5.62988264 C11.3333333,4.35541597 10.7373333,3.22020264 9.80886667,2.48770264 L8.85613333,3.44044264 C9.54753333,3.92224931 10,4.72321597 10,5.62988264 C10,6.53654931 9.54753333,7.33748264 8.85613333,7.81928264 L9.80886667,8.77201597 C10.7373333,8.03954931 11.3333333,6.90428264 11.3333333,5.62988264 Z" id="形状"></path>
            </g>
        </g>
    </g>
</svg>