<?xml version="1.0" encoding="UTF-8"?>
<svg width="16px" height="16px" viewBox="0 0 16 16" version="1.1" xmlns="http://www.w3.org/2000/svg" xmlns:xlink="http://www.w3.org/1999/xlink">
    <title>编组 43</title>
    <g id="【采】竞价大厅" stroke="none" stroke-width="1" fill="none" fill-rule="evenodd">
        <g id="编组-43">
            <rect id="矩形" fill-opacity="0.15" fill="#47B883" x="0" y="0" width="16" height="16" rx="1.33333333"></rect>
            <g id="编组-14" transform="translate(3.333333, 3.333333)">
                <rect id="矩形" x="0" y="0" width="9.33333333" height="9.33333333"></rect>
                <g id="编组" transform="translate(0.777778, 0.388889)" fill="#179454" fill-rule="nonzero">
                    <path d="M6.84896385,3.62980625 L7.31644718,3.91031181 C7.40849718,3.96557292 7.43836385,4.08500069 7.38314162,4.17708958 C7.36669162,4.20442847 7.34378607,4.22733403 7.31644718,4.24378403 L3.7054194,6.41036181 L0.0944344028,4.24378403 C0.00234940276,4.18852292 -0.027513375,4.06909514 0.0277399583,3.97700625 C0.0441588472,3.94962847 0.0670644028,3.92672292 0.0944344028,3.91031181 L0.561913847,3.62980625 L3.7054194,5.51591736 L6.84896385,3.62980625 Z" id="路径"></path>
                    <path d="M6.84896385,5.45758403 L7.31644718,5.73808958 C7.40849718,5.79335069 7.43836385,5.91277847 7.38314162,6.00486736 C7.36669162,6.03220625 7.34378607,6.05511181 7.31644718,6.07156181 L3.90550274,8.11808958 C3.78234162,8.19197847 3.62849718,8.19197847 3.50533607,8.11808958 L0.0944344028,6.07156181 C0.00234940276,6.01630069 -0.027513375,5.89687292 0.0277399583,5.80478403 C0.0441588472,5.77740625 0.0670644028,5.75450069 0.0944344028,5.73808958 L0.561913847,5.45758403 L3.7054194,7.34369514 L6.84896385,5.45758403 Z" id="路径"></path>
                    <path d="M3.90550274,0.0554195833 L7.31644718,2.10197069 C7.40849718,2.15722014 7.43836385,2.27665958 7.38314162,2.36874458 C7.36669162,2.39611458 7.34378607,2.41902014 7.31644718,2.43543903 L3.7054194,4.60202847 L0.0944344028,2.43543903 C0.00234940276,2.38018958 -0.027513375,2.26075014 0.0277399583,2.16866514 C0.0441588472,2.14129514 0.0670644028,2.11838958 0.0944344028,2.10197069 L3.50533607,0.0554195833 C3.62849718,-0.0184731944 3.78234162,-0.0184731944 3.90550274,0.0554195833 Z" id="路径"></path>
                </g>
            </g>
        </g>
    </g>
</svg>