<?xml version="1.0" encoding="UTF-8"?>
<svg width="14px" height="14px" viewBox="0 0 14 14" version="1.1" xmlns="http://www.w3.org/2000/svg" xmlns:xlink="http://www.w3.org/1999/xlink">
    <title>编组 4备份</title>
    <g id="【采】竞价大厅3.1" stroke="none" stroke-width="1" fill="none" fill-rule="evenodd">
        <g id="图标补全" transform="translate(-318.000000, -416.000000)">
            <g id="编组-3" transform="translate(306.000000, 303.000000)">
                <g id="编组-4备份" transform="translate(12.000000, 113.000000)">
                    <rect id="矩形" x="0" y="0" width="14" height="14"></rect>
                    <g id="编组" transform="translate(3.500000, 3.000000)" fill="#000000" fill-rule="nonzero">
                        <path d="M5.6,0.7 C5.6,0.313404 5.91339,0 6.3,0 C6.68661,0 7,0.313404 7,0.7 L7,7.7 C7,8.08661 6.68661,8.4 6.3,8.4 C5.91339,8.4 5.6,8.08661 5.6,7.7 L5.6,0.7 Z M0,0.7 C0,0.313404 0.313404,0 0.7,0 C1.086596,0 1.4,0.313404 1.4,0.7 L1.4,7.7 C1.4,8.08661 1.086596,8.4 0.7,8.4 C0.313404,8.4 0,8.08661 0,7.7 L0,0.7 Z" id="形状"></path>
                    </g>
                </g>
            </g>
        </g>
    </g>
</svg>