<?xml version="1.0" encoding="UTF-8"?>
<svg width="16px" height="16px" viewBox="0 0 16 16" version="1.1" xmlns="http://www.w3.org/2000/svg" xmlns:xlink="http://www.w3.org/1999/xlink">
    <title>编组 70</title>
    <g id="923优化" stroke="none" stroke-width="1" fill="none" fill-rule="evenodd">
        <g id="编组-70">
            <circle id="椭圆形备份" fill="#F06200" cx="8" cy="8" r="8"></circle>
            <g id="Icon/lock" transform="translate(3, 3)">
                <path d="M7.5,3.33333333 L7.08333333,3.33333333 L7.08333333,2.5 C7.08333333,1.35 6.15,0.41666667 5,0.41666667 C3.85,0.41666667 2.91666667,1.35 2.91666667,2.5 L2.91666667,3.33333333 L2.5,3.33333333 C2.04166667,3.33333333 1.66666667,3.70833333 1.66666667,4.16666667 L1.66666667,8.33333333 C1.66666667,8.79166666 2.04166667,9.16666667 2.5,9.16666667 L7.5,9.16666667 C7.95833333,9.16666667 8.33333333,8.79166667 8.33333333,8.33333333 L8.33333333,4.16666667 C8.33333333,3.70833334 7.95833333,3.33333334 7.5,3.33333333 Z M5,7.08333333 C4.54166667,7.08333333 4.16666667,6.70833333 4.16666667,6.25 C4.16666667,5.79166667 4.54166667,5.41666667 5,5.41666667 C5.45833333,5.41666667 5.83333333,5.79166667 5.83333333,6.25 C5.83333333,6.70833333 5.45833333,7.08333333 5,7.08333333 Z M3.70833333,3.33333333 L3.70833333,2.5 C3.70833333,1.7875 4.2875,1.20833333 5,1.20833333 C5.7125,1.20833333 6.29166667,1.7875 6.29166667,2.5 L6.29166667,3.33333333 L3.70833333,3.33333333 Z" id="icon" fill="#FFFFFF"></path>
                <rect id="lock" x="0" y="0" width="10" height="10"></rect>
            </g>
        </g>
    </g>
</svg>