<?xml version="1.0" encoding="UTF-8"?>
<svg width="24px" height="24px" viewBox="0 0 24 24" version="1.1" xmlns="http://www.w3.org/2000/svg" xmlns:xlink="http://www.w3.org/1999/xlink">
    <title>空白2</title>
    <defs>
        <linearGradient x1="50%" y1="0%" x2="50%" y2="100%" id="linearGradient-1">
            <stop stop-color="#CFFDF7" stop-opacity="0.992296766" offset="0%"></stop>
            <stop stop-color="#67CFFF" offset="100%"></stop>
        </linearGradient>
        <linearGradient x1="50%" y1="0%" x2="50%" y2="100%" id="linearGradient-2">
            <stop stop-color="#DEFEFF" offset="0%"></stop>
            <stop stop-color="#DEFEFF" offset="100%"></stop>
        </linearGradient>
    </defs>
    <g id="【采】竞价大厅3.1" stroke="none" stroke-width="1" fill="none" fill-rule="evenodd">
        <g id="图标补全" transform="translate(-232.000000, -58.000000)">
            <g id="空白2" transform="translate(232.000000, 58.000000)">
                <rect id="矩形" x="0" y="0" width="24" height="24"></rect>
                <g id="编组-26" transform="translate(3.333333, 1.333333)">
                    <path d="M4,12.6666667 L13.3333333,12.6666667 C13.7015232,12.6666667 14,12.9651435 14,13.3333333 L14,20.7983508 C14,21.1665407 13.7015232,21.4650175 13.3333333,21.4650175 C13.2085759,21.4650175 13.0863217,21.4300106 12.9804725,21.3639776 L9.01952748,18.8929804 C8.8035751,18.7582606 8.52975824,18.7582606 8.31380585,18.8929804 L4.35286082,21.3639776 C4.04047375,21.5588573 3.62925284,21.4635987 3.43437319,21.1512116 C3.36834019,21.0453624 3.33333333,20.9231082 3.33333333,20.7983508 L3.33333333,13.3333333 C3.33333333,12.9651435 3.63181017,12.6666667 4,12.6666667 Z" id="矩形" fill="#06DFE8"></path>
                    <path d="M5.33333333,14.6666667 L5.33333333,20.7516667 L4.35286082,21.3639776 C4.04047375,21.5588573 3.62925284,21.4635987 3.43437319,21.1512116 C3.36834019,21.0453624 3.33333333,20.9231082 3.33333333,20.7983508 L3.33333333,14.6666667 L5.33333333,14.6666667 Z" id="形状结合" fill="#0186FF" opacity="0.400000006"></path>
                    <path d="M13.3333333,12.6666667 C13.7015232,12.6666667 14,12.9651435 14,13.3333333 L14,20.7983508 C14,21.1665407 13.7015232,21.4650175 13.3333333,21.4650175 C13.2085759,21.4650175 13.0863217,21.4300106 12.9804725,21.3639776 L9.01952748,18.8929804 L8.93833333,18.8513092 L3.33333333,15.3436428 L3.33333333,14.6699884 L11.0843333,12.6663092 L13.3333333,12.6666667 Z" id="形状结合" fill="#0186FF" opacity="0.300000012"></path>
                    <path d="M14,13.3333333 L14,20.7983508 C14,21.1665407 13.7015232,21.4650175 13.3333333,21.4650175 C13.2085759,21.4650175 13.0863217,21.4300106 12.9804725,21.3639776 L11.3333333,20.3353333 L11.3333333,13.3333333 L14,13.3333333 Z" id="形状结合" fill="#0186FF" opacity="0.600000024"></path>
                    <g id="编组-25">
                        <path d="M9,0.859116756 L15.8388868,4.80754991 C16.0451542,4.92663844 16.1722202,5.14672312 16.1722202,5.38490018 L16.1722202,13.2817665 C16.1722202,13.5199435 16.0451542,13.7400282 15.8388868,13.8591168 L9,17.8075499 C8.79373262,17.9266384 8.53960072,17.9266384 8.33333333,17.8075499 L1.4944465,13.8591168 C1.28817912,13.7400282 1.16111317,13.5199435 1.16111317,13.2817665 L1.16111317,5.38490018 C1.16111317,5.14672312 1.28817912,4.92663844 1.4944465,4.80754991 L8.33333333,0.859116756 C8.53960072,0.740028226 8.79373262,0.740028226 9,0.859116756 Z" id="多边形" fill="#28A1F1"></path>
                        <path d="M9,0.19245009 L15.8388868,4.14088324 C16.0451542,4.25997177 16.1722202,4.48005645 16.1722202,4.71823351 L16.1722202,12.6150998 C16.1722202,12.8532769 16.0451542,13.0733616 15.8388868,13.1924501 L9,17.1408832 C8.79373262,17.2599718 8.53960072,17.2599718 8.33333333,17.1408832 L1.4944465,13.1924501 C1.28817912,13.0733616 1.16111317,12.8532769 1.16111317,12.6150998 L1.16111317,4.71823351 C1.16111317,4.48005645 1.28817912,4.25997177 1.4944465,4.14088324 L8.33333333,0.19245009 C8.53960072,0.0733615598 8.79373262,0.0733615598 9,0.19245009 Z" id="多边形" fill="url(#linearGradient-1)"></path>
                        <path d="M9,1.52578342 L14.6841863,4.80754991 C14.8904537,4.92663844 15.0175196,5.14672312 15.0175196,5.38490018 L15.0175196,11.9484332 C15.0175196,12.1866102 14.8904537,12.4066949 14.6841863,12.5257834 L9,15.8075499 C8.79373262,15.9266384 8.53960072,15.9266384 8.33333333,15.8075499 L2.64914704,12.5257834 C2.44287965,12.4066949 2.31581371,12.1866102 2.31581371,11.9484332 L2.31581371,5.38490018 C2.31581371,5.14672312 2.44287965,4.92663844 2.64914704,4.80754991 L8.33333333,1.52578342 C8.53960072,1.40669489 8.79373262,1.40669489 9,1.52578342 Z" id="多边形" fill="url(#linearGradient-2)"></path>
                    </g>
                </g>
            </g>
        </g>
    </g>
</svg>