<?xml version="1.0" encoding="UTF-8"?>
<svg width="14px" height="14px" viewBox="0 0 14 14" version="1.1" xmlns="http://www.w3.org/2000/svg" xmlns:xlink="http://www.w3.org/1999/xlink">
    <title>编组 2备份</title>
    <g id="【采】竞价大厅3.1" stroke="none" stroke-width="1" fill="none" fill-rule="evenodd">
        <g id="图标补全" transform="translate(-515.000000, -430.000000)">
            <g id="编组-2备份" transform="translate(515.000000, 430.000000)">
                <rect id="矩形" x="0" y="0" width="14" height="14"></rect>
                <g id="编组" transform="translate(1.000000, 1.000000)" fill="#000000" fill-rule="nonzero">
                    <path d="M6,12 C2.68629,12 0,9.31368 0,6 C0,2.68629 2.68629,0 6,0 C9.31368,0 12,2.68629 12,6 C12,9.31368 9.31368,12 6,12 Z M5.17314,3.848754 C5.13372,3.822468 5.0874,3.808446 5.04,3.808446 C4.90746,3.808446 4.8,3.915894 4.8,4.048446 L4.8,7.95156 C4.8,7.99896 4.81404,8.04528 4.84032,8.0847 C4.91382,8.19498 5.06286,8.2248 5.17314,8.15124 L8.10048,6.19968 C8.12682,6.1821 8.14944,6.15948 8.16702,6.13314 C8.24058,6.02286 8.21076,5.87382 8.10048,5.80032 L5.17314,3.848754 Z" id="形状"></path>
                </g>
            </g>
        </g>
    </g>
</svg>