<?xml version="1.0" encoding="UTF-8"?>
<svg width="44px" height="36px" viewBox="0 0 44 36" version="1.1" xmlns="http://www.w3.org/2000/svg" xmlns:xlink="http://www.w3.org/1999/xlink">
    <title>编组</title>
    <g id="【采】竞价大厅" stroke="none" stroke-width="1" fill="none" fill-rule="evenodd">
        <g id="【采】次序-签到" transform="translate(-131, -495)">
            <g id="编组-6" transform="translate(8, 258)">
                <g id="编组-5" transform="translate(115, 231)">
                    <g id="编组" transform="translate(6, 0)">
                        <polygon id="路径" points="0 0 48 0 48 48 0 48"></polygon>
                        <path d="M28,6 C29.1045695,6 30,6.8954305 30,8 L30,38 L34,38 L34,18 L40,18 C41.1045695,18 42,18.8954305 42,20 L42,38 L46,38 L46,42 L2,42 L2,38 L6,38 L6,8 C6,6.8954305 6.8954305,6 8,6 L28,6 Z M22,29 L14,29 L14,33 L22,33 L22,29 Z M14,20 L14,24 L22,24 L22,20 L14,20 Z M14,11 L14,15 L22,15 L22,11 L14,11 Z" id="形状" fill="#E9ECF0" fill-rule="nonzero"></path>
                    </g>
                </g>
            </g>
        </g>
    </g>
</svg>