<?xml version="1.0" encoding="UTF-8"?>
<svg width="52px" height="38px" viewBox="0 0 52 38" version="1.1" xmlns="http://www.w3.org/2000/svg" xmlns:xlink="http://www.w3.org/1999/xlink">
    <title>编组 2</title>
    <g id="页面-1" stroke="none" stroke-width="1" fill="none" fill-rule="evenodd">
        <g id="编组-2">
            <g id="download" fill-rule="nonzero">
                <rect id="矩形-copy-3" fill="#D8D8D8" opacity="0" x="0" y="0" width="36" height="36"></rect>
                <g id="分组-2" transform="translate(3.34, 3.1832)" fill="#C9CDD4">
                    <path d="M3.02514272,11.6915655 C3.53955647,11.7899093 4.03505796,11.4532709 4.12961931,10.9388571 C5.13196963,5.69637582 9.73899868,1.88744458 15.0911712,1.88744458 C18.071745,1.88744458 20.8745434,3.04865798 22.9813704,5.15548489 C25.0881973,7.26231181 26.2494107,10.0651103 26.2494107,13.0456841 C26.2494107,13.7756977 26.177544,14.5057113 26.0375932,15.2168127 C25.935467,15.727444 26.2683229,16.2267279 26.7827367,16.3288542 C26.843256,16.3402016 26.9075577,16.3477665 26.9680769,16.3477665 C27.4106241,16.3477665 27.8077817,16.0338228 27.8947782,15.5837107 C28.0574237,14.7553533 28.1406377,13.9005187 28.1406377,13.0494665 C28.1406377,11.2868429 27.7964344,9.58095615 27.1155927,7.96963072 C26.4574456,6.4150421 25.519397,5.01931655 24.3203591,3.82027861 C23.1213212,2.62124067 21.7255956,1.68319206 20.171007,1.02504506 C18.563464,0.34420332 16.8537948,-3.92047506e-16 15.0911712,-3.92047506e-16 C8.83499216,-3.92047506e-16 3.44499512,4.45194844 2.27243436,10.5870889 C2.17409056,11.0977202 2.51072897,11.5932217 3.02514272,11.6915655 Z" id="路径"></path>
                    <path d="M29.0519817,20.0744082 C29.356822,20.6917959 29.4064471,21.3872441 29.1760446,22.0330174 C28.9456421,22.6787907 28.4777478,23.1968286 27.8574335,23.4842332 L16.7449441,28.6433231 C16.0750045,28.9555652 15.3589845,29.1116862 14.6358751,29.1116862 C14.3274903,29.1116862 14.02265,29.0833005 13.7142652,29.0265293 L13.6823633,29.0194328 L7.34097782,27.6036991 C7.17437909,28.675257 6.24567982,29.4948923 5.12911391,29.4948923 L2.24022114,29.4948923 C1.003137,29.4948923 0,28.4872021 0,27.2524268 L0,17.473574 C0,16.2352505 1.00668165,15.2311085 2.24022114,15.2311085 L5.12911391,15.2311085 C6.33784082,15.2311085 7.32325455,16.1962203 7.36579039,17.3955135 L16.5570774,17.3955135 C17.0462397,17.3955135 17.4432409,17.7929125 17.4432409,18.2825648 C17.4432409,18.772217 17.0462397,19.169616 16.5570774,19.169616 L7.36933505,19.169616 L7.36933505,25.7941146 L14.0510073,27.2879088 C14.7138575,27.4049996 15.3873417,27.3198427 15.9970222,27.0359863 L27.1095115,21.8733481 C27.2938335,21.7881912 27.432075,21.6356184 27.4994234,21.4440153 C27.5667718,21.2524123 27.5525932,21.0430682 27.4639769,20.8621097 C27.2973782,20.5250303 26.9039216,20.3618128 26.5459116,20.4895482 L20.4065714,22.6645978 C20.0450167,22.7958814 19.6657387,22.8597491 19.2793715,22.8597491 L11.6300088,22.8597491 C11.1408466,22.8597491 10.7438454,22.4623502 10.7438454,21.9726979 C10.7438454,21.4830456 11.1408466,21.0856466 11.6300088,21.0856466 L19.2758268,21.0856466 C19.4601488,21.0856466 19.6409262,21.0537128 19.8146142,20.9933933 L25.9539544,18.8183437 C27.1520474,18.3925591 28.4848372,18.9318863 29.0519817,20.0744082 Z M5.54702703,27.2443317 L5.54702703,17.4816691 C5.54702703,17.223079 5.34120757,17.0140815 5.08654961,17.0140815 L2.24345039,17.0140815 C1.98879243,17.0140815 1.78297297,17.223079 1.78297297,17.4816691 L1.78297297,27.2443317 C1.78297297,27.5029218 1.98879243,27.7119193 2.24345039,27.7119193 L5.08654961,27.7119193 C5.34120757,27.7119193 5.54702703,27.5029218 5.54702703,27.2443317 Z" id="合并形状"></path>
                    <path d="M12.4924187,5.8734024 L13.7209211,6.23131256 C13.5016598,6.94068758 13.259831,7.62103252 12.9954276,8.27236777 L12.9954276,15.2467792 L11.8056181,15.2467792 L11.8056181,10.7293726 C11.5670102,11.1485488 11.3155083,11.5515967 11.0511048,11.9385286 C10.9672696,11.4226194 10.8382943,10.8422304 10.6641749,10.197344 C11.3864477,9.06879284 11.9958562,7.62749338 12.4924187,5.8734024 Z M13.4210505,10.9615306 L14.7849784,10.9615306 L14.7849784,8.89145561 L13.7305944,8.89145561 L13.7305944,7.65327993 L14.7849784,7.65327993 L14.7849784,5.91209539 L16.10054,5.91209539 L16.10054,7.65327993 L17.5998934,7.65327993 L17.5998934,5.91209539 L18.915455,5.91209539 L18.915455,7.65327993 L19.9891855,7.65327993 L19.9891855,8.89145561 L18.915455,8.89145561 L18.915455,10.9615306 L20.2600364,10.9615306 L20.2600364,12.1997062 L13.4210505,12.1997062 L13.4210505,10.9615306 Z M16.10054,10.9615306 L17.5998934,10.9615306 L17.5998934,8.89145561 L16.10054,8.89145561 L16.10054,10.9615306 Z M13.440397,14.4922659 C14.1304254,13.8280329 14.7527314,13.105771 15.3073337,12.3254585 L16.4004107,13.050952 C15.8458084,13.7925714 15.1880341,14.5567503 14.4270682,15.3435117 C14.1626648,15.092006 13.8337777,14.8082602 13.440397,14.4922659 Z M18.2189812,12.3641514 C18.8896631,13.0283844 19.5603348,13.7345244 20.2310167,14.4825926 L19.10892,15.3241652 C18.5801131,14.5889947 17.9513583,13.8377133 17.2226367,13.0702985 L18.2189812,12.3641514 Z" id="供"></path>
                </g>
            </g>
            <g id="编组" transform="translate(8, 23)">
                <rect id="矩形" fill="#FFFFFF" x="0" y="0" width="44" height="15" rx="7.5"></rect>
                <text id="未补充单价" font-family="PingFangSC-Regular, PingFang SC" font-size="8" font-weight="normal" fill="#C9CDD4">
                    <tspan x="2" y="10">未补充单价</tspan>
                </text>
            </g>
        </g>
    </g>
</svg>