<?xml version="1.0" encoding="UTF-8"?>
<svg width="16px" height="16px" viewBox="0 0 16 16" version="1.1" xmlns="http://www.w3.org/2000/svg" xmlns:xlink="http://www.w3.org/1999/xlink">
    <title>编组 57</title>
    <g id="【采】竞价大厅" stroke="none" stroke-width="1" fill="none" fill-rule="evenodd">
        <g id="编组-57">
            <rect id="矩形" fill-opacity="0.01" fill="#FFFFFF" x="0" y="0" width="16" height="16"></rect>
            <g id="Icon/all_read">
                <path d="M7.50533333,3.94466667 L9.72866667,2.66666667 L14.1973333,5.23666667 C14.4793333,5.406 14.662,5.71133334 14.662,6.06066667 L14.6666667,10.9093333 C14.6666667,11.4426667 14.222,11.8786667 13.6793333,11.8786667 L12.1973333,11.8786667 L12.1926667,7.51533333 L12.1926667,6.97333333 L13.8073333,5.98333333 L9.72866667,3.63666667 L8.34,4.43466667 L7.50533333,3.94466667 Z M11.21,12.3633333 C11.21,12.8966667 10.7653333,13.3333333 10.222,13.3333333 L2.32066667,13.3333333 C1.778,13.3333333 1.33333333,12.8966667 1.33333333,12.3633333 L1.33333333,7.51533333 C1.33333333,7.166 1.52066666,6.86066666 1.80266667,6.69066667 L6.27133333,4.12133333 L10.7406667,6.69066667 C11.022,6.86066667 11.2046667,7.166 11.2046667,7.51533333 L11.21,12.3633333 Z M6.27133333,9.93933333 L10.3506667,7.43733333 L6.27133333,5.09066667 L2.19266667,7.43733333 L6.27133333,9.93933333 Z" id="icon" fill="#868D9C"></path>
                <rect id="all_read" x="0" y="0" width="16" height="16"></rect>
            </g>
        </g>
    </g>
</svg>