<?xml version="1.0" encoding="UTF-8"?>
<svg width="20px" height="20px" viewBox="0 0 20 20" version="1.1" xmlns="http://www.w3.org/2000/svg" xmlns:xlink="http://www.w3.org/1999/xlink">
    <title>编组 51</title>
    <g id="【采】竞价大厅3.1" stroke="none" stroke-width="1" fill="none" fill-rule="evenodd">
        <g id="图标补全" transform="translate(-200, -325)" fill="#00B8CC">
            <g id="编组-51" transform="translate(200, 325)">
                <rect id="矩形" fill-opacity="0.1" x="0" y="0" width="20" height="20" rx="2"></rect>
                <g id="编组" transform="translate(5, 4.5)" fill-rule="nonzero">
                    <path d="M9.24179391,4.89795567 L9.87260241,5.27646176 C9.99681202,5.35102951 10.0371132,5.5121819 9.96259797,5.63644398 C9.94040081,5.67333429 9.90949272,5.70424239 9.87260241,5.72643954 L4.99998587,8.64995699 L0.127427054,5.72643954 C0.0031702162,5.65187179 -0.0371257532,5.4907194 0.0374314982,5.36645732 C0.0595866724,5.32951453 0.0904947672,5.29860644 0.127427054,5.27646176 L0.758230309,4.89795567 L4.99998587,7.4430195 L9.24179391,4.89795567 Z M9.24179391,7.36430619 L9.87260241,7.74281228 C9.99681202,7.81738002 10.0371132,7.97853242 9.96259797,8.1027945 C9.94040081,8.13968481 9.90949272,8.1705929 9.87260241,8.19279006 L5.26997254,10.9543155 C5.1037825,11.054019 4.89618925,11.054019 4.7299992,10.9543155 L0.127427054,8.19279006 C0.0031702162,8.11822231 -0.0371257532,7.95706992 0.0374314982,7.83280783 C0.0595866724,7.79586505 0.0904947672,7.76495696 0.127427054,7.74281228 L0.758230309,7.36430619 L4.99998587,9.90937002 L9.24179391,7.36430619 Z M5.26997254,0.0747815844 L9.87260241,2.83633852 C9.99681202,2.91089052 10.0371132,3.07205866 9.96259797,3.19631549 C9.94040081,3.23324778 9.90949272,3.26415588 9.87260241,3.28631105 L4.99998587,6.20984424 L0.127427054,3.28631105 C0.0031702162,3.21175905 -0.0371257532,3.05059091 0.0374314982,2.92633407 C0.0595866724,2.88940179 0.0904947672,2.85849369 0.127427054,2.83633852 L4.7299992,0.0747815844 C4.89618925,-0.0249271948 5.1037825,-0.0249271948 5.26997254,0.0747815844 Z" id="形状"></path>
                </g>
            </g>
        </g>
    </g>
</svg>