<svg id="图层_1" data-name="图层 1" xmlns="http://www.w3.org/2000/svg" xmlns:xlink="http://www.w3.org/1999/xlink" viewBox="0 0 650 117.01"><defs><style>.cls-1{fill:#414447;}.cls-2{fill:#26ccdd;}.cls-3{fill:url(#未命名的渐变_5);}</style><linearGradient id="未命名的渐变_5" x1="345.15" y1="382.08" x2="426.85" y2="396.75" gradientUnits="userSpaceOnUse"><stop offset="0.19" stop-color="#fea700"/><stop offset="1" stop-color="#fdaf3c"/></linearGradient></defs><title>甄云LOGO</title><path class="cls-1" d="M625.05,414.4H634s-3-12.77-3-32.65c-4.45,0-7.5.05-8.14.05A175.42,175.42,0,0,0,625.05,414.4Z" transform="translate(-359 -326.46)"/><polygon class="cls-1" points="398.33 8.86 317.49 8.86 313.93 19.82 401.89 19.82 398.33 8.86"/><polygon class="cls-1" points="377.58 67.41 390.05 96.03 329.1 96.03 341.33 57.12 410.2 57.12 406.5 46.16 310.92 46.16 307.27 57.12 329.09 57.12 312.09 108.15 406.5 108.15 390.62 67.41 377.58 67.41"/><polygon class="cls-1" points="454.94 32.96 454.94 18.82 474.75 17.12 470.61 7.01 424.51 11.09 427.21 21.2 444.33 19.73 444.33 32.96 427.43 32.96 423.7 42.64 444.33 42.64 444.33 110 454.94 110 454.94 42.64 474.94 42.64 471.37 32.96 454.94 32.96"/><polygon class="cls-1" points="425.85 105.47 435.7 105.47 440.28 45.4 430.73 45.4 425.85 105.47"/><polygon class="cls-1" points="458.88 45.43 463.7 105.48 473.55 105.44 468.43 45.39 458.88 45.43"/><path class="cls-1" d="M861.1,388.15V376.43s-12.48-6.18-23.4-5.75v9.58S854.86,381.32,861.1,388.15Z" transform="translate(-359 -326.46)"/><path class="cls-1" d="M861.1,363.55V351.84s-12.48-6.19-23.4-5.76v9.58S854.86,356.73,861.1,363.55Z" transform="translate(-359 -326.46)"/><polygon class="cls-1" points="532.89 67.97 518.8 69.33 518.8 7.86 507.46 7.86 507.46 70.43 476.27 73.65 477.38 83.51 507.46 80.39 507.46 109.64 518.8 109.64 518.8 79.28 531.74 78.02 532.89 67.97"/><path class="cls-1" d="M936.62,364.73l3.62-9.67H928.39l0-21.4H918v21.4h-9l-3.48,9.67H918V389l-13.12,2.75-1.24,10.11L918,398.91v14.62c0,4.59-1.05,11.17-7.19,13.7v9c9,0,17.56-10,17.56-21.63l0-17.17,9.15-2.24L940.24,385l-11.88,2.59,0-22.84Z" transform="translate(-359 -326.46)"/><path class="cls-1" d="M1009,436.27c-1.52-1-24.57-23.14-26.23-26.91,2.62-3,21.66-28.15,21.66-28.15l-3.62-9.75H978.86V356h27.5l-3.59-9.68H978.86v-12.7H967.55v12.7h-22L942,356h25.56v15.42H948.69l-3.59,9.6H991s-3.42,8.46-15.71,21.22l-15.25-18.35h-15l22.65,26.14c-7.42,7.51-18.05,16.55-29.59,25.81h16.69a231.66,231.66,0,0,0,20.38-18.46l17.16,18.85Z" transform="translate(-359 -326.46)"/><path class="cls-2" d="M442,372.72l16.26-9.37a2.22,2.22,0,0,1,3.34,1.93v39.37a2.23,2.23,0,0,1-3.34,1.93l-36.93-21.35a.92.92,0,0,0-.91,0l-20.67,11.92,79.67,46a2.23,2.23,0,0,0,3.34-1.93V328.69a2.22,2.22,0,0,0-3.34-1.92l-36.31,21a2.23,2.23,0,0,0-1.11,1.92Z" transform="translate(-359 -326.46)"/><path class="cls-3" d="M399.76,397.22l-16.26,9.37a2.23,2.23,0,0,1-3.34-1.93V365.28a2.22,2.22,0,0,1,3.34-1.92l36.93,21.34a.9.9,0,0,0,.91,0L442,372.78l-79.67-46a2.22,2.22,0,0,0-3.34,1.92V441.24a2.23,2.23,0,0,0,3.34,1.93l36.3-21a2.23,2.23,0,0,0,1.12-1.93Z" transform="translate(-359 -326.46)"/><path class="cls-1" d="M597.18,425l-18.41.14V411.86H598l-3.66-10H578.77v-9.56H593a6.83,6.83,0,0,0,7-6.67V354.14H584.27v-9.56h18.79l-4-10.32H548l-3.85,10.32h17.3v9.56H545.89v38.14h22.76v9.57H551.56l-3.67,10h20.76v13.28H547.89l-3.54,10h57.76Zm-12.91-63.09h7v23.17h-7Zm-22.82,23.17h-6.83V361.91h6.83Zm15.7,0h-8.58V361.91h8.58Zm0-30.94h-8.58v-9.56h8.58Z" transform="translate(-359 -326.46)"/><path class="cls-1" d="M647.69,358.12h-31l.49-13.54h34l-3.49-10.32H599v10.32h8.06l-2.89,80.56H604v10h23.25l-3.9-10.07h-9.06l2-56.64H638c-.08,17.18.11,51.36,2.66,67.23h10.47s-3.49-15-3.49-38.38C647.68,397,647.69,358.12,647.69,358.12Z" transform="translate(-359 -326.46)"/></svg>