<?xml version="1.0" encoding="UTF-8"?>
<svg width="262px" height="134px" viewBox="0 0 262 134" version="1.1" xmlns="http://www.w3.org/2000/svg" xmlns:xlink="http://www.w3.org/1999/xlink">
    <title>暂未选择采买组织</title>
    <defs>
        <path d="M2.91111111,0 L84.4222222,0 C86.0299845,0 87.3333333,1.30334884 87.3333333,2.91111111 L87.3333333,46.5777778 C87.3333333,48.18554 86.0299845,49.4888889 84.4222222,49.4888889 L2.91111111,49.4888889 C1.30334884,49.4888889 0,48.18554 0,46.5777778 L0,2.91111111 C0,1.30334884 1.30334884,0 2.91111111,0 Z" id="path-1"></path>
        <filter x="-12.0%" y="-15.2%" width="124.0%" height="142.4%" filterUnits="objectBoundingBox" id="filter-2">
            <feOffset dx="0" dy="3" in="SourceAlpha" result="shadowOffsetOuter1"></feOffset>
            <feGaussianBlur stdDeviation="3" in="shadowOffsetOuter1" result="shadowBlurOuter1"></feGaussianBlur>
            <feColorMatrix values="0 0 0 0 0.11372549   0 0 0 0 0.129411765   0 0 0 0 0.160784314  0 0 0 0.08 0" type="matrix" in="shadowBlurOuter1" result="shadowMatrixOuter1"></feColorMatrix>
            <feOffset dx="0" dy="2" in="SourceAlpha" result="shadowOffsetOuter2"></feOffset>
            <feGaussianBlur stdDeviation="2" in="shadowOffsetOuter2" result="shadowBlurOuter2"></feGaussianBlur>
            <feColorMatrix values="0 0 0 0 0.11372549   0 0 0 0 0.129411765   0 0 0 0 0.160784314  0 0 0 0.12 0" type="matrix" in="shadowBlurOuter2" result="shadowMatrixOuter2"></feColorMatrix>
            <feMerge>
                <feMergeNode in="shadowMatrixOuter1"></feMergeNode>
                <feMergeNode in="shadowMatrixOuter2"></feMergeNode>
            </feMerge>
        </filter>
    </defs>
    <g id="首页配置" stroke="none" stroke-width="1" fill="none" fill-rule="evenodd">
        <g id="首页配置_采购组织层级_空" transform="translate(-820.000000, -342.000000)">
            <g id="编组-5" transform="translate(820.000000, 345.000000)">
                <g id="编组-3" transform="translate(49.488889, 0.000000)">
                    <g id="编组" transform="translate(0.000000, 14.555556)">
                        <g id="背景/1">
                            <path d="M2.91111111,0 L160.111111,0 C161.718873,0 163.022222,1.30334884 163.022222,2.91111111 L163.022222,113.533333 C163.022222,115.141096 161.718873,116.444444 160.111111,116.444444 L2.91111111,116.444444 C1.30334884,116.444444 0,115.141096 0,113.533333 L0,2.91111111 C0,1.30334884 1.30334884,0 2.91111111,0 Z" id="矩形" fill="#F1F4F8"></path>
                            <path d="M2.91111111,0 L160.111111,0 C161.718873,0 163.022222,1.30334884 163.022222,2.91111111 L163.022222,11.6444444 L0,11.6444444 L0,2.91111111 C0,1.30334884 1.30334884,0 2.91111111,0 Z" id="矩形" fill="#DBDEE3"></path>
                            <circle id="椭圆形" fill="#FFFFFF" cx="8.73333333" cy="5.82222222" r="2.91111111"></circle>
                            <circle id="椭圆形备份" fill="#FFFFFF" cx="20.3777778" cy="5.82222222" r="2.91111111"></circle>
                            <circle id="椭圆形备份-2" fill="#FFFFFF" cx="32.0222222" cy="5.82222222" r="2.91111111"></circle>
                        </g>
                        <path d="M8.73333333,17.4666667 L154.288889,17.4666667 C155.896651,17.4666667 157.2,18.7700155 157.2,20.3777778 L157.2,107.711111 C157.2,109.318873 155.896651,110.622222 154.288889,110.622222 L8.73333333,110.622222 C7.12557106,110.622222 5.82222222,109.318873 5.82222222,107.711111 L5.82222222,20.3777778 C5.82222222,18.7700155 7.12557106,17.4666667 8.73333333,17.4666667 Z" id="矩形" fill="#FFFFFF"></path>
                        <g id="元素/图片/灰色" transform="translate(43.666667, 23.288889)">
                            <path d="M1.27904012,0 L71.6262465,0 C72.3326409,0 72.9052866,0.572201929 72.9052866,1.27804878 L72.9052866,51.1219512 C72.9052866,51.8277981 72.3326409,52.4 71.6262465,52.4 L1.27904012,52.4 C0.572645766,52.4 0,51.8277981 0,51.1219512 L0,1.27804878 C0,0.572201929 0.572645766,0 1.27904012,0 Z" id="矩形" fill="#EFF3F6"></path>
                            <ellipse id="椭圆形" fill="#FFFFFF" cx="11.7169211" cy="11.502439" rx="5.20752047" ry="5.11219512"></ellipse>
                            <path d="M52.0752047,16.6146341 L72.9052866,38.3414634 L72.9052866,51.1219512 C72.9052866,51.8277981 72.3224151,52.4 71.6034065,52.4 L15.6225614,52.4 L52.0752047,16.6146341 Z" id="路径" fill="#E2E5E9"></path>
                            <g id="路径-2" transform="translate(0.000000, 20.448780)" fill="#E9ECF0">
                                <path d="M23.4338421,0 L55.9808451,31.9512195 L1.30188012,31.9512195 C0.582871583,31.9512195 0,31.3790176 0,30.6731707 L0,23.004878 L23.4338421,0 Z" id="路径"></path>
                            </g>
                        </g>
                        <path d="M13.1,23.1069444 L36.3888889,23.1069444 C37.19277,23.1069444 37.8444444,23.7586189 37.8444444,24.5625 L37.8444444,27.6555556 C37.8444444,28.4594367 37.19277,29.1111111 36.3888889,29.1111111 L13.1,29.1111111 C12.2961189,29.1111111 11.6444444,28.4594367 11.6444444,27.6555556 L11.6444444,24.5625 C11.6444444,23.7586189 12.2961189,23.1069444 13.1,23.1069444 Z" id="矩形" fill="currentColor"></path>
                        <path d="M13.1,23.1069444 L36.3888889,23.1069444 C37.19277,23.1069444 37.8444444,23.7586189 37.8444444,24.5625 L37.8444444,27.6555556 C37.8444444,28.4594367 37.19277,29.1111111 36.3888889,29.1111111 L13.1,29.1111111 C12.2961189,29.1111111 11.6444444,28.4594367 11.6444444,27.6555556 L11.6444444,24.5625 C11.6444444,23.7586189 12.2961189,23.1069444 13.1,23.1069444 Z" id="矩形" fill-opacity="0.8" fill="#FFFFFF"></path>
                        <path d="M13.1,34.9333333 L30.5666667,34.9333333 C31.3705478,34.9333333 32.0222222,35.5850078 32.0222222,36.3888889 L32.0222222,39.3 C32.0222222,40.1038811 31.3705478,40.7555556 30.5666667,40.7555556 L13.1,40.7555556 C12.2961189,40.7555556 11.6444444,40.1038811 11.6444444,39.3 L11.6444444,36.3888889 C11.6444444,35.5850078 12.2961189,34.9333333 13.1,34.9333333 Z" id="矩形备份" fill="#F1F4F8"></path>
                        <path d="M129.544444,58.2222222 L144.1,58.2222222 C144.903881,58.2222222 145.555556,58.8738966 145.555556,59.6777778 L145.555556,62.5888889 C145.555556,63.39277 144.903881,64.0444444 144.1,64.0444444 L129.544444,64.0444444 C128.740563,64.0444444 128.088889,63.39277 128.088889,62.5888889 L128.088889,59.6777778 C128.088889,58.8738966 128.740563,58.2222222 129.544444,58.2222222 Z" id="矩形备份-5" fill="#F1F4F8"></path>
                        <path d="M13.1,46.5777778 L30.5666667,46.5777778 C31.3705478,46.5777778 32.0222222,47.2294522 32.0222222,48.0333333 L32.0222222,50.9444444 C32.0222222,51.7483256 31.3705478,52.4 30.5666667,52.4 L13.1,52.4 C12.2961189,52.4 11.6444444,51.7483256 11.6444444,50.9444444 L11.6444444,48.0333333 C11.6444444,47.2294522 12.2961189,46.5777778 13.1,46.5777778 Z" id="矩形备份-2" fill="#F1F4F8"></path>
                        <path d="M13.1,58.2222222 L30.5666667,58.2222222 C31.3705478,58.2222222 32.0222222,58.8738966 32.0222222,59.6777778 L32.0222222,62.5888889 C32.0222222,63.39277 31.3705478,64.0444444 30.5666667,64.0444444 L13.1,64.0444444 C12.2961189,64.0444444 11.6444444,63.39277 11.6444444,62.5888889 L11.6444444,59.6777778 C11.6444444,58.8738966 12.2961189,58.2222222 13.1,58.2222222 Z" id="矩形备份-3" fill="#F1F4F8"></path>
                        <path d="M13.1,69.8666667 L30.5666667,69.8666667 C31.3705478,69.8666667 32.0222222,70.5183411 32.0222222,71.3222222 L32.0222222,74.2333333 C32.0222222,75.0372145 31.3705478,75.6888889 30.5666667,75.6888889 L13.1,75.6888889 C12.2961189,75.6888889 11.6444444,75.0372145 11.6444444,74.2333333 L11.6444444,71.3222222 C11.6444444,70.5183411 12.2961189,69.8666667 13.1,69.8666667 Z" id="矩形备份-4" fill="#F1F4F8"></path>
                        <path d="M147.011111,69.8666667 L149.922222,69.8666667 C150.726103,69.8666667 151.377778,70.5183411 151.377778,71.3222222 L151.377778,74.2333333 C151.377778,75.0372145 150.726103,75.6888889 149.922222,75.6888889 L147.011111,75.6888889 C146.20723,75.6888889 145.555556,75.0372145 145.555556,74.2333333 L145.555556,71.3222222 C145.555556,70.5183411 146.20723,69.8666667 147.011111,69.8666667 Z" id="矩形备份-6" fill="#F1F4F8"></path>
                        <path d="M135.366667,69.8666667 L138.277778,69.8666667 C139.081659,69.8666667 139.733333,70.5183411 139.733333,71.3222222 L139.733333,74.2333333 C139.733333,75.0372145 139.081659,75.6888889 138.277778,75.6888889 L135.366667,75.6888889 C134.562786,75.6888889 133.911111,75.0372145 133.911111,74.2333333 L133.911111,71.3222222 C133.911111,70.5183411 134.562786,69.8666667 135.366667,69.8666667 Z" id="矩形备份-7" fill="#F1F4F8"></path>
                        <path d="M123.722222,69.8666667 L126.633333,69.8666667 C127.437214,69.8666667 128.088889,70.5183411 128.088889,71.3222222 L128.088889,74.2333333 C128.088889,75.0372145 127.437214,75.6888889 126.633333,75.6888889 L123.722222,75.6888889 C122.918341,75.6888889 122.266667,75.0372145 122.266667,74.2333333 L122.266667,71.3222222 C122.266667,70.5183411 122.918341,69.8666667 123.722222,69.8666667 Z" id="矩形备份-8" fill="#F1F4F8"></path>
                        <g id="元素/头像/灰色" transform="translate(122.266667, 23.288889)">
                            <circle id="椭圆形" fill="#EFF3F6" cx="14.5555556" cy="14.5555556" r="14.5555556"></circle>
                            <path d="M14.5555556,14.5555556 C19.3300109,14.5555556 23.3580367,18.9985592 24.6171476,25.0728185 C22.0041155,27.5743364 18.459302,29.1111111 14.5555556,29.1111111 C10.6518555,29.1111111 7.10707992,27.574373 4.4931829,25.0728508 C5.75307437,18.9985592 9.7811002,14.5555556 14.5555556,14.5555556 Z" id="形状结合" fill="#E2E5E9"></path>
                            <circle id="椭圆形" fill="#FFFFFF" cx="14.5555556" cy="12.2573099" r="7.15009747"></circle>
                        </g>
                        <path d="M13.1,84.4222222 L30.5666667,84.4222222 C31.3705478,84.4222222 32.0222222,85.0738966 32.0222222,85.8777778 L32.0222222,103.344444 C32.0222222,104.148326 31.3705478,104.8 30.5666667,104.8 L13.1,104.8 C12.2961189,104.8 11.6444444,104.148326 11.6444444,103.344444 L11.6444444,85.8777778 C11.6444444,85.0738966 12.2961189,84.4222222 13.1,84.4222222 Z" id="矩形" fill="#F1F4F8"></path>
                        <path d="M42.2111111,84.4222222 L59.6777778,84.4222222 C60.4816589,84.4222222 61.1333333,85.0738966 61.1333333,85.8777778 L61.1333333,103.344444 C61.1333333,104.148326 60.4816589,104.8 59.6777778,104.8 L42.2111111,104.8 C41.40723,104.8 40.7555556,104.148326 40.7555556,103.344444 L40.7555556,85.8777778 C40.7555556,85.0738966 41.40723,84.4222222 42.2111111,84.4222222 Z" id="矩形备份-9" fill="#F1F4F8"></path>
                        <path d="M103.344444,84.4222222 L120.811111,84.4222222 C121.614992,84.4222222 122.266667,85.0738966 122.266667,85.8777778 L122.266667,103.344444 C122.266667,104.148326 121.614992,104.8 120.811111,104.8 L103.344444,104.8 C102.540563,104.8 101.888889,104.148326 101.888889,103.344444 L101.888889,85.8777778 C101.888889,85.0738966 102.540563,84.4222222 103.344444,84.4222222 Z" id="矩形备份-10" fill="#F1F4F8"></path>
                        <path d="M132.455556,84.4222222 L149.922222,84.4222222 C150.726103,84.4222222 151.377778,85.0738966 151.377778,85.8777778 L151.377778,103.344444 C151.377778,104.148326 150.726103,104.8 149.922222,104.8 L132.455556,104.8 C131.651674,104.8 131,104.148326 131,103.344444 L131,85.8777778 C131,85.0738966 131.651674,84.4222222 132.455556,84.4222222 Z" id="矩形备份-12" fill="#F1F4F8"></path>
                        <path d="M71.3222222,84.4222222 L91.7,84.4222222 C92.5038811,84.4222222 93.1555556,85.0738966 93.1555556,85.8777778 L93.1555556,103.344444 C93.1555556,104.148326 92.5038811,104.8 91.7,104.8 L71.3222222,104.8 C70.5183411,104.8 69.8666667,104.148326 69.8666667,103.344444 L69.8666667,85.8777778 C69.8666667,85.0738966 70.5183411,84.4222222 71.3222222,84.4222222 Z" id="矩形备份-11" fill="#F1F4F8"></path>
                        <path d="M16.0111111,98.9777778 L27.6555556,98.9777778 C28.4594367,98.9777778 29.1111111,99.6294522 29.1111111,100.433333 C29.1111111,101.237214 28.4594367,101.888889 27.6555556,101.888889 L16.0111111,101.888889 C15.20723,101.888889 14.5555556,101.237214 14.5555556,100.433333 C14.5555556,99.6294522 15.20723,98.9777778 16.0111111,98.9777778 Z" id="矩形" fill="#E9ECF0"></path>
                        <path d="M45.1222222,98.9777778 L56.7666667,98.9777778 C57.5705478,98.9777778 58.2222222,99.6294522 58.2222222,100.433333 C58.2222222,101.237214 57.5705478,101.888889 56.7666667,101.888889 L45.1222222,101.888889 C44.3183411,101.888889 43.6666667,101.237214 43.6666667,100.433333 C43.6666667,99.6294522 44.3183411,98.9777778 45.1222222,98.9777778 Z" id="矩形备份-14" fill="#E9ECF0"></path>
                        <path d="M16.0111111,93.1555556 L21.8333333,93.1555556 C22.6372145,93.1555556 23.2888889,93.80723 23.2888889,94.6111111 C23.2888889,95.4149922 22.6372145,96.0666667 21.8333333,96.0666667 L16.0111111,96.0666667 C15.20723,96.0666667 14.5555556,95.4149922 14.5555556,94.6111111 C14.5555556,93.80723 15.20723,93.1555556 16.0111111,93.1555556 Z" id="矩形备份-13" fill="#E2E5E9"></path>
                        <path d="M45.1222222,93.1555556 L50.9444444,93.1555556 C51.7483256,93.1555556 52.4,93.80723 52.4,94.6111111 C52.4,95.4149922 51.7483256,96.0666667 50.9444444,96.0666667 L45.1222222,96.0666667 C44.3183411,96.0666667 43.6666667,95.4149922 43.6666667,94.6111111 C43.6666667,93.80723 44.3183411,93.1555556 45.1222222,93.1555556 Z" id="矩形备份-15" fill="#E2E5E9"></path>
                        <path d="M74.2333333,98.9777778 L85.8777778,98.9777778 C86.6816589,98.9777778 87.3333333,99.6294522 87.3333333,100.433333 C87.3333333,101.237214 86.6816589,101.888889 85.8777778,101.888889 L74.2333333,101.888889 C73.4294522,101.888889 72.7777778,101.237214 72.7777778,100.433333 C72.7777778,99.6294522 73.4294522,98.9777778 74.2333333,98.9777778 Z" id="矩形备份-17" fill="#E9ECF0"></path>
                        <path d="M74.2333333,93.1555556 L80.0555556,93.1555556 C80.8594367,93.1555556 81.5111111,93.80723 81.5111111,94.6111111 C81.5111111,95.4149922 80.8594367,96.0666667 80.0555556,96.0666667 L74.2333333,96.0666667 C73.4294522,96.0666667 72.7777778,95.4149922 72.7777778,94.6111111 C72.7777778,93.80723 73.4294522,93.1555556 74.2333333,93.1555556 Z" id="矩形备份-16" fill="#E2E5E9"></path>
                        <path d="M106.255556,98.9777778 L117.9,98.9777778 C118.703881,98.9777778 119.355556,99.6294522 119.355556,100.433333 C119.355556,101.237214 118.703881,101.888889 117.9,101.888889 L106.255556,101.888889 C105.451674,101.888889 104.8,101.237214 104.8,100.433333 C104.8,99.6294522 105.451674,98.9777778 106.255556,98.9777778 Z" id="矩形备份-19" fill="#E9ECF0"></path>
                        <path d="M135.366667,98.9777778 L147.011111,98.9777778 C147.814992,98.9777778 148.466667,99.6294522 148.466667,100.433333 C148.466667,101.237214 147.814992,101.888889 147.011111,101.888889 L135.366667,101.888889 C134.562786,101.888889 133.911111,101.237214 133.911111,100.433333 C133.911111,99.6294522 134.562786,98.9777778 135.366667,98.9777778 Z" id="矩形备份-20" fill="#E9ECF0"></path>
                        <path d="M106.255556,93.1555556 L112.077778,93.1555556 C112.881659,93.1555556 113.533333,93.80723 113.533333,94.6111111 C113.533333,95.4149922 112.881659,96.0666667 112.077778,96.0666667 L106.255556,96.0666667 C105.451674,96.0666667 104.8,95.4149922 104.8,94.6111111 C104.8,93.80723 105.451674,93.1555556 106.255556,93.1555556 Z" id="矩形备份-18" fill="#E2E5E9"></path>
                        <path d="M135.366667,93.1555556 L141.188889,93.1555556 C141.99277,93.1555556 142.644444,93.80723 142.644444,94.6111111 C142.644444,95.4149922 141.99277,96.0666667 141.188889,96.0666667 L135.366667,96.0666667 C134.562786,96.0666667 133.911111,95.4149922 133.911111,94.6111111 C133.911111,93.80723 134.562786,93.1555556 135.366667,93.1555556 Z" id="矩形备份-21" fill="#E2E5E9"></path>
                    </g>
                    <g id="编组-2" transform="translate(107.711111, 0.000000)">
                        <g id="矩形">
                            <use fill="black" fill-opacity="1" filter="url(#filter-2)" xlink:href="#path-1"></use>
                            <use fill="#FFFFFF" fill-rule="evenodd" xlink:href="#path-1"></use>
                        </g>
                        <polygon id="路径-5" fill="#F1F4F8" fill-rule="nonzero" points="35.2972222 5.82222222 35.2972222 43.6666667 34.5694444 43.6666667 34.5694444 5.82222222"></polygon>
                        <path d="M7.27777778,5.82222222 L16.0111111,5.82222222 C16.8149922,5.82222222 17.4666667,6.47389664 17.4666667,7.27777778 C17.4666667,8.08165891 16.8149922,8.73333333 16.0111111,8.73333333 L7.27777778,8.73333333 C6.47389664,8.73333333 5.82222222,8.08165891 5.82222222,7.27777778 C5.82222222,6.47389664 6.47389664,5.82222222 7.27777778,5.82222222 Z" id="矩形" fill="currentColor"></path>
                        <path d="M7.27777778,5.82222222 L16.0111111,5.82222222 C16.8149922,5.82222222 17.4666667,6.47389664 17.4666667,7.27777778 C17.4666667,8.08165891 16.8149922,8.73333333 16.0111111,8.73333333 L7.27777778,8.73333333 C6.47389664,8.73333333 5.82222222,8.08165891 5.82222222,7.27777778 C5.82222222,6.47389664 6.47389664,5.82222222 7.27777778,5.82222222 Z" id="矩形" fill-opacity="0.8" fill="#FFFFFF"></path>
                        <path d="M7.27777778,23.2888889 L16.0111111,23.2888889 C16.8149922,23.2888889 17.4666667,23.9405633 17.4666667,24.7444444 C17.4666667,25.5483256 16.8149922,26.2 16.0111111,26.2 L7.27777778,26.2 C6.47389664,26.2 5.82222222,25.5483256 5.82222222,24.7444444 C5.82222222,23.9405633 6.47389664,23.2888889 7.27777778,23.2888889 Z" id="矩形备份-24" fill="currentColor"></path>
                        <path d="M7.27777778,23.2888889 L16.0111111,23.2888889 C16.8149922,23.2888889 17.4666667,23.9405633 17.4666667,24.7444444 C17.4666667,25.5483256 16.8149922,26.2 16.0111111,26.2 L7.27777778,26.2 C6.47389664,26.2 5.82222222,25.5483256 5.82222222,24.7444444 C5.82222222,23.9405633 6.47389664,23.2888889 7.27777778,23.2888889 Z" id="矩形备份-24" fill-opacity="0.8" fill="#FFFFFF"></path>
                        <path d="M7.27777778,11.6444444 L27.6555556,11.6444444 C28.4594367,11.6444444 29.1111111,12.2961189 29.1111111,13.1 L29.1111111,18.9222222 C29.1111111,19.7261034 28.4594367,20.3777778 27.6555556,20.3777778 L7.27777778,20.3777778 C6.47389664,20.3777778 5.82222222,19.7261034 5.82222222,18.9222222 L5.82222222,13.1 C5.82222222,12.2961189 6.47389664,11.6444444 7.27777778,11.6444444 Z" id="矩形备份-23" fill="#F1F4F8"></path>
                        <path d="M7.27777778,29.1111111 L27.6555556,29.1111111 C28.4594367,29.1111111 29.1111111,29.7627855 29.1111111,30.5666667 L29.1111111,42.2111111 C29.1111111,43.0149922 28.4594367,43.6666667 27.6555556,43.6666667 L7.27777778,43.6666667 C6.47389664,43.6666667 5.82222222,43.0149922 5.82222222,42.2111111 L5.82222222,30.5666667 C5.82222222,29.7627855 6.47389664,29.1111111 7.27777778,29.1111111 Z" id="矩形备份-25" fill="#F1F4F8"></path>
                    </g>
                    <path d="M149.922222,5.82222222 L187.766667,5.82222222 C188.570548,5.82222222 189.222222,6.47389664 189.222222,7.27777778 L189.222222,42.2111111 C189.222222,43.0149922 188.570548,43.6666667 187.766667,43.6666667 L149.922222,43.6666667 C149.118341,43.6666667 148.466667,43.0149922 148.466667,42.2111111 L148.466667,7.27777778 C148.466667,6.47389664 149.118341,5.82222222 149.922222,5.82222222 Z" id="矩形" fill="currentColor"></path>
                    <path d="M149.922222,5.82222222 L187.766667,5.82222222 C188.570548,5.82222222 189.222222,6.47389664 189.222222,7.27777778 L189.222222,42.2111111 C189.222222,43.0149922 188.570548,43.6666667 187.766667,43.6666667 L149.922222,43.6666667 C149.118341,43.6666667 148.466667,43.0149922 148.466667,42.2111111 L148.466667,7.27777778 C148.466667,6.47389664 149.118341,5.82222222 149.922222,5.82222222 Z" id="矩形" fill-opacity="0.8" fill="#FFFFFF"></path>
                    <circle id="椭圆形" fill="#FFFFFF" cx="157.2" cy="14.5555556" r="2.91111111"></circle>
                    <path d="M186.311111,26.2 L189.222222,29.1111111 L189.222222,40.7555556 C189.222222,41.5171414 189.299479,42.7054266 188.820751,43.2242242 C188.288851,43.8006455 187.157288,43.6666667 186.311111,43.6666667 L151.377778,43.6666667 C150.592146,43.6666667 149.442787,43.7869844 148.919085,43.2811171 C148.371051,42.7517479 148.466667,41.5776864 148.466667,40.7555556 L148.466667,34.9333333 L165.933333,26.2 L171.755556,32.0222222 L186.311111,26.2 Z" id="路径" fill="currentColor"></path>
                    <path d="M186.311111,26.2 L189.222222,29.1111111 L189.222222,40.7555556 C189.222222,41.5171414 189.299479,42.7054266 188.820751,43.2242242 C188.288851,43.8006455 187.157288,43.6666667 186.311111,43.6666667 L151.377778,43.6666667 C150.592146,43.6666667 149.442787,43.7869844 148.919085,43.2811171 C148.371051,42.7517479 148.466667,41.5776864 148.466667,40.7555556 L148.466667,34.9333333 L165.933333,26.2 L171.755556,32.0222222 L186.311111,26.2 Z" id="路径" fill-opacity="0.4" fill="#FFFFFF"></path>
                </g>
            </g>
        </g>
    </g>
</svg>

