<?xml version="1.0" encoding="UTF-8"?>
<svg width="16px" height="16px" viewBox="0 0 16 16" version="1.1" xmlns="http://www.w3.org/2000/svg" xmlns:xlink="http://www.w3.org/1999/xlink">
    <title>congzhu16</title>
    <defs>
        <rect id="path-1" x="0" y="0" width="16" height="16"></rect>
    </defs>
    <g id="页面-1" stroke="none" stroke-width="1" fill="none" fill-rule="evenodd">
        <g id="3-组合详情" transform="translate(-418.000000, -349.000000)">
            <g id="编组-13" transform="translate(383.000000, 237.000000)">
                <g id="编组-22备份" transform="translate(27.000000, 100.000000)">
                    <g id="congzhu16" transform="translate(8.000000, 12.000000)">
                        <mask id="mask-2" fill="white">
                            <use xlink:href="#path-1"></use>
                        </mask>
                        <use id="矩形" fill-opacity="0.01" fill="#FFFFFF" xlink:href="#path-1"></use>
                        <path d="M3.42608546,7.42857143 C3.70660839,7.42735649 3.94079819,7.62848255 3.99034144,7.89484005 L3.99999471,7.99751403 L4.01828583,12.0000001 L10.2848571,11.9998571 L10.2857143,10.7857143 C10.2857143,10.5095719 10.5095719,10.2857143 10.7857143,10.2857143 L14.3571429,10.2857143 C14.6332852,10.2857143 14.8571429,10.5095719 14.8571429,10.7857143 L14.8571429,14.3571429 C14.8571429,14.6332852 14.6332852,14.8571429 14.3571429,14.8571429 L10.7857143,14.8571429 C10.5095719,14.8571429 10.2857143,14.6332852 10.2857143,14.3571429 L10.2848571,13.1428571 L3.37734138,13.1428573 C3.10204835,13.1428573 2.87854411,12.9203235 2.87734612,12.6450331 L2.85714286,8.0024862 C2.85577536,7.6868979 3.11049716,7.42994998 3.42608546,7.42857143 Z M5.21428571,1.14285714 C5.49042809,1.14285714 5.71428571,1.36671477 5.71428571,1.64285714 L5.71385714,2.85685714 L12.6226587,2.85714286 C12.8979518,2.85714286 13.121456,3.07967658 13.122654,3.354967 L13.1428573,7.99751392 C13.1442248,8.31310222 12.889503,8.57005014 12.5739147,8.57142869 C12.2933917,8.57264363 12.0592019,8.37151756 12.0096587,8.10516007 L12.0000054,8.00248608 L11.9817143,4 L5.71385714,3.99985714 L5.71428571,5.21428571 C5.71428571,5.49042809 5.49042809,5.71428571 5.21428571,5.71428571 L1.64285714,5.71428571 C1.36671477,5.71428571 1.14285714,5.49042809 1.14285714,5.21428571 L1.14285714,1.64285714 C1.14285714,1.36671477 1.36671477,1.14285714 1.64285714,1.14285714 L5.21428571,1.14285714 Z" id="矩形-2" fill="#6E7D96" mask="url(#mask-2)"></path>
                    </g>
                </g>
            </g>
        </g>
    </g>
</svg>