<?xml version="1.0" encoding="UTF-8"?>
<svg width="16px" height="16px" viewBox="0 0 16 16" version="1.1" xmlns="http://www.w3.org/2000/svg" xmlns:xlink="http://www.w3.org/1999/xlink">
    <title>zhucong</title>
    <defs>
        <rect id="path-1" x="0" y="0" width="16" height="16"></rect>
    </defs>
    <g id="页面-1" stroke="none" stroke-width="1" fill="none" fill-rule="evenodd">
        <g id="3-组合详情" transform="translate(-418.000000, -505.000000)">
            <g id="编组-13" transform="translate(383.000000, 237.000000)">
                <g id="编组-22备份-4" transform="translate(27.000000, 256.000000)">
                    <g id="zhucong" transform="translate(8.000000, 12.000000)">
                        <mask id="mask-2" fill="white">
                            <use xlink:href="#path-1"></use>
                        </mask>
                        <use id="矩形" fill-opacity="0.01" fill="#FFFFFF" xlink:href="#path-1"></use>
                        <path d="M9.37012987,2.28571429 C9.64627225,2.28571429 9.87012987,2.50957191 9.87012987,2.78571429 L9.87012987,5.52597403 C9.87012987,5.8021164 9.64627225,6.02597403 9.37012987,6.02597403 L8.62244071,6.02571429 L8.62244071,7.27271429 L12.987013,7.27272727 C13.3312944,7.27272727 13.6103896,7.55182249 13.6103896,7.8961039 L13.6094407,9.96971429 L14.3767264,9.969967 C14.6528688,9.969967 14.8767264,10.1938246 14.8767264,10.469967 L14.8767264,13.2102267 C14.8767264,13.4863691 14.6528688,13.7102267 14.3767264,13.7102267 L11.6364667,13.7102267 C11.3603243,13.7102267 11.1364667,13.4863691 11.1364667,13.2102267 L11.1364667,10.469967 C11.1364667,10.1938246 11.3603243,9.969967 11.6364667,9.969967 L12.3634407,9.96971429 L12.3634407,8.51871429 L8.62244071,8.51871429 L8.62244071,9.96971429 L9.38971344,9.969967 C9.66585581,9.969967 9.88971344,10.1938246 9.88971344,10.469967 L9.88971344,13.2102267 C9.88971344,13.4863691 9.66585581,13.7102267 9.38971344,13.7102267 L6.6494537,13.7102267 C6.37331132,13.7102267 6.1494537,13.4863691 6.1494537,13.2102267 L6.1494537,10.469967 C6.1494537,10.1938246 6.37331132,9.969967 6.6494537,9.969967 L7.37644071,9.96971429 L7.37644071,8.51871429 L3.63544071,8.51871429 L3.63544071,9.96971429 L4.40270045,9.969967 C4.67884282,9.969967 4.90270045,10.1938246 4.90270045,10.469967 L4.90270045,13.2102267 C4.90270045,13.4863691 4.67884282,13.7102267 4.40270045,13.7102267 L1.66244071,13.7102267 C1.38629833,13.7102267 1.16244071,13.4863691 1.16244071,13.2102267 L1.16244071,10.469967 C1.16244071,10.1938246 1.38629833,9.969967 1.66244071,9.969967 L2.38944071,9.96971429 L2.38961039,7.8961039 C2.38961039,7.55182249 2.66870561,7.27272727 3.01298701,7.27272727 L7.37644071,7.27271429 L7.37644071,6.02571429 L6.62987013,6.02597403 C6.35372775,6.02597403 6.12987013,5.8021164 6.12987013,5.52597403 L6.12987013,2.78571429 C6.12987013,2.50957191 6.35372775,2.28571429 6.62987013,2.28571429 L9.37012987,2.28571429 Z" id="矩形-2" fill="#6E7D96" mask="url(#mask-2)"></path>
                    </g>
                </g>
            </g>
        </g>
    </g>
</svg>