<?xml version="1.0" encoding="UTF-8"?>
<svg width="14px" height="14px" viewBox="0 0 14 14" version="1.1" xmlns="http://www.w3.org/2000/svg" xmlns:xlink="http://www.w3.org/1999/xlink">
    <title>quxiao</title>
    <defs>
        <path d="M7,1 C10.3137085,1 13,3.6862915 13,7 C13,10.3137085 10.3137085,13 7,13 C3.6862915,13 1,10.3137085 1,7 C1,3.6862915 3.6862915,1 7,1 Z M7,2 C4.23857625,2 2,4.23857625 2,7 C2,9.76142375 4.23857625,12 7,12 C9.76142375,12 12,9.76142375 12,7 C12,4.23857625 9.76142375,2 7,2 Z M5.23223305,4.52512627 L7,6.29289322 L8.76776695,4.52512627 C8.9630291,4.32986412 9.27961159,4.32986412 9.47487373,4.52512627 C9.67013588,4.72038841 9.67013588,5.0369709 9.47487373,5.23223305 L7.70710678,7 L9.47487373,8.76776695 C9.67013588,8.9630291 9.67013588,9.27961159 9.47487373,9.47487373 C9.27961159,9.67013588 8.9630291,9.67013588 8.76776695,9.47487373 L7,7.70710678 L5.23223305,9.47487373 C5.0369709,9.67013588 4.72038841,9.67013588 4.52512627,9.47487373 C4.32986412,9.27961159 4.32986412,8.9630291 4.52512627,8.76776695 L6.29289322,7 L4.52512627,5.23223305 C4.32986412,5.0369709 4.32986412,4.72038841 4.52512627,4.52512627 C4.72038841,4.32986412 5.0369709,4.32986412 5.23223305,4.52512627 Z" id="path-1"></path>
    </defs>
    <g id="页面-1" stroke="none" stroke-width="1" fill="none" fill-rule="evenodd">
        <g id="3-导出模板字段-编辑" transform="translate(-1378.000000, -159.000000)">
            <g id="编组-19备份" transform="translate(1378.000000, 158.000000)">
                <g id="编组" transform="translate(0.000000, 1.000000)">
                    <rect id="矩形" fill-opacity="0.01" fill="#FFFFFF" x="0" y="0" width="14" height="14"></rect>
                    <mask id="mask-2" fill="white">
                        <use xlink:href="#path-1"></use>
                    </mask>
                    <use id="椭圆形" fill="#0840F8" fill-rule="nonzero" xlink:href="#path-1"></use>
                </g>
            </g>
        </g>
    </g>
</svg>