<?xml version="1.0" encoding="UTF-8"?>
<svg width="12px" height="12px" viewBox="0 0 12 12" version="1.1" xmlns="http://www.w3.org/2000/svg" xmlns:xlink="http://www.w3.org/1999/xlink">
    <!-- Generator: Sketch 58 (84663) - https://sketch.com -->
    <title>custom</title>
    <desc>Created with Sketch.</desc>
    <g id="模型" stroke="none" stroke-width="1" fill="none" fill-rule="evenodd">
        <g id="预置" transform="translate(-132.000000, -155.000000)" fill="#59CFAA" fill-rule="nonzero">
            <g id="custom" transform="translate(132.000000, 155.000000)">
                <path d="M10.8,0 L1.2,0 C0.54,0 0,0.530357143 0,1.17857143 L0,2.35714286 C0,2.57321429 0.18,2.75 0.4,2.75 L11.6,2.75 C11.82,2.75 12,2.57321429 12,2.35714286 L12,1.17857143 C12,0.530357143 11.46,0 10.8,0 Z M10.8,3.92857143 L1.2,3.92857143 C0.98,3.92857143 0.8,4.10535714 0.8,4.32142857 L0.8,10.8214286 C0.8,11.4696429 1.34,12 2,12 L10,12 C10.66,12 11.2,11.4696429 11.2,10.8214286 L11.2,4.32142857 C11.2,4.10535714 11.02,3.92857143 10.8,3.92857143 Z M8.2,5.58928571 C8.2,5.90357143 7.94,6.17857143 7.6,6.17857143 L4.4,6.17857143 C4.08,6.17857143 3.8,5.92321429 3.8,5.58928571 C3.8,5.275 4.06,5 4.4,5 L7.6,5 C7.94,5 8.2,5.25535714 8.2,5.58928571 L8.2,5.58928571 Z" id="形状"></path>
            </g>
        </g>
    </g>
</svg>