<?xml version="1.0" encoding="UTF-8"?>
<svg width="14px" height="14px" viewBox="0 0 14 14" version="1.1" xmlns="http://www.w3.org/2000/svg" xmlns:xlink="http://www.w3.org/1999/xlink">
    <!-- Generator: Sketch 58 (84663) - https://sketch.com -->
    <title>delete</title>
    <desc>Created with Sketch.</desc>
    <g id="模型" stroke="none" stroke-width="1" fill="none" fill-rule="evenodd">
        <g id="模块操作" transform="translate(-12.000000, -51.000000)">
            <g id="delete" transform="translate(12.000000, 51.000000)">
                <rect id="矩形" fill="#D8D8D8" opacity="0.01" x="0" y="0" width="14" height="14"></rect>
                <path d="M10,4 C10.5522847,4 11,4.44771525 11,5 L11,12 C11,12.5522847 10.5522847,13 10,13 L4,13 C3.44771525,13 3,12.5522847 3,12 L3,5 C3,4.44771525 3.44771525,4 4,4 L10,4 Z M5,6 C4.75454011,6 4.55039163,6.17687516 4.50805567,6.41012437 L4.5,6.5 L4.5,10.5 C4.5,10.7761424 4.72385763,11 5,11 C5.24545989,11 5.44960837,10.8231248 5.49194433,10.5898756 L5.5,10.5 L5.5,6.5 C5.5,6.22385763 5.27614237,6 5,6 Z M7,6 C6.75454011,6 6.55039163,6.17687516 6.50805567,6.41012437 L6.5,6.5 L6.5,10.5 C6.5,10.7761424 6.72385763,11 7,11 C7.24545989,11 7.44960837,10.8231248 7.49194433,10.5898756 L7.5,10.5 L7.5,6.5 C7.5,6.22385763 7.27614237,6 7,6 Z M9,6 C8.75454011,6 8.55039163,6.17687516 8.50805567,6.41012437 L8.5,6.5 L8.5,10.5 C8.5,10.7761424 8.72385763,11 9,11 C9.24545989,11 9.44960837,10.8231248 9.49194433,10.5898756 L9.5,10.5 L9.5,6.5 C9.5,6.22385763 9.27614237,6 9,6 Z M2.5,3 C2.22385763,3 2,2.77614237 2,2.5 C2,2.22385763 2.22385763,2 2.5,2 L5.5,2 L5.5,1.5 C5.5,1.22385763 5.72385763,1 6,1 L8,1 C8.27614237,1 8.5,1.22385763 8.5,1.5 L8.5,2 L11.5,2 C11.7761424,2 12,2.22385763 12,2.5 C12,2.77614237 11.7761424,3 11.5,3 L8,3 L8,3 L6,3 L2.5,3 Z" id="矩形-6" fill="#5A6677"></path>
            </g>
        </g>
    </g>
</svg>