<?xml version="1.0" encoding="UTF-8"?>
<svg width="14px" height="14px" viewBox="0 0 14 14" version="1.1" xmlns="http://www.w3.org/2000/svg" xmlns:xlink="http://www.w3.org/1999/xlink">
    <title>delete</title>
    <g id="页面-1" stroke="none" stroke-width="1" fill="none" fill-rule="evenodd">
        <g id="6-字段选择" transform="translate(-1284.000000, -159.000000)">
            <g id="编组-22" transform="translate(1284.000000, 158.000000)">
                <g id="编组" transform="translate(0.000000, 1.000000)">
                    <rect id="矩形" fill-opacity="0.01" fill="#FFFFFF" x="0" y="0" width="14" height="14"></rect>
                    <path d="M9,1 C9.55228475,1 10,1.44771525 10,2 L10,3 L11.5,3 L11.5,3.004 L12.5,3.00422668 C12.7454599,3.00422668 12.9496084,3.18110185 12.9919443,3.41435105 L13,3.50422668 C13,3.74968657 12.8231248,3.95383505 12.5898756,3.99617102 L12.5,4.00422668 L11.5,4.004 L11.5,12 C11.5,12.5522847 11.0522847,13 10.5,13 L3.5,13 C2.94771525,13 2.5,12.5522847 2.5,12 L2.5,4.004 L1.5,4.00422668 C1.25454011,4.00422668 1.05039163,3.82735152 1.00805567,3.59410232 L1,3.50422668 C1,3.2587668 1.17687516,3.05461831 1.41012437,3.01228235 L1.5,3.00422668 L2.5,3.004 L2.5,3 L4,3 L4,2 C4,1.44771525 4.44771525,1 5,1 L9,1 Z M10.5,4.004 L3.5,4.004 L3.5,12 L10.5,12 L10.5,4.004 Z M5,5 C5.24545989,5 5.44960837,5.17687516 5.49194433,5.41012437 L5.5,5.5 L5.5,10.5 C5.5,10.7761424 5.27614237,11 5,11 C4.75454011,11 4.55039163,10.8231248 4.50805567,10.5898756 L4.5,10.5 L4.5,5.5 C4.5,5.22385763 4.72385763,5 5,5 Z M7,5 C7.24545989,5 7.44960837,5.17687516 7.49194433,5.41012437 L7.5,5.5 L7.5,10.5 C7.5,10.7761424 7.27614237,11 7,11 C6.75454011,11 6.55039163,10.8231248 6.50805567,10.5898756 L6.5,10.5 L6.5,5.5 C6.5,5.22385763 6.72385763,5 7,5 Z M9,5 C9.24545989,5 9.44960837,5.17687516 9.49194433,5.41012437 L9.5,5.5 L9.5,10.5 C9.5,10.7761424 9.27614237,11 9,11 C8.75454011,11 8.55039163,10.8231248 8.50805567,10.5898756 L8.5,10.5 L8.5,5.5 C8.5,5.22385763 8.72385763,5 9,5 Z M9,2 L5,2 L5,2.98617713 L9,2.98617713 L9,2 Z" id="形状" fill="#0840F8" fill-rule="nonzero"></path>
                </g>
            </g>
        </g>
    </g>
</svg>