<?xml version="1.0" encoding="UTF-8"?>
<svg width="14px" height="14px" viewBox="0 0 14 14" version="1.1" xmlns="http://www.w3.org/2000/svg" xmlns:xlink="http://www.w3.org/1999/xlink">
    <title>左侧列表/Edit Tags-Highlight@v4.0</title>
    <defs>
        <path d="M11,7.37519677 C12.6568542,7.37519677 14,8.71834252 14,10.3751968 C14,12.032051 12.6568542,13.3751968 11,13.3751968 C9.34314575,13.3751968 8,12.032051 8,10.3751968 C8,8.71834252 9.34314575,7.37519677 11,7.37519677 Z M7.39842824,0.602695609 L11.8810733,1.06979802 C12.1162139,1.09430023 12.3020578,1.28014417 12.3265601,1.51528476 L12.7936625,5.99792982 C12.8092807,6.14781328 12.7564659,6.29674639 12.6499085,6.40330384 L12.4217994,6.63153854 C11.9800151,6.46349255 11.5007533,6.37147653 11,6.37147653 C8.790861,6.37147653 7,8.16233753 7,10.3714765 C7,10.8722298 7.09201602,11.3514916 7.26006201,11.7932759 L6.2741123,12.7791 C6.07885015,12.9743622 5.76226766,12.9743622 5.56700552,12.7791 L0.61725805,7.82935255 C0.421995904,7.6340904 0.421995904,7.31750791 0.61725805,7.12224577 L6.99305423,0.74644959 C7.09961167,0.639892145 7.24854479,0.587077392 7.39842824,0.602695609 Z M11,8.37519677 C10.7545401,8.37519677 10.5503916,8.55207193 10.5080557,8.78532114 L10.5,8.87519677 L10.5,9.87519677 L9.5,9.87519677 C9.22385763,9.87519677 9,10.0990544 9,10.3751968 C9,10.6206567 9.17687516,10.8248051 9.41012437,10.8671411 L9.5,10.8751968 L10.5,10.8751968 L10.5,11.8751968 C10.5,12.1513391 10.7238576,12.3751968 11,12.3751968 C11.2454599,12.3751968 11.4496084,12.1983216 11.4919443,11.9650724 L11.5,11.8751968 L11.5,10.8751968 L12.5,10.8751968 C12.7761424,10.8751968 13,10.6513391 13,10.3751968 C13,10.1297369 12.8231248,9.9255884 12.5898756,9.88325244 L12.5,9.87519677 L11.5,9.87519677 L11.5,8.87519677 C11.5,8.5990544 11.2761424,8.37519677 11,8.37519677 Z M8.75329306,3.22885144 C8.36276877,3.61937573 8.36276877,4.25254071 8.75329306,4.64306501 C9.14381735,5.0335893 9.77698233,5.0335893 10.1675066,4.64306501 C10.5580309,4.25254071 10.5580309,3.61937573 10.1675066,3.22885144 C9.77698233,2.83832715 9.14381735,2.83832715 8.75329306,3.22885144 Z" id="path-1"></path>
    </defs>
    <g id="页面-1" stroke="none" stroke-width="1" fill="none" fill-rule="evenodd">
        <g id="icon" transform="translate(-473.000000, -109.000000)">
            <g id="左侧列表/Edit-Tags-Highlight" transform="translate(473.000000, 109.000000)">
                <mask id="mask-2" fill="white">
                    <use xlink:href="#path-1"></use>
                </mask>
                <use id="形状" fill="#D8D8D8" xlink:href="#path-1"></use>
                <g id="编组" mask="url(#mask-2)">
                    <g transform="translate(-33.000000, -33.000000)">
                        <rect id="矩形" fill="#29BECE" x="0" y="0" width="80" height="80"></rect>
                    </g>
                </g>
            </g>
        </g>
    </g>
</svg>