<?xml version="1.0" encoding="UTF-8"?>
<svg width="10px" height="10px" viewBox="0 0 10 10" version="1.1" xmlns="http://www.w3.org/2000/svg" xmlns:xlink="http://www.w3.org/1999/xlink">
    <title>enlarge@v4.0</title>
    <g id="页面-1" stroke="none" stroke-width="1" fill="none" fill-rule="evenodd">
        <g id="消息通知" transform="translate(-671.000000, -115.000000)" fill="#5A6677" fill-rule="nonzero">
            <g id="编组-10" transform="translate(384.000000, 94.000000)">
                <g id="编组-36" transform="translate(218.000000, 16.000000)">
                    <g id="enlarge" transform="translate(69.000000, 5.000000)">
                        <path d="M4.54545455,0 C7.05583977,0 9.09090909,2.03506932 9.09090909,4.54545455 C9.09090909,5.63680409 8.7062941,6.63832199 8.06521643,7.42185593 L9.80500787,9.16218352 C9.98251891,9.33969456 9.98251891,9.62749683 9.80500787,9.80500787 C9.62749683,9.98251891 9.33969456,9.98251891 9.16218352,9.80500787 L9.16218352,9.80500787 L7.42185593,8.06521643 C6.63832199,8.7062941 5.63680409,9.09090909 4.54545455,9.09090909 C2.03506932,9.09090909 0,7.05583977 0,4.54545455 C0,2.03506932 2.03506932,0 4.54545455,0 Z M4.54545455,0.909090909 C2.53714636,0.909090909 0.909090909,2.53714636 0.909090909,4.54545455 C0.909090909,6.55376273 2.53714636,8.18181818 4.54545455,8.18181818 C6.55376273,8.18181818 8.18181818,6.55376273 8.18181818,4.54545455 C8.18181818,2.53714636 6.55376273,0.909090909 4.54545455,0.909090909 Z M4.54545455,2.72727273 C4.79649307,2.72727273 5,2.93077966 5,3.18181818 L4.99927273,4.09027273 L5.90909091,4.09090909 C6.16012943,4.09090909 6.36363636,4.29441602 6.36363636,4.54545455 C6.36363636,4.79649307 6.16012943,5 5.90909091,5 L4.99927273,4.99927273 L5,5.90909091 C5,6.16012943 4.79649307,6.36363636 4.54545455,6.36363636 C4.29441602,6.36363636 4.09090909,6.16012943 4.09090909,5.90909091 L4.09027273,4.99927273 L3.18181818,5 C2.93077966,5 2.72727273,4.79649307 2.72727273,4.54545455 C2.72727273,4.29441602 2.93077966,4.09090909 3.18181818,4.09090909 L4.09027273,4.09027273 L4.09090909,3.18181818 C4.09090909,2.93077966 4.29441602,2.72727273 4.54545455,2.72727273 Z" id="形状结合"></path>
                    </g>
                </g>
            </g>
        </g>
    </g>
</svg>