<?xml version="1.0" encoding="UTF-8"?>
<svg width="14px" height="14px" viewBox="0 0 14 14" version="1.1" xmlns="http://www.w3.org/2000/svg" xmlns:xlink="http://www.w3.org/1999/xlink">
    <title>liuchen14</title>
    <g id="页面-1" stroke="none" stroke-width="1" fill="none" fill-rule="evenodd">
        <g id="事务处理流配置页" transform="translate(-284.000000, -113.000000)" fill-rule="nonzero">
            <g id="编组-2备份-15" transform="translate(196.000000, 94.000000)">
                <g id="编组-15备份" transform="translate(12.000000, 16.000000)">
                    <g id="编组-4" transform="translate(76.000000, 0.000000)">
                        <g id="liuchen14" transform="translate(0.000000, 3.000000)">
                            <rect id="矩形" fill="#000000" opacity="0" x="0" y="0" width="14" height="14"></rect>
                            <path d="M7.06666667,2.33333333 C7.61895142,2.33333333 8.06666667,2.78104858 8.06666667,3.33333333 C8.06666667,3.88561808 7.61895142,4.33333333 7.06666667,4.33333333 C6.51438192,4.33333333 6.06666667,3.88561808 6.06666667,3.33333333 C6.06666667,2.78104858 6.51438192,2.33333333 7.06666667,2.33333333 M7.06666667,1 C5.77800226,1 4.73333334,2.04466891 4.73333334,3.33333333 C4.73333334,4.62199774 5.77800226,5.66666666 7.06666667,5.66666666 C8.35533109,5.66666666 9.4,4.62199774 9.4,3.33333333 C9.4,2.71449485 9.15416737,2.12100239 8.71658249,1.68341751 C8.27899761,1.24583263 7.68550515,1 7.06666667,1 Z" id="形状" fill="#0840F8"></path>
                            <path d="M5.4,11.3333333 C5.39994234,11.9288144 5.7175946,12.4790863 6.23328674,12.7768435 C6.74897888,13.0746007 7.38435444,13.0746007 7.90004658,12.7768435 C8.41573872,12.4790863 8.73339099,11.9288144 8.73333333,11.3333333 C8.73339099,10.7378522 8.41573872,10.1875804 7.90004658,9.88982317 C7.38435444,9.59206598 6.74897888,9.59206598 6.23328674,9.88982317 C5.7175946,10.1875804 5.39994234,10.7378522 5.4,11.3333333 L5.4,11.3333333 Z" id="路径" fill="#0840F8"></path>
                            <path d="M1.4,10.6666667 C1.39994234,11.2621478 1.7175946,11.8124196 2.23328674,12.1101768 C2.74897888,12.407934 3.38435444,12.407934 3.90004658,12.1101768 C4.41573872,11.8124196 4.73339099,11.2621478 4.73333333,10.6666667 C4.73339099,10.0711856 4.41573872,9.5209137 3.90004658,9.22315652 C3.38435444,8.92539933 2.74897888,8.92539933 2.23328674,9.22315652 C1.7175946,9.5209137 1.39994234,10.0711856 1.4,10.6666667 L1.4,10.6666667 Z" id="路径" fill="#0840F8"></path>
                            <path d="M9.4,10.6666667 C9.39994234,11.2621478 9.7175946,11.8124196 10.2332867,12.1101768 C10.7489789,12.407934 11.3843544,12.407934 11.9000466,12.1101768 C12.4157387,11.8124196 12.733391,11.2621478 12.7333333,10.6666667 C12.733391,10.0711856 12.4157387,9.5209137 11.9000466,9.22315652 C11.3843544,8.92539933 10.7489789,8.92539933 10.2332867,9.22315652 C9.7175946,9.5209137 9.39994234,10.0711856 9.4,10.6666667 L9.4,10.6666667 Z" id="路径" fill="#0840F8"></path>
                            <polygon id="路径" fill="#0840F8" points="6.73333333 4.33333333 7.4 4.33333333 7.4 10.3333333 6.73333333 10.3333333"></polygon>
                            <polygon id="路径" fill="#0840F8" points="6.80066667 6.56933333 7.272 6.09733333 10.7886667 9.614 10.3173333 10.086"></polygon>
                            <polygon id="路径" fill="#0840F8" points="3.88 10.1426667 3.40866667 9.67133333 6.982 6.098 7.45333333 6.56933333"></polygon>
                        </g>
                    </g>
                </g>
            </g>
        </g>
    </g>
</svg>