<?xml version="1.0" encoding="UTF-8"?>
<svg width="20px" height="20px" viewBox="0 0 20 20" version="1.1" xmlns="http://www.w3.org/2000/svg" xmlns:xlink="http://www.w3.org/1999/xlink">
    <title>congzhu</title>
    <defs>
        <rect id="path-1" x="0" y="0" width="20" height="20"></rect>
    </defs>
    <g id="页面-1" stroke="none" stroke-width="1" fill="none" fill-rule="evenodd">
        <g id="icon" transform="translate(-189.000000, -724.000000)">
            <g id="congzhu" transform="translate(189.000000, 724.000000)">
                <mask id="mask-2" fill="white">
                    <use xlink:href="#path-1"></use>
                </mask>
                <use id="矩形备份-18" fill-opacity="0.01" fill="#FFFFFF" xlink:href="#path-1"></use>
                <path d="M14.5,10 C14.7761424,10 15,10.2238576 15,10.5 L15,12.5 C15,12.7761424 14.7761424,13 14.5,13 L14,13 L14,14 L17.5,14 C17.7761424,14 18,14.2238576 18,14.5 L18,16 L18.5,16 C18.7761424,16 19,16.2238576 19,16.5 L19,18.5 C19,18.7761424 18.7761424,19 18.5,19 L16.5,19 C16.2238576,19 16,18.7761424 16,18.5 L16,16.5 C16,16.2238576 16.2238576,16 16.5,16 L17,16 L17,15 L14,15 L14,16 L14.5,16 C14.7761424,16 15,16.2238576 15,16.5 L15,18.5 C15,18.7761424 14.7761424,19 14.5,19 L12.5,19 C12.2238576,19 12,18.7761424 12,18.5 L12,16.5 C12,16.2238576 12.2238576,16 12.5,16 L13,16 L13,15 L10,15 L10,16 L10.5,16 C10.7761424,16 11,16.2238576 11,16.5 L11,18.5 C11,18.7761424 10.7761424,19 10.5,19 L8.5,19 C8.22385763,19 8,18.7761424 8,18.5 L8,16.5 C8,16.2238576 8.22385763,16 8.5,16 L9,16 L9,14.5 C9,14.2238576 9.22385763,14 9.5,14 L13,14 L13,13 L12.5,13 C12.2238576,13 12,12.7761424 12,12.5 L12,10.5 C12,10.2238576 12.2238576,10 12.5,10 L14.5,10 Z M17,2 C17.5522847,2 18,2.44771525 18,3 L18,8.5 C18,8.77614237 17.7761424,9 17.5,9 C17.2238576,9 17,8.77614237 17,8.5 L17,3 L3,3 L3,17 L6.5,17 C6.77614237,17 7,17.2238576 7,17.5 C7,17.7761424 6.77614237,18 6.5,18 L3,18 C2.44771525,18 2,17.5522847 2,17 L2,3 C2,2.44771525 2.44771525,2 3,2 L17,2 Z M10,17 L9,17 L9,18 L10,18 L10,17 Z M18,17 L17,17 L17,18 L18,18 L18,17 Z M14,17 L13,17 L13,18 L14,18 L14,17 Z M14,11 L13,11 L13,12 L14,12 L14,11 Z M12.5,7 C12.7761424,7 13,7.22385763 13,7.5 C13,7.77614237 12.7761424,8 12.5,8 L5.5,8 C5.22385763,8 5,7.77614237 5,7.5 C5,7.22385763 5.22385763,7 5.5,7 L12.5,7 Z M14.5,5 C14.7761424,5 15,5.22385763 15,5.5 C15,5.77614237 14.7761424,6 14.5,6 L5.5,6 C5.22385763,6 5,5.77614237 5,5.5 C5,5.22385763 5.22385763,5 5.5,5 L14.5,5 Z" id="路径-2" fill="#0840F8" fill-rule="nonzero" mask="url(#mask-2)"></path>
            </g>
        </g>
    </g>
</svg>