<?xml version="1.0" encoding="UTF-8"?>
<svg width="20px" height="20px" viewBox="0 0 20 20" version="1.1" xmlns="http://www.w3.org/2000/svg" xmlns:xlink="http://www.w3.org/1999/xlink">
    <title>money</title>
    <g id="页面-1" stroke="none" stroke-width="1" fill="none" fill-rule="evenodd">
        <g id="icon" transform="translate(-109.000000, -411.000000)">
            <g id="money" transform="translate(109.000000, 411.000000)">
                <rect id="矩形备份-17" fill-opacity="0.01" fill="#FFFFFF" x="0" y="0" width="20" height="20"></rect>
                <path d="M10,1 C14.9705627,1 19,5.02943725 19,10 C19,14.9705627 14.9705627,19 10,19 C5.02943725,19 1,14.9705627 1,10 C1,5.02943725 5.02943725,1 10,1 Z M10,2 C5.581722,2 2,5.581722 2,10 C2,14.418278 5.581722,18 10,18 C14.418278,18 18,14.418278 18,10 C18,5.581722 14.418278,2 10,2 Z M6.94331395,5.24581245 C7.19021127,5.10891075 7.50121458,5.1931604 7.64525097,5.4359646 L7.64525097,5.4359646 L9.93023256,9.2877907 L12.171872,5.50902704 C12.3387718,5.22768168 12.7018753,5.1344628 12.983661,5.30061797 C12.9874963,5.30287942 12.9913053,5.30518509 12.9950873,5.30753451 C13.2664064,5.47608097 13.3497201,5.83266249 13.1811737,6.10398162 L13.1811737,6.10398162 L11.122093,9.41860465 L12.9607558,9.41860465 C13.1895366,9.41860465 13.375,9.60406809 13.375,9.83284884 C13.375,10.0616296 13.1895366,10.247093 12.9607558,10.247093 L12.9607558,10.247093 L10.5697674,10.247093 L10.5697674,11.4825581 L12.9607558,11.4825581 C13.1895366,11.4825581 13.375,11.6680216 13.375,11.8968023 C13.375,12.1255831 13.1895366,12.3110465 12.9607558,12.3110465 L12.9607558,12.3110465 L10.5697674,12.3110465 L10.5697674,14.3604651 C10.5697674,14.7136705 10.2834379,15 9.93023256,15 C9.57702719,15 9.29069767,14.7136705 9.29069767,14.3604651 L9.29069767,14.3604651 L9.29069767,12.3110465 L6.91424419,12.3110465 C6.68546344,12.3110465 6.5,12.1255831 6.5,11.8968023 C6.5,11.6680216 6.68546344,11.4825581 6.91424419,11.4825581 L6.91424419,11.4825581 L9.29069767,11.4825581 L9.29069767,10.247093 L6.91424419,10.247093 C6.68546344,10.247093 6.5,10.0616296 6.5,9.83284884 C6.5,9.60406809 6.68546344,9.41860465 6.91424419,9.41860465 L6.91424419,9.41860465 L8.73837209,9.41860465 L6.75101955,5.93201132 C6.75004504,5.93030165 6.74908062,5.92858626 6.74812632,5.92686523 C6.61395837,5.68489812 6.70134685,5.3799804 6.94331395,5.24581245 Z" id="矩形" fill="#0840F8" fill-rule="nonzero"></path>
            </g>
        </g>
    </g>
</svg>