<?xml version="1.0" encoding="UTF-8"?>
<svg width="14px" height="14px" viewBox="0 0 14 14" version="1.1" xmlns="http://www.w3.org/2000/svg" xmlns:xlink="http://www.w3.org/1999/xlink">
    <title>more</title>
    <defs>
        <path d="M7.5,11 C7.77614237,11 8,11.2238576 8,11.5 L8,12.5 C8,12.7761424 7.77614237,13 7.5,13 L6.5,13 C6.22385763,13 6,12.7761424 6,12.5 L6,11.5 C6,11.2238576 6.22385763,11 6.5,11 L7.5,11 Z M7.5,6 C7.77614237,6 8,6.22385763 8,6.5 L8,7.5 C8,7.77614237 7.77614237,8 7.5,8 L6.5,8 C6.22385763,8 6,7.77614237 6,7.5 L6,6.5 C6,6.22385763 6.22385763,6 6.5,6 L7.5,6 Z M7.5,1 C7.77614237,1 8,1.22385763 8,1.5 L8,2.5 C8,2.77614237 7.77614237,3 7.5,3 L6.5,3 C6.22385763,3 6,2.77614237 6,2.5 L6,1.5 C6,1.22385763 6.22385763,1 6.5,1 L7.5,1 Z" id="path-1"></path>
    </defs>
    <g id="页面" stroke="none" stroke-width="1" fill="none" fill-rule="evenodd">
        <g id="展现" transform="translate(-756.000000, -290.000000)">
            <g id="编组" transform="translate(756.000000, 290.000000)">
                <rect id="矩形" fill-opacity="0.01" fill="#FFFFFF" x="0" y="0" width="14" height="14"></rect>
                <mask id="mask-2" fill="white">
                    <use xlink:href="#path-1"></use>
                </mask>
                <use id="矩形-2" fill="#5A6677" xlink:href="#path-1"></use>
                <g mask="url(#mask-2)">
                    <g transform="translate(-33.000000, -33.000000)">
                        <rect id="主色" fill="#5A6677" x="0" y="0" width="80" height="80"></rect>
                    </g>
                </g>
            </g>
        </g>
    </g>
</svg>