<?xml version="1.0" encoding="UTF-8"?>
<svg width="14px" height="14px" viewBox="0 0 14 14" version="1.1" xmlns="http://www.w3.org/2000/svg" xmlns:xlink="http://www.w3.org/1999/xlink">
    <title>字段属性</title>
    <g id="页面-1" stroke="none" stroke-width="1" fill="none" fill-rule="evenodd">
        <g id="5-配置字段" transform="translate(-478.000000, -471.000000)">
            <g id="编组-2" transform="translate(242.000000, 80.000000)">
                <g id="字段属性" transform="translate(236.000000, 391.000000)">
                    <rect id="矩形" fill-opacity="0.01" fill="#FFFFFF" x="0" y="0" width="14" height="14"></rect>
                    <path d="M10.5,1 C10.7761424,1 11,1.22385763 11,1.5 L11,5.5 C11,5.77614237 10.7761424,6 10.5,6 C10.2238576,6 10,5.77614237 10,5.5 L10,2 L2,2 L2,12 L5.5,12 C5.77614237,12 6,12.2238576 6,12.5 C6,12.7761424 5.77614237,13 5.5,13 L1.5,13 C1.22385763,13 1,12.7761424 1,12.5 L1,1.5 C1,1.22385763 1.22385763,1 1.5,1 L10.5,1 Z M12.5,7 C12.7761424,7 13,7.22385763 13,7.5 C13,7.77614237 12.7761424,8 12.5,8 L10.5,8 L10.5,12.5 C10.5,12.7761424 10.2761424,13 10,13 C9.72385763,13 9.5,12.7761424 9.5,12.5 L9.5,8 L7.5,8 C7.22385763,8 7,7.77614237 7,7.5 C7,7.22385763 7.22385763,7 7.5,7 L12.5,7 Z M5.5,9.5 C5.77614237,9.5 6,9.72385763 6,10 C6,10.2761424 5.77614237,10.5 5.5,10.5 L3.5,10.5 C3.22385763,10.5 3,10.2761424 3,10 C3,9.72385763 3.22385763,9.5 3.5,9.5 L5.5,9.5 Z M5.5,6.5 C5.77614237,6.5 6,6.72385763 6,7 C6,7.27614237 5.77614237,7.5 5.5,7.5 L3.5,7.5 C3.22385763,7.5 3,7.27614237 3,7 C3,6.72385763 3.22385763,6.5 3.5,6.5 L5.5,6.5 Z M8.5,3.5 C8.77614237,3.5 9,3.72385763 9,4 C9,4.27614237 8.77614237,4.5 8.5,4.5 L3.5,4.5 C3.22385763,4.5 3,4.27614237 3,4 C3,3.72385763 3.22385763,3.5 3.5,3.5 L8.5,3.5 Z" id="路径-2" fill="#0840F8" fill-rule="nonzero"></path>
                </g>
            </g>
        </g>
    </g>
</svg>