<?xml version="1.0" encoding="UTF-8"?>
<svg width="20px" height="20px" viewBox="0 0 20 20" version="1.1" xmlns="http://www.w3.org/2000/svg" xmlns:xlink="http://www.w3.org/1999/xlink">
    <title>phone-number</title>
    <defs>
        <rect id="path-1" x="0" y="0" width="20" height="20"></rect>
    </defs>
    <g id="页面-1" stroke="none" stroke-width="1" fill="none" fill-rule="evenodd">
        <g id="icon" transform="translate(-189.000000, -411.000000)">
            <g id="phone-number" transform="translate(189.000000, 411.000000)">
                <mask id="mask-2" fill="white">
                    <use xlink:href="#path-1"></use>
                </mask>
                <use id="矩形备份-13" fill-opacity="0.01" fill="#FFFFFF" xlink:href="#path-1"></use>
                <path d="M7.5,9 C7.77614237,9 8,9.22385763 8,9.5 L8,18.5 C8,18.7761424 7.77614237,19 7.5,19 C7.22385763,19 7,18.7761424 7,18.5 L7,9.5 C7,9.22385763 7.22385763,9 7.5,9 Z M12.5,9 C12.7761424,9 13,9.22385763 13,9.5 L13,13.5 L13,13.5 C13,13.7454599 12.8231248,13.9496084 12.5898756,13.9919443 L12.5,14 L12.5,14 L10,14 L10,18 L12.5,18 C12.7761424,18 13,18.2238576 13,18.5 C13,18.7761424 12.7761424,19 12.5,19 L9.5,19 C9.22385763,19 9,18.7761424 9,18.5 L9,13.5 C9,13.2238576 9.22385763,13 9.5,13 L12,13 L12,10 L9.5,10 C9.22385763,10 9,9.77614237 9,9.5 C9,9.22385763 9.22385763,9 9.5,9 L12.5,9 L12.5,9 Z M18.5,9 C18.7761424,9 19,9.22385763 19,9.5 L19,18.5 L19,18.5 C19,18.7454599 18.8231248,18.9496084 18.5898756,18.9919443 L18.5,19 L18.5,19 L14.5,19 C14.2238576,19 14,18.7761424 14,18.5 C14,18.2238576 14.2238576,18 14.5,18 L18,18 L18,14 L14.5,14 C14.2238576,14 14,13.7761424 14,13.5 C14,13.2238576 14.2238576,13 14.5,13 L18,13 L18,10 L14.5,10 C14.2238576,10 14,9.77614237 14,9.5 C14,9.22385763 14.2238576,9 14.5,9 L18.5,9 L18.5,9 Z M11,2 C11.5522847,2 12,2.44771525 12,3 L12,7.5 C12,7.77614237 11.7761424,8 11.5,8 C11.2238576,8 11,7.77614237 11,7.5 L11,3 L3,3 L3,17 L5.5,17 C5.77614237,17 6,17.2238576 6,17.5 C6,17.7761424 5.77614237,18 5.5,18 L3,18 C2.44771525,18 2,17.5522847 2,17 L2,3 C2,2.44771525 2.44771525,2 3,2 L11,2 Z M9,4 C9.55228475,4 10,4.44771525 10,5 L10,7.5 C10,7.77614237 9.77614237,8 9.5,8 C9.22385763,8 9,7.77614237 9,7.5 L9,5 L5,5 L5,14 L5.5,14 C5.77614237,14 6,14.2238576 6,14.5 C6,14.7761424 5.77614237,15 5.5,15 L5,15 C4.44771525,15 4,14.5522847 4,14 L4,5 C4,4.44771525 4.44771525,4 5,4 L9,4 Z" id="形状结合" fill="#0840F8" mask="url(#mask-2)"></path>
            </g>
        </g>
    </g>
</svg>