<?xml version="1.0" encoding="UTF-8"?>
<svg width="18px" height="18px" viewBox="0 0 18 18" version="1.1" xmlns="http://www.w3.org/2000/svg" xmlns:xlink="http://www.w3.org/1999/xlink">
    <title>jingao</title>
    <g id="业务对象" stroke="none" stroke-width="1" fill="none" fill-rule="evenodd">
        <g id="发布校验" transform="translate(-48.000000, -423.000000)" fill="#F6B74D">
            <g id="编组-6备份" transform="translate(32.000000, 406.000000)">
                <g id="jingao" transform="translate(16.000000, 17.000000)">
                    <path d="M9,0 C13.9705627,0 18,4.02943725 18,9 C18,13.9705627 13.9705627,18 9,18 C4.02943725,18 0,13.9705627 0,9 C0,4.02943725 4.02943725,0 9,0 Z M9,11.7 C8.25441559,11.7 7.65,12.3044156 7.65,13.05 C7.65,13.7955844 8.25441559,14.4 9,14.4 C9.74558441,14.4 10.35,13.7955844 10.35,13.05 C10.35,12.3044156 9.74558441,11.7 9,11.7 Z M9,3.6 C8.25441559,3.6 7.65,4.20441559 7.65,4.95 L7.65,4.95 L7.65,8.55 C7.65,9.29558441 8.25441559,9.9 9,9.9 C9.74558441,9.9 10.35,9.29558441 10.35,8.55 L10.35,8.55 L10.35,4.95 C10.35,4.20441559 9.74558441,3.6 9,3.6 Z" id="形状结合"></path>
                </g>
            </g>
        </g>
    </g>
</svg>