<?xml version="1.0" encoding="UTF-8"?>
<svg width="16px" height="16px" viewBox="0 0 16 16" version="1.1" xmlns="http://www.w3.org/2000/svg" xmlns:xlink="http://www.w3.org/1999/xlink">
    <title>sancu16</title>
    <defs>
        <linearGradient x1="50%" y1="0%" x2="50%" y2="100%" id="linearGradient-1">
            <stop stop-color="#F0828D" offset="0%"></stop>
            <stop stop-color="#F45063" offset="100%"></stop>
        </linearGradient>
    </defs>
    <g id="页面-1" stroke="none" stroke-width="1" fill="none" fill-rule="evenodd">
        <g id="事务处理流配置页" transform="translate(-208.000000, -217.000000)">
            <g id="编组-2备份-15" transform="translate(196.000000, 94.000000)">
                <g id="sancu16" transform="translate(12.000000, 123.000000)">
                    <rect id="矩形" fill-opacity="0.01" fill="#FFFFFF" x="0" y="0" width="16" height="16"></rect>
                    <path d="M11.5,1 C11.7761424,1 12,1.22385763 12,1.5 L12,7 L10.5,7 L10.35554,7.00686658 C9.78505106,7.06138014 9.30780428,7.43543184 9.10483645,7.9479849 L9.086,8 L8.5,8 C7.67157288,8 7,8.67157288 7,9.5 L7.00686658,9.64446001 C7.06138014,10.2149489 7.43543184,10.6921957 7.9479849,10.8951636 L8,10.913 L8,14.5 C8,14.6755804 8.03016732,14.8441149 8.08560151,15.000703 L2.5,15 C2.22385763,15 2,14.7761424 2,14.5 L2,7 L2,7 L6.5,7 C7.32842712,7 8,6.32842712 8,5.5 L8,1 L11.5,1 Z M12.5,8 C12.7761424,8 13,8.22385763 13,8.5 L13,9 L14.5,9 C14.7761424,9 15,9.22385763 15,9.5 C15,9.77614237 14.7761424,10 14.5,10 L14,10 L14,14.5 C14,14.7761424 13.7761424,15 13.5,15 L9.5,15 C9.22385763,15 9,14.7761424 9,14.5 L9,10 L8.5,10 C8.22385763,10 8,9.77614237 8,9.5 C8,9.22385763 8.22385763,9 8.5,9 L10,9 L10,8.5 C10,8.22385763 10.2238576,8 10.5,8 L12.5,8 Z M10.5,11 C10.2238576,11 10,11.2238576 10,11.5 L10,11.5 L10,13.5 C10,13.7761424 10.2238576,14 10.5,14 C10.7761424,14 11,13.7761424 11,13.5 L11,13.5 L11,11.5 C11,11.2238576 10.7761424,11 10.5,11 Z M12.5,11 C12.2238576,11 12,11.2238576 12,11.5 L12,11.5 L12,13.5 C12,13.7761424 12.2238576,14 12.5,14 C12.7761424,14 13,13.7761424 13,13.5 L13,13.5 L13,11.5 C13,11.2238576 12.7761424,11 12.5,11 Z M7,1 L7,5.5 C7,5.77614237 6.77614237,6 6.5,6 L2,6 L7,1 Z" id="矩形-3" fill="url(#linearGradient-1)"></path>
                </g>
            </g>
        </g>
    </g>
</svg>