<?xml version="1.0" encoding="UTF-8"?>
<svg width="14px" height="14px" viewBox="0 0 14 14" version="1.1" xmlns="http://www.w3.org/2000/svg" xmlns:xlink="http://www.w3.org/1999/xlink">
    <title>icon/send 14</title>
    <g id="B.Style" stroke="none" stroke-width="1" fill="none" fill-rule="evenodd">
        <g id="icon/add备份-32" fill="#FFFFFF" fill-rule="nonzero">
            <path d="M13.86101,0.703021116 L12.7782127,13.3602218 C12.7419714,13.7838585 12.2755082,14.024083 11.9095882,13.8075559 L7.98623379,11.4859758 L5.87223942,13.2460757 C5.53154222,13.5297383 5.01151585,13.3391134 4.93486198,12.9024634 L4.32782133,9.44452568 L0.356321636,7.053973 C-0.039276716,6.81585169 -0.00877189799,6.2326123 0.409508685,6.03705881 L13.0418491,0.131218717 C13.4439512,-0.0567710471 13.8988445,0.26076011 13.86101,0.703021116 Z M12.6262812,1.59922292 L1.87900027,6.62376474 L5.14812105,8.59153663 C5.29120956,8.67766545 5.38995312,8.82157501 5.4188302,8.98607001 L5.89916345,11.7222335 L7.56067619,10.3388673 C7.74818659,10.1827472 8.01363491,10.1614682 8.22362096,10.2857239 L11.7068428,12.3468629 L12.6262812,1.59922292 Z M10.3995525,3.52279358 C10.6286206,3.30132072 10.9938562,3.30747787 11.215329,3.53654594 C11.4368019,3.76561402 11.4306447,4.13084961 11.2015767,4.35232247 L11.2015767,4.35232247 L7.24073074,8.18183848 L7.24073074,9.57709588 C7.24073074,9.8957217 6.98243348,10.154019 6.66380766,10.154019 C6.34518185,10.154019 6.08688459,9.8957217 6.08688459,9.57709588 L6.08688459,9.57709588 L6.08688459,7.93715234 C6.08688459,7.7807701 6.15036848,7.63108725 6.26279558,7.52238789 L6.26279558,7.52238789 Z" id="形状结合"></path>
        </g>
    </g>
</svg>