<?xml version="1.0" encoding="UTF-8"?>
<svg width="12px" height="12px" viewBox="0 0 12 12" version="1.1" xmlns="http://www.w3.org/2000/svg" xmlns:xlink="http://www.w3.org/1999/xlink">
    <title>Tenant customization</title>
    <defs>
        <rect id="path-1" x="0" y="0" width="12" height="12"></rect>
    </defs>
    <g id="模型/权限" stroke="none" stroke-width="1" fill="none" fill-rule="evenodd">
        <g id="画板" transform="translate(-25.000000, -108.000000)">
            <g id="Tenant-customization" transform="translate(25.000000, 108.000000)">
                <mask id="mask-2" fill="white">
                    <use xlink:href="#path-1"></use>
                </mask>
                <use id="矩形" fill-opacity="0.01" fill="#FFFFFF" xlink:href="#path-1"></use>
                <path d="M4,3 C5.3254834,3 6.4,4.0745166 6.4,5.4 C6.4,6.16484476 6.04222405,6.84612648 5.48490145,7.28561585 C6.8972641,7.84957863 7.91247183,9.19681044 7.99462046,10.7907411 L8,11 L0,11 L0.00489530723,10.8003597 C0.0834472879,9.20223022 1.09990747,7.85067095 2.51539253,7.28456516 C1.95777595,6.84612648 1.6,6.16484476 1.6,5.4 C1.6,4.0745166 2.6745166,3 4,3 Z M8,1 C9.3254834,1 10.4,2.0745166 10.4,3.4 C10.4,4.1680935 10.0391782,4.85191256 9.47778886,5.29120304 C10.4699827,5.69468482 11.2595823,6.49483705 11.6721802,7.48640442 C11.6780352,7.50047548 11.6838321,7.51456768 11.6895692,7.52868163 C11.8766125,7.98883734 12,8.47211675 12,9 L12,9 L8.57984475,8.99952071 C8.23380546,8.20633875 7.68913004,7.51760065 7.00049895,7.00026926 C7.25858438,6.51677794 7.4,5.96974717 7.4,5.4 C7.4,4.17268397 6.7497061,3.09725222 5.77488062,2.49946707 C6.13024956,1.62062214 6.99264775,1 8,1 Z" id="椭圆形备份-3" fill="#5A7DF0" mask="url(#mask-2)"></path>
            </g>
        </g>
    </g>
</svg>