<?xml version="1.0" encoding="UTF-8"?>
<svg width="14px" height="14px" viewBox="0 0 14 14" version="1.1" xmlns="http://www.w3.org/2000/svg" xmlns:xlink="http://www.w3.org/1999/xlink">
    <title>Unlocking-飞搭hover</title>
    <defs>
        <path d="M9,5 L9,4 C9,2.8954305 8.1045695,2 7,2 C5.8954305,2 5,2.8954305 5,4 L4,4 C4,2.34314575 5.34314575,1 7,1 C8.65685425,1 10,2.34314575 10,4 L10,5 L12.5,5 C12.7761424,5 13,5.22385763 13,5.5 L13,12.5 C13,12.7761424 12.7761424,13 12.5,13 L1.5,13 C1.22385763,13 1,12.7761424 1,12.5 L1,5.5 C1,5.22385763 1.22385763,5 1.5,5 L9,5 Z M7,7 C6.44771525,7 6,7.44771525 6,8 C6,8.37008772 6.20104123,8.69321974 6.4998705,8.86614288 L6.4998705,8.86614288 L6.5,10.5 C6.5,10.7761424 6.72385763,11 7,11 C7.27614237,11 7.5,10.7761424 7.5,10.5 L7.5,10.5 L7.5011143,8.86557226 C7.79940038,8.69250951 8,8.36968103 8,8 C8,7.44771525 7.55228475,7 7,7 Z" id="path-1"></path>
    </defs>
    <g id="-----6.1-icon" stroke="none" stroke-width="1" fill="none" fill-rule="evenodd">
        <g id="2-输入框备份" transform="translate(-236.000000, -488.000000)">
            <g id="Unlocking备份" transform="translate(236.000000, 488.000000)">
                <rect id="矩形" fill-opacity="0.01" fill="#FFFFFF" x="0" y="0" width="14" height="14"></rect>
                <mask id="mask-2" fill="white">
                    <use xlink:href="#path-1"></use>
                </mask>
                <use id="矩形-2" fill="#5A6677" xlink:href="#path-1"></use>
                <g id="编组" mask="url(#mask-2)">
                    <g transform="translate(-33.000000, -33.000000)">
                        <rect id="矩形" fill="#3C64F0" x="0" y="0" width="80" height="80"></rect>
                    </g>
                </g>
            </g>
        </g>
    </g>
</svg>