<?xml version="1.0" encoding="UTF-8"?>
<svg width="14px" height="14px" viewBox="0 0 14 14" version="1.1" xmlns="http://www.w3.org/2000/svg" xmlns:xlink="http://www.w3.org/1999/xlink">
    <title>Import</title>
    <g id="页面-1" stroke="none" stroke-width="1" fill="none" fill-rule="evenodd">
        <g id="5-编写脚本有数据" transform="translate(-1406.000000, -104.000000)">
            <g id="编组-5备份" transform="translate(1121.000000, 95.000000)">
                <g id="Import" transform="translate(285.000000, 9.000000)">
                    <rect id="矩形" fill-opacity="0.01" fill="#FFFFFF" x="0" y="0" width="14" height="14"></rect>
                    <path d="M5.7028608,1 C5.89180912,1 6.06461882,1.10651226 6.14952959,1.2753069 L7.0171224,3 L12.5,3 C12.7761424,3 13,3.22385763 13,3.5 L13,12.5 C13,12.7761424 12.7761424,13 12.5,13 L1.5,13 C1.22385763,13 1,12.7761424 1,12.5 L1,1.5 C1,1.22385763 1.22385763,1 1.5,1 L5.7028608,1 Z M7.34184099,4.64860306 C7.10782329,4.48596613 6.78448708,4.50872909 6.57596331,4.71676427 L6.57596331,4.71676427 L4.15139061,7.15478262 L4.09345398,7.2239626 C3.95822946,7.41867227 3.97719859,7.68811911 4.15056124,7.86188892 L4.15056124,7.86188892 L4.21974123,7.91982555 C4.4144509,8.05505007 4.68389773,8.03608094 4.85766754,7.86271828 L4.85766754,7.86271828 L6.49952907,6.20859072 L6.5,10.5 C6.5,10.7761424 6.72385763,11 7,11 C7.27614237,11 7.5,10.7761424 7.5,10.5 L7.5,10.5 L7.49952907,6.20859072 L9.15014493,7.86001501 L9.21923926,7.91805377 C9.41374896,8.05356577 9.68322352,8.03499469 9.85724923,7.86188892 C10.0530282,7.66714492 10.0538671,7.35056354 9.85912314,7.15478462 L9.85912314,7.15478462 L7.42501214,4.71828278 Z" id="矩形-2" fill="#465476"></path>
                </g>
            </g>
        </g>
    </g>
</svg>