<?xml version="1.0" encoding="UTF-8"?>
<svg width="80px" height="80px" viewBox="0 0 80 80" version="1.1" xmlns="http://www.w3.org/2000/svg" xmlns:xlink="http://www.w3.org/1999/xlink">
    <title>Icon/analytics_black_未核销_高亮</title>
    <defs>
        <path d="M43.3333333,0 L6.66666667,0 C3,0 0,3 0,6.66666667 L0,53.3333333 C0,57 3,60 6.66666667,60 L53.3333333,60 C57,60 60,57 60,53.3333333 L60,16.6666667 L43.3333333,0 Z M13.3333333,13.3333333 L30,13.3333333 L30,20 L13.3333333,20 L13.3333333,13.3333333 Z M46.6666667,46.6666667 L13.3333333,46.6666667 L13.3333333,40 L46.6666667,40 L46.6666667,46.6666667 Z M46.6666667,33.3333333 L13.3333333,33.3333333 L13.3333333,26.6666667 L46.6666667,26.6666667 L46.6666667,33.3333333 Z M40,20 L40,6.66666667 L53.3333333,20 L40,20 Z" id="path-1"></path>
    </defs>
    <g id="回收♻️" stroke="none" stroke-width="1" fill="none" fill-rule="evenodd">
        <g id="画板" transform="translate(-422.000000, -441.000000)">
            <g id="replay" transform="translate(422.000000, 441.000000)">
                <rect id="矩形" fill="#000000" fill-rule="nonzero" opacity="0" x="0" y="0" width="80" height="80"></rect>
                <g id="color" transform="translate(10.000000, 10.000000)">
                    <mask id="mask-2" fill="white">
                        <use xlink:href="#path-1"></use>
                    </mask>
                    <g id="蒙版" fill-rule="nonzero"></g>
                    <g mask="url(#mask-2)" fill="#36C2CF" fill-opacity="0.1" id="矩形">
                        <g transform="translate(-10.000000, -10.000000)">
                            <rect x="0" y="0" width="80" height="80"></rect>
                        </g>
                    </g>
                </g>
            </g>
        </g>
    </g>
</svg>