<?xml version="1.0" encoding="UTF-8"?>
<svg width="80px" height="80px" viewBox="0 0 80 80" version="1.1" xmlns="http://www.w3.org/2000/svg" xmlns:xlink="http://www.w3.org/1999/xlink">
    <title>Icon/assignment_总额</title>
    <defs>
        <path d="M53.3333334,6.66666664 L39.4,6.66666664 C38,2.8 34.3333334,0 30,0 C25.6666666,0 22,2.8 20.6,6.66666664 L6.66666664,6.66666664 C3,6.66666664 0,9.66666664 0,13.3333333 L0,60 C0,63.6666666 3,66.6666666 6.66666664,66.6666666 L53.3333334,66.6666666 C57,66.6666666 60,63.6666666 60,60 L60,13.3333333 C60,9.66666664 57,6.66666664 53.3333334,6.66666664 Z M30,6.66666664 C31.8333334,6.66666664 33.3333334,8.16666664 33.3333334,10 C33.3333334,11.8333334 31.8333334,13.3333333 30,13.3333333 C28.1666666,13.3333333 26.6666666,11.8333333 26.6666666,10 C26.6666666,8.16666664 28.1666666,6.66666664 30,6.66666664 Z M36.6666666,53.3333333 L13.3333334,53.3333333 L13.3333334,46.6666666 L36.6666666,46.6666666 L36.6666666,53.3333333 L36.6666666,53.3333333 Z M46.6666666,40 L13.3333334,40 L13.3333334,33.3333333 L46.6666666,33.3333333 L46.6666666,40 L46.6666666,40 Z M46.6666666,26.6666666 L13.3333334,26.6666666 L13.3333334,20 L46.6666666,20 L46.6666666,26.6666666 L46.6666666,26.6666666 Z" id="path-1"></path>
    </defs>
    <g id="回收♻️" stroke="none" stroke-width="1" fill="none" fill-rule="evenodd">
        <g id="画板" transform="translate(-302.000000, -325.000000)">
            <g id="assignment" transform="translate(302.000000, 325.000000)">
                <rect id="矩形" fill="#000000" fill-rule="nonzero" opacity="0" x="0" y="0" width="80" height="80"></rect>
                <g id="color" transform="translate(10.000000, 6.333333)">
                    <mask id="mask-2" fill="white">
                        <use xlink:href="#path-1"></use>
                    </mask>
                    <g id="蒙版" fill-rule="nonzero"></g>
                    <g mask="url(#mask-2)" fill="#000000" fill-opacity="0.03" id="矩形">
                        <g transform="translate(-10.000000, -3.333333)">
                            <rect x="0" y="0" width="80" height="80"></rect>
                        </g>
                    </g>
                </g>
            </g>
        </g>
    </g>
</svg>