<?xml version="1.0" encoding="UTF-8"?>
<svg width="234px" height="125px" viewBox="0 0 234 125" version="1.1" xmlns="http://www.w3.org/2000/svg" xmlns:xlink="http://www.w3.org/1999/xlink">
    <title>编组 4</title>
    <defs>
        <path d="M74.1,20.8333333 L89.7,20.8333333 C90.4179702,20.8333333 91,21.4162959 91,22.1354167 L91,27.34375 C91,28.0628708 90.4179702,28.6458333 89.7,28.6458333 L74.1,28.6458333 C73.3820298,28.6458333 72.8,28.0628708 72.8,27.34375 L72.8,22.1354167 C72.8,21.4162959 73.3820298,20.8333333 74.1,20.8333333 Z" id="path-1"></path>
        <path d="M126.1,57.2916667 L133.9,57.2916667 C134.61797,57.2916667 135.2,57.8746292 135.2,58.59375 L135.2,61.1979167 C135.2,61.9170374 134.61797,62.5 133.9,62.5 L126.1,62.5 C125.38203,62.5 124.8,61.9170374 124.8,61.1979167 L124.8,58.59375 C124.8,57.8746292 125.38203,57.2916667 126.1,57.2916667 Z" id="path-2"></path>
        <path d="M126.1,67.7083333 L133.9,67.7083333 C134.61797,67.7083333 135.2,68.2912959 135.2,69.0104167 L135.2,71.6145833 C135.2,72.3337041 134.61797,72.9166667 133.9,72.9166667 L126.1,72.9166667 C125.38203,72.9166667 124.8,72.3337041 124.8,71.6145833 L124.8,69.0104167 C124.8,68.2912959 125.38203,67.7083333 126.1,67.7083333 Z" id="path-3"></path>
        <path d="M126.1,78.125 L133.9,78.125 C134.61797,78.125 135.2,78.7079626 135.2,79.4270833 L135.2,82.03125 C135.2,82.7503708 134.61797,83.3333333 133.9,83.3333333 L126.1,83.3333333 C125.38203,83.3333333 124.8,82.7503708 124.8,82.03125 L124.8,79.4270833 C124.8,78.7079626 125.38203,78.125 126.1,78.125 Z" id="path-4"></path>
        <path d="M126.1,88.5416667 L133.9,88.5416667 C134.61797,88.5416667 135.2,89.1246292 135.2,89.84375 L135.2,92.4479167 C135.2,93.1670374 134.61797,93.75 133.9,93.75 L126.1,93.75 C125.38203,93.75 124.8,93.1670374 124.8,92.4479167 L124.8,89.84375 C124.8,89.1246292 125.38203,88.5416667 126.1,88.5416667 Z" id="path-5"></path>
        <path d="M2.6,5.04557292 L54.6,5.04557292 C56.0359403,5.04557292 57.2,6.21149805 57.2,7.64973958 L57.2,67.5455729 C57.2,68.9838145 56.0359403,70.1497396 54.6,70.1497396 L2.6,70.1497396 C1.16405965,70.1497396 0,68.9838145 0,67.5455729 L0,7.64973958 C0,6.21149805 1.16405965,5.04557292 2.6,5.04557292 Z" id="path-6"></path>
        <filter x="-15.7%" y="-9.2%" width="131.5%" height="127.6%" filterUnits="objectBoundingBox" id="filter-7">
            <feOffset dx="0" dy="3" in="SourceAlpha" result="shadowOffsetOuter1"></feOffset>
            <feGaussianBlur stdDeviation="2.5" in="shadowOffsetOuter1" result="shadowBlurOuter1"></feGaussianBlur>
            <feColorMatrix values="0 0 0 0 0.11372549   0 0 0 0 0.129411765   0 0 0 0 0.160784314  0 0 0 0.06 0" type="matrix" in="shadowBlurOuter1" result="shadowMatrixOuter1"></feColorMatrix>
            <feOffset dx="0" dy="1" in="SourceAlpha" result="shadowOffsetOuter2"></feOffset>
            <feGaussianBlur stdDeviation="1.5" in="shadowOffsetOuter2" result="shadowBlurOuter2"></feGaussianBlur>
            <feColorMatrix values="0 0 0 0 0.11372549   0 0 0 0 0.129411765   0 0 0 0 0.160784314  0 0 0 0.06 0" type="matrix" in="shadowBlurOuter2" result="shadowMatrixOuter2"></feColorMatrix>
            <feOffset dx="0" dy="1" in="SourceAlpha" result="shadowOffsetOuter3"></feOffset>
            <feGaussianBlur stdDeviation="0.5" in="shadowOffsetOuter3" result="shadowBlurOuter3"></feGaussianBlur>
            <feColorMatrix values="0 0 0 0 0.11372549   0 0 0 0 0.129411765   0 0 0 0 0.160784314  0 0 0 0.06 0" type="matrix" in="shadowBlurOuter3" result="shadowMatrixOuter3"></feColorMatrix>
            <feMerge>
                <feMergeNode in="shadowMatrixOuter1"></feMergeNode>
                <feMergeNode in="shadowMatrixOuter2"></feMergeNode>
                <feMergeNode in="shadowMatrixOuter3"></feMergeNode>
            </feMerge>
        </filter>
        <path d="M1.27736949,7.69412879 L0.36816582,9.23771058 C0.311618896,9.33371271 0.31208726,9.45353244 0.368875362,9.5489113 L0.372744665,9.55523315 C0.412956326,9.61916718 0.497738112,9.65186454 0.627090025,9.65332521 L0.636314412,9.65337644 L1.07823981,9.65337644 C1.21053153,9.65337644 1.34236187,9.63748755 1.47100066,9.60603884 L9.29153605,7.69412879 L1.27736949,7.69412879 Z" id="path-8"></path>
        <path d="M3.20413886,4.75525731 L18.2570533,4.75525731 L0.49656831,0.013018555 C0.308828512,-0.0371100691 0.113932697,0.0613289616 0.0391097388,0.242920662 L0.0364261163,0.249601242 C-0.031395334,0.422855193 -0.00323788011,0.619804189 0.110278673,0.76616759 L3.20413886,4.75525731 Z" id="path-9"></path>
        <polygon id="path-10" points="18.2570533 4.75525731 3.20521086 4.75525731 1.28369906 7.69412879 5.44697463 7.69412879"></polygon>
        <path d="M18.2570533,4.75525731 L9.60799671,12.9187892 C9.46768655,12.9868186 9.36099357,13.0208333 9.28791779,13.0208333 C9.21484201,13.0208333 9.11045764,12.9868186 8.97476469,12.9187892 L4.6536993,7.04104624 C4.63372025,6.80338093 4.65148693,6.64679283 4.70699932,6.57128191 C4.76251172,6.495771 4.9047845,6.43466492 5.13381768,6.38796369 L18.2570533,4.75525731 Z" id="path-11"></path>
        <path d="M6.5,10.2539063 L19.5,10.2539063 C20.2179702,10.2539063 20.8,10.8368688 20.8,11.5559896 L20.8,16.7643229 C20.8,17.4834437 20.2179702,18.0664063 19.5,18.0664063 L6.5,18.0664063 C5.78202983,18.0664063 5.2,17.4834437 5.2,16.7643229 L5.2,11.5559896 C5.2,10.8368688 5.78202983,10.2539063 6.5,10.2539063 Z" id="path-12"></path>
    </defs>
    <g id="页面-1" stroke="none" stroke-width="1" fill="none" fill-rule="evenodd">
        <g id="暂无调整记录" transform="translate(-952, -321)">
            <g id="编组-4" transform="translate(952, 321)">
                <rect id="矩形" fill="#FFFFFF" x="0" y="0" width="234" height="125"></rect>
                <g id="编组-3" transform="translate(44.2, 0.1628)">
                    <g id="编组" transform="translate(0, 20.6706)">
                        <g id="背景/1">
                            <path d="M2.6,0 L143,0 C144.43594,0 145.6,1.16592513 145.6,2.60416667 L145.6,101.5625 C145.6,103.000742 144.43594,104.166667 143,104.166667 L2.6,104.166667 C1.16405965,104.166667 0,103.000742 0,101.5625 L0,2.60416667 C0,1.16592513 1.16405965,0 2.6,0 Z" id="矩形" fill="#F1F4F8"></path>
                            <path d="M2.6,0 L143,0 C144.43594,0 145.6,1.16592513 145.6,2.60416667 L145.6,10.4166667 L0,10.4166667 L0,2.60416667 C0,1.16592513 1.16405965,0 2.6,0 Z" id="矩形" fill="#DBDEE3"></path>
                            <ellipse id="椭圆形" fill="#FFFFFF" cx="7.8" cy="5.20833333" rx="2.6" ry="2.60416667"></ellipse>
                            <ellipse id="椭圆形备份" fill="#FFFFFF" cx="18.2" cy="5.20833333" rx="2.6" ry="2.60416667"></ellipse>
                            <ellipse id="椭圆形备份-2" fill="#FFFFFF" cx="28.6" cy="5.20833333" rx="2.6" ry="2.60416667"></ellipse>
                        </g>
                        <path d="M7.8,15.625 L137.8,15.625 C139.23594,15.625 140.4,16.7909251 140.4,18.2291667 L140.4,96.3541667 C140.4,97.7924082 139.23594,98.9583333 137.8,98.9583333 L7.8,98.9583333 C6.36405965,98.9583333 5.2,97.7924082 5.2,96.3541667 L5.2,18.2291667 C5.2,16.7909251 6.36405965,15.625 7.8,15.625 Z" id="矩形" fill="#FFFFFF"></path>
                        <path d="M7.8,15.625 L41.6,15.625 L41.6,98.9583333 L7.8,98.9583333 C6.36405965,98.9583333 5.2,97.7924082 5.2,96.3541667 L5.2,18.2291667 C5.2,16.7909251 6.36405965,15.625 7.8,15.625 Z" id="矩形" fill="#E2E5E9"></path>
                        <path d="M11.7,20.8333333 L14.3,20.8333333 C15.0179702,20.8333333 15.6,21.4162959 15.6,22.1354167 L15.6,24.7395833 C15.6,25.4587041 15.0179702,26.0416667 14.3,26.0416667 L11.7,26.0416667 C10.9820298,26.0416667 10.4,25.4587041 10.4,24.7395833 L10.4,22.1354167 C10.4,21.4162959 10.9820298,20.8333333 11.7,20.8333333 Z" id="矩形" fill="#FFFFFF"></path>
                        <path d="M22.1,20.8333333 L35.1,20.8333333 C35.8179702,20.8333333 36.4,21.4162959 36.4,22.1354167 L36.4,24.7395833 C36.4,25.4587041 35.8179702,26.0416667 35.1,26.0416667 L22.1,26.0416667 C21.3820298,26.0416667 20.8,25.4587041 20.8,24.7395833 L20.8,22.1354167 C20.8,21.4162959 21.3820298,20.8333333 22.1,20.8333333 Z" id="矩形备份" fill="#FFFFFF"></path>
                        <path d="M11.7,31.25 L29.9,31.25 C30.6179702,31.25 31.2,31.8329626 31.2,32.5520833 L31.2,35.15625 C31.2,35.8753708 30.6179702,36.4583333 29.9,36.4583333 L11.7,36.4583333 C10.9820298,36.4583333 10.4,35.8753708 10.4,35.15625 L10.4,32.5520833 C10.4,31.8329626 10.9820298,31.25 11.7,31.25 Z" id="矩形备份-2" fill="#FFFFFF"></path>
                        <path d="M11.7,41.6666667 L35.1,41.6666667 C35.8179702,41.6666667 36.4,42.2496292 36.4,42.96875 L36.4,45.5729167 C36.4,46.2920374 35.8179702,46.875 35.1,46.875 L11.7,46.875 C10.9820298,46.875 10.4,46.2920374 10.4,45.5729167 L10.4,42.96875 C10.4,42.2496292 10.9820298,41.6666667 11.7,41.6666667 Z" id="矩形备份-3" fill="#FFFFFF"></path>
                        <path d="M11.7,52.0833333 L24.7,52.0833333 C25.4179702,52.0833333 26,52.6662959 26,53.3854167 L26,55.9895833 C26,56.7087041 25.4179702,57.2916667 24.7,57.2916667 L11.7,57.2916667 C10.9820298,57.2916667 10.4,56.7087041 10.4,55.9895833 L10.4,53.3854167 C10.4,52.6662959 10.9820298,52.0833333 11.7,52.0833333 Z" id="矩形备份-4" fill="#FFFFFF"></path>
                        <path d="M11.7,62.5 L35.1,62.5 C35.8179702,62.5 36.4,63.0829626 36.4,63.8020833 L36.4,66.40625 C36.4,67.1253708 35.8179702,67.7083333 35.1,67.7083333 L11.7,67.7083333 C10.9820298,67.7083333 10.4,67.1253708 10.4,66.40625 L10.4,63.8020833 C10.4,63.0829626 10.9820298,62.5 11.7,62.5 Z" id="矩形备份-5" fill="#FFFFFF"></path>
                        <path d="M48.1,20.8333333 L66.3,20.8333333 C67.0179702,20.8333333 67.6,21.4162959 67.6,22.1354167 L67.6,40.3645833 C67.6,41.0837041 67.0179702,41.6666667 66.3,41.6666667 L48.1,41.6666667 C47.3820298,41.6666667 46.8,41.0837041 46.8,40.3645833 L46.8,22.1354167 C46.8,21.4162959 47.3820298,20.8333333 48.1,20.8333333 Z" id="矩形" fill="#F1F4F8"></path>
                        <g id="矩形">
                            <use fill="currentColor" xlink:href="#path-1"></use>
                            <use fill-opacity="0.8" fill="#FFFFFF" xlink:href="#path-1"></use>
                        </g>
                        <path d="M79.3,23.4375 L84.5,23.4375 C85.2179702,23.4375 85.8,24.0204626 85.8,24.7395833 C85.8,25.4587041 85.2179702,26.0416667 84.5,26.0416667 L79.3,26.0416667 C78.5820298,26.0416667 78,25.4587041 78,24.7395833 C78,24.0204626 78.5820298,23.4375 79.3,23.4375 Z" id="矩形" fill="#FFFFFF"></path>
                        <path d="M58.5,57.2916667 L87.1,57.2916667 C87.8179702,57.2916667 88.4,57.8746292 88.4,58.59375 L88.4,61.1979167 C88.4,61.9170374 87.8179702,62.5 87.1,62.5 L58.5,62.5 C57.7820298,62.5 57.2,61.9170374 57.2,61.1979167 L57.2,58.59375 C57.2,57.8746292 57.7820298,57.2916667 58.5,57.2916667 Z" id="矩形备份-10" fill="#F1F4F8"></path>
                        <g id="矩形备份-14">
                            <use fill="currentColor" xlink:href="#path-2"></use>
                            <use fill-opacity="0.8" fill="#FFFFFF" xlink:href="#path-2"></use>
                        </g>
                        <path d="M105.3,57.2916667 L118.3,57.2916667 C119.01797,57.2916667 119.6,57.8746292 119.6,58.59375 L119.6,61.1979167 C119.6,61.9170374 119.01797,62.5 118.3,62.5 L105.3,62.5 C104.58203,62.5 104,61.9170374 104,61.1979167 L104,58.59375 C104,57.8746292 104.58203,57.2916667 105.3,57.2916667 Z" id="矩形备份-18" fill="#F1F4F8"></path>
                        <path d="M58.5,67.7083333 L87.1,67.7083333 C87.8179702,67.7083333 88.4,68.2912959 88.4,69.0104167 L88.4,71.6145833 C88.4,72.3337041 87.8179702,72.9166667 87.1,72.9166667 L58.5,72.9166667 C57.7820298,72.9166667 57.2,72.3337041 57.2,71.6145833 L57.2,69.0104167 C57.2,68.2912959 57.7820298,67.7083333 58.5,67.7083333 Z" id="矩形备份-11" fill="#F1F4F8"></path>
                        <g id="矩形备份-15">
                            <use fill="currentColor" xlink:href="#path-3"></use>
                            <use fill-opacity="0.8" fill="#FFFFFF" xlink:href="#path-3"></use>
                        </g>
                        <path d="M105.3,67.7083333 L118.3,67.7083333 C119.01797,67.7083333 119.6,68.2912959 119.6,69.0104167 L119.6,71.6145833 C119.6,72.3337041 119.01797,72.9166667 118.3,72.9166667 L105.3,72.9166667 C104.58203,72.9166667 104,72.3337041 104,71.6145833 L104,69.0104167 C104,68.2912959 104.58203,67.7083333 105.3,67.7083333 Z" id="矩形备份-19" fill="#F1F4F8"></path>
                        <path d="M58.5,78.125 L87.1,78.125 C87.8179702,78.125 88.4,78.7079626 88.4,79.4270833 L88.4,82.03125 C88.4,82.7503708 87.8179702,83.3333333 87.1,83.3333333 L58.5,83.3333333 C57.7820298,83.3333333 57.2,82.7503708 57.2,82.03125 L57.2,79.4270833 C57.2,78.7079626 57.7820298,78.125 58.5,78.125 Z" id="矩形备份-12" fill="#F1F4F8"></path>
                        <g id="矩形备份-16">
                            <use fill="currentColor" xlink:href="#path-4"></use>
                            <use fill-opacity="0.8" fill="#FFFFFF" xlink:href="#path-4"></use>
                        </g>
                        <path d="M105.3,78.125 L118.3,78.125 C119.01797,78.125 119.6,78.7079626 119.6,79.4270833 L119.6,82.03125 C119.6,82.7503708 119.01797,83.3333333 118.3,83.3333333 L105.3,83.3333333 C104.58203,83.3333333 104,82.7503708 104,82.03125 L104,79.4270833 C104,78.7079626 104.58203,78.125 105.3,78.125 Z" id="矩形备份-20" fill="#F1F4F8"></path>
                        <path d="M58.5,88.5416667 L87.1,88.5416667 C87.8179702,88.5416667 88.4,89.1246292 88.4,89.84375 L88.4,92.4479167 C88.4,93.1670374 87.8179702,93.75 87.1,93.75 L58.5,93.75 C57.7820298,93.75 57.2,93.1670374 57.2,92.4479167 L57.2,89.84375 C57.2,89.1246292 57.7820298,88.5416667 58.5,88.5416667 Z" id="矩形备份-13" fill="#F1F4F8"></path>
                        <g id="矩形备份-17">
                            <use fill="currentColor" xlink:href="#path-5"></use>
                            <use fill-opacity="0.8" fill="#FFFFFF" xlink:href="#path-5"></use>
                        </g>
                        <path d="M105.3,88.5416667 L118.3,88.5416667 C119.01797,88.5416667 119.6,89.1246292 119.6,89.84375 L119.6,92.4479167 C119.6,93.1670374 119.01797,93.75 118.3,93.75 L105.3,93.75 C104.58203,93.75 104,93.1670374 104,92.4479167 L104,89.84375 C104,89.1246292 104.58203,88.5416667 105.3,88.5416667 Z" id="矩形备份-21" fill="#F1F4F8"></path>
                        <ellipse id="椭圆形备份-3" fill="#FDF2E8" cx="49.4" cy="59.8958333" rx="2.6" ry="2.60416667"></ellipse>
                        <ellipse id="椭圆形备份-4" fill="#E6F2FE" cx="49.4" cy="70.3125" rx="2.6" ry="2.60416667"></ellipse>
                        <ellipse id="椭圆形备份-5" fill="#ECF7F2" cx="49.4" cy="80.7291667" rx="2.6" ry="2.60416667"></ellipse>
                        <ellipse id="椭圆形备份-6" fill="#FDEEEA" cx="49.4" cy="91.1458333" rx="2.6" ry="2.60416667"></ellipse>
                        <g id="路径-7" transform="translate(46.475, 49.1536)" fill="#F1F4F8" fill-rule="nonzero">
                            <path d="M88.725,0 C88.9044925,0 89.05,0.223857625 89.05,0.5 C89.05,0.776142375 88.9044925,1 88.725,1 L0.325,1 C0.145507456,1 0,0.776142375 0,0.5 C0,0.223857625 0.145507456,0 0.325,0 L88.725,0 Z" id="路径-6"></path>
                        </g>
                        <path d="M74.1,36.4583333 L92.3,36.4583333 C93.0179702,36.4583333 93.6,37.0412959 93.6,37.7604167 L93.6,40.3645833 C93.6,41.0837041 93.0179702,41.6666667 92.3,41.6666667 L74.1,41.6666667 C73.3820298,41.6666667 72.8,41.0837041 72.8,40.3645833 L72.8,37.7604167 C72.8,37.0412959 73.3820298,36.4583333 74.1,36.4583333 Z" id="矩形" fill="#F1F4F8"></path>
                        <path d="M100.1,36.4583333 L133.9,36.4583333 C134.61797,36.4583333 135.2,37.0412959 135.2,37.7604167 L135.2,40.3645833 C135.2,41.0837041 134.61797,41.6666667 133.9,41.6666667 L100.1,41.6666667 C99.3820298,41.6666667 98.8,41.0837041 98.8,40.3645833 L98.8,37.7604167 C98.8,37.0412959 99.3820298,36.4583333 100.1,36.4583333 Z" id="矩形备份-6" fill="#F1F4F8"></path>
                        <g id="Icon/border_color" transform="translate(48.8, 23.1667)">
                            <path d="M9.11133333,3.14 L3.55533333,8.69533333 L3.55533333,10.778 L5.63866667,10.778 L11.1946667,5.22333333 L9.11133333,3.14 Z M14.6666667,12.4446667 L14.6666667,14.6666667 L1.33333333,14.6666667 L1.33333333,12.4446667 L14.6666667,12.4446667 Z M10.7553333,1.496 C10.8591359,1.39198439 11.0000503,1.33353109 11.147,1.33353109 C11.2939497,1.33353109 11.4348641,1.39198439 11.5386667,1.496 L12.8386667,2.796 C12.9424782,2.89977562 13.0008019,3.04054709 13.0008019,3.18733334 C13.0008019,3.33411958 12.9424782,3.47489105 12.8386667,3.57866667 L11.75,4.668 L9.66666667,2.58466667 L10.7553333,1.496 Z" id="icon" fill="#DBDEE3"></path>
                            <rect id="border_color" x="0" y="0" width="16" height="16"></rect>
                        </g>
                    </g>
                    <g id="编组-2" transform="translate(111.8, 0)">
                        <g id="矩形">
                            <use fill="black" fill-opacity="1" filter="url(#filter-7)" xlink:href="#path-6"></use>
                            <use fill="#FFFFFF" fill-rule="evenodd" xlink:href="#path-6"></use>
                        </g>
                        <g id="元素/纸飞机/主色备份" transform="translate(51.9427, 0)">
                            <g id="路径-14">
                                <use fill="currentColor" xlink:href="#path-8"></use>
                                <use fill-opacity="0.4" fill="#FFFFFF" xlink:href="#path-8"></use>
                            </g>
                            <g id="路径-5">
                                <use fill="currentColor" xlink:href="#path-9"></use>
                                <use fill-opacity="0.2" fill="#FFFFFF" xlink:href="#path-9"></use>
                            </g>
                            <g id="路径-12">
                                <use fill="currentColor" xlink:href="#path-10"></use>
                                <use fill-opacity="0.2" fill="#000000" xlink:href="#path-10"></use>
                            </g>
                            <g id="路径-13">
                                <use fill="currentColor" xlink:href="#path-11"></use>
                                <use fill-opacity="0.2" fill="#FFFFFF" xlink:href="#path-11"></use>
                            </g>
                        </g>
                        <g id="矩形">
                            <use fill="currentColor" xlink:href="#path-12"></use>
                            <use fill-opacity="0.8" fill="#FFFFFF" xlink:href="#path-12"></use>
                        </g>
                        <path d="M27.3,10.2539063 L40.3,10.2539063 C41.0179702,10.2539063 41.6,10.8368688 41.6,11.5559896 L41.6,16.7643229 C41.6,17.4834437 41.0179702,18.0664063 40.3,18.0664063 L27.3,18.0664063 C26.5820298,18.0664063 26,17.4834437 26,16.7643229 L26,11.5559896 C26,10.8368688 26.5820298,10.2539063 27.3,10.2539063 Z" id="矩形备份-7" fill="#E9ECF0"></path>
                        <path d="M52,22.9492188 C52.1794925,22.9492188 52.325,23.1730764 52.325,23.4492188 C52.325,23.7253611 52.1794925,23.9492188 52,23.9492188 L5.2,23.9492188 C5.02050746,23.9492188 4.875,23.7253611 4.875,23.4492188 C4.875,23.1730764 5.02050746,22.9492188 5.2,22.9492188 L52,22.9492188 Z" id="路径-13" fill="#F1F4F8" fill-rule="nonzero"></path>
                        <polygon id="路径-14" fill="#F1F4F8" fill-rule="nonzero" points="8.475 31.0872396 8.475 62.3372396 7.475 62.3372396 7.475 31.0872396"></polygon>
                        <ellipse id="椭圆形" fill="#E9ECF0" cx="7.8" cy="31.0872396" rx="2.6" ry="2.60416667"></ellipse>
                        <ellipse id="椭圆形备份-7" fill="#E9ECF0" cx="7.8" cy="41.5039062" rx="2.6" ry="2.60416667"></ellipse>
                        <ellipse id="椭圆形备份-8" fill="#E9ECF0" cx="7.8" cy="51.9205729" rx="2.6" ry="2.60416667"></ellipse>
                        <ellipse id="椭圆形备份-9" fill="#E9ECF0" cx="7.8" cy="62.3372396" rx="2.6" ry="2.60416667"></ellipse>
                        <path d="M16.9,28.4830729 L50.7,28.4830729 C51.4179702,28.4830729 52,29.0660355 52,29.7851562 L52,32.3893229 C52,33.1084437 51.4179702,33.6914062 50.7,33.6914062 L16.9,33.6914062 C16.1820298,33.6914062 15.6,33.1084437 15.6,32.3893229 L15.6,29.7851562 C15.6,29.0660355 16.1820298,28.4830729 16.9,28.4830729 Z" id="矩形" fill="#E9ECF0"></path>
                        <path d="M16.9,38.8997396 L27.3,38.8997396 C28.0179702,38.8997396 28.6,39.4827021 28.6,40.2018229 L28.6,42.8059896 C28.6,43.5251104 28.0179702,44.1080729 27.3,44.1080729 L16.9,44.1080729 C16.1820298,44.1080729 15.6,43.5251104 15.6,42.8059896 L15.6,40.2018229 C15.6,39.4827021 16.1820298,38.8997396 16.9,38.8997396 Z" id="矩形备份-8" fill="#E9ECF0"></path>
                        <path d="M16.9,49.3164063 L42.9,49.3164063 C43.6179702,49.3164063 44.2,49.8993688 44.2,50.6184896 L44.2,53.2226563 C44.2,53.941777 43.6179702,54.5247396 42.9,54.5247396 L16.9,54.5247396 C16.1820298,54.5247396 15.6,53.941777 15.6,53.2226563 L15.6,50.6184896 C15.6,49.8993688 16.1820298,49.3164063 16.9,49.3164063 Z" id="矩形备份-9" fill="#E9ECF0"></path>
                        <path d="M16.9,59.7330729 L37.7,59.7330729 C38.4179702,59.7330729 39,60.3160355 39,61.0351562 L39,63.6393229 C39,64.3584437 38.4179702,64.9414062 37.7,64.9414062 L16.9,64.9414062 C16.1820298,64.9414062 15.6,64.3584437 15.6,63.6393229 L15.6,61.0351562 C15.6,60.3160355 16.1820298,59.7330729 16.9,59.7330729 Z" id="矩形备份-22" fill="#E9ECF0"></path>
                        <path d="M31.3891638,19.8925558 C31.7529289,19.643265 32.1116647,19.4045756 32.4653402,19.1764102 L32.1133696,18.6290762 C31.7545807,18.8605404 31.390822,19.1025718 31.0221192,19.3552464 L31.3891638,19.8925558 Z M33.5583245,18.4950099 C33.9368571,18.2674507 34.3089409,18.0527617 34.6745195,17.8508274 L34.3606235,17.2807323 C33.9880338,17.4865393 33.6090836,17.7051901 33.2238205,17.9367955 L33.5583245,18.4950099 Z M35.8143,17.2519231 C36.2106962,17.0546657 36.5983356,16.8736746 36.9771032,16.7087578 L36.7179691,16.1116905 C36.3289311,16.281079 35.9312715,16.4667487 35.5250881,16.6688764 L35.8143,17.2519231 Z M38.1668624,16.2327296 C38.584474,16.0810739 38.989148,15.9511489 39.380617,15.8425727 L39.2071519,15.2151425 C38.7991984,15.3282908 38.3785035,15.4633595 37.9453055,15.6206754 L38.1668624,16.2327296 Z M40.6192139,15.5621849 C41.0574229,15.4869515 41.4740178,15.4427903 41.8682618,15.4286773 L41.8450454,14.778051 C41.4211595,14.7932251 40.9756886,14.8404474 40.5093995,14.9205017 L40.6192139,15.5621849 Z M43.1038226,15.4926357 C43.5358293,15.5580937 43.9262057,15.6691792 44.2727717,15.8218996 L44.5345331,15.2259831 C44.134324,15.049624 43.6886283,14.9227968 43.2010474,14.8489181 L43.1038226,15.4926357 Z M45.2585228,16.4780324 C45.5464009,16.7608993 45.7613577,17.0901362 45.8980152,17.4489192 L46.505321,17.2168594 C46.3353314,16.7705655 46.0685333,16.3619264 45.7137179,16.0132873 L45.2585228,16.4780324 Z M46.0630253,18.5901697 C46.0332087,18.9809577 45.9171352,19.3598724 45.7231615,19.6968379 L46.2862679,20.0220291 C46.5290086,19.600347 46.6739451,19.1272109 46.7111355,18.6397782 L46.0630253,18.5901697 Z M44.9545738,20.5278775 C44.6440557,20.7408615 44.2810597,20.8909745 43.8736585,20.9690125 L43.9957545,21.6084654 C44.490361,21.5137231 44.9369109,21.3290574 45.3218342,21.0650389 L44.9545738,20.5278775 Z M42.6748167,20.9979791 C42.2388936,20.9416517 41.8775051,20.8156761 41.5901588,20.6272252 L41.2340901,21.1718936 C41.607438,21.416747 42.0621352,21.575249 42.5916512,21.6436699 L42.6748167,20.9979791 Z M40.9036952,19.778529 C40.7733244,19.450147 40.7173212,19.0614273 40.7381227,18.6258419 L40.088865,18.5947369 C40.0638409,19.1187437 40.1330979,19.5994585 40.2996963,20.0190916 L40.9036952,19.778529 Z M40.9596861,17.4233491 C41.0746555,17.0467486 41.2320236,16.6586449 41.4285226,16.2679615 L40.8480226,15.9750553 C40.6353294,16.3979362 40.4641071,16.8202075 40.3380951,17.2329797 L40.9596861,17.4233491 Z M42.0682958,15.1890827 C42.3019819,14.8479717 42.5614057,14.514289 42.8433667,14.1929493 L42.3551272,13.7631671 C42.0561104,14.1039447 41.7807436,14.4581338 41.5323363,14.8207334 L42.0682958,15.1890827 Z M43.7403384,13.2827873 C44.0526808,13.000352 44.3814776,12.7352494 44.7242556,12.4902523 L44.3466923,11.9603052 C43.9835777,12.2198377 43.6354263,12.5005456 43.3047649,12.7995457 L43.7403384,13.2827873 Z M45.7894424,11.8197357 C46.1595647,11.6164941 46.5400816,11.4369193 46.9292281,11.2826266 L46.6899849,10.6772884 C46.2755088,10.8416241 45.8705536,11.0327319 45.476965,11.2488592 L45.7894424,11.8197357 Z M48.1229063,10.8966663 C48.5292636,10.7941952 48.9416214,10.7190211 49.358835,10.6721267 L49.2863474,10.025146 C48.8398948,10.0753269 48.3987444,10.15575 47.9642105,10.2653263 L48.1229063,10.8966663 Z M50.6055741,10.6168421 C51.0194604,10.6263874 51.4362395,10.663558 51.8552356,10.7289991 L51.9553834,10.0857312 C51.5081795,10.0158845 51.0629437,9.97617601 50.6205368,9.96597298 L50.6055741,10.6168421 Z" id="路径" fill="currentColor" fill-rule="nonzero"></path>
                        <path d="M31.3891638,19.8925558 C31.7529289,19.643265 32.1116647,19.4045756 32.4653402,19.1764102 L32.1133696,18.6290762 C31.7545807,18.8605404 31.390822,19.1025718 31.0221192,19.3552464 L31.3891638,19.8925558 Z M33.5583245,18.4950099 C33.9368571,18.2674507 34.3089409,18.0527617 34.6745195,17.8508274 L34.3606235,17.2807323 C33.9880338,17.4865393 33.6090836,17.7051901 33.2238205,17.9367955 L33.5583245,18.4950099 Z M35.8143,17.2519231 C36.2106962,17.0546657 36.5983356,16.8736746 36.9771032,16.7087578 L36.7179691,16.1116905 C36.3289311,16.281079 35.9312715,16.4667487 35.5250881,16.6688764 L35.8143,17.2519231 Z M38.1668624,16.2327296 C38.584474,16.0810739 38.989148,15.9511489 39.380617,15.8425727 L39.2071519,15.2151425 C38.7991984,15.3282908 38.3785035,15.4633595 37.9453055,15.6206754 L38.1668624,16.2327296 Z M40.6192139,15.5621849 C41.0574229,15.4869515 41.4740178,15.4427903 41.8682618,15.4286773 L41.8450454,14.778051 C41.4211595,14.7932251 40.9756886,14.8404474 40.5093995,14.9205017 L40.6192139,15.5621849 Z M43.1038226,15.4926357 C43.5358293,15.5580937 43.9262057,15.6691792 44.2727717,15.8218996 L44.5345331,15.2259831 C44.134324,15.049624 43.6886283,14.9227968 43.2010474,14.8489181 L43.1038226,15.4926357 Z M45.2585228,16.4780324 C45.5464009,16.7608993 45.7613577,17.0901362 45.8980152,17.4489192 L46.505321,17.2168594 C46.3353314,16.7705655 46.0685333,16.3619264 45.7137179,16.0132873 L45.2585228,16.4780324 Z M46.0630253,18.5901697 C46.0332087,18.9809577 45.9171352,19.3598724 45.7231615,19.6968379 L46.2862679,20.0220291 C46.5290086,19.600347 46.6739451,19.1272109 46.7111355,18.6397782 L46.0630253,18.5901697 Z M44.9545738,20.5278775 C44.6440557,20.7408615 44.2810597,20.8909745 43.8736585,20.9690125 L43.9957545,21.6084654 C44.490361,21.5137231 44.9369109,21.3290574 45.3218342,21.0650389 L44.9545738,20.5278775 Z M42.6748167,20.9979791 C42.2388936,20.9416517 41.8775051,20.8156761 41.5901588,20.6272252 L41.2340901,21.1718936 C41.607438,21.416747 42.0621352,21.575249 42.5916512,21.6436699 L42.6748167,20.9979791 Z M40.9036952,19.778529 C40.7733244,19.450147 40.7173212,19.0614273 40.7381227,18.6258419 L40.088865,18.5947369 C40.0638409,19.1187437 40.1330979,19.5994585 40.2996963,20.0190916 L40.9036952,19.778529 Z M40.9596861,17.4233491 C41.0746555,17.0467486 41.2320236,16.6586449 41.4285226,16.2679615 L40.8480226,15.9750553 C40.6353294,16.3979362 40.4641071,16.8202075 40.3380951,17.2329797 L40.9596861,17.4233491 Z M42.0682958,15.1890827 C42.3019819,14.8479717 42.5614057,14.514289 42.8433667,14.1929493 L42.3551272,13.7631671 C42.0561104,14.1039447 41.7807436,14.4581338 41.5323363,14.8207334 L42.0682958,15.1890827 Z M43.7403384,13.2827873 C44.0526808,13.000352 44.3814776,12.7352494 44.7242556,12.4902523 L44.3466923,11.9603052 C43.9835777,12.2198377 43.6354263,12.5005456 43.3047649,12.7995457 L43.7403384,13.2827873 Z M45.7894424,11.8197357 C46.1595647,11.6164941 46.5400816,11.4369193 46.9292281,11.2826266 L46.6899849,10.6772884 C46.2755088,10.8416241 45.8705536,11.0327319 45.476965,11.2488592 L45.7894424,11.8197357 Z M48.1229063,10.8966663 C48.5292636,10.7941952 48.9416214,10.7190211 49.358835,10.6721267 L49.2863474,10.025146 C48.8398948,10.0753269 48.3987444,10.15575 47.9642105,10.2653263 L48.1229063,10.8966663 Z M50.6055741,10.6168421 C51.0194604,10.6263874 51.4362395,10.663558 51.8552356,10.7289991 L51.9553834,10.0857312 C51.5081795,10.0158845 51.0629437,9.97617601 50.6205368,9.96597298 L50.6055741,10.6168421 Z" id="路径" fill-opacity="0.2" fill="#FFFFFF" fill-rule="nonzero"></path>
                    </g>
                </g>
            </g>
        </g>
    </g>
</svg>