<?xml version="1.0" encoding="UTF-8"?>
<svg width="24px" height="24px" viewBox="0 0 24 24" version="1.1" xmlns="http://www.w3.org/2000/svg" xmlns:xlink="http://www.w3.org/1999/xlink">
    <title>编组 28</title>
    <g id="供应商通讯" stroke="none" stroke-width="1" fill="none" fill-rule="evenodd">
        <g id="后台-供应商沟通-入口" transform="translate(-1392.000000, -693.000000)">
            <g id="编组-4" transform="translate(1370.000000, 589.000000)">
                <g id="编组-2" transform="translate(0.000000, 96.000000)">
                    <g id="编组-28" transform="translate(22.000000, 8.000000)">
                        <rect id="矩形" x="0" y="0" width="24" height="24"></rect>
                        <path d="M10.0757103,13.9242897 C10.6279951,13.9242897 11.0757103,14.3720049 11.0757103,14.9242897 L11.0757103,19.6 C11.0757103,20.1522847 10.6279951,20.6 10.0757103,20.6 L5.4,20.6 C4.84771525,20.6 4.4,20.1522847 4.4,19.6 L4.4,14.9242897 C4.4,14.3720049 4.84771525,13.9242897 5.4,13.9242897 L10.0757103,13.9242897 Z M19.6124394,13.9242897 C20.1647241,13.9242897 20.6124394,14.3720049 20.6124394,14.9242897 L20.6124394,19.6 C20.6124394,20.1522847 20.1647241,20.6 19.6124394,20.6 L14.936729,20.6 C14.3844443,20.6 13.936729,20.1522847 13.936729,19.6 L13.936729,14.9242897 C13.936729,14.3720049 14.3844443,13.9242897 14.936729,13.9242897 L19.6124394,13.9242897 Z M17.981691,3.71208253 L21.2879175,7.01830901 C21.6784418,7.4088333 21.6784418,8.04199828 21.2879175,8.43252257 L17.981691,11.7387491 C17.5911667,12.1292733 16.9580017,12.1292733 16.5674774,11.7387491 L13.2612509,8.43252257 C12.8707267,8.04199828 12.8707267,7.4088333 13.2612509,7.01830901 L16.5674774,3.71208253 C16.9580017,3.32155824 17.5911667,3.32155824 17.981691,3.71208253 Z M10.0757103,4.38756063 C10.6279951,4.38756063 11.0757103,4.83527588 11.0757103,5.38756063 L11.0757103,10.063271 C11.0757103,10.6155557 10.6279951,11.063271 10.0757103,11.063271 L5.4,11.063271 C4.84771525,11.063271 4.4,10.6155557 4.4,10.063271 L4.4,5.38756063 C4.4,4.83527588 4.84771525,4.38756063 5.4,4.38756063 L10.0757103,4.38756063 Z" id="形状结合" stroke="#FFFFFF" stroke-width="1.5"></path>
                    </g>
                </g>
            </g>
        </g>
    </g>
</svg>