<?xml version="1.0" encoding="UTF-8"?>
<svg width="24px" height="24px" viewBox="0 0 24 24" version="1.1" xmlns="http://www.w3.org/2000/svg" xmlns:xlink="http://www.w3.org/1999/xlink">
    <title>RobotOutline</title>
    <g id="供应商通讯" stroke="none" stroke-width="1" fill="none" fill-rule="evenodd">
        <g id="后台-供应商沟通-入口" transform="translate(-1392.000000, -645.000000)">
            <g id="编组-4" transform="translate(1370.000000, 589.000000)">
                <g id="编组-2" transform="translate(14.000000, 48.000000)">
                    <g id="RobotOutline" transform="translate(8.000000, 8.000000)">
                        <rect id="矩形" fill="#000000" fill-rule="nonzero" opacity="0" x="0" y="0" width="24" height="24"></rect>
                        <path d="M19.0382813,4.69453125 C19.29375,4.25390625 19.1414063,3.6890625 18.7007813,3.43359375 C18.2578125,3.178125 17.6953125,3.33046875 17.4398438,3.77109375 L16.5164063,5.36953125 C16.415625,5.5453125 16.3945313,5.7375 16.4132813,5.925 L7.58671875,5.925 C7.60546875,5.7375 7.58671875,5.5453125 7.48359375,5.36953125 L6.5625,3.76875 C6.30703125,3.328125 5.7421875,3.17578125 5.3015625,3.43125 C4.8609375,3.68671875 4.70859375,4.2515625 4.9640625,4.6921875 L5.71875,5.99765625 C4.0359375,6.3421875 2.77265625,7.83046875 2.77265625,9.6140625 L2.77265625,16.9992187 C2.77265625,19.0382812 4.425,20.690625 6.4640625,20.690625 L17.540625,20.690625 C19.5796875,20.690625 21.2320313,19.0382812 21.2320313,16.9992187 L21.2320313,9.61640625 C21.2296875,7.8328125 19.9664063,6.34453125 18.2835938,6 L19.0382813,4.69453125 Z M17.5382813,18.8460937 L6.46171875,18.8460937 C5.44453125,18.8460937 4.61484375,18.01875 4.61484375,16.9992187 L4.61484375,9.61640625 C4.61484375,8.59921875 5.4421875,7.76953125 6.46171875,7.76953125 L17.5382813,7.76953125 C18.5554688,7.76953125 19.3851563,8.596875 19.3851563,9.61640625 L19.3851563,16.9992187 C19.3851563,18.0164063 18.5578125,18.8460937 17.5382813,18.8460937 Z M0.9234375,10.5375 C0.4125,10.5375 0,10.9523438 0,11.4609375 L0,15.1523438 C0,15.6632813 0.4125,16.0757813 0.9234375,16.0757813 C1.434375,16.0757813 1.846875,15.6632813 1.846875,15.1523438 L1.846875,11.4609375 C1.846875,10.9523438 1.43203125,10.5375 0.9234375,10.5375 Z M23.0765625,10.5375 C22.565625,10.5375 22.153125,10.95 22.153125,11.4609375 L22.153125,15.1523438 C22.153125,15.6632813 22.565625,16.0757813 23.0765625,16.0757813 C23.5875,16.0757813 24,15.6632813 24,15.1523438 L24,11.4609375 C24,10.9523438 23.5875,10.5375 23.0765625,10.5375 Z M7.57734375,12.946875 C7.57734375,13.4417437 7.84135302,13.8990212 8.26992186,14.1464555 C8.6984907,14.3938899 9.2265093,14.3938899 9.65507814,14.1464555 C10.083647,13.8990212 10.3476563,13.4417437 10.3476563,12.946875 C10.3476563,12.4520063 10.083647,11.9947288 9.65507814,11.7472945 C9.2265093,11.4998601 8.6984907,11.4998601 8.26992186,11.7472945 C7.84135302,11.9947288 7.57734375,12.4520063 7.57734375,12.946875 Z M15.0375,14.4140625 C15.8025007,14.4140625 16.4226563,13.7939069 16.4226563,13.0289062 C16.4226563,12.2639056 15.8025007,11.64375 15.0375,11.64375 C14.2724993,11.64375 13.6523438,12.2639056 13.6523438,13.0289062 C13.6523438,13.7939069 14.2724993,14.4140625 15.0375,14.4140625 Z" id="形状" fill="#2C3440"></path>
                    </g>
                </g>
            </g>
        </g>
    </g>
</svg>