<?xml version="1.0" encoding="UTF-8"?>
<svg width="12px" height="12px" viewBox="0 0 12 12" version="1.1" xmlns="http://www.w3.org/2000/svg" xmlns:xlink="http://www.w3.org/1999/xlink">
    <title>编组 3</title>
    <g id="供应商通讯" stroke="none" stroke-width="1" fill="none" fill-rule="evenodd">
        <g id="悬浮窗口-出现" transform="translate(-1418.000000, -726.000000)" fill="#A6A6A6" fill-rule="nonzero">
            <g id="编组-4" transform="translate(1384.000000, 726.000000)">
                <g id="编组-3" transform="translate(34.000000, 0.000000)">
                    <path d="M6,0 C9.3137085,0 12,2.6862915 12,6 C12,9.3137085 9.3137085,12 6,12 C2.6862915,12 0,9.3137085 0,6 C0,2.6862915 2.6862915,0 6,0 Z M6,1 C3.23857625,1 1,3.23857625 1,6 C1,8.76142375 3.23857625,11 6,11 C8.76142375,11 11,8.76142375 11,6 C11,3.23857625 8.76142375,1 6,1 Z" id="椭圆形"></path>
                    <polygon id="路径-2" points="9 5.5 9 6.5 3 6.5 3 5.5"></polygon>
                </g>
            </g>
        </g>
    </g>
</svg>