
<svg width="689px" height="609px" viewBox="0 0 689 609" version="1.1" xmlns="http://www.w3.org/2000/svg" xmlns:xlink="http://www.w3.org/1999/xlink" style="margin-top: -36px; margin-left: -54px;">
    <defs>
        <linearGradient x1="50%" y1="-40.1195304%" x2="50%" y2="50%" id="linearGradient-gapuf65lcw-1">
            <stop stop-color="#FFFFFF" stop-opacity="0.8" offset="0%"></stop>
            <stop stop-color="#FFFFFF" offset="100%"></stop>
        </linearGradient>
        <rect id="path-gapuf65lcw-2" x="30" y="31" width="600" height="577"></rect>
        <filter x="-8.3%" y="-8.3%" width="116.7%" height="116.7%" filterUnits="objectBoundingBox" id="filter-gapuf65lcw-3">
            <feGaussianBlur stdDeviation="1" in="SourceGraphic"></feGaussianBlur>
        </filter>
        <filter x="-6.0%" y="-6.0%" width="112.0%" height="112.0%" filterUnits="objectBoundingBox" id="filter-gapuf65lcw-4">
            <feGaussianBlur stdDeviation="1" in="SourceGraphic"></feGaussianBlur>
        </filter>
        <circle id="path-gapuf65lcw-5" cx="114" cy="114" r="114"></circle>
        <circle id="path-gapuf65lcw-6" cx="114" cy="114" r="76"></circle>
        <circle id="path-gapuf65lcw-7" cx="114" cy="114" r="45"></circle>
        <linearGradient x1="50%" y1="38.1128058%" x2="50%" y2="81.7913004%" id="linearGradient-gapuf65lcw-8">
            <stop stop-color="#FFFFFF" stop-opacity="0.801491477" offset="0%"></stop>
            <stop stop-color="#FFFFFF" offset="100%"></stop>
        </linearGradient>
        <path d="M327.724682,140 L334.472012,140 C336.803039,165.73448 339.145631,185.090306 341.499788,198.067478 C343.853945,211.044649 347.693168,221.022157 353.017459,228 L307,228 C313.126815,219.405897 317.380176,209.42839 319.760083,198.067478 C322.13999,186.706566 324.794857,167.35074 327.724682,140 Z" id="path-gapuf65lcw-9"></path>
        <path d="M48.492717,120 C39.8438456,110.988459 36.9758261,99.6753278 39.8886585,86.0606061 L57.0799708,86.0606061 C59.9928032,99.6753278 57.1303852,110.988459 48.492717,120 Z" id="path-gapuf65lcw-10"></path>
        <path d="M54.9311902,89.6969697 C57.1158145,99.908011 54.9690011,108.392859 48.4907499,115.151515 C42.0040964,108.392859 39.8530817,99.908011 42.037706,89.6969697 L54.9311902,89.6969697" id="path-gapuf65lcw-11"></path>
        <path d="M53.8568,88.4848485 C55.6773202,96.7509296 53.888309,103.619616 48.4897663,109.090909 C43.0842217,103.619616 41.2917095,96.7509296 43.1122297,88.4848485 L53.8568,88.4848485" id="path-gapuf65lcw-12"></path>
        <path d="M48.3607737,96.969697 C43.2542943,90.7943155 34.8459696,90.0760215 23.1357995,94.8148148 C11.6653926,55.4576678 20.1138487,23.8527295 48.4811679,0 C76.8900134,23.8527295 85.2969432,55.4576678 73.8265363,94.8148148 C62.1241081,90.0760215 53.7196544,90.7943155 48.613175,96.969697" id="path-gapuf65lcw-13"></path>
        <path d="M47.2727273,0 C76.8143385,23.7849661 85.5564836,55.3001176 73.6287092,94.5454545 C70.5545138,93.3517218 67.699184,92.5052653 65.06272,92.0060851 C76.7635671,54.6299378 70.8329273,23.9612583 47.2727273,0 Z" id="path-gapuf65lcw-14"></path>
        <filter x="-27.9%" y="-40.0%" width="155.8%" height="180.0%" filterUnits="objectBoundingBox" id="filter-gapuf65lcw-15">
            <feGaussianBlur stdDeviation="8" in="SourceGraphic"></feGaussianBlur>
        </filter>
        <filter x="-125.0%" y="-125.0%" width="350.0%" height="350.0%" filterUnits="objectBoundingBox" id="filter-gapuf65lcw-16">
            <feGaussianBlur stdDeviation="10" in="SourceGraphic"></feGaussianBlur>
        </filter>
    </defs>
    <g id="页面-1" stroke="none" stroke-width="1" fill="none" fill-rule="evenodd">
        <g id="发版公告" transform="translate(-366.000000, -86.000000)">
            <g id="编组-37" transform="translate(420.000000, 120.000000)">
                <g id="编组-35" transform="translate(-30.000000, -33.000000)">
                    <rect id="矩形" stroke="#979797" fill="#D8D8D8" x="30.5" y="31.5" width="599" height="560"></rect>
                    <g id="矩形">
                        <use fill="currentColor" xlink:href="#path-gapuf65lcw-2"></use>
                        <use fill="url(#linearGradient-gapuf65lcw-1)" xlink:href="#path-gapuf65lcw-2"></use>
                    </g>
                    <path d="M207.5,160 C230.419817,160 249,178.580183 249,201.5 C249,224.419817 230.419817,243 207.5,243 C184.580183,243 166,224.419817 166,201.5 C166,178.580183 184.580183,160 207.5,160 Z M60.5,95 C80.5986989,95 97.360317,109.287741 101.182071,128.260441 C108.479119,121.871737 118.037413,118 128.5,118 C151.419817,118 170,136.580183 170,159.5 C170,182.419817 151.419817,201 128.5,201 C108.401301,201 91.639683,186.712259 87.8179285,167.739559 C80.520881,174.128263 70.9625868,178 60.5,178 C37.5801829,178 19,159.419817 19,136.5 C19,113.580183 37.5801829,95 60.5,95 Z M512,129 C538.509668,129 560,150.490332 560,177 C560,203.509668 538.509668,225 512,225 C496.359296,225 482.465823,217.519215 473.702377,205.940443 L473.642327,206.058764 C465.654061,221.469737 449.556768,232 431,232 C404.490332,232 383,210.509668 383,184 C383,157.490332 404.490332,136 431,136 C446.640704,136 460.534177,143.480785 469.297623,155.059557 L469.357673,154.941236 C477.345939,139.530263 493.443232,129 512,129 Z M603,69 C629.509668,69 651,90.490332 651,117 C651,143.509668 629.509668,165 603,165 C576.490332,165 555,143.509668 555,117 C555,90.490332 576.490332,69 603,69 Z" id="形状结合" fill="#FFFFFF" opacity="0.7"></path>
                    <circle id="椭圆形" fill="#FFFFFF" opacity="0.65952846" filter="url(#filter-gapuf65lcw-3)" cx="196" cy="132" r="18"></circle>
                    <circle id="椭圆形备份-2" fill="#FFFFFF" opacity="0.400000006" filter="url(#filter-gapuf65lcw-4)" cx="479" cy="83" r="25"></circle>
                    <g id="编组-56" transform="translate(217.000000, 0.000000)" opacity="0.400000006">
                        <g id="椭圆形">
                            <use fill="currentColor" xlink:href="#path-gapuf65lcw-5"></use>
                            <use fill-opacity="0.9" fill="#FFFFFF" xlink:href="#path-gapuf65lcw-5"></use>
                        </g>
                        <g id="椭圆形">
                            <use fill="currentColor" xlink:href="#path-gapuf65lcw-6"></use>
                            <use fill-opacity="0.85" fill="#FFFFFF" xlink:href="#path-gapuf65lcw-6"></use>
                        </g>
                        <g id="椭圆形">
                            <use fill="currentColor" xlink:href="#path-gapuf65lcw-7"></use>
                            <use fill-opacity="0.8" fill="#FFFFFF" xlink:href="#path-gapuf65lcw-7"></use>
                        </g>
                    </g>
                    <g id="矩形">
                        <use fill="currentColor" xlink:href="#path-gapuf65lcw-9"></use>
                        <use fill="url(#linearGradient-gapuf65lcw-8)" xlink:href="#path-gapuf65lcw-9"></use>
                    </g>
                    <g id="元素/火箭/主色" transform="translate(283.000000, 59.000000)">
                        <g id="路径-10">
                            <use fill="currentColor" xlink:href="#path-gapuf65lcw-10"></use>
                            <use fill-opacity="0.8" fill="#FFFFFF" xlink:href="#path-gapuf65lcw-10"></use>
                        </g>
                        <g id="路径-10">
                            <use fill="currentColor" xlink:href="#path-gapuf65lcw-11"></use>
                            <use fill-opacity="0.7" fill="#FFFFFF" xlink:href="#path-gapuf65lcw-11"></use>
                        </g>
                        <g id="路径-10备份">
                            <use fill="currentColor" xlink:href="#path-gapuf65lcw-12"></use>
                            <use fill-opacity="0.6" fill="#FFFFFF" xlink:href="#path-gapuf65lcw-12"></use>
                        </g>
                        <path d="M23.030303,85.4864434 C11.3765475,84.8722922 3.92893704,86.275801 0.687471732,89.6969697 C-2.29157244,73.6036411 4.41127695,60.2703078 20.7960199,49.6969697 C18.3261554,65.1995197 19.0709164,77.0826092 23.030303,85.3462383" id="路径-9" fill="currentColor"></path>
                        <path d="M96.969697,85.4864434 C85.3159414,84.8722922 77.868331,86.275801 74.6268657,89.6969697 C71.6478215,73.6036411 78.3506709,60.2703078 94.7354138,49.6969697 C92.2655493,65.1995197 93.0103103,77.0826092 96.969697,85.3462383" id="路径-9备份" fill="currentColor" transform="translate(85.454545, 69.696970) scale(-1, 1) translate(-85.454545, -69.696970) "></path>
                        <g id="路径-8">
                            <use fill="currentColor" xlink:href="#path-gapuf65lcw-13"></use>
                            <use fill-opacity="0.8" fill="#FFFFFF" xlink:href="#path-gapuf65lcw-13"></use>
                        </g>
                        <g id="形状结合">
                            <use fill="currentColor" xlink:href="#path-gapuf65lcw-14"></use>
                            <use fill-opacity="0.4" fill="#FFFFFF" xlink:href="#path-gapuf65lcw-14"></use>
                        </g>
                        <circle id="椭圆形" fill="#FFFFFF" cx="48.4848485" cy="30.3030303" r="8.48484848"></circle>
                        <path d="M48.4848485,105.454545 C49.259985,105.454545 50.9090909,101.767398 50.9090909,85.0314966 C50.9090909,68.2955951 49.259985,44.8484848 48.4848485,44.8484848 C47.709712,44.8484848 46.0606061,68.2955951 46.0606061,85.0314966 C46.0606061,101.767398 47.709712,105.454545 48.4848485,105.454545 Z" id="椭圆形备份" fill="currentColor"></path>
                    </g>
                    <g id="编组" opacity="0.699999988" transform="translate(0.000000, 23.000000)" fill="#FFFFFF">
                        <path d="M0,12 C0,5.37258 5.37258,0 12,0 L52,0 C58.6274,0 64,5.37258 64,12 C64,18.6274 58.6274,24 52,24 L52,24 C50.8954,24 50,24.8954 50,26 L50,30 C50,33.3137 52.6863,36 56,36 L74,36 C80.6274,36 86,41.3726 86,48 C86,54.6274 80.6274,60 74,60 L26,60 C19.3726,60 14,54.6274 14,48 C14,43.4574 16.524,39.5044 20.2462,37.4668 C23.1529,35.8757 26,33.3137 26,30 L26,30 C26,26.6863 23.3137,24 20,24 L12,24 C5.37258,24 0,18.6274 0,12 Z" id="路径" filter="url(#filter-gapuf65lcw-15)"></path>
                    </g>
                    <g id="编组备份-2" opacity="0.699999988" transform="translate(547.000000, 53.000000)" fill="#FFFFFF">
                        <path d="M32,12 C32,5.37258 37.37258,0 44,0 L84,0 C90.6274,0 96,5.37258 96,12 C96,18.6274 90.6274,24 84,24 C82.8954,24 82,24.8954 82,26 L82,30 C82,33.3137 84.6863,36 88,36 L106,36 C112.6274,36 118,41.3726 118,48 C118,54.6274 112.6274,60 106,60 L58,60 C51.3726,60 46,54.6274 46,48 C46,43.4574 48.524,39.5044 52.2462,37.4668 C55.1529,35.8757 58,33.3137 58,30 C58,26.6863 55.3137,24 52,24 L44,24 C37.37258,24 32,18.6274 32,12 Z" id="路径"></path>
                        <circle id="椭圆形" filter="url(#filter-gapuf65lcw-16)" cx="12" cy="12" r="12"></circle>
                    </g>
                    <path d="M89.5,120 C127.495245,120 158.935222,148.06644 164.2187,184.598091 C170.146221,181.043443 177.084475,179 184.5,179 C199.72793,179 212.943232,187.617086 219.535725,200.241078 C229.428793,189.054075 243.890613,182 260,182 C289.823376,182 314,206.176624 314,236 C314,265.823376 289.823376,290 260,290 C235.131502,290 214.189312,273.189481 207.917047,250.312062 C201.365829,255.144233 193.266415,258 184.5,258 C170.34461,258 157.928324,250.554011 150.954202,239.365095 C137.262654,258.517244 114.839079,271 89.5,271 C47.8025014,271 14,237.197499 14,195.5 C14,153.802501 47.8025014,120 89.5,120 Z M598,108 C632.793939,108 661,136.206061 661,171 C661,205.793939 632.793939,234 598,234 C596.606544,234 595.223653,233.95476 593.852718,233.865669 C584.535359,250.080523 567.04287,261 547,261 C532.547861,261 519.421739,255.322642 509.730256,246.076545 C500.384308,262.174582 482.95636,273 463,273 C457.594375,273 452.374265,272.20572 447.45001,270.727501 C439.088951,289.731201 420.094023,303 398,303 C368.176624,303 344,278.823376 344,249 C344,219.176624 368.176624,195 398,195 C403.405625,195 408.625735,195.79428 413.54999,197.272499 C421.911049,178.268799 440.905977,165 463,165 C477.452139,165 490.578261,170.677358 500.269744,179.923455 C508.074965,166.479116 521.517485,156.712324 537.361845,153.857641 C544.826516,127.394401 569.148356,108 598,108 Z" id="形状结合" fill="#FFFFFF"></path>
                </g>
            </g>
        </g>
    </g>
</svg>
