<?xml version="1.0" encoding="UTF-8"?>
<svg width="620px" height="90px" viewBox="0 0 620 90" version="1.1" xmlns="http://www.w3.org/2000/svg" xmlns:xlink="http://www.w3.org/1999/xlink">
    <!-- Generator: Sketch 58 (84663) - https://sketch.com -->
    <title>编组 11</title>
    <desc>Created with Sketch.</desc>
    <defs>
        <rect id="path-1" x="0" y="0" width="620" height="89.2307692"></rect>
        <linearGradient x1="50%" y1="96.9704142%" x2="40.5944508%" y2="-8.41405636%" id="linearGradient-3">
            <stop stop-color="#F2F4F9" stop-opacity="0" offset="0%"></stop>
            <stop stop-color="#E0E5F1" offset="100%"></stop>
        </linearGradient>
        <polygon id="path-4" points="0 0.0374963576 42.1499587 0.0374963576 42.1499587 5.33804251 0 5.33804251"></polygon>
        <polygon id="path-6" points="0 0.033946038 42.1499587 0.033946038 42.1499587 37.1226397 0 37.1226397"></polygon>
        <polygon id="path-8" points="0.126866803 0.14198013 2.56266684 30.156835 4.65405331 30.156835 2.21846614 0.14198013"></polygon>
        <polygon id="path-10" points="2.61886287 0.14198013 0.183062836 30.156835 2.27466217 30.156835 4.71067507 0.14198013"></polygon>
        <path d="M2.15652278,0.103877516 C1.07751637,0.103877516 0.202859166,0.978747581 0.202859166,2.05775399 L0.202859166,2.05775399 C0.202859166,3.13654754 1.07751637,4.01120475 2.15652278,4.01120475 L2.15652278,4.01120475 L12.8763419,4.01120475 C13.9553483,4.01120475 14.8302184,3.13654754 14.8302184,2.05775399 L14.8302184,2.05775399 C14.8302184,0.978747581 13.9553483,0.103877516 12.8763419,0.103877516 L12.8763419,0.103877516 L2.15652278,0.103877516 Z" id="path-12"></path>
        <polygon id="path-14" points="0.00312704779 0.015679879 12.7461914 0.015679879 12.7461914 20.7716492 0.00312704779 20.7716492"></polygon>
        <polygon id="path-16" points="0 0.00391473714 11.3381174 0.00391473714 11.3381174 17.8702195 0 17.8702195"></polygon>
        <polygon id="path-18" points="0.200460489 0.0691421054 12.8964605 0.0691421054 12.8964605 13.3323 0.200460489 13.3323"></polygon>
        <polygon id="path-20" points="0.0222286826 0.0234548464 11.0440168 0.0234548464 11.0440168 11.2275044 0.0222286826 11.2275044"></polygon>
        <polygon id="path-22" points="0.0875100711 0.0158315137 6.95244885 0.0158315137 6.95244885 16.4094525 0.0875100711 16.4094525"></polygon>
    </defs>
    <g id="页面-1" stroke="none" stroke-width="1" fill="none" fill-rule="evenodd">
        <g id="公告" transform="translate(-142.000000, -122.000000)">
            <g id="编组-23" transform="translate(142.000000, 122.000000)">
                <g id="编组-5备份">
                    <g id="编组-11">
                        <g id="编组备份-2-+-编组备份-3-蒙版">
                            <mask id="mask-2" fill="white">
                                <use xlink:href="#path-1"></use>
                            </mask>
                            <use id="蒙版" fill="#F3F5F6" xlink:href="#path-1"></use>
                            <g id="编组备份-2" mask="url(#mask-2)" fill="#253369">
                                <g transform="translate(58.000000, 44.500000) scale(-1, -1) translate(-58.000000, -44.500000) translate(0.000000, -6.000000)">
                                    <polygon id="Fill-3" fill-opacity="0.05" points="48 68 71 68 71 45 48 45"></polygon>
                                    <polygon id="Fill-4" fill-opacity="0.08" points="0 101 23 101 23 78 0 78"></polygon>
                                    <polygon id="Fill-5" fill-opacity="0.02" points="47 23 70 23 70 0 47 0"></polygon>
                                    <polygon id="Fill-6" fill-opacity="0.05" points="70 23 93 23 93 0 70 0"></polygon>
                                    <polygon id="Fill-7" fill-opacity="0.1" points="93 46 116 46 116 23 93 23"></polygon>
                                    <polygon id="Fill-8" fill-opacity="0.05" points="93 69 116 69 116 46 93 46"></polygon>
                                </g>
                            </g>
                            <g id="编组备份-3" mask="url(#mask-2)" fill="#253369">
                                <g transform="translate(505.000000, 23.000000)">
                                    <polygon id="Fill-3" fill-opacity="0.05" points="69 46 92 46 92 23 69 23"></polygon>
                                    <polygon id="Fill-4" fill-opacity="0.06" points="92 69 115 69 115 46 92 46"></polygon>
                                    <polygon id="Fill-5" fill-opacity="0.02" points="0 69 23 69 23 46 0 46"></polygon>
                                    <polygon id="Fill-6" fill-opacity="0.1" points="23 23 46 23 46 0 23 0"></polygon>
                                    <polygon id="Fill-7" fill-opacity="0.02" points="46 23 69 23 69 0 46 0"></polygon>
                                    <polygon id="Fill-8" fill-opacity="0.1" points="92 46 115 46 115 23 92 23"></polygon>
                                </g>
                            </g>
                        </g>
                        <g id="编组-21" transform="translate(187.000000, 9.000000)">
                            <path d="M52.950116,26.7045412 L45.814578,26.7045412 C44.9150181,26.7045412 44.1790547,25.9745154 44.1790547,25.0824074 L44.1790547,17.9200897 C44.1790547,17.0278942 44.9150181,16.2978684 45.814578,16.2978684 L52.950116,16.2978684 C53.8496759,16.2978684 54.5857275,17.0278942 54.5857275,17.9200897 L54.5857275,25.0824074 C54.5857275,25.9745154 53.8496759,26.7045412 52.950116,26.7045412" id="Fill-3" fill="#FFC53D" transform="translate(49.382391, 21.501205) rotate(-360.000000) translate(-49.382391, -21.501205) "></path>
                            <path d="M63.6942284,21.2324374 L53.1530926,21.2324374 C51.8241974,21.2324374 50.7369787,20.1871732 50.7369787,18.9098368 L50.7369787,8.65469997 C50.7369787,7.37723829 51.8241974,6.33197405 53.1530926,6.33197405 L63.6942284,6.33197405 C65.0231237,6.33197405 66.1104727,7.37723829 66.1104727,8.65469997 L66.1104727,18.9098368 C66.1104727,20.1871732 65.0231237,21.2324374 63.6942284,21.2324374" id="Fill-3" fill="url(#linearGradient-3)" transform="translate(58.423726, 13.782206) rotate(-360.000000) translate(-58.423726, -13.782206) "></path>
                            <g id="编组" transform="translate(58.000000, 14.000000)">
                                <polygon id="Fill-1" fill="#253369" points="37.1082847 63.1595729 48.6739829 63.1595729 48.6739829 54.072072 37.1082847 54.072072"></polygon>
                                <path d="M55.6821475,66.2715797 L30.4851981,66.2715797 C29.4585709,66.2715797 28.6263911,65.4392939 28.6263911,64.4127727 C28.6263911,63.3861455 29.4585709,62.5539657 30.4851981,62.5539657 L55.6821475,62.5539657 C56.7087747,62.5539657 57.5408485,63.3861455 57.5408485,64.4127727 C57.5408485,65.4392939 56.7087747,66.2715797 55.6821475,66.2715797" id="Fill-3" fill="#BDCAE2"></path>
                                <path d="M2.47906073,54.6621998 C1.49190193,54.6621998 0,53.5759758 0,52.183139 L0,2.47906073 C0,1.05819751 0.768931214,0.00956825235 2.47906073,0 L82.7499753,0 C84.6713363,0 85.22893,0.557593745 85.22893,2.47906073 L85.22893,51.183139 C85.22893,53.104606 83.6713363,54.6621998 81.7499753,54.6621998 L2.47906073,54.6621998 Z" id="Fill-7" fill="#BDCAE2"></path>
                                <path d="M4.05458856,52.3881372 C3.20348344,52.3881372 2.51351251,51.6728988 2.51351251,50.7906253 L2.51351251,3.01630583 C2.51351251,2.59041627 2.85455172,2.41890639 3.05458856,2.41890639 L81.2297295,2.41890639 C82.0808346,2.41890639 82.7708055,3.13414478 82.7708055,4.01630583 L82.7708055,50.7906253 C82.7708055,51.6728988 82.0808346,52.3881372 81.2297295,52.3881372 L4.05458856,52.3881372 Z" id="Fill-11" fill="#FFFFFF"></path>
                                <g id="分组" transform="translate(20.813346, 13.481372)" fill-rule="nonzero">
                                    <rect id="矩形-copy-20" fill="#BDCAE2" x="0" y="7.09545876" width="43.5188137" height="1.89212234"></rect>
                                    <rect id="矩形-copy-20" fill="#FFC53D" x="0" y="14.1909175" width="21.7594069" height="1.89212234"></rect>
                                    <rect id="矩形-copy-20" fill="#E4EBF7" x="0" y="28.381835" width="21.7594069" height="1.89212234"></rect>
                                    <rect id="矩形-copy-20" fill="#E4EBF7" x="0" y="0" width="13.0083411" height="1.89212234"></rect>
                                    <rect id="矩形-copy-21" fill="#E4EBF7" x="26.2531974" y="14.1909175" width="6.38591288" height="1.89212234"></rect>
                                    <rect id="矩形-copy-20" fill="#BDCAE2" x="0" y="21.5228916" width="32.6391103" height="1.89212234"></rect>
                                </g>
                            </g>
                            <g id="分组-copy-2" transform="translate(136.000000, 26.000000)">
                                <g id="分组" transform="translate(0.000000, 0.024790)">
                                    <mask id="mask-5" fill="white">
                                        <use xlink:href="#path-4"></use>
                                    </mask>
                                    <g id="Clip-2"></g>
                                    <path d="M42.1499587,5.33804251 L-3.70879809e-05,5.33804251 L-3.70879809e-05,1.53234907 C-3.70879809e-05,0.706806341 0.66420865,0.0374776717 1.48348215,0.0374776717 L40.6664395,0.0374776717 C41.4857748,0.0374776717 42.1499587,0.706806341 42.1499587,1.53234907 L42.1499587,5.33804251 Z" id="Fill-1" fill="#253369" mask="url(#mask-5)"></path>
                                </g>
                                <g id="分组" transform="translate(0.000000, 4.883122)">
                                    <mask id="mask-7" fill="white">
                                        <use xlink:href="#path-6"></use>
                                    </mask>
                                    <g id="Clip-4"></g>
                                    <path d="M40.6664395,37.1226397 L1.48348215,37.1226397 C0.66420865,37.1226397 -3.70879809e-05,36.4533734 -3.70879809e-05,35.6277683 L-3.70879809e-05,0.033946038 L42.1499587,0.033946038 L42.1499587,35.6277683 C42.1499587,36.4533734 41.4857748,37.1226397 40.6664395,37.1226397" id="Fill-3" fill="#E4EBF7" mask="url(#mask-7)"></path>
                                </g>
                                <path d="M3.42537174,2.5290172 C3.42537174,3.04711472 3.00850283,3.46717358 2.49427798,3.46717358 C1.98011494,3.46717358 1.56330785,3.04711472 1.56330785,2.5290172 C1.56330785,2.01091969 1.98011494,1.59086083 2.49427798,1.59086083 C3.00850283,1.59086083 3.42537174,2.01091969 3.42537174,2.5290172" id="Fill-5" fill="#FF7946"></path>
                                <path d="M6.90230814,2.5290172 C6.90230814,3.04711472 6.48550104,3.46717358 5.97127619,3.46717358 C5.45711315,3.46717358 5.04030606,3.04711472 5.04030606,2.5290172 C5.04030606,2.01091969 5.45711315,1.59086083 5.97127619,1.59086083 C6.48550104,1.59086083 6.90230814,2.01091969 6.90230814,2.5290172" id="Fill-7" fill="#FFC53D"></path>
                                <path d="M10.3793063,2.5290172 C10.3793063,3.04711472 9.96249925,3.46717358 9.4482744,3.46717358 C8.93411136,3.46717358 8.51730426,3.04711472 8.51730426,2.5290172 C8.51730426,2.01091969 8.93411136,1.59086083 9.4482744,1.59086083 C9.96249925,1.59086083 10.3793063,2.01091969 10.3793063,2.5290172" id="Fill-9" fill="#BAE637"></path>
                                <path d="M4.55563457,36.9608884 C4.299929,36.9608884 4.09271432,36.7521949 4.09271432,36.4947945 L4.09271432,9.4746312 C4.09271432,9.21723083 4.299929,9.00853728 4.55563457,9.00853728 L38.054858,9.00853728 C38.3105057,9.00853728 38.5177782,9.21723083 38.5177782,9.4746312 L38.5177782,36.4947945 C38.5177782,36.7521949 38.3105057,36.9608884 38.054858,36.9608884 L4.55563457,36.9608884 Z" id="Fill-11" fill="#FFFFFF"></path>
                                <polyline id="路径" stroke="#FF7946" stroke-width="0.716651" stroke-linecap="round" stroke-linejoin="round" points="7.78847599 28.189929 16.0069377 21.1148303 22.9927821 31.6437203 28.5678362 27.7046246 35.457601 27.3431097"></polyline>
                                <polyline id="路径" stroke="#FFC53D" stroke-width="0.716651" stroke-linecap="round" stroke-linejoin="round" points="7.78847599 19.3345944 16.2191643 19.4731649 21.3861838 15.9676407 28.6426325 24.0860209 34.7722731 14.8954134"></polyline>
                                <polyline id="路径" stroke="#597EF7" stroke-width="0.716651" stroke-linecap="round" stroke-linejoin="round" points="7.29396958 21.9900138 16.3339734 27.6775606 24.0793338 20.8660536 28.6613618 22.2326661 35.3729535 21.1573594"></polyline>
                                <path d="M16.0343395,12.5458639 L7.5542963,12.5458639 C7.20709098,12.5458639 6.92312068,12.2596583 6.92312068,11.9098584 C6.92312068,11.5599962 7.20709098,11.2738529 7.5542963,11.2738529 L16.0343395,11.2738529 C16.381483,11.2738529 16.6655151,11.5599962 16.6655151,11.9098584 C16.6655151,12.2596583 16.381483,12.5458639 16.0343395,12.5458639" id="Fill-1" fill="#CCD7EE"></path>
                                <path d="M11.1314135,15.5454916 L7.97541178,15.5454916 C7.62684657,15.5454916 7.34417434,15.2607186 7.34417434,14.9094861 C7.34417434,14.5581913 7.62684657,14.2734806 7.97541178,14.2734806 L11.1314135,14.2734806 C11.4800405,14.2734806 11.7625891,14.5581913 11.7625891,14.9094861 C11.7625891,15.2607186 11.4800405,15.5454916 11.1314135,15.5454916" id="Fill-3" fill="#CCD7EE"></path>
                                <g id="分组-3" transform="translate(31.833850, 29.897428)" stroke-linecap="round" stroke-linejoin="round" stroke-width="0.399066">
                                    <path d="M4.32693111,2.21118864 C4.32693111,3.43241664 3.35832553,4.42232789 2.16348971,4.42232789 C0.968605578,4.42232789 0,3.43241664 0,2.21118864 C0,0.989960634 0.968605578,0 2.16348971,0 C3.35832553,0 4.32693111,0.989960634 4.32693111,2.21118864 Z" id="Stroke-9" stroke="#CCD7EE"></path>
                                    <path d="M4.1414912,1.24572617 C4.26060421,1.52564416 4.32693111,1.83702083 4.32693111,2.16504047 C4.32693111,2.43295775 4.28263667,2.68976325 4.20152966,2.92745649" id="Stroke-11" stroke="#597EF7"></path>
                                </g>
                            </g>
                            <g id="编组-2" transform="translate(130.000000, 47.602224)">
                                <polygon id="Fill-11" fill="#ABBAD6" points="1.20043347 28.5158286 25.2098287 28.5158286 25.2098287 0.533378415 1.20043347 0.533378415"></polygon>
                                <path d="M1.09268892,28.7572418 C0.491661622,28.7572418 -1.42108547e-13,28.2666901 -1.42108547e-13,27.667261 L-1.42108547e-13,21.2234588 C-1.42108547e-13,20.6240297 0.491661622,20.133478 1.09268892,20.133478 L25.317912,20.133478 C25.9186973,20.133478 26.4106009,20.6240297 26.4106009,21.2234588 L26.4106009,27.667261 C26.4106009,28.2666901 25.9186973,28.7572418 25.317912,28.7572418 L1.09268892,28.7572418 Z" id="Fill-13" fill="#CCD7EE"></path>
                                <path d="M1.09268892,8.62400521 C0.491661622,8.62400521 -1.42108547e-13,8.1334535 -1.42108547e-13,7.53378301 L-1.42108547e-13,1.0902222 C-1.42108547e-13,0.490793119 0.491661622,-1.3500312e-13 1.09268892,-1.3500312e-13 L25.317912,-1.3500312e-13 C25.9186973,-1.3500312e-13 26.4106009,0.490793119 26.4106009,1.0902222 L26.4106009,7.53378301 C26.4106009,8.1334535 25.9186973,8.62400521 25.317912,8.62400521 L1.09268892,8.62400521 Z" id="Fill-14" fill="#CCD7EE"></path>
                                <path d="M3.06129528,5.12964511 L3.06129528,5.12964511 C2.60883109,5.12964511 2.24202055,4.76342122 2.24202055,4.31197846 C2.24202055,3.8605357 2.60883109,3.49455323 3.06129528,3.49455323 C3.51400143,3.49455323 3.88081197,3.8605357 3.88081197,4.31197846 C3.88081197,4.76342122 3.51400143,5.12964511 3.06129528,5.12964511" id="Fill-15" fill="#FFFFFF"></path>
                                <path d="M4.76747241,4.31197846 C4.76747241,3.8605357 5.13428295,3.49455323 5.5869891,3.49455323 C6.03945329,3.49455323 6.40650579,3.8605357 6.40650579,4.31197846 C6.40650579,4.76342122 6.03945329,5.12964511 5.5869891,5.12964511 C5.13428295,5.12964511 4.76747241,4.76342122 4.76747241,4.31197846 Z" id="Fill-16" fill="#FFFFFF"></path>
                                <path d="M8.11268292,5.12964511 L8.11268292,5.12964511 C7.65997677,5.12964511 7.29316623,4.76342122 7.29316623,4.31197846 C7.29316623,3.8605357 7.65997677,3.49455323 8.11268292,3.49455323 C8.56514711,3.49455323 8.93195765,3.8605357 8.93195765,4.31197846 C8.93195765,4.76342122 8.56514711,5.12964511 8.11268292,5.12964511" id="Fill-17" fill="#FFFFFF"></path>
                                <path d="M16.8094076,5.12964511 C16.6845565,5.12964511 16.5834175,5.02873437 16.5834175,4.90416514 L16.5834175,3.7200332 C16.5834175,3.59546396 16.6845565,3.49455323 16.8094076,3.49455323 L24.5516264,3.49455323 C24.6764775,3.49455323 24.7776165,3.59546396 24.7776165,3.7200332 L24.7776165,4.90416514 C24.7776165,5.02873437 24.6764775,5.12964511 24.5516264,5.12964511 L16.8094076,5.12964511 Z" id="Fill-18" fill="#597EF7"></path>
                                <path d="M1.09268892,18.6906235 C0.491661622,18.6906235 -1.42108547e-13,18.2000718 -1.42108547e-13,17.6004013 L-1.42108547e-13,11.1568405 C-1.42108547e-13,10.5574114 0.491661622,10.0666183 1.09268892,10.0666183 L25.317912,10.0666183 C25.9186973,10.0666183 26.4106009,10.5574114 26.4106009,11.1568405 L26.4106009,17.6004013 C26.4106009,18.2000718 25.9186973,18.6906235 25.317912,18.6906235 L1.09268892,18.6906235 Z" id="Fill-19" fill="#CCD7EE"></path>
                                <path d="M3.06129528,15.4883734 L3.06129528,15.4883734 C2.60883109,15.4883734 2.24202055,15.122391 2.24202055,14.6707068 C2.24202055,14.219264 2.60883109,13.8532816 3.06129528,13.8532816 C3.51400143,13.8532816 3.88081197,14.219264 3.88081197,14.6707068 C3.88081197,15.122391 3.51400143,15.4883734 3.06129528,15.4883734" id="Fill-20" fill="#FF7946"></path>
                                <path d="M5.5869891,15.4883734 L5.5869891,15.4883734 C5.13428295,15.4883734 4.76747241,15.122391 4.76747241,14.6707068 C4.76747241,14.219264 5.13428295,13.8532816 5.5869891,13.8532816 C6.03945329,13.8532816 6.40650579,14.219264 6.40650579,14.6707068 C6.40650579,15.122391 6.03945329,15.4883734 5.5869891,15.4883734" id="Fill-21" fill="#253369"></path>
                                <path d="M8.11268292,15.4883734 L8.11268292,15.4883734 C7.65997677,15.4883734 7.29316623,15.122391 7.29316623,14.6707068 C7.29316623,14.219264 7.65997677,13.8532816 8.11268292,13.8532816 C8.56514711,13.8532816 8.93195765,14.219264 8.93195765,14.6707068 C8.93195765,15.122391 8.56514711,15.4883734 8.11268292,15.4883734" id="Fill-22" fill="#253369"></path>
                                <path d="M24.5044927,15.4883734 L16.8566381,15.4883734 C16.7056554,15.4883734 16.5834658,15.3664598 16.5834658,15.2158179 L16.5834658,14.1255957 C16.5834658,13.9751952 16.7056554,13.8532816 16.8566381,13.8532816 L24.5044927,13.8532816 C24.6554754,13.8532816 24.7776649,13.9751952 24.7776649,14.1255957 L24.7776649,15.2158179 C24.7776649,15.3664598 24.6554754,15.4883734 24.5044927,15.4883734" id="Fill-23" fill="#FF7946"></path>
                                <path d="M2.24202055,24.5055684 C2.24202055,24.0541256 2.60883109,23.6881432 3.06129528,23.6881432 C3.51400143,23.6881432 3.88081197,24.0541256 3.88081197,24.5055684 C3.88081197,24.9570112 3.51400143,25.323235 3.06129528,25.323235 C2.60883109,25.323235 2.24202055,24.9570112 2.24202055,24.5055684 Z" id="Fill-24" fill="#FFFFFF"></path>
                                <path d="M5.5869891,25.323235 L5.5869891,25.323235 C5.13428295,25.323235 4.76747241,24.9570112 4.76747241,24.5055684 C4.76747241,24.0541256 5.13428295,23.6881432 5.5869891,23.6881432 C6.03945329,23.6881432 6.40650579,24.0541256 6.40650579,24.5055684 C6.40650579,24.9570112 6.03945329,25.323235 5.5869891,25.323235" id="Fill-25" fill="#FFFFFF"></path>
                                <path d="M8.11268292,25.323235 L8.11268292,25.323235 C7.65997677,25.323235 7.29316623,24.9570112 7.29316623,24.5055684 C7.29316623,24.0541256 7.65997677,23.6881432 8.11268292,23.6881432 C8.56514711,23.6881432 8.93195765,24.0541256 8.93195765,24.5055684 C8.93195765,24.9570112 8.56514711,25.323235 8.11268292,25.323235" id="Fill-26" fill="#FFFFFF"></path>
                                <path d="M24.5044927,25.323235 L16.8566381,25.323235 C16.7056554,25.323235 16.5834658,25.2010799 16.5834658,25.0506795 L16.5834658,23.9604573 C16.5834658,23.8100568 16.7056554,23.6881432 16.8566381,23.6881432 L24.5044927,23.6881432 C24.6554754,23.6881432 24.7776649,23.8100568 24.7776649,23.9604573 L24.7776649,25.0506795 C24.7776649,25.2010799 24.6554754,25.323235 24.5044927,25.323235" id="Fill-27" fill="#597EF7"></path>
                            </g>
                            <g id="分组" transform="translate(51.000000, 38.000000)">
                                <g transform="translate(7.904867, 0.000000)" fill="#BAE637" id="Fill-1">
                                    <path d="M6.29130185,24.689308 L0.00252610618,24.689308 L0.00252610618,3.14319457 C0.00252610618,1.42821917 1.40294236,0.0379332983 3.13047463,0.0379332983 L3.16330418,0.0379332983 C4.89083645,0.0379332983 6.29130185,1.42821917 6.29130185,3.14319457 L6.29130185,24.689308 Z"></path>
                                </g>
                                <path d="M17.3234312,29.9632276 L11.0163567,29.9632276 L11.0163567,18.7122993 C11.0163567,17.0426128 12.3858788,15.6890789 14.0752878,15.6890789 L14.2645493,15.6890789 C15.9539091,15.6890789 17.3234312,17.0426128 17.3234312,18.7122993 L17.3234312,29.9632276 Z" id="Fill-3" fill="#389E0D"></path>
                                <path d="M8.82990423,24.6780472 L2.48078262,24.6780472 L2.48078262,12.4455047 C2.48078262,10.7663714 3.85389413,9.40512422 5.54766239,9.40512422 L5.76302446,9.40512422 C7.45679272,9.40512422 8.82990423,10.7663714 8.82990423,12.4455047 L8.82990423,24.6780472 Z" id="Fill-5" fill="#7CB305"></path>
                                <g transform="translate(0.000000, 23.928966)" fill="#253369" id="Fill-7">
                                    <path d="M17.6985922,18.61942 L1.18206341,18.61942 C0.52921964,18.61942 0,18.095688 0,17.4496138 L0,1.20207821 C0,0.556004005 0.52921964,0.0322720281 1.18206341,0.0322720281 L17.6985922,0.0322720281 C18.351436,0.0322720281 18.8806556,0.556004005 18.8806556,1.20207821 L18.8806556,17.4496138 C18.8806556,18.095688 18.351436,18.61942 17.6985922,18.61942"></path>
                                </g>
                            </g>
                            <g id="资源-5" transform="translate(244.000000, 0.000000)" fill-rule="nonzero">
                                <circle id="椭圆形" fill="#CCD7EE" cx="14.6709111" cy="14.6709111" r="14.6709111"></circle>
                                <circle id="椭圆形" fill="#A3B5D6" cx="14.6709111" cy="14.6709111" r="13.6229889"></circle>
                                <circle id="椭圆形" fill="#F4F6FB" cx="14.6709111" cy="14.6709111" r="13.1317753"></circle>
                                <path d="M14.6709111,6.3176611 C14.9602868,6.3176611 15.1948722,6.55224648 15.1948722,6.84162221 L15.1948722,14.2867821 L14.14695,14.2867821 L14.14695,6.84162221 C14.14695,6.55224648 14.3815354,6.3176611 14.6709111,6.3176611 Z" id="路径" fill="#253369"></path>
                                <path d="M17.3385281,12.0032941 C17.6279038,12.0032941 17.8624892,12.2378795 17.8624892,12.5272552 L17.8624892,17.3385281 L16.814567,17.3385281 L16.814567,12.5272552 C16.814567,12.2378795 17.0491524,12.0032941 17.3385281,12.0032941 Z" id="路径" fill="#253369" transform="translate(17.338528, 14.670911) rotate(90.000000) translate(-17.338528, -14.670911) "></path>
                                <circle id="椭圆形" fill="#FF7946" cx="14.6709111" cy="14.6709111" r="1.21166007"></circle>
                                <g id="编组" transform="translate(3.143767, 3.143767)" fill="#CED7EC">
                                    <rect id="矩形" x="11.0018734" y="0" width="1.04792222" height="2.09584444" rx="0.523961111"></rect>
                                    <path d="M4.11625493,3.06993253 C4.40563066,3.06993253 4.64021604,3.30451791 4.64021604,3.59389364 L4.64021604,4.64181587 C4.64021604,4.9311916 4.40563066,5.16577698 4.11625493,5.16577698 C3.8268792,5.16577698 3.59229382,4.9311916 3.59229382,4.64181587 L3.59229382,3.59389364 C3.59229382,3.30451791 3.8268792,3.06993253 4.11625493,3.06993253 Z" id="矩形" transform="translate(4.116255, 4.117855) rotate(-45.000000) translate(-4.116255, -4.117855) "></path>
                                    <path d="M1.04792222,10.4805321 C1.33729795,10.4805321 1.57188333,10.7151175 1.57188333,11.0044932 L1.57188333,12.0524155 C1.57188333,12.3417912 1.33729795,12.5763766 1.04792222,12.5763766 C0.758546491,12.5763766 0.523961111,12.3417912 0.523961111,12.0524155 L0.523961111,11.0044932 C0.523961111,10.7151175 0.758546491,10.4805321 1.04792222,10.4805321 Z" id="矩形" transform="translate(1.047922, 11.528454) rotate(-90.000000) translate(-1.047922, -11.528454) "></path>
                                    <path d="M4.1180453,17.8902254 C4.40742103,17.8902254 4.64200641,18.1248108 4.64200641,18.4141865 L4.64200641,19.4621087 C4.64200641,19.7514845 4.40742103,19.9860698 4.1180453,19.9860698 C3.82866957,19.9860698 3.59408419,19.7514845 3.59408419,19.4621087 L3.59408419,18.4141865 C3.59408419,18.1248108 3.82866957,17.8902254 4.1180453,17.8902254 Z" id="矩形" transform="translate(4.118045, 18.938148) rotate(-135.000000) translate(-4.118045, -18.938148) "></path>
                                    <rect id="矩形" transform="translate(11.528454, 22.006367) rotate(180.000000) translate(-11.528454, -22.006367) " x="11.0044932" y="20.9584444" width="1.04792222" height="2.09584444" rx="0.523961111"></rect>
                                    <path d="M18.9379571,17.8882077 C19.2273328,17.8882077 19.4619182,18.1227931 19.4619182,18.4121688 L19.4619182,19.460091 C19.4619182,19.7494668 19.2273328,19.9840522 18.9379571,19.9840522 C18.6485813,19.9840522 18.413996,19.7494668 18.413996,19.460091 L18.413996,18.4121688 C18.413996,18.1227931 18.6485813,17.8882077 18.9379571,17.8882077 Z" id="矩形" transform="translate(18.937957, 18.936130) rotate(135.000000) translate(-18.937957, -18.936130) "></path>
                                    <path d="M22.0063667,10.4779123 C22.2957424,10.4779123 22.5303278,10.7124977 22.5303278,11.0018734 L22.5303278,12.0497957 C22.5303278,12.3391714 22.2957424,12.5737568 22.0063667,12.5737568 C21.7169909,12.5737568 21.4824056,12.3391714 21.4824056,12.0497957 L21.4824056,11.0018734 C21.4824056,10.7124977 21.7169909,10.4779123 22.0063667,10.4779123 Z" id="矩形" transform="translate(22.006367, 11.525835) rotate(90.000000) translate(-22.006367, -11.525835) "></path>
                                    <path d="M18.9363205,3.06852325 C19.2256962,3.06852325 19.4602816,3.30310863 19.4602816,3.59248436 L19.4602816,4.64040658 C19.4602816,4.92978232 19.2256962,5.1643677 18.9363205,5.1643677 C18.6469447,5.1643677 18.4123594,4.92978232 18.4123594,4.64040658 L18.4123594,3.59248436 C18.4123594,3.30310863 18.6469447,3.06852325 18.9363205,3.06852325 Z" id="矩形" transform="translate(18.936320, 4.116445) rotate(45.000000) translate(-18.936320, -4.116445) "></path>
                                </g>
                            </g>
                            <g id="编组-4" transform="translate(0.000000, 11.000000)">
                                <polygon id="Fill-60" fill="#597EF7" points="5.28371471 59.9699661 14.3795962 59.9699661 14.3795962 58.110814 5.28371471 58.110814"></polygon>
                                <g id="编组" transform="translate(11.989562, 38.984153)">
                                    <mask id="mask-9" fill="white">
                                        <use xlink:href="#path-8"></use>
                                    </mask>
                                    <g id="Clip-62"></g>
                                    <polygon id="Fill-61" fill="#597EF7" mask="url(#mask-9)" points="-0.523219129 30.8069209 5.3043521 30.8069209 5.3043521 -0.508105802 -0.523219129 -0.508105802"></polygon>
                                </g>
                                <g id="编组" transform="translate(2.836420, 38.984153)">
                                    <mask id="mask-11" fill="white">
                                        <use xlink:href="#path-10"></use>
                                    </mask>
                                    <g id="Clip-64"></g>
                                    <polygon id="Fill-63" fill="#597EF7" mask="url(#mask-11)" points="-0.467023095 30.8069209 5.36054814 30.8069209 5.36054814 -0.508105802 -0.467023095 -0.508105802"></polygon>
                                </g>
                                <g id="编组" transform="translate(2.410693, 37.068380)">
                                    <mask id="mask-13" fill="white">
                                        <use xlink:href="#path-12"></use>
                                    </mask>
                                    <g id="Clip-66"></g>
                                    <polygon id="Fill-65" fill="#FFC53D" mask="url(#mask-13)" points="-0.447226766 4.66150354 15.4803043 4.66150354 15.4803043 -0.546208415 -0.447226766 -0.546208415"></polygon>
                                </g>
                                <path d="M23.9952909,46.5165719 C23.996781,46.4642074 23.1887501,59.4627331 23.0523044,60.3874132 C22.6806443,62.9107003 22.3396366,63.2140312 23.5870182,64.082941 C23.9065267,64.3055965 24.4557152,64.18916 24.9112437,64.8847988 C26.157561,66.7884395 28.2025432,68.0645577 28.6214591,67.1390261 C28.9339431,66.2603245 25.8352853,62.8528013 25.7603572,60.930003 C25.682662,58.9322766 30.3948271,44.2406325 29.224715,42.9417378 C28.0546029,41.6428432 26.0304813,35.9770484 23.9952909,46.5165719" id="Fill-476" fill="#FFC999"></path>
                                <path d="M22.6702991,64.2788608 C22.6702991,64.2788608 22.4352975,62.8435205 22.9659669,61.2072367 C22.9659669,61.2072367 23.9476946,62.4137486 24.7695616,63.697317 C25.7187211,65.1792746 25.9867166,65.2871965 25.9867166,65.2871965 C27.3603264,65.9500542 27.8084046,65.173953 27.8084046,65.173953 C27.8084046,65.173953 28.4427386,66.3014923 29.7607911,67.6106045 C30.9411206,68.7830581 25.7604424,68.2123703 25.2495693,66.8064052 C24.7389092,65.4002271 23.9232152,64.5010906 23.9232152,64.5010906 L23.2250221,66.4121815 L22.7364998,66.3251202 L22.6702991,64.2788608 Z" id="Fill-477" fill="#253368"></path>
                                <path d="M32.5435165,38.07729 L26.9566941,59.7087184 L19.3016875,57.7527133 C19.3016875,57.7527133 21.9154417,45.9528235 24.7925083,36.1604518 C24.7925083,36.1604518 25.944527,30.9535913 30.0110763,32.0464339 C34.0774127,33.1392764 32.5435165,38.07729 32.5435165,38.07729" id="Fill-478" fill="#A3B5D6"></path>
                                <path d="M28.1051793,31.7404209 C19.9405768,30.7282537 13.9112107,30.641831 12.0231092,31.1150272 C12.0231092,31.1150272 8.10343583,31.9011331 8.83888013,34.918264 C9.73610089,38.5999557 13.9505905,38.6614733 13.9505905,38.6614733 L27.6013308,39.732178 C28.6865102,39.8288182 32.258577,40.2417739 32.4644163,36.0470806 C32.6589738,32.0903689 28.2831334,31.7625588 28.1051793,31.7404209" id="Fill-479" fill="#A3B5D6"></path>
                                <path d="M24.2075374,13.2198261 C24.2075374,13.2198261 17.7277516,21.3840028 16.9295125,22.5892375 C14.7342485,25.9035263 18.9025467,27.3646231 20.1861152,25.5644343 C20.9915916,24.4349792 22.033134,21.863372 23.1545003,19.7419718 C24.7348009,16.7514488 25.7972039,14.5185079 25.7972039,14.5185079 L24.2075374,13.2198261 Z" id="Fill-480" fill="#FFC999"></path>
                                <path d="M7.47672234,0.0147799943 C7.47672234,0.0147799943 12.9741419,-0.359860228 13.7249124,2.66323093 C14.1108344,4.21820072 12.9907452,6.27084598 13.8392202,6.57289966 C17.1554248,7.75301636 14.2047073,9.25860176 16.3818779,10.3220691 C19.6199614,11.9038597 18.8551419,16.0917414 15.9261365,16.5195976 C12.8921893,16.9627799 15.3079802,20.8445635 9.90422069,20.8501153 C6.8589917,20.8532909 5.86747229,20.4158559 3.57876111,19.8794392 C1.2902628,19.3432354 -1.23046988,14.2907011 0.668062022,11.066028 C1.84094135,9.03168898 3.3767534,8.84096305 3.59302299,5.8659791 C3.80929257,2.89142088 4.24630187,0.996294804 5.67163763,0.899441792 C6.00221505,0.0656544335 7.47672234,0.0147799943 7.47672234,0.0147799943" id="Fill-481" fill="#253368"></path>
                                <path d="M7.41978128,12.2881214 C7.63988241,9.64605638 7.67053479,6.96099287 7.67053479,6.96099287 L11.1406399,8.47594427 L11.2130135,11.090337 C11.1617134,12.0609958 10.3168571,12.7962272 9.3487527,12.7132103 L7.41978128,12.2881214 Z" id="Fill-483" fill="#F4B784"></path>
                                <path d="M8.06646139,3.26552895 C8.06646139,3.26552895 8.17225468,2.23675838 8.9334555,2.52029291 C9.47774814,2.72293922 9.28510643,2.48900194 9.32150614,2.20951182 C9.45667463,1.17180098 10.2259643,3.31768057 11.8390459,3.40708335 C12.1751577,4.57442822 13.1924337,8.59052884 10.7866474,9.13184138 C9.78895496,9.35619979 8.26059314,9.01136049 7.49385787,7.98365425 C6.92657594,7.22330489 6.98234625,6.24604735 7.28205843,5.97932906 C8.26953342,5.10105317 8.09094072,4.51205914 8.06646139,3.26552895" id="Fill-484" fill="#FFC999"></path>
                                <path d="M5.68068434,7.01018569 C5.22281439,6.06656063 6.1943246,5.89137375 6.1943246,5.89137375 C6.1943246,5.89137375 6.45784994,6.87927447 6.9367934,7.70241864 C5.97081765,7.90996081 5.68068434,7.01018569 5.68068434,7.01018569" id="Fill-491" fill="#FFC999"></path>
                                <path d="M20.0805986,23.9062469 C20.0805986,23.9062469 17.7999762,16.6001239 17.2039577,15.282923 C15.7645729,12.1020998 13.4750103,12.2268379 12.5586318,13.9953101 C11.4540817,16.1275664 16.8667815,25.4873989 16.8667815,25.4873989 C16.8667815,25.4873989 17.4921752,26.7971496 19.0371404,26.3380025 C20.8635115,25.7951999 20.0805986,23.9062469 20.0805986,23.9062469" id="Fill-495" fill="#FFC999"></path>
                                <path d="M18.6464716,18.9324296 C18.3818819,18.2591415 16.7462368,11.6612163 13.8595913,12.5631201 C11.6140914,13.2649319 12.1128312,15.9759648 14.3347032,20.6840855 L18.6464716,18.9324296 Z" id="Fill-496" fill="#FFFFFF"></path>
                                <path d="M6.57185977,25.7769149 C8.25369636,26.1871034 12.4875566,25.9108062 12.9873607,25.6966653 C13.4867391,25.4825243 12.9232887,24.2932545 12.9232887,24.2932545 C15.9704335,16.5147868 15.2822449,13.4167676 15.0153138,12.8384168 C14.6545097,12.0565682 11.7678642,12.9484674 11.7003864,12.0042037 C11.6842088,11.7775038 11.6120479,11.1521101 11.5756482,10.8426062 C11.563515,10.7391544 11.4790081,10.6603948 11.3751306,10.6548603 L7.49845573,10.4449767 C7.38031634,10.4383779 7.27941892,10.5275678 7.27367159,10.6457072 C7.25664249,10.994378 7.20321369,11.6759678 7.04228868,11.9439633 C6.61400679,12.6576955 4.31933543,11.6702205 3.23671033,13.1136496 C1.30177873,15.6937713 4.73846418,21.0351617 6.19253654,24.2602606 C6.19253654,24.2602606 5.68208924,25.0442378 6.57185977,25.7769149" id="Fill-497" fill="#FFFFFF"></path>
                                <path d="M11.985113,36.896556 L15.5386606,33.1808061 C15.5386606,33.1808061 14.7723511,29.0372001 12.8033613,27.2323283 L5.77970856,26.9860449 C5.77970856,26.9860449 2.97501562,29.0393288 3.21555168,33.7704388 L8.48137544,36.9257183 L11.985113,36.896556 Z" id="Fill-498" fill="#CCD7EE"></path>
                                <polygon id="Fill-499" fill="#CCD7EE" points="5.61542031 27.0682316 12.8034038 27.2323496 12.6245983 26.1322697 5.85318913 25.9281333"></polygon>
                                <path d="M10.3077678,27.314366 C10.7826669,31.4164636 10.4748659,36.6690898 10.4748659,36.6690898" id="Stroke-500" stroke="#A3B5D6" stroke-width="0.25" stroke-linecap="round" stroke-linejoin="round"></path>
                                <path d="M5.63474834,27.1249811 L12.6790488,27.2480164" id="Stroke-501" stroke="#A3B5D6" stroke-width="0.25" stroke-linecap="round" stroke-linejoin="round"></path>
                                <path d="M17.7582124,48.8607766 C17.7469306,48.8090507 20.0235085,61.7358413 20.1082283,62.6741448 C20.3396112,65.2340444 20.0771502,65.6118776 21.5044017,66.168942 C21.8698888,66.3113479 22.3807618,66.0678318 22.9910422,66.6417125 C24.6618099,68.2128599 26.9664859,68.9806595 27.158489,67.9748782 C27.2572578,67.0399806 23.4167698,64.4328252 22.8895062,62.5664357 C22.3418078,60.6274597 23.4912721,45.1201217 22.0380512,44.1237065 C20.5850431,43.1270783 17.2645813,38.0536834 17.7582124,48.8607766" id="Fill-502" fill="#FFC999"></path>
                                <path d="M20.6524571,66.5771083 C20.6524571,66.5771083 20.0834723,65.2258491 20.2169378,63.4978211 C20.2169378,63.4978211 21.4638938,64.448045 22.5720625,65.5115123 C23.8517994,66.7397362 24.140017,66.7825218 24.140017,66.7825218 C25.6421966,67.1073519 25.8980588,66.2414222 25.8980588,66.2414222 C25.8980588,66.2414222 26.7854878,67.196329 28.3862233,68.1680521 C29.8192222,69.0382391 24.6085301,69.7019484 23.7762328,68.4445621 C22.9439355,67.1871759 21.9326198,66.4989873 21.9326198,66.4989873 L21.6995339,68.5365192 L21.2001556,68.566533 L20.6524571,66.5771083 Z" id="Fill-503" fill="#253368"></path>
                                <path d="M24.6505069,36.2037057 L26.9526285,58.6020823 L19.0334579,59.4365082 C19.0334579,59.4365082 17.3680118,47.3703259 16.6547053,37.1088024 C16.6547053,37.1088024 15.9184096,31.7848669 20.1437553,31.3923461 C24.3693138,30.9998253 24.6505069,36.2037057 24.6505069,36.2037057" id="Fill-504" fill="#CCD7EE"></path>
                                <path d="M19.7032976,30.9793904 C11.1770396,29.72541 8.50410929,29.7413748 6.51574888,30.1922202 C6.51574888,30.1922202 2.5171031,31.0747534 3.2155091,34.251745 C4.06781561,38.1286327 8.35510465,38.1403402 8.35510465,38.1403402 L18.9859467,39.3362089 C20.1202977,39.4630757 24.1661992,39.7300068 24.1661992,35.5925739 C24.1661992,31.4430077 19.8889148,31.006637 19.7032976,30.9793904" id="Fill-505" fill="#CCD7EE"></path>
                                <path d="M5.62082705,23.7848507 C5.62082705,23.7848507 6.841175,17.598604 6.78859765,16.1538976 C6.66173085,12.6648477 4.22401504,12.3129839 2.97961348,13.8685923 C2.01725641,15.0712725 1.69200058,24.2680514 1.69200058,24.2680514 C1.69200058,24.2680514 1.77203735,25.7512861 3.45621545,25.871767 C5.35645026,26.0073612 5.62082705,23.7848507 5.62082705,23.7848507" id="Fill-506" fill="#FFC999"></path>
                                <path d="M4.17256587,12.5082651 C2.48625914,12.8562974 2.04967556,14.6779854 1.89705224,19.4018581 L6.34760779,20.1232534 C6.35782525,19.3999423 9.06396227,11.9869617 3.81793484,12.5761686" id="Fill-507" fill="#FFFFFF"></path>
                                <path d="M23.2334302,15.1171021 C23.2334302,15.1171021 23.1748927,14.4135874 23.4090428,13.53446 C23.6436187,12.6555455 24.2881702,11.6005927 24.2881702,10.5456399 C24.2881702,9.49068712 25.1966727,10.3698145 24.6985715,12.362645 C26.0464248,12.0107812 27.460266,11.3589924 27.8779047,10.3259645 C28.030528,9.94855707 28.3943121,10.0073075 28.4053811,10.3698145 C28.41645,10.7325343 28.2736184,11.0731163 28.2736184,11.0731163 C28.2736184,11.0731163 28.5371437,11.3662297 28.3615311,11.7764182 C28.7129692,12.3918073 28.1416429,12.7875211 28.1416429,12.7875211 C28.1416429,12.7875211 28.4932938,13.0071965 27.7899919,13.9301738 C27.0611464,14.8867835 25.10876,15.5272906 25.10876,15.5272906 L23.3522082,18.8575441 L21.4766656,17.6855163 L23.2334302,15.1171021 Z" id="Fill-508" fill="#FFC999"></path>
                                <path d="M24.6985289,12.3625386 C24.6985289,12.3625386 25.1527802,13.4468666 24.6253038,13.9741301" id="Stroke-509" stroke="#DD936F" stroke-width="0.3" stroke-linecap="round" stroke-linejoin="round"></path>
                                <path d="M28.1415577,12.7874359 C28.1415577,12.7874359 27.7901196,12.1720468 27.6140813,12.3040223 C27.4382558,12.435785 27.6140813,13.0950241 27.6140813,13.0950241 C27.6140813,13.0950241 27.1306677,13.9300886 26.4712158,13.9300886 C25.8121896,13.9300886 24.7572367,14.1059141 24.5811984,14.5895405" id="Stroke-510" stroke="#DD936F" stroke-width="0.3" stroke-linecap="round" stroke-linejoin="round"></path>
                                <path d="M28.3614886,11.7763331 C28.3614886,11.7763331 27.9219249,11.0730312 27.7458865,11.3369822 C27.5702739,11.6007205 27.9219249,12.2158967 27.9219249,12.2158967" id="Stroke-511" stroke="#DD936F" stroke-width="0.3" stroke-linecap="round" stroke-linejoin="round"></path>
                                <path d="M27.5002631,12.7250881 C27.2399307,13.0375721 26.9964145,13.2255308 26.6058095,13.4077422" id="Stroke-512" stroke="#DD936F" stroke-width="0.3" stroke-linecap="round" stroke-linejoin="round"></path>
                                <path d="M27.7120838,12.1128919 C27.7120838,12.1128919 27.1390545,12.6109932 26.4881171,12.8191739" id="Stroke-513" stroke="#DD936F" stroke-width="0.3" stroke-linecap="round" stroke-linejoin="round"></path>
                                <path d="M27.6651048,11.4774085 C27.6651048,11.4774085 27.0529086,12.018721 26.3702545,12.3011912" id="Stroke-514" stroke="#DD936F" stroke-width="0.3" stroke-linecap="round" stroke-linejoin="round"></path>
                                <path d="M26.1867021,12.07298 C26.1867021,12.07298 26.703961,13.4964 26.4713009,13.9302163" id="Stroke-515" stroke="#DD936F" stroke-width="0.3" stroke-linecap="round" stroke-linejoin="round"></path>
                                <path d="M28.2735545,11.073095 C28.2735545,11.073095 28.0317413,10.5896814 27.8997658,10.6556692 C27.6800904,10.7655069 27.7901409,11.2050706 27.7901409,11.2050706" id="Stroke-516" stroke="#DD936F" stroke-width="0.3" stroke-linecap="round" stroke-linejoin="round"></path>
                                <path d="M12.7908449,26.9877904 L21.624691,26.9877904 C21.8722516,26.9877904 22.0915013,26.827504 22.166855,26.5916509 L25.1767487,17.1443314 C25.293398,16.7771414 25.0196552,16.4025012 24.6345846,16.4025012 L15.8007385,16.4025012 C15.5529651,16.4025012 15.3335025,16.5627876 15.2583616,16.7988535 L12.248468,26.2461731 C12.1316058,26.6129373 12.4053486,26.9877904 12.7908449,26.9877904" id="Fill-517" fill="#4E5C93"></path>
                                <path d="M13.361043,26.9877904 L22.1948892,26.9877904 C22.4426626,26.9877904 22.6616994,26.827504 22.7370532,26.5916509 L25.7469468,17.1443314 C25.863809,16.7771414 25.5898534,16.4025012 25.2047828,16.4025012 L16.3709367,16.4025012 C16.1231632,16.4025012 15.9037007,16.5627876 15.8287727,16.7988535 L12.818879,26.2461731 C12.701804,26.6129373 12.9757596,26.9877904 13.361043,26.9877904" id="Fill-518" fill="#253369"></path>
                                <path d="M16.3669135,23.9871138 C16.3669135,23.9871138 5.52193054,21.8912572 4.07637273,21.9012261 C1.14332295,21.9216967 0.9144944,25.5163271 3.47524547,25.9484405 C6.77144083,26.5046535 16.4158722,26.1472553 16.4158722,26.1472553 L16.3669135,23.9871138 Z" id="Fill-519" fill="#FFC999"></path>
                                <path d="M17.8330553,26.1903815 C17.8330553,26.1903815 15.161615,26.3455591 14.5468645,25.2431377 C13.9900129,24.2445938 15.1620408,23.372491 15.1620408,23.372491 C15.1620408,23.372491 16.156966,22.795843 17.3994518,22.4673943 C18.2134428,22.2524019 19.6983804,21.6121077 19.9238031,21.9999454 C20.2181937,22.5059226 18.591276,22.9120667 18.5331642,23.3316211 C18.4154505,24.1820119 21.0449566,23.8133318 21.5053809,23.9825585 C22.405156,24.3135617 21.0392093,26.0288179 17.8330553,26.1903815" id="Fill-520" fill="#FFC999"></path>
                                <path d="M18.9672147,24.5498192 C18.9672147,24.5498192 20.2920787,24.8129188 21.4936947,24.435937" id="Stroke-521" stroke="#DD936F" stroke-width="0.25" stroke-linecap="round" stroke-linejoin="round"></path>
                                <path d="M21.2155882,25.0375113 C21.2155882,25.0375113 20.2406721,25.3917166 18.6812322,25.2403705" id="Stroke-522" stroke="#DD936F" stroke-width="0.25" stroke-linecap="round" stroke-linejoin="round"></path>
                                <path d="M18.2288541,25.7800227 C18.2288541,25.7800227 18.893202,25.8894347 20.1237674,25.6946643" id="Stroke-523" stroke="#DD936F" stroke-width="0.25" stroke-linecap="round" stroke-linejoin="round"></path>
                                <path d="M21.2924959,23.9675729 C21.2924959,23.9675729 19.1123452,24.1712835 18.6883206,23.6572175 C18.2638702,23.1431516 19.0044233,22.917516 19.4427098,22.6077992 C19.8807834,22.2978696 20.0127589,22.2461437 19.9237819,22.0000731" id="Stroke-524" stroke="#DD936F" stroke-width="0.25" stroke-linecap="round" stroke-linejoin="round"></path>
                                <path d="M6.34756522,20.1233385 L6.78861894,16.1540679 C6.78861894,16.1540679 6.9844536,14.4043278 6.30286383,13.9232557" id="Stroke-525" stroke="#CCD7EE" stroke-width="0.25" stroke-linecap="round" stroke-linejoin="round"></path>
                                <path d="M10.753462,12.1991656 L7.94664038,12.2792024" id="Stroke-526" stroke="#CCD7EE" stroke-width="0.25" stroke-linecap="round" stroke-linejoin="round"></path>
                                <path d="M10.5931968,12.5999455 L8.79875531,12.7704494" id="Stroke-527" stroke="#CCD7EE" stroke-width="0.25" stroke-linecap="round" stroke-linejoin="round"></path>
                                <polyline id="Stroke-528" stroke="#CCD7EE" stroke-width="0.25" stroke-linecap="round" stroke-linejoin="round" points="14.8431921 14.5246597 14.6026561 15.2464807 15.2197481 16.7043846"></polyline>
                                <path d="M13.1592056,23.3456063 L4.65891699,21.8221403" id="Stroke-529" stroke="#DD936F" stroke-width="0.25" stroke-linecap="round" stroke-linejoin="round"></path>
                                <path d="M14.8431921,30.3223012 L7.38551021,29.7609795" id="Stroke-530" stroke="#A3B5D6" stroke-width="0.25" stroke-linecap="round" stroke-linejoin="round"></path>
                            </g>
                            <g id="分组-2" transform="translate(217.000000, 39.000000)">
                                <g id="分组">
                                    <g transform="translate(9.845625, 0.027045)">
                                        <mask id="mask-15" fill="white">
                                            <use xlink:href="#path-14"></use>
                                        </mask>
                                        <g id="Clip-2"></g>
                                        <path d="M6.48472528,0.520759971 C11.3953398,-1.75718038 14.3220609,4.21702442 11.8524208,7.54338045 C8.83865746,11.6025465 7.2948547,16.2731851 6.43514863,17.6804009 C5.70992684,18.8675002 3.72333233,21.7616128 1.33115033,20.4276695 C-0.870392487,19.2000247 0.329510426,14.3818157 0.329510426,14.3818157 C0.329510426,14.3818157 0.426746867,3.330919 6.48472528,0.520759971 Z" id="Fill-1" fill="#389E0D" mask="url(#mask-15)"></path>
                                    </g>
                                    <path d="M19.1110514,19.6947697 C17.222826,21.8648735 14.4980275,26.2303313 12.7909877,24.7013935 C11.7564129,23.774828 13.1395054,19.3867263 16.9254097,16.9991977 C20.1457569,14.9683329 20.9993204,17.5246659 19.1110514,19.6947697 Z" id="Fill-3" fill="#BAE637"></path>
                                    <path d="M1.56000012,19.5270548 C-0.109443274,17.3181572 -0.71900075,14.1482582 1.14439275,13.3353825 C2.9309381,12.5560882 5.89033268,14.4749294 7.2610964,18.1679041 C8.63181655,21.8608361 9.4226468,24.5159907 8.08181204,24.9776286 C5.88192469,25.7350479 3.76502811,22.4445377 1.56000012,19.5270548" id="Fill-5" fill="#389E0D"></path>
                                    <g transform="translate(0.000000, 4.171318)">
                                        <mask id="mask-17" fill="white">
                                            <use xlink:href="#path-16"></use>
                                        </mask>
                                        <g id="Clip-8"></g>
                                        <path d="M1.0424339,0.464009063 C1.76046751,-0.00976254048 2.66382542,-0.117983613 3.48802624,0.140926651 C4.63830894,0.50224746 6.38390346,1.57809224 8.11154932,4.66608847 C10.3671124,8.6977827 11.5413121,13.1176287 11.3091993,15.9173202 C11.1574634,17.7482345 8.85746435,18.537569 7.57078052,17.2026003 C6.97986874,16.5894615 6.35462797,15.6443963 5.74289226,14.2106487 C3.28100672,8.44100866 0.979308628,4.82545072 0.704807366,4.46242094 C-0.027559038,3.4936864 -0.551206898,1.51558634 1.0424339,0.464009063" id="Fill-7" fill="#BAE637" mask="url(#mask-17)"></path>
                                    </g>
                                    <path d="M5.87331194,20.2039471 C5.87331194,20.2039471 9.16523598,23.5891347 9.16523598,30.099617" id="Stroke-9" stroke="#253369" stroke-width="0.5" stroke-linecap="round" stroke-linejoin="round"></path>
                                    <path d="M11.5248098,29.4630566 C11.5248098,29.4630566 12.3275768,24.7867784 15.1849428,21.0336049" id="Stroke-11" stroke="#253369" stroke-width="0.5" stroke-linecap="round" stroke-linejoin="round"></path>
                                    <path d="M17.1518286,5.99011539 C17.1518286,5.99011539 9.64628191,13.6715471 11.5832126,29.4630652" id="Stroke-13" stroke="#253369" stroke-width="0.5" stroke-linecap="round" stroke-linejoin="round"></path>
                                    <path d="M6.6479884,13.1636771 C6.6479884,13.1636771 10.6406509,19.6252399 10.7058237,30.0996127" id="Stroke-15" stroke="#253369" stroke-width="0.5" stroke-linecap="round" stroke-linejoin="round"></path>
                                    <path d="M2.69357576,6.93664603 C2.71792844,7.22153277 2.50219597,7.47181269 2.21175003,7.49569567 C1.92126051,7.51962137 1.66605842,7.30804981 1.64166218,7.02316308 C1.61730951,6.73831906 1.83304197,6.48803914 2.12353148,6.46411344 C2.41397743,6.44023046 2.66917952,6.65180202 2.69357576,6.93664603" id="Fill-17" fill="#FFFFFF"></path>
                                    <path d="M7.17659392,9.14661603 C7.20099016,9.43146005 6.9852577,9.68178269 6.69476819,9.70566567 C6.40427868,9.72959137 6.14907658,9.51801981 6.12468034,9.23313308 C6.10032767,8.94828906 6.31606013,8.69800914 6.60654964,8.67408344 C6.89699559,8.65020046 7.15224125,8.86177202 7.17659392,9.14661603" id="Fill-19" fill="#FFFFFF"></path>
                                    <path d="M6.42522895,15.0307833 C6.45315393,15.3570273 6.20609844,15.6436658 5.87343828,15.6710094 C5.54077813,15.6983958 5.24850246,15.4561054 5.22062105,15.1298613 C5.19269606,14.80366 5.43975156,14.5170216 5.77241171,14.4896352 C6.1050283,14.4622488 6.39730397,14.7045393 6.42522895,15.0307833" id="Fill-21" fill="#FFFFFF"></path>
                                    <path d="M20.19485,6.23713971 C20.19485,6.70014475 19.8121776,7.07547918 19.3400668,7.07547918 C18.867956,7.07547918 18.4852835,6.70014475 18.4852835,6.23713971 C18.4852835,5.7741774 18.867956,5.39884297 19.3400668,5.39884297 C19.8121776,5.39884297 20.19485,5.7741774 20.19485,6.23713971" id="Fill-23" fill="#FFFFFF"></path>
                                    <path d="M13.3135813,8.7970829 C13.3135813,9.26004522 12.9308653,9.63537965 12.458798,9.63537965 C11.9866872,9.63537965 11.6040148,9.26004522 11.6040148,8.7970829 C11.6040148,8.33412059 11.9866872,7.95878616 12.458798,7.95878616 C12.9308653,7.95878616 13.3135813,8.33412059 13.3135813,8.7970829" id="Fill-25" fill="#FFFFFF"></path>
                                    <path d="M15.5422301,14.4875289 C15.5422301,14.681028 15.3822604,14.8379122 15.1849559,14.8379122 C14.9876513,14.8379122 14.8276816,14.681028 14.8276816,14.4875289 C14.8276816,14.2939871 14.9876513,14.1371028 15.1849559,14.1371028 C15.3822604,14.1371028 15.5422301,14.2939871 15.5422301,14.4875289" id="Fill-27" fill="#FFFFFF"></path>
                                    <path d="M7.16344609,34.4544744 L14.9522506,34.4544744" id="Fill-29" fill="#A3B5D6"></path>
                                    <path d="M18.1161641,18.9685264 C18.1161641,19.2543958 17.8798255,19.4861333 17.5883776,19.4861333 C17.2968425,19.4861333 17.060591,19.2543958 17.060591,18.9685264 C17.060591,18.682657 17.2968425,18.4509195 17.5883776,18.4509195 C17.8798255,18.4509195 18.1161641,18.682657 18.1161641,18.9685264" id="Fill-31" fill="#FFFFFF"></path>
                                    <g transform="translate(4.080471, 26.388040)">
                                        <mask id="mask-19" fill="white">
                                            <use xlink:href="#path-18"></use>
                                        </mask>
                                        <g id="Clip-34"></g>
                                        <path d="M11.8536322,13.3323 L1.24328879,13.3323 C0.669733222,13.3323 0.200460489,12.6988946 0.200460489,11.9247324 L0.200460489,1.47670974 C0.200460489,0.702488891 0.669733222,0.0691421054 1.24328879,0.0691421054 L11.8536322,0.0691421054 C12.4271443,0.0691421054 12.8964605,0.702488891 12.8964605,1.47670974 L12.8964605,11.9247324 C12.8964605,12.6988946 12.4271443,13.3323 11.8536322,13.3323" id="Fill-33" fill="#253369" mask="url(#mask-19)"></path>
                                    </g>
                                </g>
                            </g>
                            <g id="编组-2" transform="translate(202.500000, 45.500000) scale(-1, 1) translate(-202.500000, -45.500000) translate(183.000000, 10.000000)">
                                <g id="编组" transform="translate(0.000000, 40.329114)">
                                    <path d="M14.6038774,4.85631551 C14.6038774,5.96712945 13.7042872,6.86758887 12.5946498,6.86758887 C11.4850125,6.86758887 10.5853179,5.96712945 10.5853179,4.85631551 C10.5853179,3.74560607 11.4850125,2.84514665 12.5946498,2.84514665 C13.7042872,2.84514665 14.6038774,3.74560607 14.6038774,4.85631551" id="Fill-1" fill="#132E55"></path>
                                    <polygon id="Fill-3" fill="#132E55" points="12.2175987 22.9571697 12.9953574 22.9571697 12.9953574 5.45699102 12.2175987 5.45699102"></polygon>
                                    <polygon id="Fill-5" fill="#132E55" points="12.2176822 22.9571279 3.15914133 24.4674377 2.57451728 24.0448477 12.2176822 21.2017702"></polygon>
                                    <polygon id="Fill-6" fill="#132E55" points="12.9954096 22.9571279 22.0539505 24.4674377 22.6384701 24.0448477 12.9954096 21.2017702"></polygon>
                                    <polygon id="Fill-7" fill="#132E55" points="11.9894909 24.9875662 13.2235696 24.9875662 13.2235696 22.4519218 11.9894909 22.4519218"></polygon>
                                    <path d="M4.00787973,25.0212668 C4.00787973,25.6002903 3.53892772,26.0695909 2.9605675,26.0695909 C2.38210289,26.0695909 1.91315088,25.6002903 1.91315088,25.0212668 C1.91315088,24.4422433 2.38210289,23.9729427 2.9605675,23.9729427 C3.53892772,23.9729427 4.00787973,24.4422433 4.00787973,25.0212668" id="Fill-8" fill="#132236"></path>
                                    <path d="M13.6539051,25.0212668 C13.6539051,25.6002903 13.1849531,26.0695909 12.6064885,26.0695909 C12.0281283,26.0695909 11.5591763,25.6002903 11.5591763,25.0212668 C11.5591763,24.4422433 12.0281283,23.9729427 12.6064885,23.9729427 C13.1849531,23.9729427 13.6539051,24.4422433 13.6539051,25.0212668" id="Fill-9" fill="#132236"></path>
                                    <path d="M23.3915912,25.0212668 C23.3915912,25.6002903 22.9226392,26.0695909 22.3441746,26.0695909 C21.7658143,26.0695909 21.2968623,25.6002903 21.2968623,25.0212668 C21.2968623,24.4422433 21.7658143,23.9729427 22.3441746,23.9729427 C22.9226392,23.9729427 23.3915912,24.4422433 23.3915912,25.0212668" id="Fill-10" fill="#132236"></path>
                                    <path d="M25.1892788,4.48710311 L2.08794303e-05,4.48710311 C2.08794303e-05,2.00893261 2.00695172,6.26988111e-05 4.48273017,6.26988111e-05 L20.7065695,6.26988111e-05 C23.1822436,6.26988111e-05 25.1892788,2.00893261 25.1892788,4.48710311" id="Fill-11" fill="#A3B5D6"></path>
                                </g>
                                <g id="分组" transform="translate(19.341772, 35.050633) scale(-1, 1) translate(-19.341772, -35.050633) translate(0.341772, 0.050633)">
                                    <path d="M18.6588817,28.1490932 C18.6588817,28.1490932 18.8486457,31.3006126 21.7339165,31.0780171 C24.6760488,30.8511366 24.3597002,27.670073 24.3597002,27.670073 C24.3597002,27.670073 24.5027565,25.6928746 24.2976489,23.0339069 C24.1372182,20.9561232 23.8908183,18.2425779 23.6613415,16.9230173 C23.414039,15.498812 22.1010343,14.5590394 20.7496707,14.6632331 C18.6956611,14.8215533 17.9991075,16.475571 18.0444614,17.9128569 C18.088687,19.3106756 18.1550254,21.6106037 18.2380613,23.1500535 C18.3973638,26.1103257 18.6588817,28.1490932 18.6588817,28.1490932" id="Fill-1" fill="#CCD7EE"></path>
                                    <path d="M12.2175547,31.9929816 C11.8702933,33.2888619 8.98254044,32.848858 8.98254044,32.848858 L7.56709479,34.0006263 C7.34280768,34.1555636 7.24668464,34.0044602 7.12461289,34.0322001 C6.79585403,34.1070752 6.71710534,33.7620183 6.71710534,33.7620183 C6.59142333,33.7338274 6.42873621,33.8621525 6.30824394,33.5610734 C6.30824394,33.5610734 6.07402864,33.5969323 5.99415175,33.3213378 C5.9641415,33.2189484 6.41610032,31.831053 6.68574125,31.0191544 C6.80442839,30.6625957 7.1131052,30.4034647 7.48473584,30.3475339 L10.9408782,29.8274678 C10.9408782,29.8274678 12.6846315,30.2496551 12.2175547,31.9929816" id="Fill-3" fill="#CE998A"></path>
                                    <polyline id="Stroke-5" stroke="#965C56" stroke-width="0.66803373" stroke-linecap="round" stroke-linejoin="round" points="7.15275032 33.8797887 8.18460636 32.4598684 9.22526241 32.015805"></polyline>
                                    <polyline id="Stroke-7" stroke="#965C56" stroke-width="0.66803373" stroke-linecap="round" stroke-linejoin="round" points="6.74156482 33.5930307 7.58297991 32.1223667 8.53879496 31.5840328"></polyline>
                                    <polyline id="Stroke-9" stroke="#965C56" stroke-width="0.66803373" stroke-linecap="round" stroke-linejoin="round" points="7.87638083 31.1816018 7.23149901 31.6915192 6.46567363 33.2659258"></polyline>
                                    <path d="M21.3828869,25.9495473 C21.3828869,25.9495473 24.2907217,25.3383681 24.8812241,27.7503833 C25.4900034,30.2379502 22.7279326,30.953323 22.7279326,30.953323 C22.7279326,30.953323 20.7716255,31.4091138 18.3631341,31.9810512 C16.8928577,32.3301676 15.2614736,32.6833435 14.0403048,32.769946 C12.7180489,32.8637654 12.418849,32.1878598 12.1237106,30.9817395 C11.7730646,29.5494151 11.7739672,28.921998 12.9980693,28.4310249 C14.1650843,27.9630556 15.8057196,27.541545 17.0625397,27.1572463 C19.4586209,26.424959 21.3828869,25.9495473 21.3828869,25.9495473" id="Fill-11" fill="#CCD7EE"></path>
                                    <polygon id="Fill-13" fill="#ADC6FF" points="11.5143898 32.5746393 10.8318259 29.7855423 12.6678663 29.1236195 13.4490353 32.3143807"></polygon>
                                    <path d="M9.50280077,37.6777373 C15.2780808,36.1782058 21.2634326,34.6867933 26.0519847,33.609449 C26.0519847,33.609449 29.6658501,33.4123381 29.856968,36.7090972 C30.0440243,39.9404533 26.1399847,40.9002978 26.1399847,40.9002978 L10.4570363,43.33667 C10.4570363,43.33667 7.89849364,43.7051817 7.47090405,40.8678219 C7.08122214,38.2796698 9.50280077,37.6777373 9.50280077,37.6777373" id="Fill-15" fill="#597EF7"></path>
                                    <path d="M10.5203963,52.9506085 L10.5203963,52.9506085 C11.5457088,52.7451531 12.4947546,53.5482561 12.4584264,54.5928988 C12.4166828,55.7947342 12.3686213,57.4185313 12.3406418,59.1677215 C12.3117598,60.9681065 12.2842316,62.4599701 12.1553906,62.6494131 C11.5874524,63.4843154 10.452704,63.7948666 9.28659162,64.6218754 C8.36372015,65.2765814 8.20441764,65.5875836 7.02837703,65.8076983 C5.36134171,66.1198282 6.13844913,65.4130254 7.98938182,63.1773726 C9.6385915,61.1857404 9.52757615,60.2516061 9.52757615,60.2516061 L9.22070446,54.626728 C9.17693012,53.8229484 9.730653,53.1089288 10.5203963,52.9506085" id="Fill-17" fill="#CE998A"></path>
                                    <path d="M8.15689766,62.6486237 C6.95242628,63.9866776 5.57218061,65.0441754 5.60557547,65.679486 C5.63919597,66.3150221 6.14034452,66.8887638 8.21398482,66.153319 C9.63304073,65.6499419 9.22688702,65.34548 10.5814096,64.4647956 C11.2578812,64.0247917 11.5045067,64.0721525 12.1281783,63.5602053 C12.4855936,63.1008061 12.3247116,60.8692128 12.3247116,60.8692128 L9.95096882,63.4690923 C9.95096882,63.4690923 10.5680968,62.2582358 10.060856,61.995722 C9.55384076,61.7332081 9.08698964,61.5545904 8.78778974,61.7699691 C8.48881549,61.9851222 8.15689766,62.6486237 8.15689766,62.6486237" id="Fill-19" fill="#253368"></path>
                                    <path d="M6.98173704,40.9119801 C7.76019831,50.3575174 8.64629031,59.599629 8.64629031,59.599629 L12.6471299,59.5969227 L13.2721554,40.5721104 C13.2721554,40.5721104 12.9212837,38.3890055 9.83090527,37.9916262 C6.98850627,37.6260464 6.98173704,40.9119801 6.98173704,40.9119801" id="Fill-21" fill="#597EF7"></path>
                                    <path d="M35.6764962,37.880351 C35.3163733,34.0702917 35.2209272,32.1113609 34.7935632,31.3957626 C25.6063664,31.6582765 23.3176903,31.5373938 23.3176903,31.5373938 C23.3176903,31.5373938 23.2240493,32.8851453 22.8007469,37.0337213 C22.8007469,37.0337213 25.6293818,42.185443 29.2793497,42.185443 C32.5700973,42.185443 35.6764962,37.880351 35.6764962,37.880351" id="Fill-23" fill="#597EF7"></path>
                                    <path d="M34.7935406,31.3957852 L34.6197971,29.6677945 L23.3700164,29.8026598 L23.3176677,31.5333568 C23.3176677,31.5333568 29.2714297,31.7624927 34.7935406,31.3957852" id="Fill-25" fill="#597EF7"></path>
                                    <g transform="translate(19.856403, 0.042970)">
                                        <mask id="mask-21" fill="white">
                                            <use xlink:href="#path-20"></use>
                                        </mask>
                                        <g id="Clip-28"></g>
                                        <path d="M9.87959859,8.47797975 C9.87959859,8.47797975 11.4421621,7.52084159 10.8164598,5.82059076 C11.4500596,4.30076182 10.5594548,3.42706879 10.5594548,3.42706879 C10.5594548,3.42706879 10.4303881,1.48054207 9.13362962,1.43566213 C8.22023507,-0.521464383 5.98661534,0.376134546 5.98661534,0.376134546 C5.98661534,0.376134546 4.47324151,-0.737519602 2.47496529,0.992726373 C0.956627357,1.12375777 0.912853014,0.369143198 0.450514714,0.918753396 C-0.0120492265,1.46813807 -0.168644044,2.70831307 0.507601874,3.15936781 C-0.592849023,3.70018244 0.522042894,5.43539001 0.522042894,5.43539001 C0.522042894,5.43539001 0.206145569,6.48815177 1.54239125,7.20081826 C2.87886258,7.91371027 3.49621621,10.3476016 5.69125134,11.0126818 C7.80347624,11.6527285 9.96940369,10.8782675 9.87959859,8.47797975" id="Fill-27" fill="#7D4556" mask="url(#mask-21)"></path>
                                    </g>
                                    <path d="M29.0987467,12.2161709 L28.4637931,8.88535719 L24.0389741,9.6690648 L24.1479587,12.6076864 C24.1964715,13.9195791 25.3176814,14.9333246 26.6286553,14.8503306 C26.6537014,14.8487519 26.6785219,14.8471732 26.7037937,14.8455945 C28.0443266,14.7612473 29.2621108,13.5488121 29.0987467,12.2161709" id="Fill-29" fill="#CE998A"></path>
                                    <path d="M27.271371,3.80018863 C27.271371,3.80018863 27.0317403,4.99548369 27.9564169,5.26814628 C27.8248682,6.80669399 28.4882526,6.66122883 28.4882526,6.66122883 C28.4882526,6.66122883 29.5302625,5.28122686 30.2823238,6.45735209 C30.9969286,7.57461468 29.8217906,9.25930412 28.7019346,9.02137275 C26.8950019,12.0260739 23.1820801,12.2387462 21.9184908,10.3118404 C21.1508603,9.14090226 21.3936499,7.41471577 21.2851166,6.60755332 C21.0179578,4.62404011 21.3744705,4.0157928 21.3744705,4.0157928 C21.3744705,4.0157928 22.1378138,4.16441533 22.9580186,3.52662393 C23.8623875,4.17208326 25.1295871,3.49572668 25.1295871,3.49572668 C25.1295871,3.49572668 26.0064278,4.57510067 27.271371,3.80018863" id="Fill-31" fill="#CE998A"></path>
                                    <path d="M29.8461824,7.03652893 C29.8461824,7.03652893 29.8159465,6.68673598 29.3542851,6.78529144 C28.8928494,6.8838469 28.7161725,7.50900877 28.8657725,7.5908752 C29.1435365,7.74310618 29.4070851,8.07282719 28.933916,8.37796572" id="Stroke-33" stroke="#965C56" stroke-width="0.43" stroke-linecap="round" stroke-linejoin="round"></path>
                                    <path d="M29.0412309,7.41654254 C29.0412309,7.41654254 29.5902153,7.31031915 29.5888639,7.63349987" id="Stroke-35" stroke="#965C56" stroke-width="0.43" stroke-linecap="round" stroke-linejoin="round"></path>
                                    <path d="M24.3373617,6.58567716 C24.4077617,7.39757569 25.1228179,7.99883166 25.9353509,7.92891817 C26.7476583,7.85877916 27.3492171,7.14363188 27.2790428,6.33173335 C27.2090941,5.51983482 26.4935866,4.91835333 25.6812792,4.98849234 C24.8687462,5.05863135 24.2671874,5.77377864 24.3373617,6.58567716" id="Fill-37" fill="#FFFFFF"></path>
                                    <path d="M24.3373617,6.58567716 C24.4077617,7.39757569 25.1228179,7.99883166 25.9353509,7.92891817 C26.7476583,7.85877916 27.3492171,7.14363188 27.2790428,6.33173335 C27.2090941,5.51983482 26.4935866,4.91835333 25.6812792,4.98849234 C24.8687462,5.05863135 24.2671874,5.77377864 24.3373617,6.58567716 Z" id="Stroke-39" stroke="#7D4556" stroke-width="0.4"></path>
                                    <path d="M20.7581773,6.75604054 C20.8285773,7.56793907 21.5436335,8.16919503 22.3561665,8.09928155 C23.1684739,8.02914254 23.7702583,7.31399525 23.6998584,6.50209672 C23.6299097,5.69019819 22.9144022,5.0887167 22.1020948,5.15885571 C21.2895618,5.22899472 20.688003,5.94414201 20.7581773,6.75604054" id="Fill-41" fill="#FFFFFF"></path>
                                    <path d="M20.7581773,6.75604054 C20.8285773,7.56793907 21.5436335,8.16919503 22.3561665,8.09928155 C23.1684739,8.02914254 23.7702583,7.31399525 23.6998584,6.50209672 C23.6299097,5.69019819 22.9144022,5.0887167 22.1020948,5.15885571 C21.2895618,5.22899472 20.688003,5.94414201 20.7581773,6.75604054 Z" id="Stroke-43" stroke="#7D4556" stroke-width="0.4"></path>
                                    <path d="M24.4757473,6.12968338 C24.4757473,6.12968338 23.9407526,6.05841673 23.6007117,6.20523505" id="Stroke-53" stroke="#7D4556" stroke-width="0.4"></path>
                                    <g transform="translate(27.236096, 6.132209)">
                                        <path d="M0.0429919625,0.428937768 L1.49657094,0.158912523" id="Fill-59" fill="#FFFFFF"></path>
                                        <path d="M0.0429919625,0.428937768 L1.49657094,0.158912523" id="Stroke-61" stroke="#7D4556" stroke-width="0.4"></path>
                                    </g>
                                    <path d="M29.3298933,12.3739724 L29.8023855,13.2505973 C29.8023855,13.2505973 33.0807228,13.6436915 34.6814196,14.6073699 C36.1289063,15.4788077 35.9465884,24.6782946 35.7238808,27.7743343 C36.5036959,31.4093845 33.5938303,31.1161989 33.5938303,31.1161989 L23.2096083,31.9723008 C23.2096083,31.9723008 21.6896909,31.1096586 22.4453624,28.5481187 C22.2515368,26.4651479 18.8675995,16.4751876 20.1747375,15.1687076 C21.19125,14.1527068 23.6448697,13.9540172 23.6448697,13.9540172 L23.8093619,12.9355356 C23.8093619,12.9355356 25.3843357,12.7557902 29.3298933,12.3739724" id="Fill-76" fill="#CCD7EE"></path>
                                    <path d="M22.7160187,28.7575209 C22.7160187,28.7575209 21.0437937,22.9413956 20.6829938,19.232598" id="Stroke-78" stroke="#A3B5D6" stroke-width="0.4" stroke-linecap="round" stroke-linejoin="round"></path>
                                    <path d="M24.0793413,14.2486687 C24.0793413,14.2486687 26.3917097,14.5096038 29.0165909,13.8183624" id="Stroke-80" stroke="#A3B5D6" stroke-width="0.4" stroke-linecap="round" stroke-linejoin="round"></path>
                                    <path d="M18.7064919,54.7973394 L18.7064919,54.7973394 C19.8207069,54.6133091 20.8155578,55.5149675 20.738163,56.6412512 C20.6490348,57.9369059 20.5375682,59.6879004 20.4432503,61.5751134 C20.345999,63.5173551 20.2616093,65.1267184 20.115394,65.3265357 C19.4720916,66.206769 18.2353536,66.5006312 16.9462669,67.3506438 C15.9263698,68.023392 15.7429237,68.3533385 14.4653447,68.5477431 C12.6543504,68.8235631 13.5192322,68.089246 15.5991904,65.7437613 C17.4521539,63.6542502 17.3668616,62.6418579 17.3668616,62.6418579 L17.2420822,56.5591592 C17.2244822,55.6897512 17.8479281,54.9391961 18.7064919,54.7973394" id="Fill-82" fill="#CE998A"></path>
                                    <path d="M15.7991534,65.1790859 C14.4500462,66.5791598 12.9213288,67.6700357 12.934416,68.3572176 C12.9470519,69.0443995 13.4671543,69.6819653 15.7323637,68.9641117 C17.2827427,68.4726876 16.8556044,68.1294349 18.3497987,67.2282276 C19.0959933,66.7780749 19.3604445,66.8382907 20.0524853,66.308527 C20.4552544,65.8258984 20.3636442,63.4111768 20.3636442,63.4111768 L17.7058194,66.1303603 C17.7058194,66.1303603 18.4165884,64.845982 17.8786604,64.5442263 C17.340958,64.2422452 16.8434197,64.0322792 16.5126301,64.2535216 C16.1818405,64.4747639 15.7991534,65.1790859 15.7991534,65.1790859" id="Fill-84" fill="#253368"></path>
                                    <path d="M15.4426182,41.5394424 C15.9279719,51.7641767 16.5374281,61.7730814 16.5374281,61.7730814 L20.8559701,61.9205763 L22.2450158,41.408411 C22.2450158,41.408411 21.9895902,38.3432685 18.6275401,38.4941463 C15.5940233,38.6301393 15.4426182,41.5394424 15.4426182,41.5394424" id="Fill-86" fill="#597EF7"></path>
                                    <path d="M17.255237,38.1909022 C21.9244251,36.4604307 27.8872128,35.2022135 32.2066574,34.324461 C32.2066574,34.324461 35.4470871,34.7563459 35.6661844,37.9394392 C35.880769,41.0591593 32.3600933,41.8532412 32.3600933,41.8532412 L18.1981905,43.6755023 C18.1981905,43.6755023 15.887176,43.944782 15.4607146,41.1965055 C15.071484,38.6897688 17.255237,38.1909022 17.255237,38.1909022" id="Fill-88" fill="#597EF7"></path>
                                    <path d="M23.3935959,31.9536722 L34.9141457,31.9536722" id="Stroke-90" stroke="#1D39C4" stroke-width="0.7271775" stroke-linecap="round" stroke-linejoin="round"></path>
                                    <path d="M23.2241396,33.2659709 L34.7868842,33.2659709" id="Stroke-92" stroke="#1D39C4" stroke-width="0.7271775" stroke-linecap="round" stroke-linejoin="round"></path>
                                    <path d="M26.8456542,31.9325177 L26.7820234,33.2660611" id="Stroke-94" stroke="#1D39C4" stroke-width="0.7271775" stroke-linecap="round" stroke-linejoin="round"></path>
                                    <polygon id="Fill-96" fill="#BAC9E5" points="16.5948537 38.1489541 29.611403 35.3273812 16.3721461 32.1269223 5.7126421 35.5405046"></polygon>
                                    <polygon id="Fill-98" fill="#4E5C93" points="16.0479226 37.2618197 25.5013757 35.212678 16.1099738 32.8577212 8.14439715 35.3673898"></polygon>
                                    <polygon id="Fill-100" fill="#253368" points="29.6419096 36.0054518 29.6143814 35.3318016 16.323904 38.1035329 16.5915142 38.8092081"></polygon>
                                    <path d="M22.0397502,35.902273 L14.3769837,33.5764093" id="Stroke-102" stroke="#BAC9E5" stroke-width="0.53865" stroke-linecap="round" stroke-linejoin="round"></path>
                                    <path d="M23.9096593,35.5626514 L15.3501956,33.1204155" id="Stroke-104" stroke="#BAC9E5" stroke-width="0.53865" stroke-linecap="round" stroke-linejoin="round"></path>
                                    <path d="M20.7427661,36.3186191 L14.3020709,34.2656435" id="Stroke-106" stroke="#BAC9E5" stroke-width="0.53865" stroke-linecap="round" stroke-linejoin="round"></path>
                                    <path d="M19.0253226,36.588643 L12.5846274,34.5356674" id="Stroke-108" stroke="#BAC9E5" stroke-width="0.53865" stroke-linecap="round" stroke-linejoin="round"></path>
                                    <path d="M17.4456329,36.9502762 L11.0049377,34.8973005" id="Stroke-110" stroke="#BAC9E5" stroke-width="0.53865" stroke-linecap="round" stroke-linejoin="round"></path>
                                    <path d="M23.9279588,34.9432179 L15.8220334,36.4118521" id="Stroke-112" stroke="#BAC9E5" stroke-width="0.53865" stroke-linecap="round" stroke-linejoin="round"></path>
                                    <path d="M22.0811779,34.4075904 L13.9750269,35.8762246" id="Stroke-114" stroke="#BAC9E5" stroke-width="0.53865" stroke-linecap="round" stroke-linejoin="round"></path>
                                    <path d="M19.8124259,34.1089471 L11.7065005,35.5775813" id="Stroke-116" stroke="#BAC9E5" stroke-width="0.53865" stroke-linecap="round" stroke-linejoin="round"></path>
                                    <path d="M18.2305249,33.0657702 L10.1243739,34.5344044" id="Stroke-118" stroke="#BAC9E5" stroke-width="0.53865" stroke-linecap="round" stroke-linejoin="round"></path>
                                    <polygon id="Fill-120" fill="#253368" points="16.5809542 38.8103357 15.9936108 38.8949085 5.68678365 36.2882631 0.624529012 19.4093438 11.6552123 20.968189"></polygon>
                                    <path d="M15.9727841,38.8971186 L5.10388539,36.1531271 C5.00460338,36.1283191 4.92562904,36.0527675 4.89607008,35.954663 L0.0127487135,19.7347347 C-0.0488512649,19.5308579 0.122184573,19.3321683 0.332933217,19.3621635 L10.7972578,20.8556057 C10.9116577,20.8720692 11.0059756,20.9548377 11.0368884,21.0664738 L15.9727841,38.8971186 Z" id="Fill-122" fill="#4E5C93"></path>
                                    <g transform="translate(30.461528, 14.251195)">
                                        <mask id="mask-23" fill="white">
                                            <use xlink:href="#path-22"></use>
                                        </mask>
                                        <g id="Clip-125"></g>
                                        <path d="M1.25501495,13.6153353 C1.25501495,13.6153353 1.61062508,16.752421 4.48032664,16.3784967 C7.40643843,15.9971299 6.92266424,12.8368149 6.92266424,12.8368149 C6.92266424,12.8368149 6.96147448,10.8551059 6.61646948,8.21057195 C6.34682855,6.14406467 5.95782355,3.44743391 5.65930058,2.14140492 C5.33708531,0.73230992 3.9764704,-0.13687256 2.63232728,0.0381366781 C0.589825434,0.304484501 -0.0189538395,1.99278238 0.102215349,3.42578329 C0.219999923,4.8193169 0.40750755,7.11247919 0.571322877,8.64561424 C0.886543279,11.593257 1.25501495,13.6153353 1.25501495,13.6153353" id="Fill-124" fill="#CCD7EE" mask="url(#mask-23)"></path>
                                    </g>
                                    <path d="M23.4160697,31.8979444 C23.0381212,33.3083926 19.8951684,32.829598 19.8951684,32.829598 L18.3547177,34.0830791 C18.1107998,34.251548 18.0058768,34.0873641 17.8731999,34.1173592 C17.5153334,34.1990001 17.4298154,33.8232715 17.4298154,33.8232715 C17.2928514,33.7925998 17.1157232,33.9324268 16.9846258,33.6047355 C16.9846258,33.6047355 16.7298772,33.6437518 16.6427798,33.3438004 C16.6105132,33.2321643 17.1021848,31.7218075 17.3957437,30.8381913 C17.5248103,30.4500587 17.860564,30.1681495 18.2651382,30.1072571 L22.0265728,29.5411834 C22.0265728,29.5411834 23.9244388,30.0003571 23.4160697,31.8979444" id="Fill-126" fill="#CE998A"></path>
                                    <polyline id="Stroke-128" stroke="#965C56" stroke-width="0.3" stroke-linecap="round" stroke-linejoin="round" points="17.9039548 33.9514839 19.0271954 32.4061703 20.1594617 31.9226396"></polyline>
                                    <polyline id="Stroke-130" stroke="#965C56" stroke-width="0.3" stroke-linecap="round" stroke-linejoin="round" points="17.4564185 33.6393991 18.3720695 32.0388313 19.4122742 31.4531368"></polyline>
                                    <polyline id="Stroke-132" stroke="#965C56" stroke-width="0.3" stroke-linecap="round" stroke-linejoin="round" points="18.6915094 31.0149822 17.9895404 31.5697795 17.1560227 33.2833365"></polyline>
                                    <path d="M33.3912047,25.3207544 C33.3912047,25.3207544 36.5555934,24.6554487 37.1984444,27.2805873 C37.8613775,29.9878178 34.8549375,30.7665638 34.8549375,30.7665638 C34.8549375,30.7665638 32.7260152,31.2624985 30.10497,31.884954 C28.5044987,32.2649676 26.7289301,32.6492663 25.399905,32.7435367 C23.960767,32.8457006 23.6353927,32.1100303 23.31408,30.797461 C22.9322956,29.2388414 22.9331981,28.5554935 24.2656079,28.0214447 C25.5357408,27.5119783 27.3214633,27.0532557 28.689073,26.6351279 C31.2968054,25.8378887 33.3912047,25.3207544 33.3912047,25.3207544" id="Fill-134" fill="#CCD7EE"></path>
                                    <polygon id="Fill-136" fill="#ADC6FF" points="22.6510116 32.5310223 21.9077503 29.4956494 23.9062521 28.775315 24.7564672 32.2477599"></polygon>
                                    <path d="M30.5938436,19.4866771 C30.7163667,20.6325817 31.4129203,25.0461523 31.526869,25.8479021 C30.7614949,26.0589957 29.8284696,26.3255691 28.8160186,26.6352181 C27.4484088,27.0533459 25.6626864,27.5120685 24.3925535,28.0213093 C23.7138255,28.2935209 23.3819077,28.6051997 23.2688616,29.0508418 L22.0348313,29.4955818 L22.7778669,32.5309546 L24.1159177,32.3509838 C24.4155689,32.6504841 24.8456405,32.7921153 25.5268505,32.7436269 C26.8561014,32.6493565 28.6314443,32.2650578 30.2319156,31.8850442 C32.8531864,31.2623632 34.9818831,30.766654 34.9818831,30.766654" id="Stroke-138" stroke="#A3B5D6" stroke-width="0.4" stroke-linecap="round" stroke-linejoin="round"></path>
                                </g>
                            </g>
                        </g>
                    </g>
                </g>
            </g>
        </g>
    </g>
</svg>