<?xml version="1.0" encoding="UTF-8"?>
<svg width="60px" height="68px" viewBox="0 0 60 68" version="1.1" xmlns="http://www.w3.org/2000/svg" xmlns:xlink="http://www.w3.org/1999/xlink">
    <title>upload-xml.8fb7c0d</title>
    <g id="页面-1" stroke="none" stroke-width="1" fill="none" fill-rule="evenodd">
        <g id="6--附件查看" transform="translate(-801.000000, -579.000000)">
            <g id="Dropdown备份-3" transform="translate(681.000000, 508.000000)">
                <g id="upload-xml.8fb7c0d" transform="translate(120.000000, 71.000000)">
                    <g id="Combined-Shape" fill="#EBECF0" fill-rule="nonzero">
                        <g id="path-1-link">
                            <path d="M52.5,42.6930307 C51.3061535,42.36353 50.0486337,42.1875 48.75,42.1875 C40.9834958,42.1875 34.6875,48.4834958 34.6875,56.25 C34.6875,57.5486337 34.86353,58.8061535 35.1930307,60 L2.8125,60 C1.25919919,60 0,58.7408008 0,57.1875 L0,2.8125 C0,1.25919914 1.25919919,0 2.8125,0 L37.5,0 L52.5,15 L52.5,42.6930307 Z" id="path-1"></path>
                        </g>
                    </g>
                    <g id="Combined-Shape" transform="translate(3.750000, 3.750000)" fill-rule="nonzero">
                        <g id="path-3-link" fill="#F4F5F7">
                            <path d="M45,38.4375 C37.2334958,38.4375 30.9375,44.7334957 30.9375,52.5 L1.875,52.5 C0.839466094,52.5 0,51.6605339 0,50.625 L0,1.875 C0,0.839466094 0.839466094,0 1.875,0 L33.75,0 L45,11.25 L45,38.4375 Z" id="path-3"></path>
                        </g>
                        <g id="path-3-link" fill="#FFFFFF">
                            <path d="M45,38.4375 C37.2334958,38.4375 30.9375,44.7334957 30.9375,52.5 L1.875,52.5 C0.839466094,52.5 0,51.6605339 0,50.625 L0,1.875 C0,0.839466094 0.839466094,0 1.875,0 L33.75,0 L45,11.25 L45,38.4375 Z" id="path-3"></path>
                        </g>
                    </g>
                    <path d="M10.5477905,18.75 L10.5477905,16.0949707 L13.1387329,16.0949707 L13.1387329,14.8590088 L10.5477905,14.8590088 L10.5477905,13.3255005 L13.3996582,13.3255005 L13.3996582,12.0849609 L8.94104004,12.0849609 L8.94104004,18.75 L10.5477905,18.75 Z M15.7800293,18.75 L15.7800293,12.0849609 L14.1778564,12.0849609 L14.1778564,18.75 L15.7800293,18.75 Z M21.3006592,18.75 L21.3006592,17.5140381 L18.5037231,17.5140381 L18.5037231,12.0849609 L16.8969727,12.0849609 L16.8969727,18.75 L21.3006592,18.75 Z M26.569519,18.75 L26.569519,17.5140381 L23.5848999,17.5140381 L23.5848999,15.9255981 L26.1117554,15.9255981 L26.1117554,14.730835 L23.5848999,14.730835 L23.5848999,13.3255005 L26.5786743,13.3255005 L26.5786743,12.0849609 L21.9781494,12.0849609 L21.9781494,18.75 L26.569519,18.75 Z" id="FILE" fill="#C5CAD1" fill-rule="nonzero"></path>
                    <g id="path-6-link" transform="translate(37.500000, 0.000000)" fill="#E6E7EB">
                        <path d="M0,0 L3.79675556,3.79675553 L7.55429981,7.55429981 L11.3118442,11.3118442 L15,15 L2.8125,15 C1.25919919,15 0,13.7408008 0,12.1875 L0,0 Z" id="path-6"></path>
                    </g>
                    <g id="upload" transform="translate(37.500000, 45.000000)">
                        <g id="Oval">
                            <g id="path-10-link" fill="#000000" fill-rule="nonzero">
                                <circle id="path-10" cx="11.25" cy="11.25" r="11.25"></circle>
                            </g>
                            <g id="path-10-link" fill="#3095F2">
                                <circle id="path-10" cx="11.25" cy="11.25" r="11.25"></circle>
                            </g>
                        </g>
                        <g id="Icon/help" transform="translate(7.500000, 4.500000)" fill="#FFFFFF" fill-rule="nonzero">
                            <g id="color">
                                <path d="M6.89734566,6.11573886 C7.48439284,5.53081496 7.81519532,4.7367481 7.817058,3.90804013 C7.81783761,2.87115507 7.40621527,1.87652807 6.67293474,1.14343128 C5.93965421,0.410334487 4.9449241,-0.00103859291 3.90803927,0 C2.87132407,-0.000778396287 1.8768458,0.410709555 1.14377725,1.14377811 C0.410708694,1.87684666 -0.000779257635,2.87132493 0,3.90804013 L1.92953373,3.90804013 C1.92953373,2.85022529 2.85022443,1.93149352 3.9070598,1.9314935 C4.96487464,1.9314935 5.88458588,2.85022527 5.88458588,3.90804013 C5.88458588,4.46045454 5.6544132,4.91982044 5.2871164,5.2880967 L4.09119796,6.52907023 C3.4016594,7.26562278 2.94131404,8.2303891 2.94131404,9.28820394 L2.94131404,9.79458381 L4.87280559,9.79458381 C4.87280559,8.32245815 5.33315093,7.7710232 6.02268948,7.0354501 L6.89636619,6.11475942 L6.89734566,6.11573886 Z" id="路径"></path>
                                <polygon id="路径" points="4.87378503 13.702622 4.87378503 11.7711304 2.9422935 11.7711304 2.9422935 13.702622"></polygon>
                            </g>
                        </g>
                    </g>
                </g>
            </g>
        </g>
    </g>
</svg>