<?xml version="1.0" encoding="UTF-8"?>
<svg width="266px" height="150px" viewBox="0 0 266 150" version="1.1" xmlns="http://www.w3.org/2000/svg" xmlns:xlink="http://www.w3.org/1999/xlink">
    <title>编组 32</title>
    <g id="IM协同工具" stroke="none" stroke-width="1" fill="none" fill-rule="evenodd">
        <g id="扫码登录备份-3" transform="translate(-587.000000, -337.000000)">
            <g id="Modal/Default" transform="translate(440.000000, 201.000000)">
                <g id="编组-32" transform="translate(147.000000, 136.000000)">
                    <rect id="矩形" x="0" y="0" width="266" height="150"></rect>
                    <g id="编组-31" transform="translate(0.000000, 3.000000)">
                        <path d="M237.269645,137.888054 L225.358167,137.888054 C223.856516,137.888054 222.62796,136.67208 222.62796,135.186132 L222.62796,123.256151 C222.62796,121.770057 223.856516,120.554083 225.358167,120.554083 L237.269645,120.554083 C238.771296,120.554083 240,121.770057 240,123.256151 L240,135.186132 C240,136.67208 238.771296,137.888054 237.269645,137.888054" id="Fill-3" fill="#FCA400" transform="translate(231.313980, 129.221069) rotate(-360.000000) translate(-231.313980, -129.221069) "></path>
                        <path d="M57.7920218,90.9640837 L50.3363983,90.9640837 C49.396486,90.9640837 48.6275088,90.202982 48.6275088,89.2728986 L48.6275088,81.8056936 C48.6275088,80.875519 49.396486,80.1144173 50.3363983,80.1144173 L57.7920218,80.1144173 C58.7319341,80.1144173 59.5010035,80.875519 59.5010035,81.8056936 L59.5010035,89.2728986 C59.5010035,90.202982 58.7319341,90.9640837 57.7920218,90.9640837" id="Fill-3备份" fill="#FCA400" transform="translate(54.064256, 85.539251) rotate(-360.000000) translate(-54.064256, -85.539251) "></path>
                        <path d="M12.4970633,141.866308 L2.33030384,141.866308 C1.04860531,141.866308 0,140.828442 0,139.560146 L0,129.377594 C0,128.109174 1.04860531,127.071308 2.33030384,127.071308 L12.4970633,127.071308 C13.7787618,127.071308 14.8274927,128.109174 14.8274927,129.377594 L14.8274927,139.560146 C14.8274927,140.828442 13.7787618,141.866308 12.4970633,141.866308" id="Fill-3备份-2" fill-opacity="0.6" fill="#FCA400" transform="translate(7.413746, 134.468808) rotate(-360.000000) translate(-7.413746, -134.468808) "></path>
                        <g id="3.通用组件/彩色版/箱子" transform="translate(56.518175, 41.425999)" fill-rule="nonzero">
                            <g id="资源-20">
                                <path d="M12.7173039,40.777023 L136.669116,40.777023 L136.669116,99.9272123 C136.669116,102.481043 134.58665,104.551331 132.017798,104.551331 L17.368622,104.551331 C14.7997699,104.551331 12.7173039,102.481043 12.7173039,99.9272123 L12.7173039,40.777023 Z" id="路径" fill="#515874"></path>
                                <path d="M12.3994638,18.3596793 L0.304098817,44.8134936 C-0.155658107,45.7680391 -0.0907398968,46.8903194 0.476053416,47.7861766 C1.04284673,48.6820338 2.03227055,49.2262162 3.09682771,49.2276005 L145.836089,49.2276005 C146.924048,49.2276005 147.932309,48.6603329 148.492934,47.7333935 C149.053559,46.8064541 149.084533,45.6552254 148.574552,44.6998173 L136.729196,18.3596793 L12.3994638,18.3596793 Z" id="路径" fill="#E4EBF7"></path>
                                <polygon id="路径" fill-opacity="0.7" fill="#515874" points="111.685724 0 136.729196 18.3596793 12.3897736 18.3596793 37.2995199 0"></polygon>
                                <polygon id="路径" fill="#515874" points="37.2995199 0 37.2995199 18.3596793 12.3897736 18.3596793"></polygon>
                                <polygon id="路径" fill="#515874" points="111.685724 0 111.685724 18.3461923 136.729196 18.3596793"></polygon>
                            </g>
                        </g>
                        <g id="3.通用组件/彩色版/金币" transform="translate(112.935164, 25.972143) rotate(-15.000000) translate(-112.935164, -25.972143) translate(91.728998, 4.765977)" fill-rule="nonzero">
                            <g id="资源-6">
                                <circle id="椭圆形" fill="#FFD943" cx="21.2061663" cy="21.2061663" r="21.2061663"></circle>
                                <circle id="椭圆形" fill="#FFB813" cx="21.0819114" cy="21.0819114" r="16.8467265"></circle>
                                <g id="编组" transform="translate(15.123594, 10.650418)" fill="#FFFFFF">
                                    <path d="M2.80106586,0 C2.94265853,0 3.07228158,0.0793697272 3.13652925,0.205452499 L6.106,6.025 L9.07595042,0.205452499 C9.12734856,0.104586282 9.22058694,0.0336164127 9.32832181,0.00926311381 L9.41141382,0 L11.5756938,0 C11.7066429,0 11.8281891,0.0679770417 11.8966316,0.1795325 C11.9650742,0.291087958 11.9705753,0.430171199 11.9111571,0.546776326 L11.9111571,0.546776326 L9.111,6.035 L10.5557479,6.03523705 C11.3923081,6.03523705 12.0704741,6.71340305 12.0704741,7.54996321 C12.0704741,8.38652337 11.3923081,9.06468937 10.5557479,9.06468937 L7.549,9.064 L7.549,12.046 L10.5557479,12.0468065 C11.3923081,12.0468065 12.0704741,12.7249725 12.0704741,13.5615327 C12.0704741,14.3980928 11.3923081,15.0762588 10.5557479,15.0762588 L7.549,15.076 L7.54996321,20.7351811 C7.54996321,20.943014 7.38042171,21.1114959 7.17128167,21.1114959 L4.89919243,21.1114959 C4.69005239,21.1114959 4.52051089,20.943014 4.52051089,20.7351811 L4.52,15.076 L1.51472616,15.0762588 C0.678166002,15.0762588 1.95199299e-16,14.3980928 9.27502272e-17,13.5615327 C-9.69884486e-18,12.7249725 0.678166002,12.0468065 1.51472616,12.0468065 L4.52,12.046 L4.52,9.064 L1.51472616,9.06468937 C0.678166002,9.06468937 -6.9297912e-16,8.38652337 -7.95428192e-16,7.54996321 C-8.97877265e-16,6.71340305 0.678166002,6.03523705 1.51472616,6.03523705 L3.101,6.035 L0.301322531,0.546776326 C0.241904354,0.430171199 0.247405482,0.291087958 0.315848044,0.1795325 C0.384290605,0.0679770417 0.505836774,0 0.636785921,0 L2.80106586,0 Z" id="形状结合"></path>
                                </g>
                            </g>
                        </g>
                        <g id="3.通用组件/彩色版/金币备份" opacity="0.7" transform="translate(154.361164, 17.095144) rotate(-330.000000) translate(-154.361164, -17.095144) translate(143.018331, 5.752310)" fill-rule="nonzero">
                            <g id="资源-6">
                                <circle id="椭圆形" fill="#FFD943" cx="11.3428331" cy="11.3428331" r="11.3428331"></circle>
                                <circle id="椭圆形" fill="#FFB813" cx="11.2763712" cy="11.2763712" r="9.01103976"></circle>
                                <g id="编组" transform="translate(8.089364, 5.696735)" fill="#FFFFFF">
                                    <path d="M1.49824453,0 C1.57398014,0 1.6433134,0.042453575 1.67767844,0.109893197 L3.266,3.222 L4.85457813,0.109893197 C4.88035191,0.0593134806 4.92579531,0.0227884155 4.97885711,0.00768711519 L5.03401204,0 L6.19165015,0 C6.26169271,0 6.32670578,0.036359813 6.36331459,0.0960290116 C6.39992341,0.15569821 6.40286587,0.230091571 6.37108405,0.292461756 L6.37108405,0.292461756 L4.873,3.228 L5.64609773,3.22815005 C6.09356014,3.22815005 6.4563001,3.59089 6.4563001,4.03835241 C6.4563001,4.48581483 6.09356014,4.84855478 5.64609773,4.84855478 L4.038,4.848 L4.038,6.443 L5.64609773,6.44364069 C6.09356014,6.44364069 6.4563001,6.80638064 6.4563001,7.25384305 C6.4563001,7.70130546 6.09356014,8.06404542 5.64609773,8.06404542 L4.038,8.064 L4.03835241,11.0909108 C4.03835241,11.2020773 3.94766743,11.2921955 3.83580182,11.2921955 L2.62049828,11.2921955 C2.50863267,11.2921955 2.41794768,11.2020773 2.41794768,11.0909108 L2.417,8.064 L0.810202365,8.06404542 C0.362739955,8.06404542 5.48498137e-16,7.70130546 4.93699797e-16,7.25384305 C4.38901456e-16,6.80638064 0.362739955,6.44364069 0.810202365,6.44364069 L2.417,6.443 L2.417,4.848 L0.810202365,4.84855478 C0.362739955,4.84855478 2.27478084e-13,4.48581483 2.27423286e-13,4.03835241 C2.27368488e-13,3.59089 0.362739955,3.22815005 0.810202365,3.22815005 L1.659,3.228 L0.161172516,0.292461756 C0.129390701,0.230091571 0.132333165,0.15569821 0.168941977,0.0960290116 C0.205550789,0.036359813 0.270563856,0 0.340606423,0 L1.49824453,0 Z" id="形状结合"></path>
                                </g>
                            </g>
                        </g>
                    </g>
                </g>
            </g>
        </g>
    </g>
</svg>