<?xml version="1.0" encoding="UTF-8"?>
<svg width="74px" height="85px" viewBox="0 0 74 85" version="1.1" xmlns="http://www.w3.org/2000/svg" xmlns:xlink="http://www.w3.org/1999/xlink">
    <title>none</title>
    <g id="页面-1" stroke="none" strokeWidth="1" fill="none" fillRule="evenodd">
        <g id="角色工作台备份" transform="translate(-778.000000, -410.000000)">
            <g id="编组-9" transform="translate(63.000000, 105.000000)">
                <g id="编组-36" transform="translate(0.000000, 97.000000)">
                    <g id="编组-7" transform="translate(704.000000, 208.000000)">
                        <g id="none" transform="translate(11.000000, 0.000000)">
                            <path d="M55.7195598,32.6247418 C55.694254,32.6247418 52.8264091,36.1129299 50.2306142,39.592384 C43.0933949,37.220568 38.8751065,34.848752 37.5776957,32.4769359 C38.8751065,31.6871212 42.3785172,28.3578448 44.9743121,25.9860288 C46.6084852,29.1488455 50.1902345,31.3617498 55.7195598,32.6247418 Z" id="路径" fill="#868D9C"></path>
                            <path d="M0.348441909,34.6868934 L6.98246441,19.7595423 C7.61408649,18.3385518 8.9996758,17.4258998 10.5262549,17.4258998 L63.7950417,17.4258998 C65.3216208,17.4258998 66.7072101,18.3385518 67.3388322,19.7595423 L73.7210858,34.2529468 C73.965037,34.9767963 74.04896,36.9973156 73.9728547,40.3145047 L73.9709081,78.1304608 C73.9709081,81.4281201 71.3563368,84.1014012 68.1310996,84.1014012 L5.83980854,84.1014012 C2.61457134,84.1014012 0,81.4281201 0,78.1304608 L0.000680120636,39.7011141 C0.00544398075,38.0903953 0.0435548617,35.3728115 0.348441909,34.6868934 Z M45.7451669,47.2806019 L30.1723441,47.2806019 C28.5597255,47.2806019 27.2524398,48.6172425 27.2524398,50.2660721 C27.2524398,51.9149018 28.5597255,53.2515423 30.1723441,53.2515423 L45.7451669,53.2515423 C47.3577855,53.2515423 48.6650711,51.9149018 48.6650711,50.2660721 C48.6650711,48.6172425 47.3577855,47.2806019 45.7451669,47.2806019 Z M63.1682356,22.4016835 L11.153061,22.4016835 L5.4047428,35.3387211 L68.9165538,35.3387211 L63.1682356,22.4016835 Z" id="形状结合" fill="#E5E5E7" fill-rule="nonzero"></path>
                            <path d="M20.4755378,0 C19.7041517,4.57261137 22.7885397,7.23553375 29.7275454,7.98758465 C29.6812853,7.98758465 26.1439492,13.1851802 28.4569511,15.5501202 C23.1092907,15.1717298 14.5789398,14.3676502 12.5064901,8.21998882 C14.0481058,7.43246382 17.5519034,3.78508637 20.4755378,0 Z" id="路径" fill="#868D9C"></path>
                        </g>
                    </g>
                </g>
            </g>
        </g>
    </g>
</svg>
