<?xml version="1.0" encoding="UTF-8"?>
<svg width="36px" height="36px" viewBox="0 0 36 36" version="1.1" xmlns="http://www.w3.org/2000/svg" xmlns:xlink="http://www.w3.org/1999/xlink">
    <title>产供销_出入库单据</title>
    <defs>
        <filter x="-20.0%" y="-20.0%" width="140.0%" height="140.0%" filterUnits="objectBoundingBox" id="filter-1">
            <feOffset dx="0" dy="2" in="SourceAlpha" result="shadowOffsetOuter1"></feOffset>
            <feGaussianBlur stdDeviation="1" in="shadowOffsetOuter1" result="shadowBlurOuter1"></feGaussianBlur>
            <feColorMatrix values="0 0 0 0 0   0 0 0 0 0   0 0 0 0 0  0 0 0 0.14 0" type="matrix" in="shadowBlurOuter1" result="shadowMatrixOuter1"></feColorMatrix>
            <feMerge>
                <feMergeNode in="shadowMatrixOuter1"></feMergeNode>
                <feMergeNode in="SourceGraphic"></feMergeNode>
            </feMerge>
        </filter>
    </defs>
    <g id="页面-1" stroke="none" stroke-width="1" fill="none" fill-rule="evenodd">
        <g id="在线提单-入口" transform="translate(-1355.000000, -697.000000)" fill-rule="nonzero">
            <g id="编组-25" transform="translate(1266.368240, 647.000000)">
                <g id="矩形-2" filter="url(#filter-1)" transform="translate(86.631760, 48.000000)">
                    <g id="产供销_出入库单据" transform="translate(8.000000, 8.000000)">
                        <rect id="矩形" fill="#000000" opacity="0" x="0" y="0" width="24" height="24"></rect>
                        <path d="M7.66420362,13.0599343 L12.7807882,13.0599343 L12.7807882,14.8070608 L7.66420362,14.8070608 L7.66420362,13.0599343 Z M9.33333333,6.64860428 L14.3875205,6.64860428 C15.3489012,6.64013347 16.1261761,5.86285855 16.134647,4.90147785 L16.134647,3.74712644 C16.134647,2.77996717 15.3546798,2 14.3875205,2 L9.33333333,2 C8.36617406,2 7.5862069,2.77996717 7.5862069,3.74712644 L7.5862069,4.91707718 C7.5862069,5.86863712 8.36617406,6.64860428 9.33333333,6.64860428 Z M9.33333333,3.74712644 L14.3875205,3.74712644 L14.3875205,4.91707718 L9.33333333,4.91707718 L9.33333333,3.74712644 Z M7.66420362,9.56568144 L16.1502463,9.56568144 L16.1502463,11.3128079 L7.66420362,11.3128079 L7.66420362,9.56568144 Z M4.74712644,20.4228243 L4.74712644,5.49425287 L6.46305419,5.49425287 L6.46305419,3.74712644 L4.74712644,3.74712644 C3.77996717,3.74712644 3,4.52709361 3,5.49425287 L3,20.4384237 C3,21.4055829 3.77996717,22.1855501 4.74712644,22.1855501 L11.907225,22.1855501 L11.907225,20.4228243 L4.74712644,20.4228243 Z M20.7364532,5.49425287 C20.7364532,4.52709361 19.956486,3.74712644 18.9893268,3.74712644 L17.3669951,3.74712644 L17.3669951,5.49425287 L18.9893268,5.49425287 L18.9893268,13.4031199 L20.7364532,13.4031199 L20.7364532,5.49425287 Z M17.8817734,14.4014778 L22,18.5197044 L17.8817734,22.6223317 L16.6494253,21.3899836 L18.6617406,19.3776683 L13.7167488,19.3776683 L13.7167488,17.6305419 L18.6461412,17.6305419 L16.6494253,15.633826 L17.8817734,14.4014778 Z" id="形状" fill="#2C3440"></path>
                    </g>
                </g>
            </g>
        </g>
    </g>
</svg>