<?xml version="1.0" encoding="UTF-8"?>
<svg width="36px" height="36px" viewBox="0 0 36 36" version="1.1" xmlns="http://www.w3.org/2000/svg" xmlns:xlink="http://www.w3.org/1999/xlink">
    <title>客服</title>
    <defs>
        <filter x="-20.0%" y="-20.0%" width="140.0%" height="140.0%" filterUnits="objectBoundingBox" id="filter-1">
            <feOffset dx="0" dy="2" in="SourceAlpha" result="shadowOffsetOuter1"></feOffset>
            <feGaussianBlur stdDeviation="1" in="shadowOffsetOuter1" result="shadowBlurOuter1"></feGaussianBlur>
            <feColorMatrix values="0 0 0 0 0   0 0 0 0 0   0 0 0 0 0  0 0 0 0.14 0" type="matrix" in="shadowBlurOuter1" result="shadowMatrixOuter1"></feColorMatrix>
            <feMerge>
                <feMergeNode in="shadowMatrixOuter1"></feMergeNode>
                <feMergeNode in="SourceGraphic"></feMergeNode>
            </feMerge>
        </filter>
    </defs>
    <g id="页面-1" stroke="none" stroke-width="1" fill="none" fill-rule="evenodd">
        <g id="在线提单-入口" transform="translate(-1355.000000, -649.000000)" fill-rule="nonzero">
            <g id="编组-25" transform="translate(1266.368240, 647.000000)">
                <g id="矩形-2备份-6" filter="url(#filter-1)" transform="translate(86.631760, 0.000000)">
                    <g id="客服" transform="translate(8.000000, 8.000000)">
                        <rect id="矩形" fill="#000000" opacity="0" x="0" y="0" width="24" height="24"></rect>
                        <path d="M20.7226172,10.5818906 C20.6641641,5.81226563 16.7840391,1.96267969 12.0000937,1.96267969 C7.21614844,1.96267969 3.33604687,5.81226563 3.27747656,10.5818906 C2.47678125,11.2220625 1.96272656,12.2049375 1.96272656,13.3093125 C1.96272656,15.2371406 3.5259375,16.8007734 5.45397656,16.8007734 C6.29535937,16.8007734 7.06689844,16.5025078 7.66961719,16.00725 L6.02477344,9.86842969 C5.83846875,9.83810156 5.64871875,9.81792188 5.454,9.81792188 C5.32570312,9.81792188 5.19958594,9.82586719 5.07471094,9.839625 C5.49550781,6.38610938 8.43255469,3.70835156 12.0002109,3.70835156 C15.567375,3.70835156 18.5048672,6.38608594 18.9255469,9.839625 C18.8011875,9.82596094 18.6746484,9.81792188 18.5463281,9.81792188 C18.3516797,9.81792188 18.1614609,9.83814844 17.9750391,9.86842969 L16.3306875,16.0043906 C16.7958516,16.3863047 17.3614922,16.6503047 17.9820703,16.7512969 C17.1585234,17.6360859 16.1111719,18.3101484 14.9263359,18.6747656 L14.7818672,18.8190469 C14.4122578,18.1395937 13.7008828,17.6731406 12.8730703,17.6731406 C11.66775,17.6731406 10.6909922,18.649875 10.6909922,19.8555938 C10.6909922,21.0610078 11.6677031,22.0377188 12.8730703,22.0377188 C13.8623906,22.0377188 14.6875781,21.3751406 14.9555391,20.4730781 C17.3637891,19.8827109 19.3812187,18.2973984 20.5400391,16.1727188 C21.4446094,15.5418516 22.0376719,14.4954844 22.0376719,13.3092422 C22.0376719,12.2051484 21.5231016,11.2219453 20.7227812,10.5817969 L20.7226172,10.5818906 Z" id="路径" fill="#2C3440"></path>
                    </g>
                </g>
            </g>
        </g>
    </g>
</svg>