<?xml version="1.0" encoding="UTF-8"?>
<svg width="73px" height="72px" viewBox="0 0 73 72" version="1.1" xmlns="http://www.w3.org/2000/svg" xmlns:xlink="http://www.w3.org/1999/xlink">
    <title>即刻备份 3@3x</title>
    <g id="页面-2" stroke="none" stroke-width="1" fill="none" fill-rule="evenodd">
        <g id="即刻备份-3" transform="translate(0.150000, 0.000000)">
            <rect id="矩形" x="0" y="0" width="72" height="72"></rect>
            <g id="编组" transform="translate(10.000000, 10.000000)">
                <rect id="矩形" fill="#00C6DB" fill-rule="nonzero" x="0" y="0" width="51.76" height="51.49" rx="9.39"></rect>
                <path d="M10.98,5.2 L40.79,5.2 C44.0415176,5.2430721 46.6669279,7.86848244 46.71,11.12 L46.71,32.35 C46.7044949,35.6172427 44.0572427,38.2644949 40.79,38.27 L30.56,38.2 L19.85,48.56 L23.85,38.35 L10.98,38.35 C7.72848244,38.3069279 5.1030721,35.6815176 5.06,32.43 L5.06,11.12 C5.1030721,7.86848244 7.72848244,5.2430721 10.98,5.2 Z" id="路径" fill="#FFFFFF"></path>
                <polygon id="路径" fill="#00C6DB" points="11.55 26.88 30.57 26.88 25.58 39.81 44.33 21.75 26.73 21.75 32.56 6.64"></polygon>
                <path d="M9.39,0 L42.37,0 C47.5559538,0 51.76,4.2040462 51.76,9.39 L51.76,42.1 C51.76,47.2859538 47.5559538,51.49 42.37,51.49 L9.39,51.49 C4.2040462,51.49 0,47.2859538 0,42.1 L0,9.39 C0,4.2040462 4.2040462,0 9.39,0 Z" id="矩形" fill="#1D2129" fill-rule="nonzero"></path>
                <path d="M10.98,5.2 L40.79,5.2 C44.0415176,5.2430721 46.6669279,7.86848244 46.71,11.12 L46.71,32.35 C46.7044949,35.6172427 44.0572427,38.2644949 40.79,38.27 L30.56,38.2 L19.85,48.56 L23.85,38.35 L10.98,38.35 C7.72848244,38.3069279 5.1030721,35.6815176 5.06,32.43 L5.06,11.12 C5.1030721,7.86848244 7.72848244,5.2430721 10.98,5.2 Z" id="路径" fill="#FFFFFF"></path>
                <polygon id="路径" fill="#1D2129" points="11.55 26.88 30.57 26.88 25.58 39.81 44.33 21.75 26.73 21.75 32.56 6.64"></polygon>
            </g>
        </g>
    </g>
</svg>