<?xml version="1.0" encoding="UTF-8"?>
<svg width="40px" height="40px" viewBox="0 0 40 40" version="1.1" xmlns="http://www.w3.org/2000/svg" xmlns:xlink="http://www.w3.org/1999/xlink">
    <title>编组 2</title>
    <defs>
        <radialGradient cx="49.9912983%" cy="49.9579954%" fx="49.9912983%" fy="49.9579954%" r="76.499428%" gradientTransform="translate(0.499913,0.499580),scale(0.521059,1.000000),translate(-0.499913,-0.499580)" id="radialGradient-1">
            <stop stop-color="#3353AB" offset="0%"></stop>
            <stop stop-color="#3336AB" offset="99%"></stop>
        </radialGradient>
    </defs>
    <g id="供应商通讯" stroke="none" stroke-width="1" fill="none" fill-rule="evenodd">
        <g id="悬浮窗口-展开" transform="translate(-1384.000000, -684.000000)">
            <g id="编组-4" transform="translate(1384.000000, 636.000000)">
                <g id="编组-2" transform="translate(0.000000, 48.000000)">
                    <circle id="椭圆形" fill="#FFFFFF" cx="20" cy="20" r="20"></circle>
                    <g id="智能客服" transform="translate(6.000000, 6.000000)" fill-rule="nonzero">
                        <rect id="矩形" opacity="0" x="0" y="0" width="28" height="28"></rect>
                        <g id="资源-1" transform="translate(0.000000, 1.253718)">
                            <ellipse id="椭圆形" stroke="#E9EBEE" stroke-width="0.7" fill="#FFFFFF" cx="13.8161194" cy="12.7964317" rx="13.8161194" ry="12.7964179"></ellipse>
                            <path d="M13.8161194,4.63973801e-16 C12.467305,-0.000490676456 11.124676,0.182275573 9.82507463,0.543297337 L10.5522388,0.79822271 C10.7860102,0.902438789 10.9456541,1.12434371 10.9701493,1.37911823 C10.9701493,1.83464062 11.6304478,2.21493913 12.4495522,2.21493913 L15.1785075,2.21493913 C16.0143284,2.21493913 16.6537313,1.84299883 16.6537313,1.37911823 C16.679902,1.12497712 16.8390035,0.903826005 17.0716418,0.79822271 L17.9074627,0.572551068 C16.5771488,0.191398611 15.1999584,-0.00132363612 13.8161194,4.63973801e-16 L13.8161194,4.63973801e-16 Z" id="路径" fill="#3336AB"></path>
                            <path d="M13.8161194,8.35822271 C11.3356963,8.375931 8.86562387,8.03673586 6.48179104,7.35105853 C4.79773422,6.85723975 3.01849827,7.74959503 2.40716418,9.39464062 C2.02259482,10.4271925 1.82175248,11.5190959 1.81373134,12.6209093 C1.81373134,17.0465809 7.1880597,19.7253869 13.8161194,19.7253869 C20.4441791,19.7253869 25.8226866,17.0549391 25.8226866,12.6209093 C25.8131561,11.5188643 25.6109034,10.4269827 25.2250746,9.39464062 C24.6137406,7.74959503 22.8345046,6.85723975 21.1504478,7.35105853 C18.7667474,8.03736231 16.2965838,8.37656998 13.8161194,8.35822271 L13.8161194,8.35822271 Z" id="路径" fill="url(#radialGradient-1)"></path>
                            <path d="M8.14507463,15.6674764 L8.22865672,12.5456854 C8.24760544,12.2229162 8.50744515,11.9666854 8.83044776,11.9522526 L9.6119403,11.9146406 C9.76041573,11.9002888 9.90794426,11.9500947 10.0173385,12.051504 C10.1267327,12.1529132 10.1875563,12.2962512 10.1844776,12.4453869 L10.1008955,15.5629988 C10.0819468,15.885768 9.82210709,16.1419988 9.49910448,16.1564317 L8.72179104,16.1982227 C8.57263304,16.2138546 8.4239512,16.1646248 8.31359593,16.063066 C8.2032407,15.9615072 8.14185814,15.8174169 8.14507463,15.6674764 L8.14507463,15.6674764 Z" id="路径" fill="#00C7DB"></path>
                            <path d="M17.4519403,15.5379242 L17.4853731,12.4244914 C17.4892565,12.2745062 17.5554675,12.1329239 17.6680853,12.0337885 C17.7807032,11.9346531 17.9295395,11.8869332 18.078806,11.9021033 L18.8561194,11.9564317 C19.1772612,11.9779356 19.4290935,12.2406384 19.4370149,12.5624018 L19.4035821,15.6758347 C19.399801,15.8266283 19.3330175,15.9689409 19.2194488,16.0682142 C19.1058802,16.1674875 18.9559151,16.2146404 18.8059701,16.1982227 L18.0286567,16.1397152 C17.7098223,16.1182215 17.4598533,15.8573842 17.4519403,15.5379242 Z" id="路径" fill="#00C7DB"></path>
                        </g>
                    </g>
                </g>
            </g>
        </g>
    </g>
</svg>