<?xml version="1.0" encoding="UTF-8"?>
<svg width="40px" height="40px" viewBox="0 0 40 40" version="1.1" xmlns="http://www.w3.org/2000/svg" xmlns:xlink="http://www.w3.org/1999/xlink">
    <title>编组 3</title>
    <g id="供应商通讯" stroke="none" stroke-width="1" fill="none" fill-rule="evenodd">
        <g id="悬浮窗口-展开" transform="translate(-1384.000000, -636.000000)">
            <g id="编组-3" transform="translate(1384.000000, 636.000000)">
                <circle id="椭圆形备份-2" fill="#FFFFFF" cx="20" cy="20" r="20"></circle>
                <path d="M24.940741,16.9200001 C29.1696299,16.9200001 32.62963,19.7392594 32.62963,23.3274076 C32.62963,25.6340743 31.2200003,27.5562966 29.0414818,28.8377781 L29.0414818,28.8377781 L29.6822225,30.7600003 L27.2474077,29.4785188 C26.4785188,29.606667 25.7096299,29.7348151 24.940741,29.7348151 C20.711852,29.7348151 17.251852,26.9155558 17.251852,23.3274076 C17.251852,19.7392594 20.711852,16.9200001 24.940741,16.9200001 Z M16.2266668,10 C20.5837039,10 24.0437039,12.562963 25.0688891,15.8948149 L25.0688891,15.8948149 L24.6844447,15.8948149 C19.814815,15.8948149 15.9703705,19.0985186 15.9703705,23.0711113 C15.9703705,23.8400002 16.0985186,24.6088891 16.4829631,25.377778 L16.4829631,25.377778 L16.2266668,25.377778 C15.2014816,25.377778 14.3044445,25.2496299 13.4074075,24.9933336 L13.4074075,24.9933336 L10.46,26.4029632 L11.2288889,24.0962965 C8.66592595,22.814815 7,20.3800001 7,17.688889 C7,13.46 11.1007408,10 16.2266668,10 Z M22.2496298,19.7392594 C21.4807409,19.7392594 20.9681483,20.251852 20.9681483,21.0207409 C20.9681483,21.7896298 21.4807409,22.3022224 22.2496298,22.3022224 C22.8903706,22.3022224 23.5311113,21.6614816 23.5311113,21.0207409 C23.5311113,20.251852 23.0185187,19.7392594 22.2496298,19.7392594 Z M27.503704,19.7392594 C26.7348151,19.7392594 26.2222225,20.251852 26.2222225,21.0207409 C26.2222225,21.7896298 26.7348151,22.3022224 27.503704,22.3022224 C28.1444447,22.3022224 28.7851855,21.6614816 28.7851855,21.0207409 C28.7851855,20.251852 28.2725929,19.7392594 27.503704,19.7392594 Z M19.4303705,12.6911111 C18.5333335,12.6911111 17.7644446,13.3318519 17.7644446,14.2288889 C17.7644446,15.125926 18.5333335,15.8948149 19.4303705,16.022963 C20.3274076,16.022963 21.0962965,15.2540741 21.0962965,14.3570371 C21.0962965,13.46 20.3274076,12.6911111 19.4303705,12.6911111 Z M13.2792593,12.562963 C12.3822223,12.562963 11.6133334,13.3318519 11.6133334,14.2288889 C11.6133334,15.125926 12.2540741,15.8948149 13.1511112,15.8948149 C14.0481482,15.8948149 14.8170371,15.125926 14.8170371,14.2288889 C14.8170371,13.3318519 14.1762964,12.562963 13.2792593,12.562963 Z" id="形状结合" fill="#4CBF00" fill-rule="nonzero"></path>
            </g>
        </g>
    </g>
</svg>