<svg id="图层_1" data-name="图层 1" xmlns="http://www.w3.org/2000/svg" xmlns:xlink="http://www.w3.org/1999/xlink" viewBox="0 0 361.5 67"><defs><linearGradient id="未命名的渐变_48" y1="33.5" x2="361.5" y2="33.5" gradientUnits="userSpaceOnUse"><stop offset="0" stop-color="#2d4455"/><stop offset="1" stop-color="#4b5b64"/></linearGradient><linearGradient id="未命名的渐变_60" x1="956.37" y1="603.74" x2="956.37" y2="653.67" gradientUnits="userSpaceOnUse"><stop offset="0" stop-color="#fff"/><stop offset="1" stop-color="#8c8c8c"/></linearGradient><linearGradient id="未命名的渐变_29" x1="695.08" y1="616.12" x2="764.92" y2="616.12" gradientUnits="userSpaceOnUse"><stop offset="0" stop-color="#fff"/><stop offset="1" stop-color="#70767f"/></linearGradient><linearGradient id="未命名的渐变_29-2" x1="767" y1="666.37" x2="779.67" y2="666.37" xlink:href="#未命名的渐变_29"/><linearGradient id="未命名的渐变_29-3" x1="881.84" y1="649.12" x2="934.16" y2="649.12" xlink:href="#未命名的渐变_29"/><linearGradient id="未命名的渐变_29-4" x1="340.31" y1="60.76" x2="347.98" y2="60.76" xlink:href="#未命名的渐变_29"/><linearGradient id="未命名的渐变_29-5" x1="193.27" y1="46.09" x2="198.69" y2="46.09" xlink:href="#未命名的渐变_29"/><linearGradient id="未命名的渐变_29-6" x1="678.4" y1="644.44" x2="660.62" y2="675.23" xlink:href="#未命名的渐变_29"/></defs><title>bg_enterpriseCertification_contact</title><rect width="361.5" height="67" style="fill:url(#未命名的渐变_48)"/><path d="M1014.35,603.74h-116a62.17,62.17,0,0,0,116,16.7Z" transform="translate(-652.85 -603.74)" style="opacity:0.05;fill:url(#未命名的渐变_60)"/><path d="M695.08,603.74a37,37,0,0,0,69.84,0Z" transform="translate(-652.85 -603.74)" style="opacity:0.1;fill:url(#未命名的渐变_29)"/><path d="M773.33,662a6.34,6.34,0,0,0-6.33,6.33,6.21,6.21,0,0,0,.48,2.41h11.71a6.21,6.21,0,0,0,.48-2.41A6.34,6.34,0,0,0,773.33,662Z" transform="translate(-652.85 -603.74)" style="opacity:0.1;fill:url(#未命名的渐变_29-2)"/><path d="M908,627.5a26.16,26.16,0,0,0-19.81,43.24h39.62A26.16,26.16,0,0,0,908,627.5Z" transform="translate(-652.85 -603.74)" style="opacity:0.1;fill:url(#未命名的渐变_29-3)"/><circle cx="344.15" cy="60.76" r="3.83" style="opacity:0.1;fill:url(#未命名的渐变_29-4)"/><circle cx="195.98" cy="46.09" r="2.71" style="opacity:0.1;fill:url(#未命名的渐变_29-5)"/><path d="M656,637.24c-1.06,0-2.11.06-3.15.14v33.36h40A37,37,0,0,0,656,637.24Z" transform="translate(-652.85 -603.74)" style="opacity:0.1;fill:url(#未命名的渐变_29-6)"/></svg>