<?xml version="1.0" encoding="UTF-8"?>
<svg width="54px" height="54px" viewBox="0 0 54 54" version="1.1" xmlns="http://www.w3.org/2000/svg" xmlns:xlink="http://www.w3.org/1999/xlink">
    <title>Icon/File/file_excel</title>
    <g id="导入" stroke="none" stroke-width="1" fill="none" fill-rule="evenodd">
        <g id="3-文件上传中" transform="translate(-1173.000000, -151.000000)">
            <g id="编组-21" transform="translate(960.000000, 0.000000)">
                <g id="编组-7" transform="translate(20.000000, 77.000000)">
                    <g id="Upload/Pic" transform="translate(0.000000, 40.000000)">
                        <g id="编组-3" transform="translate(20.000000, 34.000000)">
                            <g id="文件类型-标准图-工作表" transform="translate(173.000000, 0.000000)">
                                <rect id="矩形" x="0" y="0" width="54" height="54"></rect>
                                <g id="编组-23" transform="translate(4.999831, 0.000000)" fill-rule="nonzero">
                                    <path d="M30.3751692,0 L43.8751692,13.5 L43.8751692,50.625 C43.8751692,52.4890125 42.3641817,54 40.5001692,54 L3.37516915,54 C1.51115665,54 0.000169152854,52.4890125 0.000169152854,50.625 L0.000169152854,3.375 C0.000169152854,1.5109875 1.51115665,0 3.37516915,0 L30.3751692,0 Z M18.2224692,18.9 L13.9753692,18.9 L21.0736692,29.1465 L13.5001692,40.1058 L17.7472692,40.1058 L23.2120692,31.9086 L28.6768692,40.1058 L32.9239692,40.1058 L25.2910692,29.1465 L32.4487692,18.9 L28.2016692,18.9 L23.2120692,26.3844 L18.2224692,18.9 Z" id="形状结合" fill="#47B881"></path>
                                    <path d="M30.5051692,0 L44.0051692,13.5 L33.8801692,13.5 C32.0161567,13.5 30.5051692,11.9890125 30.5051692,10.125 L30.5051692,0 Z" id="路径" fill="#B7DFB9"></path>
                                </g>
                            </g>
                        </g>
                    </g>
                </g>
            </g>
        </g>
    </g>
</svg>