<?xml version="1.0" encoding="UTF-8"?>
<svg width="20px" height="20px" viewBox="0 0 20 20" version="1.1" xmlns="http://www.w3.org/2000/svg" xmlns:xlink="http://www.w3.org/1999/xlink">
    <title>编组 7</title>
    <defs>
        <path d="M6.66,0 C10.3466667,0 13.3333333,2.98666667 13.3333333,6.66666667 C13.3333333,10.3466667 10.3466667,13.3333333 6.66,13.3333333 C2.98,13.3333333 0,10.3466667 0,6.66666667 C0,2.98666667 2.98,0 6.66,0 Z M6.66666667,1.33333333 C3.72,1.33333333 1.33333333,3.72 1.33333333,6.66666667 C1.33333333,9.61333333 3.72,12 6.66666667,12 C9.61333333,12 12,9.61333333 12,6.66666667 C12,3.72 9.61333333,1.33333333 6.66666667,1.33333333 Z M6.66666667,8 C8.22,8 9.54666667,8.96666667 10.08,10.3333333 L10.08,10.3333333 L8.96666667,10.3333333 C8.5,9.54 7.65333333,9 6.66666667,9 C5.68,9 4.82666667,9.54 4.36666667,10.3333333 L4.36666667,10.3333333 L3.25333333,10.3333333 C3.78666667,8.96666667 5.11333333,8 6.66666667,8 Z M9,4 C9.55228475,4 10,4.44771525 10,5 C10,5.55228475 9.55228475,6 9,6 C8.44771525,6 8,5.55228475 8,5 C8,4.44771525 8.44771525,4 9,4 Z M4.33333333,4 C4.88561808,4 5.33333333,4.44771525 5.33333333,5 C5.33333333,5.55228475 4.88561808,6 4.33333333,6 C3.78104858,6 3.33333333,5.55228475 3.33333333,5 C3.33333333,4.44771525 3.78104858,4 4.33333333,4 Z" id="path-1"></path>
    </defs>
    <g id="印章生成" stroke="none" stroke-width="1" fill="none" fill-rule="evenodd">
        <g id="生成失败-网速原因" transform="translate(-1185.000000, -130.000000)">
            <g id="Modal/Sidebar/Small" transform="translate(1060.000000, 0.000000)">
                <g id="编组-7" transform="translate(20.000000, 73.000000)">
                    <g id="编组-11" transform="translate(68.000000, 56.000000)">
                        <g id="编组-8" transform="translate(37.000000, 0.000000)">
                            <g id="编组-7" transform="translate(0.000000, 1.000000)">
                                <rect id="矩形" fill="#F56349" x="0" y="0" width="20" height="20" rx="10"></rect>
                                <g id="sentiment_very_dissatisfied_black_24dp" transform="translate(1.846154, 1.846154)">
                                    <polygon id="路径" points="0 0 16 0 16 16 0 16"></polygon>
                                    <g id="color" transform="translate(1.333333, 1.333333)">
                                        <mask id="mask-2" fill="white">
                                            <use xlink:href="#path-1"></use>
                                        </mask>
                                        <g id="蒙版" fill-rule="nonzero"></g>
                                        <g id="编组" mask="url(#mask-2)">
                                            <g transform="translate(-1.333333, -1.333333)" id="color">
                                                <rect id="矩形" fill="#FFFFFF" x="0" y="0" width="16" height="16"></rect>
                                            </g>
                                        </g>
                                    </g>
                                </g>
                            </g>
                        </g>
                    </g>
                </g>
            </g>
        </g>
    </g>
</svg>