<?xml version="1.0" encoding="UTF-8"?>
<svg width="221px" height="240px" viewBox="0 0 221 240" version="1.1" xmlns="http://www.w3.org/2000/svg" xmlns:xlink="http://www.w3.org/1999/xlink">
    <!-- Generator: Sketch 53 (72520) - https://sketchapp.com -->
    <title>Group 29</title>
    <desc>Created with Sketch.</desc>
    <defs>
        <polygon id="path-1" points="0.4489 0 108.5509 0 108.5509 152.380129 0.4489 152.380129"></polygon>
        <polygon id="path-3" points="0 240 220.376 240 220.376 0 0 0"></polygon>
    </defs>
    <g id="Page-1" stroke="none" stroke-width="1" fill="none" fill-rule="evenodd">
        <g id="A4" transform="translate(-187.000000, -294.000000)">
            <g id="Group-29" transform="translate(187.000000, 294.000000)">
                <path d="M135.5572,60.2385 L156.7322,48.0355 C158.6652,46.9215 161.0802,48.3165 161.0802,50.5485 L161.0802,101.8245 C161.0802,104.0585 158.6612,105.4535 156.7282,104.3355 L108.6352,76.5315 C108.2702,76.3205 107.8202,76.3205 107.4532,76.5305 L80.5322,92.0595 L184.2842,151.9885 C186.2172,153.1045 188.6342,151.7085 188.6342,149.4765 L188.6342,2.9055 C188.6342,0.6725 186.2172,-0.7235 184.2842,0.3935 L137.0062,27.7035 C136.1102,28.2215 135.5572,29.1795 135.5572,30.2155 L135.5572,60.2385 Z" id="Fill-1" fill="#26CCDD"></path>
                <g id="Group-5" transform="translate(27.000000, 0.000000)">
                    <mask id="mask-2" fill="white">
                        <use xlink:href="#path-1"></use>
                    </mask>
                    <g id="Clip-4"></g>
                    <path d="M53.5269,92.1428 L32.3519,104.3458 C30.4189,105.4598 28.0039,104.0638 28.0039,101.8328 L28.0039,50.5568 C28.0039,48.3228 30.4219,46.9278 32.3559,48.0448 L80.4489,75.8498 C80.8139,76.0598 81.2639,76.0608 81.6299,75.8498 L108.5509,60.3208 L4.7999,0.3928 C2.8669,-0.7242 0.4489,0.6718 0.4489,2.9048 L0.4489,149.4758 C0.4489,151.7088 2.8669,153.1038 4.7999,151.9868 L52.0769,124.6778 C52.9739,124.1588 53.5269,123.2018 53.5269,122.1658 L53.5269,92.1428 Z" id="Fill-3" fill="#FEA700" mask="url(#mask-2)"></path>
                </g>
                <polygon id="Fill-6" fill="#414447" points="102.6695 190.1199 62.8025 190.1199 61.0445 195.5249 104.4275 195.5249"></polygon>
                <polygon id="Fill-8" fill="#414447" points="91.4497 218.9958 97.6007 233.1098 69.5147 233.1098 75.5437 213.9198 108.5247 213.9198 106.6967 208.5138 59.5627 208.5138 57.7617 213.9198 69.5077 213.9198 61.1257 239.0868 105.7107 239.0868 97.8817 218.9958"></polygon>
                <polygon id="Fill-10" fill="#414447" points="128.6177 204.4734 128.6177 195.0314 138.3877 194.1924 136.3467 189.2064 113.6097 191.2214 114.9407 196.2064 123.3857 195.4814 123.3857 204.4734 115.0467 204.4734 113.2087 209.2454 123.3857 209.2454 123.3857 239.9994 128.6177 239.9994 128.6177 209.2454 138.4767 209.2454 136.7197 204.4734"></polygon>
                <polygon id="Fill-12" fill="#414447" points="114.2701 237.7644 119.1251 237.7644 121.3851 211.5934 116.6751 211.5934"></polygon>
                <polygon id="Fill-14" fill="#414447" points="130.5591 211.6062 132.9361 237.7692 137.7911 237.7522 135.2691 211.5892"></polygon>
                <path d="M150.8882,216.1707 L150.8882,210.3937 C150.8882,210.3937 144.7322,207.3447 139.3452,207.5557 L139.3452,212.2807 C139.3452,212.2807 147.8102,212.8067 150.8882,216.1707" id="Fill-16" fill="#414447"></path>
                <path d="M150.8882,204.0417 L150.8882,198.2647 C150.8882,198.2647 144.7322,195.2157 139.3452,195.4257 L139.3452,200.1507 C139.3452,200.1507 147.8102,200.6777 150.8882,204.0417" id="Fill-18" fill="#414447"></path>
                <polygon id="Fill-20" fill="#414447" points="159.1265 219.9441 159.1265 189.6271 153.5335 189.6271 153.5335 220.4861 138.1485 223.0581 138.6955 227.9241 153.5335 225.3951 153.5335 239.8221 159.1265 239.8221 159.1265 224.8491 165.0115 223.7331 165.5795 218.7761"></polygon>
                <path d="M38.9278,229.1199 L43.3198,229.1199 C43.3198,229.1199 41.8558,222.8189 41.8558,213.0169 C39.6598,213.0169 38.1588,213.0399 37.8418,213.0399 C37.7918,214.2929 37.6118,220.9329 38.9278,229.1199" id="Fill-22" fill="#414447"></path>
                <mask id="mask-4" fill="white">
                    <use xlink:href="#path-3"></use>
                </mask>
                <g id="Clip-25"></g>
                <path d="M12.045,214.657 L16.307,214.657 L16.307,203.231 L12.045,203.231 L12.045,214.657 Z M12.045,199.399 L16.307,199.399 L16.307,194.685 L12.045,194.685 L12.045,199.399 Z M19.819,214.657 L23.26,214.657 L23.26,203.231 L19.819,203.231 L19.819,214.657 Z M5.162,214.657 L8.534,214.657 L8.534,203.231 L5.162,203.231 L5.162,214.657 Z M0,194.685 L8.534,194.685 L8.534,199.399 L0.86,199.399 L0.86,218.211 L8.564,218.211 L8.564,218.215 L11.607,218.211 L11.607,222.927 L3.174,222.927 L1.368,227.864 L11.607,227.864 L11.607,234.415 L1.843,234.415 L0.102,239.352 L27.574,239.352 L27.574,234.346 L17.103,234.415 L17.103,227.864 L26.095,227.864 L26.095,222.927 L17.103,222.927 L17.103,218.215 L19.819,218.215 L19.819,218.211 L24.121,218.211 C26.021,218.211 27.562,216.737 27.562,214.92 L27.562,214.865 L27.562,202.745 L27.562,199.399 L19.819,199.399 L19.819,194.685 L27.574,194.685 L27.574,189.597 L0.912,189.597 L0,194.685 Z" id="Fill-24" fill="#414447" mask="url(#mask-4)"></path>
                <path d="M50.0782,201.363 L46.7912,201.363 L45.3652,201.363 L35.8062,201.363 L36.0452,194.685 L51.7932,194.685 L50.0722,189.597 L29.5472,189.597 L29.5472,194.685 L31.0552,194.685 L29.5472,239.352 L34.0722,239.352 L41.0112,239.352 L39.0902,234.386 L34.6232,234.386 L35.6232,206.451 L45.3182,206.451 C45.2772,214.927 45.3712,231.78 46.6312,239.609 L51.7932,239.609 C51.7932,239.609 50.0722,232.203 50.0722,220.682 C50.0722,220.532 50.0782,201.363 50.0782,201.363" id="Fill-26" fill="#414447" mask="url(#mask-4)"></path>
                <polygon id="Fill-27" fill="#414447" mask="url(#mask-4)" points="186.1001 219.6648 186.4661 214.6118 181.5911 215.8888 181.6031 204.6238 186.1611 204.6238 186.4661 199.8518 181.6081 199.8518 181.6171 189.2998 176.4731 189.2998 176.4711 199.8518 170.5681 199.8518 169.8411 204.6238 176.4691 204.6238 176.4661 216.5898 169.9991 217.9498 169.8771 222.9358 176.4651 221.4768 176.4641 234.8398 170.4501 235.4438 172.4231 239.9068 181.5791 239.7708 181.5791 229.2358 181.5861 220.7678"></polygon>
                <path d="M207.2701,227.2634 C210.7921,223.1274 214.3391,218.1594 216.9231,212.6474 C218.8961,208.7014 216.4301,207.7144 215.4441,207.7144 L206.0071,207.7144 L206.0071,200.3364 L217.9101,200.3364 L217.9101,195.5644 L206.0071,195.5644 L206.0071,189.2994 L200.4291,189.2994 L200.4291,195.5644 L188.8131,195.5644 L188.8131,200.3364 L200.4291,200.3364 L200.4291,207.7144 L188.8131,207.7144 L188.8131,212.6474 L211.0051,212.6474 C211.0051,212.6474 208.3321,217.3194 203.6211,223.1884 C201.3741,220.5954 198.0531,217.7354 195.7171,214.6194 L188.8131,214.6194 C188.8131,214.6194 194.6031,220.7474 200.1781,227.2444 C196.2641,231.6084 191.4201,236.1794 185.8541,239.7714 L194.2381,239.7714 C194.2381,239.7714 198.5331,236.5834 203.6711,231.2394 C206.6491,234.5734 209.6121,237.6894 211.9921,239.7714 L220.3751,239.7714 C220.3751,239.7714 214.6951,235.2724 207.2701,227.2634" id="Fill-28" fill="#414447" mask="url(#mask-4)"></path>
            </g>
        </g>
    </g>
</svg>
