<?xml version="1.0" encoding="UTF-8"?>
<svg width="80px" height="80px" viewBox="0 0 80 80" version="1.1" xmlns="http://www.w3.org/2000/svg" xmlns:xlink="http://www.w3.org/1999/xlink">
    <title>编组 20</title>
    <g id="1101" stroke="none" stroke-width="1" fill="none" fill-rule="evenodd">
        <g id="编组-20">
            <rect id="矩形备份-13" x="0" y="0" width="80" height="80"></rect>
            <g id="编组-15" transform="translate(5.000000, 11.250000)" fill-rule="nonzero">
                <path d="M43.75,0 C45.1307119,0 46.25,1.11928813 46.25,2.5 L46.25,20 L56.25,20 C57.6307119,20 58.75,21.1192881 58.75,22.5 L58.75,47.5 C58.75,47.7159255 58.7226257,47.9254574 58.6711581,48.1253146 L70,48.125 L70,50.625 L34.9777774,50.6250984 C35.8842622,49.5568831 36.6622364,48.5154058 37.3111613,47.49994 L43.75,47.5 L43.75,2.5 L21.25,2.5 L21.250152,27.4811392 C20.3668813,27.8427887 19.5296722,28.2974098 18.7499469,28.8331836 L18.75,12.5 L11.25,12.5 L11.25,47.5 L15.1890673,47.5006808 C15.8378608,48.5159598 16.6156116,49.557181 17.521748,50.6250438 L0,50.625 L0,48.125 L8.82884192,48.1253146 C8.77737434,47.9254574 8.75,47.7159255 8.75,47.5 L8.75,12.5 C8.75,11.1192881 9.86928813,10 11.25,10 L18.75,10 L18.75,2.5 C18.75,1.11928813 19.8692881,0 21.25,0 L43.75,0 Z M56.25,22.5 L46.25,22.5 L46.25,47.5 L56.25,47.5 L56.25,22.5 Z M53.125,31.5625 C53.9400035,31.5625 54.6092674,32.1864859 54.6811146,32.9827807 L54.6875,33.125 L54.6875,34.375 C54.6875,35.1900035 54.0635141,35.8592674 53.2672193,35.9311146 L53.125,35.9375 L49.375,35.9375 C48.5599965,35.9375 47.8907326,35.3135141 47.8188854,34.5172193 L47.8125,34.375 L47.8125,33.125 C47.8125,32.3099965 48.4364859,31.6407326 49.2327807,31.5688854 L49.375,31.5625 L53.125,31.5625 Z M52.8125,33.4375 L49.6875,33.4375 L49.6875,34.0625 L52.8125,34.0625 L52.8125,33.4375 Z M53.125,25.3125 C53.9400035,25.3125 54.6092674,25.9364859 54.6811146,26.7327807 L54.6875,26.875 L54.6875,28.125 C54.6875,28.9400035 54.0635141,29.6092674 53.2672193,29.6811146 L53.125,29.6875 L49.375,29.6875 C48.5599965,29.6875 47.8907326,29.0635141 47.8188854,28.2672193 L47.8125,28.125 L47.8125,26.875 C47.8125,26.0599965 48.4364859,25.3907326 49.2327807,25.3188854 L49.375,25.3125 L53.125,25.3125 Z M52.8125,27.1875 L49.6875,27.1875 L49.6875,27.8125 L52.8125,27.8125 L52.8125,27.1875 Z M39.375,17.8125 C40.1900035,17.8125 40.8592674,18.4364859 40.9311146,19.2327807 L40.9375,19.375 L40.9375,20.625 C40.9375,21.4400035 40.3135141,22.1092674 39.5172193,22.1811146 L39.375,22.1875 L35.625,22.1875 C34.8099965,22.1875 34.1407326,21.5635141 34.0688854,20.7672193 L34.0625,20.625 L34.0625,19.375 C34.0625,18.5599965 34.6864859,17.8907326 35.4827807,17.8188854 L35.625,17.8125 L39.375,17.8125 Z M39.0625,19.6875 L35.9375,19.6875 L35.9375,20.3125 L39.0625,20.3125 L39.0625,19.6875 Z M39.375,11.5625 C40.1900035,11.5625 40.8592674,12.1864859 40.9311146,12.9827807 L40.9375,13.125 L40.9375,14.375 C40.9375,15.1900035 40.3135141,15.8592674 39.5172193,15.9311146 L39.375,15.9375 L35.625,15.9375 C34.8099965,15.9375 34.1407326,15.3135141 34.0688854,14.5172193 L34.0625,14.375 L34.0625,13.125 C34.0625,12.3099965 34.6864859,11.6407326 35.4827807,11.5688854 L35.625,11.5625 L39.375,11.5625 Z M39.0625,13.4375 L35.9375,13.4375 L35.9375,14.0625 L39.0625,14.0625 L39.0625,13.4375 Z M39.375,5.3125 C40.1900035,5.3125 40.8592674,5.93648586 40.9311146,6.73278065 L40.9375,6.875 L40.9375,8.125 C40.9375,8.94000354 40.3135141,9.60926737 39.5172193,9.68111457 L39.375,9.6875 L35.625,9.6875 C34.8099965,9.6875 34.1407326,9.06351414 34.0688854,8.26721935 L34.0625,8.125 L34.0625,6.875 C34.0625,6.05999646 34.6864859,5.39073263 35.4827807,5.31888543 L35.625,5.3125 L39.375,5.3125 Z M39.0625,7.1875 L35.9375,7.1875 L35.9375,7.8125 L39.0625,7.8125 L39.0625,7.1875 Z" id="形状结合" fill="#323C64"></path>
                <path d="M26.25,27.5 C33.1535594,27.5 38.75,33.2563389 38.75,40.3571429 C38.75,44.9016574 34.91,50.3497237 27.23,56.7013417 L26.25,57.5 L25.27,56.7013417 C17.59,50.3497237 13.75,44.9016574 13.75,40.3571429 C13.75,33.2563389 19.3464406,27.5 26.25,27.5 Z M26.25,30 C20.7431592,30 16.25,34.6215352 16.25,40.3571429 C16.25,43.7307591 19.2893729,48.2448532 25.5458719,53.6605089 L26.25,54.26 L26.5124061,54.0398051 C28.4501739,52.3890228 30.0932117,50.8202207 31.446439,49.3400111 L32.0504451,48.663152 C34.7732754,45.5340573 36.1551701,42.8206666 36.2452833,40.5890473 L36.25,40.3571429 C36.25,34.6215352 31.7568408,30 26.25,30 Z" id="形状结合" fill="#323C64"></path>
                <path d="M26.25,35 C29.0114237,35 31.25,37.2385763 31.25,40 C31.25,42.7614237 29.0114237,45 26.25,45 C23.4885763,45 21.25,42.7614237 21.25,40 C21.25,37.2385763 23.4885763,35 26.25,35 Z M26.25,37.5 C24.8692881,37.5 23.75,38.6192881 23.75,40 C23.75,41.3807119 24.8692881,42.5 26.25,42.5 C27.6307119,42.5 28.75,41.3807119 28.75,40 C28.75,38.6192881 27.6307119,37.5 26.25,37.5 Z" id="椭圆形" fill="#36C2CF"></path>
            </g>
        </g>
    </g>
</svg>
