<?xml version="1.0" encoding="UTF-8"?>
<svg width="80px" height="80px" viewBox="0 0 80 80" version="1.1" xmlns="http://www.w3.org/2000/svg" xmlns:xlink="http://www.w3.org/1999/xlink">
    <title>编组 18</title>
    <g id="1101" stroke="none" stroke-width="1" fill="none" fill-rule="evenodd">
        <g id="编组-18">
            <rect id="矩形" x="0" y="0" width="80" height="80"></rect>
            <g id="编组-27" transform="translate(11.261634, 11.562503)">
                <path d="M28.738366,13.4374972 C23.9058744,13.4374972 19.988366,17.3550057 19.988366,22.1874972 C19.988366,27.0199888 23.9058744,30.9374972 28.738366,30.9374972 C33.5708575,30.9374972 37.488366,27.0199888 37.488366,22.1874972 C37.488366,17.3550057 33.5708575,13.4374972 28.738366,13.4374972 Z M28.738366,15.9374972 C32.1901456,15.9374972 34.988366,18.7357176 34.988366,22.1874972 C34.988366,25.6392769 32.1901456,28.4374972 28.738366,28.4374972 C25.2865863,28.4374972 22.488366,25.6392769 22.488366,22.1874972 C22.488366,18.7357176 25.2865863,15.9374972 28.738366,15.9374972 Z" id="椭圆形" fill="#36C2CF" fill-rule="nonzero"></path>
                <path d="M18.8561771,35.3882552 C19.4972219,35.3882552 20.025561,35.8708054 20.0977674,36.4924788 L20.1061771,36.6382552 L20.1061771,45.7924787 C20.1061771,46.4828347 19.546533,47.0424787 18.8561771,47.0424787 C18.2151323,47.0424787 17.6867931,46.5599285 17.6145867,45.9382552 L17.6061771,45.7924787 L17.6061771,36.6382552 C17.6061771,35.9478992 18.1658211,35.3882552 18.8561771,35.3882552 Z" id="路径-2" fill="#323C64" fill-rule="nonzero"></path>
                <path d="M28.8561771,35.3882552 C29.4972219,35.3882552 30.025561,35.8708054 30.0977674,36.4924788 L30.1061771,36.6382552 L30.1061771,45.7924787 C30.1061771,46.4828347 29.546533,47.0424787 28.8561771,47.0424787 C28.2151323,47.0424787 27.6867931,46.5599285 27.6145867,45.9382552 L27.6061771,45.7924787 L27.6061771,36.6382552 C27.6061771,35.9478992 28.1658211,35.3882552 28.8561771,35.3882552 Z" id="路径-2备份" fill="#323C64" fill-rule="nonzero"></path>
                <path d="M46.1877587,30.9374972 C53.0527095,30.9374972 58.6371514,36.5219391 58.6371514,43.3868899 C58.6371514,50.2518408 53.0527095,55.8362827 46.1877587,55.8362827 C39.3228078,55.8362827 33.738366,50.2518408 33.738366,43.3868899 C33.738366,36.5219391 39.3228078,30.9374972 46.1877587,30.9374972 Z M30.1970295,0.391808197 L30.3570086,0.50283817 L56.5039201,20.1903354 C57.1312134,20.6626602 57.5001434,21.4022663 57.5001434,22.1874972 C57.5001434,23.5129806 56.4686074,24.5975359 55.164519,24.6821796 L55.0001434,24.6874972 L49.988366,24.6874972 L49.9885983,30.4840375 C49.1838421,30.2466569 48.3479008,30.0826711 47.4885544,29.9998604 L47.488366,24.6874972 C47.488366,23.3620138 48.5199019,22.2774586 49.8239903,22.1928149 L49.988366,22.1874972 L55.0001508,22.1874972 L28.8532318,2.50000001 L2.50015076,22.1874972 L7.48836596,22.1874972 C8.81384936,22.1874972 9.89840463,23.2190332 9.98304828,24.5231215 L9.98836596,24.6874972 L9.98836596,45.9374972 C9.98836596,47.2629806 8.95683002,48.3475359 7.65274164,48.4321796 L7.48836596,48.4374972 L4.98836596,48.4374972 L4.98836596,52.1874972 L36.024715,52.1877475 C36.8594762,53.1504668 37.8284612,53.9937869 38.9022866,54.6883244 L4.98836596,54.6874972 C3.66288256,54.6874972 2.57832728,53.6559613 2.49368364,52.3518729 L2.48836596,52.1874972 L2.48836596,48.4374972 C2.48836596,47.1120138 3.51990189,46.0274586 4.82399027,45.9428149 L4.98836596,45.9374972 L7.48836596,45.9374972 L7.48836596,24.6874972 L2.50015076,24.6874972 C1.71160312,24.6874972 0.969275535,24.3154607 0.497333922,23.6837341 C-0.293086664,22.6257013 -0.119942501,21.1463831 0.864637699,20.2965642 L1.00391391,20.1846804 L27.3569949,0.497183174 C28.1947811,-0.12869862 29.3267312,-0.163474377 30.1970295,0.391808197 Z M50.8375305,34.3110287 L50.8961242,34.418508 C51.1279071,34.8801106 51.2472875,35.3840666 51.2472875,35.9217588 C51.2472875,37.0276682 50.7770847,37.9424957 49.86357,38.4866183 C49.5967084,38.6455468 49.3125782,38.7610595 48.9943498,38.8456181 L48.7049041,38.912404 L48.5674633,38.9379018 L48.2653404,38.982335 L47.4382676,39.0820264 C47.4045002,39.0871325 47.3737722,39.0921651 47.3453602,39.0972446 L47.1968916,39.129245 L47.132648,39.1474705 L47.132648,39.1474705 L47.0692764,39.1681418 L47.012116,39.1899972 L47.0782236,39.4937262 L47.206147,40.0303549 L47.2784902,40.3685385 L47.3278381,40.6603982 C47.3346674,40.7080614 47.3409293,40.7559545 47.346819,40.8051578 C47.4123266,41.3528034 47.3862605,41.8501349 47.2506322,42.3320719 C46.8942791,43.5986244 45.8711695,44.4622212 44.3558155,44.9011027 C43.2075923,45.2336594 42.1348059,45.2562548 41.134095,44.9589321 C40.5251304,44.7779593 40.0252261,44.5212794 39.4421562,44.1015299 L39.1866169,43.9113987 L38.8565117,43.6533992 L38.8862234,44.1312978 C38.9121676,44.5261275 38.9156577,44.7385982 38.8969945,45.0119225 C38.8586942,45.5737041 38.7154701,46.0741684 38.4421242,46.5330944 C38.0997495,47.1079831 37.626534,47.5612145 37.0409136,47.8953298 C38.6396145,51.1255544 41.9008656,53.3941329 45.6980618,53.5746654 C45.5839703,52.9350312 45.5587519,52.3392211 45.6262398,51.7806152 C45.7590098,50.6816091 46.2547345,49.7495864 47.0750257,49.08469 L47.311414,48.9068322 C47.3312633,48.893008 47.3511572,48.8712092 47.3734435,48.8301885 L47.4219015,48.7191853 C47.4395812,48.6714194 47.4590198,48.6117779 47.4809129,48.5369282 L47.5546512,48.263422 L47.7018018,47.6633952 L47.8170982,47.2436909 C47.9114493,46.9300122 48.0064607,46.6928038 48.1395076,46.429187 C48.5218849,45.6714439 49.0964417,45.1011647 49.8584926,44.7535698 C51.0094538,44.2285676 52.2671212,44.2273016 53.5723319,44.6826109 C54.2971131,44.9354195 54.8890452,45.249832 55.7589806,45.8207271 C55.8414934,45.8748797 55.9407862,45.9149868 56.0629187,45.9386491 C56.2748094,45.1228926 56.3871514,44.2677185 56.3871514,43.3868899 C56.3871514,39.43817 54.1294224,36.0050275 50.8375305,34.3110287 Z M50.7922479,46.8006655 C50.5075986,46.9305028 50.3056088,47.1309888 50.1482088,47.4429027 L50.1056301,47.530996 L50.0294443,47.7167271 C50.0172852,47.7502008 50.0052424,47.7854198 49.9930869,47.8231131 L49.9169675,48.0847965 L49.7377613,48.8079105 C49.514005,49.6918124 49.2510257,50.230505 48.7566134,50.6334592 L48.584266,50.7623377 C48.1705686,51.0556211 47.9293091,51.4767511 47.8599974,52.05048 C47.8129663,52.4397625 47.8453805,52.8981236 47.962698,53.4289291 C51.1442505,52.8698954 53.8212886,50.829722 55.2569679,48.0495659 C54.9962428,47.9670719 54.752175,47.8512543 54.5244745,47.7018157 C53.7956074,47.2234967 53.3565816,46.9903024 52.8312711,46.8070705 C52.0434271,46.5322393 51.3792524,46.5329079 50.7922479,46.8006655 Z M46.1877587,33.1874972 C40.5654485,33.1874972 35.988366,37.7645798 35.988366,43.3868899 C35.988366,44.1817806 36.079856,44.9557784 36.252855,45.6989023 C36.3558719,45.6029748 36.4402274,45.4972548 36.5090102,45.3817603 C36.5912226,45.2437321 36.6368333,45.0843561 36.6522135,44.8587626 L36.6586771,44.6741932 L36.6510023,44.4419128 L36.6082092,43.7279578 C36.5912823,43.2166181 36.6453718,42.8253881 36.8218155,42.4591094 C37.0210272,42.0456647 37.3457286,41.740577 37.7985148,41.5019634 L38.0141653,41.3974795 C38.6777949,41.1021744 39.1916213,41.1652434 39.8008144,41.5588904 L40.0094618,41.703471 L40.5610677,42.1300138 C41.0511005,42.5055875 41.3702614,42.681862 41.774979,42.8021364 C42.3427372,42.9708239 42.978903,42.9574248 43.7298827,42.7399206 C44.5566222,42.5004777 44.9622133,42.1581223 45.0847467,41.7226133 C45.1343844,41.546232 45.1450601,41.3425455 45.1127562,41.0724841 L45.0846925,40.8794549 L45.0405748,40.6558204 L44.9711439,40.3552419 L44.8755897,39.9551377 L44.7973205,39.5858243 C44.756468,39.3675067 44.7373039,39.1966367 44.7340353,39.0232061 L44.7350206,38.8736851 C44.7521937,38.3676159 44.9324313,37.9451583 45.3136029,37.6205285 C45.6179334,37.3612163 45.9553558,37.1718309 46.3377931,37.0403654 C46.4725828,36.9940248 46.5956278,36.9577903 46.729443,36.9268989 L47.0181047,36.8708288 L47.3755133,36.8205389 L48.0826277,36.736739 L48.295582,36.6995963 C48.481574,36.6609594 48.6101226,36.6143175 48.7122268,36.5535097 C48.9113989,36.4348755 48.9972875,36.2677706 48.9972875,35.9217588 C48.9972875,35.6563196 48.9215705,35.4389952 48.7552359,35.2233622 C48.6804582,35.1264389 48.6075123,35.0467322 48.4938998,34.9458298 L48.2876688,34.7737781 L48.0135315,34.5597628 C47.6119566,34.2467135 47.3891707,34.0386903 47.2161292,33.767516 L47.1230961,33.6066878 C47.058516,33.481867 47.0094114,33.3528457 46.9750394,33.2191371 C46.7164238,33.1977038 46.4532566,33.1874972 46.1877587,33.1874972 Z" id="形状结合" fill="#323C64" fill-rule="nonzero"></path>
                <g id="编组-23" transform="translate(33.738366, 30.937497)"></g>
            </g>
        </g>
    </g>
</svg>
