<?xml version="1.0" encoding="UTF-8"?>
<svg width="80px" height="80px" viewBox="0 0 80 80" version="1.1" xmlns="http://www.w3.org/2000/svg" xmlns:xlink="http://www.w3.org/1999/xlink">
    <title>编组 18 2</title>
    <g id="1101" stroke="none" stroke-width="1" fill="none" fill-rule="evenodd">
        <g id="编组-18">
            <rect id="矩形" x="0" y="0" width="80" height="80"></rect>
            <g id="编组-26" transform="translate(11.111111, 20.000000)" fill-rule="nonzero">
                <path d="M53.3333333,0 C54.5606328,0 55.5555556,0.994922778 55.5555556,2.22222222 L55.555,23.333 L53.333,23.333 L53.3333333,2.22222222 L2.22222222,2.22222222 L2.22222222,42.2222222 L26.666,42.222 L26.666,44.444 L2.22222222,44.4444444 C0.994922778,44.4444444 0,43.4495217 0,42.2222222 L0,2.22222222 C0,0.994922778 0.994922778,0 2.22222222,0 L53.3333333,0 Z" id="形状结合" fill="#323C64"></path>
                <path d="M16.6666667,10 C19.7349153,10 22.2222222,12.4873069 22.2222222,15.5555556 C22.2222222,18.6238042 19.7349153,21.1111111 16.6666667,21.1111111 C13.5984181,21.1111111 11.1111111,18.6238042 11.1111111,15.5555556 C11.1111111,12.4873069 13.5984181,10 16.6666667,10 Z M16.6666667,12.2222222 C14.8257175,12.2222222 13.3333333,13.7146064 13.3333333,15.5555556 C13.3333333,17.3965047 14.8257175,18.8888889 16.6666667,18.8888889 C18.5076158,18.8888889 20,17.3965047 20,15.5555556 C20,13.7146064 18.5076158,12.2222222 16.6666667,12.2222222 Z" id="椭圆形" fill="#323C64"></path>
                <path d="M16.6666667,24.4444444 C22.1895142,24.4444444 26.6666667,28.9215969 26.6666667,34.4444444 L26.6666667,38.8888889 L6.66666667,38.8888889 L6.66666667,34.4444444 C6.66666667,28.9215969 11.1438192,24.4444444 16.6666667,24.4444444 Z M16.6666667,26.6666667 C12.4606092,26.6666667 9.0343348,30.0053149 8.89339891,34.1770558 L8.88888889,34.4444444 L8.88888889,36.6666667 L24.4444444,36.6666667 L24.4444444,34.4444444 C24.4444444,30.238387 21.1057962,26.8121126 16.9340553,26.6711767 L16.6666667,26.6666667 Z" id="矩形" fill="#323C64"></path>
                <polygon id="路径-5" fill="#323C64" points="50.0316845 8.88888889 50.0316845 11.1111111 29.9126611 11.1111111 29.9126611 8.88888889"></polygon>
                <polygon id="路径-7" fill="#323C64" points="50.0316845 14.4444444 50.0316845 16.6666667 29.9126611 16.6666667 29.9126611 14.4444444"></polygon>
                <polygon id="路径-8" fill="#36C2CF" points="46.0398479 31.9921036 47.6111963 33.563452 40.5555556 40.6190927 35.8531655 35.9167026 37.4245139 34.3453542 40.5555556 37.4755556"></polygon>
                <g id="认证" transform="translate(30.012451, 23.305324)" fill="#323C64">
                    <path d="M11.5983955,0 L10.2875103,0.882609449 L9.9898927,1.06587806 C9.94920077,1.09008162 9.90592333,1.11554531 9.860016,1.14224914 L9.55265806,1.31719387 C8.88597384,1.6891931 8.12814825,2.06213886 7.29518679,2.41049114 C7.03969625,2.51733968 6.78043456,2.62039072 6.51768882,2.71920084 C5.54936579,3.08287753 4.51339311,3.32709901 3.48426276,3.47155893 L3.28204092,3.4986245 L2.90388641,3.5423997 L2.57695968,3.57289027 L2.32067139,3.59072414 L2.15443218,3.59652922 L0,3.62949635 L0,14.5103892 C0,19.6521253 6.8771402,25.7298943 11.6040425,25.7298943 C16.3328341,25.7298943 23.2105016,19.6520687 23.2098765,14.5102542 L23.2045649,3.62956543 L20.996403,3.59518513 L20.6345448,3.57292423 L20.3049504,3.54241854 L19.9258801,3.49862916 C19.8595887,3.49018817 19.7919933,3.48116684 19.7234725,3.47155176 C18.6942329,3.32712521 17.6581933,3.08290434 16.6893491,2.71903178 C15.6605323,2.33212718 14.7141533,1.89278222 13.8743958,1.43808829 L13.5581931,1.26315325 L13.1643272,1.03451164 L12.86855,0.849596104 L11.5983955,0 Z M11.6033333,2.67613768 C11.7340481,2.7681777 11.8864286,2.86704714 12.0651482,2.975524 L12.4565969,3.20434684 C13.3052952,3.68384923 14.5354872,4.28320269 15.9075784,4.79920148 C17.0436704,5.22588804 18.2346167,5.50662435 19.4146679,5.67221332 L19.8793685,5.73134898 L20.3030036,5.77479307 L20.6662231,5.80315493 C20.7206501,5.80665891 20.7717534,5.80955984 20.8191301,5.81187044 L20.9822222,5.81724879 L20.9876545,14.5109317 C20.9881222,18.3594964 15.1624466,23.5076721 11.6040425,23.5076721 L11.4041743,23.5024165 C7.83375162,23.3174444 2.22222222,18.2882169 2.22222222,14.5103892 L2.22222222,5.81724879 L2.37083214,5.81311429 L2.6476652,5.79615121 L2.98699914,5.76729975 L3.58037663,5.70078819 C3.65037006,5.69180413 3.72140519,5.68227978 3.79316952,5.67220616 C4.97307352,5.50658201 6.16391345,5.22585194 7.29945949,4.79937054 C7.58819406,4.69078698 7.87250013,4.57778133 8.15258182,4.46064854 C9.066225,4.07855441 9.89858545,3.6689281 10.635464,3.25776152 L10.988184,3.0568011 L11.2763107,2.88503867 L11.5030022,2.7428907 L11.6033333,2.67613768 Z" id="路径"></path>
                </g>
            </g>
        </g>
    </g>
</svg>
