<?xml version="1.0" encoding="UTF-8"?>
<svg width="270px" height="120px" viewBox="0 0 270 120" version="1.1" xmlns="http://www.w3.org/2000/svg" xmlns:xlink="http://www.w3.org/1999/xlink">
    <title>ill_none</title>
    <g id="页面-1" stroke="none" stroke-width="1" fill="none" fill-rule="evenodd">
        <g id="业务规则定义-空态" transform="translate(-725, -356)">
            <g id="编组-17" transform="translate(280, 94)">
                <g id="ill_none" transform="translate(445, 262)">
                    <rect id="矩形" x="0" y="0" width="270" height="120"></rect>
                    <path d="M54,0 L216,0 C217.656854,0 219,1.34314575 219,3 L219,117 C219,118.656854 217.656854,120 216,120 L54,120 C52.3431458,120 51,118.656854 51,117 L51,3 C51,1.34314575 52.3431458,0 54,0 Z" id="矩形" fill="#F0F2F7"></path>
                    <g id="编组-6" transform="translate(57, 18)">
                        <rect id="矩形" fill="#FFFFFF" x="0" y="0" width="52.5" height="96" rx="1.5"></rect>
                        <rect id="矩形" fill="#FFFFFF" x="58.5" y="0" width="97.5" height="96" rx="1.5"></rect>
                        <g id="编组" transform="translate(64.5, 7.5)" fill-rule="nonzero">
                            <path d="M1.5,0 L84,0 C84.8284271,-1.52179594e-16 85.5,0.671572875 85.5,1.5 L85.5,36 C85.5,36.8284271 84.8284271,37.5 84,37.5 L1.5,37.5 C0.671572875,37.5 1.01453063e-16,36.8284271 0,36 L0,1.5 C-1.01453063e-16,0.671572875 0.671572875,1.52179594e-16 1.5,0 Z" id="矩形" stroke="#E5E7EC" stroke-width="0.375" fill="#F7F8FA" stroke-dasharray="1.5"></path>
                            <path d="M7.5,7.5 L26.25,7.5 C27.0784271,7.5 27.75,8.17157288 27.75,9 L27.75,15 C27.75,15.8284271 27.0784271,16.5 26.25,16.5 L7.5,16.5 C6.67157288,16.5 6,15.8284271 6,15 L6,9 C6,8.17157288 6.67157288,7.5 7.5,7.5 Z" id="矩形" fill="#CFD8E5"></path>
                            <path d="M7.5,22.5 L78,22.5 C78.8284271,22.5 79.5,23.1715729 79.5,24 L79.5,30 C79.5,30.8284271 78.8284271,31.5 78,31.5 L7.5,31.5 C6.67157288,31.5 6,30.8284271 6,30 L6,24 C6,23.1715729 6.67157288,22.5 7.5,22.5 Z" id="矩形" fill="#CFD8E5" opacity="0.5"></path>
                        </g>
                        <g id="编组" transform="translate(64.5, 51)" fill-rule="nonzero">
                            <path d="M1.5,0 L84,0 C84.8284271,-1.52179594e-16 85.5,0.671572875 85.5,1.5 L85.5,36 C85.5,36.8284271 84.8284271,37.5 84,37.5 L1.5,37.5 C0.671572875,37.5 1.01453063e-16,36.8284271 0,36 L0,1.5 C-1.01453063e-16,0.671572875 0.671572875,1.52179594e-16 1.5,0 Z" id="矩形" stroke="#E5E7EC" stroke-width="0.375" fill="#F7F8FA" stroke-dasharray="1.5"></path>
                            <path d="M7.5,7.5 L26.25,7.5 C27.0784271,7.5 27.75,8.17157288 27.75,9 L27.75,15 C27.75,15.8284271 27.0784271,16.5 26.25,16.5 L7.5,16.5 C6.67157288,16.5 6,15.8284271 6,15 L6,9 C6,8.17157288 6.67157288,7.5 7.5,7.5 Z" id="矩形" fill="#CFD8E5"></path>
                            <path d="M7.5,22.5 L78,22.5 C78.8284271,22.5 79.5,23.1715729 79.5,24 L79.5,30 C79.5,30.8284271 78.8284271,31.5 78,31.5 L7.5,31.5 C6.67157288,31.5 6,30.8284271 6,30 L6,24 C6,23.1715729 6.67157288,22.5 7.5,22.5 Z" id="矩形" fill="#CFD8E5" opacity="0.5"></path>
                        </g>
                        <g id="编组" transform="translate(6, 6)" fill-rule="nonzero">
                            <path d="M1.5,0 L20.25,0 C21.0784271,-1.52179594e-16 21.75,0.671572875 21.75,1.5 L21.75,7.5 C21.75,8.32842712 21.0784271,9 20.25,9 L1.5,9 C0.671572875,9 1.01453063e-16,8.32842712 0,7.5 L0,1.5 C-1.01453063e-16,0.671572875 0.671572875,-6.98650109e-17 1.5,-2.22044605e-16 Z" id="矩形" fill="#CFD8E5"></path>
                            <path d="M1.5,15 L39,15 C39.8284271,15 40.5,15.6715729 40.5,16.5 L40.5,22.5 C40.5,23.3284271 39.8284271,24 39,24 L1.5,24 C0.671572875,24 4.6934861e-16,23.3284271 0,22.5 L0,16.5 C-1.01453063e-16,15.6715729 0.671572875,15 1.5,15 Z" id="矩形" fill="#E7EBF2" opacity="0.5"></path>
                            <path d="M1.5,30 L39,30 C39.8284271,30 40.5,30.6715729 40.5,31.5 L40.5,37.5 C40.5,38.3284271 39.8284271,39 39,39 L1.5,39 C0.671572875,39 4.6934861e-16,38.3284271 0,37.5 L0,31.5 C-1.01453063e-16,30.6715729 0.671572875,30 1.5,30 Z" id="矩形" fill="#E7EBF2" opacity="0.5"></path>
                            <path d="M1.5,45 L39,45 C39.8284271,45 40.5,45.6715729 40.5,46.5 L40.5,52.5 C40.5,53.3284271 39.8284271,54 39,54 L1.5,54 C0.671572875,54 4.6934861e-16,53.3284271 0,52.5 L0,46.5 C-1.01453063e-16,45.6715729 0.671572875,45 1.5,45 Z" id="矩形" fill="#E7EBF2" opacity="0.5"></path>
                            <path d="M1.5,60 L39,60 C39.8284271,60 40.5,60.6715729 40.5,61.5 L40.5,67.5 C40.5,68.3284271 39.8284271,69 39,69 L1.5,69 C0.671572875,69 4.6934861e-16,68.3284271 0,67.5 L0,61.5 C-1.01453063e-16,60.6715729 0.671572875,60 1.5,60 Z" id="矩形" fill="#E7EBF2" opacity="0.5"></path>
                            <path d="M1.5,75 L39,75 C39.8284271,75 40.5,75.6715729 40.5,76.5 L40.5,82.5 C40.5,83.3284271 39.8284271,84 39,84 L1.5,84 C0.671572875,84 4.6934861e-16,83.3284271 0,82.5 L0,76.5 C-1.01453063e-16,75.6715729 0.671572875,75 1.5,75 Z" id="矩形" fill="#E7EBF2" opacity="0.5"></path>
                        </g>
                    </g>
                    <g id="button" transform="translate(112.5, 66) scale(-1, 1) translate(-112.5, -66)translate(101.25, 54.75)">
                        <circle id="Oval" stroke="#F0F2F7" stroke-width="3" fill="currentColor" fill-rule="nonzero" cx="11.25" cy="11.25" r="11.25"></circle>
                        <g id="Icon/arrow_back" transform="translate(2.8125, 2.8125)">
                            <polygon id="icon" fill="#FFFFFF" points="14.0625 7.74703124 14.0625 9.12796876 5.5096875 9.12796876 9.4246875 13.0753125 8.4375 14.0625 2.81250001 8.4375 8.4375 2.81250001 9.4246875 3.79968751 5.5096875 7.74703124"></polygon>
                            <rect id="arrow_back" x="0" y="0" width="16.875" height="16.875"></rect>
                        </g>
                    </g>
                    <g id="编组-5" transform="translate(51, 0)">
                        <path d="M3,0 L165,0 C166.656854,0 168,1.34314575 168,3 L168,12 L0,12 L0,3 C0,1.34314575 1.34314575,0 3,0 Z" id="矩形" fill="#D8E0EB" fill-rule="nonzero"></path>
                        <circle id="椭圆形" fill="#FFFFFF" cx="9" cy="6" r="3"></circle>
                        <circle id="椭圆形备份" fill="#FFFFFF" cx="21" cy="6" r="3"></circle>
                        <circle id="椭圆形备份-2" fill="#FFFFFF" cx="33" cy="6" r="3"></circle>
                    </g>
                </g>
            </g>
        </g>
    </g>
</svg>