<?xml version="1.0" encoding="UTF-8"?>
<svg width="370px" height="226px" viewBox="0 0 370 226" version="1.1" xmlns="http://www.w3.org/2000/svg" xmlns:xlink="http://www.w3.org/1999/xlink">
    <title>nodata</title>
    <defs>
        <filter x="-2.0%" y="-2.8%" width="104.0%" height="105.5%" filterUnits="objectBoundingBox" id="filter-1">
            <feOffset dx="0" dy="1" in="SourceAlpha" result="shadowOffsetOuter1"></feOffset>
            <feGaussianBlur stdDeviation="0.5" in="shadowOffsetOuter1" result="shadowBlurOuter1"></feGaussianBlur>
            <feColorMatrix values="0 0 0 0 0   0 0 0 0 0   0 0 0 0 0  0 0 0 0.1 0" type="matrix" in="shadowBlurOuter1" result="shadowMatrixOuter1"></feColorMatrix>
            <feMerge>
                <feMergeNode in="shadowMatrixOuter1"></feMergeNode>
                <feMergeNode in="SourceGraphic"></feMergeNode>
            </feMerge>
        </filter>
        <rect id="path-2" x="0" y="49.6381735" width="87.5" height="29.1989256" rx="0.9"></rect>
        <mask id="mask-3" maskContentUnits="userSpaceOnUse" maskUnits="objectBoundingBox" x="0" y="0" width="87.5" height="29.1989256" fill="white">
            <use xlink:href="#path-2"></use>
        </mask>
        <rect id="path-4" x="0" y="0" width="10.2083333" height="11.9228946"></rect>
        <rect id="path-6" x="0" y="0" width="5.40909091" height="6.31758572"></rect>
        <rect id="path-8" x="0" y="0" width="106.378788" height="56.8582714" rx="0.972"></rect>
        <filter x="-95.9%" y="-158.3%" width="291.8%" height="458.8%" filterUnits="objectBoundingBox" id="filter-9">
            <feMorphology radius="8" operator="dilate" in="SourceAlpha" result="shadowSpreadOuter1"></feMorphology>
            <feOffset dx="0" dy="12" in="shadowSpreadOuter1" result="shadowOffsetOuter1"></feOffset>
            <feGaussianBlur stdDeviation="24" in="shadowOffsetOuter1" result="shadowBlurOuter1"></feGaussianBlur>
            <feColorMatrix values="0 0 0 0 0.11372549   0 0 0 0 0.129411765   0 0 0 0 0.160784314  0 0 0 0.03 0" type="matrix" in="shadowBlurOuter1" result="shadowMatrixOuter1"></feColorMatrix>
            <feOffset dx="0" dy="9" in="SourceAlpha" result="shadowOffsetOuter2"></feOffset>
            <feGaussianBlur stdDeviation="14" in="shadowOffsetOuter2" result="shadowBlurOuter2"></feGaussianBlur>
            <feColorMatrix values="0 0 0 0 0.11372549   0 0 0 0 0.129411765   0 0 0 0 0.160784314  0 0 0 0.05 0" type="matrix" in="shadowBlurOuter2" result="shadowMatrixOuter2"></feColorMatrix>
            <feMorphology radius="4" operator="erode" in="SourceAlpha" result="shadowSpreadOuter3"></feMorphology>
            <feOffset dx="0" dy="6" in="shadowSpreadOuter3" result="shadowOffsetOuter3"></feOffset>
            <feGaussianBlur stdDeviation="8" in="shadowOffsetOuter3" result="shadowBlurOuter3"></feGaussianBlur>
            <feColorMatrix values="0 0 0 0 0.11372549   0 0 0 0 0.129411765   0 0 0 0 0.160784314  0 0 0 0.08 0" type="matrix" in="shadowBlurOuter3" result="shadowMatrixOuter3"></feColorMatrix>
            <feMerge>
                <feMergeNode in="shadowMatrixOuter1"></feMergeNode>
                <feMergeNode in="shadowMatrixOuter2"></feMergeNode>
                <feMergeNode in="shadowMatrixOuter3"></feMergeNode>
            </feMerge>
        </filter>
        <path d="M9,0 C10.1045695,-2.02906125e-16 11,0.8954305 11,2 L11,9 C11,10.1045695 10.1045695,11 9,11 L2,11 C0.8954305,11 1.3527075e-16,10.1045695 0,9 L0,2 C-1.3527075e-16,0.8954305 0.8954305,2.02906125e-16 2,0 L9,0 Z M8.50650272,2.75 L4.640625,6.58425434 L2.79502215,4.83790191 L2.0625,5.60171398 L4.640625,8.17983898 L9.28125,3.53921398 L8.50650272,2.75 Z" id="path-10"></path>
    </defs>
    <g id="报表v1.1" stroke="none" stroke-width="1" fill="none" fill-rule="evenodd">
        <g id="报表-添加视图" transform="translate(-438.000000, -230.000000)">
            <g id="nodata" transform="translate(438.000000, 274.000000)">
                <rect id="矩形" x="0" y="0" width="330" height="182"></rect>
                <g id="illustrate" filter="url(#filter-1)" transform="translate(68.000000, 31.465318)">
                    <g id="path-1-link" fill="#FFFFFF">
                        <rect id="path-1" x="0" y="0" width="198.333333" height="144.534682" rx="2.7"></rect>
                    </g>
                    <g id="title" fill-rule="nonzero">
                        <path d="M4.375,0 L193.958333,0 C196.374579,0 198.333333,1.96092064 198.333333,4.37983884 L198.333333,13.1395165 L198.333333,13.1395165 L0,13.1395165 L0,4.37983884 C0,1.96092064 1.95875422,0 4.375,0 Z" id="Rectangle-Copy-10" fill="#606C80" opacity="0.200000003"></path>
                        <ellipse id="Oval" fill="#FFFFFF" opacity="0.746814546" cx="8.02083333" cy="6.56975826" rx="2.1875" ry="2.18991942"></ellipse>
                        <ellipse id="Oval" fill="#FFFFFF" opacity="0.746814546" cx="16.7708333" cy="6.56975826" rx="2.1875" ry="2.18991942"></ellipse>
                        <ellipse id="Oval" fill="#FFFFFF" opacity="0.746814546" cx="25.5208333" cy="6.56975826" rx="2.1875" ry="2.18991942"></ellipse>
                    </g>
                    <g id="title" fill-rule="nonzero">
                        <path d="M4.375,0 L193.958333,0 C196.374579,0 198.333333,1.96092064 198.333333,4.37983884 L198.333333,13.1395165 L198.333333,13.1395165 L0,13.1395165 L0,4.37983884 C0,1.96092064 1.95875422,0 4.375,0 Z" id="Rectangle-Copy-10" fill="#D4D9DE"></path>
                        <ellipse id="Oval" fill="#FFFFFF" opacity="0.746814546" cx="8.02083333" cy="6.56975826" rx="2.1875" ry="2.18991942"></ellipse>
                        <ellipse id="Oval" fill="#FFFFFF" opacity="0.746814546" cx="16.7708333" cy="6.56975826" rx="2.1875" ry="2.18991942"></ellipse>
                        <ellipse id="Oval" fill="#FFFFFF" opacity="0.746814546" cx="25.5208333" cy="6.56975826" rx="2.1875" ry="2.18991942"></ellipse>
                    </g>
                    <g id="issue" transform="translate(8.750000, 21.899194)" fill="#F2F3F5" fill-rule="nonzero">
                        <rect id="Rectangle" x="0" y="0" width="180.833333" height="113.87581" rx="1.8"></rect>
                    </g>
                    <g id="编组-6" transform="translate(18.951852, 32.118818)">
                        <rect id="Rectangle" fill="#FFFFFF" fill-rule="nonzero" x="0.00648148148" y="0" width="87.5" height="10.219624" rx="0.9"></rect>
                        <g id="编组-3" transform="translate(0.000000, 16.059409)" stroke-dasharray="1.8">
                            <g id="path-3-Clipped">
                                <use id="path-3备份-4" stroke="#00B8CC" mask="url(#mask-3)" stroke-width="2.16" fill-opacity="0.45" fill="#FFFFFF" fill-rule="nonzero" xlink:href="#path-2"></use>
                                <path d="M0.906481481,0 L36.375,0 C36.8720563,-9.13077564e-17 37.275,0.402943725 37.275,0.9 L37.275,44.3583347 C37.275,44.8553909 36.8720563,45.2583347 36.375,45.2583347 L0.906481481,45.2583347 C0.409425207,45.2583347 0.00648148148,44.8553909 0.00648148148,44.3583347 L0.00648148148,0.9 C0.00648148148,0.402943725 0.409425207,-1.35198218e-15 0.906481481,0 Z" id="path-3" fill="#FEFEFE" fill-rule="nonzero"></path>
                                <rect id="矩形" fill="#CFD8E5" fill-rule="nonzero" opacity="0.499279204" x="2.92314815" y="2.91989256" width="13.125" height="2.91989256"></rect>
                                <g id="Content-/-CI-/-Status-/-Running" transform="translate(8.756481, 13.139517)">
                                    <path d="M10.2083333,0 C15.8462401,0 20.4166667,4.5754815 20.4166667,10.219624 C20.4166667,15.8637664 15.8462401,20.4392479 10.2083333,20.4392479 C4.57042652,20.4392479 0,15.8637664 0,10.219624 C0,4.5754815 4.57042652,0 10.2083333,0 Z M10.2083333,3.40654132 C6.44972878,3.40654132 3.40277778,6.45686231 3.40277778,10.219624 C3.40277778,13.9823856 6.44972878,17.0327066 10.2083333,17.0327066 C13.9669379,17.0327066 17.0138889,13.9823856 17.0138889,10.219624 C17.0138889,6.45686231 13.9669379,3.40654132 10.2083333,3.40654132 Z" id="Oval" fill="#BED8FF" fill-rule="nonzero"></path>
                                    <g id="Oval-Clipped" transform="translate(10.208333, 0.000000)">
                                        <mask id="mask-5" fill="white">
                                            <use xlink:href="#path-4"></use>
                                        </mask>
                                        <g id="path-7"></g>
                                        <path d="M-6.03961325e-14,0 C5.63790681,0 10.2083333,4.5754815 10.2083333,10.219624 C10.2083333,15.8637664 5.63790681,20.4392479 -6.03961325e-14,20.4392479 C-5.63790681,20.4392479 -10.2083333,15.8637664 -10.2083333,10.219624 C-10.2083333,4.5754815 -5.63790681,0 -6.03961325e-14,0 Z M2.64677169e-13,3.40654132 C-3.75860455,3.40654132 -6.80555556,6.45686231 -6.80555556,10.219624 C-6.80555556,13.9823856 -3.75860455,17.0327066 2.64677169e-13,17.0327066 C3.75860455,17.0327066 6.80555556,13.9823856 6.80555556,10.219624 C6.80555556,6.45686231 3.75860455,3.40654132 2.64677169e-13,3.40654132 Z" id="Oval" fill="#2C81FF" fill-rule="nonzero" mask="url(#mask-5)"></path>
                                    </g>
                                </g>
                                <g id="编组-5" transform="translate(42.291667, 0.000000)" fill-rule="nonzero">
                                    <path d="M0.9,0 L19.5166667,0 C20.0137229,-9.13077564e-17 20.4166667,0.402943725 20.4166667,0.9 L20.4166667,13.6994628 C20.4166667,14.1965191 20.0137229,14.5994628 19.5166667,14.5994628 L0.9,14.5994628 C0.402943725,14.5994628 3.93938745e-16,14.1965191 0,13.6994628 L0,0.9 C-6.08718376e-17,0.402943725 0.402943725,-3.52781453e-16 0.9,0 Z" id="path-3备份" fill="#FFFFFF"></path>
                                    <rect id="矩形" fill="#CFD8E5" opacity="0.499279204" x="2.92314815" y="2.91989256" width="7.29166667" height="2.91989256"></rect>
                                    <rect id="矩形备份" fill="#CFD8E5" opacity="0.499279204" x="2.92314815" y="8.75967767" width="14.5833333" height="2.91989256"></rect>
                                </g>
                                <g id="编组-22" transform="translate(42.351178, 21.315216)" fill-rule="nonzero">
                                    <rect id="path-3备份-4" fill="#C1F79E" x="0" y="-3.56263067e-15" width="44.1742424" height="23.4653184" rx="0.9"></rect>
                                    <g id="Image" transform="translate(14.424242, 7.220098)">
                                        <path d="M8.11363636,2.70753674 C8.11363636,4.20286797 9.32450263,5.41507347 10.8181818,5.41507347 C12.311861,5.41507347 13.5227273,4.20286797 13.5227273,2.70753674 C13.5227273,1.21220549 12.311861,0 10.8181818,0 C9.32450263,0 8.11363636,1.21220549 8.11363636,2.70753674 L8.11363636,2.70753674 Z" id="Sun" fill="#FFFFFF" opacity="0.800000012"></path>
                                        <g id="Mountain" opacity="0.699999988" transform="translate(0.000000, 5.415073)">
                                            <polygon id="路径" fill="#4DC600" points="11.9 10.8301469 11.9 9.28298312 6.20869565 3.61004898 0 10.8301469"></polygon>
                                            <polygon id="路径" fill="#37A600" points="10.4125 7.94210776 9.66875 10.8301469 11.15625 9.09732343"></polygon>
                                            <polygon id="路径" fill="#6BD420" points="9.66875 10.8301469 29.75 10.8301469 19.6867901 0"></polygon>
                                        </g>
                                    </g>
                                    <rect id="矩形" fill="#F2FDEB" x="2.92314815" y="2.91989256" width="13.125" height="2.91989256"></rect>
                                </g>
                                <path d="M68.625,0 L87.2416667,0 C87.7387229,-9.13077564e-17 88.1416667,0.402943725 88.1416667,0.9 L88.1416667,13.6994628 C88.1416667,14.1965191 87.7387229,14.5994628 87.2416667,14.5994628 L68.625,14.5994628 C68.1279437,14.5994628 67.725,14.1965191 67.725,13.6994628 L67.725,0.9 C67.725,0.402943725 68.1279437,-4.63803756e-16 68.625,0 Z" id="path-3备份-2" fill="#FFFFFF" fill-rule="nonzero"></path>
                                <rect id="矩形" fill="#CFD8E5" fill-rule="nonzero" opacity="0.499279204" x="70.0064815" y="2.91989256" width="7.29166667" height="2.91989256"></rect>
                                <rect id="矩形备份" fill="#CFD8E5" fill-rule="nonzero" opacity="0.499279204" x="70.0064815" y="8.75967767" width="14.5833333" height="2.91989256"></rect>
                            </g>
                        </g>
                    </g>
                    <g id="编组" transform="translate(116.666667, 32.118818)">
                        <g id="issue" transform="translate(0.000000, 0.000000)">
                            <rect id="path-3" stroke="#DFE5F0" stroke-width="0.9" fill="#FFFFFF" fill-rule="nonzero" x="0.45" y="0.45" width="63.2666667" height="92.5365619" rx="0.9"></rect>
                            <g id="编组-5" transform="translate(8.643939, 25.641966)" fill-rule="nonzero">
                                <path d="M0.9,0 L46.880303,0 C47.3773593,-3.13352361e-16 47.780303,0.402943725 47.780303,0.9 L47.780303,12.6376837 C47.780303,13.13474 47.3773593,13.5376837 46.880303,13.5376837 L0.9,13.5376837 C0.402943725,13.5376837 -1.38241809e-15,13.13474 0,12.6376837 L0,0.9 C-2.82916443e-16,0.402943725 0.402943725,-5.74826058e-16 0.9,0 Z" id="path-3备份" fill-opacity="0.5" fill="#E0E6EE"></path>
                                <rect id="矩形" fill="#DFE5ED" x="2.70454545" y="2.70753674" width="7.21212121" height="2.70753674"></rect>
                                <rect id="矩形备份" fill="#CFD8E5" x="2.70454545" y="8.12261021" width="13.5227273" height="2.70753674"></rect>
                            </g>
                            <g id="编组-5备份" transform="translate(8.643939, 40.984674)">
                                <path d="M0.9,0 L46.880303,0 C47.3773593,-9.13077564e-17 47.780303,0.402943725 47.780303,0.9 L47.780303,18.0527571 C47.780303,18.5498134 47.3773593,18.9527571 46.880303,18.9527571 L0.9,18.9527571 C0.402943725,18.9527571 -1.38241809e-15,18.5498134 0,18.0527571 L0,0.9 C-2.82916443e-16,0.402943725 0.402943725,3.13352361e-16 0.9,0 Z" id="path-3备份" fill-opacity="0.5" fill="#E0E6EE" fill-rule="nonzero"></path>
                                <rect id="矩形" fill="#DFE5ED" fill-rule="nonzero" x="2.70454545" y="2.70753674" width="7.21212121" height="2.70753674"></rect>
                                <g id="Content-/-CI-/-Status-/-Running" transform="translate(18.931818, 4.512561)">
                                    <path d="M5.40909091,0 C8.39644932,0 10.8181818,2.42441098 10.8181818,5.41507347 C10.8181818,8.40573596 8.39644932,10.8301469 5.40909091,10.8301469 C2.42173249,10.8301469 0,8.40573596 0,5.41507347 C0,2.42441098 2.42173249,0 5.40909091,0 Z M5.40909091,1.80502449 C3.41751863,1.80502449 1.8030303,3.42129847 1.8030303,5.41507347 C1.8030303,7.40884847 3.41751863,9.02512245 5.40909091,9.02512245 C7.40066319,9.02512245 9.01515152,7.40884847 9.01515152,5.41507347 C9.01515152,3.42129847 7.40066319,1.80502449 5.40909091,1.80502449 Z" id="Oval" fill="#DFE5ED" fill-rule="nonzero"></path>
                                    <g id="Oval-Clipped" transform="translate(5.409091, 0.000000)">
                                        <mask id="mask-7" fill="white">
                                            <use xlink:href="#path-6"></use>
                                        </mask>
                                        <g id="path-7"></g>
                                        <path d="M8.8817842e-16,0 C2.98735841,0 5.40909091,2.42441098 5.40909091,5.41507347 C5.40909091,8.40573596 2.98735841,10.8301469 8.8817842e-16,10.8301469 C-2.98735841,10.8301469 -5.40909091,8.40573596 -5.40909091,5.41507347 C-5.40909091,2.42441098 -2.98735841,0 8.8817842e-16,0 Z M4.11226608e-13,1.80502449 C-1.99157228,1.80502449 -3.60606061,3.42129847 -3.60606061,5.41507347 C-3.60606061,7.40884847 -1.99157228,9.02512245 4.11226608e-13,9.02512245 C1.99157228,9.02512245 3.60606061,7.40884847 3.60606061,5.41507347 C3.60606061,3.42129847 1.99157228,1.80502449 4.11226608e-13,1.80502449 Z" id="Oval" fill="#C0CCDD" fill-rule="nonzero" mask="url(#mask-7)"></path>
                                    </g>
                                </g>
                            </g>
                            <g id="编组-10" transform="translate(8.643939, 61.742455)" fill-rule="nonzero">
                                <path d="M0.9,0 L46.880303,0 C47.3773593,-2.02330059e-16 47.780303,0.402943725 47.780303,0.9 L47.780303,22.5653184 C47.780303,23.0623747 47.3773593,23.4653184 46.880303,23.4653184 L0.9,23.4653184 C0.402943725,23.4653184 -1.38241809e-15,23.0623747 0,22.5653184 L0,0.9 C-1.7189414e-16,0.402943725 0.402943725,3.13352361e-16 0.9,0 Z" id="path-3备份-3" fill-opacity="0.5" fill="#E0E6EE"></path>
                                <rect id="矩形" fill="#CFD8E5" opacity="0.499279204" x="40.5681818" y="9.02512245" width="2.70454545" height="1.80502449"></rect>
                                <rect id="矩形备份-9" fill="#CFD8E5" opacity="0.499279204" x="40.5681818" y="11.7326592" width="2.70454545" height="1.80502449"></rect>
                                <rect id="矩形备份-8" fill="#CFD8E5" opacity="0.499279204" x="36.9621212" y="9.02512245" width="1.8030303" height="1.80502449" rx="0.9"></rect>
                                <rect id="矩形备份-10" fill="#CFD8E5" opacity="0.499279204" x="36.9621212" y="11.7326592" width="1.8030303" height="1.80502449" rx="0.9"></rect>
                                <rect id="矩形" fill="#CFD8E5" x="4.50757576" y="9.9276347" width="2.70454545" height="10.8301469"></rect>
                                <rect id="矩形备份-3" fill="#DFE5ED" x="9.91666667" y="12.6351714" width="2.70454545" height="8.12261021"></rect>
                                <rect id="矩形备份-4" fill="#CFD8E5" x="15.3257576" y="9.9276347" width="2.70454545" height="10.8301469"></rect>
                                <rect id="矩形备份-5" fill="#DFE5ED" x="20.7348485" y="13.5376837" width="2.70454545" height="7.22009796"></rect>
                                <rect id="矩形备份-7" fill="#DFE5ED" x="26.1439394" y="16.2452204" width="2.70454545" height="4.51256123"></rect>
                                <rect id="矩形" fill="#DFE5ED" x="2.70454545" y="2.70753674" width="12.6212121" height="2.70753674"></rect>
                            </g>
                            <path d="M9.65,8.75967767 L55.975,8.75967767 C56.4720563,8.75967767 56.875,9.1626214 56.875,9.65967767 L56.875,18.6367352 C56.875,19.1337915 56.4720563,19.5367352 55.975,19.5367352 L9.65,19.5367352 C9.15294373,19.5367352 8.75,19.1337915 8.75,18.6367352 L8.75,9.65967767 C8.75,9.1626214 9.15294373,8.75967767 9.65,8.75967767 Z" id="矩形" fill-opacity="0.5" fill="#E0E6EE" fill-rule="nonzero"></path>
                            <g id="Icon/search" transform="translate(12.395833, 10.949597)" fill="#868D9C">
                                <path d="M4.51015298,3.97332434 L4.22511132,3.97332434 L4.12408389,3.87579729 C4.48990134,3.45102068 4.69095683,2.90872425 4.69055911,2.34787347 C4.6905591,1.05117876 3.64054168,0 2.34527955,0 C1.05001742,0 0,1.05117876 0,2.34787348 C0,3.64456819 1.05001742,4.69574696 2.34527955,4.69574696 C2.92618725,4.69574696 3.46018937,4.48263229 3.87151532,4.12864521 L3.96893462,4.22978438 L3.96893462,4.5151413 L5.77299583,6.31758572 L6.31060606,5.77938087 L4.51015298,3.97332434 Z M2.34527955,3.97332434 C1.44685707,3.97332434 0.721624468,3.24728962 0.721624468,2.34787347 C0.721624468,1.44845732 1.44685707,0.722422599 2.34527955,0.722422599 C3.24370202,0.722422599 3.96893462,1.44845732 3.96893462,2.34787347 C3.96893462,3.24728962 3.24370202,3.97332434 2.34527955,3.97332434 Z" id="icon"></path>
                            </g>
                        </g>
                    </g>
                    <path d="M7.87697948,123.225698 C8.59788627,123.032318 9.33906217,123.459963 9.53244221,124.18087 C9.53250672,124.18111 9.53257116,124.181351 9.53263554,124.181591 L10.4665107,127.670716 C10.6596302,128.392245 10.2315112,129.133769 9.51008908,129.327287 C8.78918229,129.520667 8.04800639,129.093022 7.85462635,128.372115 C7.85456184,128.371875 7.8544974,128.371634 7.85443302,128.371394 L6.92055784,124.882269 C6.72743834,124.16074 7.15555741,123.419216 7.87697948,123.225698 Z M19.0370689,125.847964 C19.565272,126.376752 19.565272,127.233466 19.0370689,127.762253 L16.4875042,130.314638 C15.9600554,130.84267 15.104419,130.843143 14.5763868,130.315694 C14.5760346,130.315342 14.5756825,130.31499 14.5753306,130.314638 C14.0471275,129.78585 14.0471275,128.929136 14.5753306,128.400349 L17.1248954,125.847964 C17.6523441,125.319932 18.5079805,125.319459 19.0360127,125.846908 C19.0363649,125.84726 19.036717,125.847612 19.0370689,125.847964 Z M19.8536237,137.020397 C19.6604573,137.742101 18.9188083,138.170566 18.1971041,137.977399 C18.1968634,137.977335 18.1966227,137.97727 18.1963819,137.977206 L14.7161135,137.043639 C13.9940004,136.849936 13.5654713,136.107701 13.7587758,135.385481 C13.9519422,134.663777 14.6935912,134.235313 15.4152954,134.428479 C15.4155361,134.428544 15.4157768,134.428608 15.4160176,134.428673 L18.8962861,135.362239 C19.6183991,135.555943 20.0469282,136.298177 19.8536237,137.020397 Z" id="形状结合" fill="#00B8CC" transform="translate(13.387258, 130.601620) scale(-1, 1) rotate(67.000000) translate(-13.387258, -130.601620) "></path>
                </g>
                <g id="编组-21" transform="translate(199.621212, 8.000000)">
                    <g id="path-3备份-4">
                        <use fill="black" fill-opacity="1" filter="url(#filter-9)" xlink:href="#path-8"></use>
                        <use fill="#FFFFFF" fill-rule="evenodd" xlink:href="#path-8"></use>
                    </g>
                    <g id="Icon/checkbox/unselected" transform="translate(88.378788, 8.000000)">
                        <mask id="mask-11" fill="white">
                            <use xlink:href="#path-10"></use>
                        </mask>
                        <use id="蒙版" fill="#00B8CC" xlink:href="#path-10"></use>
                    </g>
                    <g id="编组-10" transform="translate(9.759522, 9.803150)" fill-rule="nonzero">
                        <rect id="矩形" fill="#CFD8E5" opacity="0.499279204" x="79.0521268" y="27.7047254" width="10" height="2.94094507"></rect>
                        <rect id="矩形备份-9" fill="#CFD8E5" opacity="0.499279204" x="79.0521268" y="32.6063005" width="10" height="2.94094507"></rect>
                        <rect id="矩形备份-8" fill="#00B8CC" opacity="0.499279204" x="72.2204615" y="27.7047254" width="2.92785655" height="2.94094507" rx="1.46392827"></rect>
                        <rect id="矩形备份-10" fill="#00B8CC" opacity="0.131592524" x="72.2204615" y="32.6063005" width="2.92785655" height="2.94094507" rx="1.46392827"></rect>
                        <rect id="矩形" fill="#00B8CC" x="0" y="14.7047254" width="5.85571309" height="22.5472456"></rect>
                        <rect id="矩形备份-3" fill="#00B8CC" opacity="0.699279" x="11.7114262" y="20.5866155" width="5.85571309" height="16.6653554"></rect>
                        <rect id="矩形备份-4" fill="#00B8CC" x="24.3988046" y="14.7047254" width="5.85571309" height="22.5472456"></rect>
                        <rect id="矩形备份-5" fill="#00B8CC" opacity="0.499279204" x="36.1102307" y="23.5275606" width="5.85571309" height="13.7244103"></rect>
                        <rect id="矩形备份-7" fill="#00B8CC" opacity="0.299279" x="48.7976091" y="29.4094507" width="5.85571309" height="7.8425202"></rect>
                        <rect id="矩形" fill="#D2D7DC" opacity="0.499279204" x="0" y="0" width="27.3266611" height="5.88189015"></rect>
                    </g>
                </g>
            </g>
        </g>
    </g>
</svg>