<?xml version="1.0" encoding="UTF-8"?>
<svg width="313px" height="173px" viewBox="0 0 313 173" version="1.1" xmlns="http://www.w3.org/2000/svg" xmlns:xlink="http://www.w3.org/1999/xlink">
    <title>编组</title>
    <defs>
        <circle id="path-1" cx="3.29555556" cy="3.29555556" r="3.29555556"></circle>
        <polygon id="path-2" points="2.86570048 5.01497585 3.29555556 5.15826087 2.86570048 5.30154589"></polygon>
        <polygon id="path-3" points="3.29555556 5.01497585 3.72541063 5.15826087 3.29555556 5.30154589"></polygon>
        <rect id="path-4" x="3.15227053" y="5.08661836" width="1" height="1" rx="0.5"></rect>
        <rect id="path-5" x="2.29256039" y="3.00898551" width="1" height="1" rx="0.5"></rect>
        <rect id="path-6" x="3.86869565" y="3.00898551" width="1" height="1" rx="0.5"></rect>
        <circle id="path-7" cx="168.073333" cy="88.98" r="3.29555556"></circle>
        <path d="M3.29555556,0 L98.6606944,0 C100.48078,0 101.95625,1.47547048 101.95625,3.29555556 L101.95625,46.1377778 C101.95625,47.9578629 100.48078,49.4333333 98.6606944,49.4333333 L3.29555556,49.4333333 C1.47547048,49.4333333 0,47.9578629 0,46.1377778 L0,3.29555556 C0,1.47547048 1.47547048,0 3.29555556,0 Z" id="path-8"></path>
        <filter x="-54.9%" y="-80.9%" width="209.9%" height="326.6%" filterUnits="objectBoundingBox" id="filter-9">
            <feOffset dx="0" dy="16" in="SourceAlpha" result="shadowOffsetOuter1"></feOffset>
            <feGaussianBlur stdDeviation="16" in="shadowOffsetOuter1" result="shadowBlurOuter1"></feGaussianBlur>
            <feColorMatrix values="0 0 0 0 0.11372549   0 0 0 0 0.129411765   0 0 0 0 0.160784314  0 0 0 0.06 0" type="matrix" in="shadowBlurOuter1" result="shadowMatrixOuter1"></feColorMatrix>
            <feOffset dx="0" dy="8" in="SourceAlpha" result="shadowOffsetOuter2"></feOffset>
            <feGaussianBlur stdDeviation="8" in="shadowOffsetOuter2" result="shadowBlurOuter2"></feGaussianBlur>
            <feColorMatrix values="0 0 0 0 0.11372549   0 0 0 0 0.129411765   0 0 0 0 0.160784314  0 0 0 0.06 0" type="matrix" in="shadowBlurOuter2" result="shadowMatrixOuter2"></feColorMatrix>
            <feOffset dx="0" dy="4" in="SourceAlpha" result="shadowOffsetOuter3"></feOffset>
            <feGaussianBlur stdDeviation="4" in="shadowOffsetOuter3" result="shadowBlurOuter3"></feGaussianBlur>
            <feColorMatrix values="0 0 0 0 0.11372549   0 0 0 0 0.129411765   0 0 0 0 0.160784314  0 0 0 0.06 0" type="matrix" in="shadowBlurOuter3" result="shadowMatrixOuter3"></feColorMatrix>
            <feMerge>
                <feMergeNode in="shadowMatrixOuter1"></feMergeNode>
                <feMergeNode in="shadowMatrixOuter2"></feMergeNode>
                <feMergeNode in="shadowMatrixOuter3"></feMergeNode>
            </feMerge>
        </filter>
        <path d="M8.03291667,6.59111111 L21.2151389,6.59111111 C22.1251814,6.59111111 22.8629167,7.32884635 22.8629167,8.23888889 L22.8629167,21.4211111 C22.8629167,22.3311536 22.1251814,23.0688889 21.2151389,23.0688889 L8.03291667,23.0688889 C7.12287413,23.0688889 6.38513889,22.3311536 6.38513889,21.4211111 L6.38513889,8.23888889 C6.38513889,7.32884635 7.12287413,6.59111111 8.03291667,6.59111111 Z" id="path-10"></path>
        <path d="M31.1018056,6.79708333 L50.8751389,6.79708333 C51.7851814,6.79708333 52.5229167,7.53481857 52.5229167,8.44486111 L52.5229167,14.83 C52.5229167,15.7400425 51.7851814,16.4777778 50.8751389,16.4777778 L31.1018056,16.4777778 C30.191763,16.4777778 29.4540278,15.7400425 29.4540278,14.83 L29.4540278,8.44486111 C29.4540278,7.53481857 30.191763,6.79708333 31.1018056,6.79708333 Z" id="path-11"></path>
        <circle id="path-12" cx="19.7733333" cy="19.7733333" r="19.7733333"></circle>
        <filter x="-35.4%" y="-25.3%" width="170.8%" height="170.8%" filterUnits="objectBoundingBox" id="filter-13">
            <feOffset dx="0" dy="4" in="SourceAlpha" result="shadowOffsetOuter1"></feOffset>
            <feGaussianBlur stdDeviation="4" in="shadowOffsetOuter1" result="shadowBlurOuter1"></feGaussianBlur>
            <feColorMatrix values="0 0 0 0 0.11372549   0 0 0 0 0.129411765   0 0 0 0 0.160784314  0 0 0 0.06 0" type="matrix" in="shadowBlurOuter1" result="shadowMatrixOuter1"></feColorMatrix>
            <feOffset dx="0" dy="2" in="SourceAlpha" result="shadowOffsetOuter2"></feOffset>
            <feGaussianBlur stdDeviation="2" in="shadowOffsetOuter2" result="shadowBlurOuter2"></feGaussianBlur>
            <feColorMatrix values="0 0 0 0 0.11372549   0 0 0 0 0.129411765   0 0 0 0 0.160784314  0 0 0 0.1 0" type="matrix" in="shadowBlurOuter2" result="shadowMatrixOuter2"></feColorMatrix>
            <feMerge>
                <feMergeNode in="shadowMatrixOuter1"></feMergeNode>
                <feMergeNode in="shadowMatrixOuter2"></feMergeNode>
            </feMerge>
        </filter>
    </defs>
    <g id="页面-1" stroke="none" stroke-width="1" fill="none" fill-rule="evenodd">
        <g id="老注册" transform="translate(-682.000000, -290.000000)">
            <g id="编组-19" transform="translate(573.000000, 306.000000)">
                <g id="编组" transform="translate(109.000000, 0.000000)">
                    <g id="背景/2" transform="translate(56.024444, 13.182222)">
                        <g id="背景/1">
                            <path d="M3.29555556,0 L181.255556,0 C183.075641,0 184.551111,1.47547048 184.551111,3.29555556 L184.551111,128.526667 C184.551111,130.346752 183.075641,131.822222 181.255556,131.822222 L3.29555556,131.822222 C1.47547048,131.822222 0,130.346752 0,128.526667 L0,3.29555556 C0,1.47547048 1.47547048,0 3.29555556,0 Z" id="矩形" fill="#F1F4F8"></path>
                            <path d="M3.29555556,0 L181.255556,0 C183.075641,0 184.551111,1.47547048 184.551111,3.29555556 L184.551111,13.1822222 L0,13.1822222 L0,3.29555556 C0,1.47547048 1.47547048,0 3.29555556,0 Z" id="矩形" fill="#DBDEE3"></path>
                            <circle id="椭圆形" fill="#FFFFFF" cx="9.88666667" cy="6.59111111" r="3.29555556"></circle>
                            <circle id="椭圆形备份" fill="#FFFFFF" cx="23.0688889" cy="6.59111111" r="3.29555556"></circle>
                            <circle id="椭圆形备份-2" fill="#FFFFFF" cx="36.2511111" cy="6.59111111" r="3.29555556"></circle>
                        </g>
                        <g id="编组-2" transform="translate(6.591111, 19.773333)">
                            <path d="M3.29555556,0 L168.073333,0 C169.893418,0 171.368889,1.47547048 171.368889,3.29555556 L171.368889,102.162222 C171.368889,103.982307 169.893418,105.457778 168.073333,105.457778 L3.29555556,105.457778 C1.47547048,105.457778 0,103.982307 0,102.162222 L0,3.29555556 C0,1.47547048 1.47547048,0 3.29555556,0 Z" id="矩形" fill="#FFFFFF"></path>
                            <path d="M3.29555556,0 L46.1377778,0 L46.1377778,105.457778 L3.29555556,105.457778 C1.47547048,105.457778 0,103.982307 0,102.162222 L0,3.29555556 C0,1.47547048 1.47547048,0 3.29555556,0 Z" id="矩形" fill="#E2E5E9"></path>
                            <path d="M8.23888889,6.59111111 L11.5344444,6.59111111 C12.444487,6.59111111 13.1822222,7.32884635 13.1822222,8.23888889 L13.1822222,11.5344444 C13.1822222,12.444487 12.444487,13.1822222 11.5344444,13.1822222 L8.23888889,13.1822222 C7.32884635,13.1822222 6.59111111,12.444487 6.59111111,11.5344444 L6.59111111,8.23888889 C6.59111111,7.32884635 7.32884635,6.59111111 8.23888889,6.59111111 Z" id="矩形" fill="#FFFFFF"></path>
                            <path d="M21.4211111,6.59111111 L37.8988889,6.59111111 C38.8089314,6.59111111 39.5466667,7.32884635 39.5466667,8.23888889 L39.5466667,11.5344444 C39.5466667,12.444487 38.8089314,13.1822222 37.8988889,13.1822222 L21.4211111,13.1822222 C20.5110686,13.1822222 19.7733333,12.444487 19.7733333,11.5344444 L19.7733333,8.23888889 C19.7733333,7.32884635 20.5110686,6.59111111 21.4211111,6.59111111 Z" id="矩形备份" fill="#FFFFFF"></path>
                            <path d="M8.23888889,19.7733333 L31.3077778,19.7733333 C32.2178203,19.7733333 32.9555556,20.5110686 32.9555556,21.4211111 L32.9555556,24.7166667 C32.9555556,25.6267092 32.2178203,26.3644444 31.3077778,26.3644444 L8.23888889,26.3644444 C7.32884635,26.3644444 6.59111111,25.6267092 6.59111111,24.7166667 L6.59111111,21.4211111 C6.59111111,20.5110686 7.32884635,19.7733333 8.23888889,19.7733333 Z" id="矩形备份-2" fill="#FFFFFF"></path>
                            <path d="M8.23888889,32.9555556 L37.8988889,32.9555556 C38.8089314,32.9555556 39.5466667,33.6932908 39.5466667,34.6033333 L39.5466667,37.8988889 C39.5466667,38.8089314 38.8089314,39.5466667 37.8988889,39.5466667 L8.23888889,39.5466667 C7.32884635,39.5466667 6.59111111,38.8089314 6.59111111,37.8988889 L6.59111111,34.6033333 C6.59111111,33.6932908 7.32884635,32.9555556 8.23888889,32.9555556 Z" id="矩形备份-3" fill="#FFFFFF"></path>
                            <path d="M8.23888889,46.1377778 L24.7166667,46.1377778 C25.6267092,46.1377778 26.3644444,46.875513 26.3644444,47.7855556 L26.3644444,51.0811111 C26.3644444,51.9911536 25.6267092,52.7288889 24.7166667,52.7288889 L8.23888889,52.7288889 C7.32884635,52.7288889 6.59111111,51.9911536 6.59111111,51.0811111 L6.59111111,47.7855556 C6.59111111,46.875513 7.32884635,46.1377778 8.23888889,46.1377778 Z" id="矩形备份-4" fill="#FFFFFF"></path>
                            <path d="M8.23888889,59.32 L37.8988889,59.32 C38.8089314,59.32 39.5466667,60.0577352 39.5466667,60.9677778 L39.5466667,64.2633333 C39.5466667,65.1733759 38.8089314,65.9111111 37.8988889,65.9111111 L8.23888889,65.9111111 C7.32884635,65.9111111 6.59111111,65.1733759 6.59111111,64.2633333 L6.59111111,60.9677778 C6.59111111,60.0577352 7.32884635,59.32 8.23888889,59.32 Z" id="矩形备份-5" fill="#FFFFFF"></path>
                        </g>
                        <path d="M60.9677778,26.3644444 L80.7411111,26.3644444 C81.6511536,26.3644444 82.3888889,27.1021797 82.3888889,28.0122222 L82.3888889,34.6033333 C82.3888889,35.5133759 81.6511536,36.2511111 80.7411111,36.2511111 L60.9677778,36.2511111 C60.0577352,36.2511111 59.32,35.5133759 59.32,34.6033333 L59.32,28.0122222 C59.32,27.1021797 60.0577352,26.3644444 60.9677778,26.3644444 Z" id="矩形" fill="#E9ECF0"></path>
                        <rect id="矩形" fill="#FFFFFF" x="65.9111111" y="29.66" width="9.88666667" height="3.29555556" rx="1.64777778"></rect>
                        <path d="M60.9677778,42.8422222 L169.721111,42.8422222 C170.631154,42.8422222 171.368889,43.5799575 171.368889,44.49 L171.368889,70.8544444 C171.368889,71.764487 170.631154,72.5022222 169.721111,72.5022222 L60.9677778,72.5022222 C60.0577352,72.5022222 59.32,71.764487 59.32,70.8544444 L59.32,44.49 C59.32,43.5799575 60.0577352,42.8422222 60.9677778,42.8422222 Z" id="矩形" fill="#F1F4F8"></path>
                        <path d="M67.5588889,49.4333333 L103.81,49.4333333 C104.720043,49.4333333 105.457778,50.1710686 105.457778,51.0811111 L105.457778,54.3766667 C105.457778,55.2867092 104.720043,56.0244444 103.81,56.0244444 L67.5588889,56.0244444 C66.6488464,56.0244444 65.9111111,55.2867092 65.9111111,54.3766667 L65.9111111,51.0811111 C65.9111111,50.1710686 66.6488464,49.4333333 67.5588889,49.4333333 Z" id="矩形" fill="#E2E5E9"></path>
                        <path d="M159.834444,49.4333333 L163.13,49.4333333 C164.040043,49.4333333 164.777778,50.1710686 164.777778,51.0811111 L164.777778,54.3766667 C164.777778,55.2867092 164.040043,56.0244444 163.13,56.0244444 L159.834444,56.0244444 C158.924402,56.0244444 158.186667,55.2867092 158.186667,54.3766667 L158.186667,51.0811111 C158.186667,50.1710686 158.924402,49.4333333 159.834444,49.4333333 Z" id="矩形备份-6" fill="#E2E5E9"></path>
                        <g id="编组-2备份" transform="translate(59.320000, 85.684444)">
                            <g id="编组">
                                <g id="椭圆形">
                                    <use fill="#00B8CC" xlink:href="#path-1"></use>
                                    <use fill-opacity="0.8" fill="#FFFFFF" xlink:href="#path-1"></use>
                                </g>
                                <path d="M3.29555556,4.1552657 C4.08689689,4.1552657 4.7284058,4.92507639 4.7284058,5.87468599 C4.7284058,5.89746697 4.7280366,5.92014447 4.727305,5.94271035 C4.30154351,6.17349812 3.81385289,6.30454106 3.29555556,6.30454106 C2.77725547,6.30454106 2.28956242,6.17349673 1.86380157,5.9427332 C1.86307451,5.92014447 1.86270531,5.89746697 1.86270531,5.87468599 C1.86270531,4.92507639 2.50421422,4.1552657 3.29555556,4.1552657 Z" id="路径" fill="#00B8CC"></path>
                                <path d="M3.32114996,4.15691537 L3.29555556,4.15509031 C3.73435915,4.15509031 4.12709272,4.4556919 4.38992647,4.92914112 C4.17819969,5.06658924 3.81525164,5.15591537 3.40301932,5.15591537 C2.87365279,5.15591537 2.42555755,5.00861378 2.27498025,4.80555313 C2.50492441,4.45127514 2.81200969,4.21656142 3.1544377,4.16554659 L3.26516132,4.15845695 L3.32114996,4.15691537 Z" id="形状结合" fill-opacity="0.1" fill="#000000"></path>
                                <g id="矩形">
                                    <use fill="#00B8CC" xlink:href="#path-2"></use>
                                    <use fill-opacity="0.4" fill="#FFFFFF" xlink:href="#path-2"></use>
                                </g>
                                <g id="矩形备份-2" transform="translate(3.510483, 5.158261) scale(-1, 1) translate(-3.510483, -5.158261) ">
                                    <use fill="#00B8CC" xlink:href="#path-3"></use>
                                    <use fill-opacity="0.4" fill="#FFFFFF" xlink:href="#path-3"></use>
                                </g>
                                <g id="矩形">
                                    <use fill="#00B8CC" xlink:href="#path-4"></use>
                                    <use fill-opacity="0.4" fill="#FFFFFF" xlink:href="#path-4"></use>
                                </g>
                                <ellipse id="椭圆形备份-2" fill="#00B8CC" cx="3.29555556" cy="3.15227053" rx="1.86270531" ry="1.71942029"></ellipse>
                            </g>
                            <ellipse id="椭圆形备份-2" fill="#FFFFFF" cx="3.29555556" cy="3.15227053" rx="1.57613527" ry="1.43285024"></ellipse>
                            <path d="M3.87448327,2.86571522 C3.92970692,2.86692954 3.97388389,2.94252663 3.97316419,3.03456605 C3.9689191,3.56970613 3.79132254,3.86570042 3.47316419,3.86570042 C3.15500583,3.86570042 2.97740927,3.56970613 2.97316419,3.03456605 C2.97244448,2.94252663 3.01662146,2.86692954 3.0718451,2.86571522 C3.12706875,2.86450091 3.172427,2.9381292 3.17315559,3.03016862 C3.17595589,3.38391716 3.2650259,3.53236719 3.47316419,3.53236719 C3.68130248,3.53236719 3.77037249,3.38391716 3.77317278,3.03016862 C3.77390137,2.9381292 3.81925962,2.86450091 3.87448327,2.86571522 Z" id="路径-93" fill="#00B8CC" fill-rule="nonzero"></path>
                            <path d="M4.16105332,2.86571522 C4.21627697,2.86692954 4.26045394,2.94252663 4.25973423,3.03456605 C4.25548915,3.56970613 4.07789259,3.86570042 3.75973423,3.86570042 C3.44157588,3.86570042 3.26397932,3.56970613 3.25973423,3.03456605 C3.25901453,2.94252663 3.3031915,2.86692954 3.35841515,2.86571522 C3.4136388,2.86450091 3.45899705,2.9381292 3.45972564,3.03016862 C3.46252593,3.38391716 3.55159594,3.53236719 3.75973423,3.53236719 C3.96787252,3.53236719 4.05694253,3.38391716 4.05974283,3.03016862 C4.06047142,2.9381292 4.10582967,2.86450091 4.16105332,2.86571522 Z" id="路径-93备份" fill="#00B8CC" fill-rule="nonzero"></path>
                            <ellipse id="椭圆形备份-3" fill="#00B8CC" cx="4.01198068" cy="2.6865942" rx="1" ry="1"></ellipse>
                            <ellipse id="椭圆形备份-4" fill="#00B8CC" cx="2.57913043" cy="2.6865942" rx="1" ry="1"></ellipse>
                            <g id="矩形">
                                <use fill="#00B8CC" xlink:href="#path-5"></use>
                                <use fill-opacity="0.8" fill="#FFFFFF" xlink:href="#path-5"></use>
                            </g>
                            <g id="矩形备份">
                                <use fill="#00B8CC" xlink:href="#path-6"></use>
                                <use fill-opacity="0.8" fill="#FFFFFF" xlink:href="#path-6"></use>
                            </g>
                            <path d="M4.01198068,1.62986715 L3.87703151,2.63017749 C3.71301344,2.44499047 3.51231427,2.33606267 3.29555556,2.33606267 C3.07879684,2.33606267 2.87809767,2.44499047 2.7140796,2.63017749 L2.57913043,1.62986715 L4.01198068,1.62986715 Z" id="形状结合" fill="#00B8CC"></path>
                            <circle id="椭圆形" fill="#00B8CC" cx="3.72541063" cy="1.00299517" r="1"></circle>
                            <path d="M4.26908554,0.946848106 L4.50835807,1.01392029 L4.47984478,1.0303531 C4.40600338,1.0723419 4.25739694,1.15419302 4.25563916,1.15518226 C3.79530317,1.41424966 3.66986523,1.60951277 3.94353177,1.9051987 L3.67158561,1.94684811 C3.36475563,1.61533038 3.50189772,1.38425789 3.98726481,1.10465084 L4.24024099,0.963446171 C4.25220334,0.956655902 4.26214723,0.950943911 4.26908554,0.946848106 Z" id="路径-96" fill="#00B8CC" fill-rule="nonzero"></path>
                        </g>
                        <g id="编组-2备份-2" transform="translate(59.320000, 98.866667)">
                            <g id="编组">
                                <circle id="椭圆形" fill="#F1F4F8" cx="3.29555556" cy="3.29555556" r="3.29555556"></circle>
                                <path d="M3.29555556,4.1552657 C4.08689689,4.1552657 4.7284058,4.92507639 4.7284058,5.87468599 C4.7284058,5.89746697 4.7280366,5.92014447 4.727305,5.94271035 C4.30154351,6.17349812 3.81385289,6.30454106 3.29555556,6.30454106 C2.77725547,6.30454106 2.28956242,6.17349673 1.86380157,5.9427332 C1.86307451,5.92014447 1.86270531,5.89746697 1.86270531,5.87468599 C1.86270531,4.92507639 2.50421422,4.1552657 3.29555556,4.1552657 Z" id="路径" fill="#DBDEE3"></path>
                                <path d="M3.32114996,4.15691537 L3.29555556,4.15509031 C3.73435915,4.15509031 4.12709272,4.4556919 4.38992647,4.92914112 C4.17819969,5.06658924 3.81525164,5.15591537 3.40301932,5.15591537 C2.87365279,5.15591537 2.42555755,5.00861378 2.27498025,4.80555313 C2.50492441,4.45127514 2.81200969,4.21656142 3.1544377,4.16554659 L3.26516132,4.15845695 L3.32114996,4.15691537 Z" id="形状结合" fill-opacity="0.1" fill="#000000"></path>
                                <polygon id="矩形" fill="#F1F4F8" points="2.86570048 5.01497585 3.29555556 5.15826087 2.86570048 5.30154589"></polygon>
                                <polygon id="矩形备份-2" fill="#F1F4F8" transform="translate(3.510483, 5.158261) scale(-1, 1) translate(-3.510483, -5.158261) " points="3.29555556 5.01497585 3.72541063 5.15826087 3.29555556 5.30154589"></polygon>
                                <rect id="矩形" fill="#F1F4F8" x="3.15227053" y="5.08661836" width="1" height="1" rx="0.5"></rect>
                                <ellipse id="椭圆形备份-2" fill="#DBDEE3" cx="3.29555556" cy="3.15227053" rx="1.86270531" ry="1.71942029"></ellipse>
                            </g>
                            <ellipse id="椭圆形备份-2" fill="#FFFFFF" cx="3.29555556" cy="3.15227053" rx="1.57613527" ry="1.43285024"></ellipse>
                            <path d="M3.87448327,2.86571522 C3.92970692,2.86692954 3.97388389,2.94252663 3.97316419,3.03456605 C3.9689191,3.56970613 3.79132254,3.86570042 3.47316419,3.86570042 C3.15500583,3.86570042 2.97740927,3.56970613 2.97316419,3.03456605 C2.97244448,2.94252663 3.01662146,2.86692954 3.0718451,2.86571522 C3.12706875,2.86450091 3.172427,2.9381292 3.17315559,3.03016862 C3.17595589,3.38391716 3.2650259,3.53236719 3.47316419,3.53236719 C3.68130248,3.53236719 3.77037249,3.38391716 3.77317278,3.03016862 C3.77390137,2.9381292 3.81925962,2.86450091 3.87448327,2.86571522 Z" id="路径-93" fill="#DBDEE3" fill-rule="nonzero"></path>
                            <path d="M4.16105332,2.86571522 C4.21627697,2.86692954 4.26045394,2.94252663 4.25973423,3.03456605 C4.25548915,3.56970613 4.07789259,3.86570042 3.75973423,3.86570042 C3.44157588,3.86570042 3.26397932,3.56970613 3.25973423,3.03456605 C3.25901453,2.94252663 3.3031915,2.86692954 3.35841515,2.86571522 C3.4136388,2.86450091 3.45899705,2.9381292 3.45972564,3.03016862 C3.46252593,3.38391716 3.55159594,3.53236719 3.75973423,3.53236719 C3.96787252,3.53236719 4.05694253,3.38391716 4.05974283,3.03016862 C4.06047142,2.9381292 4.10582967,2.86450091 4.16105332,2.86571522 Z" id="路径-93备份" fill="#DBDEE3" fill-rule="nonzero"></path>
                            <ellipse id="椭圆形备份-3" fill="#DBDEE3" cx="4.01198068" cy="2.6865942" rx="1" ry="1"></ellipse>
                            <ellipse id="椭圆形备份-4" fill="#DBDEE3" cx="2.57913043" cy="2.6865942" rx="1" ry="1"></ellipse>
                            <rect id="矩形" fill="#F1F4F8" x="2.29256039" y="3.00898551" width="1" height="1" rx="0.5"></rect>
                            <rect id="矩形备份" fill="#F1F4F8" x="3.86869565" y="3.00898551" width="1" height="1" rx="0.5"></rect>
                            <path d="M4.01198068,1.62986715 L3.87703151,2.63017749 C3.71301344,2.44499047 3.51231427,2.33606267 3.29555556,2.33606267 C3.07879684,2.33606267 2.87809767,2.44499047 2.7140796,2.63017749 L2.57913043,1.62986715 L4.01198068,1.62986715 Z" id="形状结合" fill="#DBDEE3"></path>
                            <circle id="椭圆形" fill="#DBDEE3" cx="3.72541063" cy="1.00299517" r="1"></circle>
                            <path d="M4.26908554,0.946848106 L4.50835807,1.01392029 L4.47984478,1.0303531 C4.40600338,1.0723419 4.25739694,1.15419302 4.25563916,1.15518226 C3.79530317,1.41424966 3.66986523,1.60951277 3.94353177,1.9051987 L3.67158561,1.94684811 C3.36475563,1.61533038 3.50189772,1.38425789 3.98726481,1.10465084 L4.24024099,0.963446171 C4.25220334,0.956655902 4.26214723,0.950943911 4.26908554,0.946848106 Z" id="路径-96" fill="#DBDEE3" fill-rule="nonzero"></path>
                        </g>
                        <g id="编组-2备份-2" transform="translate(59.320000, 112.048889)">
                            <g id="编组">
                                <circle id="椭圆形" fill="#F1F4F8" cx="3.29555556" cy="3.29555556" r="3.29555556"></circle>
                                <path d="M3.29555556,4.1552657 C4.08689689,4.1552657 4.7284058,4.92507639 4.7284058,5.87468599 C4.7284058,5.89746697 4.7280366,5.92014447 4.727305,5.94271035 C4.30154351,6.17349812 3.81385289,6.30454106 3.29555556,6.30454106 C2.77725547,6.30454106 2.28956242,6.17349673 1.86380157,5.9427332 C1.86307451,5.92014447 1.86270531,5.89746697 1.86270531,5.87468599 C1.86270531,4.92507639 2.50421422,4.1552657 3.29555556,4.1552657 Z" id="路径" fill="#DBDEE3"></path>
                                <path d="M3.32114996,4.15691537 L3.29555556,4.15509031 C3.73435915,4.15509031 4.12709272,4.4556919 4.38992647,4.92914112 C4.17819969,5.06658924 3.81525164,5.15591537 3.40301932,5.15591537 C2.87365279,5.15591537 2.42555755,5.00861378 2.27498025,4.80555313 C2.50492441,4.45127514 2.81200969,4.21656142 3.1544377,4.16554659 L3.26516132,4.15845695 L3.32114996,4.15691537 Z" id="形状结合" fill-opacity="0.1" fill="#000000"></path>
                                <polygon id="矩形" fill="#F1F4F8" points="2.86570048 5.01497585 3.29555556 5.15826087 2.86570048 5.30154589"></polygon>
                                <polygon id="矩形备份-2" fill="#F1F4F8" transform="translate(3.510483, 5.158261) scale(-1, 1) translate(-3.510483, -5.158261) " points="3.29555556 5.01497585 3.72541063 5.15826087 3.29555556 5.30154589"></polygon>
                                <rect id="矩形" fill="#F1F4F8" x="3.15227053" y="5.08661836" width="1" height="1" rx="0.5"></rect>
                                <ellipse id="椭圆形备份-2" fill="#DBDEE3" cx="3.29555556" cy="3.15227053" rx="1.86270531" ry="1.71942029"></ellipse>
                            </g>
                            <ellipse id="椭圆形备份-2" fill="#FFFFFF" cx="3.29555556" cy="3.15227053" rx="1.57613527" ry="1.43285024"></ellipse>
                            <path d="M3.87448327,2.86571522 C3.92970692,2.86692954 3.97388389,2.94252663 3.97316419,3.03456605 C3.9689191,3.56970613 3.79132254,3.86570042 3.47316419,3.86570042 C3.15500583,3.86570042 2.97740927,3.56970613 2.97316419,3.03456605 C2.97244448,2.94252663 3.01662146,2.86692954 3.0718451,2.86571522 C3.12706875,2.86450091 3.172427,2.9381292 3.17315559,3.03016862 C3.17595589,3.38391716 3.2650259,3.53236719 3.47316419,3.53236719 C3.68130248,3.53236719 3.77037249,3.38391716 3.77317278,3.03016862 C3.77390137,2.9381292 3.81925962,2.86450091 3.87448327,2.86571522 Z" id="路径-93" fill="#DBDEE3" fill-rule="nonzero"></path>
                            <path d="M4.16105332,2.86571522 C4.21627697,2.86692954 4.26045394,2.94252663 4.25973423,3.03456605 C4.25548915,3.56970613 4.07789259,3.86570042 3.75973423,3.86570042 C3.44157588,3.86570042 3.26397932,3.56970613 3.25973423,3.03456605 C3.25901453,2.94252663 3.3031915,2.86692954 3.35841515,2.86571522 C3.4136388,2.86450091 3.45899705,2.9381292 3.45972564,3.03016862 C3.46252593,3.38391716 3.55159594,3.53236719 3.75973423,3.53236719 C3.96787252,3.53236719 4.05694253,3.38391716 4.05974283,3.03016862 C4.06047142,2.9381292 4.10582967,2.86450091 4.16105332,2.86571522 Z" id="路径-93备份" fill="#DBDEE3" fill-rule="nonzero"></path>
                            <ellipse id="椭圆形备份-3" fill="#DBDEE3" cx="4.01198068" cy="2.6865942" rx="1" ry="1"></ellipse>
                            <ellipse id="椭圆形备份-4" fill="#DBDEE3" cx="2.57913043" cy="2.6865942" rx="1" ry="1"></ellipse>
                            <rect id="矩形" fill="#F1F4F8" x="2.29256039" y="3.00898551" width="1" height="1" rx="0.5"></rect>
                            <rect id="矩形备份" fill="#F1F4F8" x="3.86869565" y="3.00898551" width="1" height="1" rx="0.5"></rect>
                            <path d="M4.01198068,1.62986715 L3.87703151,2.63017749 C3.71301344,2.44499047 3.51231427,2.33606267 3.29555556,2.33606267 C3.07879684,2.33606267 2.87809767,2.44499047 2.7140796,2.63017749 L2.57913043,1.62986715 L4.01198068,1.62986715 Z" id="形状结合" fill="#DBDEE3"></path>
                            <circle id="椭圆形" fill="#DBDEE3" cx="3.72541063" cy="1.00299517" r="1"></circle>
                            <path d="M4.26908554,0.946848106 L4.50835807,1.01392029 L4.47984478,1.0303531 C4.40600338,1.0723419 4.25739694,1.15419302 4.25563916,1.15518226 C3.79530317,1.41424966 3.66986523,1.60951277 3.94353177,1.9051987 L3.67158561,1.94684811 C3.36475563,1.61533038 3.50189772,1.38425789 3.98726481,1.10465084 L4.24024099,0.963446171 C4.25220334,0.956655902 4.26214723,0.950943911 4.26908554,0.946848106 Z" id="路径-96" fill="#DBDEE3" fill-rule="nonzero"></path>
                        </g>
                        <path d="M74.15,85.6844444 L103.81,85.6844444 C104.720043,85.6844444 105.457778,86.4221797 105.457778,87.3322222 L105.457778,90.6277778 C105.457778,91.5378203 104.720043,92.2755556 103.81,92.2755556 L74.15,92.2755556 C73.2399575,92.2755556 72.5022222,91.5378203 72.5022222,90.6277778 L72.5022222,87.3322222 C72.5022222,86.4221797 73.2399575,85.6844444 74.15,85.6844444 Z" id="矩形" fill="#E9ECF0"></path>
                        <path d="M143.356667,85.6844444 L156.538889,85.6844444 C157.448931,85.6844444 158.186667,86.4221797 158.186667,87.3322222 L158.186667,90.6277778 C158.186667,91.5378203 157.448931,92.2755556 156.538889,92.2755556 L143.356667,92.2755556 C142.446624,92.2755556 141.708889,91.5378203 141.708889,90.6277778 L141.708889,87.3322222 C141.708889,86.4221797 142.446624,85.6844444 143.356667,85.6844444 Z" id="矩形备份-9" fill="#E9ECF0"></path>
                        <path d="M74.15,98.8666667 L123.583333,98.8666667 C124.493376,98.8666667 125.231111,99.6044019 125.231111,100.514444 L125.231111,103.81 C125.231111,104.720043 124.493376,105.457778 123.583333,105.457778 L74.15,105.457778 C73.2399575,105.457778 72.5022222,104.720043 72.5022222,103.81 L72.5022222,100.514444 C72.5022222,99.6044019 73.2399575,98.8666667 74.15,98.8666667 Z" id="矩形备份-7" fill="#E9ECF0"></path>
                        <path d="M74.15,112.048889 L113.696667,112.048889 C114.606709,112.048889 115.344444,112.786624 115.344444,113.696667 L115.344444,116.992222 C115.344444,117.902265 114.606709,118.64 113.696667,118.64 L74.15,118.64 C73.2399575,118.64 72.5022222,117.902265 72.5022222,116.992222 L72.5022222,113.696667 C72.5022222,112.786624 73.2399575,112.048889 74.15,112.048889 Z" id="矩形备份-8" fill="#E9ECF0"></path>
                        <g id="椭圆形">
                            <use fill="#00B8CC" xlink:href="#path-7"></use>
                            <use fill-opacity="0.8" fill="#FFFFFF" xlink:href="#path-7"></use>
                        </g>
                        <circle id="椭圆形备份-3" fill="#E6F2FE" cx="168.073333" cy="102.162222" r="3.29555556"></circle>
                        <circle id="椭圆形备份-4" fill="#ECF7F2" cx="168.073333" cy="115.344444" r="3.29555556"></circle>
                        <g id="路径-4" transform="translate(58.908056, 78.681389)" fill="#F1F4F8" fill-rule="nonzero">
                            <path d="M112.460833,0 C112.688344,0 112.872778,0.223857625 112.872778,0.5 C112.872778,0.776142375 112.688344,1 112.460833,1 L0.411944444,1 C0.18443381,1 0,0.776142375 0,0.5 C0,0.223857625 0.18443381,0 0.411944444,0 L112.460833,0 Z" id="路径-3"></path>
                        </g>
                    </g>
                    <g id="前景/审批中" transform="translate(178.165972, 0.000000)">
                        <g id="矩形">
                            <use fill="black" fill-opacity="1" filter="url(#filter-9)" xlink:href="#path-8"></use>
                            <use fill="#FFFFFF" fill-rule="evenodd" xlink:href="#path-8"></use>
                        </g>
                        <g id="矩形">
                            <use fill="#00B8CC" xlink:href="#path-10"></use>
                            <use fill-opacity="0.8" fill="#FFFFFF" xlink:href="#path-10"></use>
                        </g>
                        <g id="矩形">
                            <use fill="#00B8CC" xlink:href="#path-11"></use>
                            <use fill-opacity="0.8" fill="#FFFFFF" xlink:href="#path-11"></use>
                        </g>
                        <path d="M31.1018056,19.7733333 L67.3529167,19.7733333 C68.2629592,19.7733333 69.0006944,20.5110686 69.0006944,21.4211111 C69.0006944,22.3311536 68.2629592,23.0688889 67.3529167,23.0688889 L31.1018056,23.0688889 C30.191763,23.0688889 29.4540278,22.3311536 29.4540278,21.4211111 C29.4540278,20.5110686 30.191763,19.7733333 31.1018056,19.7733333 Z" id="矩形备份-10" fill="#F1F4F8"></path>
                        <g id="路径-7" transform="translate(5.973194, 28.836111)" fill="#F1F4F8" fill-rule="nonzero">
                            <path d="M89.3919444,0 C89.6194551,0 89.8038889,0.223857625 89.8038889,0.5 C89.8038889,0.776142375 89.6194551,1 89.3919444,1 L0.411944444,1 C0.18443381,1 0,0.776142375 0,0.5 C0,0.223857625 0.18443381,0 0.411944444,0 L89.3919444,0 Z" id="路径-6"></path>
                        </g>
                        <path d="M8.03291667,36.2511111 L93.7173611,36.2511111 C94.6274036,36.2511111 95.3651389,36.9888464 95.3651389,37.8988889 L95.3651389,41.1944444 C95.3651389,42.104487 94.6274036,42.8422222 93.7173611,42.8422222 L8.03291667,42.8422222 C7.12287413,42.8422222 6.38513889,42.104487 6.38513889,41.1944444 L6.38513889,37.8988889 C6.38513889,36.9888464 7.12287413,36.2511111 8.03291667,36.2511111 Z" id="矩形" fill="#F1F4F8"></path>
                        <g id="编组" transform="translate(10.298611, 9.886667)" fill="#00B8CC" fill-rule="nonzero">
                            <path d="M0.209513032,8.89708493 L8.64729252,8.89708493 C8.76311029,8.89708493 8.85680556,8.99120631 8.85680556,9.1075508 L8.85680556,9.6762008 C8.85680556,9.79254529 8.76311029,9.88666667 8.64729252,9.88666667 L0.209513032,9.88666667 C0.0936952689,9.88666667 0,9.79254529 0,9.6762008 L0,9.1075508 C0,8.99120631 0.0936952689,8.89708493 0.209513032,8.89708493 Z M8.20224,6.26037904 L6.54435427,6.26037904 C6.10320571,6.26037904 5.73493125,5.92049628 5.69979552,5.47864868 C5.60740158,4.28383005 6.88920491,3.71256556 6.88920491,2.24714796 C6.88920491,1.00265415 5.9457456,0 4.42840278,0 C2.91105995,0 1.96890197,1.00396139 1.96890197,2.24714796 C1.96890197,3.71256556 3.2507053,4.28383005 3.15831136,5.47864868 C3.12187431,5.92049628 2.75490117,6.26037904 2.31375261,6.26037904 L0.654565559,6.26037904 C0.292797715,6.26037904 0,6.55450835 0,6.91792146 L0,8.0277694 C0,8.14411389 0.0936952689,8.23823527 0.209513032,8.23823527 L8.64729252,8.23823527 C8.76311029,8.23823527 8.85680556,8.14411389 8.85680556,8.0277694 L8.85680556,6.91792146 C8.85680556,6.55581559 8.56400784,6.26037904 8.20224,6.26037904 Z" id="形状"></path>
                        </g>
                        <rect id="矩形" fill="#FFFFFF" x="36.0451389" y="9.88666667" width="9.88666667" height="3.29555556" rx="1.64777778"></rect>
                    </g>
                    <g id="元素/闹钟" transform="translate(36.251111, 105.457778)">
                        <g id="椭圆形">
                            <use fill="black" fill-opacity="1" filter="url(#filter-13)" xlink:href="#path-12"></use>
                            <use fill="#FFFFFF" fill-rule="evenodd" xlink:href="#path-12"></use>
                        </g>
                        <circle id="椭圆形" fill="#00B8CC" cx="19.447757" cy="21.4880351" r="9.72387852"></circle>
                        <g id="编组-2" transform="translate(17.450889, 17.494299)" fill="#FFFFFF">
                            <rect id="矩形" x="0" y="0" width="2.06000998" height="7.55336992" rx="1.03000499"></rect>
                            <path d="M3.77668496,2.74667997 C4.34554101,2.74667997 4.80668995,3.20782891 4.80668995,3.77668496 L4.80668995,9.27004491 C4.80668995,9.83890095 4.34554101,10.3000499 3.77668496,10.3000499 C3.20782891,10.3000499 2.74667997,9.83890095 2.74667997,9.27004491 L2.74667997,3.77668496 C2.74667997,3.20782891 3.20782891,2.74667997 3.77668496,2.74667997 Z" id="矩形备份-3" transform="translate(3.776685, 6.523365) rotate(90.000000) translate(-3.776685, -6.523365) "></path>
                        </g>
                        <path d="M10.5524292,10.3716865 L14.7919468,7.87078552 C15.2936799,7.57481206 15.9352435,7.75045586 16.2249192,8.26309694 C16.5145949,8.77573802 16.3426885,9.43124962 15.8409554,9.72722308 L11.6014377,12.2281241 C11.0997047,12.5240976 10.4581411,12.3484538 10.1684654,11.8358127 C9.87878967,11.3231716 10.0506961,10.66766 10.5524292,10.3716865 Z" id="矩形" fill="#00B8CC"></path>
                        <path d="M28.1694442,10.3716865 L23.9299266,7.87078552 C23.4281935,7.57481206 22.7866299,7.75045586 22.4969542,8.26309694 C22.2072785,8.77573802 22.3791849,9.43124962 22.880918,9.72722308 L27.1204357,12.2281241 C27.6221687,12.5240976 28.2637323,12.3484538 28.553408,11.8358127 C28.8430837,11.3231716 28.6711773,10.66766 28.1694442,10.3716865 Z" id="矩形备份-4" fill="#00B8CC"></path>
                    </g>
                </g>
            </g>
        </g>
    </g>
</svg>