<?xml version="1.0" encoding="UTF-8"?>
<svg width="28px" height="28px" viewBox="0 0 28 28" version="1.1" xmlns="http://www.w3.org/2000/svg" xmlns:xlink="http://www.w3.org/1999/xlink">
    <!-- Generator: Sketch 52.2 (67145) - http://www.bohemiancoding.com/sketch -->
    <title>电话</title>
    <desc>Created with Sketch.</desc>
    <g id="Page-1" stroke="none" stroke-width="1" fill="none" fill-rule="evenodd">
        <g id="Artboard" transform="translate(-872.000000, -241.000000)" fill="#999999" fill-rule="nonzero">
            <g id="电话" transform="translate(873.000000, 243.000000)">
                <g id="Group">
                    <path d="M17.8531306,8.828 C18.2164211,9.26133333 18.6056608,9.70333333 19.0208499,10.154 C19.3668408,10.5526667 19.7517557,10.9946667 20.1755945,11.48 C20.5994334,11.9653333 21.0362469,12.4593333 21.4860351,12.962 C22.0569201,13.6206667 22.5283327,14.21 22.9002729,14.73 C23.2722131,15.25 23.5663054,15.7266667 23.7825497,16.16 C23.998794,16.5933333 24.1458402,16.992 24.2236881,17.356 C24.3015361,17.72 24.34046,18.084 24.34046,18.448 L24.34046,20.138 C24.34046,20.658 24.2539623,21.126 24.0809669,21.542 C23.9079714,21.958 23.6701027,22.3176667 23.3673606,22.621 C23.0646186,22.9243333 22.7186277,23.1583333 22.3293879,23.323 C21.9401481,23.4876667 21.529284,23.57 21.0967953,23.57 L5.08606628,23.57 C4.61897856,23.57 4.17351527,23.492 3.74967641,23.336 C3.32583756,23.18 2.95389734,22.959 2.63385575,22.673 C2.31381417,22.387 2.05864587,22.0446667 1.86835088,21.646 C1.67805588,21.2473333 1.58290838,20.7966667 1.58290838,20.294 L1.58290838,18.292 C1.58290838,17.876 1.62183236,17.4773333 1.69968031,17.096 C1.77752827,16.7146667 1.92024951,16.316 2.12784405,15.9 C2.3354386,15.484 2.62088109,15.0376667 2.98417154,14.561 C3.34746199,14.0843333 3.80589994,13.56 4.35948538,12.988 C4.80927355,12.5026667 5.27203639,12.013 5.74777388,11.519 C6.22351137,11.025 6.65167511,10.5786667 7.03226511,10.18 C7.48205328,9.712 7.91454191,9.26133333 8.32973099,8.828 L17.8531306,8.828 Z M12.9746589,18.682 C13.424447,18.682 13.8482859,18.5953333 14.2461754,18.422 C14.644065,18.2486667 14.9900559,18.0146667 15.2841481,17.72 C15.5782404,17.4253333 15.8117843,17.0743333 15.9847797,16.667 C16.1577752,16.2596667 16.2442729,15.8306667 16.2442729,15.38 C16.2442729,14.9293333 16.1577752,14.5046667 15.9847797,14.106 C15.8117843,13.7073333 15.5782404,13.3606667 15.2841481,13.066 C14.9900559,12.7713333 14.644065,12.5373333 14.2461754,12.364 C13.8482859,12.1906667 13.424447,12.104 12.9746589,12.104 C12.5248707,12.104 12.096707,12.1906667 11.6901676,12.364 C11.2836283,12.5373333 10.9333125,12.7713333 10.6392203,13.066 C10.345128,13.3606667 10.1115841,13.7073333 9.93858869,14.106 C9.76559324,14.5046667 9.67909552,14.9293333 9.67909552,15.38 C9.67909552,15.8306667 9.76559324,16.2596667 9.93858869,16.667 C10.1115841,17.0743333 10.345128,17.4253333 10.6392203,17.72 C10.9333125,18.0146667 11.2836283,18.2486667 11.6901676,18.422 C12.096707,18.5953333 12.5248707,18.682 12.9746589,18.682 Z M25.9752671,5.682 L25.9752671,7.32 C25.9752671,7.77066667 25.8152463,8.152 25.4952047,8.464 C25.1751631,8.776 24.7902482,8.932 24.34046,8.932 L21.0967953,8.932 C20.6470071,8.932 20.2664172,8.776 19.9550253,8.464 C19.6436335,8.152 19.4879376,7.77066667 19.4879376,7.32 L19.4879376,5.682 L6.48732943,5.682 L6.48732943,7.32 C6.48732943,7.77066667 6.33163353,8.152 6.02024172,8.464 C5.7088499,8.776 5.32825991,8.932 4.87847173,8.932 L1.63480702,8.932 C1.18501884,8.932 0.800103964,8.776 0.480062378,8.464 C0.160020793,8.152 -6.00198542e-17,7.77066667 0,7.32 L0,5.682 L0,5.63 C0,5.422 0.0518986355,5.24433333 0.155695906,5.097 C0.259493177,4.94966667 0.389239766,4.81533333 0.544935673,4.694 C0.700631579,4.57266667 0.873627031,4.46433333 1.06392203,4.369 C1.25421702,4.27366667 1.44451202,4.16533333 1.63480702,4.044 C1.82510201,3.94 2.25326576,3.71033333 2.91929825,3.355 C3.58533073,2.99966667 4.42435867,2.63133333 5.43638207,2.25 C6.44840546,1.86866667 7.59882521,1.53066667 8.88764133,1.236 C10.1764574,0.941333333 11.5474464,0.794 13.0006082,0.794 C14.6613645,0.794 16.1448005,0.941333333 17.4509162,1.236 C18.7570318,1.53066667 19.890152,1.86866667 20.8502768,2.25 C21.8104016,2.63133333 22.5802313,2.99966667 23.1597661,3.355 C23.7393008,3.71033333 24.1328655,3.94 24.34046,4.044 C24.5480546,4.16533333 24.7469994,4.27366667 24.9372943,4.369 C25.1275893,4.46433333 25.3005848,4.57266667 25.4562807,4.694 C25.6119766,4.81533333 25.7373983,4.94966667 25.8325458,5.097 C25.9276933,5.24433333 25.9752671,5.422 25.9752671,5.63 L25.9752671,5.682 Z" id="Shape"></path>
                </g>
            </g>
        </g>
    </g>
</svg>