<?xml version="1.0" encoding="UTF-8"?>
<svg width="15px" height="20px" viewBox="0 0 15 20" version="1.1" xmlns="http://www.w3.org/2000/svg" xmlns:xlink="http://www.w3.org/1999/xlink">
    <title>刷新</title>
    <g id="页面-1" stroke="none" stroke-width="1" fill="none" fill-rule="evenodd">
        <g id="企查查风险雷达-关系挖掘" transform="translate(-1391.000000, -88.000000)">
            <g id="Modal/Sidebar/Medium" transform="translate(360.000000, 0.000000)">
                <g id="编组-10" transform="translate(275.500000, 56.000000)">
                    <g id="编组-7" transform="translate(745.000000, 24.000000)">
                        <g id="刷新" transform="translate(8.000000, 8.000000)">
                            <path d="M10,7.5 L13.3333333,4.16666666 L10,0.83333334 L10,3.33333334 C6.31666666,3.33333334 3.33333334,6.31666668 3.33333334,10 C3.33333334,11.3083333 3.71666668,12.525 4.36666666,13.55 L5.58333334,12.3333333 C5.1977296,11.6162239 4.99722468,10.8142042 5,10 C5,7.24166666 7.24166666,5 10,5 L10,7.5 Z M15.6333333,6.45 L14.4166667,7.66666666 C14.7833333,8.36666666 15,9.15833332 15,10 C15,12.7583333 12.7583333,15 10,15 L10,12.5 L6.66666666,15.8333333 L10,19.1666667 L10,16.6666667 C13.6833333,16.6666667 16.6666667,13.6833333 16.6666667,10 C16.6666667,8.69166666 16.2833333,7.475 15.6333333,6.45 Z" id="icon" fill="#1D2129"></path>
                            <rect id="autorenew" x="0" y="0" width="20" height="20"></rect>
                        </g>
                    </g>
                </g>
            </g>
        </g>
    </g>
</svg>