<?xml version="1.0" encoding="UTF-8"?>
<svg width="16px" height="16px" viewBox="0 0 16 16" version="1.1" xmlns="http://www.w3.org/2000/svg" xmlns:xlink="http://www.w3.org/1999/xlink">
    <title>Icon/add_task_black</title>
    <g id="页面-1" stroke="none" stroke-width="1" fill="none" fill-rule="evenodd">
        <g id="Icon/add_task_black">
            <path d="M14.6666667,3.45333333 L7.06,11.0666667 L4.23333333,8.24 L5.17333333,7.3 L7.06,9.18666667 L13.7266667,2.52 L14.6666667,3.45333333 Z M8,13.3333333 C5.06,13.3333333 2.66666667,10.94 2.66666667,8 C2.66666667,5.06 5.06,2.66666667 8,2.66666667 C9.04666667,2.66666667 10.0266667,2.97333333 10.8533333,3.5 L11.82,2.53333333 C10.7333333,1.78 9.42,1.33333333 8,1.33333333 C4.32,1.33333333 1.33333333,4.32 1.33333333,8 C1.33333333,11.68 4.32,14.6666667 8,14.6666667 C9.15333333,14.6666667 10.24,14.3733333 11.1866667,13.8533333 L10.1866667,12.8533333 C9.52,13.16 8.78,13.3333333 8,13.3333333 Z M12.6666667,10 L10.6666667,10 L10.6666667,11.3333333 L12.6666667,11.3333333 L12.6666667,13.3333333 L14,13.3333333 L14,11.3333333 L16,11.3333333 L16,10 L14,10 L14,8 L12.6666667,8 L12.6666667,10 Z" id="icon" fill="#00B8CC"></path>
            <rect id="add_task_black" x="0" y="0" width="16" height="16"></rect>
        </g>
    </g>
</svg>