<?xml version="1.0" encoding="UTF-8"?>
<svg width="12px" height="12px" viewBox="0 0 12 12" version="1.1" xmlns="http://www.w3.org/2000/svg" xmlns:xlink="http://www.w3.org/1999/xlink">
    <!-- Generator: Sketch 59 (86127) - https://sketch.com -->
    <title>信息对比</title>
    <desc>Created with Sketch.</desc>
    <g id="页面-1" stroke="none" stroke-width="1" fill="none" fill-rule="evenodd">
        <g id="信息对比" fill-rule="nonzero">
            <rect id="Rectangle" fill="#333333" opacity="0" x="0" y="0" width="12" height="12"></rect>
            <path d="M11.4475966,4.73253841 C11.2162529,4.73253841 11.0269697,4.54066262 11.0269697,4.30329802 L11.0269697,2.28384261 C11.0269697,1.49752682 10.4621199,0.855416775 9.76595043,0.855416775 L2.20145883,0.855416775 C1.50612067,0.855416775 0.940418123,1.4962455 0.940418123,2.28384261 L0.940418123,9.71399329 C0.940418123,10.5016375 1.50655349,11.1424191 2.20145883,11.1424191 L5.83946564,11.1424191 C6.07083078,11.1424191 6.26011395,11.3342949 6.26011395,11.5716595 C6.26011395,11.8077171 6.07168785,12 5.83946564,12 L2.20145883,12 C1.04384464,12 0.1,10.9750597 0.1,9.71530031 L0.1,2.28469968 C0.1,1.02498741 1.04255475,0 2.20145883,0 L9.76552189,0 C10.9243788,0 11.8669379,1.02496171 11.8669379,2.28469968 L11.8669379,4.30415507 C11.8669379,4.54066261 11.6789617,4.73253841 11.4475966,4.73253841 Z M2.11011548,6.38987422 C2.11011548,6.11790123 2.29854158,5.89633842 2.52945677,5.89633842 L5.05025689,5.89633842 C5.2828862,5.89633842 5.47088376,6.11738281 5.47088376,6.38987422 C5.47088376,6.66187188 5.28245766,6.88442216 5.05025689,6.88442216 L2.52945677,6.88442216 C2.29854158,6.88288666 2.11011548,6.66187188 2.11011548,6.38987422 Z M7.2436668,2.72388217 L5.69460808,9.76075175 C5.64289639,9.99566114 5.79140746,10.2280134 6.02631686,10.2797251 C6.26122625,10.3314368 6.49357855,10.1829258 6.54529024,9.94801636 L8.09434896,2.91114678 C8.14606066,2.67623739 7.99754958,2.44388509 7.76264019,2.39217339 C7.52773079,2.3404617 7.29537849,2.48897278 7.2436668,2.72388217 Z M8.14046193,6.38987422 C8.14046193,6.11790123 8.32888803,5.89633842 8.55980321,5.89633842 L11.0806033,5.89633842 C11.3132326,5.89633842 11.5012302,6.11738281 11.5012302,6.38987422 C11.5012302,6.66187188 11.3128041,6.88442216 11.0806033,6.88442216 L8.55980321,6.88442216 C8.32888803,6.88288666 8.14046193,6.66187188 8.14046193,6.38987422 Z M1.7816676,3.78731865 C1.7816676,3.51528337 1.9700937,3.2937146 2.20100889,3.2937146 L5.56389411,3.2937146 C5.79525925,3.2937146 5.98325682,3.51478956 5.98325682,3.78731865 C5.98325682,4.06083534 5.7948093,4.28089802 5.56389411,4.28089802 L2.20145883,4.28089802 C1.9700937,4.28042891 1.7816676,4.05935395 1.7816676,3.78731865 Z M7.46002615,9.0644621 C7.46002615,8.79242682 7.64845225,8.57085804 7.87936743,8.57085804 L11.2422527,8.57085804 C11.4736178,8.57085804 11.6616154,8.791933 11.6616154,9.0644621 C11.6616154,9.33797879 11.4731678,9.55804146 11.2422527,9.55804146 L7.87981738,9.55804146 C7.64845225,9.55757235 7.46002615,9.33649739 7.46002615,9.0644621 Z" id="Shape" fill="#666666"></path>
        </g>
    </g>
</svg>