<?xml version="1.0" encoding="UTF-8"?>
<svg width="14px" height="14px" viewBox="0 0 14 14" version="1.1" xmlns="http://www.w3.org/2000/svg" xmlns:xlink="http://www.w3.org/1999/xlink">
    <title>check-circle-fill备份 2</title>
    <g id="寻源" stroke="none" stroke-width="1" fill="none" fill-rule="evenodd">
        <g id="check-circle-fill备份-2" fill-rule="nonzero">
            <rect id="矩形" fill="#000000" opacity="0" x="0" y="0" width="14" height="14"></rect>
            <path d="M7,0.875 C3.61757813,0.875 0.875,3.61757813 0.875,7 C0.875,10.3824219 3.61757813,13.125 7,13.125 C10.3824219,13.125 13.125,10.3824219 13.125,7 C13.125,3.61757813 10.3824219,0.875 7,0.875 Z M9.64550781,4.99980469 L6.76621094,8.99199219 C6.59257812,9.23398438 6.23300781,9.23398438 6.059375,8.99199219 L4.35449219,6.62949219 C4.30253906,6.55703125 4.35449219,6.45585938 4.44335938,6.45585938 L5.08457031,6.45585938 C5.22402344,6.45585938 5.35664062,6.52285156 5.43867187,6.63769531 L6.41210937,7.98847656 L8.56132812,5.00800781 C8.64335937,4.89453125 8.77460937,4.82617188 8.91542969,4.82617188 L9.55664062,4.82617188 C9.64550781,4.82617188 9.69746094,4.92734375 9.64550781,4.99980469 Z" id="形状" fill="#5CAE2A"></path>
        </g>
    </g>
</svg>