<?xml version="1.0" encoding="UTF-8"?>
<svg width="234px" height="125px" viewBox="0 0 234 125" version="1.1" xmlns="http://www.w3.org/2000/svg" xmlns:xlink="http://www.w3.org/1999/xlink">
    <title>物流信息为空</title>
    <defs>
        <path d="M2.6,0 L65,0 C66.4359403,0 67.6,1.22728961 67.6,2.74122807 L67.6,49.3421053 C67.6,50.8560437 66.4359403,52.0833333 65,52.0833333 L2.6,52.0833333 C1.16405965,52.0833333 0,50.8560437 0,49.3421053 L0,2.74122807 C0,1.22728961 1.16405965,0 2.6,0 Z" id="logisticsnodata"></path>
        <filter x="-13.3%" y="-11.5%" width="126.6%" height="134.6%" filterUnits="objectBoundingBox" id="filter-2">
            <feOffset dx="0" dy="3" in="SourceAlpha" result="shadowOffsetOuter1"></feOffset>
            <feGaussianBlur stdDeviation="2.5" in="shadowOffsetOuter1" result="shadowBlurOuter1"></feGaussianBlur>
            <feColorMatrix values="0 0 0 0 0.11372549   0 0 0 0 0.129411765   0 0 0 0 0.160784314  0 0 0 0.08 0" type="matrix" in="shadowBlurOuter1" result="shadowMatrixOuter1"></feColorMatrix>
            <feOffset dx="0" dy="2" in="SourceAlpha" result="shadowOffsetOuter2"></feOffset>
            <feGaussianBlur stdDeviation="1.5" in="shadowOffsetOuter2" result="shadowBlurOuter2"></feGaussianBlur>
            <feColorMatrix values="0 0 0 0 0.11372549   0 0 0 0 0.129411765   0 0 0 0 0.160784314  0 0 0 0.12 0" type="matrix" in="shadowBlurOuter2" result="shadowMatrixOuter2"></feColorMatrix>
            <feMerge>
                <feMergeNode in="shadowMatrixOuter1"></feMergeNode>
                <feMergeNode in="shadowMatrixOuter2"></feMergeNode>
            </feMerge>
        </filter>
    </defs>
    <g id="售后管理(供)" stroke="none" stroke-width="1" fill="none" fill-rule="evenodd">
        <g id="售后管理_详情_物流为空" transform="translate(-952.000000, -446.000000)">
            <g id="编组-14" transform="translate(698.000000, 0.000000)">
                <g id="编组-9" transform="translate(20.000000, 190.000000)">
                    <g id="编组-4" transform="translate(219.000000, 256.000000)">
                        <g id="物流信息为空" transform="translate(15.000000, 0.000000)">
                            <g id="背景/3" transform="translate(44.200000, 20.833333)">
                                <g id="背景/1">
                                    <path d="M2.6,0 L143,0 C144.43594,0 145.6,1.16592513 145.6,2.60416667 L145.6,101.5625 C145.6,103.000742 144.43594,104.166667 143,104.166667 L2.6,104.166667 C1.16405965,104.166667 0,103.000742 0,101.5625 L0,2.60416667 C0,1.16592513 1.16405965,0 2.6,0 Z" id="矩形" fill="#F1F4F8"></path>
                                    <path d="M2.6,0 L143,0 C144.43594,0 145.6,1.16592513 145.6,2.60416667 L145.6,10.4166667 L0,10.4166667 L0,2.60416667 C0,1.16592513 1.16405965,0 2.6,0 Z" id="矩形" fill="#DBDEE3"></path>
                                    <ellipse id="椭圆形" fill="#FFFFFF" cx="7.8" cy="5.20833333" rx="2.6" ry="2.60416667"></ellipse>
                                    <ellipse id="椭圆形备份" fill="#FFFFFF" cx="18.2" cy="5.20833333" rx="2.6" ry="2.60416667"></ellipse>
                                    <ellipse id="椭圆形备份-2" fill="#FFFFFF" cx="28.6" cy="5.20833333" rx="2.6" ry="2.60416667"></ellipse>
                                </g>
                                <path d="M7.8,15.625 L137.8,15.625 C139.23594,15.625 140.4,16.7909251 140.4,18.2291667 L140.4,96.3541667 C140.4,97.7924082 139.23594,98.9583333 137.8,98.9583333 L7.8,98.9583333 C6.36405965,98.9583333 5.2,97.7924082 5.2,96.3541667 L5.2,18.2291667 C5.2,16.7909251 6.36405965,15.625 7.8,15.625 Z" id="矩形" fill="#FFFFFF"></path>
                                <path d="M7.8,15.625 L41.6,15.625 L41.6,98.9583333 L7.8,98.9583333 C6.36405965,98.9583333 5.2,97.7924082 5.2,96.3541667 L5.2,18.2291667 C5.2,16.7909251 6.36405965,15.625 7.8,15.625 Z" id="矩形" fill="#E2E5E9"></path>
                                <path d="M11.7,20.8333333 L14.3,20.8333333 C15.0179702,20.8333333 15.6,21.4162959 15.6,22.1354167 L15.6,24.7395833 C15.6,25.4587041 15.0179702,26.0416667 14.3,26.0416667 L11.7,26.0416667 C10.9820298,26.0416667 10.4,25.4587041 10.4,24.7395833 L10.4,22.1354167 C10.4,21.4162959 10.9820298,20.8333333 11.7,20.8333333 Z" id="矩形" fill="#FFFFFF"></path>
                                <path d="M22.1,20.8333333 L35.1,20.8333333 C35.8179702,20.8333333 36.4,21.4162959 36.4,22.1354167 L36.4,24.7395833 C36.4,25.4587041 35.8179702,26.0416667 35.1,26.0416667 L22.1,26.0416667 C21.3820298,26.0416667 20.8,25.4587041 20.8,24.7395833 L20.8,22.1354167 C20.8,21.4162959 21.3820298,20.8333333 22.1,20.8333333 Z" id="矩形备份" fill="#FFFFFF"></path>
                                <path d="M11.7,31.25 L29.9,31.25 C30.6179702,31.25 31.2,31.8329626 31.2,32.5520833 L31.2,35.15625 C31.2,35.8753708 30.6179702,36.4583333 29.9,36.4583333 L11.7,36.4583333 C10.9820298,36.4583333 10.4,35.8753708 10.4,35.15625 L10.4,32.5520833 C10.4,31.8329626 10.9820298,31.25 11.7,31.25 Z" id="矩形备份-2" fill="#FFFFFF"></path>
                                <path d="M11.7,41.6666667 L35.1,41.6666667 C35.8179702,41.6666667 36.4,42.2496292 36.4,42.96875 L36.4,45.5729167 C36.4,46.2920374 35.8179702,46.875 35.1,46.875 L11.7,46.875 C10.9820298,46.875 10.4,46.2920374 10.4,45.5729167 L10.4,42.96875 C10.4,42.2496292 10.9820298,41.6666667 11.7,41.6666667 Z" id="矩形备份-3" fill="#FFFFFF"></path>
                                <path d="M11.7,52.0833333 L24.7,52.0833333 C25.4179702,52.0833333 26,52.6662959 26,53.3854167 L26,55.9895833 C26,56.7087041 25.4179702,57.2916667 24.7,57.2916667 L11.7,57.2916667 C10.9820298,57.2916667 10.4,56.7087041 10.4,55.9895833 L10.4,53.3854167 C10.4,52.6662959 10.9820298,52.0833333 11.7,52.0833333 Z" id="矩形备份-4" fill="#FFFFFF"></path>
                                <path d="M11.7,62.5 L35.1,62.5 C35.8179702,62.5 36.4,63.0829626 36.4,63.8020833 L36.4,66.40625 C36.4,67.1253708 35.8179702,67.7083333 35.1,67.7083333 L11.7,67.7083333 C10.9820298,67.7083333 10.4,67.1253708 10.4,66.40625 L10.4,63.8020833 C10.4,63.0829626 10.9820298,62.5 11.7,62.5 Z" id="矩形备份-5" fill="#FFFFFF"></path>
                                <path d="M48.1,20.8333333 L66.3,20.8333333 C67.0179702,20.8333333 67.6,21.4162959 67.6,22.1354167 L67.6,40.3645833 C67.6,41.0837041 67.0179702,41.6666667 66.3,41.6666667 L48.1,41.6666667 C47.3820298,41.6666667 46.8,41.0837041 46.8,40.3645833 L46.8,22.1354167 C46.8,21.4162959 47.3820298,20.8333333 48.1,20.8333333 Z" id="矩形" fill="#F1F4F8"></path>
                                <path d="M74.1,20.8333333 L89.7,20.8333333 C90.4179702,20.8333333 91,21.4162959 91,22.1354167 L91,27.34375 C91,28.0628708 90.4179702,28.6458333 89.7,28.6458333 L74.1,28.6458333 C73.3820298,28.6458333 72.8,28.0628708 72.8,27.34375 L72.8,22.1354167 C72.8,21.4162959 73.3820298,20.8333333 74.1,20.8333333 Z" id="矩形" fill="currentColor"></path>
                                <path d="M74.1,20.8333333 L89.7,20.8333333 C90.4179702,20.8333333 91,21.4162959 91,22.1354167 L91,27.34375 C91,28.0628708 90.4179702,28.6458333 89.7,28.6458333 L74.1,28.6458333 C73.3820298,28.6458333 72.8,28.0628708 72.8,27.34375 L72.8,22.1354167 C72.8,21.4162959 73.3820298,20.8333333 74.1,20.8333333 Z" id="矩形" fill-opacity="0.8" fill="#FFFFFF"></path>
                                <path d="M74.1,39.0625 L133.9,39.0625 C134.61797,39.0625 135.2,39.6454626 135.2,40.3645833 C135.2,41.0837041 134.61797,41.6666667 133.9,41.6666667 L74.1,41.6666667 C73.3820298,41.6666667 72.8,41.0837041 72.8,40.3645833 C72.8,39.6454626 73.3820298,39.0625 74.1,39.0625 Z" id="矩形备份-6" fill="#F1F4F8"></path>
                                <path d="M74.1,33.8541667 L110.5,33.8541667 C111.21797,33.8541667 111.8,34.4371292 111.8,35.15625 C111.8,35.8753708 111.21797,36.4583333 110.5,36.4583333 L74.1,36.4583333 C73.3820298,36.4583333 72.8,35.8753708 72.8,35.15625 C72.8,34.4371292 73.3820298,33.8541667 74.1,33.8541667 Z" id="矩形备份-7" fill="#F1F4F8"></path>
                                <path d="M79.3,23.4375 L84.5,23.4375 C85.2179702,23.4375 85.8,24.0204626 85.8,24.7395833 C85.8,25.4587041 85.2179702,26.0416667 84.5,26.0416667 L79.3,26.0416667 C78.5820298,26.0416667 78,25.4587041 78,24.7395833 C78,24.0204626 78.5820298,23.4375 79.3,23.4375 Z" id="矩形" fill="#FFFFFF"></path>
                                <path d="M135.2,49.1536458 C135.379493,49.1536458 135.525,49.2993865 135.525,49.4791667 C135.525,49.6589469 135.379493,49.8046875 135.2,49.8046875 L46.8,49.8046875 C46.6205075,49.8046875 46.475,49.6589469 46.475,49.4791667 C46.475,49.2993865 46.6205075,49.1536458 46.8,49.1536458 L135.2,49.1536458 Z" id="路径-9" fill="#F1F4F8" fill-rule="nonzero"></path>
                                <path d="M126.163587,57.2916667 L133.963587,57.2916667 C134.681557,57.2916667 135.263587,57.8746292 135.263587,58.59375 L135.263587,61.1979167 C135.263587,61.9170374 134.681557,62.5 133.963587,62.5 L126.163587,62.5 C125.445617,62.5 124.863587,61.9170374 124.863587,61.1979167 L124.863587,58.59375 C124.863587,57.8746292 125.445617,57.2916667 126.163587,57.2916667 Z" id="矩形" fill="currentColor"></path>
                                <path d="M126.163587,57.2916667 L133.963587,57.2916667 C134.681557,57.2916667 135.263587,57.8746292 135.263587,58.59375 L135.263587,61.1979167 C135.263587,61.9170374 134.681557,62.5 133.963587,62.5 L126.163587,62.5 C125.445617,62.5 124.863587,61.9170374 124.863587,61.1979167 L124.863587,58.59375 C124.863587,57.8746292 125.445617,57.2916667 126.163587,57.2916667 Z" id="矩形" fill-opacity="0.8" fill="#FFFFFF"></path>
                                <path d="M126.163587,67.7083333 L133.963587,67.7083333 C134.681557,67.7083333 135.263587,68.2912959 135.263587,69.0104167 L135.263587,71.6145833 C135.263587,72.3337041 134.681557,72.9166667 133.963587,72.9166667 L126.163587,72.9166667 C125.445617,72.9166667 124.863587,72.3337041 124.863587,71.6145833 L124.863587,69.0104167 C124.863587,68.2912959 125.445617,67.7083333 126.163587,67.7083333 Z" id="矩形备份-8" fill="currentColor"></path>
                                <path d="M126.163587,67.7083333 L133.963587,67.7083333 C134.681557,67.7083333 135.263587,68.2912959 135.263587,69.0104167 L135.263587,71.6145833 C135.263587,72.3337041 134.681557,72.9166667 133.963587,72.9166667 L126.163587,72.9166667 C125.445617,72.9166667 124.863587,72.3337041 124.863587,71.6145833 L124.863587,69.0104167 C124.863587,68.2912959 125.445617,67.7083333 126.163587,67.7083333 Z" id="矩形备份-8" fill-opacity="0.8" fill="#FFFFFF"></path>
                                <path d="M126.163587,78.125 L133.963587,78.125 C134.681557,78.125 135.263587,78.7079626 135.263587,79.4270833 L135.263587,82.03125 C135.263587,82.7503708 134.681557,83.3333333 133.963587,83.3333333 L126.163587,83.3333333 C125.445617,83.3333333 124.863587,82.7503708 124.863587,82.03125 L124.863587,79.4270833 C124.863587,78.7079626 125.445617,78.125 126.163587,78.125 Z" id="矩形备份-9" fill="currentColor"></path>
                                <path d="M126.163587,78.125 L133.963587,78.125 C134.681557,78.125 135.263587,78.7079626 135.263587,79.4270833 L135.263587,82.03125 C135.263587,82.7503708 134.681557,83.3333333 133.963587,83.3333333 L126.163587,83.3333333 C125.445617,83.3333333 124.863587,82.7503708 124.863587,82.03125 L124.863587,79.4270833 C124.863587,78.7079626 125.445617,78.125 126.163587,78.125 Z" id="矩形备份-9" fill-opacity="0.8" fill="#FFFFFF"></path>
                                <path d="M126.163587,88.5416667 L133.963587,88.5416667 C134.681557,88.5416667 135.263587,89.1246292 135.263587,89.84375 L135.263587,92.4479167 C135.263587,93.1670374 134.681557,93.75 133.963587,93.75 L126.163587,93.75 C125.445617,93.75 124.863587,93.1670374 124.863587,92.4479167 L124.863587,89.84375 C124.863587,89.1246292 125.445617,88.5416667 126.163587,88.5416667 Z" id="矩形备份-10" fill="currentColor"></path>
                                <path d="M126.163587,88.5416667 L133.963587,88.5416667 C134.681557,88.5416667 135.263587,89.1246292 135.263587,89.84375 L135.263587,92.4479167 C135.263587,93.1670374 134.681557,93.75 133.963587,93.75 L126.163587,93.75 C125.445617,93.75 124.863587,93.1670374 124.863587,92.4479167 L124.863587,89.84375 C124.863587,89.1246292 125.445617,88.5416667 126.163587,88.5416667 Z" id="矩形备份-10" fill-opacity="0.8" fill="#FFFFFF"></path>
                                <path d="M58.5,57.2916667 L113.1,57.2916667 C113.81797,57.2916667 114.4,57.8746292 114.4,58.59375 L114.4,61.1979167 C114.4,61.9170374 113.81797,62.5 113.1,62.5 L58.5,62.5 C57.7820298,62.5 57.2,61.9170374 57.2,61.1979167 L57.2,58.59375 C57.2,57.8746292 57.7820298,57.2916667 58.5,57.2916667 Z" id="矩形" fill="#F1F4F8"></path>
                                <path d="M49.4,57.2916667 C50.8359403,57.2916667 52,58.4575918 52,59.8958333 C52,61.3340749 50.8359403,62.5 49.4,62.5 C47.9640597,62.5 46.8,61.3340749 46.8,59.8958333 C46.8,58.4575918 47.9640597,57.2916667 49.4,57.2916667 Z" id="矩形备份-14" fill="#FDEEEA"></path>
                                <path d="M58.5,67.7083333 L87.1,67.7083333 C87.8179702,67.7083333 88.4,68.2912959 88.4,69.0104167 L88.4,71.6145833 C88.4,72.3337041 87.8179702,72.9166667 87.1,72.9166667 L58.5,72.9166667 C57.7820298,72.9166667 57.2,72.3337041 57.2,71.6145833 L57.2,69.0104167 C57.2,68.2912959 57.7820298,67.7083333 58.5,67.7083333 Z" id="矩形备份-11" fill="#F1F4F8"></path>
                                <path d="M49.4,67.7083333 C50.8359403,67.7083333 52,68.8742585 52,70.3125 C52,71.7507415 50.8359403,72.9166667 49.4,72.9166667 C47.9640597,72.9166667 46.8,71.7507415 46.8,70.3125 C46.8,68.8742585 47.9640597,67.7083333 49.4,67.7083333 Z" id="矩形备份-15" fill="#E6F2FE"></path>
                                <path d="M58.5,78.125 L110.5,78.125 C111.21797,78.125 111.8,78.7079626 111.8,79.4270833 L111.8,82.03125 C111.8,82.7503708 111.21797,83.3333333 110.5,83.3333333 L58.5,83.3333333 C57.7820298,83.3333333 57.2,82.7503708 57.2,82.03125 L57.2,79.4270833 C57.2,78.7079626 57.7820298,78.125 58.5,78.125 Z" id="矩形备份-12" fill="#F1F4F8"></path>
                                <path d="M49.4,78.125 C50.8359403,78.125 52,79.2909251 52,80.7291667 C52,82.1674082 50.8359403,83.3333333 49.4,83.3333333 C47.9640597,83.3333333 46.8,82.1674082 46.8,80.7291667 C46.8,79.2909251 47.9640597,78.125 49.4,78.125 Z" id="矩形备份-16" fill="#ECF7F2"></path>
                                <path d="M58.5,88.5416667 L97.5,88.5416667 C98.2179702,88.5416667 98.8,89.1246292 98.8,89.84375 L98.8,92.4479167 C98.8,93.1670374 98.2179702,93.75 97.5,93.75 L58.5,93.75 C57.7820298,93.75 57.2,93.1670374 57.2,92.4479167 L57.2,89.84375 C57.2,89.1246292 57.7820298,88.5416667 58.5,88.5416667 Z" id="矩形备份-13" fill="#F1F4F8"></path>
                                <path d="M49.4,88.5416667 C50.8359403,88.5416667 52,89.7075918 52,91.1458333 C52,92.5840749 50.8359403,93.75 49.4,93.75 C47.9640597,93.75 46.8,92.5840749 46.8,91.1458333 C46.8,89.7075918 47.9640597,88.5416667 49.4,88.5416667 Z" id="矩形备份-17" fill="#FDF2E8"></path>
                                <g id="Icon/article" transform="translate(49.400000, 23.437500)">
                                    <path d="M12.35,1.953125 L3.25,1.953125 C2.535,1.953125 1.95,2.5390625 1.95,3.25520833 L1.95,12.3697917 C1.95,13.0859375 2.535,13.671875 3.25,13.671875 L12.35,13.671875 C13.065,13.671875 13.65,13.0859375 13.65,12.3697917 L13.65,3.25520833 C13.65,2.5390625 13.065,1.953125 12.35,1.953125 Z M9.1,11.0677083 L4.55,11.0677083 L4.55,9.765625 L9.1,9.765625 L9.1,11.0677083 Z M11.05,8.46354167 L4.55,8.46354167 L4.55,7.16145833 L11.05,7.16145833 L11.05,8.46354167 Z M11.05,5.859375 L4.55,5.859375 L4.55,4.55729167 L11.05,4.55729167 L11.05,5.859375 Z" id="icon" fill="#DBDEE3"></path>
                                    <rect id="article" x="0" y="0" width="15.6" height="15.625"></rect>
                                </g>
                            </g>
                            <g id="编组-22" transform="translate(115.212500, 0.000000)">
                                <g id="编组-3" transform="translate(25.187500, 10.416667)">
                                    <g id="矩形">
                                        <use fill="black" fill-opacity="1" filter="url(#filter-2)" xlink:href="#logisticsnodata"></use>
                                        <use fill="#FFFFFF" fill-rule="evenodd" xlink:href="#logisticsnodata"></use>
                                    </g>
                                    <path d="M61.1,5.20833333 L6.5,5.20833333 C5.78202983,5.20833333 5.2,5.79036316 5.2,6.50833333 L5.2,45.575 C5.2,46.2929702 5.78202983,46.875 6.5,46.875 L61.1,46.875 C61.8179702,46.875 62.4,46.2929702 62.4,45.575 L62.4,6.50833333 C62.4,5.79036316 61.8179702,5.20833333 61.1,5.20833333 Z" id="路径" fill="#EFF3F6"></path>
                                    <path d="M48.1,33.8541667 C48.1,36.7306497 45.7718807,39.0625 42.9,39.0625 C40.0281193,39.0625 37.7,36.7306497 37.7,33.8541667 L29.9,33.8541667 C29.9,36.7306497 27.5718807,39.0625 24.7,39.0625 C21.8281193,39.0625 19.5,36.7306497 19.5,33.8541667 L16.9,33.8541667 C16.1820298,33.8541667 15.6,33.2721368 15.6,32.5541667 L15.6,14.3208333 C15.6,13.6028632 16.1820298,13.0208333 16.9,13.0208333 L41.6,13.0208333 L41.6,18.2288333 L46.8,18.2291667 L52,23.4375 L52,33.8541667 L48.1,33.8541667 Z M24.7,31.25 C23.2640597,31.25 22.1,32.4159251 22.1,33.8541667 C22.1,35.2924082 23.2640597,36.4583333 24.7,36.4583333 C26.1359403,36.4583333 27.3,35.2924082 27.3,33.8541667 C27.3,32.4159251 26.1359403,31.25 24.7,31.25 Z M42.9,31.25 C41.4640597,31.25 40.3,32.4159251 40.3,33.8541667 C40.3,35.2924082 41.4640597,36.4583333 42.9,36.4583333 C44.3359403,36.4583333 45.5,35.2924082 45.5,33.8541667 C45.5,32.4159251 44.3359403,31.25 42.9,31.25 Z M45.5,20.8333333 L41.6,20.8328333 L41.6,26.0408333 L49.4,26.0416667 L49.4,24.4140625 L45.5,20.8333333 Z" id="形状结合" fill="#FFFFFF"></path>
                                </g>
                                <g id="编组-20">
                                    <g id="元素/纸飞机/主色备份" transform="translate(9.527500, 0.000000)">
                                        <path d="M1.27736949,7.69412879 L0.36816582,9.23771058 C0.311618896,9.33371271 0.31208726,9.45353244 0.368875362,9.5489113 L0.372744665,9.55523315 C0.412956326,9.61916718 0.497738112,9.65186454 0.627090025,9.65332521 L0.636314412,9.65337644 L1.07823981,9.65337644 C1.21053153,9.65337644 1.34236187,9.63748755 1.47100066,9.60603884 L9.29153605,7.69412879 L1.27736949,7.69412879 Z" id="路径-14" fill="currentColor"></path>
                                        <path d="M1.27736949,7.69412879 L0.36816582,9.23771058 C0.311618896,9.33371271 0.31208726,9.45353244 0.368875362,9.5489113 L0.372744665,9.55523315 C0.412956326,9.61916718 0.497738112,9.65186454 0.627090025,9.65332521 L0.636314412,9.65337644 L1.07823981,9.65337644 C1.21053153,9.65337644 1.34236187,9.63748755 1.47100066,9.60603884 L9.29153605,7.69412879 L1.27736949,7.69412879 Z" id="路径-14" fill-opacity="0.4" fill="#FFFFFF"></path>
                                        <path d="M3.20413886,4.75525731 L18.2570533,4.75525731 L0.49656831,0.013018555 C0.308828512,-0.0371100691 0.113932697,0.0613289616 0.0391097388,0.242920662 L0.0364261163,0.249601242 C-0.031395334,0.422855193 -0.00323788011,0.619804189 0.110278673,0.76616759 L3.20413886,4.75525731 Z" id="路径-5" fill="currentColor"></path>
                                        <path d="M3.20413886,4.75525731 L18.2570533,4.75525731 L0.49656831,0.013018555 C0.308828512,-0.0371100691 0.113932697,0.0613289616 0.0391097388,0.242920662 L0.0364261163,0.249601242 C-0.031395334,0.422855193 -0.00323788011,0.619804189 0.110278673,0.76616759 L3.20413886,4.75525731 Z" id="路径-5" fill-opacity="0.2" fill="#FFFFFF"></path>
                                        <polygon id="路径-12" fill="currentColor" points="18.2570533 4.75525731 3.20521086 4.75525731 1.28369906 7.69412879 5.44697463 7.69412879"></polygon>
                                        <polygon id="路径-12" fill-opacity="0.2" fill="#000000" points="18.2570533 4.75525731 3.20521086 4.75525731 1.28369906 7.69412879 5.44697463 7.69412879"></polygon>
                                        <path d="M18.2570533,4.75525731 L9.60799671,12.9187892 C9.46768655,12.9868186 9.36099357,13.0208333 9.28791779,13.0208333 C9.21484201,13.0208333 9.11045764,12.9868186 8.97476469,12.9187892 L4.6536993,7.04104624 C4.63372025,6.80338093 4.65148693,6.64679283 4.70699932,6.57128191 C4.76251172,6.495771 4.9047845,6.43466492 5.13381768,6.38796369 L18.2570533,4.75525731 Z" id="路径-13" fill="currentColor"></path>
                                        <path d="M18.2570533,4.75525731 L9.60799671,12.9187892 C9.46768655,12.9868186 9.36099357,13.0208333 9.28791779,13.0208333 C9.21484201,13.0208333 9.11045764,12.9868186 8.97476469,12.9187892 L4.6536993,7.04104624 C4.63372025,6.80338093 4.65148693,6.64679283 4.70699932,6.57128191 C4.76251172,6.495771 4.9047845,6.43466492 5.13381768,6.38796369 L18.2570533,4.75525731 Z" id="路径-13" fill-opacity="0.2" fill="#FFFFFF"></path>
                                    </g>
                                    <g id="编组-16" transform="translate(0.000000, 10.167702)" fill-rule="nonzero">
                                        <path d="M26.5260881,29.6103258 C26.1228813,29.6439791 25.6938858,29.6692344 25.2436432,29.6857093 L25.2673736,30.336317 C25.7274814,30.3194811 26.1665395,30.2936334 26.5800659,30.2591188 L26.5260881,29.6103258 Z M23.9543836,29.7085994 C23.5345141,29.7086508 23.1034716,29.7018891 22.663905,29.6882504 L22.6437791,30.33898 C23.0900281,30.352826 23.527805,30.3596933 23.954463,30.3596413 L23.9543836,29.7085994 Z M21.37462,29.6297815 C20.9490348,29.6045238 20.519222,29.5732291 20.0869255,29.5359218 L20.0311267,30.1845602 C20.4692014,30.2223662 20.9047986,30.254082 21.3361728,30.2796833 L21.37462,29.6297815 Z M18.8031709,29.408117 C18.3756702,29.3598865 17.948211,29.3059797 17.5220404,29.246447 L17.4322548,29.8912477 C17.8641188,29.9515757 18.2972549,30.0061985 18.7304156,30.0550675 L18.8031709,29.408117 Z M16.245148,29.0504359 C15.8181339,28.9788872 15.3943559,28.9017495 14.9747717,28.8190797 L14.8493127,29.4578792 C15.2749996,29.5417514 15.7048478,29.619994 16.1379012,29.6925547 L16.245148,29.0504359 Z M13.7112695,28.5503472 C13.2876021,28.4533974 12.8700035,28.3507319 12.4592601,28.2424076 L12.2937528,28.8719906 C12.711452,28.9821493 13.1359601,29.0865135 13.5664952,29.1850349 L13.7112695,28.5503472 Z M11.2177037,27.891236 C10.8003216,27.7648374 10.3919591,27.6323624 9.99331048,27.4938669 L9.78030334,28.1089585 C10.187302,28.2503548 10.6039583,28.3855205 11.0295855,28.5144159 L11.2177037,27.891236 Z M8.78903207,27.0451607 C8.38328212,26.8831214 7.99003195,26.7143882 7.60993916,26.53902 L7.33798651,27.1303404 C7.72852824,27.3105296 8.13218104,27.4837262 8.54829523,27.6499045 L8.78903207,27.0451607 Z M6.46441152,25.9687462 C6.07952813,25.7618825 5.71165192,25.5473886 5.36144734,25.3253325 L5.01377032,25.8754127 C5.37737303,26.1059642 5.75869581,26.3282982 6.15706852,26.5424121 L6.46441152,25.9687462 Z M4.3127918,24.597302 C3.96679618,24.3335697 3.64378271,24.0609338 3.34443703,23.7794714 L2.89955897,24.2541332 C3.21554344,24.5512405 3.55566329,24.8383148 3.91915262,25.1153815 L4.3127918,24.597302 Z M2.47988525,22.8629062 C2.20649661,22.5333674 1.96279347,22.193554 1.74943229,21.8434726 L1.19463307,22.182686 C1.42465936,22.5601114 1.68673971,22.9255495 1.97995331,23.2789851 L2.47988525,22.8629062 Z M1.18608892,20.725701 C1.03022007,20.3398112 0.907845289,19.9428315 0.819609279,19.5345739 L0.184323999,19.6723174 C0.280445868,20.117062 0.413793275,20.5496364 0.583532839,20.9698665 L1.18608892,20.725701 Z M0.658820762,18.2937904 C0.652956556,18.1690843 0.650010619,18.0434163 0.649999999,17.916782 C0.649999974,17.6310705 0.689721876,17.3633525 0.767451402,17.1121835 L0.146593356,16.9194296 C0.0493638708,17.2336091 0,17.5663124 0,17.9168094 C1.14748614e-05,18.0536455 0.00319638982,18.1895079 0.00954053397,18.3244202 L0.658820762,18.2937904 Z M1.35033972,16.1110586 C1.60249047,15.8344716 1.92002835,15.5874626 2.29599915,15.3725461 L1.97381206,14.8071102 C1.54143828,15.0542684 1.17049356,15.3428219 0.87034043,15.6720633 L1.35033972,16.1110586 Z M3.42808451,14.879441 C3.80982316,14.7545671 4.21880539,14.655045 4.64491854,14.5821308 L4.5354578,13.9403869 C4.07887673,14.0185147 3.63909878,14.1255306 3.2262871,14.2605691 L3.42808451,14.879441 Z M5.89446727,14.4481043 C6.32397399,14.428368 6.7490048,14.4354638 7.15308761,14.4685191 L7.2059985,13.819638 C6.77415356,13.7843116 6.32150867,13.7767548 5.86467807,13.7977467 L5.89446727,14.4481043 Z M8.38188724,14.6698474 C8.85180668,14.7946965 9.2099981,14.9618353 9.41833853,15.1480278 L9.8510886,14.6622481 C9.55502127,14.3976546 9.10869607,14.189391 8.54854095,14.0405679 L8.38188724,14.6698474 Z M9.6281494,15.9916091 C9.5394402,16.2319134 9.27916725,16.3857332 8.84843788,16.3998163 L8.86964492,17.0505113 C9.54478383,17.0284371 10.0482487,16.7308923 10.2378101,16.2173895 L9.6281494,15.9916091 Z M7.67890554,16.1754183 C7.3293216,16.0488206 6.95424712,15.8699768 6.55967172,15.6389368 L6.23162377,16.2009818 C6.65918086,16.4513339 7.06980337,16.6471278 7.4578946,16.7876704 L7.67890554,16.1754183 Z M5.53061646,14.9485957 C5.2096306,14.7070985 4.88191781,14.4370128 4.54878415,14.1384604 L4.1153612,14.6236379 C4.46210644,14.934389 4.80414553,15.2162817 5.14023174,15.4691398 L5.53061646,14.9485957 Z M3.15395433,13.6995589 L3.61897564,13.2446778 L3.57441332,13.19884 L3.34123021,13.4255888 L3.61157845,13.24492 C3.39725169,12.9231781 3.19065745,12.5749859 2.99863061,12.2096855 L2.42348001,12.5129938 C2.62595175,12.8981639 2.84404,13.265728 3.07088198,13.6062576 L3.0873628,13.6309982 L3.15395433,13.6995589 Z M2.46741651,11.0585093 C2.30919079,10.6626686 2.17337585,10.2615519 2.0627905,9.85971004 L1.43615919,10.0327097 C1.55331034,10.4584102 1.69690658,10.8825083 1.86398186,11.3004884 L2.46741651,11.0585093 Z M1.80524045,8.6265306 C1.74570344,8.20267998 1.71804999,7.78544373 1.72388373,7.37747897 L1.07395039,7.36815537 C1.0676267,7.81038323 1.09749135,8.26098205 1.16157963,8.7172337 L1.80524045,8.6265306 Z M1.85347029,6.13339021 C1.93555813,5.72486482 2.05676707,5.3311104 2.21840654,4.95361721 L1.62102859,4.6970044 C1.44148724,5.11630568 1.3070557,5.5530145 1.2162476,6.00493791 L1.85347029,6.13339021 Z M2.81703589,3.88412477 C3.04911309,3.55549223 3.31906267,3.24342733 3.62805357,2.94882372 L3.17989341,2.47726941 C2.8405456,2.80081645 2.5429306,3.14486289 2.28636702,3.50816934 L2.81703589,3.88412477 Z M4.60822746,2.16226404 C4.9405619,1.93648773 5.3025007,1.72490393 5.69462655,1.52807642 L5.40340473,0.946034273 C4.98618143,1.15545945 4.59963463,1.38142871 4.24335972,1.62346932 L4.60822746,2.16226404 Z M6.85060919,1.02406958 C7.23182079,0.880075007 7.63482688,0.747345423 8.05990277,0.626176874 L7.8819808,0 C7.43978476,0.126048672 7.01962552,0.264427625 6.62124663,0.414906774 L6.85060919,1.02406958 Z" id="路径" fill="currentColor"></path>
                                        <path d="M26.5260881,29.6103258 C26.1228813,29.6439791 25.6938858,29.6692344 25.2436432,29.6857093 L25.2673736,30.336317 C25.7274814,30.3194811 26.1665395,30.2936334 26.5800659,30.2591188 L26.5260881,29.6103258 Z M23.9543836,29.7085994 C23.5345141,29.7086508 23.1034716,29.7018891 22.663905,29.6882504 L22.6437791,30.33898 C23.0900281,30.352826 23.527805,30.3596933 23.954463,30.3596413 L23.9543836,29.7085994 Z M21.37462,29.6297815 C20.9490348,29.6045238 20.519222,29.5732291 20.0869255,29.5359218 L20.0311267,30.1845602 C20.4692014,30.2223662 20.9047986,30.254082 21.3361728,30.2796833 L21.37462,29.6297815 Z M18.8031709,29.408117 C18.3756702,29.3598865 17.948211,29.3059797 17.5220404,29.246447 L17.4322548,29.8912477 C17.8641188,29.9515757 18.2972549,30.0061985 18.7304156,30.0550675 L18.8031709,29.408117 Z M16.245148,29.0504359 C15.8181339,28.9788872 15.3943559,28.9017495 14.9747717,28.8190797 L14.8493127,29.4578792 C15.2749996,29.5417514 15.7048478,29.619994 16.1379012,29.6925547 L16.245148,29.0504359 Z M13.7112695,28.5503472 C13.2876021,28.4533974 12.8700035,28.3507319 12.4592601,28.2424076 L12.2937528,28.8719906 C12.711452,28.9821493 13.1359601,29.0865135 13.5664952,29.1850349 L13.7112695,28.5503472 Z M11.2177037,27.891236 C10.8003216,27.7648374 10.3919591,27.6323624 9.99331048,27.4938669 L9.78030334,28.1089585 C10.187302,28.2503548 10.6039583,28.3855205 11.0295855,28.5144159 L11.2177037,27.891236 Z M8.78903207,27.0451607 C8.38328212,26.8831214 7.99003195,26.7143882 7.60993916,26.53902 L7.33798651,27.1303404 C7.72852824,27.3105296 8.13218104,27.4837262 8.54829523,27.6499045 L8.78903207,27.0451607 Z M6.46441152,25.9687462 C6.07952813,25.7618825 5.71165192,25.5473886 5.36144734,25.3253325 L5.01377032,25.8754127 C5.37737303,26.1059642 5.75869581,26.3282982 6.15706852,26.5424121 L6.46441152,25.9687462 Z M4.3127918,24.597302 C3.96679618,24.3335697 3.64378271,24.0609338 3.34443703,23.7794714 L2.89955897,24.2541332 C3.21554344,24.5512405 3.55566329,24.8383148 3.91915262,25.1153815 L4.3127918,24.597302 Z M2.47988525,22.8629062 C2.20649661,22.5333674 1.96279347,22.193554 1.74943229,21.8434726 L1.19463307,22.182686 C1.42465936,22.5601114 1.68673971,22.9255495 1.97995331,23.2789851 L2.47988525,22.8629062 Z M1.18608892,20.725701 C1.03022007,20.3398112 0.907845289,19.9428315 0.819609279,19.5345739 L0.184323999,19.6723174 C0.280445868,20.117062 0.413793275,20.5496364 0.583532839,20.9698665 L1.18608892,20.725701 Z M0.658820762,18.2937904 C0.652956556,18.1690843 0.650010619,18.0434163 0.649999999,17.916782 C0.649999974,17.6310705 0.689721876,17.3633525 0.767451402,17.1121835 L0.146593356,16.9194296 C0.0493638708,17.2336091 0,17.5663124 0,17.9168094 C1.14748614e-05,18.0536455 0.00319638982,18.1895079 0.00954053397,18.3244202 L0.658820762,18.2937904 Z M1.35033972,16.1110586 C1.60249047,15.8344716 1.92002835,15.5874626 2.29599915,15.3725461 L1.97381206,14.8071102 C1.54143828,15.0542684 1.17049356,15.3428219 0.87034043,15.6720633 L1.35033972,16.1110586 Z M3.42808451,14.879441 C3.80982316,14.7545671 4.21880539,14.655045 4.64491854,14.5821308 L4.5354578,13.9403869 C4.07887673,14.0185147 3.63909878,14.1255306 3.2262871,14.2605691 L3.42808451,14.879441 Z M5.89446727,14.4481043 C6.32397399,14.428368 6.7490048,14.4354638 7.15308761,14.4685191 L7.2059985,13.819638 C6.77415356,13.7843116 6.32150867,13.7767548 5.86467807,13.7977467 L5.89446727,14.4481043 Z M8.38188724,14.6698474 C8.85180668,14.7946965 9.2099981,14.9618353 9.41833853,15.1480278 L9.8510886,14.6622481 C9.55502127,14.3976546 9.10869607,14.189391 8.54854095,14.0405679 L8.38188724,14.6698474 Z M9.6281494,15.9916091 C9.5394402,16.2319134 9.27916725,16.3857332 8.84843788,16.3998163 L8.86964492,17.0505113 C9.54478383,17.0284371 10.0482487,16.7308923 10.2378101,16.2173895 L9.6281494,15.9916091 Z M7.67890554,16.1754183 C7.3293216,16.0488206 6.95424712,15.8699768 6.55967172,15.6389368 L6.23162377,16.2009818 C6.65918086,16.4513339 7.06980337,16.6471278 7.4578946,16.7876704 L7.67890554,16.1754183 Z M5.53061646,14.9485957 C5.2096306,14.7070985 4.88191781,14.4370128 4.54878415,14.1384604 L4.1153612,14.6236379 C4.46210644,14.934389 4.80414553,15.2162817 5.14023174,15.4691398 L5.53061646,14.9485957 Z M3.15395433,13.6995589 L3.61897564,13.2446778 L3.57441332,13.19884 L3.34123021,13.4255888 L3.61157845,13.24492 C3.39725169,12.9231781 3.19065745,12.5749859 2.99863061,12.2096855 L2.42348001,12.5129938 C2.62595175,12.8981639 2.84404,13.265728 3.07088198,13.6062576 L3.0873628,13.6309982 L3.15395433,13.6995589 Z M2.46741651,11.0585093 C2.30919079,10.6626686 2.17337585,10.2615519 2.0627905,9.85971004 L1.43615919,10.0327097 C1.55331034,10.4584102 1.69690658,10.8825083 1.86398186,11.3004884 L2.46741651,11.0585093 Z M1.80524045,8.6265306 C1.74570344,8.20267998 1.71804999,7.78544373 1.72388373,7.37747897 L1.07395039,7.36815537 C1.0676267,7.81038323 1.09749135,8.26098205 1.16157963,8.7172337 L1.80524045,8.6265306 Z M1.85347029,6.13339021 C1.93555813,5.72486482 2.05676707,5.3311104 2.21840654,4.95361721 L1.62102859,4.6970044 C1.44148724,5.11630568 1.3070557,5.5530145 1.2162476,6.00493791 L1.85347029,6.13339021 Z M2.81703589,3.88412477 C3.04911309,3.55549223 3.31906267,3.24342733 3.62805357,2.94882372 L3.17989341,2.47726941 C2.8405456,2.80081645 2.5429306,3.14486289 2.28636702,3.50816934 L2.81703589,3.88412477 Z M4.60822746,2.16226404 C4.9405619,1.93648773 5.3025007,1.72490393 5.69462655,1.52807642 L5.40340473,0.946034273 C4.98618143,1.15545945 4.59963463,1.38142871 4.24335972,1.62346932 L4.60822746,2.16226404 Z M6.85060919,1.02406958 C7.23182079,0.880075007 7.63482688,0.747345423 8.05990277,0.626176874 L7.8819808,0 C7.43978476,0.126048672 7.01962552,0.264427625 6.62124663,0.414906774 L6.85060919,1.02406958 Z" id="路径" fill-opacity="0.2" fill="#FFFFFF"></path>
                                    </g>
                                </g>
                            </g>
                        </g>
                    </g>
                </g>
            </g>
        </g>
    </g>
</svg>