<?xml version="1.0" encoding="UTF-8"?>
<svg width="110px" height="66px" viewBox="0 0 110 66" version="1.1" xmlns="http://www.w3.org/2000/svg" xmlns:xlink="http://www.w3.org/1999/xlink">
    <title>查询筛选</title>
    <defs>
        <rect id="path-1" x="0" y="0" width="110" height="66" rx="4"></rect>
        <rect id="path-3" x="0" y="0" width="97.764988" height="63" rx="1.41007194"></rect>
        <filter x="-28.1%" y="-37.3%" width="156.3%" height="187.3%" filterUnits="objectBoundingBox" id="filter-4">
            <feOffset dx="0" dy="3" in="SourceAlpha" result="shadowOffsetOuter1"></feOffset>
            <feGaussianBlur stdDeviation="4" in="shadowOffsetOuter1" result="shadowBlurOuter1"></feGaussianBlur>
            <feColorMatrix values="0 0 0 0 0.11372549   0 0 0 0 0.129411765   0 0 0 0 0.160784314  0 0 0 0.08 0" type="matrix" in="shadowBlurOuter1" result="shadowMatrixOuter1"></feColorMatrix>
            <feMorphology radius="1" operator="erode" in="SourceAlpha" result="shadowSpreadOuter2"></feMorphology>
            <feOffset dx="0" dy="1" in="shadowSpreadOuter2" result="shadowOffsetOuter2"></feOffset>
            <feGaussianBlur stdDeviation="1.5" in="shadowOffsetOuter2" result="shadowBlurOuter2"></feGaussianBlur>
            <feColorMatrix values="0 0 0 0 0.11372549   0 0 0 0 0.129411765   0 0 0 0 0.160784314  0 0 0 0.12 0" type="matrix" in="shadowBlurOuter2" result="shadowMatrixOuter2"></feColorMatrix>
            <feMorphology radius="2" operator="dilate" in="SourceAlpha" result="shadowSpreadOuter3"></feMorphology>
            <feOffset dx="0" dy="4" in="shadowSpreadOuter3" result="shadowOffsetOuter3"></feOffset>
            <feGaussianBlur stdDeviation="6.5" in="shadowOffsetOuter3" result="shadowBlurOuter3"></feGaussianBlur>
            <feColorMatrix values="0 0 0 0 0.11372549   0 0 0 0 0.129411765   0 0 0 0 0.160784314  0 0 0 0.05 0" type="matrix" in="shadowBlurOuter3" result="shadowMatrixOuter3"></feColorMatrix>
            <feMerge>
                <feMergeNode in="shadowMatrixOuter1"></feMergeNode>
                <feMergeNode in="shadowMatrixOuter2"></feMergeNode>
                <feMergeNode in="shadowMatrixOuter3"></feMergeNode>
            </feMerge>
        </filter>
    </defs>
    <g id="页面-1" stroke="none" stroke-width="1" fill="none" fill-rule="evenodd">
        <g id="主题配置-页面布局" transform="translate(-1308, -565)">
            <g id="编组-11备份" transform="translate(1160, 135)">
                <g id="编组-17备份" transform="translate(20, 392)">
                    <g id="编组-40备份" transform="translate(0, 28)">
                        <g id="编组-9" transform="translate(126, 8)">
                            <g id="查询筛选" transform="translate(2, 2)">
                                <mask id="mask-2" fill="white">
                                    <use xlink:href="#path-1"></use>
                                </mask>
                                <g id="蒙版"></g>
                                <g id="编组-32" mask="url(#mask-2)">
                                    <g transform="translate(6, 12)">
                                        <g id="矩形" stroke="none" fill="none">
                                            <use fill="black" fill-opacity="1" filter="url(#filter-4)" xlink:href="#path-3"></use>
                                            <use fill="#FFFFFF" fill-rule="evenodd" xlink:href="#path-3"></use>
                                        </g>
                                        <rect id="矩形" stroke="#E5E7EC" stroke-width="0.470023981" fill="#FFFFFF" fill-rule="evenodd" x="4.9352518" y="13.9718541" width="20.2110312" height="4.74050233" rx="0.940047962"></rect>
                                        <rect id="矩形备份-36" stroke="#E5E7EC" stroke-width="0.470023981" fill="#FFFFFF" fill-rule="evenodd" x="27.4964029" y="13.9718541" width="12.2206235" height="4.74050233" rx="0.940047962"></rect>
                                        <rect id="矩形备份-37" stroke="#E5E7EC" stroke-width="0.470023981" fill="#FFFFFF" fill-rule="evenodd" x="42.0671463" y="13.9718541" width="12.2206235" height="4.74050233" rx="0.940047962"></rect>
                                        <rect id="矩形备份-38" stroke="none" fill="#00B8CC" fill-rule="evenodd" x="56.4028777" y="13.7368421" width="10.3405276" height="5.21052632" rx="0.940047962"></rect>
                                        <g id="Icon/System/search-line" stroke="none" stroke-width="1" fill="none" fill-rule="evenodd" transform="translate(59.693, 14.6842)">
                                            <g id="search-line">
                                                <path d="M2.73439265,2.55440431 L3.33936371,3.16394412 L3.13949585,3.36536842 L2.53466604,2.75568626 C2.30961882,2.93749782 2.02969969,3.03638563 1.74126832,3.03597208 C1.03954145,3.03597208 0.470023981,2.4620196 0.470023981,1.75482815 C0.470023981,1.04763669 1.03954145,0.473684211 1.74126832,0.473684211 C2.4429952,0.473684211 3.01251266,1.04763669 3.01251266,1.75482815 C3.01292302,2.04550562 2.91479933,2.32760457 2.73439265,2.55440431 Z M2.45104641,2.44878111 C2.63030781,2.26299896 2.73041888,2.01396503 2.73001515,1.75482815 C2.73001515,1.20422095 2.28747964,0.758382863 1.74126832,0.758382863 C1.19491575,0.758382863 0.752522723,1.20422095 0.752522723,1.75482815 C0.752522723,2.30529299 1.19491575,2.75127466 1.74126832,2.75127466 C1.99840281,2.75168155 2.24551243,2.65079087 2.42985901,2.47013351 L2.45104641,2.44878111 L2.45104641,2.44878111 Z" id="形状" fill="#FFFFFF"></path>
                                                <polygon points="0 0 3.76019185 0 3.76019185 3.78947368 0 3.78947368"></polygon>
                                            </g>
                                        </g>
                                        <rect id="矩形备份-6" stroke="none" fill="#F2F3F5" fill-rule="evenodd" x="4.70023981" y="20.8421053" width="88.3645084" height="28.8947368" rx="0.940047962"></rect>
                                        <path d="M1.41007194,0 L96.3549161,0 C97.1336773,-1.43056117e-16 97.764988,0.631310712 97.764988,1.41007194 L97.764988,9.47368421 L97.764988,9.47368421 L0,9.47368421 L0,1.41007194 C-9.53707448e-17,0.631310712 0.631310712,-7.89884878e-17 1.41007194,-2.22044605e-16 Z" id="矩形" stroke="none" fill="#FFFFFF" fill-rule="evenodd"></path>
                                        <line x1="0.23501199" y1="9.23684211" x2="98" y2="9.23684211" id="直线" stroke="#F2F3F5" stroke-width="0.23501199" fill="none"></line>
                                        <rect id="矩形" stroke="none" fill="#E5E7EC" fill-rule="evenodd" x="4.70023981" y="3.32677016" width="15.7536" height="2.82014388" rx="0.463341165"></rect>
                                        <g id="编组" stroke="none" stroke-width="1" fill="none" fill-rule="evenodd" transform="translate(87.8273, 1.9149)">
                                            <g id="Button/Medium/Icon/Icon">
                                                <rect id="矩形" fill="#F2F3F5" x="0" y="0" width="5.23741007" height="5.17026379" rx="0.49352518"></rect>
                                                <g id="Icon/System/more-line" transform="translate(1.3026, 1.2691)">
                                                    <polygon id="路径" points="0 0 2.63213429 0 2.63213429 2.63213429 0 2.63213429"></polygon>
                                                    <path d="M0.49352518,1.15155875 C0.403045564,1.15155875 0.329016787,1.29961631 0.329016787,1.48057554 C0.329016787,1.66153477 0.403045564,1.80959233 0.49352518,1.80959233 C0.584004796,1.80959233 0.658033573,1.66153477 0.658033573,1.48057554 C0.658033573,1.29961631 0.584004796,1.15155875 0.49352518,1.15155875 Z M2.13860911,1.15155875 C2.0481295,1.15155875 1.97410072,1.29961631 1.97410072,1.48057554 C1.97410072,1.66153477 2.0481295,1.80959233 2.13860911,1.80959233 C2.22908873,1.80959233 2.30311751,1.66153477 2.30311751,1.48057554 C2.30311751,1.29961631 2.22908873,1.15155875 2.13860911,1.15155875 Z M1.31606715,1.15155875 C1.22558753,1.15155875 1.15155875,1.29961631 1.15155875,1.48057554 C1.15155875,1.66153477 1.22558753,1.80959233 1.31606715,1.80959233 C1.40654676,1.80959233 1.48057554,1.66153477 1.48057554,1.48057554 C1.48057554,1.29961631 1.40654676,1.15155875 1.31606715,1.15155875 Z" id="形状" fill="#4E5769"></path>
                                                </g>
                                            </g>
                                        </g>
                                    </g>
                                </g>
                            </g>
                        </g>
                    </g>
                </g>
            </g>
        </g>
    </g>
</svg>