<?xml version="1.0" encoding="UTF-8"?>
<svg width="110px" height="66px" viewBox="0 0 110 66" version="1.1" xmlns="http://www.w3.org/2000/svg" xmlns:xlink="http://www.w3.org/1999/xlink">
    <title>表格密度紧凑</title>
    <defs>
        <rect id="path-1" x="0" y="0" width="110" height="66" rx="4"></rect>
        <rect id="path-3" x="0" y="0" width="97.7506" height="67" rx="1.5"></rect>
        <filter x="-30.2%" y="-36.6%" width="160.4%" height="188.1%" filterUnits="objectBoundingBox" id="filter-4">
            <feOffset dx="0" dy="3" in="SourceAlpha" result="shadowOffsetOuter1"></feOffset>
            <feGaussianBlur stdDeviation="4" in="shadowOffsetOuter1" result="shadowBlurOuter1"></feGaussianBlur>
            <feColorMatrix values="0 0 0 0 0.11372549   0 0 0 0 0.129411765   0 0 0 0 0.160784314  0 0 0 0.08 0" type="matrix" in="shadowBlurOuter1" result="shadowMatrixOuter1"></feColorMatrix>
            <feMorphology radius="1" operator="erode" in="SourceAlpha" result="shadowSpreadOuter2"></feMorphology>
            <feOffset dx="0" dy="2" in="shadowSpreadOuter2" result="shadowOffsetOuter2"></feOffset>
            <feGaussianBlur stdDeviation="1.5" in="shadowOffsetOuter2" result="shadowBlurOuter2"></feGaussianBlur>
            <feColorMatrix values="0 0 0 0 0.11372549   0 0 0 0 0.129411765   0 0 0 0 0.160784314  0 0 0 0.12 0" type="matrix" in="shadowBlurOuter2" result="shadowMatrixOuter2"></feColorMatrix>
            <feMorphology radius="2" operator="dilate" in="SourceAlpha" result="shadowSpreadOuter3"></feMorphology>
            <feOffset dx="0" dy="5" in="shadowSpreadOuter3" result="shadowOffsetOuter3"></feOffset>
            <feGaussianBlur stdDeviation="7" in="shadowOffsetOuter3" result="shadowBlurOuter3"></feGaussianBlur>
            <feColorMatrix values="0 0 0 0 0.11372549   0 0 0 0 0.129411765   0 0 0 0 0.160784314  0 0 0 0.05 0" type="matrix" in="shadowBlurOuter3" result="shadowMatrixOuter3"></feColorMatrix>
            <feMerge>
                <feMergeNode in="shadowMatrixOuter1"></feMergeNode>
                <feMergeNode in="shadowMatrixOuter2"></feMergeNode>
                <feMergeNode in="shadowMatrixOuter3"></feMergeNode>
            </feMerge>
        </filter>
    </defs>
    <g id="主题配置v1.2" stroke="none" stroke-width="1" fill="none" fill-rule="evenodd">
        <g id="主题配置-页面布局-75&amp;标准(新主题)(默认)" transform="translate(-1308, -403)">
            <g id="编组-11备份" transform="translate(1160, 135)">
                <g id="编组-17" transform="translate(20, 230)">
                    <g id="编组-40备份" transform="translate(0, 28)">
                        <g id="编组-9备份-2" transform="translate(126, 8)">
                            <g id="表格密度紧凑" transform="translate(2, 2)">
                                <mask id="mask-2" fill="white">
                                    <use xlink:href="#path-1"></use>
                                </mask>
                                <g id="蒙版"></g>
                                <g id="编组-32" mask="url(#mask-2)">
                                    <g transform="translate(6, 12)">
                                        <g id="矩形">
                                            <use fill="black" fill-opacity="1" filter="url(#filter-4)" xlink:href="#path-3"></use>
                                            <use fill="#FFFFFF" fill-rule="evenodd" xlink:href="#path-3"></use>
                                        </g>
                                        <g id="编组-11" stroke-width="1" fill-rule="evenodd" transform="translate(3.9856, 4.609)">
                                            <g id="编组-14">
                                                <rect id="矩形" fill="#F7F8FA" x="0" y="0" width="90" height="4"></rect>
                                                <g id="编组-23" transform="translate(2.0144, 1.191)" fill="#E5E7EC">
                                                    <rect id="矩形" x="3.75829384" y="0" width="11.5" height="1.6" rx="0.492890984"></rect>
                                                    <rect id="矩形" x="0" y="0" width="1.6" height="1.6" rx="0.5"></rect>
                                                    <rect id="矩形备份-7" x="22" y="0" width="5.5" height="1.6" rx="0.492890984"></rect>
                                                    <rect id="矩形备份-8" x="39" y="0" width="8.5" height="1.6" rx="0.492890984"></rect>
                                                    <rect id="矩形备份-10" x="60.5" y="0" width="8.5" height="1.6" rx="0.492890984"></rect>
                                                    <rect id="矩形备份-11" x="73" y="0" width="8.5" height="1.6" rx="0.492890984"></rect>
                                                </g>
                                            </g>
                                            <g id="编组-29" transform="translate(0.0144, 4)">
                                                <rect id="矩形备份-12" fill="#FFFFFF" x="0" y="0" width="90" height="4"></rect>
                                                <g id="编组-23" transform="translate(2, 1.391)" fill="#E5E7EC">
                                                    <rect id="矩形" x="3.75829384" y="0.00751879699" width="14" height="1.5" rx="0.492890984"></rect>
                                                    <rect id="矩形" x="0" y="0" width="1.48880597" height="1.5" rx="0.5"></rect>
                                                    <rect id="矩形备份-7" x="22" y="0.00751879699" width="13" height="1.5" rx="0.492890984"></rect>
                                                    <rect id="矩形备份-10" x="56" y="0.00751879699" width="13" height="1.5" rx="0.492890984"></rect>
                                                    <rect id="矩形备份-11" x="73" y="0.00751879699" width="13" height="1.5" rx="0.492890984"></rect>
                                                    <rect id="矩形备份-9" x="39" y="0.00751879699" width="13" height="1.5" rx="0.492890984"></rect>
                                                </g>
                                                <line x1="0" y1="4" x2="88.7475163" y2="4" id="直线" stroke="#F2F3F5" stroke-width="0.25"></line>
                                            </g>
                                            <g id="编组-29备份" transform="translate(0.0144, 8)">
                                                <rect id="矩形备份-12" fill="#FFFFFF" x="0" y="0" width="90" height="4"></rect>
                                                <g id="编组-23" transform="translate(2, 1.391)" fill="#E5E7EC">
                                                    <rect id="矩形" x="3.75829384" y="0.00751879699" width="14" height="1.5" rx="0.492890984"></rect>
                                                    <rect id="矩形" x="0" y="0" width="1.48880597" height="1.5" rx="0.5"></rect>
                                                    <rect id="矩形备份-7" x="22" y="0.00751879699" width="13" height="1.5" rx="0.492890984"></rect>
                                                    <rect id="矩形备份-10" x="56" y="0.00751879699" width="13" height="1.5" rx="0.492890984"></rect>
                                                    <rect id="矩形备份-11" x="73" y="0.00751879699" width="13" height="1.5" rx="0.492890984"></rect>
                                                    <rect id="矩形备份-9" x="39" y="0.00751879699" width="13" height="1.5" rx="0.492890984"></rect>
                                                </g>
                                                <line x1="0" y1="4" x2="88.7475163" y2="4" id="直线" stroke="#F2F3F5" stroke-width="0.25"></line>
                                            </g>
                                            <g id="编组-29备份-2" transform="translate(0.0144, 12)">
                                                <rect id="矩形备份-12" fill="#FFFFFF" x="0" y="0" width="90" height="4"></rect>
                                                <g id="编组-23" transform="translate(2, 1.391)" fill="#E5E7EC">
                                                    <rect id="矩形" x="3.75829384" y="0.00751879699" width="14" height="1.5" rx="0.492890984"></rect>
                                                    <rect id="矩形" x="0" y="0" width="1.48880597" height="1.5" rx="0.5"></rect>
                                                    <rect id="矩形备份-7" x="22" y="0.00751879699" width="13" height="1.5" rx="0.492890984"></rect>
                                                    <rect id="矩形备份-10" x="56" y="0.00751879699" width="13" height="1.5" rx="0.492890984"></rect>
                                                    <rect id="矩形备份-11" x="73" y="0.00751879699" width="13" height="1.5" rx="0.492890984"></rect>
                                                    <rect id="矩形备份-9" x="39" y="0.00751879699" width="13" height="1.5" rx="0.492890984"></rect>
                                                </g>
                                                <line x1="0" y1="4" x2="88.7475163" y2="4" id="直线" stroke="#F2F3F5" stroke-width="0.25"></line>
                                            </g>
                                            <g id="编组-29备份-3" transform="translate(0.0144, 16)">
                                                <rect id="矩形备份-12" fill="#FFFFFF" x="0" y="0" width="90" height="4"></rect>
                                                <g id="编组-23" transform="translate(2, 1.391)" fill="#E5E7EC">
                                                    <rect id="矩形" x="3.75829384" y="0.00751879699" width="14" height="1.5" rx="0.492890984"></rect>
                                                    <rect id="矩形" x="0" y="0" width="1.48880597" height="1.5" rx="0.5"></rect>
                                                    <rect id="矩形备份-7" x="22" y="0.00751879699" width="13" height="1.5" rx="0.492890984"></rect>
                                                    <rect id="矩形备份-10" x="56" y="0.00751879699" width="13" height="1.5" rx="0.492890984"></rect>
                                                    <rect id="矩形备份-11" x="73" y="0.00751879699" width="13" height="1.5" rx="0.492890984"></rect>
                                                    <rect id="矩形备份-9" x="39" y="0.00751879699" width="13" height="1.5" rx="0.492890984"></rect>
                                                </g>
                                                <line x1="0" y1="4" x2="88.7475163" y2="4" id="直线" stroke="#F2F3F5" stroke-width="0.25"></line>
                                            </g>
                                            <g id="编组-29备份-4" transform="translate(0.0144, 20)">
                                                <rect id="矩形备份-12" fill="#FFFFFF" x="0" y="0" width="90" height="4"></rect>
                                                <g id="编组-23" transform="translate(2, 1.391)" fill="#E5E7EC">
                                                    <rect id="矩形" x="3.75829384" y="0.00751879699" width="14" height="1.5" rx="0.492890984"></rect>
                                                    <rect id="矩形" x="0" y="0" width="1.48880597" height="1.5" rx="0.5"></rect>
                                                    <rect id="矩形备份-7" x="22" y="0.00751879699" width="13" height="1.5" rx="0.492890984"></rect>
                                                    <rect id="矩形备份-10" x="56" y="0.00751879699" width="13" height="1.5" rx="0.492890984"></rect>
                                                    <rect id="矩形备份-11" x="73" y="0.00751879699" width="13" height="1.5" rx="0.492890984"></rect>
                                                    <rect id="矩形备份-9" x="39" y="0.00751879699" width="13" height="1.5" rx="0.492890984"></rect>
                                                </g>
                                                <line x1="0" y1="4" x2="88.7475163" y2="4" id="直线" stroke="#F2F3F5" stroke-width="0.25"></line>
                                            </g>
                                            <g id="编组-29备份-5" transform="translate(0.0144, 24)">
                                                <rect id="矩形备份-12" fill="#FFFFFF" x="0" y="0" width="90" height="4"></rect>
                                                <g id="编组-23" transform="translate(2, 1.391)" fill="#E5E7EC">
                                                    <rect id="矩形" x="3.75829384" y="0.00751879699" width="14" height="1.5" rx="0.492890984"></rect>
                                                    <rect id="矩形" x="0" y="0" width="1.48880597" height="1.5" rx="0.5"></rect>
                                                    <rect id="矩形备份-7" x="22" y="0.00751879699" width="13" height="1.5" rx="0.492890984"></rect>
                                                    <rect id="矩形备份-10" x="56" y="0.00751879699" width="13" height="1.5" rx="0.492890984"></rect>
                                                    <rect id="矩形备份-11" x="73" y="0.00751879699" width="13" height="1.5" rx="0.492890984"></rect>
                                                    <rect id="矩形备份-9" x="39" y="0.00751879699" width="13" height="1.5" rx="0.492890984"></rect>
                                                </g>
                                                <line x1="0" y1="4" x2="88.7475163" y2="4" id="直线" stroke="#F2F3F5" stroke-width="0.25"></line>
                                            </g>
                                            <g id="编组-29备份-6" transform="translate(0.0144, 28)">
                                                <rect id="矩形备份-12" fill="#FFFFFF" x="0" y="0" width="90" height="4"></rect>
                                                <g id="编组-23" transform="translate(2, 1.391)" fill="#E5E7EC">
                                                    <rect id="矩形" x="3.75829384" y="0.00751879699" width="14" height="1.5" rx="0.492890984"></rect>
                                                    <rect id="矩形" x="0" y="0" width="1.48880597" height="1.5" rx="0.5"></rect>
                                                    <rect id="矩形备份-7" x="22" y="0.00751879699" width="13" height="1.5" rx="0.492890984"></rect>
                                                    <rect id="矩形备份-10" x="56" y="0.00751879699" width="13" height="1.5" rx="0.492890984"></rect>
                                                    <rect id="矩形备份-11" x="73" y="0.00751879699" width="13" height="1.5" rx="0.492890984"></rect>
                                                    <rect id="矩形备份-9" x="39" y="0.00751879699" width="13" height="1.5" rx="0.492890984"></rect>
                                                </g>
                                                <line x1="0" y1="4" x2="88.7475163" y2="4" id="直线" stroke="#F2F3F5" stroke-width="0.25"></line>
                                            </g>
                                            <g id="编组-29备份-7" transform="translate(0.0144, 32)">
                                                <rect id="矩形备份-12" fill="#FFFFFF" x="0" y="0" width="90" height="4"></rect>
                                                <g id="编组-23" transform="translate(2, 1.391)" fill="#E5E7EC">
                                                    <rect id="矩形" x="3.75829384" y="0.00751879699" width="14" height="1.5" rx="0.492890984"></rect>
                                                    <rect id="矩形" x="0" y="0" width="1.48880597" height="1.5" rx="0.5"></rect>
                                                    <rect id="矩形备份-7" x="22" y="0.00751879699" width="13" height="1.5" rx="0.492890984"></rect>
                                                    <rect id="矩形备份-10" x="56" y="0.00751879699" width="13" height="1.5" rx="0.492890984"></rect>
                                                    <rect id="矩形备份-11" x="73" y="0.00751879699" width="13" height="1.5" rx="0.492890984"></rect>
                                                    <rect id="矩形备份-9" x="39" y="0.00751879699" width="13" height="1.5" rx="0.492890984"></rect>
                                                </g>
                                                <line x1="0" y1="4" x2="88.7475163" y2="4" id="直线" stroke="#F2F3F5" stroke-width="0.25"></line>
                                            </g>
                                            <g id="编组-29备份-8" transform="translate(0.0144, 36)">
                                                <rect id="矩形备份-12" fill="#FFFFFF" x="0" y="0" width="90" height="4"></rect>
                                                <g id="编组-23" transform="translate(2, 1.391)" fill="#E5E7EC">
                                                    <rect id="矩形" x="3.75829384" y="0.00751879699" width="14" height="1.5" rx="0.492890984"></rect>
                                                    <rect id="矩形" x="0" y="0" width="1.48880597" height="1.5" rx="0.5"></rect>
                                                    <rect id="矩形备份-7" x="22" y="0.00751879699" width="13" height="1.5" rx="0.492890984"></rect>
                                                    <rect id="矩形备份-10" x="56" y="0.00751879699" width="13" height="1.5" rx="0.492890984"></rect>
                                                    <rect id="矩形备份-11" x="73" y="0.00751879699" width="13" height="1.5" rx="0.492890984"></rect>
                                                    <rect id="矩形备份-9" x="39" y="0.00751879699" width="13" height="1.5" rx="0.492890984"></rect>
                                                </g>
                                                <line x1="0" y1="4" x2="88.7475163" y2="4" id="直线" stroke="#F2F3F5" stroke-width="0.25"></line>
                                            </g>
                                            <g id="编组-29备份-9" transform="translate(0.0144, 40)">
                                                <rect id="矩形备份-12" fill="#FFFFFF" x="0" y="0" width="90" height="4"></rect>
                                                <g id="编组-23" transform="translate(2, 1.391)" fill="#E5E7EC">
                                                    <rect id="矩形" x="3.75829384" y="0.00751879699" width="14" height="1.5" rx="0.492890984"></rect>
                                                    <rect id="矩形" x="0" y="0" width="1.48880597" height="1.5" rx="0.5"></rect>
                                                    <rect id="矩形备份-7" x="22" y="0.00751879699" width="13" height="1.5" rx="0.492890984"></rect>
                                                    <rect id="矩形备份-10" x="56" y="0.00751879699" width="13" height="1.5" rx="0.492890984"></rect>
                                                    <rect id="矩形备份-11" x="73" y="0.00751879699" width="13" height="1.5" rx="0.492890984"></rect>
                                                    <rect id="矩形备份-9" x="39" y="0.00751879699" width="13" height="1.5" rx="0.492890984"></rect>
                                                </g>
                                                <line x1="0" y1="4" x2="88.7475163" y2="4" id="直线" stroke="#F2F3F5" stroke-width="0.25"></line>
                                            </g>
                                            <g id="编组-29备份-10" transform="translate(0.0144, 44)">
                                                <rect id="矩形备份-12" fill="#FFFFFF" x="0" y="0" width="90" height="4"></rect>
                                                <g id="编组-23" transform="translate(2, 1.391)" fill="#E5E7EC">
                                                    <rect id="矩形" x="3.75829384" y="0.00751879699" width="14" height="1.5" rx="0.492890984"></rect>
                                                    <rect id="矩形" x="0" y="0" width="1.48880597" height="1.5" rx="0.5"></rect>
                                                    <rect id="矩形备份-7" x="22" y="0.00751879699" width="13" height="1.5" rx="0.492890984"></rect>
                                                    <rect id="矩形备份-10" x="56" y="0.00751879699" width="13" height="1.5" rx="0.492890984"></rect>
                                                    <rect id="矩形备份-11" x="73" y="0.00751879699" width="13" height="1.5" rx="0.492890984"></rect>
                                                    <rect id="矩形备份-9" x="39" y="0.00751879699" width="13" height="1.5" rx="0.492890984"></rect>
                                                </g>
                                                <line x1="0" y1="4" x2="88.7475163" y2="4" id="直线" stroke="#F2F3F5" stroke-width="0.25"></line>
                                            </g>
                                        </g>
                                    </g>
                                </g>
                            </g>
                        </g>
                    </g>
                </g>
            </g>
        </g>
    </g>
</svg>