<?xml version="1.0" encoding="UTF-8"?>
<svg width="249px" height="136px" viewBox="0 0 249 136" version="1.1" xmlns="http://www.w3.org/2000/svg" xmlns:xlink="http://www.w3.org/1999/xlink">
    <title>暂无数据</title>
    <defs>
        <path d="M107.514333,5.51355556 L181.947333,5.51355556 C183.46986,5.51355556 184.704111,6.74780701 184.704111,8.27033333 L184.704111,57.8923333 C184.704111,59.4148597 183.46986,60.6491111 181.947333,60.6491111 L107.514333,60.6491111 C105.991807,60.6491111 104.757556,59.4148597 104.757556,57.8923333 L104.757556,8.27033333 C104.757556,6.74780701 105.991807,5.51355556 107.514333,5.51355556 Z" id="contractAgreementNoData-1"></path>
        <filter x="-35.0%" y="-36.3%" width="170.0%" height="201.6%" filterUnits="objectBoundingBox" id="filter-2">
            <feOffset dx="0" dy="8" in="SourceAlpha" result="shadowOffsetOuter1"></feOffset>
            <feGaussianBlur stdDeviation="8" in="shadowOffsetOuter1" result="shadowBlurOuter1"></feGaussianBlur>
            <feColorMatrix values="0 0 0 0 0.11372549   0 0 0 0 0.129411765   0 0 0 0 0.160784314  0 0 0 0.08 0" type="matrix" in="shadowBlurOuter1" result="shadowMatrixOuter1"></feColorMatrix>
            <feOffset dx="0" dy="4" in="SourceAlpha" result="shadowOffsetOuter2"></feOffset>
            <feGaussianBlur stdDeviation="4" in="shadowOffsetOuter2" result="shadowBlurOuter2"></feGaussianBlur>
            <feColorMatrix values="0 0 0 0 0.11372549   0 0 0 0 0.129411765   0 0 0 0 0.160784314  0 0 0 0.08 0" type="matrix" in="shadowBlurOuter2" result="shadowMatrixOuter2"></feColorMatrix>
            <feOffset dx="0" dy="2" in="SourceAlpha" result="shadowOffsetOuter3"></feOffset>
            <feGaussianBlur stdDeviation="2" in="shadowOffsetOuter3" result="shadowBlurOuter3"></feGaussianBlur>
            <feColorMatrix values="0 0 0 0 0.11372549   0 0 0 0 0.129411765   0 0 0 0 0.160784314  0 0 0 0.06 0" type="matrix" in="shadowBlurOuter3" result="shadowMatrixOuter3"></feColorMatrix>
            <feMerge>
                <feMergeNode in="shadowMatrixOuter1"></feMergeNode>
                <feMergeNode in="shadowMatrixOuter2"></feMergeNode>
                <feMergeNode in="shadowMatrixOuter3"></feMergeNode>
            </feMerge>
        </filter>
        <path d="M111.6495,22.0542222 L141.974056,22.0542222 C142.735319,22.0542222 143.352444,22.6713479 143.352444,23.4326111 L143.352444,26.1893889 C143.352444,26.9506521 142.735319,27.5677778 141.974056,27.5677778 L111.6495,27.5677778 C110.888237,27.5677778 110.271111,26.9506521 110.271111,26.1893889 L110.271111,23.4326111 C110.271111,22.6713479 110.888237,22.0542222 111.6495,22.0542222 Z" id="contractAgreementNoData-3"></path>
        <path d="M111.6495,11.0271111 L161.2715,11.0271111 C162.032763,11.0271111 162.649889,11.6442368 162.649889,12.4055 L162.649889,15.1622778 C162.649889,15.9235409 162.032763,16.5406667 161.2715,16.5406667 L111.6495,16.5406667 C110.888237,16.5406667 110.271111,15.9235409 110.271111,15.1622778 L110.271111,12.4055 C110.271111,11.6442368 110.888237,11.0271111 111.6495,11.0271111 Z" id="contractAgreementNoData-4"></path>
        <path d="M1.15728111,6.95963318 L0.333553723,8.35586184 C0.282322903,8.44269943 0.282747235,8.55108095 0.33419656,8.63735477 L0.337702101,8.64307312 C0.374133373,8.70090389 0.450944634,8.7304799 0.568135882,8.73180113 L0.576493064,8.73184747 L0.976872058,8.73184747 C1.09672674,8.73184747 1.21616342,8.71747537 1.33270858,8.6890288 L8.41801786,6.95963318 L1.15728111,6.95963318 Z" id="contractAgreementNoData-5"></path>
        <path d="M2.90291056,4.30131176 L16.5406667,4.30131176 L0.449884806,0.0117757799 C0.27979485,-0.033567474 0.103221628,0.0554743868 0.0354329444,0.219731011 L0.0330016153,0.225773851 C-0.028443788,0.382488663 -0.00293347972,0.560636547 0.0999111271,0.693027831 L2.90291056,4.30131176 Z" id="contractAgreementNoData-6"></path>
        <polygon id="contractAgreementNoData-7" points="16.5406667 4.30131176 2.90388178 4.30131176 1.16301563 6.95963318 4.9348923 6.95963318"></polygon>
        <path d="M16.5406667,4.30131176 L8.70472734,11.6855379 C8.57760805,11.7470732 8.48094552,11.7778408 8.41473976,11.7778408 C8.34853399,11.7778408 8.25396303,11.7470732 8.13102688,11.6855379 L4.21619457,6.36889509 C4.1980938,6.15391775 4.21419019,6.01227783 4.26448374,5.94397533 C4.31477729,5.87567282 4.44367469,5.82040004 4.65117594,5.77815699 L16.5406667,4.30131176 Z" id="contractAgreementNoData-8"></path>
    </defs>
    <g id="页面-1" stroke="none" stroke-width="1" fill="none" fill-rule="evenodd">
        <g id="暂无执行情况" transform="translate(-892.000000, -313.000000)">
            <g id="编组-3" transform="translate(892.000000, 316.000000)">
                <g id="编组-3备份" transform="translate(0.000000, -0.000000)">
                    <g id="编组-2" transform="translate(46.865222, 0.000000)">
                        <g id="编组" transform="translate(0.000000, 22.054222)">
                            <g id="背景">
                                <path d="M2.75677778,0 L151.622778,0 C153.145304,0 154.379556,1.23425145 154.379556,2.75677778 L154.379556,107.514333 C154.379556,109.03686 153.145304,110.271111 151.622778,110.271111 L2.75677778,110.271111 C1.23425145,110.271111 0,109.03686 0,107.514333 L0,2.75677778 C0,1.23425145 1.23425145,0 2.75677778,0 Z" id="矩形" fill="#F1F4F8"></path>
                                <path d="M2.75677778,0 L151.622778,0 C153.145304,0 154.379556,1.23425145 154.379556,2.75677778 L154.379556,11.0271111 L0,11.0271111 L0,2.75677778 C0,1.23425145 1.23425145,0 2.75677778,0 Z" id="矩形" fill="#DBDEE3"></path>
                                <circle id="椭圆形" fill="#FFFFFF" cx="8.27033333" cy="5.51355556" r="2.75677778"></circle>
                                <circle id="椭圆形备份" fill="#FFFFFF" cx="19.2974444" cy="5.51355556" r="2.75677778"></circle>
                                <circle id="椭圆形备份-2" fill="#FFFFFF" cx="30.3245556" cy="5.51355556" r="2.75677778"></circle>
                                <path d="M8.27033333,16.5406667 L146.109222,16.5406667 C147.631749,16.5406667 148.866,17.7749181 148.866,19.2974444 L148.866,102.000778 C148.866,103.523304 147.631749,104.757556 146.109222,104.757556 L8.27033333,104.757556 C6.74780701,104.757556 5.51355556,103.523304 5.51355556,102.000778 L5.51355556,19.2974444 C5.51355556,17.7749181 6.74780701,16.5406667 8.27033333,16.5406667 Z" id="矩形" fill="#FFFFFF"></path>
                                <path d="M8.27033333,16.5406667 L44.1084444,16.5406667 L44.1084444,104.757556 L8.27033333,104.757556 C6.74780701,104.757556 5.51355556,103.523304 5.51355556,102.000778 L5.51355556,19.2974444 C5.51355556,17.7749181 6.74780701,16.5406667 8.27033333,16.5406667 Z" id="矩形" fill="#E2E5E9"></path>
                                <path d="M12.4055,22.0542222 L15.1622778,22.0542222 C15.9235409,22.0542222 16.5406667,22.6713479 16.5406667,23.4326111 L16.5406667,26.1893889 C16.5406667,26.9506521 15.9235409,27.5677778 15.1622778,27.5677778 L12.4055,27.5677778 C11.6442368,27.5677778 11.0271111,26.9506521 11.0271111,26.1893889 L11.0271111,23.4326111 C11.0271111,22.6713479 11.6442368,22.0542222 12.4055,22.0542222 Z" id="矩形" fill="#FFFFFF"></path>
                                <path d="M23.4326111,22.0542222 L37.2165,22.0542222 C37.9777632,22.0542222 38.5948889,22.6713479 38.5948889,23.4326111 L38.5948889,26.1893889 C38.5948889,26.9506521 37.9777632,27.5677778 37.2165,27.5677778 L23.4326111,27.5677778 C22.6713479,27.5677778 22.0542222,26.9506521 22.0542222,26.1893889 L22.0542222,23.4326111 C22.0542222,22.6713479 22.6713479,22.0542222 23.4326111,22.0542222 Z" id="矩形备份" fill="#FFFFFF"></path>
                                <path d="M12.4055,33.0813333 L37.2165,33.0813333 C37.9777632,33.0813333 38.5948889,33.6984591 38.5948889,34.4597222 L38.5948889,37.2165 C38.5948889,37.9777632 37.9777632,38.5948889 37.2165,38.5948889 L12.4055,38.5948889 C11.6442368,38.5948889 11.0271111,37.9777632 11.0271111,37.2165 L11.0271111,34.4597222 C11.0271111,33.6984591 11.6442368,33.0813333 12.4055,33.0813333 Z" id="矩形备份-2" fill="#FFFFFF"></path>
                                <path d="M12.4055,44.1084444 L31.7029444,44.1084444 C32.4642076,44.1084444 33.0813333,44.7255702 33.0813333,45.4868333 L33.0813333,48.2436111 C33.0813333,49.0048743 32.4642076,49.622 31.7029444,49.622 L12.4055,49.622 C11.6442368,49.622 11.0271111,49.0048743 11.0271111,48.2436111 L11.0271111,45.4868333 C11.0271111,44.7255702 11.6442368,44.1084444 12.4055,44.1084444 Z" id="矩形备份-3" fill="#FFFFFF"></path>
                                <path d="M12.4055,55.1355556 L37.2165,55.1355556 C37.9777632,55.1355556 38.5948889,55.7526813 38.5948889,56.5139444 L38.5948889,59.2707222 C38.5948889,60.0319854 37.9777632,60.6491111 37.2165,60.6491111 L12.4055,60.6491111 C11.6442368,60.6491111 11.0271111,60.0319854 11.0271111,59.2707222 L11.0271111,56.5139444 C11.0271111,55.7526813 11.6442368,55.1355556 12.4055,55.1355556 Z" id="矩形备份-4" fill="#FFFFFF"></path>
                                <path d="M12.4055,66.1626667 L23.4326111,66.1626667 C24.1938743,66.1626667 24.811,66.7797924 24.811,67.5410556 L24.811,70.2978333 C24.811,71.0590965 24.1938743,71.6762222 23.4326111,71.6762222 L12.4055,71.6762222 C11.6442368,71.6762222 11.0271111,71.0590965 11.0271111,70.2978333 L11.0271111,67.5410556 C11.0271111,66.7797924 11.6442368,66.1626667 12.4055,66.1626667 Z" id="矩形备份-5" fill="#FFFFFF"></path>
                            </g>
                            <path d="M51.0003889,22.0542222 L67.5410556,22.0542222 C68.3023187,22.0542222 68.9194444,22.6713479 68.9194444,23.4326111 L68.9194444,28.9461667 C68.9194444,29.7074298 68.3023187,30.3245556 67.5410556,30.3245556 L51.0003889,30.3245556 C50.2391257,30.3245556 49.622,29.7074298 49.622,28.9461667 L49.622,23.4326111 C49.622,22.6713479 50.2391257,22.0542222 51.0003889,22.0542222 Z" id="矩形" fill="#F1F4F8"></path>
                            <path d="M75.8113889,22.0542222 L92.3520556,22.0542222 C93.1133187,22.0542222 93.7304444,22.6713479 93.7304444,23.4326111 L93.7304444,28.9461667 C93.7304444,29.7074298 93.1133187,30.3245556 92.3520556,30.3245556 L75.8113889,30.3245556 C75.0501257,30.3245556 74.433,29.7074298 74.433,28.9461667 L74.433,23.4326111 C74.433,22.6713479 75.0501257,22.0542222 75.8113889,22.0542222 Z" id="矩形备份" fill="#F1F4F8"></path>
                            <path d="M51.0003889,41.3516667 L97.8656111,41.3516667 C98.6268743,41.3516667 99.244,41.9687924 99.244,42.7300556 C99.244,43.4913187 98.6268743,44.1084444 97.8656111,44.1084444 L51.0003889,44.1084444 C50.2391257,44.1084444 49.622,43.4913187 49.622,42.7300556 C49.622,41.9687924 50.2391257,41.3516667 51.0003889,41.3516667 Z" id="矩形备份-2" fill="#F1F4F8"></path>
                            <path d="M106.135944,41.3516667 L141.974056,41.3516667 C142.735319,41.3516667 143.352444,41.9687924 143.352444,42.7300556 C143.352444,43.4913187 142.735319,44.1084444 141.974056,44.1084444 L106.135944,44.1084444 C105.374681,44.1084444 104.757556,43.4913187 104.757556,42.7300556 C104.757556,41.9687924 105.374681,41.3516667 106.135944,41.3516667 Z" id="矩形备份-3" fill="#F1F4F8"></path>
                            <path d="M51.0003889,49.622 L75.8113889,49.622 C76.5726521,49.622 77.1897778,50.2391257 77.1897778,51.0003889 C77.1897778,51.7616521 76.5726521,52.3787778 75.8113889,52.3787778 L51.0003889,52.3787778 C50.2391257,52.3787778 49.622,51.7616521 49.622,51.0003889 C49.622,50.2391257 50.2391257,49.622 51.0003889,49.622 Z" id="矩形备份-6" fill="#F1F4F8"></path>
                            <path d="M84.0817222,49.622 L108.892722,49.622 C109.653985,49.622 110.271111,50.2391257 110.271111,51.0003889 C110.271111,51.7616521 109.653985,52.3787778 108.892722,52.3787778 L84.0817222,52.3787778 C83.3204591,52.3787778 82.7033333,51.7616521 82.7033333,51.0003889 C82.7033333,50.2391257 83.3204591,49.622 84.0817222,49.622 Z" id="矩形备份-7" fill="#F1F4F8"></path>
                            <path d="M117.163056,49.622 L141.974056,49.622 C142.735319,49.622 143.352444,50.2391257 143.352444,51.0003889 C143.352444,51.7616521 142.735319,52.3787778 141.974056,52.3787778 L117.163056,52.3787778 C116.401792,52.3787778 115.784667,51.7616521 115.784667,51.0003889 C115.784667,50.2391257 116.401792,49.622 117.163056,49.622 Z" id="矩形备份-8" fill="#F1F4F8"></path>
                            <path d="M143.352444,35.4935139 C143.54276,35.4935139 143.697042,35.7173715 143.697042,35.9935139 C143.697042,36.2696563 143.54276,36.4935139 143.352444,36.4935139 L49.622,36.4935139 C49.4316842,36.4935139 49.2774028,36.2696563 49.2774028,35.9935139 C49.2774028,35.7173715 49.4316842,35.4935139 49.622,35.4935139 L143.352444,35.4935139 Z" id="路径" fill="#F1F4F8" fill-rule="nonzero"></path>
                            <path d="M51.0003889,60.6491111 L53.7571667,60.6491111 C54.5184298,60.6491111 55.1355556,61.2662368 55.1355556,62.0275 L55.1355556,64.7842778 C55.1355556,65.5455409 54.5184298,66.1626667 53.7571667,66.1626667 L51.0003889,66.1626667 C50.2391257,66.1626667 49.622,65.5455409 49.622,64.7842778 L49.622,62.0275 C49.622,61.2662368 50.2391257,60.6491111 51.0003889,60.6491111 Z" id="矩形" fill="#F1F4F8"></path>
                            <path d="M51.0003889,71.6762222 L53.7571667,71.6762222 C54.5184298,71.6762222 55.1355556,72.2933479 55.1355556,73.0546111 L55.1355556,75.8113889 C55.1355556,76.5726521 54.5184298,77.1897778 53.7571667,77.1897778 L51.0003889,77.1897778 C50.2391257,77.1897778 49.622,76.5726521 49.622,75.8113889 L49.622,73.0546111 C49.622,72.2933479 50.2391257,71.6762222 51.0003889,71.6762222 Z" id="矩形备份-4" fill="#F1F4F8"></path>
                            <path d="M62.0275,60.6491111 L97.8656111,60.6491111 C98.6268743,60.6491111 99.244,61.2662368 99.244,62.0275 L99.244,64.7842778 C99.244,65.5455409 98.6268743,66.1626667 97.8656111,66.1626667 L62.0275,66.1626667 C61.2662368,66.1626667 60.6491111,65.5455409 60.6491111,64.7842778 L60.6491111,62.0275 C60.6491111,61.2662368 61.2662368,60.6491111 62.0275,60.6491111 Z" id="矩形备份-10" fill="#F1F4F8"></path>
                            <path d="M106.135944,60.6491111 L119.919833,60.6491111 C120.681096,60.6491111 121.298222,61.2662368 121.298222,62.0275 L121.298222,64.7842778 C121.298222,65.5455409 120.681096,66.1626667 119.919833,66.1626667 L106.135944,66.1626667 C105.374681,66.1626667 104.757556,65.5455409 104.757556,64.7842778 L104.757556,62.0275 C104.757556,61.2662368 105.374681,60.6491111 106.135944,60.6491111 Z" id="矩形备份-14" fill="#FDEEEA"></path>
                            <path d="M62.0275,71.6762222 L117.163056,71.6762222 C117.924319,71.6762222 118.541444,72.2933479 118.541444,73.0546111 L118.541444,75.8113889 C118.541444,76.5726521 117.924319,77.1897778 117.163056,77.1897778 L62.0275,77.1897778 C61.2662368,77.1897778 60.6491111,76.5726521 60.6491111,75.8113889 L60.6491111,73.0546111 C60.6491111,72.2933479 61.2662368,71.6762222 62.0275,71.6762222 Z" id="矩形备份-11" fill="#F1F4F8"></path>
                            <path d="M51.0003889,82.7033333 L53.7571667,82.7033333 C54.5184298,82.7033333 55.1355556,83.3204591 55.1355556,84.0817222 L55.1355556,86.8385 C55.1355556,87.5997632 54.5184298,88.2168889 53.7571667,88.2168889 L51.0003889,88.2168889 C50.2391257,88.2168889 49.622,87.5997632 49.622,86.8385 L49.622,84.0817222 C49.622,83.3204591 50.2391257,82.7033333 51.0003889,82.7033333 Z" id="矩形备份-5" fill="#F1F4F8"></path>
                            <path d="M62.0275,82.7033333 L117.163056,82.7033333 C117.924319,82.7033333 118.541444,83.3204591 118.541444,84.0817222 L118.541444,86.8385 C118.541444,87.5997632 117.924319,88.2168889 117.163056,88.2168889 L62.0275,88.2168889 C61.2662368,88.2168889 60.6491111,87.5997632 60.6491111,86.8385 L60.6491111,84.0817222 C60.6491111,83.3204591 61.2662368,82.7033333 62.0275,82.7033333 Z" id="矩形备份-12" fill="#F1F4F8"></path>
                            <path d="M51.0003889,93.7304444 L53.7571667,93.7304444 C54.5184298,93.7304444 55.1355556,94.3475702 55.1355556,95.1088333 L55.1355556,97.8656111 C55.1355556,98.6268743 54.5184298,99.244 53.7571667,99.244 L51.0003889,99.244 C50.2391257,99.244 49.622,98.6268743 49.622,97.8656111 L49.622,95.1088333 C49.622,94.3475702 50.2391257,93.7304444 51.0003889,93.7304444 Z" id="矩形备份-9" fill="#F1F4F8"></path>
                            <path d="M62.0275,93.7304444 L106.135944,93.7304444 C106.897208,93.7304444 107.514333,94.3475702 107.514333,95.1088333 L107.514333,97.8656111 C107.514333,98.6268743 106.897208,99.244 106.135944,99.244 L62.0275,99.244 C61.2662368,99.244 60.6491111,98.6268743 60.6491111,97.8656111 L60.6491111,95.1088333 C60.6491111,94.3475702 61.2662368,93.7304444 62.0275,93.7304444 Z" id="矩形备份-13" fill="#F1F4F8"></path>
                            <circle id="椭圆形" fill="#FDEEEA" cx="140.595667" cy="63.4058889" r="2.75677778"></circle>
                            <circle id="椭圆形备份" fill="#FDEEEA" cx="140.595667" cy="74.433" r="2.75677778"></circle>
                            <circle id="椭圆形备份-2" fill="#ECF7F2" cx="140.595667" cy="85.4601111" r="2.75677778"></circle>
                            <circle id="椭圆形备份-3" fill="#ECF7F2" cx="140.595667" cy="96.4872222" r="2.75677778"></circle>
                        </g>
                        <g id="矩形">
                            <use fill="black" fill-opacity="1" filter="url(#filter-2)" xlink:href="#contractAgreementNoData-1"></use>
                            <use fill="#FFFFFF" fill-rule="evenodd" xlink:href="#contractAgreementNoData-1"></use>
                        </g>
                        <g id="矩形">
                            <use fill="currentColor" xlink:href="#contractAgreementNoData-3"></use>
                            <use fill-opacity="0.8" fill="#FFFFFF" xlink:href="#contractAgreementNoData-3"></use>
                        </g>
                        <g id="矩形备份-15">
                            <use fill="currentColor" xlink:href="#contractAgreementNoData-4"></use>
                            <use fill-opacity="0.4" fill="#FFFFFF" xlink:href="#contractAgreementNoData-4"></use>
                        </g>
                        <path d="M110.960306,33.0813333 L117.85225,33.0813333 C118.232882,33.0813333 118.541444,33.3898962 118.541444,33.7705278 L118.541444,40.6624722 C118.541444,41.0431038 118.232882,41.3516667 117.85225,41.3516667 L110.960306,41.3516667 C110.579674,41.3516667 110.271111,41.0431038 110.271111,40.6624722 L110.271111,33.7705278 C110.271111,33.3898962 110.579674,33.0813333 110.960306,33.0813333 Z" id="矩形" fill="#ECF7F2"></path>
                        <path d="M124.744194,35.8381111 L164.717472,35.8381111 C165.098104,35.8381111 165.406667,36.146674 165.406667,36.5273056 L165.406667,37.9056944 C165.406667,38.286326 165.098104,38.5948889 164.717472,38.5948889 L124.744194,38.5948889 C124.363563,38.5948889 124.055,38.286326 124.055,37.9056944 L124.055,36.5273056 C124.055,36.146674 124.363563,35.8381111 124.744194,35.8381111 Z" id="矩形备份-17" fill="#ECF7F2"></path>
                        <path d="M124.744194,49.622 L164.717472,49.622 C165.098104,49.622 165.406667,49.9305629 165.406667,50.3111944 L165.406667,51.6895833 C165.406667,52.0702149 165.098104,52.3787778 164.717472,52.3787778 L124.744194,52.3787778 C124.363563,52.3787778 124.055,52.0702149 124.055,51.6895833 L124.055,50.3111944 C124.055,49.9305629 124.363563,49.622 124.744194,49.622 Z" id="矩形备份-18" fill="#FDF2E8"></path>
                        <path d="M110.960306,46.8652222 L117.85225,46.8652222 C118.232882,46.8652222 118.541444,47.1737851 118.541444,47.5544167 L118.541444,54.4463611 C118.541444,54.8269927 118.232882,55.1355556 117.85225,55.1355556 L110.960306,55.1355556 C110.579674,55.1355556 110.271111,54.8269927 110.271111,54.4463611 L110.271111,47.5544167 C110.271111,47.1737851 110.579674,46.8652222 110.960306,46.8652222 Z" id="矩形备份-16" fill="#FDF2E8"></path>
                        <circle id="椭圆形" fill="#ECF7F2" cx="177.812167" cy="37.2165" r="1.37838889"></circle>
                        <circle id="椭圆形备份-5" fill="#ECF7F2" cx="172.298611" cy="37.2165" r="1.37838889"></circle>
                        <circle id="椭圆形备份-4" fill="#FDF2E8" cx="177.812167" cy="51.0003889" r="1.37838889"></circle>
                        <circle id="椭圆形备份-6" fill="#FDF2E8" cx="172.298611" cy="51.0003889" r="1.37838889"></circle>
                        <g id="元素/纸飞机/主色备份" transform="translate(91.075209, 0.000000)">
                            <g id="路径-14">
                                <use fill="currentColor" xlink:href="#contractAgreementNoData-5"></use>
                                <use fill-opacity="0.4" fill="#FFFFFF" xlink:href="#contractAgreementNoData-5"></use>
                            </g>
                            <g id="路径-5">
                                <use fill="currentColor" xlink:href="#contractAgreementNoData-6"></use>
                                <use fill-opacity="0.2" fill="#FFFFFF" xlink:href="#contractAgreementNoData-6"></use>
                            </g>
                            <g id="路径-12">
                                <use fill="currentColor" xlink:href="#contractAgreementNoData-7"></use>
                                <use fill-opacity="0.2" fill="#000000" xlink:href="#contractAgreementNoData-7"></use>
                            </g>
                            <g id="路径-13">
                                <use fill="currentColor" xlink:href="#contractAgreementNoData-8"></use>
                                <use fill-opacity="0.2" fill="#FFFFFF" xlink:href="#contractAgreementNoData-8"></use>
                            </g>
                        </g>
                        <path d="M90.713192,8.73391707 C90.0757975,9.46980915 89.4873662,10.1827414 88.9478882,10.8727623 L89.4908378,11.2972557 C90.0230082,10.6165817 90.6041127,9.91252641 91.2341413,9.18513848 L90.713192,8.73391707 Z M87.3071453,13.1233686 C86.7441405,13.9612618 86.2650856,14.760306 85.870029,15.5207749 L86.4816213,15.8384915 C86.8642215,15.1020006 87.3300638,14.3249944 87.8791966,13.5077465 L87.3071453,13.1233686 Z M84.7948492,18.1474909 C84.4961607,19.2008948 84.4059391,20.1633409 84.5278053,21.0340382 L85.2103467,20.938507 C85.1026488,20.1690377 85.1839612,19.3016316 85.4579046,18.3354977 L84.7948492,18.1474909 Z M85.8384778,23.7052114 C86.2432181,24.1220635 86.7362971,24.4935029 87.3166896,24.8200832 C87.6711691,25.0168614 87.980415,25.1719078 88.2858888,25.3070219 L88.5646732,24.6767297 C88.2788815,24.5503212 87.9881044,24.4045345 87.6529216,24.2184745 C87.1299546,23.9242003 86.6897235,23.5925715 86.3329423,23.2251137 L85.8384778,23.7052114 Z M91.1242878,25.9291633 C92.2987426,25.861042 93.19455,25.2868768 93.6849093,24.3704319 L93.0772345,24.0452853 C92.6999088,24.7504788 92.0189835,25.1869159 91.0843799,25.2411252 L91.1242878,25.9291633 Z M93.7525379,21.2985812 C93.361671,20.4535513 92.6545172,19.8514779 91.7367314,19.6500524 C91.5881594,19.6174455 91.4387134,19.5897972 91.2886611,19.5671316 L91.1857249,20.2485955 C91.3207651,20.2689936 91.4552681,20.2938773 91.5889909,20.3232253 C92.2887671,20.4768044 92.8237674,20.9323058 93.1270178,21.5879143 L93.7525379,21.2985812 Z M88.3778793,19.760397 C87.4160493,20.0443198 86.5483581,20.5432149 85.8487013,21.224282 L86.3294305,21.7181326 C86.9475313,21.1164545 87.7168484,20.6741214 88.5729991,20.4213942 L88.3778793,19.760397 Z M84.3476639,23.6913006 C84.1119739,24.4507293 84.0124258,25.2815522 84.0570883,26.1700586 L84.0713499,26.3976662 C84.0764694,26.4681556 84.0820597,26.5347827 84.0884354,26.6020997 L84.7745593,26.5371157 L84.7540316,26.2797836 C84.751019,26.2339682 84.7481517,26.1858286 84.7453412,26.1340734 C84.7047427,25.3263578 84.7946061,24.5763617 85.0058875,23.8955815 L84.3476639,23.6913006 Z M84.8524185,29.3873789 C85.2679221,30.2288197 85.8501692,30.9930157 86.6148291,31.6756757 L87.0738165,31.1615556 C86.3749197,30.5376064 85.8466944,29.8443137 85.4703777,29.0822306 L84.8524185,29.3873789 Z M89.0016842,33.2506951 C89.7789132,33.6336137 90.6532193,33.9708029 91.6290662,34.2609419 L91.82548,33.6003281 C90.8857276,33.3209207 90.0475402,32.9976612 89.3062714,32.6324592 L89.0016842,33.2506951 Z M94.3515269,34.8998583 C95.2116786,35.0556232 96.1298724,35.1842998 97.1077095,35.2852899 L97.1785122,34.599742 C96.2177074,34.500511 95.3168273,34.3742608 94.4743357,34.2216939 L94.3515269,34.8998583 Z M99.8810892,35.4896071 C100.764458,35.530969 101.687827,35.5536074 102.651951,35.5572057 L102.654524,34.8680161 C101.700125,34.864454 100.786634,34.8420578 99.913324,34.8011669 L99.8810892,35.4896071 Z M105.387303,34.8299224 L105.40825,35.5187985 L106.146514,35.4933621 L106.120045,34.8046761 L105.387303,34.8299224 Z" id="路径-2" fill="currentColor" fill-rule="nonzero"></path>
                    </g>
                </g>
            </g>
        </g>
    </g>
</svg>