<?xml version="1.0" encoding="UTF-8"?>
<svg width="279px" height="268px" viewBox="0 0 279 268" version="1.1" xmlns="http://www.w3.org/2000/svg" xmlns:xlink="http://www.w3.org/1999/xlink">
    <title>编组 5</title>
    <defs>
        <rect id="path-2" x="0" y="0" width="279" height="268" rx="4"></rect>
        <mask id="mask-2" maskContentUnits="userSpaceOnUse" maskUnits="objectBoundingBox" x="0" y="0" width="279" height="268" fill="white">
            <use xlink:href="#path-2"></use>
        </mask>
    </defs>
    <g id="页面-1" stroke="none" stroke-width="1" fill="none" fill-rule="evenodd">
        <g id="编组-5">
            <use id="矩形" stroke="#C9CDD4" mask="url(#mask-2)" stroke-width="2" fill="#FFFFFF" stroke-dasharray="4" xlink:href="#path-2"></use>
            <g id="编组-3备份" transform="translate(16.000000, 16.000000)">
                <g id="展开备份-12" transform="translate(48.000000, 34.000000)">
                    <text id="purchaserAttachment" font-family="PingFangSC-Medium, PingFang SC" font-size="14" font-weight="400" line-spacing="22" fill="#1D2129">
                        <tspan x="48" y="15">采购方附件</tspan>
                    </text>
                    <g id="icon/folder_open" transform="translate(24.000000, 3.000000)">
                        <polygon id="folder_open" points="0 0 16 0 16 16 0 16"></polygon>
                        <path d="M4.2837196,7.81719059 L2,13.9069597 L12.9069597,13.9069597 L14.9380813,8.49048561 C15.1731503,7.86363507 14.7097543,7.1949845 14.0403546,7.1949845 L5.18144628,7.1949845 C4.78177393,7.1949845 4.42404206,7.44296126 4.2837196,7.81719059 Z M12.9069597,6.3559876 C12.9069597,5.42925721 12.1556963,4.6779938 11.2289659,4.6779938 L7.65214233,4.6779938 C7.52498258,4.67801433 7.40302347,4.6275169 7.31309769,4.53761164 L6.05640019,3.28091414 C5.87657315,3.10104868 5.63265191,3 5.37831091,3 L2.9588536,3 C2.42929338,3 2,3.42929338 2,3.9588536 L2,13.9069597 L3.51109335,7.10688983 C3.60856824,6.66813509 3.99772221,6.35596485 4.44717417,6.3559876 L12.9069597,6.3559876 Z" id="icon" fill="#00B8CC"></path>
                    </g>
                    <g id="Icon/baseline-arrow_right" transform="translate(0.000000, 3.000000)">
                        <polygon id="icon" fill="#1D2129" points="4.66666667 6.66666667 8 10 11.3333333 6.66666667"></polygon>
                        <rect id="baseline-arrow_drop_down" x="0" y="0" width="16" height="16"></rect>
                    </g>
                </g>
                <g id="展开备份-12">
                    <text id="contract1" font-family="PingFangSC-Medium, PingFang SC" font-size="14" font-weight="400" line-spacing="22" fill="#1D2129">
                        <tspan x="48" y="15">协议1</tspan>
                    </text>
                    <g id="icon/folder_open" transform="translate(24.000000, 3.000000)">
                        <polygon id="folder_open" points="0 0 16 0 16 16 0 16"></polygon>
                        <path d="M4.2837196,7.81719059 L2,13.9069597 L12.9069597,13.9069597 L14.9380813,8.49048561 C15.1731503,7.86363507 14.7097543,7.1949845 14.0403546,7.1949845 L5.18144628,7.1949845 C4.78177393,7.1949845 4.42404206,7.44296126 4.2837196,7.81719059 Z M12.9069597,6.3559876 C12.9069597,5.42925721 12.1556963,4.6779938 11.2289659,4.6779938 L7.65214233,4.6779938 C7.52498258,4.67801433 7.40302347,4.6275169 7.31309769,4.53761164 L6.05640019,3.28091414 C5.87657315,3.10104868 5.63265191,3 5.37831091,3 L2.9588536,3 C2.42929338,3 2,3.42929338 2,3.9588536 L2,13.9069597 L3.51109335,7.10688983 C3.60856824,6.66813509 3.99772221,6.35596485 4.44717417,6.3559876 L12.9069597,6.3559876 Z" id="icon" fill="#00B8CC"></path>
                    </g>
                    <g id="Icon/baseline-arrow_right" transform="translate(0.000000, 3.000000)">
                        <polygon id="icon" fill="#1D2129" points="4.66666667 6.66666667 8 10 11.3333333 6.66666667"></polygon>
                        <rect id="baseline-arrow_drop_down" x="0" y="0" width="16" height="16"></rect>
                    </g>
                </g>
                <g id="展开备份-13" transform="translate(0.000000, 180.000000)">
                    <text id="contract2" font-family="PingFangSC-Medium, PingFang SC" font-size="14" font-weight="400" line-spacing="22" fill="#1D2129">
                        <tspan x="48" y="15">协议2</tspan>
                    </text>
                    <g id="icon/folder_open" transform="translate(24.000000, 3.000000)">
                        <polygon id="folder_open" points="0 0 16 0 16 16 0 16"></polygon>
                        <path d="M4.2837196,7.81719059 L2,13.9069597 L12.9069597,13.9069597 L14.9380813,8.49048561 C15.1731503,7.86363507 14.7097543,7.1949845 14.0403546,7.1949845 L5.18144628,7.1949845 C4.78177393,7.1949845 4.42404206,7.44296126 4.2837196,7.81719059 Z M12.9069597,6.3559876 C12.9069597,5.42925721 12.1556963,4.6779938 11.2289659,4.6779938 L7.65214233,4.6779938 C7.52498258,4.67801433 7.40302347,4.6275169 7.31309769,4.53761164 L6.05640019,3.28091414 C5.87657315,3.10104868 5.63265191,3 5.37831091,3 L2.9588536,3 C2.42929338,3 2,3.42929338 2,3.9588536 L2,13.9069597 L3.51109335,7.10688983 C3.60856824,6.66813509 3.99772221,6.35596485 4.44717417,6.3559876 L12.9069597,6.3559876 Z" id="icon" fill="#00B8CC"></path>
                    </g>
                    <g id="Icon/baseline-arrow_right" transform="translate(8.000000, 11.000000) scale(-1, 1) rotate(90.000000) translate(-8.000000, -11.000000) translate(0.000000, 3.000000)">
                        <polygon id="icon" fill="#1D2129" points="4.66666667 6.66666667 8 10 11.3333333 6.66666667"></polygon>
                        <rect id="baseline-arrow_drop_down" x="0" y="0" width="16" height="16"></rect>
                    </g>
                </g>
                <g id="展开备份-14" transform="translate(0.000000, 214.000000)">
                    <text id="contract3" font-family="PingFangSC-Medium, PingFang SC" font-size="14" font-weight="400" line-spacing="22" fill="#1D2129">
                        <tspan x="48" y="15">协议3</tspan>
                    </text>
                    <g id="icon/folder_open" transform="translate(24.000000, 3.000000)">
                        <polygon id="folder_open" points="0 0 16 0 16 16 0 16"></polygon>
                        <path d="M4.2837196,7.81719059 L2,13.9069597 L12.9069597,13.9069597 L14.9380813,8.49048561 C15.1731503,7.86363507 14.7097543,7.1949845 14.0403546,7.1949845 L5.18144628,7.1949845 C4.78177393,7.1949845 4.42404206,7.44296126 4.2837196,7.81719059 Z M12.9069597,6.3559876 C12.9069597,5.42925721 12.1556963,4.6779938 11.2289659,4.6779938 L7.65214233,4.6779938 C7.52498258,4.67801433 7.40302347,4.6275169 7.31309769,4.53761164 L6.05640019,3.28091414 C5.87657315,3.10104868 5.63265191,3 5.37831091,3 L2.9588536,3 C2.42929338,3 2,3.42929338 2,3.9588536 L2,13.9069597 L3.51109335,7.10688983 C3.60856824,6.66813509 3.99772221,6.35596485 4.44717417,6.3559876 L12.9069597,6.3559876 Z" id="icon" fill="#00B8CC"></path>
                    </g>
                    <g id="Icon/baseline-arrow_right" transform="translate(8.000000, 11.000000) scale(-1, 1) rotate(90.000000) translate(-8.000000, -11.000000) translate(0.000000, 3.000000)">
                        <polygon id="icon" fill="#1D2129" points="4.66666667 6.66666667 8 10 11.3333333 6.66666667"></polygon>
                        <rect id="baseline-arrow_drop_down" x="0" y="0" width="16" height="16"></rect>
                    </g>
                </g>
                <g id="展开备份-12" transform="translate(48.000000, 102.000000)">
                    <text id="attachment" font-family="PingFangSC-Medium, PingFang SC" font-size="14" font-weight="400" line-spacing="22" fill="#1D2129">
                        <tspan x="48" y="15">附件</tspan>
                    </text>
                    <g id="icon/folder_open" transform="translate(24.000000, 3.000000)">
                        <polygon id="folder_open" points="0 0 16 0 16 16 0 16"></polygon>
                        <path d="M4.2837196,7.81719059 L2,13.9069597 L12.9069597,13.9069597 L14.9380813,8.49048561 C15.1731503,7.86363507 14.7097543,7.1949845 14.0403546,7.1949845 L5.18144628,7.1949845 C4.78177393,7.1949845 4.42404206,7.44296126 4.2837196,7.81719059 Z M12.9069597,6.3559876 C12.9069597,5.42925721 12.1556963,4.6779938 11.2289659,4.6779938 L7.65214233,4.6779938 C7.52498258,4.67801433 7.40302347,4.6275169 7.31309769,4.53761164 L6.05640019,3.28091414 C5.87657315,3.10104868 5.63265191,3 5.37831091,3 L2.9588536,3 C2.42929338,3 2,3.42929338 2,3.9588536 L2,13.9069597 L3.51109335,7.10688983 C3.60856824,6.66813509 3.99772221,6.35596485 4.44717417,6.3559876 L12.9069597,6.3559876 Z" id="icon" fill="#00B8CC"></path>
                    </g>
                    <g id="Icon/baseline-arrow_right" transform="translate(0.000000, 3.000000)">
                        <polygon id="icon" fill="#1D2129" points="4.66666667 6.66666667 8 10 11.3333333 6.66666667"></polygon>
                        <rect id="baseline-arrow_drop_down" x="0" y="0" width="16" height="16"></rect>
                    </g>
                </g>
                <polyline id="路径-2" stroke="#D9D9D9" points="80 58 80 61.524553 80 79 92 79"></polyline>
                <polyline id="路径-2备份" stroke="#D9D9D9" points="80 136 80 139.524553 80 157 92 157"></polyline>
                <polyline id="路径-2" stroke="#D9D9D9" points="32 24 32 27.524553 32 45 44 45"></polyline>
                <polyline id="路径-2备份-7" stroke="#D9D9D9" points="32 45 32 113 44 113"></polyline>
                <text id="attachment1" font-family="PingFangSC-Regular, PingFang SC" font-size="14" font-weight="normal" line-spacing="22" fill="#4E5769">
                    <tspan x="96" y="83">附件1</tspan>
                </text>
                <text id="attachment3" font-family="PingFangSC-Regular, PingFang SC" font-size="14" font-weight="normal" line-spacing="22" fill="#4E5769">
                    <tspan x="96" y="161">附件3</tspan>
                </text>
            </g>
        </g>
    </g>
</svg>
