<?xml version="1.0" encoding="UTF-8"?>
<svg width="54px" height="54px" viewBox="0 0 54 54" version="1.1" xmlns="http://www.w3.org/2000/svg" xmlns:xlink="http://www.w3.org/1999/xlink">
    <title>Icon/File/file_word</title>
    <g id="页面-2" stroke="none" stroke-width="1" fill="none" fill-rule="evenodd">
        <g id="Icon/File/file_word">
            <g id="编组-15" transform="translate(5.13, 0)" fill-rule="nonzero">
                <path d="M30.375,0 L43.875,13.5 L43.875,50.625 C43.875,52.4890125 42.3640125,54 40.5,54 L3.375,54 C1.5109875,54 0,52.4890125 0,50.625 L0,3.375 C0,1.5109875 1.5109875,0 3.375,0 L30.375,0 Z M20.6526375,18.232425 C19.7751375,18.1645875 18.9651375,18.5706 18.5601375,19.315125 C17.3458125,21.34485 19.1001375,25.337475 19.9101375,26.961525 C18.9651375,29.8711125 17.8183125,32.6453625 16.3333125,35.3521125 C9.9225,38.1267 9.7875,39.81825 9.7875,40.4274375 C9.7875,41.171625 10.1921625,41.91615 10.9346625,42.254325 C11.2046625,42.4575 11.609325,42.525 11.946825,42.525 C13.6339875,42.525 15.59115,40.630275 17.682975,36.9086625 C20.3148,35.825625 22.9469625,34.9461 25.7137875,34.33725 C27.13095,35.5552875 28.885275,36.231975 30.7074375,36.3673125 C31.8546,36.3673125 34.0817625,36.3673125 34.0817625,34.066575 C34.1492625,33.1867125 33.6767625,31.698 30.5049375,31.6305 C29.087775,31.6305 27.67095,31.8333375 26.25345,32.10435 C24.564017,30.54822 23.1494704,28.7179927 22.0694625,26.69085 C23.2169625,22.9014 23.2844625,20.3299875 22.4069625,19.11195 C22.0019625,18.5706 21.3273,18.232425 20.6526375,18.232425 Z M14.2414875,38.6002125 C13.7014875,39.480075 12.959325,40.1567625 12.0146625,40.4949375 L11.8121625,40.562775 C12.419325,39.6829125 13.2289875,39.006225 14.2414875,38.6002125 Z M21.2598,30.0742875 C22.0019625,31.2244875 22.946625,32.3746875 23.959125,33.3898875 L23.756625,33.3898875 L23.824125,33.4573875 C22.2683452,33.8147009 20.7358318,34.2666667 19.2351375,34.8107625 L19.2351375,34.6757625 L19.1001375,34.7432625 C19.8423,33.25455 20.5173,31.6983375 21.1248,30.1417875 L21.1923,30.2092875 Z M30.4374375,33.6605625 C31.7871,33.6605625 32.0571,33.9987375 32.0571,34.2019125 C31.6524375,34.33725 31.1799375,34.40475 30.7074375,34.33725 C30.032775,34.2694125 29.357775,34.134075 28.682775,33.7955625 C29.290275,33.6605625 29.8299375,33.6605625 30.4374375,33.6605625 Z M20.7873,20.2624875 C21.1248,21.4126875 21.1248,22.630725 20.7198,23.780925 C20.2473,22.698225 20.0448,21.4801875 20.3148,20.3299875 C20.3823,20.2624875 20.5173,20.2624875 20.5848,20.2624875 Z" id="形状结合" fill="#F56349"></path>
                <path d="M30.375,0 L43.875,13.5 L33.75,13.5 C31.8859875,13.5 30.375,11.9890125 30.375,10.125 L30.375,0 Z" id="路径" fill="#FDB8B8"></path>
            </g>
            <rect id="file_pdf" x="0" y="0" width="54" height="54"></rect>
        </g>
    </g>
</svg>