<?xml version="1.0" encoding="UTF-8"?>
<svg width="149px" height="104px" viewBox="0 0 149 104" version="1.1" xmlns="http://www.w3.org/2000/svg" xmlns:xlink="http://www.w3.org/1999/xlink">
    <title>暂无数据</title>
    <defs>
        <path d="M29.2117647,15.6 L131.988235,15.6 C133.762044,15.6 135.2,16.9665048 135.2,18.6521739 L135.2,82.7478261 C135.2,84.4334952 133.762044,85.8 131.988235,85.8 L29.2117647,85.8 C27.437956,85.8 26,84.4334952 26,82.7478261 L26,18.6521739 C26,16.9665048 27.437956,15.6 29.2117647,15.6 Z" id="historicalVersionNoData"></path>
        <filter x="-19.2%" y="-21.4%" width="138.5%" height="159.8%" filterUnits="objectBoundingBox" id="filter-2">
            <feOffset dx="0" dy="6" in="SourceAlpha" result="shadowOffsetOuter1"></feOffset>
            <feGaussianBlur stdDeviation="6" in="shadowOffsetOuter1" result="shadowBlurOuter1"></feGaussianBlur>
            <feColorMatrix values="0 0 0 0 0.317647059   0 0 0 0 0.345098039   0 0 0 0 0.454901961  0 0 0 0.06 0" type="matrix" in="shadowBlurOuter1" result="shadowMatrixOuter1"></feColorMatrix>
            <feOffset dx="0" dy="4" in="SourceAlpha" result="shadowOffsetOuter2"></feOffset>
            <feGaussianBlur stdDeviation="4" in="shadowOffsetOuter2" result="shadowBlurOuter2"></feGaussianBlur>
            <feColorMatrix values="0 0 0 0 0.11372549   0 0 0 0 0.129411765   0 0 0 0 0.160784314  0 0 0 0.06 0" type="matrix" in="shadowBlurOuter2" result="shadowMatrixOuter2"></feColorMatrix>
            <feOffset dx="0" dy="2" in="SourceAlpha" result="shadowOffsetOuter3"></feOffset>
            <feGaussianBlur stdDeviation="2" in="shadowOffsetOuter3" result="shadowBlurOuter3"></feGaussianBlur>
            <feColorMatrix values="0 0 0 0 0.11372549   0 0 0 0 0.129411765   0 0 0 0 0.160784314  0 0 0 0.06 0" type="matrix" in="shadowBlurOuter3" result="shadowMatrixOuter3"></feColorMatrix>
            <feMerge>
                <feMergeNode in="shadowMatrixOuter1"></feMergeNode>
                <feMergeNode in="shadowMatrixOuter2"></feMergeNode>
                <feMergeNode in="shadowMatrixOuter3"></feMergeNode>
            </feMerge>
        </filter>
    </defs>
    <g id="historicalVersionNoDataG" stroke="none" stroke-width="1" fill="none" fill-rule="evenodd">
        <g id="编组-21" transform="translate(0.400000, 0.000000)">
            <path d="M42.2117647,2.6 L144.988235,2.6 C146.762044,2.6 148.2,3.96650481 148.2,5.65217391 L148.2,69.7478261 C148.2,71.4334952 146.762044,72.8 144.988235,72.8 L42.2117647,72.8 C40.437956,72.8 39,71.4334952 39,69.7478261 L39,5.65217391 C39,3.96650481 40.437956,2.6 42.2117647,2.6 Z" id="矩形备份-5" fill="#F1F4F8"></path>
            <g id="矩形">
                <use fill="black" fill-opacity="1" filter="url(#filter-2)" xlink:href="#historicalVersionNoData"></use>
                <use fill="#FFFFFF" fill-rule="evenodd" xlink:href="#historicalVersionNoData"></use>
            </g>
            <g id="编组-20" transform="translate(39.000000, 28.600000)" fill="currentColor">
                <path d="M1.56,0 L14.04,0 C14.9015642,0 15.6,0.69843579 15.6,1.56 L15.6,14.04 C15.6,14.9015642 14.9015642,15.6 14.04,15.6 L1.56,15.6 C0.69843579,15.6 0,14.9015642 0,14.04 L0,1.56 C0,0.69843579 0.69843579,0 1.56,0 Z" id="矩形"></path>
                <path d="M1.56,28.6 L14.04,28.6 C14.9015642,28.6 15.6,29.2984358 15.6,30.16 L15.6,42.64 C15.6,43.5015642 14.9015642,44.2 14.04,44.2 L1.56,44.2 C0.69843579,44.2 0,43.5015642 0,42.64 L0,30.16 C0,29.2984358 0.69843579,28.6 1.56,28.6 Z" id="矩形备份"></path>
                <path d="M22.1,0 L53.3,0 C54.0179702,0 54.6,0.582029825 54.6,1.3 L54.6,3.9 C54.6,4.61797017 54.0179702,5.2 53.3,5.2 L22.1,5.2 C21.3820298,5.2 20.8,4.61797017 20.8,3.9 L20.8,1.3 C20.8,0.582029825 21.3820298,0 22.1,0 Z" id="矩形"></path>
                <path d="M22.1,28.6 L53.3,28.6 C54.0179702,28.6 54.6,29.1820298 54.6,29.9 L54.6,32.5 C54.6,33.2179702 54.0179702,33.8 53.3,33.8 L22.1,33.8 C21.3820298,33.8 20.8,33.2179702 20.8,32.5 L20.8,29.9 C20.8,29.1820298 21.3820298,28.6 22.1,28.6 Z" id="矩形备份-3"></path>
                <path d="M22.4864865,10.4 L81.5135135,10.4 C82.4449343,10.4 83.2,10.9820298 83.2,11.7 L83.2,14.3 C83.2,15.0179702 82.4449343,15.6 81.5135135,15.6 L22.4864865,15.6 C21.5550657,15.6 20.8,15.0179702 20.8,14.3 L20.8,11.7 C20.8,10.9820298 21.5550657,10.4 22.4864865,10.4 Z" id="矩形备份-2"></path>
                <path d="M22.4864865,39 L81.5135135,39 C82.4449343,39 83.2,39.5820298 83.2,40.3 L83.2,42.9 C83.2,43.6179702 82.4449343,44.2 81.5135135,44.2 L22.4864865,44.2 C21.5550657,44.2 20.8,43.6179702 20.8,42.9 L20.8,40.3 C20.8,39.5820298 21.5550657,39 22.4864865,39 Z" id="矩形备份-4"></path>
            </g>
            <g id="编组-20" transform="translate(39.000000, 28.600000)" fill="#FFFFFF">
                <path d="M1.56,0 L14.04,0 C14.9015642,0 15.6,0.69843579 15.6,1.56 L15.6,14.04 C15.6,14.9015642 14.9015642,15.6 14.04,15.6 L1.56,15.6 C0.69843579,15.6 0,14.9015642 0,14.04 L0,1.56 C0,0.69843579 0.69843579,0 1.56,0 Z" id="矩形" fill-opacity="0.4"></path>
                <path d="M1.56,28.6 L14.04,28.6 C14.9015642,28.6 15.6,29.2984358 15.6,30.16 L15.6,42.64 C15.6,43.5015642 14.9015642,44.2 14.04,44.2 L1.56,44.2 C0.69843579,44.2 0,43.5015642 0,42.64 L0,30.16 C0,29.2984358 0.69843579,28.6 1.56,28.6 Z" id="矩形备份" fill-opacity="0.4"></path>
                <path d="M22.1,0 L53.3,0 C54.0179702,0 54.6,0.582029825 54.6,1.3 L54.6,3.9 C54.6,4.61797017 54.0179702,5.2 53.3,5.2 L22.1,5.2 C21.3820298,5.2 20.8,4.61797017 20.8,3.9 L20.8,1.3 C20.8,0.582029825 21.3820298,0 22.1,0 Z" id="矩形" fill-opacity="0.4"></path>
                <path d="M22.1,28.6 L53.3,28.6 C54.0179702,28.6 54.6,29.1820298 54.6,29.9 L54.6,32.5 C54.6,33.2179702 54.0179702,33.8 53.3,33.8 L22.1,33.8 C21.3820298,33.8 20.8,33.2179702 20.8,32.5 L20.8,29.9 C20.8,29.1820298 21.3820298,28.6 22.1,28.6 Z" id="矩形备份-3" fill-opacity="0.4"></path>
                <path d="M22.4864865,10.4 L81.5135135,10.4 C82.4449343,10.4 83.2,10.9820298 83.2,11.7 L83.2,14.3 C83.2,15.0179702 82.4449343,15.6 81.5135135,15.6 L22.4864865,15.6 C21.5550657,15.6 20.8,15.0179702 20.8,14.3 L20.8,11.7 C20.8,10.9820298 21.5550657,10.4 22.4864865,10.4 Z" id="矩形备份-2" fill-opacity="0.8"></path>
                <path d="M22.4864865,39 L81.5135135,39 C82.4449343,39 83.2,39.5820298 83.2,40.3 L83.2,42.9 C83.2,43.6179702 82.4449343,44.2 81.5135135,44.2 L22.4864865,44.2 C21.5550657,44.2 20.8,43.6179702 20.8,42.9 L20.8,40.3 C20.8,39.5820298 21.5550657,39 22.4864865,39 Z" id="矩形备份-4" fill-opacity="0.8"></path>
            </g>
            <g id="编组">
                <g id="元素/纸飞机/主色备份" transform="translate(5.200000, 0.000000)" fill="currentColor">
                    <path d="M1.09146661,6.50021548 L0.314584544,7.80427661 C0.266267218,7.8853819 0.266667418,7.98660897 0.315190823,8.0671877 L0.318497004,8.07252857 C0.352856432,8.12654183 0.425299441,8.15416547 0.53582603,8.15539949 L0.543707939,8.15544277 L0.921317405,8.15544277 C1.03435596,8.15544277 1.14700028,8.14201939 1.25691753,8.11545064 L7.93928571,6.50021548 L1.09146661,6.50021548 Z" id="路径-14"></path>
                    <path d="M2.73782222,4.01737456 L15.6,4.01737456 L0.424299886,0.0109984398 C0.263882934,-0.0313516257 0.0973514207,0.0518124243 0.0334178751,0.205226179 L0.0311248155,0.210870119 C-0.0268261916,0.357239909 -0.00276665291,0.523627937 0.0942291877,0.647279837 L2.73782222,4.01737456 Z" id="路径-5"></path>
                    <polygon id="路径-12" points="15.6 4.01737456 2.73873821 4.01737456 1.096875 6.50021548 4.65424528 6.50021548"></polygon>
                    <path d="M15.6,4.01737456 L8.20969004,10.9141549 C8.08980002,10.9716281 7.99863469,11.0003647 7.93619404,11.0003647 C7.87375339,11.0003647 7.78456068,10.9716281 7.6686159,10.9141549 L3.97641985,5.94847306 C3.95934847,5.74768675 3.97452946,5.61539673 4.02196282,5.551603 C4.06939618,5.48780926 4.19096319,5.43618514 4.38666385,5.39673063 L15.6,4.01737456 Z" id="路径-13"></path>
                </g>
                <g id="元素/纸飞机/主色备份" transform="translate(5.200000, 0.000000)">
                    <path d="M1.09146661,6.50021548 L0.314584544,7.80427661 C0.266267218,7.8853819 0.266667418,7.98660897 0.315190823,8.0671877 C0.352856432,8.12654183 0.425299441,8.15416547 0.53582603,8.15539949 L0.543707939,8.15544277 L0.921317405,8.15544277 C1.03435596,8.15544277 1.14700028,8.14201939 1.25691753,8.11545064 C3.69035743,7.52856533 4.90707738,7.23512268 4.90707738,7.23512268 C4.90707738,7.11841129 4.71891706,6.87344223 4.34259644,6.50021548 L1.09146661,6.50021548 Z" id="路径-14" fill-opacity="0.4" fill="#FFFFFF"></path>
                    <path d="M2.73782222,4.01737456 L15.6,4.01737456 L0.424299886,0.0109984398 C0.263882934,-0.0313516257 0.0973514207,0.0518124243 0.0334178751,0.205226179 L0.0311248155,0.210870119 C-0.0268261916,0.357239909 -0.00276665291,0.523627937 0.0942291877,0.647279837 L2.73782222,4.01737456 Z" id="路径-5" fill-opacity="0.2" fill="#FFFFFF"></path>
                    <polygon id="路径-12" fill-opacity="0.2" fill="#000000" points="15.6 4.01737456 2.73873821 4.01737456 1.096875 6.50021548 4.65424528 6.50021548"></polygon>
                    <path d="M15.6,4.01737456 L8.20969004,10.9141549 C8.08980002,10.9716281 7.99863469,11.0003647 7.93619404,11.0003647 C7.87375339,11.0003647 7.78456068,10.9716281 7.6686159,10.9141549 L5.11328305,7.50886961 C5.04759609,7.32782913 4.4247306,6.66966753 4.47216396,6.60587379 C4.51959732,6.54208006 4.85189542,6.44135324 5.04759609,6.40189872 L15.6,4.01737456 Z" id="路径-13" fill-opacity="0.2" fill="#FFFFFF"></path>
                </g>
                <path d="M23.3598298,34.45 C22.2492552,34.5556092 20.9307207,34.5771277 19.520665,34.5083235 L19.5,35.0598362 C20.9294856,35.1295885 22.2681612,35.1077412 23.4,35.00011 L23.3598298,34.45 Z M15.6,33.9183862 C14.3048045,33.7254636 13.0307605,33.4686026 11.8112818,33.15 L11.7,33.6720639 C12.9353187,33.9948049 14.2249035,34.2547991 15.5353945,34.45 L15.6,33.9183862 Z M7.8,32.0865909 C6.43788704,31.6404954 5.22149684,31.127673 4.17503405,30.55 L3.9,30.9226186 C4.97791253,31.5176527 6.22558988,32.0436656 7.61896677,32.5 L7.8,32.0865909 Z M1.95,28.3047077 C1.10880567,27.218719 0.628908183,26.0186785 0.535114831,24.7 L0,24.733433 C0.100658283,26.1486283 0.616649893,27.4389264 1.51600404,28.6 L1.95,28.3047077 Z M2.15649037,22.1 C3.17286475,21.5514898 4.53667343,21.2937956 5.82687063,21.3644045 L5.85,20.8120893 C4.48529211,20.7374027 3.04351692,21.0098288 1.95,21.5999708 L2.15649037,22.1 Z M8.07795837,22.7831016 C7.67115891,23.2000873 6.38938933,23.022255 4.82595281,22.1 L4.55,22.4343968 C6.29407469,23.4632083 7.831522,23.6765133 8.45,23.0425487 L8.07795837,22.7831016 Z M1.95,19.2742256 C1.44631773,18.0943593 1.12145745,16.8171974 1.05477303,15.6 L0.65,15.6325485 C0.720655201,16.9222251 1.06183399,18.2635418 1.58967521,19.5 L1.95,19.2742256 Z M2.34375281,11.7 C2.96153449,10.8238108 3.90445142,10.0884554 5.2,9.51737523 L5.00201247,9.1 C3.63023147,9.70468352 2.61879481,10.4934756 1.95,11.4420159 L2.34375281,11.7 Z" id="路径" fill="currentColor" fill-rule="nonzero"></path>
            </g>
        </g>
    </g>
</svg>