<?xml version="1.0" encoding="UTF-8"?>
<svg width="20px" height="20px" viewBox="0 0 20 20" version="1.1" xmlns="http://www.w3.org/2000/svg" xmlns:xlink="http://www.w3.org/1999/xlink">
    <!-- Generator: Sketch 53 (72520) - https://sketchapp.com -->
    <title>lightning-b-闪电</title>
    <desc>Created with Sketch.</desc>
    <g id="Page-1" stroke="none" stroke-width="1" fill="none" fill-rule="evenodd">
        <g id="lightning-b-闪电">
            <rect id="Rectangle-Copy" x="0" y="0" width="20" height="20"></rect>
            <path d="M8.00693092,19.547619 C7.95151039,19.547619 7.90977957,19.5335851 7.88208071,19.5078851 C7.68777801,19.4542693 7.61850807,19.3494273 7.6739286,19.1908174 L8.96438958,11.9379726 L3.34487565,11.9379726 C3.20617603,11.9379726 3.10902468,11.885052 3.05342162,11.7793627 C2.97030225,11.6745208 2.98415166,11.5556448 3.09515244,11.4227132 L11.7532583,0.642368089 C11.8642591,0.483758196 11.9891093,0.458210297 12.1278318,0.563052284 C12.2665314,0.589425718 12.3359839,0.695962189 12.3359839,0.88011998 L11.0455229,8.13313856 L15.9990094,8.13313856 C16.137709,8.13313856 16.2348604,8.1867544 16.2904634,8.29159637 C16.3181623,8.39728561 16.3181623,8.51616154 16.2904634,8.648398 L8.29838497,19.4287431 C8.21508305,19.5078851 8.1179317,19.547619 8.00693092,19.547619 Z" id="Path" fill="#EB615A" fill-rule="nonzero"></path>
        </g>
    </g>
</svg>