<?xml version="1.0" encoding="UTF-8"?>
<svg width="35px" height="40px" viewBox="0 0 35 40" version="1.1" xmlns="http://www.w3.org/2000/svg" xmlns:xlink="http://www.w3.org/1999/xlink">
    <title>Illustrate 插画/Illustrate_none_small</title>
    <g id="页面-2" stroke="none" stroke-width="1" fill="none" fill-rule="evenodd">
        <g id="标的信息" transform="translate(-1254, -1050)">
            <g id="编组-33" transform="translate(1112, 176)">
                <g id="编组-26" transform="translate(76, 874)">
                    <g id="编组" transform="translate(66, 0)">
                        <path d="M26.3540149,15.5168601 C26.3420459,15.5168601 24.985624,17.1758993 23.7578753,18.8307845 C20.3821418,17.70271 18.3869926,16.5746356 17.7733485,15.4465612 C18.3869926,15.0709124 20.0440219,13.4874542 21.2717706,12.3593797 C22.0446952,13.863667 23.7387767,14.9161604 26.3540149,15.5168601 Z" id="路径" fill="#BCC2CC"></path>
                        <path d="M0.164804663,16.497653 L3.30253813,9.39796105 C3.60128023,8.72211475 4.25663072,8.28804253 4.978666,8.28804253 L30.1735241,8.28804253 C30.8955594,8.28804253 31.5509099,8.72211475 31.849652,9.39796105 L34.8683048,16.2912609 C34.9836879,16.6355356 35.0233814,17.5965276 34.9873854,19.1742369 L34.9864647,37.1601232 C34.9864647,38.7285439 33.7498352,40 32.2243754,40 L2.76208932,40 C1.23662951,40 0,38.7285439 0,37.1601232 L0.00039044481,18.8604682 C0.00292966053,18.0918822 0.0219737785,16.8207799 0.164804663,16.497653 Z M21.6363664,22.4874265 L14.2707948,22.4874265 C13.5080649,22.4874265 12.8897502,23.1231545 12.8897502,23.9073649 C12.8897502,24.6915752 13.5080649,25.3273033 14.2707948,25.3273033 L21.6363664,25.3273033 C22.3990963,25.3273033 23.017411,24.6915752 23.017411,23.9073649 C23.017411,23.1231545 22.3990963,22.4874265 21.6363664,22.4874265 Z M29.8770598,10.6546065 L5.27513026,10.6546065 L2.55631367,16.8076729 L32.5958764,16.8076729 L29.8770598,10.6546065 Z" id="形状结合" fill="#E5E7EC"></path>
                        <path d="M9.68443812,0 C9.31959099,2.17480865 10.7784325,3.44133802 14.0604157,3.79902571 C14.0385358,3.79902571 12.3654607,6.27108706 13.4594551,7.39589112 C10.93014,7.21592247 6.89548872,6.83348909 5.91526974,3.90956093 C6.644417,3.53500118 8.3016292,1.8002489 9.68443812,0 Z" id="路径" fill="#BCC2CC"></path>
                    </g>
                </g>
            </g>
        </g>
    </g>
</svg>