<?xml version="1.0" encoding="UTF-8"?>
<svg width="248px" height="145px" viewBox="0 0 248 145" version="1.1" xmlns="http://www.w3.org/2000/svg" xmlns:xlink="http://www.w3.org/1999/xlink">
    <title>智能提取</title>
    <defs>
        <ellipse id="path-1" cx="45.3333333" cy="117.04" rx="16" ry="15.96"></ellipse>
        <filter x="-28.1%" y="-18.8%" width="156.2%" height="156.4%" filterUnits="objectBoundingBox" id="filter-2">
            <feOffset dx="0" dy="3" in="SourceAlpha" result="shadowOffsetOuter1"></feOffset>
            <feGaussianBlur stdDeviation="2.5" in="shadowOffsetOuter1" result="shadowBlurOuter1"></feGaussianBlur>
            <feColorMatrix values="0 0 0 0 0.11372549   0 0 0 0 0.129411765   0 0 0 0 0.160784314  0 0 0 0.06 0" type="matrix" in="shadowBlurOuter1" result="shadowMatrixOuter1"></feColorMatrix>
            <feOffset dx="0" dy="1" in="SourceAlpha" result="shadowOffsetOuter2"></feOffset>
            <feGaussianBlur stdDeviation="1.5" in="shadowOffsetOuter2" result="shadowBlurOuter2"></feGaussianBlur>
            <feColorMatrix values="0 0 0 0 0.11372549   0 0 0 0 0.129411765   0 0 0 0 0.160784314  0 0 0 0.1 0" type="matrix" in="shadowBlurOuter2" result="shadowMatrixOuter2"></feColorMatrix>
            <feMerge>
                <feMergeNode in="shadowMatrixOuter1"></feMergeNode>
                <feMergeNode in="shadowMatrixOuter2"></feMergeNode>
            </feMerge>
        </filter>
        <path d="M18,3.99 L14,7.98 L17,7.98 C17,11.281725 14.31,13.965 11,13.965 C9.99,13.965 9.03,13.715625 8.2,13.26675 L6.74,14.7231 C7.97,15.50115 9.43,15.96 11,15.96 C15.42,15.96 19,12.38895 19,7.98 L22,7.98 L18,3.99 Z M5,7.98 C5,4.678275 7.69,1.995 11,1.995 C12.01,1.995 12.97,2.244375 13.8,2.69325 L15.26,1.2369 C14.03,0.45885 12.57,0 11,0 C6.58,0 3,3.57105 3,7.98 L0,7.98 L4,11.97 L8,7.98 L5,7.98 Z" id="path-3"></path>
        <path d="M2.66666667,0 L79.8333333,0 C81.3060927,0 82.5,1.19092257 82.5,2.66 L82.5,37.24 C82.5,38.7090774 81.3060927,39.9 79.8333333,39.9 L2.66666667,39.9 C1.19390733,39.9 0,38.7090774 0,37.24 L0,2.66 C0,1.19092257 1.19390733,0 2.66666667,0 Z" id="path-5"></path>
        <filter x="-44.8%" y="-65.2%" width="189.7%" height="285.5%" filterUnits="objectBoundingBox" id="filter-6">
            <feOffset dx="0" dy="11" in="SourceAlpha" result="shadowOffsetOuter1"></feOffset>
            <feGaussianBlur stdDeviation="10.5" in="shadowOffsetOuter1" result="shadowBlurOuter1"></feGaussianBlur>
            <feColorMatrix values="0 0 0 0 0.11372549   0 0 0 0 0.129411765   0 0 0 0 0.160784314  0 0 0 0.06 0" type="matrix" in="shadowBlurOuter1" result="shadowMatrixOuter1"></feColorMatrix>
            <feOffset dx="0" dy="5" in="SourceAlpha" result="shadowOffsetOuter2"></feOffset>
            <feGaussianBlur stdDeviation="5.5" in="shadowOffsetOuter2" result="shadowBlurOuter2"></feGaussianBlur>
            <feColorMatrix values="0 0 0 0 0.11372549   0 0 0 0 0.129411765   0 0 0 0 0.160784314  0 0 0 0.06 0" type="matrix" in="shadowBlurOuter2" result="shadowMatrixOuter2"></feColorMatrix>
            <feOffset dx="0" dy="3" in="SourceAlpha" result="shadowOffsetOuter3"></feOffset>
            <feGaussianBlur stdDeviation="2.5" in="shadowOffsetOuter3" result="shadowBlurOuter3"></feGaussianBlur>
            <feColorMatrix values="0 0 0 0 0.11372549   0 0 0 0 0.129411765   0 0 0 0 0.160784314  0 0 0 0.06 0" type="matrix" in="shadowBlurOuter3" result="shadowMatrixOuter3"></feColorMatrix>
            <feMerge>
                <feMergeNode in="shadowMatrixOuter1"></feMergeNode>
                <feMergeNode in="shadowMatrixOuter2"></feMergeNode>
                <feMergeNode in="shadowMatrixOuter3"></feMergeNode>
            </feMerge>
        </filter>
        <path d="M6.5,5.32 L17.1666667,5.32 C17.9030463,5.32 18.5,5.91546128 18.5,6.65 L18.5,17.29 C18.5,18.0245387 17.9030463,18.62 17.1666667,18.62 L6.5,18.62 C5.76362033,18.62 5.16666667,18.0245387 5.16666667,17.29 L5.16666667,6.65 C5.16666667,5.91546128 5.76362033,5.32 6.5,5.32 Z" id="path-7"></path>
        <path d="M25.1666667,5.48625 L41.1666667,5.48625 C41.9030463,5.48625 42.5,6.08171128 42.5,6.81625 L42.5,11.97 C42.5,12.7045387 41.9030463,13.3 41.1666667,13.3 L25.1666667,13.3 C24.430287,13.3 23.8333333,12.7045387 23.8333333,11.97 L23.8333333,6.81625 C23.8333333,6.08171128 24.430287,5.48625 25.1666667,5.48625 Z" id="path-8"></path>
    </defs>
    <g id="页面-2" stroke="none" stroke-width="1" fill="none" fill-rule="evenodd">
        <g id="智能提取" transform="translate(0, 4)">
            <rect id="矩形" x="0" y="0" width="240" height="133"></rect>
            <g id="背景/2" transform="translate(45.3333, 26.6)">
                <g id="背景/1">
                    <path d="M2.66666667,0 L146.666667,0 C148.139426,0 149.333333,1.19092257 149.333333,2.66 L149.333333,103.74 C149.333333,105.209077 148.139426,106.4 146.666667,106.4 L2.66666667,106.4 C1.19390733,106.4 0,105.209077 0,103.74 L0,2.66 C0,1.19092257 1.19390733,0 2.66666667,0 Z" id="矩形" fill="#F1F4F8"></path>
                    <path d="M2.66666667,0 L146.666667,0 C148.139426,0 149.333333,1.19092257 149.333333,2.66 L149.333333,10.64 L0,10.64 L0,2.66 C0,1.19092257 1.19390733,0 2.66666667,0 Z" id="矩形" fill="#DBDEE3"></path>
                    <ellipse id="椭圆形" fill="#FFFFFF" cx="8" cy="5.32" rx="2.66666667" ry="2.66"></ellipse>
                    <ellipse id="椭圆形备份" fill="#FFFFFF" cx="18.6666667" cy="5.32" rx="2.66666667" ry="2.66"></ellipse>
                    <ellipse id="椭圆形备份-2" fill="#FFFFFF" cx="29.3333333" cy="5.32" rx="2.66666667" ry="2.66"></ellipse>
                </g>
                <g id="编组-2" transform="translate(5.3333, 15.96)">
                    <path d="M2.66666667,0 L136,0 C137.472759,0 138.666667,1.19092257 138.666667,2.66 L138.666667,82.46 C138.666667,83.9290774 137.472759,85.12 136,85.12 L2.66666667,85.12 C1.19390733,85.12 0,83.9290774 0,82.46 L0,2.66 C0,1.19092257 1.19390733,0 2.66666667,0 Z" id="矩形" fill="#FFFFFF"></path>
                    <path d="M2.66666667,0 L37.3333333,0 L37.3333333,85.12 L2.66666667,85.12 C1.19390733,85.12 0,83.9290774 0,82.46 L0,2.66 C0,1.19092257 1.19390733,0 2.66666667,0 Z" id="矩形" fill="#E2E5E9"></path>
                    <path d="M6.66666667,5.32 L9.33333333,5.32 C10.069713,5.32 10.6666667,5.91546128 10.6666667,6.65 L10.6666667,9.31 C10.6666667,10.0445387 10.069713,10.64 9.33333333,10.64 L6.66666667,10.64 C5.930287,10.64 5.33333333,10.0445387 5.33333333,9.31 L5.33333333,6.65 C5.33333333,5.91546128 5.930287,5.32 6.66666667,5.32 Z" id="矩形" fill="#FFFFFF"></path>
                    <path d="M17.3333333,5.32 L30.6666667,5.32 C31.4030463,5.32 32,5.91546128 32,6.65 L32,9.31 C32,10.0445387 31.4030463,10.64 30.6666667,10.64 L17.3333333,10.64 C16.5969537,10.64 16,10.0445387 16,9.31 L16,6.65 C16,5.91546128 16.5969537,5.32 17.3333333,5.32 Z" id="矩形备份" fill="#FFFFFF"></path>
                    <path d="M6.66666667,15.96 L25.3333333,15.96 C26.069713,15.96 26.6666667,16.5554613 26.6666667,17.29 L26.6666667,19.95 C26.6666667,20.6845387 26.069713,21.28 25.3333333,21.28 L6.66666667,21.28 C5.930287,21.28 5.33333333,20.6845387 5.33333333,19.95 L5.33333333,17.29 C5.33333333,16.5554613 5.930287,15.96 6.66666667,15.96 Z" id="矩形备份-2" fill="#FFFFFF"></path>
                    <path d="M6.66666667,26.6 L30.6666667,26.6 C31.4030463,26.6 32,27.1954613 32,27.93 L32,30.59 C32,31.3245387 31.4030463,31.92 30.6666667,31.92 L6.66666667,31.92 C5.930287,31.92 5.33333333,31.3245387 5.33333333,30.59 L5.33333333,27.93 C5.33333333,27.1954613 5.930287,26.6 6.66666667,26.6 Z" id="矩形备份-3" fill="#FFFFFF"></path>
                    <path d="M6.66666667,37.24 L20,37.24 C20.7363797,37.24 21.3333333,37.8354613 21.3333333,38.57 L21.3333333,41.23 C21.3333333,41.9645387 20.7363797,42.56 20,42.56 L6.66666667,42.56 C5.930287,42.56 5.33333333,41.9645387 5.33333333,41.23 L5.33333333,38.57 C5.33333333,37.8354613 5.930287,37.24 6.66666667,37.24 Z" id="矩形备份-4" fill="#FFFFFF"></path>
                    <path d="M6.66666667,47.88 L30.6666667,47.88 C31.4030463,47.88 32,48.4754613 32,49.21 L32,51.87 C32,52.6045387 31.4030463,53.2 30.6666667,53.2 L6.66666667,53.2 C5.930287,53.2 5.33333333,52.6045387 5.33333333,51.87 L5.33333333,49.21 C5.33333333,48.4754613 5.930287,47.88 6.66666667,47.88 Z" id="矩形备份-5" fill="#FFFFFF"></path>
                </g>
                <path d="M49.3333333,21.28 L65.3333333,21.28 C66.069713,21.28 66.6666667,21.8754613 66.6666667,22.61 L66.6666667,27.93 C66.6666667,28.6645387 66.069713,29.26 65.3333333,29.26 L49.3333333,29.26 C48.5969537,29.26 48,28.6645387 48,27.93 L48,22.61 C48,21.8754613 48.5969537,21.28 49.3333333,21.28 Z" id="矩形" fill="#E9ECF0"></path>
                <rect id="矩形" fill="#FFFFFF" x="53.3333333" y="23.94" width="8" height="2.66" rx="1.33"></rect>
                <path d="M49.3333333,34.58 L137.333333,34.58 C138.069713,34.58 138.666667,36.1017344 138.666667,37.9788889 L138.666667,92.3611111 C138.666667,94.2382656 138.069713,95.76 137.333333,95.76 L49.3333333,95.76 C48.5969537,95.76 48,94.2382656 48,92.3611111 L48,37.9788889 C48,36.1017344 48.5969537,34.58 49.3333333,34.58 Z" id="矩形" fill="#F1F4F8"></path>
                <rect id="矩形备份-6" fill="#E2E5E9" x="53.3333333" y="47.88" width="10.6666667" height="2.66" rx="1.33"></rect>
                <rect id="矩形备份-8" fill="#E2E5E9" x="53.3333333" y="53.2" width="10.6666667" height="2.66" rx="1.33"></rect>
                <rect id="矩形备份-7" fill="#E2E5E9" x="66.6666667" y="47.88" width="16" height="2.66" rx="1.33"></rect>
                <rect id="矩形备份-9" fill="#E2E5E9" x="66.6666667" y="53.2" width="16" height="2.66" rx="1.33"></rect>
                <rect id="矩形备份-10" fill="#E2E5E9" x="58.6666667" y="61.18" width="74.6666667" height="2.66" rx="1.33"></rect>
                <rect id="矩形备份-11" fill="#E2E5E9" x="53.3333333" y="67.83" width="80" height="2.66" rx="1.33"></rect>
                <rect id="矩形备份-12" fill="#E2E5E9" x="53.3333333" y="74.48" width="80" height="2.66" rx="1.33"></rect>
                <rect id="矩形备份-13" fill="#E2E5E9" x="53.3333333" y="81.13" width="80" height="2.66" rx="1.33"></rect>
                <rect id="矩形备份-14" fill="#E2E5E9" x="53.3333333" y="87.78" width="80" height="2.66" rx="1.33"></rect>
            </g>
            <g id="椭圆形">
                <use fill="black" fill-opacity="1" filter="url(#filter-2)" xlink:href="#path-1"></use>
                <use fill="#FFFFFF" fill-rule="evenodd" xlink:href="#path-1"></use>
            </g>
            <g id="replay" transform="translate(33.3333, 105.07)">
                <rect id="矩形" fill="#000000" fill-rule="nonzero" opacity="0" x="0" y="0" width="24" height="23.94"></rect>
                <g id="color" transform="translate(1, 3.99)">
                    <mask id="mask-4" fill="white">
                        <use xlink:href="#path-3"></use>
                    </mask>
                    <g id="蒙版" fill-rule="nonzero"></g>
                    <g mask="url(#mask-4)" fill="#29BECE" id="矩形">
                        <g transform="translate(-1, -3.99)">
                            <rect x="0" y="0" width="24" height="23.94"></rect>
                        </g>
                    </g>
                </g>
            </g>
            <g id="前景/审批中" transform="translate(144.1667, 6.65)">
                <g id="矩形">
                    <use fill="black" fill-opacity="1" filter="url(#filter-6)" xlink:href="#path-5"></use>
                    <use fill="#FFFFFF" fill-rule="evenodd" xlink:href="#path-5"></use>
                </g>
                <g id="矩形">
                    <use fill="#00B8CC" xlink:href="#path-7"></use>
                    <use fill-opacity="0.8" fill="#FFFFFF" xlink:href="#path-7"></use>
                </g>
                <g id="矩形">
                    <use fill="#00B8CC" xlink:href="#path-8"></use>
                    <use fill-opacity="0.8" fill="#FFFFFF" xlink:href="#path-8"></use>
                </g>
                <path d="M25.1666667,15.96 L54.5,15.96 C55.2363797,15.96 55.8333333,16.5554613 55.8333333,17.29 C55.8333333,18.0245387 55.2363797,18.62 54.5,18.62 L25.1666667,18.62 C24.430287,18.62 23.8333333,18.0245387 23.8333333,17.29 C23.8333333,16.5554613 24.430287,15.96 25.1666667,15.96 Z" id="矩形备份-10" fill="#F1F4F8"></path>
                <g id="路径-7" transform="translate(4.8333, 23.275)" fill="#F1F4F8" fill-rule="nonzero">
                    <path d="M72.3333333,0 C72.5174282,0 72.6666667,0.223857625 72.6666667,0.5 C72.6666667,0.776142375 72.5174282,1 72.3333333,1 L0.333333333,1 C0.149238417,1 0,0.776142375 0,0.5 C0,0.223857625 0.149238417,0 0.333333333,0 L72.3333333,0 Z" id="路径-6"></path>
                </g>
                <path d="M6.5,29.26 L75.8333333,29.26 C76.569713,29.26 77.1666667,29.8554613 77.1666667,30.59 L77.1666667,33.25 C77.1666667,33.9845387 76.569713,34.58 75.8333333,34.58 L6.5,34.58 C5.76362033,34.58 5.16666667,33.9845387 5.16666667,33.25 L5.16666667,30.59 C5.16666667,29.8554613 5.76362033,29.26 6.5,29.26 Z" id="矩形" fill="#F1F4F8"></path>
                <g id="编组" transform="translate(7.1667, 7.98)" fill="#00B8CC" fill-rule="nonzero">
                    <path d="M5.25,0.583902439 C5.25,0.756834878 5.17490556,0.912207424 5.05555556,1.01912385 L5.05555556,1.75170732 L7,1.75170732 C7.64435,1.75170732 8.16666667,2.27455302 8.16666667,2.9195122 L8.16666667,6.81219512 C8.16666667,7.45717376 7.64435,7.98 7,7.98 L2.33333333,7.98 C1.68900278,7.98 1.16666667,7.45717376 1.16666667,6.81219512 L1.16666667,2.9195122 C1.16666667,2.27455302 1.68900278,1.75170732 2.33333333,1.75170732 L4.27777778,1.75170732 L4.27777778,1.01912385 C4.15842778,0.912207424 4.08333333,0.756834878 4.08333333,0.583902439 C4.08333333,0.261420907 4.34451111,0 4.66666667,0 C4.98882222,0 5.25,0.261420907 5.25,0.583902439 Z M0,3.69804878 L0.777777778,3.69804878 L0.777777778,6.03365854 L0,6.03365854 L0,3.69804878 Z M9.33333333,3.69804878 L8.55555556,3.69804878 L8.55555556,6.03365854 L9.33333333,6.03365854 L9.33333333,3.69804878 Z M3.5,5.4497561 C3.82216722,5.4497561 4.08333333,5.18832351 4.08333333,4.86585366 C4.08333333,4.5433838 3.82216722,4.28195122 3.5,4.28195122 C3.17783278,4.28195122 2.91666667,4.5433838 2.91666667,4.86585366 C2.91666667,5.18832351 3.17783278,5.4497561 3.5,5.4497561 Z M6.41666667,4.86585366 C6.41666667,4.5433838 6.15548889,4.28195122 5.83333333,4.28195122 C5.51117778,4.28195122 5.25,4.5433838 5.25,4.86585366 C5.25,5.18832351 5.51117778,5.4497561 5.83333333,5.4497561 C6.15548889,5.4497561 6.41666667,5.18832351 6.41666667,4.86585366 Z" id="形状"></path>
                </g>
                <rect id="矩形" fill="#FFFFFF" x="29.1666667" y="7.98" width="8" height="2.66" rx="1.33"></rect>
            </g>
        </g>
    </g>
</svg>
