<?xml version="1.0" encoding="UTF-8"?>
<svg width="14px" height="14px" viewBox="0 0 14 14" version="1.1" xmlns="http://www.w3.org/2000/svg" xmlns:xlink="http://www.w3.org/1999/xlink">
    <!-- Generator: Sketch 52.2 (67145) - http://www.bohemiancoding.com/sketch -->
    <title>提示1</title>
    <desc>Created with Sketch.</desc>
    <g id="Page-1" stroke="none" stroke-width="1" fill="none" fill-rule="evenodd">
        <g id="Artboard" transform="translate(-662.000000, -234.000000)">
            <g id="表格-最后一列为操作列" transform="translate(402.000000, 180.000000)">
                <g id="提示1" transform="translate(259.000000, 53.000000)">
                    <g id="Group">
                        <rect id="Rectangle" fill="#000000" opacity="0" x="0" y="0" width="16" height="16"></rect>
                        <path d="M7.99211734,1.01013113 C4.12740961,1.01013113 0.997163922,4.14037681 0.997163922,8.00508455 C0.997163922,11.8697923 4.12740961,15.000038 7.99211734,15.000038 C11.8568251,15.000038 14.9870708,11.8697923 14.9870708,8.00508455 C14.9870708,4.14037681 11.8568411,1.01013113 7.99211734,1.01013113 Z M7.96589513,9.57019941 C7.45876695,9.57019941 7.04781358,9.16799211 7.04781358,8.66084795 L7.04781358,4.40267898 C7.04781358,3.89555081 7.45876695,3.49334352 7.96589513,3.49334352 C8.46427722,3.49334352 8.87523059,3.89555081 8.87523059,4.40267898 L8.87523059,8.66084795 C8.87523059,9.16799209 8.46427722,9.57019941 7.96589513,9.57019941 Z M7.99211734,10.4008522 C8.57794416,10.4008522 9.05010403,10.8730121 9.05010403,11.4588389 C9.05010403,12.0446657 8.57794416,12.5168256 7.99211734,12.5168256 C7.40629053,12.5168256 6.93413066,12.0446657 6.93413066,11.4588389 C6.93414666,10.8730121 7.40630653,10.4008522 7.99211734,10.4008522 Z" id="Shape" fill="#FFBC00" fill-rule="nonzero"></path>
                    </g>
                </g>
            </g>
        </g>
    </g>
</svg>