<?xml version="1.0" encoding="UTF-8"?>
<svg width="40px" height="40px" viewBox="0 0 40 40" version="1.1" xmlns="http://www.w3.org/2000/svg" xmlns:xlink="http://www.w3.org/1999/xlink">
    <title>编组 10</title>
    <g id="CA认证&amp;实名认证" stroke="none" stroke-width="1" fill="none" fill-rule="evenodd">
        <g id="CA认证&amp;实名认证-认证详情" transform="translate(-348.000000, -589.000000)">
            <g id="编组-14" transform="translate(300.000000, 193.000000)">
                <g id="编组-2备份-2" transform="translate(24.000000, 365.000000)">
                    <g id="编组-10" transform="translate(24.000000, 31.000000)">
                        <rect id="矩形" stroke-opacity="0.12" stroke="#000000" x="0.5" y="0.5" width="39" height="39" rx="19.5"></rect>
                        <g id="编组-8" transform="translate(8.000000, 8.000000)">
                            <rect id="矩形备份-2" x="0" y="0" width="24" height="24"></rect>
                            <g id="编组-5" transform="translate(1.560000, 3.480000)" fill-rule="nonzero">
                                <path d="M18.6,0 C19.8592092,0 20.88,1.02079077 20.88,2.28 L20.88,14.7297604 C20.88,15.9889697 19.8592092,17.0097604 18.6,17.0097604 L2.28,17.0097604 C1.02079077,17.0097604 0,15.9889697 0,14.7297604 L0,2.28 C0,1.02079077 1.02079077,0 2.28,0 L18.6,0 Z M18.6,1.44 L2.28,1.44 C1.82574579,1.44 1.45570816,1.80057401 1.44048708,2.25112203 L1.44,2.28 L1.44,14.7297604 C1.44,15.1840146 1.80057401,15.5540523 2.25112203,15.5692733 L2.28,15.5697604 L18.6,15.5697604 C19.0542542,15.5697604 19.4242918,15.2091864 19.4395129,14.7586384 L19.44,14.7297604 L19.44,2.28 C19.44,1.82574579 19.079426,1.45570816 18.628878,1.44048708 L18.6,1.44 Z" id="矩形" fill="#000000"></path>
                                <polygon id="路径-2" fill="#000000" points="20.88 4.26234511 20.88 5.70234511 0 5.70234511 0 4.26234511"></polygon>
                                <path d="M17.816087,9.59207004 C18.213732,9.59207004 18.536087,9.91442502 18.536087,10.31207 C18.536087,10.7006777 18.228218,11.0173787 17.8430795,11.0315734 L17.816087,11.03207 L11.5869792,11.03207 C11.1893342,11.03207 10.8669792,10.7097151 10.8669792,10.31207 C10.8669792,9.92346241 11.1748482,9.60676143 11.5599866,9.59256666 L11.5869792,9.59207004 L17.816087,9.59207004 Z" id="路径-2备份" fill="#36C2CF"></path>
                            </g>
                        </g>
                    </g>
                </g>
            </g>
        </g>
    </g>
</svg>