<?xml version="1.0" encoding="UTF-8"?>
<svg width="18px" height="18px" viewBox="0 0 18 18" version="1.1" xmlns="http://www.w3.org/2000/svg" xmlns:xlink="http://www.w3.org/1999/xlink">
    <title>icon-location</title>
    <g id="页面-1" stroke="none" stroke-width="1" fill="none" fill-rule="evenodd">
        <g id="售后管理_快速通过(切换地址)" transform="translate(-1092.000000, -129.000000)">
            <g id="带邮编" transform="translate(1060.000000, 0.000000)">
                <g id="编组-9" transform="translate(20.000000, 77.000000)">
                    <g id="编组-4" transform="translate(0.000000, 38.000000)">
                        <g id="编组-6" transform="translate(12.000000, 12.000000)">
                            <g id="icon-location" transform="translate(0.000000, 2.000000)">
                                <rect id="矩形" x="0" y="0" width="18" height="18"></rect>
                                <path d="M9,1.5 C13.1421356,1.5 16.5,4.85786438 16.5,9 C16.5,13.1421356 13.1421356,16.5 9,16.5 C4.85786438,16.5 1.5,13.1421356 1.5,9 C1.5,4.85786438 4.85786438,1.5 9,1.5 Z M9,5.625 C7.54875,5.625 6.375,6.79875 6.375,8.25 C6.375,10.21875 9,13.125 9,13.125 C9,13.125 11.625,10.21875 11.625,8.25 C11.625,6.79875 10.45125,5.625 9,5.625 Z M9,7.3125 C9.51776695,7.3125 9.93749998,7.73223305 9.93749998,8.25 C9.93749998,8.76776695 9.51776695,9.1875 9,9.1875 C8.48223305,9.1875 8.06250002,8.76776695 8.06250002,8.25 C8.06250002,7.73223305 8.48223305,7.3125 9,7.3125 Z" id="形状结合" fill-opacity="0.85" fill="#29bece"></path>
                            </g>
                        </g>
                    </g>
                </g>
            </g>
        </g>
    </g>
</svg>