<?xml version="1.0" encoding="UTF-8"?>
<svg width="38px" height="38px" viewBox="0 0 38 38" version="1.1" xmlns="http://www.w3.org/2000/svg" xmlns:xlink="http://www.w3.org/1999/xlink">
    <title>3</title>
    <g id="草稿" stroke="none" stroke-width="1" fill="none" fill-rule="evenodd">
        <g id="1" transform="translate(-242.000000, -460.000000)">
            <g id="编组-11" transform="translate(226.000000, 125.000000)">
                <g id="编组-4备份-3" transform="translate(0.000000, 311.000000)">
                    <g id="3" transform="translate(16.000000, 24.000000)">
                        <rect id="矩形" fill-opacity="0.1" fill="#47B881" x="0" y="0" width="38" height="38" rx="4"></rect>
                        <g id="local_shipping_black_24dp" transform="translate(9.000000, 9.000000)">
                            <polygon id="路径" points="0 0 20 0 20 20 0 20"></polygon>
                            <path d="M16.6666667,6.66666667 L14.1666667,6.66666667 L14.1666667,3.33333333 L2.5,3.33333333 C1.58333333,3.33333333 0.833333333,4.08333333 0.833333333,5 L0.833333333,14.1666667 L2.5,14.1666667 C2.5,15.55 3.61666667,16.6666667 5,16.6666667 C6.38333333,16.6666667 7.5,15.55 7.5,14.1666667 L12.5,14.1666667 C12.5,15.55 13.6166667,16.6666667 15,16.6666667 C16.3833333,16.6666667 17.5,15.55 17.5,14.1666667 L19.1666667,14.1666667 L19.1666667,10 L16.6666667,6.66666667 Z M16.25,7.91666667 L17.8833333,10 L14.1666667,10 L14.1666667,7.91666667 L16.25,7.91666667 Z M5,15 C4.54166667,15 4.16666667,14.625 4.16666667,14.1666667 C4.16666667,13.7083333 4.54166667,13.3333333 5,13.3333333 C5.45833333,13.3333333 5.83333333,13.7083333 5.83333333,14.1666667 C5.83333333,14.625 5.45833333,15 5,15 Z M6.85,12.5 C6.39166667,11.9916667 5.74166667,11.6666667 5,11.6666667 C4.25833333,11.6666667 3.60833333,11.9916667 3.15,12.5 L2.5,12.5 L2.5,5 L12.5,5 L12.5,12.5 L6.85,12.5 Z M15,15 C14.5416667,15 14.1666667,14.625 14.1666667,14.1666667 C14.1666667,13.7083333 14.5416667,13.3333333 15,13.3333333 C15.4583333,13.3333333 15.8333333,13.7083333 15.8333333,14.1666667 C15.8333333,14.625 15.4583333,15 15,15 Z" id="形状" fill="#47B881"></path>
                        </g>
                    </g>
                </g>
            </g>
        </g>
    </g>
</svg>