<?xml version="1.0" encoding="UTF-8"?>
<svg width="38px" height="38px" viewBox="0 0 38 38" version="1.1" xmlns="http://www.w3.org/2000/svg" xmlns:xlink="http://www.w3.org/1999/xlink">
    <title>1</title>
    <defs>
        <path d="M16.5916667,8.4 L9.09166666,0.9 C8.79166666,0.6 8.375,0.41666666 7.91666666,0.41666666 L2.08333334,0.41666666 C1.16666668,0.41666666 0.41666666,1.16666666 0.41666666,2.08333334 L0.41666666,7.91666666 C0.41666666,8.375 0.6,8.79166666 0.90833334,9.1 L8.40833334,16.6 C8.70833334,16.9 9.125,17.0833333 9.58333334,17.0833333 C10.0416667,17.0833333 10.4583333,16.9 10.7583333,16.5916667 L16.5916667,10.7583333 C16.9,10.4583333 17.0833333,10.0416667 17.0833333,9.58333334 C17.0833333,9.125 16.8916667,8.7 16.5916667,8.4 Z M3.33333334,4.58333334 C2.64166666,4.58333334 2.08333334,4.025 2.08333334,3.33333334 C2.08333334,2.64166668 2.64166666,2.08333334 3.33333334,2.08333334 C4.02500002,2.08333334 4.58333334,2.64166666 4.58333334,3.33333334 C4.58333334,4.02500002 4.025,4.58333334 3.33333334,4.58333334 Z" id="path-1"></path>
    </defs>
    <g id="草稿" stroke="none" stroke-width="1" fill="none" fill-rule="evenodd">
        <g id="1" transform="translate(-242.000000, -214.000000)">
            <g id="编组-11" transform="translate(226.000000, 125.000000)">
                <g id="编组-4备份" transform="translate(0.000000, 65.000000)">
                    <g id="1" transform="translate(16.000000, 24.000000)">
                        <rect id="矩形" fill-opacity="0.1" fill="#3095F2" x="0" y="0" width="38" height="38" rx="4"></rect>
                        <g id="local_offer" transform="translate(9.000000, 9.000000)">
                            <rect id="矩形" fill="#000000" fill-rule="nonzero" opacity="0" x="0" y="0" width="20" height="20"></rect>
                            <g id="color" transform="translate(1.250000, 1.250000)">
                                <mask id="mask-2" fill="white">
                                    <use xlink:href="#path-1"></use>
                                </mask>
                                <g id="蒙版" fill-rule="nonzero"></g>
                                <g id="编组" mask="url(#mask-2)">
                                    <g transform="translate(-1.250000, -1.250000)" id="color">
                                        <rect id="矩形" fill="#3095F2" x="0" y="0" width="20" height="20"></rect>
                                    </g>
                                </g>
                            </g>
                        </g>
                    </g>
                </g>
            </g>
        </g>
    </g>
</svg>