<?xml version="1.0" encoding="UTF-8"?>
<svg width="38px" height="38px" viewBox="0 0 38 38" version="1.1" xmlns="http://www.w3.org/2000/svg" xmlns:xlink="http://www.w3.org/1999/xlink">
    <title>2</title>
    <g id="草稿" stroke="none" stroke-width="1" fill="none" fill-rule="evenodd">
        <g id="1" transform="translate(-242.000000, -337.000000)">
            <g id="编组-11" transform="translate(226.000000, 125.000000)">
                <g id="编组-4备份-2" transform="translate(0.000000, 188.000000)">
                    <g id="2" transform="translate(16.000000, 24.000000)">
                        <rect id="矩形" fill-opacity="0.1" fill="#FCA000" x="0" y="0" width="38" height="38" rx="4"></rect>
                        <g id="content_paste_go_black_24dp" transform="translate(9.000000, 9.000000)">
                            <rect id="矩形" x="0" y="0" width="20" height="20"></rect>
                            <g id="编组" transform="translate(2.500000, 0.833333)" fill="#FCA000">
                                <path d="M1.66666667,3.33333333 L3.33333333,3.33333333 L3.33333333,5.83333333 L11.6666667,5.83333333 L11.6666667,3.33333333 L13.3333333,3.33333333 L13.3333333,8.33333333 L15,8.33333333 L15,3.33333333 C15,2.41666667 14.25,1.66666667 13.3333333,1.66666667 L9.85,1.66666667 C9.5,0.7 8.58333333,0 7.5,0 C6.41666667,0 5.5,0.7 5.15,1.66666667 L1.66666667,1.66666667 C0.75,1.66666667 0,2.41666667 0,3.33333333 L0,15 C0,15.9166667 0.75,16.6666667 1.66666667,16.6666667 L5.83333333,16.6666667 L5.83333333,15 L1.66666667,15 L1.66666667,3.33333333 Z M7.5,1.66666667 C7.95833333,1.66666667 8.33333333,2.04166667 8.33333333,2.5 C8.33333333,2.95833333 7.95833333,3.33333333 7.5,3.33333333 C7.04166667,3.33333333 6.66666667,2.95833333 6.66666667,2.5 C6.66666667,2.04166667 7.04166667,1.66666667 7.5,1.66666667 Z" id="形状"></path>
                                <polygon id="路径" points="12.5083333 10 11.325 11.175 12.6416667 12.4916667 7.5 12.4916667 7.5 14.1583333 12.6416667 14.1583333 11.325 15.4833333 12.5083333 16.6583333 15.8333333 13.325"></polygon>
                            </g>
                        </g>
                    </g>
                </g>
            </g>
        </g>
    </g>
</svg>