<?xml version="1.0" encoding="UTF-8"?>
<svg width="38px" height="38px" viewBox="0 0 38 38" version="1.1" xmlns="http://www.w3.org/2000/svg" xmlns:xlink="http://www.w3.org/1999/xlink">
    <title>4</title>
    <g id="草稿" stroke="none" stroke-width="1" fill="none" fill-rule="evenodd">
        <g id="1" transform="translate(-242.000000, -583.000000)">
            <g id="编组-11" transform="translate(226.000000, 125.000000)">
                <g id="编组-4备份-4" transform="translate(0.000000, 434.000000)">
                    <g id="4" transform="translate(16.000000, 24.000000)">
                        <rect id="矩形" fill-opacity="0.1" fill="#F56349" x="0" y="0" width="38" height="38" rx="4"></rect>
                        <g id="design_services_black_24dp" transform="translate(9.000000, 9.000000)">
                            <rect id="矩形" x="0" y="0" width="20" height="20"></rect>
                            <path d="M17.475,6.05833333 C17.8,5.73333333 17.8,5.20833333 17.475,4.88333333 L15.1166667,2.525 C14.7916667,2.2 14.2666667,2.2 13.9416667,2.525 L10.2,6.26666667 L6.95833333,3.025 C6.30833333,2.375 5.25,2.375 4.6,3.025 L3.01666667,4.60833333 C2.36666667,5.25833333 2.36666667,6.31666667 3.01666667,6.96666667 L6.25833333,10.2083333 L2.5,13.9666667 L2.5,17.5 L6.03333333,17.5 L9.8,13.7333333 L13.0416667,16.975 C13.8333333,17.7666667 14.9,17.475 15.4,16.975 L16.9833333,15.3916667 C17.6333333,14.7416667 17.6333333,13.6833333 16.9833333,13.0333333 L13.7416667,9.79166667 L17.475,6.05833333 Z M4.2,5.78333333 L5.775,4.2 C5.775,4.2 5.775,4.2 5.775,4.2 L6.83333333,5.25833333 L5.85,6.25 L7.025,7.425 L8.01666667,6.43333333 L9.01666667,7.43333333 L7.43333333,9.01666667 L4.2,5.78333333 Z M13.5583333,11.9833333 L12.5666667,12.975 L13.7416667,14.15 L14.7333333,13.1583333 L15.7916667,14.2166667 L14.2083333,15.8 L10.9666667,12.5583333 L12.55,10.975 L13.5583333,11.9833333 Z M5.34166667,15.8333333 L4.16666667,15.8333333 L4.16666667,14.6583333 L12.175,6.65 L13.2583333,7.73333333 L13.35,7.825 L5.34166667,15.8333333 Z M13.35,5.46666667 L14.525,4.29166667 L15.7,5.46666667 L14.525,6.64166667 L13.35,5.46666667 Z" id="形状" fill="#F56349"></path>
                        </g>
                    </g>
                </g>
            </g>
        </g>
    </g>
</svg>