<?xml version="1.0" encoding="UTF-8"?>
<svg width="14px" height="14px" viewBox="0 0 14 14" version="1.1" xmlns="http://www.w3.org/2000/svg" xmlns:xlink="http://www.w3.org/1999/xlink">
    <title>文件类型-标准图-工作表</title>
    <g id="页面-1" stroke="none" stroke-width="1" fill="none" fill-rule="evenodd">
        <g id="文件类型-标准图-工作表">
            <rect id="矩形" x="0" y="0" width="14" height="14"></rect>
            <g id="编组-23" transform="translate(1.330000, 0.000000)" fill-rule="nonzero">
                <path d="M7.875,0 L11.375,3.5 L11.375,13.125 C11.375,13.6082625 10.9832625,14 10.5,14 L0.875,14 C0.3917375,14 0,13.6082625 0,13.125 L0,0.875 C0,0.3917375 0.3917375,0 0.875,0 L7.875,0 Z M4.7243,4.9 L3.6232,4.9 L5.4635,7.5565 L3.5,10.3978 L4.6011,10.3978 L6.0179,8.2726 L7.4347,10.3978 L8.5358,10.3978 L6.5569,7.5565 L8.4126,4.9 L7.3115,4.9 L6.0179,6.8404 L4.7243,4.9 Z" id="形状结合" fill="#47B881"></path>
                <path d="M7.875,0 L11.375,3.5 L8.75,3.5 C8.2667375,3.5 7.875,3.1082625 7.875,2.625 L7.875,0 Z" id="路径" fill="#B7DFB9"></path>
            </g>
        </g>
    </g>
</svg>