<?xml version="1.0" encoding="UTF-8"?>
<svg width="14px" height="14px" viewBox="0 0 14 14" version="1.1" xmlns="http://www.w3.org/2000/svg" xmlns:xlink="http://www.w3.org/1999/xlink">
    <title>文件类型-标准图-文件夹</title>
    <g id="页面-1" stroke="none" stroke-width="1" fill="none" fill-rule="evenodd">
        <g id="文件类型-标准图-文件夹">
            <rect id="矩形" x="0" y="0" width="14" height="14"></rect>
            <g id="编组-16" transform="translate(0.000000, 1.050000)" fill-rule="nonzero">
                <path d="M0,0.7 C0,0.313400675 0.313400675,0 0.7,0 L5.4884375,0 C5.76845951,0 6.02153133,0.166901344 6.131825,0.4242875 L6.475,1.225 L13.3,1.225 C13.6865993,1.225 14,1.53840068 14,1.925 L14,9.275 C14,9.66159932 13.6865993,9.975 13.3,9.975 L0.7,9.975 C0.313400675,9.975 0,9.66159932 0,9.275 L0,0.7 Z" id="路径" fill="#FFA000"></path>
                <path d="M1.925,2.3625 L12.075,2.3625 C12.5416667,2.3625 12.775,2.59583333 12.775,3.0625 L12.775,9.3625 C12.775,9.82916667 12.5416667,10.0625 12.075,10.0625 L1.925,10.0625 C1.45833333,10.0625 1.225,9.82916667 1.225,9.3625 L1.225,3.0625 C1.225,2.59583333 1.45833333,2.3625 1.925,2.3625 Z" id="路径" fill="#FFFFFF"></path>
                <path d="M0.7,3.5 L13.3,3.5 C13.7666667,3.5 14,3.73333333 14,4.2 L14,11.2 C14,11.6666667 13.7666667,11.9 13.3,11.9 L0.7,11.9 C0.233333333,11.9 0,11.6666667 0,11.2 L0,4.2 C0,3.73333333 0.233333333,3.5 0.7,3.5 Z" id="路径" fill="#FFCA28"></path>
            </g>
        </g>
    </g>
</svg>