<?xml version="1.0" encoding="UTF-8"?>
<svg width="14px" height="14px" viewBox="0 0 14 14" version="1.1" xmlns="http://www.w3.org/2000/svg" xmlns:xlink="http://www.w3.org/1999/xlink">
    <title>Icon/file_mov</title>
    <g id="页面-1" stroke="none" stroke-width="1" fill="none" fill-rule="evenodd">
        <g id="Icon/file_mov">
            <rect id="矩形" x="0" y="0" width="14" height="14"></rect>
            <g id="编组-19" transform="translate(1.330000, 0.000000)" fill-rule="nonzero">
                <path d="M7.875,0 L11.375,3.5 L11.375,13.125 C11.375,13.6082625 10.9832625,14 10.5,14 L0.875,14 C0.3917375,14 0,13.6082625 0,13.125 L0,0.875 C0,0.3917375 0.3917375,0 0.875,0 L7.875,0 Z M4.2072625,4.7796 C3.934525,4.6235 3.5875,4.820725 3.5875,5.1331 L3.5875,5.1331 L3.5875,9.99985 C3.5875,10.3203625 3.934525,10.517675 4.2072625,10.35335 L4.2072625,10.35335 L8.2891375,7.919975 C8.5535625,7.7637875 8.5535625,7.377475 8.2891375,7.212975 L8.2891375,7.212975 Z" id="形状结合" fill="#7C8EEE"></path>
                <path d="M7.875,0 L11.375,3.5 L8.75,3.5 C8.2667375,3.5 7.875,3.1082625 7.875,2.625 L7.875,0 Z" id="路径" fill="#CAD1F8"></path>
            </g>
        </g>
    </g>
</svg>