<?xml version="1.0" encoding="UTF-8"?>
<svg width="14px" height="14px" viewBox="0 0 14 14" version="1.1" xmlns="http://www.w3.org/2000/svg" xmlns:xlink="http://www.w3.org/1999/xlink">
    <title>文件类型-标准图-PDF文档</title>
    <g id="页面-1" stroke="none" stroke-width="1" fill="none" fill-rule="evenodd">
        <g id="文件类型-标准图-PDF文档">
            <rect id="矩形" x="0" y="0" width="14" height="14"></rect>
            <g id="编组-15" transform="translate(1.330000, 0.000000)" fill-rule="nonzero">
                <path d="M7.875,0 L11.375,3.5 L11.375,13.125 C11.375,13.6082625 10.9832625,14 10.5,14 L0.875,14 C0.3917375,14 0,13.6082625 0,13.125 L0,0.875 C0,0.3917375 0.3917375,0 0.875,0 L7.875,0 Z M5.3543875,4.726925 C5.1268875,4.7093375 4.9168875,4.8146 4.8118875,5.007625 C4.4970625,5.53385 4.9518875,6.568975 5.1618875,6.990025 C4.9168875,7.7443625 4.6195625,8.4636125 4.2345625,9.1653625 C2.5725,9.8847 2.5375,10.32325 2.5375,10.4811875 C2.5375,10.674125 2.6424125,10.86715 2.8349125,10.954825 C2.9049125,11.0075 3.009825,11.025 3.097325,11.025 C3.5347375,11.025 4.04215,10.533775 4.584475,9.5689125 C5.2668,9.288125 5.9492125,9.0601 6.6665375,8.90225 C7.03395,9.2180375 7.488775,9.393475 7.9611875,9.4285625 C8.2586,9.4285625 8.8360125,9.4285625 8.8360125,8.832075 C8.8535125,8.6039625 8.7310125,8.218 7.9086875,8.2005 C7.541275,8.2005 7.17395,8.2530875 6.80645,8.32335 C6.36844885,7.91990889 6.00171454,7.44540552 5.7217125,6.91985 C6.0192125,5.9374 6.0367125,5.2707375 5.8092125,4.95495 C5.7042125,4.8146 5.5293,4.726925 5.3543875,4.726925 Z M5.5118,7.7970375 C5.7042125,8.0952375 5.949125,8.3934375 6.211625,8.6566375 L6.211625,8.6566375 L6.159125,8.6566375 L6.176625,8.6741375 C5.77327469,8.76677431 5.37595639,8.88395062 4.9868875,9.0250125 L4.9868875,9.0250125 L4.9868875,8.9900125 L4.9518875,9.0075125 C5.1443,8.62155 5.3193,8.2180875 5.4768,7.8145375 L5.4768,7.8145375 L5.4943,7.8320375 Z M7.8911875,8.7268125 C8.2411,8.7268125 8.3111,8.8144875 8.3111,8.8671625 C8.2061875,8.90225 8.0836875,8.91975 7.9611875,8.90225 C7.786275,8.8846625 7.611275,8.849575 7.436275,8.7618125 C7.593775,8.7268125 7.7336875,8.7268125 7.8911875,8.7268125 Z M5.3893,5.2532375 C5.4768,5.5514375 5.4768,5.867225 5.3718,6.165425 C5.2493,5.884725 5.1968,5.5689375 5.2668,5.2707375 C5.2843,5.2532375 5.3193,5.2532375 5.3368,5.2532375 Z" id="形状结合" fill="#F56349"></path>
                <path d="M7.875,0 L11.375,3.5 L8.75,3.5 C8.2667375,3.5 7.875,3.1082625 7.875,2.625 L7.875,0 Z" id="路径" fill="#FDB8B8"></path>
            </g>
        </g>
    </g>
</svg>