<?xml version="1.0" encoding="UTF-8"?>
<svg width="14px" height="14px" viewBox="0 0 14 14" version="1.1" xmlns="http://www.w3.org/2000/svg" xmlns:xlink="http://www.w3.org/1999/xlink">
    <title>文件类型-标准图-图片文件</title>
    <g id="页面-1" stroke="none" stroke-width="1" fill="none" fill-rule="evenodd">
        <g id="文件类型-标准图-图片文件">
            <rect id="矩形" x="0" y="0" width="14" height="14"></rect>
            <g id="编组-17" transform="translate(1.330000, 0.000000)" fill-rule="nonzero">
                <path d="M7.875,0 L11.375,3.5 L11.375,13.125 C11.375,13.6082625 10.9832625,14 10.5,14 L0.875,14 C0.3917375,14 0,13.6082625 0,13.125 L0,0.875 C0,0.3917375 0.3917375,0 0.875,0 L7.875,0 Z M6.66535771,6.0755835 C6.59600587,6.07402684 6.53088353,6.10882792 6.4936375,6.16735 L6.4936375,6.16735 L4.6438875,9.0666625 L3.800825,8.2406625 C3.75890888,8.19939133 3.70083114,8.17886277 3.64229005,8.18462562 C3.58374895,8.19038847 3.53078895,8.22184771 3.497725,8.2705 L3.497725,8.2705 L2.2220625,10.14545 C2.18046695,10.2062249 2.17603704,10.2849909 2.21046877,10.3500368 C2.2449005,10.4150827 2.31252823,10.4557053 2.386125,10.4555504 L2.386125,10.4555504 L8.9592125,10.4555504 C9.03012831,10.4556359 9.09569052,10.4178406 9.1311543,10.356429 C9.16661808,10.2950174 9.16658307,10.2193412 9.1310625,10.1579625 L9.1310625,10.1579625 L6.8327875,6.1749625 C6.79820481,6.11482817 6.73470954,6.07714016 6.66535771,6.0755835 Z M3.604125,4.9 C3.05181954,4.9 2.6040875,5.34773204 2.6040875,5.9000375 C2.6040875,6.45234296 3.05181954,6.900075 3.604125,6.900075 C4.15643046,6.900075 4.6041625,6.45234296 4.6041625,5.9000375 C4.6041625,5.34773204 4.15643046,4.9 3.604125,4.9 Z" id="形状结合" fill="#FCA000"></path>
                <path d="M7.875,0 L11.375,3.5 L8.75,3.5 C8.2667375,3.5 7.875,3.1082625 7.875,2.625 L7.875,0 Z" id="路径" fill="#FBDE99"></path>
            </g>
        </g>
    </g>
</svg>