<?xml version="1.0" encoding="UTF-8"?>
<svg width="14px" height="14px" viewBox="0 0 14 14" version="1.1" xmlns="http://www.w3.org/2000/svg" xmlns:xlink="http://www.w3.org/1999/xlink">
    <title>文件类型-标准图-幻灯片</title>
    <g id="页面-1" stroke="none" stroke-width="1" fill="none" fill-rule="evenodd">
        <g id="文件类型-标准图-幻灯片">
            <rect id="矩形" x="0" y="0" width="14" height="14"></rect>
            <g id="编组-18" transform="translate(1.330000, 0.000000)" fill-rule="nonzero">
                <path d="M7.875,0 L11.375,3.5 L11.375,13.125 C11.375,13.6082625 10.9832625,14 10.5,14 L0.875,14 C0.3917375,14 0,13.6082625 0,13.125 L0,0.875 C0,0.3917375 0.3917375,0 0.875,0 L7.875,0 Z M5.9444,4.5024 L3.458,4.5024 L3.458,10.5 L4.4408,10.5 L4.4408,8.1984 L5.9276,8.1984 C7.3892,8.1984 8.12,7.5768 8.12,6.342 C8.12,5.1156 7.3892,4.5024 5.9444,4.5024 Z M5.8688,5.3424 C6.2972,5.3424 6.6164,5.418 6.818,5.5776 C7.0196,5.7288 7.1288,5.9808 7.1288,6.342 C7.1288,6.7032 7.028,6.9636 6.8264,7.1232 C6.6248,7.2744 6.3056,7.3584 5.8688,7.3584 L4.4408,7.3584 L4.4408,5.3424 L5.8688,5.3424 Z" id="形状结合" fill="#FF9333"></path>
                <path d="M7.875,0 L11.375,3.5 L8.75,3.5 C8.2667375,3.5 7.875,3.1082625 7.875,2.625 L7.875,0 Z" id="路径" fill="#FFD3AD"></path>
            </g>
        </g>
    </g>
</svg>