<?xml version="1.0" encoding="UTF-8"?>
<svg width="14px" height="14px" viewBox="0 0 14 14" version="1.1" xmlns="http://www.w3.org/2000/svg" xmlns:xlink="http://www.w3.org/1999/xlink">
    <title>文件类型-标准图-记事本</title>
    <g id="页面-1" stroke="none" stroke-width="1" fill="none" fill-rule="evenodd">
        <g id="文件类型-标准图-记事本">
            <rect id="矩形" x="0" y="0" width="14" height="14"></rect>
            <g id="编组-7" transform="translate(1.330000, 0.000000)" fill-rule="nonzero">
                <path d="M7.875,0 L11.375,3.5 L11.375,13.125 C11.375,13.6082625 10.9832625,14 10.5,14 L0.875,14 C0.3917375,14 0,13.6082625 0,13.125 L0,0.875 C0,0.3917375 0.3917375,0 0.875,0 L7.875,0 Z M8.12,5.0022 L3.6155,5.0022 L3.6155,5.7722 L5.4173,5.7722 L5.4173,10.5 L6.3182,10.5 L6.3182,5.7722 L8.12,5.7722 L8.12,5.0022 Z" id="形状结合" fill="#8289AD"></path>
                <path d="M7.875,0 L11.375,3.5 L8.75,3.5 C8.2667375,3.5 7.875,3.1082625 7.875,2.625 L7.875,0 Z" id="路径" fill="#CDCFDE"></path>
            </g>
        </g>
    </g>
</svg>