<?xml version="1.0" encoding="UTF-8"?>
<svg width="14px" height="14px" viewBox="0 0 14 14" version="1.1" xmlns="http://www.w3.org/2000/svg" xmlns:xlink="http://www.w3.org/1999/xlink">
    <title>文件类型-标准图-未知文件</title>
    <g id="页面-1" stroke="none" stroke-width="1" fill="none" fill-rule="evenodd">
        <g id="文件类型-标准图-未知文件">
            <rect id="矩形" x="0" y="0" width="14" height="14"></rect>
            <g id="编组-24" transform="translate(1.330000, 0.000000)" fill-rule="nonzero">
                <path d="M7.875,0 L11.375,3.5 L11.375,13.125 C11.375,13.6082625 10.9832625,14 10.5,14 L0.875,14 C0.3917375,14 0,13.6082625 0,13.125 L0,0.875 C0,0.3917375 0.3917375,0 0.875,0 L7.875,0 Z M6.37,9.45 L5.46,9.45 L5.46,10.36 L6.37,10.36 L6.37,9.45 Z M6.048,4.9 C5.4782,4.9 5.0316,5.0617 4.7005,5.3851 C4.3617,5.7085 4.2,6.1551 4.2,6.7249 L5.0778,6.7249 C5.0778,6.4015 5.1394,6.1474 5.2703,5.9703 C5.4166,5.7547 5.6553,5.6546 5.9941,5.6546 C6.2559,5.6546 6.4638,5.7239 6.6101,5.8702 C6.7487,6.0165 6.8257,6.2167 6.8257,6.4708 C6.8257,6.6633 6.7564,6.8481 6.6178,7.0175 L6.5254,7.1253 C6.0249,7.5719 5.7246,7.8953 5.6245,8.1032 C5.5167,8.3111 5.4705,8.5652 5.4705,8.8578 L5.4705,8.9656 L6.356,8.9656 L6.356,8.8578 C6.356,8.673 6.3945,8.5113 6.4715,8.3573 C6.5408,8.2187 6.6409,8.0878 6.7795,7.9723 C7.1491,7.6489 7.3724,7.441 7.4417,7.364 C7.6265,7.1176 7.7266,6.8019 7.7266,6.4169 C7.7266,5.9472 7.5726,5.5776 7.2646,5.3081 C6.9566,5.0309 6.5485,4.9 6.048,4.9 Z" id="形状结合" fill="#CCCCCC"></path>
                <path d="M7.875,0 L11.375,3.5 L8.75,3.5 C8.2667375,3.5 7.875,3.1082625 7.875,2.625 L7.875,0 Z" id="路径" fill="#EAEAEA"></path>
            </g>
        </g>
    </g>
</svg>