<?xml version="1.0" encoding="UTF-8"?>
<svg width="14px" height="14px" viewBox="0 0 14 14" version="1.1" xmlns="http://www.w3.org/2000/svg" xmlns:xlink="http://www.w3.org/1999/xlink">
    <title>文件类型-标准图-压缩文件</title>
    <g id="页面-1" stroke="none" stroke-width="1" fill="none" fill-rule="evenodd">
        <g id="文件类型-标准图-压缩文件">
            <rect id="矩形" x="0" y="0" width="14" height="14"></rect>
            <g id="编组-8" transform="translate(1.330000, 0.000000)" fill-rule="nonzero">
                <path d="M4.725,0.9625 L5.6854875,0.9625 L5.6854875,1.8536875 L4.725,1.8536875 L4.725,2.8161875 L5.6854875,2.8161875 L5.6854875,3.7786875 L4.725,3.7786875 L4.725,4.7292875 L5.6854875,4.7292875 L5.6854875,5.679975 L4.725,5.679975 L4.725,6.6306625 L5.6895125,6.6306625 L5.6895125,5.6800625 L6.65,5.6800625 L6.65,4.729375 L5.6895125,4.729375 L5.6895125,3.7786875 L6.65,3.7786875 L6.65,2.8161875 L5.689425,2.8161875 L5.689425,1.925 L6.65,1.925 L6.65,0.9625 L5.6895125,0.9625 L5.6895125,0 L7.875,0 L11.375,3.5 L11.375,13.125 C11.375,13.6082625 10.9832625,14 10.5,14 L0.875,14 C0.3917375,14 0,13.6082625 0,13.125 L0,0.875 C0,0.3917375 0.3917375,0 0.875,0 L4.725,0 L4.725,0.9625 Z M6.65,8.6030875 L4.725,8.6030875 L4.725,10.5042 C4.725,10.6303779 4.77521432,10.7513684 4.8645625,10.8404625 C4.95395519,10.9295781 5.0750379,10.9795875 5.2012625,10.9795875 L5.2012625,10.9795875 L6.1737375,10.9795875 C6.29997844,10.9795875 6.42106995,10.929539 6.5104375,10.840375 C6.59974274,10.7513238 6.64995516,10.6304047 6.65,10.5042875 L6.65,10.5042875 L6.65,8.6030875 Z M6.1737375,9.6922875 L6.1737375,10.6469125 L5.2012625,10.6469125 L5.2012625,9.6922875 L6.1737375,9.6922875 Z M6.634075,6.7018875 L5.6776125,6.7018875 L5.6776125,7.6565125 L6.634075,7.6565125 L6.634075,6.7018875 Z" id="形状结合" fill="#576A95"></path>
                <path d="M7.875,0 L11.375,3.5 L8.75,3.5 C8.2667375,3.5 7.875,3.1082625 7.875,2.625 L7.875,0 Z" id="路径" fill="#BBC3D4"></path>
            </g>
        </g>
    </g>
</svg>