<?xml version="1.0" encoding="UTF-8"?>
<svg width="67px" height="67px" viewBox="0 0 67 67" version="1.1" xmlns="http://www.w3.org/2000/svg" xmlns:xlink="http://www.w3.org/1999/xlink">
    <title>矩形</title>
    <defs>
        <radialGradient cx="50%" cy="50%" fx="50%" fy="50%" r="52.0248204%" gradientTransform="translate(0.500000,0.500000),scale(0.926195,1.000000),translate(-0.500000,-0.500000)" id="radialGradient-1">
            <stop stop-color="#FFFFFF" offset="0%"></stop>
            <stop stop-color="#FAFAFA" offset="99%"></stop>
        </radialGradient>
        <radialGradient cx="49.9912968%" cy="49.9579954%" fx="49.9912968%" fy="49.9579954%" r="76.4994597%" gradientTransform="translate(0.499913,0.499580),scale(0.521059,1.000000),translate(-0.499913,-0.499580)" id="radialGradient-2">
            <stop stop-color="#3353AB" offset="0%"></stop>
            <stop stop-color="#3336AB" offset="99%"></stop>
        </radialGradient>
    </defs>
    <g id="页面-1" stroke="none" stroke-width="1" fill="none" fill-rule="evenodd">
        <rect id="矩形" fill="#D8D8D8" opacity="0" x="0" y="0" width="67" height="67"></rect>
        <g id="资源-1" transform="translate(0.000000, 3.000000)" fill-rule="nonzero">
            <ellipse id="椭圆形" fill="url(#radialGradient-1)" cx="33.06" cy="30.62" rx="33.06" ry="30.62"></ellipse>
            <path d="M33.06,-1.65414638e-05 C29.8324799,-0.00120703161 26.6197605,0.436126495 23.51,1.3 L25.25,1.91 C25.8093816,2.15937419 26.1913865,2.69036096 26.25,3.3 C26.25,4.39 27.83,5.3 29.79,5.3 L36.32,5.3 C38.32,5.3 39.85,4.41 39.85,3.3 C39.9126227,2.69187662 40.2933299,2.1626936 40.85,1.91 L42.85,1.37 C39.6667489,0.457956621 36.3713291,-0.00320018508 33.06,-1.65414638e-05 L33.06,-1.65414638e-05 Z" id="路径" fill="#3336AB"></path>
            <path d="M33.06,20 C27.1247019,20.0423734 21.2141714,19.2307279 15.51,17.59 C11.4802926,16.4083622 7.22283514,18.5436409 5.76,22.48 C4.83978047,24.9507491 4.35919343,27.5635181 4.34,30.2 C4.34,40.79 17.2,47.2 33.06,47.2 C48.92,47.2 61.79,40.81 61.79,30.2 C61.767195,27.5629637 61.2832332,24.9502471 60.36,22.48 C58.8971649,18.5436409 54.6397074,16.4083622 50.61,17.59 C44.9061455,19.2322269 38.995397,20.0439024 33.06,20 L33.06,20 Z" id="路径" fill="url(#radialGradient-2)"></path>
            <path d="M19.49,37.49 L19.69,30.02 C19.7353416,29.2476595 20.3571009,28.6345357 21.13,28.6 L23,28.51 C23.3552805,28.4756581 23.7082952,28.5948366 23.9700599,28.8374945 C24.2318246,29.0801523 24.3773669,29.4231396 24.37,29.78 L24.17,37.24 C24.1246584,38.0123405 23.5028991,38.6254643 22.73,38.66 L20.87,38.76 C20.5130862,38.7974049 20.1573118,38.6796051 19.8932474,38.4365894 C19.6291831,38.1935737 19.4823034,37.848786 19.49,37.49 L19.49,37.49 Z" id="路径" fill="#00C7DB"></path>
            <path d="M41.76,37.18 L41.84,29.73 C41.8492923,29.371107 42.0077257,29.0323208 42.2772041,28.7951039 C42.5466826,28.5578869 42.9028266,28.4437001 43.26,28.48 L45.12,28.61 C45.8884464,28.6614558 46.4910452,29.2900661 46.51,30.06 L46.43,37.51 C46.4209523,37.8708277 46.2611489,38.2113615 45.9893953,38.4489083 C45.7176418,38.6864551 45.3587968,38.7992853 45,38.76 L43.14,38.62 C42.3770749,38.5685685 41.7789348,37.9444222 41.76,37.18 Z" id="路径" fill="#00C7DB"></path>
        </g>
    </g>
</svg>