<?xml version="1.0" encoding="UTF-8"?>
<svg width="14px" height="14px" viewBox="0 0 14 14" version="1.1" xmlns="http://www.w3.org/2000/svg" xmlns:xlink="http://www.w3.org/1999/xlink">
    <title>监控企业</title>
    <g id="页面-1" stroke="none" stroke-width="1" fill="none" fill-rule="evenodd">
        <g id="监控企业" transform="translate(-1.000000, -1.000000)">
            <path d="M8,1.33333333 C4.32,1.33333333 1.33333333,4.32 1.33333333,8 C1.33333333,11.68 4.32,14.6666667 8,14.6666667 C11.68,14.6666667 14.6666667,11.68 14.6666667,8 C14.6666667,4.32 11.68,1.33333333 8,1.33333333 Z M2.66666667,8 C2.66666667,7.59333333 2.72,7.19333333 2.80666667,6.81333333 L5.99333333,10 L5.99333333,10.6666667 C5.99333333,11.4 6.59333333,12 7.32666667,12 L7.32666667,13.2866667 C4.70666667,12.9533333 2.66666667,10.7133333 2.66666667,8 Z M10.66,10.6666667 L9.99333333,10.6666667 L9.99333333,8.66666667 C9.99333333,8.3 9.69333333,8 9.32666667,8 L5.32666667,8 L5.32666667,6.66666667 L6.66,6.66666667 C7.02666667,6.66666667 7.32666667,6.36666667 7.32666667,6 L7.32666667,4.66666667 L8.66,4.66666667 C9.39333333,4.66666667 9.99333333,4.06666667 9.99333333,3.33333333 L9.99333333,3.06 C11.9466667,3.84666667 13.3333333,5.76666667 13.3333333,8 C13.3333333,9.38666667 12.7933333,10.6533333 11.9266667,11.6 C11.7533333,11.06 11.26,10.6666667 10.66,10.6666667 Z" id="icon" fill="#FFFFFF"></path>
            <rect id="public" x="0" y="0" width="16" height="16"></rect>
        </g>
    </g>
</svg>