<?xml version="1.0" encoding="UTF-8"?>
<svg width="12px" height="13px" viewBox="0 0 12 13" version="1.1" xmlns="http://www.w3.org/2000/svg" xmlns:xlink="http://www.w3.org/1999/xlink">
    <title>风险企业</title>
    <g id="页面-1" stroke="none" stroke-width="1" fill="none" fill-rule="evenodd">
        <g id="风险企业" transform="translate(-2.000000, -1.000000)">
            <path d="M10,7.33333333 L10,3.33333333 L8,1.33333333 L6,3.33333333 L6,4.66666667 L2,4.66666667 L2,14 L14,14 L14,7.33333333 L10,7.33333333 Z M4.66666667,12.6666667 L3.33333333,12.6666667 L3.33333333,11.3333333 L4.66666667,11.3333333 L4.66666667,12.6666667 Z M4.66666667,10 L3.33333333,10 L3.33333333,8.66666667 L4.66666667,8.66666667 L4.66666667,10 Z M4.66666667,7.33333333 L3.33333333,7.33333333 L3.33333333,6 L4.66666667,6 L4.66666667,7.33333333 Z M8.66666667,12.6666667 L7.33333333,12.6666667 L7.33333333,11.3333333 L8.66666667,11.3333333 L8.66666667,12.6666667 Z M8.66666667,10 L7.33333333,10 L7.33333333,8.66666667 L8.66666667,8.66666667 L8.66666667,10 Z M8.66666667,7.33333333 L7.33333333,7.33333333 L7.33333333,6 L8.66666667,6 L8.66666667,7.33333333 Z M7.33333333,4.66666667 L7.33333333,3.33333333 L8.66666667,3.33333333 L8.66666667,4.66666667 L7.33333333,4.66666667 Z M12.6666667,12.6666667 L11.3333333,12.6666667 L11.3333333,11.3333333 L12.6666667,11.3333333 L12.6666667,12.6666667 Z M12.6666667,10 L11.3333333,10 L11.3333333,8.66666667 L12.6666667,8.66666667 L12.6666667,10 Z" id="icon" fill="#FFFFFF"></path>
            <rect id="location_city" x="0" y="0" width="16" height="16"></rect>
        </g>
    </g>
</svg>