<?xml version="1.0" encoding="UTF-8"?>
<svg width="15px" height="14px" viewBox="0 0 15 14" version="1.1" xmlns="http://www.w3.org/2000/svg" xmlns:xlink="http://www.w3.org/1999/xlink">
    <title>Icon/pin_cancel</title>
    <defs>
        <path d="M1.09632231,1.16012943 L6.87136364,7.272 L10.9332704,11.5695983 L10.1233118,12.4266975 L6.71136364,8.816 L6.71236364,11.5151515 L6.13963636,12.1212121 L5.56690909,11.5151515 L5.56636364,7.605 L5.25236364,7.272 L2.14772727,7.27272727 L2.14772727,6.06060606 L2.2888888,6.05459242 C2.76845077,6.01355313 3.19162714,5.7652061 3.47856,5.39405704 L0.286363636,2.01722856 L1.09632231,1.16012943 Z M9.02045455,0 C9.33545455,0 9.59318182,0.272727273 9.59318182,0.606060606 L9.59318182,0.606060606 L9.58565045,0.704030303 C9.54106364,0.991212121 9.30395455,1.21212121 9.02045455,1.21212121 L9.02045455,1.21212121 L8.44772727,1.21212121 L8.44772727,4.24242424 C8.44772727,5.24848485 9.21518182,6.06060606 10.1659091,6.06060606 L10.1659091,6.06060606 L10.1659091,7.27272727 L8.49136364,7.272 L3.86536364,2.377 L3.86590909,1.21212121 L3.29318182,1.21212121 C2.97818182,1.21212121 2.72045455,0.939393939 2.72045455,0.606060606 L2.72045455,0.606060606 L2.72798591,0.508090909 C2.77257273,0.220909091 3.00968182,0 3.29318182,0 L3.29318182,0 Z" id="path-1"></path>
    </defs>
    <g id="菜单" stroke="none" stroke-width="1" fill="none" fill-rule="evenodd">
        <g id="导航模式1-查询" transform="translate(-57.000000, -764.000000)">
            <g id="收起菜单" transform="translate(-1.000000, 750.000000)">
                <g id="门户管理" transform="translate(0.000000, 1.000000)">
                    <g id="编组-11" transform="translate(58.000000, 9.000000)">
                        <g id="Icon/pin_cancel" transform="translate(0.000000, 4.000000)">
                            <rect id="矩形" x="0.636363636" y="0" width="14" height="14"></rect>
                            <g id="Icon/color" transform="translate(0.636364, 1.272727)">
                                <mask id="mask-2" fill="white">
                                    <use xlink:href="#path-1"></use>
                                </mask>
                                <g id="蒙版-3" fill-rule="nonzero"></g>
                                <g mask="url(#mask-2)" fill="#000000" fill-opacity="0.5" id="矩形">
                                    <g transform="translate(-0.859091, -0.909091)">
                                        <rect x="0" y="0" width="13.7454545" height="14.5454545"></rect>
                                    </g>
                                </g>
                            </g>
                        </g>
                    </g>
                </g>
            </g>
        </g>
    </g>
</svg>