<?xml version="1.0" encoding="UTF-8"?>
<svg width="641px" height="504px" viewBox="0 0 641 504" version="1.1" xmlns="http://www.w3.org/2000/svg" xmlns:xlink="http://www.w3.org/1999/xlink" style="margin-top: -250px; margin-left: -100px;">
    <defs>
        <circle id="path-1-hzero-front-toast" cx="329" cy="252" r="252"></circle>
        <circle id="path-2-hzero-front-toast" cx="329" cy="328" r="114"></circle>
        <circle id="path-3-hzero-front-toast" cx="329" cy="328" r="76"></circle>
        <circle id="path-4-hzero-front-toast" cx="329" cy="328" r="45"></circle>
        <circle id="path-5-hzero-front-toast" cx="8" cy="8" r="8"></circle>
        <path d="M8,8 C10.6242113,8 12.8381452,10.4421109 13.5301011,13.7807976 C12.0933004,15.1556052 10.1452597,16 8,16 C5.85487244,16 3.90693956,15.1557092 2.47037435,13.7813007 C3.16185482,10.4421109 5.37578874,8 8,8 Z" id="path-6-hzero-front-toast"></path>
        <circle id="path-7-hzero-front-toast" cx="18" cy="18" r="18"></circle>
        <circle id="path-8-hzero-front-toast" cx="470" cy="255" r="13"></circle>
        <circle id="path-9-hzero-front-toast" cx="180" cy="328" r="8"></circle>
        <path d="M12.0000549,15.599849 C11.3373013,15.599849 10.8000961,16.1370816 10.8000961,16.7998352 C10.8000961,17.4627261 11.3373013,17.9999039 12.0000549,17.9999039 C12.6625339,17.9999039 13.2000137,17.4626987 13.2000137,16.7998352 C13.2000137,16.137219 12.6626712,15.599849 12.0000549,15.599849 L12.0000549,15.599849 Z M8.39990388,5.9996293 L15.5999039,5.9996293 L15.5999039,14.4001648 L8.39990388,14.4001648 L8.39990388,5.9996293 L8.39990388,5.9996293 Z M12.0000549,3.81346156e-16 C5.37273881,3.81346156e-16 0,5.37249166 0,12 C0,18.6272337 5.37273881,23.9999451 12.0000549,23.9999451 C18.6273985,23.9999451 24,18.6272337 24,12 C24,5.37249169 18.6273985,3.81346156e-16 12.0000549,3.81346156e-16 L12.0000549,3.81346156e-16 Z M16.8,17.9999039 C16.8,18.6629321 16.2627673,19.1999451 15.5999313,19.1999451 L8.39990388,19.1999451 C7.73720524,19.1999451 7.20010985,18.6629046 7.20010985,17.9999039 L7.20010985,5.9996293 C7.20010985,5.33731509 7.73720524,4.7999451 8.39990388,4.7999451 L15.5999039,4.7999451 C16.2628771,4.7999451 16.8,5.33731509 16.8,5.9996293 L16.8,17.9999039 L16.8,17.9999039 Z" id="path-10-hzero-front-toast"></path>
        <linearGradient x1="50%" y1="0%" x2="50%" y2="100%" id="linearGradient-11">
            <stop stop-color="#FFFFFF" stop-opacity="0.800043706" offset="0%"></stop>
            <stop stop-color="#FFFFFF" stop-opacity="0.897454108" offset="100%"></stop>
        </linearGradient>
        <path d="M5.998,18.545 L9.998,18.545 C9.62018055,34.811009 8.90166717,47.7442499 7.998,54.545 C7.09433283,47.7442499 6.37581945,34.811009 5.998,18.545 Z" id="path-12-hzero-front-toast"></path>
        <path d="M8,6.03595845e-13 C11.496,1.098 14,4.062 14,7.545 L14,13.35 L16,15.618 L16,17.545 L1.85268567e-12,17.545 L1.85268567e-12,15.618 L2,13.35 L2,7.545 C2,4.062 4.504,1.098 8,6.03595845e-13 Z M8,5.545 C6.8954305,5.545 6,6.4404305 6,7.545 C6,8.6495695 6.8954305,9.545 8,9.545 C9.1045695,9.545 10,8.6495695 10,7.545 C10,6.4404305 9.1045695,5.545 8,5.545 Z" id="path-13-hzero-front-toast"></path>
        <path d="M22.2812461,52.4234827 C23.3953084,52.804766 24.6106491,52.804766 25.7247114,52.4234827 C33.3265483,49.8200323 36.07298,47.6872285 36.07298,47.6872285 C43.9726946,42.3016011 44.0441852,35.2240288 44.0441852,35.2240288 L44.0441852,13.1929999 C44.0441852,12.0968102 43.1505523,11.1614745 42.0603202,11.1197716 C36.4542634,10.9231724 28.1911381,6.80054611 25.1706591,5.19200695 C24.4438377,4.80476604 23.574035,4.80476604 22.8472136,5.19200695 C19.8267345,6.80054611 11.5636093,10.9231724 5.95755244,11.1197716 C4.86732034,11.1555169 3.97368748,12.0968102 3.97368748,13.1929999 L3.97368748,35.2240288 C3.97368748,35.2240288 4.04517811,42.3016011 11.9448926,47.6872285 C11.9329775,47.6872285 14.6794092,49.8200323 22.2812461,52.4234827 L22.2812461,52.4234827 Z" id="path-14-hzero-front-toast"></path>
        <path d="M24.0029788,4.90008688 C23.6038228,4.90008688 23.2046667,4.99540772 22.8412561,5.19200695 C19.820777,6.80054611 11.5576517,10.9231724 5.95159489,11.1197716 C4.86136279,11.1555169 3.96772992,12.0968102 3.96772992,13.1929999 L3.96772992,35.2240288 C3.96772992,35.2240288 4.03922055,42.3016011 11.9389351,47.6872285 C11.9389351,47.6872285 14.6853668,49.8200323 22.2872037,52.4234827 C22.8412561,52.6141244 23.4250962,52.7094452 24.0089363,52.7094452 L24.0089363,4.90008688 L24.0029788,4.90008688 Z" id="path-15-hzero-front-toast"></path>
        <polygon id="path-16-hzero-front-toast" points="22.5374209 31.7984361 14.3219561 27.3243143 24.0029788 40.2700757 24.0029788 30.4341566"></polygon>
        <path d="M44.0441852,35.2240288 C44.0441852,35.2240288 43.9726946,42.3016011 36.07298,47.6872285 C36.07298,47.6872285 34.7563609,48.7119275 31.4260891,50.2013156 L34.249969,53.9784039 C37.5385379,52.3460345 40.4577386,50.4634479 42.6203301,48.0744694 C46.176989,44.0709942 47.6306317,40.5202929 47.9702122,37.2019362 L44.0441852,31.9533325 L44.0441852,35.2240288 Z" id="path-17-hzero-front-toast"></path>
    </defs>
    <g id="页面-1" stroke="none" stroke-width="1" fill="none" fill-rule="evenodd">
        <g id="系统公告" transform="translate(-390.000000, 8.000000)">
            <g id="编组-29" transform="translate(486.000000, 243.000000)">
                <g id="编组-20" transform="translate(-96.000000, -251.000000)">
                    <g id="椭圆形">
                        <use fill="currentColor" xlink:href="#path-1-hzero-front-toast"></use>
                        <use fill-opacity="0.95" fill="#FFFFFF" xlink:href="#path-1-hzero-front-toast"></use>
                    </g>
                    <circle id="椭圆形备份-2" fill="#FFFFFF" opacity="0.400000006" cx="461" cy="289" r="12"></circle>
                    <g id="编组" opacity="0.699999988" transform="translate(9.000000, 217.000000)" fill="#FFFFFF">
                        <path d="M0,12 C0,5.37258 5.37258,0 12,0 L52,0 C58.6274,0 64,5.37258 64,12 C64,18.6274 58.6274,24 52,24 L52,24 C50.8954,24 50,24.8954 50,26 L50,30 C50,33.3137 52.6863,36 56,36 L74,36 C80.6274,36 86,41.3726 86,48 C86,54.6274 80.6274,60 74,60 L26,60 C19.3726,60 14,54.6274 14,48 C14,43.4574 16.524,39.5044 20.2462,37.4668 C23.1529,35.8757 26,33.3137 26,30 L26,30 C26,26.6863 23.3137,24 20,24 L12,24 C5.37258,24 0,18.6274 0,12 Z" id="路径"></path>
                    </g>
                    <g id="编组备份-2" opacity="0.699999988" transform="translate(36.000000, 238.000000)" fill="#FFFFFF">
                        <path d="M32,12 C32,5.37258 37.37258,0 44,0 L84,0 C90.6274,0 96,5.37258 96,12 C96,18.6274 90.6274,24 84,24 C82.8954,24 82,24.8954 82,26 L82,30 C82,33.3137 84.6863,36 88,36 L106,36 C112.6274,36 118,41.3726 118,48 C118,54.6274 112.6274,60 106,60 L58,60 C51.3726,60 46,54.6274 46,48 C46,43.4574 48.524,39.5044 52.2462,37.4668 C55.1529,35.8757 58,33.3137 58,30 C58,26.6863 55.3137,24 52,24 L44,24 C37.37258,24 32,18.6274 32,12 Z" id="路径"></path>
                        <circle id="椭圆形" cx="12" cy="12" r="12"></circle>
                    </g>
                    <g id="椭圆形" opacity="0.400000006">
                        <use fill="currentColor" xlink:href="#path-2-hzero-front-toast"></use>
                        <use fill-opacity="0.9" fill="#FFFFFF" xlink:href="#path-2-hzero-front-toast"></use>
                    </g>
                    <g id="椭圆形" opacity="0.400000006">
                        <use fill="currentColor" xlink:href="#path-3-hzero-front-toast"></use>
                        <use fill-opacity="0.85" fill="#FFFFFF" xlink:href="#path-3-hzero-front-toast"></use>
                    </g>
                    <g id="椭圆形" opacity="0.400000006">
                        <use fill="currentColor" xlink:href="#path-4-hzero-front-toast"></use>
                        <use fill-opacity="0.8" fill="#FFFFFF" xlink:href="#path-4-hzero-front-toast"></use>
                    </g>
                    <path d="M197.5,339.5 C220.419817,339.5 239,358.080183 239,381 C239,403.919817 220.419817,422.5 197.5,422.5 C174.580183,422.5 156,403.919817 156,381 C156,358.080183 174.580183,339.5 197.5,339.5 Z M50.5,281.5 C70.5986989,281.5 87.360317,295.787741 91.1820715,314.760441 C98.479119,308.371737 108.037413,304.5 118.5,304.5 C141.419817,304.5 160,323.080183 160,346 C160,368.919817 141.419817,387.5 118.5,387.5 C98.4013011,387.5 81.639683,373.212259 77.8179285,354.239559 C70.520881,360.628263 60.9625868,364.5 50.5,364.5 C27.5801829,364.5 9,345.919817 9,323 C9,300.080183 27.5801829,281.5 50.5,281.5 Z M502,315.5 C528.509668,315.5 550,336.990332 550,363.5 C550,390.009668 528.509668,411.5 502,411.5 C486.359296,411.5 472.465823,404.019215 463.702377,392.440443 L463.642327,392.558764 C455.654061,407.969737 439.556768,418.5 421,418.5 C394.490332,418.5 373,397.009668 373,370.5 C373,343.990332 394.490332,322.5 421,322.5 C436.640704,322.5 450.534177,329.980785 459.297623,341.559557 L459.357673,341.441236 C467.345939,326.030263 483.443232,315.5 502,315.5 Z M593,255.5 C619.509668,255.5 641,276.990332 641,303.5 C641,330.009668 619.509668,351.5 593,351.5 C566.490332,351.5 545,330.009668 545,303.5 C545,276.990332 566.490332,255.5 593,255.5 Z" id="形状结合" fill="#FFFFFF" opacity="0.602436756"></path>
                    <g id="元素/头像/灰色备份" opacity="0.600000024" transform="translate(265.000000, 266.000000)">
                        <g id="椭圆形">
                            <use fill="currentColor" xlink:href="#path-5-hzero-front-toast"></use>
                            <use fill-opacity="0.8" fill="#FFFFFF" xlink:href="#path-5-hzero-front-toast"></use>
                        </g>
                        <g id="形状结合">
                            <use fill="currentColor" xlink:href="#path-6-hzero-front-toast"></use>
                            <use fill-opacity="0.5" fill="#FFFFFF" xlink:href="#path-6-hzero-front-toast"></use>
                        </g>
                        <circle id="椭圆形" fill="#FFFFFF" cx="8" cy="6.73684211" r="3.92982456"></circle>
                    </g>
                    <g id="编组-52" transform="translate(234.000000, 335.000000)">
                        <g id="椭圆形" opacity="0.800000012">
                            <use fill="currentColor" xlink:href="#path-7-hzero-front-toast"></use>
                            <use fill-opacity="0.7" fill="#FFFFFF" xlink:href="#path-7-hzero-front-toast"></use>
                        </g>
                        <g id="编组" transform="translate(6.750000, 6.750000)">
                            <polygon id="路径" points="0 0 22.5 0 22.5 22.5 0 22.5"></polygon>
                            <path d="M2.8125,2.8125 L19.6875,2.8125 C20.205267,2.8125 20.625,3.23223305 20.625,3.75 L20.625,18.75 C20.625,19.267767 20.205267,19.6875 19.6875,19.6875 L2.8125,19.6875 C2.29473305,19.6875 1.875,19.267767 1.875,18.75 L1.875,3.75 C1.875,3.23223305 2.29473305,2.8125 2.8125,2.8125 Z M11.30625,10.9528125 L5.295,5.848125 L4.0809375,7.276875 L11.3184375,13.4221875 L18.425625,7.2721875 L17.199375,5.85375 L11.3071875,10.9528125 L11.30625,10.9528125 Z" id="形状" fill-opacity="0.8" fill="#FFFFFF" fill-rule="nonzero"></path>
                        </g>
                    </g>
                    <g id="椭圆形备份-35" opacity="0.300000012">
                        <use fill="currentColor" xlink:href="#path-8-hzero-front-toast"></use>
                        <use fill-opacity="0.8" fill="#FFFFFF" xlink:href="#path-8-hzero-front-toast"></use>
                    </g>
                    <g id="椭圆形备份-33" opacity="0.200000003">
                        <use fill="currentColor" xlink:href="#path-9-hzero-front-toast"></use>
                        <use fill-opacity="0.8" fill="#FFFFFF" xlink:href="#path-9-hzero-front-toast"></use>
                    </g>
                    <g id="编组" transform="translate(388.000000, 329.000000)" fill-rule="nonzero">
                        <g id="形状">
                            <use fill="currentColor" xlink:href="#path-10-hzero-front-toast"></use>
                            <use fill-opacity="0.7" fill="#FFFFFF" xlink:href="#path-10-hzero-front-toast"></use>
                        </g>
                    </g>
                    <path d="M577,283 C611.793939,283 640,311.206061 640,346 C640,380.793939 611.793939,409 577,409 C575.606544,409 574.223653,408.95476 572.852718,408.865669 C563.535359,425.080523 546.04287,436 526,436 C511.547363,436 498.420835,430.32225 488.729255,421.07559 C479.665715,436.690409 462.996989,447.344462 443.792497,447.97081 C434.459341,464.127917 416.999326,475 397,475 C384.393888,475 372.796675,470.680392 363.607771,463.440587 C353.883715,477.664689 337.532047,487 319,487 C299.390396,487 282.222101,476.547512 272.762663,460.910083 C264.875868,465.421826 255.739017,468 246,468 C220.218438,468 198.656791,449.9324 193.286035,425.768178 C186.848771,430.323402 178.986962,433 170.5,433 C156.34461,433 143.928324,425.554011 136.954202,414.365095 C123.262654,433.517244 100.839079,446 75.5,446 C33.8025014,446 0,412.197499 0,370.5 C0,328.802501 33.8025014,295 75.5,295 C113.495245,295 144.935222,323.06644 150.2187,359.598091 C156.146221,356.043443 163.084475,354 170.5,354 C186.500959,354 200.279766,363.514166 206.487904,377.193982 C216.344349,366.615337 230.399627,360 246,360 C265.609604,360 282.777899,370.452488 292.237337,386.089917 C300.124132,381.578174 309.260983,379 319,379 C331.606571,379 343.204169,383.319922 352.393232,390.560203 C361.801604,376.795665 377.416432,367.609439 395.207503,367.02919 C404.540659,350.872083 422.000674,340 442,340 C456.452139,340 469.578261,345.677358 479.269744,354.923455 C487.074965,341.479116 500.517485,331.712324 516.361845,328.857641 C523.826516,302.394401 548.148356,283 577,283 Z" id="形状结合" fill="#FFFFFF"></path>
                    <g id="编组-55" transform="translate(358.000000, 299.272500) rotate(45.000000) translate(-358.000000, -299.272500) translate(350.000000, 272.000000)" fill-rule="nonzero">
                        <g id="路径">
                            <use fill="currentColor" xlink:href="#path-12-hzero-front-toast"></use>
                            <use fill="url(#linearGradient-11)" xlink:href="#path-12-hzero-front-toast"></use>
                        </g>
                        <g id="形状结合">
                            <use fill="currentColor" xlink:href="#path-13-hzero-front-toast"></use>
                            <use fill-opacity="0.7" fill="#FFFFFF" xlink:href="#path-13-hzero-front-toast"></use>
                        </g>
                    </g>
                    <g id="编组-53" transform="translate(305.000000, 300.000000)" fill-rule="nonzero">
                        <path d="M21.9416656,57.2669728 C23.2761574,57.7257044 24.7298002,57.7257044 26.0642919,57.2669728 C35.167432,54.1452153 38.456001,51.5953829 38.456001,51.5953829 C47.9165943,45.1433536 48,36.671714 48,36.671714 L48,9.93421869 C48,8.62355716 46.9335981,7.49757974 45.6229366,7.44991932 C38.908775,7.21161723 29.0132804,2.27876381 25.3910885,0.348516818 C24.5212858,-0.116172273 23.4787142,-0.116172273 22.6089115,0.348516818 C18.9867196,2.27280626 9.09718257,7.21161723 2.37706342,7.44991932 C1.06640189,7.49757974 0,8.62355716 0,9.93421869 L0,36.671714 C0,36.671714 0.0834057341,45.1433536 9.54399901,51.5953829 C9.54995656,51.5953829 12.8385255,54.1452153 21.9416656,57.2669728 Z" id="路径" fill="currentColor"></path>
                        <g id="路径">
                            <use fill="currentColor" xlink:href="#path-14-hzero-front-toast"></use>
                            <use fill-opacity="0.2" fill="#FFFFFF" xlink:href="#path-14-hzero-front-toast"></use>
                        </g>
                        <g id="路径">
                            <use fill="currentColor" xlink:href="#path-15-hzero-front-toast"></use>
                            <use fill-opacity="0.4" fill="#FFFFFF" xlink:href="#path-15-hzero-front-toast"></use>
                        </g>
                        <path d="M44.0441852,35.2240288 L44.0441852,31.9533325 L35.1495594,20.0620578 L24.0029788,30.4341566 L24.0029788,40.2700757 L31.4260891,50.1953581 C34.7563609,48.7000124 36.07298,47.6812709 36.07298,47.6812709 C43.9726946,42.3016011 44.0441852,35.2240288 44.0441852,35.2240288 L44.0441852,35.2240288 Z" id="路径" fill="currentColor"></path>
                        <g id="路径">
                            <use fill="currentColor" xlink:href="#path-16-hzero-front-toast"></use>
                            <use fill-opacity="0.2" fill="#FFFFFF" xlink:href="#path-16-hzero-front-toast"></use>
                        </g>
                        <path d="M21.8531215,34.1579248 C21.4003475,34.1579248 20.941616,33.9851558 20.5960779,33.6396177 L14.3227752,27.3603575 C13.6257416,26.6633238 13.6257416,25.5373464 14.3227752,24.8462703 C15.0198089,24.1492367 16.1457863,24.1492367 16.8368624,24.8462703 L21.8531215,29.8625295 L31.9928758,19.7227752 C32.6899094,19.0257416 33.8158868,19.0257416 34.5069629,19.7227752 C35.2039965,20.4198089 35.2039965,21.5457863 34.5069629,22.2368624 L23.1101651,33.6336602 C22.764627,33.9851558 22.311853,34.1579248 21.8531215,34.1579248 Z" id="路径" fill="#FFFFFF"></path>
                        <g id="路径">
                            <use fill="currentColor" xlink:href="#path-17-hzero-front-toast"></use>
                            <use fill-opacity="0.05" fill="#000000" xlink:href="#path-17-hzero-front-toast"></use>
                        </g>
                    </g>
                </g>
            </g>
        </g>
    </g>
</svg>
