<?xml version="1.0" encoding="UTF-8"?>
<svg width="278px" height="170px" viewBox="0 0 278 170" version="1.1" xmlns="http://www.w3.org/2000/svg" xmlns:xlink="http://www.w3.org/1999/xlink">
    <title>1.组合示例/3.功能区块示例/1.扫描无数据</title>
    <g id="页面-1" stroke="none" stroke-width="1" fill="none" fill-rule="evenodd">
        <g id="单据创建(头+多行)备份-2" transform="translate(-568.000000, -309.000000)">
            <g id="Modal" transform="translate(427.000000, 227.246875)">
                <g id="编组-2" transform="translate(141.000000, 81.753125)">
                    <rect id="矩形" x="0" y="0" width="278" height="169"></rect>
                    <g id="分组-2" transform="translate(30.000000, 27.246875)">
                        <path d="M4.19286201,142.34569 C2.30303344,142.34569 0.771583773,140.850127 0.771583773,139.005516 L0.771583773,3.34017399 C0.771583773,1.49514538 2.30303344,0 4.19286201,0 L214.820007,0 C216.709408,0 218.241286,1.49514538 218.241286,3.34017399 L218.241286,139.005516 C218.241286,140.850127 216.709408,142.34569 214.820007,142.34569 L4.19286201,142.34569 Z" id="Fill-32" fill-opacity="0.08" fill="#000000"></path>
                        <path d="M52.4123517,27.2290363 C52.4123517,34.7283998 46.3288253,40.8082798 38.8249639,40.8082798 C31.3211025,40.8082798 25.237576,34.7283998 25.237576,27.2290363 C25.237576,19.7292202 31.3211025,13.6497929 38.8249639,13.6497929 C46.3288253,13.6497929 52.4123517,19.7292202 52.4123517,27.2290363" id="Fill-9" fill="#FFFFFF"></path>
                        <path d="M0.772011433,104.754077 C23.4046223,104.754077 17.3950735,76.7551557 51.6727957,76.7551557 C85.9505178,76.7551557 84.1654206,101.785039 110.899289,101.785039 C138.04975,101.785039 136.253674,29.8947521 162.264797,29.8947521 C189.720983,29.8947521 183.523437,95.0375668 217.72339,95.0375668 L217.72339,139.185008 C217.72339,141.030872 216.189802,142.526853 214.299118,142.525184 L4.19029605,142.348571 C2.30217812,142.346901 0.772011433,140.852173 0.772011433,139.008397 L0.772011433,104.754077 Z" id="Fill-38" fill-opacity="0.08" fill="#000000"></path>
                        <path d="M51.3923033,65.8240897 C55.4357281,65.8240897 58.6979864,67.3747237 61.5092315,70.3180974 C63.6667509,72.5770203 65.5150395,75.5209257 67.8452776,80.1212809 L68.1596804,80.7493274 C68.7065945,81.8688185 71.974598,88.5845797 73.195456,90.9302243 L73.272935,91.0784437 C77.204361,98.5636683 81.0511249,103.806435 86.0859451,107.789273 C92.2340175,112.652759 99.824241,115.195612 109.560021,115.195612 C115.536948,115.195612 120.846165,114.161481 125.954045,112.171426 L126.403423,111.993948 C130.206738,110.47133 133.614024,108.580431 138.321821,105.556838 L140.349684,104.242119 L141.741414,103.336023 C142.918647,102.571537 143.820745,101.995005 144.691305,101.454907 L144.854224,101.354029 C151.814033,97.0530416 157.120623,95.0699885 163.587563,95.0699885 C170.367177,95.0699885 176.290628,97.2400969 184.404382,101.93406 L184.968596,102.262166 C185.413561,102.522224 185.875625,102.795245 186.374347,103.092508 L190.68711,105.690103 C196.038997,108.903747 199.317677,110.663413 203.061307,112.178931 C207.883228,114.130969 212.536582,115.154233 217.423792,115.194383 L217.723304,115.195612 L217.723304,116.870803 C212.195437,116.870803 206.98957,115.746417 201.683115,113.598227 L201.286363,113.436071 C197.467254,111.860159 194.088237,110.02681 188.648041,106.753175 L185.501457,104.854326 C184.495765,104.250086 183.655356,103.751784 182.856685,103.288122 L182.673061,103.181706 C174.999085,98.7421624 169.548192,96.7451799 163.587563,96.7451799 C158.026549,96.7451799 153.284914,98.4917687 146.885904,102.417839 L146.648141,102.564246 C145.904141,103.02402 145.144502,103.506194 144.208683,104.110708 L140.433406,106.563125 L139.864339,106.928589 C134.983999,110.050384 131.420329,111.998267 127.294445,113.605732 C121.797214,115.74748 116.030084,116.870803 109.560021,116.870803 C99.0087962,116.870803 90.6971635,114.086267 84.0760053,108.848542 C78.8701534,104.730407 74.9431741,99.4174851 70.9746737,91.917613 L70.609491,91.2191244 C69.1889495,88.4607387 65.7123807,81.3038132 65.6156372,81.1108939 L65.3245798,80.5347463 C60.5924878,71.2380159 56.9112074,67.4992811 51.3923033,67.4992811 C47.7849495,67.4992811 44.7655492,69.0536581 41.9675832,72.2413939 L41.8386022,72.3896802 C39.5440804,75.0514684 37.621633,78.4218394 34.9475768,84.1221109 L31.8616811,90.8106377 C31.7167391,91.1226457 31.5920135,91.3898611 31.4970496,91.5913254 L31.1007121,92.42635 C27.5100576,99.93753 24.4592202,104.822921 20.4436402,108.77811 C15.136203,114.005728 8.58533857,116.813749 0.255549785,116.869943 L0,116.870803 L0,115.195612 C7.48131556,115.195612 13.3545251,112.705027 18.2738296,107.859704 L18.5538931,107.58057 C22.3143482,103.78799 25.2597838,98.9997182 28.7550563,91.6525091 L29.1420465,90.8328153 L32.1288849,84.3556037 C35.0319346,78.1051515 37.0624466,74.485781 39.5716232,71.5749798 C42.8161384,67.8111399 46.6061416,65.8240897 51.3923033,65.8240897 Z" id="Stroke-40" fill="#FFFFFF" fill-rule="nonzero"></path>
                    </g>
                    <path d="M247.95769,0.246875 C262.717406,0.246875 274.682473,12.1978714 274.682473,26.9402301 C274.682473,41.6825292 262.717406,53.6335852 247.95769,53.6335852 C233.197975,53.6335852 221.232908,41.6825292 221.232908,26.9402301 C221.232908,12.1978714 233.197975,0.246875 247.95769,0.246875 Z M248.462269,36.7183393 L247.494505,36.7183393 C246.692773,36.7183393 246.042859,37.3691158 246.042859,38.1719119 L246.042859,38.1719119 L246.042859,39.1409603 C246.042859,39.9437563 246.692773,40.5945329 247.494505,40.5945329 L247.494505,40.5945329 L248.462269,40.5945329 C249.264001,40.5945329 249.913915,39.9437563 249.913915,39.1409603 L249.913915,39.1409603 L249.913915,38.1719119 C249.913915,37.3691158 249.264001,36.7183393 248.462269,36.7183393 L248.462269,36.7183393 Z M248.613739,14.5183212 C245.973968,14.5183212 243.876751,15.2774346 242.358052,16.8316701 C240.939164,18.2169878 240.182747,20.0537898 240.061215,22.3694716 C240.041827,22.7391289 240.339643,23.0487318 240.709983,23.0487318 L240.709983,23.0487318 L243.245935,23.0487318 C243.58845,23.0487318 243.874118,22.7826743 243.893506,22.440831 C243.967586,21.1338711 244.287422,20.0796898 244.853075,19.3257803 C245.576282,18.313649 246.769579,17.8076132 248.396705,17.8076132 C249.698549,17.8076132 250.710955,18.1690759 251.434222,18.8919414 C252.121227,19.6149265 252.48289,20.5908696 252.48289,21.8559589 C252.48289,22.7957738 252.157369,23.6632721 251.506567,24.494702 L251.506567,24.494702 L250.891787,25.1814392 C248.649881,27.1694538 247.275812,28.6514925 246.769579,29.6635041 C246.299489,30.603319 246.082455,31.7600233 246.082455,33.0974291 L246.082455,33.0974291 L246.082455,33.9551776 C246.082455,34.3135299 246.37309,34.6040518 246.731522,34.6040518 L246.731522,34.6040518 L249.302539,34.6040518 C249.660971,34.6040518 249.951606,34.3135299 249.951606,33.9551776 L249.951606,33.9551776 L249.951606,33.0974291 C249.951606,32.1937426 250.132438,31.3985607 250.530183,30.6756354 C250.855644,30.0250266 251.361877,29.4104863 252.0128,28.8321341 C253.748472,27.350215 254.760878,26.4103404 255.086399,26.0127494 C255.954236,24.8561048 256.424326,23.374126 256.424326,21.6030009 C256.424326,19.434225 255.701119,17.6991685 254.290907,16.4340791 C252.844434,15.1328017 250.964132,14.5183212 248.613739,14.5183212 Z" id="形状结合" fill="#C7C7C7"></path>
                </g>
            </g>
        </g>
    </g>
</svg>