<?xml version="1.0" encoding="UTF-8"?>
<svg width="234px" height="125px" viewBox="0 0 234 125" version="1.1" xmlns="http://www.w3.org/2000/svg" xmlns:xlink="http://www.w3.org/1999/xlink">
    <title>编组 2</title>
    <defs>
        <path d="M2.6,0 L65,0 C66.4359403,0 67.6,1.16592513 67.6,2.60416667 L67.6,15.625 C54.9476849,16.6186473 56.1013834,33.5775563 67.6,33.8541667 L67.6,46.875 C67.6,48.3132415 66.4359403,49.4791667 65,49.4791667 L2.6,49.4791667 C1.16405965,49.4791667 0,48.3132415 0,46.875 L0,33.8541667 C11.6519739,33.4844009 12.1416085,15.9643496 0,15.625 L0,2.60416667 C0,1.16592513 1.16405965,0 2.6,0 Z" id="priceRecord-1"></path>
        <filter x="-13.3%" y="-12.1%" width="126.6%" height="136.4%" filterUnits="objectBoundingBox" id="filter-2">
            <feOffset dx="0" dy="3" in="SourceAlpha" result="shadowOffsetOuter1"></feOffset>
            <feGaussianBlur stdDeviation="2.5" in="shadowOffsetOuter1" result="shadowBlurOuter1"></feGaussianBlur>
            <feColorMatrix values="0 0 0 0 0.11372549   0 0 0 0 0.129411765   0 0 0 0 0.160784314  0 0 0 0.08 0" type="matrix" in="shadowBlurOuter1" result="shadowMatrixOuter1"></feColorMatrix>
            <feOffset dx="0" dy="2" in="SourceAlpha" result="shadowOffsetOuter2"></feOffset>
            <feGaussianBlur stdDeviation="1.5" in="shadowOffsetOuter2" result="shadowBlurOuter2"></feGaussianBlur>
            <feColorMatrix values="0 0 0 0 0.11372549   0 0 0 0 0.129411765   0 0 0 0 0.160784314  0 0 0 0.12 0" type="matrix" in="shadowBlurOuter2" result="shadowMatrixOuter2"></feColorMatrix>
            <feMerge>
                <feMergeNode in="shadowMatrixOuter1"></feMergeNode>
                <feMergeNode in="shadowMatrixOuter2"></feMergeNode>
            </feMerge>
        </filter>
    </defs>
    <g id="电商商品池" stroke="none" stroke-width="1" fill="none" fill-rule="evenodd">
        <g id="商品中心工作台-电商商品池-暂无价格记录" transform="translate(-952.000000, -319.000000)">
            <g id="Modal/Sidebar/Small" transform="translate(698.000000, 0.000000)">
                <g id="编组-2" transform="translate(254.000000, 319.000000)">
                    <g id="编组" transform="translate(44.200000, 20.833333)">
                        <g id="背景/3">
                            <g id="背景/1">
                                <path d="M2.6,0 L143,0 C144.43594,0 145.6,1.16592513 145.6,2.60416667 L145.6,101.5625 C145.6,103.000742 144.43594,104.166667 143,104.166667 L2.6,104.166667 C1.16405965,104.166667 0,103.000742 0,101.5625 L0,2.60416667 C0,1.16592513 1.16405965,0 2.6,0 Z" id="矩形" fill="#F1F4F8"></path>
                                <path d="M2.6,0 L143,0 C144.43594,0 145.6,1.16592513 145.6,2.60416667 L145.6,10.4166667 L0,10.4166667 L0,2.60416667 C0,1.16592513 1.16405965,0 2.6,0 Z" id="矩形" fill="#DBDEE3"></path>
                                <ellipse id="椭圆形" fill="#FFFFFF" cx="7.8" cy="5.20833333" rx="2.6" ry="2.60416667"></ellipse>
                                <ellipse id="椭圆形备份" fill="#FFFFFF" cx="18.2" cy="5.20833333" rx="2.6" ry="2.60416667"></ellipse>
                                <ellipse id="椭圆形备份-2" fill="#FFFFFF" cx="28.6" cy="5.20833333" rx="2.6" ry="2.60416667"></ellipse>
                            </g>
                            <path d="M7.8,15.625 L137.8,15.625 C139.23594,15.625 140.4,16.7909251 140.4,18.2291667 L140.4,96.3541667 C140.4,97.7924082 139.23594,98.9583333 137.8,98.9583333 L7.8,98.9583333 C6.36405965,98.9583333 5.2,97.7924082 5.2,96.3541667 L5.2,18.2291667 C5.2,16.7909251 6.36405965,15.625 7.8,15.625 Z" id="矩形" fill="#FFFFFF"></path>
                            <path d="M7.8,15.625 L41.6,15.625 L41.6,98.9583333 L7.8,98.9583333 C6.36405965,98.9583333 5.2,97.7924082 5.2,96.3541667 L5.2,18.2291667 C5.2,16.7909251 6.36405965,15.625 7.8,15.625 Z" id="矩形" fill="#E2E5E9"></path>
                            <path d="M11.7,20.8333333 L14.3,20.8333333 C15.0179702,20.8333333 15.6,21.4162959 15.6,22.1354167 L15.6,24.7395833 C15.6,25.4587041 15.0179702,26.0416667 14.3,26.0416667 L11.7,26.0416667 C10.9820298,26.0416667 10.4,25.4587041 10.4,24.7395833 L10.4,22.1354167 C10.4,21.4162959 10.9820298,20.8333333 11.7,20.8333333 Z" id="矩形" fill="#FFFFFF"></path>
                            <path d="M22.1,20.8333333 L35.1,20.8333333 C35.8179702,20.8333333 36.4,21.4162959 36.4,22.1354167 L36.4,24.7395833 C36.4,25.4587041 35.8179702,26.0416667 35.1,26.0416667 L22.1,26.0416667 C21.3820298,26.0416667 20.8,25.4587041 20.8,24.7395833 L20.8,22.1354167 C20.8,21.4162959 21.3820298,20.8333333 22.1,20.8333333 Z" id="矩形备份" fill="#FFFFFF"></path>
                            <path d="M11.7,31.25 L29.9,31.25 C30.6179702,31.25 31.2,31.8329626 31.2,32.5520833 L31.2,35.15625 C31.2,35.8753708 30.6179702,36.4583333 29.9,36.4583333 L11.7,36.4583333 C10.9820298,36.4583333 10.4,35.8753708 10.4,35.15625 L10.4,32.5520833 C10.4,31.8329626 10.9820298,31.25 11.7,31.25 Z" id="矩形备份-2" fill="#FFFFFF"></path>
                            <path d="M11.7,41.6666667 L35.1,41.6666667 C35.8179702,41.6666667 36.4,42.2496292 36.4,42.96875 L36.4,45.5729167 C36.4,46.2920374 35.8179702,46.875 35.1,46.875 L11.7,46.875 C10.9820298,46.875 10.4,46.2920374 10.4,45.5729167 L10.4,42.96875 C10.4,42.2496292 10.9820298,41.6666667 11.7,41.6666667 Z" id="矩形备份-3" fill="#FFFFFF"></path>
                            <path d="M11.7,52.0833333 L24.7,52.0833333 C25.4179702,52.0833333 26,52.6662959 26,53.3854167 L26,55.9895833 C26,56.7087041 25.4179702,57.2916667 24.7,57.2916667 L11.7,57.2916667 C10.9820298,57.2916667 10.4,56.7087041 10.4,55.9895833 L10.4,53.3854167 C10.4,52.6662959 10.9820298,52.0833333 11.7,52.0833333 Z" id="矩形备份-4" fill="#FFFFFF"></path>
                            <path d="M11.7,62.5 L35.1,62.5 C35.8179702,62.5 36.4,63.0829626 36.4,63.8020833 L36.4,66.40625 C36.4,67.1253708 35.8179702,67.7083333 35.1,67.7083333 L11.7,67.7083333 C10.9820298,67.7083333 10.4,67.1253708 10.4,66.40625 L10.4,63.8020833 C10.4,63.0829626 10.9820298,62.5 11.7,62.5 Z" id="矩形备份-5" fill="#FFFFFF"></path>
                        </g>
                        <path d="M48.1,20.8333333 L63.7,20.8333333 C64.4179702,20.8333333 65,21.4162959 65,22.1354167 L65,27.34375 C65,28.0628708 64.4179702,28.6458333 63.7,28.6458333 L48.1,28.6458333 C47.3820298,28.6458333 46.8,28.0628708 46.8,27.34375 L46.8,22.1354167 C46.8,21.4162959 47.3820298,20.8333333 48.1,20.8333333 Z" id="矩形" fill="currentColor"></path>
                        <path d="M48.1,20.8333333 L63.7,20.8333333 C64.4179702,20.8333333 65,21.4162959 65,22.1354167 L65,27.34375 C65,28.0628708 64.4179702,28.6458333 63.7,28.6458333 L48.1,28.6458333 C47.3820298,28.6458333 46.8,28.0628708 46.8,27.34375 L46.8,22.1354167 C46.8,21.4162959 47.3820298,20.8333333 48.1,20.8333333 Z" id="矩形" fill-opacity="0.8" fill="#FFFFFF"></path>
                        <path d="M135.2,33.5286458 C135.379493,33.5286458 135.525,33.6743865 135.525,33.8541667 C135.525,34.0339469 135.379493,34.1796875 135.2,34.1796875 L46.8,34.1796875 C46.6205075,34.1796875 46.475,34.0339469 46.475,33.8541667 C46.475,33.6743865 46.6205075,33.5286458 46.8,33.5286458 L135.2,33.5286458 Z" id="路径-65" fill="#F1F4F8" fill-rule="nonzero"></path>
                        <g id="编组-4" transform="translate(46.475000, 39.062500)">
                            <rect id="矩形" fill="#F1F4F8" x="13" y="1.30208333" width="50.05" height="5.20833333" rx="1.3"></rect>
                            <path d="M69.55,1.30208333 L87.75,1.30208333 C88.4679702,1.30208333 89.05,1.88411316 89.05,2.60208333 L89.05,5.21041667 C89.05,5.92838684 88.4679702,6.51041667 87.75,6.51041667 L69.55,6.51041667 C68.8320298,6.51041667 68.25,5.92838684 68.25,5.21041667 L68.25,2.60208333 C68.25,1.88411316 68.8320298,1.30208333 69.55,1.30208333 Z" id="矩形" fill="#F1F4F8"></path>
                            <path d="M3.9,0 C4.61797017,-1.31888981e-16 5.2,0.582029825 5.2,1.3 L5.2,2.604 L6.5,2.60416667 C7.21797017,2.60416667 7.8,3.18619649 7.8,3.90416667 C7.8,4.62630351 7.21797017,5.20833333 6.5,5.20833333 L5.2,5.208 L5.2,6.5125 C5.2,7.23047017 4.61797017,7.8125 3.9,7.8125 C3.18202983,7.8125 2.6,7.23047017 2.6,6.5125 L2.6,5.208 L1.3,5.20833333 C0.582029825,5.20833333 3.09970593e-16,4.62630351 0,3.90833333 C-8.79259876e-17,3.18619649 0.582029825,2.60416667 1.3,2.60416667 L2.6,2.604 L2.6,1.3 C2.6,0.582029825 3.18202983,3.53933586e-16 3.9,0 Z" id="形状结合" fill="#FDEEEA"></path>
                            <rect id="矩形" fill="#F1F4F8" x="13" y="24.7395833" width="50.05" height="5.20833333" rx="1.3"></rect>
                            <path d="M3.9,23.4375 C4.61797017,23.4375 5.2,24.0195298 5.2,24.7375 L5.2,26.0415 L6.5,26.0416667 C7.21797017,26.0416667 7.8,26.6236965 7.8,27.3416667 C7.8,28.0638035 7.21797017,28.6458333 6.5,28.6458333 L5.2,28.6455 L5.2,29.95 C5.2,30.6679702 4.61797017,31.25 3.9,31.25 C3.18202983,31.25 2.6,30.6679702 2.6,29.95 L2.6,28.6455 L1.3,28.6458333 C0.582029825,28.6458333 3.09970593e-16,28.0638035 0,27.3458333 C-8.79259876e-17,26.6236965 0.582029825,26.0416667 1.3,26.0416667 L2.6,26.0415 L2.6,24.7375 C2.6,24.0195298 3.18202983,23.4375 3.9,23.4375 Z" id="形状结合" fill="#FDEEEA"></path>
                            <rect id="矩形" fill="#F1F4F8" x="13" y="13.0208333" width="37.05" height="5.20833333" rx="1.3"></rect>
                            <rect id="形状结合" fill="#ECF7F2" x="0" y="14.3229167" width="7.8" height="2.60416667" rx="1.3"></rect>
                            <rect id="矩形" fill="#F1F4F8" x="13" y="36.4583333" width="37.05" height="5.20833333" rx="1.3"></rect>
                            <path d="M56.55,36.4583333 L74.75,36.4583333 C75.4679702,36.4583333 76.05,37.0403632 76.05,37.7583333 L76.05,40.3666667 C76.05,41.0846368 75.4679702,41.6666667 74.75,41.6666667 L56.55,41.6666667 C55.8320298,41.6666667 55.25,41.0846368 55.25,40.3666667 L55.25,37.7583333 C55.25,37.0403632 55.8320298,36.4583333 56.55,36.4583333 Z" id="矩形" fill="#F1F4F8"></path>
                            <rect id="矩形" fill="#F1F4F8" x="13" y="48.1770833" width="50.05" height="5.20833333" rx="1.3"></rect>
                            <path d="M3.9,46.875 C4.61797017,46.875 5.2,47.4570298 5.2,48.175 L5.2,49.479 L6.5,49.4791667 C7.21797017,49.4791667 7.8,50.0611965 7.8,50.7791667 C7.8,51.5013035 7.21797017,52.0833333 6.5,52.0833333 L5.2,52.083 L5.2,53.3875 C5.2,54.1054702 4.61797017,54.6875 3.9,54.6875 C3.18202983,54.6875 2.6,54.1054702 2.6,53.3875 L2.6,52.083 L1.3,52.0833333 C0.582029825,52.0833333 3.09970593e-16,51.5013035 0,50.7833333 C-8.79259876e-17,50.0611965 0.582029825,49.4791667 1.3,49.4791667 L2.6,49.479 L2.6,48.175 C2.6,47.4570298 3.18202983,46.875 3.9,46.875 Z" id="形状结合" fill="#FDEEEA"></path>
                            <rect id="形状结合" fill="#ECF7F2" x="0" y="37.7604167" width="7.8" height="2.60416667" rx="1.3"></rect>
                        </g>
                    </g>
                    <g id="编组-22" transform="translate(115.212500, 0.000000)">
                        <g id="编组" transform="translate(25.187500, 10.416667)">
                            <g id="矩形">
                                <use fill="black" fill-opacity="1" filter="url(#filter-2)" xlink:href="#priceRecord-1"></use>
                                <use fill="#FFFFFF" fill-rule="evenodd" xlink:href="#priceRecord-1"></use>
                            </g>
                            <g id="编组-3">
                                <path d="M2.6,0 L65,0 C66.4359403,0 67.6,1.16592513 67.6,2.60416667 L67.6,15.625 C54.9476849,16.6186473 56.1013834,33.5775563 67.6,33.8541667 L67.6,46.875 C67.6,48.3132415 66.4359403,49.4791667 65,49.4791667 L2.6,49.4791667 C1.16405965,49.4791667 0,48.3132415 0,46.875 L0,33.8541667 C11.6519739,33.4844009 12.1416085,15.9643496 0,15.625 L0,2.60416667 C0,1.16592513 1.16405965,0 2.6,0 Z" id="矩形" fill="#FFFFFF"></path>
                                <path d="M62.4,5.20833333 L5.2,5.20833333 L5.2,11.3748372 L5.31116591,11.4164179 C10.7693277,13.502103 14.118457,18.6074185 14.1235986,24.5670011 L14.1221042,24.7996201 C14.0411441,30.7106789 10.6967752,35.8394089 5.36703566,37.9902317 L5.2,38.0561523 L5.2,44.2708333 L62.4,44.2708333 L62.4,38.0888672 L62.2634556,38.036626 C57.0340394,35.9905118 53.6259045,31.1133567 53.3552533,25.4051678 L53.3462022,25.1794174 C53.146982,19.1031525 56.5293624,13.8460462 62.2052176,11.5725291 L62.4,11.4960937 L62.4,5.20833333 Z" id="路径" fill="#EFF3F6"></path>
                                <polygon id="路径" fill="#FFFFFF" points="36.4 28.1111908 44.2 28.1111908 44.2 33.3264547 36.4 33.3264547 36.4 38.5417186 31.2 38.5417186 31.2 33.3264547 23.4 33.3264547 23.4 28.1111908 31.2 28.1111908 31.2 25.5035589 23.4 25.5035589 23.4 20.2882949 30.1236 20.2882949 24.6064 14.7575076 28.288 11.0677083 33.8 16.6011033 39.3146 11.0677083 42.9936 14.7575076 37.4764 20.2882949 44.2 20.2882949 44.2 25.5035589 36.4 25.5035589"></polygon>
                            </g>
                        </g>
                        <g id="编组-20">
                            <g id="元素/纸飞机/主色备份" transform="translate(9.530192, 0.000000)">
                                <path d="M1.27736949,7.69412879 L0.36816582,9.23771058 C0.311618896,9.33371271 0.31208726,9.45353244 0.368875362,9.5489113 L0.372744665,9.55523315 C0.412956326,9.61916718 0.497738112,9.65186454 0.627090025,9.65332521 L0.636314412,9.65337644 L1.07823981,9.65337644 C1.21053153,9.65337644 1.34236187,9.63748755 1.47100066,9.60603884 L9.29153605,7.69412879 L1.27736949,7.69412879 Z" id="路径-14" fill="currentColor"></path>
                                <path d="M1.27736949,7.69412879 L0.36816582,9.23771058 C0.311618896,9.33371271 0.31208726,9.45353244 0.368875362,9.5489113 L0.372744665,9.55523315 C0.412956326,9.61916718 0.497738112,9.65186454 0.627090025,9.65332521 L0.636314412,9.65337644 L1.07823981,9.65337644 C1.21053153,9.65337644 1.34236187,9.63748755 1.47100066,9.60603884 L9.29153605,7.69412879 L1.27736949,7.69412879 Z" id="路径-14" fill-opacity="0.4" fill="#FFFFFF"></path>
                                <path d="M3.20413886,4.75525731 L18.2570533,4.75525731 L0.49656831,0.013018555 C0.308828512,-0.0371100691 0.113932697,0.0613289616 0.0391097388,0.242920662 L0.0364261163,0.249601242 C-0.031395334,0.422855193 -0.00323788011,0.619804189 0.110278673,0.76616759 L3.20413886,4.75525731 Z" id="路径-5" fill="currentColor"></path>
                                <path d="M3.20413886,4.75525731 L18.2570533,4.75525731 L0.49656831,0.013018555 C0.308828512,-0.0371100691 0.113932697,0.0613289616 0.0391097388,0.242920662 L0.0364261163,0.249601242 C-0.031395334,0.422855193 -0.00323788011,0.619804189 0.110278673,0.76616759 L3.20413886,4.75525731 Z" id="路径-5" fill-opacity="0.2" fill="#FFFFFF"></path>
                                <polygon id="路径-12" fill="currentColor" points="18.2570533 4.75525731 3.20521086 4.75525731 1.28369906 7.69412879 5.44697463 7.69412879"></polygon>
                                <polygon id="路径-12" fill-opacity="0.2" fill="#000000" points="18.2570533 4.75525731 3.20521086 4.75525731 1.28369906 7.69412879 5.44697463 7.69412879"></polygon>
                                <path d="M18.2570533,4.75525731 L9.60799671,12.9187892 C9.46768655,12.9868186 9.36099357,13.0208333 9.28791779,13.0208333 C9.21484201,13.0208333 9.11045764,12.9868186 8.97476469,12.9187892 L4.6536993,7.04104624 C4.63372025,6.80338093 4.65148693,6.64679283 4.70699932,6.57128191 C4.76251172,6.495771 4.9047845,6.43466492 5.13381768,6.38796369 L18.2570533,4.75525731 Z" id="路径-13" fill="currentColor"></path>
                                <path d="M18.2570533,4.75525731 L9.60799671,12.9187892 C9.46768655,12.9868186 9.36099357,13.0208333 9.28791779,13.0208333 C9.21484201,13.0208333 9.11045764,12.9868186 8.97476469,12.9187892 L4.6536993,7.04104624 C4.63372025,6.80338093 4.65148693,6.64679283 4.70699932,6.57128191 C4.76251172,6.495771 4.9047845,6.43466492 5.13381768,6.38796369 L18.2570533,4.75525731 Z" id="路径-13" fill-opacity="0.2" fill="#FFFFFF"></path>
                            </g>
                            <g id="编组-15" transform="translate(0.000000, 10.167702)" fill-rule="nonzero">
                                <path d="M26.5260881,29.6103258 C26.1228813,29.6439791 25.6938858,29.6692344 25.2436432,29.6857093 L25.2673736,30.336317 C25.7274814,30.3194811 26.1665395,30.2936334 26.5800659,30.2591188 L26.5260881,29.6103258 Z M23.9543836,29.7085994 C23.5345141,29.7086508 23.1034716,29.7018891 22.663905,29.6882504 L22.6437791,30.33898 C23.0900281,30.352826 23.527805,30.3596933 23.954463,30.3596413 L23.9543836,29.7085994 Z M21.37462,29.6297815 C20.9490348,29.6045238 20.519222,29.5732291 20.0869255,29.5359218 L20.0311267,30.1845602 C20.4692014,30.2223662 20.9047986,30.254082 21.3361728,30.2796833 L21.37462,29.6297815 Z M18.8031709,29.408117 C18.3756702,29.3598865 17.948211,29.3059797 17.5220404,29.246447 L17.4322548,29.8912477 C17.8641188,29.9515757 18.2972549,30.0061985 18.7304156,30.0550675 L18.8031709,29.408117 Z M16.245148,29.0504359 C15.8181339,28.9788872 15.3943559,28.9017495 14.9747717,28.8190797 L14.8493127,29.4578792 C15.2749996,29.5417514 15.7048478,29.619994 16.1379012,29.6925547 L16.245148,29.0504359 Z M13.7112695,28.5503472 C13.2876021,28.4533974 12.8700035,28.3507319 12.4592601,28.2424076 L12.2937528,28.8719906 C12.711452,28.9821493 13.1359601,29.0865135 13.5664952,29.1850349 L13.7112695,28.5503472 Z M11.2177037,27.891236 C10.8003216,27.7648374 10.3919591,27.6323624 9.99331048,27.4938669 L9.78030334,28.1089585 C10.187302,28.2503548 10.6039583,28.3855205 11.0295855,28.5144159 L11.2177037,27.891236 Z M8.78903207,27.0451607 C8.38328212,26.8831214 7.99003195,26.7143882 7.60993916,26.53902 L7.33798651,27.1303404 C7.72852824,27.3105296 8.13218104,27.4837262 8.54829523,27.6499045 L8.78903207,27.0451607 Z M6.46441152,25.9687462 C6.07952813,25.7618825 5.71165192,25.5473886 5.36144734,25.3253325 L5.01377032,25.8754127 C5.37737303,26.1059642 5.75869581,26.3282982 6.15706852,26.5424121 L6.46441152,25.9687462 Z M4.3127918,24.597302 C3.96679618,24.3335697 3.64378271,24.0609338 3.34443703,23.7794714 L2.89955897,24.2541332 C3.21554344,24.5512405 3.55566329,24.8383148 3.91915262,25.1153815 L4.3127918,24.597302 Z M2.47988525,22.8629062 C2.20649661,22.5333674 1.96279347,22.193554 1.74943229,21.8434726 L1.19463307,22.182686 C1.42465936,22.5601114 1.68673971,22.9255495 1.97995331,23.2789851 L2.47988525,22.8629062 Z M1.18608892,20.725701 C1.03022007,20.3398112 0.907845289,19.9428315 0.819609279,19.5345739 L0.184323999,19.6723174 C0.280445868,20.117062 0.413793275,20.5496364 0.583532839,20.9698665 L1.18608892,20.725701 Z M0.658820762,18.2937904 C0.652956556,18.1690843 0.650010619,18.0434163 0.649999999,17.916782 C0.649999974,17.6310705 0.689721876,17.3633525 0.767451402,17.1121835 L0.146593356,16.9194296 C0.0493638708,17.2336091 0,17.5663124 0,17.9168094 C1.14748614e-05,18.0536455 0.00319638982,18.1895079 0.00954053397,18.3244202 L0.658820762,18.2937904 Z M1.35033972,16.1110586 C1.60249047,15.8344716 1.92002835,15.5874626 2.29599915,15.3725461 L1.97381206,14.8071102 C1.54143828,15.0542684 1.17049356,15.3428219 0.87034043,15.6720633 L1.35033972,16.1110586 Z M3.42808451,14.879441 C3.80982316,14.7545671 4.21880539,14.655045 4.64491854,14.5821308 L4.5354578,13.9403869 C4.07887673,14.0185147 3.63909878,14.1255306 3.2262871,14.2605691 L3.42808451,14.879441 Z M5.89446727,14.4481043 C6.32397399,14.428368 6.7490048,14.4354638 7.15308761,14.4685191 L7.2059985,13.819638 C6.77415356,13.7843116 6.32150867,13.7767548 5.86467807,13.7977467 L5.89446727,14.4481043 Z M8.38188724,14.6698474 C8.85180668,14.7946965 9.2099981,14.9618353 9.41833853,15.1480278 L9.8510886,14.6622481 C9.55502127,14.3976546 9.10869607,14.189391 8.54854095,14.0405679 L8.38188724,14.6698474 Z M9.6281494,15.9916091 C9.5394402,16.2319134 9.27916725,16.3857332 8.84843788,16.3998163 L8.86964492,17.0505113 C9.54478383,17.0284371 10.0482487,16.7308923 10.2378101,16.2173895 L9.6281494,15.9916091 Z M7.67890554,16.1754183 C7.3293216,16.0488206 6.95424712,15.8699768 6.55967172,15.6389368 L6.23162377,16.2009818 C6.65918086,16.4513339 7.06980337,16.6471278 7.4578946,16.7876704 L7.67890554,16.1754183 Z M5.53061646,14.9485957 C5.2096306,14.7070985 4.88191781,14.4370128 4.54878415,14.1384604 L4.1153612,14.6236379 C4.46210644,14.934389 4.80414553,15.2162817 5.14023174,15.4691398 L5.53061646,14.9485957 Z M3.15395433,13.6995589 L3.61897564,13.2446778 L3.57441332,13.19884 L3.34123021,13.4255888 L3.61157845,13.24492 C3.39725169,12.9231781 3.19065745,12.5749859 2.99863061,12.2096855 L2.42348001,12.5129938 C2.62595175,12.8981639 2.84404,13.265728 3.07088198,13.6062576 L3.0873628,13.6309982 L3.15395433,13.6995589 Z M2.46741651,11.0585093 C2.30919079,10.6626686 2.17337585,10.2615519 2.0627905,9.85971004 L1.43615919,10.0327097 C1.55331034,10.4584102 1.69690658,10.8825083 1.86398186,11.3004884 L2.46741651,11.0585093 Z M1.80524045,8.6265306 C1.74570344,8.20267998 1.71804999,7.78544373 1.72388373,7.37747897 L1.07395039,7.36815537 C1.0676267,7.81038323 1.09749135,8.26098205 1.16157963,8.7172337 L1.80524045,8.6265306 Z M1.85347029,6.13339021 C1.93555813,5.72486482 2.05676707,5.3311104 2.21840654,4.95361721 L1.62102859,4.6970044 C1.44148724,5.11630568 1.3070557,5.5530145 1.2162476,6.00493791 L1.85347029,6.13339021 Z M2.81703589,3.88412477 C3.04911309,3.55549223 3.31906267,3.24342733 3.62805357,2.94882372 L3.17989341,2.47726941 C2.8405456,2.80081645 2.5429306,3.14486289 2.28636702,3.50816934 L2.81703589,3.88412477 Z M4.60822746,2.16226404 C4.9405619,1.93648773 5.3025007,1.72490393 5.69462655,1.52807642 L5.40340473,0.946034273 C4.98618143,1.15545945 4.59963463,1.38142871 4.24335972,1.62346932 L4.60822746,2.16226404 Z M6.85060919,1.02406958 C7.23182079,0.880075007 7.63482688,0.747345423 8.05990277,0.626176874 L7.8819808,0 C7.43978476,0.126048672 7.01962552,0.264427625 6.62124663,0.414906774 L6.85060919,1.02406958 Z" id="路径" fill="currentColor"></path>
                                <path d="M26.5260881,29.6103258 C26.1228813,29.6439791 25.6938858,29.6692344 25.2436432,29.6857093 L25.2673736,30.336317 C25.7274814,30.3194811 26.1665395,30.2936334 26.5800659,30.2591188 L26.5260881,29.6103258 Z M23.9543836,29.7085994 C23.5345141,29.7086508 23.1034716,29.7018891 22.663905,29.6882504 L22.6437791,30.33898 C23.0900281,30.352826 23.527805,30.3596933 23.954463,30.3596413 L23.9543836,29.7085994 Z M21.37462,29.6297815 C20.9490348,29.6045238 20.519222,29.5732291 20.0869255,29.5359218 L20.0311267,30.1845602 C20.4692014,30.2223662 20.9047986,30.254082 21.3361728,30.2796833 L21.37462,29.6297815 Z M18.8031709,29.408117 C18.3756702,29.3598865 17.948211,29.3059797 17.5220404,29.246447 L17.4322548,29.8912477 C17.8641188,29.9515757 18.2972549,30.0061985 18.7304156,30.0550675 L18.8031709,29.408117 Z M16.245148,29.0504359 C15.8181339,28.9788872 15.3943559,28.9017495 14.9747717,28.8190797 L14.8493127,29.4578792 C15.2749996,29.5417514 15.7048478,29.619994 16.1379012,29.6925547 L16.245148,29.0504359 Z M13.7112695,28.5503472 C13.2876021,28.4533974 12.8700035,28.3507319 12.4592601,28.2424076 L12.2937528,28.8719906 C12.711452,28.9821493 13.1359601,29.0865135 13.5664952,29.1850349 L13.7112695,28.5503472 Z M11.2177037,27.891236 C10.8003216,27.7648374 10.3919591,27.6323624 9.99331048,27.4938669 L9.78030334,28.1089585 C10.187302,28.2503548 10.6039583,28.3855205 11.0295855,28.5144159 L11.2177037,27.891236 Z M8.78903207,27.0451607 C8.38328212,26.8831214 7.99003195,26.7143882 7.60993916,26.53902 L7.33798651,27.1303404 C7.72852824,27.3105296 8.13218104,27.4837262 8.54829523,27.6499045 L8.78903207,27.0451607 Z M6.46441152,25.9687462 C6.07952813,25.7618825 5.71165192,25.5473886 5.36144734,25.3253325 L5.01377032,25.8754127 C5.37737303,26.1059642 5.75869581,26.3282982 6.15706852,26.5424121 L6.46441152,25.9687462 Z M4.3127918,24.597302 C3.96679618,24.3335697 3.64378271,24.0609338 3.34443703,23.7794714 L2.89955897,24.2541332 C3.21554344,24.5512405 3.55566329,24.8383148 3.91915262,25.1153815 L4.3127918,24.597302 Z M2.47988525,22.8629062 C2.20649661,22.5333674 1.96279347,22.193554 1.74943229,21.8434726 L1.19463307,22.182686 C1.42465936,22.5601114 1.68673971,22.9255495 1.97995331,23.2789851 L2.47988525,22.8629062 Z M1.18608892,20.725701 C1.03022007,20.3398112 0.907845289,19.9428315 0.819609279,19.5345739 L0.184323999,19.6723174 C0.280445868,20.117062 0.413793275,20.5496364 0.583532839,20.9698665 L1.18608892,20.725701 Z M0.658820762,18.2937904 C0.652956556,18.1690843 0.650010619,18.0434163 0.649999999,17.916782 C0.649999974,17.6310705 0.689721876,17.3633525 0.767451402,17.1121835 L0.146593356,16.9194296 C0.0493638708,17.2336091 0,17.5663124 0,17.9168094 C1.14748614e-05,18.0536455 0.00319638982,18.1895079 0.00954053397,18.3244202 L0.658820762,18.2937904 Z M1.35033972,16.1110586 C1.60249047,15.8344716 1.92002835,15.5874626 2.29599915,15.3725461 L1.97381206,14.8071102 C1.54143828,15.0542684 1.17049356,15.3428219 0.87034043,15.6720633 L1.35033972,16.1110586 Z M3.42808451,14.879441 C3.80982316,14.7545671 4.21880539,14.655045 4.64491854,14.5821308 L4.5354578,13.9403869 C4.07887673,14.0185147 3.63909878,14.1255306 3.2262871,14.2605691 L3.42808451,14.879441 Z M5.89446727,14.4481043 C6.32397399,14.428368 6.7490048,14.4354638 7.15308761,14.4685191 L7.2059985,13.819638 C6.77415356,13.7843116 6.32150867,13.7767548 5.86467807,13.7977467 L5.89446727,14.4481043 Z M8.38188724,14.6698474 C8.85180668,14.7946965 9.2099981,14.9618353 9.41833853,15.1480278 L9.8510886,14.6622481 C9.55502127,14.3976546 9.10869607,14.189391 8.54854095,14.0405679 L8.38188724,14.6698474 Z M9.6281494,15.9916091 C9.5394402,16.2319134 9.27916725,16.3857332 8.84843788,16.3998163 L8.86964492,17.0505113 C9.54478383,17.0284371 10.0482487,16.7308923 10.2378101,16.2173895 L9.6281494,15.9916091 Z M7.67890554,16.1754183 C7.3293216,16.0488206 6.95424712,15.8699768 6.55967172,15.6389368 L6.23162377,16.2009818 C6.65918086,16.4513339 7.06980337,16.6471278 7.4578946,16.7876704 L7.67890554,16.1754183 Z M5.53061646,14.9485957 C5.2096306,14.7070985 4.88191781,14.4370128 4.54878415,14.1384604 L4.1153612,14.6236379 C4.46210644,14.934389 4.80414553,15.2162817 5.14023174,15.4691398 L5.53061646,14.9485957 Z M3.15395433,13.6995589 L3.61897564,13.2446778 L3.57441332,13.19884 L3.34123021,13.4255888 L3.61157845,13.24492 C3.39725169,12.9231781 3.19065745,12.5749859 2.99863061,12.2096855 L2.42348001,12.5129938 C2.62595175,12.8981639 2.84404,13.265728 3.07088198,13.6062576 L3.0873628,13.6309982 L3.15395433,13.6995589 Z M2.46741651,11.0585093 C2.30919079,10.6626686 2.17337585,10.2615519 2.0627905,9.85971004 L1.43615919,10.0327097 C1.55331034,10.4584102 1.69690658,10.8825083 1.86398186,11.3004884 L2.46741651,11.0585093 Z M1.80524045,8.6265306 C1.74570344,8.20267998 1.71804999,7.78544373 1.72388373,7.37747897 L1.07395039,7.36815537 C1.0676267,7.81038323 1.09749135,8.26098205 1.16157963,8.7172337 L1.80524045,8.6265306 Z M1.85347029,6.13339021 C1.93555813,5.72486482 2.05676707,5.3311104 2.21840654,4.95361721 L1.62102859,4.6970044 C1.44148724,5.11630568 1.3070557,5.5530145 1.2162476,6.00493791 L1.85347029,6.13339021 Z M2.81703589,3.88412477 C3.04911309,3.55549223 3.31906267,3.24342733 3.62805357,2.94882372 L3.17989341,2.47726941 C2.8405456,2.80081645 2.5429306,3.14486289 2.28636702,3.50816934 L2.81703589,3.88412477 Z M4.60822746,2.16226404 C4.9405619,1.93648773 5.3025007,1.72490393 5.69462655,1.52807642 L5.40340473,0.946034273 C4.98618143,1.15545945 4.59963463,1.38142871 4.24335972,1.62346932 L4.60822746,2.16226404 Z M6.85060919,1.02406958 C7.23182079,0.880075007 7.63482688,0.747345423 8.05990277,0.626176874 L7.8819808,0 C7.43978476,0.126048672 7.01962552,0.264427625 6.62124663,0.414906774 L6.85060919,1.02406958 Z" id="路径" fill-opacity="0.2" fill="#FFFFFF"></path>
                            </g>
                        </g>
                    </g>
                </g>
            </g>
        </g>
    </g>
</svg>