<?xml version="1.0" encoding="UTF-8"?>
<svg width="234px" height="124px" viewBox="0 0 234 124" version="1.1" xmlns="http://www.w3.org/2000/svg" xmlns:xlink="http://www.w3.org/1999/xlink">
    <title>sales-specification</title>
    <defs>
        <rect id="path-1" x="0" y="0" width="18.2" height="7.78260223" rx="1.3"></rect>
        <rect id="path-2" x="0" y="0" width="18.2" height="7.78260223" rx="1.3"></rect>
        <rect id="path-3" x="0" y="0" width="18.2" height="7.78260223" rx="1.3"></rect>
        <rect id="path-4" x="0" y="0" width="93.6" height="73.286171" rx="1.3"></rect>
        <filter x="-9.6%" y="-8.2%" width="119.2%" height="124.6%" filterUnits="objectBoundingBox" id="filter-5">
            <feOffset dx="0" dy="3" in="SourceAlpha" result="shadowOffsetOuter1"></feOffset>
            <feGaussianBlur stdDeviation="2.5" in="shadowOffsetOuter1" result="shadowBlurOuter1"></feGaussianBlur>
            <feColorMatrix values="0 0 0 0 0.11372549   0 0 0 0 0.129411765   0 0 0 0 0.160784314  0 0 0 0.06 0" type="matrix" in="shadowBlurOuter1" result="shadowMatrixOuter1"></feColorMatrix>
            <feOffset dx="0" dy="1" in="SourceAlpha" result="shadowOffsetOuter2"></feOffset>
            <feGaussianBlur stdDeviation="1.5" in="shadowOffsetOuter2" result="shadowBlurOuter2"></feGaussianBlur>
            <feColorMatrix values="0 0 0 0 0.11372549   0 0 0 0 0.129411765   0 0 0 0 0.160784314  0 0 0 0.06 0" type="matrix" in="shadowBlurOuter2" result="shadowMatrixOuter2"></feColorMatrix>
            <feOffset dx="0" dy="1" in="SourceAlpha" result="shadowOffsetOuter3"></feOffset>
            <feGaussianBlur stdDeviation="0.5" in="shadowOffsetOuter3" result="shadowBlurOuter3"></feGaussianBlur>
            <feColorMatrix values="0 0 0 0 0.11372549   0 0 0 0 0.129411765   0 0 0 0 0.160784314  0 0 0 0.06 0" type="matrix" in="shadowBlurOuter3" result="shadowMatrixOuter3"></feColorMatrix>
            <feMerge>
                <feMergeNode in="shadowMatrixOuter1"></feMergeNode>
                <feMergeNode in="shadowMatrixOuter2"></feMergeNode>
                <feMergeNode in="shadowMatrixOuter3"></feMergeNode>
            </feMerge>
        </filter>
        <path d="M24.7,0 L40.3,0 C41.0179702,0 41.6,0.580731617 41.6,1.29710037 L41.6,6.48550186 C41.6,7.20187061 41.0179702,7.78260223 40.3,7.78260223 L24.7,7.78260223 C23.9820298,7.78260223 23.4,7.20187061 23.4,6.48550186 L23.4,1.29710037 C23.4,0.580731617 23.9820298,0 24.7,0 Z" id="path-6"></path>
        <path d="M1.27736949,7.66468401 L0.36816582,9.20235865 C0.311618896,9.29799339 0.31208726,9.41735458 0.368875362,9.51236843 L0.372744665,9.51866609 C0.412956326,9.58235545 0.497738112,9.61492768 0.627090025,9.61638276 L0.636314412,9.61643379 L1.07823981,9.61643379 C1.21053153,9.61643379 1.34236187,9.60060571 1.47100066,9.56927735 L9.29153605,7.66468401 L1.27736949,7.66468401 Z" id="path-7"></path>
        <path d="M3.20413886,4.73705935 L18.2570533,4.73705935 L0.49656831,0.0129687341 C0.308828512,-0.036968052 0.113932697,0.0610942609 0.0391097388,0.241991025 L0.0364261163,0.248646039 C-0.031395334,0.421236962 -0.00323788011,0.617432251 0.110278673,0.763235532 L3.20413886,4.73705935 Z" id="path-8"></path>
        <polygon id="path-9" points="18.2570533 4.73705935 3.20521086 4.73705935 1.28369906 7.66468401 5.44697463 7.66468401"></polygon>
        <path d="M18.2570533,4.73705935 L9.60799671,12.8693501 C9.46768655,12.9371192 9.36099357,12.9710037 9.28791779,12.9710037 C9.21484201,12.9710037 9.11045764,12.9371192 8.97476469,12.8693501 L4.6536993,7.01410076 C4.63372025,6.77734498 4.65148693,6.62135612 4.70699932,6.54613418 C4.76251172,6.47091224 4.9047845,6.41004001 5.13381768,6.3635175 L18.2570533,4.73705935 Z" id="path-10"></path>
    </defs>
    <g id="编辑商品" stroke="none" stroke-width="1" fill="none" fill-rule="evenodd">
        <g id="商品工作台-新建商品-配置销售规格-为空" transform="translate(-952.000000, -264.000000)">
            <g id="Modal/Sidebar/Basic/Medium" transform="translate(698.000000, 0.000000)">
                <g id="sales-specification" transform="translate(254.000000, 266.000000)">
                    <rect id="矩形" x="0" y="18.1594052" width="234" height="103.840595"></rect>
                    <path d="M46.8,18.1594052 L187.2,18.1594052 C188.63594,18.1594052 189.8,19.3208684 189.8,20.7536059 L189.8,119.333234 C189.8,120.765972 188.63594,121.927435 187.2,121.927435 L46.8,121.927435 C45.3640597,121.927435 44.2,120.765972 44.2,119.333234 L44.2,20.7536059 C44.2,19.3208684 45.3640597,18.1594052 46.8,18.1594052 Z" id="矩形" fill="#F1F4F8"></path>
                    <path d="M52,33.7246097 L182,33.7246097 C183.43594,33.7246097 184.6,34.8860729 184.6,36.3188104 L184.6,114.144833 C184.6,115.57757 183.43594,116.739033 182,116.739033 L52,116.739033 C50.5640597,116.739033 49.4,115.57757 49.4,114.144833 L49.4,36.3188104 C49.4,34.8860729 50.5640597,33.7246097 52,33.7246097 Z" id="矩形" fill="#FFFFFF"></path>
                    <g id="编组" transform="translate(54.600000, 38.913011)">
                        <rect id="矩形" fill="#F1F4F8" x="0" y="0" width="57.2" height="57.0724164" rx="1.3"></rect>
                        <ellipse id="椭圆形" fill="#FFFFFF" cx="9.19285714" cy="9.04806601" rx="4.08571429" ry="4.02136267"></ellipse>
                        <path d="M40.8571429,20.9961532 L57.2,46.013669 L57.2,56.0670757 C57.2,56.62231 56.7426909,57.0724164 56.1785714,57.0724164 L12.2571429,57.0724164 L40.8571429,20.9961532 Z" id="路径" fill="#E2E5E9"></path>
                        <path d="M18.3857143,24.0121752 L43.9214286,57.0724164 L1.02142857,57.0724164 C0.457309148,57.0724164 0,56.62231 0,56.0670757 L0,50.0350317 L18.3857143,24.0121752 Z" id="路径" fill="#E9ECF0"></path>
                    </g>
                    <rect id="矩形" fill="#F1F4F8" x="117" y="38.9130112" width="62.4" height="5.18840149" rx="1.3"></rect>
                    <rect id="矩形" fill="#F1F4F8" x="117" y="46.6956134" width="62.4" height="5.18840149" rx="1.3"></rect>
                    <rect id="矩形" fill="#F1F4F8" x="117" y="54.4782156" width="38.35" height="5.18840149" rx="1.3"></rect>
                    <rect id="矩形" fill="#F1F4F8" x="117" y="64.8550186" width="62.4" height="2.59420074" rx="1.29710037"></rect>
                    <path d="M179.121429,71.9890706 C179.275279,71.9890706 179.4,72.1345781 179.4,72.3140706 C179.4,72.4935632 179.275279,72.6390706 179.121429,72.6390706 L117.278571,72.6390706 C117.124721,72.6390706 117,72.4935632 117,72.3140706 C117,72.1345781 117.124721,71.9890706 117.278571,71.9890706 L179.121429,71.9890706 Z" id="路径-37" fill="#F1F4F8" fill-rule="nonzero"></path>
                    <g id="编组-7" transform="translate(117.000000, 77.826022)">
                        <rect id="矩形" fill="#E9ECF0" x="0" y="1.29710037" width="13" height="5.18840149" rx="1.3"></rect>
                        <g id="编组-6" transform="translate(22.587500, 0.000000)">
                            <g id="矩形">
                                <use fill="currentColor" xlink:href="#path-1"></use>
                                <use fill-opacity="0.8" fill="#FFFFFF" xlink:href="#path-1"></use>
                            </g>
                            <path d="M6.49710037,2.59420074 L11.7028996,2.59420074 C12.4192684,2.59420074 13,3.17493236 13,3.89130112 C13,4.60766987 12.4192684,5.18840149 11.7028996,5.18840149 L6.49710037,5.18840149 C5.78073162,5.18840149 5.2,4.60766987 5.2,3.89130112 C5.2,3.17493236 5.78073162,2.59420074 6.49710037,2.59420074 Z" id="矩形" fill="#FFFFFF"></path>
                        </g>
                        <g id="编组-6" transform="translate(44.200000, 0.000000)">
                            <rect id="矩形" fill="#E9ECF0" x="0" y="0" width="18.2" height="7.78260223" rx="1.3"></rect>
                            <path d="M6.49710037,2.59420074 L11.7028996,2.59420074 C12.4192684,2.59420074 13,3.17493236 13,3.89130112 C13,4.60766987 12.4192684,5.18840149 11.7028996,5.18840149 L6.49710037,5.18840149 C5.78073162,5.18840149 5.2,4.60766987 5.2,3.89130112 C5.2,3.17493236 5.78073162,2.59420074 6.49710037,2.59420074 Z" id="矩形" fill="#FFFFFF"></path>
                        </g>
                    </g>
                    <g id="编组-7" transform="translate(117.000000, 90.797026)">
                        <rect id="矩形" fill="#E9ECF0" x="0" y="1.29710037" width="13" height="5.18840149" rx="1.3"></rect>
                        <g id="编组-6" transform="translate(44.200000, 0.000000)">
                            <g id="矩形">
                                <use fill="currentColor" xlink:href="#path-2"></use>
                                <use fill-opacity="0.8" fill="#FFFFFF" xlink:href="#path-2"></use>
                            </g>
                            <path d="M6.49710037,2.59420074 L11.7028996,2.59420074 C12.4192684,2.59420074 13,3.17493236 13,3.89130112 C13,4.60766987 12.4192684,5.18840149 11.7028996,5.18840149 L6.49710037,5.18840149 C5.78073162,5.18840149 5.2,4.60766987 5.2,3.89130112 C5.2,3.17493236 5.78073162,2.59420074 6.49710037,2.59420074 Z" id="矩形" fill="#FFFFFF"></path>
                        </g>
                        <g id="编组-6" transform="translate(22.587500, 0.000000)">
                            <rect id="矩形" fill="#E9ECF0" x="0" y="0" width="18.2" height="7.78260223" rx="1.3"></rect>
                            <path d="M6.49710037,2.59420074 L11.7028996,2.59420074 C12.4192684,2.59420074 13,3.17493236 13,3.89130112 C13,4.60766987 12.4192684,5.18840149 11.7028996,5.18840149 L6.49710037,5.18840149 C5.78073162,5.18840149 5.2,4.60766987 5.2,3.89130112 C5.2,3.17493236 5.78073162,2.59420074 6.49710037,2.59420074 Z" id="矩形" fill="#FFFFFF"></path>
                        </g>
                    </g>
                    <g id="编组-7" transform="translate(117.000000, 103.768030)">
                        <rect id="矩形" fill="#E9ECF0" x="0" y="1.29710037" width="13" height="5.18840149" rx="1.3"></rect>
                        <g id="编组-6" transform="translate(22.587500, 0.000000)">
                            <g id="矩形">
                                <use fill="currentColor" xlink:href="#path-3"></use>
                                <use fill-opacity="0.8" fill="#FFFFFF" xlink:href="#path-3"></use>
                            </g>
                            <path d="M6.49710037,2.59420074 L11.7028996,2.59420074 C12.4192684,2.59420074 13,3.17493236 13,3.89130112 C13,4.60766987 12.4192684,5.18840149 11.7028996,5.18840149 L6.49710037,5.18840149 C5.78073162,5.18840149 5.2,4.60766987 5.2,3.89130112 C5.2,3.17493236 5.78073162,2.59420074 6.49710037,2.59420074 Z" id="矩形" fill="#FFFFFF"></path>
                        </g>
                    </g>
                    <rect id="矩形" fill="#F1F4F8" x="62.4" y="101.173829" width="10.4" height="10.376803" rx="1.3"></rect>
                    <rect id="矩形" fill="#F1F4F8" x="78" y="101.173829" width="10.4" height="10.376803" rx="1.3"></rect>
                    <rect id="矩形" fill="#F1F4F8" x="93.6" y="101.173829" width="10.4" height="10.376803" rx="1.3"></rect>
                    <g id="编组-5" transform="translate(44.200000, 18.159405)">
                        <path d="M2.6,0 L143,0 C144.43594,0 145.6,1.16146323 145.6,2.59420074 L145.6,10.376803 L0,10.376803 L0,2.59420074 C0,1.16146323 1.16405965,0 2.6,0 Z" id="矩形" fill="#DBDEE3"></path>
                        <ellipse id="椭圆形" fill="#FFFFFF" cx="7.8" cy="5.18840149" rx="2.6" ry="2.59420074"></ellipse>
                        <ellipse id="椭圆形备份" fill="#FFFFFF" cx="18.2" cy="5.18840149" rx="2.6" ry="2.59420074"></ellipse>
                        <ellipse id="椭圆形备份-2" fill="#FFFFFF" cx="28.6" cy="5.18840149" rx="2.6" ry="2.59420074"></ellipse>
                    </g>
                    <g id="编组-10" transform="translate(127.400000, 0.000000)">
                        <g id="矩形">
                            <use fill="black" fill-opacity="1" filter="url(#filter-5)" xlink:href="#path-4"></use>
                            <use fill="#FFFFFF" fill-rule="evenodd" xlink:href="#path-4"></use>
                        </g>
                        <g id="编组-12" transform="translate(5.200000, 21.402156)">
                            <g id="编组-9">
                                <rect id="矩形" fill="#F1F4F8" x="0" y="0" width="39" height="7.78260223" rx="1.3"></rect>
                                <g id="编组-8" transform="translate(44.200000, 0.000000)">
                                    <rect id="矩形" fill="#F1F4F8" x="0" y="0" width="39" height="7.78260223" rx="1.3"></rect>
                                    <rect id="矩形" fill="#FFFFFF" x="5.2" y="2.59420074" width="13" height="2.59420074" rx="1.29710037"></rect>
                                    <rect id="矩形" fill="#FFFFFF" x="20.8" y="2.59420074" width="13" height="2.59420074" rx="1.29710037"></rect>
                                </g>
                            </g>
                            <g id="编组-9" transform="translate(0.000000, 12.971004)">
                                <rect id="矩形" fill="#F1F4F8" x="0" y="0" width="39" height="7.78260223" rx="1.3"></rect>
                                <g id="编组-8" transform="translate(44.200000, 0.000000)">
                                    <rect id="矩形" fill="#F1F4F8" x="0" y="0" width="39" height="7.78260223" rx="1.3"></rect>
                                    <rect id="矩形" fill="#FFFFFF" x="5.2" y="2.59420074" width="13" height="2.59420074" rx="1.29710037"></rect>
                                    <rect id="矩形" fill="#FFFFFF" x="20.8" y="2.59420074" width="13" height="2.59420074" rx="1.29710037"></rect>
                                </g>
                            </g>
                            <g id="编组-9" transform="translate(0.000000, 25.942007)">
                                <rect id="矩形" fill="#F1F4F8" x="0" y="0" width="39" height="7.78260223" rx="1.3"></rect>
                                <g id="编组-8" transform="translate(44.200000, 0.000000)">
                                    <rect id="矩形" fill="#F1F4F8" x="0" y="0" width="39" height="7.78260223" rx="1.3"></rect>
                                    <rect id="矩形" fill="#FFFFFF" x="5.2" y="2.59420074" width="13" height="2.59420074" rx="1.29710037"></rect>
                                </g>
                            </g>
                        </g>
                        <rect id="矩形" fill="#E9ECF0" x="5.2" y="5.18840149" width="16.25" height="5.18840149" rx="1.3"></rect>
                        <path d="M87.9881188,15.5652045 C88.2155945,15.5652045 88.4,15.7103874 88.4,15.8894796 C88.4,16.0685717 88.2155945,16.2137546 87.9881188,16.2137546 L5.61188119,16.2137546 C5.38440549,16.2137546 5.2,16.0685717 5.2,15.8894796 C5.2,15.7103874 5.38440549,15.5652045 5.61188119,15.5652045 L87.9881188,15.5652045 Z" id="路径" fill="#F1F4F8" fill-rule="nonzero"></path>
                        <g id="编组-11" transform="translate(46.800000, 60.315167)">
                            <g id="矩形">
                                <use fill="currentColor" xlink:href="#path-6"></use>
                                <use fill-opacity="0.8" fill="#FFFFFF" xlink:href="#path-6"></use>
                            </g>
                            <path d="M1.3,0 L16.9,0 C17.6179702,0 18.2,0.580731617 18.2,1.29710037 L18.2,6.48550186 C18.2,7.20187061 17.6179702,7.78260223 16.9,7.78260223 L1.3,7.78260223 C0.582029825,7.78260223 0,7.20187061 0,6.48550186 L0,1.29710037 C0,0.580731617 0.582029825,0 1.3,0 Z" id="矩形备份-21" fill="#E9ECF0"></path>
                            <path d="M29.9,2.59420074 L35.1,2.59420074 C35.8179702,2.59420074 36.4,3.17493236 36.4,3.89130112 C36.4,4.60766987 35.8179702,5.18840149 35.1,5.18840149 L29.9,5.18840149 C29.1820298,5.18840149 28.6,4.60766987 28.6,3.89130112 C28.6,3.17493236 29.1820298,2.59420074 29.9,2.59420074 Z" id="矩形" fill="#FFFFFF"></path>
                            <path d="M6.5,2.59420074 L11.7,2.59420074 C12.4179702,2.59420074 13,3.17493236 13,3.89130112 C13,4.60766987 12.4179702,5.18840149 11.7,5.18840149 L6.5,5.18840149 C5.78202983,5.18840149 5.2,4.60766987 5.2,3.89130112 C5.2,3.17493236 5.78202983,2.59420074 6.5,2.59420074 Z" id="矩形备份-22" fill="#FFFFFF"></path>
                        </g>
                    </g>
                    <g id="编组-4" transform="translate(115.194808, 60.476255) scale(1, -1) translate(-115.194808, -60.476255) translate(100.262500, 38.264461)">
                        <g id="元素/纸飞机/主色备份" transform="translate(18.658719, 10.536841) scale(1, -1) rotate(35.000000) translate(-18.658719, -10.536841) translate(9.530192, 4.051339)">
                            <g id="路径-14">
                                <use fill="currentColor" xlink:href="#path-7"></use>
                                <use fill-opacity="0.4" fill="#FFFFFF" xlink:href="#path-7"></use>
                            </g>
                            <g id="路径-5">
                                <use fill="currentColor" xlink:href="#path-8"></use>
                                <use fill-opacity="0.2" fill="#FFFFFF" xlink:href="#path-8"></use>
                            </g>
                            <g id="路径-12">
                                <use fill="currentColor" xlink:href="#path-9"></use>
                                <use fill-opacity="0.2" fill="#000000" xlink:href="#path-9"></use>
                            </g>
                            <g id="路径-13">
                                <use fill="currentColor" xlink:href="#path-10"></use>
                                <use fill-opacity="0.2" fill="#FFFFFF" xlink:href="#path-10"></use>
                            </g>
                        </g>
                        <path d="M26.5260881,43.6771405 C26.1228813,43.710665 25.6938858,43.7358237 25.2436432,43.7522356 L25.2673736,44.4003534 C25.7274814,44.3835819 26.1665395,44.3578331 26.5800659,44.3234506 L26.5260881,43.6771405 Z M23.9543836,43.775038 C23.5345141,43.7750893 23.1034716,43.7683534 22.663905,43.7547669 L22.6437791,44.4030062 C23.0900281,44.4167992 23.527805,44.4236403 23.954463,44.4235885 L23.9543836,43.775038 Z M21.37462,43.6965218 C20.9490348,43.6713607 20.519222,43.6401858 20.0869255,43.6030212 L20.0311267,44.2491773 C20.4692014,44.2868387 20.9047986,44.3184331 21.3361728,44.3439365 L21.37462,43.6965218 Z M18.8031709,43.4757055 C18.3756702,43.4276597 17.948211,43.3739591 17.5220404,43.3146542 L17.4322548,43.9569873 C17.8641188,44.0170845 18.2972549,44.0714982 18.7304156,44.1201802 L18.8031709,43.4757055 Z M16.245148,43.1193933 C15.8181339,43.0481184 15.3943559,42.9712759 14.9747717,42.8889224 L14.8493127,43.5252773 C15.2749996,43.6088285 15.7048478,43.6867717 16.1379012,43.7590547 L16.245148,43.1193933 Z M13.7112695,42.6212184 C13.2876021,42.5246395 12.8700035,42.422367 12.4592601,42.3144572 L12.2937528,42.9416308 C12.711452,43.051368 13.1359601,43.1553328 13.5664952,43.2534772 L13.7112695,42.6212184 Z M11.2177037,41.9646295 C10.8003216,41.8387147 10.3919591,41.7067466 9.99331048,41.5687811 L9.78030334,42.1815188 C10.187302,42.3223741 10.6039583,42.4570224 11.0295855,42.5854246 L11.2177037,41.9646295 Z M8.78903207,41.1217921 C8.38328212,40.9603728 7.99003195,40.7922855 7.60993916,40.6175883 L7.33798651,41.2066458 C7.72852824,41.3861454 8.13218104,41.5586792 8.54829523,41.7242216 L8.78903207,41.1217921 Z M6.46441152,40.0494969 C6.07952813,39.8434249 5.71165192,39.6297518 5.36144734,39.4085455 L5.01377032,39.9565206 C5.37737303,40.1861898 5.75869581,40.407673 6.15706852,40.6209674 L6.46441152,40.0494969 Z M4.3127918,38.6833011 C3.96679618,38.4205781 3.64378271,38.1489856 3.34443703,37.8686003 L2.89955897,38.3414456 C3.21554344,38.6374159 3.55566329,38.9233915 3.91915262,39.199398 L4.3127918,38.6833011 Z M2.47988525,36.9555427 C2.20649661,36.627265 1.96279347,36.2887521 1.74943229,35.9400104 L1.19463307,36.2779257 C1.42465936,36.6539067 1.68673971,37.0179463 1.97995331,37.3700293 L2.47988525,36.9555427 Z M1.18608892,34.8265164 C1.03022007,34.4421033 0.907845289,34.0466429 0.819609279,33.6399476 L0.184323999,33.777164 C0.280445868,34.2202066 0.413793275,34.6511256 0.583532839,35.0697475 L1.18608892,34.8265164 Z M0.658820762,32.4039126 C0.652956556,32.2796836 0.650010619,32.1544966 0.649999999,32.0283469 C0.649999974,31.7437288 0.689721876,31.4770353 0.767451402,31.2268276 L0.146593356,31.0348113 C0.0493638708,31.3477885 0,31.6792185 0,32.0283742 C1.14748614e-05,32.1646867 0.00319638982,32.3000291 0.00954053397,32.4344251 L0.658820762,32.4039126 Z M1.35033972,30.2295339 C1.60249047,29.9540053 1.92002835,29.7079416 2.29599915,29.4938476 L1.97381206,28.9305756 C1.54143828,29.1767879 1.17049356,29.4642371 0.87034043,29.7922186 L1.35033972,30.2295339 Z M3.42808451,29.0026296 C3.80982316,28.8782335 4.21880539,28.7790923 4.64491854,28.7064571 L4.5354578,28.0671691 C4.07887673,28.1449979 3.63909878,28.2516043 3.2262871,28.386126 L3.42808451,29.0026296 Z M5.89446727,28.5729436 C6.32397399,28.5532827 6.7490048,28.5603514 7.15308761,28.5932802 L7.2059985,27.9468823 C6.77415356,27.9116911 6.32150867,27.9041632 5.86467807,27.9250748 L5.89446727,28.5729436 Z M8.38188724,28.793838 C8.85180668,28.9182094 9.2099981,29.0847085 9.41833853,29.2701885 L9.8510886,28.7862678 C9.55502127,28.5226869 9.10869607,28.3152204 8.54854095,28.1669667 L8.38188724,28.793838 Z M9.6281494,30.1105415 C9.5394402,30.3499262 9.27916725,30.5031573 8.84843788,30.5171865 L8.86964492,31.1653914 C9.54478383,31.1434016 10.0482487,30.8469955 10.2378101,30.3354578 L9.6281494,30.1105415 Z M7.67890554,30.2936472 C7.3293216,30.167534 6.95424712,29.9893746 6.55967172,29.7592188 L6.23162377,30.3191129 C6.65918086,30.5685069 7.06980337,30.7635516 7.4578946,30.9035564 L7.67890554,30.2936472 Z M5.53061646,29.0715196 C5.2096306,28.8309466 4.88191781,28.5618945 4.54878415,28.2644846 L4.1153612,28.7478054 C4.46210644,29.0573672 4.80414553,29.3381812 5.14023174,29.5900716 L5.53061646,29.0715196 Z M3.15395433,27.8272627 L3.61897564,27.3741225 L3.57441332,27.32846 L3.34123021,27.5543411 L3.61157845,27.3743638 C3.39725169,27.0538531 3.19065745,26.7069934 2.99863061,26.343091 L2.42348001,26.6452386 C2.62595175,27.0289346 2.84404,27.3950921 3.07088198,27.7343185 L3.0873628,27.7589644 L3.15395433,27.8272627 Z M2.46741651,25.1963203 C2.30919079,24.8019944 2.17337585,24.4024127 2.0627905,24.0021087 L1.43615919,24.1744463 C1.55331034,24.5985177 1.69690658,25.0209927 1.86398186,25.4373733 L2.46741651,25.1963203 Z M1.80524045,22.7736485 C1.74570344,22.3514199 1.71804999,21.9357804 1.72388373,21.5293769 L1.07395039,21.520089 C1.0676267,21.9606245 1.09749135,22.4094989 1.16157963,22.8640045 L1.80524045,22.7736485 Z M1.85347029,20.2900491 C1.93555813,19.8830872 2.05676707,19.4908396 2.21840654,19.114791 L1.62102859,18.8591603 C1.44148724,19.2768569 1.3070557,19.7118945 1.2162476,20.1620884 L1.85347029,20.2900491 Z M2.81703589,18.0493915 C3.04911309,17.7220166 3.31906267,17.4111459 3.62805357,17.1176697 L3.17989341,16.64792 C2.8405456,16.9702289 2.5429306,17.3129587 2.28636702,17.6748748 L2.81703589,18.0493915 Z M4.60822746,16.3341201 C4.9405619,16.1092079 5.3025007,15.8984338 5.69462655,15.7023595 L5.40340473,15.1225448 C4.98618143,15.3311685 4.59963463,15.556273 4.24335972,15.7973873 L4.60822746,16.3341201 Z M6.85060919,15.2002814 C7.23182079,15.0568379 7.63482688,14.9246163 8.05990277,14.8039114 L7.8819808,14.1801309 C7.43978476,14.3056972 7.01962552,14.4435466 6.62124663,14.5934499 L6.85060919,15.2002814 Z" id="路径" fill="currentColor" fill-rule="nonzero"></path>
                    </g>
                </g>
            </g>
        </g>
    </g>
</svg>