<?xml version="1.0" encoding="UTF-8"?>
<svg width="234px" height="124px" viewBox="0 0 234 124" version="1.1" xmlns="http://www.w3.org/2000/svg" xmlns:xlink="http://www.w3.org/1999/xlink">
    <title>编组</title>
    <defs>
        <path d="M2.6,0 L91,0 C92.4359403,0 93.6,1.16215448 93.6,2.59574468 L93.6,64.893617 C93.6,66.3272072 92.4359403,67.4893617 91,67.4893617 L2.6,67.4893617 C1.16405965,67.4893617 0,66.3272072 0,64.893617 L0,2.59574468 C0,1.16215448 1.16405965,0 2.6,0 Z" id="path-1"></path>
        <filter x="-9.6%" y="-8.9%" width="119.2%" height="126.7%" filterUnits="objectBoundingBox" id="filter-2">
            <feOffset dx="0" dy="3" in="SourceAlpha" result="shadowOffsetOuter1"></feOffset>
            <feGaussianBlur stdDeviation="2.5" in="shadowOffsetOuter1" result="shadowBlurOuter1"></feGaussianBlur>
            <feColorMatrix values="0 0 0 0 0.11372549   0 0 0 0 0.129411765   0 0 0 0 0.160784314  0 0 0 0.06 0" type="matrix" in="shadowBlurOuter1" result="shadowMatrixOuter1"></feColorMatrix>
            <feOffset dx="0" dy="1" in="SourceAlpha" result="shadowOffsetOuter2"></feOffset>
            <feGaussianBlur stdDeviation="1.5" in="shadowOffsetOuter2" result="shadowBlurOuter2"></feGaussianBlur>
            <feColorMatrix values="0 0 0 0 0.11372549   0 0 0 0 0.129411765   0 0 0 0 0.160784314  0 0 0 0.06 0" type="matrix" in="shadowBlurOuter2" result="shadowMatrixOuter2"></feColorMatrix>
            <feOffset dx="0" dy="1" in="SourceAlpha" result="shadowOffsetOuter3"></feOffset>
            <feGaussianBlur stdDeviation="0.5" in="shadowOffsetOuter3" result="shadowBlurOuter3"></feGaussianBlur>
            <feColorMatrix values="0 0 0 0 0.11372549   0 0 0 0 0.129411765   0 0 0 0 0.160784314  0 0 0 0.06 0" type="matrix" in="shadowBlurOuter3" result="shadowMatrixOuter3"></feColorMatrix>
            <feMerge>
                <feMergeNode in="shadowMatrixOuter1"></feMergeNode>
                <feMergeNode in="shadowMatrixOuter2"></feMergeNode>
                <feMergeNode in="shadowMatrixOuter3"></feMergeNode>
            </feMerge>
        </filter>
    </defs>
    <g id="领用商品池" stroke="none" stroke-width="1" fill="none" fill-rule="evenodd">
        <g id="领用商品池_编辑库存信息" transform="translate(-802.000000, -320.000000)">
            <g id="Modal/Sidebar/Basic/Medium" transform="translate(548.000000, 0.000000)">
                <g id="编组" transform="translate(254.000000, 322.000000)">
                    <g id="背景/3" transform="translate(44.200000, 18.170213)">
                        <g id="背景/1">
                            <path d="M2.6,0 L143,0 C144.43594,0 145.6,1.16215448 145.6,2.59574468 L145.6,101.234043 C145.6,102.667633 144.43594,103.829787 143,103.829787 L2.6,103.829787 C1.16405965,103.829787 0,102.667633 0,101.234043 L0,2.59574468 C0,1.16215448 1.16405965,0 2.6,0 Z" id="矩形" fill="#F1F4F8"></path>
                            <path d="M2.6,0 L143,0 C144.43594,0 145.6,1.16215448 145.6,2.59574468 L145.6,10.3829787 L0,10.3829787 L0,2.59574468 C0,1.16215448 1.16405965,0 2.6,0 Z" id="矩形" fill="#DBDEE3"></path>
                            <ellipse id="椭圆形" fill="#FFFFFF" cx="7.8" cy="5.19148936" rx="2.6" ry="2.59574468"></ellipse>
                            <ellipse id="椭圆形备份" fill="#FFFFFF" cx="18.2" cy="5.19148936" rx="2.6" ry="2.59574468"></ellipse>
                            <ellipse id="椭圆形备份-2" fill="#FFFFFF" cx="28.6" cy="5.19148936" rx="2.6" ry="2.59574468"></ellipse>
                        </g>
                        <path d="M7.8,15.5744681 L137.8,15.5744681 C139.23594,15.5744681 140.4,16.7366226 140.4,18.1702128 L140.4,96.0425532 C140.4,97.4761434 139.23594,98.6382979 137.8,98.6382979 L7.8,98.6382979 C6.36405965,98.6382979 5.2,97.4761434 5.2,96.0425532 L5.2,18.1702128 C5.2,16.7366226 6.36405965,15.5744681 7.8,15.5744681 Z" id="矩形" fill="#FFFFFF"></path>
                        <path d="M7.8,15.5744681 L41.6,15.5744681 L41.6,98.6382979 L7.8,98.6382979 C6.36405965,98.6382979 5.2,97.4761434 5.2,96.0425532 L5.2,18.1702128 C5.2,16.7366226 6.36405965,15.5744681 7.8,15.5744681 Z" id="矩形" fill="#E2E5E9"></path>
                        <path d="M11.7,20.7659574 L14.3,20.7659574 C15.0179702,20.7659574 15.6,21.3470347 15.6,22.0638298 L15.6,24.6595745 C15.6,25.3763696 15.0179702,25.9574468 14.3,25.9574468 L11.7,25.9574468 C10.9820298,25.9574468 10.4,25.3763696 10.4,24.6595745 L10.4,22.0638298 C10.4,21.3470347 10.9820298,20.7659574 11.7,20.7659574 Z" id="矩形" fill="#FFFFFF"></path>
                        <path d="M22.1,20.7659574 L35.1,20.7659574 C35.8179702,20.7659574 36.4,21.3470347 36.4,22.0638298 L36.4,24.6595745 C36.4,25.3763696 35.8179702,25.9574468 35.1,25.9574468 L22.1,25.9574468 C21.3820298,25.9574468 20.8,25.3763696 20.8,24.6595745 L20.8,22.0638298 C20.8,21.3470347 21.3820298,20.7659574 22.1,20.7659574 Z" id="矩形备份" fill="#FFFFFF"></path>
                        <path d="M11.7,31.1489362 L29.9,31.1489362 C30.6179702,31.1489362 31.2,31.7300134 31.2,32.4468085 L31.2,35.0425532 C31.2,35.7593483 30.6179702,36.3404255 29.9,36.3404255 L11.7,36.3404255 C10.9820298,36.3404255 10.4,35.7593483 10.4,35.0425532 L10.4,32.4468085 C10.4,31.7300134 10.9820298,31.1489362 11.7,31.1489362 Z" id="矩形备份-2" fill="#FFFFFF"></path>
                        <path d="M11.7,41.5319149 L35.1,41.5319149 C35.8179702,41.5319149 36.4,42.1129921 36.4,42.8297872 L36.4,45.4255319 C36.4,46.142327 35.8179702,46.7234043 35.1,46.7234043 L11.7,46.7234043 C10.9820298,46.7234043 10.4,46.142327 10.4,45.4255319 L10.4,42.8297872 C10.4,42.1129921 10.9820298,41.5319149 11.7,41.5319149 Z" id="矩形备份-3" fill="#FFFFFF"></path>
                        <path d="M11.7,51.9148936 L24.7,51.9148936 C25.4179702,51.9148936 26,52.4959709 26,53.212766 L26,55.8085106 C26,56.5253057 25.4179702,57.106383 24.7,57.106383 L11.7,57.106383 C10.9820298,57.106383 10.4,56.5253057 10.4,55.8085106 L10.4,53.212766 C10.4,52.4959709 10.9820298,51.9148936 11.7,51.9148936 Z" id="矩形备份-4" fill="#FFFFFF"></path>
                        <path d="M11.7,62.2978723 L35.1,62.2978723 C35.8179702,62.2978723 36.4,62.8789496 36.4,63.5957447 L36.4,66.1914894 C36.4,66.9082845 35.8179702,67.4893617 35.1,67.4893617 L11.7,67.4893617 C10.9820298,67.4893617 10.4,66.9082845 10.4,66.1914894 L10.4,63.5957447 C10.4,62.8789496 10.9820298,62.2978723 11.7,62.2978723 Z" id="矩形备份-5" fill="#FFFFFF"></path>
                        <path d="M48.1,20.7659574 L66.3,20.7659574 C67.0179702,20.7659574 67.6,21.3470347 67.6,22.0638298 L67.6,40.2340426 C67.6,40.9508377 67.0179702,41.5319149 66.3,41.5319149 L48.1,41.5319149 C47.3820298,41.5319149 46.8,40.9508377 46.8,40.2340426 L46.8,22.0638298 C46.8,21.3470347 47.3820298,20.7659574 48.1,20.7659574 Z" id="矩形" fill="#F1F4F8"></path>
                        <path d="M74.1,20.7659574 L89.7,20.7659574 C90.4179702,20.7659574 91,21.3470347 91,22.0638298 L91,27.2553191 C91,27.9721142 90.4179702,28.5531915 89.7,28.5531915 L74.1,28.5531915 C73.3820298,28.5531915 72.8,27.9721142 72.8,27.2553191 L72.8,22.0638298 C72.8,21.3470347 73.3820298,20.7659574 74.1,20.7659574 Z" id="矩形" fill="#E9ECF0"></path>
                        <path d="M74.1,38.9361702 L133.9,38.9361702 C134.61797,38.9361702 135.2,39.5172475 135.2,40.2340426 C135.2,40.9508377 134.61797,41.5319149 133.9,41.5319149 L74.1,41.5319149 C73.3820298,41.5319149 72.8,40.9508377 72.8,40.2340426 C72.8,39.5172475 73.3820298,38.9361702 74.1,38.9361702 Z" id="矩形备份-6" fill="#F1F4F8"></path>
                        <path d="M74.1,33.7446809 L110.5,33.7446809 C111.21797,33.7446809 111.8,34.3257581 111.8,35.0425532 C111.8,35.7593483 111.21797,36.3404255 110.5,36.3404255 L74.1,36.3404255 C73.3820298,36.3404255 72.8,35.7593483 72.8,35.0425532 C72.8,34.3257581 73.3820298,33.7446809 74.1,33.7446809 Z" id="矩形备份-7" fill="#F1F4F8"></path>
                        <path d="M79.3,23.3617021 L84.5,23.3617021 C85.2179702,23.3617021 85.8,23.9427794 85.8,24.6595745 C85.8,25.3763696 85.2179702,25.9574468 84.5,25.9574468 L79.3,25.9574468 C78.5820298,25.9574468 78,25.3763696 78,24.6595745 C78,23.9427794 78.5820298,23.3617021 79.3,23.3617021 Z" id="矩形" fill="#FFFFFF"></path>
                        <path d="M135.2,48.9946809 C135.379493,48.9946809 135.525,49.1401883 135.525,49.3196809 C135.525,49.4991734 135.379493,49.6446809 135.2,49.6446809 L46.8,49.6446809 C46.6205075,49.6446809 46.475,49.4991734 46.475,49.3196809 C46.475,49.1401883 46.6205075,48.9946809 46.8,48.9946809 L135.2,48.9946809 Z" id="路径-9" fill="#F1F4F8" fill-rule="nonzero"></path>
                        <path d="M126.163587,57.106383 L133.963587,57.106383 C134.681557,57.106383 135.263587,57.6874602 135.263587,58.4042553 L135.263587,61 C135.263587,61.7167951 134.681557,62.2978723 133.963587,62.2978723 L126.163587,62.2978723 C125.445617,62.2978723 124.863587,61.7167951 124.863587,61 L124.863587,58.4042553 C124.863587,57.6874602 125.445617,57.106383 126.163587,57.106383 Z" id="矩形" fill="#F1F4F8"></path>
                        <path d="M126.163587,67.4893617 L133.963587,67.4893617 C134.681557,67.4893617 135.263587,68.0704389 135.263587,68.787234 L135.263587,71.3829787 C135.263587,72.0997738 134.681557,72.6808511 133.963587,72.6808511 L126.163587,72.6808511 C125.445617,72.6808511 124.863587,72.0997738 124.863587,71.3829787 L124.863587,68.787234 C124.863587,68.0704389 125.445617,67.4893617 126.163587,67.4893617 Z" id="矩形备份-8" fill="#F1F4F8"></path>
                        <path d="M126.163587,77.8723404 L133.963587,77.8723404 C134.681557,77.8723404 135.263587,78.4534177 135.263587,79.1702128 L135.263587,81.7659574 C135.263587,82.4827525 134.681557,83.0638298 133.963587,83.0638298 L126.163587,83.0638298 C125.445617,83.0638298 124.863587,82.4827525 124.863587,81.7659574 L124.863587,79.1702128 C124.863587,78.4534177 125.445617,77.8723404 126.163587,77.8723404 Z" id="矩形备份-9" fill="#F1F4F8"></path>
                        <path d="M126.163587,88.2553191 L133.963587,88.2553191 C134.681557,88.2553191 135.263587,88.8363964 135.263587,89.5531915 L135.263587,92.1489362 C135.263587,92.8657313 134.681557,93.4468085 133.963587,93.4468085 L126.163587,93.4468085 C125.445617,93.4468085 124.863587,92.8657313 124.863587,92.1489362 L124.863587,89.5531915 C124.863587,88.8363964 125.445617,88.2553191 126.163587,88.2553191 Z" id="矩形备份-10" fill="#F1F4F8"></path>
                        <path d="M58.5,57.106383 L113.1,57.106383 C113.81797,57.106383 114.4,57.6874602 114.4,58.4042553 L114.4,61 C114.4,61.7167951 113.81797,62.2978723 113.1,62.2978723 L58.5,62.2978723 C57.7820298,62.2978723 57.2,61.7167951 57.2,61 L57.2,58.4042553 C57.2,57.6874602 57.7820298,57.106383 58.5,57.106383 Z" id="矩形" fill="#F1F4F8"></path>
                        <path d="M49.4,57.106383 C50.8359403,57.106383 52,58.2685375 52,59.7021277 C52,61.1357179 50.8359403,62.2978723 49.4,62.2978723 C47.9640597,62.2978723 46.8,61.1357179 46.8,59.7021277 C46.8,58.2685375 47.9640597,57.106383 49.4,57.106383 Z" id="矩形备份-14" fill="#FDEEEA"></path>
                        <path d="M58.5,67.4893617 L87.1,67.4893617 C87.8179702,67.4893617 88.4,68.0704389 88.4,68.787234 L88.4,71.3829787 C88.4,72.0997738 87.8179702,72.6808511 87.1,72.6808511 L58.5,72.6808511 C57.7820298,72.6808511 57.2,72.0997738 57.2,71.3829787 L57.2,68.787234 C57.2,68.0704389 57.7820298,67.4893617 58.5,67.4893617 Z" id="矩形备份-11" fill="#F1F4F8"></path>
                        <path d="M49.4,67.4893617 C50.8359403,67.4893617 52,68.6515162 52,70.0851064 C52,71.5186966 50.8359403,72.6808511 49.4,72.6808511 C47.9640597,72.6808511 46.8,71.5186966 46.8,70.0851064 C46.8,68.6515162 47.9640597,67.4893617 49.4,67.4893617 Z" id="矩形备份-15" fill="#E6F2FE"></path>
                        <path d="M58.5,77.8723404 L110.5,77.8723404 C111.21797,77.8723404 111.8,78.4534177 111.8,79.1702128 L111.8,81.7659574 C111.8,82.4827525 111.21797,83.0638298 110.5,83.0638298 L58.5,83.0638298 C57.7820298,83.0638298 57.2,82.4827525 57.2,81.7659574 L57.2,79.1702128 C57.2,78.4534177 57.7820298,77.8723404 58.5,77.8723404 Z" id="矩形备份-12" fill="#F1F4F8"></path>
                        <path d="M49.4,77.8723404 C50.8359403,77.8723404 52,79.0344949 52,80.4680851 C52,81.9016753 50.8359403,83.0638298 49.4,83.0638298 C47.9640597,83.0638298 46.8,81.9016753 46.8,80.4680851 C46.8,79.0344949 47.9640597,77.8723404 49.4,77.8723404 Z" id="矩形备份-16" fill="#ECF7F2"></path>
                        <path d="M58.5,88.2553191 L97.5,88.2553191 C98.2179702,88.2553191 98.8,88.8363964 98.8,89.5531915 L98.8,92.1489362 C98.8,92.8657313 98.2179702,93.4468085 97.5,93.4468085 L58.5,93.4468085 C57.7820298,93.4468085 57.2,92.8657313 57.2,92.1489362 L57.2,89.5531915 C57.2,88.8363964 57.7820298,88.2553191 58.5,88.2553191 Z" id="矩形备份-13" fill="#F1F4F8"></path>
                        <path d="M49.4,88.2553191 C50.8359403,88.2553191 52,89.4174736 52,90.8510638 C52,92.284654 50.8359403,93.4468085 49.4,93.4468085 C47.9640597,93.4468085 46.8,92.284654 46.8,90.8510638 C46.8,89.4174736 47.9640597,88.2553191 49.4,88.2553191 Z" id="矩形备份-17" fill="#FDF2E8"></path>
                        <g id="Icon/article" transform="translate(49.400000, 23.361702)">
                            <path d="M12.35,1.94680851 L3.25,1.94680851 C2.535,1.94680851 1.95,2.53085106 1.95,3.24468085 L1.95,12.3297872 C1.95,13.043617 2.535,13.6276596 3.25,13.6276596 L12.35,13.6276596 C13.065,13.6276596 13.65,13.043617 13.65,12.3297872 L13.65,3.24468085 C13.65,2.53085106 13.065,1.94680851 12.35,1.94680851 Z M9.1,11.0319149 L4.55,11.0319149 L4.55,9.73404255 L9.1,9.73404255 L9.1,11.0319149 Z M11.05,8.43617021 L4.55,8.43617021 L4.55,7.13829787 L11.05,7.13829787 L11.05,8.43617021 Z M11.05,5.84042553 L4.55,5.84042553 L4.55,4.54255319 L11.05,4.54255319 L11.05,5.84042553 Z" id="icon" fill="#DBDEE3"></path>
                            <rect id="article" x="0" y="0" width="15.6" height="15.5744681"></rect>
                        </g>
                    </g>
                    <g id="前景/结算策略无配置" transform="translate(127.400000, 0.000000)">
                        <g id="矩形">
                            <use fill="black" fill-opacity="1" filter="url(#filter-2)" xlink:href="#path-1"></use>
                            <use fill="#FFFFFF" fill-rule="evenodd" xlink:href="#path-1"></use>
                        </g>
                        <path d="M6.5,5.19148936 L87.1,5.19148936 C87.8179702,5.19148936 88.4,5.7725666 88.4,6.4893617 L88.4,19.4680851 C88.4,20.1848802 87.8179702,20.7659574 87.1,20.7659574 L6.5,20.7659574 C5.78202983,20.7659574 5.2,20.1848802 5.2,19.4680851 L5.2,6.4893617 C5.2,5.7725666 5.78202983,5.19148936 6.5,5.19148936 Z" id="矩形" fill="#F1F4F8"></path>
                        <path d="M9.1,7.78723404 L16.9,7.78723404 C17.6179702,7.78723404 18.2,8.36831128 18.2,9.08510638 L18.2,16.8723404 C18.2,17.5891355 17.6179702,18.1702128 16.9,18.1702128 L9.1,18.1702128 C8.38202983,18.1702128 7.8,17.5891355 7.8,16.8723404 L7.8,9.08510638 C7.8,8.36831128 8.38202983,7.78723404 9.1,7.78723404 Z" id="矩形" fill="currentColor"></path>
                        <path d="M9.1,28.5531915 L16.9,28.5531915 C17.6179702,28.5531915 18.2,29.1342687 18.2,29.8510638 L18.2,37.6382979 C18.2,38.355093 17.6179702,38.9361702 16.9,38.9361702 L9.1,38.9361702 C8.38202983,38.9361702 7.8,38.355093 7.8,37.6382979 L7.8,29.8510638 C7.8,29.1342687 8.38202983,28.5531915 9.1,28.5531915 Z" id="矩形备份-3" fill="#E9ECF0"></path>
                        <path d="M24.7,7.78723404 L61.1,7.78723404 C61.8179702,7.78723404 62.4,8.36831128 62.4,9.08510638 L62.4,11.6808511 C62.4,12.3976462 61.8179702,12.9787234 61.1,12.9787234 L24.7,12.9787234 C23.9820298,12.9787234 23.4,12.3976462 23.4,11.6808511 L23.4,9.08510638 C23.4,8.36831128 23.9820298,7.78723404 24.7,7.78723404 Z" id="矩形" fill="#E2E5E9"></path>
                        <path d="M24.7,28.5531915 L61.1,28.5531915 C61.8179702,28.5531915 62.4,29.1342687 62.4,29.8510638 L62.4,32.4468085 C62.4,33.1636036 61.8179702,33.7446809 61.1,33.7446809 L24.7,33.7446809 C23.9820298,33.7446809 23.4,33.1636036 23.4,32.4468085 L23.4,29.8510638 C23.4,29.1342687 23.9820298,28.5531915 24.7,28.5531915 Z" id="矩形备份-4" fill="#E9ECF0"></path>
                        <path d="M24.7,15.5744681 L42.9,15.5744681 C43.6179702,15.5744681 44.2,16.1555453 44.2,16.8723404 C44.2,17.5891355 43.6179702,18.1702128 42.9,18.1702128 L24.7,18.1702128 C23.9820298,18.1702128 23.4,17.5891355 23.4,16.8723404 C23.4,16.1555453 23.9820298,15.5744681 24.7,15.5744681 Z" id="矩形备份" fill="#E9ECF0"></path>
                        <path d="M24.7,36.3404255 L42.9,36.3404255 C43.6179702,36.3404255 44.2,36.9215028 44.2,37.6382979 C44.2,38.355093 43.6179702,38.9361702 42.9,38.9361702 L24.7,38.9361702 C23.9820298,38.9361702 23.4,38.355093 23.4,37.6382979 C23.4,36.9215028 23.9820298,36.3404255 24.7,36.3404255 Z" id="矩形备份-5" fill="#F1F4F8"></path>
                        <path d="M78,10.3829787 L83.2,10.3829787 C84.6359403,10.3829787 85.8,11.5451332 85.8,12.9787234 C85.8,14.4123136 84.6359403,15.5744681 83.2,15.5744681 L78,15.5744681 C76.5640597,15.5744681 75.4,14.4123136 75.4,12.9787234 C75.4,11.5451332 76.5640597,10.3829787 78,10.3829787 Z" id="矩形" fill="currentColor"></path>
                        <path d="M78,31.1489362 L83.2,31.1489362 C84.6359403,31.1489362 85.8,32.3110906 85.8,33.7446809 C85.8,35.1782711 84.6359403,36.3404255 83.2,36.3404255 L78,36.3404255 C76.5640597,36.3404255 75.4,35.1782711 75.4,33.7446809 C75.4,32.3110906 76.5640597,31.1489362 78,31.1489362 Z" id="矩形备份-6" fill="#DBDEE3"></path>
                        <path d="M78,51.9148936 L83.2,51.9148936 C84.6359403,51.9148936 85.8,53.0770481 85.8,54.5106383 C85.8,55.9442285 84.6359403,57.106383 83.2,57.106383 L78,57.106383 C76.5640597,57.106383 75.4,55.9442285 75.4,54.5106383 C75.4,53.0770481 76.5640597,51.9148936 78,51.9148936 Z" id="矩形备份-7" fill="#DBDEE3"></path>
                        <path d="M9.1,49.3191489 L16.9,49.3191489 C17.6179702,49.3191489 18.2,49.9002262 18.2,50.6170213 L18.2,58.4042553 C18.2,59.1210504 17.6179702,59.7021277 16.9,59.7021277 L9.1,59.7021277 C8.38202983,59.7021277 7.8,59.1210504 7.8,58.4042553 L7.8,50.6170213 C7.8,49.9002262 8.38202983,49.3191489 9.1,49.3191489 Z" id="矩形备份-10" fill="#E9ECF0"></path>
                        <path d="M24.7,49.3191489 L61.1,49.3191489 C61.8179702,49.3191489 62.4,49.9002262 62.4,50.6170213 L62.4,53.212766 C62.4,53.9295611 61.8179702,54.5106383 61.1,54.5106383 L24.7,54.5106383 C23.9820298,54.5106383 23.4,53.9295611 23.4,53.212766 L23.4,50.6170213 C23.4,49.9002262 23.9820298,49.3191489 24.7,49.3191489 Z" id="矩形备份-9" fill="#E9ECF0"></path>
                        <path d="M24.7,57.106383 L42.9,57.106383 C43.6179702,57.106383 44.2,57.6874602 44.2,58.4042553 C44.2,59.1210504 43.6179702,59.7021277 42.9,59.7021277 L24.7,59.7021277 C23.9820298,59.7021277 23.4,59.1210504 23.4,58.4042553 C23.4,57.6874602 23.9820298,57.106383 24.7,57.106383 Z" id="矩形备份-8" fill="#F1F4F8"></path>
                        <ellipse id="椭圆形" fill="#FFFFFF" cx="83.2" cy="12.9787234" rx="2.1125" ry="2.10904255"></ellipse>
                        <ellipse id="椭圆形备份" fill="#FFFFFF" cx="78" cy="33.7446809" rx="2.1125" ry="2.10904255"></ellipse>
                        <ellipse id="椭圆形备份-2" fill="#FFFFFF" cx="78" cy="54.5106383" rx="2.1125" ry="2.10904255"></ellipse>
                        <path d="M11.7,31.1489362 L14.3,31.1489362 C15.0179702,31.1489362 15.6,31.7300134 15.6,32.4468085 L15.6,35.0425532 C15.6,35.7593483 15.0179702,36.3404255 14.3,36.3404255 L11.7,36.3404255 C10.9820298,36.3404255 10.4,35.7593483 10.4,35.0425532 L10.4,32.4468085 C10.4,31.7300134 10.9820298,31.1489362 11.7,31.1489362 Z" id="矩形" fill="#DBDEE3"></path>
                        <path d="M11.7,51.9148936 L14.3,51.9148936 C15.0179702,51.9148936 15.6,52.4959709 15.6,53.212766 L15.6,55.8085106 C15.6,56.5253057 15.0179702,57.106383 14.3,57.106383 L11.7,57.106383 C10.9820298,57.106383 10.4,56.5253057 10.4,55.8085106 L10.4,53.212766 C10.4,52.4959709 10.9820298,51.9148936 11.7,51.9148936 Z" id="矩形备份-2" fill="#DBDEE3"></path>
                        <path d="M15.4867172,10.3187867 C15.7130329,10.0405827 16.1223968,9.99821865 16.4010569,10.224164 C16.679717,10.4501094 16.7221505,10.8588032 16.4958347,11.1370073 L12.3542619,16.2281343 L9.84474173,14.0297639 C9.57490558,13.7933841 9.54809797,13.383373 9.78486525,13.1139785 C10.0216325,12.844584 10.4323158,12.8178202 10.7021519,13.0542 L12.1964375,14.3632287 L15.4867172,10.3187867 Z" id="路径-11" fill="#FFFFFF" fill-rule="nonzero"></path>
                    </g>
                </g>
            </g>
        </g>
    </g>
</svg>