<?xml version="1.0" standalone="no"?><!DOCTYPE svg PUBLIC "-//W3C//DTD SVG 1.1//EN" "http://www.w3.org/Graphics/SVG/1.1/DTD/svg11.dtd"><svg t="1592178572497" class="icon" viewBox="0 0 1024 1024" version="1.1" xmlns="http://www.w3.org/2000/svg" p-id="1203" xmlns:xlink="http://www.w3.org/1999/xlink" width="15" height="15"><defs><style type="text/css"></style></defs><path d="M409.6 838.4H147.2v-704H768v179.2h-64V192H211.2v588.8h198.4z" p-id="1204" fill="#d81e06"></path><path d="M281.6 268.8H640v64H281.6zM281.6 428.8h128v64h-128zM672 448c102.4 0 185.6 83.2 185.6 185.6s-83.2 185.6-185.6 185.6-185.6-83.2-185.6-185.6S569.6 448 672 448m0-64C531.2 384 422.4 499.2 422.4 633.6s108.8 249.6 249.6 249.6 249.6-108.8 249.6-249.6S806.4 384 672 384z" p-id="1205" fill="#d81e06"></path><path d="M761.6 582.4l-44.8-44.8-51.2 57.6-57.6-57.6-44.8 44.8 51.2 57.6-51.2 57.6 44.8 44.8 57.6-57.6 51.2 57.6 44.8-44.8-51.2-57.6z" p-id="1206" fill="#d81e06"></path></svg>
