<?xml version="1.0" encoding="UTF-8"?>
<svg width="12px" height="12px" viewBox="0 0 12 12" version="1.1" xmlns="http://www.w3.org/2000/svg" xmlns:xlink="http://www.w3.org/1999/xlink">
    <!-- Generator: Sketch 59 (86127) - https://sketch.com -->
    <title>延期</title>
    <desc>Created with Sketch.</desc>
    <g id="多轮报价" stroke="none" stroke-width="1" fill="none" fill-rule="evenodd">
        <g id="编组-5" fill-rule="nonzero">
            <rect id="Rectangle备份-3" fill="#333333" opacity="0" x="0" y="0" width="12" height="12"></rect>
            <path d="M6.80194154,0 C7.01335979,0 7.18474814,0.1790861 7.18474814,0.4 C7.18474814,0.6209139 7.01335979,0.8 6.80194154,0.8 L6.80194154,0.8 L6.451,0.8 L6.45185379,1.32267232 C7.21269062,1.37974696 7.929121,1.59606358 8.56791483,1.9383921 C8.80515529,1.5922056 9.20132635,1.37711756 9.63505388,1.37711756 C10.3509929,1.37711756 10.9313762,1.95750083 10.9313762,2.67343988 C10.9313762,3.08800546 10.7349699,3.47058959 10.4089885,3.71345071 L10.4753081,3.65853158 C11.05428,4.51299131 11.3924839,5.5438788 11.3924839,6.65375806 C11.3924839,9.60640595 8.99888984,12 6.04624194,12 C3.09359405,12 0.7,9.60640595 0.7,6.65375806 C0.7,3.83384387 2.88322733,1.52384976 5.6515968,1.3218609 L5.651,0.8 L5.26322859,0.8 C5.07823763,0.8 4.92389455,0.662887205 4.88819927,0.480613952 L4.880422,0.4 C4.880422,0.1790861 5.05181035,0 5.26322859,0 L5.26322859,0 Z M6.04624194,2.0731293 C3.51643054,2.0731293 1.46561319,4.12394665 1.46561319,6.65375806 C1.46561319,9.18356946 3.51643054,11.2343868 6.04624194,11.2343868 C8.57605335,11.2343868 10.6268707,9.18356946 10.6268707,6.65375806 C10.6268707,4.12394665 8.57605335,2.0731293 6.04624194,2.0731293 Z M6.04624207,2.92391584 C6.25766032,2.92391584 6.42904867,3.09530419 6.42904867,3.30672243 L6.42904867,3.30672243 L6.42978065,5.97095104 C6.55485892,6.04135954 6.65864096,6.14514159 6.72904947,6.27021986 L8.40921825,6.27095184 C8.62063649,6.27095184 8.79202484,6.44234019 8.79202484,6.65375843 C8.79202484,6.86517667 8.62063649,7.03656502 8.40921825,7.03656502 L8.40921825,7.03656502 L6.72904947,7.037297 C6.59483326,7.27572746 6.33934464,7.43677192 6.04624207,7.43677192 C5.61379567,7.43677192 5.26322859,7.08620484 5.26322859,6.65375843 C5.26322859,6.36065587 5.42427305,6.10516725 5.6627035,5.97095104 L5.66343548,3.30672243 C5.66343548,3.09530419 5.83482383,2.92391584 6.04624207,2.92391584 Z M9.63505388,2.14273074 C9.43878152,2.14273074 9.26170419,2.24991312 9.16903533,2.41912958 L9.21679764,2.34868934 C9.50088817,2.55826328 9.76349136,2.79528493 10.000693,3.05584011 L10.0253363,3.03316192 C10.1144867,2.93662776 10.165763,2.80952793 10.165763,2.67343988 C10.165763,2.38033732 9.92815645,2.14273074 9.63505388,2.14273074 Z" id="形状结合" fill="#F13131"></path>
        </g>
    </g>
</svg>