<?xml version="1.0" standalone="no"?><!DOCTYPE svg PUBLIC "-//W3C//DTD SVG 1.1//EN" "http://www.w3.org/Graphics/SVG/1.1/DTD/svg11.dtd"><svg t="1586877997310" class="icon" viewBox="0 0 1024 1024" version="1.1" xmlns="http://www.w3.org/2000/svg" p-id="1172" width="24" height="24" xmlns:xlink="http://www.w3.org/1999/xlink"><defs><style type="text/css"></style></defs><path d="M512 1024C229.218462 1024 0 794.742154 0 512 0 229.218462 229.218462 0 512 0 794.781538 0 1024 229.218462 1024 512 1024 794.742154 794.781538 1024 512 1024ZM512 78.729846C272.738462 78.729846 78.769231 272.699077 78.769231 512 78.769231 751.261538 272.738462 945.230769 512 945.230769 751.261538 945.230769 945.230769 751.261538 945.230769 512 945.230769 272.699077 751.261538 78.729846 512 78.729846ZM649.885538 457.728C639.763692 470.685538 628.854154 482.146462 617.196308 492.150154 605.538462 502.153846 594.628923 512.157538 584.507077 522.161231 574.385231 532.164923 565.956923 542.523077 559.300923 553.314462 552.644923 564.066462 549.297231 576 549.297231 589.075692 549.297231 600.103385 550.715077 610.107077 553.550769 619.086769 556.347077 628.066462 559.182769 635.628308 562.018462 641.772308L480.846769 641.772308C478.523077 635.352615 476.475077 627.042462 474.702769 616.763077 472.891077 606.523077 471.985231 596.401231 471.985231 586.397538 471.985231 570.761846 475.136 556.583385 481.437538 543.901538 487.699692 531.180308 495.537231 519.325538 504.871385 508.297846 514.244923 497.270154 524.366769 486.636308 535.276308 476.396308 546.146462 466.116923 556.307692 456.113231 565.641846 446.385231 575.015385 436.657231 582.813538 426.377846 589.115077 415.625846 595.377231 404.834462 598.528 393.058462 598.528 380.219077 598.528 368.679385 596.243692 358.636308 591.596308 350.050462 586.988308 341.464615 580.647385 334.257231 572.573538 328.507077 564.499692 322.717538 555.283692 318.424615 544.886154 315.628308 534.488615 312.792615 523.421538 311.374769 511.606154 311.374769 473.403077 311.374769 437.011692 328.428308 402.392615 362.535385L402.392615 273.683692C444.416 249.068308 488.014769 236.780308 533.149538 236.780308 553.905231 236.780308 573.558154 239.458462 591.990154 244.854154 610.461538 250.249846 626.609231 258.166154 640.472615 268.681846 654.296615 279.197538 665.206154 292.273231 673.161846 307.908923 681.117538 323.584 685.095385 341.779692 685.095385 362.535385 685.095385 382.267077 681.747692 399.832615 675.091692 415.232 668.396308 430.631385 660.007385 444.770462 649.885538 457.728ZM524.681846 701.755077C539.293538 701.755077 552.132923 706.914462 563.160615 717.154462 573.912615 726.646154 579.308308 738.697846 579.308308 753.309538 579.308308 767.684923 573.912615 779.736615 563.160615 789.464615 551.857231 799.468308 539.057231 804.470154 524.681846 804.470154 510.070154 804.470154 497.112615 799.468308 485.848615 789.464615 475.057231 779.736615 469.700923 767.684923 469.700923 753.309538 469.700923 738.697846 475.057231 726.646154 485.848615 717.154462 496.876308 706.914462 509.833846 701.755077 524.681846 701.755077Z" p-id="1173" fill="#333333"></path></svg>