<?xml version="1.0" encoding="UTF-8"?>
<svg width="27px" height="16px" viewBox="0 0 27 16" version="1.1" xmlns="http://www.w3.org/2000/svg" xmlns:xlink="http://www.w3.org/1999/xlink">
    <!-- Generator: Sketch 58 (84663) - https://sketch.com -->
    <title>arrow-right-big</title>
    <desc>Created with Sketch.</desc>
    <g id="模型" stroke="none" stroke-width="1" fill="none" fill-rule="evenodd">
        <g id="数据应用管理" transform="translate(-582.000000, -171.000000)" fill="#FFFFFF">
            <g id="编组-7" transform="translate(555.000000, 154.000000)">
                <path d="M46.6553711,17.2903142 L53.7078757,24.2991195 C53.9026252,24.4926623 54,24.7463311 54,25 C54,25.2536689 53.9026252,25.5073377 53.7078757,25.7008805 L46.6553711,32.7096858 C46.265872,33.0967714 45.6343692,33.0967714 45.2448701,32.7096858 C44.8553711,32.3226002 44.8553711,31.6950104 45.2448701,31.3079247 L50.595,25.991 L27.9911947,25.9911947 C27.443773,25.9911947 27,25.5474217 27,25 C27,24.4525783 27.443773,24.0088053 27.9911947,24.0088053 L50.594,24.008 L45.2448701,18.6920753 C44.8553711,18.3049896 44.8553711,17.6773998 45.2448701,17.2903142 C45.6343692,16.9032286 46.265872,16.9032286 46.6553711,17.2903142 Z" id="arrow-right-big"></path>
            </g>
        </g>
    </g>
</svg>