<?xml version="1.0" encoding="UTF-8"?>
<svg width="16px" height="16px" viewBox="0 0 16 16" version="1.1" xmlns="http://www.w3.org/2000/svg" xmlns:xlink="http://www.w3.org/1999/xlink">
    <title>icon/反馈/备注</title>
    <defs>
        <path d="M9.93137896,1.67861868 C9.99149942,1.7632258 10.0237998,1.86444555 10.0237998,1.96823782 L10.0237998,14.0318021 C10.0237998,14.3079444 9.7999422,14.5318021 9.52379983,14.5318021 C9.42013747,14.5318021 9.31903786,14.4995824 9.23449096,14.4396015 L4.64450837,11.1832883 C4.47541457,11.0633265 4.27321535,10.9988872 4.06589063,10.9988872 L2.02807153,10.9988872 C1.47578678,10.9988872 1.02807153,10.5511719 1.02807153,9.99888716 L1.02807153,6.00670436 C1.02807153,5.45441961 1.47578678,5.00670436 2.02807153,5.00670436 L4.0654714,5.00670436 C4.27305595,5.00670436 4.47549544,4.94210355 4.6447097,4.82186263 L9.23418068,1.56065869 C9.45928042,1.40070645 9.77142672,1.45351894 9.93137896,1.67861868 Z M9.02307153,2.93656808 L5.22394799,5.6370209 C4.9338664,5.84314818 4.59496407,5.96751859 4.24260727,5.99884631 L4.0654714,6.00670436 L2.02807153,6.00670436 L2.02807153,9.99888716 L4.06589063,9.99888716 C4.42130443,9.99888716 4.76918689,10.0935736 5.07429799,10.2717157 L5.22312611,10.3676894 L9.02307153,13.0635681 L9.02307153,2.93656808 Z M11.7081369,10.279258 L11.790329,10.3165003 L14.2042591,11.6821089 C14.4446066,11.8180783 14.5292218,12.1231434 14.3932523,12.3634909 C14.2723907,12.5771332 14.0179224,12.6677277 13.7940623,12.5897265 L13.7118703,12.5524842 L11.2979402,11.1868757 C11.0575927,11.0509063 10.9729775,10.7458411 11.1089469,10.5054936 C11.2298086,10.2918513 11.4842768,10.2012569 11.7081369,10.279258 Z M14.4719285,7.25168798 C14.7480708,7.25168798 14.9719285,7.4755456 14.9719285,7.75168798 C14.9719285,7.99714787 14.7950533,8.20129635 14.5618041,8.24363231 L14.4719285,8.25168798 L11.5441346,8.25168798 C11.2679922,8.25168798 11.0441346,8.02783035 11.0441346,7.75168798 C11.0441346,7.50622809 11.2210098,7.30207961 11.454259,7.25974365 L11.5441346,7.25168798 L14.4719285,7.25168798 Z M14.3881838,3.06592348 C14.5133419,3.27707746 14.4652809,3.54288108 14.2862178,3.69823208 L14.2130109,3.75098878 L11.7990808,5.18180708 C11.5615326,5.32260997 11.2548184,5.24418239 11.1140155,5.00663417 C10.9888574,4.7954802 11.0369184,4.52967658 11.2159815,4.37432557 L11.2891884,4.32156888 L13.7031185,2.89075058 C13.9406667,2.74994768 14.2473809,2.82837527 14.3881838,3.06592348 Z" id="path-1"></path>
    </defs>
    <g id="-----7.1-icon" stroke="none" stroke-width="1" fill="none" fill-rule="evenodd">
        <g id="1-ICON备份" transform="translate(-922.000000, -5587.000000)">
            <g id="icon/反馈/备注" transform="translate(922.000000, 5587.000000)">
                <rect id="矩形" fill-opacity="0.01" fill="#FFFFFF" x="0" y="0" width="16" height="16"></rect>
                <mask id="mask-2" fill="white">
                    <use xlink:href="#path-1"></use>
                </mask>
                <use id="形状结合" fill="#AAADBA" fill-rule="nonzero" xlink:href="#path-1"></use>
                <g id="编组" mask="url(#mask-2)">
                    <g transform="translate(-32.000000, -32.000000)" id="颜色/按钮色">
                        <rect id="主色" fill="#AAADBA" x="0" y="0" width="80" height="80"></rect>
                    </g>
                </g>
            </g>
        </g>
    </g>
</svg>