<?xml version="1.0" encoding="UTF-8"?>
<svg width="16px" height="16px" viewBox="0 0 16 16" version="1.1" xmlns="http://www.w3.org/2000/svg" xmlns:xlink="http://www.w3.org/1999/xlink">
    <title>bianliang16</title>
    <defs>
        <linearGradient x1="50%" y1="0%" x2="50%" y2="100%" id="linearGradient-1">
            <stop stop-color="#F0828D" offset="0%"></stop>
            <stop stop-color="#F45063" offset="100%"></stop>
        </linearGradient>
    </defs>
    <g id="页面-1" stroke="none" stroke-width="1" fill="none" fill-rule="evenodd">
        <g id="事务处理流配置页" transform="translate(-208.000000, -477.000000)">
            <g id="编组-2备份-15" transform="translate(196.000000, 94.000000)">
                <g id="bianliang16" transform="translate(12.000000, 383.000000)">
                    <rect id="矩形" fill-opacity="0.01" fill="#FFFFFF" x="0" y="0" width="16" height="16"></rect>
                    <path d="M13.5357143,2 C13.7921322,2 14,2.22385763 14,2.5 L14,8.788 L9.95660743,8.78859451 L9.956,8.887 L9.27691786,7.06 L6.46692728,7.06 L3.866,14 L1.46428571,14 C1.20786779,14 1,13.7761424 1,13.5 L1,2.5 C1,2.22385763 1.20786779,2 1.46428571,2 L13.5357143,2 Z M8.314,13.179 L8.6,14 L7.092,14 L7.387,13.179 L8.314,13.179 Z M8.58180937,8.06 L10.6658158,13.6658158 L9.54303716,13.6658158 L9.02607431,12.1795477 L6.68358643,12.1795477 L6.1504685,13.6658158 L5.06,13.6658158 L7.16016155,8.06 L8.58180937,8.06 Z M15.06,11.8160582 L15.06,12.688433 L10.9566074,12.688433 L10.9566074,11.8160582 L15.06,11.8160582 Z M7.91137318,9.0050727 L7.81444265,9.0050727 L6.99861066,11.2910178 L8.71105008,11.2910178 L7.91137318,9.0050727 Z M15.06,9.78859451 L15.06,10.6609693 L10.9566074,10.6609693 L10.9566074,9.78859451 L15.06,9.78859451 Z M12.5,5 L2.5,5 C2.22385763,5 2,5.22385763 2,5.5 C2,5.77614237 2.22385763,6 2.5,6 L12.5,6 C12.7761424,6 13,5.77614237 13,5.5 C13,5.22385763 12.7761424,5 12.5,5 Z M6.5,3 C6.22385763,3 6,3.22385763 6,3.5 C6,3.77614237 6.22385763,4 6.5,4 C6.77614237,4 7,3.77614237 7,3.5 C7,3.22385763 6.77614237,3 6.5,3 Z M4.5,3 C4.22385763,3 4,3.22385763 4,3.5 C4,3.77614237 4.22385763,4 4.5,4 C4.77614237,4 5,3.77614237 5,3.5 C5,3.22385763 4.77614237,3 4.5,3 Z M2.5,3 C2.22385763,3 2,3.22385763 2,3.5 C2,3.77614237 2.22385763,4 2.5,4 C2.77614237,4 3,3.77614237 3,3.5 C3,3.22385763 2.77614237,3 2.5,3 Z" id="形状" fill="url(#linearGradient-1)"></path>
                </g>
            </g>
        </g>
    </g>
</svg>