<?xml version="1.0" encoding="UTF-8"?>
<svg width="16px" height="16px" viewBox="0 0 16 16" version="1.1" xmlns="http://www.w3.org/2000/svg" xmlns:xlink="http://www.w3.org/1999/xlink">
    <title>chuliliu16</title>
    <defs>
        <linearGradient x1="50%" y1="0%" x2="50%" y2="100%" id="linearGradient-1">
            <stop stop-color="#1E8AFF" offset="0%"></stop>
            <stop stop-color="#0940F8" offset="100%"></stop>
        </linearGradient>
    </defs>
    <g id="事件流" stroke="none" stroke-width="1" fill="none" fill-rule="evenodd">
        <g id="节点icon" transform="translate(-12.000000, -426.000000)">
            <g id="chuliliu16" transform="translate(12.000000, 426.000000)">
                <rect id="矩形" fill="#000000" fill-rule="nonzero" opacity="0" x="0" y="0" width="16" height="16"></rect>
                <path d="M12.606048,4.60439537 C13.4412804,4.59970462 14.1228682,5.25774125 14.1298288,6.07554945 C14.6555673,6.4489011 15.0005044,7.00571429 15,7.64758242 C15,8.80126374 13.9086246,9.70175824 12.5975609,9.70175824 L12.5975609,9.70175824 L5.0246021,9.70175824 C4.94741134,10.4563528 4.29967376,11.0314165 3.52516131,11.032967 C3.02515928,11.0330533 2.55744276,10.7911116 2.27571149,10.3866484 C2.06359794,10.5864286 1.93228956,10.8381319 1.93228956,11.1086264 C1.93228956,11.7198352 2.57469059,12.2499451 3.40243847,12.2499451 L3.40243847,12.2499451 L7.08765889,12.2499451 C7.21839575,11.5457161 7.84447819,11.0336071 8.57548393,11.032967 C9.41224878,11.032967 10.0905807,11.69716 10.0905807,12.5164835 C10.0905807,13.335807 9.41224878,14 8.57548393,14 C7.99654676,13.9986593 7.46921352,13.6737615 7.21745218,13.1632967 L7.21745218,13.1632967 L3.40243847,13.1632967 C2.09187975,13.1632967 1,12.2628022 1,11.1091209 C1,10.4059341 1.4085711,9.80016484 2.0221853,9.43126374 C2.08254395,8.66185267 2.73705789,8.06728077 3.52516131,8.06593407 C4.05655854,8.06687066 4.54825685,8.34150161 4.819559,8.7889011 L4.819559,8.7889011 L12.5980659,8.7889011 C13.4258138,8.7889011 14.0682148,8.25879121 14.0682148,7.64758242 C14.0682148,7.41021978 13.9692285,7.18620879 13.8025678,6.99978022 C13.5253051,7.34543956 13.0995629,7.57142857 12.615742,7.57142857 C11.7804959,7.5719454 11.1023676,6.91049082 11.0996955,6.0926584 C11.0970235,5.27482598 11.7708156,4.60913651 12.606048,4.60439537 Z M8.07045167,2 C8.72901374,2 9.2840442,2.4139011 9.49312755,2.98901099 L9.49312755,2.98901099 L12.3273686,2.98901099 C12.5848133,2.98901099 12.7935134,3.19336102 12.7935134,3.44543956 C12.7935134,3.6975181 12.5848133,3.90186813 12.3273686,3.90186813 L12.3273686,3.90186813 L9.51686407,3.90186813 C9.33151723,4.51604396 8.75780058,4.96703297 8.07045167,4.96703297 C7.38310276,4.96703297 6.80938611,4.51604396 6.62403927,3.90186813 L6.62403927,3.90186813 L4.412503,3.90186813 C3.58475512,3.90186813 2.94235408,4.43197802 2.94235408,5.04318681 C2.94235408,5.6543956 3.58475512,6.18450549 4.412503,6.18450549 L4.412503,6.18450549 L9.91432446,6.18450549 C10.1717691,6.18450549 10.3804692,6.38885553 10.3804692,6.64093407 C10.3804692,6.89301261 10.1717691,7.09736264 9.91432446,7.09736264 L9.91432446,7.09736264 L4.412503,7.09736264 C3.10194428,7.09736264 2.01006452,6.19686813 2.01006452,5.04318681 C2.01006452,3.88950549 3.10194428,2.98901099 4.412503,2.98901099 L4.412503,2.98901099 L6.64828082,2.98901099 C6.85685914,2.4139011 7.4118896,2 8.07045167,2 Z" id="形状结合" fill="url(#linearGradient-1)"></path>
            </g>
        </g>
    </g>
</svg>