<?xml version="1.0" encoding="UTF-8"?>
<svg width="16px" height="16px" viewBox="0 0 16 16" version="1.1" xmlns="http://www.w3.org/2000/svg" xmlns:xlink="http://www.w3.org/1999/xlink">
    <title>copy@v4.0</title>
    <g id="页面-1" stroke="none" stroke-width="1" fill="none" fill-rule="evenodd">
        <g id="消息通知" transform="translate(-489.000000, -112.000000)">
            <g id="编组-10" transform="translate(384.000000, 94.000000)">
                <g id="copy" transform="translate(105.000000, 18.000000)">
                    <rect id="矩形" fill="#D8D8D8" opacity="0.01" x="0" y="0" width="16" height="16"></rect>
                    <g id="编组-15" transform="translate(1.000000, 1.000000)">
                        <rect id="矩形备份" stroke="#5A6677" x="3.5" y="0.5" width="10" height="11" rx="2"></rect>
                        <rect id="矩形" stroke="#5A6677" fill="#FFFFFF" x="0.5" y="2.5" width="11" height="11" rx="2"></rect>
                        <path d="M6,5.5 C6.27614237,5.5 6.5,5.72385763 6.5,6 L6.5,7.5 L8,7.5 C8.27614237,7.5 8.5,7.72385763 8.5,8 C8.5,8.27614237 8.27614237,8.5 8,8.5 L6.499,8.5 L6.5,10 C6.5,10.2761424 6.27614237,10.5 6,10.5 C5.72385763,10.5 5.5,10.2761424 5.5,10 L5.499,8.5 L4,8.5 C3.72385763,8.5 3.5,8.27614237 3.5,8 C3.5,7.72385763 3.72385763,7.5 4,7.5 L5.5,7.5 L5.5,6 C5.5,5.72385763 5.72385763,5.5 6,5.5 Z" id="形状结合" fill="#5A6677"></path>
                    </g>
                </g>
            </g>
        </g>
    </g>
</svg>