<?xml version="1.0" encoding="UTF-8"?>
<svg width="14px" height="14px" viewBox="0 0 14 14" version="1.1" xmlns="http://www.w3.org/2000/svg" xmlns:xlink="http://www.w3.org/1999/xlink">
    <title>bianji</title>
    <g id="页面-1" stroke="none" stroke-width="1" fill="none" fill-rule="evenodd">
        <g id="5-导入模板配置" transform="translate(-1190.000000, -239.000000)">
            <g id="编组-19备份" transform="translate(1190.000000, 238.000000)">
                <g id="编组" transform="translate(0.000000, 1.000000)">
                    <rect id="矩形" fill-opacity="0.01" fill="#FFFFFF" x="0" y="0" width="14" height="14"></rect>
                    <path d="M12.0694644,10.5524932 C12.3166156,10.429323 12.6168204,10.5298294 12.7399905,10.7769806 C12.8631607,11.0241318 12.7626543,11.3243366 12.5155031,11.4475068 C11.6115741,11.8979886 10.5824135,12.2860346 9.42797407,12.6124992 C8.51817118,12.869783 7.92186564,12.778603 7.16036178,12.3807446 L6.96626716,12.274915 L6.65453619,12.0987993 C6.31391222,11.9126197 6.09626075,11.8279718 5.81221308,11.7809268 C5.03679702,11.6524994 3.66228298,11.8900727 1.73093869,12.5096809 C1.46799646,12.5940372 1.18645533,12.4492648 1.10209898,12.1863225 C1.01774262,11.9233803 1.16251508,11.6418392 1.42545731,11.5574828 C3.49794395,10.8925937 5.0005726,10.6328769 5.97561099,10.7943665 C6.38675873,10.8624624 6.69061796,10.980151 7.11437499,11.2105132 L7.62856475,11.4973468 C8.17304503,11.782127 8.52613534,11.8283145 9.15585494,11.6502357 C10.2527919,11.3400322 11.2240107,10.9738332 12.0694644,10.5524932 Z M9.40146118,1.45710678 L10.1969563,2.25260191 C10.5874806,2.6431262 10.5874806,3.27629118 10.1969563,3.66681547 L5.29771647,8.56605531 C5.19606214,8.66770964 5.07796715,8.74290313 4.95199057,8.79163577 L3.18907389,9.8205402 C2.87690889,10.0036326 2.4901796,10.0037782 2.17787684,9.82092087 C1.73532047,9.5617984 1.56562836,9.01509678 1.76814148,8.55491037 L1.82152768,8.45041955 L2.8744971,6.67230963 C2.92322974,6.55750318 2.99439997,6.44995444 3.08800778,6.35634662 L7.98724762,1.45710678 C8.37777191,1.06658249 9.01093689,1.06658249 9.40146118,1.45710678 Z M3.27506341,7.95821356 L2.68315057,8.95796174 L3.68706341,8.37021356 L3.27506341,7.95821356 Z M8.6943544,2.16421356 L3.82206341,7.03621356 L3.80206341,7.07021356 L4.58006341,7.84821356 L4.62906341,7.81921356 L9.48984953,2.95970869 L8.6943544,2.16421356 Z M7.249809,6.92897636 L9.77519036,4.403595 C9.97045251,4.20833285 10.287035,4.20833285 10.4822971,4.403595 C10.6558635,4.57716135 10.6751486,4.84658575 10.5401526,5.04145389 L10.4822971,5.11070178 L7.95691578,7.63608314 C7.76165364,7.83134529 7.44507115,7.83134529 7.249809,7.63608314 C7.07624265,7.46251679 7.0569575,7.19309239 7.19195355,6.99822425 L7.249809,6.92897636 L9.77519036,4.403595 L7.249809,6.92897636 Z" id="形状" fill="#0840F8" fill-rule="nonzero"></path>
                </g>
            </g>
        </g>
    </g>
</svg>