<?xml version="1.0" encoding="UTF-8"?>
<svg width="12px" height="12px" viewBox="0 0 12 12" version="1.1" xmlns="http://www.w3.org/2000/svg" xmlns:xlink="http://www.w3.org/1999/xlink">
    <title>duxiang kuozhan2</title>
    <defs>
        <rect id="path-1" x="0" y="0" width="12" height="12"></rect>
    </defs>
    <g id="页面-1" stroke="none" stroke-width="1" fill="none" fill-rule="evenodd">
        <g id="1-基础表" transform="translate(-150.000000, -150.000000)">
            <g id="编组-12" transform="translate(52.000000, 48.000000)">
                <g id="编组-19" transform="translate(12.000000, 74.000000)">
                    <g id="编组-8备份" transform="translate(0.000000, 24.000000)">
                        <g id="duxiang-kuozhan2" transform="translate(86.000000, 4.000000)">
                            <mask id="mask-2" fill="white">
                                <use xlink:href="#path-1"></use>
                            </mask>
                            <use id="矩形" fill-opacity="0.01" fill="#FFFFFF" xlink:href="#path-1"></use>
                            <path d="M4.38459111,8 C4.67524287,8 5.03231723,8.0256 5.40842992,8.0584 L6.32226952,8.1416 C6.6983822,8.1744 7.05545656,8.2 7.34610833,8.2 L8.08648763,8.2 C8.37840861,8.2 8.61532999,8.424 8.61532999,8.7 L8.61532999,8.728 C8.61530628,9.00261304 8.41024044,9.23902161 8.12541043,9.2928 L8.02175733,9.3124 L7.63464472,9.3692 L7.50645333,9.3856 L7.40660789,9.3964 C7.39449625,9.39751576 7.3823666,9.39844922 7.37022354,9.3992 L7.34610833,9.4 L6.07477129,9.572 C5.95476694,9.58828933 5.86559003,9.68537739 5.86534972,9.8 C5.86534972,9.9128 5.95842597,10.0056 6.07688666,10.012 L6.48303759,10.0324 L6.84434269,10.0452 L7.06011038,10.05 L7.34695447,10.0508 L7.51364559,10.0468 L7.66002915,10.04 L7.72602868,10.0356 L7.84279707,10.0236 C7.87833528,10.0196 7.91048889,10.0144 7.93968099,10.0088 L7.98071916,10 C8.12244891,9.9664 8.25275567,9.9392 8.37417787,9.916 L8.60433007,9.8728 L8.71179084,9.8532 C8.82209327,9.8444971 8.93138012,9.82669603 9.03840388,9.8 C9.48982372,9.6932 9.95224348,9.4728 10.3782789,9.26 L10.6905074,9.104 C10.9435056,8.9776 11.1774655,8.8668 11.380964,8.8 C11.9719982,8.6064 12.1818429,9.3496 11.8256147,9.5788 L11.7879611,9.6 C11.7282206,9.63077576 11.6701837,9.6644197 11.6140777,9.7008 L11.4600788,9.8012 L11.2823878,9.9224 L10.539047,10.4388 L10.3127024,10.5928 L10.0888963,10.7408 C9.75805256,10.9556 9.45343936,11.1332 9.24994082,11.2 L8.92882774,11.3028 L8.50152311,11.436 L8.01202663,11.5828 L7.75818229,11.6568 L7.38206961,11.7628 L7.14303286,11.8268 L6.9188037,11.884 L6.71657438,11.932 C6.52619113,11.9744 6.37642297,12 6.29223127,12 L6.19957809,11.9976 L6.07688666,11.9908 L5.92627236,11.9788 L5.75154284,11.9628 L5.55523656,11.9416 L5.34073809,11.9156 L4.99043292,11.868 L4.74208854,11.8308 L4.48612884,11.7884 L4.22509225,11.7416 C4.04924179,11.7087051 3.87405847,11.6726988 3.69963448,11.6336 L3.44155941,11.5728 C3.27575679,11.5320258 3.11125166,11.486673 2.94825526,11.4368 L2.83190994,11.4 C2.26033711,11.2128 1.78860973,11.124 1.41757393,11.134 C1.19338933,11.1400515 1.00645003,10.9731565 1,10.7612 L1,8.784 C1,8.572 1.18192177,8.4 1.40615093,8.4 L1.81399416,8.4 C2.02976184,8.4 2.31195213,8.35 2.62248836,8.2856 L3.10521567,8.1824 L3.4369056,8.1144 C3.76859553,8.05 4.09690086,8 4.38459111,8 Z M9.33333333,0 C10.2538079,0 11,0.746192084 11,1.66666667 C11,2.58714125 10.2538079,3.33333333 9.33333333,3.33333333 C9.13077552,3.33333333 8.93665743,3.29719858 8.75707357,3.2310236 L7.89184001,4.58948341 L10.3691991,5.60947725 C10.6682561,5.73260687 10.7117239,6.12408136 10.476831,6.31583985 L10.4058506,6.36283432 L8.63742944,7.30068697 C8.46577545,7.23555305 8.27978156,7.2 8.08648763,7.2 L8.08648763,7.2 L7.34610833,7.2 C7.23492403,7.2 7.10636426,7.19556143 6.95276037,7.18651478 L7.063,7.192 L9.23180088,6.04238285 L7.43717298,5.30348738 L6.273,7.132 L5.49909933,7.06251895 C5.44456045,7.05776191 5.39184398,7.05327915 5.34080716,7.04906972 L5.35772954,7.01855542 L5.35772954,7.01855542 L6.65444339,4.98121704 L4.7323861,4.18997777 C4.35136107,4.68271582 3.75440005,5 3.08333333,5 C1.9327401,5 1,4.0672599 1,2.91666667 C1,1.76607344 1.9327401,0.833333333 3.08333333,0.833333333 C4.23392656,0.833333333 5.16666667,1.76607344 5.16666667,2.91666667 C5.16666667,3.09769525 5.14357734,3.27333104 5.10018296,3.44078974 L7.10911043,4.26721307 L8.07157636,2.7556289 C7.81926702,2.46354411 7.66666667,2.08292625 7.66666667,1.66666667 C7.66666667,0.746192084 8.41285875,0 9.33333333,0 Z M3.08333333,2.08333333 C2.62309604,2.08333333 2.25,2.45642938 2.25,2.91666667 C2.25,3.37690396 2.62309604,3.75 3.08333333,3.75 C3.54357062,3.75 3.91666667,3.37690396 3.91666667,2.91666667 C3.91666667,2.45642938 3.54357062,2.08333333 3.08333333,2.08333333 Z M9.33333333,1.25 C9.10321469,1.25 8.91666667,1.43654802 8.91666667,1.66666667 C8.91666667,1.89678531 9.10321469,2.08333333 9.33333333,2.08333333 C9.56345198,2.08333333 9.75,1.89678531 9.75,1.66666667 C9.75,1.43654802 9.56345198,1.25 9.33333333,1.25 Z" id="形状" fill="#AAADBA" fill-rule="nonzero" mask="url(#mask-2)"></path>
                        </g>
                    </g>
                </g>
            </g>
        </g>
    </g>
</svg>