<?xml version="1.0" encoding="UTF-8"?>
<svg width="16px" height="16px" viewBox="0 0 16 16" version="1.1" xmlns="http://www.w3.org/2000/svg" xmlns:xlink="http://www.w3.org/1999/xlink">
    <title>faqi16</title>
    <defs>
        <linearGradient x1="50%" y1="0%" x2="50%" y2="100%" id="linearGradient-1">
            <stop stop-color="#F9CD85" offset="0%"></stop>
            <stop stop-color="#F6B74D" offset="100%"></stop>
        </linearGradient>
    </defs>
    <g id="事件流" stroke="none" stroke-width="1" fill="none" fill-rule="evenodd">
        <g id="节点icon" transform="translate(-12.000000, -366.000000)">
            <g id="faqi16" transform="translate(12.000000, 366.000000)">
                <rect id="矩形" fill="#FFFFFF" fill-rule="nonzero" opacity="0.01" x="0" y="0" width="16" height="16"></rect>
                <path d="M14.125,2 C14.6076172,2 15,2.3679286 15,2.82333674 L15,2.82333674 L15.0017722,7.25631771 C14.8392489,6.96549946 14.5528605,6.76571266 14.2137347,6.6874193 L13.9768944,6.6327404 L7.88926285,8.18716186 L7.76905766,8.2569893 C7.68482344,8.30592113 7.59057505,8.37346736 7.49211156,8.46806547 C7.10371663,8.84121315 6.90987048,9.39462681 7.18708239,9.99449156 C7.23035348,10.0881268 7.28388907,10.1768087 7.34660627,10.2605104 L7.52825713,10.4945157 L7.88385018,10.929622 L8.06721315,11.1480792 L7.83641875,12.084839 C7.79765226,12.2522673 7.78515496,12.4229744 7.82915911,12.6309989 C7.9157489,13.040342 8.2095061,13.3830179 8.64275647,13.5099845 L8.90265768,13.5719304 C9.17948538,13.6268342 9.48995152,13.5865272 9.78376687,13.4161373 L9.92224954,13.324144 L10.2082958,13.6608018 L10.2870409,13.7433128 L10.3907747,13.8336444 C10.4111595,13.8502725 10.4330685,13.867557 10.456466,13.8853032 L10.6000002,13.9845728 L10.628,14 L1.875,14 C1.42950721,14 1.06090052,13.6854025 1.00682785,13.2798239 L1,13.1766633 L1,2.82333674 C1,2.3679286 1.39238281,2 1.875,2 L1.875,2 Z M15,8.357 L15,13.1766633 C15,13.6307849 14.6076172,14 14.125,14 L14.125,14 L12.0895129,14.0026195 C12.2047506,13.9175919 12.3079544,13.8038588 12.3922936,13.6559918 L14.8675572,8.61604446 L15,8.357 Z M12.5,5 L2.5,5 C2.22385763,5 2,5.22385763 2,5.5 C2,5.77614237 2.22385763,6 2.5,6 L2.5,6 L12.5,6 C12.7761424,6 13,5.77614237 13,5.5 C13,5.22385763 12.7761424,5 12.5,5 L12.5,5 Z M6.5,3 C6.3625,3 6.2375,3.05625 6.146875,3.146875 C6.05625,3.2375 6,3.3625 6,3.5 C6,3.7765625 6.2234375,4 6.5,4 C6.6375,4 6.7625,3.94375 6.853125,3.853125 C6.94375,3.7625 7,3.6375 7,3.5 C7,3.3625 6.94375,3.2375 6.853125,3.146875 C6.7625,3.05625 6.6375,3 6.5,3 Z M4.5,3 C4.3625,3 4.2375,3.05625 4.146875,3.146875 C4.05625,3.2375 4,3.3625 4,3.5 C4,3.7765625 4.2234375,4 4.5,4 C4.6375,4 4.7625,3.94375 4.853125,3.853125 C4.94375,3.7625 5,3.6375 5,3.5 C5,3.3625 4.94375,3.2375 4.853125,3.146875 C4.7625,3.05625 4.6375,3 4.5,3 Z M2.5,3 C2.3625,3 2.2375,3.05625 2.146875,3.146875 C2.05625,3.2375 2,3.3625 2,3.5 C2,3.7765625 2.2234375,4 2.5,4 C2.6375,4 2.7625,3.94375 2.853125,3.853125 C2.94375,3.7625 3,3.6375 3,3.5 C3,3.3625 2.94375,3.2375 2.853125,3.146875 C2.7625,3.05625 2.6375,3 2.5,3 Z M13.9888549,7.66103286 L8.27143053,9.12092529 C8.27143053,9.12092529 7.90321045,9.33482508 8.14694865,9.66011556 C8.39068686,9.98540604 8.74278626,10.397406 8.74278626,10.397406 C8.74278626,10.397406 8.88829798,10.6302734 9.1211654,10.4847617 L11.761315,9.23913539 C11.761315,9.23913539 11.9119427,9.23405587 11.8100602,9.33009847 L9.28056915,11.1624249 L8.80742093,12.3234424 C8.80742093,12.3234424 8.76155919,12.5220914 8.95293265,12.5563098 L9.07590586,12.5847004 C9.07590586,12.5847004 9.21343025,12.6363777 9.38008133,12.4755788 L9.91496465,11.9713551 C9.91496465,11.9713551 10.0233989,11.8469341 10.1470838,12.0448714 L10.9699854,13.0120194 C10.9699854,13.0120194 11.1256927,13.1575677 11.229747,13.1815905 L11.3148823,13.2012455 C11.3148823,13.2012455 11.4735095,13.2478312 11.5237269,13.1597881 L13.9698873,8.17476466 L14.1314588,7.86333796 C14.1314588,7.86333796 14.2064229,7.71126239 13.9888549,7.66103286 Z" id="形状结合" fill="url(#linearGradient-1)"></path>
            </g>
        </g>
    </g>
</svg>