<?xml version="1.0" encoding="UTF-8"?>
<svg width="14px" height="14px" viewBox="0 0 14 14" version="1.1" xmlns="http://www.w3.org/2000/svg" xmlns:xlink="http://www.w3.org/1999/xlink">
    <title>goujian</title>
    <defs>
        <rect id="path-1" x="0" y="0" width="14" height="14"></rect>
    </defs>
    <g id="页面-1" stroke="none" stroke-width="1" fill="none" fill-rule="evenodd">
        <g id="修改记录-方案二" transform="translate(-1241.000000, -420.000000)">
            <g id="编组-5" transform="translate(740.000000, 329.000000)">
                <g id="goujian" transform="translate(501.000000, 91.000000)">
                    <mask id="mask-2" fill="white">
                        <use xlink:href="#path-1"></use>
                    </mask>
                    <use id="矩形" fill-opacity="0.01" fill="#FFFFFF" xlink:href="#path-1"></use>
                    <path d="M4.26031645,9.88675851 C3.86590728,9.88675851 3.69691754,9.34219217 3.69691754,9.34219217 C3.65937485,9.17320244 3.4903579,9.09806263 3.32136816,9.13560531 C3.15235121,9.17320243 3.077225,9.34219216 3.11476769,9.51120913 C3.2274502,9.88675851 3.58423504,10.5064919 4.26033007,10.5064919 C4.84247991,10.5064919 5.14294391,9.98067646 5.23683465,9.6614071 C5.49974235,8.57226083 5.78145541,7.46430919 6.04432229,6.37508127 L6.9457415,6.37508127 C7.11473124,6.37508127 7.24619189,6.24360702 7.24619189,6.07460367 C7.24619189,5.90560032 7.11473124,5.77412606 6.9457415,5.77412607 L6.19458831,5.77412607 C6.28842462,5.45491113 6.34478629,5.22957334 6.36357804,5.15444713 L6.38241063,5.06056999 C6.47627416,4.74131423 6.70158474,3.99014744 7.03959143,3.99014744 C7.35884718,3.99014744 7.41522245,4.47842015 7.41522245,4.49715748 C7.41522245,4.66617443 7.56540683,4.79763509 7.73449181,4.76009238 C7.90345434,4.76009238 8.03487417,4.60983997 8.01617766,4.44082302 C7.97855332,4.06528725 7.75318831,3.37040047 7.03957782,3.37040047 C6.25090915,3.37040047 5.95041794,4.40329394 5.80020635,4.89151222 L5.78144181,4.96663843 C5.74380386,5.07930732 5.6687457,5.37977132 5.57482773,5.77412607 L4.50445961,5.77412607 C4.33538823,5.77412607 4.2039684,5.90560033 4.2039684,6.07460367 C4.2039684,6.243607 4.33538823,6.37508127 4.50445961,6.37508127 L5.42460253,6.37508127 C5.10536039,7.63329892 4.69220028,9.30462226 4.65465759,9.49241736 C4.63586584,9.5487246 4.52319694,9.8867585 4.26031645,9.88675851 Z M7.09591227,9.71774155 C7.22737292,9.71774155 7.32131809,9.64266978 7.41520885,9.52996006 L7.92221887,8.85391946 L8.42926973,9.52996006 C8.52314687,9.64266977 8.61710565,9.71774155 8.76729003,9.71774155 C8.95511235,9.71774155 9.10529672,9.58630812 9.10529672,9.39854022 C9.10529672,9.30460866 9.06776763,9.21073152 8.99265503,9.11681356 L8.35418435,8.38446573 L8.97383606,7.65204986 C9.0301569,7.57697809 9.06776763,7.50183828 9.06776763,7.40796114 C9.06776763,7.22013882 8.917488,7.08867816 8.72977456,7.08867816 C8.5983003,7.08867816 8.50434151,7.16380437 8.41049158,7.27650048 L7.94102424,7.89617941 L7.4715569,7.27650048 C7.37763893,7.16380437 7.28369375,7.08867816 7.13353661,7.08867816 C6.9457279,7.08867816 6.79552992,7.22013882 6.79552991,7.42671207 C6.79552991,7.52061643 6.83303178,7.61449357 6.90814437,7.70835709 L7.49029422,8.38446573 L6.85185075,9.15441068 C6.79552991,9.22952327 6.75787836,9.30460866 6.75787836,9.39854022 C6.75787836,9.58630811 6.90814437,9.71774155 7.09591227,9.71774155 Z" id="形状" stroke="#0840F8" stroke-width="0.2" fill="#0840F8" fill-rule="nonzero" mask="url(#mask-2)"></path>
                    <path d="M11,1 C11.5522847,1 12,1.44771525 12,2 L12,6.5 C12,6.77614237 11.7761424,7 11.5,7 C11.2238576,7 11,6.77614237 11,6.5 L11,2 L11,2 L6.4188081,2 L2,2 L2,6.41747212 L2,12 L7.5,12 C7.77614237,12 8,12.2238576 8,12.5 C8,12.7761424 7.77614237,13 7.5,13 L2,13 L2,13 C1.44771525,13 1,12.5522847 1,12 L1,2 C1,1.44771525 1.44771525,1 2,1 L11,1 L11,1 Z" id="路径" fill="#0840F8" fill-rule="nonzero" mask="url(#mask-2)"></path>
                    <path d="M11.5,8 C11.7761424,8 12,8.22385763 12,8.5 L12,10 L13.5,10 C13.7761424,10 14,10.2238576 14,10.5 C14,10.7761424 13.7761424,11 13.5,11 L12,11 L12,12.5 C12,12.7761424 11.7761424,13 11.5,13 C11.2238576,13 11,12.7761424 11,12.5 L11,11 L9.5,11 C9.22385763,11 9,10.7761424 9,10.5 C9,10.2238576 9.22385763,10 9.5,10 L11,10 L11,8.5 C11,8.22385763 11.2238576,8 11.5,8 Z" id="矩形-2" fill="#0840F8" mask="url(#mask-2)"></path>
                </g>
            </g>
        </g>
    </g>
</svg>