<?xml version="1.0" encoding="UTF-8"?>
<svg width="20px" height="20px" viewBox="0 0 20 20" version="1.1" xmlns="http://www.w3.org/2000/svg" xmlns:xlink="http://www.w3.org/1999/xlink">
    <title>relation</title>
    <defs>
        <rect id="path-1" x="0" y="0" width="20" height="20"></rect>
    </defs>
    <g id="页面-1" stroke="none" stroke-width="1" fill="none" fill-rule="evenodd">
        <g id="icon" transform="translate(-109.000000, -724.000000)">
            <g id="relation" transform="translate(109.000000, 724.000000)">
                <mask id="mask-2" fill="white">
                    <use xlink:href="#path-1"></use>
                </mask>
                <use id="矩形备份-18" fill-opacity="0.01" fill="#FFFFFF" xlink:href="#path-1"></use>
                <path d="M17,2 C17.5522847,2 18,2.44771525 18,3 L18,9.5 C18,9.77614237 17.7761424,10 17.5,10 C17.2238576,10 17,9.77614237 17,9.5 L17,3 L3,3 L3,17 L7.5,17 C7.77614237,17 8,17.2238576 8,17.5 C8,17.7761424 7.77614237,18 7.5,18 L3,18 C2.44771525,18 2,17.5522847 2,17 L2,3 C2,2.44771525 2.44771525,2 3,2 L17,2 Z M12.5,12 C12.7761424,12 13,12.2238576 13,12.5 C13,12.7761424 12.7761424,13 12.5,13 L12,13 L12,16 L17,16 L17,13 L16.5,13 C16.2238576,13 16,12.7761424 16,12.5 C16,12.2238576 16.2238576,12 16.5,12 L17,12 C17.5522847,12 18,12.4477153 18,13 L18,16 C18,16.5522847 17.5522847,17 17,17 L12,17 C11.4477153,17 11,16.5522847 11,16 L11,13 C11,12.4477153 11.4477153,12 12,12 L12.5,12 Z M14,10 C14.5522847,10 15,10.4477153 15,11 L15,14 C15,14.5522847 14.5522847,15 14,15 L13.5,15 C13.2238576,15 13,14.7761424 13,14.5 C13,14.2238576 13.2238576,14 13.5,14 L14,14 L14,11 L9,11 L9,14 L9.5,14 C9.77614237,14 10,14.2238576 10,14.5 C10,14.7761424 9.77614237,15 9.5,15 L9,15 C8.44771525,15 8,14.5522847 8,14 L8,11 C8,10.4477153 8.44771525,10 9,10 L14,10 Z M12.5,7 C12.7761424,7 13,7.22385763 13,7.5 C13,7.77614237 12.7761424,8 12.5,8 L5.5,8 C5.22385763,8 5,7.77614237 5,7.5 C5,7.22385763 5.22385763,7 5.5,7 L12.5,7 Z M14.5,5 C14.7761424,5 15,5.22385763 15,5.5 C15,5.77614237 14.7761424,6 14.5,6 L5.5,6 C5.22385763,6 5,5.77614237 5,5.5 C5,5.22385763 5.22385763,5 5.5,5 L14.5,5 Z" id="路径-2" fill="#0840F8" fill-rule="nonzero" mask="url(#mask-2)"></path>
            </g>
        </g>
    </g>
</svg>