<?xml version="1.0" encoding="UTF-8"?>
<svg width="14px" height="14px" viewBox="0 0 14 14" version="1.1" xmlns="http://www.w3.org/2000/svg" xmlns:xlink="http://www.w3.org/1999/xlink">
    <title>LOV</title>
    <defs>
        <rect id="path-1" x="0" y="0" width="14" height="14"></rect>
    </defs>
    <g id="页面-1" stroke="none" stroke-width="1" fill="none" fill-rule="evenodd">
        <g id="字段属性-公式-1" transform="translate(-605.000000, -429.000000)">
            <g id="LOV" transform="translate(605.000000, 429.000000)">
                <mask id="mask-2" fill="white">
                    <use xlink:href="#path-1"></use>
                </mask>
                <use id="矩形" fill-opacity="0.01" fill="#FFFFFF" xlink:href="#path-1"></use>
                <g id="lov@1x" mask="url(#mask-2)" fill="#7C859B" fill-rule="nonzero">
                    <g transform="translate(1.000000, 1.000000)" id="形状结合">
                        <path d="M4.86207493,11.2291666 C5.1036995,11.2291666 5.29957493,11.4530243 5.29957493,11.7291666 C5.29957493,12.005309 5.1036995,12.2291666 4.86207493,12.2291666 L4.86207493,12.2291666 L0.4375,12.2291666 C0.19587542,12.2291666 0,12.005309 0,11.7291666 C0,11.4530243 0.19587542,11.2291666 0.4375,11.2291666 L0.4375,11.2291666 L4.86207493,11.2291666 Z M7.85257813,3.828125 C9.8384301,3.828125 11.4482813,5.43797612 11.4482813,7.42382812 C11.4482813,8.30256067 11.1330673,9.10767103 10.609543,9.73225583 L12.0410301,11.3972453 C12.1986366,11.5803918 12.1779323,11.8566267 11.9947859,12.0142332 C11.8116394,12.1718397 11.5354046,12.1511354 11.3777981,11.967989 L11.3777981,11.967989 L9.9688982,10.3310736 C9.3751364,10.7640425 8.64369354,11.0195312 7.85257813,11.0195312 C5.86672612,11.0195312 4.256875,9.40968013 4.256875,7.42382812 C4.256875,5.43797612 5.86672612,3.828125 7.85257813,3.828125 Z M7.85257813,4.703125 C6.34997528,4.703125 5.131875,5.92122528 5.131875,7.42382812 C5.131875,8.92643097 6.34997528,10.1445312 7.85257813,10.1445312 C9.355181,10.1445312 10.5732813,8.92643097 10.5732813,7.42382812 C10.5732813,5.92122528 9.355181,4.703125 7.85257813,4.703125 Z M2.52610065,7.99652777 C2.76772523,7.99652777 2.96360065,8.2203854 2.96360065,8.49652777 C2.96360065,8.77267015 2.76772523,8.99652777 2.52610065,8.99652777 L2.52610065,8.99652777 L0.4375,8.99652777 C0.19587542,8.99652777 0,8.77267015 0,8.49652777 C0,8.2203854 0.19587542,7.99652777 0.4375,7.99652777 L0.4375,7.99652777 L2.52610065,7.99652777 Z M2.52610065,4.76388889 C2.76772523,4.76388889 2.96360065,4.98774651 2.96360065,5.26388889 C2.96360065,5.54003126 2.76772523,5.76388889 2.52610065,5.76388889 L2.52610065,5.76388889 L0.4375,5.76388889 C0.19587542,5.76388889 0,5.54003126 0,5.26388889 C0,4.98774651 0.19587542,4.76388889 0.4375,4.76388889 L0.4375,4.76388889 L2.52610065,4.76388889 Z M11.6666667,-1.42108547e-14 C11.9082912,-1.42108547e-14 12.1041667,0.195875423 12.1041667,0.437500003 L12.1041667,2.47916666 C12.1041667,2.72079124 11.9082912,2.91666666 11.6666667,2.91666666 L0.4375,2.91666666 C0.19587542,2.91666666 0,2.72079124 0,2.47916666 L0,0.437500003 C0,0.195875423 0.19587542,-1.42108547e-14 0.4375,-1.42108547e-14 L11.6666667,-1.42108547e-14 Z M11.229,1 L0.875,1 L0.875,2.04166666 L11.2291667,2.04166666 L11.229,1 Z"></path>
                    </g>
                </g>
            </g>
        </g>
    </g>
</svg>
