<?xml version="1.0" encoding="UTF-8"?>
<svg width="14px" height="14px" viewBox="0 0 14 14" version="1.1" xmlns="http://www.w3.org/2000/svg" xmlns:xlink="http://www.w3.org/1999/xlink">
    <title>guanlian@v4.0</title>
    <g id="事件" stroke="none" stroke-width="1" fill="none" fill-rule="evenodd">
        <g id="ico补充" transform="translate(-1358.000000, -147.000000)" fill-rule="nonzero">
            <g id="guanlian" transform="translate(1358.000000, 147.000000)">
                <rect id="矩形" fill-opacity="0.01" fill="#FFFFFF" x="0" y="0" width="14" height="14"></rect>
                <path d="M7.5,4 C7.77614237,4 8,4.22385763 8,4.5 C8,4.77614237 7.77614237,5 7.5,5 L5,5 L5,12 L12,12 L12,5 L11.5,5 C11.2238576,5 11,4.77614237 11,4.5 C11,4.22385763 11.2238576,4 11.5,4 L12,4 C12.5522847,4 13,4.44771525 13,5 L13,12 C13,12.5522847 12.5522847,13 12,13 L5,13 C4.44771525,13 4,12.5522847 4,12 L4,5 C4,4.44771525 4.44771525,4 5,4 L7.5,4 Z M9,1 C9.55228475,1 10,1.44771525 10,2 L10,9 C10,9.55228475 9.55228475,10 9,10 L6.5,10 C6.22385763,10 6,9.77614237 6,9.5 C6,9.22385763 6.22385763,9 6.5,9 L9,9 L9,2 L2,2 L2,9 L2.5,9 C2.77614237,9 3,9.22385763 3,9.5 C3,9.77614237 2.77614237,10 2.5,10 L2,10 C1.44771525,10 1,9.55228475 1,9 L1,2 C1,1.44771525 1.44771525,1 2,1 L9,1 Z" id="路径-2" fill="#5A6677"></path>
            </g>
        </g>
    </g>
</svg>