<?xml version="1.0" standalone="no"?><!DOCTYPE svg PUBLIC "-//W3C//DTD SVG 1.1//EN" "http://www.w3.org/Graphics/SVG/1.1/DTD/svg11.dtd"><svg t="1602315284068" class="icon" viewBox="0 0 1024 1024" version="1.1" xmlns="http://www.w3.org/2000/svg" p-id="2398" width="16" height="16" xmlns:xlink="http://www.w3.org/1999/xlink"><defs><style type="text/css"></style></defs><path d="M663.9 284.7c-5.2 0-9.4-4.2-9.4-9.4v-92.1c0-5.2 4.2-9.4 9.4-9.4s9.4 4.2 9.4 9.4v92.1c0 5.2-4.2 9.4-9.4 9.4zM588.4 825.3H437.5c-5.2 0-9.4-4.2-9.4-9.4s4.2-9.4 9.4-9.4h150.9c5.2 0 9.4 4.2 9.4 9.4s-4.1 9.4-9.4 9.4zM588.4 742.8H437.5c-5.2 0-9.4-4.2-9.4-9.4s4.2-9.4 9.4-9.4h150.9c5.2 0 9.4 4.2 9.4 9.4s-4.1 9.4-9.4 9.4z" fill="#FF7878" p-id="2399"></path><path d="M626.2 664.2c20.8 0 37.7 16.9 37.7 37.7v188.6H362.1V701.9c0-20.8 16.9-37.7 37.7-37.7h226.4m0-37.7H399.8c-41.7 0-75.5 33.8-75.5 75.5v226.4h377.3V701.9c0-41.6-33.7-75.4-75.4-75.4zM739.4 136v150.9c0 20.8-16.9 37.7-37.7 37.7H324.4c-20.8 0-37.7-16.9-37.7-37.7V136h452.7m37.7-37.7H248.9v188.6c0 41.7 33.8 75.5 75.5 75.5h377.3c41.7 0 75.5-33.8 75.5-75.5V98.3h-0.1z" fill="#FF7878" p-id="2400"></path><path d="M852.5 136c20.8 0 37.7 16.9 37.7 37.7v679.1c0 20.8-16.9 37.7-37.7 37.7h-679c-20.8 0-37.7-16.9-37.7-37.7v-679c0-20.8 16.9-37.7 37.7-37.7h679m0-37.8h-679c-41.7 0-75.5 33.8-75.5 75.5v679.1c0 41.7 33.8 75.5 75.5 75.5h679.1c41.7 0 75.5-33.8 75.5-75.5V173.8c-0.1-41.7-33.9-75.5-75.6-75.5z" fill="#FF7878" p-id="2401"></path></svg>