<?xml version="1.0" encoding="UTF-8"?>
<svg width="20px" height="20px" viewBox="0 0 20 20" version="1.1" xmlns="http://www.w3.org/2000/svg" xmlns:xlink="http://www.w3.org/1999/xlink">
    <title>quote</title>
    <defs>
        <rect id="path-1" x="0" y="0" width="20" height="20"></rect>
    </defs>
    <g id="页面-1" stroke="none" stroke-width="1" fill="none" fill-rule="evenodd">
        <g id="icon" transform="translate(-269.000000, -724.000000)">
            <g id="quote" transform="translate(269.000000, 724.000000)">
                <mask id="mask-2" fill="white">
                    <use xlink:href="#path-1"></use>
                </mask>
                <use id="矩形备份-39" fill-opacity="0.01" fill="#FFFFFF" xlink:href="#path-1"></use>
                <path d="M11.7854917,10.5 C12.2983275,10.5 12.7209988,10.8860402 12.7787639,11.3833789 L12.7854917,11.5 L12.7854917,15.4035257 L11.1662712,18.6419667 L7.90549134,18.6419667 L9.333,15.785 L8.5,15.7854917 C8.02661307,15.7854917 7.63005271,15.456558 7.52641071,15.0147825 L7.50672773,14.9021128 L7.5,14.7854917 L7.5,11.5 C7.5,10.9871642 7.88604019,10.5644928 8.38337887,10.5067277 L8.5,10.5 L11.7854917,10.5 Z M17.5,10.5 C18.0128358,10.5 18.4355072,10.8860402 18.4932723,11.3833789 L18.5,11.5 L18.5,15.4035832 L16.8799249,18.6419667 L13.6190231,18.6419667 L15.048,15.785 L14.2145083,15.7854917 C13.7411214,15.7854917 13.3445611,15.456558 13.2409191,15.0147825 L13.2212361,14.9021128 L13.2145083,14.7854917 L13.2145083,11.5 C13.2145083,10.9871642 13.6005485,10.5644928 14.0978872,10.5067277 L14.2145083,10.5 L17.5,10.5 Z M17,2 C17.5522847,2 18,2.44771525 18,3 L18,8.5 C18,8.77614237 17.7761424,9 17.5,9 C17.2238576,9 17,8.77614237 17,8.5 L17,3 L3,3 L3,17 L6.5,17 C6.77614237,17 7,17.2238576 7,17.5 C7,17.7761424 6.77614237,18 6.5,18 L3,18 C2.44771525,18 2,17.5522847 2,17 L2,3 C2,2.44771525 2.44771525,2 3,2 L17,2 Z M11.7854917,11.5 L8.5,11.5 L8.5,14.7854917 L10.9517628,14.7854917 L9.523,17.641 L10.548,17.641 L11.785,15.167 L11.7854917,11.5 Z M17.5,11.5 L14.2145083,11.5 L14.2145083,14.7854917 L16.6664686,14.7854917 L15.237,17.641 L16.262,17.641 L17.5,15.165 L17.5,11.5 Z M12.5,7 C12.7761424,7 13,7.22385763 13,7.5 C13,7.77614237 12.7761424,8 12.5,8 L5.5,8 C5.22385763,8 5,7.77614237 5,7.5 C5,7.22385763 5.22385763,7 5.5,7 L12.5,7 Z M14.5,5 C14.7761424,5 15,5.22385763 15,5.5 C15,5.77614237 14.7761424,6 14.5,6 L5.5,6 C5.22385763,6 5,5.77614237 5,5.5 C5,5.22385763 5.22385763,5 5.5,5 L14.5,5 Z" id="路径-3" fill="#0840F8" fill-rule="nonzero" mask="url(#mask-2)"></path>
            </g>
        </g>
    </g>
</svg>