<?xml version="1.0" encoding="UTF-8"?>
<svg width="12px" height="14px" viewBox="0 0 12 14" version="1.1" xmlns="http://www.w3.org/2000/svg" xmlns:xlink="http://www.w3.org/1999/xlink">
    <title>retract</title>
    <defs>
        <path d="M12.5,11.5 C12.7761424,11.5 13,11.7238576 13,12 L13,13 C13,13.2761424 12.7761424,13.5 12.5,13.5 L1.5,13.5 C1.22385763,13.5 1,13.2761424 1,13 L1,12 C1,11.7238576 1.22385763,11.5 1.5,11.5 L12.5,11.5 Z M4.95343775,4.88460945 C4.98385245,4.93262738 5,4.98829774 5,5.04513765 L5,8.96257615 C5,9.12826158 4.86568542,9.26257615 4.7,9.26257615 C4.64439247,9.26257615 4.58987924,9.24712073 4.54254626,9.21793535 L1.40859546,7.28555037 C1.26756447,7.19859107 1.2237307,7.01376842 1.31069,6.87273743 C1.33460189,6.83395702 1.36703239,6.80113221 1.40552099,6.77675342 L4.53947179,4.7916999 C4.6794416,4.70304262 4.86478047,4.74463964 4.95343775,4.88460945 Z M12.5,6 C12.7761424,6 13,6.22385763 13,6.5 L13,7.5 C13,7.77614237 12.7761424,8 12.5,8 L7.5,8 C7.22385763,8 7,7.77614237 7,7.5 L7,6.5 C7,6.22385763 7.22385763,6 7.5,6 L12.5,6 Z M12.5,0.5 C12.7761424,0.5 13,0.723857625 13,1 L13,2 C13,2.27614237 12.7761424,2.5 12.5,2.5 L1.5,2.5 C1.22385763,2.5 1,2.27614237 1,2 L1,1 C1,0.723857625 1.22385763,0.5 1.5,0.5 L12.5,0.5 Z" id="path-1"></path>
    </defs>
    <g id="封面" stroke="none" stroke-width="1" fill="none" fill-rule="evenodd">
        <g id="画板备份" transform="translate(-665.000000, -338.000000)">
            <g id="编组-10" transform="translate(450.000000, 282.000000)">
                <g id="编组-17备份-6" transform="translate(0.000000, 41.000000)">
                    <g id="编组" transform="translate(214.000000, 15.000000)">
                        <mask id="mask-2" fill="white">
                            <use xlink:href="#path-1"></use>
                        </mask>
                        <use id="矩形-2" fill="#5A6677" xlink:href="#path-1"></use>
                        <g mask="url(#mask-2)">
                            <g transform="translate(-33.000000, -33.000000)">
                                <rect id="主色" fill="#5A6677" x="0" y="0" width="80" height="80"></rect>
                            </g>
                        </g>
                    </g>
                </g>
            </g>
        </g>
    </g>
</svg>