<?xml version="1.0" encoding="UTF-8"?>
<svg width="1024px" height="1024px" viewBox="0 0 1024 1024" version="1.1" xmlns="http://www.w3.org/2000/svg" xmlns:xlink="http://www.w3.org/1999/xlink">
    <title>icon/反向关联</title>
    <g id="icon/反向关联" stroke="none" stroke-width="1" fill="none" fill-rule="evenodd" fill-opacity="0.45">
        <path d="M622,727.419264 C628.525457,727.419264 633.834393,732.627809 633.9962,739.114289 L634,739.419264 L633.999,792.999264 L960,793 C960,828.346224 931.346224,857 896,857 L633.999,856.999264 L634,910.580736 C634,913.64546 632.827634,916.589309 630.731257,918.812703 L630.485281,919.066017 C625.877095,923.674204 618.453467,923.751007 613.751433,919.296427 L613.514719,919.066017 L527.933983,833.485281 C523.325796,828.877095 523.248993,821.453467 527.703573,816.751433 L527.933983,816.514719 L613.514719,730.933983 C615.765155,728.683546 618.817402,727.419264 622,727.419264 Z M700,113 C717.673112,113 732,127.326888 732,145 L732,292 L880,292 C897.673112,292 912,306.326888 912,324 L912,476.939 L903.911688,468.850722 L903.438722,468.382103 C890.14137,455.328121 872.299008,447.937573 853.665802,447.765484 L853,447.76241 L851.809348,447.772056 L850.647035,447.800131 C812.748985,449.016928 782.24817,479.521486 781.037349,517.421046 L781.009646,518.571758 L781.005,518.999 L712,518.999 L712,344 C712,326.503619 697.958217,312.286872 680.529179,312.004287 L680,312 L344,312 C326.503619,312 312.286872,326.041783 312.004287,343.470821 L312,344 L312,680 C312,697.496381 326.041783,711.713128 343.470821,711.995713 L344,712 L541.937,712 L479.460986,774.478048 L478.498954,775.473803 L478.121979,775.877721 L477.336743,776.732548 C451.949291,804.81352 452.651789,847.858487 479.043122,875.091322 L479.850722,875.911688 L515.939,912 L324,912 C306.326888,912 292,897.673112 292,880 L292,733 L144,733 C126.326888,733 112,718.673112 112,701 L112,145 C112,127.326888 126.326888,113 144,113 L700,113 Z M857,517.419264 C860.182598,517.419264 863.234845,518.683546 865.485281,520.933983 L951.066017,606.514719 C955.752309,611.20101 955.752309,618.79899 951.066017,623.485281 L865.485281,709.066017 C860.79899,713.752309 853.20101,713.752309 848.514719,709.066017 C846.264282,706.815581 845,703.763334 845,700.580736 L844.999,646.999264 L520,647 C520,611.653776 548.653776,583 584,583 L844.999,582.999264 L845,529.419264 C845,522.791847 850.372583,517.419264 857,517.419264 Z" id="形状" fill="#000000" fill-rule="nonzero"></path>
    </g>
</svg>