<?xml version="1.0" encoding="UTF-8"?>
<svg width="20px" height="20px" viewBox="0 0 20 20" version="1.1" xmlns="http://www.w3.org/2000/svg" xmlns:xlink="http://www.w3.org/1999/xlink">
    <!-- Generator: Sketch 58 (84663) - https://sketch.com -->
    <title>search@v4.0</title>
    <desc>Created with Sketch.</desc>
    <g id="权限" stroke="none" stroke-width="1" fill="none" fill-rule="evenodd">
        <g id="首页-分页" transform="translate(-518.000000, -169.000000)">
            <g id="search" transform="translate(518.000000, 169.000000)">
                <rect id="矩形" fill="#D8D8D8" opacity="0.01" x="0" y="0" width="20" height="20"></rect>
                <g id="编组-13" fill="#AAADBA" fill-rule="nonzero">
                    <path d="M8.33333333,1.49213975e-13 C12.9357062,1.49213975e-13 16.6666667,3.73096042 16.6666667,8.33333333 C16.6666667,10.334365 15.9613811,12.1706685 14.785835,13.6072188 L18.9399351,17.7614237 C19.265372,18.0868607 19.265372,18.6144981 18.9399351,18.9399351 C18.6144981,19.265372 18.0868607,19.265372 17.7614237,18.9399351 L13.6072188,14.785835 C12.1706685,15.9613811 10.334365,16.6666667 8.33333333,16.6666667 C3.73096042,16.6666667 7.10542736e-15,12.9357062 7.10542736e-15,8.33333333 C7.10542736e-15,3.73096042 3.73096042,1.49213975e-13 8.33333333,1.49213975e-13 Z M8.33333333,1.66666667 C4.651435,1.66666667 1.66666667,4.651435 1.66666667,8.33333333 C1.66666667,12.0152317 4.651435,15 8.33333333,15 C12.0152317,15 15,12.0152317 15,8.33333333 C15,4.651435 12.0152317,1.66666667 8.33333333,1.66666667 Z" id="形状结合"></path>
                </g>
            </g>
        </g>
    </g>
</svg>