<?xml version="1.0" encoding="UTF-8"?>
<svg width="12px" height="12px" viewBox="0 0 12 12" version="1.1" xmlns="http://www.w3.org/2000/svg" xmlns:xlink="http://www.w3.org/1999/xlink">
    <title>Sharing within tenants</title>
    <defs>
        <rect id="path-1" x="0" y="0" width="12" height="12"></rect>
    </defs>
    <g id="M3" stroke="none" stroke-width="1" fill="none" fill-rule="evenodd">
        <g id="画板" transform="translate(-31.000000, -116.000000)">
            <g id="Sharing-within-tenants" transform="translate(31.000000, 116.000000)">
                <mask id="mask-2" fill="white">
                    <use xlink:href="#path-1"></use>
                </mask>
                <use id="矩形" fill-opacity="0.01" fill="#FFFFFF" xlink:href="#path-1"></use>
                <path d="M4.38459111,8 C4.67524287,8 5.03231723,8.0256 5.40842992,8.0584 L6.32226952,8.1416 C6.6983822,8.1744 7.05545656,8.2 7.34610833,8.2 L8.08648763,8.2 C8.37840861,8.2 8.61532999,8.424 8.61532999,8.7 L8.61532999,8.728 C8.61530628,9.00261304 8.41024044,9.23902161 8.12541043,9.2928 L8.02175733,9.3124 L7.63464472,9.3692 L7.50645333,9.3856 L7.40660789,9.3964 C7.39449625,9.39751576 7.3823666,9.39844922 7.37022354,9.3992 L7.34610833,9.4 L6.07477129,9.572 C5.95476694,9.58828933 5.86559003,9.68537739 5.86534972,9.8 C5.86534972,9.9128 5.95842597,10.0056 6.07688666,10.012 L6.48303759,10.0324 L6.84434269,10.0452 L7.06011038,10.05 L7.34695447,10.0508 L7.51364559,10.0468 L7.66002915,10.04 L7.72602868,10.0356 L7.84279707,10.0236 C7.87833528,10.0196 7.91048889,10.0144 7.93968099,10.0088 L7.98071916,10 C8.12244891,9.9664 8.25275567,9.9392 8.37417787,9.916 L8.60433007,9.8728 L8.71179084,9.8532 C8.82209327,9.8444971 8.93138012,9.82669603 9.03840388,9.8 C9.48982372,9.6932 9.95224348,9.4728 10.3782789,9.26 L10.6905074,9.104 C10.9435056,8.9776 11.1774655,8.8668 11.380964,8.8 C11.9719982,8.6064 12.1818429,9.3496 11.8256147,9.5788 L11.7879611,9.6 C11.7282206,9.63077576 11.6701837,9.6644197 11.6140777,9.7008 L11.4600788,9.8012 L11.2823878,9.9224 L10.539047,10.4388 L10.3127024,10.5928 L10.0888963,10.7408 C9.75805256,10.9556 9.45343936,11.1332 9.24994082,11.2 L8.92882774,11.3028 L8.50152311,11.436 L8.01202663,11.5828 L7.75818229,11.6568 L7.38206961,11.7628 L7.14303286,11.8268 L6.9188037,11.884 L6.71657438,11.932 C6.52619113,11.9744 6.37642297,12 6.29223127,12 L6.19957809,11.9976 L6.07688666,11.9908 L5.92627236,11.9788 L5.75154284,11.9628 L5.55523656,11.9416 L5.34073809,11.9156 L4.99043292,11.868 L4.74208854,11.8308 L4.48612884,11.7884 L4.22509225,11.7416 C4.04924179,11.7087051 3.87405847,11.6726988 3.69963448,11.6336 L3.44155941,11.5728 C3.27575679,11.5320258 3.11125166,11.486673 2.94825526,11.4368 L2.83190994,11.4 C2.26033711,11.2128 1.78860973,11.124 1.41757393,11.134 C1.19338933,11.1400515 1.00645003,10.9731565 1,10.7612 L1,8.784 C1,8.572 1.18192177,8.4 1.40615093,8.4 L1.81399416,8.4 C2.02976184,8.4 2.31195213,8.35 2.62248836,8.2856 L3.10521567,8.1824 L3.4369056,8.1144 C3.76859553,8.05 4.09690086,8 4.38459111,8 Z M4.33333333,1.66666667 C5.43790283,1.66666667 6.33333333,2.56209717 6.33333333,3.66666667 C6.33333333,4.30416633 6.03506599,4.87200192 5.57046914,5.2382356 C6.45056579,5.58915274 7.14582092,6.30560014 7.46914662,7.20025113 L7.34610833,7.2 C7.23492403,7.2 7.10636426,7.19556143 6.95276037,7.18651478 L6.95276037,7.18651478 L6.60988824,7.16222713 L5.49909933,7.06251895 C5.01873762,7.02062034 4.67975066,7 4.38459111,7 C4.04929782,7 3.69449242,7.0457135 3.24630762,7.13273182 L3.24630762,7.13273182 L2.41342717,7.30769744 C2.10759012,7.37110372 1.91588254,7.4 1.81399416,7.4 L1.81399416,7.4 L1.40615093,7.4 C1.31020728,7.4 1.21619486,7.40956024 1.12514049,7.42781775 C1.40608645,6.42794435 2.14234509,5.61867504 3.09596394,5.23721623 C2.63146899,4.87175118 2.33333333,4.30402558 2.33333333,3.66666667 C2.33333333,2.56209717 3.22876383,1.66666667 4.33333333,1.66666667 Z M7.66666667,-6.06625861e-13 C8.77123617,-6.06625861e-13 9.66666667,0.8954305 9.66666667,2 C9.66666667,2.64014823 9.3659158,3.21005234 8.89800319,3.57612318 C9.72492293,3.91217384 10.3829689,4.57899152 10.7268168,5.40533702 C10.731696,5.4170629 10.7365268,5.4288064 10.7413076,5.44056802 C10.8971771,5.82403111 11,6.22676396 11,6.66666667 L11,6.66666667 L8.14977127,6.66603953 C7.86140029,6.00515047 7.40754246,5.43128436 6.83374913,5.00022439 C7.04882031,4.59731495 7.16666667,4.14145598 7.16666667,3.66666667 C7.16666667,2.64419086 6.62505976,1.74821412 5.81308563,1.24997616 C6.10807349,0.517521844 6.82693323,-6.06625861e-13 7.66666667,-6.06625861e-13 Z" id="椭圆形备份-3" fill="#64C8D2" mask="url(#mask-2)"></path>
            </g>
        </g>
    </g>
</svg>