<?xml version="1.0" encoding="UTF-8"?>
<svg width="16px" height="16px" viewBox="0 0 16 16" version="1.1" xmlns="http://www.w3.org/2000/svg" xmlns:xlink="http://www.w3.org/1999/xlink">
    <title>tiaojian16</title>
    <defs>
        <linearGradient x1="50%" y1="0%" x2="50%" y2="100%" id="linearGradient-1">
            <stop stop-color="#1E8AFF" offset="0%"></stop>
            <stop stop-color="#0940F8" offset="100%"></stop>
        </linearGradient>
    </defs>
    <g id="页面-1" stroke="none" stroke-width="1" fill="none" fill-rule="evenodd">
        <g id="事务处理流配置页" transform="translate(-208.000000, -347.000000)">
            <g id="编组-2备份-15" transform="translate(196.000000, 94.000000)">
                <g id="tiaojian16" transform="translate(12.000000, 253.000000)">
                    <rect id="矩形" fill-opacity="0.01" fill="#FFFFFF" x="0" y="0" width="16" height="16"></rect>
                    <g id="编组" transform="translate(1.000000, 1.559017)" fill="url(#linearGradient-1)">
                        <path d="M10.5,7.085 L3.499,7.085 L3.5,9.41917279 L5.33333333,9.41917279 C5.60947571,9.41917279 5.83333333,9.64303042 5.83333333,9.91917279 L5.83333333,12.4191728 C5.83333333,12.6953152 5.60947571,12.9191728 5.33333333,12.9191728 L0.5,12.9191728 C0.223857625,12.9191728 3.38176876e-17,12.6953152 0,12.4191728 L0,9.91917279 C-3.38176876e-17,9.64303042 0.223857625,9.41917279 0.5,9.41917279 L2.33333333,9.41917279 L2.33333333,6.41917279 C2.33333333,6.14303042 2.55719096,5.91917279 2.83333333,5.91917279 L6.416,5.919 L6.416,4.649 L2.35777088,2.61986844 C2.25897518,2.57047059 2.21893031,2.45033599 2.26832816,2.35154029 C2.2876809,2.31283481 2.3190654,2.28145031 2.35777088,2.26209757 L6.7763932,0.0527864045 C6.91715695,-0.0175954682 7.08284305,-0.0175954682 7.2236068,0.0527864045 L11.6422291,2.26209757 C11.7410248,2.31149542 11.7810697,2.43163003 11.7316718,2.53042572 C11.7123191,2.56913121 11.6809346,2.6005157 11.6422291,2.61986844 L7.583,4.649 L7.583,5.919 L11.1666667,5.91917279 C11.442809,5.91917279 11.6666667,6.14303042 11.6666667,6.41917279 L11.6666667,9.41917279 L13.5,9.41917279 C13.7761424,9.41917279 14,9.64303042 14,9.91917279 L14,12.4191728 C14,12.6953152 13.7761424,12.9191728 13.5,12.9191728 L8.66666667,12.9191728 C8.39052429,12.9191728 8.16666667,12.6953152 8.16666667,12.4191728 L8.16666667,9.91917279 C8.16666667,9.64303042 8.39052429,9.41917279 8.66666667,9.41917279 L10.5,9.41917279 L10.5,7.085 Z" id="矩形-2"></path>
                    </g>
                </g>
            </g>
        </g>
    </g>
</svg>