<?xml version="1.0" encoding="UTF-8"?>
<svg width="16px" height="16px" viewBox="0 0 16 16" version="1.1" xmlns="http://www.w3.org/2000/svg" xmlns:xlink="http://www.w3.org/1999/xlink">
    <title>xiugai16</title>
    <defs>
        <linearGradient x1="50%" y1="0%" x2="50%" y2="100%" id="linearGradient-1">
            <stop stop-color="#78E0AC" offset="0%"></stop>
            <stop stop-color="#1ED288" offset="100%"></stop>
        </linearGradient>
    </defs>
    <g id="页面-1" stroke="none" stroke-width="1" fill="none" fill-rule="evenodd">
        <g id="事务处理流配置页" transform="translate(-208.000000, -247.000000)">
            <g id="编组-2备份-15" transform="translate(196.000000, 94.000000)">
                <g id="xiugai16" transform="translate(12.000000, 153.000000)">
                    <rect id="矩形" fill-opacity="0.01" fill="#FFFFFF" x="0" y="0" width="16" height="16"></rect>
                    <path d="M14.6673745,13.1254701 L14.7581907,13.1339526 C14.9376006,13.1647883 15.1004103,13.2777548 15.18783,13.4531698 C15.3335296,13.745528 15.2146392,14.1006441 14.922281,14.2463436 C14.2909629,14.5609671 13.573813,14.8315149 12.7702887,15.0587441 C12.5714141,15.1149839 12.3895779,15.1495456 12.2162618,15.1619124 L12.2162618,15.1619124 L12.0454703,15.1668618 C11.7644997,15.1627167 11.4993089,15.096441 11.2104622,14.9656434 L11.2104622,14.9656434 L11.034,14.879403 L10.8981564,14.8053023 L10.6883394,14.6867357 L10.5699947,14.6246586 C10.4241011,14.5520867 10.3202754,14.5181458 10.1921608,14.4969269 C10.1228803,14.4854524 10.0448113,14.4789267 9.95817787,14.4773574 L9.95817787,14.4773574 L9.82183246,14.4787215 C9.29855261,14.4973601 8.51958928,14.6660409 7.52222708,14.9860117 L7.52222708,14.9860117 L7.42851101,15.0079477 L7.3350064,15.0144088 C7.08730409,15.0117053 6.85819363,14.8523372 6.77836468,14.6035071 L6.77836468,14.6035071 L6.75642875,14.509791 C6.71422697,14.2281942 6.88093542,13.9494523 7.16086932,13.8596447 L7.16086932,13.8596447 L7.44808365,13.7696383 C8.76299615,13.3677714 9.72335434,13.2202542 10.3854463,13.3299124 C10.6268123,13.3698884 10.823419,13.4327736 11.0588783,13.5468342 L11.0588783,13.5468342 L11.2440641,13.6424166 L11.5892862,13.8350978 L11.7040337,13.8913943 C11.8495861,13.9572279 11.9688136,13.986455 12.1031524,13.9827648 L12.1031524,13.9827648 L12.2073872,13.9738828 C12.2796293,13.9639237 12.3582389,13.9459658 12.4483956,13.9204704 C13.1823845,13.7129052 13.8313327,13.4683584 14.3946562,13.1876207 C14.4823636,13.1439108 14.5757193,13.1240141 14.6673745,13.1254701 L14.6673745,13.1254701 Z M11.5,1 C11.7761424,1 12,1.22385763 12,1.5 L12.0002979,5.92097483 C11.6835697,5.96297734 11.3777375,6.10607732 11.1350137,6.35013203 L11.1350137,6.35013203 L7.66357878,9.84060214 L7.5554295,9.95977545 L7.45940267,10.0885911 L7.37614491,10.2259656 L7.35,10.28 L6.64727566,11.4662991 L6.58075851,11.5922252 L6.51718781,11.7558057 C6.36980996,12.1940778 6.39831888,12.6454491 6.57234446,13.0292667 C5.9188426,13.3890518 5.58971994,14.1719744 5.82616663,14.9089885 C5.83625728,14.9404414 5.84723436,14.9713631 5.85906144,15.0017349 L2.5,15 C2.22385763,15 2,14.7761424 2,14.5 L2,7 L2,7 L6.5,7 C7.32842712,7 8,6.32842712 8,5.5 L8,1 L11.5,1 Z M11.9131407,6.99725824 C12.107639,6.86172989 12.3771151,6.88027831 12.5511554,7.05336945 L12.5511554,7.05336945 L13.3542535,7.86405032 L13.4077572,7.92781807 C13.4550727,7.99485402 13.4837666,8.07090936 13.4933258,8.14891683 L13.4933258,8.14891683 L13.497301,8.17415696 C13.5090691,8.31535133 13.4610581,8.46057346 13.3533222,8.56875584 L13.3533222,8.56875584 L9.88165411,12.0548108 L9.80870707,12.1182083 C9.75786934,12.1564577 9.70290754,12.1866757 9.64555355,12.2088625 L9.64555355,12.2088625 L8.44163559,12.9115143 L8.34745117,12.9574519 C8.15403368,13.0340282 7.93388397,13.0188104 7.75107642,12.9117742 C7.63978566,12.846612 7.55376241,12.7548197 7.49639411,12.6491535 C7.39796991,12.4678668 7.38389072,12.2457426 7.47126299,12.0471997 L7.47126299,12.0471997 L7.5077211,11.9758416 L8.22680715,10.761548 L8.26519492,10.6849664 C8.29419185,10.6352388 8.32999897,10.5883902 8.37261628,10.5457729 L8.37261628,10.5457729 L11.8440512,7.05530281 Z M13.0011154,9.16322969 C13.1328043,9.08158869 13.307972,9.09791689 13.4222694,9.2122143 C13.5408001,9.33074494 13.5539701,9.51473825 13.4617796,9.64781615 L13.4617796,9.64781615 L13.4222694,9.6951064 L11.6976547,11.4197211 L11.6359166,11.4687057 C11.5042277,11.5503467 11.32906,11.5340185 11.2147626,11.4197211 C11.096232,11.3011904 11.0830619,11.1171971 11.1752524,10.9841192 L11.1752524,10.9841192 L11.2147626,10.936829 L12.9393773,9.2122143 Z M7,1 L7,5.5 C7,5.77614237 6.77614237,6 6.5,6 L2,6 L7,1 Z" id="矩形-2" fill="url(#linearGradient-1)"></path>
                </g>
            </g>
        </g>
    </g>
</svg>