<?xml version="1.0" encoding="UTF-8"?>
<svg width="16px" height="16px" viewBox="0 0 16 16" version="1.1" xmlns="http://www.w3.org/2000/svg" xmlns:xlink="http://www.w3.org/1999/xlink">
    <title>icon/反馈/注意</title>
    <defs>
        <path d="M9.9458271,1.28567365 C10.1235278,0.996605108 10.4914429,0.913065146 10.7675884,1.09908192 C10.937641,1.21363252 11.0404186,1.41080394 11.0404186,1.62248682 L11.0404186,1.62248682 L11.0398523,6.34893992 L14.4054141,6.34880641 C14.703942,6.34880641 14.9510852,6.57910643 14.9935532,6.87924232 L14.9935532,6.87924232 L15,6.97121769 C15,7.09423456 14.9651759,7.21449271 14.8999257,7.31680471 L14.8999257,7.31680471 L10.1765033,14.72311 C9.99417347,15.0090022 9.62496559,15.0860391 9.35185436,14.8951767 C9.1866263,14.7797079 9.08740576,14.5854853 9.08740576,14.3775229 L9.08740576,14.3775229 L9.08682694,10.1370789 L5.59458587,10.1364962 C5.29605795,10.1364962 5.04891479,9.90619622 5.00644684,9.60606034 L5.00644684,9.60606034 L5,9.51408496 C5,9.39463969 5.03283295,9.27771702 5.09458022,9.17727179 L5.09458022,9.17727179 Z M10.0486552,3.03539915 L6.32157066,9.09949579 L9.48379634,9.09914411 C9.78232426,9.09914411 10.0294674,9.32944413 10.0719354,9.62958001 L10.0719354,9.62958001 L10.0783822,9.72155539 L10.078024,13.0086861 L13.6628534,7.38652299 L10.644028,7.38615855 C10.3455001,7.38615855 10.098357,7.15585853 10.055889,6.85572264 L10.055889,6.85572264 L10.0494422,6.76374727 L10.0486552,3.03539915 Z M4.5,12 C4.77614237,12 5,12.2238576 5,12.5 C5,12.7761424 4.77614237,13 4.5,13 L1.5,13 C1.22385763,13 1,12.7761424 1,12.5 C1,12.2238576 1.22385763,12 1.5,12 L4.5,12 Z M3.5,7.5 C3.77614237,7.5 4,7.72385763 4,8 C4,8.27614237 3.77614237,8.5 3.5,8.5 L1.5,8.5 C1.22385763,8.5 1,8.27614237 1,8 C1,7.72385763 1.22385763,7.5 1.5,7.5 L3.5,7.5 Z M4.5,3 C4.77614237,3 5,3.22385763 5,3.5 C5,3.77614237 4.77614237,4 4.5,4 L1.5,4 C1.22385763,4 1,3.77614237 1,3.5 C1,3.22385763 1.22385763,3 1.5,3 L4.5,3 Z" id="path-1"></path>
    </defs>
    <g id="-----7.1-icon" stroke="none" stroke-width="1" fill="none" fill-rule="evenodd">
        <g id="1-ICON备份" transform="translate(-1122.000000, -5587.000000)">
            <g id="icon/反馈/注意" transform="translate(1122.000000, 5587.000000)">
                <rect id="矩形" fill-opacity="0.01" fill="#FFFFFF" x="0" y="0" width="16" height="16"></rect>
                <mask id="mask-2" fill="white">
                    <use xlink:href="#path-1"></use>
                </mask>
                <use id="形状结合" fill="#FF9696" xlink:href="#path-1"></use>
                <g id="编组" mask="url(#mask-2)">
                    <g transform="translate(-32.000000, -32.000000)" id="颜色/按钮色">
                        <rect id="主色" fill="#FF9696" x="0" y="0" width="80" height="80"></rect>
                    </g>
                </g>
            </g>
        </g>
    </g>
</svg>