<?xml version="1.0" encoding="UTF-8"?>
<svg width="16px" height="16px" viewBox="0 0 16 16" version="1.1" xmlns="http://www.w3.org/2000/svg" xmlns:xlink="http://www.w3.org/1999/xlink">
    <title>reorder-24px</title>
    <g id="UX规范-DEMO" stroke="none" stroke-width="1" fill="none" fill-rule="evenodd">
        <g id="面向单据工作台_单据视图" transform="translate(-1304.000000, -235.000000)">
            <g id="编组-19" transform="translate(225.000000, 125.000000)">
                <g id="编组-21" transform="translate(16.000000, 62.000000)">
                    <g id="编组-17" transform="translate(1059.000000, 44.000000)">
                        <g id="reorder-24px" transform="translate(4.000000, 4.000000)">
                            <polygon id="路径" points="0 0 16 0 16 16 0 16"></polygon>
                            <path d="M2,9.42857143 L14,9.42857143 L14,8.14285714 L2,8.14285714 L2,9.42857143 Z M2,12 L14,12 L14,10.7142857 L2,10.7142857 L2,12 Z M2,6.85714286 L14,6.85714286 L14,5.57142857 L2,5.57142857 L2,6.85714286 Z M2,3 L2,4.28571429 L14,4.28571429 L14,3 L2,3 Z" id="形状" fill="#000000" fill-rule="nonzero"></path>
                        </g>
                    </g>
                </g>
            </g>
        </g>
    </g>
</svg>