<?xml version="1.0" encoding="UTF-8"?>
<svg width="20px" height="20px" viewBox="0 0 20 20" version="1.1" xmlns="http://www.w3.org/2000/svg" xmlns:xlink="http://www.w3.org/1999/xlink">
    <title>文件类型-标准图-PDF文档</title>
    <g id="页面-1" stroke="none" stroke-width="1" fill="none" fill-rule="evenodd">
        <g id="文件类型-标准图-PDF文档" transform="translate(0.000000, -0.000000)">
            <rect id="矩形" x="0" y="0" width="20" height="20"></rect>
            <g id="编组-15" transform="translate(1.900000, 0.000000)" fill-rule="nonzero">
                <path d="M11.25,0 L16.25,5 L16.25,18.75 C16.25,19.440375 15.690375,20 15,20 L1.25,20 C0.559625,20 0,19.440375 0,18.75 L0,1.25 C0,0.559625 0.559625,0 1.25,0 L11.25,0 Z M7.649125,6.75275 C7.324125,6.727625 7.024125,6.878 6.874125,7.15375 C6.424375,7.9055 7.074125,9.38425 7.374125,9.98575 C7.024125,11.063375 6.599375,12.090875 6.049375,13.093375 C3.675,14.121 3.625,14.7475 3.625,14.973125 C3.625,15.24875 3.774875,15.5245 4.049875,15.64975 C4.149875,15.725 4.29975,15.75 4.42475,15.75 C5.049625,15.75 5.7745,15.04825 6.54925,13.669875 C7.524,13.26875 8.498875,12.943 9.523625,12.7175 C10.0485,13.168625 10.69825,13.41925 11.373125,13.469375 C11.798,13.469375 12.622875,13.469375 12.622875,12.61725 C12.647875,12.291375 12.472875,11.74 11.298125,11.715 C10.77325,11.715 10.2485,11.790125 9.7235,11.8905 C9.09778406,11.3141556 8.57387791,10.6362936 8.173875,9.8855 C8.598875,8.482 8.623875,7.529625 8.298875,7.0785 C8.148875,6.878 7.899,6.75275 7.649125,6.75275 Z M5.274625,14.296375 C5.074625,14.62225 4.79975,14.872875 4.449875,14.998125 L4.449875,14.998125 L4.374875,15.02325 C4.59975,14.697375 4.899625,14.44675 5.274625,14.296375 Z M7.874,11.138625 C8.148875,11.564625 8.49875,11.990625 8.87375,12.366625 L8.87375,12.366625 L8.79875,12.366625 L8.82375,12.391625 C8.24753527,12.5239633 7.6799377,12.691358 7.124125,12.892875 L7.124125,12.892875 L7.124125,12.842875 L7.074125,12.867875 C7.349,12.3165 7.599,11.740125 7.824,11.163625 L7.824,11.163625 L7.849,11.188625 Z M11.273125,12.466875 C11.773,12.466875 11.873,12.592125 11.873,12.667375 C11.723125,12.7175 11.548125,12.7425 11.373125,12.7175 C11.12325,12.692375 10.87325,12.64225 10.62325,12.516875 C10.84825,12.466875 11.048125,12.466875 11.273125,12.466875 Z M7.699,7.504625 C7.824,7.930625 7.824,8.38175 7.674,8.80775 C7.499,8.40675 7.424,7.955625 7.524,7.529625 C7.549,7.504625 7.599,7.504625 7.624,7.504625 L7.624,7.504625 Z" id="形状结合" fill="#F56349"></path>
                <path d="M11.25,0 L16.25,5 L12.5,5 C11.809625,5 11.25,4.440375 11.25,3.75 L11.25,0 Z" id="路径" fill="#FDB8B8"></path>
            </g>
        </g>
    </g>
</svg>