<?xml version="1.0" encoding="UTF-8"?>
<svg width="20px" height="20px" viewBox="0 0 20 20" version="1.1" xmlns="http://www.w3.org/2000/svg" xmlns:xlink="http://www.w3.org/1999/xlink">
    <title>文件类型-标准图-文件夹</title>
    <g id="页面-1" stroke="none" stroke-width="1" fill="none" fill-rule="evenodd">
        <g id="文件类型-标准图-文件夹">
            <rect id="矩形" x="0" y="0" width="20" height="20"></rect>
            <g id="编组-16" transform="translate(0.000000, 1.500000)" fill-rule="nonzero">
                <path d="M0,1 C0,0.44771525 0.44771525,0 1,0 L7.840625,0 C8.24065644,0 8.60218762,0.238430492 8.75975,0.606125 L9.25,1.75 L19,1.75 C19.5522847,1.75 20,2.19771525 20,2.75 L20,13.25 C20,13.8022847 19.5522847,14.25 19,14.25 L1,14.25 C0.44771525,14.25 0,13.8022847 0,13.25 L0,1 Z" id="路径" fill="#FFA000"></path>
                <path d="M2.75,3.375 L17.25,3.375 C17.9166667,3.375 18.25,3.70833333 18.25,4.375 L18.25,13.375 C18.25,14.0416667 17.9166667,14.375 17.25,14.375 L2.75,14.375 C2.08333333,14.375 1.75,14.0416667 1.75,13.375 L1.75,4.375 C1.75,3.70833333 2.08333333,3.375 2.75,3.375 Z" id="路径" fill="#FFFFFF"></path>
                <path d="M1,5 L19,5 C19.6666667,5 20,5.33333333 20,6 L20,16 C20,16.6666667 19.6666667,17 19,17 L1,17 C0.333333333,17 0,16.6666667 0,16 L0,6 C0,5.33333333 0.333333333,5 1,5 Z" id="路径" fill="#FFCA28"></path>
            </g>
        </g>
    </g>
</svg>