<?xml version="1.0" encoding="UTF-8"?>
<svg width="20px" height="20px" viewBox="0 0 20 20" version="1.1" xmlns="http://www.w3.org/2000/svg" xmlns:xlink="http://www.w3.org/1999/xlink">
    <title>文件类型-标准图-幻灯片</title>
    <g id="页面-1" stroke="none" stroke-width="1" fill="none" fill-rule="evenodd">
        <g id="文件类型-标准图-幻灯片">
            <rect id="矩形" x="0" y="0" width="20" height="20"></rect>
            <g id="编组-18" transform="translate(1.900000, 0.000000)" fill-rule="nonzero">
                <path d="M11.25,0 L16.25,5 L16.25,18.75 C16.25,19.440375 15.690375,20 15,20 L1.25,20 C0.559625,20 0,19.440375 0,18.75 L0,1.25 C0,0.559625 0.559625,0 1.25,0 L11.25,0 Z M8.492,6.432 L4.94,6.432 L4.94,15 L6.344,15 L6.344,11.712 L8.468,11.712 C10.556,11.712 11.6,10.824 11.6,9.06 C11.6,7.308 10.556,6.432 8.492,6.432 Z M8.384,7.632 C8.996,7.632 9.452,7.74 9.74,7.968 C10.028,8.184 10.184,8.544 10.184,9.06 C10.184,9.576 10.04,9.948 9.752,10.176 C9.464,10.392 9.008,10.512 8.384,10.512 L6.344,10.512 L6.344,7.632 L8.384,7.632 Z" id="形状结合" fill="#FF9333"></path>
                <path d="M11.25,0 L16.25,5 L12.5,5 C11.809625,5 11.25,4.440375 11.25,3.75 L11.25,0 Z" id="路径" fill="#FFD3AD"></path>
            </g>
        </g>
    </g>
</svg>