<?xml version="1.0" encoding="UTF-8"?>
<svg width="20px" height="20px" viewBox="0 0 20 20" version="1.1" xmlns="http://www.w3.org/2000/svg" xmlns:xlink="http://www.w3.org/1999/xlink">
    <title>文件类型-标准图-图片文件</title>
    <g id="页面-1" stroke="none" stroke-width="1" fill="none" fill-rule="evenodd">
        <g id="文件类型-标准图-图片文件">
            <rect id="矩形" x="0" y="0" width="20" height="20"></rect>
            <g id="编组-17" transform="translate(1.900000, 0.000000)" fill-rule="nonzero">
                <path d="M11.25,0 L16.25,5 L16.25,18.75 C16.25,19.440375 15.690375,20 15,20 L1.25,20 C0.559625,20 0,19.440375 0,18.75 L0,1.25 C0,0.559625 0.559625,0 1.25,0 L11.25,0 Z M9.52193958,8.679405 C9.42286553,8.6771812 9.32983362,8.72689703 9.276625,8.8105 L9.276625,8.8105 L6.634125,12.952375 L5.42975,11.772375 C5.36986983,11.7134162 5.28690163,11.6840897 5.2032715,11.6923223 C5.11964136,11.700555 5.04398422,11.7454967 4.99675,11.815 L4.99675,11.815 L3.17425,14.4935 C3.11495278,14.5803213 3.10862435,14.6928442 3.15781253,14.7857668 C3.20700071,14.8786895 3.30361176,14.9367218 3.40875,14.9365006 L3.40875,14.9365006 L12.798875,14.9365006 C12.9001833,14.9366227 12.9938436,14.8826294 13.0445061,14.7948986 C13.0951687,14.7071678 13.0951187,14.5990589 13.044375,14.511375 L13.044375,14.511375 L9.761125,8.821375 C9.71172116,8.73546881 9.62101364,8.68162879 9.52193958,8.679405 Z M5.14875,7 C4.3597422,7 3.720125,7.6396172 3.720125,8.428625 C3.720125,9.2176328 4.3597422,9.85725 5.14875,9.85725 C5.9377578,9.85725 6.577375,9.2176328 6.577375,8.428625 C6.577375,7.6396172 5.9377578,7 5.14875,7 Z" id="形状结合" fill="#FCA000"></path>
                <path d="M11.25,0 L16.25,5 L12.5,5 C11.809625,5 11.25,4.440375 11.25,3.75 L11.25,0 Z" id="路径" fill="#FBDE99"></path>
            </g>
        </g>
    </g>
</svg>