<?xml version="1.0" encoding="UTF-8"?>
<svg width="20px" height="20px" viewBox="0 0 20 20" version="1.1" xmlns="http://www.w3.org/2000/svg" xmlns:xlink="http://www.w3.org/1999/xlink">
    <title>文件类型-标准图-压缩文件</title>
    <g id="页面-1" stroke="none" stroke-width="1" fill="none" fill-rule="evenodd">
        <g id="文件类型-标准图-压缩文件">
            <rect id="矩形" x="0" y="0" width="20" height="20"></rect>
            <g id="编组-8" transform="translate(1.900000, 0.000000)" fill-rule="nonzero">
                <path d="M6.75,1.375 L8.122125,1.375 L8.122125,2.648125 L6.75,2.648125 L6.75,4.023125 L8.122125,4.023125 L8.122125,5.398125 L6.75,5.398125 L6.75,6.756125 L8.122125,6.756125 L8.122125,8.11425 L6.75,8.11425 L6.75,9.472375 L8.127875,9.472375 L8.127875,8.114375 L9.5,8.114375 L9.5,6.75625 L8.127875,6.75625 L8.127875,5.398125 L9.5,5.398125 L9.5,4.023125 L8.12775,4.023125 L8.12775,2.75 L9.5,2.75 L9.5,1.375 L8.127875,1.375 L8.127875,0 L11.25,0 L16.25,5 L16.25,18.75 C16.25,19.440375 15.690375,20 15,20 L1.25,20 C0.559625,20 0,19.440375 0,18.75 L0,1.25 C0,0.559625 0.559625,0 1.25,0 L6.75,0 L6.75,1.375 Z M9.5,12.290125 L6.75,12.290125 L6.75,15.006 C6.75,15.1862541 6.82173475,15.3590978 6.949375,15.486375 C7.07707884,15.6136831 7.25005414,15.685125 7.430375,15.685125 L7.430375,15.685125 L8.819625,15.685125 C8.9999692,15.685125 9.17295706,15.6136271 9.300625,15.48625 C9.42820391,15.3590339 9.49993594,15.1862924 9.5,15.006125 L9.5,15.006125 L9.5,12.290125 Z M8.819625,13.846125 L8.819625,15.209875 L7.430375,15.209875 L7.430375,13.846125 L8.819625,13.846125 Z M9.47725,9.574125 L8.110875,9.574125 L8.110875,10.937875 L9.47725,10.937875 L9.47725,9.574125 Z" id="形状结合" fill="#576A95"></path>
                <path d="M11.25,0 L16.25,5 L12.5,5 C11.809625,5 11.25,4.440375 11.25,3.75 L11.25,0 Z" id="路径" fill="#BBC3D4"></path>
            </g>
        </g>
    </g>
</svg>