<?xml version="1.0" encoding="UTF-8"?>
<svg width="20px" height="20px" viewBox="0 0 20 20" version="1.1" xmlns="http://www.w3.org/2000/svg" xmlns:xlink="http://www.w3.org/1999/xlink">
    <title>文件类型-标准图-视频文件</title>
    <g id="页面-1" stroke="none" stroke-width="1" fill="none" fill-rule="evenodd">
        <g id="文件类型-标准图-视频文件">
            <rect id="矩形" x="0" y="0" width="20" height="20"></rect>
            <g id="编组-19" transform="translate(1.900000, 0.000000)" fill-rule="nonzero">
                <path d="M11.25,0 L16.25,5 L16.25,18.75 C16.25,19.440375 15.690375,20 15,20 L1.25,20 C0.559625,20 0,19.440375 0,18.75 L0,1.25 C0,0.559625 0.559625,0 1.25,0 L11.25,0 Z M6.010375,6.828 C5.62075,6.605 5.125,6.88675 5.125,7.333 L5.125,7.333 L5.125,14.2855 C5.125,14.743375 5.62075,15.02525 6.010375,14.7905 L6.010375,14.7905 L11.841625,11.31425 C12.219375,11.091125 12.219375,10.53925 11.841625,10.30425 L11.841625,10.30425 Z" id="形状结合" fill="#7C8EEE"></path>
                <path d="M11.25,0 L16.25,5 L12.5,5 C11.809625,5 11.25,4.440375 11.25,3.75 L11.25,0 Z" id="路径" fill="#CAD1F8"></path>
            </g>
        </g>
    </g>
</svg>