<?xml version="1.0" encoding="UTF-8"?>
<svg width="20px" height="20px" viewBox="0 0 20 20" version="1.1" xmlns="http://www.w3.org/2000/svg" xmlns:xlink="http://www.w3.org/1999/xlink">
    <title>文件类型-标准图-Word文档</title>
    <g id="页面-1" stroke="none" stroke-width="1" fill="none" fill-rule="evenodd">
        <g id="文件类型-标准图-Word文档">
            <rect id="矩形" x="0" y="0" width="20" height="20"></rect>
            <g id="编组-22" transform="translate(1.900000, 0.000000)" fill-rule="nonzero">
                <path d="M11.25,0 L16.25,5 L16.25,18.75 C16.25,19.440375 15.690375,20 15,20 L1.25,20 C0.559625,20 0,19.440375 0,18.75 L0,1.25 C0,0.559625 0.559625,0 1.25,0 L11.25,0 Z M4.507,7 L3.055,7 L5.31,14.854 L6.685,14.854 L8.225,8.947 L8.269,8.947 L9.798,14.854 L11.162,14.854 L13.428,7 L11.976,7 L10.502,12.973 L10.458,12.973 L8.907,7 L7.576,7 L6.025,12.973 L5.981,12.973 L4.507,7 Z" id="形状结合" fill="#3F5BB5"></path>
                <path d="M11.25,0 L16.25,5 L12.5,5 C11.809625,5 11.25,4.440375 11.25,3.75 L11.25,0 Z" id="路径" fill="#B5C8FC"></path>
            </g>
        </g>
    </g>
</svg>