<?xml version="1.0" encoding="UTF-8"?>
<svg width="20px" height="20px" viewBox="0 0 20 20" version="1.1" xmlns="http://www.w3.org/2000/svg" xmlns:xlink="http://www.w3.org/1999/xlink">
    <title>文件类型-标准图-未知文件</title>
    <g id="页面-1" stroke="none" stroke-width="1" fill="none" fill-rule="evenodd">
        <g id="文件类型-标准图-未知文件">
            <rect id="矩形" x="0" y="0" width="20" height="20"></rect>
            <g id="编组-24" transform="translate(1.900000, 0.000000)" fill-rule="nonzero">
                <path d="M11.25,0 L16.25,5 L16.25,18.75 C16.25,19.440375 15.690375,20 15,20 L1.25,20 C0.559625,20 0,19.440375 0,18.75 L0,1.25 C0,0.559625 0.559625,0 1.25,0 L11.25,0 Z M9.1,13.5 L7.8,13.5 L7.8,14.8 L9.1,14.8 L9.1,13.5 Z M8.64,7 C7.826,7 7.188,7.231 6.715,7.693 C6.231,8.155 6,8.793 6,9.607 L7.254,9.607 C7.254,9.145 7.342,8.782 7.529,8.529 C7.738,8.221 8.079,8.078 8.563,8.078 C8.937,8.078 9.234,8.177 9.443,8.386 C9.641,8.595 9.751,8.881 9.751,9.244 C9.751,9.519 9.652,9.783 9.454,10.025 L9.322,10.179 C8.607,10.817 8.178,11.279 8.035,11.576 C7.881,11.873 7.815,12.236 7.815,12.654 L7.815,12.808 L9.08,12.808 L9.08,12.654 C9.08,12.39 9.135,12.159 9.245,11.939 C9.344,11.741 9.487,11.554 9.685,11.389 C10.213,10.927 10.532,10.63 10.631,10.52 C10.895,10.168 11.038,9.717 11.038,9.167 C11.038,8.496 10.818,7.968 10.378,7.583 C9.938,7.187 9.355,7 8.64,7 Z" id="形状结合" fill="#CCCCCC"></path>
                <path d="M11.25,0 L16.25,5 L12.5,5 C11.809625,5 11.25,4.440375 11.25,3.75 L11.25,0 Z" id="路径" fill="#EAEAEA"></path>
            </g>
        </g>
    </g>
</svg>