<?xml version="1.0" encoding="UTF-8"?>
<svg width="16px" height="16px" viewBox="0 0 16 16" version="1.1" xmlns="http://www.w3.org/2000/svg" xmlns:xlink="http://www.w3.org/1999/xlink">
    <title>Icon/File/file_txt备份</title>
    <g id="操作/审批记录" stroke="none" stroke-width="1" fill="none" fill-rule="evenodd">
        <g id="审批记录-选择流程图" transform="translate(-969.000000, -1113.000000)">
            <g id="Modal/Sidebar/Small" transform="translate(698.000000, 0.000000)">
                <g id="编组-6" transform="translate(32.000000, 349.500000)">
                    <g id="编组-9" transform="translate(0.000000, 38.000000)">
                        <g id="文件类型-标准图-记事本" transform="translate(239.000000, 725.500000)">
                            <rect id="矩形" x="0" y="0" width="16" height="16"></rect>
                            <g id="编组-7" transform="translate(1.520000, 0.000000)">
                                <path d="M9,0 L13,4 L13,15 C13,15.5523 12.5523,16 12,16 L1,16 C0.4477,16 0,15.5523 0,15 L0,1 C0,0.4477 0.4477,0 1,0 L9,0 Z M7.26767027,6.39542701 L5.48647403,11.8898631 L6.23735409,12.2068979 L8.06370192,6.71170995 L7.26767027,6.39542701 Z M9.39995898,6.8375 L8.89953065,7.40004273 L10.249476,9.0875 L8.89953065,10.7750427 L9.39995898,11.3375 L10.7499727,9.65004273 L11.2,9.0875 L10.7499727,8.52504273 L9.39995898,6.8375 Z M4.00002735,6.8375 L2.64997265,8.52504273 L2.2,9.0875 L2.64997265,9.65004273 L4.00002735,11.3375 L4.53330377,10.7884173 L3.18331744,9.10827785 L4.53330377,7.42082058 L4.00002735,6.8375 Z" id="形状结合" fill="#8DA7C8"></path>
                                <path d="M9,0 L13,4 L10,4 C9.4477,4 9,3.5523 9,3 L9,0 Z" id="路径" fill-opacity="0.5" fill="#FFFFFF" fill-rule="nonzero"></path>
                            </g>
                        </g>
                    </g>
                </g>
            </g>
        </g>
    </g>
</svg>