<svg width="90px" height="90px" viewBox="0 0 90 90" version="1.1" xmlns="http://www.w3.org/2000/svg" xmlns:xlink="http://www.w3.org/1999/xlink">
    <!-- Generator: Sketch 61.1 (89650) - https://sketch.com -->
    <title>实现预测及战略管控</title>
    <desc>Created with Sketch.</desc>
    <defs>
        <linearGradient x1="50%" y1="100%" x2="50%" y2="-2.48949813e-15%" id="linearGradient-1">
            <stop stop-color="#5A95E9" offset="0%"></stop>
            <stop stop-color="#ABD4FF" stop-opacity="0" offset="100%"></stop>
        </linearGradient>
        <linearGradient x1="100%" y1="50%" x2="0%" y2="50%" id="linearGradient-2">
            <stop stop-color="#FFB72E" offset="0%"></stop>
            <stop stop-color="#FFB72E" stop-opacity="0" offset="100%"></stop>
        </linearGradient>
        <linearGradient x1="-1.11022302e-14%" y1="50%" x2="100%" y2="50%" id="linearGradient-3">
            <stop stop-color="#5AC7E9" offset="0%"></stop>
            <stop stop-color="#ABE6FF" offset="100%"></stop>
        </linearGradient>
        <linearGradient x1="50%" y1="-2.48949813e-15%" x2="50%" y2="100%" id="linearGradient-4">
            <stop stop-color="#1EE0F1" offset="0%"></stop>
            <stop stop-color="#1EE0F1" stop-opacity="0" offset="100%"></stop>
        </linearGradient>
    </defs>
    <g id="实现预测及战略管控" stroke="none" stroke-width="1" fill="none" fill-rule="evenodd">
        <g id="编组-27" transform="translate(2.000000, 2.000000)">
            <circle id="椭圆形" fill="url(#linearGradient-1)" opacity="0.6" cx="15" cy="71" r="15"></circle>
            <circle id="椭圆形" fill="url(#linearGradient-2)" opacity="0.75" cx="74" cy="12" r="12"></circle>
            <path d="M51.0681996,7 C51.9924099,7 52.796071,7.64058401 53.0130595,8.56039694 L55.2070544,17.6928254 L62.5685902,13.2005247 C63.3481415,12.724193 64.3446813,12.8473822 64.9956468,13.4961789 L74.4708115,22.9571119 C75.1378502,23.6223338 75.266436,24.6817611 74.7762027,25.4948101 L70.0747851,33.31322 L78.4569706,35.3499487 C79.3570711,35.5716893 80,36.3929508 80,37.3374016 L80,50.6336261 C80,51.6109273 79.316888,52.4568267 78.3766045,52.6457169 L69.7372475,54.3539409 L74.4145552,61.4167902 C74.9530081,62.2298392 74.8485322,63.3139044 74.1734569,64.0037641 L64.8027682,73.6371621 C64.1598393,74.2941713 63.1632995,74.4255732 62.3757116,73.9656667 L54.0738922,69.04631 L52.4344235,77.2014372 C52.2495814,78.145888 51.4378837,78.8275351 50.4976002,78.8357477 L37.0041299,79 L36.9880567,79 C36.071883,79 35.2682219,78.359416 35.0431968,77.4478157 L32.8974216,68.6685297 L25.6242884,73.6207369 C24.8367005,74.1545569 23.7999777,74.0560055 23.1249023,73.3907836 L13.3764929,63.7573857 C12.6773077,63.0675259 12.5647952,61.9588229 13.1112847,61.1375613 L18.1261301,53.6230181 L9.52695613,51.4795255 C8.62685568,51.2577849 8,50.4365233 8,49.4920725 L8,36.1383598 C8,35.193909 8.63489229,34.3726474 9.53499274,34.1509068 L18.7208394,31.8842249 L14.0756781,24.8624387 C13.5291885,24.0411771 13.6417011,22.9324741 14.3408863,22.2426143 L24.0330394,12.6667047 C24.7000781,12.0096954 25.7207278,11.9029314 26.5083157,12.4121136 L33.8698515,17.2329189 L36.071883,8.5357591 C36.2969081,7.63237139 37.1005693,7 38.0087063,7 L51.0681996,7 Z M44,23 C32.954305,23 24,31.954305 24,43 C24,54.045695 32.954305,63 44,63 C55.045695,63 64,54.045695 64,43 C64,31.954305 55.045695,23 44,23 Z" id="形状结合" fill="url(#linearGradient-3)"></path>
            <path d="M44,30 C47.584,30 50.4,32.816 50.4,36.4 C50.4,39.9645218 47.6145255,42.7693686 44.0583664,42.7997508 L48.9411765,42.8 C52.8941177,42.8 56,45.88 56,49.8 L56,52.6 C56,53.44 55.4352941,54 54.5882353,54 L33.4117647,54 C32.5647059,54 32,53.44 32,52.6 L32,49.8 C32,45.88 35.1058824,42.8 39.0588235,42.8 L43.942,42.799 L43.7673708,42.7960286 C40.294896,42.6772023 37.6,39.9060869 37.6,36.4 C37.6,32.816 40.416,30 44,30 Z" id="形状结合" fill="url(#linearGradient-4)"></path>
        </g>
    </g>
</svg>