<svg width="48px" height="48px" viewBox="0 0 48 48" version="1.1" xmlns="http://www.w3.org/2000/svg" xmlns:xlink="http://www.w3.org/1999/xlink">
    <!-- Generator: Sketch 61.1 (89650) - https://sketch.com -->
    <title>票据OCR</title>
    <desc>Created with Sketch.</desc>
    <g id="票据OCR" stroke="none" stroke-width="1" fill="none" fill-rule="evenodd">
        <g id="编组">
            <path d="M41.5,1.5 L41.5,45.0811388 L34.046,42.597 L29,44.6155494 L24,42.615 L19,44.6155494 L13.953,42.597 L6.5,45.0811388 L6.5,1.5 L41.5,1.5 Z M38.5,4.5 L9.5,4.5 L9.5,40.918 L14.0469236,39.40322 L19,41.384 L24,39.3844506 L29,41.384 L33.9530764,39.40322 L38.5,40.918 L38.5,4.5 Z M34,30 L34,33 L14,33 L14,30 L34,30 Z M34,24 L34,27 L14,27 L14,24 L34,24 Z M15.966,9.952 C18.318,9.952 19.938,11.644 19.938,14.524 C19.938,17.404 18.318,19.168 15.966,19.168 C13.614,19.168 11.994,17.404 11.994,14.524 C11.994,11.632 13.614,9.952 15.966,9.952 Z M25.362,9.952 C26.49,9.952 27.39,10.492 27.966,11.092 L27.966,11.092 L27.03,12.22 C26.586,11.788 26.07,11.476 25.398,11.476 C24.054,11.476 23.046,12.628 23.046,14.536 C23.046,16.468 23.958,17.632 25.362,17.632 C26.118,17.632 26.718,17.272 27.198,16.756 L27.198,16.756 L28.134,17.86 C27.402,18.712 26.454,19.168 25.302,19.168 C23.058,19.168 21.234,17.56 21.234,14.596 C21.234,11.668 23.118,9.952 25.362,9.952 Z M32.658,10.12 C34.518,10.12 35.994,10.768 35.994,12.808 C35.994,14.14 35.322,14.968 34.302,15.364 L34.302,15.364 L36.378,19 L34.398,19 L32.574,15.64 L31.338,15.64 L31.338,19 L29.562,19 L29.562,10.12 Z M15.966,11.476 C14.646,11.476 13.806,12.616 13.806,14.524 C13.806,16.42 14.646,17.632 15.966,17.632 C17.286,17.632 18.126,16.42 18.126,14.524 C18.126,12.616 17.286,11.476 15.966,11.476 Z M32.49,11.524 L31.338,11.524 L31.338,14.236 L32.49,14.236 C33.63,14.236 34.254,13.756 34.254,12.808 C34.254,11.848 33.63,11.524 32.49,11.524 L32.49,11.524 Z" id="形状结合" fill="#FFFFFF" fill-rule="nonzero"></path>
            <rect id="矩形" x="0" y="0" width="48" height="48"></rect>
        </g>
    </g>
</svg>