<svg width="30px" height="30px" viewBox="0 0 30 30" version="1.1" xmlns="http://www.w3.org/2000/svg" xmlns:xlink="http://www.w3.org/1999/xlink">
    <!-- Generator: Sketch 61.1 (89650) - https://sketch.com -->
    <title>数据应用选中</title>
    <desc>Created with Sketch.</desc>
    <g id="数据应用选中" stroke="none" stroke-width="1" fill="none" fill-rule="evenodd">
        <g id="编组">
            <path d="M24,1 C26.7614237,1 29,3.23857625 29,6 L29,24 C29,26.7614237 26.7614237,29 24,29 L6,29 C3.23857625,29 1,26.7614237 1,24 L1,6 C1,3.23857625 3.23857625,1 6,1 L24,1 Z M24,3 L6,3 C4.40231912,3 3.09633912,4.24891996 3.00509269,5.82372721 L3,6 L3,24 C3,25.5976809 4.24891996,26.9036609 5.82372721,26.9949073 L6,27 L24,27 C25.5976809,27 26.9036609,25.75108 26.9949073,24.1762728 L27,24 L27,6 C27,4.40231912 25.75108,3.09633912 24.1762728,3.00509269 L24,3 Z M25,9 L25,14 L23,14 L23,12.414 L16,19.4142136 L13,16.415 L6.70710678,22.7071068 L5.29289322,21.2928932 L13,13.5857864 L16,16.585 L21.584,11 L20,11 L20,9 L25,9 Z" id="形状结合" fill="#FFFFFF" fill-rule="nonzero"></path>
            <rect id="矩形" x="0" y="0" width="30" height="30"></rect>
        </g>
    </g>
</svg>