<svg width="48px" height="48px" viewBox="0 0 48 48" version="1.1" xmlns="http://www.w3.org/2000/svg" xmlns:xlink="http://www.w3.org/1999/xlink">
    <title>甄云时刻</title>
    <g id="甄云时刻" stroke="none" stroke-width="1" fill="none" fill-rule="evenodd">
        <g id="编组">
            <path d="M29.1826117,3.5 C35.3677684,3.5 41.084063,6.78327828 44.17822,12.1152015 C47.2739267,17.4497949 47.2739267,24.0233986 44.17822,29.357992 C41.0839739,34.6900687 35.3675693,37.9734927 29.1826117,37.9731935 L29.1826117,37.9731935 L25.048,37.973 L17.4288797,43.8491933 C16.9169359,44.2312893 16.3055768,44.454332 15.6823223,44.4938368 L15.6823223,44.4938368 L15.4482152,44.5 C14.5817794,44.5 13.7503645,44.1572543 13.1365886,43.5465837 C12.5213476,42.9344555 12.1752725,42.1031833 12.1752725,41.2359199 L12.1752725,41.2359199 L12.175,36.651 L11.8864869,36.5294128 C4.77819544,33.445132 0.549737586,25.9727728 1.68234453,18.24955 L1.68234453,18.24955 L1.73664933,17.9035802 C3.12607128,9.59859244 10.3395288,3.51010569 18.797107,3.5 L18.797107,3.5 Z M29.1826117,6.49999893 L18.7988995,6.49999893 C11.8049375,6.50835667 5.84286514,11.5406174 4.6955268,18.3985995 C3.54846478,25.2549299 7.54874993,31.9341818 14.1606657,34.1954335 L14.1606657,34.1954335 L15.1752725,34.5424254 L15.1752725,41.2359199 C15.1752725,41.3043258 15.2027806,41.3704004 15.2525222,41.4198903 C15.3038156,41.4709241 15.3743463,41.5001022 15.464264,41.5001022 C15.5260161,41.5007466 15.5859444,41.4812285 15.6156625,41.4592801 L15.6156625,41.4592801 L24.0262965,34.9731935 L29.1826842,34.9731935 C34.2994879,34.9734411 39.0266438,32.2582279 41.5834732,27.85224 C44.1388423,23.4487689 44.1388423,18.0244246 41.5834732,13.6209535 C39.026727,9.21510904 34.2996336,6.49999893 29.1826117,6.49999893 L29.1826117,6.49999893 Z M23.5,23 C24.3284271,23 25,23.6715729 25,24.5 C25,25.3284271 24.3284271,26 23.5,26 L16.5,26 C15.6715729,26 15,25.3284271 15,24.5 C15,23.6715729 15.6715729,23 16.5,23 L23.5,23 Z M31.5,16 C32.3284271,16 33,16.6715729 33,17.5 C33,18.3284271 32.3284271,19 31.5,19 L16.5,19 C15.6715729,19 15,18.3284271 15,17.5 C15,16.6715729 15.6715729,16 16.5,16 L31.5,16 Z" id="形状结合" fill="#FFFFFF" fill-rule="nonzero"></path>
            <rect id="矩形" x="0" y="0" width="48" height="48"></rect>
        </g>
    </g>
</svg>