<svg width="48px" height="48px" viewBox="0 0 48 48" version="1.1" xmlns="http://www.w3.org/2000/svg" xmlns:xlink="http://www.w3.org/1999/xlink">
    <title>围标预警</title>
    <g id="围标预警" stroke="none" stroke-width="1" fill="none" fill-rule="evenodd">
        <path d="M24,9 C31.7319865,9 38,15.2680135 38,23 L38,39 L46.5,39 C47.3284271,39 48,39.6715729 48,40.5 C48,41.3284271 47.3284271,42 46.5,42 L1.5,42 C0.671572875,42 1.01453063e-16,41.3284271 0,40.5 C-1.01453063e-16,39.6715729 0.671572875,39 1.5,39 L10,39 L10,23 C10,15.2680135 16.2680135,9 24,9 Z M24,12 C18.0212984,12 13.1566348,16.7697636 13.0037074,22.7115925 L13,23 L13,39 L35,39 L35,23 C35,17.0212984 30.2302364,12.1566348 24.2884075,12.0037074 L24,12 Z M26.4860689,17.8060072 C25.3685808,21.6428872 24.8098367,23.5613273 24.8098367,23.5613273 L24.8098367,23.5613273 L29.4118913,23.5613273 L21.2881909,33.1224446 L23.4501041,26.6677236 L18.6774056,26.6677236 Z M12.0606602,3.93933983 L15.0606602,6.93933983 L12.9393398,9.06066017 L9.93933983,6.06066017 L12.0606602,3.93933983 Z M35.9393398,3.93933983 L38.0606602,6.06066017 L35.0606602,9.06066017 L32.9393398,6.93933983 L35.9393398,3.93933983 Z M25.5,2 L25.5,6 L22.5,6 L22.5,2 L25.5,2 Z" id="形状结合" fill="#FFFFFF"></path>
    </g>
</svg>