<svg width="48px" height="48px" viewBox="0 0 48 48" version="1.1" xmlns="http://www.w3.org/2000/svg" xmlns:xlink="http://www.w3.org/1999/xlink">
    <title>风险雷达</title>
    <g id="风险雷达" stroke="none" stroke-width="1" fill="none" fill-rule="evenodd">
        <path d="M24,5 L43.9721868,19.5106431 L36.3434903,42.9893569 L11.6565097,42.9893569 L4.02781316,19.5106431 L24,5 Z M27.5298132,33.281 L20.4828132,33.281 L15.9068132,39.988 L32.1188132,39.988 L27.5298132,33.281 Z M8.18981316,22.613 L13.3318132,38.439 L18.1098132,31.435 L15.9278132,24.72 L8.18981316,22.613 Z M39.8208132,22.576 L31.9608132,25.058 L29.8938132,31.423 L34.6758132,38.413 L39.8208132,22.576 Z M24.0018132,28.123 L22.5298132,30.28 L25.4768132,30.28 L24.0018132,28.123 Z M19.3888132,25.663 L20.2468132,28.303 L21.6318132,26.273 L19.3888132,25.663 Z M28.4458132,26.168 L26.6808132,26.726 L27.7548132,28.296 L28.4458132,26.168 Z M25.4998132,21.797 L25.4998132,23.953 L27.5678132,23.299 L25.4998132,21.797 Z M22.4998132,21.797 L20.8948132,22.963 L22.4998132,23.4 L22.4998132,21.797 Z M25.4998132,9.797 L25.4998132,18.089 L31.1248132,22.176 L39.0798132,19.664 L25.4998132,9.797 Z M22.4998132,9.797 L8.88081316,19.691 L17.1828132,21.952 L22.4998132,18.089 L22.4998132,9.797 Z" id="形状结合" fill="#FFFFFF" fill-rule="nonzero"></path>
    </g>
</svg>