<svg width="48px" height="48px" viewBox="0 0 48 48" version="1.1" xmlns="http://www.w3.org/2000/svg" xmlns:xlink="http://www.w3.org/1999/xlink">
    <title>云仓一体</title>
    <g id="云仓一体" stroke="none" stroke-width="1" fill="none" fill-rule="evenodd">
        <path d="M24.3483229,7 C31.4974203,7 37.3930407,12.4411193 38.2267686,19.4617827 L38.2611659,19.7819782 L38.279139,19.9866355 L38.3580269,19.9950312 C43.6318867,20.6036413 47.7620776,25.033012 47.9900813,30.4862374 L47.9985471,30.779338 L48,30.9618614 C48,36.9612574 43.2794587,41.842821 37.3988016,41.9962797 L37.1133632,42 L10.8866368,42 C4.87409865,42 0,37.0580218 0,30.9618614 C0,25.5133168 3.89333446,20.9868936 9.0131343,20.0865414 L9.40084305,20.0258879 L9.40191928,20.0114953 C9.97038244,12.9114165 15.6995886,7.29073938 22.7810194,7.01093477 L23.1038206,7.0019081 L24.3483229,7 Z M24.3483229,9.99989781 L23.3597564,9.99989781 L23.1531321,10.0015028 C17.6083895,10.0926549 13.0105746,14.388618 12.4208856,19.9417856 L12.3924906,20.249595 L12.2123684,22.6583794 L9.73472454,23.008434 C5.89791422,23.5788089 3,26.9512395 3,30.9618614 C3,35.3264621 6.40798699,38.8642375 10.6414982,38.9961847 L10.8866368,39 L37.1133632,39 C41.3777026,39 44.8661172,35.5445959 44.9963271,31.2352841 L45.000095,30.9857411 L44.9989305,30.8272979 C44.9355596,26.8638108 42.0450068,23.5687152 38.286852,23.0106768 L37.9616571,22.9697891 L35.506629,22.7085129 L35.2749341,20.069066 C34.7367505,14.4709851 30.1621538,10.1511787 24.6398299,10.003884 L24.3483229,9.99989781 Z M24,17 L31.7942286,21.5 L31.7942286,30.5 L24,35 L16.2057714,30.5 L16.2057714,21.5 L24,17 Z M19.2047714,25.016 L19.205,28.767 L22.4997714,30.669 L22.4997714,26.876 L19.2047714,25.016 Z M28.7937714,25.12 L25.4997714,26.895 L25.4997714,30.669 L28.794,28.767 L28.7937714,25.12 Z M24,20.464 L20.6597714,22.391 L24.017,24.286 L27.4327714,22.445 L24,20.464 Z" id="形状结合" fill="#FFFFFF" fill-rule="nonzero"></path>
    </g>
</svg>