<svg width="48px" height="48px" viewBox="0 0 48 48" version="1.1" xmlns="http://www.w3.org/2000/svg" xmlns:xlink="http://www.w3.org/1999/xlink">
    <title>比价助手</title>
    <g id="比价助手" stroke="none" stroke-width="1" fill="none" fill-rule="evenodd">
        <g id="编组">
            <path d="M24,2.5 C12.1258779,2.5 2.5,12.1258779 2.5,24 C2.5,35.8741221 12.1258779,45.5 24,45.5 C35.8741221,45.5 45.5,35.8741221 45.5,24 C45.5,12.1258779 35.8741221,2.5 24,2.5 Z M24,5.5 C34.2172679,5.5 42.5,13.7827321 42.5,24 C42.5,34.2172679 34.2172679,42.5 24,42.5 C13.7827321,42.5 5.5,34.2172679 5.5,24 C5.5,13.7827321 13.7827321,5.5 24,5.5 Z" id="椭圆形" fill="#FFFFFF" fill-rule="nonzero"></path>
            <polygon id="路径" fill="#FFFFFF" fill-rule="nonzero" points="23.8402082 21.2365903 19.0857028 15.0469701 17 16.4404175 21.8273929 22.7291969 17.9587505 22.7291969 17.9587505 25.1612061 22.5338406 25.1612061 22.5338406 27.4105538 17.9587505 27.4105538 17.9587505 29.8164685 22.5338406 29.8164685 22.5338406 33 23.8402082 33"></polygon>
            <polygon id="路径" fill="#FFFFFF" fill-rule="nonzero" points="31 16.4195419 28.9479375 15 23.8402082 21.2365903 23.8402082 33 25.1185423 33 25.1185423 29.8164685 30.0692831 29.8164685 30.0692831 27.4105538 25.1185423 27.4105538 25.1185423 25.1612061 30.0692831 25.1612061 30.0692831 22.7291969 25.8586304 22.7291969"></polygon>
            <rect id="矩形" x="0" y="0" width="48" height="48"></rect>
        </g>
    </g>
</svg>