<svg width="48px" height="48px" viewBox="0 0 48 48" version="1.1" xmlns="http://www.w3.org/2000/svg" xmlns:xlink="http://www.w3.org/1999/xlink">
    <title>单据精灵</title>
    <g id="单据精灵" stroke="none" stroke-width="1" fill="none" fill-rule="evenodd">
        <g id="编组">
            <path d="M37,3 C39.209139,3 41,4.790861 41,7 L41,41 C41,43.209139 39.209139,45 37,45 L11,45 C8.790861,45 7,43.209139 7,41 L7,7 C7,4.790861 8.790861,3 11,3 L37,3 Z M37,6 L11,6 C10.4871642,6 10.0644928,6.38604019 10.0067277,6.88337887 L10,7 L10,41 C10,41.5128358 10.3860402,41.9355072 10.8833789,41.9932723 L11,42 L37,42 C37.5128358,42 37.9355072,41.6139598 37.9932723,41.1166211 L38,41 L38,7 C38,6.48716416 37.6139598,6.06449284 37.1166211,6.00672773 L37,6 Z M24,29 L24,32 L14,32 L14,29 L24,29 Z M34,21 L34,24 L14,24 L14,21 L34,21 Z M34,13 L34,16 L14,16 L14,13 L34,13 Z" id="形状结合" fill="#FFFFFF" fill-rule="nonzero"></path>
            <rect id="矩形" x="0" y="0" width="48" height="48"></rect>
        </g>
    </g>
</svg>