<svg width="30px" height="30px" viewBox="0 0 30 30" version="1.1" xmlns="http://www.w3.org/2000/svg" xmlns:xlink="http://www.w3.org/1999/xlink">
    <!-- Generator: Sketch 61.1 (89650) - https://sketch.com -->
    <title>智能应用默认态</title>
    <desc>Created with Sketch.</desc>
    <g id="智能应用默认态" stroke="none" stroke-width="1" fill="none" fill-rule="evenodd">
        <g id="编组">
            <path d="M15,0 C16.8505374,0 18.4662713,3.01594064 19.3308529,7.4987758 C23.645162,6.00609772 27.065085,5.89734019 27.9903811,7.5 C28.9156852,9.10267375 27.1114975,12.0100718 23.6612812,15.0003598 C27.1114975,17.9899282 28.9156852,20.8973262 27.9903811,22.5 C27.0650977,24.1026379 23.6452557,23.9939053 19.3306189,22.5011697 C18.4662713,26.9840594 16.8505374,30 15,30 C13.1494626,30 11.5337287,26.9840594 10.6691471,22.5012242 C6.35454788,23.9939115 2.93487577,24.1025918 2.00961894,22.5 C1.08434242,20.8973741 2.88839491,17.9901016 6.33841007,14.9999078 C2.88850254,12.0100718 1.08431482,9.10267375 2.00961894,7.5 C2.93487577,5.89740817 6.35454788,6.0060885 10.6690093,7.49870166 C11.5337287,3.01594064 13.1494626,0 15,0 Z M15.0004074,20.670714 L14.7461793,20.7951925 C14.0082137,21.15464 13.2804578,21.4824833 12.5690755,21.777461 C12.7802569,22.9529164 13.0471724,24.0301652 13.3618327,24.9741462 C14.0461108,27.0269804 14.8129363,28 15,28 C15.1870637,28 15.9538892,27.0269804 16.6381673,24.9741462 C16.9528276,24.0301652 17.2197431,22.9529164 17.4316533,21.7783996 C16.6385363,21.4489056 15.825375,21.079348 15.0004074,20.670714 Z M22.0853737,16.2827179 L21.9396237,16.3943205 C21.3007213,16.8792175 20.6228624,17.3612998 19.9106841,17.8353383 C19.8522599,18.7535835 19.7657361,19.6426665 19.6540242,20.4937209 C20.777271,20.8987299 21.8438084,21.2062543 22.8187803,21.4057676 C24.938726,21.8395825 26.1647984,21.6620019 26.2583302,21.5 C26.3518621,21.3379981 25.8926152,20.1873979 24.4569476,18.5683786 C23.7965926,17.8236884 22.9968785,17.0536992 22.0853737,16.2827179 Z M7.91545196,16.2837699 L7.79196458,16.3870403 C6.93125915,17.123112 6.17362053,17.8572794 5.54305237,18.5683786 C4.10738481,20.1873979 3.64813791,21.3379981 3.74166975,21.5 C3.83520159,21.6620019 5.06127405,21.8395825 7.18121968,21.4057676 C8.15619159,21.2062543 9.22272897,20.8987299 10.3460107,20.4949115 C10.2342639,19.6426665 10.1477401,18.7535835 10.0891592,17.8347364 C9.3225651,17.3249521 8.59626954,16.8057594 7.91545196,16.2837699 Z M12.2667944,19.732321 L12.5532822,19.6087564 C12.6340419,19.57309 12.7149632,19.5370086 12.7960348,19.5005159 L12.5,19.330127 L12.2043134,19.1578771 C12.2238089,19.3509989 12.244644,19.5425201 12.2667944,19.732321 Z M17.7956866,19.1578771 L17.5,19.330127 L17.5,19.330127 L17.2049661,19.5009664 C17.3820485,19.5806703 17.5584134,19.6584116 17.7339448,19.7341515 C17.755356,19.5425201 17.7761911,19.3509989 17.7956866,19.1578771 Z M14.9992747,11.574585 C14.495495,11.8402462 13.9974587,12.1147159 13.5,12.4019238 C13.0000664,12.6905606 12.5109828,12.9861352 12.034667,13.2869568 C12.0114473,13.8506812 12,14.4223733 12,15 C12,15.5776267 12.0114473,16.1493188 12.0338356,16.7125653 C12.5109828,17.0138648 13.0000664,17.3094394 13.5,17.5980762 C14.0004675,17.8870213 14.5015196,18.1630735 15.0007253,18.425415 C15.4991498,18.1627047 15.9998668,17.8868282 16.5,17.5980762 C16.9999283,17.3094425 17.4890069,17.013871 17.965318,16.7130527 C17.9885527,16.1493188 18,15.5776267 18,15 C18,14.4223733 17.9885527,13.8506812 17.9661644,13.2874347 C17.4890069,12.986129 16.9999283,12.6905575 16.5,12.4019238 C15.9995325,12.1129787 15.4984804,11.8369265 14.9992747,11.574585 Z M19.999989,14.6587527 L20,15 L20,15 L19.999989,15.3412473 C20.1572735,15.2279482 20.3125072,15.1142905 20.4655988,15.0003546 C20.3125072,14.8857095 20.1572735,14.7720518 19.999989,14.6587527 Z M9.78534097,14.8145416 L9.53380963,14.9999143 C9.68709291,15.1139977 9.84252389,15.2278023 10.000011,15.3412473 L10,15 L10.000011,14.6587527 C9.92802177,14.7106098 9.85646218,14.762542 9.78534097,14.8145416 Z M3.74166975,8.5 C3.64813791,8.66200189 4.10738481,9.8126021 5.54305237,11.4316214 C6.20316716,12.1760407 7.00253971,12.9457406 7.91363158,13.7164407 C8.59570534,13.1946362 9.32250622,12.6750715 10.0890697,12.1648255 C10.1477401,11.2464165 10.2342639,10.3573335 10.3459758,9.50627906 C9.22272897,9.10127009 8.15619159,8.79374571 7.18121968,8.5942324 C5.06127405,8.16041748 3.83520159,8.33799811 3.74166975,8.5 Z M22.8187803,8.5942324 C21.8438084,8.79374571 20.777271,9.10127009 19.6539893,9.5050885 C19.7657361,10.3573335 19.8522599,11.2464165 19.9108408,12.1652636 C20.6771448,12.6748315 21.4038551,13.1943182 22.0850347,13.7166032 C22.9968785,12.9463008 23.7965926,12.1763116 24.4569476,11.4316214 C25.8926152,9.8126021 26.3518621,8.66200189 26.2583302,8.5 C26.1647984,8.33799811 24.938726,8.16041748 22.8187803,8.5942324 Z M17.7332056,10.267679 L17.4467178,10.3912436 C17.3662904,10.4267632 17.2857028,10.4626944 17.2049661,10.4990336 C17.3026278,10.5564094 17.4012913,10.6128835 17.5,10.669873 L17.7956866,10.8421229 C17.7761911,10.6490011 17.755356,10.4574799 17.7332056,10.267679 Z M12.2660552,10.2658485 L12.2656197,10.2777572 C12.2439449,10.463933 12.2235354,10.6517608 12.2044139,10.841128 L12.5,10.669873 L12.7960348,10.4994841 C12.618616,10.4196227 12.4419173,10.341731 12.2660552,10.2658485 Z M15,2 C14.8129363,2 14.0461108,2.97301959 13.3618327,5.02585381 C13.0471724,5.96983475 12.7802569,7.04708362 12.5683467,8.22160035 C13.3620457,8.5513475 14.1753607,8.92099253 15.0004831,9.32972709 C15.8252985,8.92068602 16.6385256,8.55109736 17.4314102,8.22233765 C17.2198952,7.04769762 16.9529173,5.97010377 16.6381673,5.02585381 C15.9538892,2.97301959 15.1870637,2 15,2 Z" id="形状结合" fill="#182769" fill-rule="nonzero"></path>
            <circle id="椭圆形" fill="#07C5D5" cx="15" cy="15" r="2"></circle>
        </g>
    </g>
</svg>