<svg width="48px" height="48px" viewBox="0 0 48 48" version="1.1" xmlns="http://www.w3.org/2000/svg" xmlns:xlink="http://www.w3.org/1999/xlink">
    <!-- Generator: Sketch 61.1 (89650) - https://sketch.com -->
    <title>拍照识品</title>
    <desc>Created with Sketch.</desc>
    <g id="拍照识品" stroke="none" stroke-width="1" fill="none" fill-rule="evenodd">
        <g id="编组">
            <path d="M45,35 L45,45 L35,45 L35,42 L42,42 L42,35 L45,35 Z M6,35 L6,42 L13,42 L13,45 L3,45 L3,35 L6,35 Z M24,8.26794919 L37.6243557,16.1339746 L37.6243557,31.8660254 L24,39.7320508 L10.3756443,31.8660254 L10.3756443,16.1339746 L24,8.26794919 Z M13.3746443,19.5979492 L13.375,30.133 L22.4996443,35.4009492 L22.4996443,24.8659492 L13.3746443,19.5979492 Z M34.6236443,19.5979492 L25.4996443,24.8659492 L25.4996443,35.4009492 L34.624,30.133 L34.6236443,19.5979492 Z M24,11.732 L14.8746443,16.9999492 L23.999,22.267 L33.1236443,16.9999492 L24,11.732 Z M13,3 L13,6 L6,6 L6,13 L3,13 L3,3 L13,3 Z M45,3 L45,13 L42,13 L42,6 L35,6 L35,3 L45,3 Z" id="形状结合" fill="#FFFFFF"></path>
            <rect id="矩形" x="0" y="0" width="48" height="48"></rect>
        </g>
    </g>
</svg>