<svg width="48px" height="48px" viewBox="0 0 48 48" version="1.1" xmlns="http://www.w3.org/2000/svg" xmlns:xlink="http://www.w3.org/1999/xlink">
    <title>电子签章</title>
    <g id="电子签章" stroke="none" stroke-width="1" fill="none" fill-rule="evenodd">
        <g id="编组">
            <path d="M39,3 C41.209139,3 43,4.790861 43,7 L43,45 L39,43 L34,45 L29,43 L24,45 L19,43 L14,45 L9,43 L5,45 L5,7 C5,4.790861 6.790861,3 9,3 L39,3 Z M39,6 L9,6 C8.48716416,6 8.06449284,6.38604019 8.00672773,6.88337887 L8,7 L8,40.145 L8.86332991,39.7142331 L14,41.768 L19,39.7689011 L24,41.768 L29,39.7689011 L34,41.768 L39.1366701,39.7142331 L40,40.146 L40,7 C40,6.48716416 39.6139598,6.06449284 39.1166211,6.00672773 L39,6 Z M28.5046528,12 L31,14.2349185 L25.9762682,19.9112754 L30.5122882,19.9112754 L30.5122882,23.2720551 L25.7654498,23.2720551 L25.7654498,25.3254915 L30.5122882,25.3254915 L30.5122882,28.6862712 L25.7654498,28.6862712 L25.7654498,32 L22.0909091,32 L22.0909091,28.6862712 L17.5712241,28.6862712 L17.5712241,25.3254915 L22.0909091,25.3254915 L22.0909091,23.2720551 L17.5712241,23.2720551 L17.5712241,19.9112754 L22.0454784,19.9112754 L17,14.2920518 L19.4786447,12.0403294 L24.0050107,17.0814989 L28.5046528,12 Z" id="形状结合" fill="#FFFFFF" fill-rule="nonzero"></path>
            <rect id="矩形" x="0" y="0" width="48" height="48"></rect>
        </g>
    </g>
</svg>