
<svg width="20px" height="20px" viewBox="0 0 20 20" version="1.1" xmlns="http://www.w3.org/2000/svg" xmlns:xlink="http://www.w3.org/1999/xlink">
    <!-- Generator: Sketch 61.1 (89650) - https://sketch.com -->
    <title>对勾</title>
    <desc>Created with Sketch.</desc>
    <g id="对勾" stroke="none" stroke-width="1" fill="none" fill-rule="evenodd">
        <g id="编组-11">
            <rect id="矩形" x="0" y="0" width="20" height="20"></rect>
            <g id="对勾" transform="translate(0.000000, 2.000000)" fill="#07C5D5" fill-rule="nonzero">
                <path d="M7.05603152,15.9245123 C8.92213587,13.3167558 10.8529011,11.001921 12.2876837,9.37240797 C13.1347272,8.41046014 13.930275,7.53552101 14.6917185,6.74842536 C15.3808489,6.03604275 16.0641011,5.38284275 16.7209011,4.76825145 C17.8404663,3.72046014 19.1493011,2.55978188 19.972362,2.06268623 L19.972362,-5.21064673e-14 C18.4483793,0.95346087 15.9302576,2.64103406 14.7975793,3.42360797 C14.1375272,3.87971232 13.5250228,4.31809493 12.947788,4.73564275 C12.3759793,5.14931232 11.7855967,5.60362536 11.1631098,6.08018188 C10.0823793,6.90750362 8.693875,8.01962536 7.34933587,9.16884275 L3.97552717,5.98239058 L0.0150402174,9.10366014 L7.05603152,15.9245123 Z" id="路径"></path>
            </g>
        </g>
    </g>
</svg>