<?xml version="1.0" encoding="UTF-8"?>
<svg width="200px" height="131px" viewBox="0 0 200 131" version="1.1" xmlns="http://www.w3.org/2000/svg" xmlns:xlink="http://www.w3.org/1999/xlink">
    <title>none</title>
    <defs>
        <rect id="path-1" x="50" y="28" width="59" height="87" rx="2"></rect>
        <filter x="-31.4%" y="-20.1%" width="162.7%" height="142.5%" filterUnits="objectBoundingBox" id="filter-2">
            <feOffset dx="0" dy="1" in="SourceAlpha" result="shadowOffsetOuter1"></feOffset>
            <feGaussianBlur stdDeviation="6" in="shadowOffsetOuter1" result="shadowBlurOuter1"></feGaussianBlur>
            <feColorMatrix values="0 0 0 0 0.749019608   0 0 0 0 0.780392157   0 0 0 0 0.823529412  0 0 0 0.2 0" type="matrix" in="shadowBlurOuter1"></feColorMatrix>
        </filter>
        <rect id="path-3" x="131" y="10" width="56" height="30" rx="2"></rect>
        <filter x="-18.8%" y="-35.0%" width="151.8%" height="196.7%" filterUnits="objectBoundingBox" id="filter-4">
            <feMorphology radius="0.5" operator="dilate" in="SourceAlpha" result="shadowSpreadOuter1"></feMorphology>
            <feOffset dx="4" dy="4" in="shadowSpreadOuter1" result="shadowOffsetOuter1"></feOffset>
            <feGaussianBlur stdDeviation="4" in="shadowOffsetOuter1" result="shadowBlurOuter1"></feGaussianBlur>
            <feComposite in="shadowBlurOuter1" in2="SourceAlpha" operator="out" result="shadowBlurOuter1"></feComposite>
            <feColorMatrix values="0 0 0 0 0.749019608   0 0 0 0 0.780392157   0 0 0 0 0.823529412  0 0 0 0.5 0" type="matrix" in="shadowBlurOuter1"></feColorMatrix>
        </filter>
        <polygon id="path-5" points="164.5 25.5714286 159.571429 25.5714286 159.571429 30.5 157.928571 30.5 157.928571 25.5714286 153 25.5714286 153 23.9285714 157.928571 23.9285714 157.928571 19 159.571429 19 159.571429 23.9285714 164.5 23.9285714"></polygon>
    </defs>
    <g id="页面-1" stroke="none" stroke-width="1" fill="none" fill-rule="evenodd">
        <g id="未添加卡片-空态" transform="translate(-629.000000, -256.000000)">
            <g id="none" transform="translate(629.000000, 256.000000)">
                <rect id="矩形" fill="#F2F5F6" fill-rule="nonzero" x="0" y="0" width="180" height="131" rx="4"></rect>
                <path d="M0,4 C0,1.79086 1.79086,0 4,0 L176,0 C178.209,0 180,1.79086 180,4 L180,12 L0,12 L0,4 Z" id="路径" fill="#D5D8DE" fill-rule="nonzero"></path>
                <path d="M10,8 C11.1046,8 12,7.10457 12,6 C12,4.89543 11.1046,4 10,4 C8.89543,4 8,4.89543 8,6 C8,7.10457 8.89543,8 10,8 Z" id="路径" fill="#FFFFFF" fill-rule="nonzero"></path>
                <path d="M17.8125,8 C18.9171,8 19.8125,7.10457 19.8125,6 C19.8125,4.89543 18.9171,4 17.8125,4 C16.7079,4 15.8125,4.89543 15.8125,6 C15.8125,7.10457 16.7079,8 17.8125,8 Z" id="路径" fill="#FFFFFF" fill-rule="nonzero"></path>
                <path d="M25.625,8 C26.7296,8 27.625,7.10457 27.625,6 C27.625,4.89543 26.7296,4 25.625,4 C24.5204,4 23.625,4.89543 23.625,6 C23.625,7.10457 24.5204,8 25.625,8 Z" id="路径" fill="#FFFFFF" fill-rule="nonzero"></path>
                <rect id="矩形" fill="#FFFFFF" fill-rule="nonzero" x="8" y="20" width="164" height="103" rx="2"></rect>
                <rect id="矩形" fill="#E8EBF1" fill-rule="nonzero" x="16" y="28" width="20" height="6" rx="1"></rect>
                <rect id="矩形" fill="#E8EBF1" fill-rule="nonzero" x="16" y="40" width="20" height="6" rx="1"></rect>
                <rect id="矩形" fill="#E8EBF1" fill-rule="nonzero" x="16" y="52" width="20" height="6" rx="1"></rect>
                <rect id="矩形" fill="#E8EBF1" fill-rule="nonzero" x="148" y="28" width="18" height="6" rx="1"></rect>
                <rect id="矩形" fill="#E8EBF1" fill-rule="nonzero" x="144" y="40" width="20" height="6" rx="1"></rect>
                <rect id="矩形" fill="#E8EBF1" fill-rule="nonzero" x="144" y="52" width="20" height="6" rx="1"></rect>
                <rect id="矩形" fill="#E8EBF1" fill-rule="nonzero" x="144" y="64" width="20" height="51" rx="1"></rect>
                <g id="矩形" fill-rule="nonzero">
                    <use fill="black" fill-opacity="1" filter="url(#filter-2)" xlink:href="#path-1"></use>
                    <use fill="#FFFFFF" xlink:href="#path-1"></use>
                </g>
                <line x1="42.5" y1="28" x2="42.5" y2="115" id="路径" stroke="#F5F7FA"></line>
                <line x1="137.5" y1="28" x2="137.5" y2="115" id="路径" stroke="#F5F7FA"></line>
                <path d="M50,29 C50,27.8954 50.8954,27 52,27 L107,27 C108.105,27 109,27.8954 109,29 L109,41 L50,41 L50,29 Z" id="路径" fill="#3095F2" fill-rule="nonzero"></path>
                <rect id="矩形" fill="#E8EBF1" fill-rule="nonzero" x="54" y="82" width="22" height="8" rx="1"></rect>
                <rect id="矩形" fill="#E8EBF1" fill-rule="nonzero" x="54" y="46" width="42" height="4" rx="1"></rect>
                <rect id="矩形" fill="#E8EBF1" fill-rule="nonzero" x="54" y="58" width="20" height="4" rx="1"></rect>
                <rect id="矩形" fill="#E8EBF1" fill-rule="nonzero" x="54" y="70" width="26" height="4" rx="1"></rect>
                <rect id="矩形" fill="#3095F2" fill-rule="nonzero" x="83" y="82" width="22" height="8" rx="1"></rect>
                <rect id="矩形" fill="#29BECE" fill-rule="nonzero" x="16" y="109" width="12" height="6" rx="1"></rect>
                <g id="矩形" stroke-dasharray="2" fill-rule="nonzero">
                    <use fill="black" fill-opacity="1" filter="url(#filter-4)" xlink:href="#path-3"></use>
                    <use stroke="#D3D6DD" stroke-width="1" fill="#FFFFFF" xlink:href="#path-3"></use>
                </g>
                <mask id="mask-6" fill="white">
                    <use xlink:href="#path-5"></use>
                </mask>
                <use id="蒙版" fill="#29BECE" fill-rule="nonzero" xlink:href="#path-5"></use>
            </g>
        </g>
    </g>
</svg>