<?xml version="1.0" encoding="UTF-8"?>
<svg width="48px" height="48px" viewBox="0 0 48 48" version="1.1" xmlns="http://www.w3.org/2000/svg" xmlns:xlink="http://www.w3.org/1999/xlink">
    <title>search</title>
    <g id="页面-1" stroke="none" stroke-width="1" fill="none" fill-rule="evenodd">
        <g id="search">
            <rect id="矩形" x="0" y="0" width="48" height="48"></rect>
            <path d="M21.2,8 C29.0976719,8 35.5,14.4023281 35.5,22.3 C35.5,25.4123657 34.5056919,28.2924982 32.8173991,30.6400742 L40.8105368,38.6335676 C41.3182184,39.1412492 41.3182184,39.9643637 40.8105368,40.4720453 C40.3028552,40.9797269 39.4797408,40.9797269 38.9720592,40.4720453 L31.1100138,32.6093222 C28.5396993,35.0806894 25.0472766,36.6 21.2,36.6 C13.3023281,36.6 6.9,30.1976719 6.9,22.3 C6.9,14.4023281 13.3023281,8 21.2,8 Z M21.2,10.6 C14.7382684,10.6 9.5,15.8382684 9.5,22.3 C9.5,28.7617316 14.7382684,34 21.2,34 C27.6617316,34 32.9,28.7617316 32.9,22.3 C32.9,15.8382684 27.6617316,10.6 21.2,10.6 Z" id="形状结合" fill="#3C3C3C" fill-rule="nonzero"></path>
        </g>
    </g>
</svg>