<?xml version="1.0" encoding="UTF-8"?>
<svg width="16px" height="16px" viewBox="0 0 16 16" version="1.1" xmlns="http://www.w3.org/2000/svg" xmlns:xlink="http://www.w3.org/1999/xlink">
    <title>Icon/zoom_in_map</title>
    <defs>
        <path d="M8.43733334,12.882 L8.43733334,8.43733334 L12.882,8.43733334 L11.1806667,10.1386667 L13.3333333,12.2566667 L12.2566667,13.3333333 L10.1386667,11.18 L8.43733334,12.8826667 L8.43733334,12.882 Z M0.451333328,8.43733334 L4.896,8.43733334 L4.896,12.882 L3.19466666,11.1806667 L1.07666666,13.3333333 L0,12.2566667 L2.15333333,10.1386667 L0.450666656,8.43733334 L0.451333328,8.43733334 Z M4.896,0.451333328 L4.896,4.896 L0.451333328,4.896 L2.15266666,3.19466666 L4.55635529e-13,1.076 L1.07666666,0 L3.19466666,2.15333333 L4.896,0.450666656 L4.896,0.451333328 Z M12.882,4.896 L8.43733334,4.896 L8.43733334,0.451333328 L10.1386667,2.15266666 L12.2566667,8.8817842e-16 L13.3333333,1.07666666 L11.18,3.19466666 L12.8826667,4.896 L12.882,4.896 Z" id="path-1"></path>
    </defs>
    <g id="页面-1" stroke="none" stroke-width="1" fill="none" fill-rule="evenodd">
        <g id="zoom_out_map">
            <rect id="矩形" fill="#000000" fill-rule="nonzero" opacity="0" x="0" y="0" width="16" height="16"></rect>
            <g id="color" transform="translate(1.333333, 1.333333)">
                <mask id="mask-2" fill="white">
                    <use xlink:href="#path-1"></use>
                </mask>
                <use id="蒙版" fill="#000000" fill-rule="nonzero" xlink:href="#path-1"></use>
            </g>
        </g>
    </g>
</svg>