<?xml version="1.0" encoding="UTF-8"?>
<svg width="28px" height="28px" viewBox="0 0 28 28" version="1.1" xmlns="http://www.w3.org/2000/svg" xmlns:xlink="http://www.w3.org/1999/xlink">
    <title>Icon</title>
    <defs>
        <path d="M10,0 C4.486,0 0,4.486 0,10 C0,15.514 4.486,20 10,20 C15.514,20 20,15.514 20,10 C20,4.486 15.514,0 10,0 M10,18 C5.589,18 2,14.411 2,10 C2,5.589 5.589,2 10,2 C14.411,2 18,5.589 18,10 C18,14.411 14.411,18 10,18 M12.293,7.293 L9,10.586 L7.707,9.293 C7.316,8.902 6.684,8.902 6.293,9.293 C5.902,9.684 5.902,10.316 6.293,10.707 L8.293,12.707 C8.488,12.902 8.744,13 9,13 C9.256,13 9.512,12.902 9.707,12.707 L13.707,8.707 C14.098,8.316 14.098,7.684 13.707,7.293 C13.316,6.902 12.684,6.902 12.293,7.293" id="path-1"></path>
    </defs>
    <g id="页面-1" stroke="none" stroke-width="1" fill="none" fill-rule="evenodd">
        <g id="自动填单" transform="translate(-938.000000, -183.000000)">
            <g id="编组-15" transform="translate(937.000000, 171.000000)">
                <g id="Icon" transform="translate(1.000000, 12.000000)">
                    <circle id="Icon-BG" fill="#B9E0CD" cx="14" cy="14" r="14"></circle>
                    <g transform="translate(4.000000, 4.000000)">
                        <circle id="Fill" fill="#FFFFFF" cx="10" cy="10" r="9"></circle>
                        <g>
                            <mask id="mask-2" fill="white">
                                <use xlink:href="#path-1"></use>
                            </mask>
                            <use id="Mask" fill="#47B881" xlink:href="#path-1"></use>
                        </g>
                    </g>
                </g>
            </g>
        </g>
    </g>
</svg>