<?xml version="1.0" encoding="UTF-8"?>
<svg width="240px" height="142px" viewBox="0 0 240 142" version="1.1" xmlns="http://www.w3.org/2000/svg" xmlns:xlink="http://www.w3.org/1999/xlink">
    <title>授权失败备份</title>
    <defs>
        <circle id="path-1" cx="16" cy="16" r="16"></circle>
        <filter x="-43.8%" y="-31.2%" width="187.5%" height="187.5%" filterUnits="objectBoundingBox" id="filter-2">
            <feOffset dx="0" dy="4" in="SourceAlpha" result="shadowOffsetOuter1"></feOffset>
            <feGaussianBlur stdDeviation="4" in="shadowOffsetOuter1" result="shadowBlurOuter1"></feGaussianBlur>
            <feColorMatrix values="0 0 0 0 0.11372549   0 0 0 0 0.129411765   0 0 0 0 0.160784314  0 0 0 0.06 0" type="matrix" in="shadowBlurOuter1" result="shadowMatrixOuter1"></feColorMatrix>
            <feOffset dx="0" dy="2" in="SourceAlpha" result="shadowOffsetOuter2"></feOffset>
            <feGaussianBlur stdDeviation="2" in="shadowOffsetOuter2" result="shadowBlurOuter2"></feGaussianBlur>
            <feColorMatrix values="0 0 0 0 0.11372549   0 0 0 0 0.129411765   0 0 0 0 0.160784314  0 0 0 0.1 0" type="matrix" in="shadowBlurOuter2" result="shadowMatrixOuter2"></feColorMatrix>
            <feMerge>
                <feMergeNode in="shadowMatrixOuter1"></feMergeNode>
                <feMergeNode in="shadowMatrixOuter2"></feMergeNode>
            </feMerge>
        </filter>
        <rect id="path-3" x="22" y="3.98884241" width="16" height="7.97768482" rx="1"></rect>
    </defs>
    <g id="页面-1" stroke="none" stroke-width="1" fill="none" fill-rule="evenodd">
        <g id="授权失败备份">
            <rect id="矩形" x="0" y="0" width="240" height="129.637378"></rect>
            <g id="编组-6" transform="translate(29, 12.9637)">
                <g id="背景/2" transform="translate(16, 10.9693)" fill-rule="nonzero">
                    <g id="背景/1">
                        <path d="M2.66666667,0 L146.666667,0 C148.139426,0 149.333333,1.18719473 149.333333,2.65167365 L149.333333,103.415272 C149.333333,104.879751 148.139426,106.066946 146.666667,106.066946 L2.66666667,106.066946 C1.19390733,106.066946 0,104.879751 0,103.415272 L0,2.65167365 C0,1.18719473 1.19390733,0 2.66666667,0 Z" id="矩形" fill="#F1F4F8"></path>
                        <path d="M2.66666667,0 L146.666667,0 C148.139426,0 149.333333,1.18719473 149.333333,2.65167365 L149.333333,10.6066946 L0,10.6066946 L0,2.65167365 C0,1.18719473 1.19390733,0 2.66666667,0 Z" id="矩形" fill="#DBDEE3"></path>
                        <ellipse id="椭圆形" fill="#FFFFFF" cx="8" cy="5.3033473" rx="2.66666667" ry="2.65167365"></ellipse>
                        <ellipse id="椭圆形备份" fill="#FFFFFF" cx="18.6666667" cy="5.3033473" rx="2.66666667" ry="2.65167365"></ellipse>
                        <ellipse id="椭圆形备份-2" fill="#FFFFFF" cx="29.3333333" cy="5.3033473" rx="2.66666667" ry="2.65167365"></ellipse>
                    </g>
                    <g id="编组-2" transform="translate(5.3333, 15.91)">
                        <path d="M2.66666667,0 L136,0 C137.472759,0 138.666667,1.18719473 138.666667,2.65167365 L138.666667,82.2018831 C138.666667,83.666362 137.472759,84.8535567 136,84.8535567 L2.66666667,84.8535567 C1.19390733,84.8535567 0,83.666362 0,82.2018831 L0,2.65167365 C0,1.18719473 1.19390733,0 2.66666667,0 Z" id="矩形" fill="#FFFFFF"></path>
                        <path d="M2.66666667,0 L37.3333333,0 L37.3333333,84.8535567 L2.66666667,84.8535567 C1.19390733,84.8535567 0,83.666362 0,82.2018831 L0,2.65167365 C0,1.18719473 1.19390733,0 2.66666667,0 Z" id="矩形" fill="#E2E5E9"></path>
                        <path d="M6.66666667,5.3033473 L9.33333333,5.3033473 C10.069713,5.3033473 10.6666667,5.89694466 10.6666667,6.62918412 L10.6666667,9.28085776 C10.6666667,10.0130973 10.069713,10.6066946 9.33333333,10.6066946 L6.66666667,10.6066946 C5.930287,10.6066946 5.33333333,10.0130973 5.33333333,9.28085776 L5.33333333,6.62918412 C5.33333333,5.89694466 5.930287,5.3033473 6.66666667,5.3033473 Z" id="矩形" fill="#FFFFFF"></path>
                        <path d="M17.3333333,5.3033473 L30.6666667,5.3033473 C31.4030463,5.3033473 32,5.89694466 32,6.62918412 L32,9.28085776 C32,10.0130973 31.4030463,10.6066946 30.6666667,10.6066946 L17.3333333,10.6066946 C16.5969537,10.6066946 16,10.0130973 16,9.28085776 L16,6.62918412 C16,5.89694466 16.5969537,5.3033473 17.3333333,5.3033473 Z" id="矩形备份" fill="#FFFFFF"></path>
                        <path d="M6.66666667,15.9100419 L25.3333333,15.9100419 C26.069713,15.9100419 26.6666667,16.5036392 26.6666667,17.2358787 L26.6666667,19.8875523 C26.6666667,20.6197918 26.069713,21.2133892 25.3333333,21.2133892 L6.66666667,21.2133892 C5.930287,21.2133892 5.33333333,20.6197918 5.33333333,19.8875523 L5.33333333,17.2358787 C5.33333333,16.5036392 5.930287,15.9100419 6.66666667,15.9100419 Z" id="矩形备份-2" fill="#FFFFFF"></path>
                        <path d="M6.66666667,26.5167365 L30.6666667,26.5167365 C31.4030463,26.5167365 32,27.1103339 32,27.8425733 L32,30.494247 C32,31.2264864 31.4030463,31.8200838 30.6666667,31.8200838 L6.66666667,31.8200838 C5.930287,31.8200838 5.33333333,31.2264864 5.33333333,30.494247 L5.33333333,27.8425733 C5.33333333,27.1103339 5.930287,26.5167365 6.66666667,26.5167365 Z" id="矩形备份-3" fill="#FFFFFF"></path>
                        <path d="M6.66666667,37.123431 L20,37.123431 C20.7363797,37.123431 21.3333333,37.7170284 21.3333333,38.4492679 L21.3333333,41.1009415 C21.3333333,41.833181 20.7363797,42.4267783 20,42.4267783 L6.66666667,42.4267783 C5.930287,42.4267783 5.33333333,41.833181 5.33333333,41.1009415 L5.33333333,38.4492679 C5.33333333,37.7170284 5.930287,37.123431 6.66666667,37.123431 Z" id="矩形备份-4" fill="#FFFFFF"></path>
                        <path d="M6.66666667,47.7301257 L30.6666667,47.7301257 C31.4030463,47.7301257 32,48.323723 32,49.0559625 L32,51.7076361 C32,52.4398756 31.4030463,53.033473 30.6666667,53.033473 L6.66666667,53.033473 C5.930287,53.033473 5.33333333,52.4398756 5.33333333,51.7076361 L5.33333333,49.0559625 C5.33333333,48.323723 5.930287,47.7301257 6.66666667,47.7301257 Z" id="矩形备份-5" fill="#FFFFFF"></path>
                    </g>
                    <path d="M49.3333333,21.2133892 L65.3333333,21.2133892 C66.069713,21.2133892 66.6666667,21.8069865 66.6666667,22.539226 L66.6666667,27.8425733 C66.6666667,28.5748127 66.069713,29.1684101 65.3333333,29.1684101 L49.3333333,29.1684101 C48.5969537,29.1684101 48,28.5748127 48,27.8425733 L48,22.539226 C48,21.8069865 48.5969537,21.2133892 49.3333333,21.2133892 Z" id="矩形" fill="#E9ECF0"></path>
                    <rect id="矩形" fill="#FFFFFF" x="53.3333333" y="23.8650628" width="8" height="2.65167365" rx="1.32583682"></rect>
                    <path d="M49.3333333,34.4717574 L137.333333,34.4717574 C138.069713,34.4717574 138.666667,35.0653548 138.666667,35.7975943 L138.666667,57.0109834 C138.666667,57.7432229 138.069713,58.3368202 137.333333,58.3368202 L49.3333333,58.3368202 C48.5969537,58.3368202 48,57.7432229 48,57.0109834 L48,35.7975943 C48,35.0653548 48.5969537,34.4717574 49.3333333,34.4717574 Z" id="矩形" fill="#F1F4F8"></path>
                    <path d="M54.6666667,39.7751047 L84,39.7751047 C84.7363797,39.7751047 85.3333333,40.3687021 85.3333333,41.1009415 L85.3333333,43.7526152 C85.3333333,44.4848547 84.7363797,45.0784521 84,45.0784521 L54.6666667,45.0784521 C53.930287,45.0784521 53.3333333,44.4848547 53.3333333,43.7526152 L53.3333333,41.1009415 C53.3333333,40.3687021 53.930287,39.7751047 54.6666667,39.7751047 Z" id="矩形" fill="#E2E5E9"></path>
                    <path d="M129.333333,39.7751047 L132,39.7751047 C132.73638,39.7751047 133.333333,40.3687021 133.333333,41.1009415 L133.333333,43.7526152 C133.333333,44.4848547 132.73638,45.0784521 132,45.0784521 L129.333333,45.0784521 C128.596954,45.0784521 128,44.4848547 128,43.7526152 L128,41.1009415 C128,40.3687021 128.596954,39.7751047 129.333333,39.7751047 Z" id="矩形备份-6" fill="#E2E5E9"></path>
                    <g id="编组-2备份-2" transform="translate(48, 79.36)">
                        <g id="编组" transform="translate(0, 0.1902)">
                            <ellipse id="椭圆形" fill="#F1F4F8" cx="2.66666667" cy="2.65167365" rx="2.66666667" ry="2.65167365"></ellipse>
                            <path d="M2.66666667,3.3434146 C3.30699681,3.3434146 3.82608696,3.96282055 3.82608696,4.72689651 C3.82608696,4.74522656 3.82578821,4.76347335 3.82519622,4.78163033 C3.48068255,4.96732705 3.08605764,5.07276698 2.66666667,5.07276698 C2.24727347,5.07276698 1.8526466,4.96732594 1.50813343,4.78164872 C1.50754512,4.76347335 1.50724638,4.74522656 1.50724638,4.72689651 C1.50724638,3.96282055 2.02633652,3.3434146 2.66666667,3.3434146 Z" id="路径" fill="#DBDEE3"></path>
                            <path d="M2.69240578,3.34540902 L2.66666667,3.3434146 C3.02175884,3.3434146 3.3395672,3.64297309 3.55224472,4.11477039 C3.38219863,4.25122044 3.08794048,4.3406252 2.75362319,4.3406252 C2.32475691,4.3406252 1.96181225,4.1935001 1.84040578,3.99079339 C2.02702193,3.63865698 2.27494327,3.40523825 2.55139299,3.35403317 L2.62382885,3.34796628 L2.69240578,3.34540902 Z" id="形状结合" fill-opacity="0.1" fill="#000000"></path>
                            <polygon id="矩形" fill="#F1F4F8" points="2.31884058 4.03515555 2.66666667 4.15044571 2.31884058 4.26573586"></polygon>
                            <polygon id="矩形备份-2" fill="#F1F4F8" transform="translate(2.8406, 4.1504) scale(-1, 1) translate(-2.8406, -4.1504)" points="2.66670725 4.03515555 3.01453333 4.15044571 2.66670725 4.26573586"></polygon>
                            <rect id="矩形" fill="#F1F4F8" x="2.55072464" y="4.09280063" width="1" height="1" rx="0.333333333"></rect>
                            <ellipse id="椭圆形备份-2" fill="#DBDEE3" cx="2.66666667" cy="2.53638349" rx="1.50724638" ry="1.3834819"></ellipse>
                        </g>
                        <ellipse id="椭圆形备份-2" fill="#FFFFFF" cx="2.66666667" cy="2.72656298" rx="1.27536232" ry="1.15290158"></ellipse>
                        <path d="M2.92830357,2.49598512 C2.96031729,2.49641145 2.98592714,2.52263275 2.98550992,2.55455717 C2.983049,2.74017371 2.88009443,2.84284109 2.69565474,2.84284109 C2.51121505,2.84284109 2.40826048,2.74017371 2.40579956,2.55455717 C2.40538234,2.52263275 2.43099219,2.49641145 2.46300591,2.49598512 C2.49501963,2.49556907 2.52131428,2.52110748 2.52173665,2.5530319 C2.52336001,2.6757317 2.57499482,2.72722248 2.69565474,2.72722248 C2.81631466,2.72722248 2.86794947,2.6757317 2.86957283,2.5530319 C2.8699952,2.52110748 2.89628985,2.49556907 2.92830357,2.49598512 Z" id="路径-93" fill="#DBDEE3"></path>
                        <path d="M3.16018763,2.49598512 C3.19220135,2.49641145 3.2178112,2.52263275 3.21739398,2.55455717 C3.21493306,2.74017371 3.11197849,2.84284109 2.9275388,2.84284109 C2.7430991,2.84284109 2.64014454,2.74017371 2.63768362,2.55455717 C2.6372664,2.52263275 2.66287625,2.49641145 2.69488997,2.49598512 C2.72690369,2.49556907 2.75319834,2.52110748 2.75362071,2.5530319 C2.75524407,2.6757317 2.80687888,2.72722248 2.9275388,2.72722248 C3.04819872,2.72722248 3.09983353,2.6757317 3.10145689,2.5530319 C3.10187926,2.52110748 3.1281739,2.49556907 3.16018763,2.49598512 Z" id="路径-93备份" fill="#DBDEE3"></path>
                        <ellipse id="椭圆形备份-3" fill="#DBDEE3" cx="3.24637681" cy="2.35186996" rx="1" ry="1"></ellipse>
                        <ellipse id="椭圆形备份-4" fill="#DBDEE3" cx="2.08695652" cy="2.35186996" rx="1" ry="1"></ellipse>
                        <rect id="矩形" fill="#F1F4F8" x="1.85507246" y="2.61127282" width="1" height="1" rx="0.5"></rect>
                        <rect id="矩形备份" fill="#F1F4F8" x="3.13043478" y="2.61127282" width="1" height="1" rx="0.5"></rect>
                        <path d="M3.24637681,1.50160504 L3.13726648,2.15676904 C3.00453194,2.03544536 2.84209958,1.96407953 2.66666667,1.96407953 C2.49102055,1.96407953 2.32840662,2.03561893 2.19558306,2.15721159 L2.08695652,1.50160504 L3.24637681,1.50160504 Z" id="形状结合" fill="#DBDEE3"></path>
                        <ellipse id="椭圆形" fill="#DBDEE3" cx="3.01449275" cy="0.997210603" rx="1" ry="1"></ellipse>
                        <path d="M3.14239043,0.952033489 L3.23786016,1.01763816 L3.22648336,1.03371143 C3.19702064,1.07478152 3.13772668,1.15484177 3.13702533,1.15580937 C2.95335129,1.40920846 2.90330155,1.60019929 3.01249449,1.88941572 L2.90398799,1.93015386 C2.78156284,1.60588962 2.83628253,1.3798729 3.02994397,1.10638356 L3.13088146,0.968268394 C3.13565444,0.961626694 3.13962205,0.956039679 3.14239043,0.952033489 Z" id="路径-96" fill="#DBDEE3"></path>
                    </g>
                    <g id="编组-2备份-2" transform="translate(48, 68.7534)">
                        <g id="编组" transform="translate(0, 0.1902)">
                            <ellipse id="椭圆形" fill="#F1F4F8" cx="2.66666667" cy="2.65167365" rx="2.66666667" ry="2.65167365"></ellipse>
                            <path d="M2.66666667,3.3434146 C3.30699681,3.3434146 3.82608696,3.96282055 3.82608696,4.72689651 C3.82608696,4.74522656 3.82578821,4.76347335 3.82519622,4.78163033 C3.48068255,4.96732705 3.08605764,5.07276698 2.66666667,5.07276698 C2.24727347,5.07276698 1.8526466,4.96732594 1.50813343,4.78164872 C1.50754512,4.76347335 1.50724638,4.74522656 1.50724638,4.72689651 C1.50724638,3.96282055 2.02633652,3.3434146 2.66666667,3.3434146 Z" id="路径" fill="#DBDEE3"></path>
                            <path d="M2.69240578,3.34540902 L2.66666667,3.3434146 C3.02175884,3.3434146 3.3395672,3.64297309 3.55224472,4.11477039 C3.38219863,4.25122044 3.08794048,4.3406252 2.75362319,4.3406252 C2.32475691,4.3406252 1.96181225,4.1935001 1.84040578,3.99079339 C2.02702193,3.63865698 2.27494327,3.40523825 2.55139299,3.35403317 L2.62382885,3.34796628 L2.69240578,3.34540902 Z" id="形状结合" fill-opacity="0.1" fill="#000000"></path>
                            <polygon id="矩形" fill="#F1F4F8" points="2.31884058 4.03515555 2.66666667 4.15044571 2.31884058 4.26573586"></polygon>
                            <polygon id="矩形备份-2" fill="#F1F4F8" transform="translate(2.8406, 4.1504) scale(-1, 1) translate(-2.8406, -4.1504)" points="2.66670725 4.03515555 3.01453333 4.15044571 2.66670725 4.26573586"></polygon>
                            <rect id="矩形" fill="#F1F4F8" x="2.55072464" y="4.09280063" width="1" height="1" rx="0.333333333"></rect>
                            <ellipse id="椭圆形备份-2" fill="#DBDEE3" cx="2.66666667" cy="2.53638349" rx="1.50724638" ry="1.3834819"></ellipse>
                        </g>
                        <ellipse id="椭圆形备份-2" fill="#FFFFFF" cx="2.66666667" cy="2.72656298" rx="1.27536232" ry="1.15290158"></ellipse>
                        <path d="M2.92830357,2.49598512 C2.96031729,2.49641145 2.98592714,2.52263275 2.98550992,2.55455717 C2.983049,2.74017371 2.88009443,2.84284109 2.69565474,2.84284109 C2.51121505,2.84284109 2.40826048,2.74017371 2.40579956,2.55455717 C2.40538234,2.52263275 2.43099219,2.49641145 2.46300591,2.49598512 C2.49501963,2.49556907 2.52131428,2.52110748 2.52173665,2.5530319 C2.52336001,2.6757317 2.57499482,2.72722248 2.69565474,2.72722248 C2.81631466,2.72722248 2.86794947,2.6757317 2.86957283,2.5530319 C2.8699952,2.52110748 2.89628985,2.49556907 2.92830357,2.49598512 Z" id="路径-93" fill="#DBDEE3"></path>
                        <path d="M3.16018763,2.49598512 C3.19220135,2.49641145 3.2178112,2.52263275 3.21739398,2.55455717 C3.21493306,2.74017371 3.11197849,2.84284109 2.9275388,2.84284109 C2.7430991,2.84284109 2.64014454,2.74017371 2.63768362,2.55455717 C2.6372664,2.52263275 2.66287625,2.49641145 2.69488997,2.49598512 C2.72690369,2.49556907 2.75319834,2.52110748 2.75362071,2.5530319 C2.75524407,2.6757317 2.80687888,2.72722248 2.9275388,2.72722248 C3.04819872,2.72722248 3.09983353,2.6757317 3.10145689,2.5530319 C3.10187926,2.52110748 3.1281739,2.49556907 3.16018763,2.49598512 Z" id="路径-93备份" fill="#DBDEE3"></path>
                        <ellipse id="椭圆形备份-3" fill="#DBDEE3" cx="3.24637681" cy="2.35186996" rx="1" ry="1"></ellipse>
                        <ellipse id="椭圆形备份-4" fill="#DBDEE3" cx="2.08695652" cy="2.35186996" rx="1" ry="1"></ellipse>
                        <rect id="矩形" fill="#F1F4F8" x="1.85507246" y="2.61127282" width="1" height="1" rx="0.5"></rect>
                        <rect id="矩形备份" fill="#F1F4F8" x="3.13043478" y="2.61127282" width="1" height="1" rx="0.5"></rect>
                        <path d="M3.24637681,1.50160504 L3.13726648,2.15676904 C3.00453194,2.03544536 2.84209958,1.96407953 2.66666667,1.96407953 C2.49102055,1.96407953 2.32840662,2.03561893 2.19558306,2.15721159 L2.08695652,1.50160504 L3.24637681,1.50160504 Z" id="形状结合" fill="#DBDEE3"></path>
                        <ellipse id="椭圆形" fill="#DBDEE3" cx="3.01449275" cy="0.997210603" rx="1" ry="1"></ellipse>
                        <path d="M3.14239043,0.952033489 L3.23786016,1.01763816 L3.22648336,1.03371143 C3.19702064,1.07478152 3.13772668,1.15484177 3.13702533,1.15580937 C2.95335129,1.40920846 2.90330155,1.60019929 3.01249449,1.88941572 L2.90398799,1.93015386 C2.78156284,1.60588962 2.83628253,1.3798729 3.02994397,1.10638356 L3.13088146,0.968268394 C3.13565444,0.961626694 3.13962205,0.956039679 3.14239043,0.952033489 Z" id="路径-96" fill="#DBDEE3"></path>
                    </g>
                    <g id="编组-2备份-2" transform="translate(48, 89.9667)">
                        <g id="编组" transform="translate(0, 0.1902)">
                            <ellipse id="椭圆形" fill="#F1F4F8" cx="2.66666667" cy="2.65167365" rx="2.66666667" ry="2.65167365"></ellipse>
                            <path d="M2.66666667,3.3434146 C3.30699681,3.3434146 3.82608696,3.96282055 3.82608696,4.72689651 C3.82608696,4.74522656 3.82578821,4.76347335 3.82519622,4.78163033 C3.48068255,4.96732705 3.08605764,5.07276698 2.66666667,5.07276698 C2.24727347,5.07276698 1.8526466,4.96732594 1.50813343,4.78164872 C1.50754512,4.76347335 1.50724638,4.74522656 1.50724638,4.72689651 C1.50724638,3.96282055 2.02633652,3.3434146 2.66666667,3.3434146 Z" id="路径" fill="#DBDEE3"></path>
                            <path d="M2.69240578,3.34540902 L2.66666667,3.3434146 C3.02175884,3.3434146 3.3395672,3.64297309 3.55224472,4.11477039 C3.38219863,4.25122044 3.08794048,4.3406252 2.75362319,4.3406252 C2.32475691,4.3406252 1.96181225,4.1935001 1.84040578,3.99079339 C2.02702193,3.63865698 2.27494327,3.40523825 2.55139299,3.35403317 L2.62382885,3.34796628 L2.69240578,3.34540902 Z" id="形状结合" fill-opacity="0.1" fill="#000000"></path>
                            <polygon id="矩形" fill="#F1F4F8" points="2.31884058 4.03515555 2.66666667 4.15044571 2.31884058 4.26573586"></polygon>
                            <polygon id="矩形备份-2" fill="#F1F4F8" transform="translate(2.8406, 4.1504) scale(-1, 1) translate(-2.8406, -4.1504)" points="2.66670725 4.03515555 3.01453333 4.15044571 2.66670725 4.26573586"></polygon>
                            <rect id="矩形" fill="#F1F4F8" x="2.55072464" y="4.09280063" width="1" height="1" rx="0.333333333"></rect>
                            <ellipse id="椭圆形备份-2" fill="#DBDEE3" cx="2.66666667" cy="2.53638349" rx="1.50724638" ry="1.3834819"></ellipse>
                        </g>
                        <ellipse id="椭圆形备份-2" fill="#FFFFFF" cx="2.66666667" cy="2.72656298" rx="1.27536232" ry="1.15290158"></ellipse>
                        <path d="M2.92830357,2.49598512 C2.96031729,2.49641145 2.98592714,2.52263275 2.98550992,2.55455717 C2.983049,2.74017371 2.88009443,2.84284109 2.69565474,2.84284109 C2.51121505,2.84284109 2.40826048,2.74017371 2.40579956,2.55455717 C2.40538234,2.52263275 2.43099219,2.49641145 2.46300591,2.49598512 C2.49501963,2.49556907 2.52131428,2.52110748 2.52173665,2.5530319 C2.52336001,2.6757317 2.57499482,2.72722248 2.69565474,2.72722248 C2.81631466,2.72722248 2.86794947,2.6757317 2.86957283,2.5530319 C2.8699952,2.52110748 2.89628985,2.49556907 2.92830357,2.49598512 Z" id="路径-93" fill="#DBDEE3"></path>
                        <path d="M3.16018763,2.49598512 C3.19220135,2.49641145 3.2178112,2.52263275 3.21739398,2.55455717 C3.21493306,2.74017371 3.11197849,2.84284109 2.9275388,2.84284109 C2.7430991,2.84284109 2.64014454,2.74017371 2.63768362,2.55455717 C2.6372664,2.52263275 2.66287625,2.49641145 2.69488997,2.49598512 C2.72690369,2.49556907 2.75319834,2.52110748 2.75362071,2.5530319 C2.75524407,2.6757317 2.80687888,2.72722248 2.9275388,2.72722248 C3.04819872,2.72722248 3.09983353,2.6757317 3.10145689,2.5530319 C3.10187926,2.52110748 3.1281739,2.49556907 3.16018763,2.49598512 Z" id="路径-93备份" fill="#DBDEE3"></path>
                        <ellipse id="椭圆形备份-3" fill="#DBDEE3" cx="3.24637681" cy="2.35186996" rx="1" ry="1"></ellipse>
                        <ellipse id="椭圆形备份-4" fill="#DBDEE3" cx="2.08695652" cy="2.35186996" rx="1" ry="1"></ellipse>
                        <rect id="矩形" fill="#F1F4F8" x="1.85507246" y="2.61127282" width="1" height="1" rx="0.5"></rect>
                        <rect id="矩形备份" fill="#F1F4F8" x="3.13043478" y="2.61127282" width="1" height="1" rx="0.5"></rect>
                        <path d="M3.24637681,1.50160504 L3.13726648,2.15676904 C3.00453194,2.03544536 2.84209958,1.96407953 2.66666667,1.96407953 C2.49102055,1.96407953 2.32840662,2.03561893 2.19558306,2.15721159 L2.08695652,1.50160504 L3.24637681,1.50160504 Z" id="形状结合" fill="#DBDEE3"></path>
                        <ellipse id="椭圆形" fill="#DBDEE3" cx="3.01449275" cy="0.997210603" rx="1" ry="1"></ellipse>
                        <path d="M3.14239043,0.952033489 L3.23786016,1.01763816 L3.22648336,1.03371143 C3.19702064,1.07478152 3.13772668,1.15484177 3.13702533,1.15580937 C2.95335129,1.40920846 2.90330155,1.60019929 3.01249449,1.88941572 L2.90398799,1.93015386 C2.78156284,1.60588962 2.83628253,1.3798729 3.02994397,1.10638356 L3.13088146,0.968268394 C3.13565444,0.961626694 3.13962205,0.956039679 3.14239043,0.952033489 Z" id="路径-96" fill="#DBDEE3"></path>
                    </g>
                    <path d="M60,68.9435148 L84,68.9435148 C84.7363797,68.9435148 85.3333333,69.5371122 85.3333333,70.2693517 L85.3333333,72.9210253 C85.3333333,73.6532648 84.7363797,74.2468622 84,74.2468622 L60,74.2468622 C59.2636203,74.2468622 58.6666667,73.6532648 58.6666667,72.9210253 L58.6666667,70.2693517 C58.6666667,69.5371122 59.2636203,68.9435148 60,68.9435148 Z" id="矩形" fill="#E9ECF0"></path>
                    <path d="M116,68.9435148 L126.666667,68.9435148 C127.403046,68.9435148 128,69.5371122 128,70.2693517 L128,72.9210253 C128,73.6532648 127.403046,74.2468622 126.666667,74.2468622 L116,74.2468622 C115.26362,74.2468622 114.666667,73.6532648 114.666667,72.9210253 L114.666667,70.2693517 C114.666667,69.5371122 115.26362,68.9435148 116,68.9435148 Z" id="矩形备份-9" fill="#F1F4F8"></path>
                    <path d="M60,79.5502095 L100,79.5502095 C100.73638,79.5502095 101.333333,80.1438067 101.333333,80.8760462 L101.333333,83.5277199 C101.333333,84.2599593 100.73638,84.8535567 100,84.8535567 L60,84.8535567 C59.2636203,84.8535567 58.6666667,84.2599593 58.6666667,83.5277199 L58.6666667,80.8760462 C58.6666667,80.1438067 59.2636203,79.5502095 60,79.5502095 Z" id="矩形备份-7" fill="#E9ECF0"></path>
                    <path d="M60,90.156904 L92,90.156904 C92.7363797,90.156904 93.3333333,90.7505014 93.3333333,91.4827409 L93.3333333,94.1344145 C93.3333333,94.866654 92.7363797,95.4602513 92,95.4602513 L60,95.4602513 C59.2636203,95.4602513 58.6666667,94.866654 58.6666667,94.1344145 L58.6666667,91.4827409 C58.6666667,90.7505014 59.2636203,90.156904 60,90.156904 Z" id="矩形备份-8" fill="#E9ECF0"></path>
                    <g id="椭圆形" transform="translate(133.3333, 68.9435)">
                        <g id="path-1-link" fill="#00B8CC">
                            <ellipse id="path-1" cx="2.66666667" cy="2.65167365" rx="2.66666667" ry="2.65167365"></ellipse>
                        </g>
                        <g id="path-1-link" fill="#FFFFFF" fill-opacity="0.8">
                            <ellipse id="path-1" cx="2.66666667" cy="2.65167365" rx="2.66666667" ry="2.65167365"></ellipse>
                        </g>
                    </g>
                    <ellipse id="椭圆形备份-3" fill="#E6F2FE" cx="136" cy="82.2018831" rx="2.66666667" ry="2.65167365"></ellipse>
                    <ellipse id="椭圆形备份-4" fill="#ECF7F2" cx="136" cy="92.8085776" rx="2.66666667" ry="2.65167365"></ellipse>
                    <g id="路径-4" transform="translate(47.6667, 63.3087)" fill="#F1F4F8">
                        <path d="M91,0 C91.1840949,0 91.3333333,0.223857625 91.3333333,0.5 C91.3333333,0.776142375 91.1840949,1 91,1 L0.333333333,1 C0.149238417,1 0,0.776142375 0,0.5 C0,0.223857625 0.149238417,0 0.333333333,0 L91,0 Z" id="路径-3"></path>
                    </g>
                </g>
                <g id="元素/闹钟" transform="translate(0, 85.0363)">
                    <g id="椭圆形">
                        <use fill="black" fill-opacity="1" filter="url(#filter-2)" xlink:href="#path-1"></use>
                        <use fill="#FFFFFF" fill-rule="evenodd" xlink:href="#path-1"></use>
                    </g>
                    <circle id="椭圆形" fill="#00B8CC" cx="16" cy="18" r="8"></circle>
                    <g id="编组-2" transform="translate(14, 15)" fill="#FFFFFF">
                        <rect id="矩形" x="0" y="0" width="1.63636364" height="6" rx="0.818181818"></rect>
                        <path d="M3,2.18181818 C3.45186934,2.18181818 3.81818182,2.54813066 3.81818182,3 L3.81818182,7.36363636 C3.81818182,7.8155057 3.45186934,8.18181818 3,8.18181818 C2.54813066,8.18181818 2.18181818,7.8155057 2.18181818,7.36363636 L2.18181818,3 C2.18181818,2.54813066 2.54813066,2.18181818 3,2.18181818 Z" id="矩形备份-3" transform="translate(3, 5.1818) rotate(90) translate(-3, -5.1818)"></path>
                    </g>
                    <path d="M8.41392313,8.27749363 L11.758507,6.12381345 C12.1543276,5.86893244 12.6604614,6.02019015 12.8889885,6.46165701 C13.1175156,6.90312388 12.9818974,7.46762536 12.5860769,7.72250637 L9.24149301,9.87618655 C8.84567244,10.1310676 8.33953864,9.97980985 8.11101152,9.53834299 C7.88248441,9.09687612 8.01810255,8.53237464 8.41392313,8.27749363 Z" id="矩形" fill="#00B8CC"></path>
                    <path d="M22.5860769,8.27749363 L19.241493,6.12381345 C18.8456724,5.86893244 18.3395386,6.02019015 18.1110115,6.46165701 C17.8824844,6.90312388 18.0181026,7.46762536 18.4139231,7.72250637 L21.758507,9.87618655 C22.1543276,10.1310676 22.6604614,9.97980985 22.8889885,9.53834299 C23.1175156,9.09687612 22.9818974,8.53237464 22.5860769,8.27749363 Z" id="矩形备份-4" fill="#00B8CC"></path>
                </g>
                <g id="编组-5" transform="translate(124, 0)">
                    <rect id="矩形" fill="#FFFFFF" x="0" y="0" width="83" height="37.8940029" rx="3"></rect>
                    <rect id="矩形" fill="#00B8CC" x="4" y="3.98884241" width="14" height="13.9609484" rx="2"></rect>
                    <g id="编组" transform="translate(7, 6.9805)" fill="#FFFFFF" fill-rule="nonzero">
                        <path d="M0.189244784,7.17917796 L7.81075522,7.17917796 C7.91536879,7.17917796 8,7.25512577 8,7.34900571 L8,7.80785707 C8,7.901737 7.91536879,7.97768482 7.81075522,7.97768482 L0.189244784,7.97768482 C0.0846312078,7.97768482 0,7.901737 0,7.80785707 L0,7.34900571 C0,7.25512577 0.0846312078,7.17917796 0.189244784,7.17917796 Z M7.40875698,5.05158437 L5.91125478,5.05158437 C5.51278284,5.05158437 5.18013517,4.77732839 5.14839847,4.42079559 C5.0649427,3.45668031 6.22274464,2.99571928 6.22274464,1.81325403 C6.22274464,0.80905517 5.37055539,0 4,0 C2.62944461,0 1.7784308,0.810110001 1.7784308,1.81325403 C1.7784308,2.99571928 2.93623274,3.45668031 2.85277696,4.42079559 C2.81986483,4.77732839 2.48839259,5.05158437 2.08992066,5.05158437 L0.591243021,5.05158437 C0.264472524,5.05158437 0,5.28892129 0,5.58216423 L0,6.47771552 C0,6.57159545 0.0846312078,6.64754327 0.189244784,6.64754327 L7.81075522,6.64754327 C7.91536879,6.64754327 8,6.57159545 8,6.47771552 L8,5.58216423 C8,5.28997611 7.73552748,5.05158437 7.40875698,5.05158437 Z" id="形状"></path>
                    </g>
                    <g id="矩形">
                        <use fill="#00B8CC" xlink:href="#path-3"></use>
                        <use fill-opacity="0.8" fill="#FFFFFF" xlink:href="#path-3"></use>
                    </g>
                    <rect id="矩形" fill="#FFFFFF" fill-rule="nonzero" x="26" y="6.98047422" width="8" height="1.99442121" rx="0.997210603"></rect>
                    <rect id="矩形" fill="#F1F4F8" x="22" y="14.958159" width="42" height="2.99163181" rx="1"></rect>
                    <rect id="矩形备份-2" fill="#F1F4F8" x="4" y="26.9246863" width="76" height="5.98326362" rx="1"></rect>
                    <line x1="4" y1="21.9386333" x2="79" y2="21.9386333" id="路径-2" stroke="#F1F4F8" stroke-linecap="round"></line>
                </g>
            </g>
        </g>
    </g>
</svg>