<?xml version="1.0" encoding="UTF-8"?>
<svg width="160px" height="104px" viewBox="0 0 160 104" version="1.1" xmlns="http://www.w3.org/2000/svg" xmlns:xlink="http://www.w3.org/1999/xlink">
    <title>企业授权</title>
    <g id="版本1" stroke="none" stroke-width="1" fill="none" fill-rule="evenodd">
        <g id="采购方电签管理工作台-授权" transform="translate(-664, -350)">
            <g id="编组-3" transform="translate(384, 300)">
                <g id="编组-4" transform="translate(217, 45)">
                    <g id="title" transform="translate(63, 5)">
                        <g id="path-1-link" fill="#F0F2F7">
                            <rect id="path-1" x="0" y="0" width="160" height="104" rx="2.88000011"></rect>
                        </g>
                        <rect id="矩形" fill="#FFFFFF" x="7.38461538" y="7.34117647" width="145.230769" height="89.3176471" rx="3"></rect>
                        <g id="编组-29" transform="translate(18.4615, 17.1294)">
                            <rect id="矩形" fill="#DAE1EB" fill-rule="nonzero" x="0" y="0" width="26.1301775" height="4.51764706" rx="1"></rect>
                            <rect id="矩形" fill="#E7EBF2" fill-rule="nonzero" x="27.0769231" y="65.4875" width="68.9230769" height="2.44705882" rx="1"></rect>
                            <rect id="矩形" fill="#CFD8E5" fill-rule="nonzero" x="14.7692308" y="57.5058824" width="93.5384615" height="3.67058824" rx="1"></rect>
                            <g id="Projects/Shield" transform="translate(46.7692, 14.6824)" fill="#52C41A">
                                <path d="M15.0967284,0.00331058436 L15.3308999,0.0297953056 L28.1701346,2.21964746 C29.1159702,2.38096863 29.8302573,3.16207694 29.9427368,4.11568777 L29.9582142,4.37970432 L29.9582142,17.5188173 C29.9582142,26.3927217 21.5106071,35.0376345 14.9791071,35.0376345 C8.5756757,35.0376345 0.330542017,26.7284144 0.00966536991,18.0404842 L0,17.5188173 L0,4.37970432 C0,3.39842596 0.635467481,2.54898787 1.53614344,2.27867471 L1.78807958,2.21964746 L14.6273143,0.0297953056 C14.7825957,0.00331058436 14.940019,-0.00551764231 15.0967284,0.00331058436 Z M21.0023383,11.5313859 C20.6033218,11.1232264 19.9565402,11.1231869 19.557476,11.5312976 L19.557476,11.5312976 L13.5518389,17.6757368 L10.6111069,14.6676399 C10.2119589,14.2596728 9.56523287,14.2597454 9.1661724,14.6678021 L9.1661724,14.6678021 L7.72139638,16.1463228 C7.3224325,16.5546051 7.3224325,17.2165614 7.72139638,17.6248436 L7.72139638,17.6248436 L13.5518389,23.5914645 L22.4471143,14.4884275 C22.8460781,14.0801452 22.8460781,13.4181889 22.4471143,13.0099067 L22.4471143,13.0099067 L21.0023383,11.5313859 Z" id="Path"></path>
                            </g>
                        </g>
                    </g>
                </g>
            </g>
        </g>
    </g>
</svg>