<?xml version="1.0" encoding="UTF-8"?>
<svg width="152px" height="126.374454px" viewBox="0 0 152 126.374454" version="1.1" xmlns="http://www.w3.org/2000/svg" xmlns:xlink="http://www.w3.org/1999/xlink">
    <title>恭喜！已完成用章前认证事项</title>
    <g id="版本1" stroke="none" stroke-width="1" fill="none" fill-rule="evenodd">
        <g id="采购方电签管理工作台-完成" transform="translate(-668, -327.6255)">
            <g id="编组-8" transform="translate(56, 200)">
                <g id="编组-3" transform="translate(328, 100)">
                    <g id="编组-4" transform="translate(243, 28)">
                        <g id="恭喜！已完成用章前认证事项" transform="translate(41, -0)">
                            <g id="无日程">
                                <polygon id="路径" fill="#CFD8E5" fill-rule="nonzero" points="96.2589941 20.5840297 18.4747252 36.4813525 36.3054996 123.737078 114.089227 107.840297"></polygon>
                                <polygon id="路径" fill="#F0F2F7" fill-rule="nonzero" points="74.2433522 19.857165 29.9910994 86.5424017 89.4430814 126 133.695334 59.3142216 74.2433522 19.8566233"></polygon>
                                <path d="M69.5553473,0 C69.5553473,0 47.3068215,37.6778087 28.0852434,36.6638812 C8.86420694,35.6499536 27.3031872,10.2416435 39.3833568,20.3673785 C51.464068,30.4931136 36.1533128,60.6092541 17.6563824,65.8386722" id="路径" stroke="#231815" stroke-width="1.47288"></path>
                                <path d="M12.6742941,68.04039 C12.6742941,68.04039 12.3265931,70.1261993 8.22783845,69.6918137 C4.12800057,69.2568864 1.07180702,71.1401269 0,74.6460848 C0.0287042811,74.6460848 9.93655556,82.1785051 12.6742941,68.04039 Z" id="路径" fill="#00B8CC" fill-rule="nonzero"></path>
                                <path d="M72.1804351,46.94723 L69.1453635,45.0255339 L63.5583189,53.8497369 L66.5933905,55.771433 L72.1804351,46.94723 Z M84.0130979,46.2815692 L80.978568,44.3598731 L71.8814773,58.7287218 L74.9165488,60.6504178 L84.0130979,46.2815692 L84.0130979,46.2815692 Z M94.9575529,47.7000929 L91.9224813,45.7783968 L80.3768613,64.0144692 L83.4119328,65.9361653 L94.9575529,47.7000929 Z M101.334778,92.9996905 L56.3010101,64.8821572 L57.0689851,63.6802847 L102.102211,91.7972764 L101.334778,92.9996905 L101.334778,92.9996905 Z M97.3519232,99.6487156 L52.3035328,71.5171 L53.0715077,70.3146859 L98.1193565,98.4463015 L97.3519232,99.6487156 L97.3519232,99.6487156 Z M71.3951293,94.2308109 L47.5099179,78.7743733 L48.2773512,77.5719591 L72.1631042,93.0283968 L71.3951293,94.2308109 Z" id="形状" fill="#FFFFFF" fill-rule="nonzero"></path>
                                <path d="M133.792279,79.6723924 C136.317447,79.6391425 138.587002,78.1240907 139.586211,75.8046271 C141.759871,71.1249418 147.274385,69.0401026 152,71.1114206 C152,71.1114206 150.942274,88.3351903 133.792279,79.6723924 L133.792279,79.6723924 Z" id="路径" fill="#00B8CC" fill-rule="nonzero"></path>
                                <path d="M106.694354,72.5602755 C110.558059,72.5602755 113.690617,69.4274992 113.690617,65.5635252 C113.690617,61.6995512 110.558059,58.566775 106.694354,58.566775 C102.83065,58.566775 99.698092,61.6995512 99.698092,65.5635252 C99.698092,69.4274992 102.83065,72.5602755 106.694354,72.5602755 Z" id="路径" fill="#FFFFFF" fill-rule="nonzero"></path>
                            </g>
                            <g id="check-circle-fill" transform="translate(62.25, 59.25)" fill="#52C41A">
                                <path d="M16.25,32.5 C7.275125,32.5 0,25.224875 0,16.25 C0,7.275125 7.275125,0 16.25,0 C25.224875,0 32.5,7.275125 32.5,16.25 C32.5,25.224875 25.224875,32.5 16.25,32.5 Z M14.629875,22.75 L26.118625,11.259625 L23.820875,8.961875 L14.629875,18.1545 L10.03275,13.557375 L7.735,15.855125 L14.629875,22.75 Z" id="形状"></path>
                            </g>
                        </g>
                    </g>
                </g>
            </g>
        </g>
    </g>
</svg>