<?xml version="1.0" encoding="UTF-8"?>
<svg width="12px" height="12px" viewBox="0 0 12 12" version="1.1" xmlns="http://www.w3.org/2000/svg" xmlns:xlink="http://www.w3.org/1999/xlink">
    <title>钉住</title>
    <g id="草稿2" stroke="none" stroke-width="1" fill="none" fill-rule="evenodd">
        <g id="钉住" fill="#000">
            <path d="M0,0 L12,0 L12,12 L2,12 C0.8954305,12 1.3527075e-16,11.1045695 0,10 L0,0 L0,0 Z" id="矩形" fill-opacity="0"></path>
            <g transform="translate(1.300000, 1.360661)" fill-rule="nonzero" id="形状">
                <path d="M6.9,0.189339093 L9.2,2.38933909 C9.5,2.58933909 9.5,2.98933909 9.3,3.28933909 C9,3.58933909 8.6,3.58933909 8.4,3.38933909 L8.3,3.28933909 L8.1,3.08933909 L5.8,6.38933909 L6.5,7.08933909 C6.7,7.38933909 6.7,7.78933909 6.4,7.98933909 C6.2,8.18933909 5.9,8.18933909 5.6,7.98933909 L1.4,3.68933909 C1.2,3.38933909 1.2,3.08933909 1.4,2.78933909 C1.6,2.58933909 2,2.58933909 2.2,2.78933909 L2.9,3.48933909 L6.2,1.18933909 L6.1,1.08933909 C5.8,0.789339093 5.8,0.489339093 6,0.189339093 C6.2,-0.0106609072 6.6,-0.110660907 6.9,0.189339093 Z M3.5,6.68933909 L2.7,5.88933909 C2,6.68933909 0.9,7.88933909 0.7,8.18933909 C0.4,8.48933909 0.2,8.88933909 -2.22044605e-16,9.28933909 C0.5,9.18933909 0.9,8.98933909 1.2,8.68933909 C1.5,8.48933909 2.7,7.38933909 3.5,6.68933909 L3.5,6.68933909 Z"></path>
            </g>
        </g>
    </g>
</svg>